<?xml version="1.0" encoding="utf-8"?>
<!-- Generator: Adobe Illustrator 19.2.1, SVG Export Plug-In . SVG Version: 6.00 Build 0)  -->
<svg version="1.1" id="Layer_1" xmlns="http://www.w3.org/2000/svg" xmlns:xlink="http://www.w3.org/1999/xlink" x="0px" y="0px"
	 viewBox="0 0 1336.9 251.8" style="enable-background:new 0 0 1336.9 251.8;" xml:space="preserve">
<style type="text/css">
	.st0{clip-path:url(#SVGID_2_);}
	.st1{opacity:0.89;clip-path:url(#SVGID_4_);}
	.st2{clip-path:url(#SVGID_6_);fill:#A9B7B0;}
	.st3{clip-path:url(#SVGID_8_);fill:#A9B7B0;}
</style>
<title>header3</title>
<metadata><?xpacket begin="﻿" id="W5M0MpCehiHzreSzNTczkc9d"?>
<x:xmpmeta xmlns:x="adobe:ns:meta/" x:xmptk="Adobe XMP Core 5.6-c111 79.158366, 2015/09/25-01:12:00        ">
   <rdf:RDF xmlns:rdf="http://www.w3.org/1999/02/22-rdf-syntax-ns#">
      <rdf:Description rdf:about=""
            xmlns:dc="http://purl.org/dc/elements/1.1/">
         <dc:title>
            <rdf:Alt>
               <rdf:li xml:lang="x-default">header3</rdf:li>
            </rdf:Alt>
         </dc:title>
      </rdf:Description>
   </rdf:RDF>
</x:xmpmeta>
                                                                                                    
                                                                                                    
                                                                                                    
                                                                                                    
                                                                                                    
                                                                                                    
                                                                                                    
                                                                                                    
                                                                                                    
                                                                                                    
                                                                                                    
                                                                                                    
                                                                                                    
                                                                                                    
                                                                                                    
                                                                                                    
                                                                                                    
                                                                                                    
                                                                                                    
                                                                                                    
                           
<?xpacket end="w"?></metadata>
<g>
	<defs>
		<rect id="SVGID_1_" x="74.3" y="46.6" width="904.6" height="159.8"/>
	</defs>
	<clipPath id="SVGID_2_">
		<use xlink:href="#SVGID_1_"  style="overflow:visible;"/>
	</clipPath>
	<g class="st0">
		<defs>
			<rect id="SVGID_3_" x="74.3" y="46.6" width="904.6" height="159.8"/>
		</defs>
		<clipPath id="SVGID_4_">
			<use xlink:href="#SVGID_3_"  style="overflow:visible;"/>
		</clipPath>
		<g class="st1">
			<g>
				<defs>
					<rect id="SVGID_5_" x="572" y="125.9" width="415.8" height="82.4"/>
				</defs>
				<clipPath id="SVGID_6_">
					<use xlink:href="#SVGID_5_"  style="overflow:visible;"/>
				</clipPath>
				<path class="st2" d="M949,141.3l-3.9,22.4l11.7-0.4l-0.2,1.2l-11.7,0.4l-3.9,22.4l22.3-0.8l1-5.9l1.2,0l-1.2,7.1l-30.5,1.1
					l0.2-1.2l5.9-0.2l8.1-46l-5.9,0.2l0.2-1.2l30.5-1.1l-1.2,7.1l-1.2,0l1-5.9L949,141.3z M975.7,151.5l3.1-17.7l-41,1.4l-2.1,11.8
					l5.9-0.2l-6.2,35.4l-5.9,0.2l-2.1,11.8l41-1.4l3.1-17.7l-11.7,0.4l-1,5.9l-11.7,0.4l2.1-11.8l11.7-0.4l2.1-11.8l-11.7,0.4
					l2.1-11.8L965,146l-1,5.9L975.7,151.5z M920.1,189.2l-30.5,1.1l0.2-1.2l5.9-0.2l8.1-46l-5.9,0.2l0.2-1.2l12.9-0.5l-0.2,1.2
					l-5.9,0.2l-8.1,46l22.3-0.8l1-5.9l1.2,0L920.1,189.2z M915.8,177l-1,5.9l-11.7,0.4l6.2-35.4l5.9-0.2l2.1-11.8l-23.4,0.8
					l-2.1,11.8l5.9-0.2l-6.2,35.4l-5.9,0.2l-2.1,11.8l41-1.4l3.1-17.7L915.8,177z M884.3,143.5l-5.9,0.2l-6.1,34.8
					c-0.3,1.7-0.9,3.3-1.8,4.8c-0.9,1.5-2,2.9-3.3,4.1c-1.3,1.2-2.8,2.1-4.4,2.8c-1.6,0.7-3.3,1.1-4.9,1.1l-8.2,0.3
					c-1.7,0.1-3.2-0.2-4.6-0.8c-1.4-0.6-2.6-1.4-3.5-2.5c-0.9-1.1-1.6-2.4-1.9-3.9c-0.4-1.5-0.4-3.1-0.1-4.8l6.1-34.8l-5.9,0.2
					l0.2-1.2l12.9-0.5l-0.2,1.2l-5.9,0.2l-6.1,34.8c-0.3,1.5-0.2,3,0.1,4.3c0.3,1.4,0.9,2.5,1.8,3.5s1.9,1.7,3.1,2.3
					c1.3,0.5,2.6,0.8,4.2,0.7l8.2-0.3c1.5-0.1,3-0.4,4.5-1c1.5-0.6,2.8-1.5,4-2.5c1.2-1,2.2-2.3,3-3.7c0.8-1.4,1.4-2.9,1.6-4.4
					l6.1-34.8l-5.9,0.2l0.2-1.2l12.9-0.5L884.3,143.5z M867.3,137.7l-2.1,11.8l5.9-0.2l-5.2,29.5c-0.3,1.6-1.1,3-2.4,4.2
					c-1.3,1.2-2.8,1.8-4.4,1.9l-8.2,0.3c-1.6,0.1-2.9-0.5-3.8-1.6c-0.9-1.1-1.3-2.5-1-4.1l5.2-29.5l5.9-0.2l2.1-11.8l-23.4,0.8
					l-2.1,11.8l5.9-0.2l-5.2,29.5c-0.4,2.5-0.4,4.8,0.2,6.9c0.5,2.1,1.5,3.9,2.8,5.5c1.3,1.5,2.9,2.7,4.9,3.6c2,0.9,4.2,1.2,6.6,1.2
					l8.2-0.3c2.4-0.1,4.8-0.6,7.1-1.6c2.3-1,4.4-2.3,6.3-4s3.5-3.6,4.7-5.7c1.3-2.2,2.2-4.5,2.6-7l5.2-29.5l5.9-0.2l2.1-11.8
					L867.3,137.7z M822.6,174.4c-0.4,2.5-1.3,4.9-2.7,7.2c-1.3,2.3-3,4.2-4.9,6c-1.9,1.7-4.1,3.1-6.5,4.1c-2.4,1-4.8,1.6-7.3,1.7
					l-18.2,0.6l0.2-1.2l5.9-0.2l8.1-46l-5.9,0.2l0.2-1.2l18.2-0.6c2.5-0.1,4.8,0.3,6.8,1.2c2,0.9,3.7,2.1,5.1,3.7
					c1.4,1.6,2.3,3.5,2.9,5.7c0.6,2.2,0.6,4.5,0.2,7.1L822.6,174.4z M787.2,140.5l-2.1,11.8l5.9-0.2l-6.2,35.4l-5.9,0.2l-2.1,11.8
					l23.4-0.8c3.2-0.1,6.4-0.8,9.4-2.2c3.1-1.3,5.8-3.1,8.3-5.3c2.5-2.2,4.6-4.8,6.3-7.7c1.7-2.9,2.9-6,3.4-9.3l2.1-11.8
					c0.6-3.3,0.5-6.3-0.2-9.1c-0.7-2.8-2-5.3-3.7-7.3c-1.7-2.1-3.9-3.7-6.6-4.8c-2.6-1.1-5.6-1.6-8.8-1.5L787.2,140.5z M816.2,174.7
					c-0.3,1.6-0.9,3.2-1.7,4.6c-0.9,1.5-1.9,2.7-3.2,3.8c-1.2,1.1-2.6,2-4.2,2.7c-1.5,0.7-3.1,1-4.7,1.1l-5.9,0.2l6.2-35.4l5.9-0.2
					c1.6-0.1,3.1,0.2,4.4,0.8c1.3,0.6,2.4,1.4,3.3,2.4c0.9,1,1.5,2.3,1.9,3.7c0.4,1.4,0.4,2.9,0.1,4.6L816.2,174.7z M798.4,146.5
					l-8.1,46l11.1-0.4c2.3-0.1,4.6-0.6,6.8-1.6c2.2-1,4.2-2.3,6-3.9c1.8-1.6,3.3-3.5,4.6-5.6c1.3-2.1,2.1-4.3,2.5-6.7l2.1-11.8
					c0.4-2.4,0.4-4.6-0.2-6.6c-0.5-2-1.4-3.8-2.7-5.3c-1.3-1.5-2.9-2.7-4.8-3.5c-1.9-0.8-4-1.2-6.4-1.1L798.4,146.5z M754.4,148.1
					l-3.9,22.4l11.7-0.4l-0.2,1.2l-11.7,0.4l-3.9,22.4l22.3-0.8l1-5.9l1.2,0l-1.2,7.1l-30.5,1.1l0.2-1.2l5.9-0.2l8.1-46l-5.9,0.2
					l0.2-1.2l30.5-1.1l-1.2,7.1l-1.2,0l1-5.9L754.4,148.1z M781.1,158.3l3.1-17.7l-41,1.4l-2.1,11.8l5.9-0.2l-6.2,35.4l-5.9,0.2
					l-2.1,11.8l41-1.4l3.1-17.7l-11.7,0.4l-1,5.9l-11.7,0.4l2.1-11.8l11.7-0.4l2.1-11.8l-11.7,0.4l2.1-11.8l11.7-0.4l-1,5.9
					L781.1,158.3z M727.9,149l-8.1,46l5.9-0.2l-0.2,1.2l-12.9,0.5l0.2-1.2l5.9-0.2l3.9-22.4l-27.5,1l-3.9,22.4l5.9-0.2l-0.2,1.2
					l-12.9,0.5l0.2-1.2l5.9-0.2l8.1-46l-5.9,0.2l0.2-1.2l12.9-0.5l-0.2,1.2l-5.9,0.2l-3.9,22.4l27.5-1l3.9-22.4l-5.9,0.2l0.2-1.2
					l12.9-0.5l-0.2,1.2L727.9,149z M738.1,153.9l2.1-11.8l-23.4,0.8l-2.1,11.8l5.9-0.2l-2.1,11.8l-17,0.6l2.1-11.8l5.9-0.2l2.1-11.8
					l-23.4,0.8l-2.1,11.8l5.9-0.2l-6.2,35.4l-5.9,0.2l-2.1,11.8l23.4-0.8l2.1-11.8l-5.9,0.2l2.1-11.8l17-0.6l-2.1,11.8l-5.9,0.2
					l-2.1,11.8l23.4-0.8l2.1-11.8l-5.9,0.2l6.2-35.4L738.1,153.9z M656.2,145c-2.5,0.1-4.8,0.6-7.1,1.6c-2.3,1-4.4,2.3-6.2,4
					c-1.9,1.7-3.5,3.6-4.8,5.8c-1.3,2.2-2.2,4.5-2.6,6.9l-4.1,23.6c-0.4,2.5-0.4,4.8,0.2,6.9c0.5,2.1,1.5,3.9,2.8,5.5
					c1.3,1.5,2.9,2.7,4.9,3.6c2,0.9,4.2,1.2,6.6,1.2l11.7-0.4c2.4-0.1,4.8-0.6,7.1-1.6c2.3-1,4.4-2.3,6.3-4c1.9-1.7,3.5-3.6,4.7-5.7
					c1.3-2.2,2.2-4.5,2.6-7l0.5-3l-11.7,0.4l-0.5,3c-0.3,1.6-1.1,3-2.4,4.2c-1.3,1.2-2.8,1.8-4.4,1.9l-11.7,0.4
					c-1.6,0.1-2.9-0.5-3.8-1.6c-0.9-1.1-1.3-2.5-1-4.1l4.1-23.6c0.3-1.6,1.1-3,2.4-4.2c1.3-1.2,2.8-1.8,4.4-1.9l11.7-0.4
					c1.6-0.1,2.9,0.5,3.8,1.6c0.9,1.1,1.3,2.5,1,4.1l-0.5,3l11.7-0.4l0.5-3c0.4-2.4,0.4-4.7-0.2-6.8c-0.5-2.1-1.5-4-2.8-5.5
					c-1.3-1.5-3-2.7-4.9-3.6c-2-0.9-4.2-1.2-6.6-1.2L656.2,145z M667,149.9c1.5-0.1,2.9,0.2,4.1,0.6c1.3,0.5,2.3,1.1,3.2,2
					c0.9,0.9,1.6,1.9,2.1,3.1c0.5,1.2,0.8,2.5,0.8,3.9l-1.2,0c-0.1-2.5-1-4.6-2.7-6.2c-1.7-1.6-3.9-2.4-6.6-2.3l-11.7,0.4
					c-1.5,0.1-3,0.4-4.5,1c-1.5,0.6-2.8,1.5-4,2.5c-1.2,1-2.2,2.3-3,3.7c-0.8,1.4-1.4,2.9-1.6,4.4l-4.1,23.6c-0.3,1.5-0.2,3,0.1,4.3
					c0.3,1.4,0.9,2.5,1.8,3.5c0.8,1,1.9,1.7,3.1,2.3c1.3,0.5,2.6,0.8,4.2,0.7l11.7-0.4c2.7-0.1,5.2-1,7.5-2.8c2.3-1.8,4-3.9,5-6.5
					l1.2,0c-0.5,1.5-1.3,2.8-2.2,4.1c-0.9,1.2-2,2.3-3.2,3.3c-1.2,0.9-2.5,1.7-4,2.2c-1.4,0.6-2.9,0.9-4.4,0.9l-11.7,0.4
					c-1.7,0.1-3.2-0.2-4.6-0.8c-1.4-0.6-2.6-1.4-3.5-2.5c-0.9-1.1-1.6-2.4-1.9-3.9c-0.4-1.5-0.4-3.1-0.1-4.8l4.1-23.6
					c0.3-1.7,0.9-3.3,1.8-4.8c0.9-1.5,2-2.9,3.3-4.1c1.3-1.2,2.8-2.1,4.4-2.8c1.6-0.7,3.3-1.1,4.9-1.1L667,149.9z M613,199.6
					c-1.8,0.7-3.8,1-5.8,1.1c-1.8,0.1-3.5,0-5-0.2c-1.5-0.2-2.8-0.5-4-1c-1.2-0.5-2.3-1.1-3.3-1.9c-1-0.8-2-1.7-2.9-2.9l-2.7,0.1
					l-1,5.9l-1.2,0l1.2-7.1l4.2-0.1c1.8,2,3.7,3.5,5.9,4.6c2.2,1,5.2,1.5,8.9,1.4c1.8-0.1,3.6-0.4,5.2-0.9c1.6-0.6,3.1-1.3,4.3-2.2
					c1.3-0.9,2.3-2,3.2-3.3c0.9-1.3,1.4-2.6,1.7-4.1c0.2-1,0.2-2.1,0-3.3c-0.1-1.3-0.7-2.5-1.6-3.7c-0.9-1.2-2.4-2.3-4.3-3.3
					c-2-1-4.7-1.7-8.1-2.1c-1.9-0.2-3.8-0.6-5.8-1.1c-1.9-0.5-3.6-1.3-5.1-2.3c-1.5-1-2.6-2.3-3.4-3.8c-0.8-1.5-1-3.5-0.6-5.8
					c0.3-1.7,0.9-3.3,1.9-4.7c0.9-1.5,2.1-2.7,3.6-3.8c1.4-1.1,3-2,4.8-2.6c1.8-0.7,3.6-1,5.6-1.1c2.2-0.1,4.1,0.1,5.6,0.4
					c1.8,0.4,3.4,1,5,1.9c1.6,0.9,3,2.1,4.1,3.6l2.6-0.1l1-5.9l1.2,0l-1.2,7.1l-4.3,0.1c-1.6-2-3.5-3.5-5.7-4.6
					c-2.1-1-5-1.5-8.6-1.4c-2,0.1-3.8,0.4-5.4,1.1c-1.7,0.7-3.1,1.5-4.4,2.6c-1.3,1-2.3,2.2-3.1,3.5c-0.8,1.3-1.3,2.6-1.5,3.9
					c-1.2,6.6,3.5,10.6,14,11.9c3.6,0.4,6.5,1.2,8.5,2.3c2.1,1.1,3.6,2.3,4.6,3.6c1,1.3,1.6,2.6,1.7,4c0.1,1.4,0.1,2.6-0.1,3.6
					c-0.3,1.9-1,3.5-2,4.8c-1,1.3-2,2.3-3,3.1C616.5,198.1,614.9,199,613,199.6 M599.6,163.4c0.2-1.3,1.1-2.5,2.6-3.7
					c1.5-1.2,3.4-1.8,5.7-1.9c1.6-0.1,3,0,4.2,0.3c1.2,0.2,2.2,0.6,3.1,1.1c0.9,0.5,1.7,1.1,2.5,1.9c0.7,0.8,1.5,1.7,2.3,2.7
					l11.8-0.4l3.1-17.7l-11.7,0.4l-0.4,2.4c-1.6-0.9-3.4-1.6-5.4-2c-2-0.5-4.5-0.6-7.3-0.5c-2.7,0.1-5.2,0.6-7.7,1.6
					c-2.4,1-4.7,2.2-6.7,3.8c-2,1.6-3.7,3.5-5,5.6c-1.3,2.1-2.2,4.4-2.6,6.8c-0.3,1.5-0.3,3.1-0.1,5c0.2,1.9,0.9,3.7,2.1,5.4
					c1.2,1.7,3.1,3.3,5.7,4.7c2.6,1.4,6.1,2.4,10.7,3c1.3,0.2,2.6,0.4,3.9,0.7c1.3,0.3,2.5,0.8,3.5,1.3c1,0.6,1.8,1.3,2.4,2.1
					c0.6,0.8,0.8,1.9,0.5,3.1c-0.2,1.3-1.1,2.5-2.7,3.4c-1.6,0.9-3.4,1.5-5.5,1.5c-1.6,0.1-3,0-4.2-0.2c-1.2-0.2-2.3-0.6-3.2-1.1
					c-0.9-0.5-1.8-1.1-2.7-1.9c-0.8-0.8-1.7-1.7-2.5-2.8l-11.7,0.4l-3.1,17.7l11.7-0.4l0.5-2.6c1.6,0.9,3.5,1.6,5.7,2.1
					c2.2,0.5,4.7,0.7,7.5,0.6c2.7-0.1,5.3-0.6,7.8-1.5c2.5-0.9,4.7-2.1,6.6-3.7c2-1.5,3.6-3.3,4.9-5.4c1.3-2.1,2.2-4.3,2.6-6.6
					c0.2-1.2,0.3-2.7,0.2-4.6c-0.1-1.9-0.7-3.7-1.9-5.6c-1.2-1.9-3-3.6-5.6-5.2c-2.6-1.6-6.2-2.6-11-3.2
					C602.4,169.3,598.9,167,599.6,163.4"/>
			</g>
		</g>
		<g class="st1">
			<g>
				<defs>
					<rect id="SVGID_7_" x="65.3" y="33" width="719.3" height="116.9"/>
				</defs>
				<clipPath id="SVGID_8_">
					<use xlink:href="#SVGID_7_"  style="overflow:visible;"/>
				</clipPath>
				<path class="st3" d="M775.5,95.5c-0.7,0.3-1.6,0.3-2.2,0.3c-2.4,0.1-3.1-1.1-3.1-2.5c0-1.8,3.6-16.7,4-19.5
					c0.1-0.7,0.2-1.3,0.2-1.9c0-5.7-5-10.4-9.6-10.2c-3.7,0.1-7.5,2.3-11,4.9l1-4.6l-12.1,0.4l-8.9,42.2l12.1-0.4l7.1-34.1
					c1.8-1.2,3.3-1.9,5.3-1.9c2.3-0.1,3.9,1.8,3.9,4.8c0,0.7-0.1,1.4-0.3,2.2l-3.2,15.2c-0.3,1.6-0.5,3-0.5,4.3c0,6.3,3.1,9,8.5,8.8
					C769.7,103.4,773.2,102.7,775.5,95.5 M714.1,97.7c-3.3,0.1-5.6-1.1-5.6-6.2c0-6.7,3.3-23.9,11.2-24.2c2.3-0.1,3.3,1.5,3.5,4.2
					c-2.3,0.9-3.7,3.6-3.7,6c0,2,1.1,3.7,3.5,3.6C722,89.4,719.2,97.5,714.1,97.7 M719.3,62.4c-11.6,0.4-22,9.7-22,30.3
					c0,10,3.9,13.6,12.8,13.3c8.4-0.3,17.5-8.9,19.1-25.8c4.9-1.5,9.2-4.4,11.8-7.8l-0.3-1.7c-3.1,1.4-4.9,4.3-8.8,4.4
					c-1.2,0-1.9-0.2-2.4-0.7C729.3,68.2,727.3,62.1,719.3,62.4 M680.6,53.5c0,3.7,2.9,6.5,6.6,6.4c3.7-0.1,6.7-3.2,6.7-6.9
					c0-3.7-3-6.6-6.7-6.5C683.6,46.7,680.6,49.8,680.6,53.5 M679,64.6l-6,28.7c-0.3,1.6-0.5,3-0.5,4.3c0,6.3,4,9,10.5,8.8
					c6.5-0.2,16-11.7,19.8-15.7l-2.8,0.1c-3.3,2.8-7.7,7.6-11,7.8c-3.3,0.1-4.2-1.2-4.2-3c0-0.8,0.2-1.7,0.3-2.6l6-28.7L679,64.6z
					 M656.6,53.9l-2.5,11.7l-2.8,0.1l-0.7,3.4l2.8-0.1c-1.4,7.3-5.8,25.2-5.8,29.6c0,6.3,3.9,9,10.4,8.8c6.5-0.2,16-11.7,19.8-15.7
					l-2.8,0.1c-3.3,2.8-7.7,7.6-11,7.8c-3.3,0.1-4.2-1.1-4.2-3c0-0.4-0.1-1.3,5.7-27.9l5-0.2l0.7-3.4l-5,0.2
					c1.6-7.6,2.8-13.3,2.8-13.3L656.6,53.9z M624.3,71.3c1.2,0,2.8,0.2,4.1,1.4l-4.7,22.4c-0.3,1-0.4,1.9-0.5,2.8
					c-1.6,2.4-3.4,4.3-5.4,4.4c-2.1,0.1-4.9-0.8-4.9-5.8C613,85,618,71.5,624.3,71.3 M629.8,66.4l-0.5,2.2c-1.5-1.2-3.6-2-5.6-1.9
					c-16.7,0.6-21.9,18-21.9,32.4c0,4.9,2.3,10.6,10.4,10.3c5.1-0.2,8.9-3.7,11.4-7.3c1.1,4.3,4.8,6.2,10.2,6
					c6.5-0.2,16-11.7,19.8-15.7l-2.8,0.1c-3.3,2.8-7.7,7.6-11,7.8c-3.3,0.1-4.2-1.2-4.2-3c0-0.8,0.2-1.7,0.3-2.6l6-28.7L629.8,66.4z
					 M596.3,80c0.2-0.7,0.2-1.3,0.2-2c0-5.6-5.1-10.3-9.6-10.1c-3.7,0.1-7.5,2.3-11,4.9l1-4.6l-12.1,0.4l-8.9,42.2l12.1-0.4
					l7.1-34.1c1.8-1.2,3.3-1.9,5.3-1.9c2.3-0.1,3.8,1.8,3.8,4.8c0,0.7-0.1,1.4-0.3,2.2l-3.2,15.2c-0.3,1.6-0.5,3-0.5,4.3
					c0,6.3,3.9,9,10.4,8.8c6.5-0.2,12.9-9.5,16.7-13.5l-2.8,0.1c-3.3,2.8-4.6,5.4-8,5.6c-3.3,0.1-4.2-1.1-4.2-3
					c0-0.8,0.2-1.8,0.4-2.7L596.3,80z M541.3,58.4c0,3.7,2.9,6.5,6.6,6.4c3.7-0.1,6.7-3.2,6.7-6.9c0-3.7-3-6.6-6.7-6.5
					C544.2,51.6,541.3,54.7,541.3,58.4 M539.7,69.5l-6,28.7c-0.3,1.6-0.5,3-0.5,4.3c0,6.3,4,9,10.5,8.8c6.5-0.2,16-11.7,19.8-15.7
					l-2.8,0.1c-3.3,2.8-7.7,7.6-11,7.8s-4.2-1.2-4.2-3c0-0.8,0.2-1.7,0.3-2.6l6-28.7L539.7,69.5z M527.1,78.2
					c1.1-0.4,1.9-0.6,2.7-0.6c1,0,1.7,0.2,2.1,0.4c0.3-1.1,0.4-1.9,0.4-2.8c0-4.6-4.7-5.6-9.2-5.5c-16.2,0.6-21.5,16.9-21.5,29.2
					c0,9.9,4.5,13.6,11.5,13.3c14.8-0.5,19.3-11.2,23.4-15.8l-2.8,0.1c-3.8,4.5-8.6,8.2-14.6,8.4c-5.1,0.2-6.1-3.8-6.1-8.8
					c0-9.1,4.5-22.9,11.5-23.1c1.8-0.1,3.1,0.7,3.1,2.7C527.5,76.5,527.4,77.3,527.1,78.2 M495.5,79.3c1.1-0.4,1.9-0.6,2.7-0.6
					c1,0,1.7,0.2,2.1,0.4c0.3-1.1,0.4-1.9,0.4-2.8c0-4.6-4.7-5.6-9.2-5.5c-16.2,0.6-21.5,16.9-21.5,29.2c0,9.9,4.5,13.6,11.5,13.3
					c14.8-0.5,19.3-11.2,23.4-15.8l-2.8,0.1c-3.8,4.5-8.6,8.2-14.6,8.4c-5.1,0.2-6.1-3.8-6.1-8.8c0-9.1,4.5-22.9,11.6-23.1
					c1.8-0.1,3.1,0.7,3.1,2.7C495.9,77.6,495.7,78.4,495.5,79.3 M447.1,77.5c1.2,0,2.8,0.2,4.1,1.4l-4.7,22.4
					c-0.3,1-0.4,1.9-0.5,2.8c-1.6,2.4-3.4,4.3-5.4,4.4c-2.1,0.1-4.9-0.8-4.9-5.8C435.8,91.2,440.8,77.7,447.1,77.5 M452.5,72.5
					l-0.5,2.2c-1.5-1.2-3.6-2-5.6-1.9c-16.7,0.6-21.9,18-21.9,32.4c0,4.9,2.3,10.6,10.4,10.3c5.1-0.2,8.9-3.7,11.4-7.3
					c1.1,4.3,4.8,6.2,10.2,6c6.5-0.2,16-11.7,19.8-15.7l-2.8,0.1c-3.3,2.8-7.7,7.6-11,7.8c-3.3,0.1-4.2-1.2-4.2-3
					c0-0.8,0.2-1.7,0.3-2.6l6-28.7L452.5,72.5z M409.1,53.3c-1.1,0-2.2-0.1-3.3-0.1c-14,0.5-29.4,11.7-29.4,22.8c0,6,3.2,8,9,7.8
					c-0.1-0.8-1.2-1.4-1.2-5.7c0-9.2,4.7-15.9,13.8-19.1v57.2l12.1-0.4l23.3-63.2l-5.9,0.2l-17.6,51.9L409.1,53.3z M324.5,129.6
					c0-4.5,4-7.1,9.3-9l-1,5c-1,5-3.3,6.7-4.9,6.7C326,132.4,324.5,130.8,324.5,129.6 M320.2,77.2l-5.9,28.7c-0.3,1.6-0.5,3-0.5,4.3
					c0,6.3,3.9,9,10.4,8.8c3.3-0.1,7.6-3.3,11.4-6.9l-1.3,5.8c-8,2.6-14.5,5.3-14.5,13.1c0,5.4,4.8,8.9,9.9,8.7
					c5.5-0.2,12.7-2.7,15.2-14.8l10.2-49L343,76.4l-6.5,31.2c-2.2,1.9-4.4,3.5-6.4,3.6c-3.3,0.1-4.2-1.1-4.2-3
					c0-0.8,0.2-1.8,0.4-2.7l6.1-28.7L320.2,77.2z M288.8,78.3l-8.9,42.2l12.1-0.4l6.9-33.1c1.9-1.8,3.3-2.8,5.8-2.9
					c2.5-0.1,0.2,5.5,4.9,5.4c4.1-0.1,6.3-3.8,6.3-6.8c0-3.2-2.3-5.3-6-5.2c-3.5,0.1-6.9,2.1-9.9,4.5l0.9-4.2L288.8,78.3z
					 M258.7,84.1c1.2,0,2.8,0.2,4.1,1.4l-4.7,22.4c-0.3,1-0.4,1.9-0.5,2.8c-1.6,2.4-3.4,4.3-5.4,4.4c-2.1,0.1-4.9-0.8-4.9-5.8
					C247.4,97.8,252.5,84.3,258.7,84.1 M264.2,79.1l-0.5,2.2c-1.5-1.2-3.6-2-5.6-1.9c-16.7,0.6-21.9,18-21.9,32.4
					c0,4.9,2.3,10.6,10.4,10.3c5.1-0.2,8.9-3.7,11.4-7.3c1.1,4.3,4.8,6.2,10.2,6c6.5-0.2,16-11.7,19.8-15.7l-2.8,0.1
					c-3.3,2.8-7.7,7.6-11,7.8s-4.2-1.2-4.2-3c0-0.8,0.2-1.7,0.3-2.6l6-28.7L264.2,79.1z M230.2,92.8c0.1-0.7,0.2-1.3,0.2-1.9
					c0-5.7-5-10.4-9.6-10.2c-4.1,0.1-8.5,2.9-12.2,6c-1.8-3.2-5.2-5.4-8.3-5.2c-3.6,0.1-7.4,2.3-10.8,4.8l0.9-4.5l-12.1,0.4
					l-8.9,42.2l12.1-0.4l7.2-34.1c1.7-1.2,3.1-1.9,5.1-1.9c2.3-0.1,3.9,1.8,3.9,4.8c0,0.7-0.1,1.4-0.3,2.2l-6,28.7l12.1-0.4
					l6.2-29.6c0.1-0.6,0.2-1.2,0.2-1.8c0-1-0.2-1.9-0.4-2.9c1.6-1.1,3-1.6,4.9-1.7c2.3-0.1,3.9,1.8,3.9,4.8c0,0.7-0.1,1.4-0.3,2.2
					l-3.2,15.2c-0.3,1.6-0.5,3-0.5,4.3c0,6.3,3.9,9,10.4,8.8c6.5-0.2,14.1-11.4,17.9-16l-3.9,0.1c-1.9,3.7-5.4,8.7-8.8,8.9
					c-2.7,0.1-3.4-1.4-3.4-3.3c0-1,0.2-2.1,0.4-3.1L230.2,92.8z M155.1,71.9c0,3.7,2.9,6.5,6.6,6.4c3.7-0.1,6.7-3.2,6.7-6.9
					s-3-6.6-6.7-6.5C158,65.1,155.1,68.2,155.1,71.9 M153.5,83l-6,28.7c-0.3,1.6-0.5,3-0.5,4.3c0,6.3,4,9,10.5,8.8
					c6.5-0.2,16-11.7,19.8-15.7l-2.8,0.1c-3.3,2.8-7.7,7.6-11,7.8s-4.2-1.2-4.2-3c0-0.8,0.2-1.7,0.3-2.6l6-28.7L153.5,83z M124.9,84
					l-8.9,42.2l12.1-0.4l6.9-33.1c1.9-1.8,3.3-2.8,5.8-2.9c2.5-0.1,0.2,5.5,4.9,5.4c4.1-0.1,6.3-3.8,6.3-6.8c0-3.2-2.3-5.3-6-5.2
					c-3.5,0.1-6.9,2.1-9.9,4.5l0.9-4.2L124.9,84z M93,73.7l-11.4,53.7l12.1-0.4l5.1-24.1l0.4,0c15.1-0.5,24.2-12.7,24.2-23.3
					c0-8.6-6-16.3-19.8-15.8c-14,0.5-29.4,11.7-29.4,22.8c0,6,3.2,8,9,7.8c-0.1-0.8-1.2-1.4-1.2-5.7c0-12.7,8.1-20.6,21.7-21.1
					c7.4-0.3,10.4,4.8,10.4,11c0,8.9-6.3,20.2-14.6,21.1l5.9-28.2L93,73.7z"/>
			</g>
		</g>
	</g>
</g>
</svg>
