<svg xmlns="http://www.w3.org/2000/svg" xmlns:xlink="http://www.w3.org/1999/xlink" viewBox="0 0 693.63 437.37"><defs><style>.cls-1{clip-path:url(#clip-path);}.cls-2{fill:none;}.cls-3{fill:url(#radial-gradient);}.cls-4{clip-path:url(#clip-path-2);}.cls-5{clip-path:url(#clip-path-3);}.cls-6{fill:url(#radial-gradient-3);}.cls-7{clip-path:url(#clip-path-4);}.cls-8{fill:url(#radial-gradient-4);}.cls-9{clip-path:url(#clip-path-5);}.cls-10{clip-path:url(#clip-path-6);}.cls-11{clip-path:url(#clip-path-7);}.cls-12{clip-path:url(#clip-path-8);}.cls-13{clip-path:url(#clip-path-9);}.cls-14{clip-path:url(#clip-path-10);}.cls-15{clip-path:url(#clip-path-11);}.cls-16{clip-path:url(#clip-path-12);}.cls-17{clip-path:url(#clip-path-13);}.cls-18{clip-path:url(#clip-path-14);}.cls-19{clip-path:url(#clip-path-15);}.cls-20{clip-path:url(#clip-path-16);}.cls-21{fill:url(#radial-gradient-16);}.cls-22{isolation:isolate;}.cls-23{clip-path:url(#clip-path-17);}.cls-24{opacity:0.7;mix-blend-mode:luminosity;}.cls-25{clip-path:url(#clip-path-19);}.cls-26{clip-path:url(#clip-path-20);}.cls-27{clip-path:url(#clip-path-21);}.cls-28{clip-path:url(#clip-path-22);}.cls-29{opacity:0.9;mix-blend-mode:multiply;}.cls-30{clip-path:url(#clip-path-23);}.cls-31{fill:#0054a5;}.cls-32{fill:#fff;}.cls-33{clip-path:url(#clip-path-26);}.cls-34{mask:url(#mask);}.cls-35{fill:url(#radial-gradient-17);}.cls-36{clip-path:url(#clip-path-27);}.cls-37{mask:url(#mask-2);}.cls-38{clip-path:url(#clip-path-28);}.cls-39{mask:url(#mask-3);}.cls-40{clip-path:url(#clip-path-29);}.cls-41{mask:url(#mask-4);}.cls-42{clip-path:url(#clip-path-30);}.cls-43{mask:url(#mask-5);}.cls-44{clip-path:url(#clip-path-31);}.cls-45{mask:url(#mask-6);}.cls-46{clip-path:url(#clip-path-32);}.cls-47{mask:url(#mask-7);}.cls-48{clip-path:url(#clip-path-33);}.cls-49{mask:url(#mask-8);}.cls-50{clip-path:url(#clip-path-34);}.cls-51{mask:url(#mask-9);}.cls-52{clip-path:url(#clip-path-35);}.cls-53{mask:url(#mask-10);}.cls-54{fill:url(#radial-gradient-26);}.cls-55{clip-path:url(#clip-path-36);}.cls-56{mask:url(#mask-11);}.cls-57{fill:url(#radial-gradient-27);}.cls-58{clip-path:url(#clip-path-37);}.cls-59{mask:url(#mask-12);}.cls-60{clip-path:url(#clip-path-38);}.cls-61{mask:url(#mask-13);}.cls-62{clip-path:url(#clip-path-39);}.cls-63{mask:url(#mask-14);}.cls-64{clip-path:url(#clip-path-40);}.cls-65{mask:url(#mask-15);}.cls-66{clip-path:url(#clip-path-41);}.cls-67{mask:url(#mask-16);}.cls-68{fill:#4f7061;}.cls-69{clip-path:url(#clip-path-43);}.cls-70{fill:#4e7161;}</style><clipPath id="clip-path"><polygon class="cls-2" points="91.74 78.75 168.02 71.45 160.07 162.93 83.79 170.23 91.74 78.75"/></clipPath><radialGradient id="radial-gradient" cx="332.73" cy="338.89" r="1" gradientTransform="matrix(227.96, -21.81, 20.14, -231.76, -82260.97, 85891.59)" gradientUnits="userSpaceOnUse"><stop offset="0" stop-color="#fff"/><stop offset="0" stop-color="#fff"/><stop offset="1" stop-color="#f4f4f4"/></radialGradient><clipPath id="clip-path-2"><polygon class="cls-2" points="161.83 72.2 208.42 67.74 200.73 156.22 154.14 160.68 161.83 72.2"/></clipPath><clipPath id="clip-path-3"><polygon class="cls-2" points="233.58 335.23 320.8 326.88 311.69 431.73 224.47 440.08 233.58 335.23"/></clipPath><radialGradient id="radial-gradient-3" cx="332.52" cy="338.79" r="1" gradientTransform="matrix(193.47, -18.51, 17.1, -196.7, -69710.09, 73165.17)" xlink:href="#radial-gradient"/><clipPath id="clip-path-4"><polygon class="cls-2" points="313.83 328.37 390.3 321.05 381.17 426.14 304.69 433.46 313.83 328.37"/></clipPath><radialGradient id="radial-gradient-4" cx="332.52" cy="338.79" r="1" gradientTransform="matrix(193.47, -18.51, 17.1, -196.7, -69710.09, 73165.17)" xlink:href="#radial-gradient"/><clipPath id="clip-path-5"><polygon class="cls-2" points="387.05 321.37 441.26 316.18 432.31 419.14 378.1 424.33 387.05 321.37"/></clipPath><clipPath id="clip-path-6"><polygon class="cls-2" points="432.47 316.85 521.23 308.35 511.98 414.8 423.21 423.29 432.47 316.85"/></clipPath><clipPath id="clip-path-7"><polygon class="cls-2" points="512.71 307.19 614.71 297.43 605.18 407.12 503.17 416.88 512.71 307.19"/></clipPath><clipPath id="clip-path-8"><polygon class="cls-2" points="600.42 296.88 697.77 287.57 688.26 397.02 590.91 406.33 600.42 296.88"/></clipPath><clipPath id="clip-path-9"><polygon class="cls-2" points="200.86 66.62 288.52 58.23 280.33 152.49 192.67 160.88 200.86 66.62"/></clipPath><clipPath id="clip-path-10"><polygon class="cls-2" points="285.97 59.69 366.3 52 358.27 144.35 277.95 152.04 285.97 59.69"/></clipPath><clipPath id="clip-path-11"><polygon class="cls-2" points="363.92 52.23 444.24 44.55 436.22 136.9 355.89 144.58 363.92 52.23"/></clipPath><clipPath id="clip-path-12"><polygon class="cls-2" points="441.87 41.68 528.14 33.43 519.79 129.44 433.52 137.69 441.87 41.68"/></clipPath><clipPath id="clip-path-13"><polygon class="cls-2" points="521.63 37.09 596.58 29.91 588.75 120.02 513.79 127.19 521.63 37.09"/></clipPath><clipPath id="clip-path-14"><polygon class="cls-2" points="590.59 28.91 661.47 22.12 653.38 115.22 582.5 122 590.59 28.91"/></clipPath><clipPath id="clip-path-15"><polygon class="cls-2" points="653.51 23.32 741.17 14.93 732.98 109.2 645.32 117.59 653.51 23.32"/></clipPath><clipPath id="clip-path-16"><polygon class="cls-2" points="140.77 340.58 241.16 330.97 231.45 442.7 131.06 452.3 140.77 340.58"/></clipPath><radialGradient id="radial-gradient-16" cx="332.52" cy="338.79" r="1" gradientTransform="matrix(193.47, -18.51, 17.1, -196.7, -69710.09, 73165.17)" xlink:href="#radial-gradient"/><clipPath id="clip-path-17" transform="translate(-61.7 -14.93)"><rect class="cls-2" x="58.89" y="0.4" width="717.92" height="483"/></clipPath><clipPath id="clip-path-19" transform="translate(-61.7 -14.93)"><rect class="cls-2" x="49.89" y="-6.6" width="735.92" height="491"/></clipPath><clipPath id="clip-path-20" transform="translate(-61.7 -14.93)"><rect class="cls-2" x="58.89" y="0.4" width="717.92" height="483"/></clipPath><clipPath id="clip-path-21" transform="translate(-61.7 -14.93)"><rect class="cls-2" x="57.25" y="-1.24" width="721.2" height="486.28"/></clipPath><clipPath id="clip-path-22" transform="translate(-61.7 -14.93)"><rect class="cls-2" x="58.89" y="0.4" width="717.92" height="483"/></clipPath><clipPath id="clip-path-23" transform="translate(-61.7 -14.93)"><rect class="cls-2" x="65.86" y="0.4" width="710.94" height="476.72"/></clipPath><clipPath id="clip-path-26" transform="translate(-61.7 -14.93)"><path class="cls-2" d="M121.26,95.86l8-.76a14,14,0,0,1,6.09.68,12.52,12.52,0,0,1,4.76,3,12.77,12.77,0,0,1,3,4.82,14.67,14.67,0,0,1,.7,6.18L142.34,126a17.91,17.91,0,0,1-1.8,6.42,21,21,0,0,1-3.86,5.48,20.66,20.66,0,0,1-5.36,4,17.23,17.23,0,0,1-6.31,1.87l-8,.76Zm8.6-8-15.13,1.45-5.49,63.16L124.37,151a25,25,0,0,0,9.15-2.71,30.13,30.13,0,0,0,7.78-5.74,30.55,30.55,0,0,0,5.6-7.93,26,26,0,0,0,2.61-9.32l1.41-16.19a21.16,21.16,0,0,0-1-9,18.57,18.57,0,0,0-4.3-7,18.19,18.19,0,0,0-6.9-4.33,19.43,19.43,0,0,0-6.58-1.1q-1.1,0-2.25.11m-24.55.74L130,86.19a21.78,21.78,0,0,1,9.45,1,19.34,19.34,0,0,1,7.38,4.63,19.79,19.79,0,0,1,4.6,7.48,22.73,22.73,0,0,1,1.08,9.59l-1.41,16.2a27.92,27.92,0,0,1-2.79,10,32.52,32.52,0,0,1-6,8.49,32,32,0,0,1-8.32,6.13,26.84,26.84,0,0,1-9.79,2.89L99.54,155l0.14-1.62,8-.76,5.49-63.16-8,.76Zm25.32-9.65L98.78,82,97.37,98.14l8-.76L101.11,146l-8,.76-1.41,16.2,31.86-3a34.53,34.53,0,0,0,12.62-3.73A41.3,41.3,0,0,0,147,148.24a42.14,42.14,0,0,0,7.72-10.95,36,36,0,0,0,3.6-12.85l1.41-16.2a29.3,29.3,0,0,0-1.41-12.37,25.55,25.55,0,0,0-5.93-9.64,25,25,0,0,0-9.52-6,26.89,26.89,0,0,0-9.07-1.51q-1.53,0-3.11.15"/></clipPath><mask id="mask" x="12.73" y="47.56" width="102.96" height="116.69" maskUnits="userSpaceOnUse"><g transform="translate(-61.7 -14.93)"><g class="cls-1"><polygon class="cls-3" points="83.79 71.45 177.39 62.49 168.02 170.23 74.42 179.18 83.79 71.45"/></g></g></mask><radialGradient id="radial-gradient-17" cx="332.73" cy="338.89" r="1" gradientTransform="matrix(227.96, -21.81, 20.14, -231.76, -82322.66, 85876.64)" gradientUnits="userSpaceOnUse"><stop offset="0" stop-color="#a5ada5"/><stop offset="0" stop-color="#a5ada5"/><stop offset="1" stop-color="#4f7061"/></radialGradient><clipPath id="clip-path-27" transform="translate(-61.7 -14.93)"><path class="cls-2" d="M175.4,81.85l17.52-1.68-0.14,1.62-8,.76-5.49,63.16,8-.76-0.14,1.62-17.52,1.67,0.14-1.62,8-.76,5.49-63.16-8,.76Zm-6.53-6.6-1.41,16.19,8-.76-4.22,48.59-8,.76-1.41,16.2,31.86-3L195.1,137l-8,.76,4.22-48.59,8-.76,1.41-16.19Z"/></clipPath><mask id="mask-2" x="83.84" y="46.79" width="71.48" height="104.98" maskUnits="userSpaceOnUse"><g transform="translate(-61.7 -14.93)"><g class="cls-4"><polygon class="cls-3" points="154.14 67.74 217.02 61.72 208.42 160.68 145.54 166.7 154.14 67.74"/></g></g></mask><clipPath id="clip-path-28" transform="translate(-61.7 -14.93)"><path class="cls-2" d="M245.18,84l0.68-.07,5.06,23.61-15,1.44Zm-4.71-6.77-14.87,40L260,113.91l-8.11-37.77ZM208.8,142.9l5.8-.55,24.75-66.61,13.77-1.32,13.49,63,5.92-.57-0.14,1.62-17.52,1.68,0.14-1.62,10-1-4.74-22L225,118.86l-8.68,23.32,10-1-0.14,1.62-17.52,1.67Zm25.95-74L210,135.56l-7.74.74-1.41,16.2,31.86-3,1.41-16.19-7.51.72,3.09-8.33,24.58-2.35,1.69,7.87-7.51.72-1.41,16.19,31.86-3,1.41-16.2-7.74.74-13.49-63Z"/></clipPath><mask id="mask-3" x="121.17" y="33.18" width="115.45" height="122.87" maskUnits="userSpaceOnUse"><g transform="translate(-61.7 -14.93)"><g class="cls-13"><polygon class="cls-3" points="192.67 58.23 298.32 48.12 288.52 160.88 182.87 170.99 192.67 58.23"/></g></g></mask><clipPath id="clip-path-29" transform="translate(-61.7 -14.93)"><path class="cls-2" d="M315.5,77.28L329,76a7.68,7.68,0,0,1,6.52,2.19,8,8,0,0,1,2.19,6.62,11.41,11.41,0,0,1-3.39,7.15,11.08,11.08,0,0,1-7,3.48l-13.54,1.29Zm14.18-8.58-20.71,2-3,34,20.71-2a18.3,18.3,0,0,0,6.6-2A21.44,21.44,0,0,0,339,96.6,21.89,21.89,0,0,0,343,90.82a19,19,0,0,0,1.88-6.72,15.55,15.55,0,0,0-.73-6.47,13.32,13.32,0,0,0-3.11-5.09,13,13,0,0,0-5-3.13,14.39,14.39,0,0,0-4.77-.79q-0.79,0-1.6.08M299.55,70L330.15,67a15,15,0,0,1,6.87.84,14.58,14.58,0,0,1,5.34,3.5,15.09,15.09,0,0,1,3.36,5.53,16.68,16.68,0,0,1,.8,7,21.28,21.28,0,0,1-2.46,8.21,23.34,23.34,0,0,1-5.62,6.9l-0.86.77a34.19,34.19,0,0,1-3.11,2,10.22,10.22,0,0,1-1.54.84l13.56,27,4-.38L350.33,131l-17.52,1.68,0.14-1.62,11.72-1.12-13.37-26.6a9.59,9.59,0,0,1-2.37.69q-1.43.25-2.68,0.37l-20.37,1.95-2.39,27.53,8-.76-0.14,1.62-17.52,1.68,0.14-1.62,8-.76,5.49-63.16-8,.76Zm31.24-10.21L293,63.37,291.6,79.57l8-.76-4.22,48.59-8,.76L286,144.35l31.86-3,1.41-16.2-8,.76,1.13-13,14.34-1.37,6.16,12.26-6.49.62L325,140.62l31.86-3,1.41-16.19-6.94.66-9-17.61a36.78,36.78,0,0,0,7.72-9.57,28.44,28.44,0,0,0,3.6-11.59,23.21,23.21,0,0,0-1.12-9.82,20.23,20.23,0,0,0-4.69-7.64A20.61,20.61,0,0,0,340.38,61a21.53,21.53,0,0,0-7.64-1.33q-1,0-1.95.07"/></clipPath><mask id="mask-4" x="206.74" y="27.7" width="107.37" height="118.77" maskUnits="userSpaceOnUse"><g transform="translate(-61.7 -14.93)"><g class="cls-14"><polygon class="cls-3" points="277.95 52 375.81 42.63 366.3 152.04 268.44 161.4 277.95 52"/></g></g></mask><clipPath id="clip-path-30" transform="translate(-61.7 -14.93)"><path class="cls-2" d="M393.44,69.82L407,68.53a7.68,7.68,0,0,1,6.52,2.19,8,8,0,0,1,2.19,6.62,11.41,11.41,0,0,1-3.39,7.15,11.09,11.09,0,0,1-7,3.48l-13.54,1.29Zm14.18-8.58-20.71,2-3,34,20.71-2a18.29,18.29,0,0,0,6.6-1.95,21.44,21.44,0,0,0,5.66-4.16A21.91,21.91,0,0,0,421,83.37a19.1,19.1,0,0,0,1.88-6.72,15.54,15.54,0,0,0-.74-6.47A13.31,13.31,0,0,0,419,65.09,13,13,0,0,0,414,62a14.37,14.37,0,0,0-4.76-.78q-0.79,0-1.61.08m-30.13,1.27,30.61-2.93a15,15,0,0,1,6.87.84,14.54,14.54,0,0,1,5.34,3.5,15.11,15.11,0,0,1,3.35,5.53,16.72,16.72,0,0,1,.8,7A21.3,21.3,0,0,1,422,84.71a23.27,23.27,0,0,1-5.62,6.9l-0.86.77a34.28,34.28,0,0,1-3.11,2,10.17,10.17,0,0,1-1.54.83l13.56,27,4-.38-0.14,1.62-17.52,1.68,0.14-1.62,11.72-1.12-13.37-26.6a9.67,9.67,0,0,1-2.37.69c-1,.17-1.85.29-2.68,0.37l-20.37,1.95-2.39,27.53,8-.76-0.14,1.62-17.52,1.68,0.14-1.62,8-.76,5.49-63.16-8,.76ZM408.73,52.3L371,55.92l-1.41,16.19,8-.76-4.22,48.59-8,.76-1.41,16.19,31.86-3,1.41-16.2-8,.76,1.13-13,14.34-1.37,6.16,12.26-6.49.62-1.41,16.19,31.86-3,1.41-16.2-6.94.66-9-17.61A36.73,36.73,0,0,0,428,87.4a28.4,28.4,0,0,0,3.6-11.59A23.21,23.21,0,0,0,430.51,66a20.23,20.23,0,0,0-4.7-7.64,20.6,20.6,0,0,0-7.48-4.79,21.55,21.55,0,0,0-7.64-1.33q-1,0-2,.07"/></clipPath><mask id="mask-5" x="284.69" y="20.25" width="107.37" height="118.77" maskUnits="userSpaceOnUse"><g transform="translate(-61.7 -14.93)"><g class="cls-15"><polygon class="cls-3" points="355.89 44.55 453.75 35.18 444.24 144.58 346.38 153.95 355.89 44.55"/></g></g></mask><clipPath id="clip-path-31" transform="translate(-61.7 -14.93)"><path class="cls-2" d="M494.47,51.33L512,49.65l-0.14,1.62-8,.76-5.49,63.16,8-.76-0.14,1.62-17.52,1.68,0.14-1.62,8-.76,2.67-30.77L462,88.16l-2.67,30.77,8-.76-0.14,1.62-17.52,1.68,0.14-1.62,8-.76,5.49-63.16-8,.76,0.14-1.62L473,53.39,472.82,55l-8,.76-2.67,30.77L499.62,83l2.67-30.77-8,.76Zm-6.54-6.6-1.4,16.19,8-.76-1.41,16.2L470,78.57l1.41-16.2,8-.76,1.41-16.19-31.86,3-1.41,16.19,8-.76-4.22,48.59-8,.76-1.41,16.19,31.86-3,1.41-16.2-8,.76,1.4-16.2,23.1-2.21-1.41,16.2-8,.76-1.41,16.19,31.86-3,1.41-16.2-8,.76,4.22-48.59,8-.76,1.41-16.2Z"/></clipPath><mask id="mask-6" x="361.89" y="8.49" width="114.48" height="124.28" maskUnits="userSpaceOnUse"><g transform="translate(-61.7 -14.93)"><g class="cls-16"><polygon class="cls-3" points="433.52 33.43 538.07 23.42 528.14 137.69 423.59 147.7 433.52 33.43"/></g></g></mask><clipPath id="clip-path-32" transform="translate(-61.7 -14.93)"><path class="cls-2" d="M539.68,101.67a6.61,6.61,0,0,1-1.83-5.5l2.82-32.39a9.51,9.51,0,0,1,2.83-5.95,9.27,9.27,0,0,1,5.84-2.92l15.93-1.52a6.4,6.4,0,0,1,5.43,1.84,6.61,6.61,0,0,1,1.83,5.5l-2.81,32.39a9.52,9.52,0,0,1-2.83,5.95A9.23,9.23,0,0,1,561,102l-15.93,1.52c-0.28,0-.56,0-0.83,0a6.2,6.2,0,0,1-4.6-1.87M565.9,46.1L550,47.63a16.42,16.42,0,0,0-6,1.78,19.59,19.59,0,0,0-5.12,3.76,20,20,0,0,0-3.67,5.23,17.1,17.1,0,0,0-1.71,6.07l-2.81,32.39a13.9,13.9,0,0,0,.67,5.84,12.14,12.14,0,0,0,2.82,4.61,11.84,11.84,0,0,0,4.55,2.83,13.31,13.31,0,0,0,5.76.66l15.93-1.52a16.42,16.42,0,0,0,6-1.77,19.63,19.63,0,0,0,8.79-9,17.07,17.07,0,0,0,1.71-6.07L579.69,60A13.86,13.86,0,0,0,579,54.2a12,12,0,0,0-2.82-4.61,11.89,11.89,0,0,0-4.55-2.84,12.94,12.94,0,0,0-4.33-.72q-0.7,0-1.43.07M538,111.7a12.94,12.94,0,0,1-5-3.13,13.25,13.25,0,0,1-3.11-5.09,15.52,15.52,0,0,1-.74-6.47l2.82-32.39a19,19,0,0,1,1.88-6.72,21.76,21.76,0,0,1,4.06-5.78A21.5,21.5,0,0,1,543.51,48a18.32,18.32,0,0,1,6.6-2L566,44.48a14.76,14.76,0,0,1,6.37.71,13,13,0,0,1,5,3.13,13.35,13.35,0,0,1,3.11,5.1,15.53,15.53,0,0,1,.73,6.47l-2.82,32.39A19,19,0,0,1,576.59,99a21.92,21.92,0,0,1-4.06,5.78,21.55,21.55,0,0,1-5.66,4.16,18.27,18.27,0,0,1-6.6,2l-15.93,1.52q-0.82.08-1.61,0.08a14.32,14.32,0,0,1-4.76-.79m28.7-74.5-15.93,1.52a25.87,25.87,0,0,0-9.49,2.8,31.19,31.19,0,0,0-8,5.93,31.52,31.52,0,0,0-5.8,8.24,27,27,0,0,0-2.7,9.61l-2.81,32.39A21.93,21.93,0,0,0,523,107a19.21,19.21,0,0,0,4.45,7.2,18.79,18.79,0,0,0,7.11,4.48,20.89,20.89,0,0,0,9.16,1l15.93-1.52a26,26,0,0,0,9.44-2.8,31.09,31.09,0,0,0,8.08-5.93,31.61,31.61,0,0,0,5.79-8.18,26.88,26.88,0,0,0,2.7-9.67l2.81-32.39A22,22,0,0,0,587.4,50,19.09,19.09,0,0,0,583,42.7a18.71,18.71,0,0,0-7.17-4.48A20.28,20.28,0,0,0,569,37.09q-1.13,0-2.3.11"/></clipPath><mask id="mask-7" x="442.88" y="6.18" width="101.22" height="114.89" maskUnits="userSpaceOnUse"><g transform="translate(-61.7 -14.93)"><g class="cls-17"><polygon class="cls-3" points="513.79 29.91 605.8 21.11 596.58 127.19 504.57 136 513.79 29.91"/></g></g></mask><clipPath id="clip-path-33" transform="translate(-61.7 -14.93)"><path class="cls-2" d="M604.16,40.84l41.42-4-0.85,9.72-1.59.15,0.7-8.1-30.27,2.9L610.9,72.32l15.93-1.52-0.14,1.62-15.93,1.52-2.68,30.77,30.27-2.9,0.7-8.1,1.59-.15-0.84,9.72-41.42,4,0.14-1.62,8-.76L612,41.7l-8,.76Zm-6.54-6.6-1.41,16.19,8-.76L600,98.26,592,99l-1.4,16.2,55.76-5.33,2.11-24.29-15.93,1.52-0.71,8.1-15.93,1.52,1.41-16.2L633.23,79l1.41-16.2-15.93,1.52,1.41-16.2L636,46.62l-0.71,8.1,15.93-1.52,2.11-24.29Z"/></clipPath><mask id="mask-8" x="511.38" y="-1.27" width="97.81" height="116.79" maskUnits="userSpaceOnUse"><g transform="translate(-61.7 -14.93)"><g class="cls-18"><polygon class="cls-3" points="582.5 22.12 670.89 13.66 661.47 122 573.08 130.46 582.5 22.12"/></g></g></mask><clipPath id="clip-path-34" transform="translate(-61.7 -14.93)"><path class="cls-2" d="M697.83,40.71l0.68-.07,5.05,23.61-15,1.44Zm-4.72-6.78-14.87,40,34.36-3.29-8.11-37.77ZM661.45,99.6l5.81-.56L692,32.44l13.77-1.32,13.49,63,5.92-.57L725,95.13,707.51,96.8l0.14-1.62,10-1-4.74-22-35.28,3.37L669,98.89l10-1-0.14,1.62-17.52,1.67Zm25.95-74L662.66,92.26l-7.74.74-1.41,16.19,31.86-3,1.4-16.2-7.51.72,3.1-8.33L706.94,80l1.68,7.87-7.51.72-1.41,16.2,31.86-3L733,85.54l-7.74.74-13.49-63Z"/></clipPath><mask id="mask-9" x="573.82" y="-10.11" width="115.46" height="122.87" maskUnits="userSpaceOnUse"><g transform="translate(-61.7 -14.93)"><g class="cls-19"><polygon class="cls-3" points="645.32 14.93 750.97 4.82 741.17 117.59 635.52 127.7 645.32 14.93"/></g></g></mask><clipPath id="clip-path-35" transform="translate(-61.7 -14.93)"><path class="cls-2" d="M202,351.81l20.39-2-0.16,1.88-9.27.89-6.39,73.5,9.27-.89-0.16,1.89-20.39,1.95,0.16-1.88,9.27-.89,3.11-35.81-43.56,4.17-3.11,35.81,9.27-.89-0.16,1.88-20.39,2,0.16-1.88,9.27-.89,6.39-73.5-9.27.89,0.16-1.89,20.39-2-0.16,1.89-9.27.89-3.11,35.81L208,388.61l3.11-35.81-9.27.89Zm-7.61-7.68L192.74,363l9.27-.89-1.64,18.85-26.88,2.57,1.64-18.85,9.27-.89L186,344.92,149,348.47l-1.64,18.84,9.27-.89L151.67,423l-9.27.89-1.64,18.85,37.08-3.55,1.64-18.85-9.27.89,1.64-18.85,26.88-2.57-1.64,18.85-9.27.89-1.64,18.84,37.08-3.55L224.9,416l-9.27.88,4.91-56.54,9.27-.89,1.64-18.85Z"/></clipPath><mask id="mask-10" x="57.8" y="304.39" width="133.22" height="144.62" maskUnits="userSpaceOnUse"><g transform="translate(-61.7 -14.93)"><g class="cls-20"><polygon class="cls-21" points="131.06 330.97 252.72 319.33 241.16 452.3 119.5 463.94 131.06 330.97"/></g></g></mask><radialGradient id="radial-gradient-26" cx="332.52" cy="338.79" gradientTransform="matrix(193.47, -18.51, 17.1, -196.7, -69771.79, 73150.23)" xlink:href="#radial-gradient-17"/><clipPath id="clip-path-36" transform="translate(-61.7 -14.93)"><path class="cls-2" d="M254.6,410.38a7.69,7.69,0,0,1-2.14-6.4l3.28-37.69a11,11,0,0,1,3.29-6.92,10.77,10.77,0,0,1,6.79-3.39l18.54-1.77a7.43,7.43,0,0,1,6.31,2.13,7.69,7.69,0,0,1,2.13,6.4l-3.27,37.69a11.07,11.07,0,0,1-3.29,6.92,10.75,10.75,0,0,1-6.8,3.39l-18.54,1.77q-0.49,0-1,0a7.21,7.21,0,0,1-5.35-2.18m30.5-64.66-18.54,1.77a19.08,19.08,0,0,0-6.94,2.07,22.76,22.76,0,0,0-6,4.37,23.29,23.29,0,0,0-4.27,6.08,19.9,19.9,0,0,0-2,7.07l-3.28,37.69a16.24,16.24,0,0,0,.79,6.8,14.14,14.14,0,0,0,3.28,5.36,13.8,13.8,0,0,0,5.3,3.3,15.44,15.44,0,0,0,6.69.76l18.54-1.77a19.23,19.23,0,0,0,6.94-2.07,22.93,22.93,0,0,0,10.23-10.46,20,20,0,0,0,2-7.07l3.27-37.69a16.14,16.14,0,0,0-.79-6.8,14,14,0,0,0-3.28-5.36,13.74,13.74,0,0,0-5.29-3.3,15,15,0,0,0-5-.84c-0.55,0-1.11,0-1.67.08m-32.5,76.33a15.14,15.14,0,0,1-5.85-3.65,15.46,15.46,0,0,1-3.62-5.93,18.05,18.05,0,0,1-.86-7.53l3.28-37.69a22.11,22.11,0,0,1,2.19-7.82,25.45,25.45,0,0,1,4.72-6.73,25,25,0,0,1,6.59-4.84,21.31,21.31,0,0,1,7.68-2.27l18.54-1.77a17.19,17.19,0,0,1,7.41.83,15.13,15.13,0,0,1,5.86,3.65,15.5,15.5,0,0,1,3.62,5.93,18,18,0,0,1,.85,7.53l-3.27,37.69a22.19,22.19,0,0,1-2.19,7.82,25.5,25.5,0,0,1-4.72,6.73,25.09,25.09,0,0,1-6.59,4.84,21.33,21.33,0,0,1-7.68,2.27L260,422.88c-0.64.06-1.26,0.09-1.88,0.09a16.59,16.59,0,0,1-5.53-.92m33.4-86.7-18.54,1.77a30.06,30.06,0,0,0-11,3.26,36.16,36.16,0,0,0-9.33,6.9,36.53,36.53,0,0,0-6.74,9.59,31.53,31.53,0,0,0-3.14,11.18l-3.27,37.69a25.53,25.53,0,0,0,1.23,10.83,22.38,22.38,0,0,0,5.18,8.38,21.91,21.91,0,0,0,8.28,5.21,24.31,24.31,0,0,0,10.66,1.18l18.54-1.77a30.24,30.24,0,0,0,11-3.25,36,36,0,0,0,9.4-6.91,36.82,36.82,0,0,0,6.74-9.52,31.31,31.31,0,0,0,3.15-11.25L311.35,361a25.62,25.62,0,0,0-1.23-10.76,22.2,22.2,0,0,0-5.18-8.45,21.72,21.72,0,0,0-8.34-5.21,23.63,23.63,0,0,0-7.93-1.32q-1.32,0-2.68.13"/></clipPath><mask id="mask-11" x="152.05" y="301.7" width="117.79" height="133.69" maskUnits="userSpaceOnUse"><g transform="translate(-61.7 -14.93)"><g class="cls-5"><polygon class="cls-6" points="224.47 326.88 331.53 316.64 320.8 440.08 213.74 450.32 224.47 326.88"/></g></g></mask><radialGradient id="radial-gradient-27" cx="332.52" cy="338.79" gradientTransform="matrix(193.47, -18.51, 17.1, -196.7, -69771.79, 73150.23)" xlink:href="#radial-gradient-17"/><clipPath id="clip-path-37" transform="translate(-61.7 -14.93)"><path class="cls-2" d="M329.62,339.6l20.39-2-0.16,1.88-9.27.89-6.39,73.5,35.22-3.37,0.82-9.42,1.86-.17-1,11.31-48.2,4.61,0.16-1.88,9.27-.89,6.39-73.5-9.27.89Zm-7.6-7.68-1.64,18.85,9.27-.89-4.91,56.54-9.27.89-1.64,18.85,64.88-6.21,2.46-28.27-18.54,1.77-0.82,9.43-18.54,1.77,4.91-56.54,9.27-.89,1.64-18.85Z"/></clipPath><mask id="mask-12" x="232.43" y="296.91" width="106.75" height="130.82" maskUnits="userSpaceOnUse"><g transform="translate(-61.7 -14.93)"><g class="cls-7"><polygon class="cls-8" points="304.69 321.05 400.87 311.85 390.3 433.46 294.13 442.67 304.69 321.05"/></g></g></mask><clipPath id="clip-path-38" transform="translate(-61.7 -14.93)"><path class="cls-2" d="M402.84,332.59l20.39-2-0.16,1.88-9.27.89-6.39,73.5,9.27-.89-0.16,1.88-20.39,2,0.16-1.88,9.27-.89,6.39-73.5-9.27.89Zm-7.61-7.68-1.64,18.85,9.27-.89L398,399.41l-9.27.89L387,419.14l37.08-3.55,1.64-18.85-9.27.89,4.91-56.54,9.27-.88,1.64-18.85Z"/></clipPath><mask id="mask-13" x="306.4" y="294.24" width="83.18" height="122.16" maskUnits="userSpaceOnUse"><g transform="translate(-61.7 -14.93)"><g class="cls-9"><polygon class="cls-8" points="378.1 316.18 451.27 309.18 441.26 424.33 368.09 431.33 378.1 316.18"/></g></g></mask><clipPath id="clip-path-39" transform="translate(-61.7 -14.93)"><path class="cls-2" d="M466.82,336.75l9.27-.88a16.26,16.26,0,0,1,7.09.79,14.6,14.6,0,0,1,5.54,3.47,14.91,14.91,0,0,1,3.45,5.61,17.05,17.05,0,0,1,.82,7.2l-1.64,18.84a20.92,20.92,0,0,1-2.09,7.48,24.49,24.49,0,0,1-4.49,6.37,24.08,24.08,0,0,1-6.24,4.6,20.1,20.1,0,0,1-7.35,2.17l-9.27.89Zm10-9.36-17.61,1.69-6.39,73.5,17.61-1.69a29.13,29.13,0,0,0,10.65-3.15,35.14,35.14,0,0,0,9-6.67,35.62,35.62,0,0,0,6.51-9.24,30.31,30.31,0,0,0,3-10.84l1.64-18.84a24.63,24.63,0,0,0-1.19-10.43,21.65,21.65,0,0,0-5-8.13,21.2,21.2,0,0,0-8-5,22.62,22.62,0,0,0-7.65-1.28q-1.28,0-2.62.13m-28.57.86L477,325.5a25.25,25.25,0,0,1,11,1.22,22.53,22.53,0,0,1,8.59,5.38,23,23,0,0,1,5.35,8.7A26.48,26.48,0,0,1,503.19,352l-1.64,18.84a32.54,32.54,0,0,1-3.24,11.59,38,38,0,0,1-7,9.88,37.29,37.29,0,0,1-9.68,7.14,31.25,31.25,0,0,1-11.39,3.36l-28.73,2.75,0.16-1.88,9.27-.89,6.39-73.5-9.27.89ZM477.73,317l-37.08,3.55L439,339.41l9.27-.89-4.91,56.54-9.27.89-1.64,18.84,37.08-3.55a40.19,40.19,0,0,0,14.69-4.34,48.08,48.08,0,0,0,12.49-9.21,48.86,48.86,0,0,0,9-12.74,41.87,41.87,0,0,0,4.19-15l1.64-18.84a34.08,34.08,0,0,0-1.64-14.39A29.79,29.79,0,0,0,503,325.55a29.11,29.11,0,0,0-11.08-7,31.28,31.28,0,0,0-10.55-1.76q-1.78,0-3.62.17"/></clipPath><mask id="mask-14" x="350.62" y="282.99" width="119.81" height="135.78" maskUnits="userSpaceOnUse"><g transform="translate(-61.7 -14.93)"><g class="cls-10"><polygon class="cls-8" points="423.21 308.35 532.13 297.93 521.23 423.29 412.32 433.71 423.21 308.35"/></g></g></mask><clipPath id="clip-path-40" transform="translate(-61.7 -14.93)"><path class="cls-2" d="M564.28,327.43l0.79-.07L571,354.83l-17.48,1.67Zm-5.48-7.88-17.31,46.51,40-3.82-9.44-44ZM521.95,396l6.75-.65,28.8-77.51,16-1.53,15.69,73.25,6.89-.66-0.16,1.88-20.39,2,0.16-1.88,11.65-1.12-5.52-25.64-41,3.93-10.11,27.13L542.34,394l-0.17,1.88-20.39,1.95Zm30.19-86.06-28.8,77.52-9,.86-1.64,18.84,37.07-3.54,1.64-18.85-8.74.83,3.6-9.69,28.6-2.74,2,9.16-8.74.84L566.46,402l37.07-3.55,1.64-18.84-9,.86-15.69-73.26Z"/></clipPath><mask id="mask-15" x="430.07" y="270.73" width="134.35" height="142.98" maskUnits="userSpaceOnUse"><g transform="translate(-61.7 -14.93)"><g class="cls-11"><polygon class="cls-8" points="503.17 297.43 626.12 285.67 614.71 416.88 491.77 428.65 503.17 297.43"/></g></g></mask><clipPath id="clip-path-41" transform="translate(-61.7 -14.93)"><path class="cls-2" d="M658.79,308.11l20.39-1.95L679,308l-3.57.34-34.2,47.46-2.51,28.94,9.27-.89-0.16,1.89-20.39,1.95,0.16-1.88,9.27-.89L639.39,356l-26.32-41.67-3.57.34,0.16-1.89,20.39-2-0.16,1.89-14.57,1.39,25.16,39.91,32.71-45.45L658.63,310Zm-7.61-7.68-1.64,18.85,7-.67-14.78,20.51-11.3-18,7-.67,1.64-18.85-37.07,3.55L600.42,324l7.55-.72,22.84,36.26-1.54,17.77-9.27.89L618.37,397l37.07-3.55,1.64-18.84-9.27.89,1.54-17.77,29.72-41.29,7.55-.72,1.64-18.85Z"/></clipPath><mask id="mask-16" x="517.91" y="261.33" width="129.47" height="141.38" maskUnits="userSpaceOnUse"><g transform="translate(-61.7 -14.93)"><g class="cls-12"><polygon class="cls-8" points="590.91 287.57 709.08 276.26 697.77 406.33 579.61 417.64 590.91 287.57"/></g></g></mask><clipPath id="clip-path-43" transform="translate(-61.7 -14.93)"><rect class="cls-2" x="685.57" y="282.71" width="48.21" height="32.72"/></clipPath></defs><title>header</title><g class="cls-22"><g id="Layer_1" data-name="Layer 1"><g class="cls-23"><g class="cls-23"><g class="cls-24"><g class="cls-25"><g class="cls-26"><g class="cls-22"><g class="cls-27"><g class="cls-28"><g class="cls-29"><g class="cls-30"><g class="cls-30"><path class="cls-31" d="M133.89,76.58a28,28,0,0,1,12.18,1.36,25,25,0,0,1,9.52,6,25.54,25.54,0,0,1,5.93,9.64,29.29,29.29,0,0,1,1.41,12.37l-1.41,16.2a36,36,0,0,1-3.6,12.85,42,42,0,0,1-7.72,10.95,41.42,41.42,0,0,1-10.73,7.91,34.55,34.55,0,0,1-12.62,3.73L95,160.6l1.41-16.2,8-.76,4.22-48.59-8,.76L102,79.62Zm21.88,30A22.77,22.77,0,0,0,154.68,97a19.79,19.79,0,0,0-4.6-7.48,19.39,19.39,0,0,0-7.38-4.63,21.74,21.74,0,0,0-9.44-1l-24.69,2.36-0.14,1.62,8-.76-5.49,63.16-8,.76-0.14,1.62,24.69-2.36a26.85,26.85,0,0,0,9.79-2.89,32.06,32.06,0,0,0,8.32-6.13,32.55,32.55,0,0,0,6-8.49,27.94,27.94,0,0,0,2.78-10ZM133.12,85.48a20.24,20.24,0,0,1,8.83,1,18.22,18.22,0,0,1,6.9,4.33,18.58,18.58,0,0,1,4.3,7,21.17,21.17,0,0,1,1,9L152.77,123a26,26,0,0,1-2.62,9.31,30.53,30.53,0,0,1-5.6,7.93,30.06,30.06,0,0,1-7.78,5.73,25,25,0,0,1-9.15,2.71l-15.13,1.45L118,86.93Zm13.89,22a14.64,14.64,0,0,0-.7-6.18,12.79,12.79,0,0,0-3-4.82,12.52,12.52,0,0,0-4.76-3,14,14,0,0,0-6.09-.68l-8,.76-4.22,48.59,8-.76a17.25,17.25,0,0,0,6.31-1.87,20.71,20.71,0,0,0,5.37-4,21.08,21.08,0,0,0,3.86-5.48,18,18,0,0,0,1.8-6.42Z" transform="translate(-61.7 -14.93)"/><path class="cls-31" d="M194.61,86.83l-4.22,48.59,8-.76-1.41,16.2-31.86,3,1.41-16.2,8-.76,4.22-48.59-8,.76,1.41-16.2,31.86-3-1.41,16.2Zm-12,56.56,5.49-63.16,8-.76,0.14-1.62-17.52,1.68-0.14,1.62,8-.76L181,143.54l-8,.76-0.14,1.62,17.52-1.68,0.14-1.62Z" transform="translate(-61.7 -14.93)"/><path class="cls-31" d="M275.84,127.24l7.74-.74-1.41,16.2-31.86,3,1.41-16.2,7.51-.72L257.55,121,233,123.32l-3.09,8.33,7.51-.72L236,147.12l-31.86,3,1.41-16.2,7.74-.74L238,66.62l24.35-2.33ZM242.61,73.41L217.86,140l-5.8.55-0.14,1.62,17.52-1.68,0.14-1.62-10,1,8.68-23.31,35.27-3.37,4.74,22-10,1-0.14,1.62,17.52-1.68,0.14-1.62-5.92.57-13.49-63Zm1.11,1.5,11.38-1.09,8.11,37.77-34.36,3.29Zm10.45,30.32-5.06-23.61-0.68.06-9.28,25Z" transform="translate(-61.7 -14.93)"/><path class="cls-31" d="M361.53,119l-1.41,16.2-31.86,3,1.41-16.2,6.49-.62L330,109.22l-14.34,1.37-1.13,13,8-.76L321.09,139l-31.86,3,1.41-16.2,8-.76,4.22-48.59-8,.76L296.26,61,334,57.43a22.28,22.28,0,0,1,9.6,1.26,20.61,20.61,0,0,1,7.48,4.79,20.26,20.26,0,0,1,4.7,7.64,23.19,23.19,0,0,1,1.12,9.82,28.4,28.4,0,0,1-3.6,11.59,36.81,36.81,0,0,1-7.71,9.57l9,17.61Zm-7.8,8-4,.38-13.56-27a10.12,10.12,0,0,0,1.54-.84,34.41,34.41,0,0,0,3.11-2l0.86-.77a23.29,23.29,0,0,0,5.62-6.91,21.24,21.24,0,0,0,2.46-8.21,16.67,16.67,0,0,0-.8-7,15.06,15.06,0,0,0-3.36-5.53,14.56,14.56,0,0,0-5.34-3.51,15,15,0,0,0-6.87-.83L302.8,67.65l-0.14,1.62,8-.76-5.49,63.16-8,.76L297,134.05l17.53-1.68,0.14-1.62-8,.76L309.12,104,329.49,102q1.25-.12,2.68-0.37a9.7,9.7,0,0,0,2.37-.69l13.38,26.6L336.2,128.7l-0.14,1.62,17.52-1.68Zm-5.55-45.24a19,19,0,0,1-1.88,6.72,21.91,21.91,0,0,1-4.06,5.78,21.57,21.57,0,0,1-5.67,4.16,18.28,18.28,0,0,1-6.6,2l-20.71,2,3-34,20.71-2a14.79,14.79,0,0,1,6.37.71,13.05,13.05,0,0,1,5,3.13,13.32,13.32,0,0,1,3.11,5.09A15.49,15.49,0,0,1,348.18,81.78ZM330.6,93.1a11.09,11.09,0,0,0,7-3.48A11.4,11.4,0,0,0,341,82.46a8,8,0,0,0-2.19-6.62,7.68,7.68,0,0,0-6.52-2.19L318.75,75l-1.69,19.43Z" transform="translate(-61.7 -14.93)"/><path class="cls-31" d="M439.47,111.59l-1.41,16.2-31.86,3,1.41-16.2,6.49-.62-6.16-12.26-14.34,1.37-1.13,13,8-.76L399,131.52l-31.86,3,1.41-16.2,8-.76L380.77,69l-8,.76,1.41-16.2L412,50a22.28,22.28,0,0,1,9.6,1.26A20.6,20.6,0,0,1,429.07,56a20.25,20.25,0,0,1,4.7,7.64,23.19,23.19,0,0,1,1.12,9.81,28.4,28.4,0,0,1-3.6,11.59,36.81,36.81,0,0,1-7.72,9.57l9,17.61Zm-7.8,8-4,.38-13.56-27a10.16,10.16,0,0,0,1.54-.84,34.51,34.51,0,0,0,3.11-2l0.86-.77a23.27,23.27,0,0,0,5.62-6.91,21.22,21.22,0,0,0,2.46-8.21,16.69,16.69,0,0,0-.8-7,15.1,15.1,0,0,0-3.36-5.53,14.58,14.58,0,0,0-5.34-3.51,15,15,0,0,0-6.87-.83l-30.61,2.93-0.14,1.62,8-.76-5.49,63.16-8,.76L375,126.6l17.52-1.68,0.14-1.62-8,.76,2.39-27.53,20.37-1.95c0.83-.08,1.73-0.2,2.68-0.37a9.71,9.71,0,0,0,2.37-.69l13.38,26.6-11.72,1.12L414,122.86l17.52-1.68Zm-5.55-45.24A19,19,0,0,1,424.24,81a21.92,21.92,0,0,1-4.06,5.78A21.59,21.59,0,0,1,414.52,91a18.28,18.28,0,0,1-6.6,2l-20.71,2,3-34,20.71-2a14.79,14.79,0,0,1,6.37.71,13,13,0,0,1,5,3.13,13.34,13.34,0,0,1,3.11,5.09A15.49,15.49,0,0,1,426.12,74.32ZM408.55,85.64a11.09,11.09,0,0,0,7-3.48A11.41,11.41,0,0,0,419,75a8,8,0,0,0-2.19-6.62,7.68,7.68,0,0,0-6.52-2.19L396.7,67.5,395,86.94Z" transform="translate(-61.7 -14.93)"/><path class="cls-31" d="M513.67,56.31l-4.22,48.59,8-.76L516,120.33l-31.86,3,1.41-16.2,8-.76,1.41-16.19-23.1,2.21-1.41,16.19,8-.76L477,124.07l-31.86,3,1.41-16.2,8-.76,4.22-48.59-8,.76,1.41-16.2,31.86-3-1.41,16.2-8,.76-1.41,16.2L496.34,74l1.41-16.2-8,.76,1.41-16.2,31.86-3-1.41,16.2ZM515.1,49l0.14-1.62L497.72,49l-0.14,1.62,8-.76-2.67,30.77-37.44,3.58,2.67-30.77,8-.76,0.14-1.62-17.52,1.68-0.14,1.62,8-.76L461,116.76l-8,.76-0.14,1.62,17.52-1.68,0.14-1.62-8,.76,2.67-30.77,37.44-3.58L500.06,113l-8,.76L492,115.41l17.52-1.68,0.14-1.62-8,.76,5.49-63.16Z" transform="translate(-61.7 -14.93)"/><path class="cls-31" d="M569.93,34.87a21,21,0,0,1,9.11,1,18.71,18.71,0,0,1,7.17,4.48,19.09,19.09,0,0,1,4.45,7.26,22,22,0,0,1,1.06,9.25L588.9,89.27a26.93,26.93,0,0,1-2.7,9.67,31.64,31.64,0,0,1-5.79,8.18,31,31,0,0,1-8.08,5.94,26,26,0,0,1-9.44,2.8L547,117.37a20.91,20.91,0,0,1-9.17-1,18.78,18.78,0,0,1-7.11-4.48,19.2,19.2,0,0,1-4.45-7.2,21.88,21.88,0,0,1-1.05-9.31L528,63a27.06,27.06,0,0,1,2.7-9.61A31.34,31.34,0,0,1,544.5,39.2a25.83,25.83,0,0,1,9.5-2.8Zm-16.56,8.81a18.29,18.29,0,0,0-6.6,2,21.6,21.6,0,0,0-5.66,4.16A21.89,21.89,0,0,0,537,55.57a19,19,0,0,0-1.88,6.72l-2.81,32.39a15.47,15.47,0,0,0,.74,6.47,13.29,13.29,0,0,0,3.11,5.09,13,13,0,0,0,5,3.13,14.77,14.77,0,0,0,6.37.71l15.93-1.52a18.25,18.25,0,0,0,6.6-2,21.54,21.54,0,0,0,5.67-4.16,21.92,21.92,0,0,0,4.06-5.78A19.05,19.05,0,0,0,581.73,90l2.81-32.39a15.5,15.5,0,0,0-.74-6.47A13.33,13.33,0,0,0,580.7,46a13.08,13.08,0,0,0-5-3.13,14.81,14.81,0,0,0-6.37-.71Zm-5.63,64.78a13.28,13.28,0,0,1-5.75-.65,11.87,11.87,0,0,1-4.55-2.83,12.08,12.08,0,0,1-2.82-4.61,13.9,13.9,0,0,1-.68-5.84l2.81-32.39a17.1,17.1,0,0,1,1.71-6.07,19.9,19.9,0,0,1,3.67-5.23,19.61,19.61,0,0,1,5.12-3.76,16.42,16.42,0,0,1,6-1.78l15.93-1.52a13.26,13.26,0,0,1,5.75.65,11.84,11.84,0,0,1,4.55,2.83,12.08,12.08,0,0,1,2.82,4.61,13.9,13.9,0,0,1,.68,5.84l-2.81,32.39a17.1,17.1,0,0,1-1.71,6.07,19.9,19.9,0,0,1-3.67,5.23,19.63,19.63,0,0,1-5.12,3.76,16.44,16.44,0,0,1-6,1.77Zm16.56-8.81a9.23,9.23,0,0,0,5.84-2.91A9.5,9.5,0,0,0,573,90.8l2.81-32.39a6.62,6.62,0,0,0-1.83-5.5,6.39,6.39,0,0,0-5.43-1.83l-15.93,1.52a9.24,9.24,0,0,0-5.84,2.91,9.5,9.5,0,0,0-2.83,5.95l-2.81,32.39a6.61,6.61,0,0,0,1.83,5.5,6.38,6.38,0,0,0,5.43,1.83Z" transform="translate(-61.7 -14.93)"/><path class="cls-31" d="M638.59,52.4l0.7-8.1-15.93,1.52L622,62l15.93-1.52-1.41,16.2-15.93,1.52-1.41,16.19,15.93-1.52,0.7-8.1,15.93-1.52-2.11,24.29-55.76,5.33,1.41-16.2,8-.76,4.22-48.59-8,.76,1.41-16.2,55.76-5.33-2.11,24.29Zm8.51-16.07-0.7,8.1,1.59-.15,0.84-9.72-41.42,4-0.14,1.62,8-.76-5.49,63.16-8,.76-0.14,1.62,41.42-4,0.84-9.72-1.59.15-0.7,8.1-30.27,2.9L614,71.61l15.93-1.52,0.14-1.62L614.16,70l2.67-30.77Z" transform="translate(-61.7 -14.93)"/><path class="cls-31" d="M728.49,84l7.74-.74-1.41,16.2-31.86,3,1.41-16.2,7.51-.72-1.69-7.87L685.62,80l-3.09,8.33,7.51-.72-1.41,16.2-31.86,3,1.41-16.2,7.74-.74,24.75-66.61L715,21ZM695.26,30.11L670.51,96.72l-5.8.55-0.14,1.62,17.52-1.68,0.14-1.62-10,1,8.68-23.31,35.27-3.37,4.74,22-10,1-0.14,1.62,17.53-1.68,0.14-1.62-5.92.57L709,28.8Zm1.11,1.5,11.38-1.09,8.11,37.77L681.5,71.58Zm10.45,30.32-5.06-23.61-0.68.07-9.28,25Z" transform="translate(-61.7 -14.93)"/><path class="cls-31" d="M223.8,358l-4.91,56.54,9.27-.89-1.64,18.85L189.44,436l1.64-18.85,9.27-.89L202,397.45,175.11,400l-1.64,18.85,9.27-.89-1.64,18.85L144,440.37l1.64-18.85,9.27-.89,4.91-56.54-9.27.89,1.64-18.85,37.08-3.55-1.64,18.85-9.27.89-1.64,18.85,26.88-2.57,1.64-18.85-9.27.89,1.64-18.85,37.07-3.55-1.64,18.85Zm1.66-8.57,0.16-1.88-20.39,2-0.16,1.88,9.27-.89-3.11,35.81-43.56,4.17,3.11-35.81,9.27-.89,0.16-1.88-20.39,2-0.16,1.88,9.27-.89-6.39,73.5-9.27.89-0.16,1.88,20.39-2,0.16-1.88-9.27.89,3.11-35.81,43.56-4.17L208,424l-9.27.89-0.16,1.88,20.39-2,0.16-1.88-9.27.89,6.39-73.5Z" transform="translate(-61.7 -14.93)"/><path class="cls-31" d="M289.26,333a24.44,24.44,0,0,1,10.6,1.19,21.75,21.75,0,0,1,8.35,5.21,22.24,22.24,0,0,1,5.18,8.45,25.61,25.61,0,0,1,1.23,10.76l-3.28,37.69a31.3,31.3,0,0,1-3.14,11.25,36.88,36.88,0,0,1-6.74,9.52,36.07,36.07,0,0,1-9.4,6.91,30.26,30.26,0,0,1-11,3.25L262.53,429a24.33,24.33,0,0,1-10.66-1.18,21.9,21.9,0,0,1-8.28-5.21,22.36,22.36,0,0,1-5.18-8.38,25.48,25.48,0,0,1-1.23-10.83l3.28-37.69a31.5,31.5,0,0,1,3.14-11.18,36.45,36.45,0,0,1,16.07-16.49,30.06,30.06,0,0,1,11.05-3.26ZM270,343.29a21.3,21.3,0,0,0-7.68,2.27,25.11,25.11,0,0,0-6.59,4.83,25.47,25.47,0,0,0-4.72,6.73,22.14,22.14,0,0,0-2.19,7.82l-3.28,37.69a18,18,0,0,0,.86,7.53,15.44,15.44,0,0,0,3.62,5.93,15.11,15.11,0,0,0,5.85,3.64,17.2,17.2,0,0,0,7.41.83l18.54-1.77a21.23,21.23,0,0,0,7.68-2.27,25,25,0,0,0,6.59-4.83A25.48,25.48,0,0,0,300.8,405a22.16,22.16,0,0,0,2.19-7.82l3.28-37.69a18,18,0,0,0-.86-7.53,15.52,15.52,0,0,0-3.62-5.93,15.18,15.18,0,0,0-5.85-3.64,17.23,17.23,0,0,0-7.41-.83Zm-6.55,75.38a15.46,15.46,0,0,1-6.7-.76,13.78,13.78,0,0,1-5.29-3.3,14.11,14.11,0,0,1-3.28-5.36,16.17,16.17,0,0,1-.79-6.8l3.28-37.69a19.94,19.94,0,0,1,2-7.06,23.24,23.24,0,0,1,4.27-6.08,22.77,22.77,0,0,1,6-4.37,19.09,19.09,0,0,1,6.94-2.07l18.54-1.77a15.43,15.43,0,0,1,6.7.76,13.79,13.79,0,0,1,5.29,3.3,14.1,14.1,0,0,1,3.28,5.36,16.19,16.19,0,0,1,.79,6.8l-3.28,37.69a19.91,19.91,0,0,1-2,7.07,23.19,23.19,0,0,1-4.27,6.08,22.82,22.82,0,0,1-6,4.38A19.14,19.14,0,0,1,282,416.9Zm19.28-10.25A10.74,10.74,0,0,0,289.5,405a11.06,11.06,0,0,0,3.29-6.92l3.28-37.69a7.71,7.71,0,0,0-2.13-6.4,7.44,7.44,0,0,0-6.31-2.13l-18.54,1.77a10.75,10.75,0,0,0-6.79,3.39A11.06,11.06,0,0,0,259,364l-3.28,37.69a7.69,7.69,0,0,0,2.14,6.4,7.43,7.43,0,0,0,6.32,2.13Z" transform="translate(-61.7 -14.93)"/><path class="cls-31" d="M384.42,389.34L382,417.61l-64.88,6.21L318.72,405l9.27-.89,4.91-56.54-9.27.89,1.64-18.85L362.35,326l-1.64,18.85-9.27.89-4.91,56.54,18.54-1.77,0.82-9.42Zm-9.08,9.28-1.85.18-0.82,9.42-35.22,3.37,6.39-73.5,9.27-.89,0.16-1.88-20.39,2-0.16,1.88,9.27-.89-6.39,73.5-9.27.89-0.16,1.88,48.2-4.61Z" transform="translate(-61.7 -14.93)"/><path class="cls-31" d="M424.66,338.77l-4.91,56.54,9.27-.89-1.64,18.85-37.08,3.55L391.94,398l9.27-.89,4.91-56.54-9.27.89,1.64-18.85L435.57,319l-1.64,18.85Zm-14,65.82,6.39-73.5,9.27-.89,0.16-1.88-20.39,2-0.16,1.88,9.27-.89-6.39,73.5-9.27.89-0.16,1.88,20.39-2,0.16-1.88Z" transform="translate(-61.7 -14.93)"/><path class="cls-31" d="M481,314.7a32.54,32.54,0,0,1,14.18,1.58,29.11,29.11,0,0,1,11.08,7,29.74,29.74,0,0,1,6.9,11.22,34.09,34.09,0,0,1,1.64,14.4l-1.64,18.85a41.89,41.89,0,0,1-4.19,15,49,49,0,0,1-9,12.74,48.15,48.15,0,0,1-12.49,9.2,40.23,40.23,0,0,1-14.69,4.34l-37.08,3.55,1.64-18.85,9.27-.89,4.91-56.54-9.27.89,1.64-18.85Zm25.46,34.94a26.47,26.47,0,0,0-1.26-11.16,23,23,0,0,0-5.35-8.7,22.55,22.55,0,0,0-8.59-5.39,25.31,25.31,0,0,0-11-1.22l-28.73,2.75-0.16,1.88,9.27-.89-6.39,73.5-9.27.89-0.16,1.88,28.73-2.75a31.23,31.23,0,0,0,11.39-3.36A37.31,37.31,0,0,0,494.6,390a37.89,37.89,0,0,0,7-9.88,32.51,32.51,0,0,0,3.24-11.59Zm-26.36-24.58a23.53,23.53,0,0,1,10.27,1.15,21.2,21.2,0,0,1,8,5,21.65,21.65,0,0,1,5,8.13,24.66,24.66,0,0,1,1.19,10.43L503,368.66a30.33,30.33,0,0,1-3,10.84,35.66,35.66,0,0,1-6.51,9.23,35.06,35.06,0,0,1-9,6.67,29.1,29.1,0,0,1-10.65,3.16l-17.61,1.68,6.39-73.5Zm16.16,25.55a17.07,17.07,0,0,0-.82-7.2,14.94,14.94,0,0,0-3.45-5.61,14.6,14.6,0,0,0-5.54-3.47,16.28,16.28,0,0,0-7.09-.79l-9.27.89L465.17,391l9.27-.89a20.09,20.09,0,0,0,7.34-2.17,24.12,24.12,0,0,0,6.24-4.6,24.61,24.61,0,0,0,4.49-6.37,21,21,0,0,0,2.09-7.48Z" transform="translate(-61.7 -14.93)"/><path class="cls-31" d="M599.56,378.11l9-.86-1.64,18.85-37.08,3.55,1.64-18.85,8.74-.84-2-9.16-28.6,2.74-3.6,9.69,8.74-.84-1.64,18.85-37.08,3.55,1.64-18.85,9-.86,28.8-77.51,28.34-2.71Zm-38.68-62.65L532.09,393l-6.75.65-0.16,1.88,20.39-2,0.16-1.88-11.65,1.11,10.11-27.13,41-3.93,5.52,25.64-11.65,1.11-0.16,1.88,20.39-2,0.16-1.88-6.89.66-15.69-73.26Zm1.29,1.75,13.24-1.27,9.44,44-40,3.82Zm12.17,35.28L568.46,325l-0.79.08-10.8,29.07Z" transform="translate(-61.7 -14.93)"/><path class="cls-31" d="M691.78,294.53l-1.64,18.85-7.55.72-29.72,41.29-1.54,17.77,9.27-.89L659,391.12l-37.08,3.55,1.64-18.85,9.27-.89,1.54-17.77L611.49,320.9l-7.55.72,1.64-18.85,37.08-3.55L641,318.08l-7,.67,11.3,18,14.78-20.5-7,.67,1.64-18.85Zm-9.08,9.28-20.39,2-0.16,1.88,14.57-1.39L644,351.7l-25.16-39.91,14.57-1.39,0.16-1.88-20.39,2L613,312.35l3.58-.34,26.32,41.67-2.51,28.94-9.27.89L631,385.39l20.39-2,0.16-1.88-9.27.89,2.51-28.94L679,306l3.58-.34Z" transform="translate(-61.7 -14.93)"/><path class="cls-31" d="M95.39,277.57c0.17-1.95-1-2.64-2.71-2.48-6.7.64-12.16,14.28-12.92,23-0.42,4.79.2,8.59,5.07,8.12,5.67-.54,10.51-4.38,14.55-9l2.71-.26c-4.21,4.75-9.4,15.3-23.53,16.65-6.62.63-10.61-2.69-9.78-12.26,1-11.85,7.42-28,22.9-29.46,4.31-.41,8.68.3,8.29,4.76a9.23,9.23,0,0,1-.63,2.72,3.36,3.36,0,0,0-2-.3,9.7,9.7,0,0,0-2.6.73A10.14,10.14,0,0,0,95.39,277.57ZM138,267.78l-8.14,28.13a16.9,16.9,0,0,0-.54,2.55c-0.16,1.78.53,3,3.72,2.7s7.74-5.25,11.15-8.15l2.71-.26c-4,4.08-14,15.74-20.18,16.33-5.19.5-8.53-1.12-9.2-5.24-2.68,3.56-6.56,7.22-11.43,7.69-7.66.73-9.42-4.57-9-9.36,1.21-14,7.61-31.14,23.57-32.67a7.29,7.29,0,0,1,5.17,1.52l0.66-2.16ZM108.09,299c-0.42,4.87,2.13,5.51,4.13,5.32,1.84-.18,3.75-2.13,5.46-4.54a21.39,21.39,0,0,1,.71-2.72l6.34-21.93a5,5,0,0,0-3.78-1.09C115,274.57,109.05,287.93,108.09,299Zm58.25,6.34c-5.19.5-7.9-2-7.37-8.07a21.66,21.66,0,0,1,.84-4.18l4.3-14.89a10.89,10.89,0,0,0,.42-2.13c0.25-2.92-1.1-4.64-3.26-4.44a9.93,9.93,0,0,0-5.18,2.18l-9.63,33.43L135,308.3l12-41.37,11.49-1.1-1.34,4.47c3.48-2.75,7.32-5,10.83-5.38,4.39-.42,8.77,3.83,8.29,9.35a15.71,15.71,0,0,1-.32,1.88c-0.63,2.72-5.3,17.32-5.46,19.11-0.12,1.38.42,2.45,2.73,2.23a6.83,6.83,0,0,0,2.1-.44C172.45,304.23,169.06,305,166.35,305.3Zm48.38-44.86-1.23,4.14c3.07-2.55,6.42-4.64,9.77-5,3.59-.34,5.56,1.56,5.29,4.64-0.25,2.84-2.62,6.53-6.54,6.9-4.47.43-1.77-5.14-4.16-4.91s-3.75,1.24-5.73,3.12l-9.39,32.44-11.49,1.1,12-41.37Zm26.66,31.89c3.91-.37,11-5.72,14.34-12l3.59-.34c-5.27,8.79-13.65,17.72-23.94,18.7-7.66.73-11.3-4.79-10.69-11.77,0.9-10.3,6.78-28.81,21.3-30.2,6.54-.63,10,1.78,9.48,7.46-0.86,9.9-11.81,16.58-19.47,18.27a31.31,31.31,0,0,0-.54,3.51C235,291.33,238.27,292.62,241.38,292.33Zm6.86-31.55c-4.47.43-8.94,9.95-11.28,17.73,7.35-.78,13.09-7.69,13.67-13.46C250.79,263.35,250.64,260.55,248.24,260.78Zm46.2-8L286.3,281a16.9,16.9,0,0,0-.54,2.55c-0.16,1.78.53,3,3.72,2.7s7.74-5.25,11.15-8.15l2.71-.26c-4,4.08-14,15.74-20.18,16.33-5.19.5-8.53-1.12-9.2-5.24-2.68,3.56-6.56,7.22-11.43,7.69-7.66.73-9.42-4.57-9-9.36,1.21-14,7.61-31.14,23.57-32.67a7.29,7.29,0,0,1,5.17,1.52l0.66-2.16ZM264.51,284c-0.42,4.87,2.13,5.51,4.13,5.32,1.84-.18,3.75-2.13,5.46-4.54a21.39,21.39,0,0,1,.71-2.72l6.34-21.93a5,5,0,0,0-3.78-1.09C271.37,259.61,265.47,273,264.51,284Zm55.37-49.71-13,44.69a16.38,16.38,0,0,0-.62,2.63c-0.16,1.78.62,2.92,3.73,2.62s7.74-5.25,11.15-8.15l2.71-.26c-4,4.08-14,15.74-20.18,16.33s-9.66-1.81-9.13-7.9a22.33,22.33,0,0,1,.84-4.18l12.52-43Zm22.82-2.18-13,44.69a16.38,16.38,0,0,0-.62,2.63c-0.16,1.78.62,2.92,3.73,2.62s7.74-5.25,11.15-8.15l2.71-.26c-4,4.08-14,15.74-20.18,16.33s-9.66-1.81-9.13-7.9a22.33,22.33,0,0,1,.84-4.18l12.52-43Zm17.5,14.42L352,274.67a11.34,11.34,0,0,0-.62,2.63c-0.16,1.78.62,2.92,3.73,2.62,1.84-.18,4.12-1.84,6.35-3.83l8.83-30.53,11.57-1.11-13.82,48c-3.4,11.83-10.46,14.68-15.72,15.18-4.87.47-9.11-2.59-8.66-7.86,0.66-7.55,7.08-10.49,14.86-13.49l1.68-5.71c-3.88,3.67-8.2,7-11.4,7.28-6.22.6-9.66-1.81-9.13-7.9a21.66,21.66,0,0,1,.84-4.18l8-28.12Zm-9.13,54.05c1.6-.15,3.88-1.9,5.26-6.78l1.37-4.88c-5.18,2.18-9.21,4.9-9.59,9.28A2.59,2.59,0,0,0,351.07,300.58Zm97.71-35.17a14.12,14.12,0,0,0-.66,3c-0.16,1.87.43,3.26,3,3,3.19-.31,7-5.41,9.1-9.08L464,262c-4.05,4.73-12.15,16-18.38,16.56s-9.66-1.81-9.13-7.9a21.66,21.66,0,0,1,.84-4.18l4.3-14.89a10.89,10.89,0,0,0,.42-2.13c0.25-2.92-1.1-4.64-3.26-4.44A9.47,9.47,0,0,0,434,247a11,11,0,0,1,.15,2.8,13.18,13.18,0,0,1-.31,1.72l-8.38,29-11.57,1.11L422,253.49a10.89,10.89,0,0,0,.42-2.13c0.25-2.92-1.1-4.64-3.26-4.44a9.23,9.23,0,0,0-5,2.17l-9.71,33.43L393,283.62l12-41.37,11.49-1.1-1.25,4.38c3.4-2.66,7.24-5,10.67-5.28a7.81,7.81,0,0,1,7.44,4.6c3.76-3.18,8.21-6.09,12.12-6.47,4.39-.42,8.77,3.83,8.29,9.35a15.71,15.71,0,0,1-.32,1.88Zm23.4,4.84c3-.29,5.94-2.74,8.57-6.69,0.82-5.79,3.9-9.38,6.88-9.91,3.33-5.55,5.79-12.94,7.69-19.24l11.78-3.54L507,232c-1.16,13.39,3.91,16.92,3.09,26.42a12.74,12.74,0,0,1-.23,1.71c2.41-2.24,4.59-4.54,5.65-5.77l1.84,2.56c-2.39,2-5.83,5.14-9.26,8.21-2.46,4.66-7.28,8.18-14.7,8.89-7.66.73-11.89-.71-12.71-5.78-3.64,4.53-8,7.77-14.5,8.39-7.66.73-11.3-4.79-10.69-11.77,0.9-10.3,6.78-28.81,21.3-30.2,6.54-.63,10,1.78,9.48,7.46-0.86,9.9-11.81,16.58-19.47,18.27a31.31,31.31,0,0,0-.54,3.51C465.78,269.26,469.08,270.55,472.19,270.25ZM479,238.7c-4.47.43-8.94,9.95-11.28,17.73,7.35-.78,13.09-7.69,13.67-13.46C481.59,241.27,481.44,238.47,479,238.7Zm8.59,25a5.63,5.63,0,0,1-2.81-.46c-0.42,4.79,2,6.65,6.18,6.25,2.71-.26,6.92-4,7.46-10.29,0.44-5-2.78-9-2.06-19.11-1.62,4.1-3.19,9.4-5.3,13.62,1.86,0.47,2.45,1.86,2.24,4.29A6.46,6.46,0,0,1,487.63,263.71ZM538.54,228l-0.1,1.14c-1.16,13.39,4.32,16.72,3.5,26.22-0.66,7.55-5.94,14.57-16.71,15.6-9.18.88-13.41-1.37-12.72-9.32,0.56-6.41,3.75-10.42,7-11,3.17-5.53,5.39-12.83,7.28-19.12Zm-19.06,32.64a5.63,5.63,0,0,1-2.81-.46c-0.42,4.79,2,6.65,6.18,6.25,2.71-.26,6.92-4,7.46-10.29,0.44-5-2.78-9-2.06-19.11-1.62,4.1-3.19,9.4-5.3,13.62,1.86,0.47,2.45,1.86,2.24,4.29A6.52,6.52,0,0,1,519.48,260.66Zm95.85-32.9c-1.1,12.66-9.34,35.49-25.46,37-5.43.52-8.75-1.25-9.15-5.8-4.05,3.85-8.65,7.5-12,7.82-6.14.59-9.74-1.8-9.21-7.89a22.33,22.33,0,0,1,.84-4.18l8.14-28.13,11.49-1.1-8.14,28.13a16.89,16.89,0,0,0-.54,2.55c-0.16,1.78.53,3,3.72,2.7,1.68-.16,3.78-1.57,5.83-3.37a13.31,13.31,0,0,1,.64-2.8l8.14-28.13,11.49-1.1L593,251.62a16.22,16.22,0,0,0-.66,3c-0.13,1.54.49,2.53,2.81,2.31,7.82-.75,14.71-19,15.48-27.87a6.9,6.9,0,0,1-1.7.48c-2.31.22-3.15-2-3-4.22,0.15-1.7,2.26-4.16,4.89-4.41C614.29,220.62,615.7,223.54,615.33,227.76Zm18.93-7.44-8.14,28.13a16.89,16.89,0,0,0-.54,2.55c-0.16,1.78.53,3,3.72,2.7s7.74-5.25,11.15-8.15l2.71-.26c-4,4.08-14,15.74-20.18,16.33s-9.74-1.8-9.21-7.89a22.34,22.34,0,0,1,.84-4.18l8.14-28.13Zm-2.18-16.85a5.2,5.2,0,0,1,5.82,5.88,8,8,0,0,1-6.94,7,5.1,5.1,0,0,1-5.75-5.81A8,8,0,0,1,632.08,203.47Zm28.43,1.63s-1.68,5.63-3.83,13.08l4.79-.46L660.55,221l-4.79.46c-7.73,26.16-7.72,27-7.76,27.37-0.16,1.87.53,3,3.72,2.7s7.74-5.25,11.15-8.15l2.71-.26c-4,4.08-14,15.74-20.18,16.33s-9.66-1.81-9.13-7.9c0.37-4.3,6-21.9,8-29l-2.63.25,0.92-3.31,2.63-.25,3.37-11.42Zm26.33,50.42c-5.67.54-7.81-3-7.36-8.15a19.66,19.66,0,0,1,.83-4.1l4.3-14.89a14.45,14.45,0,0,0,.32-1.88c0.23-2.6-.68-4.92-3.15-4.69a9.3,9.3,0,0,0-5.18,2.27l-9.7,33.35-11.49,1.1,16.37-56.28,12-2.75-6.1,21c3.48-2.75,7.32-5,10.83-5.38,4.47-.43,8.75,4.07,8.28,9.43a7.23,7.23,0,0,1-.31,1.8l-4.62,15.81a18.32,18.32,0,0,0-.93,3.39c-0.12,1.38.43,2.37,2.82,2.14a6.83,6.83,0,0,0,2.1-.44C692.95,254.45,689.55,255.26,686.84,255.52Zm60.34-18.64a12.65,12.65,0,0,0-.64,2.8c-0.15,1.7.38,2.94,2.61,2.73a6.83,6.83,0,0,0,2.1-.44c-2.84,7.19-6.23,8-8.95,8.26-4.63.44-6.89-1.75-7.36-5.41-2.68,3.56-6.56,7.22-11.43,7.69-7.66.73-9.42-4.57-9-9.36,1.21-14,7.61-31.14,23.57-32.67a7.29,7.29,0,0,1,5.17,1.52l0.66-2.16,11.41-1.09ZM742.11,216a5,5,0,0,0-3.78-1.09c-6,.57-11.89,13.93-12.85,25-0.42,4.87,2.13,5.51,4.13,5.32,1.84-.18,3.75-2.21,5.55-4.63a11.34,11.34,0,0,1,.62-2.63Z" transform="translate(-61.7 -14.93)"/></g><path class="cls-31" d="M177.68,190.36c0.17-1.95-1-2.64-2.71-2.48-6.7.64-12.16,14.28-12.92,23-0.42,4.79.2,8.59,5.07,8.12,5.67-.54,10.51-4.38,14.55-9l2.71-.26c-4.21,4.75-9.4,15.3-23.53,16.65-6.62.63-10.61-2.69-9.78-12.26,1-11.85,7.42-28,22.9-29.46,4.31-.41,8.68.3,8.29,4.76a9.23,9.23,0,0,1-.63,2.72,3.36,3.36,0,0,0-2-.3,9.7,9.7,0,0,0-2.6.73A10.14,10.14,0,0,0,177.68,190.36Zm42.64-9.79-8.14,28.13a16.89,16.89,0,0,0-.54,2.55c-0.16,1.78.53,3,3.72,2.7s7.74-5.25,11.15-8.15l2.71-.26c-4,4.08-14,15.74-20.18,16.33-5.19.5-8.53-1.12-9.2-5.24-2.68,3.56-6.56,7.22-11.43,7.69-7.66.73-9.42-4.57-9-9.36,1.21-14,7.61-31.14,23.57-32.67a7.29,7.29,0,0,1,5.17,1.52l0.66-2.16Zm-29.93,31.18c-0.42,4.87,2.13,5.51,4.13,5.32,1.84-.18,3.75-2.13,5.46-4.54a21.39,21.39,0,0,1,.71-2.72L207,187.88a5,5,0,0,0-3.78-1.09C197.25,187.36,191.34,200.72,190.38,211.76Zm71.19-35.13-8.14,28.13a16.9,16.9,0,0,0-.54,2.55c-0.16,1.78.53,3,3.72,2.7s7.74-5.25,11.15-8.15l2.71-.26c-4,4.08-14,15.74-20.18,16.33-5.43.52-8.91-1.24-9.22-5.88C237,216,232.44,219.64,229,220c-6.14.59-9.74-1.8-9.21-7.89a22.33,22.33,0,0,1,.84-4.18l8.14-28.13,11.49-1.1-8.14,28.13a16.9,16.9,0,0,0-.54,2.55c-0.16,1.78.53,3,3.72,2.7,1.68-.16,3.78-1.65,5.92-3.46a21.39,21.39,0,0,1,.71-2.72l8.14-28.13Zm26-4.1-0.1,1.14c-1.16,13.39,3.91,16.92,3.09,26.42a12.74,12.74,0,0,1-.23,1.71c2.41-2.24,4.59-4.54,5.65-5.77l1.84,2.56c-2.39,2-5.83,5.14-9.26,8.21-2.46,4.66-7.28,8.18-14.7,8.89-9.18.88-13.41-1.37-12.72-9.32,0.56-6.49,3.76-10.5,7-11,3.33-5.55,5.79-12.94,7.69-19.24ZM268.1,205.37a5.63,5.63,0,0,1-2.81-.46c-0.42,4.79,2,6.65,6.18,6.25,2.71-.26,6.92-4,7.46-10.29,0.44-5-2.78-9-2.06-19.11-1.62,4.1-3.19,9.4-5.3,13.62,1.86,0.47,2.45,1.86,2.24,4.29A6.46,6.46,0,0,1,268.1,205.37Zm42.89,1c3.91-.37,11-5.72,14.34-12l3.59-.34c-5.27,8.79-13.65,17.72-23.94,18.7-7.66.73-11.3-4.79-10.69-11.77,0.9-10.3,6.78-28.81,21.3-30.2,6.54-.63,10,1.78,9.48,7.46-0.86,9.9-11.81,16.58-19.47,18.27a31.31,31.31,0,0,0-.54,3.51C304.59,205.34,307.88,206.63,311,206.34Zm6.86-31.55c-4.47.43-8.94,9.95-11.28,17.73,7.35-.78,13.09-7.69,13.67-13.46C320.4,177.36,320.25,174.56,317.85,174.78ZM355,195.05a12.65,12.65,0,0,0-.64,2.8c-0.15,1.7.38,2.94,2.61,2.73a6.83,6.83,0,0,0,2.1-.44c-2.84,7.19-6.23,8-8.95,8.26-4.63.44-6.89-1.75-7.37-5.33-2.68,3.56-6.56,7.14-11.34,7.6-7.66.73-9.42-4.57-9-9.36,1.21-14,7.61-31.14,23.57-32.67a7.7,7.7,0,0,1,5.17,1.52l5-17,11.87-2.74Zm-21.63,3c-0.42,4.87,2.13,5.51,4.13,5.32,1.84-.18,3.67-2.12,5.37-4.46a20.31,20.31,0,0,1,.72-2.8l6.42-22a5.36,5.36,0,0,0-3.79-1C340.19,173.69,334.28,187.05,333.32,198.09Zm68.93-51-5.43,18.78a13.7,13.7,0,0,1,7.07-3c7.66-.73,9.66,4.55,9.24,9.33-1.11,12.74-9.53,31.32-23.81,32.69-7.9.76-13-1-12.36-8a20.81,20.81,0,0,1,.82-4l12.52-43Zm-2.14,21a13.6,13.6,0,0,0-4.41,1.55l-6.44,22.18a27,27,0,0,0-1,4.52c-0.21,2.43.86,2.9,3.25,2.67,6.54-.63,12.14-19.5,12.65-25.35C404.56,168.74,402.11,167.85,400.11,168Zm32.09-7.74L424,188.45a11.34,11.34,0,0,0-.62,2.63c-0.16,1.78.62,2.92,3.73,2.62,1.84-.18,4.12-1.84,6.35-3.83l8.83-30.53,11.57-1.11-13.82,48c-3.4,11.83-10.46,14.68-15.72,15.18-4.87.47-9.11-2.59-8.66-7.86,0.66-7.55,7.08-10.49,14.86-13.49l1.68-5.71c-3.88,3.67-8.2,7-11.4,7.28-6.22.6-9.66-1.81-9.13-7.9a21.66,21.66,0,0,1,.84-4.18l8-28.12Zm-9.13,54.05c1.6-.15,3.88-1.9,5.26-6.78l1.37-4.88c-5.18,2.18-9.21,4.9-9.59,9.28A2.59,2.59,0,0,0,423.08,214.36ZM495.15,160c0.17-1.95-1-2.64-2.71-2.48-6.7.64-12.16,14.28-12.92,23-0.42,4.79.2,8.59,5.07,8.12,5.67-.54,10.51-4.38,14.55-9l2.71-.26c-4.21,4.75-9.4,15.3-23.53,16.65-6.62.63-10.61-2.69-9.78-12.26,1-11.85,7.42-28,22.9-29.46,4.31-.41,8.68.3,8.29,4.76a9.23,9.23,0,0,1-.63,2.72,3.36,3.36,0,0,0-2-.3,9.7,9.7,0,0,0-2.6.73A10.14,10.14,0,0,0,495.15,160Zm35.45,18.25a12.66,12.66,0,0,0-.62,2.63c-0.16,1.78.62,2.92,3.73,2.62s7.74-5.25,11.15-8.15l2.71-.26c-4,4.08-14,15.74-20.18,16.33s-9.66-1.81-9.13-7.9a21.66,21.66,0,0,1,.84-4.18l4.3-14.89a10.89,10.89,0,0,0,.42-2.13c0.25-2.92-1.1-4.64-3.26-4.44a9.48,9.48,0,0,0-5.1,2.18l-9.71,33.43-11.49,1.1,16.37-56.28,12-2.75-6.09,20.94c3.48-2.67,7.32-5,10.75-5.29,4.31-.41,8.77,3.83,8.3,9.26a8.55,8.55,0,0,1-.33,2Zm38.86-20a2.65,2.65,0,0,0,2.25.51c3.75-.36,5.67-3.28,8.72-4.78l0.17,1.67a28.24,28.24,0,0,1-11.87,8.22c-2.93,16.45-12.33,25.32-20.31,26.08-8.54.82-11.89-2.48-11.05-12.14,1.73-20,12.46-29.51,23.47-30.56C568.43,146.47,569.82,152.29,569.47,158.2Zm-6.7,7c-2.31.22-3.2-1.38-3-3.33a7.64,7.64,0,0,1,4-6c0-2.65-.75-4.11-3-3.9-7.5.72-12.13,17.57-12.7,24.06-0.42,4.87,1.7,6,4.81,5.65C557.73,181.21,561.12,173.16,562.76,165.2Zm33.5-36.67-13,44.69a16.38,16.38,0,0,0-.62,2.63c-0.16,1.78.62,2.92,3.73,2.62s7.74-5.25,11.15-8.15l2.71-.26c-4,4.08-14,15.74-20.18,16.33s-9.66-1.81-9.13-7.9a22.33,22.33,0,0,1,.84-4.18l12.52-43Zm12.33,49.35c3.91-.37,11-5.72,14.34-12l3.59-.34c-5.27,8.79-13.65,17.72-23.94,18.7-7.66.73-11.3-4.79-10.69-11.77,0.9-10.3,6.78-28.81,21.3-30.2,6.54-.63,10,1.78,9.48,7.46-0.86,9.9-11.81,16.58-19.47,18.27a31.3,31.3,0,0,0-.54,3.51C602.19,176.87,605.48,178.17,608.6,177.87Zm6.86-31.55c-4.47.43-8.94,9.95-11.28,17.73,7.35-.78,13.09-7.69,13.67-13.46C618,148.89,617.85,146.09,615.45,146.32Zm26.09-6-1.23,4.14c3.07-2.55,6.42-4.64,9.77-5,3.59-.34,5.56,1.56,5.29,4.64-0.25,2.84-2.62,6.53-6.54,6.9-4.47.43-1.77-5.14-4.16-4.91s-3.75,1.24-5.73,3.12l-9.39,32.44-11.49,1.1,12-41.37Zm41.66,23.37a12.65,12.65,0,0,0-.64,2.8c-0.15,1.7.38,2.94,2.61,2.73a6.83,6.83,0,0,0,2.1-.44c-2.84,7.19-6.23,8-8.95,8.26-4.63.44-6.89-1.75-7.36-5.41-2.68,3.56-6.56,7.22-11.43,7.69-7.66.73-9.42-4.57-9-9.36,1.21-14,7.61-31.14,23.57-32.67a7.29,7.29,0,0,1,5.17,1.52l0.66-2.16,11.41-1.09Zm-5.07-20.84a5,5,0,0,0-3.78-1.09c-6,.57-11.89,13.93-12.85,25-0.42,4.87,2.13,5.51,4.13,5.32,1.84-.18,3.75-2.21,5.55-4.63a11.34,11.34,0,0,1,.62-2.63Z" transform="translate(-61.7 -14.93)"/></g></g></g><g class="cls-28"><path class="cls-32" d="M126.92,82.86a28,28,0,0,1,12.18,1.36,25,25,0,0,1,9.52,6,25.54,25.54,0,0,1,5.93,9.64A29.29,29.29,0,0,1,156,112.2l-1.41,16.2a36,36,0,0,1-3.6,12.85,42.08,42.08,0,0,1-7.72,11,41.44,41.44,0,0,1-10.73,7.91,34.55,34.55,0,0,1-12.62,3.73l-31.86,3,1.41-16.2,8-.76,4.22-48.59-8,.76L95.06,85.9Zm21.88,30a22.76,22.76,0,0,0-1.09-9.59,19.78,19.78,0,0,0-4.6-7.48,19.39,19.39,0,0,0-7.38-4.63,21.74,21.74,0,0,0-9.44-1L101.59,92.5l-0.14,1.62,8-.76-5.49,63.16-8,.76-0.14,1.62,24.69-2.36a26.83,26.83,0,0,0,9.79-2.89,32,32,0,0,0,8.32-6.13,32.56,32.56,0,0,0,6-8.49,27.93,27.93,0,0,0,2.78-10ZM126.14,91.76a20.24,20.24,0,0,1,8.83,1,18.22,18.22,0,0,1,6.9,4.33,18.59,18.59,0,0,1,4.3,7,21.18,21.18,0,0,1,1,9l-1.41,16.2a26,26,0,0,1-2.61,9.31,30.59,30.59,0,0,1-5.6,7.93,30.09,30.09,0,0,1-7.78,5.73,25,25,0,0,1-9.15,2.71l-15.13,1.45L111,93.21Zm13.89,22a14.63,14.63,0,0,0-.71-6.18,12.78,12.78,0,0,0-3-4.82,12.52,12.52,0,0,0-4.76-3,14,14,0,0,0-6.09-.68l-8,.76-4.22,48.59,8-.76a17.24,17.24,0,0,0,6.31-1.87,20.66,20.66,0,0,0,5.37-4,21.07,21.07,0,0,0,3.86-5.47,18,18,0,0,0,1.8-6.42Z" transform="translate(-61.7 -14.93)"/><path class="cls-32" d="M187.64,93.11l-4.22,48.59,8-.76L190,157.13l-31.86,3,1.41-16.2,8-.76,4.22-48.59-8,.76,1.41-16.19,31.86-3L195.6,92.35Zm-12,56.56,5.49-63.16,8-.76,0.14-1.62L171.68,85.8l-0.14,1.62,8-.76L174,149.82l-8,.76-0.14,1.62,17.52-1.68,0.14-1.62Z" transform="translate(-61.7 -14.93)"/><path class="cls-32" d="M268.87,133.52l7.74-.74L275.2,149l-31.86,3,1.41-16.2,7.51-.72-1.69-7.87L226,129.59l-3.09,8.33,7.51-.72L229,153.4l-31.86,3,1.41-16.2,7.74-.74L231,72.9l24.35-2.33ZM235.63,79.68l-24.75,66.61-5.8.56-0.14,1.62,17.52-1.68,0.14-1.62-10,1,8.68-23.31,35.27-3.37,4.74,22-10,1-0.14,1.62,17.52-1.68,0.14-1.62-5.92.57-13.49-63Zm1.11,1.5,11.38-1.09,8.11,37.77-34.36,3.29ZM247.2,111.5l-5.06-23.61-0.68.07-9.28,25Z" transform="translate(-61.7 -14.93)"/><path class="cls-32" d="M354.55,125.33l-1.41,16.2-31.86,3,1.41-16.2,6.49-.62L323,115.49l-14.34,1.37-1.13,13,8-.76-1.41,16.2-31.86,3,1.41-16.2,8-.76,4.22-48.59-8,.76,1.41-16.19,37.78-3.61A22.25,22.25,0,0,1,336.66,65a20.61,20.61,0,0,1,7.48,4.79,20.25,20.25,0,0,1,4.7,7.64A23.22,23.22,0,0,1,350,87.22a28.4,28.4,0,0,1-3.6,11.59,36.81,36.81,0,0,1-7.72,9.57l9,17.61Zm-7.8,8-4,.38-13.56-27a10.26,10.26,0,0,0,1.54-.84,34.15,34.15,0,0,0,3.11-2l0.86-.77a23.28,23.28,0,0,0,5.62-6.91,21.24,21.24,0,0,0,2.46-8.21,16.67,16.67,0,0,0-.8-7,15.06,15.06,0,0,0-3.36-5.53,14.54,14.54,0,0,0-5.34-3.5,15,15,0,0,0-6.87-.83l-30.61,2.93-0.14,1.62,8-.76-5.49,63.16-8,.76-0.14,1.62,17.52-1.68,0.14-1.62-8,.76,2.39-27.53,20.37-1.95q1.25-.12,2.68-0.37a9.73,9.73,0,0,0,2.37-.69l13.37,26.6L329.23,135l-0.14,1.62,17.52-1.68ZM341.2,88.06a19,19,0,0,1-1.88,6.72,21.9,21.9,0,0,1-4.06,5.78,21.54,21.54,0,0,1-5.67,4.16,18.24,18.24,0,0,1-6.6,2l-20.71,2,3-34,20.71-2a14.8,14.8,0,0,1,6.37.71,13.07,13.07,0,0,1,5,3.13,13.34,13.34,0,0,1,3.11,5.09A15.51,15.51,0,0,1,341.2,88.06ZM323.63,99.37a11.09,11.09,0,0,0,7-3.48A11.41,11.41,0,0,0,334,88.74a8,8,0,0,0-2.19-6.62,7.68,7.68,0,0,0-6.52-2.19l-13.54,1.3-1.69,19.43Z" transform="translate(-61.7 -14.93)"/><path class="cls-32" d="M432.5,117.87l-1.41,16.2-31.86,3,1.41-16.2,6.49-.62L401,108l-14.34,1.37-1.13,13,8-.76-1.41,16.2-31.86,3,1.41-16.2,8-.76L373.8,75.3l-8,.76,1.41-16.19L405,56.26a22.26,22.26,0,0,1,9.59,1.26,20.61,20.61,0,0,1,7.48,4.79,20.24,20.24,0,0,1,4.7,7.64,23.21,23.21,0,0,1,1.12,9.82,28.4,28.4,0,0,1-3.6,11.59,36.82,36.82,0,0,1-7.72,9.57l9,17.61Zm-7.8,8-4,.38-13.56-27a10.26,10.26,0,0,0,1.54-.84,34.28,34.28,0,0,0,3.11-2l0.86-.77a23.28,23.28,0,0,0,5.62-6.91,21.25,21.25,0,0,0,2.46-8.21,16.67,16.67,0,0,0-.8-7,15.06,15.06,0,0,0-3.36-5.53,14.54,14.54,0,0,0-5.34-3.5,15,15,0,0,0-6.87-.83l-30.61,2.93-0.14,1.62,8-.76-5.49,63.16-8,.76L368,132.87l17.52-1.68,0.14-1.62-8,.76,2.39-27.53,20.37-1.95q1.25-.12,2.68-0.37a9.72,9.72,0,0,0,2.37-.69l13.37,26.6-11.72,1.12L407,129.14l17.52-1.68ZM419.15,80.6a19.05,19.05,0,0,1-1.88,6.72,21.92,21.92,0,0,1-4.06,5.78,21.55,21.55,0,0,1-5.67,4.16,18.27,18.27,0,0,1-6.6,2l-20.71,2,3-34,20.71-2a14.79,14.79,0,0,1,6.37.71,13.06,13.06,0,0,1,5,3.13,13.33,13.33,0,0,1,3.11,5.09A15.51,15.51,0,0,1,419.15,80.6ZM401.58,91.92a11.08,11.08,0,0,0,7-3.48A11.41,11.41,0,0,0,412,81.29a8,8,0,0,0-2.19-6.62,7.68,7.68,0,0,0-6.52-2.19l-13.54,1.29L388,93.21Z" transform="translate(-61.7 -14.93)"/><path class="cls-32" d="M506.7,62.59l-4.22,48.59,8-.76L509,126.61l-31.86,3,1.41-16.2,8-.76L488,96.51l-23.1,2.21-1.41,16.19,8-.76L470,130.34l-31.86,3,1.41-16.2,8-.76,4.22-48.59-8,.76,1.41-16.19,31.86-3-1.41,16.19-8,.76-1.41,16.2,23.1-2.21,1.41-16.2-8,.76,1.41-16.19,31.86-3-1.41,16.19Zm1.43-7.36,0.14-1.62-17.52,1.68-0.14,1.62,8-.76L495.9,86.91l-37.44,3.58,2.67-30.77,8-.76,0.14-1.62L451.72,59l-0.14,1.62,8-.76L454.05,123l-8,.76-0.14,1.62,17.52-1.68,0.14-1.62-8,.76,2.67-30.77,37.44-3.58-2.67,30.77-8,.76L485,121.69,502.5,120l0.14-1.62-8,.76L500.16,56Z" transform="translate(-61.7 -14.93)"/><path class="cls-32" d="M563,41.15a21,21,0,0,1,9.11,1,18.72,18.72,0,0,1,7.17,4.48,19.15,19.15,0,0,1,4.45,7.26,22,22,0,0,1,1.06,9.25l-2.82,32.39a26.89,26.89,0,0,1-2.7,9.66,31.71,31.71,0,0,1-5.79,8.18,30.94,30.94,0,0,1-8.08,5.94,26,26,0,0,1-9.44,2.8L540,123.65a20.9,20.9,0,0,1-9.16-1,18.78,18.78,0,0,1-7.11-4.48,19.18,19.18,0,0,1-4.45-7.2,21.91,21.91,0,0,1-1.05-9.31L521,69.25a27.08,27.08,0,0,1,2.7-9.61,31.34,31.34,0,0,1,13.81-14.17,25.84,25.84,0,0,1,9.5-2.8ZM546.39,50a18.32,18.32,0,0,0-6.6,2,21.61,21.61,0,0,0-5.66,4.15,21.88,21.88,0,0,0-4.06,5.78,19,19,0,0,0-1.88,6.72L525.37,101a15.5,15.5,0,0,0,.74,6.47,13.28,13.28,0,0,0,3.11,5.09,13,13,0,0,0,5,3.13,14.78,14.78,0,0,0,6.37.71l15.93-1.52a18.25,18.25,0,0,0,6.6-2,21.54,21.54,0,0,0,5.67-4.16,21.89,21.89,0,0,0,4.06-5.78,19,19,0,0,0,1.88-6.72l2.82-32.39a15.52,15.52,0,0,0-.74-6.47,13.34,13.34,0,0,0-3.11-5.09,13.07,13.07,0,0,0-5-3.13,14.82,14.82,0,0,0-6.37-.71Zm-5.63,64.78a13.27,13.27,0,0,1-5.75-.65,11.86,11.86,0,0,1-4.55-2.83,12.09,12.09,0,0,1-2.82-4.61,13.92,13.92,0,0,1-.68-5.84l2.82-32.39a17.11,17.11,0,0,1,1.71-6.07,19.87,19.87,0,0,1,3.67-5.23,19.63,19.63,0,0,1,5.12-3.76,16.44,16.44,0,0,1,6-1.78l15.93-1.52a13.29,13.29,0,0,1,5.75.65,11.85,11.85,0,0,1,4.55,2.83,12.09,12.09,0,0,1,2.82,4.61A13.88,13.88,0,0,1,576,64l-2.82,32.39a17.08,17.08,0,0,1-1.71,6.07,19.9,19.9,0,0,1-3.67,5.23,19.65,19.65,0,0,1-5.12,3.76,16.43,16.43,0,0,1-6,1.77Zm16.56-8.81a9.23,9.23,0,0,0,5.84-2.91A9.51,9.51,0,0,0,566,97.07l2.82-32.39a6.62,6.62,0,0,0-1.84-5.5,6.39,6.39,0,0,0-5.43-1.83l-15.93,1.52a9.24,9.24,0,0,0-5.84,2.91,9.51,9.51,0,0,0-2.83,5.95l-2.82,32.39a6.62,6.62,0,0,0,1.84,5.5,6.38,6.38,0,0,0,5.43,1.83Z" transform="translate(-61.7 -14.93)"/><path class="cls-32" d="M631.62,58.68l0.7-8.1L616.39,52.1,615,68.3l15.93-1.52L629.51,83l-15.93,1.52-1.41,16.19,15.93-1.52,0.7-8.1,15.93-1.52-2.11,24.29-55.76,5.33,1.41-16.2,8-.76,4.22-48.59-8,.76,1.41-16.19,55.76-5.33-2.11,24.29Zm8.51-16.07-0.7,8.1,1.59-.15,0.84-9.72-41.42,4-0.14,1.62,8-.76-5.49,63.16-8,.76-0.14,1.62,41.42-4,0.84-9.72-1.59.15-0.7,8.1-30.27,2.9L607,77.89,623,76.37l0.14-1.62-15.93,1.52,2.67-30.77Z" transform="translate(-61.7 -14.93)"/><path class="cls-32" d="M721.52,90.23l7.74-.74-1.41,16.2-31.86,3,1.41-16.2,7.51-.72-1.69-7.87L678.64,86.3l-3.09,8.33,7.51-.72-1.41,16.2-31.86,3L651.2,97l7.74-.74L683.68,29.6,708,27.28ZM688.28,36.39L663.54,103l-5.8.56-0.14,1.62,17.52-1.68,0.14-1.62-10,1,8.68-23.31,35.27-3.37,4.74,22-10,1-0.14,1.62,17.53-1.68,0.14-1.62-5.92.57-13.49-63Zm1.11,1.5,11.38-1.09,8.11,37.77-34.36,3.29Zm10.46,30.32L694.79,44.6l-0.68.07-9.28,25Z" transform="translate(-61.7 -14.93)"/><path class="cls-32" d="M216.82,364.26l-4.91,56.54,9.27-.89-1.64,18.85-37.08,3.55,1.64-18.85,9.27-.89L195,403.72l-26.88,2.57-1.64,18.85,9.27-.89-1.64,18.85L137,446.65l1.64-18.85,9.27-.89,4.91-56.54-9.27.89,1.64-18.85,37.08-3.55-1.64,18.85-9.27.89-1.64,18.85,26.88-2.57L198.29,366l-9.27.89,1.64-18.85,37.08-3.55-1.64,18.85Zm1.66-8.57,0.16-1.88-20.39,2-0.16,1.88,9.27-.89-3.11,35.81-43.56,4.17,3.11-35.81,9.27-.89,0.16-1.88-20.39,2L152.68,362l9.27-.89-6.39,73.5-9.27.89-0.16,1.88,20.39-2,0.16-1.88-9.27.89,3.11-35.81,43.56-4.17L201,430.25l-9.27.89L191.55,433l20.39-2,0.16-1.88-9.27.89,6.39-73.5Z" transform="translate(-61.7 -14.93)"/><path class="cls-32" d="M282.28,339.31a24.46,24.46,0,0,1,10.6,1.19,21.75,21.75,0,0,1,8.35,5.21,22.23,22.23,0,0,1,5.17,8.45,25.61,25.61,0,0,1,1.23,10.76l-3.28,37.69a31.31,31.31,0,0,1-3.14,11.25,36.88,36.88,0,0,1-6.74,9.52,36,36,0,0,1-9.4,6.91,30.22,30.22,0,0,1-11,3.25l-18.54,1.77a24.32,24.32,0,0,1-10.66-1.18,21.88,21.88,0,0,1-8.28-5.21,22.33,22.33,0,0,1-5.18-8.38,25.46,25.46,0,0,1-1.23-10.83L233.48,372a31.49,31.49,0,0,1,3.14-11.18,36.47,36.47,0,0,1,16.08-16.49,30.07,30.07,0,0,1,11.05-3.26ZM263,349.56a21.29,21.29,0,0,0-7.68,2.27,25.11,25.11,0,0,0-6.59,4.83,25.44,25.44,0,0,0-4.72,6.73,22.13,22.13,0,0,0-2.19,7.82l-3.28,37.69a18,18,0,0,0,.86,7.53,15.43,15.43,0,0,0,3.62,5.93,15.11,15.11,0,0,0,5.86,3.65,17.2,17.2,0,0,0,7.41.83l18.54-1.77a21.25,21.25,0,0,0,7.68-2.27A25.06,25.06,0,0,0,289.1,418a25.5,25.5,0,0,0,4.72-6.73,22.17,22.17,0,0,0,2.19-7.82l3.28-37.69a18.06,18.06,0,0,0-.86-7.53,15.53,15.53,0,0,0-3.62-5.93,15.17,15.17,0,0,0-5.85-3.64,17.24,17.24,0,0,0-7.41-.83Zm-6.55,75.38a15.45,15.45,0,0,1-6.7-.76,13.77,13.77,0,0,1-5.29-3.3,14.08,14.08,0,0,1-3.28-5.36,16.17,16.17,0,0,1-.79-6.8L243.68,371a19.93,19.93,0,0,1,2-7.06,23.21,23.21,0,0,1,4.27-6.08,22.79,22.79,0,0,1,6-4.37,19.1,19.1,0,0,1,6.94-2.07l18.54-1.77a15.48,15.48,0,0,1,6.7.76,13.79,13.79,0,0,1,5.29,3.3,14.12,14.12,0,0,1,3.28,5.36,16.18,16.18,0,0,1,.79,6.8l-3.28,37.69a19.92,19.92,0,0,1-2,7.07,23.23,23.23,0,0,1-4.27,6.08,22.81,22.81,0,0,1-6,4.37,19.1,19.1,0,0,1-6.94,2.07Zm19.27-10.25a10.74,10.74,0,0,0,6.79-3.39,11.06,11.06,0,0,0,3.29-6.92l3.28-37.69a7.71,7.71,0,0,0-2.14-6.4,7.44,7.44,0,0,0-6.31-2.13l-18.54,1.77a10.76,10.76,0,0,0-6.79,3.39,11.06,11.06,0,0,0-3.29,6.92l-3.28,37.69a7.69,7.69,0,0,0,2.13,6.4,7.43,7.43,0,0,0,6.31,2.13Z" transform="translate(-61.7 -14.93)"/><path class="cls-32" d="M377.45,395.62L375,423.89l-64.88,6.21,1.64-18.85,9.27-.89,4.91-56.54-9.27.89,1.64-18.85,37.07-3.55-1.64,18.85-9.27.89-4.91,56.54,18.54-1.77,0.82-9.42Zm-9.08,9.28-1.85.18-0.82,9.42-35.22,3.37,6.39-73.5,9.27-.89,0.16-1.88-20.39,2-0.16,1.88,9.27-.89L328.62,418l-9.27.89-0.16,1.88,48.2-4.61Z" transform="translate(-61.7 -14.93)"/><path class="cls-32" d="M417.69,345l-4.91,56.54,9.27-.89-1.64,18.85-37.08,3.55L385,404.25l9.27-.89,4.91-56.54-9.27.89,1.64-18.85,37.08-3.55L427,344.16Zm-14,65.82,6.39-73.5,9.27-.89,0.16-1.88-20.39,2L399,338.43l9.27-.89L401.84,411l-9.27.89-0.16,1.88,20.39-2L413,410Z" transform="translate(-61.7 -14.93)"/><path class="cls-32" d="M474,321a32.56,32.56,0,0,1,14.17,1.58,29.1,29.1,0,0,1,11.08,7,29.7,29.7,0,0,1,6.9,11.22,34.05,34.05,0,0,1,1.64,14.39L506.17,374a41.87,41.87,0,0,1-4.19,15,48.94,48.94,0,0,1-9,12.74,48.17,48.17,0,0,1-12.49,9.2,40.19,40.19,0,0,1-14.69,4.34l-37.08,3.55,1.64-18.85,9.27-.89,4.91-56.54-9.27.89,1.64-18.85Zm25.46,34.95a26.48,26.48,0,0,0-1.26-11.16,23,23,0,0,0-5.35-8.7,22.54,22.54,0,0,0-8.59-5.39,25.28,25.28,0,0,0-11-1.22l-28.73,2.75-0.16,1.88,9.27-.89-6.39,73.5-9.27.89-0.16,1.88,28.73-2.75a31.21,31.21,0,0,0,11.39-3.36,37.31,37.31,0,0,0,9.68-7.13,37.86,37.86,0,0,0,7-9.88,32.51,32.51,0,0,0,3.24-11.59Zm-26.36-24.58a23.56,23.56,0,0,1,10.27,1.15,21.19,21.19,0,0,1,8,5,21.63,21.63,0,0,1,5,8.13,24.67,24.67,0,0,1,1.19,10.43L496,374.94a30.29,30.29,0,0,1-3,10.84,35.6,35.6,0,0,1-6.51,9.23,35,35,0,0,1-9,6.67,29,29,0,0,1-10.65,3.15l-17.61,1.68L455.5,333Zm16.16,25.55a17,17,0,0,0-.82-7.2,14.91,14.91,0,0,0-3.45-5.61,14.59,14.59,0,0,0-5.54-3.47,16.26,16.26,0,0,0-7.09-.79l-9.27.89-4.91,56.54,9.27-.89a20.07,20.07,0,0,0,7.34-2.17,24.11,24.11,0,0,0,6.24-4.6,24.53,24.53,0,0,0,4.49-6.37,20.91,20.91,0,0,0,2.09-7.48Z" transform="translate(-61.7 -14.93)"/><path class="cls-32" d="M592.59,384.39l9-.86L600,402.37l-37.08,3.55,1.64-18.85,8.74-.84-2-9.16-28.6,2.73-3.6,9.69,8.74-.84-1.64,18.85-37.07,3.55,1.64-18.85,9-.86,28.8-77.51,28.33-2.71Zm-38.68-62.65-28.8,77.51-6.75.65-0.16,1.88,20.39-2,0.16-1.88-11.65,1.11,10.11-27.13,41-3.93,5.52,25.64-11.65,1.11L572,396.64l20.39-2,0.16-1.88-6.88.66-15.69-73.26Zm1.29,1.74,13.24-1.27,9.44,44-40,3.82Zm12.17,35.28-5.88-27.47-0.79.08-10.8,29.07Z" transform="translate(-61.7 -14.93)"/><path class="cls-32" d="M684.81,300.81l-1.64,18.85-7.55.72L645.9,361.67l-1.54,17.77,9.27-.89L652,397.4l-37.08,3.55,1.64-18.85,9.27-.89,1.54-17.77-22.85-36.26-7.55.72,1.64-18.85,37.07-3.55L634,324.36l-7,.67,11.3,18,14.78-20.5-7,.67,1.64-18.85Zm-9.08,9.28L655.34,312l-0.16,1.88,14.57-1.39L637,358l-25.16-39.91,14.57-1.39,0.16-1.88-20.39,2L606,318.62l3.58-.34L635.94,360l-2.51,28.94-9.27.89L624,391.67l20.39-2,0.16-1.88-9.27.89,2.51-28.94L672,312.32l3.58-.34Z" transform="translate(-61.7 -14.93)"/><path class="cls-32" d="M88.41,283.85c0.17-1.95-1-2.64-2.71-2.48-6.7.64-12.16,14.28-12.92,23-0.42,4.79.2,8.59,5.07,8.12,5.67-.54,10.51-4.38,14.55-9l2.71-.26c-4.21,4.75-9.4,15.3-23.53,16.65-6.62.63-10.61-2.69-9.78-12.26,1-11.85,7.42-28,22.9-29.46,4.31-.41,8.68.3,8.29,4.76a9.23,9.23,0,0,1-.63,2.72,3.36,3.36,0,0,0-2-.3,9.7,9.7,0,0,0-2.6.73A10.14,10.14,0,0,0,88.41,283.85Zm42.64-9.79-8.14,28.13a16.9,16.9,0,0,0-.54,2.55c-0.16,1.78.53,3,3.72,2.7s7.74-5.25,11.15-8.15L140,299c-4,4.08-14,15.74-20.18,16.33-5.19.5-8.53-1.12-9.2-5.24-2.68,3.56-6.56,7.22-11.43,7.69-7.66.73-9.42-4.57-9-9.36,1.21-14,7.61-31.14,23.57-32.67a7.29,7.29,0,0,1,5.17,1.52l0.66-2.16Zm-29.93,31.18c-0.42,4.87,2.13,5.51,4.13,5.32,1.84-.18,3.75-2.13,5.46-4.54a21.39,21.39,0,0,1,.71-2.72l6.34-21.93a5,5,0,0,0-3.78-1.09C108,280.85,102.08,294.2,101.12,305.24Zm58.25,6.34c-5.19.5-7.9-2-7.37-8.07a21.66,21.66,0,0,1,.84-4.18l4.3-14.89a10.89,10.89,0,0,0,.42-2.13c0.25-2.92-1.1-4.64-3.26-4.44a9.93,9.93,0,0,0-5.18,2.18l-9.63,33.43L128,314.57l12-41.37,11.49-1.1-1.34,4.47c3.48-2.75,7.32-5,10.83-5.38,4.39-.42,8.77,3.83,8.29,9.35a15.71,15.71,0,0,1-.32,1.88c-0.63,2.72-5.3,17.32-5.46,19.11-0.12,1.38.42,2.45,2.73,2.23a6.83,6.83,0,0,0,2.1-.44C165.48,310.51,162.08,311.32,159.37,311.58Zm48.38-44.86-1.23,4.14c3.07-2.55,6.42-4.64,9.77-5,3.59-.34,5.56,1.56,5.29,4.64-0.25,2.84-2.62,6.53-6.54,6.9-4.47.43-1.77-5.14-4.16-4.91s-3.75,1.24-5.73,3.12l-9.39,32.44-11.49,1.1,12-41.37Zm26.66,31.89c3.91-.37,11-5.72,14.34-12l3.59-.34c-5.27,8.79-13.65,17.72-23.94,18.7-7.66.73-11.3-4.79-10.69-11.77,0.9-10.3,6.78-28.81,21.3-30.2,6.54-.63,10,1.78,9.48,7.46-0.86,9.9-11.81,16.58-19.47,18.27a31.31,31.31,0,0,0-.54,3.51C228,297.61,231.3,298.9,234.41,298.6Zm6.86-31.55c-4.47.43-8.94,9.95-11.28,17.73,7.35-.78,13.09-7.69,13.67-13.46C243.81,269.63,243.66,266.82,241.27,267.05Zm46.2-8-8.14,28.13a16.9,16.9,0,0,0-.54,2.55c-0.16,1.78.53,3,3.72,2.7s7.74-5.25,11.15-8.15l2.71-.26c-4,4.08-14,15.74-20.18,16.33-5.19.5-8.53-1.12-9.2-5.24-2.68,3.56-6.56,7.22-11.43,7.69-7.66.73-9.42-4.57-9-9.36,1.21-14,7.61-31.14,23.57-32.67a7.29,7.29,0,0,1,5.17,1.52l0.66-2.16Zm-29.93,31.18c-0.42,4.87,2.13,5.51,4.13,5.32,1.84-.18,3.75-2.13,5.46-4.54a21.39,21.39,0,0,1,.71-2.72l6.34-21.93a5,5,0,0,0-3.78-1.09C264.4,265.89,258.49,279.24,257.53,290.28Zm55.37-49.71-13,44.69a16.38,16.38,0,0,0-.62,2.63c-0.16,1.78.62,2.92,3.73,2.62s7.74-5.25,11.15-8.15l2.71-.26c-4,4.08-14,15.74-20.18,16.33s-9.66-1.81-9.13-7.9a22.33,22.33,0,0,1,.84-4.18l12.52-43Zm22.82-2.18-13,44.69a16.38,16.38,0,0,0-.62,2.63c-0.16,1.78.62,2.92,3.73,2.62s7.74-5.25,11.15-8.15l2.71-.26c-4,4.08-14,15.74-20.18,16.33s-9.66-1.81-9.13-7.9a22.33,22.33,0,0,1,.84-4.18l12.52-43Zm17.5,14.42L345,280.95a11.34,11.34,0,0,0-.62,2.63c-0.16,1.78.62,2.92,3.73,2.62,1.84-.18,4.12-1.84,6.35-3.83l8.83-30.53,11.57-1.11-13.82,48c-3.4,11.83-10.46,14.68-15.72,15.18-4.87.47-9.11-2.59-8.66-7.86,0.66-7.55,7.08-10.49,14.86-13.49l1.68-5.71c-3.88,3.67-8.2,7-11.4,7.28-6.22.6-9.66-1.81-9.13-7.9a21.66,21.66,0,0,1,.84-4.18l8-28.12Zm-9.13,54.05c1.6-.15,3.88-1.9,5.26-6.78l1.37-4.88c-5.18,2.18-9.21,4.9-9.59,9.28A2.59,2.59,0,0,0,344.1,306.86Zm97.71-35.17a14.12,14.12,0,0,0-.66,3c-0.16,1.87.43,3.26,3,3,3.19-.31,7-5.41,9.1-9.08l3.75-.36c-4.05,4.73-12.15,16-18.38,16.56s-9.66-1.81-9.13-7.9a21.66,21.66,0,0,1,.84-4.18l4.3-14.89a10.89,10.89,0,0,0,.42-2.13c0.25-2.92-1.1-4.64-3.26-4.44a9.47,9.47,0,0,0-4.76,1.9,11,11,0,0,1,.15,2.8,13.18,13.18,0,0,1-.31,1.72l-8.38,29-11.57,1.11,8.14-28.13a10.89,10.89,0,0,0,.42-2.13c0.25-2.92-1.1-4.64-3.26-4.44a9.23,9.23,0,0,0-5,2.17l-9.71,33.43L386,289.9l12-41.37,11.49-1.1-1.25,4.38c3.4-2.66,7.24-5,10.67-5.28a7.81,7.81,0,0,1,7.44,4.6c3.76-3.18,8.21-6.09,12.12-6.47,4.39-.42,8.77,3.83,8.29,9.35a15.71,15.71,0,0,1-.32,1.88Zm23.4,4.84c3-.29,5.94-2.74,8.57-6.69,0.82-5.79,3.9-9.38,6.88-9.91,3.33-5.55,5.79-12.94,7.69-19.24l11.78-3.54-0.1,1.14c-1.16,13.39,3.91,16.92,3.09,26.42a12.74,12.74,0,0,1-.23,1.71c2.41-2.24,4.59-4.54,5.65-5.77l1.84,2.56c-2.39,2-5.83,5.14-9.26,8.21-2.46,4.66-7.28,8.18-14.7,8.89-7.66.73-11.89-.71-12.71-5.78-3.64,4.53-8,7.77-14.5,8.39-7.66.73-11.3-4.79-10.69-11.77,0.9-10.3,6.78-28.81,21.3-30.2,6.54-.63,10,1.78,9.48,7.46-0.86,9.9-11.81,16.58-19.47,18.27a31.31,31.31,0,0,0-.54,3.51C458.81,275.53,462.1,276.83,465.21,276.53ZM472.07,245c-4.47.43-8.94,9.95-11.28,17.73,7.35-.78,13.09-7.69,13.67-13.46C474.62,247.55,474.46,244.75,472.07,245Zm8.59,25a5.63,5.63,0,0,1-2.81-.46c-0.42,4.79,2,6.65,6.18,6.25,2.71-.26,6.92-4,7.46-10.29,0.44-5-2.78-9-2.06-19.11-1.62,4.1-3.19,9.4-5.3,13.62,1.86,0.47,2.45,1.86,2.24,4.29A6.46,6.46,0,0,1,480.66,270Zm50.9-35.68-0.1,1.14c-1.16,13.39,4.32,16.72,3.5,26.22-0.66,7.55-5.94,14.57-16.71,15.6-9.18.88-13.41-1.37-12.72-9.32,0.56-6.41,3.75-10.42,7-11,3.17-5.53,5.39-12.83,7.28-19.12ZM512.5,266.94a5.63,5.63,0,0,1-2.81-.46c-0.42,4.79,2,6.65,6.18,6.25,2.71-.26,6.92-4,7.46-10.29,0.44-5-2.78-9-2.06-19.11-1.62,4.1-3.19,9.4-5.3,13.62,1.86,0.47,2.45,1.86,2.24,4.29A6.52,6.52,0,0,1,512.5,266.94ZM608.36,234c-1.1,12.66-9.34,35.49-25.46,37-5.43.52-8.75-1.25-9.15-5.8-4.05,3.85-8.65,7.5-12,7.82-6.14.59-9.74-1.8-9.21-7.89a22.33,22.33,0,0,1,.84-4.18l8.14-28.13,11.49-1.1-8.14,28.13a16.9,16.9,0,0,0-.54,2.55c-0.16,1.78.53,3,3.72,2.7,1.68-.16,3.78-1.57,5.83-3.37a13.31,13.31,0,0,1,.64-2.8l8.14-28.13,11.49-1.1L586,257.9a16.22,16.22,0,0,0-.66,3c-0.13,1.54.49,2.53,2.81,2.31,7.82-.75,14.71-19,15.48-27.87a6.9,6.9,0,0,1-1.7.48c-2.31.22-3.15-2-3-4.22,0.15-1.7,2.26-4.16,4.89-4.41C607.31,226.9,608.72,229.82,608.36,234Zm18.93-7.44-8.14,28.13a16.9,16.9,0,0,0-.54,2.55c-0.16,1.78.53,3,3.72,2.7s7.74-5.25,11.15-8.15l2.71-.26c-4,4.08-14,15.74-20.18,16.33s-9.74-1.8-9.21-7.89a22.33,22.33,0,0,1,.84-4.18l8.14-28.13Zm-2.18-16.85a5.2,5.2,0,0,1,5.82,5.88,8,8,0,0,1-6.94,7,5.1,5.1,0,0,1-5.75-5.81A8,8,0,0,1,625.11,209.74Zm28.43,1.63s-1.68,5.63-3.83,13.08l4.79-.46-0.92,3.31-4.79.46c-7.73,26.16-7.72,27-7.76,27.37-0.16,1.87.53,3,3.72,2.7s7.74-5.25,11.15-8.15l2.71-.26c-4,4.08-14,15.74-20.18,16.33s-9.66-1.81-9.13-7.9c0.37-4.3,6-21.9,8-29l-2.63.25,0.92-3.31,2.63-.25,3.37-11.42Zm26.33,50.42c-5.67.54-7.81-3-7.36-8.15a19.66,19.66,0,0,1,.83-4.1l4.3-14.89a14.45,14.45,0,0,0,.32-1.88c0.23-2.6-.68-4.92-3.15-4.69a9.3,9.3,0,0,0-5.18,2.27l-9.7,33.35-11.49,1.1,16.37-56.28,12-2.75-6.1,21c3.48-2.75,7.32-5,10.83-5.38,4.47-.43,8.75,4.07,8.28,9.43a7.22,7.22,0,0,1-.31,1.8l-4.62,15.81a18.32,18.32,0,0,0-.93,3.39c-0.12,1.38.43,2.37,2.82,2.14a6.83,6.83,0,0,0,2.1-.44C686,260.73,682.58,261.53,679.87,261.79Zm60.34-18.64a12.65,12.65,0,0,0-.64,2.8c-0.15,1.7.38,2.94,2.61,2.73a6.83,6.83,0,0,0,2.1-.44c-2.84,7.19-6.23,8-8.95,8.26-4.63.44-6.89-1.75-7.36-5.41-2.68,3.56-6.56,7.22-11.43,7.69-7.66.73-9.42-4.57-9-9.36,1.21-14,7.61-31.14,23.57-32.67a7.29,7.29,0,0,1,5.17,1.52l0.66-2.16L748.35,215Zm-5.07-20.84a5,5,0,0,0-3.78-1.09c-6,.57-11.89,13.93-12.85,25-0.42,4.87,2.13,5.51,4.13,5.32,1.84-.18,3.75-2.21,5.55-4.63a11.34,11.34,0,0,1,.62-2.63Z" transform="translate(-61.7 -14.93)"/></g><path class="cls-32" d="M169.89,195c0.17-1.95-1-2.64-2.71-2.48-6.7.64-12.16,14.28-12.92,23-0.42,4.79.2,8.59,5.07,8.12,5.67-.54,10.51-4.38,14.55-9l2.71-.26c-4.21,4.75-9.4,15.3-23.53,16.65-6.62.63-10.61-2.69-9.78-12.26,1-11.85,7.42-28,22.9-29.46,4.31-.41,8.68.3,8.29,4.76a9.23,9.23,0,0,1-.63,2.72,3.36,3.36,0,0,0-2-.3,9.7,9.7,0,0,0-2.6.73A10.14,10.14,0,0,0,169.89,195Zm42.64-9.79-8.14,28.13a16.9,16.9,0,0,0-.54,2.55c-0.16,1.78.53,3,3.72,2.7s7.74-5.25,11.15-8.15l2.71-.26c-4,4.08-14,15.74-20.18,16.33-5.19.5-8.53-1.12-9.2-5.24-2.68,3.56-6.56,7.22-11.43,7.69-7.66.73-9.42-4.57-9-9.36,1.21-14,7.61-31.14,23.57-32.67a7.29,7.29,0,0,1,5.17,1.52l0.66-2.16ZM182.6,216.42c-0.42,4.87,2.13,5.51,4.13,5.32,1.84-.18,3.75-2.13,5.46-4.54a21.39,21.39,0,0,1,.71-2.72l6.34-21.93a5,5,0,0,0-3.78-1.09C189.47,192,183.56,205.39,182.6,216.42Zm71.19-35.13-8.14,28.13a16.9,16.9,0,0,0-.54,2.55c-0.16,1.78.53,3,3.72,2.7s7.74-5.25,11.15-8.15l2.71-.26c-4,4.08-14,15.74-20.18,16.33-5.43.52-8.91-1.24-9.22-5.88-4.06,3.93-8.65,7.59-12.08,7.91-6.14.59-9.74-1.8-9.21-7.89a22.33,22.33,0,0,1,.84-4.18L221,184.43l11.49-1.1-8.14,28.13a16.9,16.9,0,0,0-.54,2.55c-0.16,1.78.53,3,3.72,2.7,1.68-.16,3.78-1.65,5.92-3.46a21.39,21.39,0,0,1,.71-2.72l8.14-28.13Zm26-4.1-0.1,1.14c-1.16,13.39,3.91,16.92,3.09,26.42a12.74,12.74,0,0,1-.23,1.71c2.41-2.24,4.59-4.54,5.65-5.77l1.84,2.56c-2.39,2-5.83,5.14-9.26,8.21-2.46,4.66-7.28,8.18-14.7,8.89-9.18.88-13.41-1.37-12.72-9.32,0.56-6.49,3.76-10.5,7-11,3.33-5.55,5.79-12.94,7.69-19.24ZM260.32,210a5.63,5.63,0,0,1-2.81-.46c-0.42,4.79,2,6.65,6.18,6.25,2.71-.26,6.92-4,7.46-10.29,0.44-5-2.78-9-2.06-19.11-1.62,4.1-3.19,9.4-5.3,13.62,1.86,0.47,2.45,1.86,2.24,4.29A6.46,6.46,0,0,1,260.32,210Zm42.89,1c3.91-.37,11-5.72,14.34-12l3.59-.34c-5.27,8.79-13.65,17.72-23.94,18.7-7.66.73-11.3-4.79-10.69-11.77,0.9-10.3,6.78-28.81,21.3-30.2,6.54-.63,10,1.78,9.48,7.46-0.86,9.9-11.81,16.58-19.47,18.27a31.31,31.31,0,0,0-.54,3.51C296.81,210,300.1,211.3,303.21,211Zm6.86-31.55c-4.47.43-8.94,9.95-11.28,17.73,7.35-.78,13.09-7.69,13.67-13.46C312.62,182,312.46,179.22,310.07,179.45Zm37.1,20.27a12.65,12.65,0,0,0-.64,2.8c-0.15,1.7.38,2.94,2.61,2.73a6.83,6.83,0,0,0,2.1-.44c-2.84,7.19-6.23,8-8.95,8.26-4.63.44-6.89-1.75-7.37-5.33-2.68,3.56-6.56,7.14-11.34,7.6-7.66.73-9.42-4.57-9-9.36,1.21-14,7.61-31.14,23.57-32.67a7.7,7.7,0,0,1,5.17,1.52l5-17L360.15,155Zm-21.63,3c-0.42,4.87,2.13,5.51,4.13,5.32,1.84-.18,3.67-2.12,5.37-4.46a20.31,20.31,0,0,1,.72-2.8l6.42-22a5.36,5.36,0,0,0-3.79-1C332.4,178.36,326.49,191.72,325.54,202.75Zm68.93-51L389,170.53a13.7,13.7,0,0,1,7.07-3c7.66-.73,9.66,4.55,9.24,9.33-1.11,12.74-9.53,31.32-23.81,32.69-7.9.76-13-1-12.36-8a20.81,20.81,0,0,1,.82-4l12.52-43Zm-2.14,21a13.6,13.6,0,0,0-4.41,1.55l-6.44,22.18a27,27,0,0,0-1,4.52c-0.21,2.43.86,2.9,3.25,2.67,6.54-.63,12.14-19.5,12.65-25.35C396.78,173.41,394.33,172.52,392.33,172.71ZM424.42,165l-8.22,28.14a11.34,11.34,0,0,0-.62,2.63c-0.16,1.78.62,2.92,3.73,2.62,1.84-.18,4.12-1.84,6.35-3.83L434.48,164,446,162.9l-13.82,48c-3.4,11.83-10.46,14.68-15.72,15.18-4.87.47-9.11-2.59-8.66-7.86,0.66-7.55,7.08-10.49,14.86-13.49l1.68-5.71c-3.88,3.67-8.2,7-11.4,7.28-6.22.6-9.66-1.81-9.13-7.9a21.66,21.66,0,0,1,.84-4.18l8-28.12ZM415.29,219c1.6-.15,3.88-1.9,5.26-6.78l1.37-4.88c-5.18,2.18-9.21,4.9-9.59,9.28A2.59,2.59,0,0,0,415.29,219Zm72.07-54.36c0.17-1.95-1-2.64-2.71-2.48-6.7.64-12.16,14.28-12.92,23-0.42,4.79.2,8.59,5.07,8.12,5.67-.54,10.51-4.38,14.55-9l2.71-.26c-4.21,4.75-9.4,15.3-23.53,16.65-6.62.63-10.61-2.69-9.78-12.26,1-11.85,7.42-28,22.9-29.46,4.31-.41,8.68.3,8.29,4.76a9.23,9.23,0,0,1-.63,2.72,3.36,3.36,0,0,0-2-.3,9.7,9.7,0,0,0-2.6.73A10.14,10.14,0,0,0,487.37,164.66Zm35.45,18.25a12.66,12.66,0,0,0-.62,2.63c-0.16,1.78.62,2.92,3.73,2.62s7.74-5.25,11.15-8.15l2.71-.26c-4,4.08-14,15.74-20.18,16.33s-9.66-1.81-9.13-7.9a21.66,21.66,0,0,1,.84-4.18l4.3-14.89a10.89,10.89,0,0,0,.42-2.13c0.25-2.92-1.1-4.64-3.26-4.44a9.48,9.48,0,0,0-5.1,2.18L498,198.16l-11.49,1.1L502.87,143l12-2.75-6.09,20.94c3.48-2.67,7.32-5,10.75-5.29,4.31-.41,8.77,3.83,8.3,9.26a8.55,8.55,0,0,1-.33,2Zm38.86-20a2.65,2.65,0,0,0,2.25.51c3.75-.36,5.67-3.28,8.72-4.78l0.17,1.67A28.24,28.24,0,0,1,561,168.49c-2.93,16.45-12.33,25.32-20.31,26.08-8.54.82-11.89-2.48-11.05-12.14,1.73-20,12.46-29.51,23.47-30.56C560.64,151.14,562,157,561.68,162.87Zm-6.7,7c-2.31.22-3.2-1.38-3-3.33a7.64,7.64,0,0,1,4-6c0-2.65-.75-4.11-3-3.9-7.5.72-12.13,17.57-12.7,24.06-0.42,4.87,1.7,6,4.81,5.65C549.95,185.87,553.34,177.83,555,169.86Zm33.5-36.67-13,44.69a16.39,16.39,0,0,0-.62,2.63c-0.16,1.78.62,2.92,3.73,2.62s7.74-5.25,11.15-8.15l2.71-.26c-4,4.08-14,15.74-20.18,16.33s-9.66-1.81-9.13-7.9A22.33,22.33,0,0,1,564,179l12.52-43Zm12.33,49.35c3.91-.37,11-5.72,14.34-12l3.59-.34c-5.27,8.79-13.65,17.72-23.94,18.7-7.66.73-11.3-4.79-10.69-11.77,0.9-10.3,6.78-28.81,21.3-30.2,6.54-.63,10,1.78,9.48,7.46-0.86,9.9-11.81,16.58-19.47,18.27a31.3,31.3,0,0,0-.54,3.51C594.41,181.54,597.7,182.83,600.81,182.54ZM607.67,151c-4.47.43-8.94,9.95-11.28,17.73,7.35-.78,13.09-7.69,13.67-13.46C610.22,153.56,610.06,150.76,607.67,151Zm26.09-6-1.23,4.14c3.07-2.55,6.42-4.64,9.77-5,3.59-.34,5.56,1.56,5.29,4.64-0.25,2.84-2.62,6.53-6.54,6.9-4.47.43-1.77-5.14-4.16-4.91s-3.75,1.24-5.73,3.12l-9.39,32.44-11.49,1.1,12-41.37Zm41.66,23.37a12.65,12.65,0,0,0-.64,2.8c-0.15,1.7.38,2.94,2.61,2.73a6.83,6.83,0,0,0,2.1-.44c-2.84,7.19-6.23,8-8.95,8.26-4.63.44-6.89-1.75-7.36-5.41-2.68,3.56-6.56,7.22-11.43,7.69-7.66.73-9.42-4.57-9-9.36,1.21-14,7.61-31.14,23.57-32.67a7.29,7.29,0,0,1,5.17,1.52l0.66-2.16,11.41-1.09Zm-5.07-20.84a5,5,0,0,0-3.78-1.09c-6,.57-11.89,13.93-12.85,25-0.42,4.87,2.13,5.51,4.13,5.32,1.84-.18,3.75-2.21,5.55-4.63a11.34,11.34,0,0,1,.62-2.63Z" transform="translate(-61.7 -14.93)"/><g class="cls-33"><g class="cls-34"><polygon class="cls-35" points="30.04 63.82 106.33 56.52 98.38 147.99 22.09 155.29 30.04 63.82"/></g></g><g class="cls-36"><g class="cls-37"><polygon class="cls-35" points="100.14 57.27 146.72 52.81 139.03 141.29 92.44 145.75 100.14 57.27"/></g></g><g class="cls-38"><g class="cls-39"><polygon class="cls-35" points="139.16 51.68 226.82 43.29 218.63 137.56 130.97 145.94 139.16 51.68"/></g></g><g class="cls-40"><g class="cls-41"><polygon class="cls-35" points="224.28 44.75 304.6 37.07 296.58 129.42 216.25 137.1 224.28 44.75"/></g></g><g class="cls-42"><g class="cls-43"><polygon class="cls-35" points="302.22 37.3 382.55 29.61 374.52 121.96 294.19 129.65 302.22 37.3"/></g></g><g class="cls-44"><g class="cls-45"><polygon class="cls-35" points="380.17 26.75 466.44 18.49 458.1 114.51 371.82 122.76 380.17 26.75"/></g></g><g class="cls-46"><g class="cls-47"><polygon class="cls-35" points="459.93 22.15 534.88 14.98 527.05 105.08 452.1 112.26 459.93 22.15"/></g></g><g class="cls-48"><g class="cls-49"><polygon class="cls-35" points="528.89 13.97 599.77 7.19 591.68 100.28 520.8 107.06 528.89 13.97"/></g></g><g class="cls-50"><g class="cls-51"><polygon class="cls-35" points="591.81 8.39 679.47 0 671.28 94.26 583.62 102.65 591.81 8.39"/></g></g><g class="cls-52"><g class="cls-53"><polygon class="cls-54" points="79.07 325.64 179.46 316.04 169.75 427.76 69.36 437.37 79.07 325.64"/></g></g><g class="cls-55"><g class="cls-56"><polygon class="cls-57" points="171.89 320.3 259.1 311.95 249.99 416.8 162.77 425.14 171.89 320.3"/></g></g><g class="cls-58"><g class="cls-59"><polygon class="cls-57" points="252.13 313.43 328.61 306.12 319.47 411.21 243 418.53 252.13 313.43"/></g></g><g class="cls-60"><g class="cls-61"><polygon class="cls-57" points="325.35 306.43 379.56 301.24 370.62 404.21 316.4 409.39 325.35 306.43"/></g></g><g class="cls-62"><g class="cls-63"><polygon class="cls-57" points="370.77 301.91 459.54 293.42 450.29 399.86 361.52 408.36 370.77 301.91"/></g></g><g class="cls-64"><g class="cls-65"><polygon class="cls-57" points="451.01 292.26 553.01 282.5 543.48 392.19 441.48 401.95 451.01 292.26"/></g></g><g class="cls-66"><g class="cls-67"><polygon class="cls-57" points="538.73 281.95 636.08 272.63 626.56 382.08 529.21 391.4 538.73 281.95"/></g></g><g class="cls-28"><path class="cls-68" d="M92.13,279.89c0.17-1.95-1-2.64-2.71-2.48-6.7.64-12.16,14.28-12.92,23-0.42,4.79.2,8.59,5.07,8.12,5.67-.54,10.51-4.38,14.55-9l2.71-.26c-4.21,4.75-9.4,15.3-23.53,16.65-6.62.63-10.61-2.69-9.78-12.26,1-11.85,7.42-28,22.9-29.46,4.31-.41,8.68.3,8.29,4.76a9.23,9.23,0,0,1-.63,2.72,3.36,3.36,0,0,0-2-.3,9.7,9.7,0,0,0-2.6.73A10.14,10.14,0,0,0,92.13,279.89Zm42.64-9.79-8.14,28.13a16.9,16.9,0,0,0-.54,2.55c-0.16,1.78.53,3,3.72,2.7s7.74-5.25,11.15-8.15l2.71-.26c-4,4.08-14,15.74-20.18,16.33-5.19.5-8.53-1.12-9.2-5.24-2.68,3.56-6.56,7.22-11.43,7.69-7.66.73-9.42-4.57-9-9.36,1.21-14,7.61-31.14,23.57-32.67a7.29,7.29,0,0,1,5.17,1.52l0.66-2.16Zm-29.93,31.18c-0.42,4.87,2.13,5.51,4.13,5.32,1.84-.18,3.75-2.13,5.46-4.54a21.39,21.39,0,0,1,.71-2.72l6.34-21.93a5,5,0,0,0-3.78-1.09C111.71,276.9,105.8,290.25,104.84,301.29Zm58.25,6.34c-5.19.5-7.9-2-7.37-8.07a21.66,21.66,0,0,1,.84-4.18l4.3-14.89a10.89,10.89,0,0,0,.42-2.13c0.25-2.92-1.1-4.64-3.26-4.44a9.93,9.93,0,0,0-5.18,2.18l-9.63,33.43-11.49,1.1,12-41.37,11.49-1.1-1.34,4.47c3.48-2.75,7.32-5,10.83-5.38,4.39-.42,8.77,3.83,8.29,9.35a15.71,15.71,0,0,1-.32,1.88c-0.63,2.72-5.3,17.32-5.46,19.11-0.12,1.38.42,2.45,2.73,2.23a6.83,6.83,0,0,0,2.1-.44C169.2,306.56,165.8,307.36,163.09,307.62Zm48.38-44.86-1.23,4.14c3.07-2.55,6.42-4.64,9.77-5,3.59-.34,5.56,1.56,5.29,4.64-0.25,2.84-2.62,6.53-6.54,6.9-4.47.43-1.77-5.14-4.16-4.91s-3.75,1.24-5.73,3.12l-9.39,32.44L188,305.24l12-41.37Zm26.66,31.89c3.91-.37,11-5.72,14.34-12l3.59-.34c-5.27,8.79-13.65,17.72-23.94,18.7-7.66.73-11.3-4.79-10.69-11.77,0.9-10.3,6.78-28.81,21.3-30.2,6.54-.63,10,1.78,9.48,7.46-0.86,9.9-11.81,16.58-19.47,18.27a31.31,31.31,0,0,0-.54,3.51C231.73,293.66,235,295,238.13,294.65ZM245,263.1c-4.47.43-8.94,9.95-11.28,17.73,7.35-.78,13.09-7.69,13.67-13.46C247.53,265.67,247.38,262.87,245,263.1Zm46.2-8L283,283.28a16.9,16.9,0,0,0-.54,2.55c-0.16,1.78.53,3,3.72,2.7s7.74-5.25,11.15-8.15l2.71-.26c-4,4.08-14,15.74-20.18,16.33-5.19.5-8.53-1.12-9.2-5.24-2.68,3.56-6.56,7.22-11.43,7.69-7.66.73-9.42-4.57-9-9.36,1.21-14,7.61-31.14,23.57-32.67A7.29,7.29,0,0,1,279,258.4l0.66-2.16Zm-29.93,31.18c-0.42,4.87,2.13,5.51,4.13,5.32,1.84-.18,3.75-2.13,5.46-4.54a21.39,21.39,0,0,1,.71-2.72l6.34-21.93a5,5,0,0,0-3.78-1.09C268.12,261.94,262.21,275.29,261.25,286.33Zm55.37-49.71-13,44.69a16.38,16.38,0,0,0-.62,2.63c-0.16,1.78.62,2.92,3.73,2.62s7.74-5.25,11.15-8.15l2.71-.26c-4,4.08-14,15.74-20.18,16.33s-9.66-1.81-9.13-7.9a22.33,22.33,0,0,1,.84-4.18l12.52-43Zm22.82-2.18-13,44.69a16.38,16.38,0,0,0-.62,2.63c-0.16,1.78.62,2.92,3.73,2.62s7.74-5.25,11.15-8.15l2.71-.26c-4,4.08-14,15.74-20.18,16.33s-9.66-1.81-9.13-7.9a22.33,22.33,0,0,1,.84-4.18l12.52-43Zm17.5,14.42L348.73,277a11.34,11.34,0,0,0-.62,2.63c-0.16,1.78.62,2.92,3.73,2.62,1.84-.18,4.12-1.84,6.35-3.83L367,247.89l11.57-1.11-13.82,48C361.35,306.6,354.29,309.45,349,310c-4.87.47-9.11-2.59-8.66-7.86,0.66-7.55,7.08-10.49,14.86-13.49l1.68-5.71c-3.88,3.67-8.2,7-11.4,7.28-6.22.6-9.66-1.81-9.13-7.9a21.66,21.66,0,0,1,.84-4.18l8-28.12Zm-9.13,54.05c1.6-.15,3.88-1.9,5.26-6.78l1.37-4.88c-5.18,2.18-9.21,4.9-9.59,9.28A2.59,2.59,0,0,0,347.82,302.91Zm97.71-35.17a14.12,14.12,0,0,0-.66,3c-0.16,1.87.43,3.26,3,3,3.19-.31,7-5.41,9.1-9.08l3.75-.36c-4.05,4.73-12.15,16-18.38,16.56s-9.66-1.81-9.13-7.9a21.66,21.66,0,0,1,.84-4.18l4.3-14.89a10.89,10.89,0,0,0,.42-2.13c0.25-2.92-1.1-4.64-3.26-4.44a9.47,9.47,0,0,0-4.76,1.9,11,11,0,0,1,.15,2.8,13.18,13.18,0,0,1-.31,1.72l-8.38,29-11.57,1.11,8.14-28.13a10.89,10.89,0,0,0,.42-2.13c0.25-2.92-1.1-4.64-3.26-4.44a9.23,9.23,0,0,0-5,2.17l-9.71,33.43-11.49,1.1,12-41.37,11.49-1.1L412,247.86c3.4-2.66,7.24-5,10.67-5.28a7.81,7.81,0,0,1,7.44,4.6c3.76-3.18,8.21-6.09,12.12-6.47,4.39-.42,8.77,3.83,8.29,9.35a15.71,15.71,0,0,1-.32,1.88Zm23.4,4.84c3-.29,5.94-2.74,8.57-6.69,0.82-5.79,3.9-9.38,6.88-9.91,3.33-5.55,5.79-12.94,7.69-19.24l11.78-3.54-0.1,1.14c-1.16,13.39,3.91,16.92,3.09,26.42a12.74,12.74,0,0,1-.23,1.71c2.41-2.24,4.59-4.54,5.65-5.77l1.84,2.56c-2.39,2-5.83,5.14-9.26,8.21-2.46,4.66-7.28,8.18-14.7,8.89-7.66.73-11.89-.71-12.71-5.78-3.64,4.53-8,7.77-14.5,8.39-7.66.73-11.3-4.79-10.69-11.77,0.9-10.3,6.78-28.81,21.3-30.2,6.54-.63,10,1.78,9.48,7.46-0.86,9.9-11.81,16.58-19.47,18.27a31.31,31.31,0,0,0-.54,3.51C462.53,271.58,465.82,272.88,468.93,272.58ZM475.79,241c-4.47.43-8.94,9.95-11.28,17.73,7.35-.78,13.09-7.69,13.67-13.46C478.34,243.6,478.18,240.8,475.79,241Zm8.59,25a5.63,5.63,0,0,1-2.81-.46c-0.42,4.79,2,6.65,6.18,6.25,2.71-.26,6.92-4,7.46-10.29,0.44-5-2.78-9-2.06-19.11-1.62,4.1-3.19,9.4-5.3,13.62,1.86,0.47,2.45,1.86,2.24,4.29A6.46,6.46,0,0,1,484.38,266Zm50.9-35.68-0.1,1.14c-1.16,13.39,4.32,16.72,3.5,26.22-0.66,7.55-5.94,14.57-16.71,15.6-9.18.88-13.41-1.37-12.72-9.32,0.56-6.41,3.75-10.42,7-11,3.17-5.53,5.39-12.83,7.28-19.12ZM516.22,263a5.63,5.63,0,0,1-2.81-.46c-0.42,4.79,2,6.65,6.18,6.25,2.71-.26,6.92-4,7.46-10.29,0.44-5-2.78-9-2.06-19.11-1.62,4.1-3.19,9.4-5.3,13.62,1.86,0.47,2.45,1.86,2.24,4.29A6.52,6.52,0,0,1,516.22,263Zm95.85-32.9c-1.1,12.66-9.34,35.49-25.46,37-5.43.52-8.75-1.25-9.15-5.8-4.05,3.85-8.65,7.5-12,7.82-6.14.59-9.74-1.8-9.21-7.89a22.33,22.33,0,0,1,.84-4.18l8.14-28.13,11.49-1.1L568.59,256a16.9,16.9,0,0,0-.54,2.55c-0.16,1.78.53,3,3.72,2.7,1.68-.16,3.78-1.57,5.83-3.37a13.31,13.31,0,0,1,.64-2.8l8.14-28.13,11.49-1.1-8.14,28.13a16.22,16.22,0,0,0-.66,3c-0.13,1.54.49,2.53,2.81,2.31,7.82-.75,14.71-19,15.48-27.87a6.9,6.9,0,0,1-1.7.48c-2.31.22-3.15-2-3-4.22,0.15-1.7,2.26-4.16,4.89-4.41C611,222.94,612.44,225.87,612.08,230.09ZM631,222.64l-8.14,28.13a16.89,16.89,0,0,0-.54,2.55c-0.16,1.78.53,3,3.72,2.7s7.74-5.25,11.15-8.15l2.71-.26c-4,4.08-14,15.74-20.18,16.33s-9.74-1.8-9.21-7.89a22.34,22.34,0,0,1,.84-4.18l8.14-28.13Zm-2.18-16.85a5.2,5.2,0,0,1,5.82,5.88,8,8,0,0,1-6.94,7,5.1,5.1,0,0,1-5.75-5.81A8,8,0,0,1,628.83,205.79Zm28.43,1.63s-1.68,5.63-3.83,13.08l4.79-.46-0.92,3.31-4.79.46c-7.73,26.16-7.72,27-7.76,27.37-0.16,1.87.53,3,3.72,2.7s7.74-5.25,11.15-8.15l2.71-.26c-4,4.08-14,15.74-20.18,16.33s-9.66-1.81-9.13-7.9c0.37-4.3,6-21.9,8-29l-2.63.25,0.92-3.31,2.63-.25,3.37-11.42Zm26.33,50.42c-5.67.54-7.81-3-7.36-8.15a19.66,19.66,0,0,1,.83-4.1l4.3-14.89a14.45,14.45,0,0,0,.32-1.88c0.23-2.6-.68-4.92-3.15-4.69a9.3,9.3,0,0,0-5.18,2.27l-9.7,33.35-11.49,1.1,16.37-56.28,12-2.75-6.1,21c3.48-2.75,7.32-5,10.83-5.38,4.47-.43,8.75,4.07,8.28,9.43a7.23,7.23,0,0,1-.31,1.8l-4.62,15.81a18.32,18.32,0,0,0-.93,3.39c-0.12,1.38.43,2.37,2.82,2.14a6.83,6.83,0,0,0,2.1-.44C689.69,256.77,686.3,257.58,683.59,257.84Zm60.34-18.64a12.65,12.65,0,0,0-.64,2.8c-0.15,1.7.38,2.94,2.61,2.73a6.83,6.83,0,0,0,2.1-.44c-2.84,7.19-6.23,8-8.95,8.26-4.63.44-6.89-1.75-7.36-5.41-2.68,3.56-6.56,7.22-11.43,7.69-7.66.73-9.42-4.57-9-9.36,1.21-14,7.61-31.14,23.57-32.67a7.29,7.29,0,0,1,5.17,1.52l0.66-2.16,11.41-1.09Zm-5.07-20.84a5,5,0,0,0-3.78-1.09c-6,.57-11.89,13.93-12.85,25-0.42,4.87,2.13,5.51,4.13,5.32,1.84-.18,3.75-2.21,5.55-4.63a11.34,11.34,0,0,1,.62-2.63Z" transform="translate(-61.7 -14.93)"/></g><path class="cls-68" d="M175.11,192.06c0.17-1.95-1-2.64-2.71-2.48-6.7.64-12.16,14.28-12.92,23-0.42,4.79.2,8.59,5.07,8.12,5.67-.54,10.51-4.38,14.55-9l2.71-.26c-4.21,4.75-9.4,15.3-23.53,16.65-6.62.63-10.61-2.69-9.78-12.26,1-11.85,7.42-28,22.9-29.46,4.31-.41,8.68.3,8.29,4.76a9.23,9.23,0,0,1-.63,2.72,3.36,3.36,0,0,0-2-.3,9.7,9.7,0,0,0-2.6.73A10.14,10.14,0,0,0,175.11,192.06Zm42.64-9.79-8.14,28.13a16.89,16.89,0,0,0-.54,2.55c-0.16,1.78.53,3,3.72,2.7s7.74-5.25,11.15-8.15l2.71-.26c-4,4.08-14,15.74-20.18,16.33-5.19.5-8.53-1.12-9.2-5.24-2.68,3.56-6.56,7.22-11.43,7.69-7.66.73-9.42-4.57-9-9.36,1.21-14,7.61-31.14,23.57-32.67a7.29,7.29,0,0,1,5.17,1.52l0.66-2.16Zm-29.93,31.18c-0.42,4.87,2.13,5.51,4.13,5.32,1.84-.18,3.75-2.13,5.46-4.54a21.39,21.39,0,0,1,.71-2.72l6.34-21.93a5,5,0,0,0-3.78-1.09C194.68,189.06,188.78,202.42,187.82,213.45ZM259,178.32l-8.14,28.13a16.89,16.89,0,0,0-.54,2.55c-0.16,1.78.53,3,3.72,2.7s7.74-5.25,11.15-8.15l2.71-.26c-4,4.08-14,15.74-20.18,16.33-5.43.52-8.91-1.24-9.22-5.88-4.06,3.93-8.65,7.59-12.08,7.91-6.14.59-9.74-1.8-9.21-7.89a22.33,22.33,0,0,1,.84-4.18l8.14-28.13,11.49-1.1-8.14,28.13A16.89,16.89,0,0,0,229,211c-0.16,1.78.53,3,3.72,2.7,1.68-.16,3.78-1.65,5.92-3.46a21.39,21.39,0,0,1,.71-2.72l8.14-28.13Zm26-4.1-0.1,1.14c-1.16,13.39,3.91,16.92,3.09,26.42a12.74,12.74,0,0,1-.23,1.71c2.41-2.24,4.59-4.54,5.65-5.77l1.84,2.56c-2.39,2-5.83,5.14-9.26,8.21-2.46,4.66-7.28,8.18-14.7,8.89-9.18.88-13.41-1.37-12.72-9.32,0.56-6.49,3.76-10.5,7-11,3.33-5.55,5.79-12.94,7.69-19.24Zm-19.47,32.84a5.63,5.63,0,0,1-2.81-.46c-0.42,4.79,2,6.65,6.18,6.25,2.71-.26,6.92-4,7.46-10.29,0.44-5-2.78-9-2.06-19.11-1.62,4.1-3.19,9.4-5.3,13.62,1.86,0.47,2.45,1.86,2.24,4.29A6.46,6.46,0,0,1,265.54,207.07Zm42.88,1c3.91-.37,11-5.72,14.34-12l3.59-.34c-5.27,8.79-13.65,17.72-23.94,18.7-7.66.73-11.3-4.79-10.69-11.77,0.9-10.3,6.78-28.81,21.3-30.2,6.54-.63,10,1.78,9.48,7.46-0.86,9.9-11.81,16.58-19.47,18.27a31.31,31.31,0,0,0-.54,3.51C302,207,305.31,208.33,308.42,208Zm6.86-31.55c-4.47.43-8.94,9.95-11.28,17.73,7.35-.78,13.09-7.69,13.67-13.46C317.82,179.05,317.67,176.25,315.28,176.48Zm37.1,20.27a12.65,12.65,0,0,0-.64,2.8c-0.15,1.7.38,2.94,2.61,2.73a6.83,6.83,0,0,0,2.1-.44c-2.84,7.19-6.23,8-8.95,8.26-4.63.44-6.89-1.75-7.37-5.33-2.68,3.56-6.56,7.14-11.34,7.6-7.66.73-9.42-4.57-9-9.36,1.21-14,7.61-31.14,23.57-32.67a7.7,7.7,0,0,1,5.17,1.52l5-17,11.87-2.74Zm-21.63,3c-0.42,4.87,2.13,5.51,4.13,5.32,1.84-.18,3.67-2.12,5.37-4.46a20.31,20.31,0,0,1,.72-2.8l6.42-22a5.36,5.36,0,0,0-3.79-1C337.61,175.39,331.7,188.75,330.74,199.78Zm68.93-51-5.43,18.78a13.7,13.7,0,0,1,7.07-3c7.66-.73,9.66,4.55,9.24,9.33-1.11,12.74-9.53,31.32-23.81,32.69-7.9.76-13-1-12.36-8a20.8,20.8,0,0,1,.82-4l12.52-43Zm-2.14,21a13.6,13.6,0,0,0-4.41,1.55l-6.44,22.18a27,27,0,0,0-1,4.52c-0.21,2.43.86,2.9,3.25,2.67,6.54-.63,12.14-19.5,12.65-25.35C402,170.44,399.54,169.55,397.54,169.74ZM429.63,162l-8.22,28.14a11.34,11.34,0,0,0-.62,2.63c-0.16,1.78.62,2.92,3.73,2.62,1.84-.18,4.12-1.84,6.35-3.83L439.69,161l11.57-1.11-13.82,48C434,219.75,427,222.6,421.71,223.1c-4.87.47-9.11-2.59-8.66-7.86,0.66-7.55,7.08-10.49,14.86-13.49L429.6,196c-3.88,3.67-8.2,7-11.4,7.28-6.22.6-9.66-1.81-9.13-7.9a21.66,21.66,0,0,1,.84-4.18l8-28.12Zm-9.13,54.05c1.6-.15,3.88-1.9,5.26-6.78l1.37-4.88c-5.18,2.18-9.21,4.9-9.59,9.28A2.59,2.59,0,0,0,420.5,216.06Zm72.07-54.36c0.17-1.95-1-2.64-2.71-2.48-6.7.64-12.16,14.28-12.92,23-0.42,4.79.2,8.59,5.07,8.12,5.67-.54,10.51-4.38,14.55-9l2.71-.26c-4.21,4.75-9.4,15.3-23.53,16.65-6.62.63-10.61-2.69-9.78-12.26,1-11.85,7.42-28,22.9-29.46,4.31-.41,8.68.3,8.29,4.76a9.23,9.23,0,0,1-.63,2.72,3.36,3.36,0,0,0-2-.3,9.7,9.7,0,0,0-2.6.73A10.14,10.14,0,0,0,492.58,161.7ZM528,179.95a12.66,12.66,0,0,0-.62,2.63c-0.16,1.78.62,2.92,3.73,2.62s7.74-5.25,11.15-8.15l2.71-.26c-4,4.08-14,15.74-20.18,16.33s-9.66-1.81-9.13-7.9a21.66,21.66,0,0,1,.84-4.18l4.3-14.89a10.89,10.89,0,0,0,.42-2.13c0.25-2.92-1.1-4.64-3.26-4.44a9.48,9.48,0,0,0-5.1,2.18L503.2,195.2l-11.49,1.1L508.07,140l12-2.75-6.09,20.94c3.48-2.67,7.32-5,10.75-5.29,4.31-.41,8.77,3.83,8.3,9.26a8.55,8.55,0,0,1-.33,2Zm38.86-20a2.65,2.65,0,0,0,2.25.51c3.75-.36,5.67-3.28,8.72-4.78l0.17,1.67a28.24,28.24,0,0,1-11.87,8.22c-2.93,16.45-12.33,25.32-20.31,26.08-8.54.82-11.89-2.48-11.05-12.14,1.73-20,12.46-29.51,23.47-30.56C565.85,148.17,567.25,154,566.89,159.9Zm-6.7,7c-2.31.22-3.2-1.38-3-3.33a7.64,7.64,0,0,1,4-6c0-2.65-.75-4.11-3-3.9-7.5.72-12.13,17.57-12.7,24.06-0.42,4.87,1.7,6,4.81,5.65C555.16,182.91,558.55,174.86,560.19,166.9Zm33.5-36.67-13,44.69a16.38,16.38,0,0,0-.62,2.63c-0.16,1.78.62,2.92,3.73,2.62s7.74-5.25,11.15-8.15l2.71-.26c-4,4.08-14,15.74-20.18,16.33s-9.66-1.81-9.13-7.9a22.33,22.33,0,0,1,.84-4.18l12.52-43ZM606,179.57c3.91-.37,11-5.72,14.34-12l3.59-.34C618.68,176,610.3,185,600,185.94c-7.66.73-11.3-4.79-10.69-11.77,0.9-10.3,6.78-28.81,21.3-30.2,6.54-.63,10,1.78,9.48,7.46-0.86,9.9-11.81,16.58-19.47,18.27a31.3,31.3,0,0,0-.54,3.51C599.62,178.57,602.91,179.87,606,179.57ZM612.88,148c-4.47.43-8.94,9.95-11.28,17.73,7.35-.78,13.09-7.69,13.67-13.46C615.42,150.59,615.27,147.79,612.88,148ZM639,142l-1.23,4.14c3.07-2.55,6.42-4.64,9.77-5,3.59-.34,5.56,1.56,5.29,4.64-0.25,2.84-2.62,6.53-6.54,6.9-4.47.43-1.77-5.14-4.16-4.91s-3.75,1.24-5.73,3.12L627,183.36l-11.49,1.1,12-41.37Zm41.66,23.37a12.65,12.65,0,0,0-.64,2.8c-0.15,1.7.38,2.94,2.61,2.73a6.83,6.83,0,0,0,2.1-.44c-2.84,7.19-6.23,8-8.95,8.26-4.63.44-6.89-1.75-7.36-5.41-2.68,3.56-6.56,7.22-11.43,7.69-7.66.73-9.42-4.57-9-9.36,1.21-14,7.61-31.14,23.57-32.67a7.29,7.29,0,0,1,5.17,1.52l0.66-2.16,11.41-1.09Zm-5.07-20.84a5,5,0,0,0-3.78-1.09c-6,.57-11.89,13.93-12.85,25-0.42,4.87,2.13,5.51,4.13,5.32,1.84-.18,3.75-2.21,5.55-4.63a11.34,11.34,0,0,1,.62-2.63Z" transform="translate(-61.7 -14.93)"/></g></g></g></g></g><g class="cls-24"><g class="cls-69"><path class="cls-70" d="M697.09,306a5.72,5.72,0,0,0,2.85.75,3.84,3.84,0,0,0,3.58-3.32c0.2-1.6-.81-2.62-2.7-2.52l-1.45.08,0.2-1.62,0.8,0c2.43-.13,3.78-1.34,4-3s-0.82-2.5-2.45-2.42a7,7,0,0,0-3,1l0-1.83a9,9,0,0,1,3.49-.83c2.43-.13,4.19,1,3.87,3.66a4.29,4.29,0,0,1-3.33,3.84v0c1.89,0.15,2.78,1.73,2.53,3.71-0.3,2.47-2.23,4.61-5.62,4.78a9.2,9.2,0,0,1-3.25-.41Z" transform="translate(-61.7 -14.93)"/></g></g></g></g></g></g></svg>