<?xml version="1.0" encoding="utf-8"?>
<!-- Generator: Adobe Illustrator 20.0.0, SVG Export Plug-In . SVG Version: 6.00 Build 0)  -->
<svg version="1.1" id="Layer_1" xmlns="http://www.w3.org/2000/svg" xmlns:xlink="http://www.w3.org/1999/xlink" x="0px" y="0px"
	 viewBox="0 0 189.7 1486.3" style="enable-background:new 0 0 189.7 1486.3;" xml:space="preserve">
<style type="text/css">
	.st0{fill:#0D5360;}
	.st1{clip-path:url(#SVGID_2_);}
	.st2{fill:none;stroke:#231F20;stroke-width:3;stroke-linecap:round;stroke-linejoin:round;}
	.st3{clip-path:url(#SVGID_4_);}
	.st4{fill:none;stroke:#646464;stroke-width:3;stroke-linejoin:round;}
	.st5{opacity:0.5;}
	.st6{fill:#1F191A;}
	.st7{fill:#FFFFFF;}
	.st8{clip-path:url(#SVGID_6_);}
	.st9{clip-path:url(#SVGID_8_);}
	.st10{opacity:0.75;}
	.st11{clip-path:url(#SVGID_10_);}
	.st12{fill:#646464;}
</style>
<title>icons</title>
<path id="_Path_" class="st0" d="M142.4,616.3c26-26,26-68.3,0-94.3c-26-26-68.3-26-94.3,0c-26,26-26,68.3,0,94.3l47.2,47.2
	L142.4,616.3z"/>
<g>
	<defs>
		<rect id="SVGID_1_" x="13.3" y="762.2" width="158.8" height="95.7"/>
	</defs>
	<clipPath id="SVGID_2_">
		<use xlink:href="#SVGID_1_"  style="overflow:visible;"/>
	</clipPath>
	<g class="st1">
		<polyline class="st2" points="164.7,803.4 92.5,851.1 20.3,803.4 		"/>
		<polyline class="st2" points="141.5,774.4 92.5,806.5 43.5,774.4 		"/>
	</g>
</g>
<g>
	<defs>
		<rect id="SVGID_3_" x="14.8" y="909.5" width="160.2" height="121"/>
	</defs>
	<clipPath id="SVGID_4_">
		<use xlink:href="#SVGID_3_"  style="overflow:visible;"/>
	</clipPath>
	<g class="st3">
		<path class="st4" d="M92.7,924v100 M92.7,924L92.7,924c0.2-0.1,16.9-16.3,73.7-0.5v100c-57.1-15.9-73.7,0.6-73.7,0.6
			s-16.9-16.5-73.7-0.7v-100C76.1,907.5,92.7,924,92.7,924L92.7,924L92.7,924z"/>
	</g>
</g>
<g id="_Group_">
	<g id="_Group_2" class="st5">
		<g id="_Group_3">
			<path id="_Path_3" class="st6" d="M0.4,172.7L0.4,172.7c-2.4-5.8,6.2-14.9,19.1-20.1L48,141l33.8-80.2c1.3-3.1,4-5.5,7.2-6.5
				l5.2-1.3c6.1-1.2,3.8,4.8,2.6,11l-11.1,53.4l2.9,7.1l35-14.2c4.5-1.7,9-3.2,13.6-4.4l0,0L148,79.6c0.8-1.6,2-3.1,3.4-4.1l4.6-2.2
				c1.2-0.5,2.2,0.9,2.4,2.8l-2.8,26l0,0c7.6-1,13.5-0.8,14.5,1.6l0,0c1,2.4-3.1,6.7-9.1,11.2l19.4,16.1c1.1,1.5,1.4,3.2,0.2,3.7
				l-4.7,1.5c-1.8,0.3-3.6,0.1-5.3-0.5l-25.3-10.8c-4.3,2.5-8.7,4.7-13.2,6.6l-34.9,14.2l2.6,6.3l45.2,30.4
				c5.3,3.6,11.1,6.3,5.9,9.7l-4.6,2.7c-3,1.6-6.6,1.7-9.8,0.4l-79.2-33.3L28,173.8C15.2,179.1,2.8,178.6,0.4,172.7"/>
		</g>
	</g>
	<path id="_Path_4" class="st7" d="M8.6,119.9L8.6,119.9c-2.4-5.8,6.2-14.9,19.1-20.1l28.4-11.6L89.9,8c1.3-3.2,4-5.6,7.3-6.6
		l5.2-1.2c6.1-1.2,3.8,4.8,2.6,11l-11,53.3l2.9,7.1l35-14.2c4.4-1.7,9-3.2,13.6-4.4l0,0l10.9-26.2c0.8-1.6,2-3.1,3.4-4.1l4.5-2.2
		c1.2-0.5,2.2,0.9,2.4,2.8l-2.8,26l0,0c7.6-1,13.5-0.8,14.5,1.6l0,0c1,2.4-3.1,6.7-9.1,11.2l19.5,16.1c1.1,1.5,1.4,3.2,0.2,3.7
		l-4.8,1.6c-1.8,0.3-3.6,0.1-5.3-0.5L153.6,72c-4.3,2.5-8.7,4.7-13.2,6.6l-35,14.2l2.6,6.3l45.2,30.4c5.3,3.6,11.1,6.3,5.9,9.7
		l-4.6,2.7c-3,1.6-6.6,1.7-9.8,0.4l-79.2-33.3L36.3,121C23.4,126.3,11,125.8,8.6,119.9"/>
</g>
<g class="st5">
	<path d="M62.4,1162.7l-2.9,0.9l-0.4,21.8l-9.1,1.7l0.3-20.9c-3.6,1.1-7.2,2.1-10.8,3c-1.5,9.2-1.7,18.5-0.7,23.8
		c0.6,3.2,1.4,2.8,1.6,3.4c-4.4,0.6-8.6,1.3-9.9-5.4c-0.8-4.2,0-11.9,2.3-20.2l-3.2,0.6c-8,1.6-12-0.9-12.5-3.6
		c-1-5.1,6.8-7.2,9.8-7.8c3.1-0.6,6.4-0.7,9.5-0.3c4.5-11.3,10.9-21.4,18.3-22.8c1.7-0.3,3.5-0.3,5.2,0l-0.5,24.3l2.8-0.9
		L62.4,1162.7L62.4,1162.7L62.4,1162.7z M29.7,1161.6c-4.9,1-7.7,2.7-7.3,4.7c0.3,1.8,3.3,3,8.8,2l2.5-0.5c0.7-2.1,1.4-4.2,2.1-6.3
		C33.8,1161.2,31.7,1161.3,29.7,1161.6L29.7,1161.6L29.7,1161.6z M40.1,1166.5c3-0.7,6-1.4,9-2.2c-2.7-0.8-5.4-1.5-8.2-2.1
		L40.1,1166.5z M49.7,1163.4l0.7,0.3l0.4-21.4c-4.1,2.8-7.3,10.2-9.4,18.5C44,1161.5,46.7,1162.4,49.7,1163.4L49.7,1163.4
		L49.7,1163.4z"/>
	<path d="M82,1141.6c0-0.6-0.1-1.2-0.2-1.7c-0.2-1.2-1.4-2-2.6-1.8l-0.2,0.1c-1.4,0.3-3.4,1.6-3.4,6.1l-0.1,5.2l4.6-0.9v2.6
		l-4.7,0.9l-0.6,35.6c-0.2,9.4-5.1,12.2-9.2,13c-3.9,0.8-8-1.3-8.8-5.4c-1.1-5.8,3.4-8.6,9-11.6l0.6-37.7c0.1-9.4,5.2-12.2,9.4-13
		c3.9-0.8,8,1.3,8.8,5.4c0.2,0.9,0.3,1.7,0.3,2.6L82,1141.6z M63,1195.3c1.3-0.3,2.6-1.7,2.7-5.6l0.1-3.8c-3.7,2.1-6.4,4.4-5.7,7.9
		C60.6,1194.8,61.8,1195.5,63,1195.3L63,1195.3z"/>
	<path d="M92.6,1146.1l-0.1,3.3c1.9-2.2,4.2-4.1,6.8-4.6c2.8-0.6,4.9,0.8,5.3,3.2c0.6,2.7-1.1,5.3-3.8,5.9c-3.5,0.7-2.6-3.8-4.5-3.5
		s-2.8,1.3-4,2.9L92,1179l-9.1,1.8l0.6-33L92.6,1146.1z"/>
	<path d="M112,1128.4c2.8-0.4,5.4,1.5,5.9,4.3c0.4,2.7-1.3,5.2-3.9,5.8l0,0c-2.7,0.6-5.4-1.2-6-3.9c0,0,0,0,0,0v-0.1
		C107.3,1131.7,109.1,1129,112,1128.4C111.9,1128.4,111.9,1128.4,112,1128.4L112,1128.4z M117.5,1141.2l-0.4,22.4c0,0.7,0,1.3,0.1,2
		c0.3,1.4,1.1,2.3,3.6,1.8s5.1-4.7,7.3-7.2l2.1-0.4c-2.4,3.5-7.9,13.3-12.8,14.2s-8.3-0.6-9.2-5.4c-0.2-1.1-0.3-2.2-0.2-3.3
		l0.4-22.4L117.5,1141.2z"/>
	<path d="M139.4,1141.7c-0.1-1.1-1-1.9-2.1-1.8c-0.2,0-0.4,0.1-0.6,0.1c-5.3,1-6.7,12-5.4,18.8c0.7,3.7,2.1,6.6,5.9,5.9
		c4.5-0.9,7.6-4.2,9.9-8.1l2.1-0.4c-2.4,4-4.2,12.6-15.5,14.8c-5.2,1-9.2-1.2-10.7-8.7c-1.8-9.2-0.2-22.2,12.1-24.6
		c3.4-0.7,7.1-0.5,7.8,3c0.1,0.7,0.2,1.4,0.1,2.2c-0.5-0.2-1.1-0.2-1.7-0.1c-0.7,0.2-1.4,0.4-2,0.8
		C139.5,1142.9,139.5,1142.3,139.4,1141.7z"/>
	<path d="M171.3,1153.2c-0.1,0.7,0,1.5,0.1,2.2c0,1.1,1,2,2.2,2c0.2,0,0.4,0,0.6-0.1c0.6-0.1,1.1-0.3,1.6-0.5
		c-0.7,5.8-3.3,6.7-5.4,7.1c-3.7,0.7-6-0.8-7.2-3.6c-1.4,3-3.7,6.1-7.6,6.9c-6.1,1.2-8.7-2.8-9.4-6.5c-2.1-10.9-0.7-24.7,11.9-27.2
		c1.6-0.3,3.2,0,4.6,0.8l0.1-1.7l9.1-1.8L171.3,1153.2z M162.5,1137.5c-1-0.6-2.2-0.8-3.3-0.5c-4.8,0.9-6.6,11.7-4.9,20.3
		c0.7,3.8,3,4.1,4.5,3.8s2.6-2,3.5-4c-0.1-0.7-0.1-1.4-0.1-2.1L162.5,1137.5z"/>
</g>
<path class="st7" d="M55.4,1155.7l-2.9,0.9l-0.4,21.8l-9.1,1.7l0.3-20.9c-3.6,1.1-7.2,2.1-10.8,3c-1.5,9.2-1.7,18.5-0.7,23.8
	c0.6,3.2,1.4,2.8,1.6,3.4c-4.4,0.6-8.6,1.3-9.9-5.4c-0.8-4.2,0-11.9,2.3-20.2l-3.2,0.6c-8,1.6-12-0.9-12.5-3.6
	c-1-5.1,6.8-7.2,9.8-7.8c3.1-0.6,6.4-0.7,9.5-0.3c4.5-11.3,10.9-21.4,18.3-22.8c1.7-0.3,3.5-0.3,5.2,0l-0.5,24.3l2.8-0.9
	L55.4,1155.7L55.4,1155.7L55.4,1155.7z M22.7,1154.6c-4.9,1-7.7,2.7-7.3,4.7c0.3,1.8,3.3,3,8.8,2l2.5-0.5c0.7-2.1,1.4-4.2,2.1-6.3
	C26.8,1154.2,24.7,1154.3,22.7,1154.6L22.7,1154.6L22.7,1154.6z M33.1,1159.5c3-0.7,6-1.4,9-2.2c-2.7-0.8-5.4-1.5-8.2-2.1
	L33.1,1159.5z M42.7,1156.4l0.7,0.3l0.4-21.4c-4.1,2.8-7.3,10.2-9.4,18.5C37,1154.5,39.7,1155.4,42.7,1156.4L42.7,1156.4
	L42.7,1156.4z"/>
<path class="st7" d="M75,1134.6c0-0.6-0.1-1.2-0.2-1.7c-0.2-1.2-1.4-2-2.6-1.8l-0.2,0.1c-1.4,0.3-3.4,1.6-3.4,6.1l-0.1,5.2l4.6-0.9
	v2.6l-4.7,0.9l-0.6,35.6c-0.2,9.4-5.1,12.2-9.2,13c-3.9,0.8-8-1.3-8.8-5.4c-1.1-5.8,3.4-8.6,9-11.6l0.6-37.7
	c0.1-9.4,5.2-12.2,9.4-13c3.9-0.8,8,1.3,8.8,5.4c0.2,0.9,0.3,1.7,0.3,2.6L75,1134.6z M56,1188.3c1.3-0.3,2.5-1.7,2.7-5.6l0.1-3.8
	c-3.7,2.1-6.4,4.4-5.7,7.9C53.6,1187.8,54.8,1188.5,56,1188.3L56,1188.3z"/>
<path class="st7" d="M85.6,1139.1l-0.1,3.3c1.9-2.2,4.2-4.1,6.8-4.6c2.8-0.6,4.9,0.8,5.3,3.2c0.6,2.7-1.1,5.3-3.8,5.9
	c-3.5,0.7-2.6-3.8-4.5-3.5s-2.8,1.3-4,2.9L85,1172l-9.1,1.8l0.6-33L85.6,1139.1z"/>
<path class="st7" d="M105,1121.4c2.8-0.4,5.4,1.5,5.9,4.3c0.4,2.7-1.3,5.2-3.9,5.8l0,0c-2.7,0.6-5.4-1.2-6-3.9c0,0,0,0,0,0v-0.1
	C100.3,1124.7,102.1,1122,105,1121.4C104.9,1121.4,104.9,1121.4,105,1121.4L105,1121.4z M110.5,1134.2l-0.4,22.4c0,0.7,0,1.3,0.1,2
	c0.3,1.4,1.1,2.3,3.6,1.8s5.1-4.7,7.3-7.2l2.2-0.4c-2.3,3.5-7.9,13.3-12.8,14.2s-8.3-0.6-9.2-5.4c-0.2-1.1-0.3-2.2-0.2-3.3l0.4-22.4
	L110.5,1134.2z"/>
<path class="st7" d="M132.4,1134.7c-0.1-1.1-1-1.9-2.1-1.8c-0.2,0-0.4,0.1-0.6,0.1c-5.3,1-6.7,12-5.4,18.8c0.7,3.7,2.1,6.6,5.9,5.9
	c4.5-0.9,7.6-4.2,9.9-8.1l2.1-0.4c-2.4,4-4.2,12.6-15.5,14.8c-5.2,1-9.2-1.2-10.7-8.7c-1.8-9.2-0.2-22.2,12.1-24.6
	c3.4-0.7,7.1-0.5,7.8,3c0.1,0.7,0.2,1.4,0.1,2.2c-0.5-0.2-1.1-0.2-1.7-0.1c-0.7,0.2-1.4,0.4-2,0.8
	C132.5,1135.9,132.5,1135.3,132.4,1134.7z"/>
<path class="st7" d="M164.3,1146.2c-0.1,0.7,0,1.5,0.1,2.2c0,1.1,1,2,2.2,2c0.2,0,0.4,0,0.6-0.1c0.6-0.1,1.1-0.3,1.6-0.5
	c-0.7,5.8-3.3,6.7-5.4,7.1c-3.7,0.7-6-0.8-7.2-3.6c-1.4,3-3.7,6.1-7.6,6.9c-6.1,1.2-8.7-2.8-9.4-6.5c-2.1-10.9-0.7-24.7,11.9-27.2
	c1.6-0.3,3.2,0,4.6,0.8l0.1-1.7l9.1-1.8L164.3,1146.2z M155.5,1130.5c-1-0.6-2.2-0.8-3.3-0.5c-4.8,0.9-6.6,11.7-4.9,20.3
	c0.7,3.8,3,4.1,4.5,3.8s2.6-2,3.5-4c-0.1-0.7-0.1-1.4-0.1-2.1L155.5,1130.5z"/>
<g class="st5">
	<path d="M51.2,1114.1c-0.1,0.5-0.2,0.9-0.2,1.4c-0.1,0.7,0.4,1.4,1.1,1.6c0.1,0,0.3,0,0.4,0c1.5,0,3.1-2.2,4-3.9h1.8
		c-1.8,2.1-5.2,7-8.2,7s-4.7-1.3-4.7-4.2c0-0.7,0.1-1.3,0.2-1.9l1.5-6.9c0.1-0.3,0.1-0.7,0.1-1c0-1.4-0.7-2.2-1.8-2.2
		c-0.8,0-1.6,0.2-2.2,0.7c0.1,0.4,0.2,0.9,0.2,1.3c0,0.3,0,0.5-0.1,0.8l-2.8,13.4h-5.5l2.7-13c0.1-0.3,0.1-0.7,0.1-1
		c0-1.4-0.7-2.2-1.8-2.2c-0.8,0-1.7,0.3-2.3,0.8l-3.3,15.4h-5.5l4-19.1h5.5l-0.4,2c1.4-1.1,3.1-1.8,4.9-2c1.6,0.1,3,1.1,3.8,2.5
		c1.7-1.3,3.7-2.5,5.6-2.5c2.5,0.3,4.4,2.3,4.4,4.8c0,0.3,0,0.6-0.1,0.9L51.2,1114.1z"/>
	<path d="M73.2,1101.2l-2.7,13c-0.1,0.4-0.1,0.8-0.2,1.2c0,0.8,0.4,1.4,1.9,1.4s3.5-2.1,5-3.3h1.3c-1.8,1.8-6.1,6.8-9,6.8
		c-2.6,0-4.3-1-4.7-3.2c-1.8,1.7-3.8,3.2-5.5,3.2c-2.9,0-4.8-1.3-4.8-4.2c0-0.7,0.1-1.3,0.2-1.9l2.7-13h5.5l-2.7,13
		c-0.1,0.4-0.1,0.8-0.2,1.2c0,0.8,0.4,1.4,1.9,1.4c1-0.2,2-0.6,2.7-1.4c0-0.4,0.1-0.8,0.2-1.3l2.7-13L73.2,1101.2L73.2,1101.2z"/>
	<path d="M86.2,1103.8c0.1-0.7-0.4-1.3-1.1-1.3c-0.1,0-0.2,0-0.3,0c-3.2,0-5.3,6.2-5.3,10.3c0,2.2,0.5,4.1,2.8,4.1
		c2.7,0,4.9-1.6,6.6-3.6h1.3c-1.8,2.1-3.9,6.8-10.6,6.8c-3.2,0-5.2-1.8-5.2-6.2c0-5.6,2.4-12.9,9.8-12.9c2.1,0,4.2,0.5,4.2,2.6
		c0,0.4-0.1,0.9-0.2,1.3c-0.3-0.2-0.7-0.3-1-0.2c-0.4,0-0.8,0.1-1.2,0.2C86.1,1104.6,86.2,1104.2,86.2,1103.8z"/>
	<path d="M102,1120.2c-2.7,0-3.9-1.8-3.9-4.2c0-0.6,0.1-1.3,0.2-1.9l1.4-6.9c0-0.3,0.1-0.6,0.1-0.9c0-1.2-0.5-2.4-1.7-2.4
		c-0.9,0-1.7,0.3-2.4,0.8l-3.3,15.4H87l5.5-25.9l5.6-0.8l-2.1,9.7c1.4-1.2,3.2-1.9,5-2.1c2.1,0,4.4,2.3,4.4,4.8c0,0.3,0,0.6-0.1,0.8
		l-1.6,7.3c-0.2,0.5-0.3,1-0.3,1.6c0,0.7,0.3,1.1,1.4,1.1c0.3,0,0.7,0,1-0.1C104.9,1120,103.3,1120.2,102,1120.2z"/>
	<path d="M129.8,1106.3c0.3,0.3,0.7,0.4,1.1,0.3c1.8,0,2.6-1.3,4-1.9l0.1,0.8c-1.4,1.6-3.3,2.8-5.4,3.3c-0.7,7.7-4.9,11.4-8.7,11.4
		c-4.1,0-5.8-1.7-5.8-6.2c0-9.4,4.8-13.4,10-13.4C128.8,1100.8,129.8,1103.6,129.8,1106.3z M126.9,1109.3c-0.9,0-1.6-0.6-1.6-1.5
		c0-0.1,0-0.2,0-0.2c0-1.1,0.6-2.2,1.7-2.6c-0.1-1.3-0.5-2-1.6-2c-3.6,0-5.1,7.8-5.1,10.8c0,2.3,1.1,2.9,2.6,2.9
		C125.1,1116.7,126.4,1113.1,126.9,1109.3L126.9,1109.3L126.9,1109.3z"/>
	<path d="M144.4,1097.3c0-0.3,0.1-0.7,0.1-1c0-0.7-0.6-1.3-1.3-1.3c0,0,0,0,0,0H143c-0.8,0-2.1,0.6-2.7,3.1l-0.6,3h2.8l-0.3,1.5
		h-2.8l-4.4,20.6c-1.2,5.4-4.3,6.5-6.8,6.5c-2.4,0.1-4.4-1.7-4.5-4c0,0,0,0,0,0v-0.1c0-3.5,2.9-4.6,6.6-5.7l4.6-21.8
		c1.1-5.4,4.4-6.5,6.9-6.5c2.4-0.1,4.4,1.7,4.5,4c0,0,0,0,0,0v0.1c0,0.5,0,1-0.1,1.6L144.4,1097.3L144.4,1097.3z M127.3,1126.3
		c0.8,0,1.7-0.7,2.2-3l0.5-2.2c-2.4,0.8-4.2,1.9-4.2,3.9C125.9,1125.8,126.6,1126.3,127.3,1126.3z"/>
</g>
<path class="st7" d="M44.2,1107.1c-0.1,0.5-0.2,0.9-0.2,1.4c-0.1,0.7,0.4,1.4,1.1,1.6c0.1,0,0.3,0,0.4,0c1.5,0,3.1-2.2,4-3.9h1.8
	c-1.8,2.1-5.2,7-8.2,7s-4.7-1.3-4.7-4.2c0-0.7,0.1-1.3,0.2-1.9l1.5-6.9c0.1-0.3,0.1-0.7,0.1-1c0-1.4-0.7-2.2-1.8-2.2
	c-0.8,0-1.6,0.2-2.2,0.7c0.1,0.4,0.2,0.9,0.2,1.3c0,0.3,0,0.5-0.1,0.8l-2.8,13.4h-5.5l2.7-13c0.1-0.3,0.1-0.7,0.1-1
	c0-1.4-0.7-2.2-1.8-2.2c-0.8,0-1.7,0.3-2.3,0.8l-3.3,15.4h-5.5l4-19.1h5.5l-0.4,2c1.4-1.1,3.1-1.8,4.9-2c1.6,0.1,3,1.1,3.8,2.5
	c1.7-1.3,3.7-2.5,5.6-2.5c2.5,0.3,4.4,2.3,4.4,4.8c0,0.3,0,0.6-0.1,0.9L44.2,1107.1z"/>
<path class="st7" d="M66.2,1094.2l-2.7,13c-0.1,0.4-0.1,0.8-0.2,1.2c0,0.8,0.4,1.4,1.9,1.4s3.5-2.1,5-3.3h1.3
	c-1.8,1.8-6.1,6.8-9,6.8c-2.6,0-4.3-1-4.7-3.2c-1.8,1.7-3.8,3.2-5.5,3.2c-2.9,0-4.8-1.3-4.8-4.2c0-0.7,0.1-1.3,0.2-1.9l2.7-13h5.5
	l-2.7,13c-0.1,0.4-0.1,0.8-0.2,1.2c0,0.8,0.4,1.4,1.9,1.4c1-0.2,2-0.6,2.7-1.4c0-0.4,0.1-0.8,0.2-1.3l2.7-13L66.2,1094.2
	L66.2,1094.2z"/>
<path class="st7" d="M79.2,1096.8c0.1-0.7-0.4-1.3-1.1-1.3c-0.1,0-0.2,0-0.3,0c-3.2,0-5.3,6.2-5.3,10.3c0,2.2,0.5,4.1,2.8,4.1
	c2.7,0,4.9-1.6,6.6-3.6h1.3c-1.8,2.1-3.9,6.8-10.6,6.8c-3.2,0-5.2-1.8-5.2-6.2c0-5.6,2.4-12.9,9.8-12.9c2.1,0,4.2,0.5,4.2,2.6
	c0,0.4-0.1,0.9-0.2,1.3c-0.3-0.2-0.7-0.3-1-0.2c-0.4,0-0.8,0.1-1.2,0.2C79.1,1097.6,79.2,1097.2,79.2,1096.8z"/>
<path class="st7" d="M95,1113.2c-2.7,0-3.9-1.8-3.9-4.2c0-0.6,0.1-1.3,0.2-1.9l1.4-6.9c0-0.3,0.1-0.6,0.1-0.9c0-1.2-0.5-2.4-1.7-2.4
	c-0.9,0-1.7,0.3-2.4,0.8l-3.3,15.4H80l5.5-25.9l5.6-0.8l-2.1,9.7c1.4-1.2,3.2-1.9,5-2.1c2.1,0,4.4,2.3,4.4,4.8c0,0.3,0,0.6-0.1,0.8
	l-1.6,7.3c-0.2,0.5-0.3,1-0.3,1.6c0,0.7,0.3,1.1,1.4,1.1c0.3,0,0.7,0,1-0.1C97.9,1113,96.3,1113.2,95,1113.2z"/>
<path class="st7" d="M122.8,1099.3c0.3,0.3,0.7,0.4,1.1,0.3c1.8,0,2.6-1.3,4-1.9l0.2,0.8c-1.4,1.6-3.3,2.8-5.4,3.3
	c-0.7,7.7-4.9,11.4-8.7,11.4c-4.1,0-5.8-1.7-5.8-6.2c0-9.4,4.8-13.4,10-13.4C121.8,1093.8,122.8,1096.6,122.8,1099.3z M119.9,1102.3
	c-0.9,0-1.6-0.6-1.6-1.5c0-0.1,0-0.2,0-0.2c0-1.1,0.6-2.2,1.7-2.6c-0.1-1.3-0.5-2-1.6-2c-3.6,0-5.1,7.8-5.1,10.8
	c0,2.3,1.1,2.9,2.6,2.9C118.1,1109.7,119.4,1106.1,119.9,1102.3L119.9,1102.3L119.9,1102.3z"/>
<path class="st7" d="M137.4,1090.3c0-0.3,0.1-0.7,0.1-1c0-0.7-0.6-1.3-1.3-1.3c0,0,0,0,0,0H136c-0.8,0-2.1,0.6-2.7,3.1l-0.6,3h2.8
	l-0.3,1.5h-2.8l-4.4,20.6c-1.2,5.4-4.3,6.5-6.8,6.5c-2.4,0.1-4.4-1.7-4.5-4c0,0,0,0,0,0v-0.1c0-3.5,2.9-4.6,6.6-5.7l4.6-21.8
	c1.1-5.4,4.4-6.5,6.9-6.5c2.4-0.1,4.4,1.7,4.5,4c0,0,0,0,0,0v0.1c0,0.5,0,1-0.1,1.6L137.4,1090.3L137.4,1090.3z M120.3,1119.3
	c0.8,0,1.7-0.7,2.2-3l0.5-2.2c-2.4,0.8-4.2,1.9-4.2,3.9C118.9,1118.8,119.6,1119.3,120.3,1119.3z"/>
<g class="st5">
	<path d="M67.8,1250.3c-0.7,0-1.3-0.3-1.7-0.8c1.1-0.7,1.7-2,1.7-3.3c0.1-1.4-1-2.5-2.3-2.6c-0.2,0-0.3,0-0.5,0
		c-1.8-0.2-3.3,1.1-3.5,2.8c0,0.2,0,0.3,0,0.5c0,6,8.6,6.3,8.6,14.8c0,5.4-4,8.8-10.1,8.8c-3,0-8.4-0.7-8.4-6.1
		c-0.1-2.9,2.2-5.4,5.1-5.5h0.5c1.7,0,2.8,0.6,3.1,1.9c-3.1,0.3-4.5,1.6-4.5,4.2c-0.1,2,1.5,3.6,3.5,3.7h0.3c3,0,4.2-2.6,4.2-5.4
		c0-7.2-8.2-8.7-8.2-14.4c0-4,4.5-7.1,9.1-7.1c2,0,6.4,0.3,6.4,4.6C71,1248.7,69.8,1250.3,67.8,1250.3z"/>
	<path d="M86.3,1256.7c0.3,0.3,0.7,0.4,1.1,0.3c1.8,0,2.6-1.3,4-1.9l0.2,0.8c-1.4,1.6-3.3,2.8-5.4,3.3c-0.7,7.7-4.9,11.4-8.7,11.4
		c-4.1,0-5.8-1.7-5.8-6.2c0-9.4,4.8-13.4,10-13.4C85.3,1251.1,86.2,1253.9,86.3,1256.7z M83.4,1259.7c-0.9,0-1.6-0.6-1.6-1.5
		c0-0.1,0-0.2,0-0.2c0-1.1,0.6-2.2,1.7-2.7c-0.1-1.3-0.5-2-1.6-2c-3.6,0-5.1,7.8-5.1,10.8c0,2.3,1.1,2.9,2.6,2.9
		C81.6,1267,82.9,1263.4,83.4,1259.7L83.4,1259.7L83.4,1259.7z"/>
	<path d="M106,1251.4l-2.7,13c-0.1,0.4-0.1,0.8-0.2,1.2c0,0.8,0.4,1.4,1.9,1.4s3.5-2.1,5-3.3h1.3c-1.8,1.8-6.1,6.8-9,6.8
		c-2.6,0-4.3-1-4.7-3.2c-1.8,1.7-3.8,3.2-5.5,3.2c-2.9,0-4.8-1.3-4.8-4.2c0-0.7,0.1-1.3,0.2-1.9l2.7-13h5.5l-2.7,13
		c-0.1,0.4-0.1,0.8-0.2,1.2c0,0.8,0.4,1.4,1.9,1.4c1-0.2,2-0.6,2.7-1.4c0-0.4,0.1-0.8,0.2-1.3l2.7-13L106,1251.4L106,1251.4z"/>
	<path d="M117.3,1245.4c0,0-0.6,2.6-1.3,6h2.3l-0.3,1.5h-2.3c-2.6,12-2.6,12.4-2.6,12.6c0,0.9,0.4,1.4,1.9,1.4s3.5-2.1,5-3.3h1.3
		c-1.8,1.8-6.1,6.8-9,6.8s-4.7-1.3-4.7-4.2c0-2,2-10.1,2.6-13.4H109l0.3-1.5h1.3l1.1-5.3L117.3,1245.4z"/>
	<path d="M132.1,1270.5c-2.7,0-3.9-1.8-3.9-4.2c0-0.6,0.1-1.3,0.2-1.9l1.4-6.9c0-0.3,0.1-0.6,0.1-0.9c0-1.2-0.5-2.4-1.7-2.4
		c-0.9,0-1.7,0.3-2.4,0.8l-3.3,15.4h-5.5l5.5-25.9l5.6-0.8l-2.1,9.7c1.4-1.2,3.2-1.9,5-2.1c2.1,0,4.4,2.3,4.4,4.8
		c0,0.3,0,0.6-0.1,0.8l-1.6,7.3c-0.2,0.5-0.3,1-0.3,1.6c0,0.7,0.3,1.1,1.4,1.1c0.3,0,0.7,0,1-0.1
		C135,1270.3,133.4,1270.5,132.1,1270.5z"/>
</g>
<path class="st7" d="M60.8,1243.3c-0.7,0-1.3-0.3-1.7-0.8c1.1-0.7,1.7-2,1.7-3.3c0.1-1.4-1-2.5-2.3-2.6c-0.2,0-0.3,0-0.5,0
	c-1.8-0.2-3.3,1.1-3.5,2.8c0,0.2,0,0.3,0,0.5c0,6,8.6,6.3,8.6,14.8c0,5.4-4,8.8-10.1,8.8c-3,0-8.4-0.7-8.4-6.1
	c-0.1-2.9,2.2-5.4,5.1-5.5h0.5c1.7,0,2.8,0.6,3.1,1.9c-3.1,0.3-4.5,1.6-4.5,4.2c-0.1,2,1.5,3.6,3.5,3.7h0.3c3,0,4.2-2.6,4.2-5.4
	c0-7.2-8.2-8.7-8.2-14.4c0-4,4.5-7.1,9.1-7.1c2,0,6.4,0.3,6.4,4.6C64,1241.7,62.8,1243.3,60.8,1243.3z"/>
<path class="st7" d="M79.3,1249.7c0.3,0.3,0.7,0.4,1.1,0.3c1.8,0,2.6-1.3,4-1.9l0.2,0.8c-1.4,1.6-3.3,2.8-5.4,3.3
	c-0.7,7.7-4.9,11.4-8.7,11.4c-4.1,0-5.8-1.7-5.8-6.2c0-9.4,4.8-13.4,10-13.4C78.3,1244.1,79.2,1246.9,79.3,1249.7z M76.4,1252.7
	c-0.9,0-1.6-0.6-1.6-1.5c0-0.1,0-0.2,0-0.2c0-1.1,0.6-2.2,1.7-2.7c-0.1-1.3-0.5-2-1.6-2c-3.6,0-5.1,7.8-5.1,10.8
	c0,2.3,1.1,2.9,2.6,2.9C74.6,1260,75.9,1256.4,76.4,1252.7L76.4,1252.7L76.4,1252.7z"/>
<path class="st7" d="M99,1244.4l-2.7,13c-0.1,0.4-0.1,0.8-0.2,1.2c0,0.8,0.4,1.4,1.9,1.4s3.5-2.1,5-3.3h1.3c-1.8,1.8-6.1,6.8-9,6.8
	c-2.6,0-4.3-1-4.7-3.2c-1.8,1.7-3.8,3.2-5.5,3.2c-2.9,0-4.8-1.3-4.8-4.2c0-0.7,0.1-1.3,0.2-1.9l2.7-13h5.5l-2.7,13
	c-0.1,0.4-0.1,0.8-0.2,1.2c0,0.8,0.4,1.4,1.9,1.4c1-0.2,2-0.6,2.7-1.4c0-0.4,0.1-0.8,0.2-1.3l2.7-13L99,1244.4L99,1244.4z"/>
<path class="st7" d="M110.3,1238.4c0,0-0.6,2.6-1.3,6h2.3l-0.3,1.5h-2.3c-2.6,12-2.6,12.4-2.6,12.6c0,0.9,0.4,1.4,1.9,1.4
	s3.5-2.1,5-3.3h1.3c-1.8,1.8-6.1,6.8-9,6.8s-4.7-1.3-4.7-4.2c0-2,2-10.1,2.6-13.4H102l0.3-1.5h1.3l1.1-5.3L110.3,1238.4z"/>
<path class="st7" d="M125.1,1263.5c-2.7,0-3.9-1.8-3.9-4.2c0-0.6,0.1-1.3,0.2-1.9l1.4-6.9c0-0.3,0.1-0.6,0.1-0.9
	c0-1.2-0.5-2.4-1.7-2.4c-0.9,0-1.7,0.3-2.4,0.8l-3.3,15.4h-5.5l5.5-25.9l5.6-0.8l-2.1,9.7c1.4-1.2,3.2-1.9,5-2.1
	c2.1,0,4.4,2.3,4.4,4.8c0,0.3,0,0.6-0.1,0.8l-1.6,7.3c-0.2,0.5-0.3,1-0.3,1.6c0,0.7,0.3,1.1,1.5,1.1c0.3,0,0.7,0,1-0.1
	C128,1263.3,126.4,1263.5,125.1,1263.5z"/>
<g class="st5">
	<path d="M80,1310.9l-2.9,0.9l-0.4,21.8l-9.1,1.8l0.3-20.9c-3.6,1.1-7.2,2.1-10.8,3c-1.5,9.2-1.7,18.5-0.7,23.8
		c0.6,3.2,1.4,2.8,1.6,3.4c-4.4,0.6-8.6,1.3-9.9-5.4c-0.8-4.2,0-11.9,2.3-20.1l-3.2,0.6c-8,1.6-12-0.9-12.5-3.6
		c-1-5.1,6.8-7.2,9.9-7.8c3.1-0.6,6.4-0.7,9.5-0.3c4.4-11.3,10.9-21.4,18.3-22.9c1.7-0.3,3.5-0.3,5.2,0l-0.4,24.4l2.8-0.9L80,1310.9
		L80,1310.9z M47.3,1309.7c-4.9,1-7.7,2.7-7.3,4.7c0.3,1.8,3.3,3,8.8,2l2.5-0.5c0.7-2.1,1.4-4.2,2.1-6.3
		C51.4,1309.4,49.3,1309.4,47.3,1309.7z M57.7,1314.6c3-0.7,6-1.4,9-2.2c-2.7-0.8-5.4-1.5-8.1-2.1L57.7,1314.6z M67.3,1311.5
		l0.7,0.3l0.4-21.4c-4.1,2.8-7.3,10.2-9.4,18.5C61.6,1309.7,64.3,1310.5,67.3,1311.5L67.3,1311.5L67.3,1311.5z"/>
	<path d="M97.3,1295.4l0.2,0.9c2,10.4,6.9,12.8,8.4,20.2c0.1,0.4,0.2,0.9,0.2,1.3c1.2-1.6,2.3-3.2,3.3-4.9l2.1,1.8
		c-1.5,1.7-3.6,4.4-5.7,7.1c-1,3.8-4.1,6.9-10,8.1c-7.3,1.4-11.2,0-12.4-6.2c-1-5.1,0.7-8.4,3.2-9.1c1.5-4.6,1.8-10.5,2-15.5
		L97.3,1295.4z M88.7,1322.4c-0.8,0.1-1.6,0.1-2.4-0.1c0.7,3.7,3.1,5,6.4,4.3c2.2-0.4,4.7-3.7,3.8-8.6c-0.8-3.9-4.3-6.7-5.9-14.6
		c-0.4,3.3-0.5,7.5-1.3,11c1.6,0.2,2.4,1.2,2.8,3.1C92.5,1319.9,90.9,1322,88.7,1322.4L88.7,1322.4z"/>
	<path d="M112.6,1279.8c2.8-0.4,5.4,1.5,5.9,4.3c0.4,2.7-1.3,5.2-3.9,5.8l0,0c-2.7,0.6-5.4-1.2-6-3.9c0,0,0,0,0,0v-0.1
		C108,1283.1,109.8,1280.4,112.6,1279.8C112.5,1279.8,112.6,1279.8,112.6,1279.8L112.6,1279.8z M118.1,1292.7l-0.4,22.4
		c0,0.7,0,1.3,0.1,2c0.3,1.4,1.1,2.3,3.6,1.8s5.1-4.7,7.3-7.2l2.1-0.4c-2.4,3.5-7.9,13.3-12.8,14.2s-8.3-0.6-9.2-5.4
		c-0.2-1.1-0.3-2.2-0.2-3.3l0.4-22.4L118.1,1292.7z"/>
	<path d="M150.7,1308.7c-0.1,0.7,0,1.5,0.1,2.2c0,1.1,1,2,2.2,2c0.2,0,0.4,0,0.6-0.1c0.6-0.1,1.1-0.3,1.6-0.5
		c-0.7,5.8-3.3,6.7-5.4,7.1c-3.7,0.7-6-0.8-7.2-3.6c-1.4,3-3.7,6.1-7.6,6.9c-6.1,1.2-8.7-2.8-9.4-6.5c-2.1-10.9-0.7-24.7,11.9-27.2
		c1.6-0.3,3.2,0,4.6,0.8l0.1-1.7l9.1-1.8L150.7,1308.7z M142,1293c-1-0.6-2.2-0.8-3.3-0.5c-4.8,0.9-6.6,11.7-4.9,20.3
		c0.7,3.8,3,4.1,4.5,3.8s2.6-2,3.5-4c-0.1-0.7-0.1-1.4-0.1-2.1L142,1293z"/>
</g>
<path class="st7" d="M73,1303.9l-2.9,0.9l-0.4,21.8l-9.1,1.8l0.3-20.9c-3.6,1.1-7.2,2.1-10.8,3c-1.5,9.2-1.7,18.5-0.7,23.8
	c0.6,3.2,1.4,2.8,1.6,3.4c-4.4,0.6-8.6,1.3-9.9-5.4c-0.8-4.2,0-11.9,2.3-20.1l-3.2,0.6c-8,1.6-12-0.9-12.5-3.6
	c-1-5.1,6.8-7.2,9.9-7.8c3.1-0.6,6.4-0.7,9.5-0.3c4.4-11.3,10.9-21.4,18.3-22.9c1.7-0.3,3.5-0.3,5.2,0l-0.4,24.4l2.8-0.9L73,1303.9
	L73,1303.9z M40.3,1302.7c-4.9,1-7.7,2.7-7.3,4.7c0.3,1.8,3.3,3,8.8,2l2.5-0.5c0.7-2.1,1.4-4.2,2.1-6.3
	C44.4,1302.4,42.3,1302.4,40.3,1302.7z M50.7,1307.6c3-0.7,6-1.4,9-2.2c-2.7-0.8-5.4-1.5-8.1-2.1L50.7,1307.6z M60.3,1304.5l0.7,0.3
	l0.4-21.4c-4.1,2.8-7.3,10.2-9.4,18.5C54.6,1302.7,57.3,1303.5,60.3,1304.5L60.3,1304.5L60.3,1304.5z"/>
<path class="st7" d="M90.3,1288.4l0.2,0.9c2,10.4,6.9,12.8,8.4,20.2c0.1,0.4,0.2,0.9,0.2,1.3c1.2-1.6,2.3-3.2,3.3-4.9l2.1,1.8
	c-1.5,1.7-3.6,4.4-5.7,7.1c-1,3.8-4.1,6.9-10,8.1c-7.3,1.4-11.2,0-12.4-6.2c-1-5.1,0.7-8.4,3.2-9.1c1.5-4.6,1.8-10.5,2-15.5
	L90.3,1288.4z M81.7,1315.4c-0.8,0.1-1.6,0.1-2.4-0.1c0.7,3.7,3.1,5,6.4,4.3c2.2-0.4,4.7-3.7,3.8-8.6c-0.8-3.9-4.3-6.7-5.9-14.6
	c-0.4,3.3-0.5,7.5-1.3,11c1.6,0.2,2.4,1.2,2.8,3.1C85.5,1312.9,83.9,1315,81.7,1315.4L81.7,1315.4z"/>
<path class="st7" d="M105.6,1272.8c2.8-0.4,5.4,1.5,5.9,4.3c0.4,2.7-1.3,5.2-3.9,5.8l0,0c-2.7,0.6-5.4-1.2-6-3.9c0,0,0,0,0,0v-0.1
	C101,1276.1,102.8,1273.4,105.6,1272.8C105.5,1272.8,105.6,1272.8,105.6,1272.8L105.6,1272.8z M111.1,1285.7l-0.4,22.4
	c0,0.7,0,1.3,0.1,2c0.3,1.4,1.1,2.3,3.6,1.8s5.1-4.7,7.3-7.2l2.2-0.4c-2.3,3.5-7.9,13.3-12.8,14.2s-8.3-0.6-9.2-5.4
	c-0.2-1.1-0.3-2.2-0.2-3.3l0.4-22.4L111.1,1285.7z"/>
<path class="st7" d="M143.7,1301.7c-0.1,0.7,0,1.5,0.1,2.2c0,1.1,1,2,2.2,2c0.2,0,0.4,0,0.6-0.1c0.6-0.1,1.1-0.3,1.6-0.5
	c-0.7,5.8-3.3,6.7-5.4,7.1c-3.7,0.7-6-0.8-7.2-3.6c-1.4,3-3.7,6.1-7.6,6.9c-6.1,1.2-8.7-2.8-9.4-6.5c-2.1-10.9-0.7-24.7,11.9-27.2
	c1.6-0.3,3.2,0,4.6,0.8l0.1-1.7l9.1-1.8L143.7,1301.7z M135,1286c-1-0.6-2.2-0.8-3.3-0.5c-4.8,0.9-6.6,11.7-4.9,20.3
	c0.7,3.8,3,4.1,4.5,3.8s2.6-2,3.5-4c-0.1-0.7-0.1-1.4-0.1-2.1L135,1286z"/>
<g id="_Group_4">
	<g class="st5">
		<path d="M40.1,1395.2c-0.7,0-1.3-0.3-1.7-0.8c1.1-0.7,1.7-2,1.7-3.3c0.1-1.4-1-2.5-2.3-2.6c-0.2,0-0.3,0-0.5,0
			c-1.8-0.2-3.3,1.1-3.5,2.8c0,0.2,0,0.3,0,0.5c0,6,8.6,6.3,8.6,14.8c0,5.4-4,8.8-10.1,8.8c-3,0-8.4-0.7-8.4-6.1
			c-0.1-2.9,2.2-5.4,5.1-5.5h0.5c1.7,0,2.8,0.6,3.1,1.9c-3.1,0.3-4.5,1.6-4.5,4.2c-0.1,2,1.5,3.6,3.5,3.7h0.3c3,0,4.2-2.6,4.2-5.4
			c0-7.2-8.2-8.7-8.2-14.4c0-4,4.5-7.1,9.1-7.1c2,0,6.4,0.3,6.4,4.6C43.2,1393.5,42.1,1395.2,40.1,1395.2z"/>
		<path d="M58.6,1401.5c0.3,0.3,0.7,0.4,1.1,0.3c1.8,0,2.6-1.3,4-1.9l0.2,0.8c-1.4,1.6-3.3,2.8-5.4,3.3c-0.7,7.7-4.9,11.4-8.7,11.4
			c-4.1,0-5.8-1.7-5.8-6.2c0-9.4,4.8-13.4,10-13.4C57.6,1395.9,58.5,1398.7,58.6,1401.5z M55.6,1404.5c-0.9,0-1.6-0.6-1.6-1.5
			c0-0.1,0-0.2,0-0.2c0-1.1,0.6-2.2,1.7-2.7c-0.1-1.3-0.5-2-1.6-2c-3.6,0-5.1,7.8-5.1,10.8c0,2.3,1.1,2.9,2.5,2.9
			C53.9,1411.8,55.2,1408.2,55.6,1404.5L55.6,1404.5L55.6,1404.5z"/>
		<path d="M78.3,1396.3l-2.7,13c-0.1,0.4-0.1,0.8-0.2,1.2c0,0.8,0.4,1.4,1.9,1.4s3.5-2.1,5-3.3h1.3c-1.8,1.8-6.1,6.8-9,6.8
			c-2.6,0-4.3-1-4.7-3.2c-1.8,1.7-3.8,3.2-5.5,3.2c-2.9,0-4.8-1.3-4.8-4.2c0-0.7,0.1-1.3,0.2-1.9l2.7-13h5.5l-2.7,13
			c-0.1,0.4-0.1,0.8-0.2,1.2c0,0.8,0.4,1.4,1.9,1.4c1-0.2,2-0.6,2.7-1.4c0-0.4,0.1-0.8,0.2-1.3l2.7-13L78.3,1396.3L78.3,1396.3z"/>
		<path d="M89.7,1390.2c0,0-0.6,2.6-1.3,6h2.3l-0.3,1.5H88c-2.6,12-2.6,12.4-2.6,12.6c0,0.9,0.4,1.4,1.9,1.4s3.5-2.1,5-3.3h1.3
			c-1.8,1.8-6.1,6.8-9,6.8s-4.7-1.3-4.7-4.1c0-2,2-10.1,2.6-13.4h-1.3l0.3-1.5h1.3l1.1-5.3L89.7,1390.2z"/>
		<path d="M106.5,1409.2c-0.1,0.4-0.2,0.8-0.2,1.2c0,0.8,0.4,1.4,1.9,1.4s3.5-2.1,5-3.3h1.4c-1.8,1.8-6.1,6.8-9,6.8
			s-4.7-1.3-4.7-4.2c0-0.7,0.1-1.3,0.2-1.9l1.4-6.9c0.1-0.3,0.1-0.7,0.1-1c0-1.4-0.7-2.2-1.8-2.2c-0.9,0-1.7,0.3-2.4,0.8l-3.3,15.4
			h-5.6l5.5-25.9l5.6-0.8l-2.1,9.6c1.4-1.1,3.2-1.8,5-2c2.4,0.3,4.3,2.3,4.4,4.8c0,0.3,0,0.6-0.1,0.9L106.5,1409.2z"/>
		<path d="M118.4,1412.6c1.9,0,5.1-2.2,6.4-5h1.7c-2.2,3.9-5.8,7.8-10.8,7.8c-3.7,0-5.6-2.8-5.6-6.1c0-4.8,2.1-13.3,9-13.3
			c3.1,0,4.9,1.3,4.9,4c0,4.7-5,7.3-8.6,7.8c-0.1,0.5-0.1,1.1-0.1,1.6c-0.2,1.6,1,3,2.6,3.2C118,1412.6,118.2,1412.6,118.4,1412.6z
			 M120.4,1397.9c-2.1,0-3.9,4.3-4.7,7.9c3.2-0.1,5.8-2.6,6-5.8C121.7,1399.3,121.5,1397.9,120.4,1397.9L120.4,1397.9L120.4,1397.9z
			"/>
		<path d="M141.9,1396.3l-2.7,13c-0.1,0.5-0.2,0.9-0.2,1.4c-0.1,0.5,0.2,1.1,0.7,1.2c0.1,0,0.3,0,0.5,0c0.7-0.2,1.3-0.7,1.6-1.4
			c0-3.2,1.4-4.9,2.9-5c1.4-2.8,2.3-5.7,2.9-8.8l5.5-1.1v0.5c0,6.3,2.6,8.2,2.6,12.7v0.8c0.9-0.8,1.7-1.6,2.5-2.5l1,1.3
			c-1.1,0.8-2.6,2.2-4.1,3.5c-1,2.1-3.2,3.5-6.7,3.5s-5.6-0.8-6.2-3c-1.4,1.8-2.7,3-3.9,3c-2.7,0-4.1-1.1-4.6-3
			c-1.1,1.6-2.9,3.2-5.2,3.2c-3.7,0-4.7-2.6-4.7-4.8c0-6.6,2.4-14.4,10-14.4c0.9,0,1.8,0.4,2.6,1l0.2-1h5.5L141.9,1396.3z
			 M135.8,1399.1c-0.5-0.4-1.2-0.7-1.9-0.7c-2.9,0-5.1,6.1-5.1,11.2c0,2.3,1.3,2.7,2.2,2.7s1.7-0.9,2.5-1.9c0-0.4,0.1-0.8,0.2-1.2
			L135.8,1399.1z M145.1,1410.2c-0.5,0-0.9-0.1-1.3-0.3c0,0.2-0.1,0.4-0.1,0.6c0,1.6,1.8,2.6,3.3,2.6c1.3,0,3.2-1.6,3.2-4.5
			c0-2.4-1.7-4.4-1.8-9.1c-0.6,2.1-1.2,4.2-2,6.2c0.9,0.3,1.4,1.2,1.3,2.1C147.5,1409.1,146.4,1410.2,145.1,1410.2
			C145.1,1410.2,145.1,1410.2,145.1,1410.2L145.1,1410.2L145.1,1410.2L145.1,1410.2z"/>
		<path d="M162.5,1409.2c-0.1,0.4-0.2,0.9-0.2,1.3c-0.1,0.6,0.3,1.3,1,1.4c0.1,0,0.2,0,0.4,0c0.3,0,0.7,0,1-0.1
			c-1.1,3.3-2.7,3.5-4,3.5c-2.7,0-3.8-1.8-3.8-4.1c0-0.7,0.1-1.3,0.2-2l2.4-11.4h-1.3l0.3-1.5h1.3l1.1-5.3l5.6-0.8
			c0,0-0.6,2.6-1.3,6h2.3l-0.3,1.5h-2.3L162.5,1409.2z"/>
		<path d="M84.4,1452.2l-2.9,0.9l-0.4,21.8l-9.1,1.8l0.3-20.9c-3.6,1.1-7.2,2.1-10.8,2.9c-1.5,9.2-1.7,18.5-0.7,23.8
			c0.6,3.2,1.4,2.8,1.6,3.4c-4.4,0.6-8.6,1.3-9.9-5.4c-0.8-4.2,0-11.9,2.3-20.2l-3.2,0.6c-8,1.6-12-0.9-12.5-3.6
			c-1-5.1,6.8-7.2,9.9-7.8c3.1-0.6,6.4-0.7,9.5-0.3c4.4-11.3,10.9-21.4,18.3-22.9c1.7-0.3,3.5-0.3,5.2,0l-0.4,24.4l2.8-0.9V1452.2
			L84.4,1452.2z M51.6,1451c-4.9,1-7.7,2.7-7.3,4.7c0.3,1.8,3.3,3,8.8,2l2.5-0.5c0.7-2.1,1.4-4.2,2.1-6.3
			C55.7,1450.6,53.7,1450.7,51.6,1451L51.6,1451L51.6,1451z M62.1,1455.9c3-0.7,6-1.4,9-2.2c-2.7-0.8-5.4-1.5-8.2-2.1L62.1,1455.9z
			 M71.6,1452.8l0.7,0.3l0.4-21.4c-4.1,2.8-7.3,10.2-9.4,18.5C65.9,1450.9,68.7,1451.8,71.6,1452.8L71.6,1452.8L71.6,1452.8z"/>
		<path d="M101.6,1436.8l0.2,0.9c2,10.4,6.9,12.8,8.4,20.2c0.1,0.4,0.2,0.9,0.2,1.3c1.2-1.6,2.3-3.2,3.3-4.9l2.1,1.8
			c-1.5,1.7-3.6,4.4-5.7,7.1c-1,3.8-4.1,6.9-10,8.1c-7.3,1.4-11.2,0-12.4-6.2c-1-5.1,0.7-8.4,3.2-9.1c1.5-4.6,1.8-10.5,2-15.5
			L101.6,1436.8z M93,1463.8c-0.8,0.1-1.6,0.1-2.4-0.1c0.7,3.7,3.1,5,6.4,4.3c2.2-0.4,4.7-3.7,3.8-8.6c-0.8-3.9-4.3-6.7-5.9-14.6
			c-0.4,3.3-0.5,7.5-1.3,11c1.6,0.2,2.4,1.2,2.8,3.1C96.8,1461.2,95.3,1463.3,93,1463.8L93,1463.8z"/>
		<path d="M117,1421.2c2.8-0.4,5.4,1.5,5.9,4.3c0.4,2.7-1.3,5.2-3.9,5.8l0,0c-2.7,0.6-5.4-1.2-6-3.9c0,0,0,0,0,0v-0.1
			C112.3,1424.5,114.1,1421.8,117,1421.2C116.9,1421.2,116.9,1421.2,117,1421.2L117,1421.2z M122.5,1434l-0.4,22.4
			c0,0.7,0,1.3,0.1,2c0.3,1.4,1.1,2.3,3.6,1.8c2.5-0.5,5.1-4.7,7.3-7.2l2.1-0.4c-2.4,3.5-7.9,13.3-12.8,14.2s-8.3-0.6-9.2-5.4
			c-0.2-1.1-0.3-2.2-0.2-3.3l0.4-22.4L122.5,1434z"/>
		<path d="M155.1,1450c-0.1,0.7,0,1.5,0.1,2.2c0,1.1,1,2,2.2,2c0.2,0,0.4,0,0.6-0.1c0.6-0.1,1.1-0.3,1.6-0.5
			c-0.7,5.8-3.3,6.7-5.4,7.1c-3.7,0.7-6-0.8-7.2-3.6c-1.4,3-3.7,6.1-7.6,6.9c-6.1,1.2-8.7-2.8-9.4-6.5c-2.1-10.9-0.7-24.7,11.9-27.2
			c1.6-0.3,3.2,0,4.6,0.8l0.1-1.7l9.1-1.8L155.1,1450z M146.3,1434.3c-1-0.6-2.2-0.8-3.3-0.5c-4.8,0.9-6.6,11.7-4.9,20.3
			c0.7,3.8,3,4.1,4.5,3.8s2.6-2,3.5-4c-0.1-0.7-0.1-1.4-0.1-2.1L146.3,1434.3z"/>
	</g>
	<path class="st7" d="M33.1,1388.2c-0.7,0-1.3-0.3-1.7-0.8c1.1-0.7,1.7-2,1.7-3.3c0.1-1.4-1-2.5-2.3-2.6c-0.2,0-0.3,0-0.5,0
		c-1.8-0.2-3.3,1.1-3.5,2.8c0,0.2,0,0.3,0,0.5c0,6,8.6,6.3,8.6,14.8c0,5.4-4,8.8-10.1,8.8c-3,0-8.4-0.7-8.4-6.1
		c-0.1-2.9,2.2-5.4,5.1-5.5h0.5c1.7,0,2.8,0.6,3.1,1.9c-3.1,0.3-4.5,1.6-4.5,4.2c-0.1,2,1.5,3.6,3.5,3.7h0.3c3,0,4.2-2.6,4.2-5.4
		c0-7.2-8.2-8.7-8.2-14.4c0-4,4.5-7.1,9.1-7.1c2,0,6.4,0.3,6.4,4.6C36.2,1386.5,35.1,1388.2,33.1,1388.2z"/>
	<path class="st7" d="M51.6,1394.5c0.3,0.3,0.7,0.4,1.1,0.3c1.8,0,2.6-1.3,4-1.9l0.2,0.8c-1.4,1.6-3.3,2.8-5.4,3.3
		c-0.7,7.7-4.9,11.4-8.7,11.4c-4.1,0-5.8-1.7-5.8-6.2c0-9.4,4.8-13.4,10-13.4C50.6,1388.9,51.5,1391.7,51.6,1394.5z M48.6,1397.5
		c-0.9,0-1.6-0.6-1.6-1.5c0-0.1,0-0.2,0-0.2c0-1.1,0.6-2.2,1.7-2.7c-0.1-1.3-0.5-2-1.6-2c-3.6,0-5.1,7.8-5.1,10.8
		c0,2.3,1.1,2.9,2.5,2.9C46.9,1404.8,48.2,1401.2,48.6,1397.5L48.6,1397.5L48.6,1397.5z"/>
	<path class="st7" d="M71.3,1389.3l-2.7,13c-0.1,0.4-0.1,0.8-0.2,1.2c0,0.8,0.4,1.4,1.9,1.4s3.5-2.1,5-3.3h1.3
		c-1.8,1.8-6.1,6.8-9,6.8c-2.6,0-4.3-1-4.7-3.2c-1.8,1.7-3.8,3.2-5.5,3.2c-2.9,0-4.8-1.3-4.8-4.2c0-0.7,0.1-1.3,0.2-1.9l2.7-13h5.5
		l-2.7,13c-0.1,0.4-0.1,0.8-0.2,1.2c0,0.8,0.4,1.4,1.9,1.4c1-0.2,2-0.6,2.7-1.4c0-0.4,0.1-0.8,0.2-1.3l2.7-13L71.3,1389.3
		L71.3,1389.3z"/>
	<path class="st7" d="M82.7,1383.2c0,0-0.6,2.6-1.3,6h2.3l-0.3,1.5H81c-2.6,12-2.6,12.4-2.6,12.6c0,0.9,0.4,1.4,1.9,1.4
		s3.5-2.1,5-3.3h1.3c-1.8,1.8-6.1,6.8-9,6.8s-4.7-1.3-4.7-4.1c0-2,2-10.1,2.6-13.4h-1.3l0.3-1.5h1.3l1.1-5.3L82.7,1383.2z"/>
	<path class="st7" d="M99.5,1402.2c-0.1,0.4-0.2,0.8-0.2,1.2c0,0.8,0.4,1.4,1.9,1.4s3.5-2.1,5-3.3h1.4c-1.8,1.8-6.1,6.8-9,6.8
		s-4.7-1.3-4.7-4.2c0-0.7,0.1-1.3,0.2-1.9l1.4-6.9c0.1-0.3,0.1-0.7,0.1-1c0-1.4-0.7-2.2-1.8-2.2c-0.9,0-1.7,0.3-2.4,0.8l-3.3,15.4
		h-5.6l5.5-25.9l5.6-0.8l-2.1,9.6c1.4-1.1,3.2-1.8,5-2c2.4,0.3,4.3,2.3,4.4,4.8c0,0.3,0,0.6-0.1,0.9L99.5,1402.2z"/>
	<path class="st7" d="M111.4,1405.6c1.9,0,5.1-2.2,6.4-5h1.7c-2.2,3.9-5.8,7.8-10.8,7.8c-3.7,0-5.6-2.8-5.6-6.1
		c0-4.8,2.1-13.3,9-13.3c3.1,0,4.9,1.3,4.9,4c0,4.7-5,7.3-8.6,7.8c-0.1,0.5-0.1,1.1-0.1,1.6c-0.2,1.6,1,3,2.6,3.2
		C111,1405.6,111.2,1405.6,111.4,1405.6z M113.4,1390.9c-2.1,0-3.9,4.3-4.7,7.9c3.2-0.1,5.8-2.6,6-5.8
		C114.7,1392.3,114.5,1390.9,113.4,1390.9L113.4,1390.9L113.4,1390.9z"/>
	<path class="st7" d="M134.9,1389.3l-2.7,13c-0.1,0.5-0.2,0.9-0.2,1.4c-0.1,0.5,0.2,1.1,0.7,1.2c0.1,0,0.3,0,0.5,0
		c0.7-0.2,1.3-0.7,1.6-1.4c0-3.2,1.4-4.9,2.9-5c1.4-2.8,2.3-5.7,2.9-8.8l5.5-1.1v0.5c0,6.3,2.6,8.2,2.6,12.7v0.8
		c0.9-0.8,1.7-1.6,2.5-2.5l1,1.3c-1.1,0.8-2.6,2.2-4.1,3.5c-1,2.1-3.2,3.5-6.7,3.5s-5.6-0.8-6.2-3c-1.4,1.8-2.7,3-3.9,3
		c-2.7,0-4.1-1.1-4.6-3c-1.1,1.6-2.9,3.2-5.2,3.2c-3.7,0-4.7-2.6-4.7-4.8c0-6.6,2.4-14.4,10-14.4c0.9,0,1.8,0.4,2.6,1l0.2-1h5.5
		L134.9,1389.3z M128.8,1392.1c-0.5-0.4-1.2-0.7-1.9-0.7c-2.9,0-5.1,6.1-5.1,11.2c0,2.3,1.3,2.7,2.2,2.7s1.7-0.9,2.5-1.9
		c0-0.4,0.1-0.8,0.2-1.2L128.8,1392.1z M138.1,1403.2c-0.5,0-0.9-0.1-1.3-0.3c0,0.2-0.1,0.4-0.1,0.6c0,1.6,1.8,2.6,3.3,2.6
		c1.3,0,3.2-1.6,3.2-4.5c0-2.4-1.7-4.4-1.8-9.1c-0.6,2.1-1.2,4.2-2,6.2c0.9,0.3,1.4,1.2,1.3,2.1
		C140.5,1402.1,139.4,1403.2,138.1,1403.2C138.1,1403.2,138.1,1403.2,138.1,1403.2L138.1,1403.2L138.1,1403.2L138.1,1403.2z"/>
	<path class="st7" d="M155.5,1402.2c-0.1,0.4-0.2,0.9-0.2,1.3c-0.1,0.6,0.3,1.3,1,1.4c0.1,0,0.2,0,0.4,0c0.3,0,0.7,0,1-0.1
		c-1.1,3.3-2.7,3.5-4,3.5c-2.7,0-3.8-1.8-3.8-4.1c0-0.7,0.1-1.3,0.2-2l2.4-11.4h-1.3l0.3-1.5h1.3l1.1-5.3l5.6-0.8c0,0-0.6,2.6-1.3,6
		h2.3l-0.3,1.5h-2.3L155.5,1402.2z"/>
	<path class="st7" d="M77.4,1445.2l-2.9,0.9l-0.4,21.8l-9.1,1.8l0.3-20.9c-3.6,1.1-7.2,2.1-10.8,2.9c-1.5,9.2-1.7,18.5-0.7,23.8
		c0.6,3.2,1.4,2.8,1.6,3.4c-4.4,0.6-8.6,1.3-9.9-5.4c-0.8-4.2,0-11.9,2.3-20.2l-3.2,0.6c-8,1.6-12-0.9-12.5-3.6
		c-1-5.1,6.8-7.2,9.9-7.8c3.1-0.6,6.4-0.7,9.5-0.3c4.4-11.3,10.9-21.4,18.3-22.9c1.7-0.3,3.5-0.3,5.2,0l-0.4,24.4l2.8-0.9V1445.2
		L77.4,1445.2z M44.6,1444c-4.9,1-7.7,2.7-7.3,4.7c0.3,1.8,3.3,3,8.8,2l2.5-0.5c0.7-2.1,1.4-4.2,2.1-6.3
		C48.7,1443.6,46.7,1443.7,44.6,1444L44.6,1444L44.6,1444z M55.1,1448.9c3-0.7,6-1.4,9-2.2c-2.7-0.8-5.4-1.5-8.2-2.1L55.1,1448.9z
		 M64.6,1445.8l0.7,0.3l0.4-21.4c-4.1,2.8-7.3,10.2-9.4,18.5C58.9,1443.9,61.7,1444.8,64.6,1445.8L64.6,1445.8L64.6,1445.8z"/>
	<path class="st7" d="M94.6,1429.8l0.2,0.9c2,10.4,6.9,12.8,8.4,20.2c0.1,0.4,0.2,0.9,0.2,1.3c1.2-1.6,2.3-3.2,3.3-4.9l2.1,1.8
		c-1.5,1.7-3.6,4.4-5.7,7.1c-1,3.8-4.1,6.9-10,8.1c-7.3,1.4-11.2,0-12.4-6.2c-1-5.1,0.7-8.4,3.2-9.1c1.5-4.6,1.8-10.5,2-15.5
		L94.6,1429.8z M86,1456.8c-0.8,0.1-1.6,0.1-2.4-0.1c0.7,3.7,3.1,5,6.4,4.3c2.2-0.4,4.7-3.7,3.8-8.6c-0.8-3.9-4.3-6.7-5.9-14.6
		c-0.4,3.3-0.5,7.5-1.3,11c1.6,0.2,2.4,1.2,2.8,3.1C89.8,1454.2,88.3,1456.3,86,1456.8L86,1456.8z"/>
	<path class="st7" d="M110,1414.2c2.8-0.4,5.4,1.5,5.9,4.3c0.4,2.7-1.3,5.2-3.9,5.8l0,0c-2.7,0.6-5.4-1.2-6-3.9c0,0,0,0,0,0v-0.1
		C105.3,1417.5,107.1,1414.8,110,1414.2C109.9,1414.2,109.9,1414.2,110,1414.2L110,1414.2z M115.5,1427l-0.4,22.4c0,0.7,0,1.3,0.1,2
		c0.3,1.4,1.1,2.3,3.6,1.8s5.1-4.7,7.3-7.2l2.2-0.4c-2.4,3.5-7.9,13.3-12.8,14.2s-8.3-0.6-9.2-5.4c-0.2-1.1-0.3-2.2-0.2-3.3
		l0.4-22.4L115.5,1427z"/>
	<path class="st7" d="M148.1,1443c-0.1,0.7,0,1.5,0.1,2.2c0,1.1,1,2,2.2,2c0.2,0,0.4,0,0.6-0.1c0.6-0.1,1.1-0.3,1.6-0.5
		c-0.7,5.8-3.3,6.7-5.4,7.1c-3.7,0.7-6-0.8-7.2-3.6c-1.4,3-3.7,6.1-7.6,6.9c-6.1,1.2-8.7-2.8-9.4-6.5c-2.1-10.9-0.7-24.7,11.9-27.2
		c1.6-0.3,3.2,0,4.6,0.8l0.1-1.7l9.1-1.8L148.1,1443z M139.3,1427.3c-1-0.6-2.2-0.8-3.3-0.5c-4.8,0.9-6.6,11.7-4.9,20.3
		c0.7,3.8,3,4.1,4.5,3.8s2.6-2,3.5-4c-0.1-0.7-0.1-1.4-0.1-2.1L139.3,1427.3z"/>
</g>
<g>
	<defs>
		<rect id="SVGID_5_" x="35.6" y="257.2" width="116" height="152.7"/>
	</defs>
	<clipPath id="SVGID_6_">
		<use xlink:href="#SVGID_5_"  style="overflow:visible;"/>
	</clipPath>
	<g class="st8">
		<g>
			<g>
				<defs>
					<rect id="SVGID_7_" x="47.7" y="266.5" width="94.3" height="137.5"/>
				</defs>
				<clipPath id="SVGID_8_">
					<use xlink:href="#SVGID_7_"  style="overflow:visible;"/>
				</clipPath>
				<g id="Layer_1-2" class="st9">
					<g>
						<g class="st10">
							<defs>
								<rect id="SVGID_9_" x="-2" y="228.5" class="st10" width="193.7" height="178.5"/>
							</defs>
							<clipPath id="SVGID_10_">
								<use xlink:href="#SVGID_9_"  style="overflow:visible;"/>
							</clipPath>
							<g class="st11">
								<path class="st12" d="M130.6,327.5c-0.4-0.6-0.4-1.3-0.1-2c0.1-0.5,0.2-1,0.1-1.6c0-0.3-0.2-0.6-0.4-0.9
									c-0.5-0.3-1-0.4-1.5-0.4c-0.7-0.1-1.4,0-2.1,0.3c-0.4,0.2-0.8,0.8-1.1,1c-0.3,0.1-0.6,0.3-0.9,0.5l-0.2,0.3l-0.8,1l-0.9,1.5
									c-0.2,0.4-0.7,1-0.9,1.4c-0.5,0.9-0.7,1.9-0.5,2.9c-0.1,0.8-0.3,1.5-0.5,2.2c-0.2,0.5-0.5,0.9-0.8,1.4
									c-0.2,0.3-0.4,0.7-0.4,1.1c-0.1,0.4-0.2,1.1-0.2,1.6s0.1,1,0.9,0.7c0.5-0.2,0.9-0.5,1.3-0.9c1.2-1.1,1.7-1.6,2.7-1.5
									c0.5,0.1,0.9,0.4,1.2,0.8c0.5,0.8,1.2,1.5,2.7-0.6l3.2-4.6c0.3-0.4,0.5-0.9,0.6-1.4c0-0.5-0.1-1-0.4-1.4
									C131.3,328.4,130.8,327.9,130.6,327.5"/>
								<path class="st12" d="M88.9,317.9l-1.1-0.5c-0.5-0.2-1-0.4-1.5-0.5c-0.5-0.1-1-0.2-1.6-0.4l-0.8-0.2
									c-0.5-0.2-0.8-0.5-1.1-0.9l-0.3-0.6l-0.1-0.3c-0.1-0.2-0.2-0.4-0.3-0.6c-0.1-0.1-0.2-0.2-0.3-0.3c-0.2,0-0.3-0.1-0.4-0.3
									c-0.3-0.2-0.7-0.3-1-0.2h-0.2c-0.3,0.1-0.6,0-0.8-0.2c-0.1-0.3-0.3-0.5-0.5-0.7c-0.2-0.2-0.7-0.6-1-0.9
									c-0.4-0.3-0.9-0.4-1.3-0.4c-0.5,0.1-1,0.2-1.5,0.3c-0.5,0-0.9-0.3-1.2-0.6c-0.7-0.7-1.4,0-1.8,0.7c-0.2,0.4-0.5,0.7-0.8,1
									c-0.2,0.3-0.3,0.7-0.2,1c0.1,0.9,0.1,1.8-0.3,2.6c-1.3,3.3-0.7,4.2-0.7,4.2l0.4,0.5c0.3,0.4,0.6,0.8,0.9,1.1l0.3,0.4
									c0.3,0.4,0.6,0.9,0.8,1.3c0.2,0.5,0.5,1,0.8,1.4c0.4,0.3,0.9,0.6,1.3,0.8l0.3,0.2c0.5,0.3,0.9,0.6,1.2,1
									c0.5,0.5,0.9,1,1.2,1.6c0.5,4.3,2,8.4,4.4,12c0.3,0.4,0.7,0.8,1.1,1.2l1.8,1.8c0.4,0.3,0.9,0.5,1.4,0.6h0.2
									c0.4,0.1,0.8,0,1.1-0.3c0.2-0.2,0-0.5-0.4-0.7h-0.1c-0.4-0.2-0.8-0.4-1.1-0.7c-0.2-0.3-0.4-0.6-0.5-1
									c-0.1-0.4-0.3-0.8-0.5-1.2c-0.3-0.4-0.4-0.8-0.5-1.3c-0.1-0.5-0.1-1,0-1.4c0.1-0.5,0.4-0.9,0.8-1.1c0.3-0.1,0.6-0.4,0.7-0.8
									c0-0.3,0-0.6,0.1-0.8c0.1-0.3,0.3-0.5,0.4-0.7c0.1-0.2,0.2-0.4,0.2-0.6v-0.3c0-0.1,0-0.2-0.1-0.3c0-0.2,0.1-0.5,0.2-0.7
									c0.2-0.3,0.2-0.5,0.2-0.9v-1.1c0-0.4,0.2-0.8,0.4-1.2c0.2-0.3,0.5-0.5,0.8-0.7c0.3-0.1,0.5-0.3,0.7-0.5
									c0.2-0.2,0.4-0.5,0.5-0.8c0.1-0.4,0.1-0.8,0.1-1.1c0-0.5-0.1-1-0.1-1.5l-0.1-0.8c-0.1-0.4,0-0.9,0.2-1.3
									c0.2-0.3,0.4-0.8,0.6-1.2c0.2-0.4,0.3-0.8,0.3-1.2c0-0.4,0-0.8-0.2-1.2C89.7,318.5,89.3,318.1,88.9,317.9"/>
								<path class="st12" d="M131.6,334.3l-0.5,0.8c0,0-12.1,19-12,18.9l-24.1,38.7L59.4,337l0,0c-4.5-6.9-6.9-15-7-23.3
									c0-7.1,1.8-14,5.2-20.2l0,0c0.6-1.1,1.3-2.2,2-3.2l0.5-0.7c0.4-0.6,0.9-1.2,1.4-1.9c0,0.2,0,0.3-0.1,0.5c0,0.4,0,0.8,0,1.1
									c0,0.4-0.2,0.8-0.5,1.2c-0.4,0.5-1,1.3-2,2.7c-0.8,1-1.5,2.1-2,3.4c-0.1,0.5,0,1.1,0.2,1.5l0,0c0.1,0.4,0.3,0.8,0.7,1.1
									c0.3,0.2,0.6,0.6,0.8,0.9l0.3,0.6l0.6,1.4c0.2,0.5,0.3,1,0.4,1.5l0.1,0.7c0.1,0.5,0.2,0.9,0.4,1.3c0.2,0.4,0.6,0.7,1,0.9
									c0.7,0.3,1.4,0.5,2.2,0.5c1.9,0.2,1.6-0.1,1.5,0.3s0.3,1.1,1.7,1.3c0.4,0,0.7,0.2,1,0.5c0.3,0.4,0.6,0.8,0.9,1.2
									c0.5,0.4,1.2,1,1.6,1.4c0.6,0.5,1-1.4,0.8-1.3s-1.8-0.1-1.9-0.5s-1-2.5-0.8-3.9c0.1-0.8-1.3-0.6-1.7-0.5s-1.1,0.5-1.5,0.5
									c-1.1,0.2-0.8-0.9-0.9-1.4c-0.4-2.7,0.8-4,1.6-4.5c0.5-0.2,1-0.4,1.5-0.4c0.8-0.1,1.5-0.2,2.3-0.4c0.4-0.2,0.9,0,1.1,0.4
									c0,0.1,0.1,0.2,0.1,0.2c0,0.5,0.2,1,0.4,1.5c0.4,0.5,0.6-0.6,0.6-0.6l0.1-1.3v-0.8c0.1-0.5,0.3-0.9,0.7-1.2
									c0.8-0.6,1.5-1.3,2-2.1c0.2-0.4,0.6-1,0.9-1.4c2-2.5,5-3.9,8.2-3.8h0.9c0.4,0,0.6,0.3,0.4,0.7c-0.3,1,1.6,0,1.6,0l0.3-0.2
									c0.2-0.1,0.7-0.4,1.1-0.6l1-0.5c0.8-0.4,0.4-1.1-0.2-1.6c-0.1-0.1-0.2-0.2-0.3-0.4c-0.1-0.4-0.2-0.7-0.2-1.1
									c-0.1-0.2-0.1-0.5-0.2-0.7c0-0.2-0.2-0.3-0.3-0.3c-0.2,0-0.4,0-0.6-0.2c-0.1-0.2-0.2-0.4-0.2-0.6c-0.2-0.3-0.5-0.4-0.8-0.4
									c-0.4,0-0.8-0.1-1.1-0.2c-1-0.2,0-1.4,0.7-2.2c0.3-0.3,0.7-0.5,1.1-0.6l0.5-0.1h0.2c0.2,0,0.4-0.2,0.4-0.4
									c0-0.1,0-0.3,0-0.4c-0.1-0.7-0.2-0.1,0.6-1.1c0.2-0.2,0.3-0.4,0.3-0.7c-0.2-0.4-0.5-0.7-0.9-0.9c-0.2-0.2-0.8-0.4-1.2-0.6
									c-0.3-0.2-0.5-0.3-0.7-0.6c-0.2-0.2-0.4-0.3-0.6-0.5c-0.4-0.3-0.9-0.4-1.4-0.4c-0.3,0-0.5,0.2-0.7,0.3
									c-0.2,0.1-0.3,0.3-0.3,0.6c0.1,0.3,0,0.6-0.2,0.8l-0.5,0.5c-0.2,0.2-0.5,0.4-0.7,0.6c-0.4,0.3-0.7,0.7-0.8,1.2
									c-0.2,0.5-0.6,0.9-1.6-0.7c-1-1.5-1.7-1.6-2.2-1.4c-0.4,0.3-0.7,0.8-0.7,1.3c0,0.3-0.1,0.6-0.1,1c-0.1,1-0.5,1.5-1,0.7
									c-0.1-0.1-0.2-0.3-0.3-0.4c-0.4-0.1-0.8,0-1.1,0.1c-0.5,0.1-1,0.1-1.4,0l-0.6-0.1c-0.5-0.1-1,0.1-1.3,0.4
									c-1.1,1.1-2.3,2-3.6,2.9c-0.6,0.4-1.3,0.8-2.1,1.1c-0.1,0-0.2,0-0.3,0.2c0,0,0,0.1,0,0.1c0,0.1-0.1,0.3-0.5,0.3
									c-0.5,0-0.9,0.1-1.2,0.5l0.2-0.2c0.3-0.3,0.6-0.7,0.9-1c0.7-0.7,1.4-1.5,2.1-2.1l0.3-0.2c14.6-13.3,36.6-14.7,52.7-3.2
									c0.2,0.1,0.4,0.3,0.6,0.4l0,0l0.6,0.5c-0.4-0.3-0.9-0.4-1.4-0.4l-0.8,0.1c-0.5,0-1.1,0-1.6,0l-1.1-0.1c-0.5,0-1,0-1.5,0.2
									l-0.2,0.1c-0.4,0.2-0.8,0.2-1.2,0.1c-0.4-0.2-0.8-0.2-1.3-0.2l-1.2,0.1l-0.7,0.1c-0.5,0-1-0.1-1.4-0.2
									c-1.2-0.3-2.5-0.1-3.4,0.7c-0.6,0.6-1.4,1.1-2.2,1.5c-0.4,0.2-0.8,0.3-1.2,0.4c-0.4,0-0.8,0-1.2,0l-0.7-0.1l-1.5-0.2
									c-0.5,0-1,0.1-1.5,0.3l-0.3,0.2c-0.4,0.3-0.8,0.7-1,1.1c-0.3,0.7-0.7,1.3-1.1,1.9c-0.3,0.4-0.6,0.9-0.7,1.4l-0.4,1.6
									l-0.4,1.8c-0.1,0.5-0.1,1-0.1,1.6l0.2,1.5c0,0.5,0.1,1.1,0.1,1.6c0.1,0.4,0.4,0.7,1.4-0.8c0.3-0.5,0.6-0.9,1-1.2
									c0.3-0.2,0.6-0.4,0.9-0.6c0.5-0.2,1-0.3,1.5-0.3c0.8,0.1,1.5,0.6,2,1.3c0.2,0.4,0.4,0.7,0.7,1c0.3,0.3,0.6,0.2,0.5-0.1
									c-0.1-0.3-0.2-0.6-0.1-0.9c0-0.2,0.2-0.3,0.4-0.4c0.2,0,0.3,0.2,0.3,0.4c0,0.2,0.1,0.4,0.2,0.6c0.2,0.3,0.4,0.5,0.8,0.7
									c0.5,0,1,0,1.4-0.2c0.5-0.1,1.1-0.2,1.3,0.9c0,0.5-0.2,0.9-0.7,1.1c-0.7,0.3-1.4,0.5-2.1,0.6c-0.4,0.1-0.9,0.1-1.3,0.2
									c-0.3,0.1-0.7,0.1-1,0.1c-0.3-0.1-0.6-0.1-0.8-0.2c-0.3-0.1-0.5-0.3-0.7-0.5c-0.2-0.2-0.5-0.4-0.8-0.4c-0.4,0-0.8,0-1.2,0.1
									l-0.5,0.1c-0.5,0.1-1,0.3-1.5,0.6c-1.2,0.8-3.2,3-2,7.5c0.2,0.5,0.3,1,0.6,1.4l0.7,1.2c0.2,0.4,0.5,1,0.8,1.4l1.2,2.2
									c0.2,0.4,0.5,0.7,0.8,1c0.3,0.3,0.6,0.6,0.8,1l0.3,0.7c0.4,0.9,1.4,1.3,2.3,0.9h0.1c0.5-0.2,1-0.4,1.5-0.6
									c1.1-0.3,2.4-0.1,3.3,0.6c0.4,0.4,0.7,0.8,0.8,1.3c0,0.3,0.1,0.7,0.1,1.1c0.1,0.5,0.3,0.9,0.6,1.3c0.3,0.4,0.4,0.9,0.4,1.4
									l-0.2,2.2c0,0.4-0.2,1.1-0.2,1.6c0,1.2,0.3,2.4,0.8,3.5c0.2,0.5,0.4,1,0.5,1.5c0.3,1.2,0.5,1.9,0.6,2.4
									c0.2,0.5,0.5,0.9,0.9,1.2c1,0.6,2.8,1.2,3.9-1.2c0.7-1.4,1.2-2.9,1.6-4.4c0.1-0.4,0-1.1,0.1-1.5c0.1-0.3,0.4-0.6,0.6-0.9
									c0.4-0.4,0.6-0.8,0.6-1.3v-2.1c0-0.5-0.2-1.1-0.2-1.6c0-1,0.4-1.9,0.9-2.7c0.2-0.4,0.6-0.6,1.1-0.6c0.2,0.1,0.4,0.1,0.6,0.2
									c0.4,0.2,0.8,0,1-0.3c0,0,0,0,0,0l0,0c0.1-0.5,0-1-0.4-1.3c-0.2-0.3-0.3-0.7-0.1-1c0.2-0.5,0.4-1,0.5-1.5
									c0-0.7-0.1-1.3-1.4-2.3c-0.3-0.2-0.3-0.6-0.1-0.9c0,0,0,0,0,0l0.1-0.1c0.5-0.5,0.9-0.9,1.2-1.2c0.3-0.3,0.5-0.7,0.7-1.1
									c0.2-0.4,0.3-0.8,0.2-1.2c-0.1-0.2-0.3-0.3-0.5-0.4c-0.4-0.2-1-0.5-1.4-0.7c-1.9-1.2-4.5-3.1-4.5-3.1l-0.9-0.7
									c-0.4-0.3-0.8-0.6-1.2-1c-0.2-0.2-0.2-0.4,0.4-0.5c0.5,0,0.9,0.1,1.3,0.3c0.3,0.1,0.7,0.2,1,0.1c0.4-0.2,0.7-0.4,1-0.6
									c0.7-0.4,1.6-0.2,2.1,0.5c1,1,2.1,2.4,2.7,3.1c0.3,0.4,0.7,0.8,1.2,1.1l0.7,0.5c0.4,0.3,0.8,0.7,1.1,1.1l0.3,0.5
									c0.2,0.4,0.6,1,0.8,1.4l0.5,0.9l1,1.7l0.8,1.2c0.2,0.4,0.9,1.1,1.1,0.8c0.2-0.4,0.2-0.7,0.1-1.1c-0.1-0.8,0-1.7,0.1-2.5
									c0.1-0.4,0.3-1.1,0.4-1.5l0.2-0.9c0.1-0.5,0.2-1,0.4-1.5c0.2-0.3,0.6-0.5,1.3,0c0.4,0.3,1,0.3,1.1,0.7l0.4,1.1
									c0.1,0.4,0.2,0.8,0.3,1.2c0.1,0.3,0.2,0.7,0.4,1c0.1,0.3,0.3,0.5,0.6,0.6c0.2,0,0.3-0.2,0.3-0.4l0,0c0-0.2,0.2-0.3,0.5-0.1
									c0.3,0.2,0.6,0.4,0.9,0.7c0.2,0.2,0.5,0.3,0.7,0.1c0.2-0.3,0.4-0.7,0.3-1.1v-0.3c0-0.5,0-1.1,0.1-1.6l0.1-0.4
									c0.1-0.5,0-1-0.3-1.3c-0.2-0.3-0.6,0-0.3-0.2c0.4-0.2,0.7-0.6,0.9-1c0-0.4,0-0.8-0.1-1.2c0,0.2,0.1,0.3,0.1,0.5l0,0
									c0.1,0.2,0.1,0.4,0.1,0.5c0.6,2.1,1.1,4.3,1.3,6.5c1,9.1-1.1,18.3-5.8,26.2L131.6,334.3z M94.9,266.5c-26,0-47.1,21-47.1,47
									c0,9.8,3,19.3,8.6,27.2L94.9,404l38.5-63.3c15-21.2,10-50.6-11.3-65.6C114.2,269.5,104.7,266.5,94.9,266.5"/>
							</g>
						</g>
					</g>
				</g>
			</g>
		</g>
	</g>
</g>
<g>
	<path class="st7" d="M169.1,1127.7l0.4-0.9c0.6,0.9,1.3,1.4,2.2,1.2c1.2-0.2,1.7-1.7,1.4-3.2c-0.3-1.4-1.1-2-2-1.9
		c-0.4,0.1-0.9,0.4-1.3,0.9l-0.6-0.5l-0.1-5.7l3.8-0.8l0,1.2l-3.1,0.6l0,3.7c0.2-0.3,0.7-0.6,1.1-0.7c1.3-0.3,2.4,0.8,2.8,2.8
		c0.5,2.2-0.3,4.3-2,4.6C170.8,1129.5,169.8,1128.7,169.1,1127.7z"/>
</g>
<g>
	<path class="st7" d="M150,1282l0.4-0.9c0.6,0.9,1.3,1.4,2.2,1.2c1.2-0.2,1.7-1.7,1.4-3.2c-0.3-1.4-1.1-2-2-1.9
		c-0.4,0.1-0.9,0.4-1.3,0.9l-0.6-0.5l-0.1-5.7l3.8-0.8l0,1.2l-3.1,0.6l0,3.7c0.2-0.3,0.7-0.6,1.1-0.7c1.3-0.3,2.4,0.8,2.8,2.8
		c0.5,2.2-0.3,4.3-2,4.6C151.6,1283.8,150.6,1283,150,1282z"/>
</g>
<g>
	<path class="st7" d="M152.6,1425.1l0.5-0.9c0.7,0.9,1.5,1.4,2.4,1.2c1.3-0.2,1.9-1.7,1.6-3.2c-0.3-1.4-1.2-2-2.2-1.9
		c-0.5,0.1-1,0.4-1.4,0.9l-0.6-0.5l-0.1-5.7l4.3-0.8l0,1.2l-3.5,0.6l0,3.7c0.3-0.3,0.8-0.6,1.2-0.7c1.5-0.3,2.7,0.8,3.2,2.8
		c0.5,2.2-0.3,4.3-2.2,4.6C154.4,1426.9,153.3,1426.2,152.6,1425.1z"/>
</g>
</svg>
