<svg id="Layer_1" data-name="Layer 1" xmlns="http://www.w3.org/2000/svg" xmlns:xlink="http://www.w3.org/1999/xlink" viewBox="0 0 189.67 1486.26"><defs><style>.cls-1,.cls-4,.cls-6{fill:none;}.cls-2{fill:#0d5360;}.cls-3{clip-path:url(#clip-path);}.cls-4{stroke:#231f20;stroke-linecap:round;}.cls-4,.cls-6{stroke-linejoin:round;stroke-width:3px;}.cls-5{clip-path:url(#clip-path-2);}.cls-6{stroke:#646464;}.cls-7{opacity:0.5;}.cls-8{fill:#1f191a;}.cls-9{fill:#fff;}.cls-10{clip-path:url(#clip-path-3);}.cls-11{clip-path:url(#clip-path-4);}.cls-12{opacity:0.75;}.cls-13{clip-path:url(#clip-path-5);}.cls-14{fill:#646464;}</style><clipPath id="clip-path" transform="translate(-0.04 -0.01)"><rect class="cls-1" x="13.36" y="762.17" width="158.75" height="95.67"/></clipPath><clipPath id="clip-path-2" transform="translate(-0.04 -0.01)"><rect class="cls-1" x="14.86" y="909.5" width="160.16" height="121"/></clipPath><clipPath id="clip-path-3" transform="translate(-0.04 -0.01)"><rect class="cls-1" x="35.61" y="257.17" width="116" height="152.67"/></clipPath><clipPath id="clip-path-4" transform="translate(-0.04 -0.01)"><rect class="cls-1" x="47.78" y="266.51" width="94.32" height="137.53"/></clipPath><clipPath id="clip-path-5" transform="translate(-0.04 -0.01)"><rect class="cls-1" x="-1.93" y="228.49" width="193.74" height="178.46"/></clipPath></defs><title>icons</title><metadata><?xpacket begin="﻿" id="W5M0MpCehiHzreSzNTczkc9d"?>
<x:xmpmeta xmlns:x="adobe:ns:meta/" x:xmptk="Adobe XMP Core 5.6-c111 79.158366, 2015/09/25-01:12:00        ">
   <rdf:RDF xmlns:rdf="http://www.w3.org/1999/02/22-rdf-syntax-ns#">
      <rdf:Description rdf:about=""
            xmlns:dc="http://purl.org/dc/elements/1.1/">
         <dc:title>
            <rdf:Alt>
               <rdf:li xml:lang="x-default">icons</rdf:li>
            </rdf:Alt>
         </dc:title>
      </rdf:Description>
   </rdf:RDF>
</x:xmpmeta>
                                                                                                    
                                                                                                    
                                                                                                    
                                                                                                    
                                                                                                    
                                                                                                    
                                                                                                    
                                                                                                    
                                                                                                    
                                                                                                    
                                                                                                    
                                                                                                    
                                                                                                    
                                                                                                    
                                                                                                    
                                                                                                    
                                                                                                    
                                                                                                    
                                                                                                    
                                                                                                    
                           
<?xpacket end="w"?></metadata>
<path id="_Path_" data-name=" Path " class="cls-2" d="M142.39,616.35a66.69,66.69,0,1,0-94.32,0l47.16,47.16Z" transform="translate(-0.04 -0.01)"/><g class="cls-3"><polyline class="cls-4" points="164.66 803.38 92.47 851.11 20.28 803.38"/><polyline class="cls-4" points="141.47 774.36 92.47 806.47 43.47 774.36"/></g><g class="cls-5"><path class="cls-6" d="M92.74,924V1024m0-99.94v0.07c0.19-.19,16.93-16.4,73.7-0.61v99.95c-57.1-15.88-73.7.61-73.7,0.61s-16.93-16.47-73.7-.68V923.42c57.09-15.88,73.7.61,73.7,0.61h0Z" transform="translate(-0.04 -0.01)"/></g><g id="_Group_" data-name=" Group "><g id="_Group_2" data-name=" Group 2" class="cls-7"><g id="_Group_3" data-name=" Group 3"><path id="_Path_3" data-name=" Path 3" class="cls-8" d="M0.44,172.76h0c-2.38-5.82,6.15-14.86,19.06-20.11L48,141l33.76-80.2A11.5,11.5,0,0,1,89,54.3L94.16,53c6.11-1.22,3.82,4.75,2.55,11l-11.1,53.37,2.87,7.12,35-14.24a123.17,123.17,0,0,1,13.64-4.43h0L148,79.66a10.87,10.87,0,0,1,3.44-4.12L156,73.33c1.21-.53,2.2.88,2.43,2.75l-2.77,26h0c7.58-1,13.52-.84,14.51,1.58h0c1,2.41-3.11,6.68-9.15,11.22L180.45,131c1.15,1.5,1.43,3.2.19,3.67l-4.7,1.52a10.9,10.9,0,0,1-5.34-.54l-25.27-10.76a125.59,125.59,0,0,1-13.24,6.6L97.15,145.69,99.73,152l45.19,30.43c5.31,3.62,11.11,6.29,5.9,9.68l-4.6,2.69a11.51,11.51,0,0,1-9.77.39L57.29,161.93l-29.21,11.9c-12.86,5.28-25.28,4.8-27.64-1.07" transform="translate(-0.04 -0.01)"/></g></g><path id="_Path_4" data-name=" Path 4" class="cls-9" d="M8.69,119.92h0c-2.38-5.83,6.15-14.86,19.06-20.11L56.17,88.17,89.93,8a11.5,11.5,0,0,1,7.26-6.55l5.17-1.25c6.11-1.22,3.82,4.75,2.55,11l-11,53.33,2.87,7.12,35-14.24A123.17,123.17,0,0,1,145.37,53h0l10.92-26.17a10.88,10.88,0,0,1,3.44-4.12l4.52-2.21c1.21-.53,2.2.88,2.43,2.75l-2.8,26h0c7.58-1,13.52-.84,14.51,1.58h0c1,2.41-3.11,6.68-9.15,11.22l19.48,16.14c1.15,1.5,1.42,3.2.19,3.67l-4.77,1.58a10.9,10.9,0,0,1-5.34-.54L153.61,72.06a125.6,125.6,0,0,1-13.25,6.6l-35,14.22L108,99.21l45.2,30.43c5.31,3.62,11.11,6.29,5.9,9.68l-4.6,2.69a11.5,11.5,0,0,1-9.77.39L65.54,109.09,36.33,121c-12.86,5.28-25.28,4.8-27.64-1.07" transform="translate(-0.04 -0.01)"/></g><g class="cls-7"><path d="M62.46,1162.74l-2.91.9-0.36,21.81-9.12,1.72,0.34-20.89c-3.6,1.09-7.22,2.06-10.79,3-1.49,9.22-1.72,18.53-.69,23.85,0.63,3.23,1.4,2.81,1.57,3.37-4.42.59-8.56,1.27-9.86-5.44-0.82-4.24,0-11.9,2.26-20.15l-3.23.63c-8,1.56-12-.89-12.53-3.61-1-5.06,6.81-7.23,9.84-7.82a29.07,29.07,0,0,1,9.54-.28C41,1148.52,47.4,1138.4,54.81,1137a14.6,14.6,0,0,1,5.25,0l-0.45,24.35,2.84-.95v2.36h0Zm-32.74-1.13c-4.94,1-7.69,2.68-7.3,4.7,0.34,1.77,3.28,3,8.79,2l2.53-.49q1-3.14,2.12-6.32a22.51,22.51,0,0,0-6.13.11h0Zm10.41,4.88c3-.65,6-1.36,9-2.15a81.17,81.17,0,0,0-8.16-2.09Zm9.58-3.11,0.71,0.26,0.38-21.36c-4.11,2.84-7.29,10.15-9.41,18.51,2.64,0.73,5.37,1.58,8.32,2.58h0Z" transform="translate(-0.04 -0.01)"/><path d="M82.07,1141.59a17.06,17.06,0,0,0-.2-1.73,2.2,2.2,0,0,0-2.57-1.75l-0.25.06c-1.39.27-3.36,1.64-3.42,6.05l-0.1,5.21,4.62-.9v2.62l-4.68.91-0.64,35.6c-0.2,9.43-5.13,12.16-9.24,13-3.86.75-8-1.27-8.8-5.39-1.13-5.82,3.39-8.61,9-11.61L66.43,1146c0.14-9.42,5.25-12.19,9.43-13,3.86-.75,8,1.27,8.8,5.39a15.83,15.83,0,0,1,.31,2.63Zm-19,53.68c1.33-.26,2.55-1.74,2.65-5.64l0.11-3.83c-3.73,2.1-6.36,4.45-5.7,7.87a2.61,2.61,0,0,0,2.94,1.6h0Z" transform="translate(-0.04 -0.01)"/><path d="M92.67,1146.1l-0.08,3.3c1.93-2.22,4.2-4.1,6.85-4.62,2.85-.55,4.88.76,5.35,3.17a4.94,4.94,0,0,1-3.79,5.86c-3.54.69-2.58-3.83-4.48-3.46s-2.78,1.26-4,2.87l-0.43,25.83L83,1180.82l0.56-33Z" transform="translate(-0.04 -0.01)"/><path d="M112,1128.41a5.13,5.13,0,0,1,1.94,10.07h0a5.07,5.07,0,0,1-6-3.94v-0.06a5.12,5.12,0,0,1,4-6.06Zm5.52,12.85-0.38,22.41a12,12,0,0,0,.13,2c0.27,1.39,1.1,2.28,3.63,1.79s5.14-4.68,7.27-7.19l2.15-.42c-2.35,3.48-7.86,13.29-12.8,14.25s-8.33-.62-9.25-5.36a16.09,16.09,0,0,1-.25-3.3l0.38-22.41Z" transform="translate(-0.04 -0.01)"/><path d="M139.44,1141.68a2,2,0,0,0-2.76-1.7c-5.32,1-6.73,12-5.4,18.85,0.73,3.74,2.07,6.63,5.94,5.88,4.5-.87,7.59-4.23,9.86-8.09l2.15-.42c-2.37,4-4.25,12.59-15.46,14.76-5.25,1-9.24-1.23-10.69-8.7-1.79-9.24-.18-22.23,12.1-24.62,3.42-.66,7.14-0.47,7.81,3a6.55,6.55,0,0,1,.09,2.15,3.07,3.07,0,0,0-1.66-.07,7,7,0,0,0-2,.77A7.2,7.2,0,0,0,139.44,1141.68Z" transform="translate(-0.04 -0.01)"/><path d="M171.3,1153.17a9,9,0,0,0,.1,2.21,2.08,2.08,0,0,0,2.73,1.9,5.14,5.14,0,0,0,1.61-.51c-0.72,5.79-3.3,6.68-5.45,7.1-3.67.71-6-.81-7.2-3.59-1.4,3-3.74,6.11-7.6,6.86-6.08,1.18-8.69-2.78-9.41-6.51-2.11-10.89-.72-24.69,11.94-27.15a7,7,0,0,1,4.55.76l0.06-1.72,9.05-1.76Zm-8.77-15.7a4.81,4.81,0,0,0-3.32-.54c-4.75.92-6.59,11.73-4.92,20.33,0.74,3.8,3,4.09,4.54,3.78s2.57-2,3.49-4a8.09,8.09,0,0,1-.08-2.09Z" transform="translate(-0.04 -0.01)"/></g><path class="cls-9" d="M55.46,1155.74l-2.91.9-0.36,21.81-9.12,1.72,0.34-20.89c-3.6,1.09-7.22,2.06-10.79,3-1.49,9.22-1.72,18.53-.69,23.85,0.63,3.23,1.4,2.81,1.57,3.37-4.42.59-8.56,1.27-9.86-5.44-0.82-4.24,0-11.9,2.26-20.15l-3.23.63c-8,1.56-12-.89-12.53-3.61-1-5.06,6.81-7.23,9.84-7.82a29.07,29.07,0,0,1,9.54-.28C34,1141.52,40.4,1131.4,47.81,1130a14.6,14.6,0,0,1,5.25,0l-0.45,24.35,2.84-.95v2.36h0Zm-32.74-1.13c-4.94,1-7.69,2.68-7.3,4.7,0.34,1.77,3.28,3,8.79,2l2.53-.49q1-3.14,2.12-6.32a22.51,22.51,0,0,0-6.13.11h0Zm10.41,4.88c3-.65,6-1.36,9-2.15a81.17,81.17,0,0,0-8.16-2.09Zm9.58-3.11,0.71,0.26,0.38-21.36c-4.11,2.84-7.29,10.15-9.41,18.51,2.64,0.73,5.37,1.58,8.32,2.58h0Z" transform="translate(-0.04 -0.01)"/><path class="cls-9" d="M75.07,1134.59a17.06,17.06,0,0,0-.2-1.73,2.2,2.2,0,0,0-2.57-1.75l-0.25.06c-1.39.27-3.36,1.64-3.42,6.05l-0.1,5.21,4.62-.9v2.62l-4.68.91-0.64,35.6c-0.2,9.43-5.13,12.16-9.24,13-3.86.75-8-1.27-8.8-5.39-1.13-5.82,3.39-8.61,9-11.61L59.43,1139c0.14-9.42,5.25-12.19,9.43-13,3.86-.75,8,1.27,8.8,5.39a15.83,15.83,0,0,1,.31,2.63Zm-19,53.68c1.33-.26,2.55-1.74,2.65-5.64l0.11-3.83c-3.73,2.1-6.36,4.45-5.7,7.87a2.61,2.61,0,0,0,2.94,1.6h0Z" transform="translate(-0.04 -0.01)"/><path class="cls-9" d="M85.67,1139.1l-0.08,3.3c1.93-2.22,4.2-4.1,6.85-4.62,2.85-.55,4.88.76,5.35,3.17a4.94,4.94,0,0,1-3.79,5.86c-3.54.69-2.58-3.83-4.48-3.46s-2.78,1.26-4,2.87l-0.43,25.83L76,1173.82l0.56-33Z" transform="translate(-0.04 -0.01)"/><path class="cls-9" d="M105,1121.41a5.13,5.13,0,0,1,1.94,10.07h0a5.07,5.07,0,0,1-6-3.94v-0.06a5.12,5.12,0,0,1,4-6.06Zm5.52,12.85-0.38,22.41a12,12,0,0,0,.13,2c0.27,1.39,1.1,2.28,3.63,1.79s5.14-4.68,7.27-7.19l2.15-.42c-2.35,3.48-7.86,13.29-12.8,14.25s-8.33-.62-9.25-5.36a16.09,16.09,0,0,1-.25-3.3l0.38-22.41Z" transform="translate(-0.04 -0.01)"/><path class="cls-9" d="M132.44,1134.68a2,2,0,0,0-2.76-1.7c-5.32,1-6.73,12-5.4,18.85,0.73,3.74,2.07,6.63,5.94,5.88,4.5-.87,7.59-4.23,9.86-8.09l2.15-.42c-2.37,4-4.25,12.59-15.46,14.76-5.25,1-9.24-1.23-10.69-8.7-1.79-9.24-.18-22.23,12.1-24.62,3.42-.66,7.14-0.47,7.81,3a6.55,6.55,0,0,1,.09,2.15,3.07,3.07,0,0,0-1.66-.07,7,7,0,0,0-2,.77A7.2,7.2,0,0,0,132.44,1134.68Z" transform="translate(-0.04 -0.01)"/><path class="cls-9" d="M164.3,1146.17a9,9,0,0,0,.1,2.21,2.08,2.08,0,0,0,2.73,1.9,5.14,5.14,0,0,0,1.61-.51c-0.72,5.79-3.3,6.68-5.45,7.1-3.67.71-6-.81-7.2-3.59-1.4,3-3.74,6.11-7.6,6.86-6.08,1.18-8.69-2.78-9.41-6.51-2.11-10.89-.72-24.69,11.94-27.15a7,7,0,0,1,4.55.76l0.06-1.72,9.05-1.76Zm-8.77-15.7a4.81,4.81,0,0,0-3.32-.54c-4.75.92-6.59,11.73-4.92,20.33,0.74,3.8,3,4.09,4.54,3.78s2.57-2,3.49-4a8.09,8.09,0,0,1-.08-2.09Z" transform="translate(-0.04 -0.01)"/><g class="cls-7"><path d="M51.26,1114.09a6,6,0,0,0-.19,1.41,1.37,1.37,0,0,0,1.54,1.57c1.52,0,3.12-2.25,4-3.89H58.4c-1.75,2.06-5.18,7-8.16,7s-4.72-1.3-4.72-4.15a9.22,9.22,0,0,1,.23-1.94l1.45-6.86a4.68,4.68,0,0,0,.11-1c0-1.37-.72-2.25-1.75-2.25a3.88,3.88,0,0,0-2.21.69,5.37,5.37,0,0,1,.19,1.33,5.65,5.65,0,0,1-.08.8l-2.79,13.37H35.14l2.74-13a4.68,4.68,0,0,0,.11-1c0-1.37-.72-2.25-1.75-2.25a3.74,3.74,0,0,0-2.32.8l-3.31,15.45H25.16l4-19.05h5.49l-0.42,2a9,9,0,0,1,4.92-2,4.69,4.69,0,0,1,3.77,2.51c1.68-1.33,3.7-2.51,5.56-2.51a4.88,4.88,0,0,1,4.38,4.8,6.76,6.76,0,0,1-.08.88Z" transform="translate(-0.04 -0.01)"/><path d="M73.25,1101.17l-2.74,13a7.2,7.2,0,0,0-.15,1.18c0,0.84.38,1.45,1.91,1.45s3.51-2.13,5-3.35h1.34c-1.75,1.75-6.06,6.82-9,6.82-2.59,0-4.34-1-4.69-3.2-1.79,1.68-3.85,3.2-5.49,3.2-2.93,0-4.76-1.3-4.76-4.15a9.51,9.51,0,0,1,.23-1.94l2.71-13H63.1l-2.74,13a7.2,7.2,0,0,0-.15,1.18c0,0.84.38,1.45,1.9,1.45a5.07,5.07,0,0,0,2.71-1.37,8.91,8.91,0,0,1,.23-1.26l2.74-13h5.46Z" transform="translate(-0.04 -0.01)"/><path d="M86.28,1103.84a1.22,1.22,0,0,0-1.41-1.3c-3.2,0-5.26,6.21-5.26,10.33,0,2.25.46,4.08,2.78,4.08,2.71,0,4.88-1.6,6.63-3.58h1.3c-1.83,2.06-3.89,6.82-10.63,6.82-3.16,0-5.22-1.75-5.22-6.25,0-5.56,2.4-12.92,9.79-12.92,2.06,0,4.19.53,4.19,2.63a3.88,3.88,0,0,1-.19,1.26,1.82,1.82,0,0,0-1-.23,4.17,4.17,0,0,0-1.22.23A4.21,4.21,0,0,0,86.28,1103.84Z" transform="translate(-0.04 -0.01)"/><path d="M102,1120.17c-2.71,0-3.89-1.79-3.89-4.19a8.36,8.36,0,0,1,.23-1.91l1.45-6.86a6.37,6.37,0,0,0,.08-0.88c0-1.22-.53-2.36-1.72-2.36a3.76,3.76,0,0,0-2.4.84l-3.28,15.36H87l5.53-25.91,5.64-.76-2.06,9.67a9,9,0,0,1,5-2.06c2.13,0,4.38,2.32,4.38,4.84a3.14,3.14,0,0,1-.08.84l-1.56,7.28a7.55,7.55,0,0,0-.3,1.56c0,0.65.3,1.14,1.45,1.14a3,3,0,0,0,1-.11C104.91,1120,103.31,1120.17,102,1120.17Z" transform="translate(-0.04 -0.01)"/><path d="M129.87,1106.36a1.48,1.48,0,0,0,1.11.34c1.79,0,2.59-1.3,4-1.87l0.15,0.8a10.59,10.59,0,0,1-5.37,3.35c-0.72,7.66-4.88,11.43-8.69,11.43-4.08,0-5.83-1.72-5.83-6.25,0-9.37,4.76-13.41,10-13.41C128.88,1100.76,129.8,1103.58,129.87,1106.36Zm-2.93,3a1.55,1.55,0,0,1-1.6-1.72A2.87,2.87,0,0,1,127,1105c-0.11-1.26-.53-2-1.6-2-3.58,0-5.11,7.77-5.11,10.82,0,2.29,1.07,2.9,2.55,2.9,2.33,0,3.62-3.62,4.08-7.32h0Z" transform="translate(-0.04 -0.01)"/><path d="M144.43,1097.33q0.06-.5.08-1a1.3,1.3,0,0,0-1.29-1.31h-0.16c-0.84,0-2.13.57-2.67,3.12l-0.65,3h2.78l-0.27,1.52h-2.82l-4.38,20.58c-1.18,5.45-4.34,6.48-6.82,6.48a4.28,4.28,0,0,1-4.5-4.05v-0.07c0-3.51,2.93-4.61,6.55-5.72l4.61-21.76c1.14-5.45,4.42-6.48,6.93-6.48a4.28,4.28,0,0,1,4.5,4.05v0.07a9.39,9.39,0,0,1-.11,1.56h-1.78Zm-17.07,29c0.8,0,1.68-.72,2.17-3l0.5-2.21c-2.4.8-4.19,1.87-4.19,3.93A1.54,1.54,0,0,0,127.36,1126.33Z" transform="translate(-0.04 -0.01)"/></g><path class="cls-9" d="M44.26,1107.09a6,6,0,0,0-.19,1.41,1.37,1.37,0,0,0,1.54,1.57c1.52,0,3.12-2.25,4-3.89H51.4c-1.75,2.06-5.18,7-8.16,7s-4.72-1.3-4.72-4.15a9.22,9.22,0,0,1,.23-1.94l1.45-6.86a4.68,4.68,0,0,0,.11-1c0-1.37-.72-2.25-1.75-2.25a3.88,3.88,0,0,0-2.21.69,5.37,5.37,0,0,1,.19,1.33,5.65,5.65,0,0,1-.08.8l-2.79,13.37H28.14l2.74-13a4.68,4.68,0,0,0,.11-1c0-1.37-.72-2.25-1.75-2.25a3.74,3.74,0,0,0-2.32.8l-3.31,15.45H18.16l4-19.05h5.49l-0.42,2a9,9,0,0,1,4.92-2,4.69,4.69,0,0,1,3.77,2.51c1.68-1.33,3.7-2.51,5.56-2.51a4.88,4.88,0,0,1,4.38,4.8,6.76,6.76,0,0,1-.08.88Z" transform="translate(-0.04 -0.01)"/><path class="cls-9" d="M66.25,1094.17l-2.74,13a7.2,7.2,0,0,0-.15,1.18c0,0.84.38,1.45,1.91,1.45s3.51-2.13,5-3.35h1.34c-1.75,1.75-6.06,6.82-9,6.82-2.59,0-4.34-1-4.69-3.2-1.79,1.68-3.85,3.2-5.49,3.2-2.93,0-4.76-1.3-4.76-4.15a9.51,9.51,0,0,1,.23-1.94l2.71-13H56.1l-2.74,13a7.2,7.2,0,0,0-.15,1.18c0,0.84.38,1.45,1.9,1.45a5.07,5.07,0,0,0,2.71-1.37,8.91,8.91,0,0,1,.23-1.26l2.74-13h5.46Z" transform="translate(-0.04 -0.01)"/><path class="cls-9" d="M79.28,1096.84a1.22,1.22,0,0,0-1.41-1.3c-3.2,0-5.26,6.21-5.26,10.33,0,2.25.46,4.08,2.78,4.08,2.71,0,4.88-1.6,6.63-3.58h1.3c-1.83,2.06-3.89,6.82-10.63,6.82-3.16,0-5.22-1.75-5.22-6.25,0-5.56,2.4-12.92,9.79-12.92,2.06,0,4.19.53,4.19,2.63a3.88,3.88,0,0,1-.19,1.26,1.82,1.82,0,0,0-1-.23,4.17,4.17,0,0,0-1.22.23A4.21,4.21,0,0,0,79.28,1096.84Z" transform="translate(-0.04 -0.01)"/><path class="cls-9" d="M95,1113.17c-2.71,0-3.89-1.79-3.89-4.19a8.36,8.36,0,0,1,.23-1.91l1.45-6.86a6.37,6.37,0,0,0,.08-0.88c0-1.22-.53-2.36-1.72-2.36a3.76,3.76,0,0,0-2.4.84l-3.28,15.36H80l5.53-25.91,5.64-.76-2.06,9.67a9,9,0,0,1,5-2.06c2.13,0,4.38,2.32,4.38,4.84a3.14,3.14,0,0,1-.08.84l-1.56,7.28a7.55,7.55,0,0,0-.3,1.56c0,0.65.3,1.14,1.45,1.14a3,3,0,0,0,1-.11C97.91,1113,96.31,1113.17,95,1113.17Z" transform="translate(-0.04 -0.01)"/><path class="cls-9" d="M122.87,1099.36a1.48,1.48,0,0,0,1.11.34c1.79,0,2.59-1.3,4-1.87l0.15,0.8a10.59,10.59,0,0,1-5.37,3.35c-0.72,7.66-4.88,11.43-8.69,11.43-4.08,0-5.83-1.72-5.83-6.25,0-9.37,4.76-13.41,10-13.41C121.88,1093.76,122.8,1096.58,122.87,1099.36Zm-2.93,3a1.55,1.55,0,0,1-1.6-1.72A2.87,2.87,0,0,1,120,1098c-0.11-1.26-.53-2-1.6-2-3.58,0-5.11,7.77-5.11,10.82,0,2.29,1.07,2.9,2.55,2.9,2.33,0,3.62-3.62,4.08-7.32h0Z" transform="translate(-0.04 -0.01)"/><path class="cls-9" d="M137.43,1090.33q0.06-.5.08-1a1.3,1.3,0,0,0-1.29-1.31h-0.16c-0.84,0-2.13.57-2.67,3.12l-0.65,3h2.78l-0.27,1.52h-2.82l-4.38,20.58c-1.18,5.45-4.34,6.48-6.82,6.48a4.28,4.28,0,0,1-4.5-4.05v-0.07c0-3.51,2.93-4.61,6.55-5.72l4.61-21.76c1.14-5.45,4.42-6.48,6.93-6.48a4.28,4.28,0,0,1,4.5,4.05v0.07a9.39,9.39,0,0,1-.11,1.56h-1.78Zm-17.07,29c0.8,0,1.68-.72,2.17-3l0.5-2.21c-2.4.8-4.19,1.87-4.19,3.93A1.54,1.54,0,0,0,120.36,1119.33Z" transform="translate(-0.04 -0.01)"/><g class="cls-7"><path d="M67.81,1250.35a2.21,2.21,0,0,1-1.72-.8,4,4,0,0,0,1.72-3.28,2.45,2.45,0,0,0-2.78-2.55,3.2,3.2,0,0,0-3.54,3.32c0,6,8.57,6.33,8.57,14.82,0,5.37-4,8.84-10.1,8.84-3,0-8.42-.65-8.42-6.13a5.3,5.3,0,0,1,5.1-5.49h0.5c1.71,0,2.78.57,3.09,1.94-3.09.27-4.46,1.56-4.46,4.19a3.56,3.56,0,0,0,3.45,3.66h0.32c3,0,4.19-2.63,4.19-5.45,0-7.16-8.23-8.73-8.23-14.4,0-4,4.53-7.09,9.07-7.09,2,0,6.4.3,6.4,4.57C71,1248.68,69.79,1250.35,67.81,1250.35Z" transform="translate(-0.04 -0.01)"/><path d="M86.33,1256.68a1.48,1.48,0,0,0,1.11.34c1.79,0,2.59-1.3,4-1.87l0.15,0.8a10.59,10.59,0,0,1-5.37,3.35c-0.72,7.66-4.88,11.43-8.69,11.43-4.08,0-5.83-1.72-5.83-6.25,0-9.37,4.76-13.41,10-13.41C85.34,1251.08,86.25,1253.9,86.33,1256.68Zm-2.93,3a1.55,1.55,0,0,1-1.6-1.72,2.87,2.87,0,0,1,1.68-2.67c-0.11-1.26-.53-2-1.6-2-3.58,0-5.11,7.77-5.11,10.82,0,2.29,1.07,2.9,2.55,2.9,2.29,0,3.62-3.62,4.07-7.32h0Z" transform="translate(-0.04 -0.01)"/><path d="M106,1251.46l-2.74,13a7.2,7.2,0,0,0-.15,1.18c0,0.84.38,1.45,1.91,1.45s3.51-2.13,5-3.35h1.3c-1.75,1.75-6.06,6.82-9,6.82-2.59,0-4.34-1-4.69-3.2-1.79,1.68-3.85,3.2-5.49,3.2-2.93,0-4.76-1.3-4.76-4.15a9.51,9.51,0,0,1,.23-1.94l2.74-13h5.49l-2.74,13a7.2,7.2,0,0,0-.15,1.18c0,0.84.38,1.45,1.9,1.45a5.07,5.07,0,0,0,2.71-1.37,8.91,8.91,0,0,1,.23-1.26l2.74-13H106Z" transform="translate(-0.04 -0.01)"/><path d="M117.38,1245.44s-0.57,2.59-1.3,6h2.29l-0.31,1.52h-2.29c-2.63,12-2.59,12.42-2.59,12.61,0,0.88.38,1.45,1.91,1.45s3.51-2.13,5-3.35h1.3c-1.75,1.75-6.06,6.82-9,6.82s-4.73-1.3-4.73-4.15c0-2,2-10.1,2.63-13.37H109l0.3-1.52h1.28l1.14-5.26Z" transform="translate(-0.04 -0.01)"/><path d="M132.17,1270.51c-2.71,0-3.89-1.79-3.89-4.19a8.36,8.36,0,0,1,.23-1.91l1.45-6.86a6.37,6.37,0,0,0,.08-0.88c0-1.22-.53-2.36-1.72-2.36a3.76,3.76,0,0,0-2.4.84l-3.31,15.36h-5.49l5.53-25.91,5.64-.76-2.06,9.68a9,9,0,0,1,5-2.06c2.13,0,4.38,2.32,4.38,4.84a3.14,3.14,0,0,1-.08.84l-1.56,7.28a7.55,7.55,0,0,0-.3,1.56c0,0.65.3,1.14,1.45,1.14a3,3,0,0,0,1-.11C135.06,1270.28,133.46,1270.51,132.17,1270.51Z" transform="translate(-0.04 -0.01)"/></g><path class="cls-9" d="M60.81,1243.35a2.21,2.21,0,0,1-1.72-.8,4,4,0,0,0,1.72-3.28,2.45,2.45,0,0,0-2.78-2.55,3.2,3.2,0,0,0-3.54,3.32c0,6,8.57,6.33,8.57,14.82,0,5.37-4,8.84-10.1,8.84-3,0-8.42-.65-8.42-6.13a5.3,5.3,0,0,1,5.1-5.49h0.5c1.71,0,2.78.57,3.09,1.94-3.09.27-4.46,1.56-4.46,4.19a3.56,3.56,0,0,0,3.45,3.66h0.32c3,0,4.19-2.63,4.19-5.45,0-7.16-8.23-8.73-8.23-14.4,0-4,4.53-7.09,9.07-7.09,2,0,6.4.3,6.4,4.57C64,1241.68,62.79,1243.35,60.81,1243.35Z" transform="translate(-0.04 -0.01)"/><path class="cls-9" d="M79.33,1249.68a1.48,1.48,0,0,0,1.11.34c1.79,0,2.59-1.3,4-1.87l0.15,0.8a10.59,10.59,0,0,1-5.37,3.35c-0.72,7.66-4.88,11.43-8.69,11.43-4.08,0-5.83-1.72-5.83-6.25,0-9.37,4.76-13.41,10-13.41C78.34,1244.08,79.25,1246.9,79.33,1249.68Zm-2.93,3a1.55,1.55,0,0,1-1.6-1.72,2.87,2.87,0,0,1,1.68-2.67c-0.11-1.26-.53-2-1.6-2-3.58,0-5.11,7.77-5.11,10.82,0,2.29,1.07,2.9,2.55,2.9,2.29,0,3.62-3.62,4.07-7.32h0Z" transform="translate(-0.04 -0.01)"/><path class="cls-9" d="M99,1244.46l-2.74,13a7.2,7.2,0,0,0-.15,1.18c0,0.84.38,1.45,1.91,1.45s3.51-2.13,5-3.35h1.3c-1.75,1.75-6.06,6.82-9,6.82-2.59,0-4.34-1-4.69-3.2-1.79,1.68-3.85,3.2-5.49,3.2-2.93,0-4.76-1.3-4.76-4.15a9.51,9.51,0,0,1,.23-1.94l2.74-13h5.47l-2.74,13a7.2,7.2,0,0,0-.15,1.18c0,0.84.38,1.45,1.9,1.45a5.07,5.07,0,0,0,2.71-1.37,8.91,8.91,0,0,1,.23-1.26l2.74-13H99Z" transform="translate(-0.04 -0.01)"/><path class="cls-9" d="M110.38,1238.44s-0.57,2.59-1.3,6h2.29l-0.31,1.52h-2.29c-2.63,12-2.59,12.42-2.59,12.61,0,0.88.38,1.45,1.91,1.45s3.51-2.13,5-3.35h1.3c-1.75,1.75-6.06,6.82-9,6.82s-4.73-1.3-4.73-4.15c0-2,2-10.1,2.63-13.37H102l0.3-1.52h1.28l1.14-5.26Z" transform="translate(-0.04 -0.01)"/><path class="cls-9" d="M125.17,1263.51c-2.71,0-3.89-1.79-3.89-4.19a8.36,8.36,0,0,1,.23-1.91l1.45-6.86a6.37,6.37,0,0,0,.08-0.88c0-1.22-.53-2.36-1.72-2.36a3.76,3.76,0,0,0-2.4.84l-3.31,15.36h-5.49l5.53-25.91,5.64-.76-2.06,9.68a9,9,0,0,1,5-2.06c2.13,0,4.38,2.32,4.38,4.84a3.14,3.14,0,0,1-.08.84l-1.56,7.28a7.55,7.55,0,0,0-.3,1.56c0,0.65.3,1.14,1.45,1.14a3,3,0,0,0,1-.11C128.06,1263.28,126.46,1263.51,125.17,1263.51Z" transform="translate(-0.04 -0.01)"/><g class="cls-7"><path d="M80.06,1310.87l-2.91.9-0.36,21.81-9.12,1.77L68,1314.46c-3.6,1.09-7.22,2.06-10.79,3-1.49,9.23-1.72,18.53-.69,23.85,0.63,3.23,1.4,2.82,1.58,3.37-4.42.59-8.56,1.27-9.86-5.44-0.82-4.24,0-11.9,2.26-20.14l-3.23.63c-8,1.56-12-.89-12.53-3.61-1-5.06,6.81-7.23,9.85-7.82a29.07,29.07,0,0,1,9.54-.28c4.44-11.31,10.88-21.43,18.29-22.86a14.6,14.6,0,0,1,5.25,0l-0.45,24.39,2.84-.95v2.27Zm-32.74-1.13c-4.94,1-7.69,2.68-7.3,4.7,0.34,1.77,3.28,3,8.79,2l2.53-.49q1-3.15,2.12-6.33A22.55,22.55,0,0,0,47.32,1309.74Zm10.4,4.88c3-.65,6-1.36,9-2.15a81.17,81.17,0,0,0-8.11-2.1Zm9.58-3.11,0.71,0.26,0.38-21.36c-4.11,2.84-7.29,10.15-9.41,18.51,2.63,0.74,5.38,1.59,8.33,2.59h0Z" transform="translate(-0.04 -0.01)"/><path d="M97.3,1295.44l0.17,0.89c2,10.44,6.95,12.77,8.39,20.18a9.5,9.5,0,0,1,.19,1.34,49.93,49.93,0,0,0,3.32-4.91l2.06,1.83c-1.5,1.74-3.6,4.44-5.72,7.09-1,3.8-4.11,6.91-10,8.05-7.28,1.41-11.23,0-12.43-6.19-1-5.06.73-8.42,3.22-9.1,1.48-4.56,1.84-10.47,2-15.49Zm-8.56,27a5.14,5.14,0,0,1-2.39-.13c0.72,3.74,3.07,5,6.43,4.34,2.15-.42,4.74-3.68,3.79-8.55-0.76-3.92-4.26-6.73-5.93-14.61-0.41,3.3-.51,7.52-1.29,11,1.62,0.21,2.41,1.24,2.78,3.14a4.14,4.14,0,0,1-3.39,4.76v0.05Z" transform="translate(-0.04 -0.01)"/><path d="M112.66,1279.84a5.13,5.13,0,0,1,1.94,10.07h0a5.06,5.06,0,0,1-6-3.92l0-.08a5.12,5.12,0,0,1,4-6.06Zm5.52,12.85-0.38,22.41a12.16,12.16,0,0,0,.13,2c0.27,1.39,1.1,2.28,3.63,1.79s5.14-4.68,7.27-7.19l2.15-.42c-2.35,3.48-7.86,13.29-12.8,14.25s-8.33-.61-9.25-5.36a16.16,16.16,0,0,1-.25-3.3l0.38-22.41Z" transform="translate(-0.04 -0.01)"/><path d="M150.78,1308.7a9,9,0,0,0,.1,2.21,2.08,2.08,0,0,0,2.73,1.9,5.16,5.16,0,0,0,1.61-.51c-0.72,5.79-3.3,6.68-5.45,7.1-3.67.71-6-.8-7.2-3.59-1.4,3-3.74,6.11-7.6,6.86-6.08,1.18-8.69-2.78-9.41-6.52-2.11-10.89-.72-24.69,11.94-27.15a7,7,0,0,1,4.55.76l0.06-1.72,9.05-1.76ZM142,1293a4.81,4.81,0,0,0-3.32-.54c-4.75.92-6.59,11.73-4.92,20.33,0.74,3.8,3,4.09,4.54,3.78s2.57-2,3.49-4a8,8,0,0,1-.08-2.09Z" transform="translate(-0.04 -0.01)"/></g><path class="cls-9" d="M73.06,1303.87l-2.91.9-0.36,21.81-9.12,1.77L61,1307.46c-3.6,1.09-7.22,2.06-10.79,3-1.49,9.23-1.72,18.53-.69,23.85,0.63,3.23,1.4,2.82,1.58,3.37-4.42.59-8.56,1.27-9.86-5.44-0.82-4.24,0-11.9,2.26-20.14l-3.23.63c-8,1.56-12-.89-12.53-3.61-1-5.06,6.81-7.23,9.85-7.82a29.07,29.07,0,0,1,9.54-.28c4.44-11.31,10.88-21.43,18.29-22.86a14.6,14.6,0,0,1,5.25,0l-0.45,24.39,2.84-.95v2.27Zm-32.74-1.13c-4.94,1-7.69,2.68-7.3,4.7,0.34,1.77,3.28,3,8.79,2l2.53-.49q1-3.15,2.12-6.33A22.55,22.55,0,0,0,40.32,1302.74Zm10.4,4.88c3-.65,6-1.36,9-2.15a81.17,81.17,0,0,0-8.11-2.1Zm9.58-3.11,0.71,0.26,0.38-21.36c-4.11,2.84-7.29,10.15-9.41,18.51,2.63,0.74,5.38,1.59,8.33,2.59h0Z" transform="translate(-0.04 -0.01)"/><path class="cls-9" d="M90.3,1288.44l0.17,0.89c2,10.44,6.95,12.77,8.39,20.18a9.5,9.5,0,0,1,.19,1.34,49.93,49.93,0,0,0,3.32-4.91l2.06,1.83c-1.5,1.74-3.6,4.44-5.72,7.09-1,3.8-4.11,6.91-10,8.05-7.28,1.41-11.23,0-12.43-6.19-1-5.06.73-8.42,3.22-9.1,1.48-4.56,1.84-10.47,2-15.49Zm-8.56,27a5.14,5.14,0,0,1-2.39-.13c0.72,3.74,3.07,5,6.43,4.34,2.15-.42,4.74-3.68,3.79-8.55-0.76-3.92-4.26-6.73-5.93-14.61-0.41,3.3-.51,7.52-1.29,11,1.62,0.21,2.41,1.24,2.78,3.14a4.14,4.14,0,0,1-3.39,4.76v0.05Z" transform="translate(-0.04 -0.01)"/><path class="cls-9" d="M105.66,1272.84a5.13,5.13,0,0,1,1.94,10.07h0a5.06,5.06,0,0,1-6-3.92l0-.08a5.12,5.12,0,0,1,4-6.06Zm5.52,12.85-0.38,22.41a12.16,12.16,0,0,0,.13,2c0.27,1.39,1.1,2.28,3.63,1.79s5.14-4.68,7.27-7.19l2.15-.42c-2.35,3.48-7.86,13.29-12.8,14.25s-8.33-.61-9.25-5.36a16.16,16.16,0,0,1-.25-3.3l0.38-22.41Z" transform="translate(-0.04 -0.01)"/><path class="cls-9" d="M143.78,1301.7a9,9,0,0,0,.1,2.21,2.08,2.08,0,0,0,2.73,1.9,5.16,5.16,0,0,0,1.61-.51c-0.72,5.79-3.3,6.68-5.45,7.1-3.67.71-6-.8-7.2-3.59-1.4,3-3.74,6.11-7.6,6.86-6.08,1.18-8.69-2.78-9.41-6.52-2.11-10.89-.72-24.69,11.94-27.15a7,7,0,0,1,4.55.76l0.06-1.72,9.05-1.76ZM135,1286a4.81,4.81,0,0,0-3.32-.54c-4.75.92-6.59,11.73-4.92,20.33,0.74,3.8,3,4.09,4.54,3.78s2.57-2,3.49-4a8,8,0,0,1-.08-2.09Z" transform="translate(-0.04 -0.01)"/><g id="_Group_4" data-name=" Group 4"><g class="cls-7"><path d="M40.12,1395.17a2.21,2.21,0,0,1-1.72-.8,4,4,0,0,0,1.72-3.28,2.45,2.45,0,0,0-2.78-2.55,3.2,3.2,0,0,0-3.54,3.32c0,6,8.57,6.33,8.57,14.82,0,5.37-4,8.84-10.1,8.84-3,0-8.42-.65-8.42-6.13a5.3,5.3,0,0,1,5.1-5.49h0.5c1.71,0,2.78.57,3.09,1.94-3.09.27-4.46,1.56-4.46,4.19a3.56,3.56,0,0,0,3.45,3.66h0.32c3,0,4.19-2.63,4.19-5.45,0-7.16-8.23-8.73-8.23-14.4,0-4,4.53-7.09,9.07-7.09,2,0,6.4.3,6.4,4.57C43.28,1393.49,42.1,1395.17,40.12,1395.17Z" transform="translate(-0.04 -0.01)"/><path d="M58.61,1401.5a1.48,1.48,0,0,0,1.11.34c1.79,0,2.59-1.3,4-1.87l0.15,0.8a10.59,10.59,0,0,1-5.37,3.35c-0.72,7.66-4.88,11.43-8.69,11.43-4.08,0-5.83-1.72-5.83-6.25,0-9.37,4.76-13.41,10-13.41C57.61,1395.89,58.56,1398.71,58.61,1401.5Zm-2.93,3a1.55,1.55,0,0,1-1.6-1.72,2.87,2.87,0,0,1,1.68-2.67c-0.11-1.26-.53-2-1.6-2-3.58,0-5.11,7.77-5.11,10.82,0,2.29,1.07,2.9,2.55,2.9,2.35,0,3.64-3.66,4.1-7.32h0Z" transform="translate(-0.04 -0.01)"/><path d="M78.3,1396.28l-2.74,13a7.2,7.2,0,0,0-.15,1.18c0,0.84.38,1.45,1.91,1.45s3.51-2.13,5-3.35h1.29c-1.75,1.75-6.06,6.82-9,6.82-2.59,0-4.34-1-4.69-3.2-1.79,1.68-3.85,3.2-5.49,3.2-2.93,0-4.76-1.3-4.76-4.15a9.51,9.51,0,0,1,.23-1.94l2.74-13h5.49l-2.74,13a7.2,7.2,0,0,0-.15,1.18c0,0.84.38,1.45,1.9,1.45a5.07,5.07,0,0,0,2.71-1.37,8.91,8.91,0,0,1,.23-1.26l2.74-13H78.3Z" transform="translate(-0.04 -0.01)"/><path d="M89.69,1390.25s-0.57,2.59-1.3,6h2.29l-0.3,1.52H88.09c-2.63,12-2.59,12.42-2.59,12.61,0,0.88.38,1.45,1.9,1.45s3.51-2.13,5-3.35h1.3c-1.75,1.75-6.06,6.82-9,6.82S80,1414,80,1411.15c0-2,2-10.1,2.63-13.37H81.35l0.3-1.52h1.26l1.14-5.26Z" transform="translate(-0.04 -0.01)"/><path d="M106.53,1409.23a5.32,5.32,0,0,0-.19,1.22c0,0.84.42,1.41,1.91,1.41s3.51-2.13,5-3.35h1.36c-1.75,1.75-6.06,6.82-9,6.82s-4.72-1.3-4.72-4.15a9.22,9.22,0,0,1,.23-1.94l1.45-6.86a4.68,4.68,0,0,0,.11-1c0-1.37-.72-2.25-1.75-2.25a3.85,3.85,0,0,0-2.36.8l-3.28,15.39H89.73l5.53-25.91,5.64-.76-2.06,9.64a9.24,9.24,0,0,1,5-2,4.9,4.9,0,0,1,4.38,4.76,3.68,3.68,0,0,1-.08.91Z" transform="translate(-0.04 -0.01)"/><path d="M118.42,1412.58c1.87,0,5.07-2.21,6.4-5h1.71c-2.17,3.93-5.83,7.77-10.75,7.77-3.66,0-5.64-2.78-5.64-6.06,0-4.84,2.06-13.34,9-13.34,3.12,0,4.88,1.3,4.88,4,0,4.65-5,7.32-8.61,7.77a13.54,13.54,0,0,0-.11,1.64A2.93,2.93,0,0,0,118.42,1412.58Zm2-14.63c-2.13,0-3.89,4.31-4.69,7.89a6.14,6.14,0,0,0,6-5.75c0-.8-0.18-2.14-1.33-2.14h0Z" transform="translate(-0.04 -0.01)"/><path d="M141.9,1396.28l-2.71,13a7.61,7.61,0,0,0-.19,1.41,1,1,0,0,0,1.18,1.22,2.78,2.78,0,0,0,1.6-1.41c0-3.16,1.37-4.92,2.9-5a34.88,34.88,0,0,0,2.9-8.76l5.53-1.14v0.53c0,6.29,2.55,8.19,2.59,12.65v0.8a29.65,29.65,0,0,0,2.48-2.48l1,1.3c-1.07.84-2.59,2.17-4.11,3.47-1,2.1-3.16,3.54-6.71,3.54s-5.56-.8-6.25-3c-1.37,1.75-2.74,3-3.85,3-2.67,0-4.12-1.14-4.57-3-1.14,1.6-2.86,3.2-5.22,3.2-3.66,0-4.73-2.59-4.73-4.84,0-6.55,2.36-14.4,10-14.4a4.14,4.14,0,0,1,2.55,1l0.23-1H142Zm-6.06,2.86a2.85,2.85,0,0,0-1.87-.69c-2.86,0-5.14,6.06-5.14,11.24,0,2.29,1.26,2.7,2.21,2.7s1.71-.88,2.48-1.94a4.75,4.75,0,0,1,.19-1.22Zm9.26,11.05a3.4,3.4,0,0,1-1.33-.3,3.3,3.3,0,0,0-.08.61c0,1.64,1.79,2.59,3.28,2.59,1.3,0,3.16-1.6,3.16-4.53,0-2.36-1.72-4.38-1.79-9.14a62,62,0,0,1-2,6.21,1.9,1.9,0,0,1,1.26,2.13,2.45,2.45,0,0,1-2.49,2.41h0v0Z" transform="translate(-0.04 -0.01)"/><path d="M162.51,1409.23a5.63,5.63,0,0,0-.19,1.33,1.18,1.18,0,0,0,1.33,1.37,3,3,0,0,0,1-.11c-1.07,3.28-2.74,3.51-4,3.51-2.67,0-3.81-1.75-3.81-4.12a9.29,9.29,0,0,1,.23-2l2.44-11.43h-1.3l0.3-1.52h1.26l1.14-5.26,5.64-.76s-0.57,2.59-1.3,6h2.29l-0.31,1.52h-2.29Z" transform="translate(-0.04 -0.01)"/><path d="M84.42,1452.17l-2.91.89-0.36,21.81L72,1476.64l0.34-20.89c-3.6,1.09-7.22,2.06-10.79,2.95-1.49,9.23-1.72,18.53-.69,23.85,0.63,3.23,1.4,2.82,1.57,3.37-4.42.59-8.56,1.27-9.86-5.44-0.82-4.24,0-11.9,2.26-20.15l-3.23.63c-8,1.56-12-.89-12.53-3.61-1-5.06,6.81-7.23,9.85-7.82a29.07,29.07,0,0,1,9.54-.28c4.44-11.31,10.88-21.43,18.29-22.87a14.63,14.63,0,0,1,5.25,0l-0.42,24.4,2.84-.95v2.34h0ZM51.69,1451c-4.94,1-7.69,2.68-7.3,4.7,0.34,1.77,3.28,3,8.79,2l2.53-.49q1-3.15,2.12-6.32a22.51,22.51,0,0,0-6.14.14v0Zm10.41,4.88c3-.65,6-1.36,9-2.15a81.09,81.09,0,0,0-8.16-2.09Zm9.58-3.11,0.71,0.26,0.38-21.36c-4.11,2.83-7.29,10.15-9.41,18.51,2.63,0.77,5.36,1.62,8.31,2.62v0Z" transform="translate(-0.04 -0.01)"/><path d="M101.61,1436.77l0.17,0.89c2,10.44,6.95,12.77,8.39,20.18a9.35,9.35,0,0,1,.19,1.34,50.19,50.19,0,0,0,3.32-4.91l2.06,1.83c-1.5,1.74-3.6,4.45-5.72,7.09-1,3.8-4.11,6.91-10,8.05-7.28,1.41-11.23,0-12.44-6.19-1-5.06.73-8.42,3.22-9.1,1.48-4.56,1.84-10.47,2-15.49Zm-8.56,27a5.17,5.17,0,0,1-2.39-.13c0.72,3.73,3.07,5,6.43,4.33,2.15-.42,4.74-3.68,3.79-8.55-0.76-3.92-4.26-6.72-5.93-14.61-0.41,3.3-.51,7.52-1.29,11,1.62,0.21,2.41,1.24,2.78,3.14a4.14,4.14,0,0,1-3.34,4.77Z" transform="translate(-0.04 -0.01)"/><path d="M117,1421.17a5.13,5.13,0,0,1,1.94,10.07h0a5.06,5.06,0,0,1-6-3.92l0-.08a5.12,5.12,0,0,1,4-6.06Zm5.52,12.85-0.38,22.41a12.16,12.16,0,0,0,.13,2c0.27,1.39,1.1,2.28,3.63,1.79s5.13-4.68,7.27-7.19l2.15-.42c-2.35,3.48-7.86,13.29-12.8,14.25s-8.33-.62-9.25-5.36a16,16,0,0,1-.25-3.3l0.38-22.41Z" transform="translate(-0.04 -0.01)"/><path d="M155.14,1450a9.06,9.06,0,0,0,.1,2.21,2.08,2.08,0,0,0,2.73,1.9,5.21,5.21,0,0,0,1.61-.51c-0.72,5.79-3.3,6.68-5.45,7.1-3.67.71-6-.81-7.2-3.59-1.4,3-3.74,6.11-7.6,6.86-6.08,1.18-8.69-2.78-9.41-6.51-2.11-10.89-.72-24.69,11.94-27.15a7,7,0,0,1,4.55.76l0.06-1.72,9.05-1.76Zm-8.77-15.71a4.81,4.81,0,0,0-3.32-.54c-4.75.92-6.59,11.73-4.92,20.33,0.74,3.8,3,4.09,4.54,3.78s2.57-2,3.49-4a8,8,0,0,1-.08-2.09Z" transform="translate(-0.04 -0.01)"/></g><path class="cls-9" d="M33.12,1388.17a2.21,2.21,0,0,1-1.72-.8,4,4,0,0,0,1.72-3.28,2.45,2.45,0,0,0-2.78-2.55,3.2,3.2,0,0,0-3.54,3.32c0,6,8.57,6.33,8.57,14.82,0,5.37-4,8.84-10.1,8.84-3,0-8.42-.65-8.42-6.13a5.3,5.3,0,0,1,5.1-5.49h0.5c1.71,0,2.78.57,3.09,1.94-3.09.27-4.46,1.56-4.46,4.19a3.56,3.56,0,0,0,3.45,3.66h0.32c3,0,4.19-2.63,4.19-5.45,0-7.16-8.23-8.73-8.23-14.4,0-4,4.53-7.09,9.07-7.09,2,0,6.4.3,6.4,4.57C36.28,1386.49,35.1,1388.17,33.12,1388.17Z" transform="translate(-0.04 -0.01)"/><path class="cls-9" d="M51.61,1394.5a1.48,1.48,0,0,0,1.11.34c1.79,0,2.59-1.3,4-1.87l0.15,0.8a10.59,10.59,0,0,1-5.37,3.35c-0.72,7.66-4.88,11.43-8.69,11.43-4.08,0-5.83-1.72-5.83-6.25,0-9.37,4.76-13.41,10-13.41C50.61,1388.89,51.56,1391.71,51.61,1394.5Zm-2.93,3a1.55,1.55,0,0,1-1.6-1.72,2.87,2.87,0,0,1,1.68-2.67c-0.11-1.26-.53-2-1.6-2-3.58,0-5.11,7.77-5.11,10.82,0,2.29,1.07,2.9,2.55,2.9,2.35,0,3.64-3.66,4.1-7.32h0Z" transform="translate(-0.04 -0.01)"/><path class="cls-9" d="M71.3,1389.28l-2.74,13a7.2,7.2,0,0,0-.15,1.18c0,0.84.38,1.45,1.91,1.45s3.51-2.13,5-3.35h1.29c-1.75,1.75-6.06,6.82-9,6.82-2.59,0-4.34-1-4.69-3.2-1.79,1.68-3.85,3.2-5.49,3.2-2.93,0-4.76-1.3-4.76-4.15a9.51,9.51,0,0,1,.23-1.94l2.74-13h5.49l-2.74,13a7.2,7.2,0,0,0-.15,1.18c0,0.84.38,1.45,1.9,1.45a5.07,5.07,0,0,0,2.71-1.37,8.91,8.91,0,0,1,.23-1.26l2.74-13H71.3Z" transform="translate(-0.04 -0.01)"/><path class="cls-9" d="M82.69,1383.25s-0.57,2.59-1.3,6h2.29l-0.3,1.52H81.09c-2.63,12-2.59,12.42-2.59,12.61,0,0.88.38,1.45,1.9,1.45s3.51-2.13,5-3.35h1.3c-1.75,1.75-6.06,6.82-9,6.82S73,1407,73,1404.15c0-2,2-10.1,2.63-13.37H74.35l0.3-1.52h1.26l1.14-5.26Z" transform="translate(-0.04 -0.01)"/><path class="cls-9" d="M99.53,1402.23a5.32,5.32,0,0,0-.19,1.22c0,0.84.42,1.41,1.91,1.41s3.51-2.13,5-3.35h1.36c-1.75,1.75-6.06,6.82-9,6.82s-4.72-1.3-4.72-4.15a9.22,9.22,0,0,1,.23-1.94l1.45-6.86a4.68,4.68,0,0,0,.11-1c0-1.37-.72-2.25-1.75-2.25a3.85,3.85,0,0,0-2.36.8l-3.28,15.39H82.73l5.53-25.91,5.64-.76-2.06,9.64a9.24,9.24,0,0,1,5-2,4.9,4.9,0,0,1,4.38,4.76,3.68,3.68,0,0,1-.08.91Z" transform="translate(-0.04 -0.01)"/><path class="cls-9" d="M111.42,1405.58c1.87,0,5.07-2.21,6.4-5h1.71c-2.17,3.93-5.83,7.77-10.75,7.77-3.66,0-5.64-2.78-5.64-6.06,0-4.84,2.06-13.34,9-13.34,3.12,0,4.88,1.3,4.88,4,0,4.65-5,7.32-8.61,7.77a13.54,13.54,0,0,0-.11,1.64A2.93,2.93,0,0,0,111.42,1405.58Zm2-14.63c-2.13,0-3.89,4.31-4.69,7.89a6.14,6.14,0,0,0,6-5.75c0-.8-0.18-2.14-1.33-2.14h0Z" transform="translate(-0.04 -0.01)"/><path class="cls-9" d="M134.9,1389.28l-2.71,13a7.61,7.61,0,0,0-.19,1.41,1,1,0,0,0,1.18,1.22,2.78,2.78,0,0,0,1.6-1.41c0-3.16,1.37-4.92,2.9-5a34.88,34.88,0,0,0,2.9-8.76l5.53-1.14v0.53c0,6.29,2.55,8.19,2.59,12.65v0.8a29.65,29.65,0,0,0,2.48-2.48l1,1.3c-1.07.84-2.59,2.17-4.11,3.47-1,2.1-3.16,3.54-6.71,3.54s-5.56-.8-6.25-3c-1.37,1.75-2.74,3-3.85,3-2.67,0-4.12-1.14-4.57-3-1.14,1.6-2.86,3.2-5.22,3.2-3.66,0-4.73-2.59-4.73-4.84,0-6.55,2.36-14.4,10-14.4a4.14,4.14,0,0,1,2.55,1l0.23-1H135Zm-6.06,2.86a2.85,2.85,0,0,0-1.87-.69c-2.86,0-5.14,6.06-5.14,11.24,0,2.29,1.26,2.7,2.21,2.7s1.71-.88,2.48-1.94a4.75,4.75,0,0,1,.19-1.22Zm9.26,11.05a3.4,3.4,0,0,1-1.33-.3,3.3,3.3,0,0,0-.08.61c0,1.64,1.79,2.59,3.28,2.59,1.3,0,3.16-1.6,3.16-4.53,0-2.36-1.72-4.38-1.79-9.14a62,62,0,0,1-2,6.21,1.9,1.9,0,0,1,1.26,2.13,2.45,2.45,0,0,1-2.49,2.41h0v0Z" transform="translate(-0.04 -0.01)"/><path class="cls-9" d="M155.51,1402.23a5.63,5.63,0,0,0-.19,1.33,1.18,1.18,0,0,0,1.33,1.37,3,3,0,0,0,1-.11c-1.07,3.28-2.74,3.51-4,3.51-2.67,0-3.81-1.75-3.81-4.12a9.29,9.29,0,0,1,.23-2l2.44-11.43h-1.3l0.3-1.52h1.26l1.14-5.26,5.64-.76s-0.57,2.59-1.3,6h2.29l-0.31,1.52h-2.29Z" transform="translate(-0.04 -0.01)"/><path class="cls-9" d="M77.42,1445.17l-2.91.89-0.36,21.81L65,1469.64l0.34-20.89c-3.6,1.09-7.22,2.06-10.79,2.95-1.49,9.23-1.72,18.53-.69,23.85,0.63,3.23,1.4,2.82,1.57,3.37-4.42.59-8.56,1.27-9.86-5.44-0.82-4.24,0-11.9,2.26-20.15l-3.23.63c-8,1.56-12-.89-12.53-3.61-1-5.06,6.81-7.23,9.85-7.82a29.07,29.07,0,0,1,9.54-.28c4.44-11.31,10.88-21.43,18.29-22.87a14.63,14.63,0,0,1,5.25,0l-0.42,24.4,2.84-.95v2.34h0ZM44.69,1444c-4.94,1-7.69,2.68-7.3,4.7,0.34,1.77,3.28,3,8.79,2l2.53-.49q1-3.15,2.12-6.32a22.51,22.51,0,0,0-6.14.14v0Zm10.41,4.88c3-.65,6-1.36,9-2.15a81.1,81.1,0,0,0-8.16-2.09Zm9.58-3.11,0.71,0.26,0.38-21.36c-4.11,2.83-7.29,10.15-9.41,18.51,2.63,0.77,5.36,1.62,8.31,2.62v0Z" transform="translate(-0.04 -0.01)"/><path class="cls-9" d="M94.61,1429.77l0.17,0.89c2,10.44,6.95,12.77,8.39,20.18a9.35,9.35,0,0,1,.19,1.34,50.19,50.19,0,0,0,3.32-4.91l2.06,1.83c-1.5,1.74-3.6,4.45-5.72,7.09-1,3.8-4.11,6.91-10,8.05-7.28,1.41-11.23,0-12.44-6.19-1-5.06.73-8.42,3.22-9.1,1.48-4.56,1.84-10.47,2-15.49Zm-8.56,27a5.17,5.17,0,0,1-2.39-.13c0.72,3.73,3.07,5,6.43,4.33,2.15-.42,4.74-3.68,3.79-8.55-0.76-3.92-4.26-6.72-5.93-14.61-0.41,3.3-.51,7.52-1.29,11,1.62,0.21,2.41,1.24,2.78,3.14a4.14,4.14,0,0,1-3.34,4.77Z" transform="translate(-0.04 -0.01)"/><path class="cls-9" d="M110,1414.17a5.13,5.13,0,0,1,1.94,10.07h0a5.06,5.06,0,0,1-6-3.92l0-.08a5.12,5.12,0,0,1,4-6.06Zm5.52,12.85-0.38,22.41a12.16,12.16,0,0,0,.13,2c0.27,1.39,1.1,2.28,3.63,1.79s5.13-4.68,7.27-7.19l2.15-.42c-2.35,3.48-7.86,13.29-12.8,14.25s-8.33-.62-9.25-5.36a16,16,0,0,1-.25-3.3l0.38-22.41Z" transform="translate(-0.04 -0.01)"/><path class="cls-9" d="M148.14,1443a9.06,9.06,0,0,0,.1,2.21,2.08,2.08,0,0,0,2.73,1.9,5.21,5.21,0,0,0,1.61-.51c-0.72,5.79-3.3,6.68-5.45,7.1-3.67.71-6-.81-7.2-3.59-1.4,3-3.74,6.11-7.6,6.86-6.08,1.18-8.69-2.78-9.41-6.51-2.11-10.89-.72-24.69,11.94-27.15a7,7,0,0,1,4.55.76l0.06-1.72,9.05-1.76Zm-8.77-15.71a4.81,4.81,0,0,0-3.32-.54c-4.75.92-6.59,11.73-4.92,20.33,0.74,3.8,3,4.09,4.54,3.78s2.57-2,3.49-4a8,8,0,0,1-.08-2.09Z" transform="translate(-0.04 -0.01)"/></g><path class="cls-9" d="M169.61,1129.57l-0.17-.94,0.5-1.3c1.22-3.06,1.74-4.67,1.43-6.37-0.21-1.15-.74-2.14-1.75-2a2,2,0,0,0-1.26,1.22l-0.49-1a2.46,2.46,0,0,1,1.71-1.5c1.46-.27,2.38,1.28,2.68,2.9,0.38,2.09-.21,3.94-1.22,6.49l-0.39.93h0l3-.56,0.23,1.27Z" transform="translate(-0.04 -0.01)"/><path class="cls-9" d="M150.19,1284.1l-0.17-.94,0.5-1.3c1.22-3.06,1.74-4.67,1.43-6.37-0.21-1.14-.74-2.14-1.75-2a2,2,0,0,0-1.26,1.22l-0.49-1a2.46,2.46,0,0,1,1.71-1.5c1.46-.27,2.38,1.29,2.68,2.9,0.38,2.09-.21,3.94-1.22,6.49l-0.39.93h0l3-.56,0.23,1.27Z" transform="translate(-0.04 -0.01)"/><path class="cls-9" d="M154.61,1426.56l-0.17-.94,0.5-1.3c1.22-3.06,1.74-4.67,1.43-6.37-0.21-1.15-.74-2.14-1.75-2a2,2,0,0,0-1.26,1.22l-0.49-1a2.46,2.46,0,0,1,1.71-1.5c1.46-.27,2.38,1.28,2.68,2.9,0.38,2.09-.21,3.94-1.22,6.49l-0.39.93h0l3-.56,0.23,1.27Z" transform="translate(-0.04 -0.01)"/><g class="cls-10"><g id="Layer_1-2" data-name="Layer 1"><g class="cls-11"><g class="cls-12"><g class="cls-13"><path class="cls-14" d="M130.61,327.49a2.32,2.32,0,0,1-.15-2,4.69,4.69,0,0,0,.13-1.56,1.26,1.26,0,0,0-.42-0.87,3,3,0,0,0-1.51-.42,4.26,4.26,0,0,0-2.08.32c-0.38.22-.78,0.78-1.13,1a3.77,3.77,0,0,0-.86.52l-0.2.26-0.77,1-0.93,1.49c-0.23.38-.65,1-0.86,1.35a4,4,0,0,0-.48,2.91,9.57,9.57,0,0,1-.51,2.21,8,8,0,0,1-.84,1.35,3.43,3.43,0,0,0-.45,1.13c-0.08.43-.15,1.13-0.19,1.58s0.1,1,.91.68a4.83,4.83,0,0,0,1.31-.9c1.23-1.11,1.72-1.58,2.68-1.52a1.85,1.85,0,0,1,1.21.82c0.53,0.82,1.25,1.51,2.68-.61l3.17-4.64a3.31,3.31,0,0,0,.61-1.44,2.59,2.59,0,0,0-.38-1.36c-0.23-.37-0.7-0.92-0.93-1.3" transform="translate(-0.04 -0.01)"/><path class="cls-14" d="M88.92,317.9l-1.08-.55a6.53,6.53,0,0,0-1.5-.5,16,16,0,0,1-1.55-.39l-0.8-.25a2.24,2.24,0,0,1-1.11-.87l-0.35-.63-0.14-.3a4.53,4.53,0,0,0-.34-0.6,0.56,0.56,0,0,0-.35-0.28,0.71,0.71,0,0,1-.39-0.27,1.43,1.43,0,0,0-1-.2h-0.2a0.82,0.82,0,0,1-.82-0.17,1.61,1.61,0,0,0-.46-0.68c-0.25-.23-0.71-0.61-1-0.85A2.11,2.11,0,0,0,76.5,311a14.38,14.38,0,0,1-1.48.33,1.69,1.69,0,0,1-1.22-.64c-0.7-.73-1.37,0-1.77.67a3.31,3.31,0,0,1-.84,1,1,1,0,0,0-.18,1,5,5,0,0,1-.27,2.62c-1.33,3.34-.68,4.18-0.68,4.18l0.36,0.54a12.78,12.78,0,0,0,.88,1.13l0.34,0.38a5.89,5.89,0,0,1,.84,1.33,5.29,5.29,0,0,0,.8,1.37,5.65,5.65,0,0,0,1.33.82l0.28,0.16a6.4,6.4,0,0,1,1.24,1,6.67,6.67,0,0,1,1.24,1.63,27.59,27.59,0,0,0,4.39,12,8.53,8.53,0,0,0,1.07,1.18l1.78,1.8a2.8,2.8,0,0,0,1.39.61h0.16a1.37,1.37,0,0,0,1.08-.27c0.15-.2,0-0.49-0.45-0.66H86.73a3.9,3.9,0,0,1-1.1-.7,2.27,2.27,0,0,1-.46-1,3.12,3.12,0,0,0-.52-1.19,3.44,3.44,0,0,1-.54-1.26,5.49,5.49,0,0,1,0-1.44,1.58,1.58,0,0,1,.79-1.09,1.07,1.07,0,0,0,.65-0.76,2,2,0,0,1,.11-0.81,3.94,3.94,0,0,1,.42-0.73,1,1,0,0,0,.23-0.63v-0.32a1,1,0,0,0-.06-0.31,1.06,1.06,0,0,1,.2-0.66,1.46,1.46,0,0,0,.23-0.85v-1.09a2.52,2.52,0,0,1,.39-1.2,1.52,1.52,0,0,1,.84-0.66,1.38,1.38,0,0,0,.7-0.52,2.7,2.7,0,0,0,.46-0.83,5.44,5.44,0,0,0,.1-1.15,12.64,12.64,0,0,0-.13-1.51l-0.12-.75a2.37,2.37,0,0,1,.18-1.31c0.17-.29.44-0.81,0.6-1.17a3.8,3.8,0,0,0,.33-1.17,4.47,4.47,0,0,0-.15-1.16,2,2,0,0,0-.91-1" transform="translate(-0.04 -0.01)"/><path class="cls-14" d="M131.61,334.36l-0.52.81s-12.06,19-12,18.93L94.94,392.76,59.46,337h0a44,44,0,0,1-7-23.28,42.28,42.28,0,0,1,5.15-20.23h0a34,34,0,0,1,2-3.24l0.46-.66c0.44-.63.92-1.24,1.39-1.85a1.9,1.9,0,0,1-.06.49,7.47,7.47,0,0,0,0,1.14,1.91,1.91,0,0,1-.46,1.17c-0.37.46-1,1.28-2,2.73a13.56,13.56,0,0,0-2,3.36,3.5,3.5,0,0,0,.15,1.55v0a2,2,0,0,0,.65,1.08,2.76,2.76,0,0,1,.76.91l0.3,0.6,0.63,1.41a6.17,6.17,0,0,1,.41,1.53l0.08,0.74a4.41,4.41,0,0,0,.37,1.31,2.36,2.36,0,0,0,1,.88,8.26,8.26,0,0,0,2.16.54c1.87,0.21,1.56-.08,1.51.26s0.31,1.09,1.65,1.28a1.54,1.54,0,0,1,1,.45,14.06,14.06,0,0,0,.89,1.24c0.52,0.44,1.24,1,1.58,1.37,0.58,0.55,1-1.43.85-1.31s-1.81-.08-1.86-0.54-1-2.47-.8-3.87c0.12-.8-1.27-0.56-1.7-0.49s-1.07.46-1.5,0.54c-1.08.19-.82-0.9-0.88-1.44-0.41-2.73.75-4,1.57-4.46a4.47,4.47,0,0,1,1.52-.42,15.41,15.41,0,0,0,2.26-.44,0.81,0.81,0,0,1,1.15.63,3.9,3.9,0,0,0,.39,1.5c0.45,0.53.56-.63,0.56-0.63l0.13-1.29v-0.76a1.72,1.72,0,0,1,.73-1.16,7.84,7.84,0,0,0,2-2.08c0.24-.37.59-1,0.86-1.35a10.06,10.06,0,0,1,8.16-3.8h0.89c0.44,0,.55.26,0.41,0.68-0.32,1,1.55,0,1.55,0l0.35-.23c0.2-.12.68-0.38,1.07-0.58l1-.49c0.81-.42.4-1.14-0.18-1.64a1.45,1.45,0,0,1-.31-0.35,5.59,5.59,0,0,1-.21-1.1C88,286.48,88,286.24,87.91,286a0.41,0.41,0,0,0-.34-0.3,1.12,1.12,0,0,1-.63-0.16,1.24,1.24,0,0,1-.22-0.59,0.9,0.9,0,0,0-.84-0.37,11,11,0,0,1-1.13-.16c-1-.19,0-1.42.73-2.17a2.17,2.17,0,0,1,1.1-.62l0.54-.06h0.25a0.55,0.55,0,0,0,.45-0.39,2.06,2.06,0,0,0,0-.42c-0.08-.7-0.17-0.08.64-1.06a1.22,1.22,0,0,0,.34-0.7,1.43,1.43,0,0,0-.91-0.85c-0.24-.16-0.78-0.37-1.17-0.59A3.25,3.25,0,0,1,86,277a2.21,2.21,0,0,0-.58-0.47,3,3,0,0,0-1.42-.43,1.06,1.06,0,0,0-.65.34A0.81,0.81,0,0,0,83,277a0.85,0.85,0,0,1-.16.82l-0.54.46a6.76,6.76,0,0,1-.7.59,2.4,2.4,0,0,0-.8,1.16c-0.15.55-.56,0.94-1.63-0.69-1-1.47-1.7-1.6-2.16-1.41a1.8,1.8,0,0,0-.69,1.32c0,0.29-.08.65-0.12,1-0.06,1-.48,1.47-1,0.73a1.35,1.35,0,0,0-.32-0.38,1.85,1.85,0,0,0-1.11.14,3.83,3.83,0,0,1-1.43,0l-0.57-.13a1.54,1.54,0,0,0-1.3.43,21.66,21.66,0,0,1-3.58,2.88A9.38,9.38,0,0,1,64.82,285a0.23,0.23,0,0,0-.28.25c0,0.12-.14.32-0.54,0.26a1.54,1.54,0,0,0-1.25.49l0.22-.25c0.3-.34.6-0.68,0.91-1,0.69-.73,1.4-1.45,2.15-2.14l0.26-.24A42.06,42.06,0,0,1,119,279.17c0.21,0.14.41,0.29,0.61,0.44h0l0.63,0.48a2.25,2.25,0,0,0-1.43-.39l-0.83.09a9,9,0,0,1-1.59,0l-1.09-.13a3.22,3.22,0,0,0-1.51.25l-0.22.1a1.55,1.55,0,0,1-1.19.1,2.74,2.74,0,0,0-1.28-.16l-1.17.13-0.7.08a5,5,0,0,1-1.45-.19,3.78,3.78,0,0,0-3.45.74,8.76,8.76,0,0,1-2.15,1.49,4.1,4.1,0,0,1-1.22.39,5.68,5.68,0,0,1-1.18,0l-0.67-.09-1.49-.17a2.73,2.73,0,0,0-1.48.32l-0.34.21a3.09,3.09,0,0,0-1,1.15,10.55,10.55,0,0,1-1.09,1.85,4.47,4.47,0,0,0-.72,1.37l-0.38,1.56-0.42,1.79a4.8,4.8,0,0,0-.07,1.57l0.22,1.55a14,14,0,0,0,.13,1.59c0.13,0.43.43,0.68,1.42-.8a5.76,5.76,0,0,1,1-1.22,7.19,7.19,0,0,1,.92-0.58,2.62,2.62,0,0,1,1.51-.27,3,3,0,0,1,2,1.32,5.55,5.55,0,0,0,.72,1c0.31,0.32.58,0.16,0.47-.13a1.85,1.85,0,0,1-.11-0.93,0.39,0.39,0,0,1,.38-0.35,0.42,0.42,0,0,1,.32.36,2.17,2.17,0,0,0,.2.62,1.48,1.48,0,0,0,.75.66,3.47,3.47,0,0,0,1.45-.2c0.54-.14,1.09-0.21,1.26.87a1.11,1.11,0,0,1-.69,1.1,10.9,10.9,0,0,1-2.09.58,10.29,10.29,0,0,0-1.32.25,2,2,0,0,1-1,.07,6.65,6.65,0,0,1-.85-0.23,2.28,2.28,0,0,1-.73-0.53,1.47,1.47,0,0,0-.84-0.44,4.55,4.55,0,0,0-1.25.15l-0.49.12a5.44,5.44,0,0,0-1.47.59c-1.15.8-3.25,3-2,7.55a9.08,9.08,0,0,0,.58,1.42l0.66,1.23c0.2,0.39.54,1,.75,1.39l1.16,2.17a3.9,3.9,0,0,0,.82,1,3.22,3.22,0,0,1,.76,1l0.31,0.67a1.75,1.75,0,0,0,2.31.88l0.06,0a12,12,0,0,1,1.49-.56,4,4,0,0,1,3.31.61A2.48,2.48,0,0,1,105,316c0,0.32.09,0.69,0.11,1.08a3,3,0,0,0,.56,1.33,2.47,2.47,0,0,1,.43,1.42l-0.2,2.2c0,0.44-.15,1.15-0.16,1.59a9.17,9.17,0,0,0,.76,3.48,12.32,12.32,0,0,1,.49,1.51c0.29,1.18.48,1.93,0.61,2.39a2.4,2.4,0,0,0,.9,1.22c1,0.57,2.82,1.2,3.87-1.19a26.24,26.24,0,0,0,1.59-4.37c0.11-.42,0-1.14.14-1.55a2.52,2.52,0,0,1,.63-0.88,2.1,2.1,0,0,0,.61-1.32v-2.08c0-.52-0.22-1.12-0.24-1.57a4.65,4.65,0,0,1,.94-2.68,1.19,1.19,0,0,1,1.06-.57,2.72,2.72,0,0,1,.56.22,0.74,0.74,0,0,0,1-.34v0a1.35,1.35,0,0,0-.36-1.32,0.84,0.84,0,0,1-.09-1,5,5,0,0,0,.46-1.49c0-.66-0.07-1.26-1.42-2.32a0.67,0.67,0,0,1-.12-0.94l0.05-.06c0.51-.5.94-0.91,1.24-1.22a2.92,2.92,0,0,0,.7-1.07,1.76,1.76,0,0,0,.25-1.24,1.37,1.37,0,0,0-.54-0.44c-0.38-.2-1-0.47-1.42-0.71-1.92-1.18-4.49-3.12-4.49-3.12l-0.87-.7a7.49,7.49,0,0,1-1.22-1c-0.16-.21-0.15-0.42.39-0.46a3.07,3.07,0,0,1,1.31.34,1.86,1.86,0,0,0,1,.1,6.12,6.12,0,0,0,1-.58,1.63,1.63,0,0,1,2.13.47c1,1,2.11,2.37,2.72,3.14a6,6,0,0,0,1.15,1.07l0.73,0.48a5.2,5.2,0,0,1,1.12,1.11l0.35,0.5c0.25,0.36.63,1,.84,1.35l0.49,0.9,1,1.68,0.78,1.22c0.24,0.38.87,1.12,1.13,0.77a1.76,1.76,0,0,0,.13-1.13,8.35,8.35,0,0,1,.14-2.46c0.1-.43.31-1.11,0.42-1.55l0.2-.87a6.52,6.52,0,0,1,.42-1.54c0.2-.34.58-0.54,1.27,0,0.35,0.28,1,.32,1.15.74l0.35,1.11a7.76,7.76,0,0,1,.28,1.18,4,4,0,0,0,.37,1,1,1,0,0,0,.64.6,0.33,0.33,0,0,0,.27-0.38v0c0-.22.22-0.27,0.54-0.11a3.24,3.24,0,0,1,.9.68,0.5,0.5,0,0,0,.69.11,1.35,1.35,0,0,0,.29-1.08v-0.32a4.39,4.39,0,0,1,.14-1.56l0.11-.41a1.71,1.71,0,0,0-.34-1.33c-0.19-.26-0.63,0-0.32-0.23a2,2,0,0,0,.86-1,4.6,4.6,0,0,0-.11-1.2,2,2,0,0,0,.15.5h0c0.06,0.2.09,0.35,0.15,0.53a35.05,35.05,0,0,1,1.28,6.45,42,42,0,0,1-5.84,26.16ZM94.94,266.51a47.09,47.09,0,0,0-38.52,74.26L94.94,404l38.52-63.26a47.09,47.09,0,0,0-38.52-74.26" transform="translate(-0.04 -0.01)"/></g></g></g></g></g></svg>