<svg xmlns="http://www.w3.org/2000/svg" viewBox="0 0 875.81 428.97"><defs><style>.cls-1{isolation:isolate;}.cls-2{opacity:0.5;mix-blend-mode:multiply;}.cls-3,.cls-4{fill:none;stroke-miterlimit:10;stroke-width:5.28px;stroke-dasharray:21.14 21.14;}.cls-3{stroke:#1f191a;}.cls-4{stroke:#f0eff1;}</style></defs><title>lines</title><g class="cls-1"><g id="Layer_1" data-name="Layer 1"><g id="_Group_" data-name="&lt;Group&gt;" class="cls-2"><g id="_Group_2" data-name="&lt;Group&gt;"><path id="_Path_" data-name="&lt;Path&gt;" class="cls-3" d="M867.91,469.75S831.85,79.82,500.18,79.82c0,0-34-10-76.14-21.18" transform="translate(-30.55 -42.36)"/></g></g><g id="_Group_3" data-name="&lt;Group&gt;" class="cls-2"><g id="_Group_4" data-name="&lt;Group&gt;"><path id="_Path_2" data-name="&lt;Path&gt;" class="cls-3" d="M867.91,469.75s-300.58-403-753.72-297.93c0,0-38.13,8.55-83-3.09" transform="translate(-30.55 -42.36)"/></g></g><g id="_Group_5" data-name="&lt;Group&gt;" class="cls-2"><g id="_Group_6" data-name="&lt;Group&gt;"><path id="_Path_3" data-name="&lt;Path&gt;" class="cls-3" d="M866.4,457.19c42.66,17.11,6.24-208.55-83.6-220.88,0,0-37.73-3.22-80.43-25.3" transform="translate(-30.55 -42.36)"/></g></g><path id="_Path_4" data-name="&lt;Path&gt;" class="cls-4" d="M870.49,467.43S903.44,4.83,502.18,47.82c0,0-34,2-78.14,5.53" transform="translate(-30.55 -42.36)"/><path id="_Path_5" data-name="&lt;Path&gt;" class="cls-4" d="M42.18,161.82l58.89-8.3C656.23,17.46,866.4,457.19,866.4,457.19" transform="translate(-30.55 -42.36)"/><g id="_Group_7" data-name="&lt;Group&gt;"><path id="_Path_6" data-name="&lt;Path&gt;" class="cls-4" d="M870.49,467.43S984.09,308.67,791.2,225l-88.84-19.27" transform="translate(-30.55 -42.36)"/></g></g></g></svg>