<svg id="Layer_1" data-name="Layer 1" xmlns="http://www.w3.org/2000/svg" xmlns:xlink="http://www.w3.org/1999/xlink" viewBox="0 0 151.98 1398.71"><defs><style>.cls-1{fill:none;}.cls-2{clip-path:url(#clip-path);}.cls-3{clip-path:url(#clip-path-2);}.cls-4{opacity:0.75;isolation:isolate;}.cls-5{clip-path:url(#clip-path-3);}.cls-6{fill:#646464;}.cls-7{fill:#fff;}</style><clipPath id="clip-path" transform="translate(-38.38 -10.37)"><rect class="cls-1" x="23.67" y="-0.84" width="139.86" height="184.11"/></clipPath><clipPath id="clip-path-2" transform="translate(-38.38 -10.37)"><rect class="cls-1" x="38.26" y="10.37" width="113.7" height="165.79"/></clipPath><clipPath id="clip-path-3" transform="translate(-38.38 -10.37)"><rect class="cls-1" x="-21.67" y="-35.44" width="233.55" height="215.22"/></clipPath></defs><title>map</title><g class="cls-2"><g class="cls-3"><g id="Layer_1-2" data-name="Layer 1-2"><g class="cls-4"><g class="cls-5"><path class="cls-6" d="M138.21,83.92a2.45,2.45,0,0,1-.12-2.41,5.06,5.06,0,0,0,.12-1.93,2.17,2.17,0,0,0-.48-1.09,3.4,3.4,0,0,0-1.81-.48,4.66,4.66,0,0,0-2.53.36,13.2,13.2,0,0,0-1.33,1.21,4.89,4.89,0,0,0-1.09.6l-0.24.36-1,1.21-1.09,1.81c-0.24.48-.84,1.21-1.09,1.69a5.08,5.08,0,0,0-.6,3.5,17.11,17.11,0,0,1-.6,2.65,12,12,0,0,1-1,1.69,2.53,2.53,0,0,0-.48,1.33,9.37,9.37,0,0,0-.24,1.93c0,0.6.12,1.21,1.09,0.84a4.59,4.59,0,0,0,1.57-1.09c1.45-1.33,2-1.93,3.26-1.81a2.4,2.4,0,0,1,1.45,1c0.6,1,1.45,1.81,3.26-.72L139.18,89a4.23,4.23,0,0,0,.72-1.69,2.77,2.77,0,0,0-.48-1.69c-0.36-.6-1-1.21-1.21-1.69" transform="translate(-38.38 -10.37)"/><path class="cls-6" d="M87.93,72.35l-1.33-.6a10.61,10.61,0,0,0-1.81-.6,15,15,0,0,1-1.93-.48l-1-.24a3,3,0,0,1-1.33-1.09l-0.36-.72-0.12-.36-0.36-.72-0.36-.36a0.51,0.51,0,0,1-.48-0.36,1.49,1.49,0,0,0-1.21-.24H77.44a0.94,0.94,0,0,1-1-.24,2.16,2.16,0,0,0-.6-0.84c-0.24-.24-0.84-0.72-1.21-1.09a2.65,2.65,0,0,0-1.57-.48l-1.81.36a2.1,2.1,0,0,1-1.45-.72c-0.84-.84-1.69,0-2.17.84a4.72,4.72,0,0,1-1,1.21,1.48,1.48,0,0,0-.24,1.21,5.53,5.53,0,0,1-.36,3.13c-1.57,4-.84,5.06-0.84,5.06l0.48,0.6a12.82,12.82,0,0,0,1.09,1.33l0.36,0.48a11,11,0,0,1,1,1.57,7.69,7.69,0,0,0,1,1.69,11,11,0,0,0,1.57,1l0.36,0.24a4.82,4.82,0,0,1,1.45,1.21A7.36,7.36,0,0,1,73.95,85a32.88,32.88,0,0,0,5.31,14.47,14.46,14.46,0,0,0,1.33,1.45l2.17,2.17a4.23,4.23,0,0,0,1.69.72h0.24a1.36,1.36,0,0,0,1.33-.36c0.24-.24,0-0.6-0.48-0.84H85.4a5,5,0,0,1-1.33-.84,3.77,3.77,0,0,1-.6-1.21,7.38,7.38,0,0,0-.6-1.45,3.55,3.55,0,0,1-.6-1.57,4,4,0,0,1,0-1.69,1.87,1.87,0,0,1,1-1.33,1.38,1.38,0,0,0,.84-1,2.35,2.35,0,0,1,.12-1,5.24,5.24,0,0,1,.48-0.84A1.71,1.71,0,0,0,84.92,91V90.67a0.44,0.44,0,0,0-.12-0.36A2.24,2.24,0,0,1,85,89.47a1.62,1.62,0,0,0,.24-1.09V87.06a3.43,3.43,0,0,1,.48-1.45,3.25,3.25,0,0,1,1-.84,2.16,2.16,0,0,0,.84-0.6,2.63,2.63,0,0,0,.6-1,5.41,5.41,0,0,0,.12-1.33c0-.6-0.12-1.21-0.12-1.81l-0.12-1a2.41,2.41,0,0,1,.24-1.57A16.14,16.14,0,0,0,89,76.08a3.21,3.21,0,0,0,.36-1.45,3.06,3.06,0,0,0-.24-1.45c-0.24-.12-0.72-0.6-1.21-0.84" transform="translate(-38.38 -10.37)"/><path class="cls-6" d="M139.42,92.12l-0.6,1S124.23,116,124.35,115.87L95.29,162.53,52.36,95.38h0a52.57,52.57,0,0,1-8.44-28.09,50.51,50.51,0,0,1,6.27-24.36h0a41.56,41.56,0,0,1,2.41-3.86l0.6-.84c0.48-.72,1.09-1.45,1.69-2.29a1.09,1.09,0,0,1-.12.6v1.33a2.51,2.51,0,0,1-.6,1.45c-0.48.6-1.21,1.57-2.41,3.26a15.31,15.31,0,0,0-2.41,4.1,3,3,0,0,0,.24,1.81h0a2.29,2.29,0,0,0,.84,1.33,4.16,4.16,0,0,1,1,1.09l0.36,0.72,0.72,1.69A10,10,0,0,1,53,55.1l0.12,0.84a6,6,0,0,0,.48,1.57,2.64,2.64,0,0,0,1.21,1.09,6.57,6.57,0,0,0,2.65.6c2.29,0.24,1.93-.12,1.81.36s0.36,1.33,2,1.57a1.67,1.67,0,0,1,1.21.6l1.09,1.45c0.6,0.48,1.45,1.21,1.93,1.69,0.72,0.6,1.21-1.69,1-1.57s-2.17-.12-2.29-0.6-1.21-3-1-4.7c0.12-1-1.57-.72-2-0.6a10.61,10.61,0,0,1-1.81.6c-1.33.24-1-1.09-1.09-1.69-0.48-3.26,1-4.82,1.93-5.43A5.05,5.05,0,0,1,62,50.4a22.26,22.26,0,0,0,2.77-.48,1,1,0,0,1,1.33.48,0.42,0.42,0,0,0,.12.24,5.05,5.05,0,0,0,.48,1.81c0.48,0.6.72-.72,0.72-0.72l0.12-1.57v-1a2.24,2.24,0,0,1,.84-1.45,9.59,9.59,0,0,0,2.41-2.53,13.25,13.25,0,0,1,1.09-1.69,12.11,12.11,0,0,1,9.89-4.58h1.09a0.53,0.53,0,0,1,.48.84c-0.36,1.21,1.93,0,1.93,0l0.36-.24c0.24-.12.84-0.48,1.33-0.72l1.21-.6c1-.48.48-1.33-0.24-1.93a1.66,1.66,0,0,1-.36-0.48,5.13,5.13,0,0,1-.24-1.33c-0.12-.24-0.12-0.6-0.24-0.84a0.38,0.38,0,0,0-.36-0.36A0.89,0.89,0,0,1,86,33a1.71,1.71,0,0,1-.24-0.72,1.1,1.1,0,0,0-1-.48,4.33,4.33,0,0,1-1.33-.24c-1.21-.24,0-1.69.84-2.65a2.87,2.87,0,0,1,1.33-.72l0.6-.12h0.24A0.52,0.52,0,0,0,87,27.61V27.13c-0.12-.84-0.24-0.12.72-1.33A1.09,1.09,0,0,0,88.05,25,2.37,2.37,0,0,0,87,23.88a8,8,0,0,0-1.45-.72,2.45,2.45,0,0,1-.84-0.72c-0.24-.24-0.48-0.36-0.72-0.6a2.77,2.77,0,0,0-1.69-.48,1.8,1.8,0,0,0-.84.36,0.73,0.73,0,0,0-.36.72,0.94,0.94,0,0,1-.24,1l-0.6.6c-0.24.24-.6,0.48-0.84,0.72a2.4,2.4,0,0,0-1,1.45c-0.24.6-.72,1.09-1.93-0.84s-2-1.93-2.65-1.69A2.06,2.06,0,0,0,73,25.2c0,0.36-.12.72-0.12,1.21-0.12,1.21-.6,1.81-1.21.84-0.12-.12-0.24-0.36-0.36-0.48a2.39,2.39,0,0,0-1.33.12,4,4,0,0,1-1.69,0l-0.72-.12a1.78,1.78,0,0,0-1.57.48,30.6,30.6,0,0,1-4.34,3.5,12.47,12.47,0,0,1-2.53,1.33,0.34,0.34,0,0,0-.36.24v0.12c0,0.12-.12.36-0.6,0.36a1.62,1.62,0,0,0-1.45.6l0.24-.24c0.36-.36.72-0.84,1.09-1.21,0.84-.84,1.69-1.81,2.53-2.53l0.36-.24a50.71,50.71,0,0,1,63.54-3.86c0.24,0.12.48,0.36,0.72,0.48h0l0.72,0.6a2.77,2.77,0,0,0-1.69-.48l-1,.12h-1.93L120,25.93a4.69,4.69,0,0,0-1.81.24l-0.24.12a2,2,0,0,1-1.45.12,3.31,3.31,0,0,0-1.57-.24l-1.45.12-0.84.12a7.12,7.12,0,0,1-1.69-.24,4.51,4.51,0,0,0-4.1.84,10.31,10.31,0,0,1-2.65,1.81,6.8,6.8,0,0,1-1.45.48h-1.45l-0.84-.12-1.81-.24a4.84,4.84,0,0,0-1.81.36l-0.36.24a4.17,4.17,0,0,0-1.21,1.33A14.21,14.21,0,0,1,94,33.16a4.45,4.45,0,0,0-.84,1.69l-0.48,1.93-0.48,2.17A9.75,9.75,0,0,0,92,40.88l0.24,1.81c0,0.6.12,1.33,0.12,1.93s0.48,0.84,1.69-1a4.82,4.82,0,0,1,1.21-1.45l1.09-.72a4.84,4.84,0,0,1,1.81-.36,3.58,3.58,0,0,1,2.41,1.57,4.33,4.33,0,0,0,.84,1.21c0.36,0.36.72,0.24,0.6-.12a1.7,1.7,0,0,1-.12-1.09,0.65,0.65,0,0,1,.48-0.48,0.42,0.42,0,0,1,.36.48,1.71,1.71,0,0,0,.24.72,2.23,2.23,0,0,0,1,.84,3.83,3.83,0,0,0,1.69-.24c0.6-.12,1.33-0.24,1.57,1.09a1.3,1.3,0,0,1-.84,1.33,10,10,0,0,1-2.53.72c-0.48.12-1.09,0.12-1.57,0.24a4.1,4.1,0,0,1-1.21.12c-0.36-.12-0.72-0.12-1-0.24a2.16,2.16,0,0,1-.84-0.6,1.49,1.49,0,0,0-1-.48,5.87,5.87,0,0,0-1.45.12l-0.6.12a5.68,5.68,0,0,0-1.81.72c-1.45,1-3.86,3.62-2.41,9a7.13,7.13,0,0,0,.72,1.69l0.84,1.45a12,12,0,0,0,1,1.69L96,63.66a4.72,4.72,0,0,0,1,1.21,4.72,4.72,0,0,1,1,1.21l0.36,0.84A2.08,2.08,0,0,0,101.08,68h0.12l1.81-.72a4.66,4.66,0,0,1,4,.72,3.11,3.11,0,0,1,1,1.57c0,0.36.12,0.84,0.12,1.33a3.74,3.74,0,0,0,.72,1.57,2.77,2.77,0,0,1,.48,1.69L109,76.81c0,0.48-.24,1.33-0.24,1.93a10.28,10.28,0,0,0,1,4.22,10.61,10.61,0,0,1,.6,1.81c0.36,1.45.6,2.29,0.72,2.89a3.29,3.29,0,0,0,1.09,1.45c1.21,0.72,3.38,1.45,4.7-1.45a27.94,27.94,0,0,0,1.93-5.31c0.12-.48,0-1.33.12-1.81a5.66,5.66,0,0,1,.72-1.09,2.12,2.12,0,0,0,.72-1.57V75.36c0-.6-0.24-1.33-0.24-1.93a6.18,6.18,0,0,1,1.09-3.26,1.39,1.39,0,0,1,1.33-.72c0.24,0.12.48,0.12,0.72,0.24a0.94,0.94,0,0,0,1.21-.36h0a1.51,1.51,0,0,0-.48-1.57,1.11,1.11,0,0,1-.12-1.21,10.61,10.61,0,0,0,.6-1.81c0-.84-0.12-1.57-1.69-2.77a0.76,0.76,0,0,1-.12-1.09h0l0.12-.12,1.45-1.45a5,5,0,0,0,.84-1.33,2.08,2.08,0,0,0,.24-1.45,1.2,1.2,0,0,0-.6-0.48L123,55.22c-2.29-1.45-5.43-3.74-5.43-3.74l-1.09-.84a12.77,12.77,0,0,1-1.45-1.21c-0.24-.24-0.24-0.48.48-0.6a3.34,3.34,0,0,1,1.57.36,2.08,2.08,0,0,0,1.21.12,10.6,10.6,0,0,0,1.21-.72,1.93,1.93,0,0,1,2.53.6c1.21,1.21,2.53,2.89,3.26,3.74a5.14,5.14,0,0,0,1.45,1.33l0.84,0.6a6.91,6.91,0,0,1,1.33,1.33l0.36,0.6c0.24,0.48.72,1.21,1,1.69l0.6,1.09,1.21,2,1,1.45c0.24,0.48,1.09,1.33,1.33,1a1.71,1.71,0,0,0,.12-1.33,12.63,12.63,0,0,1,.12-3c0.12-.48.36-1.33,0.48-1.81l0.24-1.09A10,10,0,0,1,135.8,55c0.24-.36.72-0.6,1.57,0,0.48,0.36,1.21.36,1.33,0.84l0.48,1.33,0.36,1.45a5,5,0,0,0,.48,1.21,1.09,1.09,0,0,0,.72.72,0.42,0.42,0,0,0,.36-0.48h0c0-.24.24-0.36,0.6-0.12a6.63,6.63,0,0,1,1.09.84,0.6,0.6,0,0,0,.84.12,1.73,1.73,0,0,0,.36-1.33V59.2a10.37,10.37,0,0,1,.12-1.93l0.12-.48a1.74,1.74,0,0,0-.36-1.57c-0.24-.36-0.72,0-0.36-0.24a2.64,2.64,0,0,0,1.09-1.21,5.87,5.87,0,0,0-.12-1.45c0,0.24.12,0.36,0.12,0.6h0a1.31,1.31,0,0,1,.12.6,43,43,0,0,1,1.57,7.84,51,51,0,0,1-7,31.59ZM95.17,10.37A56.76,56.76,0,0,0,48.75,99.84l46.42,76.32,46.42-76.32A56.72,56.72,0,0,0,95.17,10.37" transform="translate(-38.38 -10.37)"/></g></g></g></g><path class="cls-7" d="M184.63,1048.73l0.48-1.09c0.72,1.09,1.57,1.69,2.65,1.45,1.45-.24,2-2,1.69-3.86s-1.33-2.41-2.41-2.29a3.1,3.1,0,0,0-1.57,1.09l-0.72-.6-0.12-6.87,4.58-1V1037l-3.74.72v4.46a2.53,2.53,0,0,1,1.33-.84c1.57-.36,2.89,1,3.38,3.38,0.6,2.65-.36,5.18-2.41,5.55C186.68,1050.9,185.48,1049.94,184.63,1048.73Z" transform="translate(-38.38 -10.37)"/><path class="cls-7" d="M161.6,1234.77l0.48-1.09c0.72,1.09,1.57,1.69,2.65,1.45,1.45-.24,2-2,1.69-3.86s-1.33-2.41-2.41-2.29a3.1,3.1,0,0,0-1.57,1.09l-0.72-.6-0.12-6.87,4.58-1v1.45l-3.74.72v4.46a2.53,2.53,0,0,1,1.33-.84c1.57-.36,2.89,1,3.38,3.38,0.6,2.65-.36,5.18-2.41,5.55C163.53,1236.94,162.33,1236,161.6,1234.77Z" transform="translate(-38.38 -10.37)"/><path class="cls-7" d="M164.74,1407.31l0.6-1.09c0.84,1.09,1.81,1.69,2.89,1.45,1.57-.24,2.29-2,1.93-3.86s-1.45-2.41-2.65-2.29a2.93,2.93,0,0,0-1.69,1.09l-0.72-.6-0.12-6.87,5.18-1v1.45l-4.22.72v4.46a3.53,3.53,0,0,1,1.45-.84c1.81-.36,3.26,1,3.86,3.38,0.6,2.65-.36,5.18-2.65,5.55A3.14,3.14,0,0,1,164.74,1407.31Z" transform="translate(-38.38 -10.37)"/></g></svg>