<svg id="Layer_1" data-name="Layer 1" xmlns="http://www.w3.org/2000/svg" viewBox="0 0 105.06 292.28"><defs><style>.cls-1{opacity:0.5;}.cls-2{fill:#1f191a;}.cls-3{fill:#fff;}</style></defs><title>plane</title><g id="_Group_4" data-name=" Group 4" class="cls-1"><g id="_Group_5" data-name=" Group 5"><path id="_Path_2" data-name=" Path 2" class="cls-2" d="M16.18,163.81h0c4.16-2.35,11.74,3.2,17,12.39l11.48,20.22,63.59,17.71a8.72,8.72,0,0,1,5.63,4.83l1.48,3.77c1.51,4.48-3.2,3.35-8.06,3l-41.19-3.17-5,2.85,14.08,24.91a93.59,93.59,0,0,1,4.59,9.83h0l20.72,5.7a8.28,8.28,0,0,1,3.35,2.2l2.1,3.19c0.52,0.86-.45,1.68-1.84,2.1l-19.68.44h0c1.49,5.6,1.94,10.06.22,11.07h0c-1.68,1-5.33-1.68-9.32-5.8L65,295.34c-1,1-2.26,1.37-2.75.5l-1.68-3.44a8.27,8.27,0,0,1-.12-4.07l5.65-20.12a95.25,95.25,0,0,1-6.24-9.32L45.8,234l-4.51,2.55L22.76,273.39c-2.21,4.34-3.66,9-6.71,5.37l-2.43-3.14a8.72,8.72,0,0,1-1.24-7.31l17.44-62.79L18,184.68c-5.21-9.17-6.05-18.56-1.86-20.89" transform="translate(-10.56 -4.05)"/></g></g><path id="_Path_3" data-name=" Path 3" class="cls-3" d="M27.18,4.3h0c4-1.57,10,4.25,13.54,13l7.72,19.36,54.2,23.22a7.8,7.8,0,0,1,4.39,5l0.84,3.57c0.79,4.14-3.23,2.55-7.5,1.68L64.29,62.33l-4.84,1.91L68.93,88a83.47,83.47,0,0,1,2.93,9.27h0l17.68,7.54a7.39,7.39,0,0,1,2.77,2.36l1.46,3.07c0.36,0.82-.61,1.48-1.88,1.63l-17.56-2h0c0.64,5.14.5,9.18-1.14,9.82h0c-1.64.64-4.52-2.14-7.55-6.27l-11,13.13c-1,.82-2.13,1-2.48.16l-1.05-3.25a7.39,7.39,0,0,1,.39-3.57l7.43-17.07a85.33,85.33,0,0,1-4.41-8.93L45,70.13l-4.3,1.79L19.86,102.21c-2.48,3.57-4.32,7.47-6.66,3.89L11.41,103a7.8,7.8,0,0,1-.21-6.63l23-53.58L26.32,23c-3.57-8.75-3.13-17.16.86-18.73" transform="translate(-10.56 -4.05)"/></svg>