<?xml version="1.0" encoding="utf-8"?>
<!-- Generator: Adobe Illustrator 20.0.0, SVG Export Plug-In . SVG Version: 6.00 Build 0)  -->
<svg version="1.1" id="Layer_1" xmlns="http://www.w3.org/2000/svg" xmlns:xlink="http://www.w3.org/1999/xlink" x="0px" y="0px"
	 viewBox="0 0 1257.5 518" style="enable-background:new 0 0 1257.5 518;" xml:space="preserve">
<style type="text/css">
	.st0{opacity:0.5;}
	.st1{fill:#FFFFFF;}
	.st2{fill:#7D7979;}
</style>
<title>text</title>
<g>
	<g id="Layer_1_1_">
		<g class="st0">
			<path d="M8.4,46.2l8.9-0.5l-1.4,52.2L7,98.4L8.4,46.2z"/>
			<path d="M22.7,45.4l8.3-0.5l8.3,25.9L40,44.3l8.7-0.5L47.4,96l-7.9,0.5l-8.7-27.1L30,97l-8.7,0.5L22.7,45.4z"/>
			<path d="M70.1,51.2l-6.3,0.4L64,43l21.5-1.3l-0.2,8.6L79,50.7l-1.2,43.5L69,94.7L70.1,51.2z"/>
			<path d="M89.3,41.5l8.9-0.5l-0.6,21.6l7.7-0.5l0.6-21.6l8.9-0.5l-1.4,52.2l-8.9,0.5l0.6-21.9l-7.7,0.5l-0.6,21.9l-8.9,0.5
				L89.3,41.5z"/>
			<path d="M120.1,39.6l19.6-1.2l-0.2,8.7l-10.7,0.6l-0.3,13l9.4-0.6l-0.2,8.6l-9.4,0.6L128,82.6l10.9-0.7l-0.2,8.7l-19.8,1.2
				L120.1,39.6z"/>
			<path d="M161.8,68.7l-8.7-31l9.2-0.5l4.3,19.2l5.4-19.8l9-0.5l-10.3,32.1l-0.6,20.6l-8.9,0.5L161.8,68.7z"/>
			<path d="M183.8,35.9l19.6-1.2l-0.2,8.7L192.4,44l-0.3,13l9.4-0.6l-0.2,8.7l-9.4,0.6L191.5,79l10.9-0.6l-0.2,8.7l-19.8,1.2
				L183.8,35.9z"/>
			<path d="M215,33.9l9.5-0.6l8.3,51.8l-8.9,0.5l-1.4-10.3l-8.1,0.5l-1.9,10.5l-8.6,0.5L215,33.9z M221.4,67.2l-2.2-17.1L216,67.5
				L221.4,67.2z"/>
			<path d="M236.9,32.8l9.2-0.5c9.1-0.5,15.7,4,15.3,15.7v0.7c-0.2,6.8-2.9,11.3-6.4,14.1l6.3,20.8l-9.5,0.6l-5.3-17.8h-0.1
				l-1.5,0.1l-0.5,18.2l-8.9,0.5L236.9,32.8z M245.6,58c3.9-0.2,6.8-2.7,6.9-8.8v-0.6c0.2-6.6-2.9-8.1-6.7-7.9h-0.2L245.1,58H245.6z
				"/>
			<path d="M277.6,30.4l19.6-1.2l-0.2,8.6l-10.7,0.6l-0.3,13l9.4-0.5l-0.2,8.7l-9.4,0.6l-0.4,13.3l10.9-0.6l-0.2,8.7l-19.8,1.2
				L277.6,30.4z"/>
			<path d="M301.7,29l8.3-0.5l8.3,25.9L319,28l8.7-0.5l-1.4,52.2l-7.9,0.5L309.8,53L309,80.6l-8.7,0.5L301.7,29z"/>
			<path d="M333,27.1l8.3-0.5C352.7,26,359,34,358.5,50.8v1.8c-0.5,16.8-7.2,25.6-18.6,26.2l-8.3,0.5L333,27.1z M341.1,70.4
				c4.2-0.2,8-4.3,8.3-17.3v-1.8c0.4-13-3.2-16.6-7.4-16.4h-0.4l-0.9,35.5H341.1z"/>
			<path d="M363.8,25.3l8.9-0.5L371.3,77l-8.9,0.5L363.8,25.3z"/>
			<path d="M378,24.5l8.3-0.5l8.3,25.9l0.7-26.4L404,23l-1.4,52.2l-7.9,0.5L386,48.6l-0.7,27.7l-8.7,0.5L378,24.5z"/>
			<path d="M407.8,49.7v-1.8c0.5-16.8,7.7-26,17.8-26.6c2.3-0.2,4.6,0.2,6.8,1.1l-0.2,9.5c-1.9-1.3-4.2-1.9-6.4-1.8
				c-5.1,0.3-8.5,5.7-8.8,17l-0.1,2.5c-0.4,13.6,3.5,16.5,7.1,16.3c0.3,0,0.5,0,0.8-0.1l0.4-13.3l-4.4,0.3l0.2-8.1l12.5-0.7
				l-0.7,27.7c-2.9,1.6-6.1,2.5-9.3,2.8C414.4,74.8,407.2,67.9,407.8,49.7z"/>
			<path d="M457.7,19.6l9.5-0.6l8.3,51.8l-8.9,0.5L465.2,61l-8.1,0.5L455.2,72l-8.6,0.5L457.7,19.6z M464.1,53l-2.2-17.1l-3.2,17.4
				L464.1,53z"/>
			<path d="M479.6,18.5l8-0.5c9.7-0.6,16.4,4.4,16,16.6v0.2c-0.3,11.8-6.9,17.8-16,19h-0.1l-0.4,16.4l-8.9,0.5L479.6,18.5z
				 M487.8,45.3c3.7-0.4,6.7-3.4,6.8-9.7v-0.2c0.2-6.6-2.2-9.3-6.1-9.1h-0.3L487.8,45.3L487.8,45.3L487.8,45.3z"/>
			<path d="M507.8,16.9l9.2-0.5c9.1-0.5,15.7,4,15.3,15.7v0.7c-0.2,6.8-2.9,11.3-6.4,14.1l6.3,20.8l-9.5,0.6l-5.3-17.8h-0.2
				l-1.5,0.1l-0.5,18.2l-8.9,0.5L507.8,16.9z M516.4,42.1c3.9-0.2,6.8-2.7,6.9-8.8v-0.6c0.2-6.6-2.8-8.1-6.7-7.9h-0.2L516,42.1
				H516.4z"/>
			<path d="M536.9,15.1l8.9-0.5l-1.4,52.2l-8.9,0.5L536.9,15.1z"/>
			<path d="M551.2,14.3l8.9-0.5L559,57.3l9.4-0.6l-0.2,8.7l-18.3,1.1L551.2,14.3z"/>
			<path d="M582.5,56.9l9.2-20.6c2.8-6.2,3.8-9.3,3.8-11.6c0.2-2.1-1.3-4.1-3.4-4.3c-0.3,0-0.7,0-1,0c-2.4,0.2-4.7,1.1-6.6,2.5
				l0.2-8.8c2.6-1.6,5.6-2.5,8.6-2.7c6.5-0.4,11.1,3.4,10.9,11v0.4c-0.1,4-1.2,7.2-4.4,14.4L592,54.9l11.1-0.7l-0.2,9.1l-20.6,1.2
				L582.5,56.9z"/>
			<path d="M606.5,38.5l0.1-2.8c0.5-18,5.1-25.7,13.3-26.2s12.4,6.6,12,24.7l-0.1,2.8c-0.5,18-5.2,25.7-13.3,26.2
				S606.1,56.5,606.5,38.5z M623,37.5l0.1-2.7c0.4-14.8-1.3-17.1-3.3-17s-3.9,2.6-4.3,17.4l-0.1,2.6c-0.4,14.8,1.3,17,3.4,16.9
				S622.6,52.2,623,37.5L623,37.5z"/>
			<path d="M639.7,18.7l-5.3,2l0.2-9.2l8-3l6.4-0.4l-1.4,52.5l-9,0.5L639.7,18.7z"/>
			<path d="M653.1,36.8v-1.6c0.6-21.5,6.8-27.7,15.1-28.2c2.1-0.2,4.2,0.1,6.1,0.8l-0.2,8.6c-1.6-0.9-3.4-1.3-5.2-1.3
				c-4.1,0.2-6.8,3.4-7.2,13.4c1.5-1.6,3.6-2.5,5.8-2.6c4.7-0.3,9.5,3.1,9.2,14.6V42c-0.3,10.7-5.4,18-12.3,18.4
				C656.5,60.9,652.7,54.2,653.1,36.8z M668.4,42.9v-1.5c0.2-6-1.5-7.9-3.6-7.8c-1.2,0.1-2.3,0.6-3.1,1.5l-0.2,6.3
				c-0.2,8,1.1,11,3.2,10.9S668.3,49.3,668.4,42.9L668.4,42.9z"/>
			<path d="M678.8,67.3c5.4-1.5,6.6-5.5,6.4-8.8l-4.5,0.3l0.3-10.4l10-0.6l-0.2,8.5c-0.2,7.9-4.1,13.2-11.3,14.6L678.8,67.3z"/>
		</g>
		<path class="st1" d="M1.4,39.2l8.9-0.5L8.9,90.9L0,91.4L1.4,39.2z"/>
		<path class="st1" d="M15.7,38.4l8.3-0.5l8.3,25.9L33,37.3l8.7-0.5L40.3,89l-7.9,0.5l-8.7-27.1L23,90l-8.7,0.5L15.7,38.4z"/>
		<path class="st1" d="M63.1,44.2l-6.3,0.4L57,36l21.5-1.3l-0.2,8.6L72,43.7l-1.2,43.5L62,87.7L63.1,44.2z"/>
		<path class="st1" d="M82.3,34.5l8.9-0.5l-0.6,21.6l7.7-0.5l0.6-21.6l8.9-0.5l-1.4,52.2l-8.9,0.5l0.6-21.9l-7.7,0.5l-0.6,21.9
			l-8.9,0.5L82.3,34.5z"/>
		<path class="st1" d="M113.1,32.6l19.6-1.2l-0.2,8.7l-10.7,0.6l-0.3,13l9.4-0.5l-0.2,8.6l-9.4,0.6l-0.4,13.3l10.9-0.7l-0.2,8.7
			l-19.8,1.2L113.1,32.6z"/>
		<path class="st1" d="M154.8,61.7l-8.7-31l9.2-0.5l4.3,19.2l5.4-19.8l9-0.5l-10.3,32.1l-0.6,20.6l-8.9,0.5L154.8,61.7z"/>
		<path class="st1" d="M176.8,28.9l19.6-1.2l-0.2,8.7L185.4,37l-0.3,13l9.4-0.5l-0.2,8.7l-9.4,0.6l-0.4,13.3l10.9-0.6l-0.2,8.7
			l-19.8,1.2L176.8,28.9z"/>
		<path class="st1" d="M208,26.9l9.5-0.6l8.3,51.8l-8.9,0.5l-1.4-10.3l-8.1,0.5l-1.9,10.5l-8.6,0.5L208,26.9z M214.4,60.2l-2.2-17.1
			L209,60.5L214.4,60.2z"/>
		<path class="st1" d="M229.9,25.8l9.2-0.5c9.1-0.5,15.6,4,15.3,15.7v0.7c-0.2,6.8-2.9,11.3-6.4,14.1l6.3,20.8l-9.5,0.6l-5.3-17.8
			h-0.1l-1.5,0.1l-0.5,18.2l-8.9,0.5L229.9,25.8z M238.6,51c3.9-0.2,6.8-2.7,6.9-8.8v-0.6c0.2-6.6-2.9-8.1-6.7-7.9h-0.2L238.1,51
			H238.6z"/>
		<path class="st1" d="M270.6,23.4l19.6-1.1l-0.2,8.6l-10.7,0.6l-0.3,13l9.4-0.5l-0.2,8.7l-9.4,0.5l-0.4,13.3l10.9-0.6l-0.2,8.7
			l-19.8,1.2L270.6,23.4z"/>
		<path class="st1" d="M294.7,22l8.3-0.5l8.3,25.9L312,21l8.7-0.5l-1.4,52.2l-7.9,0.5L302.8,46L302,73.6l-8.7,0.5L294.7,22z"/>
		<path class="st1" d="M326,20.1l8.3-0.5C345.7,19,352,27,351.5,43.8v1.8c-0.5,16.8-7.2,25.6-18.6,26.2l-8.3,0.5L326,20.1z
			 M334.1,63.4c4.2-0.2,8-4.3,8.3-17.3v-1.8c0.4-13-3.2-16.6-7.4-16.4h-0.4l-0.9,35.5H334.1z"/>
		<path class="st1" d="M356.8,18.3l8.9-0.5L364.3,70l-8.9,0.5L356.8,18.3z"/>
		<path class="st1" d="M371,17.5l8.3-0.5l8.3,25.9l0.7-26.4L397,16l-1.4,52.2l-7.9,0.5L379,41.6l-0.7,27.7l-8.7,0.5L371,17.5z"/>
		<path class="st1" d="M400.8,42.7v-1.8c0.5-16.8,7.7-26,17.8-26.6c2.3-0.2,4.6,0.2,6.8,1.1l-0.2,9.5c-1.9-1.3-4.2-1.9-6.4-1.9
			c-5.1,0.3-8.5,5.7-8.8,17l-0.1,2.5c-0.4,13.6,3.5,16.5,7.1,16.3c0.3,0,0.5,0,0.8-0.1l0.4-13.3l-4.4,0.3l0.2-8.1l12.5-0.7
			l-0.7,27.7c-2.9,1.6-6.1,2.5-9.3,2.8C407.4,67.8,400.2,60.9,400.8,42.7z"/>
		<path class="st1" d="M450.7,12.6l9.5-0.6l8.3,51.8l-8.9,0.5L458.2,54l-8.1,0.5L448.2,65l-8.6,0.5L450.7,12.6z M457.1,46l-2.2-17.1
			l-3.2,17.4L457.1,46z"/>
		<path class="st1" d="M472.6,11.5l8-0.5c9.7-0.6,16.4,4.4,16,16.6v0.2c-0.3,11.8-6.9,17.8-16,19h-0.1l-0.4,16.4l-8.9,0.5
			L472.6,11.5z M480.8,38.3c3.7-0.4,6.6-3.4,6.8-9.7v-0.2c0.2-6.6-2.2-9.3-6.1-9.1h-0.3L480.8,38.3L480.8,38.3L480.8,38.3z"/>
		<path class="st1" d="M500.8,9.9l9.2-0.5c9.1-0.5,15.7,4,15.3,15.7v0.7c-0.2,6.8-2.9,11.3-6.4,14.1l6.3,20.8l-9.5,0.6l-5.3-17.8
			h-0.2l-1.5,0.1l-0.5,18.2l-8.9,0.5L500.8,9.9z M509.4,35.1c3.9-0.2,6.8-2.7,6.9-8.8v-0.6c0.2-6.6-2.8-8.1-6.7-7.9h-0.2L509,35.1
			H509.4z"/>
		<path class="st1" d="M529.9,8.1l8.9-0.5l-1.4,52.2l-8.9,0.5L529.9,8.1z"/>
		<path class="st1" d="M544.2,7.3l8.9-0.5L552,50.3l9.4-0.5l-0.2,8.7l-18.3,1.1L544.2,7.3z"/>
		<path class="st1" d="M575.5,49.9l9.2-20.6c2.8-6.2,3.8-9.3,3.8-11.6c0.2-2.1-1.3-4.1-3.4-4.3c-0.3,0-0.7,0-1,0
			c-2.4,0.2-4.7,1.1-6.6,2.5l0.2-8.8c2.6-1.6,5.6-2.5,8.6-2.7c6.5-0.4,11.1,3.4,10.9,11v0.4c-0.1,4-1.2,7.2-4.4,14.4L585,47.9
			l11.1-0.7l-0.2,9.1l-20.6,1.2L575.5,49.9z"/>
		<path class="st1" d="M599.5,31.5l0.1-2.8c0.5-18,5.1-25.7,13.3-26.2s12.4,6.6,12,24.7l-0.1,2.8c-0.5,18-5.2,25.7-13.3,26.2
			S599.1,49.5,599.5,31.5z M616,30.5l0.1-2.7c0.4-14.8-1.3-17.1-3.3-17s-3.9,2.6-4.3,17.4l-0.1,2.6c-0.4,14.8,1.3,17,3.4,16.9
			S615.6,45.2,616,30.5L616,30.5z"/>
		<path class="st1" d="M632.7,11.7l-5.3,2l0.2-9.2l8-3l6.4-0.4l-1.4,52.5l-9,0.5L632.7,11.7z"/>
		<path class="st1" d="M646.1,29.8v-1.6c0.6-21.5,6.8-27.7,15.1-28.2c2.1-0.2,4.2,0.1,6.1,0.8l-0.2,8.6c-1.6-0.9-3.4-1.3-5.2-1.3
			c-4.1,0.2-6.8,3.4-7.2,13.4c1.5-1.6,3.6-2.5,5.8-2.6c4.7-0.3,9.5,3.1,9.2,14.6V35c-0.3,10.7-5.4,18-12.3,18.4
			C649.5,53.9,645.7,47.2,646.1,29.8z M661.4,35.9v-1.5c0.2-6-1.5-7.9-3.6-7.8c-1.2,0.1-2.3,0.6-3.1,1.5l-0.2,6.3
			c-0.2,8,1.1,11,3.2,10.9S661.3,42.3,661.4,35.9L661.4,35.9z"/>
		<path class="st1" d="M671.8,60.3c5.4-1.5,6.6-5.5,6.4-8.8l-4.5,0.3l0.3-10.4l10-0.6l-0.2,8.5c-0.2,7.9-4.1,13.2-11.3,14.6
			L671.8,60.3z"/>
		<g class="st0">
			<path d="M92.7,273.2l8.4-0.6l-2,19.1l-34.5,2.5l2-19.1l8.1-0.6l-1.6-9.4L46.5,267l-3.6,9.8l8.1-0.6l-2,19.1l-34.5,2.5l2-19.1
				l8.4-0.6l28.7-78l26.4-1.9L92.7,273.2z M58.3,208.2l-28.7,78l-6.3,0.5l-0.2,1.9l19-1.4l0.2-1.9l-10.9,0.8l10.1-27.2l38.2-2.7
				l4.5,26.3l-10.8,0.8l-0.2,1.9l19-1.4l0.2-1.9l-6.4,0.5l-12.7-75.1L58.3,208.2z M59.5,210.1l12.3-0.9l7.7,45l-37.2,2.7L59.5,210.1
				z M69.9,246.4l-4.8-28.1l-0.7,0.1l-10.8,29.3L69.9,246.4z"/>
			<path d="M190,190.3l-2,19.1l-8.6,0.6l-5,47.8c-0.4,3.9-1.5,7.8-3.2,11.4c-1.7,3.5-3.9,6.7-6.5,9.5c-2.6,2.7-5.6,5-8.9,6.7
				c-3.2,1.7-6.7,2.7-10.3,3l-12.1,0.9c-3.4,0.3-6.8-0.2-9.9-1.5c-2.9-1.2-5.5-3.2-7.6-5.6c-2.1-2.5-3.7-5.5-4.6-8.7
				c-1-3.6-1.3-7.4-0.9-11.1l5-47.8l-8.6,0.6l2-19.1l34.5-2.5l-2,19.1l-8.6,0.6l-5,47.8c-0.4,2.4,0.3,4.7,1.8,6.6
				c1.4,1.7,3.6,2.6,5.8,2.4l12.1-0.9c2.5-0.2,4.8-1.4,6.4-3.2c1.8-1.9,3-4.3,3.2-7l5-47.8l-8.6,0.6l2-19.1L190,190.3z M181.3,199.5
				l-19,1.4l-0.2,1.9l8.6-0.6l-5.9,56.4c-0.3,2.5-0.9,4.9-2,7.1c-1,2.2-2.4,4.3-4.1,6.1c-1.6,1.7-3.5,3.2-5.6,4.3
				c-2,1.1-4.2,1.7-6.5,1.9l-12.1,0.9c-2.1,0.2-4.2-0.2-6.2-1c-1.9-0.8-3.5-2-4.8-3.5c-1.4-1.6-2.3-3.5-2.9-5.6
				c-0.6-2.3-0.8-4.6-0.6-7l5.9-56.4l8.6-0.6l0.2-1.9l-19,1.4l-0.2,1.9l8.6-0.6l-5.9,56.4c-0.3,2.6-0.1,5.2,0.6,7.7
				c0.6,2.3,1.7,4.4,3.2,6.1c1.4,1.7,3.3,3,5.4,3.9c2.2,0.9,4.5,1.3,6.9,1.1l12.1-0.9c2.5-0.2,5-0.9,7.2-2.1
				c2.3-1.2,4.4-2.8,6.2-4.7c1.9-2,3.4-4.2,4.6-6.7c1.2-2.5,1.9-5.2,2.2-7.9l5.9-56.4l8.6-0.6L181.3,199.5z"/>
			<path d="M227.4,225.9c7,0.7,12.5,2.2,16.5,4.6c3.5,2,6.5,4.7,8.8,8.1c1.8,2.7,2.9,5.8,3.3,9c0.3,2.4,0.3,4.9,0.2,7.4
				c-0.4,3.8-1.5,7.4-3.3,10.8c-1.7,3.3-4,6.3-6.8,8.9s-6,4.7-9.5,6.2c-3.6,1.6-7.4,2.6-11.4,2.9c-3.7,0.3-7.5,0.1-11.1-0.6
				c-3-0.6-5.9-1.7-8.6-3.1l-0.4,4.2l-17.3,1.3l3-28.7l17.3-1.2c1.2,1.6,2.5,3,3.9,4.4c1.2,1.2,2.6,2.2,4.1,3s3.2,1.3,4.9,1.5
				c2.1,0.3,4.2,0.3,6.3,0.2c2.9-0.1,5.6-1.1,8-2.7c2-1.3,3.3-3.3,3.6-5.7c0.3-1.7-0.1-3.5-1.1-5c-1-1.4-2.2-2.5-3.7-3.3
				c-1.7-0.9-3.5-1.5-5.3-1.9c-1.9-0.4-3.9-0.8-5.9-1c-6.8-0.7-12.1-2.1-16.1-4.3c-3.5-1.8-6.5-4.3-8.8-7.4
				c-1.9-2.5-3.1-5.5-3.6-8.6c-0.4-2.7-0.5-5.4-0.3-8.1c0.4-3.9,1.5-7.6,3.3-11.1c1.8-3.4,4.1-6.6,6.9-9.2c2.8-2.7,6-4.9,9.5-6.5
				c3.5-1.7,7.3-2.6,11.2-2.9c3.6-0.3,7.3-0.2,10.8,0.5c2.8,0.6,5.6,1.6,8.1,3l0.4-4l17.3-1.2l-3,28.7l-17.4,1.2
				c-1.1-1.5-2.3-2.9-3.6-4.3c-2.3-2.4-5.3-4-8.5-4.6c-2-0.3-4.1-0.4-6.2-0.2c-3,0.1-5.9,1.3-8.2,3.3c-1.9,1.5-3.1,3.7-3.4,6.1
				C210.8,221.1,216.1,224.7,227.4,225.9z M241.6,268.5c1.6-1.5,3-3.3,4.2-5.1c1.5-2.4,2.4-5.1,2.6-7.9c0.2-2,0.1-3.9-0.2-5.9
				c-0.4-2.3-1.4-4.5-2.9-6.4c-1.9-2.3-4.3-4.2-7.1-5.5c-3.1-1.6-7.4-2.7-12.8-3.2c-15.6-1.6-22.8-7.8-21.7-18.5
				c0.2-2.2,0.9-4.3,1.9-6.3c1.1-2.2,2.5-4.1,4.2-5.8c1.8-1.8,4-3.3,6.3-4.4c2.5-1.2,5.2-1.9,7.9-2.1c5.3-0.4,9.5,0.2,12.8,1.8
				c3.4,1.7,6.4,4.1,8.8,7.1l6.3-0.5l1.2-11.5l-1.7,0.1l-1,9.6l-3.8,0.3c-1.8-2.3-3.9-4.2-6.5-5.6c-2.4-1.3-4.9-2.3-7.6-2.9
				c-2.7-0.5-5.5-0.6-8.3-0.4c-2.8,0.2-5.6,0.9-8.1,2.1c-2.5,1.1-4.8,2.7-6.8,4.5s-3.7,3.9-4.9,6.3c-1.3,2.4-2.1,5-2.3,7.7
				c-0.5,3.2,0,6.4,1.4,9.3c1.3,2.4,3.1,4.5,5.3,6c2.3,1.6,5,2.8,7.7,3.4c2.8,0.7,5.7,1.2,8.6,1.5c4.2,0.3,8.3,1.3,12.1,3
				c2.6,1.2,4.9,2.9,6.7,5.1c1.4,1.7,2.3,3.7,2.7,5.9c0.3,1.8,0.4,3.6,0.2,5.3c-0.2,2.3-1,4.6-2.1,6.7s-2.6,3.9-4.4,5.4
				c-1.9,1.6-4,2.8-6.2,3.8c-2.4,1-5,1.6-7.6,1.8c-5.5,0.4-9.9-0.2-13.3-1.8c-3.5-1.7-6.6-4.1-9.2-7.1l-6.2,0.4l-1.2,11.5l1.7-0.1
				l1-9.6l3.9-0.3c1.3,1.7,2.8,3.2,4.5,4.5c1.5,1.2,3.3,2.1,5.1,2.8c1.9,0.7,4,1.2,6,1.4c2.4,0.3,4.9,0.3,7.3,0.1
				c2.9-0.2,5.7-0.9,8.4-2C237.1,272,239.5,270.4,241.6,268.5z"/>
			<path d="M339.5,179.7l-3,28.7l-17.3,1.2l1-9.6l-8.6,0.6l-6,57.4l8.6-0.6l-2,19.1l-34.5,2.5l2-19.1l8.6-0.6l6-57.4l-8.6,0.6
				l-1,9.6l-17.3,1.2l3-28.7L339.5,179.7z M330.8,188.9l-53.5,3.8l-1.2,11.5l1.7-0.1l1-9.6l24.2-1.7l-7.8,74.6l-8.6,0.6l-0.2,1.9
				l19-1.4l0.2-1.9l-8.6,0.6l7.8-74.6l24.2-1.8l-1,9.6l1.7-0.1L330.8,188.9z"/>
			<path d="M416,250.2l-2,19.1l-34.5,2.5l2-19.1l7-0.5l-6.3-14.7l-15.5,1.1l-1.6,15.3l8.6-0.6l-2,19.1l-34.5,2.5l2-19.1l8.6-0.6
				l6-57.4l-8.6,0.6l2-19.1l41-2.9c7-0.4,13.8,2.4,18.3,7.8c2.3,2.7,3.9,5.8,4.9,9.2c1.1,3.8,1.4,7.8,0.9,11.7
				c-0.5,4.8-1.9,9.4-4.2,13.6c-2.2,4.1-5.2,7.9-8.6,11.1l9.2,21.2L416,250.2z M407.3,259.4l-4.3,0.3l-13.9-32.5
				c0.6-0.3,1.2-0.6,1.7-0.9c1.2-0.7,2.3-1.5,3.4-2.3l1-0.9c5.2-4.5,8.5-10.8,9.2-17.6c0.3-2.8,0.1-5.6-0.7-8.4
				c-0.7-2.4-1.9-4.7-3.5-6.7c-1.5-1.9-3.5-3.3-5.7-4.3c-2.3-1-4.9-1.5-7.4-1.2l-33.2,2.4l-0.2,1.9l8.6-0.6l-7.8,74.6l-8.6,0.6
				l-0.2,1.9l19-1.4l0.2-1.9l-8.6,0.6l3.4-32.5l22.1-1.6c0.9-0.1,1.9-0.2,2.9-0.3c0.9-0.1,1.8-0.4,2.6-0.7l13.7,32l-12.7,0.9
				l-0.2,1.9l19-1.4L407.3,259.4z M402.6,205.6c-0.3,2.7-1,5.4-2.2,7.9s-2.7,4.7-4.5,6.7c-1.8,1.9-3.9,3.5-6.2,4.7
				c-2.2,1.2-4.7,1.9-7.2,2.1l-22.5,1.6l4.2-40.2l22.5-1.6c2.3-0.2,4.7,0.2,6.9,1.1c2.1,0.9,3.9,2.2,5.4,3.9
				c1.5,1.8,2.6,3.9,3.2,6.1C402.7,200.4,402.9,203,402.6,205.6z M383.3,218.3c3-0.2,5.7-1.6,7.7-3.9c2.2-2.3,3.6-5.2,3.9-8.4
				c0.4-2.8-0.4-5.7-2.2-7.9c-1.7-2.1-4.3-3.1-7-2.8l-14.7,1l-2.4,23L383.3,218.3z"/>
			<path d="M499.9,244.2l8.4-0.6l-2,19.1l-34.5,2.5l2-19.1l8.1-0.6l-1.6-9.4l-26.6,1.9l-3.6,9.8l8.1-0.6l-2,19.1l-34.5,2.5l2-19.1
				l8.4-0.6l28.7-78l26.4-1.9L499.9,244.2z M465.5,179.2l-28.7,78l-6.3,0.5l-0.2,1.9l19-1.4l0.2-1.9l-10.9,0.8l10.1-27.2l38.2-2.7
				l4.5,26.3l-10.9,0.8l-0.2,1.9l19-1.4l0.2-1.9l-6.4,0.5l-12.8-75.1L465.5,179.2z M466.7,181l12.3-0.9l7.7,45l-37.2,2.7L466.7,181z
				 M477.1,217.3l-4.8-28.1l-0.7,0.1l-10.8,29.3L477.1,217.3z"/>
			<path d="M577.3,229.2l-3,28.7l-60.4,4.3l2-19.1l8.6-0.6l6-57.4l-8.6,0.6l2-19.1l34.5-2.5l-2,19.1l-8.7,0.6l-6,57.4L559,240l1-9.6
				L577.3,229.2z M568.7,238.4l-1.7,0.1l-1,9.6l-32.8,2.3l7.8-74.6l8.6-0.6l0.2-1.9l-19,1.4l-0.2,1.9l8.6-0.6l-7.8,74.6l-8.6,0.6
				l-0.2,1.9l44.9-3.2L568.7,238.4z"/>
			<path d="M616,179l-6,57.4l8.6-0.6l-2,19.1l-34.5,2.5l2-19.1l8.6-0.6l6-57.4l-8.6,0.6l2-19.1l34.5-2.5l-2,19.1L616,179z
				 M601.3,245.5l7.8-74.6l8.6-0.6l0.2-1.9l-19,1.4l-0.2,1.9l8.6-0.6l-7.8,74.6l-8.6,0.6l-0.2,1.9l19-1.3l0.2-1.9L601.3,245.5z"/>
			<path d="M702.6,229.8l8.4-0.6l-2,19.1l-34.5,2.5l2-19.1l8.1-0.6l-1.6-9.4l-26.6,1.9l-3.6,9.8l8.1-0.6l-2,19.1l-34.5,2.5l2-19.1
				l8.4-0.6l28.7-78l26.4-1.9L702.6,229.8z M668.3,164.8l-28.7,78l-6.3,0.4l-0.2,1.9l19-1.4l0.2-1.9l-10.8,0.8l10.1-27.3l38.2-2.7
				l4.5,26.3l-10.8,0.8l-0.2,1.9l19-1.4l0.2-1.9l-6.4,0.5l-12.8-75.1L668.3,164.8z M669.4,166.6l12.3-0.9l7.7,45l-37.2,2.6
				L669.4,166.6z M679.8,202.9l-4.8-28.1l-0.7,0.1L663.6,204L679.8,202.9z"/>
			<path d="M812.1,146l-2,19.1l-8.6,0.6l-8,76.5l-17.3,1.2l-27.5-57.2l-4.2,40.4l8.6-0.6l-2,19.1l-34.5,2.5l2-19.1l8.6-0.6l6-57.4
				l-8.6,0.6l2-19.1l25.9-1.9l27.5,57.2l4.2-40.4l-8.6,0.6l2-19.1L812.1,146z M803.5,155.2l-19,1.4l-0.2,1.9l8.6-0.6l-7.8,74.6
				l-2.5,0.2l-35.3-73.4l-13.8,1l-0.2,1.9l8.6-0.6l-7.8,74.6l-8.6,0.6l-0.2,1.9l19-1.4l0.2-1.9l-8.6,0.6l7.8-74.6l2.5-0.2l35.3,73.4
				l5.2-0.4l8-76.5l8.6-0.6L803.5,155.2z"/>
			<path d="M849.5,181.6c7,0.7,12.5,2.2,16.5,4.6c3.5,2,6.5,4.7,8.8,8.1c1.8,2.7,2.9,5.8,3.3,9c0.3,2.4,0.3,4.9,0.2,7.4
				c-0.4,3.8-1.5,7.5-3.3,10.8c-1.7,3.3-4,6.3-6.8,8.9c-2.8,2.6-6,4.7-9.5,6.2c-3.6,1.6-7.4,2.6-11.4,2.9c-3.7,0.3-7.5,0.1-11.1-0.6
				c-3-0.6-5.9-1.7-8.5-3.1l-0.4,4.2l-17.3,1.2l3-28.7l17.3-1.2c1.2,1.6,2.5,3,3.9,4.4c1.2,1.2,2.6,2.2,4.1,3s3.2,1.3,4.9,1.6
				c2.1,0.3,4.2,0.3,6.3,0.2c2.9-0.1,5.6-1.1,8-2.7c2-1.3,3.3-3.3,3.7-5.7c0.3-1.7-0.1-3.5-1.1-5c-1-1.4-2.2-2.5-3.7-3.3
				c-1.7-0.9-3.5-1.5-5.3-1.9c-1.9-0.4-3.9-0.8-5.9-1c-6.8-0.7-12.1-2.1-16.1-4.3c-3.5-1.8-6.5-4.3-8.8-7.4
				c-1.9-2.5-3.1-5.5-3.6-8.6c-0.4-2.7-0.5-5.4-0.3-8.1c0.4-3.9,1.5-7.6,3.3-11.1c1.8-3.4,4.1-6.6,6.9-9.2c2.8-2.7,6-4.9,9.5-6.5
				c3.5-1.7,7.3-2.6,11.2-2.9c3.6-0.3,7.3-0.2,10.8,0.5c2.8,0.6,5.6,1.6,8.1,3l0.4-4l17.2-1.2l-3,28.7l-17.4,1.2
				c-1.1-1.5-2.3-2.9-3.6-4.3c-2.3-2.4-5.3-4-8.5-4.6c-2-0.3-4.1-0.4-6.2-0.2c-3,0.1-5.9,1.3-8.2,3.3c-1.9,1.5-3.1,3.7-3.5,6.1
				C832.9,176.8,838.3,180.3,849.5,181.6z M863.8,224.1c1.6-1.5,3-3.3,4.1-5.1c1.5-2.4,2.4-5.1,2.6-7.9c0.2-2,0.1-3.9-0.2-5.9
				c-0.4-2.3-1.4-4.5-2.9-6.4c-1.9-2.3-4.3-4.2-7.1-5.5c-3.1-1.6-7.4-2.7-12.8-3.2c-15.6-1.6-22.8-7.8-21.7-18.5
				c0.2-2.2,0.9-4.3,1.9-6.3c1.1-2.2,2.5-4.1,4.2-5.8c1.8-1.8,4-3.3,6.3-4.4c2.5-1.2,5.2-1.9,7.9-2.1c5.3-0.4,9.5,0.2,12.8,1.8
				c3.4,1.7,6.4,4.1,8.8,7.1l6.3-0.4l1.2-11.5l-1.7,0.1l-1,9.6l-3.8,0.3c-1.8-2.3-3.9-4.2-6.5-5.6c-2.4-1.3-4.9-2.3-7.6-2.9
				c-2.7-0.5-5.5-0.6-8.3-0.4c-2.8,0.2-5.6,0.9-8.1,2.1c-2.5,1.1-4.8,2.7-6.8,4.5s-3.7,3.9-4.9,6.3c-1.3,2.4-2.1,5-2.3,7.7
				c-0.5,3.2,0,6.4,1.4,9.3c1.3,2.4,3.1,4.5,5.3,6c2.3,1.6,5,2.8,7.7,3.4c2.8,0.7,5.7,1.2,8.6,1.5c4.2,0.3,8.3,1.3,12.1,3
				c2.6,1.2,4.9,2.9,6.7,5.1c1.4,1.7,2.3,3.7,2.7,5.9c0.3,1.8,0.4,3.6,0.2,5.3c-0.2,2.3-1,4.6-2.1,6.7c-1.1,2.1-2.6,3.9-4.4,5.4
				c-1.9,1.6-4,2.8-6.2,3.8c-2.4,1-5,1.6-7.6,1.8c-5.5,0.4-9.9-0.2-13.3-1.8c-3.5-1.7-6.6-4.1-9.2-7.1l-6.2,0.4l-1.2,11.5l1.7-0.1
				l1-9.6l4-0.3c1.3,1.7,2.8,3.2,4.5,4.5c1.5,1.2,3.3,2.1,5.1,2.8c1.9,0.7,4,1.2,6,1.4c2.4,0.3,4.9,0.3,7.3,0.1
				c2.9-0.2,5.7-0.9,8.4-2C859.2,227.7,861.7,226.1,863.8,224.1z"/>
			<path d="M1010.6,150.9l-6,57.4l8.6-0.6l-2,19.1l-34.5,2.5l2-19.1l8.6-0.6l4.3-41.1l-20.4,31.6L957.1,171l-4.3,41.1l8.6-0.6
				l-2,19.1l-34.5,2.5l2-19.1l8.6-0.6l6-57.4l-8.6,0.6l2-19.1l26.2-1.9l13.9,28.7l20-31.3l26.1-1.9l-2,19.1L1010.6,150.9z
				 M995.9,217.4l7.8-74.6l8.6-0.6l0.2-1.9l-14.1,1l-25.2,39l-17.5-35.9l-14.1,1l-0.2,1.9l8.6-0.6l-7.8,74.6l-8.6,0.6l-0.2,1.9
				l19-1.4l0.2-1.9l-8.6,0.6l7.8-74.6l2.7-0.2l18.2,37.5l26.4-40.7l2.7-0.2l-7.8,74.6l-8.6,0.6l-0.2,1.9l19-1.4l0.2-1.9L995.9,217.4
				z"/>
			<path d="M1097.1,201.7l8.4-0.6l-2,19.1l-34.5,2.5l2-19.1l8.1-0.6l-1.6-9.4l-26.6,1.9l-3.6,9.8l8.1-0.6l-2,19.1l-34.5,2.5l2-19.1
				l8.4-0.6l28.7-78l26.4-1.9L1097.1,201.7z M1062.7,136.7l-28.7,78l-6.3,0.4l-0.2,1.9l19-1.4l0.2-1.9l-10.8,0.8l10.1-27.3l38.2-2.7
				l4.5,26.3l-10.8,0.8l-0.2,1.9l19-1.4l0.2-1.9l-6.4,0.5l-12.8-75.1L1062.7,136.7z M1063.9,138.5l12.3-0.9l7.7,45l-37.2,2.6
				L1063.9,138.5z M1074.3,174.9l-4.8-28.1l-0.7,0.1L1058,176L1074.3,174.9z"/>
			<path d="M1155.6,121.5c4.5-0.4,9,0.3,13.1,2c3.9,1.6,7.4,4.2,10.1,7.4c2.8,3.4,4.9,7.4,6.1,11.6c1.3,4.8,1.7,9.8,1.2,14.7
				l-2,19.1c-0.5,5.2-2,10.3-4.3,15.1c-2.2,4.7-5.1,8.9-8.7,12.7c-3.4,3.6-7.4,6.7-11.8,9c-4.3,2.3-8.9,3.6-13.8,4l-34.5,2.5l2-19.1
				l8.6-0.6l6-57.4l-8.6,0.6l2-19.1L1155.6,121.5z M1178.4,157.9c0.4-3.8,0.1-7.7-0.9-11.4c-0.9-3.3-2.5-6.4-4.8-9
				c-2.1-2.5-4.8-4.5-7.8-5.8c-3.2-1.3-6.7-1.9-10.2-1.6L1128,132l-0.2,1.9l8.6-0.6l-7.8,74.6l-8.6,0.6l-0.2,1.9l26.8-1.9
				c3.7-0.3,7.4-1.3,10.7-3.1c3.4-1.8,6.5-4.2,9.2-7c2.7-2.9,5-6.2,6.7-9.8c1.8-3.7,2.9-7.6,3.3-11.7L1178.4,157.9z M1154.5,132
				c3.2-0.3,6.5,0.2,9.5,1.5c2.8,1.2,5.3,3,7.3,5.4c2.1,2.5,3.6,5.3,4.4,8.4c1,3.5,1.3,7.1,0.8,10.7l-2,19.1
				c-0.4,3.8-1.4,7.5-3.1,10.9c-1.6,3.4-3.7,6.5-6.3,9.2c-2.5,2.6-5.4,4.8-8.6,6.5c-3.1,1.6-6.5,2.6-10,2.9l-16.4,1.2l7.8-74.6
				L1154.5,132z M1168.9,158.5c0.3-2.5,0.1-5-0.6-7.4c-0.6-2.1-1.6-4.1-3.1-5.8c-1.4-1.6-3.1-2.9-5.1-3.7c-2.1-0.9-4.3-1.2-6.6-1
				l-8.6,0.6l-6,57.4l8.6-0.6c2.4-0.2,4.8-0.9,6.9-2c2.2-1.2,4.2-2.7,5.9-4.5c1.8-1.9,3.2-4,4.3-6.3c1.1-2.4,1.9-4.9,2.1-7.5
				L1168.9,158.5z"/>
			<path d="M1237.2,144.2l1-9.6l-17.3,1.2l-2,19.1l17.3-1.2l-2,19.1l-17.3,1.2l-2,19.1l17.3-1.2l1-9.6l17.3-1.2l-3,28.7l-60.4,4.3
				l2-19.1l8.6-0.6l6-57.4l-8.6,0.6l2-19.1l60.4-4.3l-3,28.7L1237.2,144.2z M1246.9,125.5l-1,9.6l1.7-0.1l1.2-11.5l-44.9,3.2
				l-0.2,1.9l8.6-0.6l-7.8,74.6l-8.6,0.6l-0.2,1.9l44.9-3.2l1.2-11.5l-1.7,0.1l-1,9.6l-32.8,2.3l3.8-36.4l17.3-1.2l0.2-1.9
				l-17.3,1.2l3.8-36.4L1246.9,125.5z"/>
		</g>
		<path class="st1" d="M85.7,266.2l8.4-0.6l-2,19.1l-34.5,2.5l2-19.1l8.1-0.6l-1.6-9.4L39.5,260l-3.6,9.8l8.1-0.6l-2,19.1l-34.5,2.5
			l2-19.1l8.4-0.6l28.7-78l26.4-1.9L85.7,266.2z M51.3,201.2l-28.7,78l-6.3,0.5l-0.2,1.9l19-1.4l0.2-1.9l-10.9,0.8l10.1-27.2
			l38.2-2.7l4.5,26.3l-10.8,0.8l-0.2,1.9l19-1.4l0.2-1.9l-6.4,0.5l-12.7-75.1L51.3,201.2z M52.5,203.1l12.3-0.9l7.7,45l-37.2,2.7
			L52.5,203.1z M62.9,239.4l-4.8-28.1l-0.7,0.1l-10.8,29.3L62.9,239.4z"/>
		<path class="st1" d="M183,183.3l-2,19.1l-8.6,0.6l-5,47.8c-0.4,3.9-1.5,7.8-3.2,11.4c-1.7,3.5-3.9,6.7-6.5,9.5
			c-2.6,2.7-5.6,5-8.9,6.7c-3.2,1.7-6.7,2.7-10.3,3l-12.1,0.9c-3.4,0.3-6.8-0.2-9.9-1.5c-2.9-1.2-5.5-3.2-7.6-5.6
			c-2.1-2.5-3.7-5.5-4.6-8.7c-1-3.6-1.3-7.4-0.9-11.1l5-47.8l-8.6,0.6l2-19.1l34.5-2.5l-2,19.1l-8.6,0.6l-5,47.8
			c-0.4,2.4,0.3,4.7,1.8,6.6c1.4,1.7,3.6,2.6,5.8,2.4l12.1-0.9c2.5-0.2,4.8-1.4,6.4-3.2c1.8-1.9,3-4.3,3.2-7l5-47.8l-8.6,0.6l2-19.1
			L183,183.3z M174.3,192.5l-19,1.4l-0.2,1.9l8.6-0.6l-5.9,56.4c-0.3,2.5-0.9,4.9-2,7.1c-1,2.2-2.4,4.3-4.1,6.1
			c-1.6,1.7-3.5,3.2-5.6,4.3c-2,1.1-4.2,1.7-6.5,1.9l-12.1,0.9c-2.1,0.2-4.2-0.2-6.2-1c-1.9-0.8-3.5-2-4.8-3.5
			c-1.4-1.6-2.3-3.5-2.9-5.6c-0.6-2.3-0.8-4.6-0.6-7l5.9-56.4l8.6-0.6l0.2-1.9l-19,1.4l-0.2,1.9l8.6-0.6l-5.9,56.4
			c-0.3,2.6-0.1,5.2,0.6,7.7c0.6,2.3,1.7,4.4,3.2,6.1c1.4,1.7,3.3,3,5.4,3.9c2.2,0.9,4.5,1.3,6.9,1.1l12.1-0.9
			c2.5-0.2,5-0.9,7.2-2.1c2.3-1.2,4.4-2.8,6.2-4.7c1.9-2,3.4-4.2,4.6-6.7c1.2-2.5,1.9-5.2,2.2-7.9l5.9-56.4l8.6-0.6L174.3,192.5z"/>
		<path class="st1" d="M220.4,218.9c7,0.7,12.5,2.2,16.5,4.6c3.5,2,6.5,4.7,8.8,8.1c1.8,2.7,2.9,5.8,3.3,9c0.3,2.4,0.3,4.9,0.1,7.4
			c-0.4,3.8-1.5,7.4-3.3,10.8c-1.7,3.3-4,6.3-6.8,8.9s-6,4.7-9.5,6.2c-3.6,1.6-7.4,2.6-11.4,2.9c-3.7,0.3-7.5,0.1-11.1-0.6
			c-3-0.6-5.9-1.7-8.6-3.1l-0.4,4.2l-17.3,1.3l3-28.7l17.3-1.2c1.2,1.6,2.5,3,3.9,4.4c1.2,1.2,2.6,2.2,4.1,3
			c1.5,0.8,3.2,1.3,4.9,1.5c2.1,0.3,4.2,0.3,6.3,0.2c2.9-0.1,5.6-1.1,8-2.7c2-1.3,3.3-3.3,3.6-5.7c0.3-1.7-0.1-3.5-1.1-5
			c-1-1.4-2.2-2.5-3.7-3.3c-1.7-0.9-3.5-1.5-5.3-1.9c-1.9-0.4-3.9-0.8-5.9-1c-6.8-0.7-12.1-2.1-16.1-4.3c-3.5-1.8-6.5-4.3-8.8-7.4
			c-1.9-2.5-3.1-5.5-3.6-8.6c-0.4-2.7-0.5-5.4-0.3-8.1c0.4-3.9,1.5-7.6,3.3-11.1c1.8-3.4,4.1-6.6,6.9-9.2c2.8-2.7,6-4.9,9.5-6.5
			c3.5-1.7,7.3-2.6,11.2-2.9c3.6-0.3,7.3-0.2,10.8,0.5c2.8,0.6,5.6,1.6,8.1,3l0.4-4l17.3-1.2l-3,28.7l-17.4,1.2
			c-1.1-1.5-2.3-2.9-3.6-4.3c-2.3-2.4-5.3-4-8.5-4.6c-2-0.3-4.1-0.4-6.2-0.2c-3,0.1-5.9,1.3-8.2,3.3c-1.9,1.5-3.1,3.7-3.4,6.1
			C203.8,214.1,209.1,217.7,220.4,218.9z M234.6,261.5c1.6-1.5,3-3.3,4.2-5.1c1.5-2.4,2.4-5.1,2.6-7.9c0.2-2,0.1-3.9-0.2-5.9
			c-0.4-2.3-1.4-4.5-2.9-6.4c-1.9-2.3-4.3-4.2-7.1-5.5c-3.1-1.6-7.4-2.7-12.8-3.2c-15.6-1.6-22.8-7.8-21.7-18.5
			c0.2-2.2,0.9-4.3,1.9-6.3c1.1-2.2,2.5-4.1,4.2-5.8c1.8-1.8,4-3.3,6.3-4.4c2.5-1.2,5.2-1.9,7.9-2.1c5.3-0.4,9.5,0.2,12.8,1.8
			c3.4,1.7,6.4,4.1,8.8,7.1l6.3-0.5l1.2-11.5l-1.7,0.1l-1,9.6l-3.8,0.3c-1.8-2.3-3.9-4.2-6.4-5.6c-2.4-1.3-4.9-2.3-7.6-2.9
			c-2.7-0.5-5.5-0.6-8.3-0.4c-2.8,0.2-5.6,0.9-8.1,2.1c-2.5,1.1-4.8,2.7-6.8,4.5s-3.7,3.9-4.9,6.3c-1.3,2.4-2.1,5-2.3,7.7
			c-0.5,3.2,0,6.4,1.4,9.3c1.3,2.4,3.1,4.5,5.3,6c2.3,1.6,5,2.8,7.7,3.4c2.8,0.7,5.7,1.2,8.6,1.5c4.2,0.3,8.3,1.3,12.1,3
			c2.6,1.2,4.9,2.9,6.7,5.1c1.4,1.7,2.3,3.7,2.7,5.9c0.3,1.8,0.4,3.6,0.2,5.3c-0.2,2.3-1,4.6-2.1,6.7c-1.1,2.1-2.6,3.9-4.4,5.4
			c-1.9,1.6-4,2.8-6.2,3.8c-2.4,1-5,1.6-7.6,1.8c-5.5,0.4-9.9-0.2-13.3-1.8c-3.5-1.7-6.6-4.1-9.2-7.1l-6.2,0.4l-1.2,11.5l1.7-0.1
			l1-9.6l3.9-0.3c1.3,1.7,2.8,3.2,4.5,4.5c1.5,1.2,3.3,2.1,5.1,2.8c1.9,0.7,4,1.2,6,1.4c2.4,0.3,4.9,0.3,7.3,0.1
			c2.9-0.2,5.7-0.9,8.4-2C230.1,265,232.5,263.4,234.6,261.5L234.6,261.5z"/>
		<path class="st1" d="M332.5,172.7l-3,28.7l-17.3,1.2l1-9.6l-8.6,0.6l-6,57.4l8.6-0.6l-2,19.1l-34.5,2.5l2-19.1l8.6-0.6l6-57.4
			l-8.6,0.6l-1,9.6l-17.3,1.2l3-28.7L332.5,172.7z M323.8,181.9l-53.5,3.8l-1.2,11.5l1.7-0.1l1-9.6l24.2-1.7l-7.8,74.6l-8.6,0.6
			l-0.2,1.9l19-1.4l0.2-1.9l-8.6,0.6l7.8-74.6l24.2-1.8l-1,9.6l1.7-0.1L323.8,181.9z"/>
		<path class="st1" d="M409,243.2l-2,19.1l-34.5,2.5l2-19.1l7-0.5l-6.3-14.7l-15.5,1.1l-1.6,15.3l8.6-0.6l-2,19.1l-34.5,2.5l2-19.1
			l8.6-0.6l6-57.4l-8.6,0.6l2-19.1l41-2.9c7-0.4,13.8,2.4,18.3,7.8c2.3,2.7,3.9,5.8,4.9,9.2c1.1,3.8,1.4,7.8,0.9,11.7
			c-0.5,4.8-1.9,9.4-4.2,13.6c-2.2,4.1-5.2,7.9-8.6,11.1l9.2,21.2L409,243.2z M400.3,252.4l-4.3,0.3l-13.9-32.5
			c0.6-0.3,1.2-0.6,1.7-0.9c1.2-0.7,2.3-1.5,3.4-2.3l1-0.9c5.2-4.5,8.5-10.8,9.2-17.6c0.3-2.8,0.1-5.6-0.7-8.4
			c-0.7-2.4-1.9-4.7-3.5-6.7c-1.5-1.9-3.5-3.3-5.7-4.3c-2.3-1-4.9-1.5-7.4-1.2l-33.2,2.4l-0.2,1.9l8.6-0.6l-7.8,74.6l-8.6,0.6
			l-0.2,1.9l19-1.4l0.2-1.9l-8.6,0.6l3.4-32.5l22.1-1.6c0.9-0.1,1.9-0.2,2.9-0.3c0.9-0.1,1.8-0.4,2.6-0.7l13.7,32l-12.7,0.9
			l-0.2,1.9l19-1.4L400.3,252.4z M395.6,198.6c-0.3,2.7-1,5.4-2.2,7.9s-2.7,4.7-4.5,6.7c-1.8,1.9-3.9,3.5-6.2,4.7
			c-2.2,1.2-4.7,1.9-7.2,2.1l-22.5,1.6l4.2-40.2l22.5-1.6c2.3-0.2,4.7,0.2,6.9,1.1c2.1,0.9,3.9,2.2,5.4,3.9c1.5,1.8,2.6,3.9,3.2,6.1
			C395.7,193.4,395.9,196,395.6,198.6z M376.3,211.3c3-0.2,5.7-1.6,7.7-3.9c2.2-2.3,3.6-5.2,3.9-8.4c0.4-2.8-0.4-5.7-2.2-7.9
			c-1.7-2.1-4.3-3.1-7-2.8l-14.7,1l-2.4,23L376.3,211.3z"/>
		<path class="st1" d="M492.9,237.2l8.4-0.6l-2,19.1l-34.5,2.5l2-19.1l8.1-0.6l-1.6-9.4l-26.6,1.9l-3.6,9.8l8.1-0.6l-2,19.1
			l-34.5,2.5l2-19.1l8.4-0.6l28.7-78l26.4-1.9L492.9,237.2z M458.5,172.2l-28.7,78l-6.3,0.5l-0.2,1.9l19-1.4l0.2-1.9l-10.9,0.8
			l10.1-27.2l38.2-2.7l4.5,26.3l-10.9,0.8l-0.2,1.9l19-1.4l0.2-1.9l-6.4,0.5l-12.8-75.1L458.5,172.2z M459.7,174l12.3-0.9l7.7,45
			l-37.2,2.7L459.7,174z M470.1,210.3l-4.8-28.1l-0.7,0.1l-10.8,29.3L470.1,210.3z"/>
		<path class="st1" d="M570.3,222.2l-3,28.7l-60.4,4.3l2-19.1l8.6-0.6l6-57.4l-8.6,0.6l2-19.1l34.5-2.5l-2,19.1l-8.7,0.6l-6,57.4
			L552,233l1-9.6L570.3,222.2z M561.7,231.4l-1.7,0.1l-1,9.6l-32.8,2.3l7.8-74.6l8.6-0.6l0.2-1.9l-19,1.4l-0.2,1.9l8.6-0.6
			l-7.8,74.6l-8.6,0.6l-0.2,1.9l44.9-3.2L561.7,231.4z"/>
		<path class="st1" d="M609,172l-6,57.4l8.6-0.6l-2,19.1l-34.5,2.5l2-19.1l8.6-0.6l6-57.4l-8.6,0.6l2-19.1l34.5-2.5l-2,19.1L609,172
			z M594.3,238.5l7.8-74.6l8.6-0.6l0.2-1.9l-19,1.4l-0.2,1.9l8.6-0.6l-7.8,74.6l-8.6,0.6l-0.2,1.9l19-1.3l0.2-1.9L594.3,238.5z"/>
		<path class="st1" d="M695.6,222.8l8.4-0.6l-2,19.1l-34.5,2.5l2-19.1l8.1-0.6l-1.6-9.4l-26.6,1.9l-3.6,9.8l8.1-0.6l-2,19.1
			l-34.5,2.5l2-19.1l8.4-0.6l28.7-78l26.4-1.9L695.6,222.8z M661.3,157.8l-28.7,78l-6.3,0.4l-0.2,1.9l19-1.4l0.2-1.9l-10.8,0.8
			l10.1-27.3l38.2-2.7l4.5,26.3l-10.8,0.8l-0.2,1.9l19-1.4l0.2-1.9l-6.4,0.5l-12.8-75.1L661.3,157.8z M662.4,159.6l12.3-0.9l7.7,45
			l-37.2,2.6L662.4,159.6z M672.8,195.9l-4.8-28.1l-0.7,0.1L656.6,197L672.8,195.9z"/>
		<path class="st1" d="M805.1,139l-2,19.1l-8.6,0.6l-8,76.5l-17.3,1.2l-27.5-57.2l-4.2,40.4l8.6-0.6l-2,19.1l-34.5,2.5l2-19.1
			l8.6-0.6l6-57.4l-8.6,0.6l2-19.1l25.9-1.9l27.5,57.2l4.2-40.4l-8.6,0.6l2-19.1L805.1,139z M796.5,148.2l-19,1.4l-0.2,1.9l8.6-0.6
			l-7.8,74.6l-2.5,0.2l-35.3-73.4l-13.8,1l-0.2,1.9l8.6-0.6l-7.8,74.6l-8.6,0.6l-0.2,1.9l19-1.4l0.2-1.9l-8.6,0.6l7.8-74.6l2.5-0.2
			l35.3,73.4l5.2-0.4l8-76.5l8.6-0.6L796.5,148.2z"/>
		<path class="st1" d="M842.5,174.6c7,0.7,12.5,2.2,16.5,4.6c3.5,2,6.5,4.7,8.8,8.1c1.8,2.7,2.9,5.8,3.3,9c0.3,2.4,0.3,4.9,0.2,7.4
			c-0.4,3.8-1.5,7.5-3.3,10.8c-1.7,3.3-4,6.3-6.8,8.9c-2.8,2.6-6,4.7-9.5,6.2c-3.6,1.6-7.4,2.6-11.4,2.9c-3.7,0.3-7.5,0.1-11.1-0.6
			c-3-0.6-5.9-1.7-8.5-3.1l-0.4,4.2l-17.3,1.2l3-28.7l17.3-1.2c1.2,1.6,2.5,3,3.9,4.4c1.2,1.2,2.6,2.2,4.1,3s3.2,1.3,4.9,1.6
			c2.1,0.3,4.2,0.3,6.3,0.2c2.9-0.1,5.6-1.1,8-2.7c2-1.3,3.3-3.3,3.7-5.7c0.3-1.7-0.1-3.5-1.1-5c-1-1.4-2.2-2.5-3.7-3.3
			c-1.7-0.9-3.5-1.5-5.3-1.9c-1.9-0.4-3.9-0.8-5.9-1c-6.8-0.7-12.1-2.1-16.1-4.3c-3.5-1.8-6.5-4.3-8.8-7.4c-1.9-2.5-3.1-5.5-3.6-8.6
			c-0.4-2.7-0.5-5.4-0.3-8.1c0.4-3.9,1.5-7.6,3.3-11.1c1.8-3.4,4.1-6.6,6.9-9.2c2.8-2.7,6-4.9,9.5-6.5c3.5-1.7,7.3-2.6,11.2-2.9
			c3.6-0.3,7.3-0.2,10.8,0.5c2.8,0.6,5.6,1.6,8.1,3l0.4-4l17.2-1.2l-3,28.7l-17.4,1.2c-1.1-1.5-2.3-2.9-3.6-4.3
			c-2.3-2.4-5.3-4-8.5-4.6c-2-0.3-4.1-0.4-6.2-0.2c-3,0.1-5.9,1.3-8.2,3.3c-1.9,1.5-3.1,3.7-3.5,6.1
			C825.9,169.8,831.3,173.3,842.5,174.6z M856.8,217.1c1.6-1.5,3-3.3,4.1-5.1c1.5-2.4,2.4-5.1,2.6-7.9c0.2-2,0.1-3.9-0.2-5.9
			c-0.4-2.3-1.4-4.5-2.9-6.4c-1.9-2.3-4.3-4.2-7.1-5.5c-3.1-1.6-7.4-2.7-12.8-3.2c-15.6-1.6-22.8-7.8-21.7-18.5
			c0.2-2.2,0.9-4.3,1.9-6.3c1.1-2.2,2.5-4.1,4.2-5.8c1.8-1.8,4-3.3,6.3-4.4c2.5-1.2,5.2-1.9,7.9-2.1c5.3-0.4,9.5,0.2,12.8,1.8
			c3.4,1.7,6.4,4.1,8.8,7.1l6.3-0.4l1.2-11.5l-1.7,0.1l-1,9.6l-3.8,0.3c-1.8-2.3-3.9-4.2-6.5-5.6c-2.4-1.3-4.9-2.3-7.6-2.9
			c-2.7-0.5-5.5-0.6-8.3-0.4c-2.8,0.2-5.6,0.9-8.1,2.1c-2.5,1.1-4.8,2.7-6.8,4.5s-3.7,3.9-4.9,6.3c-1.3,2.4-2.1,5-2.3,7.7
			c-0.5,3.2,0,6.4,1.4,9.3c1.3,2.4,3.1,4.5,5.3,6c2.3,1.6,5,2.8,7.7,3.4c2.8,0.7,5.7,1.2,8.6,1.5c4.2,0.3,8.3,1.3,12.1,3
			c2.6,1.2,4.9,2.9,6.7,5.1c1.4,1.7,2.3,3.7,2.7,5.9c0.3,1.8,0.4,3.6,0.2,5.3c-0.2,2.3-1,4.6-2.1,6.7c-1.1,2.1-2.6,3.9-4.4,5.4
			c-1.9,1.6-4,2.8-6.2,3.8c-2.4,1-5,1.6-7.6,1.8c-5.5,0.4-9.9-0.2-13.3-1.8c-3.5-1.7-6.6-4.1-9.2-7.1l-6.2,0.4l-1.2,11.5l1.7-0.1
			l1-9.6l4-0.3c1.3,1.7,2.8,3.2,4.5,4.5c1.5,1.2,3.3,2.1,5.1,2.8c1.9,0.7,4,1.2,6,1.4c2.4,0.3,4.9,0.3,7.3,0.1
			c2.9-0.2,5.7-0.9,8.4-2C852.2,220.7,854.7,219.1,856.8,217.1z"/>
		<path class="st1" d="M1003.6,143.9l-6,57.4l8.6-0.6l-2,19.1l-34.5,2.5l2-19.1l8.6-0.6l4.3-41.1l-20.4,31.6L950.1,164l-4.3,41.1
			l8.6-0.6l-2,19.1l-34.5,2.5l2-19.1l8.6-0.6l6-57.4l-8.6,0.6l2-19.1l26.2-1.9l13.9,28.7l20-31.3l26.1-1.9l-2,19.1L1003.6,143.9z
			 M988.9,210.4l7.8-74.6l8.6-0.6l0.2-1.9l-14.1,1l-25.2,39l-17.5-35.9l-14.1,1l-0.2,1.9l8.6-0.6l-7.8,74.6l-8.6,0.6l-0.2,1.9
			l19-1.4l0.2-1.9l-8.6,0.6l7.8-74.6l2.7-0.2l18.2,37.5l26.4-40.7l2.7-0.2l-7.8,74.6l-8.6,0.6l-0.2,1.9l19-1.4l0.2-1.9L988.9,210.4z
			"/>
		<path class="st1" d="M1090.1,194.7l8.4-0.6l-2,19.1l-34.5,2.5l2-19.1l8.1-0.6l-1.6-9.4l-26.6,1.9l-3.6,9.8l8.1-0.6l-2,19.1
			l-34.5,2.5l2-19.1l8.4-0.6l28.7-78l26.4-1.9L1090.1,194.7z M1055.7,129.7l-28.7,78l-6.3,0.4l-0.2,1.9l19-1.4l0.2-1.9l-10.8,0.8
			l10.1-27.3l38.2-2.7l4.5,26.3l-10.8,0.8l-0.2,1.9l19-1.4l0.2-1.9l-6.4,0.5l-12.8-75.1L1055.7,129.7z M1056.9,131.5l12.3-0.9
			l7.7,45l-37.2,2.6L1056.9,131.5z M1067.3,167.9l-4.8-28.1l-0.7,0.1L1051,169L1067.3,167.9z"/>
		<path class="st1" d="M1148.6,114.5c4.5-0.4,9,0.3,13.1,2c3.9,1.6,7.4,4.2,10.1,7.4c2.8,3.4,4.9,7.4,6.1,11.6
			c1.3,4.8,1.7,9.8,1.2,14.7l-2,19.1c-0.5,5.2-2,10.3-4.3,15.1c-2.2,4.7-5.1,8.9-8.7,12.7c-3.4,3.6-7.4,6.7-11.8,9
			c-4.3,2.3-8.9,3.6-13.8,4l-34.5,2.5l2-19.1l8.6-0.6l6-57.4l-8.6,0.6l2-19.1L1148.6,114.5z M1171.4,150.9c0.4-3.8,0.1-7.7-0.9-11.4
			c-0.9-3.3-2.5-6.4-4.8-9c-2.1-2.5-4.8-4.5-7.8-5.8c-3.2-1.3-6.7-1.9-10.2-1.6L1121,125l-0.2,1.9l8.6-0.6l-7.8,74.6l-8.6,0.6
			l-0.2,1.9l26.8-1.9c3.7-0.3,7.4-1.3,10.7-3.1c3.4-1.8,6.5-4.2,9.2-7c2.7-2.9,5-6.2,6.7-9.8c1.8-3.7,2.9-7.6,3.3-11.7L1171.4,150.9
			z M1147.5,125c3.2-0.3,6.5,0.2,9.5,1.5c2.8,1.2,5.3,3,7.3,5.4c2.1,2.5,3.6,5.3,4.4,8.4c1,3.5,1.3,7.1,0.8,10.7l-2,19.1
			c-0.4,3.8-1.4,7.5-3.1,10.9c-1.6,3.4-3.7,6.5-6.3,9.2c-2.5,2.6-5.4,4.8-8.6,6.5c-3.1,1.6-6.5,2.6-10,2.9l-16.4,1.2l7.8-74.6
			L1147.5,125z M1161.9,151.5c0.3-2.5,0.1-5-0.6-7.4c-0.6-2.1-1.6-4.1-3.1-5.8c-1.4-1.6-3.1-2.9-5.1-3.7c-2.1-0.9-4.3-1.2-6.6-1
			l-8.6,0.6l-6,57.4l8.6-0.6c2.4-0.2,4.8-0.9,6.9-2c2.2-1.2,4.2-2.7,5.9-4.5c1.8-1.9,3.2-4,4.3-6.3c1.1-2.4,1.9-4.9,2.1-7.5
			L1161.9,151.5z"/>
		<path class="st1" d="M1230.2,137.2l1-9.6l-17.3,1.2l-2,19.1l17.3-1.2l-2,19.1l-17.3,1.2l-2,19.1l17.3-1.2l1-9.6l17.3-1.2l-3,28.7
			l-60.4,4.3l2-19.1l8.6-0.6l6-57.4l-8.6,0.6l2-19.1l60.4-4.3l-3,28.7L1230.2,137.2z M1239.9,118.5l-1,9.6l1.7-0.1l1.2-11.5
			l-44.9,3.2l-0.2,1.9l8.6-0.6l-7.8,74.6l-8.6,0.6l-0.2,1.9l44.9-3.2l1.2-11.5l-1.7,0.1l-1,9.6l-32.8,2.3l3.8-36.4l17.3-1.2l0.2-1.9
			l-17.3,1.2l3.8-36.4L1239.9,118.5z"/>
		<g class="st0">
			<path d="M602,301.3"/>
		</g>
		<path class="st1" d="M595,294.3"/>
		<g class="st0">
			<path d="M139.4,388.7c0.9,0.7,1.9,0.9,3,0.7c4.7-0.3,6.6-3.8,10.3-5.5l0.5,2.1c-3.5,4.5-8.2,7.9-13.6,9.7
				c-0.7,20.3-11.1,30.9-21.1,31.5c-10.7,0.6-15.6-3.6-16.3-15.6c-1.4-24.7,10.5-36.1,24.4-36.9
				C135.9,374.1,138.8,381.4,139.4,388.7z M132.1,397.1c-2.9,0.2-4.3-1.9-4.5-4.3c-0.2-2.9,1.4-6.1,4-7.3c-0.5-3.3-1.7-5.1-4.5-5
				c-9.4,0.6-12.3,21.3-11.8,29.3c0.4,6,3.2,7.5,7.2,7.2C128.6,416.8,131.5,406.9,132.1,397.1z"/>
			<path d="M182.7,379.5c0.9,15.7-5.4,43.6-25.7,44.8c-7.7,0.5-12.6-2.7-13.1-10.2c-0.1-1.7,0-3.4,0.2-5.1l5.2-34.5l14.5-0.8
				l-5.2,34.5c-0.2,1.2-0.3,2.5-0.3,3.8c0.1,1.9,1.1,3.2,4,3c9.8-0.6,15.3-23,14.7-33.9c-0.7,0.3-1.4,0.4-2.1,0.5
				c-2.9,0.2-4.4-2.6-4.5-5.4c-0.1-2.1,2.1-5.1,5.4-5.2C180.1,370.6,182.4,374.3,182.7,379.5z"/>
			<path d="M207.4,414.1c4.9-0.3,13-6.6,16.1-14.2l4.5-0.3c-5.1,10.7-14.2,21.4-27.1,22.1c-9.6,0.6-15.3-6.5-15.8-15.1
				c-0.7-12.8,3.4-35.5,21.7-36.5c8.2-0.5,13,2.7,13.5,9.7c0.7,12.2-12,20-21.5,21.8c-0.1,1.4-0.1,2.9-0.1,4.3
				C199,412.6,203.5,414.3,207.4,414.1z M210.4,375.3c-5.6,0.3-9.6,11.9-11.1,21.5c9.2-0.6,15.3-9,15-16.1
				C214.1,378.6,213.4,375.1,210.4,375.3L210.4,375.3z"/>
			<path d="M242.5,369l-0.8,5.1c3.5-3,7.3-5.5,11.6-5.7c4.5-0.3,7.4,2.2,7.6,6c0.2,3.5-2.2,8-7.1,8.3c-5.6,0.3-3.2-6.5-6.2-6.3
				s-4.5,1.4-6.7,3.6l-6.1,39.9l-14.5,0.8l7.7-50.8L242.5,369z"/>
			<path d="M295.8,402.2c0.4,6.7,4.1,7.9,9.4,7.6c7.2-0.4,11.8-9.2,11.2-18.2c-0.4-7.6-4.6-15.4-14-17.9
				c11.5-3.8,16.3-13.8,15.9-20.9c-0.3-4.5-2.6-7.8-6.8-7.6c-6.7,0.4-9,3.6-8.7,8.7c0.1,2.3,1.4,6,4.2,6.6c-2,2.2-4.6,3.5-7.5,3.9
				c-4,0.2-7.3-2.8-7.6-8.6c-0.4-6.8,5.7-15.1,20.8-16c11.5-0.7,18.1,5.8,18.5,13.7c0.4,6.6-3.6,14.2-12.6,19.4
				c8.9,2.2,13,8.4,13.4,15.5c0.7,12.1-9.4,26.7-24.4,27.6c-8,0.5-22.3-0.4-23.1-14.9c-0.5-9.4,3.2-15.5,11-16
				c4.5-0.3,7.4,1.1,8.4,4.6C295.8,391.1,295.5,397.2,295.8,402.2z"/>
			<path d="M346.6,397.7c4.4-0.2,8.2,3.1,8.5,7.6c0.2,4.4-3.2,8.2-7.6,8.4c-4.4,0.3-8.1-3-8.4-7.4v-0.1
				C338.8,401.8,342.1,398,346.6,397.7z"/>
			<path d="M409.9,334.1c-4.8,8-25,43.8-27.4,50.5c-1.7,4.2-2.5,8.6-2.5,13.1c0.2,4,1.7,6.6,5.5,9.5c-1,3.3-4.8,4.2-9,4.5
				c-6,0.4-10.5-1.7-11.1-12c-1-16.4,12.8-34.8,28.5-55.2c-2.8-0.2-5.6-0.3-8.5-0.1c-8.7,0.5-16.2,3.1-20.5,8.3
				c-0.6-1.9-1-3.8-1.1-5.8c-0.4-6.5,3.2-10.3,13.1-10.8L409.9,334.1z"/>
			<path d="M494.8,388.6c-0.2,1.2-0.3,2.5-0.3,3.8c0.1,2.3,1.1,4.1,4.3,3.9c4-0.2,7.9-6.4,10-10.9l4.7-0.3
				c-4.3,5.7-12.6,19.3-20.4,19.7s-12.6-2.7-13.1-10.2c-0.1-1.7,0-3.5,0.3-5.2l2.8-18.3c0.1-0.9,0.2-1.8,0.1-2.6
				c-0.2-3.6-2.2-5.8-5-5.7c-2.1,0.1-4.1,0.9-5.7,2.1c0.4,1.1,0.6,2.3,0.7,3.5c0,0.7,0,1.4-0.1,2.1l-5.4,35.7l-14.6,0.8l5.2-34.6
				c0.1-0.9,0.2-1.8,0.1-2.6c-0.2-3.6-2.2-5.8-5-5.7c-2.2,0.1-4.3,1-6,2.5l-6.3,41.1l-14.5,0.8l7.7-50.8l14.5-0.8l-0.8,5.4
				c3.9-3.1,8.3-5.8,12.6-6.1c3.7-0.2,7.9,2.3,10.3,6c4.2-3.8,9.4-7.2,14.3-7.5c5.5-0.3,11.9,5.1,12.3,12c0,0.8,0,1.5-0.1,2.3
				L494.8,388.6z"/>
			<path d="M523.9,352.7l-5.2,34.5c-0.2,1-0.2,2.1-0.2,3.1c0.1,2.2,1.2,3.8,5.2,3.5s8.9-6.2,12.7-9.6l3.4-0.2
				c-4.3,4.9-14.9,18.9-22.8,19.4s-12.8-2.7-13.2-10.2c-0.1-1.7,0-3.5,0.3-5.2l5.2-34.5L523.9,352.7z M518,331.7
				c4.4-0.2,8.2,3.1,8.5,7.6c0.2,4.4-3.2,8.2-7.6,8.4c-4.4,0.3-8.1-3-8.4-7.4v-0.1C510.3,335.8,513.6,331.9,518,331.7L518,331.7
				L518,331.7z"/>
			<path d="M554.8,330.7l-8.4,54.9c-0.2,1.1-0.3,2.2-0.3,3.2c0.1,2.2,1.3,3.6,5.2,3.4s8.9-6.2,12.7-9.6l3.4-0.2
				c-4.3,4.9-14.9,18.9-22.8,19.4s-12.7-2.7-13.1-10.2c-0.1-1.7,0-3.5,0.3-5.2l8.1-52.9L554.8,330.7z"/>
			<path d="M583.5,329.1l-8.4,54.9c-0.2,1.1-0.3,2.2-0.3,3.2c0.1,2.2,1.3,3.6,5.2,3.4s8.9-6.2,12.7-9.6l3.4-0.2
				c-4.3,4.9-14.9,18.9-22.8,19.4s-12.7-2.7-13.1-10.2c-0.1-1.7,0-3.5,0.3-5.2l8.1-52.9L583.5,329.1z"/>
			<path d="M607.8,347.8l-5.2,34.5c-0.2,1-0.2,2.1-0.2,3.1c0.1,2.2,1.2,3.8,5.2,3.5s8.9-6.2,12.7-9.6l3.4-0.2
				c-4.3,4.9-14.9,18.9-22.8,19.4s-12.7-2.7-13.2-10.2c-0.1-1.7,0-3.5,0.3-5.2l5.2-34.5L607.8,347.8z M601.9,326.8
				c4.4-0.2,8.2,3.1,8.5,7.6c0.2,4.4-3.2,8.2-7.6,8.4c-4.4,0.3-8.1-3-8.4-7.4v-0.1C594.2,330.9,597.5,327.1,601.9,326.8L601.9,326.8
				L601.9,326.8z"/>
			<path d="M652.6,359c0.9,0.7,1.9,0.9,3,0.7c4.7-0.3,6.6-3.8,10.3-5.5l0.5,2.1c-3.5,4.5-8.2,7.9-13.7,9.7
				c-0.7,20.3-11.1,30.9-21.2,31.5c-10.7,0.6-15.6-3.6-16.3-15.6c-1.5-24.7,10.5-36.1,24.3-36.9C649.1,344.4,652,351.7,652.6,359z
				 M645.3,367.4c-2.9,0.2-4.3-1.9-4.5-4.3c-0.2-2.9,1.4-6.1,4-7.3c-0.5-3.3-1.7-5.1-4.5-5c-9.4,0.5-12.3,21.3-11.8,29.3
				c0.3,6,3.2,7.5,7.2,7.2C641.8,387,644.7,377.2,645.3,367.4z"/>
			<path d="M694.6,393.1c-6.5,0.4-10.4-2.8-10.9-10.4c-0.1-1.7,0-3.5,0.3-5.2l2.8-18.3c0.1-0.9,0.2-1.8,0.2-2.6
				c-0.2-3.6-2.2-5.8-5-5.7c-2.3,0.1-4.5,1-6.2,2.5l-6.2,41.1l-14.5,0.8l7.7-50.8l14.5-0.8l-0.9,5.5c3.9-3.2,8.4-5.9,12.8-6.2
				c5.5-0.3,11.9,5.1,12.3,12c0,0.8,0,1.5-0.1,2.3c-0.3,3.3-3.6,21.3-3.5,23.5c0.1,1.7,1,3.1,3.9,2.9c0.9,0,1.8-0.2,2.6-0.5
				C702.2,392.1,698.1,392.9,694.6,393.1z"/>
			<path d="M750.9,323.6c0,0-1.1,6.9-2.5,16.1l6-0.4l-0.6,4.1l-6,0.4c-5.1,32.1-4.9,33.1-4.9,33.6c0.1,2.3,1.2,3.8,5.2,3.5
				s8.9-6.2,12.7-9.6l3.4-0.2c-4.3,4.9-14.9,18.9-22.8,19.4s-12.7-2.7-13.1-10.2c-0.3-5.3,3.7-26.9,4.9-35.6l-3.3,0.2l0.6-4.1
				l3.3-0.2l2.2-14L750.9,323.6z"/>
			<path d="M777.5,338l-0.8,5.1c3.5-3,7.3-5.5,11.6-5.7c4.5-0.3,7.4,2.2,7.6,6c0.2,3.5-2.2,8-7.1,8.3c-5.6,0.3-3.2-6.5-6.2-6.3
				s-4.5,1.4-6.7,3.6l-6,39.9l-14.5,0.8l7.7-50.8L777.5,338z"/>
			<path d="M816.9,335.7l-5.2,34.5c-0.2,1-0.2,2.1-0.2,3.1c0.1,2.2,1.2,3.8,5.2,3.5s8.9-6.2,12.7-9.6l3.4-0.2
				c-4.3,4.9-14.9,18.9-22.8,19.4s-12.8-2.7-13.2-10.2c-0.1-1.7,0-3.5,0.3-5.2l5.2-34.5L816.9,335.7z M811.1,314.7
				c4.4-0.2,8.2,3.1,8.5,7.6c0.2,4.4-3.2,8.2-7.6,8.4c-4.4,0.3-8.1-3-8.4-7.4v-0.1C803.3,318.8,806.7,315,811.1,314.7L811.1,314.7
				L811.1,314.7z"/>
			<path d="M843.9,334.1l-0.3,1.9c2.1-1.3,4.5-2,6.9-2.2c10.4-0.6,15.6,2.8,16.2,13.2c0.1,2.4,0,4.7-0.2,7.1
				c-1.9,21.8-10.1,29.6-20.3,30.2c-3.4,0.1-6.7-0.7-9.6-2.5l-3.8,24.9l-15,4.5l11.6-76.2L843.9,334.1z M853.7,356
				c0.6-3.4,0.8-6.8,0.7-10.2c-0.3-6-2.8-7.1-6-6.9c-2.1,0.2-4,1.1-5.6,2.4l-5.3,34.1c2,1.2,4.3,1.7,6.6,1.4
				C849.1,376.6,851.3,372.2,853.7,356L853.7,356z"/>
			<path d="M897,329.2l0.1,1.4c1,16.6,8.6,21,9.2,32.7c0.5,9.3-4.9,17.8-18.5,18.6c-11.5,0.7-17.4-2.3-17.9-12.2
				c-0.5-7.9,2.9-12.8,6.9-13.3c3-6.7,4.5-15.7,5.8-23.4L897,329.2z M878.7,368.9c-1.3,0.1-2.5-0.2-3.7-0.7c0.3,5.9,3.7,8.4,9,8
				c3.4-0.2,8.1-4.7,7.6-12.4c-0.4-6.2-5.2-11.3-6.1-23.8c-1.3,5-2.3,11.5-4.3,16.7c2.5,0.7,3.5,2.4,3.6,5.4
				C885.1,365.6,882.3,368.7,878.7,368.9L878.7,368.9z"/>
			<path d="M953.3,311.9c0,0-1.1,6.9-2.5,16.1l6-0.4l-0.6,4.1l-6,0.4c-5.1,32.1-4.9,33.1-4.9,33.6c0.1,2.3,1.2,3.8,5.2,3.5
				s8.9-6.2,12.7-9.6l3.4-0.2c-4.3,4.9-14.9,18.9-22.8,19.4s-12.7-2.7-13.1-10.2c-0.3-5.3,3.7-26.9,4.9-35.6l-3.3,0.2l0.6-4.1
				l3.3-0.2l2.2-14L953.3,311.9z"/>
			<path d="M1000.4,332l1.1,2c-0.8,3.6-2.2,8.4-6.1,11c0.1,20.9-11.1,32.1-20.6,32.6c-10.7,0.6-16-3.7-16.7-15.6
				c-1.4-24.5,10.6-36.1,24.4-36.9c4.8-0.3,9.5,1.4,9.7,4c0.2,2.9-2.2,4.3-4.2,5.1c-0.9-2.1-2.4-3.3-4.7-3.1
				c-9.8,0.6-12.3,21.3-11.8,29.3c0.3,6,3.5,7.5,7.5,7.2c5.9-0.3,8.8-11.4,9.3-20.7c-2-0.3-2.9-1.9-3-4c-0.2-3.5,3.1-7.8,6.3-8
				c1.9-0.1,3.5,0.4,3.6,2.5c0,0.3,0,0.6,0,0.9C997.4,336.5,998.2,334.7,1000.4,332z"/>
			<path d="M1068,321.1l-5.3,34.5c-0.2,1-0.2,2.1-0.2,3.1c0.1,2.2,1.2,3.8,5.2,3.5s8.9-6.2,12.7-9.6l3.4-0.2
				c-4.3,4.9-14.9,18.9-22.8,19.4c-6.5,0.4-11.1-1.8-12.7-6.9c-2.8,4.3-7.1,8.7-13.2,9c-9.6,0.6-12.8-6.1-13.2-12
				c-1-17.3,4-38.3,24.1-39.5c2.5-0.1,4.9,0.7,6.9,2.1l0.4-2.6L1068,321.1z M1035.6,358.5c0.3,6,3.7,6.9,6.2,6.8
				c2.3-0.1,4.4-2.5,6.1-5.4c0.1-1.1,0.2-2.2,0.4-3.4l4.1-26.9c-1.4-1.1-3.2-1.6-5-1.5C1039.9,328.5,1034.8,344.9,1035.6,358.5z"/>
			<path d="M1093.8,319.6l-0.8,5.1c3.4-3,7.3-5.5,11.6-5.7c4.5-0.3,7.4,2.2,7.6,6c0.2,3.5-2.2,8-7.1,8.3c-5.6,0.3-3.2-6.5-6.2-6.3
				s-4.6,1.4-6.7,3.6l-6.1,39.8l-14.5,0.8l7.7-50.8L1093.8,319.6z"/>
			<path d="M1133.7,360.4c4.9-0.3,13-6.6,16.1-14.2l4.5-0.3c-5.1,10.7-14.2,21.4-27.1,22.1c-9.6,0.6-15.3-6.5-15.8-15.1
				c-0.7-12.8,3.4-35.5,21.7-36.5c8.2-0.5,13,2.7,13.5,9.7c0.7,12.2-12,20-21.5,21.8c-0.1,1.4-0.1,2.9-0.1,4.3
				C1125.3,358.9,1129.8,360.7,1133.7,360.4z M1136.7,321.6c-5.6,0.3-9.6,11.9-11.1,21.5c9.2-0.6,15.3-9,15-16.1
				C1140.4,324.9,1139.7,321.4,1136.7,321.6L1136.7,321.6z"/>
			<path d="M1193,313.9l-5.2,34.5c-0.2,1.2-0.3,2.5-0.3,3.8c0.1,2.1,1,3.2,3.3,3c1.1-0.1,2.5-1.6,4-4c-0.5-8.2,2.9-13.1,6.9-13.6
				c3-6.7,4.5-15.7,5.8-23.4l14.4-3.9l0.1,1.4c1,16.6,8.6,21,9.2,32.7c0.5,9.3-4.9,17.8-18.5,18.6c-9.2,0.5-14.8-1.3-16.9-7
				c-3.3,4.8-6.8,8.4-9.7,8.5c-7,0.4-11-2.4-12.5-7.1c-2.8,4.4-7,8.9-13.3,9.2c-9.6,0.6-12.8-6.1-13.2-12c-1-17.3,4-38.3,24.1-39.5
				c2.5-0.1,4.9,0.7,6.9,2.1l0.4-2.6L1193,313.9z M1177.5,322.3c-1.4-1.1-3.2-1.6-5-1.5c-7.5,0.4-12.6,16.8-11.8,30.4
				c0.3,6,3.7,6.9,6.2,6.8c2.3-0.1,4.4-2.6,6.2-5.5c0-1.1,0.1-2.2,0.3-3.2L1177.5,322.3z M1203.6,350c-1.2,0-2.4-0.2-3.6-0.6
				c-0.1,0.5-0.1,1.1-0.1,1.6c0.2,4.3,5.1,6.5,9,6.3c3.4-0.2,8.1-4.7,7.6-12.4c-0.4-6.2-5.2-11.3-6.1-23.8c-1.3,5-2.3,11.5-4.3,16.7
				c2.5,0.7,3.5,2.4,3.6,5.4C1210,346.8,1207.2,349.9,1203.6,350C1203.6,350.1,1203.6,350.1,1203.6,350L1203.6,350z"/>
		</g>
		<path class="st1" d="M132.4,381.7c0.9,0.7,1.9,0.9,3,0.7c4.7-0.3,6.6-3.8,10.3-5.5l0.5,2.1c-3.5,4.5-8.2,7.9-13.6,9.7
			c-0.7,20.3-11.1,30.9-21.1,31.5c-10.7,0.6-15.6-3.6-16.3-15.6c-1.4-24.7,10.5-36.1,24.4-36.9C128.9,367.1,131.8,374.4,132.4,381.7
			z M125.2,390.1c-2.9,0.2-4.3-1.9-4.5-4.3c-0.2-2.9,1.4-6.1,4-7.3c-0.5-3.3-1.7-5.1-4.5-5c-9.4,0.6-12.3,21.3-11.8,29.3
			c0.4,6,3.2,7.5,7.2,7.2C121.7,409.8,124.5,399.9,125.2,390.1z"/>
		<path class="st1" d="M175.7,372.5c0.9,15.7-5.4,43.6-25.7,44.8c-7.7,0.5-12.6-2.7-13.1-10.2c-0.1-1.7,0-3.4,0.2-5.1l5.2-34.5
			l14.5-0.8l-5.2,34.5c-0.2,1.2-0.3,2.5-0.3,3.8c0.1,1.9,1.1,3.2,4,3c9.8-0.6,15.3-23,14.7-33.9c-0.7,0.3-1.4,0.4-2.1,0.5
			c-2.9,0.2-4.4-2.6-4.5-5.4c-0.1-2.1,2.1-5.1,5.4-5.2C173.1,363.6,175.4,367.3,175.7,372.5z"/>
		<path class="st1" d="M200.4,407.1c4.9-0.3,13-6.6,16.1-14.2l4.5-0.3c-5.1,10.7-14.2,21.4-27.1,22.1c-9.6,0.6-15.3-6.5-15.8-15.1
			c-0.7-12.8,3.4-35.5,21.7-36.5c8.2-0.5,13,2.7,13.5,9.7c0.7,12.2-12,20-21.5,21.8c-0.1,1.4-0.1,2.9-0.1,4.3
			C192,405.6,196.5,407.3,200.4,407.1z M203.4,368.3c-5.6,0.3-9.6,11.9-11.1,21.5c9.2-0.6,15.3-9,15-16.1
			C207.1,371.6,206.4,368.1,203.4,368.3L203.4,368.3z"/>
		<path class="st1" d="M235.5,362l-0.8,5.1c3.5-3,7.3-5.5,11.6-5.7c4.5-0.3,7.4,2.2,7.6,6c0.2,3.5-2.2,8-7.1,8.3
			c-5.6,0.3-3.2-6.5-6.2-6.3s-4.5,1.4-6.7,3.6l-6.1,39.9l-14.5,0.8l7.7-50.8L235.5,362z"/>
		<path class="st1" d="M288.8,395.2c0.4,6.7,4.1,7.9,9.4,7.6c7.2-0.4,11.8-9.2,11.2-18.2c-0.4-7.6-4.6-15.4-14-17.9
			c11.5-3.8,16.3-13.8,15.9-20.9c-0.3-4.5-2.6-7.8-6.8-7.6c-6.7,0.4-9,3.6-8.7,8.7c0.1,2.3,1.4,6,4.2,6.6c-2,2.2-4.6,3.5-7.5,3.9
			c-4,0.2-7.3-2.8-7.6-8.6c-0.4-6.8,5.7-15.1,20.8-16c11.5-0.7,18.1,5.8,18.5,13.7c0.4,6.6-3.6,14.2-12.6,19.4
			c8.9,2.2,13,8.4,13.4,15.5c0.7,12.1-9.4,26.7-24.4,27.6c-8,0.5-22.3-0.4-23.1-14.9c-0.5-9.4,3.2-15.5,11-16
			c4.5-0.3,7.4,1.1,8.4,4.6C288.8,384.1,288.5,390.2,288.8,395.2z"/>
		<path class="st1" d="M339.6,390.7c4.4-0.2,8.2,3.1,8.5,7.6c0.2,4.4-3.2,8.2-7.6,8.4c-4.4,0.3-8.1-3-8.4-7.4v-0.1
			C331.8,394.8,335.1,391,339.6,390.7z"/>
		<path class="st1" d="M402.9,327.1c-4.8,8-25,43.8-27.4,50.5c-1.7,4.2-2.5,8.6-2.5,13.1c0.2,4,1.7,6.6,5.5,9.5
			c-1,3.3-4.8,4.2-9,4.5c-6,0.4-10.5-1.7-11.1-12c-1-16.4,12.8-34.8,28.5-55.2c-2.8-0.2-5.6-0.3-8.5-0.1c-8.7,0.5-16.2,3.1-20.5,8.3
			c-0.6-1.9-1-3.8-1.1-5.8c-0.4-6.5,3.2-10.3,13.1-10.8L402.9,327.1z"/>
		<path class="st1" d="M487.8,381.6c-0.2,1.2-0.3,2.5-0.3,3.8c0.1,2.3,1.1,4.1,4.4,3.9c4-0.2,7.9-6.4,10-10.9l4.7-0.3
			c-4.3,5.7-12.6,19.3-20.4,19.7s-12.6-2.7-13.1-10.2c-0.1-1.7,0-3.5,0.3-5.2l2.8-18.3c0.1-0.9,0.2-1.8,0.1-2.6
			c-0.2-3.6-2.2-5.8-5-5.7c-2.1,0.1-4.1,0.9-5.7,2.1c0.4,1.1,0.6,2.3,0.7,3.5c0,0.7,0,1.4-0.1,2.1l-5.4,35.7l-14.6,0.8l5.2-34.6
			c0.1-0.9,0.2-1.8,0.1-2.6c-0.2-3.6-2.2-5.8-5-5.7c-2.2,0.1-4.3,1-6,2.5l-6.3,41.1l-14.5,0.8l7.7-50.8l14.5-0.8l-0.8,5.4
			c3.9-3.1,8.3-5.8,12.6-6.1c3.7-0.2,7.9,2.3,10.3,6c4.2-3.8,9.4-7.2,14.3-7.5c5.5-0.3,11.9,5.1,12.3,12c0,0.8,0,1.5-0.1,2.3
			L487.8,381.6z"/>
		<path class="st1" d="M516.9,345.7l-5.2,34.5c-0.2,1-0.2,2.1-0.2,3.1c0.1,2.2,1.2,3.8,5.2,3.5s8.9-6.2,12.7-9.6l3.4-0.2
			c-4.3,4.9-14.9,18.9-22.8,19.4s-12.8-2.7-13.2-10.2c-0.1-1.7,0-3.5,0.3-5.2l5.2-34.5L516.9,345.7z M511,324.7
			c4.4-0.2,8.2,3.1,8.5,7.6c0.2,4.4-3.2,8.2-7.6,8.4c-4.4,0.3-8.1-3-8.4-7.4v-0.1C503.3,328.8,506.6,324.9,511,324.7L511,324.7
			L511,324.7z"/>
		<path class="st1" d="M547.8,323.7l-8.4,54.9c-0.2,1.1-0.3,2.2-0.3,3.2c0.1,2.2,1.3,3.6,5.2,3.4s8.9-6.2,12.7-9.6l3.4-0.2
			c-4.3,4.9-14.9,18.9-22.8,19.4s-12.7-2.7-13.1-10.2c-0.1-1.7,0-3.5,0.3-5.2l8.1-52.9L547.8,323.7z"/>
		<path class="st1" d="M576.5,322.1l-8.4,54.9c-0.2,1.1-0.3,2.2-0.3,3.2c0.1,2.2,1.3,3.6,5.2,3.4s8.9-6.2,12.7-9.6l3.4-0.2
			c-4.3,4.9-14.9,18.9-22.8,19.4s-12.7-2.7-13.1-10.2c-0.1-1.7,0-3.5,0.3-5.2l8.1-52.9L576.5,322.1z"/>
		<path class="st1" d="M600.8,340.8l-5.2,34.5c-0.2,1-0.2,2.1-0.2,3.1c0.1,2.2,1.2,3.8,5.2,3.5s8.9-6.2,12.7-9.6l3.4-0.2
			c-4.3,4.9-14.9,18.9-22.8,19.4s-12.7-2.7-13.2-10.2c-0.1-1.7,0-3.5,0.3-5.2l5.2-34.5L600.8,340.8z M594.9,319.8
			c4.4-0.2,8.2,3.1,8.5,7.6c0.2,4.4-3.2,8.2-7.6,8.4c-4.4,0.3-8.1-3-8.4-7.4v-0.1C587.2,323.9,590.5,320.1,594.9,319.8L594.9,319.8
			L594.9,319.8z"/>
		<path class="st1" d="M645.6,352c0.9,0.7,1.9,0.9,3,0.7c4.7-0.3,6.6-3.8,10.3-5.5l0.5,2.1c-3.5,4.5-8.2,7.9-13.7,9.7
			c-0.7,20.3-11.1,30.9-21.2,31.5c-10.7,0.6-15.6-3.6-16.3-15.6c-1.5-24.7,10.5-36.1,24.3-36.9C642.1,337.4,645,344.7,645.6,352z
			 M638.3,360.4c-2.9,0.2-4.3-1.9-4.5-4.3c-0.2-2.9,1.4-6.1,4-7.3c-0.5-3.3-1.7-5.1-4.5-5c-9.4,0.5-12.3,21.3-11.8,29.3
			c0.3,6,3.2,7.5,7.2,7.2C634.8,380,637.7,370.2,638.3,360.4z"/>
		<path class="st1" d="M687.6,386.1c-6.5,0.4-10.4-2.8-10.9-10.4c-0.1-1.7,0-3.5,0.3-5.2l2.8-18.3c0.1-0.9,0.2-1.8,0.2-2.6
			c-0.2-3.6-2.2-5.8-5-5.7c-2.3,0.1-4.5,1-6.2,2.5l-6.2,41.1l-14.5,0.8l7.7-50.8l14.5-0.8l-0.9,5.5c3.9-3.2,8.4-5.9,12.8-6.2
			c5.5-0.3,11.9,5.1,12.3,12c0,0.8,0,1.5-0.1,2.3c-0.3,3.3-3.6,21.3-3.5,23.5c0.1,1.7,1,3.1,3.9,2.9c0.9,0,1.8-0.2,2.6-0.5
			C695.2,385.1,691.1,385.9,687.6,386.1z"/>
		<path class="st1" d="M743.9,316.6c0,0-1.1,6.9-2.5,16.1l6-0.4l-0.6,4.1l-6,0.4c-5.1,32.1-4.9,33.1-4.9,33.6
			c0.1,2.3,1.2,3.8,5.2,3.5s8.9-6.2,12.7-9.6l3.4-0.2c-4.3,4.9-14.9,18.9-22.8,19.4s-12.7-2.7-13.1-10.2c-0.3-5.3,3.7-26.9,4.9-35.6
			l-3.3,0.2l0.6-4.1l3.3-0.2l2.2-14L743.9,316.6z"/>
		<path class="st1" d="M770.5,331l-0.8,5.1c3.5-3,7.3-5.5,11.6-5.7c4.5-0.3,7.4,2.2,7.6,6c0.2,3.5-2.2,8-7.1,8.3
			c-5.6,0.3-3.2-6.5-6.2-6.3s-4.5,1.4-6.7,3.6l-6,39.9l-14.5,0.8l7.7-50.8L770.5,331z"/>
		<path class="st1" d="M809.9,328.7l-5.2,34.5c-0.2,1-0.2,2.1-0.2,3.1c0.1,2.2,1.2,3.8,5.2,3.5s8.9-6.2,12.7-9.6l3.4-0.2
			c-4.3,4.9-14.9,18.9-22.8,19.4s-12.8-2.7-13.2-10.2c-0.1-1.7,0-3.5,0.3-5.2l5.2-34.5L809.9,328.7z M804.1,307.7
			c4.4-0.2,8.2,3.1,8.5,7.6c0.2,4.4-3.2,8.2-7.6,8.4c-4.4,0.3-8.1-3-8.4-7.4v-0.1C796.3,311.8,799.7,308,804.1,307.7L804.1,307.7
			L804.1,307.7z"/>
		<path class="st1" d="M836.9,327.1l-0.3,1.9c2.1-1.3,4.5-2,6.9-2.2c10.4-0.6,15.6,2.8,16.2,13.2c0.1,2.4,0,4.7-0.2,7.1
			c-1.9,21.8-10.1,29.6-20.3,30.2c-3.4,0.1-6.7-0.7-9.6-2.5l-3.8,24.9l-15,4.5l11.6-76.2L836.9,327.1z M846.7,349
			c0.6-3.4,0.8-6.8,0.7-10.2c-0.3-6-2.8-7.1-6-6.9c-2.1,0.2-4,1.1-5.6,2.4l-5.3,34.1c2,1.2,4.3,1.7,6.6,1.4
			C842.1,369.6,844.3,365.2,846.7,349L846.7,349z"/>
		<path class="st1" d="M890,322.2l0.1,1.4c1,16.6,8.6,21,9.2,32.7c0.5,9.3-4.9,17.8-18.5,18.6c-11.5,0.7-17.4-2.3-17.9-12.2
			c-0.5-7.9,2.9-12.8,6.9-13.3c3-6.7,4.5-15.7,5.8-23.4L890,322.2z M871.7,361.9c-1.3,0.1-2.5-0.2-3.7-0.7c0.3,5.9,3.7,8.4,9,8
			c3.4-0.2,8.1-4.7,7.6-12.4c-0.4-6.2-5.2-11.3-6.1-23.8c-1.3,5-2.3,11.5-4.3,16.7c2.5,0.7,3.5,2.4,3.6,5.4
			C878.1,358.6,875.3,361.7,871.7,361.9L871.7,361.9z"/>
		<path class="st1" d="M946.3,304.9c0,0-1.1,6.9-2.5,16.1l6-0.4l-0.6,4.1l-6,0.4c-5.1,32.1-4.9,33.1-4.9,33.6
			c0.1,2.3,1.2,3.8,5.2,3.5s8.9-6.2,12.7-9.6l3.4-0.2c-4.3,4.9-14.9,18.9-22.8,19.4s-12.7-2.7-13.1-10.2c-0.3-5.3,3.7-26.9,4.9-35.6
			l-3.3,0.2l0.6-4.1l3.3-0.2l2.2-14L946.3,304.9z"/>
		<path class="st1" d="M993.4,325l1.1,2c-0.8,3.6-2.2,8.4-6.1,11c0.1,20.9-11.1,32.1-20.6,32.6c-10.7,0.6-16-3.7-16.7-15.6
			c-1.4-24.5,10.6-36.1,24.4-36.9c4.8-0.3,9.5,1.4,9.7,4c0.2,2.9-2.2,4.3-4.2,5.1c-0.9-2.1-2.4-3.3-4.7-3.1
			c-9.8,0.6-12.3,21.3-11.8,29.3c0.3,6,3.5,7.5,7.5,7.2c5.9-0.3,8.8-11.4,9.3-20.7c-2-0.3-2.9-1.9-3-4c-0.2-3.5,3.1-7.8,6.3-8
			c1.9-0.1,3.5,0.4,3.6,2.5c0,0.3,0,0.6,0,0.9C990.4,329.5,991.2,327.7,993.4,325z"/>
		<path class="st1" d="M1061,314.1l-5.3,34.5c-0.2,1-0.2,2.1-0.2,3.1c0.1,2.2,1.2,3.8,5.2,3.5s8.9-6.2,12.7-9.6l3.4-0.2
			c-4.3,4.9-14.9,18.9-22.8,19.4c-6.5,0.4-11.1-1.8-12.7-6.9c-2.8,4.3-7.1,8.7-13.2,9c-9.6,0.6-12.8-6.1-13.2-12
			c-1-17.3,4-38.3,24.1-39.5c2.5-0.1,4.9,0.7,6.9,2.1l0.4-2.6L1061,314.1z M1028.6,351.5c0.3,6,3.7,6.9,6.2,6.8
			c2.3-0.1,4.4-2.5,6.1-5.4c0.1-1.1,0.2-2.2,0.4-3.4l4.1-26.9c-1.4-1.1-3.2-1.6-5-1.5C1032.9,321.5,1027.8,337.9,1028.6,351.5z"/>
		<path class="st1" d="M1086.8,312.6l-0.8,5.1c3.4-3,7.3-5.5,11.6-5.7c4.5-0.3,7.4,2.2,7.6,6c0.2,3.5-2.2,8-7.1,8.3
			c-5.6,0.3-3.2-6.5-6.2-6.3s-4.6,1.4-6.7,3.6l-6.1,39.8l-14.5,0.8l7.7-50.8L1086.8,312.6z"/>
		<path class="st1" d="M1126.7,353.4c4.9-0.3,13-6.6,16.1-14.2l4.5-0.3c-5.1,10.7-14.2,21.4-27.1,22.1c-9.6,0.6-15.3-6.5-15.8-15.1
			c-0.7-12.8,3.4-35.5,21.7-36.5c8.2-0.5,13,2.7,13.5,9.7c0.7,12.2-12,20-21.5,21.8c-0.1,1.4-0.1,2.9-0.1,4.3
			C1118.3,351.9,1122.8,353.7,1126.7,353.4z M1129.7,314.6c-5.6,0.3-9.6,11.9-11.1,21.5c9.2-0.6,15.3-9,15-16.1
			C1133.4,317.9,1132.7,314.4,1129.7,314.6L1129.7,314.6z"/>
		<path class="st1" d="M1186,306.9l-5.2,34.5c-0.2,1.2-0.3,2.5-0.3,3.8c0.1,2.1,1,3.2,3.3,3c1.1-0.1,2.5-1.6,4-4
			c-0.5-8.2,2.9-13.1,6.9-13.6c3-6.7,4.5-15.7,5.8-23.4l14.4-3.9l0.1,1.4c1,16.6,8.6,21,9.2,32.7c0.5,9.3-4.9,17.8-18.5,18.6
			c-9.2,0.5-14.8-1.3-16.9-7c-3.3,4.8-6.8,8.4-9.7,8.5c-7,0.4-11-2.4-12.5-7.1c-2.8,4.4-7,8.9-13.3,9.2c-9.6,0.6-12.8-6.1-13.2-12
			c-1-17.3,4-38.3,24.1-39.5c2.5-0.1,4.9,0.7,6.9,2.1l0.4-2.6L1186,306.9z M1170.5,315.3c-1.4-1.1-3.2-1.6-5-1.5
			c-7.5,0.4-12.6,16.8-11.8,30.4c0.3,6,3.7,6.9,6.2,6.8c2.3-0.1,4.4-2.6,6.2-5.5c0-1.1,0.1-2.2,0.3-3.2L1170.5,315.3z M1196.6,343
			c-1.2,0-2.4-0.2-3.6-0.6c-0.1,0.5-0.1,1.1-0.1,1.6c0.2,4.3,5.1,6.5,9,6.3c3.4-0.2,8.1-4.7,7.6-12.4c-0.4-6.2-5.2-11.3-6.1-23.8
			c-1.3,5-2.3,11.5-4.3,16.7c2.5,0.7,3.5,2.4,3.6,5.4C1203,339.8,1200.2,342.9,1196.6,343C1196.6,343.1,1196.6,343.1,1196.6,343
			L1196.6,343z"/>
		<g class="st0">
			<path d="M317.8,510.3c4.9-0.3,13-6.6,16.1-14.2l4.5-0.3c-5.1,10.7-14.2,21.4-27.1,22.1c-9.6,0.6-15.3-6.5-15.8-15.1
				c-0.7-12.8,3.4-35.5,21.7-36.5c8.2-0.5,13,2.7,13.5,9.7c0.7,12.2-12,20-21.5,21.8c-0.1,1.4-0.1,2.9,0,4.3
				C309.4,508.8,313.8,510.5,317.8,510.3z M320.8,471.4c-5.6,0.3-9.6,11.9-11.1,21.5c9.2-0.6,15.3-9,15-16.1
				C324.5,474.7,323.8,471.2,320.8,471.4L320.8,471.4z"/>
			<path d="M374.1,498.2c-0.2,1.1-0.4,2.2-0.3,3.2c0.1,2.2,1.3,3.7,5.2,3.4s5.3-3.4,9.2-6.9l3.4-0.2c-4.4,4.9-11.4,16.2-19.2,16.6
				s-12.6-2.7-13.1-10.2c-0.1-1.7,0-3.5,0.3-5.2l2.8-18.3c0.1-0.9,0.2-1.8,0.1-2.6c-0.2-3.6-2.2-5.8-5-5.7c-2.3,0.1-4.5,1-6.2,2.5
				l-6.2,41.1l-14.5,0.8l7.7-50.8l14.5-0.8l-0.9,5.5c3.9-3.2,8.4-5.9,12.8-6.2c5.4-0.3,11.9,5.1,12.3,11.9c0.1,0.8,0.1,1.6-0.1,2.4
				L374.1,498.2z"/>
			<path d="M431.5,440.4l-8.3,54.9c-0.2,1.1-0.3,2.2-0.3,3.2c0.1,2.2,1.3,3.6,5.2,3.4s8.9-6.2,12.7-9.6l3.4-0.2
				c-4.4,4.9-14.9,18.9-22.8,19.3c-6.5,0.4-11-1.8-12.6-6.9c-2.8,4.3-7,8.7-13.2,9c-9.6,0.6-12.8-6.1-13.2-12
				c-1-17.3,4-38.3,24.1-39.5c2.5-0.1,4.9,0.7,6.9,2.1l3.2-20.9L431.5,440.4z M395.9,498.1c0.4,6,3.7,6.9,6.2,6.8
				c2.3-0.1,4.4-2.5,6.1-5.4c0.1-1.1,0.2-2.2,0.4-3.4l4.1-26.9c-1.4-1.1-3.2-1.6-5-1.5C400.2,468.1,395.1,484.4,395.9,498.1
				L395.9,498.1z"/>
			<path d="M453.6,502.4c4.9-0.3,13-6.6,16.1-14.2l4.5-0.3c-5.1,10.7-14.2,21.4-27.1,22.1c-9.6,0.6-15.3-6.5-15.8-15.1
				c-0.7-12.8,3.4-35.5,21.7-36.5c8.2-0.5,13,2.7,13.5,9.7c0.7,12.2-12,20-21.5,21.8c-0.1,1.4-0.1,2.9,0,4.3
				C445.2,500.9,449.7,502.6,453.6,502.4z M456.6,463.5c-5.6,0.3-9.6,11.9-11.1,21.5c9.2-0.6,15.3-9,15-16.1
				C460.3,466.9,459.6,463.4,456.6,463.5L456.6,463.5z"/>
			<path d="M534.5,488.9c-0.2,1.2-0.3,2.5-0.3,3.8c0.1,2.3,1.1,4.1,4.3,3.9c4-0.2,7.9-6.4,10-10.9l4.7-0.3
				c-4.3,5.7-12.6,19.3-20.4,19.7s-12.7-2.7-13.1-10.2c-0.1-1.7,0-3.5,0.3-5.2l2.8-18.3c0.1-0.9,0.2-1.8,0.2-2.6
				c-0.2-3.6-2.2-5.8-5-5.7c-2.1,0.1-4.1,0.9-5.7,2.1c0.4,1.1,0.6,2.3,0.7,3.5c0,0.7,0,1.4-0.1,2.1l-5.4,35.7l-14.6,0.8l5.3-34.5
				c0.1-0.9,0.2-1.8,0.2-2.6c-0.2-3.6-2.2-5.8-5-5.7c-2.2,0.1-4.3,1-6,2.5l-6.3,41.1l-14.5,0.8l7.7-50.8l14.5-0.8l-0.8,5.4
				c3.8-3.1,8.3-5.8,12.6-6.1c3.7-0.2,7.9,2.3,10.3,6c4.2-3.8,9.3-7.2,14.3-7.5c5.5-0.3,11.9,5.1,12.3,12c0,0.8,0,1.5-0.1,2.3
				L534.5,488.9z"/>
			<path d="M563.7,452.9l-5.2,34.5c-0.2,1-0.2,2.1-0.2,3.1c0.1,2.2,1.2,3.8,5.2,3.5s8.9-6.2,12.7-9.6l3.4-0.2
				c-4.3,4.9-14.9,18.9-22.8,19.4c-7.8,0.5-12.8-2.7-13.2-10.2c-0.1-1.7,0-3.5,0.3-5.2l5.2-34.5L563.7,452.9z M557.8,431.9
				c4.4-0.2,8.2,3.1,8.5,7.6c0.2,4.4-3.1,8.2-7.5,8.4c-4.4,0.3-8.1-3-8.4-7.4v-0.1C550.1,436,553.4,432.2,557.8,431.9z"/>
			<path d="M570.4,486.4c-0.8-14.7,4.3-34.4,23.8-35.5c5.4-0.3,11.1,0.8,11.5,6.3c0.1,1.1,0,2.3-0.3,3.3l-5.7,0.3
				c0.2-0.9,0.3-1.9,0.3-2.8c-0.1-2.4-1.7-3.3-3.9-3.2c-8.4,0.5-12.9,17.2-12.3,28c0.3,4.9,1.7,10.7,7.8,10.3
				c5.4-0.3,10-3.1,13.7-6.7c0.5,8.7-6.6,14.9-19.2,15.6C577.8,502.5,571.1,498.2,570.4,486.4z"/>
			<path d="M694,452.4c0.9,15.7-5.4,43.6-25.7,44.8c-6.8,0.4-11.4-2-12.7-7.6c-4.5,4.6-9.7,8.9-13.9,9.2
				c-7.7,0.5-12.8-2.7-13.2-10.2c-0.1-1.7,0-3.5,0.3-5.2l5.2-34.5l14.5-0.8l-5.2,34.5c-0.2,1-0.2,2.1-0.2,3.1
				c0.1,2.2,1.2,3.8,5.2,3.5c2.1-0.1,4.5-1.8,6.8-3.9c0-1.2,0.1-2.3,0.3-3.4l5.2-34.5l14.5-0.8l-5.2,34.5c-0.2,1.2-0.3,2.5-0.3,3.8
				c0.1,1.9,1.1,3.2,4,3c9.8-0.6,15.3-23,14.7-33.9c-0.7,0.3-1.4,0.4-2.1,0.5c-2.9,0.2-4.4-2.6-4.5-5.4c-0.1-2.1,2.1-5.1,5.4-5.2
				C691.4,443.5,693.7,447.2,694,452.4z"/>
			<path d="M716.8,444l-5.2,34.5c-0.2,1-0.2,2.1-0.2,3.1c0.1,2.2,1.2,3.8,5.2,3.5s8.9-6.2,12.7-9.6l3.4-0.2
				c-4.3,4.9-14.9,18.9-22.8,19.4s-12.8-2.7-13.2-10.2c-0.1-1.7,0-3.5,0.3-5.2l5.2-34.6L716.8,444z M710.9,423
				c4.4-0.2,8.2,3.1,8.5,7.6c0.2,4.4-3.2,8.2-7.6,8.4c-4.4,0.3-8.1-3-8.4-7.4v-0.1C703.2,427.1,706.5,423.3,710.9,423L710.9,423
				L710.9,423z"/>
			<path d="M747.5,426.3c0,0-1.1,6.9-2.5,16.1l6-0.4l-0.6,4.1l-6,0.4c-5.1,32.1-4.9,33.1-4.9,33.6c0.1,2.3,1.2,3.8,5.2,3.5
				s8.9-6.2,12.7-9.6l3.4-0.2c-4.3,4.9-14.9,18.9-22.8,19.4s-12.7-2.7-13.1-10.2c-0.3-5.3,3.7-26.9,4.9-35.6l-3.3,0.2l0.6-4.1
				l3.3-0.2l2.2-14L747.5,426.3z"/>
			<path d="M790.3,490.2c-7.1,0.4-10.5-4.1-10.9-10.5c-0.1-1.7,0-3.4,0.3-5.1l2.8-18.3c0.1-0.8,0.1-1.5,0.1-2.3
				c-0.2-3.2-1.8-6.1-4.9-6c-2.3,0.1-4.5,1-6.2,2.6l-6.3,41l-14.5,0.8l10.6-69.1l14.7-2.9l-3.9,25.8c3.9-3.2,8.4-5.9,12.8-6.2
				c5.6-0.3,11.9,5.5,12.3,12.1c0.1,0.7,0.1,1.5-0.1,2.2l-3,19.4c-0.3,1.4-0.5,2.8-0.6,4.2c0.1,1.7,1,3,4,2.8c0.9,0,1.8-0.2,2.6-0.5
				C797.9,489.1,793.7,490,790.3,490.2z"/>
			<path d="M853.1,443.3c-0.1-2.4-1.7-3.3-3.9-3.2c-8.4,0.5-12.9,17.2-12.3,28c0.3,5.9,1.8,10.7,8,10.3c7.1-0.4,12.6-5,16.9-10.5
				l3.4-0.2c-4.5,5.7-9.2,18.6-27,19.6c-8.3,0.5-14-3.8-14.7-15.7c-0.8-14.7,4.3-34.4,23.8-35.5c5.4-0.3,11.1,0.8,11.5,6.3
				c0.1,1.1,0,2.3-0.3,3.3c-0.8-0.4-1.7-0.5-2.5-0.5c-1.1,0.1-2.2,0.4-3.2,0.8C853,445.2,853.1,444.3,853.1,443.3z"/>
			<path d="M901.7,467.6c-0.2,1.1-0.3,2.2-0.3,3.2c0.1,2.2,1.3,3.6,5.2,3.4s8.9-6.2,12.7-9.6l3.4-0.2c-4.3,4.9-14.9,18.9-22.8,19.4
				s-12.7-2.7-13.1-10.2c-0.1-1.7,0-3.5,0.3-5.2l2.8-18.3c0.1-0.9,0.2-1.8,0.2-2.6c-0.2-3.6-2.2-5.8-5-5.7c-2.3,0.1-4.4,1-6.1,2.5
				l-6.3,41.1l-14.5,0.8l10.6-69.1l14.7-2.9l-4,25.7c4-3.1,8.4-5.8,12.7-6.1c5.4-0.3,11.9,5.1,12.3,11.9c0.1,0.8,0.1,1.6-0.1,2.4
				L901.7,467.6z"/>
			<path d="M947.6,444.5c0.9,0.6,1.9,0.9,3,0.7c4.7-0.3,6.6-3.8,10.3-5.5l0.5,2.1c-3.5,4.5-8.2,7.9-13.7,9.7
				c-0.7,20.3-11.1,30.9-21.2,31.5c-10.7,0.6-15.6-3.6-16.3-15.6c-1.4-24.7,10.5-36.1,24.4-36.9C944.1,429.9,947,437.2,947.6,444.5z
				 M940.3,452.9c-2.9,0.2-4.3-1.9-4.5-4.3c-0.2-2.9,1.4-6.1,4-7.3c-0.5-3.3-1.7-5.1-4.5-5c-9.4,0.5-12.3,21.3-11.8,29.3
				c0.3,6,3.2,7.5,7.2,7.2C936.8,472.5,939.7,462.7,940.3,452.9z"/>
			<path d="M976.4,408.9l-8.4,54.9c-0.2,1.1-0.3,2.2-0.3,3.2c0.1,2.2,1.3,3.6,5.2,3.4s8.9-6.2,12.7-9.6l3.4-0.2
				c-4.3,4.9-14.9,18.9-22.8,19.4s-12.7-2.7-13.1-10.2c-0.1-1.7,0-3.5,0.3-5.2l8.1-52.9L976.4,408.9z"/>
			<path d="M1001.1,470.7c4.9-0.3,13-6.6,16.1-14.2l4.5-0.3c-5.1,10.7-14.2,21.4-27.1,22.1c-9.6,0.6-15.3-6.5-15.8-15.1
				c-0.7-12.8,3.4-35.5,21.7-36.5c8.2-0.5,13,2.7,13.5,9.7c0.7,12.2-12,20-21.5,21.8c-0.1,1.4-0.1,2.9,0,4.3
				C992.8,469.2,997.2,470.9,1001.1,470.7z M1004.1,431.8c-5.6,0.3-9.6,11.9-11.1,21.5c9.2-0.6,15.3-9,15-16.1
				C1007.8,435.1,1007.1,431.7,1004.1,431.8L1004.1,431.8z"/>
			<path d="M1036.2,425.5l-0.8,5.1c3.4-3,7.3-5.5,11.6-5.7c4.5-0.3,7.4,2.2,7.6,6c0.2,3.5-2.2,8-7.1,8.3c-5.6,0.3-3.2-6.5-6.2-6.3
				s-4.6,1.4-6.7,3.6l-6.1,39.8l-14.5,0.8l7.7-50.8L1036.2,425.5z"/>
			<path d="M1093.7,456.5c-0.2,1.1-0.3,2.3-0.3,3.4c0.1,2.1,1,3.7,3.8,3.5c0.9,0,1.8-0.2,2.6-0.5c-2.3,8.8-6.5,9.6-9.9,9.8
				c-5.8,0.3-9.1-2.5-10.4-7c-2.8,4.3-7.1,8.7-13.2,9c-9.6,0.6-12.8-6.1-13.2-12c-1-17.3,4-38.3,24.1-39.5c2.5-0.1,4.9,0.7,6.9,2.1
				l0.4-2.6l14.4-0.8L1093.7,456.5z M1083.4,430.4c-1.4-1.1-3.2-1.6-5-1.5c-7.5,0.4-12.6,16.8-11.8,30.4c0.3,6,3.7,6.9,6.2,6.8
				c2.3-0.1,4.4-2.6,6.2-5.5c0-1.1,0.1-2.2,0.3-3.2L1083.4,430.4z"/>
		</g>
		<path class="st1" d="M310.8,503.3c4.9-0.3,13-6.6,16.1-14.2l4.5-0.3c-5.1,10.7-14.2,21.4-27.1,22.1c-9.6,0.6-15.3-6.5-15.8-15.1
			c-0.7-12.8,3.4-35.5,21.7-36.5c8.2-0.5,13,2.7,13.5,9.7c0.7,12.2-12,20-21.5,21.8c-0.1,1.4-0.1,2.9,0,4.3
			C302.4,501.8,306.8,503.5,310.8,503.3z M313.8,464.4c-5.6,0.3-9.6,11.9-11.1,21.5c9.2-0.6,15.3-9,15-16.1
			C317.5,467.7,316.8,464.2,313.8,464.4L313.8,464.4z"/>
		<path class="st1" d="M367.1,491.2c-0.2,1.1-0.4,2.2-0.3,3.2c0.1,2.2,1.3,3.6,5.2,3.4s5.3-3.4,9.2-6.9l3.4-0.2
			c-4.4,4.9-11.4,16.2-19.2,16.6s-12.6-2.7-13.1-10.2c-0.1-1.7,0-3.5,0.3-5.2l2.8-18.3c0.1-0.9,0.2-1.8,0.1-2.6
			c-0.2-3.6-2.2-5.8-5-5.7c-2.3,0.1-4.5,1-6.2,2.5l-6.2,41.1l-14.5,0.8l7.7-50.8l14.5-0.8l-0.9,5.5c3.9-3.2,8.4-5.9,12.8-6.2
			c5.4-0.3,11.9,5.1,12.3,11.9c0.1,0.8,0.1,1.6-0.1,2.4L367.1,491.2z"/>
		<path class="st1" d="M424.5,433.4l-8.3,54.9c-0.2,1.1-0.3,2.2-0.3,3.2c0.1,2.2,1.3,3.6,5.2,3.4s8.9-6.2,12.7-9.6l3.4-0.2
			c-4.4,4.9-14.9,18.9-22.8,19.3c-6.5,0.4-11-1.8-12.6-6.9c-2.8,4.3-7,8.7-13.2,9c-9.6,0.6-12.8-6.1-13.2-12
			c-1-17.3,4-38.3,24.1-39.5c2.5-0.1,4.9,0.7,6.9,2.1l3.2-20.9L424.5,433.4z M388.9,491.1c0.4,6,3.7,6.9,6.2,6.8
			c2.3-0.1,4.4-2.5,6.1-5.4c0.1-1.1,0.2-2.2,0.4-3.4l4.1-26.9c-1.4-1.1-3.2-1.6-5-1.5C393.2,461.1,388.1,477.4,388.9,491.1
			L388.9,491.1z"/>
		<path class="st1" d="M446.6,495.4c4.9-0.3,13-6.6,16.1-14.2l4.5-0.3c-5.1,10.7-14.2,21.4-27.1,22.1c-9.6,0.6-15.3-6.5-15.8-15.1
			c-0.7-12.8,3.4-35.5,21.7-36.5c8.2-0.5,13,2.7,13.5,9.7c0.7,12.2-12,20-21.5,21.8c-0.1,1.4-0.1,2.9,0,4.3
			C438.2,493.9,442.7,495.6,446.6,495.4z M449.6,456.5c-5.6,0.3-9.6,11.9-11.1,21.5c9.2-0.6,15.3-9,15-16.1
			C453.3,459.9,452.6,456.4,449.6,456.5L449.6,456.5z"/>
		<path class="st1" d="M527.5,481.9c-0.2,1.2-0.3,2.5-0.3,3.8c0.1,2.3,1.1,4.1,4.3,3.9c4-0.2,7.9-6.4,10-10.9l4.7-0.3
			c-4.3,5.7-12.6,19.3-20.4,19.7s-12.7-2.7-13.1-10.2c-0.1-1.7,0-3.5,0.3-5.2l2.8-18.3c0.1-0.9,0.2-1.8,0.2-2.6
			c-0.2-3.6-2.2-5.8-5-5.7c-2.1,0.1-4.1,0.9-5.7,2.1c0.4,1.1,0.6,2.3,0.7,3.5c0,0.7,0,1.4-0.1,2.1l-5.4,35.7l-14.6,0.8l5.3-34.5
			c0.1-0.9,0.2-1.8,0.2-2.6c-0.2-3.6-2.2-5.8-5-5.7c-2.2,0.1-4.3,1-6,2.5l-6.3,41.1l-14.5,0.8l7.7-50.8l14.5-0.8l-0.8,5.4
			c3.9-3.1,8.3-5.8,12.6-6.1c3.7-0.2,7.9,2.3,10.3,6c4.2-3.8,9.3-7.2,14.3-7.5c5.5-0.3,11.9,5.1,12.3,12c0,0.8,0,1.5-0.1,2.3
			L527.5,481.9z"/>
		<path class="st1" d="M556.7,445.9l-5.2,34.5c-0.2,1-0.2,2.1-0.2,3.1c0.1,2.2,1.2,3.8,5.2,3.5s8.9-6.2,12.7-9.6l3.4-0.2
			c-4.3,4.9-14.9,18.9-22.8,19.4s-12.8-2.7-13.2-10.2c-0.1-1.7,0-3.5,0.3-5.2l5.2-34.5L556.7,445.9z M550.8,424.9
			c4.4-0.2,8.2,3.1,8.5,7.6c0.2,4.4-3.1,8.2-7.5,8.4c-4.4,0.3-8.1-3-8.4-7.4v-0.1C543.1,429,546.4,425.2,550.8,424.9z"/>
		<path class="st1" d="M563.4,479.4c-0.8-14.7,4.3-34.4,23.8-35.5c5.4-0.3,11.1,0.8,11.5,6.3c0.1,1.1,0,2.3-0.3,3.3l-5.7,0.3
			c0.2-0.9,0.3-1.9,0.3-2.8c-0.1-2.4-1.7-3.3-3.9-3.2c-8.4,0.5-12.9,17.2-12.3,28c0.3,4.9,1.7,10.7,7.8,10.3
			c5.4-0.3,10-3.1,13.7-6.7c0.5,8.7-6.6,14.9-19.2,15.6C570.8,495.5,564.1,491.2,563.4,479.4z"/>
		<path class="st1" d="M687,445.4c0.9,15.7-5.4,43.6-25.7,44.8c-6.8,0.4-11.4-2-12.7-7.6c-4.5,4.6-9.7,8.9-13.9,9.2
			c-7.7,0.5-12.8-2.7-13.2-10.2c-0.1-1.7,0-3.5,0.3-5.2l5.2-34.5l14.5-0.8l-5.2,34.5c-0.2,1-0.2,2.1-0.2,3.1
			c0.1,2.2,1.2,3.8,5.2,3.5c2.1-0.1,4.5-1.8,6.8-3.9c0-1.2,0.1-2.3,0.3-3.4l5.2-34.5l14.5-0.8l-5.2,34.5c-0.2,1.2-0.3,2.5-0.3,3.8
			c0.1,1.9,1.1,3.2,4,3c9.8-0.6,15.3-23,14.7-33.9c-0.7,0.3-1.4,0.4-2.1,0.5c-2.9,0.2-4.4-2.6-4.5-5.4c-0.1-2.1,2.1-5.1,5.4-5.2
			C684.4,436.5,686.7,440.2,687,445.4z"/>
		<path class="st1" d="M709.8,437l-5.2,34.5c-0.2,1-0.2,2.1-0.2,3.1c0.1,2.2,1.2,3.8,5.2,3.5s8.9-6.2,12.7-9.6l3.4-0.2
			c-4.3,4.9-14.9,18.9-22.8,19.4s-12.8-2.7-13.2-10.2c-0.1-1.7,0-3.5,0.3-5.2l5.2-34.6L709.8,437z M703.9,416
			c4.4-0.2,8.2,3.1,8.5,7.6c0.2,4.4-3.2,8.2-7.6,8.4c-4.4,0.3-8.1-3-8.4-7.4v-0.1C696.2,420.1,699.5,416.3,703.9,416L703.9,416
			L703.9,416z"/>
		<path class="st1" d="M740.5,419.3c0,0-1.1,6.9-2.5,16.1l6-0.4l-0.6,4.1l-6,0.4c-5.1,32.1-4.9,33.1-4.9,33.6
			c0.1,2.3,1.2,3.8,5.2,3.5s8.9-6.2,12.7-9.6l3.4-0.2c-4.3,4.9-14.9,18.9-22.8,19.4s-12.7-2.7-13.1-10.2c-0.3-5.3,3.7-26.9,4.9-35.6
			l-3.3,0.2l0.6-4.1l3.3-0.2l2.2-14L740.5,419.3z"/>
		<path class="st1" d="M783.3,483.2c-7.1,0.4-10.5-4.1-10.9-10.5c-0.1-1.7,0-3.4,0.3-5.1l2.8-18.3c0.1-0.8,0.1-1.5,0.1-2.3
			c-0.2-3.2-1.8-6.1-4.9-6c-2.3,0.1-4.5,1-6.2,2.6l-6.3,41l-14.5,0.8l10.6-69.1l14.7-2.9l-3.9,25.8c3.9-3.2,8.4-5.9,12.8-6.2
			c5.6-0.3,11.9,5.5,12.3,12.1c0.1,0.7,0.1,1.5-0.1,2.2l-3,19.4c-0.3,1.4-0.5,2.8-0.6,4.2c0.1,1.7,1,3,4,2.8c0.9,0,1.8-0.2,2.6-0.5
			C790.9,482.1,786.7,483,783.3,483.2z"/>
		<path class="st1" d="M846.1,436.3c-0.1-2.4-1.7-3.3-3.9-3.2c-8.4,0.5-12.9,17.2-12.3,28c0.3,5.9,1.8,10.7,8,10.3
			c7.1-0.4,12.6-5,16.9-10.5l3.4-0.2c-4.5,5.7-9.2,18.6-27,19.6c-8.3,0.5-14-3.8-14.7-15.7c-0.8-14.7,4.3-34.4,23.8-35.5
			c5.4-0.3,11.1,0.8,11.5,6.3c0.1,1.1,0,2.3-0.3,3.3c-0.8-0.4-1.7-0.5-2.5-0.5c-1.1,0.1-2.2,0.4-3.2,0.8
			C846,438.2,846.1,437.3,846.1,436.3z"/>
		<path class="st1" d="M894.7,460.6c-0.2,1.1-0.3,2.2-0.3,3.2c0.1,2.2,1.3,3.6,5.2,3.4s8.9-6.2,12.7-9.6l3.4-0.2
			c-4.3,4.9-14.9,18.9-22.8,19.4s-12.7-2.7-13.1-10.2c-0.1-1.7,0-3.5,0.3-5.2l2.8-18.3c0.1-0.9,0.2-1.8,0.2-2.6
			c-0.2-3.6-2.2-5.8-5-5.7c-2.3,0.1-4.4,1-6.1,2.5l-6.3,41.1l-14.5,0.8l10.6-69.1l14.7-2.9l-4,25.7c4-3.1,8.4-5.8,12.7-6.1
			c5.4-0.3,11.9,5.1,12.3,11.9c0.1,0.8,0.1,1.6-0.1,2.4L894.7,460.6z"/>
		<path class="st1" d="M940.6,437.5c0.9,0.6,1.9,0.9,3,0.7c4.7-0.3,6.6-3.8,10.3-5.5l0.5,2.1c-3.5,4.5-8.2,7.9-13.7,9.7
			c-0.7,20.3-11.1,30.9-21.2,31.5c-10.7,0.6-15.6-3.6-16.3-15.6c-1.4-24.7,10.5-36.1,24.4-36.9C937.1,422.9,940,430.2,940.6,437.5z
			 M933.3,445.9c-2.9,0.2-4.3-1.9-4.5-4.3c-0.2-2.9,1.4-6.1,4-7.3c-0.5-3.3-1.7-5.1-4.5-5c-9.4,0.5-12.3,21.3-11.8,29.3
			c0.3,6,3.2,7.5,7.2,7.2C929.8,465.5,932.7,455.7,933.3,445.9z"/>
		<path class="st1" d="M969.4,401.9l-8.4,54.9c-0.2,1.1-0.3,2.2-0.3,3.2c0.1,2.2,1.3,3.6,5.2,3.4s8.9-6.2,12.7-9.6l3.4-0.2
			c-4.3,4.9-14.9,18.9-22.8,19.4s-12.7-2.7-13.1-10.2c-0.1-1.7,0-3.5,0.3-5.2l8.1-52.9L969.4,401.9z"/>
		<path class="st1" d="M994.1,463.7c4.9-0.3,13-6.6,16.1-14.2l4.5-0.3c-5.1,10.7-14.2,21.4-27.1,22.1c-9.6,0.6-15.3-6.5-15.8-15.1
			c-0.7-12.8,3.4-35.5,21.7-36.5c8.2-0.5,13,2.7,13.5,9.7c0.7,12.2-12,20-21.5,21.8c-0.1,1.4-0.1,2.9,0,4.3
			C985.8,462.2,990.2,463.9,994.1,463.7z M997.1,424.8c-5.6,0.3-9.6,11.9-11.1,21.5c9.2-0.6,15.3-9,15-16.1
			C1000.8,428.1,1000.1,424.7,997.1,424.8L997.1,424.8z"/>
		<path class="st1" d="M1029.2,418.5l-0.8,5.1c3.4-3,7.3-5.5,11.6-5.7c4.5-0.3,7.4,2.2,7.6,6c0.2,3.5-2.2,8-7.1,8.3
			c-5.6,0.3-3.2-6.5-6.2-6.3s-4.6,1.4-6.7,3.6l-6.1,39.8l-14.5,0.8l7.7-50.8L1029.2,418.5z"/>
		<path class="st1" d="M1086.7,449.5c-0.2,1.1-0.3,2.3-0.3,3.4c0.1,2.1,1,3.7,3.8,3.5c0.9,0,1.8-0.2,2.6-0.5
			c-2.3,8.8-6.5,9.6-9.9,9.8c-5.8,0.3-9.1-2.5-10.4-7c-2.8,4.3-7.1,8.7-13.2,9c-9.6,0.6-12.8-6.1-13.2-12c-1-17.3,4-38.3,24.1-39.5
			c2.5-0.1,4.9,0.7,6.9,2.1l0.4-2.6l14.4-0.8L1086.7,449.5z M1076.4,423.4c-1.4-1.1-3.2-1.6-5-1.5c-7.5,0.4-12.6,16.8-11.8,30.4
			c0.3,6,3.7,6.9,6.2,6.8c2.3-0.1,4.4-2.6,6.2-5.5c0-1.1,0.1-2.2,0.3-3.2L1076.4,423.4z"/>
	</g>
</g>
<path class="st2" d="M1114.8,426.8l-8.2,0.5l-0.3-1.3l11-11.5l1.7-0.1l-2.2,10.8l2.4-0.1l-0.3,1.5l-2.4,0.1l-0.8,3.8l-1.7,0.1
	L1114.8,426.8z M1115.1,425.3l1.7-8.1l-8.2,8.5L1115.1,425.3z"/>
<path class="st1" d="M1107.8,419.8l-8.2,0.5l-0.3-1.3l11-11.5l1.7-0.1l-2.2,10.8l2.4-0.1l-0.3,1.5l-2.4,0.1l-0.8,3.8l-1.7,0.1
	L1107.8,419.8z M1108.1,418.3l1.7-8.1l-8.2,8.5L1108.1,418.3z"/>
</svg>
