<svg id="Layer_1" data-name="Layer 1" xmlns="http://www.w3.org/2000/svg" xmlns:xlink="http://www.w3.org/1999/xlink" viewBox="0 0 652.26 336.66"><defs><style>.cls-1,.cls-5{fill:none;}.cls-2{font-size:11.64px;fill:#034e75;font-family:Interstate;}.cls-3{letter-spacing:6px;}.cls-4{clip-path:url(#clip-path);}.cls-5{stroke:#034e75;stroke-width:0.3px;}</style><clipPath id="clip-path" transform="translate(-210.24 -23.41)"><rect class="cls-1" x="-15" y="16.44" width="1018.38" height="361.45"/></clipPath></defs><title>bar-chart</title><text class="cls-2" transform="translate(0 333.87)"><tspan class="cls-3"> </tspan><tspan x="9.53" y="0">0</tspan></text><text class="cls-2" transform="translate(76.46 333.87)"><tspan class="cls-3"> </tspan><tspan x="9.53" y="0">5</tspan></text><text class="cls-2" transform="translate(164.99 333.87)">0</text><text class="cls-2" transform="translate(161.01 333.87)">1</text><text class="cls-2" transform="translate(164.26 333.87)"> </text><text class="cls-2" transform="translate(244.28 333.87)">5</text><text class="cls-2" transform="translate(240.3 333.87)">1</text><text class="cls-2" transform="translate(243.56 333.87)"> </text><text class="cls-2" transform="translate(326.97 333.87)">0</text><text class="cls-2" transform="translate(319.6 333.87)">2</text><text class="cls-2" transform="translate(322.86 333.87)"> </text><text class="cls-2" transform="translate(406.26 333.87)">5</text><text class="cls-2" transform="translate(398.9 333.87)">2</text><text class="cls-2" transform="translate(402.16 333.87)"> </text><text class="cls-2" transform="translate(485.32 333.87)">0</text><text class="cls-2" transform="translate(478.19 333.87)">3</text><text class="cls-2" transform="translate(481.45 333.87)"> </text><text class="cls-2" transform="translate(564.61 333.87)">5</text><text class="cls-2" transform="translate(557.49 333.87)">3</text><text class="cls-2" transform="translate(560.75 333.87)"> </text><text class="cls-2" transform="translate(644.55 333.87)">0</text><text class="cls-2" transform="translate(636.79 333.87)">4</text><text class="cls-2" transform="translate(640.05 333.87)"> </text><g class="cls-4"><path class="cls-5" d="M809.76,148.73c7.44-2.57,11-8,11-16.4v-26c0-10.43,1.63-17.62,11.1-20.19V85.85c-8.94-2-11.1-8.13-11.1-18.3V39.64c0-8.71-3.11-13.55-10.89-16.08" transform="translate(-210.24 -23.41)"/><path class="cls-5" d="M809.76,334.08c7.44-2.57,11-8,11-16.4V262.61c0-10.43,1.63-17.62,11.1-20.19v-0.27c-8.94-2-11.1-8.13-11.1-18.3V167.59c0-8.71-3.11-13.55-10.89-16.09" transform="translate(-210.24 -23.41)"/></g></svg>