<?xml version="1.0" standalone="no"?>
<!DOCTYPE svg PUBLIC "-//W3C//DTD SVG 1.1//EN" "http://www.w3.org/Graphics/SVG/1.1/DTD/svg11.dtd" >
<svg xmlns="http://www.w3.org/2000/svg" width="100%" height="100%">
<metadata>
Created by FontXChange 20110222 at Wed May  4 10:54:41 2016
 By Creative4
(c)1993, 2002, 2006 by Brian Willson, d.b.a. Three Islands Press (3IP), Rockland ME USA (www.3ip.com). All rights reserved worldwide. Marydale is a trademark of Brian Willson/3IP.
</metadata>
<defs>
<font id="MarydaleBold" horiz-adv-x="372" >
  <font-face 
    font-family="MarydaleBold"
    font-weight="600"
    font-stretch="normal"
    units-per-em="1000"
    panose-1="0 0 6 0 0 0 0 0 0 0"
    ascent="800"
    descent="-200"
    x-height="383"
    cap-height="689"
    bbox="-348 -559 1430 1057"
    underline-thickness="48"
    underline-position="-140"
    unicode-range="U+0020-FB02"
  />
<missing-glyph horiz-adv-x="500" 
d="M63 0v700h375v-700h-375zM125 63h250v575h-250v-575z" />
    <glyph glyph-name=".notdef" horiz-adv-x="500" 
d="M63 0v700h375v-700h-375zM125 63h250v575h-250v-575z" />
    <glyph glyph-name=".null" horiz-adv-x="0" 
 />
    <glyph glyph-name="nonmarkingreturn" horiz-adv-x="390" 
 />
    <glyph glyph-name="space" unicode=" " horiz-adv-x="390" 
 />
    <glyph glyph-name="exclam" unicode="!" horiz-adv-x="281" 
d="M215 651q0 -117 -41 -360q-12 -73 -12 -86q0 -4 1 -6q0 -9 4.5 -26.5t4.5 -26.5q-1 -46 -39 -46q-45 0 -45 74q0 9 1 19l35 388q2 36 3 72q3 59 9 65q16 17 38 17q19 0 32 -19q9 -14 9 -65zM161 -73q0 -55 -40 -56q-17 0 -30 19.5t-13 37.5q0 49 37 49q20 0 33 -14.5
t13 -35.5z" />
    <glyph glyph-name="quotedbl" unicode="&#x22;" horiz-adv-x="279" 
d="M279 670q0 -13 -8 -25q-29 -49 -39 -68q-20 -40 -21 -72q-2 -49 -33 -49q-15 0 -26 17t-11 46q0 20 5 43q10 41 30 80q24 47 47 59q9 4 19 4q15 0 26 -10t11 -25zM169 734q0 -17 -7 -33q-10 -21 -26 -73q-18 -56 -18 -72q0 -4 1 -13.5t1 -14.5q0 -19 -11 -36t-28 -17
q-39 0 -39 68q0 21 5 47q4 19 23 74q18 50 20 67.5t14.5 35t30.5 17.5q34 0 34 -50z" />
    <glyph glyph-name="numbersign" unicode="#" horiz-adv-x="636" 
d="M688 443q0 -6 -6 -14q-18 -23 -159 -66q-41 -14 -135 -41q-2 -33 -2 -38q0 -28 9 -43q18 -29 18 -42q0 -16 -14 -30.5t-30 -14.5t-28 17q-26 36 -27 129l-55 -18l-6 -91v-3q0 -6 2 -18.5t2 -19.5q0 -39 -46 -39q-20 0 -34 9q-17 11 -17 27q0 10 5 20q10 18 12 94
q-62 -13 -106 -14q-31 0 -48.5 14.5t-17.5 33.5q0 38 41 38q7 0 21.5 -1t22.5 -1q36 0 92 14l4 86q-88 -31 -107 -31q-24 0 -42.5 15.5t-18.5 32.5q0 14 14 21q34 16 159 50q11 175 16 183q8 14 33 14q29 0 36 -22q3 -11 3 -43q0 -25 -4 -108l52 15q9 139 19 148.5t27 9.5
q39 0 43 -36q1 -9 1 -20q0 -21 -5 -76q117 28 157 28q6 0 7 -1q16 -9 22.5 -15.5t6.5 -15.5q0 -14 -17 -19q-62 -16 -187 -56q-2 -35 -7 -106q131 27 171 39q67 20 96 20q27 -1 27 -15zM320 478l-52 -18l-6 -95l55 15z" />
    <glyph glyph-name="dollar" unicode="$" horiz-adv-x="588" 
d="M577 203q-1 -82 -65 -144q-44 -42 -133 -86q2 -35 8 -53q5 -13 5 -29q0 -19 -11.5 -34t-30.5 -15t-35.5 16t-16.5 37q0 9 4 17q1 3 1 10q0 3 -1 25q-8 -3 -25 -8q2 -114 5 -120q10 -15 10 -32q0 -20 -14 -35.5t-31 -15.5q-39 0 -44 70q-5 58 -6 126q-85 2 -110 55
q-9 17 -9 33q0 26 20.5 42.5t45.5 16.5q10 0 23.5 -5t13.5 -14q0 -7 -17 -18t-17 -18q0 -21 42 -21h7v13q0 29 -2.5 96.5t-2.5 106.5q0 55 4 103q-86 15 -120 30q-67 31 -69 92q0 45 50 86q35 30 95 56l64 26v17v16q0 10 -1.5 29.5t-1.5 29.5q0 42 44 42q41 0 41 -81l-1 -18
l1 -11q6 2 17 6v16q0 8 -1 26t-1 27q0 20 6 28t25 9q34 0 45 -30q7 -17 7 -59q18 3 34 3q80 0 80 -53q0 -17 -13.5 -30.5t-29.5 -13.5q-22 0 -26 27q-1 3 -6 3q-4 0 -40 -8q-4 -54 -12 -220q196 -51 195 -164zM313 565q-7 -2 -18 -6q-2 -34 -10 -124q-1 -7 -6 -47
q1 0 12 -1.5t12 -1.5q4 69 10 180zM214 535q-120 -49 -120 -88q0 -23 46 -35q10 -3 62 -11l6 56q4 51 6 78zM492 204q0 54 -114 86q-2 -38 -3 -133q-1 -54 -1 -70q0 -22 1 -29q117 69 117 146zM299 305q-2 0 -12.5 2t-12.5 2q-4 -46 -4 -99q0 -35 2 -92.5t2 -80.5v-22l24 9
q-3 73 -3 108q0 9 1 19q0 20 3 154z" />
    <glyph glyph-name="percent" unicode="%" horiz-adv-x="546" 
d="M318 495q0 -50 -49 -97q-31 -30 -74 -51q-50 -25 -91 -25q-42 0 -67 26q-19 20 -19 44q0 29 29 68l42 52q25 35 48 48q43 23 83 23q43 0 70.5 -25t27.5 -63zM571 668q0 -21 -16 -29q-39 -18 -56 -33q-20 -19 -38 -55q-309 -632 -310 -743q-1 -60 -46 -60
q-21 0 -37.5 14.5t-16.5 35.5q0 19 16 38q32 81 73 183q46 113 93 226q71 170 143 321q38 78 67 111q24 29 60 41q10 4 19 4q22 0 35.5 -17t13.5 -37zM471 52q0 -64 -49 -111q-36 -36 -79 -36q-32 0 -53 20.5t-21 57.5q0 41 29 93q14 26 38.5 56t34.5 30q22 0 31 -25
q69 -15 69 -85zM239 491q0 15 -23 15q-37 0 -57 -30q-6 -20 -27 -51q-5 -1 -10 -1q-4 0 -9 2q-12 -15 -12 -21q0 -11 16 -11q26 0 83 46q39 32 39 51zM397 37q0 6 -2 12q-6 16 -5 16q-10 0 -27.5 -37t-17.5 -50v-2q19 7 35.5 25t16.5 36z" />
    <glyph glyph-name="ampersand" unicode="&#x26;" horiz-adv-x="492" 
d="M472 221q0 -49 -86 -115q-77 -60 -137 -76q13 -18 20 -69q4 -36 8 -73q0 -4 7 -42q6 -30 6 -48q0 -46 -35 -46q-4 0 -9 1q-20 3 -28 17q-11 22 -23 103q-10 64 -10 108q0 28 4 40h-4q-40 0 -86 24q-66 35 -66 116q0 51 30 90q33 45 48 62q27 29 59 50q-59 21 -59 60
q0 40 60 90q51 42 101 60q-24 14 -46 156q-2 16 -2 26q0 38 40 38h10q27 -3 34 -41q9 -46 9 -115q0 -49 -9 -56q5 1 9 1q13 0 27 -7q26 -14 26 -42q0 -31 -28 -31q-6 0 -14.5 3.5t-13.5 3.5q-22 0 -67 -25t-45 -41q0 -11 30 -11q5 0 17 1h17q61 0 61 -36q0 -14 -53 -55
q-74 -58 -98 -82q-53 -53 -53 -96q0 -60 68 -60q55 0 129 43q20 12 44 34q38 33 42 36q27 21 44 21q22 0 22 -17z" />
    <glyph glyph-name="quotesingle" unicode="'" horiz-adv-x="181" 
d="M183 731q0 -16 -23 -95q-8 -32 -17 -65q-16 -47 -40 -47q-26 1 -26 65q0 30 7.5 55t20.5 77q6 28 17.5 37t26.5 9q34 0 34 -36z" />
    <glyph glyph-name="parenleft" unicode="(" horiz-adv-x="336" 
d="M332 717q0 -20 -21 -44q-212 -251 -212 -526q0 -31 3 -61q10 -119 42 -170q20 -33 44 -33h3.5h6.5q67 0 67 -52q0 -21 -14 -37t-37 -16q-5 0 -11 1q-40 8 -79 47q-52 53 -73 109q-17 45 -27 137q-4 35 -4 71q0 144 60 301q48 125 120 227q63 90 87 90h2q43 -8 43 -44z
" />
    <glyph glyph-name="parenright" unicode=")" horiz-adv-x="402" 
d="M363 191q0 -145 -72 -266q-70 -116 -198 -198q-24 -13 -69 -49q-17 -19 -44 -19q-21 0 -35.5 12t-14.5 32q0 14 8 30q11 12 39 18q32 7 33 8q8 6 45 31q221 142 221 391q0 26 -3 52q-22 223 -94 353q-52 92 -99 104q-53 13 -53 41q0 13 3 23q8 22 38 22q20 0 43 -9
q57 -22 124 -125q102 -156 125 -394q3 -29 3 -57z" />
    <glyph glyph-name="asterisk" unicode="*" horiz-adv-x="519" 
d="M491 561q0 -14 -10.5 -25.5t-24.5 -11.5q-16 0 -31 15q-3 4 -15 4q-23 0 -113 -20l-10 -29q23 -59 27 -61q29 -18 29 -47t-32 -29q-26 0 -44 31l-10 18q-20 -54 -20 -57q0 -54 -37 -54q-16 0 -30.5 12t-14.5 28q0 14 15 26q2 3 20 66q16 58 19 72q-59 -18 -72 -30
q-24 -21 -46 -21q-34 0 -34 31q0 36 56 55q24 9 75 26q-9 22 -26 59t-17 50q0 15 13.5 19t20.5 4q30 0 70 -91q36 96 47 102.5t28 6.5q35 0 36 -31q0 -14 -14 -43q-10 -21 -21 -42q45 6 83 6q32 0 51 -5q32 -7 32 -34z" />
    <glyph glyph-name="plus" unicode="+" horiz-adv-x="588" 
d="M595 355q0 -36 -45 -36h-13q-2 1 -6 1q-42 0 -267 -71l3 -166v-2q0 -52 -36 -52q-12 0 -27.5 9t-20.5 42q0 -1 0 9v19q0 61 -3 114q-116 -38 -127 -48q-6 -4 -13 -4q-15 0 -27.5 13t-12.5 29q0 10 5 19q11 17 173 71l-2 74v26q0 67 25 75q11 4 20 4q38 0 40 -62v-92
q218 68 295 68q39 0 39 -40z" />
    <glyph glyph-name="comma" unicode="," horiz-adv-x="237" 
d="M160 24q0 -15 -83 -179v0h2q18 0 18 -19q0 -23 -23 -46q-26 -26 -60 -26q-29 0 -29 42q0 14 5 29q20 61 52 131q44 97 69 103q3 1 8 1q14 0 27 -10.5t14 -25.5z" />
    <glyph glyph-name="hyphen" unicode="&#xad;" horiz-adv-x="501" 
d="M469 272q0 -13 -9.5 -25t-17.5 -14q-12 -3 -21 -3q-7 0 -26 3q-3 1 -13 1q-85 0 -197 -19q-92 -16 -102 -16q-52 0 -52 40q0 33 46 38q285 28 330 28q36 0 44 -5q18 -11 18 -28z" />
    <glyph glyph-name="period" unicode="." horiz-adv-x="231" 
d="M168 21q0 -57 -54 -57q-51 0 -51 56q0 25 19 42q14 14 30 16h7q23 0 36 -17.5t13 -39.5z" />
    <glyph glyph-name="slash" unicode="/" horiz-adv-x="357" 
d="M391 679q0 -29 -28 -60q-25 -27 -36 -51q-200 -405 -267 -684q-7 -28 -10 -76.5t-40 -48.5q-18 0 -32 14t-14 36q0 7 2 14q20 95 21 100q27 106 82 251q124 330 218 498q26 48 56 49q48 0 48 -42z" />
    <glyph glyph-name="zero" unicode="0" horiz-adv-x="630" 
d="M621 418q0 -121 -110 -234q-81 -81 -172 -132q-98 -54 -176 -54q-55 0 -94 29q-69 51 -69 144q0 100 79 240q71 127 134 174q27 21 44 21q9 0 35 -7q60 19 113 19q99 0 159 -58q57 -55 57 -142zM537 414q0 58 -47 100q-33 29 -87 29q-46 0 -97 -20q-46 -19 -75 -44
q-44 -39 -44 -60q0 -22 45 -35q14 -3 14 -13t-16.5 -20.5t-35.5 -10.5q-25 0 -48 15q-60 -111 -60 -186q0 -49 30 -72q21 -16 55 -16q103 0 232 110q134 115 134 223z" />
    <glyph glyph-name="one" unicode="1" horiz-adv-x="396" 
d="M317 617q0 -14 -9 -74q-15 -100 -26 -189q-32 -251 -32 -279q0 -9 5.5 -21.5t5.5 -20.5q0 -21 -12.5 -36t-32.5 -15t-35 14.5t-15 38.5q0 14 5 29q6 88 18 166q34 235 39 275q-44 -47 -88 -95q-76 -80 -86 -80q-11 0 -20.5 16t-9.5 34q0 12 5 20q37 51 101 114
q35 38 70 77q58 63 68 65h6q43 0 43 -39z" />
    <glyph glyph-name="two" unicode="2" horiz-adv-x="534" 
d="M506 102q0 -41 -40 -49q-6 -1 -11 -1q-9 0 -20.5 5.5t-16.5 5.5q-18 0 -87 -16q-73 -18 -117 -34q-33 -13 -65 -27q-54 -20 -78 -20q-11 0 -16 3q-23 16 -23 43q0 8 2.5 16t49.5 63q252 301 252 409q0 22 -13 33q-30 26 -77 26q-42 0 -82 -21t-56.5 -52t-43.5 -31
q-38 0 -38 39q0 21 17 44q34 46 91.5 73.5t116.5 27.5q83 0 134 -53q37 -38 37 -90q0 -88 -121 -250q-40 -56 -117 -158q119 37 241 59q12 2 23 2q58 0 58 -47z" />
    <glyph glyph-name="three" unicode="3" horiz-adv-x="534" 
d="M489 111q0 -148 -141 -291q-64 -65 -141 -118q-15 -13 -31 -25q-18 -15 -35 -15q-9 0 -18 4q-39 15 -39 51q0 43 49 43q2 0 22 -2q129 99 188 182q64 89 64 182v2q-1 76 -105 110q-49 15 -172 28q-22 3 -40.5 18.5t-18.5 36.5q0 6 2 13q5 15 70 65q58 46 146 128
q-200 -19 -224 -19h-2q-16 0 -31.5 15t-15.5 33q0 25 33 40q10 -1 21 -1q21 0 179 12q38 3 68 3q74 0 85 -16q6 -9 6 -20q0 -42 -86 -125q-60 -54 -120 -107q141 -3 217 -68q70 -61 70 -159z" />
    <glyph glyph-name="four" unicode="4" horiz-adv-x="561" 
d="M530 349q0 -13 -9.5 -22t-22.5 -9q-12 0 -36.5 2t-37.5 2q-20 0 -42 -2q-35 -248 -35 -273q12 -24 12 -48q0 -44 -39 -44q-33 0 -54 20q-14 14 -14 37q0 14 6 35q10 67 38 263q-47 -6 -149 -25q-73 -13 -97 -13q-12 0 -18 2q-12 5 -23 18t-11 26t11 22q74 62 111 117
q26 37 82 151q18 39 54 98q10 12 24 12q18 0 32.5 -18t14.5 -40q0 -15 -8 -27q-13 -20 -78 -136q-44 -79 -92 -129q51 9 158 23q14 99 29 191q39 58 41 58q19 0 35 -17.5t16 -35.5q0 -3 -1 -7q-2 -19 -10 -49q-11 -48 -25 -139q60 -3 102 -11q36 -7 36 -32z" />
    <glyph glyph-name="five" unicode="5" horiz-adv-x="615" 
d="M684 579q0 -37 -41 -37q-18 0 -35 7q-5 3 -26 3q-103 0 -205 -17q-54 -9 -120 -9q-43 0 -56 5v-2q0 -16 -45 -69q170 -3 254 -57q72 -47 72 -125q0 -98 -97.5 -192t-194.5 -94q-70 0 -110 56q-16 23 -16 42t13.5 30.5t31.5 11.5q30 0 41 -27q3 -11 9 -24q18 -8 40 -8
q69 0 132 69t63 138q0 102 -213 102q-18 0 -55 -3t-56 -3t-34 14.5t-15 31.5q0 7 3 13q8 18 61.5 80t66.5 62q7 0 16 -4q3 26 56 29l122 6q69 9 156 13q82 4 84 4q13 2 28 2q70 0 70 -48z" />
    <glyph glyph-name="six" unicode="6" horiz-adv-x="495" 
d="M455 264q0 -83 -75 -156q-126 -123 -212 -123q-37 0 -69 20q-60 37 -60 166q0 131 51 244q45 101 96 180q57 89 87 97q8 3 15 3q22 0 36.5 -17t14.5 -37q0 -32 -34 -37q-79 -94 -128 -198q-56 -118 -56 -213q0 -9 1 -17q32 70 94 128q73 67 140 67q24 0 47 -9
q52 -22 52 -98zM377 268q0 21 -20 21q-57 0 -128 -91q-55 -70 -55 -110q0 -19 15 -19q37 0 124 87q25 24 44.5 57.5t19.5 54.5z" />
    <glyph glyph-name="seven" unicode="7" horiz-adv-x="555" 
d="M530 589q0 -22 -22 -40q-7 -6 -18 -9q-14 -4 -19 -6q-46 -23 -110 -147q51 2 78 2q37 0 42 -4q21 -16 21 -38q0 -28 -39 -30q-43 -1 -136 -8q-27 -59 -53 -151q-28 -101 -28 -149q0 -6 1 -16.5t1 -16.5q0 -43 -42 -43q-21 0 -34.5 14.5t-13.5 35.5q0 3 1 8q25 186 73 313
q-55 -4 -45 -4q-40 0 -40 38q0 28 49 38q9 2 70 7q46 92 105 166q-131 -4 -302 -25q-27 -3 -33 -3t-13 2q-13 4 -22.5 18t-9.5 29q0 18 15 26q25 13 140 21q105 8 217 8q147 0 160 -13q7 -11 7 -23z" />
    <glyph glyph-name="eight" unicode="8" horiz-adv-x="630" 
d="M612 265q0 -102 -147 -191q-139 -83 -277 -83q-79 0 -121 34q-47 37 -47 111q0 56 25 96q33 52 78 85q-52 9 -80 42t-28 78q0 70 60 131q34 35 53 42q29 5 58 11q62 29 148 29q127 0 174 -65q21 -28 21 -58q0 -66 -87 -122q105 -11 141 -60q29 -38 29 -80zM451 521
q0 10 -8 21q-27 34 -104 34q-63 0 -111 -20q-88 -34 -88 -77q0 -18 26 -37q20 -13 41 -25q-30 -12 -58 -12q-33 0 -54 21q8 -41 75 -41q38 0 89 13q40 10 61 21q65 33 84 45q47 31 47 57zM531 262q0 17 -11 32q-31 42 -113 42q-104 0 -204 -56q-107 -61 -107 -136
q0 -24 11 -46q18 -34 82 -34q46 0 105 17q52 15 88 34q149 83 149 147z" />
    <glyph glyph-name="nine" unicode="9" horiz-adv-x="595" 
d="M556 362q0 -104 -54 -231q-46 -108 -128 -207q-62 -76 -134 -135q-59 -47 -79 -52q-9 -2 -18 -2q-41 0 -41 34q0 15 12 24q316 232 348 513q-54 -41 -128 -69q-82 -32 -151 -32q-60 0 -100 25q-65 40 -65 116q0 97 87 170q106 91 218 91q70 0 126 -35q107 -67 107 -210z
M460 425q-2 24 -20 46.5t-40 31.5q-46 19 -78 19q-39 0 -88 -23q-57 -28 -92.5 -67.5t-35.5 -78.5q0 -20 9 -37q18 -33 72 -33q70 0 160.5 48t112.5 94z" />
    <glyph glyph-name="colon" unicode=":" horiz-adv-x="240" 
d="M162 380q0 -76 -47 -76q-19 0 -31 21q-11 18 -11 41q0 69 47 69q20 0 31 -16.5t11 -38.5zM157 28q0 -20 -12 -39q-14 -22 -33 -22q-47 0 -47 51q0 56 40 66q6 1 11 1q41 0 41 -57z" />
    <glyph glyph-name="semicolon" unicode=";" horiz-adv-x="237" 
d="M169 370q0 -76 -47 -76q-19 0 -31 21q-11 18 -11 41q0 69 47 69q20 0 31 -16.5t11 -38.5zM160 41q0 -31 -83 -195v0h2q18 0 18 -19q0 -23 -23 -46q-26 -26 -60 -26q-29 0 -29 42q0 14 5 29q20 61 54 139q46 106 67 111q4 1 8 1q14 0 27 -10.5t14 -25.5z" />
    <glyph glyph-name="less" unicode="&#x3c;" horiz-adv-x="516" 
d="M473 87q0 -20 -22 -20q-11 0 -60 15q-67 20 -126 33q-54 9 -107 18q-71 16 -94 44q-21 25 -21 39q0 13 12 30t99 116q89 103 104 115t34 12q34 0 34 -29q0 -4 -1 -9q-5 -18 -91 -118t-85 -107q0 -9 32.5 -17t66.5 -16q102 -26 108 -27q59 -19 99 -50q18 -15 18 -29z" />
    <glyph glyph-name="equal" unicode="=" horiz-adv-x="582" 
d="M555 341q0 -45 -73 -45h-8q-9 0 -137 -19q-70 -12 -140 -25q-119 -21 -148 -21h-8q-44 11 -44 39q0 13 13 28q10 12 47 15q28 2 55 4q355 63 399 63q19 0 31.5 -12t12.5 -27zM563 212q0 -22 -32 -27q-13 -2 -23 -2h-7q-5 1 -8 1q-4 0 -8 -1q-11 0 -209 -33
q-43 -7 -89 -19t-65 -16q-32 -6 -53 -6q-28 0 -36 11q-10 15 -10 30q0 35 39 42q5 0 27 2q43 3 214 34q157 28 206 28q23 0 32 -5q22 -13 22 -39z" />
    <glyph glyph-name="greater" unicode="&#x3e;" horiz-adv-x="522" 
d="M488 284q1 -29 -89 -89q-24 -16 -170 -103q-95 -57 -102 -75q-3 -49 -49 -49q-42 0 -42 35q0 20 20 43q39 43 186 141q66 44 133 93q0 6 -161 74q-165 70 -179 104q-3 7 -3 15q0 42 44 44q14 0 26 -12.5t13 -24.5q0 -3 14 -7q25 -7 35 -11q184 -73 188 -74
q135 -61 136 -104z" />
    <glyph glyph-name="question" unicode="?" horiz-adv-x="567" 
d="M544 624q0 -104 -123 -213q-75 -65 -217 -145q-9 -6 -9 -16q0 -15 18 -43q15 -21 29 -42q23 -41 23 -70q0 -24 -16 -38.5t-36 -14.5q-44 0 -44 46v8q1 6 1 9q0 11 -17 40q-12 19 -24 39q-26 48 -26 116v13q37 15 73 33q86 42 151 89q132 97 132 173q0 17 -7 37
q-8 27 -72 27q-65 0 -136 -25q-76 -26 -92.5 -61t-55.5 -35q-15 0 -25.5 10t-10.5 24q0 27 48 65.5t117 68.5q76 33 163 33q131 0 151 -87q5 -20 5 -41zM273 -92q0 -22 -14.5 -41t-36.5 -19t-36.5 15t-14.5 36q0 56 51 56q20 0 35.5 -13t15.5 -34z" />
    <glyph glyph-name="at" unicode="@" horiz-adv-x="579" 
d="M548 514q0 -100 -63 -181q-71 -91 -172 -121q-74 -85 -124 -85q-23 0 -36 22q-11 19 -11 44q0 59 44.5 121t91.5 62q30 0 50 -27q13 -17 13 -42v-10q57 35 92 99q30 57 30 112q0 80 -58 80q-46 0 -111 -54q-55 -45 -86 -92q-81 -120 -81 -240q0 -49 17 -82q22 -43 65 -43
q77 0 211 95q11 39 42 39q18 0 31 -12.5t13 -29.5q0 -25 -30 -44q-118 -77 -127 -82q-84 -46 -145 -46q-40 0 -74 20t-57 69q-26 55 -26 125q0 123 80 257q50 84 129 144q83 63 155 63q60 0 98.5 -46t38.5 -115zM250 244q-5 9 -5 23q0 6 1 13q-9 -8 -20 -27.5t-11 -31.5
q0 -4 1 -6q20 13 34 29z" />
    <glyph glyph-name="A" unicode="A" horiz-adv-x="615" 
d="M635 341q0 -18 -12.5 -32t-34.5 -14q-8 0 -16 2l-106 -31l60 -257q24 -23 24 -44q0 -22 -28 -37q-7 -4 -16 -4q-19 0 -36 14.5t-17 32.5v2l-63 268q-88 -26 -146 -46q-32 -11 -99 -36q-31 -64 -35 -89q-2 -17 -6 -35t-19 -25q-10 -5 -21 -5q-28 0 -39 26v8q0 32 31 115
q-24 11 -24 39q0 9 3 20q6 25 60 37l192 426q18 39 49 39q30 0 39 -49q3 -29 22 -115q10 -38 53 -214l119 37q15 5 27 5q39 0 39 -38zM373 312q-29 125 -59 219q-43 -82 -65.5 -128.5t-60.5 -135.5q118 24 185 45z" />
    <glyph glyph-name="B" unicode="B" horiz-adv-x="633" 
d="M625 261q-1 -63 -63 -141q-52 -65 -107 -100q-62 -38 -134 -65q-32 -13 -47 -13q-25 0 -38 25q-6 12 -6 24q0 21 18 38q15 14 32 17q27 1 76 11q57 19 118 80q68 69 68 129q0 28 -60 52q-71 28 -183 28q-77 0 -147 -29v-62q0 -68 12 -118q11 -46 11 -56q0 -14 -5 -30
q-6 -22 -39 -22q-25 0 -42 19q-21 23 -21 67q0 16 3 35q1 4 1 23q0 37 -4 142l3 204q-36 11 -36 44q0 39 35 56q9 40 32 47q10 3 18 3q21 0 31 -18q185 55 291 55q40 0 64.5 -9.5t24.5 -40.5q0 -25 -17 -59q-15 -29 -31 -45q-73 -71 -157 -127q110 -7 185 -35
q115 -43 114 -129zM439 623q0 9 -19 9q-41 0 -154 -37q-104 -34 -109 -41q-10 -17 -10 -97v-43q195 102 279 188q13 13 13 21z" />
    <glyph glyph-name="C" unicode="C" horiz-adv-x="729" 
d="M768 228q0 -35 -69 -49q-9 -1 -91 -40q-276 -128 -406 -128q-72 0 -115 33q-75 59 -75 150q0 131 146 291q131 144 261 197q34 13 57 13q30 0 40 -23q6 -13 6 -24q0 -33 -63 -46q-125 -27 -246 -163t-121 -245q0 -52 34 -81t91 -29q88 0 242 70q103 51 207 102
q40 18 57 18q26 0 39 -25q6 -11 6 -21z" />
    <glyph glyph-name="D" unicode="D" horiz-adv-x="663" 
d="M679 460q1 -117 -188 -265q-84 -67 -297 -195v-1q0 -20 -16 -33.5t-35 -13.5q-13 0 -22 8l-1 1h-2q-29 0 -29 47q0 9 8 41q-11 144 -11 240q0 24 1 42q4 76 16 262l-53 -19h-5q-19 0 -35 15.5t-16 33.5q0 19 19 31q36 22 117 36q68 11 124 11q164 0 291 -68
q133 -71 134 -173zM592 455q0 68 -106 120q-100 49 -212 49q-52 0 -78 -6q-29 -245 -29 -371q0 -76 13 -159q137 76 244 158q168 129 168 209z" />
    <glyph glyph-name="E" unicode="E" horiz-adv-x="663" 
d="M753 253q0 -16 -26 -22q-227 -52 -527 -211q-85 -45 -100 -45q-14 0 -35 27q-19 24 -24 41v14q0 35 4 69q4 28 9 155.5t5 188.5q0 23 -1 27t-10 27q-6 18 -6 29q0 18 18 29t37 11q12 0 24 -5q263 99 283 106q97 30 125 30q50 0 50 -33q0 -20 -18.5 -37.5t-42.5 -17.5
q-14 0 -27 7q-75 -21 -175 -62q-85 -36 -171 -72v-31q0 -38 -6 -127q241 102 278 102q13 0 25 -9.5t12 -22.5q0 -35 -41 -47q-64 -18 -150 -56q-82 -36 -129 -65q-8 -93 -8 -138q0 -16 1 -32q92 47 279 120q228 88 296 88q12 0 18 -2q33 -12 33 -36z" />
    <glyph glyph-name="F" unicode="F" horiz-adv-x="591" 
d="M702 708q0 -27 -29 -38q-10 -4 -49.5 -5.5t-73.5 -12.5q-118 -38 -127 -41q-93 -33 -199 -81q-3 -28 -23 -168q94 45 159 63q102 29 157 29q19 0 25 -5q14 -9 14 -23q0 -15 -12 -29.5t-24 -18.5t-41 -8q-141 -16 -290 -115q-10 -99 -10 -158q0 -18 1 -31q1 -5 3.5 -18
t2.5 -20q0 -14 -8 -24q-13 -17 -37 -17q-21 0 -34 13q-5 6 -5 57q0 38 3 106t3 71q-21 16 -21 37q0 23 28 47q3 33 15 175q-91 -32 -106 -32q-1 0 -2 1q-37 7 -37 43q0 16 9 28q6 8 64 26q37 11 75 22q4 50 27 59q9 4 17 4q26 0 40 -31q368 133 443 133q15 0 21 -4
q21 -13 21 -34z" />
    <glyph glyph-name="G" unicode="G" horiz-adv-x="864" 
d="M849 458q0 -40 -17 -130q-22 -121 -22 -141q0 -12 3 -16q7 -5 15 -10q12 -8 12 -21q0 -3 -1 -6q-2 -13 -23 -50q-23 -42 -37 -45q-5 -1 -10 -1q-42 0 -42 101q0 50 10 116l8 49q10 65 12 107l-24 -10q7 -16 7 -36q0 -72 -81.5 -170.5t-193.5 -165.5q-123 -74 -223 -74
q-80 0 -133 50q-73 71 -73 203q0 83 70 203t166 202q106 90 192 87q23 -1 37 -12.5t14 -26.5q0 -22 -27 -35q-148 -73 -227 -141q-110 -98 -138 -224q-4 -22 -4 -49q0 -94 47 -141q33 -33 85 -33q68 0 164 56q70 42 127 95q108 100 108 149q0 26 -21 26q-29 0 -157 -57.5
t-142 -57.5h-1q-18 3 -32.5 17.5t-14.5 29.5q0 13 10 20q57 43 269 119q209 75 267 75q21 0 21 -52z" />
    <glyph glyph-name="H" unicode="H" horiz-adv-x="702" 
d="M731 466q0 -18 -13.5 -32t-34.5 -14q-11 0 -29 5q-4 2 -11 2q-12 0 -112 -18q-2 -132 -2 -144q0 -178 20 -223q16 -22 16 -39q0 -24 -33 -32q-12 -5 -22 -5q-22 0 -36 22q-12 18 -12 41q0 -3 -9 93t-9 126v146q-89 -17 -266 -53q-27 -218 -27 -282v-7.5v-8.5
q0 -32 -6 -44q-11 -19 -31 -19q-19 0 -41 15q-8 7 -8 44q0 42 11 130q6 51 13 101l6 66q-26 11 -27 41q0 27 33 40q3 76 3 125q0 34 -2 48q-4 32 -4 38q0 16 6 29q13 16 45 16q27 0 36 -16q12 -21 12 -82q0 -26 -9 -140q113 19 256 46q2 135 10 148q18 30 48 30q37 0 37 -54
q0 -22 -3.5 -63t-3.5 -47q111 15 154 15q16 0 20 -2q25 -16 25 -42z" />
    <glyph glyph-name="I" unicode="I" horiz-adv-x="249" 
d="M201 619q0 -20 -2 -44q-12 -92 -30 -277q-7 -86 -7 -163q0 -30 1 -58q18 -28 18 -50q0 -42 -45 -42q-35 0 -47 28q-5 11 -5 91q0 129 10 302q10 188 23 241q11 42 41 42q11 0 24 -5q19 -8 19 -65z" />
    <glyph glyph-name="J" unicode="J" horiz-adv-x="573" 
d="M543 591q0 -136 -21 -257q-29 -160 -87 -234q-102 -127 -251 -127q-41 0 -86 10q-19 5 -39 10h-7q-57 0 -57 47q0 18 12.5 31.5t32.5 13.5q13 0 89 -31q11 -5 41 -5q117 0 190 84q95 111 95 409q0 28 -1 64q-1 51 -1 47q0 27 3 34q10 31 42 31q27 0 38 -20q7 -14 7 -107z
" />
    <glyph glyph-name="K" unicode="K" horiz-adv-x="642" 
d="M656 604q0 -25 -29 -44t-56 -19h-1q-46 0 -207 -64q-136 -55 -181 -80q63 -95 168 -181q101 -84 204 -130q25 -11 65 -30q24 -14 24 -29q0 -25 -36 -25q-56 0 -148 45q-107 51 -196 135q-58 55 -101 105q-12 -166 -12 -191q-1 -3 -1 -6q0 -7 1 -22.5t1 -22.5
q0 -42 -22 -62q-12 -10 -26 -10q-19 0 -38 17q-7 7 -7 62q0 85 18 296q-19 8 -19 37q0 10 2 22q3 17 26 34l4 110q4 86 14 99q21 27 44 27q18 0 30 -16t12 -42q0 -6 -10 -134q71 37 224 91q170 62 222 62q12 0 21.5 -10t9.5 -24z" />
    <glyph glyph-name="L" unicode="L" horiz-adv-x="582" 
d="M614 210q0 -12 -18 -20q-55 -15 -206 -64q-187 -66 -252 -110q-41 -28 -58 -28q-14 0 -30 10q-22 15 -22 36q0 11 8 30.5t9 27.5q19 333 43 458q2 49 5 99q7 64 52 64q39 0 39 -92q0 -67 -16 -121q-9 -31 -19 -108t-10 -119q0 -8 1.5 -24t1.5 -24q0 -19 -4 -54
q-3 -39 -4 -54q310 123 428 123q19 0 30 -4q22 -8 22 -26z" />
    <glyph glyph-name="M" unicode="M" horiz-adv-x="876" 
d="M849 34q0 -82 -45 -82q-51 0 -52 48q0 9 2 27t2 27q0 43 -10 110q-8 55 -17 110l-24 184q-3 23 -4 40q-238 -431 -239 -445q-2 -23 -20.5 -39.5t-41.5 -16.5q-49 0 -62 65q-9 42 -36 134q-38 125 -76 213q-8 18 -43 114q-75 -436 -75 -476v-2q1 -3 1 -6
q0 -31 -18.5 -48.5t-41.5 -17.5q-47 0 -47 44q0 25 22 58q5 6 30 167q22 140 30 203q12 52 24 154q0 27 4 34q2 4 21 27q34 38 52 38q4 0 8 -1q15 -6 52 -106q25 -67 82 -219q45 -115 81 -239q127 235 273 498q17 32 49 32q38 0 51 -43q5 -19 8 -74q5 -98 8 -138
q8 -103 27 -209l16 -82q9 -49 9 -83z" />
    <glyph glyph-name="N" unicode="N" horiz-adv-x="612" 
d="M543 111q0 -18 -10 -35v-9q0 -65 -37 -65q-31 0 -42 30q-5 14 -5 33q0 8 1 16q-25 16 -43 27q-47 28 -172 224q-33 53 -72 135q-43 -309 -43 -376q0 -13 2 -15q12 -14 12 -50q0 -32 -11 -54q-12 -26 -35 -26q-15 0 -33 12q-6 4 -6 64q0 78 9 219q9 127 15 162q2 14 7 140
q5 109 14 122q16 24 41 24q22 0 34 -21q24 -37 53.5 -125.5t57.5 -137.5q53 -89 70 -116q54 -79 97 -107q-2 126 -2 221q0 98 2 135q1 15 1 32q0 15 -2 44.5t-3 42.5q0 48 45 48q22 0 35 -37t13 -93q0 -28 -4.5 -85t-4.5 -86q0 -16 -3 -56.5t-3 -71.5q0 -56 9 -131
q13 -12 13 -34z" />
    <glyph glyph-name="O" unicode="O" horiz-adv-x="696" 
d="M703 398q0 -86 -93 -186q-83 -89 -203 -153t-204 -64q-48 0 -86 18q-104 48 -104 175q0 76 49 186q51 115 124 192q83 88 163 89q68 0 98 -33q256 -50 256 -224zM618 395q0 89 -103 126q-61 22 -142 22h-11q-16 -10 -31 -20q-18 -11 -32 -11q-17 0 -33 17
q-76 -65 -122 -164q-43 -90 -43 -168q0 -77 42 -100q32 -17 73 -17q63 0 159.5 51t164.5 121q76 78 78 143z" />
    <glyph glyph-name="P" unicode="P" horiz-adv-x="570" 
d="M635 655q0 -79 -174 -184q-123 -75 -307 -155q-9 -128 -9 -194q0 -12 2.5 -35t2.5 -34q0 -29 -14 -44t-33 -15q-42 0 -42 48q0 5 2 29q1 56 9 225q-7 5 -7 18q0 14 8 27q15 173 15 248q0 44 -5 56q-3 7 -3 14q0 21 15.5 39t34.5 18q17 0 29 -8.5t20 -8.5q5 0 67 6
q147 16 228 16q126 0 149 -31q12 -16 12 -35zM539 641q0 8 -42 8q-49 0 -146 -11q-81 -9 -98 -13q-29 -6 -79 -10q-5 -75 -12 -205q124 51 219 102q157 84 158 129z" />
    <glyph glyph-name="Q" unicode="Q" horiz-adv-x="807" 
d="M817 490q0 -104 -121 -232q-70 -74 -212 -180q34 -61 57 -62q12 0 40 -6q3 -6 3 -14q0 -23 -19.5 -47t-40.5 -24v0q-17 0 -52 40q-30 34 -54 70q-137 -75 -243 -75q-72 0 -114 40q-55 52 -55 147t52 206q49 105 120 174q52 50 144 107q84 52 102 52q14 0 24 -10
q10 12 53 22q35 8 56 8q102 0 176 -56q83 -61 84 -160zM736 495q0 56 -53 94q-50 35 -113 35q-79 0 -109 -56q-55 -105 -55 -220q0 -107 43 -199q93 61 165 131q121 119 122 215zM378 106q-51 115 -51 235q0 109 42 226q-126 -68 -207 -194q-73 -115 -73 -215
q0 -121 104 -121q74 0 185 69z" />
    <glyph glyph-name="R" unicode="R" horiz-adv-x="678" 
d="M728 40q0 -8 -3 -17q-7 -24 -42 -24q-36 0 -51 18q-6 3 -27 11q-276 110 -461 268q-6 -72 -13 -215q0 -10 6.5 -29.5t6.5 -30.5q0 -12 -6 -24q-16 -26 -48 -26q-24 0 -39 16q-5 7 -5 51q0 62 8 163q11 123 13 162q-11 6 -11 20q0 7 12 15q11 109 11 145q0 6 -1 17t-1 17
q0 37 16 57t38 20q27 0 43 -26q148 64 261 64q117 0 117 -86q0 -119 -346 -259q72 -65 228 -151q164 -92 236 -101q18 -3 35 -14q23 -16 23 -41zM465 604q0 11 -35 11q-50 0 -126 -19q-80 -20 -103 -41q-8 -8 -19 -8q-2 1 -3 1q-8 -44 -21 -131q70 17 178 73q129 68 129 114
z" />
    <glyph glyph-name="S" unicode="S" horiz-adv-x="621" 
d="M595 211q1 -66 -69 -127q-47 -40 -132 -82q-73 -35 -74 -39q-10 -38 -60 -38q-49 0 -57 25q-4 11 -4 21q0 24 20 40q17 13 35 16q61 9 157 70q100 64 100 102q0 61 -125 95q-117 26 -233 52q-126 37 -126 104q0 73 77 137q62 52 160 87q84 31 136 31q47 0 68 -14
q15 -9 45 -51q3 -5 3 -12q0 -14 -12.5 -26t-30.5 -12q-17 0 -32 13q-8 9 -26 17q-75 1 -184 -51q-114 -55 -114 -104q0 -33 123 -61q185 -43 230 -60q124 -50 125 -133z" />
    <glyph glyph-name="T" unicode="T" horiz-adv-x="636" 
d="M786 639q0 -11 -32 -29.5t-49 -18.5q-9 0 -16.5 7.5t-7.5 15.5q0 5 3 8q-159 -7 -182 -10q-103 -9 -179 -36q-19 -221 -19 -332q0 3 1 -25q0 -6 -1 -32v-41q0 -73 7 -87q4 -7 4 -17q0 -23 -14 -43q-15 -23 -38 -23q-15 0 -31 11q-11 8 -11 223q0 161 4 202q4 46 4 87
q0 19 -1 55q-160 -34 -196 -34q-6 0 -9 1q-35 12 -35 47q0 42 51 46q125 8 195 29q5 30 42 30q18 0 34 -11q38 9 192 21q150 11 218 11q22 0 26 -1q40 -17 40 -54z" />
    <glyph glyph-name="U" unicode="U" horiz-adv-x="660" 
d="M683 661q0 -9 -2 -20q-37 -225 -125 -396q-131 -255 -326 -251q-76 1 -130 132q-49 117 -51 257q-1 66 -1 97q0 66 3 114q3 61 55 61q14 0 24 -4q22 -9 22 -47q0 -46 -6 -135q-6 -92 -6 -134q0 -89 36 -174t75 -85q85 0 169 105q70 88 121 223q46 123 47 203
q0 6 -1.5 23.5t-1.5 27.5q0 50 43 51q55 0 55 -48z" />
    <glyph glyph-name="V" unicode="V" horiz-adv-x="624" 
d="M648 683q0 -32 -21 -51q-7 -7 -20 -52q-20 -71 -52 -136q-97 -212 -205 -436q-15 -15 -44 -15q-18 0 -30 7q-7 5 -63 169q-68 199 -131 344q-3 7 -28 42q-19 27 -19 45q0 19 16 37t34 18q45 0 84 -106q28 -92 92 -266q19 -49 56 -146q124 242 182 376q18 41 32 92
q10 38 10 44q0 21 19.5 49.5t44.5 28.5q10 0 20 -5q23 -13 23 -39z" />
    <glyph glyph-name="W" unicode="W" horiz-adv-x="858" 
d="M896 678q0 -30 -23 -53q-3 -2 -32 -106q-42 -145 -95 -284q-37 -97 -76 -162q-46 -79 -77 -78q-27 1 -38 6q-14 6 -21 27q-6 30 -41 135q-39 107 -57 338q-63 -99 -112 -211q-32 -73 -87 -221q-18 -51 -32 -60t-32 -9q-31 0 -46 20q-9 12 -9 40v23q1 15 1 21q0 9 -1 15
q-23 183 -32 243q-22 137 -51 240q-2 8 -2 16q0 20 14 34t34 14q17 0 34 -11q24 -15 30 -76t38 -264q5 -36 14 -103q32 86 81 176q10 17 97 167q48 81 55 105q3 10 18 17.5t32 7.5q45 0 45 -55q0 -14 -1 -43.5t-1 -44.5q0 -216 73 -427q69 112 151 389q15 48 26 100
q13 61 13 63q13 49 56 49q54 0 54 -38z" />
    <glyph glyph-name="X" unicode="X" horiz-adv-x="545" 
d="M519 674q0 -24 -56 -95q-45 -56 -153 -200q124 -270 138 -281q11 -8 30 -27q7 -11 7 -23q0 -18 -18 -35q-7 -6 -17 -6q-21 0 -47.5 24.5t-39.5 49.5q-40 77 -106 220q-56 -82 -112 -163q-85 -129 -85 -164l1 -10q0 -24 -15 -37t-35 -13q-19 0 -33 12.5t-14 34.5
q0 20 12 45q69 139 238 383q-37 81 -48 103q-30 59 -57 95q-24 33 -24 58q0 28 32 42q12 5 22 5q29 0 50 -40q13 -33 27 -66q10 -23 53 -118q87 120 146 193q35 47 67 47q12 0 24.5 -11t12.5 -23z" />
    <glyph glyph-name="Y" unicode="Y" horiz-adv-x="531" 
d="M568 667q0 -15 -15 -27q-3 -3 -24 -16q-22 -44 -253 -247q2 -23 2 -56q0 -27 -2 -87.5t-2 -90.5q0 -83 15 -121q9 -24 9 -37q0 -21 -20 -34q-12 -8 -26 -8q-21 0 -36.5 16t-15.5 39q0 3 1 9.5t1 9.5q0 6 -5 45q-5 43 -14 253q-19 12 -24 21q-1 3 -9 30q-49 182 -94 208
q-21 13 -22 14q-10 8 -10 25v1q1 37 39 37q24 0 50 -15t39 -37.5t67 -159.5q186 144 257 241q23 30 46 30q16 0 31 -14t15 -29z" />
    <glyph glyph-name="Z" unicode="Z" horiz-adv-x="699" 
d="M806 71q0 -34 -38 -34q-9 0 -21 5q-18 6 -20 7q-14 4 -100 4q-142 0 -274 -16q-73 -9 -169 -27.5t-121 -29.5q-19 -9 -37 -9q-24 0 -39 14.5t-15 33.5q0 13 9 24q70 108 243 348q69 89 163 193q-192 -27 -231 -61q-32 -29 -53 -29q-19 0 -36 21q-6 8 -6 18q0 34 73 78
q23 14 178 47q159 33 210 33q12 0 16 -2q23 -15 23 -42q0 -9 -3 -16.5t-24 -24.5q-211 -171 -428 -527q162 26 242 34q133 12 268 12q149 0 165 -14q25 -17 25 -40z" />
    <glyph glyph-name="bracketleft" unicode="[" horiz-adv-x="267" 
d="M270 -172q0 -31 -122 -71q-20 -8 -40 -15q-29 -11 -46 -11q-16 0 -24 9q-28 32 -28 170q0 188 51 525q9 60 9 108q0 30 -4 56q-6 45 -6 40q0 18 14 28t32 10q8 0 25 -2.5t26 -2.5h1q18 0 51 13.5t42 13.5q14 0 14 -15t-19 -35t-40 -31q-26 -13 -47 -16q-1 -66 -33 -341
q-32 -271 -32 -363q0 -61 11 -78q1 -1 4 -1q6 0 58 11.5t75 11.5q28 0 28 -14z" />
    <glyph glyph-name="backslash" unicode="\" horiz-adv-x="318" 
d="M313 16q0 -35 -35 -35q-9 0 -19 2q-41 8 -245 674q-15 48 -15 70q0 7 2 10q13 27 36 27q12 0 29 -7q22 -10 40 -76l80 -308q50 -177 110 -297q17 -33 17 -60z" />
    <glyph glyph-name="bracketright" unicode="]" horiz-adv-x="312" 
d="M258 657q0 -14 -8 -120q-33 -443 -41 -645q9 -10 9 -23q0 -7 -2 -18q-6 -23 -82 -78t-105 -55q-5 0 -8 3q-13 13 -13 27q0 20 27 44q22 16 42 32.5t34 33.5q7 9 15 18q7 81 17 338q7 185 18 277q10 96 12 140q-39 -9 -68 -9q-62 0 -62 38v1q1 38 63 38h7.5h8.5q17 0 25 2
q65 18 75 18q16 0 26 -6.5t10 -55.5z" />
    <glyph glyph-name="asciicircum" unicode="^" horiz-adv-x="330" 
d="M298 370q0 -36 -45 -36q-29 0 -38 20q-17 35 -30 108q-18 104 -20 113q-2 -4 -66 -166q-7 -20 -36 -20q-44 0 -44 37q0 14 9 31q32 73 65 146q54 119 69 125q8 3 15 3q29 0 47 -62q7 -24 19 -98q9 -61 42 -151q13 -34 13 -50z" />
    <glyph glyph-name="underscore" unicode="_" horiz-adv-x="500" 
d="M500 -122h-500v47h500v-47z" />
    <glyph glyph-name="grave" unicode="`" horiz-adv-x="357" 
d="M328 483q0 -32 -30 -32q-8 0 -17 3q-26 7 -112 81.5t-121 117.5q-10 14 -10 27q0 14 11.5 24t28.5 10q33 0 98 -76q73 -87 106 -103q2 1 8 1q15 1 26.5 -16.5t11.5 -36.5z" />
    <glyph glyph-name="a" unicode="a" 
d="M334 223q0 -65 -19 -139q-14 -55 -26 -77q-7 -9 -20 -9q-27 0 -37 24q-66 -38 -116 -38q-38 0 -61.5 24.5t-23.5 63.5q0 57 45 110t95 53t80 -59q4 24 4 45q0 53 -26 103q-18 33 -52 33q-18 0 -35.5 -9t-18.5 -14q-2 -17 -23 -17q-39 0 -41 37q0 33 42 56q38 21 85 21
q34 0 57 -13q91 -54 91 -195zM210 98q-21 59 -39 59h-1q-28 -5 -47.5 -29.5t-19.5 -53.5q0 -19 18 -19q31 0 89 43z" />
    <glyph glyph-name="b" unicode="b" horiz-adv-x="384" 
d="M377 277q0 -84 -168 -235q-20 -17 -52 -49q-13 -18 -32 -18q-16 0 -28 12t-13 31q-24 5 -32 21q-2 6 -2 64q0 126 12 223q-14 14 -14 30q0 27 29 44q29 117 29 192q0 8 -4 23t-4 23q0 39 32 39q22 0 39 -22q19 -26 19 -69q0 -36 -11 -86q-9 -42 -19 -85q168 -4 213 -109
q6 -13 6 -29zM294 270q0 34 -52 52q-38 13 -80 13h-18q-17 -81 -17 -166q0 -48 5 -96q56 43 99 89q63 68 63 108z" />
    <glyph glyph-name="c" unicode="c" horiz-adv-x="510" 
d="M547 185v-6q-6 -9 -71 -51q-81 -52 -157 -85q-103 -45 -176 -45q-75 0 -113 48q-21 27 -21 65q0 84 88 187q83 98 149 108q13 2 23 2q47 0 47 -33q0 -16 -13 -34t-29 -26q-7 -4 -17 -4q-6 0 -15 1.5t-12 1.5q-39 0 -90 -78q-48 -74 -48 -116q0 -51 58 -51q61 0 180 57
q81 45 169 94q7 2 14 2q14 0 24 -11.5t10 -25.5z" />
    <glyph glyph-name="d" unicode="d" horiz-adv-x="519" 
d="M500 637q0 -12 -4 -23q-6 -14 -21 -154q-18 -151 -23 -248q43 -13 43 -39q0 -36 -59 -57v-14q0 -90 -31 -90q-47 0 -54 57q-138 -84 -229 -84q-57 0 -84 36.5t-27 81.5q0 90 90 178q85 84 157 84q75 0 120 -76q32 277 32 323v4q-5 21 -5 38q0 46 35 46q22 0 41 -18.5
t19 -44.5zM337 157q-22 131 -81 131q-52 0 -107.5 -68.5t-55.5 -120.5q0 -39 38 -39t114 42q46 27 92 55z" />
    <glyph glyph-name="e" unicode="e" horiz-adv-x="486" 
d="M492 194q0 -29 -29 -48q-1 -1 -44 -34q-153 -117 -242 -117q-65 0 -114 65q-46 60 -46 128q0 98 94 167q85 63 186 63q57 0 97 -23q9 -5 9 -16q0 -27 -46 -73t-93 -66q-54 -22 -163 -39v-13q0 -40 23 -76q27 -40 64 -40q35 0 115 47q77 46 103 77q23 41 44 41q10 0 22 -8
q20 -14 20 -35zM295 344h-7q-37 0 -83 -21q-36 -16 -71 -49q30 5 91 24q45 21 70 46z" />
    <glyph glyph-name="f" unicode="f" horiz-adv-x="390" 
d="M428 651q0 -35 -35 -35q-14 0 -29 9q-24 14 -45 14q-61 0 -86 -124q-15 -74 -15 -180v-32q39 4 81 4h3h3q25 0 30 4q11 8 24 8q18 0 31 -15t13 -34q0 -40 -56 -42q-45 0 -128 -5q0 -150 -13 -246q-14 -79 -42 -236q-8 -46 -10 -53q-10 -28 -35 -28q-12 0 -29 7
q-26 11 -26 43q0 21 12 35q5 6 18 68q17 78 27 165q13 112 13 228q-13 -5 -28 -27.5t-36 -22.5q-18 0 -32 14.5t-14 32.5q0 17 13 31q38 40 96 54q4 172 28 261q44 164 164 164q15 0 31 -2q72 -11 72 -60z" />
    <glyph glyph-name="g" unicode="g" horiz-adv-x="480" 
d="M704 -59q0 -16 -19.5 -27.5t-43.5 -11.5q-38 0 -51 28h-25q-67 0 -146 -10q11 -34 11 -75q0 -140 -94 -269q-99 -135 -223 -135q-61 0 -118 36q-85 54 -85 151q0 83 68 159q77 86 157 128q62 32 171 59q-44 51 -122 51q-45 0 -90 -17q-41 -16 -52 -16q-10 0 -19 5
q-26 13 -26 33q0 31 40 45q-7 21 -7 41q0 45 34 93q2 3 67 82q-21 19 -21 38q0 32 36 32q16 0 28 -11q3 -2 14 -2q6 0 109 13t132 13q16 0 23 -3q35 -10 35 -34q0 -32 -51 -32q-3 0 -8 1h-9q-8 0 -103 -14q37 -37 37 -79q0 -61 -79 -127q66 -27 112 -96q87 9 145 9
q173 0 173 -58zM272 211q0 47 -52 61q-47 -43 -72 -76q-34 -48 -34 -79q0 -10 2 -20q49 12 97 40q59 37 59 74zM349 -159q0 34 -10 64q-193 -38 -298 -166q-51 -63 -51 -110q0 -46 48 -82q35 -27 75 -27q86 0 161 105t75 216z" />
    <glyph glyph-name="h" unicode="h" horiz-adv-x="474" 
d="M443 159q0 -15 -1.5 -44.5t-1.5 -44.5q0 -8 1 -21t1 -17q-1 -35 -38 -36q-48 0 -48 62q0 10 1 24q6 64 6 122q0 105 -21 118q-6 3 -13 3q-36 0 -99 -62q-58 -58 -79 -103q-23 -52 -23 -113v-14q1 -9 1 -14q0 -30 -15 -46.5t-36 -16.5q-18 0 -31 12.5t-13 34.5q0 14 6 30
q4 10 10 46q3 113 20 342q5 71 14 181q7 73 41 73q8 0 16 -2q31 -8 31 -48q0 -29 -9 -77q-10 -60 -12 -78q-6 -68 -16 -205q126 143 210 143q15 0 27 -4q71 -26 71 -245z" />
    <glyph glyph-name="i" unicode="i" horiz-adv-x="249" 
d="M178 687q0 -11 -8 -30.5t-16.5 -38.5t-10.5 -41q-2 -35 -37 -35q-31 0 -31 41q0 29 29 102q15 37 40 37q14 0 24 -11t10 -24zM176 369v-5q-10 -98 -22 -233v-13q0 -18 10 -51q2 -7 2 -15q0 -19 -13 -33.5t-30 -14.5q-16 0 -28 13q-16 17 -16 84l9 198q2 66 3 72
q8 50 39 51q19 0 32.5 -16t13.5 -37z" />
    <glyph glyph-name="j" unicode="j" horiz-adv-x="264" 
d="M198 653q0 -51 -37 -51q-23 0 -36 21q-11 17 -11 41q0 41 41 41q43 0 43 -52zM218 -51q0 -110 -18 -173q-44 -151 -144 -228q-84 -65 -186 -65q-83 0 -135 41q-83 65 -83 169q0 58 21 88q8 11 17 11q10 0 16.5 -10t6.5 -22q-1 -40 -1 -36q0 -70 25 -106q31 -44 106 -56
q12 -2 26 -2q86 0 160.5 79.5t91.5 190.5q10 69 10 142q0 122 -41 346q0 3 -5.5 12t-5.5 19q0 37 44 37q22 0 36 -14q17 -17 37 -151q22 -144 22 -272z" />
    <glyph glyph-name="k" unicode="k" horiz-adv-x="588" 
d="M650 82q0 -32 -50 -51q-11 -5 -39 -16q-39 -14 -83 -14q-155 0 -352 163q-7 -54 -7 -93q0 -37 6.5 -65t6.5 -41q0 -38 -50 -39q-42 -1 -42 152q0 152 36 350t65 210q10 4 20 4q20 0 33 -15t13 -35q0 -11 -12 -39q-28 -68 -52 -226q298 92 353 92q30 0 30 -33
q0 -24 -19 -36q-1 -1 -114 -28q-118 -28 -240 -78q82 -80 213 -139q66 -29 119 -29q35 0 62 13q17 8 21 15q12 21 35 21q18 0 32.5 -13t14.5 -30z" />
    <glyph glyph-name="l" unicode="l" horiz-adv-x="228" 
d="M207 672q0 -16 -3 -45l-34 -264q-18 -157 -18 -266q0 -14 1 -42t1 -42q0 -28 -10 -50q-13 -24 -32 -24q-15 0 -33 14q-10 9 -10 75q0 83 16 260q10 98 20 197q4 57 11 152q5 66 15 76q14 15 33 15q20 0 34 -19q9 -12 9 -37z" />
    <glyph glyph-name="m" unicode="m" horiz-adv-x="630" 
d="M595 55q0 -9 -5 -18q-11 -19 -41 -19q-27 0 -37 24q-8 21 -8 73q0 28 3 91t3 88q0 73 -15 73q-16 0 -79 -158q-55 -138 -67 -182q-15 -54 -39 -54q-48 0 -49.5 81.5t-3.5 163.5q-3 119 -11 124h-3q-6 0 -16 -22q-13 -28 -25 -56q-62 -139 -62 -225q0 -5 1 -15.5t1 -16.5
q0 -14 -15 -24q-11 -8 -32 -8q-28 0 -38 16q-6 9 -6 40q0 30 8.5 120.5t8.5 128.5q0 10 -1.5 29t-1.5 28q0 18 5 27q14 21 37 21q18 0 32.5 -12t16.5 -29q62 110 94 110q35 0 59 -41q15 -26 24 -191q114 231 173 231q22 0 46 -25q21 -22 27 -42q9 -33 9 -163q0 -46 -2 -123
q0 -7 4.5 -22t4.5 -23z" />
    <glyph glyph-name="n" unicode="n" horiz-adv-x="384" 
d="M360 -13q0 -18 -14 -29q-10 -8 -25 -8q-22 0 -40.5 17t-18.5 40q0 4 1.5 10.5t1.5 10.5q0 3 -4 43q-6 55 -6 106v25q1 47 1 71q0 35 -4 57v0q-41 -52 -93 -201q-46 -135 -56 -139q-18 -8 -31 -8q-37 0 -37 60q0 11 1 25q3 36 8 169q3 99 12 161q5 34 34 34q27 0 45 -20
q7 -8 7 -29q0 -15 -5 -54.5t-5 -56.5v-7q54 91 68 111q43 61 72 61q49 0 62 -116q6 -52 6 -140v-13v-23v-41q0 -56 2 -64q18 -35 18 -52z" />
    <glyph glyph-name="o" unicode="o" 
d="M353 233q0 -99 -77 -172q-69 -65 -144 -65q-24 0 -42 10q-30 15 -52 55q-23 44 -23 94q0 42 17 81q80 179 175 179q43 0 83 -32q50 -41 61 -116q2 -17 2 -34zM277 244q0 27 -11 51q-15 33 -39 39q-85 -22 -128 -146q-4 -14 -4 -32q0 -27 10 -51q14 -30 37 -30
q26 0 61 25.5t48 52.5q26 52 26 91z" />
    <glyph glyph-name="p" unicode="p" horiz-adv-x="360" 
d="M350 230q0 -61 -91 -155q-78 -82 -104 -87q-6 -1 -11 -1q-11 0 -21 5q-8 -86 -10 -185v-61q0 -108 3 -114q6 -11 6 -24q0 -43 -37 -43q-22 0 -36.5 16.5t-14.5 38.5q0 14 6 25q-7 94 -7 175q0 39 1 75q7 164 45 436q-27 15 -27 35q0 22 28.5 40.5t60.5 18.5
q75 0 142 -60.5t67 -134.5zM262 239q0 27 -27 59.5t-62 40.5q-20 -99 -41 -264q44 25 83 70q47 53 47 94z" />
    <glyph glyph-name="q" unicode="q" horiz-adv-x="360" 
d="M534 -210v-3q-2 -19 -110 -146q-115 -135 -153 -135q-50 0 -79 127q-18 81 -22 164q-1 29 -1 56q0 101 20 221q-73 -77 -111 -77q-45 0 -45 97q0 61 18 128q16 59 58 130q54 90 100 90q20 0 43.5 -14t23.5 -33q0 -37 -34 -37h-5h-4q-8 0 -12 -2q-41 -28 -78 -111
q-37 -79 -37 -133q0 -7 1 -13l2 2q26 25 73 91q52 74 53 97q0 4 -1 12.5t-1 12.5q0 17 14 24.5t31 7.5q46 0 46 -38q0 -23 -17 -71q-11 -32 -22 -63q-11 -36 -24 -129q-16 -112 -16 -189q1 -141 20 -218q13 -50 24 -50q7 0 28 32q31 44 49 65q30 34 60 67q50 55 64.5 56.5
t18.5 1.5q25 0 25 -20z" />
    <glyph glyph-name="r" unicode="r" horiz-adv-x="412" 
d="M448 383q0 -15 -13 -24.5t-28 -9.5q-7 0 -19 4t-18 4q-9 0 -18 -6q-84 -47 -191 -212q-18 -26 -23.5 -79.5t-12.5 -61.5q-12 -16 -33 -16q-23 0 -39 16q-12 11 -12 35q0 13 3 31q17 91 17 170q0 88 -22 148q-2 5 -2 11q0 15 14 25t32 10q19 0 32 -12q22 -20 24 -102
q1 -39 1 -71v-2q109 136 174 173q31 18 64 18q23 0 47 -8q7 -3 15 -15.5t8 -25.5z" />
    <glyph glyph-name="s" unicode="s" horiz-adv-x="354" 
d="M338 55q0 -35 -79 -87q-75 -50 -111 -50q-18 0 -32.5 11t-14.5 27q0 12 9 24q5 8 74 38q65 29 65 41v1q-2 10 -61 28q-72 22 -107 47q-57 41 -57 109q0 70 59 142q38 45 119 109q20 16 49 16q26 0 52 -13q31 -15 31 -38q0 -32 -36 -32q-16 0 -35 8q-18 0 -54 -33
q-24 -24 -49 -47q-56 -48 -56 -112q0 -43 61 -68l112 -40q61 -29 61 -81z" />
    <glyph glyph-name="t" unicode="t" horiz-adv-x="396" 
d="M451 421q0 -32 -39 -32q-7 0 -19 1.5t-16 1.5q-47 0 -137 -19q-22 -174 -22 -276q0 -42 4 -62q3 -10 3 -19q0 -38 -36 -38q-22 0 -38 16q-19 19 -19 47q0 103 11 206q4 34 13 108q-34 -9 -54 -20q-1 -1 -48 -32q-12 -8 -21 -8q-18 0 -33 13.5t-15 30.5q0 20 18 34
q44 35 166 66q22 135 22 181v17q-1 12 -1 19q0 51 37 51q45 0 45 -90q0 -35 -20 -163q58 9 101 9q20 0 42 -2q56 -4 56 -40z" />
    <glyph glyph-name="u" unicode="u" horiz-adv-x="354" 
d="M320 346q1 -49 -33 -174q-39 -147 -82 -162q-19 -7 -36 -7q-83 0 -112 161q-14 74 -16 223q0 45 37 45q18 0 33 -14t15 -35q-1 -40 -1 -45q0 -70 6 -135q11 -111 36 -111q5 0 12 7q24 25 38 117q11 68 13 134q1 49 40 49q19 0 34.5 -15t15.5 -38z" />
    <glyph glyph-name="v" unicode="v" horiz-adv-x="443" 
d="M490 454q0 -50 -55 -96q-28 -23 -115 -154q-81 -121 -96 -153q-27 -58 -68 -58q-29 0 -44 41q-14 35 -31 114t-31 113q-23 61 -23 79q0 31 29 31q21 0 43.5 -23.5t33.5 -60.5q7 -23 12 -57t14 -66q2 -11 8 -37q57 86 182 256q23 30 48 63q24 55 57 55q36 0 36 -47z" />
    <glyph glyph-name="w" unicode="w" horiz-adv-x="712" 
d="M755 386q0 -28 -30 -54q-20 -18 -140 -183q-112 -154 -130 -158q-4 -1 -10 -1q-39 0 -48 16q-16 26 -43 130q-18 75 -37 150q-63 -67 -97 -133q-21 -48 -43 -96q-34 -65 -71 -65q-40 1 -46 66q-1 42 -5 148q0 1 -5 60q-5 52 -5 73q0 11 2 15q9 28 40 28q18 0 33 -12
t17 -32q3 -29 3 -73v-24.5v-24.5v-32q21 35 32 52q20 32 40 53q32 35 78 90q12 18 45 18q23 0 37 -9q9 -7 23 -68q8 -37 16.5 -73.5t37.5 -134.5q40 48 120.5 151.5t81.5 108.5q19 56 52 56q12 0 25 -6q27 -12 27 -36z" />
    <glyph glyph-name="x" unicode="x" horiz-adv-x="288" 
d="M279 402q0 -5 -2 -9q-30 -72 -79 -186q23 -59 52 -131l14 -32q9 -19 9 -33q0 -13 -12 -22.5t-28 -9.5q-44 0 -52 66q-1 6 -26 67q-33 -75 -66 -151v-8q0 -58 -49 -58q-20 0 -33 15t-13 36q0 19 12 29q5 4 108 240q-24 56 -56 134q-8 18 -8 31q0 35 38 35q25 0 45 -40
q5 -9 24 -61q16 36 33 72q24 53 30.5 55.5t13.5 2.5q17 0 31 -13.5t14 -28.5z" />
    <glyph glyph-name="y" unicode="y" horiz-adv-x="393" 
d="M371 282q0 -14 -1 -26q-13 -138 -44 -436q-1 -2 -14 -101q-14 -94 -14 -97q4 -7 8 -15q7 -16 7 -30q0 -21 -15 -33t-35 -12q-50 0 -50 46v1q0 32 19 46q3 55 25 296q11 106 15 152q5 72 8 153q-101 -114 -103 -116q-68 -71 -98 -70q-43 0 -43 80q0 25 24 217q7 51 10 62
q11 40 38 40q17 0 33 -13.5t17 -30.5q0 -17 -21.5 -113.5t-21.5 -117.5q0 -9 2 -9q7 0 66 73q79 97 88 108q10 16 19 31q13 20 31 20q8 0 17 -3q15 -6 24 -36.5t9 -65.5z" />
    <glyph glyph-name="z" unicode="z" horiz-adv-x="477" 
d="M572 111q0 -24 -43 -24h-6h-6q-7 0 -13 -0.5t-196 -44.5q-176 -40 -235 -40q-20 0 -57 23q-12 7 -12 18q0 23 45.5 54.5t129.5 112.5q87 85 87 101q0 3 -18 3q-38 0 -79 -9q-19 -6 -37 -12q-27 -8 -43 -8t-28 9t-12 24q0 25 55 45q37 13 73 17q23 3 48 3q48 0 90 -9
t45 -17.5t3 -18.5q0 -48 -86 -139q-22 -23 -119 -112q70 8 212 34q39 9 77 18q64 15 84 15q5 0 8 -1q33 -14 33 -42z" />
    <glyph glyph-name="braceleft" unicode="{" horiz-adv-x="426" 
d="M526 718q0 -16 -11 -28t-26 -12q-14 0 -39 17q-34 21 -60 21q-58 0 -81 -98q-14 -58 -14 -138v-10v-5v0q-2 -101 -47 -148q-36 -38 -116 -51q197 -66 197 -287v-21q0 -39 9 -60q12 -30 48 -52q4 -2 10 -2q4 0 14 2t16 2q19 0 33.5 -16t14.5 -36q0 -38 -33 -47
q-22 -5 -42 -5q-71 0 -112 64q-37 60 -37 150v27q1 18 1 26q0 78 -42 127.5t-126 74.5q-64 15 -129 30q-59 14 -59 41q0 23 16 40q12 13 34 13q14 0 40.5 -5t39.5 -5q105 0 145.5 30.5t42.5 109.5q4 181 53 254q40 61 124 61q25 0 59 -5q77 -12 77 -59z" />
    <glyph glyph-name="bar" unicode="|" horiz-adv-x="201" 
d="M166 734q0 -18 -12 -39q-4 -6 -12 -202q-8 -186 -8 -234q0 -101 20 -186q4 -14 4 -25q0 -44 -40 -44q-36 0 -43 26q-19 64 -19 179q0 24 1 48q5 139 25 418q5 50 9 60q11 31 45 32q30 0 30 -33z" />
    <glyph glyph-name="braceright" unicode="}" horiz-adv-x="378" 
d="M419 297q0 -34 -37 -48q-56 -23 -69 -33q-30 -23 -40 -77q-9 -126 -18 -253q-23 -177 -109 -177q-34 0 -79 27q-52 31 -52 61q0 12 9 24q14 17 29 17q18 0 47 -32q14 -16 26 -16q25 0 39 69q3 14 11 87l8 156q7 92 45 148q-58 23 -80 58q-17 28 -17 76q0 13 3 62l9 139
q0 108 -37 108q-6 0 -17 -5t-19 -5q-18 0 -31 17q-10 13 -12 25v7q0 33 35 33h10q10 0 23.5 2t22.5 2h11q90 -7 90 -241q0 -21 -1 -57v-51q0 -56 8 -66q36 -43 73 -43q15 0 29 9q26 18 49 18q41 0 41 -41z" />
    <glyph glyph-name="asciitilde" unicode="~" horiz-adv-x="636" 
d="M563 261q0 -29 -28 -33q-5 0 -36 -17l-106 -58q-71 -36 -114 -36q-69 1 -69 66v14q1 9 1 13q0 25 -12 25q-14 0 -37.5 -26t-25.5 -38q-3 -18 -24 -18q-18 0 -35 12.5t-17 29.5q0 5 2 10q10 27 49 63q50 44 99 44q32 0 53 -23t21 -56q0 -4 -1 -11.5t-1 -10.5q0 -14 17 -14
q29 0 103 42q64 37 82 55t36 18t30.5 -16t12.5 -35z" />
    <glyph glyph-name="Adieresis" unicode="&#xc4;" horiz-adv-x="615" 
d="M635 341q0 -18 -12.5 -32t-34.5 -14q-8 0 -16 2l-106 -31l60 -257q24 -23 24 -44q0 -22 -28 -37q-7 -4 -16 -4q-19 0 -36 14.5t-17 32.5v2l-63 268q-88 -26 -146 -46q-32 -11 -99 -36q-31 -64 -35 -89q-2 -17 -6 -35t-19 -25q-10 -5 -21 -5q-28 0 -39 26v8q0 32 31 115
q-24 11 -24 39q0 9 3 20q6 25 60 37l192 426q18 39 49 39q30 0 39 -49q3 -29 22 -115q10 -38 53 -214l119 37q15 5 27 5q39 0 39 -38zM373 312q-29 125 -59 219q-43 -82 -65.5 -128.5t-60.5 -135.5q118 24 185 45zM477 878q0 -15 -10 -35q-12 -24 -16 -35q-7 -16 -9.5 -36
t-12.5 -30q-15 -14 -29 -14q-9 0 -17 7q-14 13 -14 36t14 62l20 56q9 32 35 32q39 0 39 -43zM342 894q0 -10 -12 -43q-8 -23 -8 -62q-1 -50 -36 -50q-6 0 -12 1q-23 5 -23 65q0 59 14 98q12 31 33 31q9 0 20 -6q24 -13 24 -34z" />
    <glyph glyph-name="Aring" unicode="&#xc5;" horiz-adv-x="615" 
d="M635 341q0 -18 -12.5 -32t-34.5 -14q-8 0 -16 2l-106 -31l60 -257q24 -23 24 -44q0 -22 -28 -37q-7 -4 -16 -4q-19 0 -36 14.5t-17 32.5v2l-63 268q-88 -26 -146 -46q-32 -11 -99 -36q-31 -64 -35 -89q-2 -17 -6 -35t-19 -25q-10 -5 -21 -5q-28 0 -39 26v8q0 32 31 115
q-24 11 -24 39q0 9 3 20q6 25 60 37l192 426q18 39 49 39q30 0 39 -49q3 -29 22 -115q10 -38 53 -214l119 37q15 5 27 5q39 0 39 -38zM373 312q-29 125 -59 219q-43 -82 -65.5 -128.5t-60.5 -135.5q118 24 185 45zM480 892q0 -38 -36 -78q-57 -64 -107 -64q-14 0 -29 4
q-39 11 -39 66q0 34 15.5 69t38.5 51q28 20 64 20q44 0 74 -24q19 -15 19 -44zM412 877v1q-5 6 -17 6q-24 0 -40 -14q-4 -2 -12 -17t-8 -23q0 -5 5 -5q12 0 42 22t30 30z" />
    <glyph glyph-name="Ccedilla" unicode="&#xc7;" horiz-adv-x="729" 
d="M768 228q0 -35 -69 -49q-9 -1 -91 -40q-57 -26 -187 -80q0 -4 -2 -17t-2 -20q0 -17 9 -27q30 -34 32 -37q14 -20 14 -41q0 -15 -6 -32q-13 -37 -62 -84q-54 -52 -92 -52t-38 38q0 37 37 37q15 0 25 7.5t21 16.5q45 34 45 58q0 11 -10 19q-32 26 -40 48q-6 30 -11 60
q-80 -22 -139 -22q-73 0 -115 33q-75 59 -75 150q0 131 146 291q131 144 261 197q34 13 57 13q30 0 40 -23q6 -13 6 -24q0 -33 -63 -46q-125 -27 -246 -163t-121 -245q0 -52 34 -81t91 -29q88 0 242 70q103 51 207 102q40 18 57 18q26 0 39 -25q6 -11 6 -21z" />
    <glyph glyph-name="Eacute" unicode="&#xc9;" horiz-adv-x="663" 
d="M752 253q0 -16 -26 -22q-227 -52 -527 -211q-85 -45 -100 -45q-14 0 -35 27q-19 24 -24 41v14q0 35 4 69q4 28 9 155.5t5 188.5q0 23 -1 27t-10 27q-6 18 -6 29q0 18 18 29t37 11q12 0 24 -5q263 99 283 106q97 30 125 30q50 0 50 -33q0 -20 -18.5 -37.5t-42.5 -17.5
q-14 0 -27 7q-75 -21 -175 -62q-85 -36 -171 -72v-31q0 -38 -6 -127q241 102 278 102q13 0 25 -9.5t12 -22.5q0 -35 -41 -47q-64 -18 -150 -56q-82 -36 -129 -65q-8 -93 -8 -138q0 -16 1 -32q92 47 279 120q228 88 296 88q12 0 18 -2q33 -12 33 -36zM437 937q0 -16 -11 -30
q-37 -48 -75 -96q-47 -62 -59 -96q2 -10 2 -11q0 -16 -18 -29.5t-37 -13.5q-29 0 -29 31q0 4 1 10q4 27 63 125q63 101 101 137q14 13 29 13q14 0 23.5 -11.5t9.5 -28.5z" />
    <glyph glyph-name="Ntilde" unicode="&#xd1;" horiz-adv-x="612" 
d="M543 111q0 -18 -10 -35v-9q0 -65 -37 -65q-31 0 -42 30q-5 14 -5 33q0 8 1 16q-25 16 -43 27q-47 28 -172 224q-33 53 -72 135q-43 -309 -43 -376q0 -13 2 -15q12 -14 12 -50q0 -32 -11 -54q-12 -26 -35 -26q-15 0 -33 12q-6 4 -6 64q0 78 9 219q9 127 15 162q2 14 7 140
q5 109 14 122q16 24 41 24q22 0 34 -21q24 -37 53.5 -125.5t57.5 -137.5q53 -89 70 -116q54 -79 97 -107q-2 126 -2 221q0 98 2 135q1 15 1 32q0 15 -2 44.5t-3 42.5q0 48 45 48q22 0 35 -37t13 -93q0 -28 -4.5 -85t-4.5 -86q0 -16 -3 -56.5t-3 -71.5q0 -56 9 -131
q13 -12 13 -34zM547 847q0 -25 -17 -29q-23 -4 -36 -14q-15 -14 -31 -28q-52 -48 -97 -48q-31 0 -43 23l-12 46q-9 34 -21 34q-17 0 -48.5 -19.5t-46.5 -41.5q-20 -30 -43 -30q-30 0 -30 34q0 18 12 35q21 30 63 60q56 40 105 40q59 0 81 -96q0 -2 3 -2q4 0 52 39.5t68 39.5
q41 -1 41 -43z" />
    <glyph glyph-name="Odieresis" unicode="&#xd6;" horiz-adv-x="696" 
d="M703 398q0 -86 -93 -186q-83 -89 -203 -153t-204 -64q-48 0 -86 18q-104 48 -104 175q0 76 49 186q51 115 124 192q83 88 163 89q68 0 98 -33q256 -50 256 -224zM618 395q0 89 -103 126q-61 22 -142 22h-11q-16 -10 -31 -20q-18 -11 -32 -11q-17 0 -33 17
q-76 -65 -122 -164q-43 -90 -43 -168q0 -77 42 -100q32 -17 73 -17q63 0 159.5 51t164.5 121q76 78 78 143zM553 859q0 -15 -10 -35q-12 -24 -16 -35q-7 -16 -9.5 -36t-12.5 -30q-15 -14 -29 -14q-9 0 -17 7q-14 13 -14 36t14 62l20 56q9 32 35 32q39 0 39 -43zM418 875
q0 -10 -12 -43q-8 -23 -8 -62q-1 -50 -36 -50q-6 0 -12 1q-23 5 -23 65q0 59 14 98q12 31 33 31q9 0 20 -6q24 -13 24 -34z" />
    <glyph glyph-name="Udieresis" unicode="&#xdc;" horiz-adv-x="660" 
d="M682 661q0 -9 -2 -20q-37 -225 -125 -396q-131 -255 -326 -251q-76 1 -130 132q-49 117 -51 257q-1 66 -1 97q0 66 3 114q3 61 55 61q14 0 24 -4q22 -9 22 -47q0 -46 -6 -135q-6 -92 -6 -134q0 -89 36 -174t75 -85q85 0 169 105q70 88 121 223q46 123 47 203
q0 6 -1.5 23.5t-1.5 27.5q0 50 43 51q55 0 55 -48zM508 854q0 -15 -10 -35q-12 -24 -16 -35q-7 -16 -9.5 -36t-12.5 -30q-15 -14 -29 -14q-9 0 -17 7q-14 13 -14 36t14 62l20 56q9 32 35 32q39 0 39 -43zM373 870q0 -10 -12 -43q-8 -23 -8 -62q-1 -50 -36 -50q-6 0 -12 1
q-23 5 -23 65q0 59 14 98q12 31 33 31q9 0 20 -6q24 -13 24 -34z" />
    <glyph glyph-name="aacute" unicode="&#xe1;" 
d="M334 223q0 -65 -19 -139q-14 -55 -26 -77q-7 -9 -20 -9q-27 0 -37 24q-66 -38 -116 -38q-38 0 -61.5 24.5t-23.5 63.5q0 57 45 110t95 53t80 -59q4 24 4 45q0 53 -26 103q-18 33 -52 33q-18 0 -35.5 -9t-18.5 -14q-2 -17 -23 -17q-39 0 -41 37q0 33 42 56q38 21 85 21
q34 0 57 -13q91 -54 91 -195zM210 98q-21 59 -39 59h-1q-28 -5 -47.5 -29.5t-19.5 -53.5q0 -19 18 -19q31 0 89 43zM388 737q0 -16 -11 -30q-37 -48 -75 -96q-47 -62 -59 -96q2 -10 2 -11q0 -16 -18 -29.5t-37 -13.5q-29 0 -29 31q0 4 1 10q4 27 63 125q63 101 101 137
q14 13 29 13q14 0 23.5 -11.5t9.5 -28.5z" />
    <glyph glyph-name="agrave" unicode="&#xe0;" 
d="M334 223q0 -65 -19 -139q-14 -55 -26 -77q-7 -9 -20 -9q-27 0 -37 24q-66 -38 -116 -38q-38 0 -61.5 24.5t-23.5 63.5q0 57 45 110t95 53t80 -59q4 24 4 45q0 53 -26 103q-18 33 -52 33q-18 0 -35.5 -9t-18.5 -14q-2 -17 -23 -17q-39 0 -41 37q0 33 42 56q38 21 85 21
q34 0 57 -13q91 -54 91 -195zM210 98q-21 59 -39 59h-1q-28 -5 -47.5 -29.5t-19.5 -53.5q0 -19 18 -19q31 0 89 43zM358 483q0 -32 -30 -32q-8 0 -17 3q-26 7 -112 81.5t-121 117.5q-10 14 -10 27q0 14 11.5 24t28.5 10q33 0 98 -76q73 -87 106 -103q2 1 8 1
q15 1 26.5 -16.5t11.5 -36.5z" />
    <glyph glyph-name="acircumflex" unicode="&#xe2;" 
d="M334 223q0 -65 -19 -139q-14 -55 -26 -77q-7 -9 -20 -9q-27 0 -37 24q-66 -38 -116 -38q-38 0 -61.5 24.5t-23.5 63.5q0 57 45 110t95 53t80 -59q4 24 4 45q0 53 -26 103q-18 33 -52 33q-18 0 -35.5 -9t-18.5 -14q-2 -17 -23 -17q-39 0 -41 37q0 33 42 56q38 21 85 21
q34 0 57 -13q91 -54 91 -195zM210 98q-21 59 -39 59h-1q-28 -5 -47.5 -29.5t-19.5 -53.5q0 -19 18 -19q31 0 89 43zM348 558q0 -35 -31 -35q-5 0 -11 1q-14 4 -30 38t-32 34q-8 0 -39.5 -25t-35.5 -35q-10 -30 -38 -30q-17 0 -29 19q-8 14 -8 26q0 17 16 29q39 32 77 65
q56 45 82 45q16 0 27 -11.5t12 -26.5q4 -48 29 -66q11 -9 11 -28z" />
    <glyph glyph-name="adieresis" unicode="&#xe4;" 
d="M334 223q0 -65 -19 -139q-14 -55 -26 -77q-7 -9 -20 -9q-27 0 -37 24q-66 -38 -116 -38q-38 0 -61.5 24.5t-23.5 63.5q0 57 45 110t95 53t80 -59q4 24 4 45q0 53 -26 103q-18 33 -52 33q-18 0 -35.5 -9t-18.5 -14q-2 -17 -23 -17q-39 0 -41 37q0 33 42 56q38 21 85 21
q34 0 57 -13q91 -54 91 -195zM210 98q-21 59 -39 59h-1q-28 -5 -47.5 -29.5t-19.5 -53.5q0 -19 18 -19q31 0 89 43zM347 628q0 -15 -10 -35q-12 -24 -16 -35q-7 -16 -9.5 -36t-12.5 -30q-15 -14 -29 -14q-9 0 -17 7q-14 13 -14 36t14 62l20 56q9 32 35 32q39 0 39 -43z
M212 644q0 -10 -12 -43q-8 -23 -8 -62q-1 -50 -36 -50q-6 0 -12 1q-23 5 -23 65q0 59 14 98q12 31 33 31q9 0 20 -6q24 -13 24 -34z" />
    <glyph glyph-name="atilde" unicode="&#xe3;" 
d="M447 615q0 -25 -17 -29q-23 -4 -36 -14q-15 -14 -31 -28q-52 -48 -97 -48q-31 0 -43 23l-12 46q-9 34 -21 34q-17 0 -48.5 -19.5t-46.5 -41.5q-20 -30 -43 -30q-30 0 -30 34q0 18 12 35q21 30 63 60q56 40 105 40q59 0 81 -96q0 -2 3 -2q4 0 52 39.5t68 39.5
q41 -1 41 -43zM334 223q0 -65 -19 -139q-14 -55 -26 -77q-7 -9 -20 -9q-27 0 -37 24q-66 -38 -116 -38q-38 0 -61.5 24.5t-23.5 63.5q0 57 45 110t95 53t80 -59q4 24 4 45q0 53 -26 103q-18 33 -52 33q-18 0 -35.5 -9t-18.5 -14q-2 -17 -23 -17q-39 0 -41 37q0 33 42 56
q38 21 85 21q34 0 57 -13q91 -54 91 -195zM210 98q-21 59 -39 59h-1q-28 -5 -47.5 -29.5t-19.5 -53.5q0 -19 18 -19q31 0 89 43z" />
    <glyph glyph-name="aring" unicode="&#xe5;" 
d="M334 223q0 -65 -19 -139q-14 -55 -26 -77q-7 -9 -20 -9q-27 0 -37 24q-66 -38 -116 -38q-38 0 -61.5 24.5t-23.5 63.5q0 57 45 110t95 53t80 -59q4 24 4 45q0 53 -26 103q-18 33 -52 33q-18 0 -35.5 -9t-18.5 -14q-2 -17 -23 -17q-39 0 -41 37q0 33 42 56q38 21 85 21
q34 0 57 -13q91 -54 91 -195zM210 98q-21 59 -39 59h-1q-28 -5 -47.5 -29.5t-19.5 -53.5q0 -19 18 -19q31 0 89 43zM348 627q0 -38 -36 -78q-57 -64 -107 -64q-14 0 -29 4q-39 11 -39 66q0 34 15.5 69t38.5 51q28 20 64 20q44 0 74 -24q19 -15 19 -44zM280 612v1q-5 6 -17 6
q-24 0 -40 -14q-4 -2 -12 -17t-8 -23q0 -5 5 -5q12 0 42 22t30 30z" />
    <glyph glyph-name="ccedilla" unicode="&#xe7;" horiz-adv-x="510" 
d="M547 185v-6q-8 -11 -86 -60q-99 -61 -184 -93q-4 -27 -4 -31q0 -17 9 -27q30 -34 32 -37q15 -20 15 -41q0 -14 -7 -32q-13 -36 -62 -83q-54 -52 -92 -52t-38 37q0 38 37 38q15 0 25 7.5t21 15.5q45 35 45 59q0 11 -10 19q-32 25 -39 47q-6 29 -11 58q-30 -6 -55 -6
q-75 0 -113 48q-21 27 -21 65q0 84 88 187q83 98 149 108q13 2 23 2q47 0 47 -33q0 -16 -13 -34t-29 -26q-7 -4 -17 -4q-6 0 -15 1.5t-12 1.5q-39 0 -90 -78q-48 -74 -48 -116q0 -51 58 -51q61 0 180 57q81 45 169 94q7 2 14 2q14 0 24 -11.5t10 -25.5z" />
    <glyph glyph-name="eacute" unicode="&#xe9;" horiz-adv-x="486" 
d="M492 194q0 -29 -29 -48q-1 -1 -44 -34q-153 -117 -242 -117q-65 0 -114 65q-46 60 -46 128q0 98 94 167q85 63 186 63q57 0 97 -23q9 -5 9 -16q0 -27 -46 -73t-93 -66q-54 -22 -163 -39v-13q0 -40 23 -76q27 -40 64 -40q35 0 115 47q77 46 103 77q23 41 44 41q10 0 22 -8
q20 -14 20 -35zM295 344h-7q-37 0 -83 -21q-36 -16 -71 -49q30 5 91 24q45 21 70 46zM388 697q0 -16 -11 -30q-37 -48 -75 -96q-47 -62 -59 -96q2 -10 2 -11q0 -16 -18 -29.5t-37 -13.5q-29 0 -29 31q0 4 1 10q4 27 63 125q63 101 101 137q14 13 29 13q14 0 23.5 -11.5
t9.5 -28.5z" />
    <glyph glyph-name="egrave" unicode="&#xe8;" horiz-adv-x="486" 
d="M492 194q0 -29 -29 -48q-1 -1 -44 -34q-153 -117 -242 -117q-65 0 -114 65q-46 60 -46 128q0 98 94 167q85 63 186 63q57 0 97 -23q9 -5 9 -16q0 -27 -46 -73t-93 -66q-54 -22 -163 -39v-13q0 -40 23 -76q27 -40 64 -40q35 0 115 47q77 46 103 77q23 41 44 41q10 0 22 -8
q20 -14 20 -35zM295 344h-7q-37 0 -83 -21q-36 -16 -71 -49q30 5 91 24q45 21 70 46zM408 483q0 -32 -30 -32q-8 0 -17 3q-26 7 -112 81.5t-121 117.5q-10 14 -10 27q0 14 11.5 24t28.5 10q33 0 98 -76q73 -87 106 -103q2 1 8 1q15 1 26.5 -16.5t11.5 -36.5z" />
    <glyph glyph-name="ecircumflex" unicode="&#xea;" horiz-adv-x="486" 
d="M492 194q0 -29 -29 -48q-1 -1 -44 -34q-153 -117 -242 -117q-65 0 -114 65q-46 60 -46 128q0 98 94 167q85 63 186 63q57 0 97 -23q9 -5 9 -16q0 -27 -46 -73t-93 -66q-54 -22 -163 -39v-13q0 -40 23 -76q27 -40 64 -40q35 0 115 47q77 46 103 77q23 41 44 41q10 0 22 -8
q20 -14 20 -35zM295 344h-7q-37 0 -83 -21q-36 -16 -71 -49q30 5 91 24q45 21 70 46zM408 558q0 -35 -31 -35q-5 0 -11 1q-14 4 -30 38t-32 34q-8 0 -39.5 -25t-35.5 -35q-10 -30 -38 -30q-17 0 -29 19q-8 14 -8 26q0 17 16 29q39 32 77 65q56 45 82 45q16 0 27 -11.5
t12 -26.5q4 -48 29 -66q11 -9 11 -28z" />
    <glyph glyph-name="edieresis" unicode="&#xeb;" horiz-adv-x="486" 
d="M492 194q0 -29 -29 -48q-1 -1 -44 -34q-153 -117 -242 -117q-65 0 -114 65q-46 60 -46 128q0 98 94 167q85 63 186 63q57 0 97 -23q9 -5 9 -16q0 -27 -46 -73t-93 -66q-54 -22 -163 -39v-13q0 -40 23 -76q27 -40 64 -40q35 0 115 47q77 46 103 77q23 41 44 41q10 0 22 -8
q20 -14 20 -35zM295 344h-7q-37 0 -83 -21q-36 -16 -71 -49q30 5 91 24q45 21 70 46zM407 628q0 -15 -10 -35q-12 -24 -16 -35q-7 -16 -9.5 -36t-12.5 -30q-15 -14 -29 -14q-9 0 -17 7q-14 13 -14 36t14 62l20 56q9 32 35 32q39 0 39 -43zM272 644q0 -10 -12 -43
q-8 -23 -8 -62q-1 -50 -36 -50q-6 0 -12 1q-23 5 -23 65q0 59 14 98q12 31 33 31q9 0 20 -6q24 -13 24 -34z" />
    <glyph glyph-name="iacute" unicode="&#xed;" horiz-adv-x="249" 
d="M263 697q0 -16 -11 -30q-37 -48 -75 -96q-47 -62 -59 -96q2 -10 2 -11q0 -16 -18 -29.5t-37 -13.5q-29 0 -29 31q0 4 1 10q4 27 63 125q63 101 101 137q14 13 29 13q14 0 23.5 -11.5t9.5 -28.5zM176 369v-5q-10 -98 -22 -233v-13q0 -18 10 -51q2 -7 2 -15
q0 -19 -13 -33.5t-30 -14.5q-16 0 -28 13q-16 17 -16 84l9 198q2 66 3 72q8 50 39 51q19 0 32.5 -16t13.5 -37z" />
    <glyph glyph-name="igrave" unicode="&#xec;" horiz-adv-x="249" 
d="M291 483q0 -32 -30 -32q-8 0 -17 3q-26 7 -112 81.5t-121 117.5q-10 14 -10 27q0 14 11.5 24t28.5 10q33 0 98 -76q73 -87 106 -103q2 1 8 1q15 1 26.5 -16.5t11.5 -36.5zM176 369v-5q-10 -98 -22 -233v-13q0 -18 10 -51q2 -7 2 -15q0 -19 -13 -33.5t-30 -14.5
q-16 0 -28 13q-16 17 -16 84l9 198q2 66 3 72q8 50 39 51q19 0 32.5 -16t13.5 -37z" />
    <glyph glyph-name="icircumflex" unicode="&#xee;" horiz-adv-x="249" 
d="M263 558q0 -35 -31 -35q-5 0 -11 1q-14 4 -30 38t-32 34q-8 0 -39.5 -25t-35.5 -35q-10 -30 -38 -30q-17 0 -29 19q-8 14 -8 26q0 17 16 29q39 32 77 65q56 45 82 45q16 0 27 -11.5t12 -26.5q4 -48 29 -66q11 -9 11 -28zM176 369v-5q-10 -98 -22 -233v-13q0 -18 10 -51
q2 -7 2 -15q0 -19 -13 -33.5t-30 -14.5q-16 0 -28 13q-16 17 -16 84l9 198q2 66 3 72q8 50 39 51q19 0 32.5 -16t13.5 -37z" />
    <glyph glyph-name="idieresis" unicode="&#xef;" horiz-adv-x="249" 
d="M277 638q0 -15 -10 -35q-12 -24 -16 -35q-7 -16 -9.5 -36t-12.5 -30q-15 -14 -29 -14q-9 0 -17 7q-14 13 -14 36t14 62l20 56q9 32 35 32q39 0 39 -43zM142 654q0 -10 -12 -43q-8 -23 -8 -62q-1 -50 -36 -50q-6 0 -12 1q-23 5 -23 65q0 59 14 98q12 31 33 31q9 0 20 -6
q24 -13 24 -34zM176 369v-5q-10 -98 -22 -233v-13q0 -18 10 -51q2 -7 2 -15q0 -19 -13 -33.5t-30 -14.5q-16 0 -28 13q-16 17 -16 84l9 198q2 66 3 72q8 50 39 51q19 0 32.5 -16t13.5 -37z" />
    <glyph glyph-name="ntilde" unicode="&#xf1;" horiz-adv-x="384" 
d="M437 615q0 -25 -17 -29q-23 -4 -36 -14q-15 -14 -31 -28q-52 -48 -97 -48q-31 0 -43 23l-12 46q-9 34 -21 34q-17 0 -48.5 -19.5t-46.5 -41.5q-20 -30 -43 -30q-30 0 -30 34q0 18 12 35q21 30 63 60q56 40 105 40q59 0 81 -96q0 -2 3 -2q4 0 52 39.5t68 39.5
q41 -1 41 -43zM360 -13q0 -18 -14 -29q-10 -8 -25 -8q-22 0 -40.5 17t-18.5 40q0 4 1.5 10.5t1.5 10.5q0 3 -4 43q-6 55 -6 106v25q1 47 1 71q0 35 -4 57v0q-41 -52 -93 -201q-46 -135 -56 -139q-18 -8 -31 -8q-37 0 -37 60q0 11 1 25q3 36 8 169q3 99 12 161q5 34 34 34
q27 0 45 -20q7 -8 7 -29q0 -15 -5 -54.5t-5 -56.5v-7q54 91 68 111q43 61 72 61q49 0 62 -116q6 -52 6 -140v-13v-23v-41q0 -56 2 -64q18 -35 18 -52z" />
    <glyph glyph-name="oacute" unicode="&#xf3;" 
d="M353 233q0 -99 -77 -172q-69 -65 -144 -65q-24 0 -42 10q-30 15 -52 55q-23 44 -23 94q0 42 17 81q80 179 175 179q43 0 83 -32q50 -41 61 -116q2 -17 2 -34zM277 244q0 27 -11 51q-15 33 -39 39q-85 -22 -128 -146q-4 -14 -4 -32q0 -27 10 -51q14 -30 37 -30
q26 0 61 25.5t48 52.5q26 52 26 91zM392 717q0 -16 -11 -30q-37 -48 -75 -96q-47 -62 -59 -96q2 -10 2 -11q0 -16 -18 -29.5t-37 -13.5q-29 0 -29 31q0 4 1 10q4 27 63 125q63 101 101 137q14 13 29 13q14 0 23.5 -11.5t9.5 -28.5z" />
    <glyph glyph-name="ograve" unicode="&#xf2;" 
d="M353 233q0 -99 -77 -172q-69 -65 -144 -65q-24 0 -42 10q-30 15 -52 55q-23 44 -23 94q0 42 17 81q80 179 175 179q43 0 83 -32q50 -41 61 -116q2 -17 2 -34zM277 244q0 27 -11 51q-15 33 -39 39q-85 -22 -128 -146q-4 -14 -4 -32q0 -27 10 -51q14 -30 37 -30
q26 0 61 25.5t48 52.5q26 52 26 91zM378 483q0 -32 -30 -32q-8 0 -17 3q-26 7 -112 81.5t-121 117.5q-10 14 -10 27q0 14 11.5 24t28.5 10q33 0 98 -76q73 -87 106 -103q2 1 8 1q15 1 26.5 -16.5t11.5 -36.5z" />
    <glyph glyph-name="ocircumflex" unicode="&#xf4;" 
d="M353 233q0 -99 -77 -172q-69 -65 -144 -65q-24 0 -42 10q-30 15 -52 55q-23 44 -23 94q0 42 17 81q80 179 175 179q43 0 83 -32q50 -41 61 -116q2 -17 2 -34zM277 244q0 27 -11 51q-15 33 -39 39q-85 -22 -128 -146q-4 -14 -4 -32q0 -27 10 -51q14 -30 37 -30
q26 0 61 25.5t48 52.5q26 52 26 91zM358 558q0 -35 -31 -35q-5 0 -11 1q-14 4 -30 38t-32 34q-8 0 -39.5 -25t-35.5 -35q-10 -30 -38 -30q-17 0 -29 19q-8 14 -8 26q0 17 16 29q39 32 77 65q56 45 82 45q16 0 27 -11.5t12 -26.5q4 -48 29 -66q11 -9 11 -28z" />
    <glyph glyph-name="odieresis" unicode="&#xf6;" 
d="M353 233q0 -99 -77 -172q-69 -65 -144 -65q-24 0 -42 10q-30 15 -52 55q-23 44 -23 94q0 42 17 81q80 179 175 179q43 0 83 -32q50 -41 61 -116q2 -17 2 -34zM277 244q0 27 -11 51q-15 33 -39 39q-85 -22 -128 -146q-4 -14 -4 -32q0 -27 10 -51q14 -30 37 -30
q26 0 61 25.5t48 52.5q26 52 26 91zM366 648q0 -15 -10 -35q-12 -24 -16 -35q-7 -16 -9.5 -36t-12.5 -30q-15 -14 -29 -14q-9 0 -17 7q-14 13 -14 36t14 62l20 56q9 32 35 32q39 0 39 -43zM231 664q0 -10 -12 -43q-8 -23 -8 -62q-1 -50 -36 -50q-6 0 -12 1q-23 5 -23 65
q0 59 14 98q12 31 33 31q9 0 20 -6q24 -13 24 -34z" />
    <glyph glyph-name="otilde" unicode="&#xf5;" 
d="M353 233q0 -99 -77 -172q-69 -65 -144 -65q-24 0 -42 10q-30 15 -52 55q-23 44 -23 94q0 42 17 81q80 179 175 179q43 0 83 -32q50 -41 61 -116q2 -17 2 -34zM277 244q0 27 -11 51q-15 33 -39 39q-85 -22 -128 -146q-4 -14 -4 -32q0 -27 10 -51q14 -30 37 -30
q26 0 61 25.5t48 52.5q26 52 26 91zM444 615q0 -25 -17 -29q-23 -4 -36 -14q-15 -14 -31 -28q-52 -48 -97 -48q-31 0 -43 23l-12 46q-9 34 -21 34q-17 0 -48.5 -19.5t-46.5 -41.5q-20 -30 -43 -30q-30 0 -30 34q0 18 12 35q21 30 63 60q56 40 105 40q59 0 81 -96q0 -2 3 -2
q4 0 52 39.5t68 39.5q41 -1 41 -43z" />
    <glyph glyph-name="uacute" unicode="&#xfa;" horiz-adv-x="354" 
d="M320 346q1 -49 -33 -174q-39 -147 -82 -162q-19 -7 -36 -7q-83 0 -112 161q-14 74 -16 223q0 45 37 45q18 0 33 -14t15 -35q-1 -40 -1 -45q0 -70 6 -135q11 -111 36 -111q5 0 12 7q24 25 38 117q11 68 13 134q1 49 40 49q19 0 34.5 -15t15.5 -38zM378 697q0 -16 -11 -30
q-37 -48 -75 -96q-47 -62 -59 -96q2 -10 2 -11q0 -16 -18 -29.5t-37 -13.5q-29 0 -29 31q0 4 1 10q4 27 63 125q63 101 101 137q14 13 29 13q14 0 23.5 -11.5t9.5 -28.5z" />
    <glyph glyph-name="ugrave" unicode="&#xf9;" horiz-adv-x="354" 
d="M320 346q1 -49 -33 -174q-39 -147 -82 -162q-19 -7 -36 -7q-83 0 -112 161q-14 74 -16 223q0 45 37 45q18 0 33 -14t15 -35q-1 -40 -1 -45q0 -70 6 -135q11 -111 36 -111q5 0 12 7q24 25 38 117q11 68 13 134q1 49 40 49q19 0 34.5 -15t15.5 -38zM338 483q0 -32 -30 -32
q-8 0 -17 3q-26 7 -112 81.5t-121 117.5q-10 14 -10 27q0 14 11.5 24t28.5 10q33 0 98 -76q73 -87 106 -103q2 1 8 1q15 1 26.5 -16.5t11.5 -36.5z" />
    <glyph glyph-name="ucircumflex" unicode="&#xfb;" horiz-adv-x="354" 
d="M320 346q1 -49 -33 -174q-39 -147 -82 -162q-19 -7 -36 -7q-83 0 -112 161q-14 74 -16 223q0 45 37 45q18 0 33 -14t15 -35q-1 -40 -1 -45q0 -70 6 -135q11 -111 36 -111q5 0 12 7q24 25 38 117q11 68 13 134q1 49 40 49q19 0 34.5 -15t15.5 -38zM328 558q0 -35 -31 -35
q-5 0 -11 1q-14 4 -30 38t-32 34q-8 0 -39.5 -25t-35.5 -35q-10 -30 -38 -30q-17 0 -29 19q-8 14 -8 26q0 17 16 29q39 32 77 65q56 45 82 45q16 0 27 -11.5t12 -26.5q4 -48 29 -66q11 -9 11 -28z" />
    <glyph glyph-name="udieresis" unicode="&#xfc;" horiz-adv-x="354" 
d="M320 346q1 -49 -33 -174q-39 -147 -82 -162q-19 -7 -36 -7q-83 0 -112 161q-14 74 -16 223q0 45 37 45q18 0 33 -14t15 -35q-1 -40 -1 -45q0 -70 6 -135q11 -111 36 -111q5 0 12 7q24 25 38 117q11 68 13 134q1 49 40 49q19 0 34.5 -15t15.5 -38zM337 628q0 -15 -10 -35
q-12 -24 -16 -35q-7 -16 -9.5 -36t-12.5 -30q-15 -14 -29 -14q-9 0 -17 7q-14 13 -14 36t14 62l20 56q9 32 35 32q39 0 39 -43zM202 644q0 -10 -12 -43q-8 -23 -8 -62q-1 -50 -36 -50q-6 0 -12 1q-23 5 -23 65q0 59 14 98q12 31 33 31q9 0 20 -6q24 -13 24 -34z" />
    <glyph glyph-name="dagger" unicode="&#x2020;" horiz-adv-x="451" 
d="M358 616q0 -36 -43 -36q-5 0 -14.5 1t-13.5 1q-5 0 -14 -1q4 -152 14 -315q4 -9 4 -17q0 -16 -13.5 -26t-31.5 -10q-43 0 -43 42q0 6 1.5 14.5t1.5 38.5q0 25 -1 68q-1 63 -5 188q-45 -16 -47 -16q-14 0 -24 11q-16 17 -16 32q0 17 22 30t62 21q-2 22 -4 67q0 41 31 41
q16 0 30 -13t14.5 -31t1.5 -53q29 4 40 4t19 -2q29 -7 29 -39z" />
    <glyph glyph-name="degree" unicode="&#xb0;" horiz-adv-x="285" 
d="M249 589q0 -55 -48.5 -101t-97.5 -46q-27 0 -44 18t-17 46q0 52 44 122t75 70q22 0 27 -22q45 -10 58 -63q3 -12 3 -24zM179 581q0 6 -2 11q-6 18 -13 18q-1 0 -2 -1q-13 -3 -31 -35.5t-18 -51.5q0 -10 7 -10q18 0 38.5 24.5t20.5 44.5z" />
    <glyph glyph-name="cent" unicode="&#xa2;" horiz-adv-x="516" 
d="M479 232q0 -29 -31 -36q-2 0 -59 -30q-40 -22 -80 -43q-44 -23 -83 -33q-25 -128 -25 -135q0 -8 2 -10q7 -7 7 -15q0 -16 -22 -30t-45 -14q-38 0 -38 37q0 14 6 33q14 42 30 122q-102 2 -102 109q0 64 49 133q40 57 101 101q15 116 45 235q14 59 50 59q18 0 34 -16
t16 -32q0 -4 -1 -7q-12 -38 -47 -183q40 16 62 16q18 0 35.5 -13.5t17.5 -30.5q0 -25 -42 -25q2 0 -17 1q-17 0 -73 -39q-8 -65 -30 -217q50 18 101 50q40 25 50 36q22 24 44 24q19 0 32 -14.5t13 -32.5zM176 306q-59 -62 -59 -114q0 -21 10.5 -31t23.5 -10h3q12 69 22 155z
" />
    <glyph glyph-name="sterling" unicode="&#xa3;" horiz-adv-x="561" 
d="M549 37q0 -27 -25 -33q-24 -11 -73 -26q-13 -2 -25 -2q-36 0 -63 20q-15 11 -41 42t-44 44q-31 22 -64 22q-22 0 -33 -12q-34 -29 -96 -94q-12 -16 -34 -16q-15 0 -28.5 9.5t-13.5 23.5q0 30 57 85q38 35 77 70q26 27 33 114h-18h-7q-8 0 -24 -1h-25q-22 0 -36.5 14
t-14.5 31q0 34 52 34q9 0 30 -1t33 -1h9q10 318 183 318q17 0 36 -3q71 -11 71 -59q0 -35 -34 -35q-14 0 -30 9q-27 15 -50 15q-92 0 -96 -241q62 3 77 3q3 0 10 -1h9q7 0 17 6t20 6q18 0 31.5 -16.5t13.5 -35.5q0 -30 -34 -30h-18q-23 0 -62 -3q-45 -5 -62 -6
q-2 -64 -15 -104q78 -14 130 -86q33 -46 64 -46q19 0 43 13q16 18 33 18q15 0 26 -14t11 -31z" />
    <glyph glyph-name="section" unicode="&#xa7;" horiz-adv-x="420" 
d="M394 233q0 -88 -80 -160q11 -34 11 -69q0 -82 -52 -138q-55 -58 -141 -58q-65 0 -65 41q0 17 15 30.5t39 13.5q6 0 17.5 -2t17.5 -2q40 0 64 48q19 39 19 86q0 19 -3 30q-20 14 -20 35v2q-23 27 -81.5 61t-78.5 56q-36 40 -36 100q0 12 1 25q9 85 101 138q-20 44 -20 77
q0 66 60 120q56 50 112 50q18 0 32 -7q34 -18 34 -41q0 -16 -15 -28t-32 -12q-2 0 -7 1t-8 1q-29 0 -57 -17q-37 -23 -37 -65q0 -25 12 -50q44 -3 44 -42q0 -5 -1 -9l66 -50q35 -28 57 -62q32 -49 32 -103zM315 225q0 10 -2 21q-7 37 -34 65q-16 17 -57 44t-59 44
q-62 -25 -62 -79q0 -18 8 -39q10 -31 70 -69q76 -49 94 -67q42 28 42 80z" />
    <glyph glyph-name="bullet" unicode="&#x2022;" horiz-adv-x="387" 
d="M343 250q0 -43 -43 -73q-39 -28 -87 -28q-83 0 -128 33q-40 30 -40 74q0 40 34 71t89 31q175 0 175 -108z" />
    <glyph glyph-name="paragraph" unicode="&#xb6;" horiz-adv-x="450" 
d="M381 315q0 -27 -27 -44q-20 -12 -60 -39q-2 -8 -5 -28q-4 -37 -4 -90v-35h5q34 0 34 -30q0 -6 -2 -12q-3 -17 -12 -29l-16 -22q-16 -28 -45 -28q-18 0 -30.5 16t-12.5 35q0 9 2 26t2 23v1v15q0 71 8 124q-11 -5 -35 -12q-7 -32 -7 -71q0 -6 2 -19t2 -19q0 -24 -28 -40
q-11 -6 -21 -6q-17 0 -27.5 16t-10.5 31q1 30 11 106q-65 16 -65 87q0 75 54 145q26 35 59 63l9 54q5 40 10 81q11 57 40 57q50 0 51 -39q0 -41 -15 -101q8 2 17 2h6q5 31 5 59v14q0 52 39 52q19 0 34.5 -14.5t17.5 -38.5v-16q0 -40 -23 -124q-13 -42 -32 -128q19 14 36 14
q34 0 34 -36zM254 431q0 1 -1 1q-16 0 -31 -13q-10 -50 -24 -146q10 4 31 14q11 48 25 144z" />
    <glyph glyph-name="germandbls" unicode="&#xdf;" horiz-adv-x="498" 
d="M474 145q0 -54 -57 -123q-48 -58 -97 -86q-110 -65 -166 -65q-12 0 -20 3q2 -31 11 -65.5t9 -48.5q0 -12 -4 -25q-6 -20 -37 -20q-25 0 -42 17q-20 22 -20 63q0 14 2 30q-4 151 -9 471v46q0 86 3 152q-3 -1 -6 -1q-40 0 -40 41q0 30 29 47l16 10q3 20 18 33t32 13
q18 0 29 -17q163 49 260 49q38 0 58 -7q27 -10 27 -39q0 -46 -47 -94q-30 -31 -109 -104q-59 -51 -59 -95q0 -45 65 -67q76 -26 107 -44q47 -27 47 -74zM394 595q0 6 -16 6q-42 0 -136 -26q-97 -26 -110 -44q-9 -19 -9 -183q0 -98 8 -403q14 13 33 15.5t61 10.5
q52 16 104 68q59 57 59 107q0 6 -1.5 13t-55.5 23q-66 20 -99 44q-53 38 -53 99t54 125q28 34 104 98q17 15 42 34q15 10 15 13z" />
    <glyph glyph-name="registered" unicode="&#xae;" horiz-adv-x="747" 
d="M688 319q0 -125 -136 -232q-132 -103 -273 -103q-114 0 -173 78q-52 69 -54 187q0 98 62 189q54 78 137 131q78 49 135 49q37 -1 58 -23q123 -2 188 -86q57 -74 56 -190zM609 329q0 161 -115 185q-33 6 -30 6q-2 0 -8.5 -4t-12.5 -4q-7 0 -15 5q-1 1 -5 1q-25 0 -56 -11
q2 -7 2 -13q0 -30 -29 -30q-35 0 -52 35q-67 -30 -112 -109q-44 -75 -44 -150q0 -184 149 -184q108 0 218 89t110 184zM523 216q0 -14 -10 -25.5t-25 -11.5q-9 0 -24.5 8.5t-23 9.5t-31.5 1h-7q-85 0 -89 9q0 -1 -3 -18q-4 -26 -37 -26q-41 0 -41 45q0 15 3.5 43.5t3.5 41.5
v9.5v13.5q0 84 30 84q7 0 17 -6q29 34 83 34q74 0 74 -67q0 -51 -73 -100q11 3 33 3q64 0 98 -16q22 -10 22 -32zM367 360q-30 -2 -39 -41q39 28 39 41z" />
    <glyph glyph-name="copyright" unicode="&#xa9;" horiz-adv-x="714" 
d="M663 416q0 -149 -115 -288q-122 -148 -276 -148q-98 0 -159 73q-59 70 -59 174q0 106 63 200q71 106 205 168q87 40 124 40q33 0 47 -22q86 -12 130 -68q40 -50 40 -129zM592 408q0 65 -45 98q-40 30 -109 30q-56 0 -104 -25q-36 -18 -43 -32q-6 -10 -14 -37
q-5 -16 -20 -28q-8 -7 -20 -7q-16 0 -32 11l240 56q-17 -20 -35 -39q-156 -105 -278 -199q0 -93 50 -141q39 -38 91 -38q111 2 216 122q103 117 103 229zM481 256q0 -17 -13 -30q-19 -14 -56 -42q-43 -34 -103 -34q-48 0 -73 34q-14 21 -14 56q0 55 32 110q44 76 113 76h9
q9 34 37 34q18 0 33 -14.5t15 -33.5q0 -9 -4 -18.5t-4.5 -37.5t-6.5 -39q-10 -17 -39 -18q-34 0 -43 44q-28 -9 -47 -43q-18 -30 -18 -62q0 -12 13 -12q17 0 51 19q30 17 38 26q21 25 43 25q16 0 26.5 -12t10.5 -28z" />
    <glyph glyph-name="trademark" unicode="&#x2122;" horiz-adv-x="681" 
d="M644 408q0 -35 -38 -35q-18 0 -32 10.5t-14 26.5q0 7 -10 49q-12 51 -13 57q-3 -2 -22 -31.5t-24 -39.5q-17 -31 -41 -31q-33 0 -55 49q-4 -22 -4 -29v-6.5v-9.5v-9q0 -29 -25 -34q-10 -2 -17 -2q-35 0 -40 41q-2 9 -2 30q0 144 24 171q-35 -6 -79 -15q-12 -74 -12 -150
q0 -7 1.5 -21.5t1.5 -21.5q0 -42 -37 -42q-16 0 -29 12.5t-13 34.5q0 8 2 17q4 15 4 113q0 13 2 41q-66 -13 -103 -14q-18 0 -29.5 10.5t-11.5 24.5q0 29 41 32q37 2 111 10q11 68 46 68q14 0 25.5 -14t11.5 -33q0 -3 -1 -5q115 20 176 20h6q25 0 40 5q6 3 12 3q17 0 30 -13
t13 -26t-11 -23t-28 -10q-8 0 -26.5 5t-29.5 5q-20 0 -49 -4q29 -4 40 -31q5 -17 10 -33q6 -21 13 -21h2q24 27 60 67q8 10 16 20.5t22 10.5q4 0 9 -1q33 -5 39 -38q20 -127 34 -167q4 -12 4 -23z" />
    <glyph glyph-name="acute" unicode="&#xb4;" horiz-adv-x="462" 
d="M358 697q0 -16 -11 -30q-37 -48 -75 -96q-47 -62 -59 -96q2 -10 2 -11q0 -16 -18 -29.5t-37 -13.5q-29 0 -29 31q0 4 1 10q4 27 63 125q63 101 101 137q14 13 29 13q14 0 23.5 -11.5t9.5 -28.5z" />
    <glyph glyph-name="dieresis" unicode="&#xa8;" horiz-adv-x="371" 
d="M357 628q0 -15 -10 -35q-12 -24 -16 -35q-7 -16 -9.5 -36t-12.5 -30q-15 -14 -29 -14q-9 0 -17 7q-14 13 -14 36t14 62l20 56q9 32 35 32q39 0 39 -43zM222 644q0 -10 -12 -43q-8 -23 -8 -62q-1 -50 -36 -50q-6 0 -12 1q-23 5 -23 65q0 59 14 98q12 31 33 31q9 0 20 -6
q24 -13 24 -34z" />
    <glyph glyph-name="AE" unicode="&#xc6;" horiz-adv-x="819" 
d="M921 124q0 -13 -20 -16q-99 -15 -378 -142q7 -12 7 -23q0 -22 -27 -37q-8 -4 -17 -4q-17 0 -33 11.5t-20 27.5q-31 16 -31 42q0 11 8 20q3 4 7 8q0 7 -54 222q-102 -43 -244 -98q-32 -76 -34 -88q-2 -17 -6 -35t-20 -25q-10 -4 -21 -4q-29 0 -39 25q-2 5 -2 11
q0 41 48 145q-3 7 -3 13q0 17 23 30l147 323q-10 14 -10 27q0 29 41 43q13 27 25 54q18 30 46 30q32 0 40 -52q59 24 178 67q99 30 127 30q50 0 50 -35q0 -16 -13 -30q-18 -21 -50 -21q-14 0 -25 6q-56 -16 -129 -45q-62 -25 -124 -51q17 -70 52 -211q287 105 331 105
q15 0 27.5 -10t12.5 -24q0 -15 -12 -27t-28 -12q-7 -1 -29 -4q-26 -5 -283 -107l53 -218q324 126 381 126q4 0 7 -1q12 -4 26.5 -19t14.5 -27zM343 314q-31 124 -52 187q-73 -136 -123 -251z" />
    <glyph glyph-name="Oslash" unicode="&#xd8;" horiz-adv-x="696" 
d="M703 397q0 -86 -92 -186q-84 -90 -204.5 -154.5t-204.5 -64.5q-20 0 -38 3q-6 -15 -6 -22v-3v-5q0 -24 -14.5 -37t-34.5 -13q-47 0 -47 47q0 21 23 65q-72 52 -72 159q0 78 48 188q51 116 123 193q83 88 165 89q68 0 98 -33q19 -4 37 -8q58 73 90 73q12 0 24 -11t12 -23
q0 -20 -38 -69q131 -61 131 -188zM618 406q0 76 -98 114q-183 -228 -311 -443h6q112 0 256 112q147 116 147 217zM427 541q-28 3 -55 3h-10q-16 -10 -33 -20.5t-30 -10.5q-17 0 -34 16q-76 -66 -123 -166q-44 -93 -44 -171q0 -61 28 -88q18 30 51 79q132 201 250 358z" />
    <glyph glyph-name="plusminus" unicode="&#xb1;" horiz-adv-x="672" 
d="M752 438q0 -18 -12.5 -30.5t-31.5 -12.5q-9 0 -20 3h-3q-31 0 -179 -19q-17 -210 -17 -260q0 -27 5.5 -31.5t13.5 -7.5q14 -8 14 -20q0 -6 -4 -13q-20 -40 -23 -44q-17 -25 -36 -25q-13 0 -28 11q-19 13 -19 175q0 98 6 203q-94 -15 -198 -38q-22 -170 -22 -260
q0 -11 2.5 -33t2.5 -33q0 -39 -35 -39q-21 0 -37 17q-19 18 -19 46q0 68 22 281q-62 -17 -91 -31q-4 -2 -9 -2q-13 0 -25.5 13t-12.5 30q0 11 7 22q16 22 140 52q31 257 45 280q11 19 29 19q20 0 39 -21q12 -13 12 -28q0 -35 -15 -116q-21 -112 -22 -116q73 13 192 30
q8 106 12 134q15 107 48 105q49 -1 49 -51q0 -32 -9 -88q-10 -66 -12 -88q71 10 212 21q29 0 29 -35z" />
    <glyph glyph-name="yen" unicode="&#xa5;" horiz-adv-x="588" 
d="M550 638q0 -18 -15.5 -33.5t-34.5 -16.5q-25 -20 -96 -119q-48 -67 -96 -135q-17 -20 -17 -35q0 -5 1 -13q49 22 151 63q22 7 38 7q39 0 39 -31q0 -20 -18 -35q-22 -18 -54 -18q-27 0 -152 -57l1 -10q56 21 74 27q37 13 73 19t50 6q46 0 46 -35q0 -6 -2 -14
q-3 -17 -26 -33.5t-44 -16.5q-26 0 -31 30q-34 -15 -107 -44q-10 -3 -29 -12q2 -27 13 -106q10 -17 10 -30q0 -37 -52 -37q-28 0 -34.5 23.5t-10.5 45.5q-3 10 -11 64q-42 -26 -130 -69q-7 -3 -14 -3q-15 0 -25 11t-10 27q0 30 33 48q5 3 140 63v11q-44 -16 -133 -58
q-20 -12 -38 -12q-29 0 -29 25q0 20 22 44q10 11 81 39q45 18 91 35q-2 21 -6 27q-32 59 -99 179q-2 4 -42 66q-17 26 -17 40q0 15 10 26t25 11q7 0 15 -3q36 -12 70 -73l44 -97q24 -53 33 -53h1q7 2 94 109q96 119 119 142q6 5 13 12q3 15 15 28.5t28 13.5t33 -18
q10 -11 10 -25z" />
    <glyph glyph-name="mu" unicode="&#x3bc;" horiz-adv-x="420" 
d="M379 169q-2 -10 -15 -18.5t-30 -8.5q-44 0 -62 53q-1 4 -10 17q-64 -57 -127 -52q-15 -26 -57 -25q-41 2 -41 39q0 20 16 31q-11 18 -11 46q0 78 70 183l-37 52q-11 17 -11 29q0 28 43 28q25 0 58 -41q56 63 72 63t21 -13q3 -4 6 -25q17 -3 32 -9q14 14 25 20q7 3 15 3
q32 0 37 -33q1 -10 -21 -41q16 -30 16 -65q0 -65 -50 -131q27 -43 30 -47q11 -12 21 -25q12 -16 10 -30zM244 454q-17 1 -36 -16q7 -11 10 -17q8 11 26 33zM289 386l-25 -33l12 -18q14 26 13 51zM169 353l-12 16q-21 -39 -29 -71q17 23 41 55zM223 272l-10 14l-31 -41
q20 10 41 27z" />
    <glyph glyph-name="ordfeminine" unicode="&#xaa;" horiz-adv-x="402" 
d="M349 585q0 -85 -38 -163q-9 -10 -23 -10q-21 0 -32 16q-62 -29 -104 -29q-36 0 -59 20q-27 23 -27 58q0 47 42 90t90 43q44 0 74 -41q1 10 1 20q0 86 -58 86q-11 0 -23 -3q-30 -9 -30 -15v-1q1 -2 1 -4q0 -21 -28 -21q-40 0 -40 37q0 31 43 55q41 21 87 21q22 0 38 -6
q86 -33 86 -153zM377 343q0 -17 -22.5 -29.5t-40.5 -12.5q-14 0 -26 11q-17 4 -40 4q-25 0 -75.5 -7t-74.5 -7q-23 0 -39.5 13.5t-16.5 29.5q0 24 38 32q42 7 120 7q115 0 146 -11.5t31 -29.5zM229 497q-12 41 -27 41h-2q-26 -4 -43 -26q-15 -18 -15 -34q0 -12 19 -12
q21 0 68 31z" />
    <glyph glyph-name="ordmasculine" unicode="&#xba;" horiz-adv-x="402" 
d="M353 583q0 -76 -63 -134q-59 -53 -123 -53q-27 0 -47 12q-61 39 -61 115q0 34 17 67q73 138 151 138q38 0 71 -25q42 -32 52 -91q3 -14 3 -29zM377 343q0 -17 -22.5 -29.5t-40.5 -12.5q-14 0 -26 11q-17 4 -40 4q-25 0 -75.5 -7t-74.5 -7q-23 0 -39.5 13.5t-16.5 29.5
q0 24 38 32q42 7 120 7q115 0 146 -11.5t31 -29.5zM276 593q0 58 -49 59q-13 0 -31 -16q-30 -27 -54 -87q-5 -12 -5 -28q0 -49 33 -49q21 0 49 15.5t36 31.5q21 36 21 74z" />
    <glyph glyph-name="ae" unicode="&#xe6;" horiz-adv-x="732" 
d="M739 194q0 -29 -28 -48q-2 -1 -44 -34q-154 -117 -243 -117q-64 0 -115 66q-12 -39 -20 -54q-7 -9 -20 -9q-27 0 -37 24q-66 -38 -116 -38q-38 0 -61.5 24.5t-23.5 63.5q0 57 45 110t95 53t80 -59q4 24 4 45q0 53 -26 103q-18 33 -52 33q-18 0 -35.5 -9t-18.5 -14
q-2 -17 -23 -17q-39 0 -41 37q0 33 42 56q38 21 85 21q49 0 87 -35q31 -30 47 -75q41 45 102 71t121 26q63 0 108 -28q2 -1 2 -5q0 -23 -34 -64q-42 -51 -108 -81q-47 -21 -95 -30q-34 -5 -67 -9q-1 -6 -1 -13q0 -40 24 -76q26 -40 63 -40q35 0 115 47q77 46 103 77
q23 41 44 41q10 0 22 -8q20 -14 20 -35zM542 344h-6q-38 0 -84 -21q-36 -16 -71 -49q30 5 91 24q46 21 70 46zM210 98q-21 59 -39 59h-1q-28 -5 -47.5 -29.5t-19.5 -53.5q0 -19 18 -19q31 0 89 43z" />
    <glyph glyph-name="oslash" unicode="&#xf8;" 
d="M481 512v-8q-1 -11 -20.5 -34.5t-32.5 -26.5q-48 -49 -98 -116q20 -50 20 -102q0 -97 -73 -166q-66 -63 -140 -63q-6 0 -13 1q-18 -43 -54 -107q-11 -15 -34 -15q-43 0 -43 35q0 22 61 130q-36 48 -36 113q0 40 15 78q31 77 87 127t110 50q32 0 58 -20q106 121 117 146
q9 20 38 20q38 0 38 -42zM235 321q-11 5 -20 5q-20 0 -49 -31q-37 -39 -62 -111q-4 -13 -4 -28t4 -29q49 83 131 194zM268 241q-46 -66 -99 -161q43 16 73 70q22 42 26 91z" />
    <glyph glyph-name="questiondown" unicode="&#xbf;" horiz-adv-x="567" 
d="M396 647q0 -55 -51 -55q-21 0 -36 13t-15 34q0 22 14.5 41t36.5 19t36.5 -15t14.5 -37zM506 -38q0 -27 -47.5 -65.5t-116.5 -68.5q-77 -33 -163 -33q-131 0 -152 87q-5 20 -5 41q0 104 124 212q74 65 217 146q9 5 9 16q0 15 -19 43l-28 42q-24 41 -24 70q0 24 16 38.5
t37 14.5q44 0 44 -46q0 -3 -1 -9v-8q0 -11 17 -40q12 -19 23 -39q27 -49 27 -116v-13q-37 -15 -73 -33q-86 -42 -151 -90q-132 -96 -132 -172q0 -17 6 -37q9 -28 72 -28q65 0 138.5 26t90.5 61t56 35q14 0 24.5 -10t10.5 -24z" />
    <glyph glyph-name="exclamdown" unicode="&#xa1;" horiz-adv-x="309" 
d="M215 599q0 -49 -38 -49q-20 0 -32.5 14.5t-12.5 34.5q0 55 40 57q16 0 29.5 -19.5t13.5 -37.5zM204 353v-19l-35 -388l-4 -72q-2 -59 -8 -65q-17 -17 -38 -17q-19 0 -32 19q-9 14 -9 65q0 117 40 360q12 73 12 85v7q0 9 -5 26.5t-5 26.5q2 46 40 46q44 0 44 -74z" />
    <glyph glyph-name="logicalnot" unicode="&#xac;" horiz-adv-x="1395" 
d="M1379 334q0 -16 -10 -30q-2 -17 -12 -76q21 -11 21 -30q0 -27 -32 -35q-11 -45 -41 -45q-33 0 -37 37q-74 -5 -221 -15q-15 -10 -30 -10q-12 0 -22 6q-64 -5 -161 -14q-12 -24 -39 -24q-23 0 -34 19q-51 -6 -127 -14q-11 -27 -40 -27q-23 0 -34 21q-85 -9 -140 -14
q-14 -25 -41 -25q-21 0 -32 19l-78 -7h-6q-9 0 -19 2l-10 2h-1q-2 -21 -16 -34.5t-31 -13.5q-26 0 -34 29q-8 -1 -36 -6q-23 -5 -36 -5q-28 0 -37 21q-6 13 -6 46q0 62 5 112q-34 14 -34 36q1 30 36 30q13 0 23 -5q1 -1 6 -1q18 0 70.5 5.5t54.5 6.5q10 10 25 10q11 0 22 -6
q50 7 150 19q11 17 32 17q15 0 25 -9q133 13 161 15q15 12 28 12q10 0 21 -7q14 0 79.5 2.5t66.5 3.5q9 11 28 11q18 0 27 -10l152 6q11 15 31 15q21 0 34 -16l211 2q16 17 32 17q10 0 18.5 -6t8.5 -9q29 0 29 -28zM997 291l-129 -7l-16 -87l132 12q9 57 13 82zM588 269
q-62 -5 -131 -14q-7 -32 -19 -97l-1 -2q49 6 128 14zM174 224q-21 -3 -63 -6l-4 -82q15 -4 25 -16q17 -4 21 -4h2z" />
    <glyph glyph-name="florin" unicode="&#x192;" horiz-adv-x="576" 
d="M588 607q0 -39 -38 -39q-10 0 -18 4q-19 9 -27 37q-6 24 -46 33q-10 2 -19 2q-66 0 -90 -120q-12 -60 -15 -192q38 1 85 10q13 11 28 11q18 0 31.5 -14.5t13.5 -31.5q0 -35 -53 -43q-2 0 -108 -10q-8 -224 -63 -364q-80 -207 -254 -207q-10 0 -29.5 2.5t-29.5 2.5
q-4 0 -10.5 -2t-9.5 -2q-11 0 -29.5 15t-18.5 36q0 23 18.5 41t40.5 18q25 0 41 -24q6 -9 26 -9q28 0 56 11q163 68 178 472q-14 -1 -36 -8q-13 -9 -25 -9q-17 0 -28 14t-11 33q0 45 54 45h2h6q20 0 42 3q9 163 32 243q44 153 154 153q14 0 29 -2q55 -9 90 -43
q31 -31 31 -66z" />
    <glyph glyph-name="guillemotleft" unicode="&#xab;" horiz-adv-x="540" 
d="M521 204q0 -13 -8 -25t-21 -12q-14 0 -40 15l-36 22l-126 58q-52 23 -52 47q0 7 3 16q8 18 211 89q11 4 20 4q32 0 32 -35q0 -28 -22 -33q-29 -6 -69 -24q-48 -22 -53 -23l78 -34q51 -22 72 -38q11 -9 11 -27zM299 211q0 -13 -8 -25t-21 -12q-14 0 -40 15q-18 11 -35 22
q-24 13 -69 31q-49 19 -70 29q-41 22 -41 46q0 7 5 15q10 19 210 89q11 4 20 4q32 0 32 -35q0 -28 -21 -33q-30 -6 -69 -24q-49 -22 -53 -23q39 -17 77 -34q51 -22 72 -38q11 -9 11 -27z" />
    <glyph glyph-name="guillemotright" unicode="&#xbb;" horiz-adv-x="540" 
d="M521 316q0 -24 -40 -46q-48 -17 -139 -60q-17 -11 -35 -22q-26 -15 -40 -15q-13 0 -21 12t-8 25q0 18 11 27q21 16 72 38q38 17 77 34q-36 18 -122 47q-21 5 -21 33q0 35 32 35q9 0 20 -4q66 -23 112 -42q91 -35 98 -47q4 -8 4 -15zM299 308q0 -24 -52 -47l-126 -58
l-36 -22q-26 -15 -40 -15q-13 0 -21 12t-8 25q0 18 11 27q21 16 72 38q39 17 77 34q-36 18 -121 47q-22 5 -22 33q0 35 32 35q9 0 20 -4q82 -29 114 -41q91 -35 96 -48q4 -9 4 -16z" />
    <glyph glyph-name="ellipsis" unicode="&#x2026;" horiz-adv-x="768" 
d="M661 18q0 -18 -14.5 -32.5t-32.5 -14.5q-20 0 -35.5 16.5t-15.5 37.5q0 18 9 30q13 17 33 17q21 0 38.5 -16.5t17.5 -37.5zM414 21q0 -47 -45 -47q-42 0 -42 46q0 19 14 33t33 14q18 0 29 -14t11 -32zM178 20q0 -46 -50 -46q-21 0 -37 15.5t-16 35.5q0 21 18 34
q15 13 34 13q51 0 51 -52z" />
    <glyph glyph-name="nonbreakingspace" unicode="&#xa0;" horiz-adv-x="498" 
 />
    <glyph glyph-name="Agrave" unicode="&#xc0;" horiz-adv-x="615" 
d="M635 341q0 -18 -12.5 -32t-34.5 -14q-8 0 -16 2l-106 -31l60 -257q24 -23 24 -44q0 -22 -28 -37q-7 -4 -16 -4q-19 0 -36 14.5t-17 32.5v2l-63 268q-88 -26 -146 -46q-32 -11 -99 -36q-31 -64 -35 -89q-2 -17 -6 -35t-19 -25q-10 -5 -21 -5q-28 0 -39 26v8q0 32 31 115
q-24 11 -24 39q0 9 3 20q6 25 60 37l192 426q18 39 49 39q30 0 39 -49q3 -29 22 -115q10 -38 53 -214l119 37q15 5 27 5q39 0 39 -38zM373 312q-29 125 -59 219q-43 -82 -65.5 -128.5t-60.5 -135.5q118 24 185 45zM465 762q0 -32 -30 -32q-8 0 -17 3q-26 7 -112 81.5
t-121 117.5q-10 14 -10 27q0 14 11.5 24t28.5 10q33 0 98 -76q73 -87 106 -103q2 1 8 1q15 1 26.5 -16.5t11.5 -36.5z" />
    <glyph glyph-name="Atilde" unicode="&#xc3;" horiz-adv-x="615" 
d="M635 341q0 -18 -12.5 -32t-34.5 -14q-8 0 -16 2l-106 -31l60 -257q24 -23 24 -44q0 -22 -28 -37q-7 -4 -16 -4q-19 0 -36 14.5t-17 32.5v2l-63 268q-88 -26 -146 -46q-32 -11 -99 -36q-31 -64 -35 -89q-2 -17 -6 -35t-19 -25q-10 -5 -21 -5q-28 0 -39 26v8q0 32 31 115
q-24 11 -24 39q0 9 3 20q6 25 60 37l192 426q18 39 49 39q30 0 39 -49q3 -29 22 -115q10 -38 53 -214l119 37q15 5 27 5q39 0 39 -38zM373 312q-29 125 -59 219q-43 -82 -65.5 -128.5t-60.5 -135.5q118 24 185 45zM591 829q0 -25 -17 -29q-23 -4 -36 -14q-15 -14 -31 -28
q-52 -48 -97 -48q-31 0 -43 23l-12 46q-9 34 -21 34q-17 0 -48.5 -19.5t-46.5 -41.5q-20 -30 -43 -30q-30 0 -30 34q0 18 12 35q21 30 63 60q56 40 105 40q59 0 81 -96q0 -2 3 -2q4 0 52 39.5t68 39.5q41 -1 41 -43z" />
    <glyph glyph-name="Otilde" unicode="&#xd5;" horiz-adv-x="696" 
d="M703 398q0 -86 -93 -186q-83 -89 -203 -153t-204 -64q-48 0 -86 18q-104 48 -104 175q0 76 49 186q51 115 124 192q83 88 163 89q68 0 98 -33q256 -50 256 -224zM618 395q0 89 -103 126q-61 22 -142 22h-11q-16 -10 -31 -20q-18 -11 -32 -11q-17 0 -33 17
q-76 -65 -122 -164q-43 -90 -43 -168q0 -77 42 -100q32 -17 73 -17q63 0 159.5 51t164.5 121q76 78 78 143zM627 809q0 -25 -17 -29q-23 -4 -36 -14q-15 -14 -31 -28q-52 -48 -97 -48q-31 0 -43 23l-12 46q-9 34 -21 34q-17 0 -48.5 -19.5t-46.5 -41.5q-20 -30 -43 -30
q-30 0 -30 34q0 18 12 35q21 30 63 60q56 40 105 40q59 0 81 -96q0 -2 3 -2q4 0 52 39.5t68 39.5q41 -1 41 -43z" />
    <glyph glyph-name="OE" unicode="&#x152;" horiz-adv-x="954" 
d="M1022 278q0 -16 -23 -20q-128 -25 -415 -155q-6 -3 -89 -45q-42 -21 -60 -21q-11 0 -19 6q-116 -63 -210 -63q-49 0 -88 17q-105 48 -105 174q0 77 51 188.5t124 188.5q84 87 165 88q27 0 49 -6q108 44 190 69q98 30 126 30q50 0 50 -33q0 -19 -18.5 -36.5t-42.5 -17.5
q-14 0 -27 7q-101 -28 -174 -58q132 -36 178 -112q174 64 238 64q13 0 18 -3q22 -13 22 -34q0 -26 -28 -37q-10 -4 -52 -7q-46 -3 -173 -52q2 -13 2 -25q0 -79 -81 -172q292 108 341 108q16 0 33.5 -14t17.5 -29zM624 376q-70 -30 -140 -61q-112 -47 -137 -47
q-17 0 -29.5 13.5t-12.5 30.5q0 29 28 39q5 2 27 8q51 14 121 42q60 23 120 47q-66 77 -212 77h-23q-16 -10 -31 -20q-19 -11 -32 -11q-18 0 -35 17q-76 -66 -124 -165q-44 -91 -44 -168q0 -75 42 -97q29 -15 69 -15q121 0 266 109t147 201z" />
    <glyph glyph-name="oe" unicode="&#x153;" horiz-adv-x="735" 
d="M738 194q0 -29 -28 -48q-2 -1 -44 -34q-154 -117 -243 -117q-77 0 -128 86q-70 -85 -161 -85q-24 0 -43 9q-31 15 -53.5 56t-22.5 92q0 40 15 78q31 77 87 127t110 50q67 0 99 -79q42 42 101 65.5t116 23.5t98 -23q8 -5 8 -16q0 -27 -45.5 -73t-93.5 -66
q-54 -22 -162 -39q-1 -6 -1 -13q0 -40 24 -76q26 -40 63 -40q35 0 115 47q77 46 103 77q23 41 44 41q10 0 22 -8q20 -14 20 -35zM541 344h-6q-38 0 -84 -21q-36 -16 -71 -49q30 5 91 24q46 21 70 46zM265 253q0 28 -12 48q-14 25 -41 25q-20 0 -49 -31q-37 -39 -62 -111
q-4 -13 -4 -28q0 -27 12 -51q15 -28 40 -28q22 0 50 24q25 21 40 49q26 49 26 103z" />
    <glyph glyph-name="endash" unicode="&#x2013;" horiz-adv-x="690" 
d="M672 273q0 -34 -44 -34q-15 0 -50 9q-26 6 -181 6h-41q-60 -3 -193 -19q-63 -7 -83 -7q-15 0 -22 3q-39 14 -39 48q0 22 28 27q113 21 251 21h10q50 0 144 -2q88 -1 126 -1q46 0 72 -17q22 -14 22 -34z" />
    <glyph glyph-name="emdash" unicode="&#x2014;" horiz-adv-x="894" 
d="M885 272q0 -30 -39 -30q-22 0 -47 13q-5 3 -444 6h-12q-96 0 -186 -12t-81 -12q-22 0 -35 14.5t-13 32.5q0 33 31 39q106 22 258 22q119 0 459 -21q59 -4 68 -6q39 -10 41 -46z" />
    <glyph glyph-name="quotedblleft" unicode="&#x201c;" horiz-adv-x="360" 
d="M319 483q0 -36 -46 -36q-12 0 -25 4q-75 21 -75 130q0 58 23.5 111.5t62.5 75.5q5 3 10 3q14 0 25 -14.5t11 -31.5q0 -12 -7 -20q-47 -58 -47 -137q0 -20 7.5 -38t14.5 -18h1q2 1 4 1q41 0 41 -30zM174 718q0 -8 -3 -15q-59 -152 -59 -203q0 -25 8 -40q4 -7 23 -25.5
t20 -25.5q1 -3 1 -6q0 -26 -38 -28q-26 0 -59 37q-38 42 -38 92q0 33 28.5 127.5t47.5 117.5q10 13 26 13q17 0 30 -13t13 -31z" />
    <glyph glyph-name="quotedblright" unicode="&#x201d;" horiz-adv-x="327" 
d="M291 547q0 -38 -14 -63q-11 -20 -29 -20q-5 0 -10 2q-8 5 -13 48q-7 50 -15 76q-13 44 -46 97q-6 7 -13 16.5t-7 16.5q0 12 19.5 28.5t35.5 16.5q9 0 15 -6q30 -35 53 -95q24 -64 24 -117zM164 553q0 -91 -50 -138q-25 -24 -51 -24q-8 0 -14.5 3.5t-6.5 10.5q0 9 9 24
q7 10 13 19q19 36 19 81q0 69 -40 137q-7 13 -7 27q0 18 13.5 31.5t30.5 13.5q15 0 27 -9.5t33 -68.5q24 -65 24 -107z" />
    <glyph glyph-name="quoteleft" unicode="&#x2018;" horiz-adv-x="243" 
d="M171 708q0 -8 -6 -16q-42 -60 -42 -111q0 -44 32 -79q10 -11 10 -18q0 -13 -23 -13q-43 0 -72 44q-25 40 -25 84q0 34 24 86q21 46 31.5 53t23.5 7q18 0 32.5 -11t14.5 -26z" />
    <glyph glyph-name="quoteright" unicode="&#x2019;" horiz-adv-x="252" 
d="M218 589q0 -39 -40 -74q-17 -16 -48.5 -29t-51.5 -13q-24 0 -24 16q0 10 44 38.5t44 49.5v2q-2 26 -41.5 65t-39.5 54q0 12 14 22q19 15 38 15q22 0 38 -18q67 -74 67 -128z" />
    <glyph glyph-name="divide" unicode="&#xf7;" horiz-adv-x="468" 
d="M288 381q0 -22 -13 -38.5t-35 -16.5q-13 0 -29 7q-37 16 -37 48q0 19 12.5 34.5t31.5 19.5q9 2 18 2q25 0 38.5 -16.5t13.5 -39.5zM454 262q0 -28 -29 -36q-12 -4 -33 -4h-12.5h-13.5q-79 0 -199 -18l-48 -10q-39 -8 -63 -8q-49 0 -49 33q0 60 189 73q103 7 166 7t73 -7
q19 -14 19 -30zM282 120q0 -54 -52 -54q-26 0 -45 19.5t-19 42.5t19 36t43 13q26 0 40 -17t14 -40z" />
    <glyph glyph-name="ydieresis" unicode="&#xff;" horiz-adv-x="1443" 
d="M1430 325q0 -21 -18.5 -26t-76.5 -5q-29 0 -114 2t-133 2q-124 0 -190 -12q-36 -6 -180 -68q-131 -56 -186 -56q-33 0 -51.5 19.5t-18.5 51.5q0 18 7 47t7 35q0 12 -15 12q-51 0 -189 -67q-144 -70 -183 -121q-11 -14 -24 -14q-15 0 -31.5 17.5t-16.5 32.5
q0 50 184.5 148t287.5 98q36 0 57.5 -20.5t21.5 -52.5q0 -19 -8 -48t-8 -35q0 -9 5 -9q12 0 139 51q134 55 180 62t150 7q117 0 254 -8q131 -8 139 -14q11 -10 11 -29z" />
    <glyph glyph-name="Ydieresis" unicode="&#x178;" horiz-adv-x="594" 
d="M565 378q-1 -140 -86 -229q-78 -82 -214 -108q-21 -4 -37 -4q-51 0 -51 33q0 19 16 36t36 17q10 0 18 -5h5q101 0 168 87q60 81 60 185q0 93 -43 142q-39 44 -102 44q-96 0 -164 -81q-65 -77 -65 -174q0 -95 52 -95q37 0 76.5 44.5t42.5 93.5q1 7 1 12q0 22 -12 22
q-31 0 -46 -32q-17 -36 -29 -40q-6 -2 -11 -2q-24 0 -24 34q0 38 29 70q34 39 89 39q79 0 79 -92q0 -98 -67 -164q-60 -59 -136 -59q-64 0 -97 46q-30 40 -30 107q0 153 104 256q95 94 216 94q96 0 156 -66q67 -74 66 -211z" />
    <glyph glyph-name="currency" unicode="&#xa4;" horiz-adv-x="715" 
d="M663 149q0 -30 -31 -51q-193 -126 -335 -126q-80 0 -130 37q-64 48 -76 124l-6 -4q-19 -15 -32 -15q-18 0 -31.5 14t-13.5 32q0 38 88 65q5 19 12 39q-14 -8 -28 -15q-18 -8 -30 -8q-15 0 -27 13t-12 27q0 10 6 20q14 25 141 59q64 95 155 172q127 109 201 109
q23 0 47 -14q28 -17 28 -39q0 -21 -19.5 -34.5t-38.5 -13.5q-7 0 -20.5 4.5t-20.5 4.5q-19 0 -76 -41q-42 -30 -67 -53q-34 -31 -65 -67q92 19 150 19q15 0 27.5 -11.5t12.5 -27.5q0 -18 -11.5 -31t-30.5 -13q-4 0 -12 1t-12 1q-69 0 -191 -31q-17 -26 -25 -45
q107 23 137 23q48 0 48 -40q0 -20 -13.5 -32t-32.5 -12q-4 0 -12.5 1.5t-12.5 1.5q-48 0 -135 -24v-8q0 -54 42 -85q39 -28 99 -28q59 0 137 32q73 30 122 70q1 1 24 29q14 18 30 18q19 0 31 -17q9 -14 9 -30z" />
    <glyph glyph-name="guilsinglleft" unicode="&#x2039;" horiz-adv-x="321" 
d="M296 212q0 -13 -7.5 -25t-20.5 -12q-14 0 -39 15l-34 22q-22 13 -66 31q-47 19 -67 29q-39 22 -39 46q0 7 4 15q7 12 94 43q54 19 109 38q10 4 18 4q31 0 31 -35q0 -28 -20 -33q-15 -3 -117 -39l74 -34q49 -22 69 -38q11 -9 11 -27z" />
    <glyph glyph-name="guilsinglright" unicode="&#x203a;" horiz-adv-x="321" 
d="M299 319q0 -24 -39 -46q-45 -17 -133 -60l-34 -22q-25 -15 -38 -15t-20.5 12t-7.5 25q0 18 11 27q20 16 69 38l74 34q-35 14 -117 39q-21 5 -21 33q0 35 31 35q9 0 19 -4l108 -38q88 -31 94 -43q4 -8 4 -15z" />
    <glyph glyph-name="daggerdbl" unicode="&#x2021;" horiz-adv-x="336" 
d="M303 405q0 -38 -36 -42q-11 -1 -27 -1h-4q-14 0 -23 -1q1 -43 6 -95q3 -7 3 -15q0 -38 -42 -38q-46 0 -46 43q0 6 2 12q1 10 1 41v42q-13 -2 -16 -7q-8 -15 -26 -15q-17 0 -32 12t-15 28q0 35 87 54q-1 35 -3 96q0 23 -1 46q-45 -16 -47 -16q-13 0 -24 10q-16 17 -16 32
q0 18 22 31t62 20q-2 23 -4 67q0 41 31 41q16 0 30 -12.5t14.5 -30.5t1.5 -53q29 3 40 3t19 -2q29 -7 29 -39q0 -35 -43 -35h-14q-10 1 -14 1q-5 0 -14 -1q2 -86 6 -145q31 4 45 4q7 0 15 -1q33 -3 33 -34z" />
    <glyph glyph-name="periodcentered" horiz-adv-x="207" 
d="M156 261q0 -57 -54 -57q-51 0 -51 56q0 25 19 42q14 14 30 16h7q23 0 36 -17.5t13 -39.5z" />
    <glyph glyph-name="quotesinglbase" unicode="&#x201a;" horiz-adv-x="234" 
d="M202 -74q0 -33 -23 -52t-56 -19q-27 0 -56 9.5t-35 21.5q-2 6 -2 10q0 15 23 15q8 0 22.5 -1.5t21.5 -1.5q30 0 30 20q0 12 -10 33q-3 8 -28 33q-22 22 -22 36q0 11 12 20q17 15 34 15q20 0 34 -17q55 -73 55 -122z" />
    <glyph glyph-name="quotedblbase" unicode="&#x201e;" horiz-adv-x="402" 
d="M371 -68q0 -51 -48 -77q-37 -20 -85 -20q-37 0 -37 20q0 13 24 20q42 14 47 17q23 12 23 31q0 9 -4 19q-13 33 -49 66q-18 17 -18 31q0 11 13 21q18 15 36 15q22 0 37 -17q61 -71 61 -126zM210 -75q0 -33 -25 -53q-20 -15 -48 -19h-13q-29 0 -60.5 9.5t-36.5 21.5
q-3 6 -3 11q0 15 25 15q8 0 24 -1.5t24 -1.5q31 0 31 20q0 12 -9 33q-4 8 -31 34q-23 22 -23 36q0 11 12 21q18 15 37 15q22 0 36 -18q60 -73 60 -123z" />
    <glyph glyph-name="perthousand" unicode="&#x2030;" horiz-adv-x="729" 
d="M339 495q0 -50 -46 -97q-30 -30 -72 -51q-47 -25 -87 -25t-64 26q-15 16 -15 40q0 43 43 102q37 52 68 70q41 23 79 23q41 0 67.5 -25t26.5 -63zM696 36q0 -54 -46 -92q-41 -35 -89 -35q-67 0 -67 66q0 41 32 101q14 26 37.5 56t33.5 30q21 0 30 -25q46 -11 62 -62
q7 -20 7 -39zM584 668q0 -21 -16 -29q-36 -18 -52 -33q-17 -18 -35 -55q-310 -659 -311 -743q0 -29 -17 -47q-16 -14 -36 -14q-19 0 -27 13q-13 23 -13 41t13 35q35 91 71 183q98 248 235 547q36 78 64 111q24 29 58 41q9 4 18 4q21 0 34.5 -17t13.5 -37zM482 69
q0 -60 -55 -113q-51 -50 -103 -50q-28 0 -45 18.5t-17 46.5q0 55 48 134t80 79q23 0 28 -25q49 -12 61 -67q3 -12 3 -23zM261 487q0 17 -22 17q-34 0 -52 -28q-6 -17 -13 -33q-9 -19 -22 -19q-4 0 -9 2q-12 -15 -12 -21q0 -12 18 -12q29 0 76 41q36 33 36 53zM622 36
q0 7 -2 13q-6 16 -5 16q-8 0 -27.5 -35t-19.5 -47q0 -8 10 -8q15 0 29.5 20.5t14.5 40.5zM408 59q0 29 -15 29h-2q-13 -5 -34 -42.5t-21 -56.5q0 -8 5 -8q19 0 43 29t24 49z" />
    <glyph glyph-name="Acircumflex" unicode="&#xc2;" horiz-adv-x="615" 
d="M635 341q0 -18 -12.5 -32t-34.5 -14q-8 0 -16 2l-106 -31l60 -257q24 -23 24 -44q0 -22 -28 -37q-7 -4 -16 -4q-19 0 -36 14.5t-17 32.5v2l-63 268q-88 -26 -146 -46q-32 -11 -99 -36q-31 -64 -35 -89q-2 -17 -6 -35t-19 -25q-10 -5 -21 -5q-28 0 -39 26v8q0 32 31 115
q-24 11 -24 39q0 9 3 20q6 25 60 37l192 426q18 39 49 39q30 0 39 -49q3 -29 22 -115q10 -38 53 -214l119 37q15 5 27 5q39 0 39 -38zM373 312q-29 125 -59 219q-43 -82 -65.5 -128.5t-60.5 -135.5q118 24 185 45zM455 760q0 -35 -31 -35q-5 0 -11 1q-14 4 -30 38t-32 34
q-8 0 -39.5 -25t-35.5 -35q-10 -30 -38 -30q-17 0 -29 19q-8 14 -8 26q0 17 16 29q39 32 77 65q56 45 82 45q16 0 27 -11.5t12 -26.5q4 -48 29 -66q11 -9 11 -28z" />
    <glyph glyph-name="Ecircumflex" unicode="&#xca;" horiz-adv-x="663" 
d="M752 253q0 -16 -26 -22q-227 -52 -527 -211q-85 -45 -100 -45q-14 0 -35 27q-19 24 -24 41v14q0 35 4 69q4 28 9 155.5t5 188.5q0 23 -1 27t-10 27q-6 18 -6 29q0 18 18 29t37 11q12 0 24 -5q263 99 283 106q97 30 125 30q50 0 50 -33q0 -20 -18.5 -37.5t-42.5 -17.5
q-14 0 -27 7q-75 -21 -175 -62q-85 -36 -171 -72v-31q0 -38 -6 -127q241 102 278 102q13 0 25 -9.5t12 -22.5q0 -35 -41 -47q-64 -18 -150 -56q-82 -36 -129 -65q-8 -93 -8 -138q0 -16 1 -32q92 47 279 120q228 88 296 88q12 0 18 -2q33 -12 33 -36zM437 782q0 -35 -31 -35
q-5 0 -11 1q-14 4 -30 38t-32 34q-8 0 -39.5 -25t-35.5 -35q-10 -30 -38 -30q-17 0 -29 19q-8 14 -8 26q0 17 16 29q39 32 77 65q56 45 82 45q16 0 27 -11.5t12 -26.5q4 -48 29 -66q11 -9 11 -28z" />
    <glyph glyph-name="Aacute" unicode="&#xc1;" horiz-adv-x="615" 
d="M635 341q0 -18 -12.5 -32t-34.5 -14q-8 0 -16 2l-106 -31l60 -257q24 -23 24 -44q0 -22 -28 -37q-7 -4 -16 -4q-19 0 -36 14.5t-17 32.5v2l-63 268q-88 -26 -146 -46q-32 -11 -99 -36q-31 -64 -35 -89q-2 -17 -6 -35t-19 -25q-10 -5 -21 -5q-28 0 -39 26v8q0 32 31 115
q-24 11 -24 39q0 9 3 20q6 25 60 37l192 426q18 39 49 39q30 0 39 -49q3 -29 22 -115q10 -38 53 -214l119 37q15 5 27 5q39 0 39 -38zM373 312q-29 125 -59 219q-43 -82 -65.5 -128.5t-60.5 -135.5q118 24 185 45zM478 1017q0 -16 -11 -30q-37 -48 -75 -96q-47 -62 -59 -96
q2 -10 2 -11q0 -16 -18 -29.5t-37 -13.5q-29 0 -29 31q0 4 1 10q4 27 63 125q63 101 101 137q14 13 29 13q14 0 23.5 -11.5t9.5 -28.5z" />
    <glyph glyph-name="Edieresis" unicode="&#xcb;" horiz-adv-x="663" 
d="M752 253q0 -16 -26 -22q-227 -52 -527 -211q-85 -45 -100 -45q-14 0 -35 27q-19 24 -24 41v14q0 35 4 69q4 28 9 155.5t5 188.5q0 23 -1 27t-10 27q-6 18 -6 29q0 18 18 29t37 11q12 0 24 -5q263 99 283 106q97 30 125 30q50 0 50 -33q0 -20 -18.5 -37.5t-42.5 -17.5
q-14 0 -27 7q-75 -21 -175 -62q-85 -36 -171 -72v-31q0 -38 -6 -127q241 102 278 102q13 0 25 -9.5t12 -22.5q0 -35 -41 -47q-64 -18 -150 -56q-82 -36 -129 -65q-8 -93 -8 -138q0 -16 1 -32q92 47 279 120q228 88 296 88q12 0 18 -2q33 -12 33 -36zM461 876q0 -15 -10 -35
q-12 -24 -16 -35q-7 -16 -9.5 -36t-12.5 -30q-15 -14 -29 -14q-9 0 -17 7q-14 13 -14 36t14 62l20 56q9 32 35 32q39 0 39 -43zM326 892q0 -10 -12 -43q-8 -23 -8 -62q-1 -50 -36 -50q-6 0 -12 1q-23 5 -23 65q0 59 14 98q12 31 33 31q9 0 20 -6q24 -13 24 -34z" />
    <glyph glyph-name="Egrave" unicode="&#xc8;" horiz-adv-x="663" 
d="M752 253q0 -16 -26 -22q-227 -52 -527 -211q-85 -45 -100 -45q-14 0 -35 27q-19 24 -24 41v14q0 35 4 69q4 28 9 155.5t5 188.5q0 23 -1 27t-10 27q-6 18 -6 29q0 18 18 29t37 11q12 0 24 -5q263 99 283 106q97 30 125 30q50 0 50 -33q0 -20 -18.5 -37.5t-42.5 -17.5
q-14 0 -27 7q-75 -21 -175 -62q-85 -36 -171 -72v-31q0 -38 -6 -127q241 102 278 102q13 0 25 -9.5t12 -22.5q0 -35 -41 -47q-64 -18 -150 -56q-82 -36 -129 -65q-8 -93 -8 -138q0 -16 1 -32q92 47 279 120q228 88 296 88q12 0 18 -2q33 -12 33 -36zM404 742q0 -32 -30 -32
q-8 0 -17 3q-26 7 -112 81.5t-121 117.5q-10 14 -10 27q0 14 11.5 24t28.5 10q33 0 98 -76q73 -87 106 -103q2 1 8 1q15 1 26.5 -16.5t11.5 -36.5z" />
    <glyph glyph-name="Iacute" unicode="&#xcd;" horiz-adv-x="249" 
d="M273 974q0 -16 -11 -30q-37 -48 -75 -96q-47 -62 -59 -96q2 -10 2 -11q0 -16 -18 -29.5t-37 -13.5q-29 0 -29 31q0 4 1 10q4 27 63 125q63 101 101 137q14 13 29 13q14 0 23.5 -11.5t9.5 -28.5zM201 619q0 -20 -2 -44q-12 -92 -30 -277q-7 -86 -7 -163q0 -30 1 -58
q18 -28 18 -50q0 -42 -45 -42q-35 0 -47 28q-5 11 -5 91q0 129 10 302q10 188 23 241q11 42 41 42q11 0 24 -5q19 -8 19 -65z" />
    <glyph glyph-name="Icircumflex" unicode="&#xce;" horiz-adv-x="249" 
d="M273 753q0 -35 -31 -35q-5 0 -11 1q-14 4 -30 38t-32 34q-8 0 -39.5 -25t-35.5 -35q-10 -30 -38 -30q-17 0 -29 19q-8 14 -8 26q0 17 16 29q39 32 77 65q56 45 82 45q16 0 27 -11.5t12 -26.5q4 -48 29 -66q11 -9 11 -28zM201 619q0 -20 -2 -44q-12 -92 -30 -277
q-7 -86 -7 -163q0 -30 1 -58q18 -28 18 -50q0 -42 -45 -42q-35 0 -47 28q-5 11 -5 91q0 129 10 302q10 188 23 241q11 42 41 42q11 0 24 -5q19 -8 19 -65z" />
    <glyph glyph-name="Idieresis" unicode="&#xcf;" horiz-adv-x="249" 
d="M289 873q0 -15 -10 -35q-12 -24 -16 -35q-7 -16 -9.5 -36t-12.5 -30q-15 -14 -29 -14q-9 0 -17 7q-14 13 -14 36t14 62l20 56q9 32 35 32q39 0 39 -43zM154 889q0 -10 -12 -43q-8 -23 -8 -62q-1 -50 -36 -50q-6 0 -12 1q-23 5 -23 65q0 59 14 98q12 31 33 31q9 0 20 -6
q24 -13 24 -34zM201 619q0 -20 -2 -44q-12 -92 -30 -277q-7 -86 -7 -163q0 -30 1 -58q18 -28 18 -50q0 -42 -45 -42q-35 0 -47 28q-5 11 -5 91q0 129 10 302q10 188 23 241q11 42 41 42q11 0 24 -5q19 -8 19 -65z" />
    <glyph glyph-name="Igrave" unicode="&#xcc;" horiz-adv-x="249" 
d="M276 723q0 -32 -30 -32q-8 0 -17 3q-26 7 -112 81.5t-121 117.5q-10 14 -10 27q0 14 11.5 24t28.5 10q33 0 98 -76q73 -87 106 -103q2 1 8 1q15 1 26.5 -16.5t11.5 -36.5zM201 619q0 -20 -2 -44q-12 -92 -30 -277q-7 -86 -7 -163q0 -30 1 -58q18 -28 18 -50
q0 -42 -45 -42q-35 0 -47 28q-5 11 -5 91q0 129 10 302q10 188 23 241q11 42 41 42q11 0 24 -5q19 -8 19 -65z" />
    <glyph glyph-name="Oacute" unicode="&#xd3;" horiz-adv-x="696" 
d="M703 398q0 -86 -93 -186q-83 -89 -203 -153t-204 -64q-48 0 -86 18q-104 48 -104 175q0 76 49 186q51 115 124 192q83 88 163 89q68 0 98 -33q256 -50 256 -224zM618 395q0 89 -103 126q-61 22 -142 22h-11q-16 -10 -31 -20q-18 -11 -32 -11q-17 0 -33 17
q-76 -65 -122 -164q-43 -90 -43 -168q0 -77 42 -100q32 -17 73 -17q63 0 159.5 51t164.5 121q76 78 78 143zM589 969q0 -16 -11 -30q-37 -48 -75 -96q-47 -62 -59 -96q2 -10 2 -11q0 -16 -18 -29.5t-37 -13.5q-29 0 -29 31q0 4 1 10q4 27 63 125q63 101 101 137q14 13 29 13
q14 0 23.5 -11.5t9.5 -28.5z" />
    <glyph glyph-name="Ocircumflex" unicode="&#xd4;" horiz-adv-x="696" 
d="M703 398q0 -86 -93 -186q-83 -89 -203 -153t-204 -64q-48 0 -86 18q-104 48 -104 175q0 76 49 186q51 115 124 192q83 88 163 89q68 0 98 -33q256 -50 256 -224zM618 395q0 89 -103 126q-61 22 -142 22h-11q-16 -10 -31 -20q-18 -11 -32 -11q-17 0 -33 17
q-76 -65 -122 -164q-43 -90 -43 -168q0 -77 42 -100q32 -17 73 -17q63 0 159.5 51t164.5 121q76 78 78 143zM506 758q0 -35 -31 -35q-5 0 -11 1q-14 4 -30 38t-32 34q-8 0 -39.5 -25t-35.5 -35q-10 -30 -38 -30q-17 0 -29 19q-8 14 -8 26q0 17 16 29q39 32 77 65
q56 45 82 45q16 0 27 -11.5t12 -26.5q4 -48 29 -66q11 -9 11 -28z" />
    <glyph glyph-name="Ograve" unicode="&#xd2;" horiz-adv-x="696" 
d="M703 398q0 -86 -93 -186q-83 -89 -203 -153t-204 -64q-48 0 -86 18q-104 48 -104 175q0 76 49 186q51 115 124 192q83 88 163 89q68 0 98 -33q256 -50 256 -224zM618 395q0 89 -103 126q-61 22 -142 22h-11q-16 -10 -31 -20q-18 -11 -32 -11q-17 0 -33 17
q-76 -65 -122 -164q-43 -90 -43 -168q0 -77 42 -100q32 -17 73 -17q63 0 159.5 51t164.5 121q76 78 78 143zM516 715q0 -32 -30 -32q-8 0 -17 3q-26 7 -112 81.5t-121 117.5q-10 14 -10 27q0 14 11.5 24t28.5 10q33 0 98 -76q73 -87 106 -103q2 1 8 1q15 1 26.5 -16.5
t11.5 -36.5z" />
    <glyph glyph-name="Uacute" unicode="&#xda;" horiz-adv-x="660" 
d="M682 661q0 -9 -2 -20q-37 -225 -125 -396q-131 -255 -326 -251q-76 1 -130 132q-49 117 -51 257q-1 66 -1 97q0 66 3 114q3 61 55 61q14 0 24 -4q22 -9 22 -47q0 -46 -6 -135q-6 -92 -6 -134q0 -89 36 -174t75 -85q85 0 169 105q70 88 121 223q46 123 47 203
q0 6 -1.5 23.5t-1.5 27.5q0 50 43 51q55 0 55 -48zM516 982q0 -16 -11 -30q-37 -48 -75 -96q-47 -62 -59 -96q2 -10 2 -11q0 -16 -18 -29.5t-37 -13.5q-29 0 -29 31q0 4 1 10q4 27 63 125q63 101 101 137q14 13 29 13q14 0 23.5 -11.5t9.5 -28.5z" />
    <glyph glyph-name="Ucircumflex" unicode="&#xdb;" horiz-adv-x="660" 
d="M682 661q0 -9 -2 -20q-37 -225 -125 -396q-131 -255 -326 -251q-76 1 -130 132q-49 117 -51 257q-1 66 -1 97q0 66 3 114q3 61 55 61q14 0 24 -4q22 -9 22 -47q0 -46 -6 -135q-6 -92 -6 -134q0 -89 36 -174t75 -85q85 0 169 105q70 88 121 223q46 123 47 203
q0 6 -1.5 23.5t-1.5 27.5q0 50 43 51q55 0 55 -48zM506 773q0 -35 -31 -35q-5 0 -11 1q-14 4 -30 38t-32 34q-8 0 -39.5 -25t-35.5 -35q-10 -30 -38 -30q-17 0 -29 19q-8 14 -8 26q0 17 16 29q39 32 77 65q56 45 82 45q16 0 27 -11.5t12 -26.5q4 -48 29 -66q11 -9 11 -28z
" />
    <glyph glyph-name="Ugrave" unicode="&#xd9;" horiz-adv-x="660" 
d="M682 661q0 -9 -2 -20q-37 -225 -125 -396q-131 -255 -326 -251q-76 1 -130 132q-49 117 -51 257q-1 66 -1 97q0 66 3 114q3 61 55 61q14 0 24 -4q22 -9 22 -47q0 -46 -6 -135q-6 -92 -6 -134q0 -89 36 -174t75 -85q85 0 169 105q70 88 121 223q46 123 47 203
q0 6 -1.5 23.5t-1.5 27.5q0 50 43 51q55 0 55 -48zM508 704q0 -32 -30 -32q-8 0 -17 3q-26 7 -112 81.5t-121 117.5q-10 14 -10 27q0 14 11.5 24t28.5 10q33 0 98 -76q73 -87 106 -103q2 1 8 1q15 1 26.5 -16.5t11.5 -36.5z" />
    <glyph glyph-name="circumflex" unicode="&#x2c6;" horiz-adv-x="360" 
d="M308 558q0 -35 -31 -35q-5 0 -11 1q-14 4 -30 38t-32 34q-8 0 -39.5 -25t-35.5 -35q-10 -30 -38 -30q-17 0 -29 19q-8 14 -8 26q0 17 16 29q39 32 77 65q56 45 82 45q16 0 27 -11.5t12 -26.5q4 -48 29 -66q11 -9 11 -28z" />
    <glyph glyph-name="tilde" unicode="&#x2dc;" horiz-adv-x="483" 
d="M454 615q0 -25 -17 -29q-23 -4 -36 -14q-15 -14 -31 -28q-52 -48 -97 -48q-31 0 -43 23l-12 46q-9 34 -21 34q-17 0 -48.5 -19.5t-46.5 -41.5q-20 -30 -43 -30q-30 0 -30 34q0 18 12 35q21 30 63 60q56 40 105 40q59 0 81 -96q0 -2 3 -2q4 0 52 39.5t68 39.5
q41 -1 41 -43z" />
    <glyph glyph-name="macron" unicode="&#xaf;" horiz-adv-x="360" 
d="M352 542q0 -15 -23 -24q-18 -7 -87.5 -13.5t-130.5 -6.5q-34 0 -55 2q-33 4 -33 28q0 15 13.5 28.5t30.5 13.5q15 -1 58 -3q36 -2 57 -2q73 0 92 14q7 5 18 5q20 0 40 -13.5t20 -28.5z" />
    <glyph glyph-name="macron" unicode="&#x2c9;" horiz-adv-x="360" 
d="M352 542q0 -15 -23 -24q-18 -7 -87.5 -13.5t-130.5 -6.5q-34 0 -55 2q-33 4 -33 28q0 15 13.5 28.5t30.5 13.5q15 -1 58 -3q36 -2 57 -2q73 0 92 14q7 5 18 5q20 0 40 -13.5t20 -28.5z" />
    <glyph glyph-name="cedilla" unicode="&#xb8;" horiz-adv-x="321" 
d="M272 -91q0 -15 -6 -32q-13 -37 -62 -84q-54 -52 -93 -52q-37 0 -37 38q0 37 37 37q14 0 24.5 7.5t21.5 16.5q45 34 45 58q0 11 -10 19q-33 26 -40 49l-12 60q-2 11 -2 20q0 34 44 34q25 0 32 -6.5t7 -17.5q0 -6 -2 -20.5t-2 -21.5q0 -17 9 -27q30 -34 32 -37
q14 -20 14 -41z" />
    <glyph glyph-name="Scaron" unicode="&#x160;" horiz-adv-x="819" 
d="M833 464q0 -24 -22 -38q-15 -9 -29.5 -10t-48.5 -15q7 -16 7 -36q0 -72 -81.5 -170.5t-193.5 -165.5q-123 -74 -223 -74q-80 0 -133 50q-73 71 -73 203q0 83 70 203t166 202q106 90 192 87q23 -1 37 -12.5t14 -26.5q0 -22 -27 -35q-148 -73 -227 -141q-110 -98 -138 -224
q-4 -22 -4 -49q0 -94 47 -141q33 -33 85 -33q68 0 163 56q71 42 128 95q108 100 108 149q0 26 -22 26q-21 0 -142 -51q-152 -64 -157 -64v0q-18 3 -32.5 17.5t-14.5 29.5q0 13 10 20q40 30 256 115q213 84 245 84q15 0 27.5 -16t12.5 -35z" />
    <glyph glyph-name="scaron" unicode="&#x161;" horiz-adv-x="404" 
d="M356 366q0 -51 -6 -158q-10 -155 -27 -293q-24 -187 -78 -286q-85 -151 -257 -151q-26 0 -50 13q-30 15 -30 38q0 42 54 42q16 0 48 -13q6 -3 11 -3q174 0 219 356q5 39 14 139q-58 -60 -123 -60q-55 0 -86 37q-28 34 -28 87q0 87 82 194q88 114 178 114q12 0 26 -6
q6 2 12 2q26 0 35 -15q6 -11 6 -37zM275 331q-4 1 -5 1q-57 0 -117 -83q-55 -77 -55 -130q0 -22 11 -37t29 -15q32 0 71 48q29 36 46 76q15 35 20 140z" />
    <glyph glyph-name="brokenbar" unicode="&#xa6;" horiz-adv-x="201" 
d="M151 706q0 -35 -11 -106t-11 -107q0 -24 3 -39q2 -1 6 -5q7 -8 7 -20q0 -20 -16 -39t-34 -19q-21 0 -33 28q-9 21 -9 116q0 148 17 211q8 30 34 30q18 0 32.5 -14.5t14.5 -35.5zM148 300v-6q-20 -171 -23 -215v-19q0 -16 9 -40q3 -8 3 -16q0 -18 -12 -30.5t-29 -12.5
q-25 0 -35 16q-13 20 -13 90q0 -15 10 167q3 65 4 70q9 44 42 45q19 0 31.5 -14t12.5 -35z" />
    <glyph glyph-name="Eth" unicode="&#xd0;" horiz-adv-x="663" 
d="M679 460q1 -117 -188 -265q-84 -67 -297 -195v-1q0 -20 -16 -33.5t-35 -13.5q-13 0 -22 8l-1 1h-2q-29 0 -29 47q0 9 8 41q-11 140 -11 236q-40 -13 -67 -13q-13 0 -27 8q-17 10 -17 26q0 17 21 38q7 7 44 14q25 5 49 9q4 82 14 226l-53 -19h-5q-19 0 -35 15.5t-16 33.5
q0 19 19 31q36 22 117 36q68 11 124 11q164 0 291 -68q133 -71 134 -173zM592 455q0 68 -106 120q-100 49 -212 49q-52 0 -78 -6q-15 -122 -22 -226q26 8 38 16q0 2 3 7q9 15 34 15q20 0 37 -10.5t17 -25.5t-17 -30q-19 -18 -117 -53q-2 -43 -2 -64q0 -76 13 -159
q137 76 244 158q168 129 168 209z" />
    <glyph glyph-name="eth" unicode="&#xf0;" horiz-adv-x="474" 
d="M512 614q0 -14 -17 -30q-11 -10 -69 -36q20 -50 20 -108q0 -46 -13 -91q62 -18 62 -62q0 -18 -12 -31.5t-28 -13.5q-23 0 -43 28q-1 2 -5 5q-46 -97 -121 -183q-35 -40 -90 -75q-65 -40 -112 -40q-33 0 -53 21q-25 26 -25 65q0 48 37 107q31 51 75 89q94 79 236 95
q13 39 13 88q0 48 -13 81q-89 -31 -127 -31q-35 0 -35 33q0 39 34 48q25 5 74 16q-33 23 -67 23q-68 0 -114 -39q-6 -5 -17 -5q-18 0 -35 11t-17 26q0 35 69 61q55 20 96 20q109 -1 171 -73q24 8 36 15q1 3 3 8q10 15 34 15q20 0 36.5 -10.5t16.5 -26.5zM320 269
q-96 -19 -164 -80q-26 -24 -47 -56q-24 -36 -24 -59q0 -22 17 -22q21 0 68 37q42 33 62 60q32 38 88 120z" />
    <glyph glyph-name="Yacute" unicode="&#xdd;" horiz-adv-x="798" 
d="M768 349q0 -16 -10.5 -28t-27.5 -12h-1l-282 14q-169 9 -283 9h-3q50 -67 167 -228q22 -32 22 -62q0 -20 -10.5 -33t-24.5 -13q-37 0 -47 63q-1 7 -99.5 138t-104.5 133q-18 10 -23 15q-9 9 -9 26q0 12 8 20.5t17 16.5q55 81 125 180q11 14 31.5 31t28.5 26q12 13 29 13
q16 0 28.5 -11.5t12.5 -26.5t-35 -46q-48 -42 -121 -163q93 -2 272 -8q281 -16 310.5 -20.5t29.5 -33.5z" />
    <glyph glyph-name="yacute" unicode="&#xfd;" horiz-adv-x="798" 
d="M767 369q0 -17 -15 -29q-2 -2 -18 -10q-6 -2 -104.5 -133t-99.5 -138q-10 -63 -47 -63q-14 0 -24.5 12.5t-10.5 33.5q0 29 23 62q54 72 167 228h-4q-103 0 -283 -10q-202 -12 -283 -13q-17 0 -27.5 12t-10.5 28q0 29 28.5 33.5t311.5 20.5q51 2 271 8q-37 60 -54 86
q-34 49 -66 77q-35 31 -35 46t12.5 26.5t28.5 11.5q17 0 29 -13q21 -16 61 -57q56 -85 130 -183q20 -15 20 -36z" />
    <glyph glyph-name="Thorn" unicode="&#xde;" horiz-adv-x="1398" 
d="M1369 355q0 -24 -38 -36q-42 -13 -117 -13q-51 0 -98 5q-150 16 -259 17q-104 1 -264 6q20 -77 20 -148q0 -58 -8 -110t-18 -57q-13 -6 -24 -6q-26 0 -52 41q-35 55 -211 163q-135 79 -269 157q-1 2 -1 6q0 35 10 40q208 93 416 190q4 10 16 21q16 15 33 15q16 0 31 -15
q27 -25 27 -40q0 -10 -7 -18l-7 -8q0 -11 28 -155q46 2 89 2q59 0 249 -7q61 -2 122 -8q69 -8 102 -10q53 -3 122 -3h17q8 0 21.5 5.5t22.5 5.5q22 0 34.5 -12t12.5 -28zM531 176q0 63 -9 103q-28 131 -49 254l-329 -143q48 -25 170 -101q114 -78 217 -151v38z" />
    <glyph glyph-name="thorn" unicode="&#xfe;" horiz-adv-x="1398" 
d="M1368 380v-6q-72 -42 -144 -83q-163 -100 -328 -225q-8 -13 -22 -32q-17 -20 -39 -20q-11 0 -22.5 5t-19.5 57t-8 110q0 71 21 148q-131 -3 -262 -7q-153 -4 -261 -16q-49 -5 -97 -5q-95 0 -138 21q-18 9 -18 28q0 16 13 28t33 12q10 0 23 -5.5t22 -5.5h14q70 0 124 3
q57 8 225 18q166 6 237 6q48 0 100 -1q28 145 28 157v1q-15 10 -15 25q0 18 20 34t43 16q33 0 45 -33q187 -85 416 -190q10 -5 10 -40zM1255 390l-330 143q-20 -92 -53 -277q-5 -33 -5 -80q0 -17 1 -38q102 73 216 151q24 17 171 101z" />
    <glyph glyph-name="minus" unicode="&#x2212;" horiz-adv-x="504" 
d="M466 273q0 -11 -9 -21t-18 -12q-15 -4 -35 -4h-11h-11h-7q-105 0 -205.5 -16t-106.5 -16q-42 0 -42 31q0 55 178 65q103 6 171 6q67 0 77 -6q19 -11 19 -27z" />
    <glyph glyph-name="multiply" unicode="&#xd7;" horiz-adv-x="486" 
d="M387 21q0 -14 -16 -22t-31 -8q-46 0 -57 50q-1 6 -57 91l-49 -69q-5 -7 -19 -22q1 -3 1 -8q0 -51 -57 -51q-43 1 -43 38q0 24 20 34q5 3 105 144q-39 59 -89 134q-11 16 -11 28q0 28 42 28q24 0 59 -48q5 -7 47 -74q82 114 97 117q8 2 16 2q37 0 37 -30v-5q-1 -9 -46 -70
q-38 -53 -61 -81q37 -60 80 -128q32 -39 32 -50z" />
    <glyph glyph-name="onesuperior" unicode="&#xb9;" horiz-adv-x="300" 
d="M256 645q0 -12 -7 -61q-11 -72 -21 -144q-16 -109 -16 -140q0 -6 1 -9q5 -12 5 -24q0 -42 -37 -42q-7 0 -15 3q-36 11 -36 39q0 10 5 22q1 22 21 175q4 27 11 73q-86 -84 -96 -85h-4q-29 0 -29 40q0 15 5 21q10 13 83.5 87t78.5 76q12 5 21 5q28 0 30 -36z" />
    <glyph glyph-name="twosuperior" unicode="&#xb2;" horiz-adv-x="300" 
d="M341 321q0 -16 -11.5 -28.5t-30.5 -12.5q-6 0 -15.5 3.5t-11.5 3.5q-9 0 -52 -10q-49 -11 -77 -21q-84 -31 -103 -31q-15 0 -25.5 12t-10.5 28q0 6 2 12q3 10 33 45q167 195 167 256q0 30 -50 30q-25 0 -49 -11.5t-34 -29.5q-13 -24 -37 -24q-15 0 -26 10t-11 25
q0 17 14 35q23 31 63.5 50t83.5 19q59 0 95 -37q26 -27 26 -63q0 -61 -83 -170q-20 -30 -55 -77q27 8 132 26q9 2 17 2q49 0 49 -42z" />
    <glyph glyph-name="threesuperior" unicode="&#xb3;" horiz-adv-x="300" 
d="M301 423q-1 -132 -176 -221q-11 -5 -24 -5q-22 0 -40.5 17t-18.5 34q0 20 28 20q10 0 22 -3q132 75 131 155q0 47 -129 60q-18 2 -33 14t-15 29q0 5 2 10q3 11 80 75q-53 -4 -69 -4h-1q-13 0 -27.5 13.5t-14.5 29.5q0 20 29 33h14q19 0 58 3.5t58 3.5q63 0 74 -16
q5 -6 5 -15q0 -38 -92 -113q139 -26 139 -120z" />
    <glyph glyph-name="onehalf" unicode="&#xbd;" horiz-adv-x="786" 
d="M748 47q0 -16 -11 -28.5t-30 -12.5q-6 0 -15.5 3t-11.5 4q-9 0 -52 -10q-49 -11 -77 -21q-84 -31 -103 -31q-16 0 -26 12t-10 28q0 6 1 12q3 10 34 45q167 194 167 256q0 30 -50 30q-25 0 -49 -11.5t-34 -29.5q-13 -24 -37 -24q-15 0 -26 10t-11 25q0 17 14 35
q23 30 63.5 49t83.5 19q59 0 95 -37q26 -26 26 -63q0 -60 -83 -170q-21 -29 -55 -76q26 8 132 26q9 1 17 1q48 0 48 -41zM587 660q0 -20 -16 -27q-27 -13 -38.5 -24t-24.5 -39q-236 -476 -236 -550q-1 -24 -15.5 -37.5t-32.5 -13.5q-19 0 -28 13q-11 21 -11 34q0 16 12 30
q0 1 13 33q128 322 218 508q57 118 114 118q20 0 32.5 -14t12.5 -31zM256 645q0 -12 -7 -61q-11 -72 -21 -144q-16 -109 -16 -140q0 -6 1 -9q5 -12 5 -24q0 -42 -37 -42q-7 0 -15 3q-36 11 -36 39q0 10 5 22q1 22 21 175q4 27 11 73q-86 -84 -96 -85h-4q-29 0 -29 40
q0 15 5 21q10 13 83.5 87t78.5 76q12 5 21 5q28 0 30 -36z" />
    <glyph glyph-name="onequarter" unicode="&#xbc;" horiz-adv-x="786" 
d="M743 210q0 -32 -30 -32q-8 0 -24.5 1.5t-25.5 1.5t-19 -1q-9 -55 -21 -165q7 -18 7 -32q0 -42 -41 -42q-20 0 -35.5 14t-15.5 38q0 11 4 23q1 5 23 155q-144 -22 -153 -22q-10 0 -14 2q-29 10 -29 38q0 12 11 22.5t36 34.5q53 55 81 119q31 68 44 83q10 12 23 12
q16 0 29 -15t13 -34q0 -12 -7 -23q-27 -53 -94 -151q45 7 71 10q8 60 17 116q12 47 43 47q36 0 36 -54q0 -14 -4 -31q-7 -30 -14 -78q89 -5 89 -37zM587 660q0 -20 -16 -27q-27 -13 -38.5 -24t-24.5 -39q-236 -476 -236 -550q-1 -24 -15.5 -37.5t-32.5 -13.5q-19 0 -28 13
q-11 21 -11 34q0 16 12 30q0 1 13 33q128 322 218 508q57 118 114 118q20 0 32.5 -14t12.5 -31zM256 645q0 -12 -7 -61q-11 -72 -21 -144q-16 -109 -16 -140q0 -6 1 -9q5 -12 5 -24q0 -42 -37 -42q-7 0 -15 3q-36 11 -36 39q0 10 5 22q1 22 21 175q4 27 11 73
q-86 -84 -96 -85h-4q-29 0 -29 40q0 15 5 21q10 13 83.5 87t78.5 76q12 5 21 5q28 0 30 -36z" />
    <glyph glyph-name="threequarters" unicode="&#xbe;" horiz-adv-x="786" 
d="M743 210q0 -32 -30 -32q-8 0 -24.5 1.5t-25.5 1.5t-19 -1q-9 -55 -21 -165q7 -18 7 -32q0 -42 -41 -42q-20 0 -35.5 14t-15.5 38q0 11 4 23q1 5 23 155q-144 -22 -153 -22q-10 0 -14 2q-29 10 -29 38q0 12 11 22.5t36 34.5q53 55 81 119q31 68 44 83q10 12 23 12
q16 0 29 -15t13 -34q0 -12 -7 -23q-27 -53 -94 -151q45 7 71 10q8 60 17 116q12 47 43 47q36 0 36 -54q0 -14 -4 -31q-7 -30 -14 -78q89 -5 89 -37zM587 660q0 -20 -16 -27q-27 -13 -38.5 -24t-24.5 -39q-236 -476 -236 -550q-1 -24 -15.5 -37.5t-32.5 -13.5q-19 0 -28 13
q-11 21 -11 34q0 16 12 30q0 1 13 33q128 322 218 508q57 118 114 118q20 0 32.5 -14t12.5 -31zM301 423q-1 -132 -176 -221q-11 -5 -24 -5q-22 0 -40.5 17t-18.5 34q0 20 28 20q10 0 22 -3q132 75 131 155q0 47 -129 60q-18 2 -33 14t-15 29q0 5 2 10q3 11 80 75
q-53 -4 -69 -4h-1q-13 0 -27.5 13.5t-14.5 29.5q0 20 29 33h14q19 0 58 3.5t58 3.5q63 0 74 -16q5 -6 5 -15q0 -38 -92 -113q139 -26 139 -120z" />
    <glyph glyph-name="Euro" unicode="&#x20ac;" horiz-adv-x="715" 
d="M663 149q0 -30 -31 -51q-193 -126 -335 -126q-80 0 -130 37q-64 48 -76 124l-6 -4q-19 -15 -32 -15q-18 0 -31.5 14t-13.5 32q0 38 88 65q5 19 12 39q-14 -8 -28 -15q-18 -8 -30 -8q-15 0 -27 13t-12 27q0 10 6 20q14 25 141 59q64 95 155 172q127 109 201 109
q23 0 47 -14q28 -17 28 -39q0 -21 -19.5 -34.5t-38.5 -13.5q-7 0 -20.5 4.5t-20.5 4.5q-19 0 -76 -41q-42 -30 -67 -53q-34 -31 -65 -67q92 19 150 19q15 0 27.5 -11.5t12.5 -27.5q0 -18 -11.5 -31t-30.5 -13q-4 0 -12 1t-12 1q-69 0 -191 -31q-17 -26 -25 -45
q107 23 137 23q48 0 48 -40q0 -20 -13.5 -32t-32.5 -12q-4 0 -12.5 1.5t-12.5 1.5q-48 0 -135 -24v-8q0 -54 42 -85q39 -28 99 -28q59 0 137 32q73 30 122 70q1 1 24 29q14 18 30 18q19 0 31 -17q9 -14 9 -30z" />
    <glyph glyph-name="Lslash" unicode="&#x141;" horiz-adv-x="582" 
d="M614 210q0 -12 -18 -20q-55 -15 -206 -64q-187 -66 -252 -110q-41 -28 -58 -28q-14 0 -30 10q-22 15 -22 36q0 11 8.5 30.5t8.5 27.5q5 76 13 175q-16 -8 -39 -16q-4 -1 -10 -1q-41 0 -41 30q0 15 13 35q5 10 30 20t55 25q13 140 22 190q2 49 5 99q8 64 52 64
q39 0 39 -92q0 -67 -16 -121q-8 -27 -17 -93q19 13 25 19q0 3 1 9q8 24 46 24q45 0 45 -31q0 -13 -10 -28q-16 -23 -117 -87q-2 -24 -2 -40q0 -8 1.5 -24t1.5 -24q0 -19 -3 -54q-4 -39 -4 -54q310 123 427 123q19 0 30 -4q22 -8 22 -26z" />
    <glyph glyph-name="lslash" unicode="&#x142;" horiz-adv-x="228" 
d="M275 427q0 -12 -10 -27q-15 -23 -101 -82q-14 -126 -14 -221q0 -14 1.5 -42t1.5 -42q0 -28 -11.5 -51t-31.5 -23q-15 0 -32 14q-11 9 -11 75q0 79 15 242q-30 -16 -40.5 -19.5t-17.5 -3.5q-30 0 -30 36q0 31 22 44q4 2 16 7.5t59 28.5l12 122q4 57 11 152q6 66 16 76
q13 15 33 15q19 0 33 -19q10 -12 10 -37q0 -16 -4 -45q-9 -70 -27 -212q11 9 12 11.5t2 7.5q8 25 43 25q43 0 43 -32z" />
    <glyph glyph-name="Zcaron" unicode="&#x17d;" horiz-adv-x="699" 
d="M806 71q0 -34 -38 -34q-9 0 -21 5q-18 6 -20 7q-14 4 -100 4q-142 0 -274 -16q-73 -9 -169 -27.5t-121 -29.5q-19 -9 -37 -9q-24 0 -39 14.5t-15 33.5q0 13 9 24q70 108 243 348q69 89 163 193q-192 -27 -231 -61q-32 -29 -53 -29q-19 0 -36 21q-6 8 -6 18q0 34 73 78
q23 14 178 47q159 33 210 33q12 0 16 -2q23 -15 23 -42q0 -9 -3 -16.5t-24 -24.5q-211 -171 -428 -527q162 26 242 34q133 12 268 12q149 0 165 -14q25 -17 25 -40zM567 876q0 -20 -24 -37q-17 -12 -56 -51q-35 -34 -59 -47q-5 -10 -27 -10q-40 0 -43 38q-4 53 -47 85
q-11 9 -11 27q0 37 31 37q21 0 43.5 -46t43.5 -46q6 0 40 28t36 36q10 27 32 27q15 0 28 -12.5t13 -28.5z" />
    <glyph glyph-name="zcaron" unicode="&#x17e;" horiz-adv-x="477" 
d="M572 111q0 -24 -43 -24h-6h-6q-7 0 -13 -0.5t-196 -44.5q-176 -40 -235 -40q-20 0 -57 23q-12 7 -12 18q0 23 45.5 54.5t129.5 112.5q87 85 87 101q0 3 -18 3q-38 0 -79 -9q-19 -6 -37 -12q-27 -8 -43 -8t-28 9t-12 24q0 25 55 45q37 13 73 17q23 3 48 3q48 0 90 -9
t45 -17.5t3 -18.5q0 -48 -86 -139q-22 -23 -119 -112q70 8 212 34q39 9 77 18q64 15 84 15q5 0 8 -1q33 -14 33 -42zM462 637q0 -20 -24 -37q-17 -12 -56 -51q-35 -34 -59 -47q-5 -10 -27 -10q-40 0 -43 38q-4 53 -47 85q-11 9 -11 27q0 37 31 37q21 0 43.5 -46t43.5 -46
q6 0 40 28t36 36q10 27 32 27q15 0 28 -12.5t13 -28.5z" />
    <glyph glyph-name="notequal" unicode="&#x2260;" horiz-adv-x="651" 
d="M648 198q0 -40 -36 -40q-8 0 -16 3q-29 10 -97 10q-56 0 -266 -20q-67 -100 -69 -131h2q23 0 23 -24q0 -21 -19 -38q-22 -21 -57 -21q-47 0 -47 44q0 49 60 158q-53 -8 -73 -8q-54 0 -62 29q-2 9 -2 17q0 25 20 39q16 11 35 11q47 0 137 6q17 26 37 54q-101 -12 -151 -12
q-29 0 -39 5q-16 9 -16 35q0 34 26 39q6 1 13 1q6 0 17 -1h18q23 0 194 17q80 107 136 164q30 30 46 30t33 -16t17 -32q0 -22 -38 -55q-17 -15 -74 -82q84 4 100 4q11 0 34 -2t34 -2h8q5 1 7 1q17 0 35 -20q14 -14 14 -30q0 -19 -18 -32t-42 -13q-19 0 -33.5 8t-27.5 9
q-46 2 -77 2q-44 0 -98 -4q-7 -9 -45 -62q126 3 276 9q8 1 15 1q32 0 51 -16q15 -15 15 -35z" />
    <glyph glyph-name="infinity" unicode="&#x221e;" horiz-adv-x="672" 
d="M752 438q0 -18 -12.5 -30.5t-31.5 -12.5q-9 0 -20 3h-3q-31 0 -179 -19q-17 -210 -17 -260q0 -27 5.5 -31.5t13.5 -7.5q14 -8 14 -20q0 -6 -4 -13q-20 -40 -23 -44q-17 -25 -36 -25q-13 0 -28 11q-19 13 -19 175q0 98 6 203q-94 -15 -198 -38q-22 -170 -22 -260
q0 -11 2.5 -33t2.5 -33q0 -39 -35 -39q-21 0 -37 17q-19 18 -19 46q0 68 22 281q-62 -17 -91 -31q-4 -2 -9 -2q-13 0 -25.5 13t-12.5 30q0 11 7 22q16 22 140 52q31 257 45 280q11 19 29 19q20 0 39 -21q12 -13 12 -28q0 -35 -15 -116q-21 -112 -22 -116q73 13 192 30
q8 106 12 134q15 107 48 105q49 -1 49 -51q0 -32 -9 -88q-10 -66 -12 -88q71 10 212 21q29 0 29 -35z" />
    <glyph glyph-name="lessequal" unicode="&#x2264;" horiz-adv-x="354" 
d="M37 90q-1 49 33 173q39 148 82 163q19 7 36 7q83 0 112 -161q14 -74 16 -223q0 -45 -37 -45q-18 0 -33 14t-15 35q1 40 1 44q0 71 -6 136q-11 111 -35 111q-6 0 -13 -7q-24 -25 -38 -117q-11 -68 -13 -134q-1 -49 -40 -49q-19 0 -34.5 15t-15.5 38zM351 541
q0 -24 -15 -43t-38 -19q-12 0 -25 6q-38 18 -38 53q0 22 16.5 40.5t38.5 18.5q13 0 31 -7q30 -13 30 -49zM165 559q0 -58 -38 -67q-7 -1 -14 -1q-26 0 -45 20t-19 45q0 21 17 36t39 15t41 -13.5t19 -34.5z" />
    <glyph glyph-name="greaterequal" unicode="&#x2265;" horiz-adv-x="354" 
d="M320 346q1 -49 -33 -174q-39 -147 -82 -162q-19 -7 -36 -7q-83 0 -112 161q-14 74 -16 223q0 45 37 45q18 0 33 -14t15 -35q-1 -40 -1 -45q0 -70 6 -135q11 -111 36 -111q5 0 12 7q24 25 38 117q11 68 13 134q1 49 40 49q19 0 34.5 -15t15.5 -38zM351 541q0 -24 -15 -43
t-38 -19q-12 0 -25 6q-38 18 -38 53q0 22 16.5 40.5t38.5 18.5q13 0 31 -7q30 -13 30 -49zM165 559q0 -58 -38 -67q-7 -1 -14 -1q-26 0 -45 20t-19 45q0 21 17 36t39 15t41 -13.5t19 -34.5z" />
    <glyph glyph-name="partialdiff" unicode="&#x2202;" horiz-adv-x="474" 
d="M498 287q0 -18 -11.5 -31.5t-28.5 -13.5q-24 0 -44 28q-1 2 -5 5q-47 -97 -124 -183q-36 -41 -88 -75q-64 -41 -110 -41q-34 0 -55 22q-26 27 -26 67q0 48 36 106q32 51 76 88q96 80 237 95q13 39 13 88q0 18 -2 37q-7 62 -49 99q-39 34 -92 34q-58 0 -104 -39
q-7 -5 -18 -5q-18 0 -35.5 11t-17.5 26q0 36 68 61q54 20 95 20q109 -1 172 -73q61 -68 61 -177q0 -43 -11 -87q63 -18 63 -62zM321 269q-96 -19 -164 -80q-26 -24 -47 -56q-24 -36 -24 -59q0 -22 17 -22q21 0 68 37q42 33 62 60q32 38 88 120z" />
    <glyph glyph-name="summation" unicode="&#x2211;" horiz-adv-x="1398" 
d="M1369 355q0 -24 -38 -36q-42 -13 -117 -13q-51 0 -98 5q-150 16 -259 17q-104 1 -264 6q20 -77 20 -148q0 -58 -8 -110t-18 -57q-13 -6 -24 -6q-26 0 -52 41q-35 55 -211 163q-135 79 -269 157q-1 2 -1 6q0 35 10 40q208 93 416 190q4 10 16 21q16 15 33 15q16 0 31 -15
q27 -25 27 -40q0 -10 -7 -18l-7 -8q0 -11 28 -155q46 2 89 2q59 0 249 -7q61 -2 122 -8q69 -8 102 -10q53 -3 122 -3h17q8 0 21.5 5.5t22.5 5.5q22 0 34.5 -12t12.5 -28zM531 176q0 63 -9 103q-28 131 -49 254l-329 -143q48 -25 170 -101q114 -78 217 -151v38z" />
    <glyph glyph-name="product" unicode="&#x220f;" horiz-adv-x="798" 
d="M767 369q0 -17 -15 -29q-2 -2 -18 -10q-6 -2 -104.5 -133t-99.5 -138q-10 -63 -47 -63q-14 0 -24.5 12.5t-10.5 33.5q0 29 23 62q54 72 167 228h-4q-103 0 -283 -10q-202 -12 -283 -13q-17 0 -27.5 12t-10.5 28q0 29 28.5 33.5t311.5 20.5q51 2 271 8q-37 60 -54 86
q-34 49 -66 77q-35 31 -35 46t12.5 26.5t28.5 11.5q17 0 29 -13q21 -16 61 -57q56 -85 130 -183q20 -15 20 -36z" />
    <glyph glyph-name="pi" unicode="&#x3c0;" horiz-adv-x="798" 
d="M768 349q0 -16 -10.5 -28t-27.5 -12h-1l-282 14q-169 9 -283 9h-3q50 -67 167 -228q22 -32 22 -62q0 -20 -10.5 -33t-24.5 -13q-37 0 -47 63q-1 7 -99.5 138t-104.5 133q-18 10 -23 15q-9 9 -9 26q0 12 8 20.5t17 16.5q55 81 125 180q11 14 31.5 31t28.5 26q12 13 29 13
q16 0 28.5 -11.5t12.5 -26.5t-35 -46q-48 -42 -121 -163q93 -2 272 -8q281 -16 310.5 -20.5t29.5 -33.5z" />
    <glyph glyph-name="integral" unicode="&#x222b;" horiz-adv-x="1398" 
d="M1368 380v-6q-72 -42 -144 -83q-163 -100 -328 -225q-8 -13 -22 -32q-17 -20 -39 -20q-11 0 -22.5 5t-19.5 57t-8 110q0 71 21 148q-131 -3 -262 -7q-153 -4 -261 -16q-49 -5 -97 -5q-95 0 -138 21q-18 9 -18 28q0 16 13 28t33 12q10 0 23 -5.5t22 -5.5h14q70 0 124 3
q57 8 225 18q166 6 237 6q48 0 100 -1q28 145 28 157v1q-15 10 -15 25q0 18 20 34t43 16q33 0 45 -33q187 -85 416 -190q10 -5 10 -40zM1255 390l-330 143q-20 -92 -53 -277q-5 -33 -5 -80q0 -17 1 -38q102 73 216 151q24 17 171 101z" />
    <glyph glyph-name="Omega" unicode="&#x3a9;" horiz-adv-x="1443" 
d="M1430 325q0 -21 -18.5 -26t-76.5 -5q-29 0 -114 2t-133 2q-124 0 -190 -12q-36 -6 -180 -68q-131 -56 -186 -56q-33 0 -51.5 19.5t-18.5 51.5q0 18 7 47t7 35q0 12 -15 12q-51 0 -189 -67q-144 -70 -183 -121q-11 -14 -24 -14q-15 0 -31.5 17.5t-16.5 32.5
q0 50 184.5 148t287.5 98q36 0 57.5 -20.5t21.5 -52.5q0 -19 -8 -48t-8 -35q0 -9 5 -9q12 0 139 51q134 55 180 62t150 7q117 0 254 -8q131 -8 139 -14q11 -10 11 -29z" />
    <glyph glyph-name="Omega" unicode="&#x2126;" horiz-adv-x="1443" 
d="M1430 325q0 -21 -18.5 -26t-76.5 -5q-29 0 -114 2t-133 2q-124 0 -190 -12q-36 -6 -180 -68q-131 -56 -186 -56q-33 0 -51.5 19.5t-18.5 51.5q0 18 7 47t7 35q0 12 -15 12q-51 0 -189 -67q-144 -70 -183 -121q-11 -14 -24 -14q-15 0 -31.5 17.5t-16.5 32.5
q0 50 184.5 148t287.5 98q36 0 57.5 -20.5t21.5 -52.5q0 -19 -8 -48t-8 -35q0 -9 5 -9q12 0 139 51q134 55 180 62t150 7q117 0 254 -8q131 -8 139 -14q11 -10 11 -29z" />
    <glyph glyph-name="radical" unicode="&#x221a;" horiz-adv-x="819" 
d="M833 464q0 -24 -22 -38q-15 -9 -29.5 -10t-48.5 -15q7 -16 7 -36q0 -72 -81.5 -170.5t-193.5 -165.5q-123 -74 -223 -74q-80 0 -133 50q-73 71 -73 203q0 83 70 203t166 202q106 90 192 87q23 -1 37 -12.5t14 -26.5q0 -22 -27 -35q-148 -73 -227 -141q-110 -98 -138 -224
q-4 -22 -4 -49q0 -94 47 -141q33 -33 85 -33q68 0 163 56q71 42 128 95q108 100 108 149q0 26 -22 26q-21 0 -142 -51q-152 -64 -157 -64v0q-18 3 -32.5 17.5t-14.5 29.5q0 13 10 20q40 30 256 115q213 84 245 84q15 0 27.5 -16t12.5 -35z" />
    <glyph glyph-name="approxequal" unicode="&#x2248;" horiz-adv-x="543" 
d="M474 327q0 -16 -16 -31q-32 -30 -82 -56q-56 -31 -90 -31q-53 0 -76 65q-9 34 -19 68q-3 1 -6 1q-21 0 -62 -52q-26 -34 -51 -69q-10 -11 -33 -11q-35 0 -35 30q0 12 7 30q19 45 78.5 95.5t104.5 51.5q36 0 56 -34q12 -20 22 -62q7 -34 13 -34q40 0 88.5 41t56.5 42
q13 0 28.5 -13.5t15.5 -30.5zM534 194q0 -31 -28 -36q-19 -3 -68 -37q-67 -47 -93 -61q-57 -32 -101 -32q-42 0 -57 36q-8 20 -10 67q-2 36 -10 36q-12 0 -38 -29t-28 -42q-3 -27 -32 -27q-16 0 -29.5 10.5t-13.5 27.5q0 6 2 12q9 30 51 72q52 50 100 50q44 0 61 -43
q6 -17 14 -80q0 -6 9 -6q25 0 102 45q74 42 91 62q20 24 40 24q15 0 26.5 -15t11.5 -34z" />
    <glyph glyph-name="approxequal" unicode="&#x22f2;" horiz-adv-x="543" 
d="M474 327q0 -16 -16 -31q-32 -30 -82 -56q-56 -31 -90 -31q-53 0 -76 65q-9 34 -19 68q-3 1 -6 1q-21 0 -62 -52q-26 -34 -51 -69q-10 -11 -33 -11q-35 0 -35 30q0 12 7 30q19 45 78.5 95.5t104.5 51.5q36 0 56 -34q12 -20 22 -62q7 -34 13 -34q40 0 88.5 41t56.5 42
q13 0 28.5 -13.5t15.5 -30.5zM534 194q0 -31 -28 -36q-19 -3 -68 -37q-67 -47 -93 -61q-57 -32 -101 -32q-42 0 -57 36q-8 20 -10 67q-2 36 -10 36q-12 0 -38 -29t-28 -42q-3 -27 -32 -27q-16 0 -29.5 10.5t-13.5 27.5q0 6 2 12q9 30 51 72q52 50 100 50q44 0 61 -43
q6 -17 14 -80q0 -6 9 -6q25 0 102 45q74 42 91 62q20 24 40 24q15 0 26.5 -15t11.5 -34z" />
    <glyph glyph-name="Delta" unicode="&#x394;" 
d="M353 233q0 -99 -77 -172q-69 -65 -144 -65q-24 0 -42 10q-30 15 -52 55q-23 44 -23 94q0 42 17 81q80 179 175 179q43 0 83 -32q50 -41 61 -116q2 -17 2 -34zM277 244q0 27 -11 51q-15 33 -39 39q-85 -22 -128 -146q-4 -14 -4 -32q0 -27 10 -51q14 -30 37 -30
q26 0 61 25.5t48 52.5q26 52 26 91zM386 541q0 -24 -15 -43t-38 -19q-12 0 -25 6q-38 18 -38 53q0 22 16.5 40.5t38.5 18.5q13 0 31 -7q30 -13 30 -49zM200 559q0 -58 -38 -67q-7 -1 -14 -1q-26 0 -45 20t-19 45q0 21 17 36t39 15t41 -13.5t19 -34.5z" />
    <glyph glyph-name="Delta" unicode="&#x2206;" 
d="M353 233q0 -99 -77 -172q-69 -65 -144 -65q-24 0 -42 10q-30 15 -52 55q-23 44 -23 94q0 42 17 81q80 179 175 179q43 0 83 -32q50 -41 61 -116q2 -17 2 -34zM277 244q0 27 -11 51q-15 33 -39 39q-85 -22 -128 -146q-4 -14 -4 -32q0 -27 10 -51q14 -30 37 -30
q26 0 61 25.5t48 52.5q26 52 26 91zM386 541q0 -24 -15 -43t-38 -19q-12 0 -25 6q-38 18 -38 53q0 22 16.5 40.5t38.5 18.5q13 0 31 -7q30 -13 30 -49zM200 559q0 -58 -38 -67q-7 -1 -14 -1q-26 0 -45 20t-19 45q0 21 17 36t39 15t41 -13.5t19 -34.5z" />
    <glyph glyph-name="lozenge" unicode="&#x25ca;" horiz-adv-x="258" 
d="M176 369v-5q-10 -98 -22 -233v-13q0 -18 10 -51q2 -7 2 -15q0 -19 -13 -33.5t-30 -14.5q-16 0 -28 13q-16 17 -16 84l9 198q2 66 3 72q8 50 39 51q19 0 32.5 -16t13.5 -37zM303 541q0 -24 -15 -43t-38 -19q-12 0 -25 6q-38 18 -38 53q0 22 16.5 40.5t38.5 18.5
q13 0 31 -7q30 -13 30 -49zM117 559q0 -58 -38 -67q-7 -1 -14 -1q-26 0 -45 20t-19 45q0 21 17 36t39 15t41 -13.5t19 -34.5z" />
    <glyph glyph-name="fraction" unicode="&#x2215;" horiz-adv-x="234" 
d="M309 659q0 -20 -14 -27q-5 -2 -14 -7q-27 -13 -47 -56q-223 -488 -224 -549q0 -24 -13.5 -38t-30.5 -14q-18 0 -26 13q-10 21 -10 35q0 15 11 29q0 1 12 34q89 240 209 507q44 98 91 116q8 3 16 3q18 0 29 -14.5t11 -31.5z" />
    <glyph glyph-name="fi" unicode="&#xfb01;" horiz-adv-x="540" 
d="M469 689q0 -13 -10 -35q-8 -17 -17 -35q-2 -5 -8 -36q-5 -23 -13 -30q-17 -14 -31 -14q-31 0 -31 52q0 15 4 29q-7 4 -24 10.5t-33 6.5q-93 0 -93 -230q0 5 3 -105q78 20 157 44q3 22 15 55q11 17 31 17q18 0 33 -14.5t15 -36.5q0 -4 -1 -8q-20 -165 -24 -236v-18
q0 -19 10 -47q3 -8 3 -17q0 -19 -12.5 -32.5t-30.5 -13.5q-17 0 -33 13q-20 15 -20 111q0 18 7 148q-2 0 -149 -41q2 -150 2 -155q0 -162 -21 -277q-14 -71 -14 -73q0 -1 1 -1q1 -5 1 -10q0 -18 -13.5 -33t-35.5 -15q-12 0 -26 5q-27 10 -27 42q0 21 11 36q5 5 19 81
q16 88 20 151q4 52 4 114q0 43 -2 109q-16 -7 -30 -28t-36 -21q-18 0 -32.5 14.5t-14.5 33.5q0 17 15 32q29 29 94 50v5v30.5v33.5q0 156 26 237q41 127 150 127q50 0 83 -19q11 37 39 37q16 0 27.5 -12.5t11.5 -30.5z" />
    <glyph glyph-name="fl" unicode="&#xfb02;" horiz-adv-x="507" 
d="M510 677q0 -18 -6 -51q-40 -200 -54 -283q-25 -162 -25 -286q0 1 1 -49q0 -76 -40 -76q-15 0 -35 14q-10 7 -10 71q0 94 19 247q-23 -4 -139 -38q2 -151 2 -155q0 -162 -22 -277q-13 -72 -13 -73v-1q2 -5 2 -12q0 -18 -13.5 -32t-36.5 -14q-12 0 -26 5q-27 10 -27 42
q0 21 12 36q4 5 18 81q17 88 21 151q3 50 3 112q0 40 -2 111q-15 -7 -29.5 -27.5t-36.5 -20.5q-19 0 -34 14.5t-15 32.5q0 46 112 82v31v31q0 191 88 296q73 87 172 87q22 0 42 -5q12 10 26 10q20 0 37 -21q9 -12 9 -33zM413 647q-115 -8 -161 -102q-33 -70 -33 -199v-43
q60 17 152 44q25 194 42 300z" />
    <glyph glyph-name="apple" horiz-adv-x="594" 
d="M565 378q-1 -140 -86 -229q-78 -82 -214 -108q-21 -4 -37 -4q-51 0 -51 33q0 19 16 36t36 17q10 0 18 -5h5q101 0 168 87q60 81 60 185q0 93 -43 142q-39 44 -102 44q-96 0 -164 -81q-65 -77 -65 -174q0 -95 52 -95q37 0 76.5 44.5t42.5 93.5q1 7 1 12q0 22 -12 22
q-31 0 -46 -32q-17 -36 -29 -40q-6 -2 -11 -2q-24 0 -24 34q0 38 29 70q34 39 89 39q79 0 79 -92q0 -98 -67 -164q-60 -59 -136 -59q-64 0 -97 46q-30 40 -30 107q0 153 104 256q95 94 216 94q96 0 156 -66q67 -74 66 -211z" />
    <glyph glyph-name="dotlessi" unicode="&#x131;" horiz-adv-x="249" 
d="M176 369v-5q-10 -98 -22 -233v-13q0 -18 10 -51q2 -7 2 -15q0 -19 -13 -33.5t-30 -14.5q-16 0 -28 13q-16 17 -16 84l9 198q2 66 3 72q8 50 39 51q19 0 32.5 -16t13.5 -37z" />
    <glyph glyph-name="breve" unicode="&#x2d8;" horiz-adv-x="360" 
d="M286 599q0 -44 -31 -82q-26 -33 -62 -33q-64 0 -112 111q-3 8 -3 18q0 18 15.5 32t33.5 14q20 0 30 -30q13 -42 16 -46q20 -26 34 -26q13 0 25 23q20 35 20 36q7 8 14 8q9 0 16 -9q4 -5 4 -16z" />
    <glyph glyph-name="dotaccent" unicode="&#x2d9;" horiz-adv-x="183" 
d="M157 687q0 -11 -8 -30.5t-16.5 -38.5t-10.5 -41q-3 -35 -37 -35q-31 0 -31 41q0 29 29 102q15 37 40 37q14 0 24 -11t10 -24z" />
    <glyph glyph-name="ring" unicode="&#x2da;" horiz-adv-x="360" 
d="M298 627q0 -38 -36 -78q-57 -64 -107 -64q-14 0 -29 4q-39 11 -39 66q0 34 15.5 69t38.5 51q28 20 64 20q44 0 74 -24q19 -15 19 -44zM230 612v1q-5 6 -17 6q-24 0 -40 -14q-4 -2 -12 -17t-8 -23q0 -5 5 -5q12 0 42 22t30 30z" />
    <glyph glyph-name="hungarumlaut" unicode="&#x2dd;" horiz-adv-x="468" 
d="M430 694q0 -16 -10 -30q-38 -47 -77 -94q-51 -63 -63 -95q1 -5 1 -10q0 -18 -16.5 -30.5t-35.5 -12.5q-33 0 -33 32q0 5 1 11q5 25 70 124t102 134q13 12 27 12t24 -12.5t10 -28.5zM271 694q0 -16 -10 -30q-38 -47 -77 -94q-51 -63 -63 -95q1 -5 1 -10q0 -18 -16.5 -30.5
t-35.5 -12.5q-32 0 -32 32q0 5 1 11q4 25 69 124t102 134q13 12 27 12t24 -12.5t10 -28.5z" />
    <glyph glyph-name="ogonek" unicode="&#x2db;" horiz-adv-x="270" 
d="M205 -24q0 -46 -46 -46h-15q-10 1 -14 1q-30 0 -30 -18q0 -11 10 -30q8 -15 44 -37q32 -19 32 -34q0 -13 -9.5 -22t-21.5 -9q-37 0 -79 46q-46 49 -46 98q0 10 2 19q11 48 99 48q6 0 11 -1v2q0 24 30 24q33 0 33 -41z" />
    <glyph glyph-name="caron" unicode="&#x2c7;" horiz-adv-x="360" 
d="M342 637q0 -20 -24 -37q-17 -12 -56 -51q-35 -34 -59 -47q-5 -10 -27 -10q-40 0 -43 38q-4 53 -47 85q-11 9 -11 27q0 37 31 37q21 0 43.5 -46t43.5 -46q6 0 40 28t36 36q10 27 32 27q15 0 28 -12.5t13 -28.5z" />
    <glyph glyph-name="hyphenminus" unicode="-" horiz-adv-x="501" 
d="M469 272q0 -13 -9.5 -25t-17.5 -14q-12 -3 -21 -3q-7 0 -26 3q-3 1 -13 1q-85 0 -197 -19q-92 -16 -102 -16q-52 0 -52 40q0 33 46 38q285 28 330 28q36 0 44 -5q18 -11 18 -28z" />
    <glyph glyph-name="hyphenminus" unicode="&#x2010;" horiz-adv-x="501" 
d="M469 272q0 -13 -9.5 -25t-17.5 -14q-12 -3 -21 -3q-7 0 -26 3q-3 1 -13 1q-85 0 -197 -19q-92 -16 -102 -16q-52 0 -52 40q0 33 46 38q285 28 330 28q36 0 44 -5q18 -11 18 -28z" />
    <glyph glyph-name="bulletmath" unicode="&#xb7;" horiz-adv-x="207" 
d="M156 261q0 -57 -54 -57q-51 0 -51 56q0 25 19 42q14 14 30 16h7q23 0 36 -17.5t13 -39.5z" />
    <glyph glyph-name="bulletmath" unicode="&#x2219;" horiz-adv-x="207" 
d="M156 261q0 -57 -54 -57q-51 0 -51 56q0 25 19 42q14 14 30 16h7q23 0 36 -17.5t13 -39.5z" />
    <glyph glyph-name="micro" unicode="&#xb5;" horiz-adv-x="420" 
d="M379 169q-2 -10 -15 -18.5t-30 -8.5q-44 0 -62 53q-1 4 -10 17q-64 -57 -127 -52q-15 -26 -57 -25q-41 2 -41 39q0 20 16 31q-11 18 -11 46q0 78 70 183l-37 52q-11 17 -11 29q0 28 43 28q25 0 58 -41q56 63 72 63t21 -13q3 -4 6 -25q17 -3 32 -9q14 14 25 20q7 3 15 3
q32 0 37 -33q1 -10 -21 -41q16 -30 16 -65q0 -65 -50 -131q27 -43 30 -47q11 -12 21 -25q12 -16 10 -30zM244 454q-17 1 -36 -16q7 -11 10 -17q8 11 26 33zM289 386l-25 -33l12 -18q14 26 13 51zM169 353l-12 16q-21 -39 -29 -71q17 23 41 55zM223 272l-10 14l-31 -41
q20 10 41 27z" />
    </font>
</defs>
</svg>
