<svg id="PARPI_excluded_sites" data-name="PARPI excluded sites" xmlns="http://www.w3.org/2000/svg" xmlns:xlink="http://www.w3.org/1999/xlink" viewBox="0 0 941.83 194.78"><defs><style>.cls-1,.cls-5,.cls-6,.cls-7{fill:none;}.cls-2{clip-path:url(#clip-path);}.cls-3{fill:#b1d134;}.cls-4{fill:#004d74;}.cls-5{stroke:#fff;stroke-width:3px;}.cls-6{stroke:#004d74;}.cls-6,.cls-7{stroke-width:2px;}.cls-7{stroke:#b1d134;}.cls-8{font-size:16px;}.cls-8,.cls-9{fill:#fff;font-family:Interstate;}.cls-9{font-size:28px;font-weight:700;}</style><clipPath id="clip-path" transform="translate(-11.79 -32.43)"><rect class="cls-1" x="2.83" y="32.43" width="979.39" height="194.78"/></clipPath></defs><title>diagram</title><g class="cls-2"><path class="cls-3" d="M13.83,159.82a2,2,0,0,1-2-2v-56a2,2,0,0,1,2-2h937a2,2,0,0,1,2,2v56a2,2,0,0,1-2,2h-937Z" transform="translate(-11.79 -32.43)"/></g><polygon class="cls-4" points="705.42 127.39 705.42 67.39 705.42 65.89 706.92 65.89 824.73 65.89 826.23 65.89 826.23 67.39 826.23 127.39 826.23 128.89 824.73 128.89 706.92 128.89 705.42 128.89 705.42 127.39"/><polygon class="cls-5" points="705.42 127.39 705.42 67.39 705.42 65.89 706.92 65.89 824.73 65.89 826.23 65.89 826.23 67.39 826.23 127.39 826.23 128.89 824.73 128.89 706.92 128.89 705.42 128.89 705.42 127.39"/><polyline class="cls-4" points="781.92 68.1 765.82 52 749.72 68.1"/><g class="cls-2"><path class="cls-4" d="M13.83,159.82a2,2,0,0,1-2-2v-56a2,2,0,0,1,2-2H750a2,2,0,0,1,2,2v56a2,2,0,0,1-2,2H13.83Z" transform="translate(-11.79 -32.43)"/></g><polygon class="cls-4" points="469.79 127.39 469.79 67.39 469.79 65.89 471.29 65.89 589.1 65.89 590.6 65.89 590.6 67.39 590.6 127.39 590.6 128.89 589.1 128.89 471.29 128.89 469.79 128.89 469.79 127.39"/><polygon class="cls-5" points="469.79 127.39 469.79 67.39 469.79 65.89 471.29 65.89 589.1 65.89 590.6 65.89 590.6 67.39 590.6 127.39 590.6 128.89 589.1 128.89 471.29 128.89 469.79 128.89 469.79 127.39"/><polyline class="cls-4" points="546.3 68.1 530.2 52 514.1 68.1"/><polygon class="cls-4" points="234.17 127.39 234.17 67.39 234.17 65.89 235.67 65.89 353.48 65.89 354.98 65.89 354.98 67.39 354.98 127.39 354.98 128.89 353.48 128.89 235.67 128.89 234.17 128.89 234.17 127.39"/><polygon class="cls-5" points="234.17 127.39 234.17 67.39 234.17 65.89 235.67 65.89 353.48 65.89 354.98 65.89 354.98 67.39 354.98 127.39 354.98 128.89 353.48 128.89 235.67 128.89 234.17 128.89 234.17 127.39"/><polyline class="cls-4" points="310.67 68.1 294.57 52 278.47 68.1"/><polygon class="cls-3" points="116.35 127.39 116.35 67.39 116.35 65.89 117.85 65.89 235.67 65.89 237.17 65.89 237.17 67.39 237.17 127.39 237.17 128.89 235.67 128.89 117.85 128.89 116.35 128.89 116.35 127.39"/><polygon class="cls-5" points="116.35 127.39 116.35 67.39 116.35 65.89 117.85 65.89 235.67 65.89 237.17 65.89 237.17 67.39 237.17 127.39 237.17 128.89 235.67 128.89 117.85 128.89 116.35 128.89 116.35 127.39"/><polygon class="cls-3" points="351.98 127.39 351.98 67.39 351.98 65.89 353.48 65.89 471.29 65.89 472.79 65.89 472.79 67.39 472.79 127.39 472.79 128.89 471.29 128.89 353.48 128.89 351.98 128.89 351.98 127.39"/><polygon class="cls-5" points="351.98 127.39 351.98 67.39 351.98 65.89 353.48 65.89 471.29 65.89 472.79 65.89 472.79 67.39 472.79 127.39 472.79 128.89 471.29 128.89 353.48 128.89 351.98 128.89 351.98 127.39"/><polygon class="cls-3" points="587.6 127.39 587.6 67.39 587.6 65.89 589.1 65.89 706.92 65.89 708.42 65.89 708.42 67.39 708.42 127.39 708.42 128.89 706.92 128.89 589.1 128.89 587.6 128.89 587.6 127.39"/><polygon class="cls-5" points="587.6 127.39 587.6 67.39 587.6 65.89 589.1 65.89 706.92 65.89 708.42 65.89 708.42 67.39 708.42 127.39 708.42 128.89 706.92 128.89 589.1 128.89 587.6 128.89 587.6 127.39"/><line class="cls-6" x1="57.95" y1="47" x2="57.95" y2="7"/><line class="cls-6" x1="294.57" y1="47" x2="294.57" y2="7"/><line class="cls-6" x1="530.2" y1="47" x2="530.2" y2="7"/><line class="cls-6" x1="765.82" y1="47" x2="765.82" y2="7"/><g class="cls-2"><line class="cls-6" x1="115.89" y1="1" y2="1"/><line class="cls-6" x1="352.52" y1="1" x2="236.63" y2="1"/><line class="cls-6" x1="588.15" y1="1" x2="472.25" y2="1"/><line class="cls-6" x1="823.77" y1="1" x2="707.87" y2="1"/></g><line class="cls-7" x1="883.88" y1="147.78" x2="883.88" y2="187.78"/><line class="cls-7" x1="412.38" y1="147.78" x2="412.38" y2="187.78"/><line class="cls-7" x1="176.76" y1="147.78" x2="176.76" y2="187.78"/><g class="cls-2"><line class="cls-7" x1="825.94" y1="193.78" x2="941.83" y2="193.78"/></g><line class="cls-7" x1="648.01" y1="147.78" x2="648.01" y2="187.78"/><g class="cls-2"><line class="cls-7" x1="590.06" y1="193.78" x2="705.96" y2="193.78"/><line class="cls-7" x1="354.44" y1="193.78" x2="470.33" y2="193.78"/><line class="cls-7" x1="118.81" y1="193.78" x2="234.71" y2="193.78"/></g><polyline class="cls-3" points="192.86 126.68 176.76 142.78 160.66 126.68"/><polyline class="cls-3" points="428.49 126.68 412.38 142.78 396.28 126.68"/><polyline class="cls-3" points="664.11 126.68 648.01 142.78 631.91 126.68"/><polyline class="cls-3" points="899.99 126.68 883.88 142.78 867.78 126.68"/><polyline class="cls-4" points="74.05 68.1 57.95 52 41.85 68.1"/><text class="cls-8" transform="translate(253.59 106.38)">MO<tspan x="23.98" y="0">NT</tspan><tspan x="44.83" y="0">H</tspan></text><text class="cls-9" transform="translate(309.65 106.38)"> <tspan x="7.87" y="0">3</tspan></text><text class="cls-8" transform="translate(370.7 106.38)">MO<tspan x="23.98" y="0">NT</tspan><tspan x="44.83" y="0">H</tspan></text><text class="cls-9" transform="translate(426.77 106.38)"> <tspan x="7.87" y="0">4</tspan></text><text class="cls-8" transform="translate(488.89 106.38)">MO<tspan x="23.98" y="0">N</tspan><tspan x="35.26" y="0">T</tspan><tspan x="44.82" y="0">H</tspan></text><text class="cls-9" transform="translate(544.96 106.38)"> <tspan x="7.84" y="0">5</tspan></text><text class="cls-8" transform="translate(606.78 106.38)">M<tspan x="12.78" y="0">O</tspan><tspan x="24" y="0">N</tspan><tspan x="35.28" y="0">T</tspan><tspan x="44.83" y="0">H</tspan></text><text class="cls-9" transform="translate(662.84 106.38)"> <tspan x="7.84" y="0">6</tspan></text><text class="cls-8" transform="translate(724.59 106.38)">M<tspan x="12.78" y="0">O</tspan><tspan x="24" y="0">N</tspan><tspan x="35.28" y="0">T</tspan><tspan x="44.83" y="0">H</tspan></text><text class="cls-9" transform="translate(780.65 106.38)"> <tspan x="7.84" y="0">9</tspan></text><text class="cls-8" transform="translate(837.12 105.09)">M<tspan x="12.78" y="0">O</tspan><tspan x="24" y="0">N</tspan><tspan x="35.28" y="0">T</tspan><tspan x="44.83" y="0">H</tspan></text><text class="cls-9" transform="translate(893.18 105.09)"> <tspan x="7.84" y="0">1</tspan><tspan x="18.37" y="0">2</tspan></text><text class="cls-8" transform="translate(135.25 106.38)">M<tspan x="12.77" y="0">ON</tspan><tspan x="35.28" y="0">T</tspan><tspan x="44.83" y="0">H</tspan></text><text class="cls-9" transform="translate(191.31 106.38)"> <tspan x="7.87" y="0">2</tspan></text><text class="cls-8" transform="translate(20.61 106.38)">M<tspan x="12.78" y="0">O</tspan><tspan x="24" y="0">N</tspan><tspan x="35.28" y="0">T</tspan><tspan x="44.83" y="0">H</tspan></text><text class="cls-9" transform="translate(76.67 106.38)"> <tspan x="7.87" y="0">1</tspan></text></svg>