<svg id="Layer_1" data-name="Layer 1" xmlns="http://www.w3.org/2000/svg" viewBox="0 0 95.33 70.12"><defs><style>.cls-1{fill:#231f20;}</style></defs><title>bibliography</title><path class="cls-1" d="M140.25,66.76l0-5.7s-39.45.19-39.45,6.81V119.8s6.91-4.34,23.84-4.34c11.45,0,15.8.37,15.8,0.37l-0.16-45.73,4.07-.08-0.08,50.67c-12.67-1.33-36.12-.88-44.25,6.5-8.12-7.38-31.58-7.83-44.25-6.5L55.67,70l4.07,0.08-0.16,45.73s4.35-.37,15.8-0.37c16.93,0,23.84,4.34,23.84,4.34V67.86c0-6.62-39.45-6.81-39.45-6.81l0,5.7-7.41.08v57.08c7.92-1.2,40.58-2.37,46.78,7.25h1.78c6.19-9.62,38.86-8.45,46.78-7.25V66.84Z" transform="translate(-52.33 -61.05)"/></svg>