<svg id="PARPI_excluded_sites" data-name="PARPI excluded sites" xmlns="http://www.w3.org/2000/svg" xmlns:xlink="http://www.w3.org/1999/xlink" viewBox="0 0 941.83 194.78"><defs><style>.cls-1,.cls-5,.cls-6,.cls-7{fill:none;}.cls-2{clip-path:url(#clip-path);}.cls-3{fill:#b1d134;}.cls-4{fill:#004d74;}.cls-5{stroke:#fff;stroke-width:3px;}.cls-6{stroke:#004d74;}.cls-6,.cls-7{stroke-width:2px;}.cls-7{stroke:#b1d134;}.cls-8{isolation:isolate;}.cls-9{fill:#fff;}</style><clipPath id="clip-path" transform="translate(0 0)"><rect class="cls-1" x="-8.96" width="979.39" height="194.78"/></clipPath></defs><title>diagram</title><metadata><?xpacket begin="﻿" id="W5M0MpCehiHzreSzNTczkc9d"?>
<x:xmpmeta xmlns:x="adobe:ns:meta/" x:xmptk="Adobe XMP Core 5.6-c111 79.158366, 2015/09/25-01:12:00        ">
   <rdf:RDF xmlns:rdf="http://www.w3.org/1999/02/22-rdf-syntax-ns#">
      <rdf:Description rdf:about=""
            xmlns:dc="http://purl.org/dc/elements/1.1/">
         <dc:title>
            <rdf:Alt>
               <rdf:li xml:lang="x-default">diagram</rdf:li>
            </rdf:Alt>
         </dc:title>
      </rdf:Description>
   </rdf:RDF>
</x:xmpmeta>
                                                                                                    
                                                                                                    
                                                                                                    
                                                                                                    
                                                                                                    
                                                                                                    
                                                                                                    
                                                                                                    
                                                                                                    
                                                                                                    
                                                                                                    
                                                                                                    
                                                                                                    
                                                                                                    
                                                                                                    
                                                                                                    
                                                                                                    
                                                                                                    
                                                                                                    
                                                                                                    
                           
<?xpacket end="w"?></metadata>
<g class="cls-2"><path class="cls-3" d="M2,127.39a2,2,0,0,1-2-2v-56a2,2,0,0,1,2-2H939a2,2,0,0,1,2,2v56a2,2,0,0,1-2,2H2Z" transform="translate(0 0)"/></g><polygon class="cls-4" points="705.42 127.39 705.42 67.39 705.42 65.89 706.92 65.89 824.73 65.89 826.23 65.89 826.23 67.39 826.23 127.39 826.23 128.89 824.73 128.89 706.92 128.89 705.42 128.89 705.42 127.39"/><polygon class="cls-5" points="705.42 127.39 705.42 67.39 705.42 65.89 706.92 65.89 824.73 65.89 826.23 65.89 826.23 67.39 826.23 127.39 826.23 128.89 824.73 128.89 706.92 128.89 705.42 128.89 705.42 127.39"/><polyline class="cls-4" points="781.92 68.1 765.82 52 749.72 68.1"/><g class="cls-2"><path class="cls-4" d="M2,127.39a2,2,0,0,1-2-2v-56a2,2,0,0,1,2-2H738.21a2,2,0,0,1,2,2v56a2,2,0,0,1-2,2H2Z" transform="translate(0 0)"/></g><polygon class="cls-4" points="469.79 127.39 469.79 67.39 469.79 65.89 471.29 65.89 589.1 65.89 590.6 65.89 590.6 67.39 590.6 127.39 590.6 128.89 589.1 128.89 471.29 128.89 469.79 128.89 469.79 127.39"/><polygon class="cls-5" points="469.79 127.39 469.79 67.39 469.79 65.89 471.29 65.89 589.1 65.89 590.6 65.89 590.6 67.39 590.6 127.39 590.6 128.89 589.1 128.89 471.29 128.89 469.79 128.89 469.79 127.39"/><polyline class="cls-4" points="546.3 68.1 530.2 52 514.1 68.1"/><polygon class="cls-4" points="234.17 127.39 234.17 67.39 234.17 65.89 235.67 65.89 353.48 65.89 354.98 65.89 354.98 67.39 354.98 127.39 354.98 128.89 353.48 128.89 235.67 128.89 234.17 128.89 234.17 127.39"/><polygon class="cls-5" points="234.17 127.39 234.17 67.39 234.17 65.89 235.67 65.89 353.48 65.89 354.98 65.89 354.98 67.39 354.98 127.39 354.98 128.89 353.48 128.89 235.67 128.89 234.17 128.89 234.17 127.39"/><polyline class="cls-4" points="310.67 68.1 294.57 52 278.47 68.1"/><polygon class="cls-3" points="116.35 127.39 116.35 67.39 116.35 65.89 117.85 65.89 235.67 65.89 237.17 65.89 237.17 67.39 237.17 127.39 237.17 128.89 235.67 128.89 117.85 128.89 116.35 128.89 116.35 127.39"/><polygon class="cls-5" points="116.35 127.39 116.35 67.39 116.35 65.89 117.85 65.89 235.67 65.89 237.17 65.89 237.17 67.39 237.17 127.39 237.17 128.89 235.67 128.89 117.85 128.89 116.35 128.89 116.35 127.39"/><polygon class="cls-3" points="351.98 127.39 351.98 67.39 351.98 65.89 353.48 65.89 471.29 65.89 472.79 65.89 472.79 67.39 472.79 127.39 472.79 128.89 471.29 128.89 353.48 128.89 351.98 128.89 351.98 127.39"/><polygon class="cls-5" points="351.98 127.39 351.98 67.39 351.98 65.89 353.48 65.89 471.29 65.89 472.79 65.89 472.79 67.39 472.79 127.39 472.79 128.89 471.29 128.89 353.48 128.89 351.98 128.89 351.98 127.39"/><polygon class="cls-3" points="587.6 127.39 587.6 67.39 587.6 65.89 589.1 65.89 706.92 65.89 708.42 65.89 708.42 67.39 708.42 127.39 708.42 128.89 706.92 128.89 589.1 128.89 587.6 128.89 587.6 127.39"/><polygon class="cls-5" points="587.6 127.39 587.6 67.39 587.6 65.89 589.1 65.89 706.92 65.89 708.42 65.89 708.42 67.39 708.42 127.39 708.42 128.89 706.92 128.89 589.1 128.89 587.6 128.89 587.6 127.39"/><line class="cls-6" x1="57.95" y1="47" x2="57.95" y2="7"/><line class="cls-6" x1="294.57" y1="47" x2="294.57" y2="7"/><line class="cls-6" x1="530.2" y1="47" x2="530.2" y2="7"/><line class="cls-6" x1="765.82" y1="47" x2="765.82" y2="7"/><g class="cls-2"><line class="cls-6" x1="115.89" y1="1" y2="1"/><line class="cls-6" x1="352.52" y1="1" x2="236.63" y2="1"/><line class="cls-6" x1="588.15" y1="1" x2="472.25" y2="1"/><line class="cls-6" x1="823.77" y1="1" x2="707.87" y2="1"/></g><line class="cls-7" x1="883.88" y1="147.78" x2="883.88" y2="187.78"/><line class="cls-7" x1="412.38" y1="147.78" x2="412.38" y2="187.78"/><line class="cls-7" x1="176.76" y1="147.78" x2="176.76" y2="187.78"/><g class="cls-2"><line class="cls-7" x1="825.94" y1="193.78" x2="941.83" y2="193.78"/></g><line class="cls-7" x1="648.01" y1="147.78" x2="648.01" y2="187.78"/><g class="cls-2"><line class="cls-7" x1="590.06" y1="193.78" x2="705.96" y2="193.78"/><line class="cls-7" x1="354.44" y1="193.78" x2="470.33" y2="193.78"/><line class="cls-7" x1="118.81" y1="193.78" x2="234.71" y2="193.78"/></g><polyline class="cls-3" points="192.86 126.68 176.76 142.78 160.66 126.68"/><polyline class="cls-3" points="428.49 126.68 412.38 142.78 396.28 126.68"/><polyline class="cls-3" points="664.11 126.68 648.01 142.78 631.91 126.68"/><polyline class="cls-3" points="899.99 126.68 883.88 142.78 867.78 126.68"/><polyline class="cls-4" points="74.05 68.1 57.95 52 41.85 68.1"/><g class="cls-8"><g class="cls-8"><path class="cls-9" d="M263.42,106.38v-5.92c0-.67,0-1.65,0-2-0.13.32-.45,1.12-0.72,1.76L260,106.56l-2.69-6.31c-0.27-.64-0.59-1.44-0.72-1.76,0,0.32,0,1.3,0,2v5.92H255V95.18h1.73l2.51,6c0.27,0.64.62,1.46,0.77,1.92,0.16-.46.48-1.26,0.75-1.92l2.47-6h1.79v11.2h-1.65Z" transform="translate(0 0)"/><path class="cls-9" d="M272.18,106.56c-2.83,0-4.75-2.27-4.75-5.76s2-5.79,4.79-5.79,4.77,2.27,4.77,5.76S275,106.56,272.18,106.56Zm0-9.89c-1.78,0-3,1.55-3,4.1s1.3,4.13,3.09,4.13,3-1.55,3-4.1S274,96.66,272.17,96.66Z" transform="translate(0 0)"/></g><g class="cls-8"><path class="cls-9" d="M285.94,106.38l-4.47-7c-0.27-.42-0.66-1.09-0.83-1.38,0,0.42,0,2,0,2.59v5.81H279V95.18h1.71L285,102c0.29,0.46.77,1.3,0.93,1.58,0-.42,0-2,0-2.64V95.18h1.63v11.2h-1.6Z" transform="translate(0 0)"/><path class="cls-9" d="M294.69,96.82v9.56H293V96.82h-3.27V95.18H298v1.65h-3.27Z" transform="translate(0 0)"/></g><g class="cls-8"><path class="cls-9" d="M306.71,106.38v-5h-5.15v5h-1.68V95.18h1.68v4.53h5.15V95.18h1.68v11.2h-1.68Z" transform="translate(0 0)"/></g></g><g class="cls-8"><g class="cls-8"><path class="cls-9" d="M325.86,106.69a9.74,9.74,0,0,1-7.76-3.75l3-2.41a6.54,6.54,0,0,0,5.15,2.32c2.58,0,3.78-.92,3.78-2.49s-1-2.24-2.88-2.24H324.8V94.28h2.1c1.62,0,2.3-.7,2.3-2,0-1-.81-2-3.28-2A5.09,5.09,0,0,0,322.08,92l-2.86-2.6A8.53,8.53,0,0,1,326,86.47c4,0,7.2,1.85,7.2,5.54a4.29,4.29,0,0,1-2.27,4A4.48,4.48,0,0,1,334,100.3C334,104.53,330.74,106.69,325.86,106.69Z" transform="translate(0 0)"/></g></g><g class="cls-8"><g class="cls-8"><path class="cls-9" d="M380.53,106.38v-5.92c0-.67,0-1.65,0-2-0.13.32-.45,1.12-0.72,1.76l-2.72,6.31-2.69-6.31c-0.27-.64-0.59-1.44-0.72-1.76,0,0.32,0,1.3,0,2v5.92h-1.58V95.18h1.73l2.51,6c0.27,0.64.62,1.46,0.77,1.92,0.16-.46.48-1.26,0.75-1.92l2.47-6h1.79v11.2h-1.65Z" transform="translate(0 0)"/><path class="cls-9" d="M389.29,106.56c-2.83,0-4.75-2.27-4.75-5.76s2-5.79,4.79-5.79,4.77,2.27,4.77,5.76S392.14,106.56,389.29,106.56Zm0-9.89c-1.78,0-3,1.55-3,4.1s1.3,4.13,3.09,4.13,3-1.55,3-4.1S391.07,96.66,389.28,96.66Z" transform="translate(0 0)"/></g><g class="cls-8"><path class="cls-9" d="M403.05,106.38l-4.47-7c-0.27-.42-0.66-1.09-0.83-1.38,0,0.42,0,2,0,2.59v5.81h-1.63V95.18h1.71l4.26,6.83c0.29,0.46.77,1.3,0.93,1.58,0-.42,0-2,0-2.64V95.18h1.63v11.2h-1.6Z" transform="translate(0 0)"/><path class="cls-9" d="M411.8,96.82v9.56h-1.68V96.82h-3.27V95.18h8.21v1.65H411.8Z" transform="translate(0 0)"/></g><g class="cls-8"><path class="cls-9" d="M423.82,106.38v-5h-5.15v5H417V95.18h1.68v4.53h5.15V95.18h1.68v11.2h-1.68Z" transform="translate(0 0)"/></g></g><g class="cls-8"><g class="cls-8"><path class="cls-9" d="M450.38,102.38v4H446.6v-4H435.87V98.85l10.39-12.07h4.12v12H453v3.64h-2.58Zm-5.43-8.9-2.8,3.28c-0.62.73-1.43,1.62-1.85,2,0.67,0,2.77-.06,3.89-0.06h2.41V95.54c0-1.12.08-3.56,0.08-4.28C446.32,91.76,445.59,92.72,444.94,93.47Z" transform="translate(0 0)"/></g></g><g class="cls-8"><g class="cls-8"><path class="cls-9" d="M498.72,106.38v-5.92c0-.67,0-1.65,0-2-0.13.32-.45,1.12-0.72,1.76l-2.72,6.31-2.69-6.31c-0.27-.64-0.59-1.44-0.72-1.76,0,0.32,0,1.3,0,2v5.92h-1.58V95.18h1.73l2.51,6c0.27,0.64.63,1.46,0.77,1.92,0.16-.46.48-1.26,0.75-1.92l2.47-6h1.79v11.2h-1.65Z" transform="translate(0 0)"/><path class="cls-9" d="M507.48,106.56c-2.83,0-4.75-2.27-4.75-5.76s2-5.79,4.79-5.79,4.77,2.27,4.77,5.76S510.33,106.56,507.48,106.56Zm0-9.89c-1.78,0-3,1.55-3,4.1s1.3,4.13,3.09,4.13,3-1.55,3-4.1S509.26,96.66,507.47,96.66Z" transform="translate(0 0)"/></g><g class="cls-8"><path class="cls-9" d="M521.24,106.38l-4.47-7c-0.27-.42-0.66-1.09-0.83-1.38,0,0.42,0,2,0,2.59v5.81h-1.63V95.18H516L520.3,102c0.29,0.46.77,1.3,0.93,1.58,0-.42,0-2,0-2.64V95.18h1.63v11.2h-1.6Z" transform="translate(0 0)"/></g><g class="cls-8"><path class="cls-9" d="M529.85,96.82v9.56h-1.68V96.82H524.9V95.18h8.21v1.65h-3.27Z" transform="translate(0 0)"/></g><g class="cls-8"><path class="cls-9" d="M542,106.38v-5h-5.15v5h-1.68V95.18h1.68v4.53H542V95.18h1.68v11.2H542Z" transform="translate(0 0)"/></g></g><g class="cls-8"><g class="cls-8"><path class="cls-9" d="M561.87,106.69a13.54,13.54,0,0,1-7.64-2.1l1.9-3.33a11.6,11.6,0,0,0,5.74,1.65c2.66,0,4.2-1.12,4.2-3.22s-1.48-2.91-3.33-2.91A6.4,6.4,0,0,0,558.88,98l-3.72-1.37,0.67-9.8h13v3.78h-9.44l-0.22,3.39a8.09,8.09,0,0,1,4.12-.9c4.4,0,6.72,2.8,6.72,6.5C570,104.25,566.69,106.69,561.87,106.69Z" transform="translate(0 0)"/></g></g><g class="cls-8"><g class="cls-8"><path class="cls-9" d="M616.61,106.38v-5.92c0-.67,0-1.65,0-2-0.13.32-.45,1.12-0.72,1.76l-2.72,6.31-2.69-6.31c-0.27-.64-0.59-1.44-0.72-1.76,0,0.32,0,1.3,0,2v5.92h-1.58V95.18H610l2.51,6c0.27,0.64.62,1.46,0.77,1.92,0.16-.46.48-1.26,0.75-1.92l2.46-6h1.79v11.2h-1.65Z" transform="translate(0 0)"/></g><g class="cls-8"><path class="cls-9" d="M625.23,106.56c-2.83,0-4.75-2.27-4.75-5.76s2-5.79,4.79-5.79,4.77,2.27,4.77,5.76S628.08,106.56,625.23,106.56Zm0-9.89c-1.78,0-3,1.55-3,4.1s1.3,4.13,3.09,4.13,3-1.55,3-4.1S627,96.66,625.21,96.66Z" transform="translate(0 0)"/></g><g class="cls-8"><path class="cls-9" d="M639.15,106.38l-4.47-7c-0.27-.42-0.66-1.09-0.83-1.38,0,0.42,0,2,0,2.59v5.81h-1.63V95.18h1.71l4.26,6.83c0.29,0.46.77,1.3,0.93,1.58,0-.42,0-2,0-2.64V95.18h1.63v11.2h-1.6Z" transform="translate(0 0)"/></g><g class="cls-8"><path class="cls-9" d="M647.76,96.82v9.56h-1.68V96.82h-3.27V95.18H651v1.65h-3.27Z" transform="translate(0 0)"/></g><g class="cls-8"><path class="cls-9" d="M659.9,106.38v-5h-5.15v5h-1.68V95.18h1.68v4.53h5.15V95.18h1.68v11.2H659.9Z" transform="translate(0 0)"/></g></g><g class="cls-8"><g class="cls-8"><path class="cls-9" d="M679.78,106.69c-4.37,0-7.78-2.44-7.78-7.92,0-5.15,3-12.29,13.19-12.29v3.81c-4.54,0-7.42,1.6-8.54,4.59a7.33,7.33,0,0,1,4.48-1.23c3.89,0,6.92,2,6.92,6.33S684.4,106.69,679.78,106.69Zm0.36-9.49c-2.66,0-4.09.9-4.09,2.94,0,1.82,1.34,2.91,3.89,2.91s4.12-1.12,4.12-2.94C684.06,98.12,682.61,97.2,680.14,97.2Z" transform="translate(0 0)"/></g></g><g class="cls-8"><g class="cls-8"><path class="cls-9" d="M734.42,106.38v-5.92c0-.67,0-1.65,0-2-0.13.32-.45,1.12-0.72,1.76L731,106.56l-2.69-6.31c-0.27-.64-0.59-1.44-0.72-1.76,0,0.32,0,1.3,0,2v5.92H726V95.18h1.73l2.51,6c0.27,0.64.63,1.46,0.77,1.92,0.16-.46.48-1.26,0.75-1.92l2.47-6h1.79v11.2h-1.65Z" transform="translate(0 0)"/></g><g class="cls-8"><path class="cls-9" d="M743,106.56c-2.83,0-4.75-2.27-4.75-5.76s2-5.79,4.79-5.79,4.77,2.27,4.77,5.76S745.89,106.56,743,106.56Zm0-9.89c-1.78,0-3,1.55-3,4.1s1.3,4.13,3.09,4.13,3-1.55,3-4.1S744.81,96.66,743,96.66Z" transform="translate(0 0)"/></g><g class="cls-8"><path class="cls-9" d="M757,106.38l-4.47-7c-0.27-.42-0.66-1.09-0.83-1.38,0,0.42,0,2,0,2.59v5.81H750V95.18h1.71L756,102c0.29,0.46.77,1.3,0.93,1.58,0-.42,0-2,0-2.64V95.18h1.63v11.2H757Z" transform="translate(0 0)"/></g><g class="cls-8"><path class="cls-9" d="M765.57,96.82v9.56h-1.68V96.82h-3.27V95.18h8.21v1.65h-3.27Z" transform="translate(0 0)"/></g><g class="cls-8"><path class="cls-9" d="M777.71,106.38v-5h-5.15v5h-1.68V95.18h1.68v4.53h5.15V95.18h1.68v11.2h-1.68Z" transform="translate(0 0)"/></g></g><g class="cls-8"><g class="cls-8"><path class="cls-9" d="M792.55,106.69v-3.81c4.54,0,7.42-1.6,8.54-4.59a7.32,7.32,0,0,1-4.48,1.23c-3.89,0-6.92-2-6.92-6.33s3.64-6.72,8.26-6.72c4.37,0,7.78,2.44,7.78,7.92C805.74,99.55,802.71,106.69,792.55,106.69Zm5.24-16.58c-2.6,0-4.12,1.12-4.12,2.94,0,2,1.46,2.91,3.92,2.91,2.66,0,4.09-.9,4.09-2.94C801.68,91.2,800.33,90.11,797.79,90.11Z" transform="translate(0 0)"/></g></g><g class="cls-8"><g class="cls-8"><path class="cls-9" d="M846.95,105.09V99.17c0-.67,0-1.65,0-2-0.13.32-.45,1.12-0.72,1.76l-2.72,6.31L840.85,99c-0.27-.64-0.59-1.44-0.72-1.76,0,0.32,0,1.3,0,2v5.92h-1.58V93.89h1.73l2.51,6c0.27,0.64.62,1.46,0.77,1.92,0.16-.46.48-1.26,0.75-1.92l2.46-6h1.79v11.2h-1.65Z" transform="translate(0 0)"/></g><g class="cls-8"><path class="cls-9" d="M855.57,105.27c-2.83,0-4.75-2.27-4.75-5.76s2-5.79,4.79-5.79,4.77,2.27,4.77,5.76S858.42,105.27,855.57,105.27Zm0-9.89c-1.78,0-3,1.55-3,4.1s1.3,4.13,3.09,4.13,3-1.55,3-4.1S857.34,95.37,855.55,95.37Z" transform="translate(0 0)"/></g><g class="cls-8"><path class="cls-9" d="M869.49,105.09l-4.47-7c-0.27-.42-0.66-1.09-0.83-1.38,0,0.42,0,2,0,2.59v5.81h-1.63V93.89h1.71l4.26,6.83c0.29,0.46.77,1.3,0.93,1.58,0-.42,0-2,0-2.64V93.89h1.63v11.2h-1.6Z" transform="translate(0 0)"/></g><g class="cls-8"><path class="cls-9" d="M878.1,95.53v9.56h-1.68V95.53h-3.27V93.89h8.21v1.65H878.1Z" transform="translate(0 0)"/></g><g class="cls-8"><path class="cls-9" d="M890.24,105.09v-5h-5.15v5h-1.68V93.89h1.68v4.53h5.15V93.89h1.68v11.2h-1.68Z" transform="translate(0 0)"/></g></g><g class="cls-8"><g class="cls-8"><path class="cls-9" d="M905.47,105.09V90.92h-3.36V88c2.18-.11,3.61-0.92,4-2.55h3.25v19.6h-3.89Z" transform="translate(0 0)"/></g><g class="cls-8"><path class="cls-9" d="M913.31,105.09c0.11-6.72,4.23-9.63,9-11.73,1.68-.73,2.21-1.51,2.21-2.35,0-1-.87-2-3.22-2a8,8,0,0,0-5.57,2.35l-2.52-2.94a11,11,0,0,1,8-3.25c4.65,0,7.28,1.88,7.28,5.63,0,3.16-1.71,4.54-5,6.08s-4.82,2.91-5.18,4.42h10.42v3.78H913.31Z" transform="translate(0 0)"/></g></g><g class="cls-8"><g class="cls-8"><path class="cls-9" d="M145.08,106.38v-5.92c0-.67,0-1.65,0-2-0.13.32-.45,1.12-0.72,1.76l-2.72,6.31L139,100.25c-0.27-.64-0.59-1.44-0.72-1.76,0,0.32,0,1.3,0,2v5.92h-1.58V95.18h1.73l2.51,6c0.27,0.64.62,1.46,0.77,1.92,0.16-.46.48-1.26,0.75-1.92l2.47-6h1.79v11.2h-1.65Z" transform="translate(0 0)"/></g><g class="cls-8"><path class="cls-9" d="M153.69,106.56c-2.83,0-4.75-2.27-4.75-5.76s2-5.79,4.79-5.79,4.77,2.27,4.77,5.76S156.54,106.56,153.69,106.56Zm0-9.89c-1.78,0-3,1.55-3,4.1s1.3,4.13,3.09,4.13,3-1.55,3-4.1S155.46,96.66,153.67,96.66Z" transform="translate(0 0)"/><path class="cls-9" d="M167.77,106.38l-4.47-7c-0.27-.42-0.66-1.09-0.83-1.38,0,0.42,0,2,0,2.59v5.81h-1.63V95.18h1.71l4.26,6.83c0.29,0.46.77,1.3,0.93,1.58,0-.42,0-2,0-2.64V95.18h1.63v11.2h-1.6Z" transform="translate(0 0)"/></g><g class="cls-8"><path class="cls-9" d="M176.23,96.82v9.56h-1.68V96.82h-3.27V95.18h8.21v1.65h-3.27Z" transform="translate(0 0)"/></g><g class="cls-8"><path class="cls-9" d="M188.37,106.38v-5h-5.15v5h-1.68V95.18h1.68v4.53h5.15V95.18h1.68v11.2h-1.68Z" transform="translate(0 0)"/></g></g><g class="cls-8"><g class="cls-8"><path class="cls-9" d="M200.94,106.38c0.11-6.72,4.23-9.63,9-11.73,1.68-.73,2.21-1.51,2.21-2.35,0-1-.87-2-3.22-2a8,8,0,0,0-5.57,2.35l-2.52-2.94a11,11,0,0,1,8-3.25c4.65,0,7.28,1.88,7.28,5.63,0,3.16-1.71,4.54-5,6.08s-4.82,2.91-5.18,4.42h10.42v3.78H200.94Z" transform="translate(0 0)"/></g></g><g class="cls-8"><g class="cls-8"><path class="cls-9" d="M30.44,106.38v-5.92c0-.67,0-1.65,0-2-0.13.32-.45,1.12-0.72,1.76L27,106.56l-2.69-6.31c-0.27-.64-0.59-1.44-0.72-1.76,0,0.32,0,1.3,0,2v5.92H22.07V95.18h1.73l2.51,6c0.27,0.64.62,1.46,0.77,1.92,0.16-.46.48-1.26,0.75-1.92l2.47-6h1.79v11.2H30.44Z" transform="translate(0 0)"/></g><g class="cls-8"><path class="cls-9" d="M39.06,106.56c-2.83,0-4.75-2.27-4.75-5.76s2-5.79,4.79-5.79,4.77,2.27,4.77,5.76S41.91,106.56,39.06,106.56Zm0-9.89c-1.78,0-3,1.55-3,4.1s1.3,4.13,3.09,4.13,3-1.55,3-4.1S40.83,96.66,39,96.66Z" transform="translate(0 0)"/></g><g class="cls-8"><path class="cls-9" d="M53,106.38l-4.47-7c-0.27-.42-0.66-1.09-0.83-1.38,0,0.42,0,2,0,2.59v5.81H46.07V95.18h1.71L52,102c0.29,0.46.77,1.3,0.93,1.58,0-.42,0-2,0-2.64V95.18h1.63v11.2H53Z" transform="translate(0 0)"/></g><g class="cls-8"><path class="cls-9" d="M61.59,96.82v9.56H59.91V96.82H56.64V95.18h8.21v1.65H61.59Z" transform="translate(0 0)"/></g><g class="cls-8"><path class="cls-9" d="M73.73,106.38v-5H68.58v5H66.9V95.18h1.68v4.53h5.15V95.18h1.68v11.2H73.73Z" transform="translate(0 0)"/></g></g><g class="cls-8"><g class="cls-8"><path class="cls-9" d="M89,106.38V92.21H85.63V89.33c2.18-.11,3.61-0.92,4-2.55h3.25v19.6H89Z" transform="translate(0 0)"/></g></g></svg>