<?xml version="1.0" standalone="no"?>
<!DOCTYPE svg PUBLIC "-//W3C//DTD SVG 1.1//EN" "http://www.w3.org/Graphics/SVG/1.1/DTD/svg11.dtd" >
<svg xmlns="http://www.w3.org/2000/svg" width="100%" height="100%">
<metadata>
Created by FontXChange 20110222 at Mon May  9 10:58:16 2016
 By Creative4
 Copyright 1989, 1995, 2002 Fundicion Tipografica Neufville S.A.
 This record material and the data recorded thereon is the property of
 Fundicion Tipografica Neufville S.A. and Adobe Systems Incorporated,
 or its licensors, and may not be reproduced, used, displayed, modified,
 disclosed or transferred in any manner without the express written
 approval of Fundicion Tipografica Neufville S.A. and Adobe Systems
 Incorporated. 
</metadata>
<defs>
<font id="SerifaStd-Roman" horiz-adv-x="556" >
  <font-face 
    font-family="SerifaStd"
    font-weight="400"
    font-stretch="normal"
    units-per-em="1000"
    panose-1="2 6 6 3 3 5 5 2 2 4"
    ascent="654"
    descent="-346"
    x-height="456"
    cap-height="654"
    bbox="-150 -250 1000 881"
    underline-thickness="50"
    underline-position="-50"
    stemh="67"
    stemv="82"
    unicode-range="U+0020-FB02"
  />
<missing-glyph horiz-adv-x="500" 
d="M0 0v700h500v-700h-500zM250 395l170 255h-340zM280 350l170 -255v510zM80 50h340l-170 255zM50 605v-510l170 255z" />
    <glyph glyph-name="fi" unicode="fi" horiz-adv-x="611" 
d="M34 0v64h89v328h-89v64h89v58c0 109 72 150 200 150c100 0 173 -25 178 -136h-93c0 52 -40 72 -90 72c-67 0 -113 -31 -113 -88v-56h308v-392h79v-64h-240v64h79v328h-226v-328h79v-64h-250z" />
    <glyph glyph-name="fl" unicode="fl" horiz-adv-x="611" 
d="M34 0v64h89v328h-89v64h89v57c0 98 89 151 203 151c66 0 126 -10 187 -19v-581h79v-64h-240v64h79v524c-31 8 -64 12 -104 12c-80 0 -122 -45 -122 -88v-56h114v-64h-114v-328h79v-64h-250z" />
    <glyph glyph-name=".notdef" horiz-adv-x="500" 
d="M0 0v700h500v-700h-500zM250 395l170 255h-340zM280 350l170 -255v510zM80 50h340l-170 255zM50 605v-510l170 255z" />
    <glyph glyph-name="space" unicode=" " horiz-adv-x="278" 
 />
    <glyph glyph-name="exclam" unicode="!" horiz-adv-x="389" 
d="M245 654l-17 -498h-66l-17 498h100zM148 0v94h94v-94h-94z" />
    <glyph glyph-name="quotedbl" unicode="&#x22;" 
d="M158 424v230h76v-230h-76zM322 424v230h76v-230h-76z" />
    <glyph glyph-name="numbersign" unicode="#" 
d="M103 0l32 204h-103v58h111l20 132h-102v58h111l30 203h67l-30 -203h124l30 203h67l-30 -203h94v-58h-103l-20 -132h93v-58h-101l-31 -204h-67l31 204h-124l-31 -204h-68zM230 394l-20 -132h124l20 132h-124z" />
    <glyph glyph-name="dollar" unicode="$" 
d="M300 284v-230c60 5 122 43 122 122c0 59 -43 84 -122 108zM242 394v206c-53 -7 -102 -43 -102 -113c0 -42 35 -68 102 -93zM242 59v244c-118 34 -196 74 -196 184c0 112 93 177 196 177v86h58v-86c49 -11 95 -34 118 -73h3v63h76v-216h-77c4 93 -39 150 -120 162v-226
c3 -1 8 -3 12 -4c125 -39 204 -72 204 -194c0 -118 -93 -185 -216 -186v-93h-58v98c-49 11 -88 37 -115 81h-3v-76h-76v221h78c0 -87 43 -147 116 -162z" />
    <glyph glyph-name="percent" unicode="%" horiz-adv-x="889" 
d="M185 491c0 -51 14 -122 80 -122c62 0 70 71 70 122c0 57 -8 121 -70 121c-66 0 -80 -64 -80 -121zM115 491c0 91 43 173 150 173c104 0 140 -82 140 -173c0 -97 -37 -174 -140 -174c-108 0 -150 77 -150 174zM484 164c0 91 43 173 150 173c104 0 140 -82 140 -173
c0 -97 -37 -174 -140 -174c-108 0 -150 77 -150 174zM554 164c0 -51 14 -122 80 -122c62 0 70 71 70 122c0 57 -8 121 -70 121c-66 0 -80 -64 -80 -121zM225 -18l380 690h63l-380 -690h-63z" />
    <glyph glyph-name="ampersand" unicode="&#x26;" horiz-adv-x="778" 
d="M709 385v-64h-90c0 -67 -24 -134 -63 -190l66 -67h100v-64h-156l-68 69c-54 -60 -138 -79 -216 -79c-123 0 -225 59 -225 188c0 96 67 157 149 192c-46 42 -93 84 -93 155c0 97 89 139 182 139c95 0 176 -36 176 -139c0 -84 -65 -139 -137 -170l166 -170
c27 40 44 88 43 136h-81v64h247zM447 120l-189 194c-58 -26 -107 -69 -107 -136c0 -77 60 -124 134 -124c60 0 119 24 162 66zM207 525c0 -46 48 -89 77 -121c43 30 99 60 99 121c0 55 -37 75 -89 75c-47 0 -87 -23 -87 -75z" />
    <glyph glyph-name="quoteright" unicode="&#x2019;" horiz-adv-x="278" 
d="M89 554v100h100v-100l-42 -130h-58l43 130h-43z" />
    <glyph glyph-name="parenleft" unicode="(" horiz-adv-x="333" 
d="M275 -120h-75c-89 122 -153 290 -153 418c0 160 64 309 158 424h74c-91 -121 -138 -276 -138 -424c0 -147 52 -301 134 -418z" />
    <glyph glyph-name="parenright" unicode=")" horiz-adv-x="333" 
d="M58 722h75c89 -122 153 -290 153 -418c0 -160 -64 -309 -158 -424h-74c91 121 138 276 138 424c0 147 -52 301 -134 418z" />
    <glyph glyph-name="asterisk" unicode="*" 
d="M317 654l-17 -128l116 55l24 -77l-127 -21l88 -94l-70 -47l-54 115l-62 -112l-66 48l92 90l-125 25l24 77l116 -59l-19 128h80z" />
    <glyph glyph-name="plus" unicode="+" horiz-adv-x="600" 
d="M262 291v215h76v-215h215v-76h-215v-215h-76v215h-215v76h215z" />
    <glyph glyph-name="comma" unicode="," horiz-adv-x="278" 
d="M89 0v100h100v-100l-42 -130h-58l43 130h-43z" />
    <glyph glyph-name="hyphen" unicode="-" horiz-adv-x="333" 
d="M48 231v76h237v-76h-237z" />
    <glyph glyph-name="period" unicode="." horiz-adv-x="278" 
d="M89 0v100h100v-100h-100z" />
    <glyph glyph-name="slash" unicode="/" horiz-adv-x="389" 
d="M20 -10l273 674h76l-273 -674h-76z" />
    <glyph glyph-name="zero" unicode="0" 
d="M47 327c0 148 41 337 233 337c191 0 229 -189 229 -337c0 -165 -38 -337 -229 -337c-192 0 -233 172 -233 337zM141 327c0 -122 12 -273 139 -273c126 0 135 151 135 273c0 106 -9 273 -135 273c-127 0 -139 -167 -139 -273z" />
    <glyph glyph-name="one" unicode="1" 
d="M159 0v64h98v497c-45 -48 -102 -85 -156 -125v92c71 50 95 73 154 126h90v-590h99v-64h-285z" />
    <glyph glyph-name="two" unicode="2" 
d="M49 0v105c85 82 338 254 338 383c0 70 -45 112 -110 112c-78 0 -128 -53 -128 -136h-94c7 132 93 200 222 200c107 0 204 -57 204 -176c0 -172 -269 -345 -357 -424h290v108h76v-172h-441z" />
    <glyph glyph-name="three" unicode="3" 
d="M241 301v64c77 0 151 26 151 116c0 72 -42 119 -115 119c-72 0 -120 -50 -125 -123h-94c2 117 99 187 219 187c107 0 209 -43 209 -172c0 -93 -59 -152 -150 -161v-2c87 -1 157 -61 157 -157c0 -126 -92 -182 -216 -182c-130 0 -224 48 -224 191h94
c3 -82 50 -127 130 -127c64 0 122 48 122 118c0 98 -71 129 -158 129z" />
    <glyph glyph-name="four" unicode="4" 
d="M228 0v64h99v105h-301v96l280 389h109v-421h98v-64h-98v-105h98v-64h-285zM327 233v331h-2l-236 -331h238z" />
    <glyph glyph-name="five" unicode="5" 
d="M477 654v-64h-306l-11 -246h2c18 48 81 74 134 74c134 0 209 -71 209 -208c0 -141 -83 -220 -226 -220c-119 0 -211 56 -211 185h94c0 -66 43 -121 117 -121c90 0 138 56 138 156c0 85 -42 144 -133 144c-54 0 -108 -31 -124 -88h-82l11 388h388z" />
    <glyph glyph-name="six" unicode="6" 
d="M285 -10c-190 0 -232 163 -232 322c0 178 50 352 264 352c106 0 175 -58 175 -165h-88c0 66 -30 101 -99 101c-64 0 -107 -38 -132 -94c-23 -55 -32 -152 -32 -204h2c18 70 82 116 159 116c123 0 201 -81 201 -202c0 -136 -81 -226 -218 -226zM285 54
c85 0 124 74 124 150c0 86 -38 150 -124 150c-79 0 -129 -79 -129 -150c0 -80 45 -150 129 -150z" />
    <glyph glyph-name="seven" unicode="7" 
d="M512 654v-76c-96 -187 -180 -382 -256 -578h-94c81 202 186 426 267 590h-297v-126h-76v190h456z" />
    <glyph glyph-name="eight" unicode="8" 
d="M66 492c0 117 110 172 214 172c106 0 212 -48 212 -166c0 -93 -56 -145 -144 -159v-2c95 -15 150 -60 150 -161c0 -129 -99 -186 -218 -186c-118 0 -222 49 -222 182c0 96 58 155 151 166v1c-84 13 -143 64 -143 153zM154 484c0 -73 57 -117 126 -117s124 43 124 119
c0 78 -56 114 -124 114c-75 0 -126 -45 -126 -116zM146 180c0 -84 55 -126 134 -126c82 0 130 50 130 129c0 75 -48 120 -130 120c-75 0 -134 -42 -134 -123z" />
    <glyph glyph-name="nine" unicode="9" 
d="M271 664c190 0 232 -163 232 -322c0 -178 -50 -352 -264 -352c-106 0 -175 58 -175 165h88c0 -66 30 -101 99 -101c64 0 107 38 132 94c23 55 32 152 32 204h-2c-18 -70 -82 -116 -159 -116c-123 0 -201 81 -201 202c0 136 81 226 218 226zM260 300c79 0 133 76 133 150
c0 70 -39 150 -119 150c-98 0 -141 -74 -141 -150c0 -86 42 -150 127 -150z" />
    <glyph glyph-name="colon" unicode=":" horiz-adv-x="278" 
d="M89 0v100h100v-100h-100zM189 456v-100h-100v100h100z" />
    <glyph glyph-name="semicolon" unicode=";" horiz-adv-x="278" 
d="M89 0v100h100v-100l-42 -130h-58l43 130h-43zM189 456v-100h-100v100h100z" />
    <glyph glyph-name="less" unicode="&#x3c;" horiz-adv-x="600" 
d="M554 67v-75l-508 227v68l508 227v-75l-415 -186z" />
    <glyph glyph-name="equal" unicode="=" horiz-adv-x="600" 
d="M553 393v-76h-506v76h506zM553 189v-76h-506v76h506z" />
    <glyph glyph-name="greater" unicode="&#x3e;" horiz-adv-x="600" 
d="M46 67l415 186l-415 186v75l508 -227v-68l-508 -227v75z" />
    <glyph glyph-name="question" unicode="?" horiz-adv-x="500" 
d="M131 484h-94c4 118 102 180 216 180c105 0 199 -48 199 -160s-60 -148 -137 -218c-47 -43 -50 -71 -50 -130h-89c0 119 39 146 117 216c39 35 65 64 65 119c0 66 -42 103 -112 103c-72 0 -112 -44 -115 -110zM174 0v94h94v-94h-94z" />
    <glyph glyph-name="at" unicode="@" horiz-adv-x="800" 
d="M359 191c77 0 134 108 134 179c0 45 -34 84 -73 84c-77 0 -134 -101 -134 -177c0 -51 32 -86 73 -86zM521 448l18 55h61l-72 -251c-5 -16 -9 -32 -9 -45s6 -22 19 -22c63 0 128 97 128 193c0 141 -114 228 -251 228c-161 0 -275 -128 -275 -282c0 -156 122 -276 282 -276
c84 0 166 38 218 98h60c-59 -98 -166 -156 -280 -156c-193 0 -344 148 -344 339c0 187 154 335 339 335c167 0 309 -115 309 -279c0 -162 -135 -258 -215 -258c-30 0 -55 17 -57 55h-2c-25 -28 -66 -55 -107 -55c-78 0 -133 65 -133 143c0 121 83 248 208 248
c43 0 80 -20 103 -70z" />
    <glyph glyph-name="A" unicode="A" horiz-adv-x="778" 
d="M505 280l-119 289l-121 -289h240zM15 0v64h72l251 590h105l248 -590h72v-64h-269v64h100l-63 152h-293l-65 -155h102v-61h-260z" />
    <glyph glyph-name="B" unicode="B" horiz-adv-x="667" 
d="M218 590v-228h105c84 0 162 15 162 118c0 108 -94 110 -160 110h-107zM218 298v-234h107c93 0 180 15 180 120c0 99 -83 114 -180 114h-107zM29 0v64h101v526h-101v64h296c108 0 254 -4 254 -174c0 -70 -49 -131 -130 -143v-2c93 1 150 -54 150 -151
c0 -161 -130 -184 -274 -184h-296z" />
    <glyph glyph-name="C" unicode="C" horiz-adv-x="722" 
d="M662 654v-234h-76c-11 119 -82 180 -197 180c-150 0 -238 -89 -238 -273c0 -157 80 -273 238 -273c97 0 182 61 182 168h94c0 -166 -131 -232 -276 -232c-218 0 -332 127 -332 337s114 337 332 337c59 0 158 -27 195 -91h2v81h76z" />
    <glyph glyph-name="D" unicode="D" horiz-adv-x="722" 
d="M30 0v64h100v526h-100v64h241c238 0 405 -54 405 -326s-167 -328 -405 -328h-241zM218 590v-526h53c185 0 311 51 311 263s-126 263 -311 263h-53z" />
    <glyph glyph-name="E" unicode="E" horiz-adv-x="667" 
d="M40 0v64h100v526h-100v64h570v-198h-76v134h-306v-228h146v94h76v-252h-76v94h-146v-234h306v140h76v-204h-570z" />
    <glyph glyph-name="F" unicode="F" horiz-adv-x="611" 
d="M30 0v64h100v526h-101v64h553v-207h-76v143h-288v-228h143v85h76v-245h-76v96h-143v-234h119v-64h-307z" />
    <glyph glyph-name="G" unicode="G" horiz-adv-x="778" 
d="M653 654v-233h-75c-8 114 -74 179 -189 179c-150 0 -238 -89 -238 -273c0 -157 80 -273 238 -273c120 0 193 88 192 204h-111v64h281v-64h-89v-258h-82v93h-2c-38 -60 -118 -103 -189 -103c-218 0 -332 127 -332 337s114 337 332 337c66 0 153 -31 186 -92h2v82h76z" />
    <glyph glyph-name="H" unicode="H" horiz-adv-x="778" 
d="M648 64h100v-64h-288v64h100v234h-342v-234h100v-64h-288v64h100v526h-100v64h288v-64h-100v-228h342v228h-100v64h288v-64h-100v-526z" />
    <glyph glyph-name="I" unicode="I" horiz-adv-x="333" 
d="M23 0v64h100v526h-100v64h288v-64h-100v-526h100v-64h-288z" />
    <glyph glyph-name="J" unicode="J" horiz-adv-x="500" 
d="M485 654v-64h-80v-400c0 -99 -40 -200 -193 -200c-142 0 -193 80 -193 213h94c0 -72 21 -149 105 -149c96 0 99 110 99 156v380h-97v64h265z" />
    <glyph glyph-name="K" unicode="K" horiz-adv-x="667" 
d="M30 0v64h100v526h-100v64h288v-64h-100v-239l254 239h-83v64h249v-64h-54l-260 -242l266 -284h70v-64h-265v64h82l-259 281v-281h100v-64h-288z" />
    <glyph glyph-name="L" unicode="L" horiz-adv-x="611" 
d="M30 0v64h100v526h-100v64h306v-64h-118v-526h275v157h76v-221h-539z" />
    <glyph glyph-name="M" unicode="M" horiz-adv-x="944" 
d="M28 0v64h100v526h-100v64h254l189 -548h2l198 548h245v-64h-100v-526h100v-64h-278v64h90v526h-2l-214 -590h-80l-214 590h-2v-526h90v-64h-278z" />
    <glyph glyph-name="N" unicode="N" horiz-adv-x="778" 
d="M752 654v-64h-104v-590h-118l-316 572h-2v-508h100v-64h-286v64h104v526h-104v64h235l303 -552h2v488h-100v64h286z" />
    <glyph glyph-name="O" unicode="O" horiz-adv-x="778" 
d="M627 327c0 184 -88 273 -238 273s-238 -89 -238 -273c0 -157 88 -273 238 -273s238 116 238 273zM721 327c0 -210 -114 -337 -332 -337s-332 127 -332 337s114 337 332 337s332 -127 332 -337z" />
    <glyph glyph-name="P" unicode="P" horiz-adv-x="611" 
d="M218 590v-263h97c85 0 169 10 169 132c0 123 -84 131 -169 131h-97zM30 0v64h100v526h-100v64h285c138 0 263 -28 263 -195s-125 -196 -263 -196h-97v-199h120v-64h-308z" />
    <glyph glyph-name="Q" unicode="Q" horiz-adv-x="778" 
d="M389 54c150 0 238 116 238 273c0 184 -88 273 -238 273s-238 -89 -238 -273c0 -157 88 -273 238 -273zM389 -10c-218 0 -332 127 -332 337s114 337 332 337s332 -127 332 -337c0 -98 -31 -209 -119 -261v-2h160v-64h-233c-29 -2 -55 -5 -78 -7s-43 -3 -62 -3z" />
    <glyph glyph-name="R" unicode="R" horiz-adv-x="667" 
d="M218 590v-241h73c99 0 195 0 195 129c0 112 -108 112 -195 112h-73zM30 0v64h100v526h-100v64h278c133 0 272 -8 272 -176c0 -93 -54 -156 -148 -164v-2c46 -5 69 -25 84 -52c15 -28 22 -63 36 -100l28 -96h76v-64h-146l-44 145c-35 117 -46 140 -170 140h-78v-221h100
v-64h-288z" />
    <glyph glyph-name="S" unicode="S" 
d="M124 0h-76v221h78c0 -102 59 -167 159 -167c63 0 137 36 137 122c0 68 -58 91 -160 120c-128 36 -216 74 -216 191c0 120 105 177 221 177c58 0 123 -25 151 -73h3v63h76v-216h-77c4 105 -51 162 -153 162c-63 0 -127 -33 -127 -113c0 -55 62 -83 172 -117
c125 -39 204 -72 204 -194c0 -119 -95 -186 -220 -186c-73 0 -133 26 -169 86h-3v-76z" />
    <glyph glyph-name="T" unicode="T" horiz-adv-x="667" 
d="M181 0v64h108v526h-172v-150h-76v214h584v-214h-76v150h-172v-526h108v-64h-304z" />
    <glyph glyph-name="U" unicode="U" horiz-adv-x="722" 
d="M706 654v-64h-85v-340c0 -173 -88 -260 -260 -260c-210 0 -257 129 -257 260v340h-89v64h282v-64h-105v-340c0 -90 29 -196 171 -196c123 0 170 79 170 196v340h-98v64h271z" />
    <glyph glyph-name="V" unicode="V" horiz-adv-x="722" 
d="M707 654v-64h-57l-239 -590h-100l-239 590h-56v64h254v-64h-101l196 -501l199 501h-101v64h244z" />
    <glyph glyph-name="W" unicode="W" horiz-adv-x="1000" 
d="M984 654v-64h-59l-145 -590h-118l-158 580h-2l-162 -580h-118l-144 590h-59v64h248v-64h-103l122 -502h2l158 566h125l153 -566h2l123 502h-103v64h238z" />
    <glyph glyph-name="X" unicode="X" horiz-adv-x="722" 
d="M17 0v64h68l221 281l-193 245h-72v64h273v-64h-99l148 -188l148 188h-93v64h263v-64h-72l-193 -245l223 -281h65v-64h-280v64h108l-177 223l-176 -223h110v-64h-272z" />
    <glyph glyph-name="Y" unicode="Y" horiz-adv-x="667" 
d="M175 0v64h111v207l-216 319h-55v64h257v-64h-103l168 -247l173 247h-103v64h246v-64h-55l-224 -319v-207h111v-64h-310z" />
    <glyph glyph-name="Z" unicode="Z" horiz-adv-x="611" 
d="M571 0h-532v86l429 504h-346v-137h-76v201h515v-82l-432 -508h366v140h76v-204z" />
    <glyph glyph-name="bracketleft" unicode="[" horiz-adv-x="333" 
d="M244 722v-58h-79v-726h79v-58h-155v842h155z" />
    <glyph glyph-name="backslash" unicode="\" horiz-adv-x="389" 
d="M96 664l273 -674h-76l-273 674h76z" />
    <glyph glyph-name="bracketright" unicode="]" horiz-adv-x="333" 
d="M89 -120v58h79v726h-79v58h155v-842h-155z" />
    <glyph glyph-name="asciicircum" unicode="^" horiz-adv-x="600" 
d="M54 230l211 424h70l211 -424h-77l-169 344l-169 -344h-77z" />
    <glyph glyph-name="underscore" unicode="_" horiz-adv-x="500" 
d="M0 -125v50h500v-50h-500z" />
    <glyph glyph-name="quoteleft" unicode="&#x2018;" horiz-adv-x="278" 
d="M189 524v-100h-100v100l42 130h58l-43 -130h43z" />
    <glyph glyph-name="a" unicode="a" 
d="M375 0v94h-2c-20 -72 -80 -104 -153 -104c-91 0 -179 39 -179 141c0 139 136 147 246 147h88v27c0 73 -38 97 -110 97c-62 0 -113 -13 -119 -78h-88c6 105 98 142 196 142c108 0 203 -23 203 -141v-261h80v-64h-162zM129 131c0 -60 52 -77 101 -77c101 0 145 73 145 160
h-69c-59 0 -177 0 -177 -83z" />
    <glyph glyph-name="b" unicode="b" horiz-adv-x="611" 
d="M23 0v64h80v526h-80v64h162v-281h2c26 59 96 93 158 93c141 0 225 -92 225 -238c0 -143 -80 -238 -225 -238c-64 0 -136 36 -158 103h-2v-93h-162zM185 228c0 -103 51 -174 160 -174c87 0 137 71 137 174c0 92 -48 174 -137 174c-111 0 -160 -82 -160 -174z" />
    <glyph glyph-name="c" unicode="c" horiz-adv-x="500" 
d="M468 456v-172h-65c-7 72 -56 118 -129 118c-97 0 -149 -80 -149 -174s52 -174 149 -174c64 0 115 32 124 99h76c-4 -111 -98 -163 -200 -163c-142 0 -237 89 -237 238s95 238 237 238c51 0 102 -21 128 -67h2v57h64z" />
    <glyph glyph-name="d" unicode="d" horiz-adv-x="611" 
d="M426 0v87h-2c-24 -58 -91 -97 -162 -97c-152 0 -221 102 -221 238c0 140 85 238 221 238c65 0 137 -32 162 -94h2v218h-81v64h163v-590h80v-64h-162zM426 228c0 97 -46 174 -146 174c-104 0 -151 -77 -151 -174c0 -90 47 -174 151 -174c100 0 146 84 146 174z" />
    <glyph glyph-name="e" unicode="e" 
d="M511 205h-375c0 -105 59 -151 166 -151c52 0 124 29 129 88h76c-3 -112 -120 -152 -216 -152c-148 0 -243 89 -243 238s95 238 243 238c162 0 219 -115 220 -261zM136 269h293c-5 83 -55 133 -144 133c-79 0 -149 -49 -149 -133z" />
    <glyph glyph-name="f" unicode="f" horiz-adv-x="333" 
d="M34 0v64h79v328h-89v64h89v49c0 109 43 159 167 159c25 0 50 -5 76 -8v-64c-26 3 -52 8 -78 8c-73 0 -83 -46 -83 -95v-49h109v-64h-109v-328h99v-64h-260z" />
    <glyph glyph-name="g" unicode="g" horiz-adv-x="611" 
d="M588 456v-64h-80v-243c0 -70 8 -167 -24 -230c-37 -71 -124 -94 -210 -94c-100 0 -218 18 -214 135h94c0 -62 64 -71 119 -71c115 0 153 49 153 161v51h-2c-26 -66 -98 -95 -165 -95c-138 0 -222 93 -222 232c0 133 79 228 219 228c71 0 139 -27 169 -93h1v83h162z
M125 238c0 -95 50 -168 152 -168c101 0 149 76 149 168c0 88 -47 164 -141 164c-108 0 -160 -60 -160 -164z" />
    <glyph glyph-name="h" unicode="h" horiz-adv-x="611" 
d="M39 0v64h79v526h-79v64h161v-281h2c22 58 85 93 153 93c114 0 162 -57 162 -166v-236h79v-64h-240v64h79v219c0 73 -25 119 -105 119c-88 0 -130 -62 -130 -143v-195h79v-64h-240z" />
    <glyph glyph-name="i" unicode="i" horiz-adv-x="278" 
d="M28 0v64h79v328h-79v64h161v-392h79v-64h-240zM189 654v-94h-94v94h94z" />
    <glyph glyph-name="j" unicode="j" horiz-adv-x="278" 
d="M196 456v-471c0 -117 -26 -160 -124 -160c-27 0 -49 5 -71 9v63c19 -5 40 -8 61 -8c34 0 52 13 52 96v407h-84v64h166zM196 654v-94h-94v94h94z" />
    <glyph glyph-name="k" unicode="k" 
d="M27 0v64h79v526h-79v64h161v-413l180 149v2h-72v64h231v-64h-66l-124 -103l145 -225h56v-64h-210v64h60l-112 175l-88 -73v-102h72v-64h-233z" />
    <glyph glyph-name="l" unicode="l" horiz-adv-x="278" 
d="M28 0v64h79v526h-79v64h161v-590h79v-64h-240z" />
    <glyph glyph-name="m" unicode="m" horiz-adv-x="889" 
d="M29 0v64h79v328h-79v64h161v-81h2c19 58 75 91 144 91c71 0 119 -27 147 -91c26 58 81 91 145 91c105 0 164 -54 164 -159v-243h79v-64h-240v64h79v192c0 70 -3 146 -98 146c-89 0 -121 -69 -121 -146v-192h79v-64h-240v64h79v192c3 78 1 146 -96 146
c-89 0 -123 -74 -123 -151v-187h79v-64h-240z" />
    <glyph glyph-name="n" unicode="n" horiz-adv-x="611" 
d="M39 0v64h79v328h-79v64h161v-83h2c22 58 85 93 153 93c114 0 162 -57 162 -166v-236h79v-64h-240v64h79v219c0 73 -25 119 -105 119c-88 0 -130 -62 -130 -143v-195h79v-64h-240z" />
    <glyph glyph-name="o" unicode="o" 
d="M125 228c0 -94 52 -174 155 -174s151 80 151 174s-48 174 -151 174s-155 -80 -155 -174zM37 228c0 149 95 238 243 238s239 -89 239 -238s-91 -238 -239 -238s-243 89 -243 238z" />
    <glyph glyph-name="p" unicode="p" horiz-adv-x="611" 
d="M23 -165v64h80v493h-80v64h162v-91h2c23 59 83 101 158 101c141 0 225 -92 225 -238c0 -143 -80 -238 -225 -238c-71 0 -128 33 -158 98h-2v-189h80v-64h-242zM185 228c0 -103 51 -174 160 -174c87 0 137 71 137 174c0 92 -48 174 -137 174c-111 0 -160 -82 -160 -174z
" />
    <glyph glyph-name="q" unicode="q" horiz-adv-x="611" 
d="M129 221c0 -94 51 -167 150 -167s147 81 147 172c0 89 -47 176 -147 176c-111 0 -150 -82 -150 -181zM588 456v-64h-80v-493h80v-64h-241v64h79v178h-2c-33 -58 -98 -87 -170 -87c-131 0 -213 105 -213 231c0 141 70 245 219 245c69 0 141 -39 164 -101h2v91h162z" />
    <glyph glyph-name="r" unicode="r" horiz-adv-x="389" 
d="M35 0v64h79v328h-79v64h161v-93h2c14 69 71 103 140 103c15 0 26 -1 37 -2v-67c-13 2 -30 5 -49 5c-115 0 -130 -121 -130 -214v-124h94v-64h-255z" />
    <glyph glyph-name="s" unicode="s" horiz-adv-x="500" 
d="M118 0h-64v159h64c1 -44 20 -70 47 -85c28 -16 65 -20 102 -20c39 0 94 22 94 71c0 62 -67 61 -117 68c-84 14 -186 24 -186 130c0 97 93 143 177 143c59 0 114 -19 139 -65h2v55h64v-150h-64c0 40 -14 64 -37 78c-22 14 -53 18 -88 18c-48 0 -111 -13 -111 -71
c0 -52 78 -53 137 -64c81 -14 172 -27 172 -130c0 -106 -97 -147 -190 -147c-54 0 -118 21 -139 73h-2v-63z" />
    <glyph glyph-name="t" unicode="t" horiz-adv-x="389" 
d="M338 456v-64h-149v-266c0 -38 7 -72 50 -72c49 0 52 48 52 86h70c0 -94 -36 -150 -134 -150c-116 0 -120 79 -120 172v230h-89v64h89v100l82 28v-128h149z" />
    <glyph glyph-name="u" unicode="u" horiz-adv-x="611" 
d="M499 456v-392h79v-64h-161v79h-2c-18 -56 -83 -89 -149 -89c-118 0 -166 59 -166 166v236h-79v64h161v-283c0 -73 23 -119 105 -119c89 0 130 60 130 143v195h-79v64h161z" />
    <glyph glyph-name="v" unicode="v" 
d="M542 456v-64h-56l-161 -392h-100l-156 392h-56v64h224v-64h-83l124 -316l130 316h-83v64h217z" />
    <glyph glyph-name="w" unicode="w" horiz-adv-x="889" 
d="M873 456v-64h-60l-135 -392h-106l-126 381h-2l-131 -381h-106l-132 392h-60v64h237v-64h-90l102 -316h2l127 380h113l123 -380h2l106 316h-90v64h226z" />
    <glyph glyph-name="x" unicode="x" 
d="M15 0v64h52l160 169l-153 159h-50v64h221v-64h-67l107 -117l112 117h-76v64h213v-64h-50l-151 -159l157 -169h51v-64h-230v64h75l-114 125l-118 -125h82v-64h-221z" />
    <glyph glyph-name="y" unicode="y" 
d="M544 456v-64h-50l-187 -435c-33 -78 -55 -132 -148 -132c-21 0 -42 3 -63 6v62c15 -1 31 -4 48 -4c69 0 72 57 100 111l-177 392h-50v64h228v-64h-88l131 -306l129 306h-88v64h215z" />
    <glyph glyph-name="z" unicode="z" horiz-adv-x="500" 
d="M49 0v64l299 328h-221v-89h-70v153h391v-64l-302 -328h237v99h70v-163h-404z" />
    <glyph glyph-name="braceleft" unicode="{" horiz-adv-x="333" 
d="M306 722v-64h-49c-35 0 -45 -38 -45 -83v-133c0 -98 -64 -135 -84 -140v-2c20 -6 84 -39 84 -143v-130c-1 -44 10 -83 45 -83h49v-64h-67c-51 0 -103 47 -103 129v132c0 74 -34 128 -80 128v64c46 0 80 52 80 125v135c0 82 52 129 103 129h67z" />
    <glyph glyph-name="bar" unicode="|" horiz-adv-x="222" 
d="M73 750h76v-1000h-76v1000z" />
    <glyph glyph-name="braceright" unicode="}" horiz-adv-x="333" 
d="M27 -120v64h49c35 0 45 38 45 83v133c0 98 64 135 84 140v2c-20 6 -84 39 -84 143v130c1 44 -10 83 -45 83h-49v64h67c51 0 103 -47 103 -129v-132c0 -74 34 -128 80 -128v-64c-46 0 -80 -52 -80 -125v-135c0 -82 -52 -129 -103 -129h-67z" />
    <glyph glyph-name="asciitilde" unicode="~" horiz-adv-x="600" 
d="M105 180l-36 56c22 42 58 86 121 86c33 0 62 -9 96 -24l41 -18c25 -11 47 -28 80 -28c40 0 65 39 88 74l36 -56c-30 -42 -63 -86 -124 -86c-28 0 -55 8 -81 21l-48 25c-22 12 -61 22 -88 22c-45 0 -69 -37 -85 -72z" />
    <glyph glyph-name="exclamdown" unicode="&#xa1;" horiz-adv-x="389" 
d="M144 -165l17 498h66l17 -498h-100zM241 489v-94h-94v94h94z" />
    <glyph glyph-name="cent" unicode="&#xa2;" 
d="M271 59v340c-77 -15 -115 -85 -115 -169s38 -154 115 -171zM323 402v-347c57 4 98 39 105 98h76c-4 -102 -83 -156 -181 -162v-76h-52v78c-127 14 -203 104 -203 237c0 128 74 227 203 236v76h52v-76c46 -7 86 -27 109 -71h2v61h64v-172h-65c-6 66 -48 111 -110 118z" />
    <glyph glyph-name="sterling" unicode="&#xa3;" 
d="M35 0v64h83v257h-87v64h87v60c0 135 52 219 200 219c115 0 172 -41 180 -160h-82c0 65 -39 96 -98 96c-86 0 -118 -60 -118 -140v-75h126v-64h-126v-257h215v102h76v-166h-456z" />
    <glyph glyph-name="fraction" unicode="&#x2044;" horiz-adv-x="167" 
d="M-150 -18l407 690h60l-407 -690h-60z" />
    <glyph glyph-name="yen" unicode="&#xa5;" 
d="M205 654v-64h-74l150 -244l155 244h-76v64h205v-64h-53l-160 -255h135v-52h-167l-7 -11v-66h174v-52h-174v-90h100v-64h-276v64h100v90h-174v52h174v66l-7 11h-167v52h136l-155 255h-53v64h214z" />
    <glyph glyph-name="florin" unicode="&#x192;" 
d="M160 392l13 64h94l12 67c13 73 45 141 137 141c26 0 51 -6 76 -12l-13 -61c-12 5 -26 9 -39 9c-45 0 -65 -26 -75 -80l-12 -64h103l-13 -64h-103l-70 -364c-20 -103 -28 -173 -138 -173c-17 0 -35 1 -55 5l12 62c14 -2 26 -3 35 -3c42 0 51 68 64 124l66 349h-94z" />
    <glyph glyph-name="section" unicode="&#xa7;" 
d="M78 57h94c0 -81 37 -104 109 -104c49 0 105 23 105 86c0 68 -87 77 -192 115c-68 23 -118 51 -118 140c0 51 37 96 90 108v2c-55 20 -82 58 -82 120c0 97 102 140 187 140c123 0 196 -25 196 -167h-94c0 76 -28 103 -100 103c-43 0 -101 -16 -101 -76
c0 -45 47 -67 106 -88l79 -28c66 -25 123 -59 123 -130c0 -56 -32 -101 -85 -118v-2c55 -18 79 -58 79 -119c0 -108 -97 -150 -193 -150c-113 0 -205 40 -203 168zM320 334l-107 40c-28 -14 -49 -47 -49 -80c0 -42 26 -52 59 -64l122 -43c24 13 47 40 47 71
c0 50 -35 61 -72 76z" />
    <glyph glyph-name="currency" unicode="&#xa4;" 
d="M26 121l56 56c-33 41 -52 93 -52 150s19 110 52 151l-56 56l46 46l56 -56c42 32 94 51 150 51s107 -18 149 -51l58 56l46 -46l-57 -56c33 -41 52 -94 52 -151c0 -56 -18 -107 -51 -149l56 -55l-46 -46l-56 55c-40 -33 -93 -53 -151 -53c-56 0 -109 19 -150 52l-56 -56z
M106 327c0 -107 77 -178 172 -178s172 71 172 178s-77 178 -172 178s-172 -71 -172 -178z" />
    <glyph glyph-name="quotesingle" unicode="'" horiz-adv-x="278" 
d="M101 424v230h76v-230h-76z" />
    <glyph glyph-name="quotedblleft" unicode="&#x201c;" 
d="M422 524v-100h-100v100l42 130h58l-43 -130h43zM234 524v-100h-100v100l42 130h58l-43 -130h43z" />
    <glyph glyph-name="guillemotleft" unicode="&#xab;" 
d="M109 230l82 198h76l-81 -198l78 -198h-73zM289 230l82 198h76l-81 -198l78 -198h-73z" />
    <glyph glyph-name="guilsinglleft" unicode="&#x2039;" horiz-adv-x="278" 
d="M60 230l82 198h76l-81 -198l78 -198h-73z" />
    <glyph glyph-name="guilsinglright" unicode="&#x203a;" horiz-adv-x="278" 
d="M218 230l-82 -198h-76l81 198l-78 198h73z" />
    <glyph glyph-name="endash" unicode="&#x2013;" horiz-adv-x="500" 
d="M0 237v64h500v-64h-500z" />
    <glyph glyph-name="dagger" unicode="&#x2020;" 
d="M237 0v402h-168v70h168v182h82v-182h168v-70h-168v-402h-82z" />
    <glyph glyph-name="daggerdbl" unicode="&#x2021;" 
d="M237 0v153h-166v70h166v205h-166v70h166v156h82v-156h166v-70h-166v-205h166v-70h-166v-153h-82z" />
    <glyph glyph-name="periodcentered" unicode="&#xb7;" horiz-adv-x="278" 
d="M71 262c0 37 32 68 68 68c38 0 68 -31 68 -68s-30 -68 -68 -68c-36 0 -68 31 -68 68z" />
    <glyph glyph-name="paragraph" unicode="&#xb6;" horiz-adv-x="600" 
d="M241 -120v400c-127 0 -213 80 -213 184c0 132 91 190 231 190h250v-774h-76v710h-116v-710h-76z" />
    <glyph glyph-name="bullet" unicode="&#x2022;" horiz-adv-x="500" 
d="M86 327c0 91 73 164 163 164s164 -73 164 -164c0 -89 -74 -163 -164 -163s-163 74 -163 163z" />
    <glyph glyph-name="quotesinglbase" unicode="&#x201a;" horiz-adv-x="278" 
d="M89 0v100h100v-100l-42 -130h-58l43 130h-43z" />
    <glyph glyph-name="quotedblbase" unicode="&#x201e;" 
d="M322 0v100h100v-100l-42 -130h-58l43 130h-43zM134 0v100h100v-100l-42 -130h-58l43 130h-43z" />
    <glyph glyph-name="quotedblright" unicode="&#x201d;" 
d="M322 554v100h100v-100l-42 -130h-58l43 130h-43zM134 554v100h100v-100l-42 -130h-58l43 130h-43z" />
    <glyph glyph-name="guillemotright" unicode="&#xbb;" 
d="M447 230l-82 -198h-76l81 198l-78 198h73zM267 230l-82 -198h-76l81 198l-78 198h73z" />
    <glyph glyph-name="ellipsis" unicode="&#x2026;" horiz-adv-x="1000" 
d="M117 0v100h100v-100h-100zM450 0v100h100v-100h-100zM783 0v100h100v-100h-100z" />
    <glyph glyph-name="perthousand" unicode="&#x2030;" horiz-adv-x="1000" 
d="M366 156c0 83 41 166 141 166c95 0 140 -83 140 -166c0 -90 -45 -166 -140 -166c-100 0 -141 76 -141 166zM436 156c0 -52 11 -114 71 -114c62 0 70 62 70 114c0 44 -8 114 -70 114c-60 0 -71 -70 -71 -114zM10 498c0 83 41 166 141 166c95 0 140 -83 140 -166
c0 -90 -45 -166 -140 -166c-100 0 -141 76 -141 166zM80 498c0 -52 11 -114 71 -114c62 0 70 62 70 114c0 44 -8 114 -70 114c-60 0 -71 -70 -71 -114zM709 156c0 83 41 166 141 166c95 0 140 -83 140 -166c0 -90 -45 -166 -140 -166c-100 0 -141 76 -141 166zM779 156
c0 -52 11 -114 71 -114c62 0 70 62 70 114c0 44 -8 114 -70 114c-60 0 -71 -70 -71 -114zM108 -18l378 690h64l-380 -690h-62z" />
    <glyph glyph-name="questiondown" unicode="&#xbf;" horiz-adv-x="500" 
d="M369 5h94c-4 -118 -102 -180 -216 -180c-105 0 -199 48 -199 160s60 148 137 218c47 43 50 71 50 130h89c0 -119 -39 -146 -117 -216c-39 -35 -65 -64 -65 -119c0 -66 42 -103 112 -103c72 0 112 44 115 110zM326 489v-94h-94v94h94z" />
    <glyph glyph-name="grave" unicode="`" horiz-adv-x="278" 
d="M7 668h110l86 -144h-64z" />
    <glyph glyph-name="acute" unicode="&#xb4;" horiz-adv-x="278" 
d="M271 668l-132 -144h-64l86 144h110z" />
    <glyph glyph-name="circumflex" unicode="&#x2c6;" horiz-adv-x="278" 
d="M-12 524l104 144h95l103 -144h-78l-69 92l-68 -92h-87z" />
    <glyph glyph-name="tilde" unicode="&#x2dc;" horiz-adv-x="278" 
d="M27 552h-51c8 53 43 108 103 108c24 0 44 -6 64 -14l31 -12c17 -7 33 -13 51 -13c26 0 40 24 43 47h52c-5 -58 -46 -109 -98 -109c-22 0 -43 7 -66 15l-29 10c-20 7 -40 14 -52 14c-28 0 -42 -22 -48 -46z" />
    <glyph glyph-name="macron" unicode="&#xaf;" horiz-adv-x="278" 
d="M0 569v64h278v-64h-278z" />
    <glyph glyph-name="breve" unicode="&#x2d8;" horiz-adv-x="278" 
d="M-10 677h52c0 -56 54 -78 104 -78s104 22 104 78h52c0 -95 -68 -142 -156 -142s-156 47 -156 142z" />
    <glyph glyph-name="dotaccent" unicode="&#x2d9;" horiz-adv-x="278" 
d="M186 663v-100h-94v100h94z" />
    <glyph glyph-name="dieresis" unicode="&#xa8;" horiz-adv-x="278" 
d="M-3 563v100h94v-100h-94zM281 663v-100h-94v100h94z" />
    <glyph glyph-name="ring" unicode="&#x2da;" horiz-adv-x="278" 
d="M37 616c0 56 45 102 102 102c56 0 102 -46 102 -102c0 -57 -46 -102 -102 -102c-57 0 -102 45 -102 102zM81 616c0 -32 27 -58 58 -58c30 0 58 26 58 58c0 33 -28 56 -58 58c-31 0 -60 -27 -58 -58z" />
    <glyph glyph-name="cedilla" unicode="&#xb8;" horiz-adv-x="278" 
d="M64 -83l63 83h44l-43 -60c12 2 24 5 41 5c43 0 75 -23 75 -72c0 -56 -62 -87 -111 -87c-36 0 -71 7 -105 19l19 35c19 -7 50 -16 71 -16c30 0 50 17 50 44c0 24 -21 39 -41 39c-16 0 -32 -4 -47 -7z" />
    <glyph glyph-name="hungarumlaut" unicode="&#x2dd;" horiz-adv-x="278" 
d="M191 668l-132 -144h-64l86 144h110zM351 668l-131 -144h-64l86 144h109z" />
    <glyph glyph-name="ogonek" unicode="&#x2db;" horiz-adv-x="278" 
d="M242 -140l22 -25c-23 -33 -59 -49 -94 -49c-31 0 -97 3 -97 79c0 57 45 99 104 135h55c-58 -47 -83 -82 -83 -125c0 -27 13 -45 37 -45c22 0 42 13 56 30z" />
    <glyph glyph-name="caron" unicode="&#x2c7;" horiz-adv-x="278" 
d="M-12 668h87l68 -92l69 92h78l-103 -144h-95z" />
    <glyph glyph-name="emdash" unicode="&#x2014;" horiz-adv-x="1000" 
d="M0 237v64h1000v-64h-1000z" />
    <glyph glyph-name="AE" unicode="&#xc6;" horiz-adv-x="1000" 
d="M510 280l-46 310h-2l-189 -310h237zM13 0v64h41l357 590h529v-198h-76v134h-314l34 -228h130v94h76v-252h-76v94h-121l35 -234h236v140h76v-204h-497v64h99l-23 152h-285l-93 -152h101v-64h-229z" />
    <glyph glyph-name="ordfeminine" unicode="&#xaa;" horiz-adv-x="361" 
d="M245 388v58h-2c-10 -43 -49 -64 -96 -64c-59 0 -117 25 -117 86c0 85 97 92 162 92c22 0 38 -5 53 -5v17c0 27 -18 48 -69 48c-40 0 -73 -8 -76 -38h-58c3 61 63 82 127 82c70 0 134 -13 134 -83v-149h49v-44h-107zM88 468c0 -29 34 -42 65 -42c49 2 92 24 92 89
c-12 0 -26 1 -40 1c-41 0 -117 0 -117 -48z" />
    <glyph glyph-name="Lslash" unicode="&#x141;" horiz-adv-x="611" 
d="M30 0v64h100v154l-84 -59v76l84 59v296h-100v64h306v-64h-118v-234l184 129v-76l-184 -129v-216h275v157h76v-221h-539z" />
    <glyph glyph-name="Oslash" unicode="&#xd8;" horiz-adv-x="778" 
d="M75 0l69 79c-58 59 -87 145 -87 248c0 210 114 337 332 337c89 0 161 -21 213 -60l70 80l37 -30l-71 -82c56 -57 83 -139 83 -245c0 -210 -114 -337 -332 -337c-87 0 -157 20 -209 58l-68 -78zM202 145l349 401c-39 36 -94 54 -162 54c-150 0 -238 -89 -238 -273
c0 -68 17 -133 51 -182zM583 509l-350 -400c38 -35 90 -55 156 -55c158 0 238 116 238 273c0 81 -15 139 -44 182z" />
    <glyph glyph-name="OE" unicode="&#x152;" horiz-adv-x="1000" 
d="M931 654v-198h-76v134h-275v-228h122v94h76v-252h-76v94h-122v-234h279v140h76v-204h-380c-60 0 -94 -4 -120 -7c-21 -3 -39 -3 -46 -3c-218 0 -332 127 -332 337s114 337 332 337c18 0 71 -3 120 -7c47 -4 93 -3 140 -3h282zM492 65v525c-31 3 -64 10 -103 10
c-150 0 -238 -89 -238 -273c0 -157 88 -273 238 -273c43 0 74 6 103 11z" />
    <glyph glyph-name="ordmasculine" unicode="&#xba;" horiz-adv-x="361" 
d="M88 525c0 -51 33 -99 94 -99s91 48 91 99c0 49 -30 95 -92 95c-60 0 -93 -46 -93 -95zM24 525c0 81 62 139 158 139s155 -58 155 -139c0 -90 -59 -143 -155 -143s-158 53 -158 143z" />
    <glyph glyph-name="ae" unicode="&#xe6;" horiz-adv-x="778" 
d="M746 205h-322c0 -86 43 -151 137 -151c54 0 103 35 103 92h76c-4 -112 -85 -156 -190 -156c-74 0 -153 39 -173 112h-2c-22 -75 -98 -112 -172 -112c-91 0 -167 45 -167 143c0 120 110 136 206 136h106v39c0 61 -24 94 -102 94c-55 0 -98 -20 -104 -74h-88
c4 105 104 138 186 138c77 0 134 -14 162 -76c30 52 83 76 150 76c168 0 196 -109 194 -261zM424 269h240c0 73 -20 133 -108 133c-84 0 -131 -60 -132 -133zM348 205h-105c-55 -1 -119 -3 -119 -75c0 -56 41 -76 92 -76c96 0 132 75 132 151z" />
    <glyph glyph-name="dotlessi" unicode="&#x131;" horiz-adv-x="278" 
d="M28 0v64h79v328h-79v64h161v-392h79v-64h-240z" />
    <glyph glyph-name="lslash" unicode="&#x142;" horiz-adv-x="278" 
d="M28 0v64h79v229l-70 -54v71l70 54v226h-79v64h161v-225l70 57v-71l-70 -57v-294h79v-64h-240z" />
    <glyph glyph-name="oslash" unicode="&#xf8;" 
d="M155 120l218 250c-24 21 -55 32 -93 32c-103 0 -155 -80 -155 -174c0 -41 10 -79 30 -108zM402 338l-220 -250c24 -21 57 -34 98 -34c103 0 151 80 151 174c0 42 -9 80 -29 110zM49 0l51 58c-41 39 -63 98 -63 170c0 149 95 238 243 238c57 0 106 -13 144 -38l53 60
l31 -30l-51 -57c40 -41 62 -100 62 -173c0 -149 -91 -238 -239 -238c-60 0 -111 14 -149 41l-51 -57z" />
    <glyph glyph-name="oe" unicode="&#x153;" horiz-adv-x="833" 
d="M803 205h-330c0 -78 49 -151 135 -151c60 0 108 27 112 92h76c-1 -112 -84 -156 -185 -156c-81 0 -148 37 -176 108c-39 -76 -94 -108 -179 -108c-143 0 -219 104 -219 239c0 134 78 237 223 237c74 0 153 -28 175 -101h2c25 66 92 101 170 101c168 0 196 -116 196 -261z
M473 269h248c0 70 -24 133 -116 133c-83 0 -130 -61 -132 -133zM125 229c0 -87 31 -175 133 -175c100 0 139 91 139 177c0 83 -31 171 -133 171c-108 0 -139 -83 -139 -173z" />
    <glyph glyph-name="germandbls" unicode="&#xdf;" 
d="M17 0v64h79v388c0 131 57 212 198 212c115 0 200 -40 200 -164c0 -92 -61 -137 -148 -141v-2c102 -8 172 -65 172 -166c0 -156 -85 -191 -228 -191v64c93 0 140 29 140 127c0 93 -62 131 -147 131v64c72 0 123 34 123 114c0 65 -44 100 -106 100
c-97 0 -122 -63 -122 -148v-388h49v-64h-210z" />
    <glyph glyph-name="onesuperior" unicode="&#xb9;" horiz-adv-x="361" 
d="M87 265v52h65v283c-26 -25 -63 -47 -98 -71v55c46 30 62 44 100 74h62v-341h61v-52h-190z" />
    <glyph glyph-name="logicalnot" unicode="&#xac;" horiz-adv-x="600" 
d="M477 107v210h-430v76h506v-286h-76z" />
    <glyph glyph-name="mu" unicode="&#xb5;" horiz-adv-x="611" 
d="M499 456v-392h79v-64h-161v79h-2c-18 -56 -83 -89 -149 -89c-37 0 -64 6 -84 17v-172h-82v557h-79v64h161v-283c0 -73 23 -119 105 -119c89 0 130 60 130 143v195h-79v64h161z" />
    <glyph glyph-name="trademark" unicode="&#x2122;" horiz-adv-x="990" 
d="M926 654v-412h-76v336h-2l-129 -336h-50l-129 336h-2v-336h-76v412h115l118 -303l116 303h115zM394 654v-64h-127v-348h-76v348h-127v64h330z" />
    <glyph glyph-name="Eth" unicode="&#xd0;" horiz-adv-x="722" 
d="M218 590v-217h172v-64h-172v-245h53c185 0 311 51 311 263s-126 263 -311 263h-53zM30 0v64h100v245h-100v64h100v217h-100v64h241c238 0 405 -54 405 -326s-167 -328 -405 -328h-241z" />
    <glyph glyph-name="onehalf" unicode="&#xbd;" horiz-adv-x="834" 
d="M154 -18l407 690h60l-407 -690h-60zM70 265v52h65v283c-26 -25 -63 -47 -98 -71v55c46 30 62 44 100 74h62v-341h61v-52h-190zM493 0v63c55 50 211 154 211 216c0 40 -21 68 -63 68c-50 0 -76 -34 -77 -76h-64c2 85 57 128 141 128c70 0 134 -33 133 -120
c4 -91 -166 -180 -214 -227h169v51h52v-103h-288z" />
    <glyph glyph-name="plusminus" unicode="&#xb1;" horiz-adv-x="600" 
d="M262 346v160h76v-160h215v-76h-215v-160h-76v160h-215v76h215zM47 0v76h506v-76h-506z" />
    <glyph glyph-name="Thorn" unicode="&#xde;" horiz-adv-x="611" 
d="M218 460v-263h97c85 0 169 10 169 132c0 123 -84 131 -169 131h-97zM30 0v64h100v526h-100v64h306v-64h-118v-66h97c138 0 263 -28 263 -195s-125 -196 -263 -196h-97v-69h118v-64h-306z" />
    <glyph glyph-name="onequarter" unicode="&#xbc;" horiz-adv-x="834" 
d="M564 0v52h60v47h-191v63l182 231h73v-242h61v-52h-61v-47h61v-52h-185zM624 151v183h-2l-145 -183h147zM174 -18l407 690h60l-407 -690h-60zM92 265v52h65v283c-26 -25 -63 -47 -98 -71v55c46 30 62 44 100 74h62v-341h61v-52h-190z" />
    <glyph glyph-name="divide" unicode="&#xf7;" horiz-adv-x="600" 
d="M47 215v76h506v-76h-506zM232 460c0 38 32 68 68 68c37 0 68 -31 68 -68c0 -34 -31 -68 -67 -68c-37 0 -69 31 -69 68zM232 46c0 38 32 68 68 68c37 0 68 -31 68 -68c0 -34 -31 -68 -67 -68c-37 0 -69 31 -69 68z" />
    <glyph glyph-name="brokenbar" unicode="&#xa6;" horiz-adv-x="222" 
d="M73 675h76v-350h-76v350zM73 175h76v-350h-76v350z" />
    <glyph glyph-name="degree" unicode="&#xb0;" horiz-adv-x="400" 
d="M104 516c0 -53 43 -96 96 -96s96 43 96 96s-43 96 -96 96s-96 -43 -96 -96zM52 516c0 85 63 148 148 148s148 -63 148 -148s-63 -148 -148 -148s-148 63 -148 148z" />
    <glyph glyph-name="thorn" unicode="&#xfe;" horiz-adv-x="611" 
d="M23 -165v64h80v691h-80v64h162v-289h2c23 59 83 101 170 101c129 0 213 -92 213 -238c0 -143 -80 -238 -225 -238c-71 0 -128 33 -158 98h-2v-189h80v-64h-242zM185 228c0 -103 51 -174 160 -174c87 0 137 71 137 174c0 92 -48 174 -137 174c-111 0 -160 -82 -160 -174z
" />
    <glyph glyph-name="threequarters" unicode="&#xbe;" horiz-adv-x="834" 
d="M566 0v52h60v47h-191v63l182 231h73v-242h61v-52h-61v-47h61v-52h-185zM626 151v183h-2l-145 -183h147zM181 -18l407 690h60l-407 -690h-60zM155 440v52c50 0 89 17 89 63c0 29 -19 57 -66 57s-72 -29 -75 -75h-64c-1 83 61 127 139 127c70 0 136 -28 136 -105
c0 -52 -38 -87 -98 -92v-2c57 -1 103 -31 103 -94c0 -76 -60 -112 -141 -112c-83 0 -143 31 -143 133h64c2 -54 27 -81 79 -81c42 0 71 29 71 64c0 51 -40 67 -94 65z" />
    <glyph glyph-name="twosuperior" unicode="&#xb2;" horiz-adv-x="361" 
d="M37 265v63c55 50 211 154 211 216c0 40 -21 68 -63 68c-50 0 -76 -34 -77 -76h-64c2 85 57 128 141 128c70 0 134 -33 133 -120c4 -91 -166 -180 -214 -227h169v51h52v-103h-288z" />
    <glyph glyph-name="registered" unicode="&#xae;" horiz-adv-x="800" 
d="M400 -10c-186 0 -337 151 -337 337s151 337 337 337s337 -151 337 -337s-151 -337 -337 -337zM400 48c159 0 267 120 267 279s-108 279 -267 279s-267 -120 -267 -279s108 -279 267 -279zM269 130v393h149c97 0 138 -35 138 -112c0 -74 -33 -100 -101 -110l112 -171h-67
l-105 169h-68v-169h-58zM327 351h72c57 0 99 4 99 64c0 49 -39 58 -89 56h-82v-120z" />
    <glyph glyph-name="minus" unicode="&#x2212;" horiz-adv-x="600" 
d="M553 215h-506v76h506v-76z" />
    <glyph glyph-name="eth" unicode="&#xf0;" 
d="M125 228c0 -94 52 -174 155 -174s151 75 151 174c0 104 -48 174 -151 174s-155 -80 -155 -174zM293 625l107 55l36 -39l-99 -50c93 -71 182 -171 182 -363c0 -139 -91 -238 -239 -238s-243 89 -243 238s95 238 243 238c46 0 84 -18 119 -48h2c-35 55 -81 100 -135 139
l-100 -50l-36 37l91 47c-25 21 -54 37 -81 53l56 42c33 -19 66 -38 97 -61z" />
    <glyph glyph-name="multiply" unicode="&#xd7;" horiz-adv-x="600" 
d="M249 253l-178 178l51 51l177 -178l179 178l51 -51l-179 -178l179 -178l-51 -51l-179 179l-177 -179l-51 51z" />
    <glyph glyph-name="threesuperior" unicode="&#xb3;" horiz-adv-x="361" 
d="M159 440v52c50 0 89 17 89 63c0 29 -19 57 -66 57s-72 -29 -75 -75h-64c-1 83 61 127 139 127c70 0 136 -28 136 -105c0 -52 -38 -87 -98 -92v-2c57 -1 103 -31 103 -94c0 -76 -60 -112 -141 -112c-83 0 -143 31 -143 133h64c2 -54 27 -81 79 -81c42 0 71 29 71 64
c0 51 -40 67 -94 65z" />
    <glyph glyph-name="copyright" unicode="&#xa9;" horiz-adv-x="800" 
d="M518 264h62c-18 -90 -85 -145 -169 -145c-122 0 -202 91 -202 209c0 120 76 208 199 208c87 0 158 -49 171 -141h-61c-11 49 -52 83 -109 83c-84 0 -130 -65 -130 -149c0 -81 50 -152 132 -152c58 0 99 36 107 87zM400 -10c-186 0 -337 151 -337 337s151 337 337 337
s337 -151 337 -337s-151 -337 -337 -337zM400 48c159 0 267 120 267 279s-108 279 -267 279s-267 -120 -267 -279s108 -279 267 -279z" />
    <glyph glyph-name="Aacute" unicode="&#xc1;" horiz-adv-x="778" 
d="M505 280l-119 289l-121 -289h240zM15 0v64h72l251 590h105l248 -590h72v-64h-269v64h100l-63 152h-293l-65 -155h102v-61h-260zM521 844l-132 -144h-64l86 144h110z" />
    <glyph glyph-name="Acircumflex" unicode="&#xc2;" horiz-adv-x="778" 
d="M505 280l-119 289l-121 -289h240zM15 0v64h72l251 590h105l248 -590h72v-64h-269v64h100l-63 152h-293l-65 -155h102v-61h-260zM238 700l104 144h95l103 -144h-78l-69 92l-68 -92h-87z" />
    <glyph glyph-name="Adieresis" unicode="&#xc4;" horiz-adv-x="778" 
d="M505 280l-119 289l-121 -289h240zM15 0v64h72l251 590h105l248 -590h72v-64h-269v64h100l-63 152h-293l-65 -155h102v-61h-260zM247 739v100h94v-100h-94zM531 839v-100h-94v100h94z" />
    <glyph glyph-name="Agrave" unicode="&#xc0;" horiz-adv-x="778" 
d="M505 280l-119 289l-121 -289h240zM15 0v64h72l251 590h105l248 -590h72v-64h-269v64h100l-63 152h-293l-65 -155h102v-61h-260zM257 844h110l86 -144h-64z" />
    <glyph glyph-name="Aring" unicode="&#xc5;" horiz-adv-x="778" 
d="M505 280l-119 289l-121 -289h240zM15 0v64h72l251 590h105l248 -590h72v-64h-269v64h100l-63 152h-293l-65 -155h102v-61h-260zM287 779c0 56 45 102 102 102c56 0 102 -46 102 -102c0 -57 -46 -102 -102 -102c-57 0 -102 45 -102 102zM331 779c0 -32 27 -58 58 -58
c30 0 58 26 58 58c0 33 -28 56 -58 58c-31 0 -60 -27 -58 -58z" />
    <glyph glyph-name="Atilde" unicode="&#xc3;" horiz-adv-x="778" 
d="M505 280l-119 289l-121 -289h240zM15 0v64h72l251 590h105l248 -590h72v-64h-269v64h100l-63 152h-293l-65 -155h102v-61h-260zM277 728h-51c8 53 43 108 103 108c24 0 44 -6 64 -14l31 -12c17 -7 33 -13 51 -13c26 0 40 24 43 47h52c-5 -58 -46 -109 -98 -109
c-22 0 -43 7 -66 15l-29 10c-20 7 -40 14 -52 14c-28 0 -42 -22 -48 -46z" />
    <glyph glyph-name="Ccedilla" unicode="&#xc7;" horiz-adv-x="722" 
d="M662 654v-234h-76c-11 119 -82 180 -197 180c-150 0 -238 -89 -238 -273c0 -157 80 -273 238 -273c97 0 182 61 182 168h94c0 -166 -131 -232 -276 -232h-3l-36 -50c12 2 24 5 41 5c43 0 75 -23 75 -72c0 -56 -62 -87 -111 -87c-36 0 -71 7 -105 19l19 35
c19 -7 50 -16 71 -16c30 0 50 17 50 44c0 24 -21 39 -41 39c-16 0 -32 -4 -47 -7l-16 17l57 75c-188 17 -286 141 -286 335c0 210 114 337 332 337c59 0 158 -27 195 -91h2v81h76z" />
    <glyph glyph-name="Eacute" unicode="&#xc9;" horiz-adv-x="667" 
d="M40 0v64h100v526h-100v64h570v-198h-76v134h-306v-228h146v94h76v-252h-76v94h-146v-234h306v140h76v-204h-570zM466 844l-132 -144h-64l86 144h110z" />
    <glyph glyph-name="Ecircumflex" unicode="&#xca;" horiz-adv-x="667" 
d="M40 0v64h100v526h-100v64h570v-198h-76v134h-306v-228h146v94h76v-252h-76v94h-146v-234h306v140h76v-204h-570zM183 700l104 144h95l103 -144h-78l-69 92l-68 -92h-87z" />
    <glyph glyph-name="Edieresis" unicode="&#xcb;" horiz-adv-x="667" 
d="M40 0v64h100v526h-100v64h570v-198h-76v134h-306v-228h146v94h76v-252h-76v94h-146v-234h306v140h76v-204h-570zM192 739v100h94v-100h-94zM476 839v-100h-94v100h94z" />
    <glyph glyph-name="Egrave" unicode="&#xc8;" horiz-adv-x="667" 
d="M40 0v64h100v526h-100v64h570v-198h-76v134h-306v-228h146v94h76v-252h-76v94h-146v-234h306v140h76v-204h-570zM202 844h110l86 -144h-64z" />
    <glyph glyph-name="Iacute" unicode="&#xcd;" horiz-adv-x="333" 
d="M23 0v64h100v526h-100v64h288v-64h-100v-526h100v-64h-288zM299 844l-132 -144h-64l86 144h110z" />
    <glyph glyph-name="Icircumflex" unicode="&#xce;" horiz-adv-x="333" 
d="M23 0v64h100v526h-100v64h288v-64h-100v-526h100v-64h-288zM16 700l104 144h95l103 -144h-78l-69 92l-68 -92h-87z" />
    <glyph glyph-name="Idieresis" unicode="&#xcf;" horiz-adv-x="333" 
d="M23 0v64h100v526h-100v64h288v-64h-100v-526h100v-64h-288zM25 739v100h94v-100h-94zM309 839v-100h-94v100h94z" />
    <glyph glyph-name="Igrave" unicode="&#xcc;" horiz-adv-x="333" 
d="M23 0v64h100v526h-100v64h288v-64h-100v-526h100v-64h-288zM35 844h110l86 -144h-64z" />
    <glyph glyph-name="Ntilde" unicode="&#xd1;" horiz-adv-x="778" 
d="M752 654v-64h-104v-590h-118l-316 572h-2v-508h100v-64h-286v64h104v526h-104v64h235l303 -552h2v488h-100v64h286zM277 728h-51c8 53 43 108 103 108c24 0 44 -6 64 -14l31 -12c17 -7 33 -13 51 -13c26 0 40 24 43 47h52c-5 -58 -46 -109 -98 -109c-22 0 -43 7 -66 15
l-29 10c-20 7 -40 14 -52 14c-28 0 -42 -22 -48 -46z" />
    <glyph glyph-name="Oacute" unicode="&#xd3;" horiz-adv-x="778" 
d="M627 327c0 184 -88 273 -238 273s-238 -89 -238 -273c0 -157 88 -273 238 -273s238 116 238 273zM721 327c0 -210 -114 -337 -332 -337s-332 127 -332 337s114 337 332 337s332 -127 332 -337zM521 844l-132 -144h-64l86 144h110z" />
    <glyph glyph-name="Ocircumflex" unicode="&#xd4;" horiz-adv-x="778" 
d="M627 327c0 184 -88 273 -238 273s-238 -89 -238 -273c0 -157 88 -273 238 -273s238 116 238 273zM721 327c0 -210 -114 -337 -332 -337s-332 127 -332 337s114 337 332 337s332 -127 332 -337zM238 700l104 144h95l103 -144h-78l-69 92l-68 -92h-87z" />
    <glyph glyph-name="Odieresis" unicode="&#xd6;" horiz-adv-x="778" 
d="M627 327c0 184 -88 273 -238 273s-238 -89 -238 -273c0 -157 88 -273 238 -273s238 116 238 273zM721 327c0 -210 -114 -337 -332 -337s-332 127 -332 337s114 337 332 337s332 -127 332 -337zM247 739v100h94v-100h-94zM531 839v-100h-94v100h94z" />
    <glyph glyph-name="Ograve" unicode="&#xd2;" horiz-adv-x="778" 
d="M627 327c0 184 -88 273 -238 273s-238 -89 -238 -273c0 -157 88 -273 238 -273s238 116 238 273zM721 327c0 -210 -114 -337 -332 -337s-332 127 -332 337s114 337 332 337s332 -127 332 -337zM257 844h110l86 -144h-64z" />
    <glyph glyph-name="Otilde" unicode="&#xd5;" horiz-adv-x="778" 
d="M627 327c0 184 -88 273 -238 273s-238 -89 -238 -273c0 -157 88 -273 238 -273s238 116 238 273zM721 327c0 -210 -114 -337 -332 -337s-332 127 -332 337s114 337 332 337s332 -127 332 -337zM277 728h-51c8 53 43 108 103 108c24 0 44 -6 64 -14l31 -12
c17 -7 33 -13 51 -13c26 0 40 24 43 47h52c-5 -58 -46 -109 -98 -109c-22 0 -43 7 -66 15l-29 10c-20 7 -40 14 -52 14c-28 0 -42 -22 -48 -46z" />
    <glyph glyph-name="Scaron" unicode="&#x160;" 
d="M124 0h-76v221h78c0 -102 59 -167 159 -167c63 0 137 36 137 122c0 68 -58 91 -160 120c-128 36 -216 74 -216 191c0 120 105 177 221 177c58 0 123 -25 151 -73h3v63h76v-216h-77c4 105 -51 162 -153 162c-63 0 -127 -33 -127 -113c0 -55 62 -83 172 -117
c125 -39 204 -72 204 -194c0 -119 -95 -186 -220 -186c-73 0 -133 26 -169 86h-3v-76zM127 866h87l68 -92l69 92h78l-103 -144h-95z" />
    <glyph glyph-name="Uacute" unicode="&#xda;" horiz-adv-x="722" 
d="M706 654v-64h-85v-340c0 -173 -88 -260 -260 -260c-210 0 -257 129 -257 260v340h-89v64h282v-64h-105v-340c0 -90 29 -196 171 -196c123 0 170 79 170 196v340h-98v64h271zM493 844l-132 -144h-64l86 144h110z" />
    <glyph glyph-name="Ucircumflex" unicode="&#xdb;" horiz-adv-x="722" 
d="M706 654v-64h-85v-340c0 -173 -88 -260 -260 -260c-210 0 -257 129 -257 260v340h-89v64h282v-64h-105v-340c0 -90 29 -196 171 -196c123 0 170 79 170 196v340h-98v64h271zM210 700l104 144h95l103 -144h-78l-69 92l-68 -92h-87z" />
    <glyph glyph-name="Udieresis" unicode="&#xdc;" horiz-adv-x="722" 
d="M706 654v-64h-85v-340c0 -173 -88 -260 -260 -260c-210 0 -257 129 -257 260v340h-89v64h282v-64h-105v-340c0 -90 29 -196 171 -196c123 0 170 79 170 196v340h-98v64h271zM219 739v100h94v-100h-94zM503 839v-100h-94v100h94z" />
    <glyph glyph-name="Ugrave" unicode="&#xd9;" horiz-adv-x="722" 
d="M706 654v-64h-85v-340c0 -173 -88 -260 -260 -260c-210 0 -257 129 -257 260v340h-89v64h282v-64h-105v-340c0 -90 29 -196 171 -196c123 0 170 79 170 196v340h-98v64h271zM229 844h110l86 -144h-64z" />
    <glyph glyph-name="Yacute" unicode="&#xdd;" horiz-adv-x="667" 
d="M175 0v64h111v207l-216 319h-55v64h257v-64h-103l168 -247l173 247h-103v64h246v-64h-55l-224 -319v-207h111v-64h-310zM466 844l-132 -144h-64l86 144h110z" />
    <glyph glyph-name="Ydieresis" unicode="&#x178;" horiz-adv-x="667" 
d="M175 0v64h111v207l-216 319h-55v64h257v-64h-103l168 -247l173 247h-103v64h246v-64h-55l-224 -319v-207h111v-64h-310zM192 739v100h94v-100h-94zM476 839v-100h-94v100h94z" />
    <glyph glyph-name="Zcaron" unicode="&#x17d;" horiz-adv-x="611" 
d="M571 0h-532v86l429 504h-346v-137h-76v201h515v-82l-432 -508h366v140h76v-204zM155 866h87l68 -92l69 92h78l-103 -144h-95z" />
    <glyph glyph-name="aacute" unicode="&#xe1;" 
d="M375 0v94h-2c-20 -72 -80 -104 -153 -104c-91 0 -179 39 -179 141c0 139 136 147 246 147h88v27c0 73 -38 97 -110 97c-62 0 -113 -13 -119 -78h-88c6 105 98 142 196 142c108 0 203 -23 203 -141v-261h80v-64h-162zM129 131c0 -60 52 -77 101 -77c101 0 145 73 145 160
h-69c-59 0 -177 0 -177 -83zM410 668l-132 -144h-64l86 144h110z" />
    <glyph glyph-name="acircumflex" unicode="&#xe2;" 
d="M375 0v94h-2c-20 -72 -80 -104 -153 -104c-91 0 -179 39 -179 141c0 139 136 147 246 147h88v27c0 73 -38 97 -110 97c-62 0 -113 -13 -119 -78h-88c6 105 98 142 196 142c108 0 203 -23 203 -141v-261h80v-64h-162zM129 131c0 -60 52 -77 101 -77c101 0 145 73 145 160
h-69c-59 0 -177 0 -177 -83zM127 524l104 144h95l103 -144h-78l-69 92l-68 -92h-87z" />
    <glyph glyph-name="adieresis" unicode="&#xe4;" 
d="M375 0v94h-2c-20 -72 -80 -104 -153 -104c-91 0 -179 39 -179 141c0 139 136 147 246 147h88v27c0 73 -38 97 -110 97c-62 0 -113 -13 -119 -78h-88c6 105 98 142 196 142c108 0 203 -23 203 -141v-261h80v-64h-162zM129 131c0 -60 52 -77 101 -77c101 0 145 73 145 160
h-69c-59 0 -177 0 -177 -83zM136 563v100h94v-100h-94zM420 663v-100h-94v100h94z" />
    <glyph glyph-name="agrave" unicode="&#xe0;" 
d="M375 0v94h-2c-20 -72 -80 -104 -153 -104c-91 0 -179 39 -179 141c0 139 136 147 246 147h88v27c0 73 -38 97 -110 97c-62 0 -113 -13 -119 -78h-88c6 105 98 142 196 142c108 0 203 -23 203 -141v-261h80v-64h-162zM129 131c0 -60 52 -77 101 -77c101 0 145 73 145 160
h-69c-59 0 -177 0 -177 -83zM146 668h110l86 -144h-64z" />
    <glyph glyph-name="aring" unicode="&#xe5;" 
d="M375 0v94h-2c-20 -72 -80 -104 -153 -104c-91 0 -179 39 -179 141c0 139 136 147 246 147h88v27c0 73 -38 97 -110 97c-62 0 -113 -13 -119 -78h-88c6 105 98 142 196 142c108 0 203 -23 203 -141v-261h80v-64h-162zM129 131c0 -60 52 -77 101 -77c101 0 145 73 145 160
h-69c-59 0 -177 0 -177 -83zM176 616c0 56 45 102 102 102c56 0 102 -46 102 -102c0 -57 -46 -102 -102 -102c-57 0 -102 45 -102 102zM220 616c0 -32 27 -58 58 -58c30 0 58 26 58 58c0 33 -28 56 -58 58c-31 0 -60 -27 -58 -58z" />
    <glyph glyph-name="atilde" unicode="&#xe3;" 
d="M375 0v94h-2c-20 -72 -80 -104 -153 -104c-91 0 -179 39 -179 141c0 139 136 147 246 147h88v27c0 73 -38 97 -110 97c-62 0 -113 -13 -119 -78h-88c6 105 98 142 196 142c108 0 203 -23 203 -141v-261h80v-64h-162zM129 131c0 -60 52 -77 101 -77c101 0 145 73 145 160
h-69c-59 0 -177 0 -177 -83zM166 552h-51c8 53 43 108 103 108c24 0 44 -6 64 -14l31 -12c17 -7 33 -13 51 -13c26 0 40 24 43 47h52c-5 -58 -46 -109 -98 -109c-22 0 -43 7 -66 15l-29 10c-20 7 -40 14 -52 14c-28 0 -42 -22 -48 -46z" />
    <glyph glyph-name="ccedilla" unicode="&#xe7;" horiz-adv-x="500" 
d="M468 456v-172h-65c-7 72 -56 118 -129 118c-97 0 -149 -80 -149 -174s52 -174 149 -174c64 0 115 32 124 99h76c-4 -111 -98 -163 -199 -163l-36 -50c12 2 24 5 41 5c43 0 75 -23 75 -72c0 -56 -62 -87 -111 -87c-36 0 -71 7 -105 19l19 35c19 -7 50 -16 71 -16
c30 0 50 17 50 44c0 24 -21 39 -41 39c-16 0 -32 -4 -47 -7l-16 17l58 76c-120 16 -196 102 -196 235c0 149 95 238 237 238c51 0 102 -21 128 -67h2v57h64z" />
    <glyph glyph-name="eacute" unicode="&#xe9;" 
d="M511 205h-375c0 -105 59 -151 166 -151c52 0 124 29 129 88h76c-3 -112 -120 -152 -216 -152c-148 0 -243 89 -243 238s95 238 243 238c162 0 219 -115 220 -261zM136 269h293c-5 83 -55 133 -144 133c-79 0 -149 -49 -149 -133zM410 668l-132 -144h-64l86 144h110z" />
    <glyph glyph-name="ecircumflex" unicode="&#xea;" 
d="M511 205h-375c0 -105 59 -151 166 -151c52 0 124 29 129 88h76c-3 -112 -120 -152 -216 -152c-148 0 -243 89 -243 238s95 238 243 238c162 0 219 -115 220 -261zM136 269h293c-5 83 -55 133 -144 133c-79 0 -149 -49 -149 -133zM127 524l104 144h95l103 -144h-78l-69 92
l-68 -92h-87z" />
    <glyph glyph-name="edieresis" unicode="&#xeb;" 
d="M511 205h-375c0 -105 59 -151 166 -151c52 0 124 29 129 88h76c-3 -112 -120 -152 -216 -152c-148 0 -243 89 -243 238s95 238 243 238c162 0 219 -115 220 -261zM136 269h293c-5 83 -55 133 -144 133c-79 0 -149 -49 -149 -133zM136 563v100h94v-100h-94zM420 663v-100
h-94v100h94z" />
    <glyph glyph-name="egrave" unicode="&#xe8;" 
d="M511 205h-375c0 -105 59 -151 166 -151c52 0 124 29 129 88h76c-3 -112 -120 -152 -216 -152c-148 0 -243 89 -243 238s95 238 243 238c162 0 219 -115 220 -261zM136 269h293c-5 83 -55 133 -144 133c-79 0 -149 -49 -149 -133zM146 668h110l86 -144h-64z" />
    <glyph glyph-name="iacute" unicode="&#xed;" horiz-adv-x="278" 
d="M28 0v64h79v328h-79v64h161v-392h79v-64h-240zM271 668l-132 -144h-64l86 144h110z" />
    <glyph glyph-name="icircumflex" unicode="&#xee;" horiz-adv-x="278" 
d="M28 0v64h79v328h-79v64h161v-392h79v-64h-240zM-12 524l104 144h95l103 -144h-78l-69 92l-68 -92h-87z" />
    <glyph glyph-name="idieresis" unicode="&#xef;" horiz-adv-x="278" 
d="M28 0v64h79v328h-79v64h161v-392h79v-64h-240zM-3 563v100h94v-100h-94zM281 663v-100h-94v100h94z" />
    <glyph glyph-name="igrave" unicode="&#xec;" horiz-adv-x="278" 
d="M28 0v64h79v328h-79v64h161v-392h79v-64h-240zM7 668h110l86 -144h-64z" />
    <glyph glyph-name="ntilde" unicode="&#xf1;" horiz-adv-x="611" 
d="M39 0v64h79v328h-79v64h161v-83h2c22 58 85 93 153 93c114 0 162 -57 162 -166v-236h79v-64h-240v64h79v219c0 73 -25 119 -105 119c-88 0 -130 -62 -130 -143v-195h79v-64h-240zM194 552h-51c8 53 43 108 103 108c24 0 44 -6 64 -14l31 -12c17 -7 33 -13 51 -13
c26 0 40 24 43 47h52c-5 -58 -46 -109 -98 -109c-22 0 -43 7 -66 15l-29 10c-20 7 -40 14 -52 14c-28 0 -42 -22 -48 -46z" />
    <glyph glyph-name="oacute" unicode="&#xf3;" 
d="M125 228c0 -94 52 -174 155 -174s151 80 151 174s-48 174 -151 174s-155 -80 -155 -174zM37 228c0 149 95 238 243 238s239 -89 239 -238s-91 -238 -239 -238s-243 89 -243 238zM410 668l-132 -144h-64l86 144h110z" />
    <glyph glyph-name="ocircumflex" unicode="&#xf4;" 
d="M125 228c0 -94 52 -174 155 -174s151 80 151 174s-48 174 -151 174s-155 -80 -155 -174zM37 228c0 149 95 238 243 238s239 -89 239 -238s-91 -238 -239 -238s-243 89 -243 238zM127 524l104 144h95l103 -144h-78l-69 92l-68 -92h-87z" />
    <glyph glyph-name="odieresis" unicode="&#xf6;" 
d="M125 228c0 -94 52 -174 155 -174s151 80 151 174s-48 174 -151 174s-155 -80 -155 -174zM37 228c0 149 95 238 243 238s239 -89 239 -238s-91 -238 -239 -238s-243 89 -243 238zM136 563v100h94v-100h-94zM420 663v-100h-94v100h94z" />
    <glyph glyph-name="ograve" unicode="&#xf2;" 
d="M125 228c0 -94 52 -174 155 -174s151 80 151 174s-48 174 -151 174s-155 -80 -155 -174zM37 228c0 149 95 238 243 238s239 -89 239 -238s-91 -238 -239 -238s-243 89 -243 238zM146 668h110l86 -144h-64z" />
    <glyph glyph-name="otilde" unicode="&#xf5;" 
d="M125 228c0 -94 52 -174 155 -174s151 80 151 174s-48 174 -151 174s-155 -80 -155 -174zM37 228c0 149 95 238 243 238s239 -89 239 -238s-91 -238 -239 -238s-243 89 -243 238zM166 552h-51c8 53 43 108 103 108c24 0 44 -6 64 -14l31 -12c17 -7 33 -13 51 -13
c26 0 40 24 43 47h52c-5 -58 -46 -109 -98 -109c-22 0 -43 7 -66 15l-29 10c-20 7 -40 14 -52 14c-28 0 -42 -22 -48 -46z" />
    <glyph glyph-name="scaron" unicode="&#x161;" horiz-adv-x="500" 
d="M118 0h-64v159h64c1 -44 20 -70 47 -85c28 -16 65 -20 102 -20c39 0 94 22 94 71c0 62 -67 61 -117 68c-84 14 -186 24 -186 130c0 97 93 143 177 143c59 0 114 -19 139 -65h2v55h64v-150h-64c0 40 -14 64 -37 78c-22 14 -53 18 -88 18c-48 0 -111 -13 -111 -71
c0 -52 78 -53 137 -64c81 -14 172 -27 172 -130c0 -106 -97 -147 -190 -147c-54 0 -118 21 -139 73h-2v-63zM99 668h87l68 -92l69 92h78l-103 -144h-95z" />
    <glyph glyph-name="uacute" unicode="&#xfa;" horiz-adv-x="611" 
d="M499 456v-392h79v-64h-161v79h-2c-18 -56 -83 -89 -149 -89c-118 0 -166 59 -166 166v236h-79v64h161v-283c0 -73 23 -119 105 -119c89 0 130 60 130 143v195h-79v64h161zM438 668l-132 -144h-64l86 144h110z" />
    <glyph glyph-name="ucircumflex" unicode="&#xfb;" horiz-adv-x="611" 
d="M499 456v-392h79v-64h-161v79h-2c-18 -56 -83 -89 -149 -89c-118 0 -166 59 -166 166v236h-79v64h161v-283c0 -73 23 -119 105 -119c89 0 130 60 130 143v195h-79v64h161zM140 524l104 144h95l103 -144h-78l-69 92l-68 -92h-87z" />
    <glyph glyph-name="udieresis" unicode="&#xfc;" horiz-adv-x="611" 
d="M499 456v-392h79v-64h-161v79h-2c-18 -56 -83 -89 -149 -89c-118 0 -166 59 -166 166v236h-79v64h161v-283c0 -73 23 -119 105 -119c89 0 130 60 130 143v195h-79v64h161zM149 563v100h94v-100h-94zM433 663v-100h-94v100h94z" />
    <glyph glyph-name="ugrave" unicode="&#xf9;" horiz-adv-x="611" 
d="M499 456v-392h79v-64h-161v79h-2c-18 -56 -83 -89 -149 -89c-118 0 -166 59 -166 166v236h-79v64h161v-283c0 -73 23 -119 105 -119c89 0 130 60 130 143v195h-79v64h161zM159 668h110l86 -144h-64z" />
    <glyph glyph-name="yacute" unicode="&#xfd;" 
d="M544 456v-64h-50l-187 -435c-33 -78 -55 -132 -148 -132c-21 0 -42 3 -63 6v62c15 -1 31 -4 48 -4c69 0 72 57 100 111l-177 392h-50v64h228v-64h-88l131 -306l129 306h-88v64h215zM410 668l-132 -144h-64l86 144h110z" />
    <glyph glyph-name="ydieresis" unicode="&#xff;" 
d="M544 456v-64h-50l-187 -435c-33 -78 -55 -132 -148 -132c-21 0 -42 3 -63 6v62c15 -1 31 -4 48 -4c69 0 72 57 100 111l-177 392h-50v64h228v-64h-88l131 -306l129 306h-88v64h215zM136 563v100h94v-100h-94zM420 663v-100h-94v100h94z" />
    <glyph glyph-name="zcaron" unicode="&#x17e;" horiz-adv-x="500" 
d="M49 0v64l299 328h-221v-89h-70v153h391v-64l-302 -328h237v99h70v-163h-404zM99 668h87l68 -92l69 92h78l-103 -144h-95z" />
    <glyph glyph-name="Delta" unicode="&#x2206;" horiz-adv-x="646" 
d="M29 0v51l249 616h93l245 -615v-52h-587zM111 63h419l-142 348c-17 49 -53 132 -65 174h-4c-9 -33 -42 -109 -59 -158z" />
    <glyph glyph-name="Omega" unicode="&#x2126;" horiz-adv-x="721" 
d="M196 63v2c-70 57 -134 154 -134 284c0 180 129 311 301 311c181 0 295 -149 295 -307c0 -135 -68 -236 -136 -288v-2h150v-63h-243v47c76 45 150 142 150 292c-1 122 -75 257 -216 257c-135 0 -222 -116 -222 -260c0 -139 74 -246 150 -289v-47h-243v63h148z" />
    <glyph glyph-name="uni03BC" unicode="&#x3bc;" horiz-adv-x="611" 
d="M499 456v-392h79v-64h-161v79h-2c-18 -56 -83 -89 -149 -89c-37 0 -64 6 -84 17v-172h-82v557h-79v64h161v-283c0 -73 23 -119 105 -119c89 0 130 60 130 143v195h-79v64h161z" />
    <glyph glyph-name="pi" unicode="&#x3c0;" horiz-adv-x="569" 
d="M544 418h-79v-277c0 -79 6 -115 14 -141h-77c-10 15 -17 56 -17 134v284h-177c-5 -119 -35 -332 -71 -418h-78c37 99 67 296 71 418c-61 0 -89 -4 -111 -12l-11 51c25 16 67 26 144 26h400z" />
    <glyph glyph-name="Euro" unicode="&#x20ac;" 
d="M14 223l19 63h47c-1 14 -2 27 -2 42c0 7 2 15 2 23h-66l19 63h53c23 146 109 248 242 248c51 0 90 -20 113 -60v52h76v-182v-1h-77c-4 113 -93 120 -112 120c-76 0 -135 -75 -153 -177h217l-19 -63h-205c0 -7 -1 -13 -1 -20c0 -15 0 -30 2 -45h193l-19 -63h-167
c17 -90 61 -161 146 -161c69 0 116 43 118 113h85v-3c0 -54 -35 -181 -201 -181c-139 0 -215 90 -237 232h-73z" />
    <glyph glyph-name="afii61289" unicode="&#x2113;" horiz-adv-x="485" 
d="M424 150l37 -33c-45 -84 -111 -123 -189 -123c-110 0 -158 79 -164 168v11c-18 -13 -37 -29 -56 -44l-24 45c28 23 55 42 79 64v251c0 172 77 228 154 228c86 0 126 -71 126 -154c0 -118 -82 -228 -205 -342v-29c1 -95 52 -136 107 -136c62 0 110 50 135 94zM182 498
v-203c84 88 150 177 150 266c0 58 -19 99 -70 99c-36 0 -80 -39 -80 -162z" />
    <glyph glyph-name="estimated" unicode="&#x212e;" horiz-adv-x="813" 
d="M780 318h-606c-3 0 -5 -1 -5 -4v-184c0 -8 3 -15 8 -21c59 -61 140 -100 229 -100c97 0 183 44 242 112h53c-66 -79 -175 -130 -296 -130c-206 0 -374 150 -374 336s168 337 374 337c208 0 375 -151 375 -337v-9zM643 341v185c0 8 -3 16 -9 22c-59 58 -139 96 -228 96
c-88 0 -169 -39 -228 -99c-6 -6 -9 -14 -9 -23v-181c0 -2 2 -6 5 -6h465c3 0 4 4 4 6z" />
    <glyph glyph-name="partialdiff" unicode="&#x2202;" horiz-adv-x="544" 
d="M100 621l-27 55c32 25 85 54 168 54c132 0 253 -119 253 -354c0 -211 -90 -382 -261 -382c-132 0 -193 115 -193 216c0 145 98 237 210 237c93 0 150 -66 165 -94h1c2 11 2 30 2 42c0 162 -84 271 -185 271c-63 0 -106 -24 -133 -45zM240 57h1c93 0 152 110 166 225
c-14 39 -66 103 -143 103c-80 0 -146 -78 -146 -174c0 -87 49 -154 122 -154z" />
    <glyph glyph-name="product" unicode="&#x220f;" horiz-adv-x="695" 
d="M670 580h-109v-670h-77v670h-273v-670h-77v670h-110v69h646v-69z" />
    <glyph glyph-name="summation" unicode="&#x2211;" horiz-adv-x="549" 
d="M528 -90h-506v50l263 318l-252 318v53h480v-67h-370v-3l232 -290l-251 -304v-3h404v-72z" />
    <glyph glyph-name="uni2219" unicode="&#x2219;" horiz-adv-x="278" 
d="M71 262c0 37 32 68 68 68c38 0 68 -31 68 -68s-30 -68 -68 -68c-36 0 -68 31 -68 68z" />
    <glyph glyph-name="radical" unicode="&#x221a;" horiz-adv-x="564" 
d="M568 771l-221 -910h-68l-157 429l-74 -28l-16 45l137 54l126 -348c6 -21 13 -46 17 -65h1c3 18 9 44 14 67l183 756h58z" />
    <glyph glyph-name="infinity" unicode="&#x221e;" horiz-adv-x="754" 
d="M704 270v-1c0 -95 -72 -155 -149 -155c-60 0 -110 37 -177 115c-52 -59 -104 -115 -183 -115s-146 65 -146 151c0 89 65 154 153 154c73 0 128 -54 179 -115c49 55 99 115 181 115c84 0 142 -61 142 -149zM201 161h2c61 0 108 60 148 102c-43 53 -86 111 -155 111
c-61 0 -97 -51 -97 -110c1 -56 41 -103 102 -103zM557 374h-1c-65 0 -116 -71 -150 -106c64 -71 101 -107 153 -107c60 0 95 54 95 104c0 68 -42 109 -97 109z" />
    <glyph glyph-name="integral" unicode="&#x222b;" horiz-adv-x="350" 
d="M335 781l-12 -53c-8 5 -23 10 -37 10c-16 0 -36 -6 -49 -22c-25 -28 -33 -79 -33 -165c0 -146 14 -311 14 -464c0 -99 -20 -155 -41 -187c-22 -35 -61 -51 -100 -51c-26 0 -54 9 -66 16l13 55c9 -4 26 -12 45 -12c17 0 35 7 46 21c19 24 33 65 33 159
c0 154 -13 322 -13 471c0 102 14 160 53 198c25 26 59 37 93 37c21 0 44 -7 54 -13z" />
    <glyph glyph-name="approxequal" unicode="&#x2248;" horiz-adv-x="554" 
d="M478 408l30 -29c-28 -51 -68 -91 -127 -91c-40 0 -68 15 -115 41c-30 17 -58 32 -92 32c-45 0 -73 -34 -98 -71l-32 28c30 56 80 91 137 91c47 0 82 -24 109 -39c35 -19 57 -34 93 -34c40 0 67 25 95 72zM478 241l30 -29c-27 -50 -67 -90 -127 -90c-41 0 -68 15 -115 40
c-30 17 -58 33 -91 33c-47 0 -74 -35 -99 -72l-32 28c30 56 80 92 137 92c48 0 82 -25 109 -39c32 -17 56 -34 93 -34c41 0 66 24 95 71z" />
    <glyph glyph-name="notequal" unicode="&#x2260;" horiz-adv-x="554" 
d="M395 478l-44 -95h153v-49h-174l-65 -141h239v-48h-260l-53 -116l-39 18l45 98h-147v48h168l65 141h-233v49h253l52 113z" />
    <glyph glyph-name="lessequal" unicode="&#x2264;" horiz-adv-x="554" 
d="M502 86l-447 216v52l447 216v-58l-394 -182v-2l394 -184v-58zM504 -2h-454v50h454v-50z" />
    <glyph glyph-name="greaterequal" unicode="&#x2265;" horiz-adv-x="554" 
d="M56 570l446 -216v-52l-446 -216v58l393 183v2l-393 183v58zM503 -2h-452v50h452v-50z" />
    <glyph glyph-name="lozenge" unicode="&#x25ca;" horiz-adv-x="565" 
d="M512 324l-200 -369h-62l-197 369l199 370h62zM441 322l-140 261c-7 15 -15 35 -18 48h-3c-4 -15 -11 -31 -19 -48l-138 -257l140 -263c9 -18 15 -35 18 -46h3c3 11 11 33 18 45z" />
    <glyph glyph-name="uni00A0" unicode="&#xa0;" horiz-adv-x="278" 
 />
    <glyph glyph-name="uni00AD" unicode="&#xad;" horiz-adv-x="333" 
d="M48 231v76h237v-76h-237z" />
    <glyph glyph-name="uni02C9" unicode="&#x2c9;" horiz-adv-x="278" 
d="M0 569v64h278v-64h-278z" />
    <glyph glyph-name="uni03A9" unicode="&#x3a9;" horiz-adv-x="721" 
d="M196 63v2c-70 57 -134 154 -134 284c0 180 129 311 301 311c181 0 295 -149 295 -307c0 -135 -68 -236 -136 -288v-2h150v-63h-243v47c76 45 150 142 150 292c-1 122 -75 257 -216 257c-135 0 -222 -116 -222 -260c0 -139 74 -246 150 -289v-47h-243v63h148z" />
    <glyph glyph-name="uni2215" unicode="&#x2215;" horiz-adv-x="167" 
d="M-150 -18l407 690h60l-407 -690h-60z" />
    </font>
</defs>
</svg>
