<svg id="Layer_1" data-name="Layer 1" xmlns="http://www.w3.org/2000/svg" xmlns:xlink="http://www.w3.org/1999/xlink" viewBox="0 0 92.39 92.22"><defs><style>.cls-1,.cls-3,.cls-4{fill:none;}.cls-2{clip-path:url(#clip-path);}.cls-3,.cls-4{stroke:#fff;stroke-width:3px;}.cls-3{stroke-miterlimit:10;}.cls-4{stroke-linecap:round;stroke-linejoin:round;}</style><clipPath id="clip-path" transform="translate(-4.63 -3.12)"><rect class="cls-1" x="1.73" y="0.26" width="97.94" height="97.32"/></clipPath></defs><title>arr</title><g class="cls-2"><path class="cls-3" d="M50.87,4.62A127.77,127.77,0,0,0,26.84,7,23.15,23.15,0,0,0,8.49,25.31a123.62,123.62,0,0,0,0,48.06A22.91,22.91,0,0,0,26.74,91.61a140.59,140.59,0,0,0,24.13,2.23,128.72,128.72,0,0,0,24-2.33A22.78,22.78,0,0,0,93.24,73.26a127.67,127.67,0,0,0,0-48.06A22.92,22.92,0,0,0,75,7,128.84,128.84,0,0,0,50.87,4.62" transform="translate(-4.63 -3.12)"/></g><polyline class="cls-4" points="34.6 21.56 57.85 45.82 34.6 70.66"/></svg>