<svg id="Layer_1" data-name="Layer 1" xmlns="http://www.w3.org/2000/svg" viewBox="0 0 67.44 278.7"><defs><style>.cls-1{fill:#fff;}.cls-2,.cls-3{fill:none;stroke:#fff;stroke-miterlimit:10;}.cls-2{stroke-width:0.8px;}.cls-3{stroke-width:0.78px;}</style></defs><title>icons</title><metadata><?xpacket begin="﻿" id="W5M0MpCehiHzreSzNTczkc9d"?>
<x:xmpmeta xmlns:x="adobe:ns:meta/" x:xmptk="Adobe XMP Core 5.6-c111 79.158366, 2015/09/25-01:12:00        ">
   <rdf:RDF xmlns:rdf="http://www.w3.org/1999/02/22-rdf-syntax-ns#">
      <rdf:Description rdf:about=""
            xmlns:dc="http://purl.org/dc/elements/1.1/">
         <dc:title>
            <rdf:Alt>
               <rdf:li xml:lang="x-default">icons</rdf:li>
            </rdf:Alt>
         </dc:title>
      </rdf:Description>
   </rdf:RDF>
</x:xmpmeta>
                                                                                                    
                                                                                                    
                                                                                                    
                                                                                                    
                                                                                                    
                                                                                                    
                                                                                                    
                                                                                                    
                                                                                                    
                                                                                                    
                                                                                                    
                                                                                                    
                                                                                                    
                                                                                                    
                                                                                                    
                                                                                                    
                                                                                                    
                                                                                                    
                                                                                                    
                                                                                                    
                           
<?xpacket end="w"?></metadata>
<path class="cls-1" d="M43.77,131a8.48,8.48,0,0,0,8.47-8.47,0.91,0.91,0,1,0-1.81,0,6.66,6.66,0,0,1-6.66,6.66h0a0.91,0.91,0,1,0-.19,1.81h0.19" transform="translate(0 0)"/><path class="cls-2" d="M43.77,131a8.48,8.48,0,0,0,8.47-8.47,0.91,0.91,0,1,0-1.81,0,6.66,6.66,0,0,1-6.66,6.66h0a0.91,0.91,0,1,0-.19,1.81h0.19Z" transform="translate(0 0)"/><path class="cls-1" d="M42.17,110.62a2.06,2.06,0,0,1,3.2,0c5.58,6.85,8.78,12.53,8.78,15.59a10.39,10.39,0,0,1-20.77,0c0-3.06,3.2-8.74,8.78-15.59m1.6,27.78A12.21,12.21,0,0,0,56,126.21c0-4.51-5-11.59-9.19-16.73a4,4,0,0,0-6,0c-4.19,5.15-9.19,12.23-9.19,16.73a12.21,12.21,0,0,0,12.2,12.19" transform="translate(0 0)"/><path class="cls-1" d="M66.59,138.55a4.54,4.54,0,0,0-3.63-1.8,4.38,4.38,0,0,0-2.42.7l-11.68,6.47a0.91,0.91,0,0,0,.88,1.59L61.49,139a2.81,2.81,0,0,1,3.66.64,2.7,2.7,0,0,1,.49,2.13,2.66,2.66,0,0,1-1.22,1.78l-24,15.09a13.78,13.78,0,0,1-13.42.74l-9.69-4.64a6.7,6.7,0,0,0-6.06.12L9.15,156a1.79,1.79,0,0,1-2.42-.74l-0.08-.16-4.7-11.69a1.77,1.77,0,0,1,.8-2.24c2.56-1.37,8.93-4.56,12.8-4.72,5.15-.24,9.06,1.3,12,4.69,1.74,2,6.41,3.21,13.88,3.48a2.72,2.72,0,0,1,2,.94,2.75,2.75,0,0,1,.66,2.13,2.89,2.89,0,0,1-2.91,2.44c-8.08.06-14.09-.48-16.9-1.49a0.91,0.91,0,1,0-.73,1.67l0.12,0c3.86,1.39,11.67,1.64,17.52,1.6a4.66,4.66,0,0,0,4.7-4.06,4.57,4.57,0,0,0-4-5.1l-0.43,0c-6.65-.24-11.23-1.27-12.57-2.85-3.27-3.79-7.8-5.59-13.45-5.32-4.09.17-10.26,3.17-13.57,4.94A3.58,3.58,0,0,0,.27,144L5,155.74a3.6,3.6,0,0,0,4.7,2l0.3-.14,2.1-1.12a4.88,4.88,0,0,1,4.41-.09L26.18,161a15.6,15.6,0,0,0,15.18-.84l24-15.09a4.51,4.51,0,0,0,2-3,4.56,4.56,0,0,0-.82-3.56" transform="translate(0 0)"/><path class="cls-1" d="M35.7,32a0.93,0.93,0,0,0-.34.07,1,1,0,0,0-.53.52l-1.74,4.11a1,1,0,0,0,.5,1.32l4,1.77a0.9,0.9,0,0,0,.69,0,1,1,0,0,0,.54-0.53l1.73-4.09A1,1,0,0,0,40,33.89h0l-4-1.76A0.91,0.91,0,0,0,35.7,32m8,10.8a0.91,0.91,0,0,0-.26,0l-4.2,1.28a1,1,0,0,0-.54,1.29L40,49.68a1,1,0,0,0,.48.59,0.86,0.86,0,0,0,.68.07l4.2-1.28A1,1,0,0,0,46,47.81L44.7,43.54a1,1,0,0,0-.48-0.6,0.93,0.93,0,0,0-.52-0.1" transform="translate(0 0)"/><path class="cls-3" d="M35.7,32a0.93,0.93,0,0,0-.34.07,1,1,0,0,0-.53.52l-1.74,4.11a1,1,0,0,0,.5,1.32l4,1.77a0.9,0.9,0,0,0,.69,0,1,1,0,0,0,.54-0.53l1.73-4.09A1,1,0,0,0,40,33.89h0l-4-1.76A0.91,0.91,0,0,0,35.7,32Zm8,10.8a0.91,0.91,0,0,0-.26,0l-4.2,1.28a1,1,0,0,0-.54,1.29L40,49.68a1,1,0,0,0,.48.59,0.86,0.86,0,0,0,.68.07l4.2-1.28A1,1,0,0,0,46,47.81L44.7,43.54a1,1,0,0,0-.48-0.6A0.93,0.93,0,0,0,43.7,42.84Z" transform="translate(0 0)"/><path class="cls-1" d="M44.32,12.3h2.19l0.13,1,1.25,9.76,0.17,1.31H41.19L41.44,23l1.74-9.76,0.17-1h1Zm3.93,13.62,0.13,1,1.93,15.65a14.13,14.13,0,0,1-3.61,10.7,13.81,13.81,0,0,1-19.51,1q-0.51-.46-1-1A14,14,0,0,1,22.7,42.74l2-15.8,0.13-1h23.4ZM17.13,19.34L15.86,20,15.48,18.6a11.15,11.15,0,0,1,5.94-13,11.5,11.5,0,0,1,4.94-1.18A11,11,0,0,1,30,5.07,10.71,10.71,0,0,1,35.33,9l0.86,1.63H25.1l-0.4,4.65v0.34l-0.55.28Zm9.49-7.25,6.18,0-6.5,2.84ZM40.37,12.3h1.39l-0.25,1.37-1.74,9.76-0.17,1H25l0.17-1.32L26,17.32l0.08-.62,8.82-4.36h5.49v0Zm4-5.49,0.1-.62L45,5.93,55,1.49A0.89,0.89,0,0,0,55.36.38,0.77,0.77,0,0,0,54.65,0a1.24,1.24,0,0,0-.42.08l-11,5.08a0.68,0.68,0,0,0-.4.56L42.19,9.81,42,10.58H38l-0.23-.84a12.34,12.34,0,0,0-7.21-6.22,12.06,12.06,0,0,0-4.12-.72A12.78,12.78,0,0,0,14.95,21.26a0.62,0.62,0,0,0,.45.4h0.07A1.72,1.72,0,0,0,16,21.55l6.55-3.24,1.93-1h0l-0.26,2.11-0.68,5.41L21.34,42.4A15.41,15.41,0,0,0,34.9,59.06l1,0.13v7.22H26.07a0.76,0.76,0,0,0,0,1.53H47.32a0.76,0.76,0,0,0,0-1.53H37.46V59.19l1-.12A15.43,15.43,0,0,0,52,42.28L49.83,24.82,48.1,11.2a0.75,0.75,0,0,0-.77-0.62H43.7l0.22-1.35Z" transform="translate(0 0)"/><path class="cls-1" d="M34,213.62a97.74,97.74,0,0,0-16.63,1.55A18.12,18.12,0,0,0,3,229.53a85.79,85.79,0,0,0,0,33.13A18.12,18.12,0,0,0,17.34,277,86.14,86.14,0,0,0,34,278.69a98.89,98.89,0,0,0,16.63-1.55,18.12,18.12,0,0,0,14.35-14.35,85.79,85.79,0,0,0,0-33.13,18.25,18.25,0,0,0-14.47-14.47A96.35,96.35,0,0,0,34,213.62m0,2.75a89.85,89.85,0,0,1,16,1.55,15.57,15.57,0,0,1,12.32,12.32,81,81,0,0,1,0,32.18,15.3,15.3,0,0,1-12.2,12.2A93.11,93.11,0,0,1,34,276.06a89.85,89.85,0,0,1-16-1.55,15.44,15.44,0,0,1-12.32-12.2,85.62,85.62,0,0,1,0-32.18,15.3,15.3,0,0,1,12.2-12.2A91.19,91.19,0,0,1,34,216.37" transform="translate(0 0)"/><path class="cls-1" d="M34,224.51a13.89,13.89,0,0,0-13.88,13.88,13.1,13.1,0,0,0,1.44,6.1l0.12,0.24L34,268.53,46.17,245l0.12-.12a13.22,13.22,0,0,0,1.55-6.46A14,14,0,0,0,34,224.51" transform="translate(0 0)"/></svg>