<svg id="Layer_1" data-name="Layer 1" xmlns="http://www.w3.org/2000/svg" xmlns:xlink="http://www.w3.org/1999/xlink" viewBox="0 0 421.61 899.24"><defs><style>.cls-1{fill:none;}.cls-2{clip-path:url(#clip-path);}.cls-3{fill:#fff;}</style><clipPath id="clip-path" transform="translate(-8 -10.76)"><rect class="cls-1" x="8" y="10.76" width="421.61" height="899.24"/></clipPath></defs><title>sub-headers</title><g class="cls-2"><path class="cls-3" d="M407.4,152.63l0.19-2.82a0.15,0.15,0,0,0-.17-0.17H406.3a0.15,0.15,0,0,0-.17.17l0.19,2.82-2.19-1.23a0.11,0.11,0,0,0-.07,0,0.18,0.18,0,0,0-.18.1l-0.44,1a0.09,0.09,0,0,0,0,.07,0.14,0.14,0,0,0,.1.16c0.68,0.28,1.54.65,2.22,0.88l-1.22,1.73a0.67,0.67,0,0,0,0,.11,0.18,0.18,0,0,0,.09.14l1,0.58,0.1,0a0.18,0.18,0,0,0,.14-0.09l1.07-2,1.07,2a0.18,0.18,0,0,0,.14.09l0.11,0,1-.58a0.18,0.18,0,0,0,.09-0.14,0.67,0.67,0,0,0,0-.11L408,153.62c0.68-.23,1.54-0.6,2.22-0.87a0.14,0.14,0,0,0,.11-0.16,0.09,0.09,0,0,0,0-.07l-0.44-1a0.18,0.18,0,0,0-.18-0.1,0.11,0.11,0,0,0-.07,0Zm-10.77,6.16a3.84,3.84,0,0,0,2.4.88c2.59,0,3.29-1.57,3.29-3.36a2.57,2.57,0,0,0-2.1-2.54l1.94-3.94a0.09,0.09,0,0,0,0-.07,0.12,0.12,0,0,0-.14-0.12H396.7a0.15,0.15,0,0,0-.17.17V151a0.15,0.15,0,0,0,.17.17h2.92L398,154.67a0.06,0.06,0,0,0,.07.07,0.86,0.86,0,0,1,.35,0c1,0,2.2.37,2.2,1.61s-0.26,1.89-1.59,1.89a3.48,3.48,0,0,1-1.63-.54,0.36,0.36,0,0,0-.12-0.05,0.28,0.28,0,0,0-.19.09l-0.51.8a0.47,0.47,0,0,0-.05.14,0.21,0.21,0,0,0,.09.14m-5.4-5.77a6.64,6.64,0,0,0,2-.79v7.17a0.15,0.15,0,0,0,.18.17h1.33a0.15,0.15,0,0,0,.17-0.17v-9.62c0-.07,0-0.14-0.07-0.14l-0.1,0c-0.82.42-1.61,1-3.48,1.8-0.12.05-.18,0.05-0.18,0.18v1.17a0.18,0.18,0,0,0,.14.19m-40.57-3.69A0.88,0.88,0,0,0,350,149a0.34,0.34,0,0,0-.42.34v47.39a0.73,0.73,0,0,0,.85.85h6.47a0.73,0.73,0,0,0,.85-0.85V166.33l19.48,15v15.4a0.73,0.73,0,0,0,.85.85h6.47a0.73,0.73,0,0,0,.85-0.85V150.08a0.73,0.73,0,0,0-.85-0.85h-6.47a0.73,0.73,0,0,0-.85.85V171ZM320.74,198c13.61,0,21.19-11.06,21.19-24.68s-7.57-24.67-21.19-24.67-21.19,11.06-21.19,24.67S307.13,198,320.74,198m-0.09-7.06c-9.78,0-12.93-7.66-12.93-17.36s3.15-17.44,12.93-17.44,13.1,7.74,13.1,17.44-3.32,17.36-13.1,17.36m-36.8,5.78a0.73,0.73,0,0,0,.85.85h6.47a0.73,0.73,0,0,0,.85-0.85V150.08a0.73,0.73,0,0,0-.85-0.85h-6.47a0.73,0.73,0,0,0-.85.85v46.63Zm-35-47.48a0.73,0.73,0,0,0-.85.85v5.61a0.73,0.73,0,0,0,.85.85h10.3v40.16a0.73,0.73,0,0,0,.85.85h6.47a0.73,0.73,0,0,0,.85-0.85V156.55h10a0.73,0.73,0,0,0,.85-0.85v-5.61a0.73,0.73,0,0,0-.85-0.85H248.87Zm-6.14,4.68c-4.51-4.26-8.42-5.28-15.06-5.28-13.61,0-20.76,11.06-20.76,24.67S214,198,227.66,198c7.66,0,12.08-.77,16.59-6.21a3.34,3.34,0,0,0,.17-0.51c0-.42-2.81-3.66-3.23-4.08a1.37,1.37,0,0,0-.94-0.43,0.78,0.78,0,0,0-.6.26c-3.49,3.49-8.08,3.91-12.08,3.91-9.7,0-12.51-7.66-12.51-17.36s2.81-17.44,12.51-17.44c4.51,0,6.81.26,10,2.81a1,1,0,0,0,.68.26,1.36,1.36,0,0,0,.94-0.43l3.23-3.66a1.24,1.24,0,0,0,.43-0.68,3.34,3.34,0,0,0-.17-0.51m-59.09,36.33V177.65h13.61a0.73,0.73,0,0,0,.85-0.85v-5.36a0.73,0.73,0,0,0-.85-0.85H183.63v-14h18.72a0.73,0.73,0,0,0,.85-0.85v-5.61a0.73,0.73,0,0,0-.85-0.85h-26a0.73,0.73,0,0,0-.85.85v46.63a0.73,0.73,0,0,0,.85.85h26a0.73,0.73,0,0,0,.85-0.85v-5.61a0.73,0.73,0,0,0-.85-0.85H183.63Zm-43.16-41a0.73,0.73,0,0,0-.85.85v5.61a0.73,0.73,0,0,0,.85.85h10.3v40.16a0.73,0.73,0,0,0,.85.85h6.47a0.73,0.73,0,0,0,.85-0.85V156.55h10a0.73,0.73,0,0,0,.85-0.85v-5.61a0.73,0.73,0,0,0-.85-0.85H140.47ZM115.91,198c13.61,0,21.19-11.06,21.19-24.68s-7.57-24.67-21.19-24.67S94.72,159.7,94.72,173.31,102.29,198,115.91,198m-0.08-7.06c-9.78,0-12.93-7.66-12.93-17.36s3.15-17.44,12.93-17.44,13.1,7.74,13.1,17.44-3.32,17.36-13.1,17.36M82.31,178.5a16.9,16.9,0,0,0,7.49-14.29c0-8.68-6.3-15-14.12-15H58.58a0.73,0.73,0,0,0-.85.85v46.63a0.73,0.73,0,0,0,.85.85H65a0.73,0.73,0,0,0,.85-0.85V179.18h7.57L80.27,197a1.75,1.75,0,0,0,1.45.59h7a0.73,0.73,0,0,0,.85-0.85Zm-16.42-6.72V156.63H75c3.66,0,6.55,3,6.55,7.66s-2.89,7.49-6.55,7.49h-9.1ZM22.22,196.71a0.73,0.73,0,0,0,.85.85h6.47a0.73,0.73,0,0,0,.85-0.85V180.8h7.83c7.83,0,14.12-6.13,14.12-15.66S46,149.23,38.22,149.23H23.07a0.73,0.73,0,0,0-.85.85v46.63Zm8.17-23.4V157.15h7c3.66,0,6.81,2.38,6.81,8.08,0,5.45-3.15,8.08-6.81,8.08h-7Z" transform="translate(-8 -10.76)"/><path class="cls-3" d="M384.36,58.77L360.75,13.32c-0.79-1.38-.79-2-2.17-2H341.07a1.69,1.69,0,0,0-2,2L374.91,81.4v39.75a1.69,1.69,0,0,0,2,2h15a1.69,1.69,0,0,0,2-2V81.4l35.81-68.08a1.69,1.69,0,0,0-2-2H410.13c-1.38,0-1.38.59-2.16,2ZM302.6,106.19V13.32a1.69,1.69,0,0,0-2-2h-15a1.69,1.69,0,0,0-2,2V121.14a1.69,1.69,0,0,0,2,2h61.19a1.69,1.69,0,0,0,2-2v-13a1.69,1.69,0,0,0-2-2H302.6ZM248.89,79C259.12,71.76,266.2,60.94,266.2,46c0-20.07-14.56-34.63-32.66-34.63H194a1.69,1.69,0,0,0-2,2V121.14a1.69,1.69,0,0,0,2,2h15a1.69,1.69,0,0,0,2-2V80.61h17.51l15.74,41.12a4.05,4.05,0,0,0,3.34,1.38h16.13a1.69,1.69,0,0,0,2-2Zm-38-15.54v-35H232c8.46,0,15.15,6.89,15.15,17.71S240.43,63.49,232,63.49H210.91Zm-79.55-8.07,11,26.17h-22Zm0-44.66a4.16,4.16,0,0,0-1.38.59L83.16,121.14a1.69,1.69,0,0,0,2,2h16.33c1.38,0,1.38-.59,2.17-2l9.84-23h36l9.64,23c0.79,1.38.79,2,2.16,2H177.6a1.69,1.69,0,0,0,2-2L132.74,11.35a4.16,4.16,0,0,0-1.38-.59M26.89,106.19V77.07H58.37a1.69,1.69,0,0,0,2-2V62.71a1.69,1.69,0,0,0-2-2H26.89V28.27H70.18a1.69,1.69,0,0,0,2-2v-13a1.69,1.69,0,0,0-2-2H10a1.69,1.69,0,0,0-2,2V121.14a1.69,1.69,0,0,0,2,2H70.18a1.69,1.69,0,0,0,2-2v-13a1.69,1.69,0,0,0-2-2H26.89Z" transform="translate(-8 -10.76)"/><path class="cls-3" d="M356,515.9a3.84,3.84,0,0,0,2.4.88c2.59,0,3.29-1.57,3.29-3.36a2.57,2.57,0,0,0-2.1-2.54l1.94-3.94a0.08,0.08,0,0,0,0-.07,0.12,0.12,0,0,0-.14-0.12h-5.33a0.15,0.15,0,0,0-.18.18v1.15a0.15,0.15,0,0,0,.18.17H359l-1.61,3.53a0.06,0.06,0,0,0,.07.07,0.86,0.86,0,0,1,.35,0c1,0,2.2.37,2.2,1.61s-0.26,1.89-1.59,1.89a3.48,3.48,0,0,1-1.63-.54,0.36,0.36,0,0,0-.12-0.05,0.28,0.28,0,0,0-.19.09l-0.51.8a0.47,0.47,0,0,0-.05.14,0.21,0.21,0,0,0,.09.14m-26,11L319.83,507.2c-0.34-.6-0.34-0.85-0.94-0.85h-7.57a0.73,0.73,0,0,0-.85.85L326,536.64v17.19a0.73,0.73,0,0,0,.85.85h6.47a0.73,0.73,0,0,0,.85-0.85V536.64l15.49-29.44a0.73,0.73,0,0,0-.85-0.85h-7.57c-0.6,0-.6.26-0.94,0.85ZM306.31,511c-4.51-4.26-8.42-5.28-15.06-5.28-13.61,0-20.76,11.06-20.76,24.68s7.15,24.67,20.76,24.67c7.66,0,12.08-.77,16.59-6.21a3.38,3.38,0,0,0,.17-0.51c0-.43-2.81-3.66-3.23-4.08a1.37,1.37,0,0,0-.94-0.42,0.77,0.77,0,0,0-.6.26c-3.49,3.49-8.08,3.91-12.08,3.91-9.7,0-12.51-7.66-12.51-17.36s2.81-17.44,12.51-17.44c4.51,0,6.81.26,10,2.81a1,1,0,0,0,.68.25,1.37,1.37,0,0,0,.94-0.42l3.23-3.66a1.24,1.24,0,0,0,.43-0.68,3.34,3.34,0,0,0-.17-0.51m-57.59,14.38,4.76,11.32H244Zm0-19.31a1.8,1.8,0,0,0-.59.26l-20.25,47.48a0.73,0.73,0,0,0,.85.85h7.06c0.6,0,.6-0.26.94-0.85l4.26-10h15.57l4.17,10c0.34,0.6.34,0.85,0.94,0.85h7.06a0.73,0.73,0,0,0,.85-0.85l-20.25-47.48a1.8,1.8,0,0,0-.6-0.26M223,511c-4.51-4.26-8.42-5.28-15.06-5.28-13.61,0-20.76,11.06-20.76,24.68s7.15,24.67,20.76,24.67c7.66,0,12.08-.77,16.59-6.21a3.38,3.38,0,0,0,.17-0.51c0-.43-2.81-3.66-3.23-4.08a1.36,1.36,0,0,0-.94-0.42,0.77,0.77,0,0,0-.6.26c-3.49,3.49-8.08,3.91-12.08,3.91-9.7,0-12.51-7.66-12.51-17.36s2.81-17.44,12.51-17.44c4.51,0,6.81.26,10,2.81a1,1,0,0,0,.68.25,1.37,1.37,0,0,0,.94-0.42l3.23-3.66a1.24,1.24,0,0,0,.43-0.68A3.34,3.34,0,0,0,223,511m-51.52,42.8a0.73,0.73,0,0,0,.85.85h6.47a0.73,0.73,0,0,0,.85-0.85V507.2a0.73,0.73,0,0,0-.85-0.85h-6.47a0.73,0.73,0,0,0-.85.85v46.63Zm-10.93-19.06a0.73,0.73,0,0,0,.85-0.85v-5.36a0.73,0.73,0,0,0-.85-0.85H146.94v-14h18.55a0.73,0.73,0,0,0,.85-0.85V507.2a0.73,0.73,0,0,0-.85-0.85H139.62a0.73,0.73,0,0,0-.85.85v46.63a0.73,0.73,0,0,0,.85.85h6.47a0.73,0.73,0,0,0,.85-0.85V534.77h13.61Zm-32.72,0a0.73,0.73,0,0,0,.85-0.85v-5.36a0.73,0.73,0,0,0-.85-0.85H114.22v-14h18.55a0.73,0.73,0,0,0,.85-0.85V507.2a0.73,0.73,0,0,0-.85-0.85H106.91a0.73,0.73,0,0,0-.85.85v46.63a0.73,0.73,0,0,0,.85.85h6.47a0.73,0.73,0,0,0,.85-0.85V534.77h13.61ZM79.2,547.36V534.77H92.82a0.73,0.73,0,0,0,.85-0.85v-5.36a0.73,0.73,0,0,0-.85-0.85H79.2v-14H97.92a0.73,0.73,0,0,0,.85-0.85V507.2a0.73,0.73,0,0,0-.85-0.85h-26a0.73,0.73,0,0,0-.85.85v46.63a0.73,0.73,0,0,0,.85.85h26a0.73,0.73,0,0,0,.85-0.85v-5.61a0.73,0.73,0,0,0-.85-0.85H79.2Z" transform="translate(-8 -10.76)"/><path class="cls-3" d="M274.31,429.51a1,1,0,0,0,1.15,1.15h9.18a2.07,2.07,0,0,0,1.61-1.26l34-62.75a1,1,0,0,0-1.15-1.15h-9.18a2.07,2.07,0,0,0-1.61,1.26ZM323.75,423c-4,0-7.46-3.33-7.46-8.26a7.29,7.29,0,1,1,14.57,0c0,4.93-3.44,8.26-7.11,8.26m0-24.09a15.89,15.89,0,1,0,15.71,15.83,16,16,0,0,0-15.71-15.83m-52.65-9.41c-4,0-7.46-3.44-7.46-8.14,0-4.93,3.44-7.46,7.46-7.46a7.09,7.09,0,0,1,7.11,7.46c0,4.7-3.44,8.14-7.11,8.14m0-24a15.89,15.89,0,1,0,15.71,15.83A16,16,0,0,0,271.1,365.5M178,457.8c4.53,15,15.15,23.41,33.84,23.41,21.05,0,35.42-13.58,35.42-35.22,0-25.18-12.2-36-32.86-36-3.74,0-10,.2-15.74,3.93V385.39h39.35a1.69,1.69,0,0,0,2-2v-13a1.69,1.69,0,0,0-2-2H181.78a1.69,1.69,0,0,0-2,2v58c0,1,.59,1.77,2,2.16,15.94,1.18,16.13,1.18,16.33,1.18,0.59,0,1.77-1,2.36-1.18,6.3-3.15,8.85-3.15,12.79-3.15,11,0,15.15,4.52,15.15,18.69,0,14-5.71,18.69-16.73,18.69-7.67,0-10.23-1.38-14.36-7.08-1-1.57-1.57-2.36-3-2.36h-14A2.09,2.09,0,0,0,178,457.8m-51.53-73.39c6.69,0,13.38,1.38,13.38,15.74,0,14.17-5.31,16.53-13.58,16.53s-13.58-2.36-13.58-16.53c0-14.36,6.69-15.74,13.77-15.74m-0.2-17.32c-24.4,0-32.47,11.41-32.47,32.86,0,11.22,2.75,18.1,8.85,22.63-8.46,5.31-12.59,13.58-12.59,25.18,0,21.84,14.76,33.45,36,33.45,21.84,0,36.4-11.61,36.4-33.45,0-11.61-4.13-19.87-12.59-25.18,6.1-4.53,8.85-11.41,8.85-22.63,0-21.45-8.07-32.86-32.46-32.86m0,97.79c-8.66,0-17.32-2.75-17.32-16.92,0-14,6.69-18.89,17.12-18.89,11,0,17.51,4.92,17.51,18.89,0,14.17-8.66,16.92-17.31,16.92" transform="translate(-8 -10.76)"/><path class="cls-3" d="M380.11,870.8a3.84,3.84,0,0,0,2.4.88c2.59,0,3.29-1.57,3.29-3.36a2.57,2.57,0,0,0-2.1-2.54l1.94-3.94a0.09,0.09,0,0,0,0-.07,0.12,0.12,0,0,0-.14-0.12h-5.33a0.15,0.15,0,0,0-.17.17V863a0.15,0.15,0,0,0,.17.17h2.92l-1.61,3.53a0.06,0.06,0,0,0,.07.07,0.86,0.86,0,0,1,.35,0c1,0,2.2.37,2.2,1.61s-0.26,1.89-1.59,1.89a3.48,3.48,0,0,1-1.63-.54,0.36,0.36,0,0,0-.12-0.05,0.28,0.28,0,0,0-.19.09l-0.51.8a0.47,0.47,0,0,0-.05.14,0.21,0.21,0,0,0,.09.14m-29.93,31.63V868.65h4.42c9.79,0,15.32,7.4,15.32,17.19s-5.53,16.59-15.32,16.59h-4.42Zm6,7.15c13.61,0,22-10.38,22-24s-8.34-24.33-22-24.33H342.86a0.73,0.73,0,0,0-.85.85v46.63a0.73,0.73,0,0,0,.85.85h13.27Zm-41-7.32V889.66h13.61a0.73,0.73,0,0,0,.85-0.85v-5.36a0.73,0.73,0,0,0-.85-0.85H315.16v-14h18.72a0.73,0.73,0,0,0,.85-0.85V862.1a0.73,0.73,0,0,0-.85-0.85h-26a0.73,0.73,0,0,0-.85.85v46.63a0.73,0.73,0,0,0,.85.85h26a0.73,0.73,0,0,0,.85-0.85v-5.62a0.73,0.73,0,0,0-.85-0.85H315.16Zm-43.16-41a0.73,0.73,0,0,0-.85.85v5.62a0.73,0.73,0,0,0,.85.85h10.3v40.16a0.73,0.73,0,0,0,.85.85h6.47a0.73,0.73,0,0,0,.85-0.85V868.56h10a0.73,0.73,0,0,0,.85-0.85V862.1a0.73,0.73,0,0,0-.85-0.85H272Zm-19.37,19.06,4.77,11.32h-9.53Zm0-19.31a1.8,1.8,0,0,0-.59.25l-20.25,47.48a0.73,0.73,0,0,0,.85.85h7.06c0.6,0,.6-0.25.94-0.85l4.25-10h15.57l4.17,10c0.34,0.6.34,0.85,0.93,0.85h7.06a0.73,0.73,0,0,0,.85-0.85l-20.25-47.48a1.8,1.8,0,0,0-.6-0.25m-32.43,29.52a16.9,16.9,0,0,0,7.49-14.29c0-8.68-6.3-15-14.12-15h-17.1a0.73,0.73,0,0,0-.85.85v46.63a0.73,0.73,0,0,0,.85.85h6.47a0.73,0.73,0,0,0,.85-0.85V891.2h7.57L218.15,909a1.75,1.75,0,0,0,1.45.59h7a0.73,0.73,0,0,0,.85-0.85Zm-16.42-6.72V868.65h9.1c3.66,0,6.55,3,6.55,7.66s-2.89,7.49-6.55,7.49h-9.1Zm-35,18.46V889.66h13.61a0.73,0.73,0,0,0,.85-0.85v-5.36a0.73,0.73,0,0,0-.85-0.85H168.75v-14h18.72a0.73,0.73,0,0,0,.85-0.85V862.1a0.73,0.73,0,0,0-.85-0.85h-26a0.73,0.73,0,0,0-.85.85v46.63a0.73,0.73,0,0,0,.85.85h26a0.73,0.73,0,0,0,.85-0.85v-5.62a0.73,0.73,0,0,0-.85-0.85H168.75Zm-34.43,0V862.1a0.73,0.73,0,0,0-.85-0.85H127a0.73,0.73,0,0,0-.85.85v46.63a0.73,0.73,0,0,0,.85.85h26.46a0.73,0.73,0,0,0,.85-0.85v-5.62a0.73,0.73,0,0,0-.85-0.85H134.32Zm-37,7.74c13.61,0,21.19-11.06,21.19-24.68S111,860.65,97.35,860.65s-21.19,11.06-21.19,24.67S83.73,910,97.35,910m-0.08-7.06c-9.78,0-12.93-7.66-12.93-17.36s3.15-17.44,12.93-17.44,13.1,7.74,13.1,17.44-3.32,17.36-13.1,17.36M44.42,861.25a0.73,0.73,0,0,0-.85.85v5.62a0.73,0.73,0,0,0,.85.85H54.71v40.16a0.73,0.73,0,0,0,.85.85H62a0.73,0.73,0,0,0,.85-0.85V868.56h10a0.73,0.73,0,0,0,.85-0.85V862.1a0.73,0.73,0,0,0-.85-0.85H44.42Z" transform="translate(-8 -10.76)"/><path class="cls-3" d="M350.74,818.2V725.33a1.69,1.69,0,0,0-2-2h-15a1.69,1.69,0,0,0-2,2V833.16a1.69,1.69,0,0,0,2,2H395a1.69,1.69,0,0,0,2-2v-13a1.69,1.69,0,0,0-2-2H350.74Zm-79.61,0V725.33a1.69,1.69,0,0,0-2-2h-15a1.69,1.69,0,0,0-2,2V833.16a1.69,1.69,0,0,0,2,2H315.4a1.69,1.69,0,0,0,2-2v-13a1.69,1.69,0,0,0-2-2H271.13Zm-81,0V789.08h31.48a1.69,1.69,0,0,0,2-2V774.72a1.69,1.69,0,0,0-2-2H190.15V740.29h43.29a1.69,1.69,0,0,0,2-2v-13a1.69,1.69,0,0,0-2-2H173.23a1.69,1.69,0,0,0-2,2V833.16a1.69,1.69,0,0,0,2,2h60.21a1.69,1.69,0,0,0,2-2v-13a1.69,1.69,0,0,0-2-2H190.15ZM92.38,728.68c-0.59,0-1.18.39-2,1.38L66.8,788.3l-20.86-63c-0.79-1.38-.79-2-2.16-2H28a1.69,1.69,0,0,0-2,2c12.4,36.79,24,72.21,36.6,109,0.59,1,1,1.18,1.57,1.18a1.44,1.44,0,0,0,1.38-1.18l25-56.08c0.79-.79,1-1.18,1.77-1.18s1,0.39,1.77,1.18l25,56.08a1.44,1.44,0,0,0,1.38,1.18c0.59,0,1-.2,1.57-1.18,12.59-36.79,24.2-72.21,36.6-109a1.69,1.69,0,0,0-2-2H141c-1.38,0-1.38.59-2.17,2L118,788.3,94.35,730.06c-0.79-1-1.38-1.38-2-1.38" transform="translate(-8 -10.76)"/></g></svg>