<?xml version="1.0" standalone="no"?>
<!DOCTYPE svg PUBLIC "-//W3C//DTD SVG 1.1//EN" "http://www.w3.org/Graphics/SVG/1.1/DTD/svg11.dtd" >
<svg xmlns="http://www.w3.org/2000/svg" width="100%" height="100%">
<metadata>
Created by FontXChange 20110222 at Mon Jul 21 09:37:29 2014
 By Creative4
Version 1.0  28th June, 2007. LM-Buff  (c) Copyright 2007 Les Mills International Limited. All rights reserved. Unauthorised use, modification, reproduction and distribution prohibited.
</metadata>
<defs>
<font id="LMBuff" horiz-adv-x="400" >
  <font-face 
    font-family="LMBuff"
    font-weight="800"
    font-stretch="normal"
    units-per-em="1000"
    panose-1="2 15 9 6 6 0 2 2 0 3"
    ascent="780"
    descent="-220"
    x-height="477"
    cap-height="703"
    bbox="-121.209 -239 1387 926"
    underline-thickness="85"
    underline-position="-72"
    stemh="141"
    stemv="154"
    unicode-range="U+000D-FFFD"
  />
<missing-glyph horiz-adv-x="500" 
d="M421 736v-927h-341v927h341zM110 -161h281v867h-281v-867z" />
    <glyph glyph-name="uniFB01" unicode="fi" horiz-adv-x="433" 
d="M403 456v-442c0 -9 -7 -19 -75 -19c-71 0 -78 10 -78 19v312c0 11 -5 15 -15 15h-27c-9 0 -15 -3 -15 -15v-312c0 -9 -7 -19 -79 -19c-68 0 -75 10 -75 19v312c0 10 -4 15 -15 15h-8c-9 0 -20 7 -19 70c1 59 10 66 19 66h11c12 0 12 9 12 15v50c0 51 19 95 53 124
c24 21 64 40 115 40h84c9 0 20 -7 19 -72c-1 -62 -10 -69 -19 -69h-69c-25 0 -31 -19 -31 -38v-35c0 -10 4 -15 15 -15h176c16 0 21 -9 21 -21z" />
    <glyph glyph-name="uniFB02" unicode="fl" horiz-adv-x="465" 
d="M189 527v-33c0 -10 4 -16 15 -16h17c9 0 18 -7 19 -63c1 -66 -10 -73 -19 -73h-15c-9 0 -15 -3 -15 -15v-313c0 -9 -7 -19 -73 -19c-72 0 -79 10 -79 19v313c0 10 -4 15 -15 15h-8c-9 0 -20 7 -19 72c1 57 10 64 19 64h11c12 0 12 10 12 16v48c0 51 15 90 53 123
c32 28 88 41 143 41c56 0 112 -15 142 -41c38 -33 53 -72 53 -123v-528c0 -9 -7 -19 -74 -19c-71 0 -78 10 -78 19v513c0 28 -22 42 -44 42s-45 -14 -45 -42z" />
    <glyph glyph-name=".notdef" horiz-adv-x="500" 
d="M421 736v-927h-341v927h341zM110 -161h281v867h-281v-867z" />
    <glyph glyph-name=".null" horiz-adv-x="0" 
 />
    <glyph glyph-name=".null" horiz-adv-x="0" 
 />
    <glyph glyph-name="CR" unicode="&#xd;" horiz-adv-x="210" 
 />
    <glyph glyph-name="space" unicode=" " horiz-adv-x="210" 
 />
    <glyph glyph-name="exclam" unicode="!" horiz-adv-x="246" 
d="M216 684l-10 -455c0 -9 -7 -19 -69 -19c-61 0 -68 10 -68 19l-9 455c0 9 7 19 79 19c70 0 77 -10 77 -19zM215 73c0 -34 -11 -51 -24 -63c-14 -13 -32 -20 -54 -20s-40 7 -54 20c-13 12 -23 29 -23 63c0 35 10 53 23 65c14 13 32 20 54 20s40 -7 54 -20
c13 -12 24 -30 24 -65z" />
    <glyph glyph-name="quotedbl" unicode="&#x22;" horiz-adv-x="297" 
d="M135 690l-5 -145c0 -9 -7 -19 -48 -19c-40 0 -47 10 -47 19l-5 145c0 9 7 20 54 19c44 -1 51 -10 51 -19zM267 690l-5 -145c0 -9 -7 -19 -48 -19c-40 0 -47 10 -47 19l-5 145c0 9 7 20 54 19c44 -1 51 -10 51 -19z" />
    <glyph glyph-name="numbersign" unicode="#" horiz-adv-x="474" 
d="M471 577c-1 -25 -9 -32 -18 -32h-37c-9 0 -14 -7 -16 -16l-22 -101c-2 -9 3 -16 16 -16h36c9 0 18 -7 18 -33c0 -25 -9 -32 -18 -32h-55c-9 0 -14 -7 -16 -16l-17 -83c-2 -9 -7 -19 -54 -19c-52 0 -57 10 -55 19l17 83c2 9 -3 16 -16 16h-60c-9 0 -14 -7 -16 -16l-16 -83
c-2 -9 -7 -19 -57 -19c-49 0 -54 10 -52 19l17 83c2 9 -3 16 -16 16h-13c-9 0 -18 7 -18 31c0 27 9 34 18 34h32c9 0 14 7 16 16l22 101c2 9 0 16 -16 16h-31c-9 0 -18 7 -18 32c0 26 9 33 18 33h50c9 0 14 7 16 16l13 63c2 9 4 20 58 20c51 0 53 -11 51 -20l-13 -63
c-2 -9 3 -16 16 -16h53c9 0 20 7 21 16l14 63c1 9 4 20 59 20c50 0 52 -11 50 -20l-13 -63c-2 -9 3 -16 16 -16h18c9 0 19 -7 18 -33zM270 428l21 101c2 9 0 16 -16 16h-60c-9 0 -14 -7 -16 -16l-21 -101c-2 -9 3 -16 16 -16h60c9 0 14 7 16 16z" />
    <glyph glyph-name="dollar" unicode="$" horiz-adv-x="422" 
d="M387 191c0 -71 -22 -130 -89 -160c-17 -8 -19 -6 -19 -23v-67c0 -9 -7 -19 -66 -19c-61 0 -68 10 -68 19v65c0 17 -13 19 -18 21c-61 25 -88 76 -88 141v57c0 8 7 17 67 18c64 1 71 -9 71 -17v-48c0 -20 7 -38 29 -38s28 23 28 42c0 69 -30 95 -87 140
c-55 43 -112 86 -112 186c0 76 21 130 93 160c14 6 17 12 17 22v63c0 9 7 19 69 19c58 0 65 -10 65 -19v-63c0 -12 2 -14 16 -20c60 -25 86 -75 86 -140v-36c0 -8 -7 -19 -70 -18c-61 1 -68 9 -68 17v27c0 20 -7 39 -29 39s-30 -22 -30 -44c0 -49 36 -72 70 -98
c58 -44 133 -88 133 -226z" />
    <glyph glyph-name="percent" unicode="%" horiz-adv-x="500" 
d="M223 571v-104c0 -60 -51 -77 -99 -77s-99 19 -99 78v103c0 61 50 78 99 78c48 0 99 -19 99 -78zM432 640l-281 -577c-4 -8 -6 -20 -48 -19c-40 1 -43 11 -39 19l282 578c4 8 6 17 47 18c46 1 43 -11 39 -19zM142 484v72c0 13 1 30 -18 30c-18 0 -18 -16 -18 -30v-71
c0 -14 0 -31 18 -31c19 0 18 16 18 30zM475 246v-104c0 -60 -51 -77 -99 -77s-99 19 -99 78v103c0 61 50 78 99 78c48 0 99 -19 99 -78zM394 159v72c0 13 1 30 -18 30c-18 0 -18 -16 -18 -30v-71c0 -14 0 -31 18 -31c19 0 18 16 18 30z" />
    <glyph glyph-name="ampersand" unicode="&#x26;" horiz-adv-x="528" 
d="M430 97l57 -78c8 -11 9 -24 -62 -24c-64 0 -70 5 -75 12l-10 13c-7 9 -11 12 -24 3c-36 -25 -72 -33 -99 -33c-108 0 -185 64 -185 165v26c0 67 29 109 62 147c8 9 17 17 7 33c-33 56 -57 109 -55 174c4 107 67 171 173 171c96 0 171 -60 171 -156
c0 -81 -47 -133 -120 -195c-11 -9 -11 -16 -4 -26l58 -84s6 -11 12 -11c7 0 6 14 6 20v53c0 6 1 17 60 17c65 0 64 -14 64 -17v-57c0 -44 -12 -95 -36 -132c-5 -7 -6 -13 0 -21zM247 549c0 23 -9 42 -30 42c-27 0 -30 -41 -30 -60c0 -28 2 -45 13 -72c3 -8 10 -6 15 0
c11 13 32 53 32 90zM257 139l-60 84c-5 7 -10 7 -15 -3c-5 -9 -9 -34 -9 -50c0 -34 17 -61 44 -61c7 0 19 0 36 11c7 5 9 11 4 19z" />
    <glyph glyph-name="quotesingle" unicode="'" horiz-adv-x="170" 
d="M140 690l-5 -145c0 -9 -10 -19 -51 -19c-40 0 -49 10 -49 19l-5 145c0 9 9 20 56 19c44 -1 54 -10 54 -19z" />
    <glyph glyph-name="parenleft" unicode="(" horiz-adv-x="277" 
d="M275 -79c0 -48 -8 -54 -23 -54c-57 0 -105 6 -155 33c-36 19 -57 54 -57 86v633c0 32 21 68 57 87c50 27 98 32 155 32c15 0 23 -6 23 -60c0 -49 -7 -56 -25 -56c-44 0 -80 -3 -80 -58v-523c0 -55 36 -58 80 -58c18 0 25 -7 25 -62z" />
    <glyph glyph-name="parenright" unicode=")" horiz-adv-x="277" 
d="M2 -79c0 55 7 62 25 62c44 0 80 3 80 58v523c0 55 -36 58 -80 58c-18 0 -25 7 -25 56c0 54 8 60 23 60c57 0 105 -5 155 -32c36 -19 57 -55 57 -87v-633c0 -32 -21 -67 -57 -86c-50 -27 -98 -33 -155 -33c-15 0 -23 6 -23 54z" />
    <glyph glyph-name="asterisk" unicode="*" horiz-adv-x="352" 
d="M334 510c-16 -30 -30 -27 -39 -22l-52 28c-3 1 -8 2 -8 -6l2 -50c0 -10 -10 -22 -40 -22c-31 0 -41 12 -41 22l2 54c0 3 -3 7 -8 4l-52 -31c-9 -5 -24 -4 -40 22c-15 25 -10 38 1 44l49 25c4 2 7 7 1 10l-47 23c-11 6 -16 19 -2 43c13 23 31 28 40 23l51 -28
c3 -2 8 -1 8 5l-3 51c-1 10 10 22 40 22c31 0 41 -12 41 -22l-2 -52c0 -7 6 -6 9 -4l50 28c12 7 26 2 40 -21c14 -24 9 -39 -2 -45l-49 -24c-4 -2 -6 -7 0 -9l50 -24c10 -5 14 -19 1 -44z" />
    <glyph glyph-name="plus" unicode="+" 
d="M354 347c0 -37 -12 -45 -26 -45h-60c-16 0 -21 -6 -21 -17v-57c0 -12 -10 -24 -48 -24c-37 0 -48 12 -48 24v55c0 14 -4 19 -21 19h-58c-13 0 -27 8 -26 45c1 32 13 42 26 42h58c17 0 21 4 21 17v54c0 12 11 24 48 24c38 0 48 -12 48 -24v-55c0 -11 5 -16 21 -16h60
c14 0 26 -10 26 -42z" />
    <glyph glyph-name="comma" unicode="," horiz-adv-x="188" 
d="M173 41c0 -61 -27 -146 -146 -160c-11 -1 -12 4 -12 28c0 29 5 29 12 30c26 3 54 21 68 44c5 9 1 14 -10 9c-3 -1 -12 -2 -14 -2c-30 0 -59 20 -59 77c0 36 10 55 22 68c14 15 33 24 56 24s42 -9 56 -24c23 -23 27 -59 27 -94z" />
    <glyph glyph-name="hyphen" unicode="-" horiz-adv-x="341" 
d="M323 304c0 -53 -14 -65 -30 -65h-245c-16 0 -30 12 -30 67c0 51 11 63 30 63h245c16 0 30 -12 30 -65z" />
    <glyph glyph-name="period" unicode="." horiz-adv-x="185" 
d="M170 76c0 -36 -10 -54 -22 -66c-14 -13 -35 -20 -56 -20s-41 7 -55 20c-12 12 -22 30 -22 67c0 36 10 54 22 66c14 13 34 20 55 20s42 -7 56 -20c12 -12 22 -30 22 -67z" />
    <glyph glyph-name="slash" unicode="/" horiz-adv-x="296" 
d="M295 690l-148 -681c-2 -9 -7 -19 -77 -19c-66 0 -71 10 -69 19l148 681c2 9 7 19 75 19c70 0 73 -10 71 -19z" />
    <glyph glyph-name="zero" unicode="0" 
d="M381 542v-388c0 -51 -19 -95 -53 -124c-32 -27 -78 -40 -128 -40s-96 13 -128 40c-34 29 -53 73 -53 124v388c0 51 19 95 53 124c32 27 78 40 128 40s96 -13 128 -40c34 -29 53 -73 53 -124zM227 171v356c0 21 -3 38 -27 38c-25 0 -27 -19 -27 -38v-356
c0 -19 2 -38 27 -38c24 0 27 17 27 38z" />
    <glyph glyph-name="one" unicode="1" 
d="M368 74c0 -67 -8 -74 -17 -74h-279c-9 0 -17 7 -17 73s8 73 17 73h47c14 0 16 4 16 16v376c0 13 -10 11 -14 8l-37 -24c-15 -10 -24 -5 -24 46c0 39 1 44 11 52c20 17 42 40 55 58c12 16 12 25 90 25c65 0 72 -8 72 -20v-521c0 -13 3 -16 16 -16h47c9 0 17 -7 17 -72z
" />
    <glyph glyph-name="two" unicode="2" 
d="M383 74c0 -67 -10 -74 -19 -74h-318c-18 0 -26 8 -26 26v137c0 50 10 77 41 112l106 121c52 60 59 75 59 111v19c0 24 -7 46 -30 46c-22 0 -25 -20 -25 -41v-49c0 -9 -7 -18 -72 -18c-68 0 -75 10 -75 19v59c0 51 15 95 49 124c32 27 71 40 121 40s96 -14 128 -41
c42 -35 57 -82 57 -124v-49c0 -45 -33 -108 -69 -147l-113 -125c-9 -10 -17 -18 -17 -33v-20c0 -18 12 -21 23 -21h161c9 0 19 -7 19 -72z" />
    <glyph glyph-name="three" unicode="3" 
d="M380 274v-120c0 -51 -20 -95 -53 -124c-31 -27 -78 -40 -127 -40s-96 13 -127 40c-33 29 -54 73 -54 124v64c0 9 7 19 78 19c63 0 69 -10 69 -19v-50c0 -21 9 -38 30 -38s30 19 30 38v98c0 20 -10 49 -37 49c-9 0 -15 -2 -22 -6c-4 -2 -14 -16 -59 27
c-39 38 -37 47 -28 57l119 134c9 11 5 30 -15 30h-139c-9 0 -20 7 -19 70c1 62 10 69 19 69h305c19 0 26 -8 26 -26v-88c0 -28 -3 -36 -22 -59l-78 -95c-8 -10 -10 -22 9 -22c20 0 33 -5 45 -11c35 -16 50 -66 50 -121z" />
    <glyph glyph-name="four" unicode="4" 
d="M403 181c0 -64 -10 -67 -19 -67h-10c-7 0 -13 -4 -13 -15v-85c0 -9 -5 -19 -70 -19s-70 10 -70 19v86c0 14 -11 14 -17 14h-167c-9 0 -28 6 -28 25v99c0 14 5 26 8 33l153 410c6 14 13 22 101 22c85 0 90 -13 90 -22v-417c0 -9 -1 -15 12 -15h11c12 0 19 -5 19 -68z
M221 265l4 210c0 16 -4 17 -7 17s-5 -2 -9 -16l-36 -174c-6 -21 -4 -19 -4 -31c0 -15 -3 -25 16 -25h22c12 0 14 7 14 19z" />
    <glyph glyph-name="five" unicode="5" 
d="M379 316v-80c0 -175 -160 -242 -334 -246c-13 0 -27 5 -27 70c0 76 17 76 25 77c15 1 76 7 97 12c73 17 80 53 80 96v44c0 18 -3 39 -23 38c-5 0 -15 1 -24 -15c-5 -8 -11 -15 -77 -15c-63 0 -73 11 -73 22v351c0 17 8 26 26 26h307c9 0 18 -7 19 -68
c1 -64 -10 -71 -19 -71h-159c-13 0 -21 -4 -21 -17v-109c0 -11 14 -8 18 -5c20 15 56 22 77 22c58 0 108 -48 108 -132z" />
    <glyph glyph-name="six" unicode="6" 
d="M377 316v-172c0 -105 -86 -154 -180 -154s-175 57 -175 161v336c0 40 24 104 87 152c71 54 155 67 242 67c20 0 24 -6 24 -67c0 -59 -9 -63 -27 -64c-76 -4 -142 -15 -166 -63c-7 -13 -9 -32 -9 -49v-28c0 -12 8 -18 18 -9c24 20 54 22 75 22c58 0 111 -48 111 -132z
M228 158v133c0 15 -1 38 -26 38c-21 0 -26 -18 -26 -38v-133c0 -18 5 -33 26 -33c20 0 26 15 26 33z" />
    <glyph glyph-name="seven" unicode="7" 
d="M384 675v-67c0 -22 -2 -28 -13 -47c-94 -164 -143 -314 -137 -543c0 -11 -4 -23 -83 -23c-80 0 -85 3 -85 23c0 165 54 358 113 494c5 11 8 19 8 26c0 14 -2 19 -16 19h-131c-9 0 -21 7 -20 74c1 58 11 65 20 65h323c12 0 21 -6 21 -21z" />
    <glyph glyph-name="eight" unicode="8" 
d="M380 270v-116c0 -51 -19 -95 -52 -124c-31 -27 -79 -40 -128 -40s-97 13 -128 40c-33 29 -52 73 -52 124v116c0 46 21 76 51 94c7 4 7 8 0 13c-26 19 -42 47 -42 89v76c0 105 71 164 172 164s171 -59 171 -164v-76c0 -42 -16 -70 -42 -89c-7 -5 -7 -9 0 -13
c30 -18 50 -48 50 -94zM228 457v85c0 16 -6 29 -25 29s-25 -13 -25 -29v-85c0 -20 5 -38 25 -38s25 18 25 38zM229 158v115c0 15 -1 38 -26 38c-21 0 -26 -18 -26 -38v-115c0 -18 5 -33 26 -33c20 0 26 15 26 33z" />
    <glyph glyph-name="nine" unicode="9" 
d="M22 380v172c0 105 86 154 180 154s175 -57 175 -161v-336c0 -40 -24 -104 -87 -152c-71 -54 -155 -67 -242 -67c-20 0 -24 6 -24 64c0 62 9 66 27 67c76 4 142 15 166 63c7 13 9 34 9 51v26c0 12 -8 18 -18 9c-24 -20 -54 -22 -75 -22c-58 0 -111 48 -111 132zM171 538
v-133c0 -15 1 -38 26 -38c21 0 26 18 26 38v133c0 18 -5 33 -26 33c-20 0 -26 -15 -26 -33z" />
    <glyph glyph-name="colon" unicode=":" horiz-adv-x="185" 
d="M170 76c0 -36 -10 -54 -22 -66c-14 -13 -35 -20 -56 -20s-41 7 -55 20c-12 12 -22 30 -22 67c0 36 10 54 22 66c14 13 34 20 55 20s42 -7 56 -20c12 -12 22 -30 22 -67zM170 326c0 -36 -10 -54 -22 -66c-14 -13 -35 -20 -56 -20s-41 7 -55 20c-12 12 -22 30 -22 67
c0 36 10 54 22 66c14 13 34 20 55 20s42 -7 56 -20c12 -12 22 -30 22 -67z" />
    <glyph glyph-name="semicolon" unicode=";" horiz-adv-x="188" 
d="M169 326c0 -36 -10 -54 -22 -66c-14 -13 -35 -20 -56 -20s-41 7 -55 20c-12 12 -22 30 -22 67c0 36 10 54 22 66c14 13 34 20 55 20s42 -7 56 -20c12 -12 22 -30 22 -67zM173 41c0 -61 -27 -146 -146 -160c-11 -1 -11 4 -11 28c0 29 4 29 11 30c26 3 54 21 68 44
c5 9 1 14 -10 9c-3 -1 -12 -2 -14 -2c-30 0 -59 20 -59 77c0 36 10 55 22 68c14 15 33 24 56 24s42 -9 56 -24c23 -23 27 -59 27 -94z" />
    <glyph glyph-name="less" unicode="&#x3c;" 
d="M181 337l134 -50c7 -2 11 -4 11 -59c0 -57 -4 -59 -22 -51l-220 101c-3 2 -10 5 -10 69c0 60 7 63 10 65l220 101c18 8 22 6 22 -51c0 -55 -4 -57 -11 -59l-134 -50c-3 -1 -7 -4 -7 -7c0 -6 4 -8 7 -9z" />
    <glyph glyph-name="equal" unicode="=" 
d="M354 411c-1 -36 -7 -42 -21 -42h-266c-13 0 -21 6 -21 43s8 44 21 44h262c14 0 26 -7 25 -45zM354 276c-1 -36 -7 -42 -21 -42h-266c-13 0 -21 6 -21 43s8 44 21 44h262c14 0 26 -7 25 -45z" />
    <glyph glyph-name="greater" unicode="&#x3e;" 
d="M85 287l134 50c3 1 7 3 7 9c0 3 -4 6 -7 7l-134 50c-7 2 -11 4 -11 59c0 57 4 59 22 51l220 -101c3 -2 10 -5 10 -65c0 -64 -7 -67 -10 -69l-220 -101c-18 -8 -22 -6 -22 51c0 55 4 57 11 59z" />
    <glyph glyph-name="question" unicode="?" horiz-adv-x="397" 
d="M387 521c0 -87 -25 -115 -84 -178c-35 -38 -40 -62 -40 -87v-33c0 -7 2 -19 -76 -19c-67 0 -75 6 -75 19v49c0 58 7 65 39 103c31 37 75 85 75 126v25c0 19 -5 35 -25 35c-27 0 -25 -26 -25 -36v-27c0 -13 -6 -22 -72 -22c-62 0 -74 2 -74 22v44c0 99 71 164 174 164
c123 0 183 -71 183 -185zM273 86v-22c0 -25 -10 -42 -23 -54c-14 -13 -32 -20 -54 -20s-40 7 -54 20c-13 12 -23 29 -23 54v22c0 25 10 40 23 52c14 13 32 20 54 20s40 -7 54 -20c13 -12 23 -27 23 -52z" />
    <glyph glyph-name="at" unicode="@" horiz-adv-x="804" 
d="M743 247c-3 -154 -83 -176 -134 -176c-47 0 -78 19 -95 46c-5 8 -8 10 -15 2c-36 -38 -79 -51 -105 -51c-92 0 -166 46 -162 153l2 55c4 99 62 153 148 153c31 0 65 -9 86 -32c4 -4 12 -10 16 3s10 22 41 22c39 0 45 -13 45 -23l-4 -189c-1 -52 13 -76 42 -76
c38 0 54 37 56 114c3 139 -67 243 -246 243c-185 0 -271 -111 -271 -247c0 -146 92 -240 259 -240h101c10 0 21 -4 21 -35c0 -30 -6 -40 -17 -40h-110c-209 0 -341 116 -341 315c0 180 135 314 357 314c204 0 330 -111 326 -311zM470 221l1 56c1 43 -30 80 -75 80
c-37 0 -61 -23 -63 -81l-2 -55c-2 -58 23 -82 60 -82c45 0 78 39 79 82z" />
    <glyph glyph-name="A" unicode="A" horiz-adv-x="402" 
d="M280 684l111 -670c1 -9 -7 -19 -74 -19c-69 0 -75 10 -76 19l-12 121c-1 15 -6 17 -17 17h-22c-16 0 -16 -5 -17 -17l-12 -121c-1 -9 -7 -19 -77 -19c-66 0 -74 10 -73 19l110 670c1 9 7 19 76 19c76 0 82 -10 83 -19zM223 273l-13 195c-1 9 -2 14 -8 14
c-5 0 -7 -5 -8 -14l-15 -195c-1 -9 4 -14 13 -14h18c9 0 14 5 13 14z" />
    <glyph glyph-name="B" unicode="B" horiz-adv-x="434" 
d="M404 266v-93c0 -80 -36 -173 -182 -173h-166c-9 0 -16 7 -16 16v664c0 9 7 16 16 16h176c84 0 161 -54 161 -152v-77c0 -47 -13 -74 -54 -96c-8 -4 -10 -7 0 -10c44 -11 65 -60 65 -95zM248 449v80c0 26 -13 32 -38 32c-13 0 -16 -7 -16 -16v-106c0 -9 3 -16 16 -16
c20 0 38 6 38 26zM254 164v98c0 26 -26 27 -44 27c-13 0 -16 -7 -16 -16v-122c0 -9 0 -16 16 -16c12 0 44 0 44 29z" />
    <glyph glyph-name="C" unicode="C" horiz-adv-x="401" 
d="M386 229v-75c0 -51 -14 -95 -48 -124c-32 -27 -72 -40 -122 -40s-96 13 -128 40c-34 29 -53 73 -53 124v388c0 51 19 95 53 124c32 27 78 40 128 40s89 -13 121 -40c34 -29 49 -73 49 -124v-73c0 -9 -7 -19 -72 -19c-64 0 -71 9 -71 18v59c0 21 -3 38 -27 38
c-25 0 -27 -19 -27 -38v-356c0 -19 2 -38 27 -38c24 0 27 17 27 38v58c0 9 7 19 70 19c66 0 73 -10 73 -19z" />
    <glyph glyph-name="D" unicode="D" horiz-adv-x="432" 
d="M397 540v-385c0 -32 -18 -155 -175 -155h-166c-9 0 -16 7 -16 16v664c0 9 7 16 16 16h177c84 0 164 -58 164 -156zM248 161v374c0 16 -12 26 -21 26h-17c-9 0 -16 -7 -16 -16v-394c0 -9 7 -16 16 -16h17c9 0 21 11 21 26z" />
    <glyph glyph-name="E" unicode="E" horiz-adv-x="344" 
d="M337 68c0 -61 -10 -68 -19 -68h-262c-9 0 -16 7 -16 16v664c0 9 7 16 16 16h262c9 0 19 -7 19 -66c0 -62 -10 -69 -19 -69h-110c-12 0 -16 -7 -16 -16v-102c0 -9 4 -16 16 -16h59c9 0 18 -7 18 -64c0 -59 -9 -66 -18 -66h-59c-12 0 -16 -7 -16 -16v-130
c0 -9 4 -16 16 -16h110c9 0 19 -7 19 -67z" />
    <glyph glyph-name="F" unicode="F" horiz-adv-x="349" 
d="M347 627c-1 -59 -10 -66 -19 -66h-120c-12 0 -16 -7 -16 -16v-123c0 -9 4 -16 16 -16h69c9 0 19 -7 19 -64c0 -59 -10 -66 -19 -66h-69c-12 0 -16 -7 -16 -16v-244c0 -9 -7 -16 -16 -16h-120c-9 0 -16 7 -16 16v664c0 9 7 16 16 16h272c9 0 20 -7 19 -69z" />
    <glyph glyph-name="G" unicode="G" horiz-adv-x="432" 
d="M394 193l3 -182c0 -9 -7 -16 -16 -16h-17c-9 0 -14 8 -19 16l-7 14c-6 11 -11 12 -23 2c-28 -23 -66 -36 -105 -37c-36 -1 -76 8 -106 27c-41 26 -69 74 -69 122v418c0 48 28 96 69 122c34 22 73 27 116 27c35 0 73 -6 103 -25c43 -28 71 -72 71 -118v-94
c0 -9 -7 -19 -73 -19c-63 0 -70 9 -70 18v59c0 21 -7 38 -31 38c-25 0 -31 -17 -31 -38v-356c0 -21 6 -38 31 -38c24 0 31 17 31 38v54c0 11 -2 15 -16 15c-10 0 -18 7 -18 57c0 46 8 53 18 53h143c9 0 16 -7 16 -16v-141z" />
    <glyph glyph-name="H" unicode="H" horiz-adv-x="431" 
d="M391 684v-670c0 -9 -7 -19 -71 -19c-63 0 -70 10 -70 19v262c0 9 -7 16 -16 16h-29c-9 0 -16 -7 -16 -16v-262c0 -9 -7 -19 -76 -19c-66 0 -73 10 -73 19v670c0 9 7 19 74 19c68 0 75 -10 75 -19v-241c0 -9 7 -16 16 -16h29c9 0 16 7 16 16v241c0 9 7 19 70 19
c64 0 71 -10 71 -19z" />
    <glyph glyph-name="I" unicode="I" horiz-adv-x="254" 
d="M204 684v-670c0 -9 -7 -19 -77 -19s-77 10 -77 19v670c0 9 7 19 77 19s77 -10 77 -19z" />
    <glyph glyph-name="J" unicode="J" horiz-adv-x="396" 
d="M361 684v-530c0 -51 -19 -95 -53 -124c-32 -27 -78 -40 -128 -40s-90 13 -122 40c-34 29 -48 73 -48 124v75c0 9 7 19 71 19c65 0 72 -10 72 -19v-58c0 -21 3 -38 27 -38c25 0 27 19 27 38v513c0 9 7 19 77 19s77 -10 77 -19z" />
    <glyph glyph-name="K" unicode="K" horiz-adv-x="446" 
d="M399 268l12 -254c0 -9 -7 -19 -79 -19c-74 0 -81 10 -81 19l-3 250c0 20 -8 27 -23 27h-13c-15 0 -18 -8 -18 -18v-259c0 -9 -7 -19 -82 -19c-65 0 -72 10 -72 19v670c0 9 7 19 75 19c73 0 80 -10 80 -19v-242c0 -9 4 -17 17 -17c20 0 28 6 28 26v233c0 9 7 19 75 19
c69 0 76 -10 76 -19l-2 -215c0 -47 -11 -85 -50 -99c-6 -2 -10 -9 0 -11c45 -10 58 -56 60 -91z" />
    <glyph glyph-name="L" unicode="L" horiz-adv-x="342" 
d="M345 69c0 -62 -10 -69 -19 -69h-270c-9 0 -16 7 -16 16v668c0 9 7 19 75 19c72 0 79 -10 79 -19v-533c0 -9 4 -16 16 -16h116c9 0 19 -7 19 -66z" />
    <glyph glyph-name="M" unicode="M" horiz-adv-x="532" 
d="M492 684v-670c0 -9 -7 -19 -75 -19c-70 0 -77 10 -77 19l6 346c0 10 -6 15 -11 15c-4 0 -10 -5 -12 -15l-28 -131c-2 -8 -11 -16 -18 -16h-24c-7 0 -17 1 -20 18l-26 129c-2 10 -9 14 -13 14s-11 -5 -11 -14l4 -346c0 -9 -7 -19 -74 -19c-66 0 -73 10 -73 19v670
c0 9 7 19 68 19c69 0 74 -11 76 -19l67 -233c4 -13 7 -21 15 -21s10 8 14 22l65 232c2 8 7 19 74 19c66 0 73 -10 73 -19z" />
    <glyph glyph-name="N" unicode="N" horiz-adv-x="471" 
d="M431 684v-670c0 -9 -7 -19 -67 -19c-62 0 -71 14 -73 23l-80 282c-3 10 -8 14 -12 14s-10 -5 -10 -14l4 -286c0 -9 -7 -19 -81 -19c-65 0 -72 10 -72 19v670c0 9 7 19 68 19c63 0 67 -11 70 -19l82 -263c3 -9 8 -14 13 -14c3 0 9 2 9 16l-5 261c0 9 7 19 78 19
c69 0 76 -10 76 -19z" />
    <glyph glyph-name="O" unicode="O" horiz-adv-x="432" 
d="M397 542v-388c0 -51 -19 -95 -53 -124c-32 -27 -78 -40 -128 -40s-96 13 -128 40c-34 29 -53 73 -53 124v388c0 51 19 95 53 124c32 27 78 40 128 40s96 -13 128 -40c34 -29 53 -73 53 -124zM251 171v356c0 21 -7 38 -31 38c-25 0 -31 -19 -31 -38v-356
c0 -19 6 -38 31 -38c24 0 31 17 31 38z" />
    <glyph glyph-name="P" unicode="P" horiz-adv-x="419" 
d="M394 544v-157c0 -47 -27 -151 -183 -151c-12 0 -19 -8 -19 -20l2 -202c0 -9 -7 -19 -80 -19c-67 0 -74 10 -74 19v666c0 9 7 16 16 16h165c84 0 173 -54 173 -152zM252 389v140c0 25 -14 32 -41 32c-14 0 -16 -7 -16 -16v-169c0 -11 5 -16 16 -16c25 0 41 10 41 29z" />
    <glyph glyph-name="Q" unicode="Q" horiz-adv-x="432" 
d="M397 542v-388c0 -66 -32 -122 -93 -148c-9 -4 -12 -11 -12 -18v-10c0 -21 13 -27 58 -27c10 0 17 -5 17 -47c0 -43 -9 -48 -19 -48h-30c-73 0 -178 10 -178 111v19c0 7 -2 15 -13 20c-63 28 -92 77 -92 148v388c0 51 19 95 53 124c32 27 78 40 128 40s96 -13 128 -40
c34 -29 53 -73 53 -124zM251 169v358c0 21 -7 38 -31 38c-25 0 -31 -19 -31 -38v-358c0 -19 6 -38 31 -38c24 0 31 17 31 38z" />
    <glyph glyph-name="R" unicode="R" horiz-adv-x="440" 
d="M395 264l10 -250c0 -9 -7 -19 -78 -19c-75 0 -82 10 -82 19v246c0 20 -8 27 -23 27h-10c-15 0 -18 -9 -18 -19v-254c0 -9 -7 -19 -81 -19c-66 0 -73 10 -73 19v666c0 9 7 16 16 16h176c84 0 161 -54 161 -152v-79c0 -47 -15 -85 -54 -99c-6 -2 -10 -9 0 -11
c45 -10 55 -56 56 -91zM248 447v82c0 28 -13 32 -38 32c-13 0 -16 -7 -16 -16v-108c0 -9 3 -16 16 -16c20 0 38 6 38 26z" />
    <glyph glyph-name="S" unicode="S" horiz-adv-x="420" 
d="M390 179c0 -55 -9 -108 -58 -149c-32 -27 -78 -40 -128 -40s-89 13 -121 40c-34 29 -49 73 -49 124v61c0 9 7 20 72 19c62 -1 69 -9 69 -18v-51c0 -21 7 -40 29 -40s30 24 30 44c0 73 -31 102 -89 150c-56 46 -115 93 -115 199c0 55 7 106 56 147c32 27 78 41 128 41
s89 -13 121 -40c34 -29 49 -73 49 -124v-39c0 -9 -7 -19 -70 -19c-64 0 -71 9 -71 18v29c0 21 -8 41 -30 41c-23 0 -31 -23 -31 -46c0 -52 37 -78 72 -106c60 -47 136 -94 136 -241z" />
    <glyph glyph-name="T" unicode="T" horiz-adv-x="325" 
d="M328 625c-1 -61 -10 -68 -19 -68h-53c-9 0 -16 -7 -16 -16l-2 -527c0 -9 -7 -19 -79 -19c-68 0 -75 10 -75 19l1 527c0 9 -7 16 -16 16h-53c-9 0 -18 7 -19 68c-1 63 10 71 19 71h293c9 0 20 -8 19 -71z" />
    <glyph glyph-name="U" unicode="U" horiz-adv-x="432" 
d="M397 684v-530c0 -51 -19 -95 -53 -124c-32 -27 -78 -40 -128 -40s-96 13 -128 40c-34 29 -53 73 -53 124v530c0 9 7 19 77 19s77 -10 77 -19v-513c0 -19 6 -38 31 -38c24 0 31 17 31 38v513c0 9 7 19 73 19s73 -10 73 -19z" />
    <glyph glyph-name="V" unicode="V" horiz-adv-x="394" 
d="M383 684l-108 -670c-1 -9 -8 -19 -78 -19s-77 10 -78 19l-108 670c-1 9 7 19 76 19c73 0 79 -10 80 -19l25 -366c1 -9 3 -14 8 -14c6 0 7 5 8 14l29 366c1 9 7 19 73 19s74 -10 73 -19z" />
    <glyph glyph-name="W" unicode="W" horiz-adv-x="503" 
d="M284 14l-20 130c-3 20 -16 19 -19 0l-19 -130c-1 -9 -8 -19 -75 -19c-65 0 -72 10 -73 19l-62 670c-1 9 7 19 73 19c71 0 78 -10 78 -19l19 -453c0 -9 4 -14 9 -14c6 0 8 5 9 14l14 232c1 9 7 17 37 17c29 0 35 -8 36 -17l14 -232c1 -9 2 -14 8 -14c5 0 8 5 8 14l22 453
c0 9 7 19 72 19s73 -10 72 -19l-62 -670c-1 -9 -8 -20 -74 -19c-59 1 -66 10 -67 19z" />
    <glyph glyph-name="X" unicode="X" horiz-adv-x="414" 
d="M299 344l104 -330c3 -9 -7 -19 -76 -19s-74 10 -76 19l-30 139c-2 9 -2 14 -8 14c-5 0 -6 -5 -8 -14l-30 -139c-2 -9 -7 -19 -84 -19c-70 0 -80 10 -77 19l109 333c3 11 4 20 -2 35l-110 302c-3 9 7 19 83 19c75 0 80 -10 82 -19l27 -131c2 -9 3 -14 8 -14c6 0 6 5 8 14
l27 131c2 9 7 19 78 19c70 0 80 -10 77 -19l-101 -305c-4 -13 -5 -24 -1 -35z" />
    <glyph glyph-name="Y" unicode="Y" horiz-adv-x="384" 
d="M378 684l-103 -367c-5 -19 -6 -33 -6 -52l3 -251c0 -9 -7 -19 -79 -19s-79 10 -79 19l3 250c0 17 -2 30 -7 49l-104 371c-2 9 7 19 78 19s77 -10 78 -19l24 -239c1 -9 3 -14 8 -14c6 0 7 5 8 14l30 239c1 9 7 19 73 19s75 -10 73 -19z" />
    <glyph glyph-name="Z" unicode="Z" horiz-adv-x="354" 
d="M337 70c0 -63 -10 -70 -19 -70h-272c-18 0 -26 8 -26 26v137c0 14 6 22 11 33l148 331c6 13 5 30 -15 30h-118c-9 0 -20 7 -19 72c1 60 10 67 19 67h261c19 0 26 -8 26 -26v-88c0 -13 0 -24 -5 -38c-158 -393 -156 -374 -156 -374c-9 -22 4 -31 19 -31h129
c9 0 17 -7 17 -69z" />
    <glyph glyph-name="bracketleft" unicode="[" horiz-adv-x="291" 
d="M273 -87c0 -42 -9 -49 -18 -49h-193c-13 0 -22 12 -22 22v828c0 13 9 22 22 22h192c9 0 19 -7 18 -52c-1 -41 -9 -48 -18 -48h-69c-8 0 -16 -1 -16 -14v-642c0 -11 5 -16 16 -16h70c9 0 18 -7 18 -51z" />
    <glyph glyph-name="backslash" unicode="\" horiz-adv-x="296" 
d="M149 9l-148 681c-2 9 1 19 71 19c68 0 73 -10 75 -19l148 -681c2 -9 -3 -19 -69 -19c-70 0 -75 10 -77 19z" />
    <glyph glyph-name="bracketright" unicode="]" horiz-adv-x="291" 
d="M17 -87c0 44 9 51 18 51h70c11 0 16 5 16 16v642c0 13 -8 14 -16 14h-69c-9 0 -17 7 -18 48c-1 45 9 52 18 52h192c13 0 22 -9 22 -22v-828c0 -10 -9 -22 -22 -22h-193c-9 0 -18 7 -18 49z" />
    <glyph glyph-name="asciicircum" unicode="^" 
d="M239 708l127 -200c10 -16 3 -22 -43 -22c-45 0 -48 4 -53 10l-62 75c-2 3 -5 8 -9 8c-5 0 -8 -5 -10 -8l-59 -75c-4 -5 -7 -10 -52 -10c-47 0 -54 6 -44 22l126 200c4 6 7 10 39 10c34 0 38 -7 40 -10z" />
    <glyph glyph-name="underscore" unicode="_" horiz-adv-x="502" 
d="M520 -129v-53c0 -9 -7 -16 -16 -16h-506c-9 0 -16 7 -16 16v53c0 9 7 16 16 16h506c9 0 16 -7 16 -16z" />
    <glyph glyph-name="grave" unicode="`" horiz-adv-x="267" 
d="M186 650l30 -103c2 -8 2 -17 -38 -18c-42 -1 -47 7 -52 14l-74 103c-7 9 0 19 67 19c60 0 64 -4 67 -15z" />
    <glyph glyph-name="a" unicode="a" horiz-adv-x="432" 
d="M402 329v-316c0 -9 -7 -18 -64 -18c-63 0 -68 8 -70 22c-1 5 -1 17 -5 17c-3 0 -7 -9 -11 -14c-18 -21 -45 -29 -72 -30c-43 -1 -86 13 -116 47c-25 29 -34 73 -34 112c0 50 35 135 144 135c28 0 48 -8 64 -16c10 -5 16 -1 16 11v38c0 20 -6 45 -37 45
c-24 0 -37 -21 -38 -39c-1 -8 -2 -18 -68 -18c-71 0 -75 9 -75 22c0 80 69 160 181 160c55 0 98 -14 129 -38c37 -28 56 -73 56 -120zM254 121v43c0 12 -14 28 -39 28c-21 0 -36 -16 -36 -48c0 -31 10 -53 36 -53s39 18 39 30z" />
    <glyph glyph-name="b" unicode="b" horiz-adv-x="422" 
d="M392 313v-147c0 -67 -14 -111 -37 -137c-21 -24 -58 -39 -93 -39c-29 0 -57 9 -75 30c-4 5 -6 12 -10 12s-5 -9 -6 -14c-2 -14 -7 -22 -67 -23c-62 -1 -69 10 -69 19v670c0 9 7 19 72 19s72 -10 72 -19l-2 -219c0 -15 3 -17 7 -17c3 0 6 4 10 9c17 22 43 30 71 30
c36 0 70 -15 91 -39c23 -26 36 -68 36 -135zM238 176v130c0 20 -5 40 -26 40c-18 0 -25 -15 -25 -42v-128c0 -27 5 -41 26 -41c18 0 25 14 25 41z" />
    <glyph glyph-name="c" unicode="c" horiz-adv-x="404" 
d="M384 169v-15c0 -51 -19 -95 -52 -124c-31 -27 -76 -40 -125 -40s-94 13 -125 40c-33 29 -52 73 -52 124v169c0 51 19 95 52 124c31 27 76 40 125 40s94 -13 125 -40c33 -29 52 -73 52 -124v-13c0 -8 -2 -18 -69 -18c-72 0 -72 9 -72 19c0 21 -6 38 -30 38
s-30 -19 -30 -38v-143c0 -19 6 -38 30 -38s30 17 30 38c0 12 3 20 71 20c64 0 70 -4 70 -19z" />
    <glyph glyph-name="d" unicode="d" horiz-adv-x="422" 
d="M30 164v149c0 67 13 109 36 135c21 24 55 39 91 39c28 0 54 -8 71 -30c4 -5 7 -9 10 -9c4 0 7 2 7 17l-2 219c0 9 7 19 72 19s72 -10 72 -19v-670c0 -9 -7 -20 -69 -19c-60 1 -65 9 -67 23c-1 5 -2 14 -6 14s-6 -7 -10 -12c-18 -21 -46 -30 -75 -30c-35 0 -72 15 -93 39
c-23 26 -37 68 -37 135zM184 306v-132c0 -27 7 -41 25 -41c21 0 26 14 26 41v130c0 27 -7 42 -25 42c-21 0 -26 -20 -26 -40z" />
    <glyph glyph-name="e" unicode="e" horiz-adv-x="420" 
d="M384 164v-10c0 -48 -19 -94 -52 -124c-30 -28 -76 -40 -125 -40s-94 13 -125 40c-33 29 -52 73 -52 124v169c0 51 19 95 52 124c31 27 76 40 125 40s94 -13 125 -40c33 -29 52 -73 52 -124v-81c0 -21 -7 -26 -26 -26h-158c-13 0 -17 -7 -17 -16v-32c0 -19 6 -38 30 -38
s30 14 30 33c0 12 3 19 71 19c64 0 71 -3 70 -18zM243 295v32c0 22 -11 32 -29 32c-24 0 -31 -19 -31 -38v-26c0 -13 5 -16 18 -16h24c16 0 18 10 18 16z" />
    <glyph glyph-name="f" unicode="f" horiz-adv-x="279" 
d="M272 408c0 -62 -10 -69 -19 -69h-45c-9 0 -15 -3 -15 -15v-310c0 -9 -7 -19 -77 -19s-77 10 -77 19v310c0 10 -4 15 -15 15h-8c-9 0 -20 7 -19 71c1 58 10 65 19 65h11c12 0 12 9 12 15v52c0 51 19 95 53 124c24 21 64 40 115 40h44c9 0 19 -7 19 -71
c0 -63 -10 -70 -19 -70h-29c-25 0 -31 -19 -31 -38v-37c0 -10 4 -15 15 -15h47c9 0 19 -7 19 -67z" />
    <glyph glyph-name="g" unicode="g" horiz-adv-x="422" 
d="M387 463v-505c0 -51 -19 -97 -53 -126c-32 -27 -78 -40 -128 -40s-89 12 -122 40c-32 28 -51 77 -51 124c0 9 6 17 73 17c65 0 70 -5 73 -19s12 -30 31 -30c28 0 37 20 37 47v58c0 5 -1 14 -5 14c-3 0 -7 -7 -11 -12c-19 -21 -46 -28 -75 -28c-35 0 -71 15 -92 39
c-23 26 -34 68 -34 135v136c0 67 14 109 37 135c21 24 58 39 93 39c29 0 57 -9 75 -30c4 -5 7 -12 10 -12c4 0 5 9 6 14c2 14 7 23 67 23c62 0 69 -10 69 -19zM235 185v119c0 27 -7 42 -25 42c-21 0 -26 -20 -26 -40v-121c0 -27 7 -41 25 -41c21 0 26 14 26 41z" />
    <glyph glyph-name="h" unicode="h" horiz-adv-x="422" 
d="M392 313v-299c0 -9 -7 -19 -73 -19c-74 0 -81 10 -81 19v291c0 27 -7 41 -25 41s-24 -16 -24 -41v-291c0 -9 -7 -19 -76 -19c-71 0 -78 10 -78 19v670c0 10 6 19 69 19s69 -5 69 -17l-2 -228c0 -5 1 -9 6 -9c3 0 5 3 9 8c15 18 45 30 68 30c20 0 67 1 101 -39
c23 -26 37 -68 37 -135z" />
    <glyph glyph-name="i" unicode="i" horiz-adv-x="223" 
d="M193 623c0 -26 -5 -48 -25 -67c-14 -13 -36 -20 -57 -20s-42 7 -56 20c-20 19 -25 41 -25 67c0 25 6 47 25 66c14 13 35 20 56 20s43 -7 57 -20c19 -19 25 -41 25 -66zM188 463v-449c0 -9 -7 -19 -76 -19c-70 0 -77 10 -77 19v449c0 9 7 19 77 19c69 0 76 -10 76 -19z
" />
    <glyph glyph-name="j" unicode="j" horiz-adv-x="233" 
d="M198 623c0 -26 -5 -48 -25 -67c-14 -13 -36 -20 -57 -20s-42 7 -56 20c-20 19 -25 41 -25 67c0 25 6 47 25 66c14 13 35 20 56 20s43 -7 57 -20c19 -19 25 -41 25 -66zM198 463v-507c0 -51 -19 -95 -53 -124c-24 -21 -64 -40 -115 -40h-44c-9 0 -18 7 -19 68
c-1 66 10 73 19 73h27c25 0 31 19 31 38v492c0 9 7 19 75 19c72 0 79 -10 79 -19z" />
    <glyph glyph-name="k" unicode="k" horiz-adv-x="426" 
d="M317 267l97 -253c4 -9 0 -19 -70 -19c-75 0 -79 10 -81 16l-44 133c-2 6 -4 8 -9 8s-6 -3 -10 -7l-6 -6c-4 -4 -5 -9 -5 -16v-109c0 -9 -7 -19 -76 -19c-71 0 -78 10 -78 19v670c0 9 7 19 76 19c71 0 78 -10 78 -19l-2 -341c0 -15 1 -19 6 -19c6 0 7 6 9 12l41 129
c2 8 3 16 72 17c79 1 80 -10 77 -18l-76 -172c-4 -9 -1 -20 1 -25z" />
    <glyph glyph-name="l" unicode="l" horiz-adv-x="224" 
d="M189 684v-670c0 -9 -7 -19 -76 -19c-71 0 -78 10 -78 19v670c0 9 7 19 77 19s77 -10 77 -19z" />
    <glyph glyph-name="m" unicode="m" horiz-adv-x="630" 
d="M595 313v-299c0 -9 -7 -19 -73 -19c-74 0 -81 10 -81 19v291c0 27 -8 41 -26 41c-20 0 -23 -20 -23 -41v-291c0 -9 -7 -19 -76 -19c-71 0 -78 10 -78 19v291c0 27 -7 41 -25 41s-24 -16 -24 -41v-291c0 -9 -7 -19 -81 -19c-66 0 -73 10 -73 19v449c0 10 6 19 68 19
s68 -5 68 -17v-7c0 -5 1 -10 6 -10c3 0 5 4 9 9c15 18 43 30 66 30c19 0 51 4 86 -34c10 -10 12 -8 21 0c28 27 50 34 86 34c44 0 77 -11 103 -35c39 -36 47 -84 47 -139z" />
    <glyph glyph-name="n" unicode="n" horiz-adv-x="427" 
d="M392 313v-299c0 -9 -7 -19 -75 -19c-72 0 -79 10 -79 19v291c0 27 -7 41 -25 41s-24 -16 -24 -41v-291c0 -9 -7 -19 -79 -19c-68 0 -75 10 -75 19v449c0 10 6 19 71 19c61 0 67 -5 67 -17v-7c0 -5 1 -9 6 -9c3 0 5 3 9 8c15 18 43 30 66 30c20 0 67 1 101 -39
c23 -26 37 -68 37 -135z" />
    <glyph glyph-name="o" unicode="o" horiz-adv-x="414" 
d="M384 323v-169c0 -51 -19 -95 -52 -124c-31 -27 -76 -40 -125 -40s-94 13 -125 40c-33 29 -52 73 -52 124v169c0 51 19 95 52 124c31 27 76 40 125 40s94 -13 125 -40c33 -29 52 -73 52 -124zM243 171v137c0 21 -7 38 -31 38s-29 -19 -29 -38v-137c0 -19 6 -38 30 -38
s30 17 30 38z" />
    <glyph glyph-name="p" unicode="p" horiz-adv-x="422" 
d="M392 313v-149c0 -67 -13 -109 -36 -135c-21 -24 -55 -39 -91 -39c-28 0 -54 8 -71 30c-4 5 -7 9 -10 9c-4 0 -7 -2 -7 -17l2 -196c0 -9 -7 -19 -72 -19s-72 10 -72 19v647c0 9 7 19 67 19c62 0 67 -9 69 -23c1 -5 2 -14 6 -14s6 7 10 12c18 21 46 30 75 30
c35 0 72 -15 93 -39c23 -26 37 -68 37 -135zM238 171v132c0 27 -7 41 -25 41c-21 0 -26 -14 -26 -41v-130c0 -27 7 -42 25 -42c21 0 26 20 26 40z" />
    <glyph glyph-name="q" unicode="q" horiz-adv-x="422" 
d="M30 164v149c0 67 14 109 37 135c21 24 58 39 93 39c29 0 56 -9 74 -30c4 -5 8 -12 12 -12c5 0 7 4 12 19c5 14 9 23 65 23c57 0 64 -10 64 -19v-652c0 -9 -7 -19 -72 -19s-72 10 -72 19l2 196c0 15 -3 17 -7 17c-3 0 -6 -4 -10 -9c-17 -22 -43 -30 -71 -30
c-36 0 -70 15 -91 39c-23 26 -36 68 -36 135zM184 303v-132c0 -20 5 -40 26 -40c18 0 25 15 25 42v130c0 27 -5 41 -26 41c-18 0 -25 -14 -25 -41z" />
    <glyph glyph-name="r" unicode="r" horiz-adv-x="291" 
d="M294 414c0 -76 -7 -80 -19 -79c-10 1 -25 2 -30 2c-39 0 -59 -13 -59 -49l2 -274c0 -9 -7 -19 -77 -19c-69 0 -76 10 -76 19v448c0 8 4 20 69 20c62 0 68 -8 68 -19v-11c0 -9 4 -13 10 -4c22 35 71 39 94 39c13 0 18 -6 18 -73z" />
    <glyph glyph-name="s" unicode="s" horiz-adv-x="391" 
d="M366 129c0 -75 -68 -139 -170 -139c-96 0 -171 57 -171 159c0 6 4 19 72 19c66 0 68 -9 68 -16c1 -20 2 -46 28 -46c14 0 24 10 24 29c0 46 -63 55 -94 67c-51 20 -94 55 -94 142s73 143 164 143c85 0 155 -49 163 -148c1 -11 -1 -21 -70 -21c-63 0 -71 4 -72 19
c-1 24 -12 31 -25 31s-21 -10 -21 -26c0 -29 37 -39 89 -60c63 -25 109 -69 109 -153z" />
    <glyph glyph-name="t" unicode="t" horiz-adv-x="282" 
d="M275 60c0 -63 -10 -70 -19 -70h-49c-51 0 -91 19 -115 40c-34 29 -53 73 -53 124v172c0 6 0 15 -12 15h-11c-9 0 -19 7 -18 74c1 55 9 62 18 62h8c11 0 15 5 15 15v67c0 9 6 18 76 29c71 12 78 0 78 -9v-87c0 -12 6 -15 15 -15h40c9 0 18 -7 19 -65
c1 -64 -10 -71 -19 -71h-42c-11 0 -15 -5 -15 -15v-157c0 -19 6 -38 31 -38h34c9 0 19 -7 19 -71z" />
    <glyph glyph-name="u" unicode="u" horiz-adv-x="422" 
d="M387 463v-449c0 -10 -6 -19 -72 -19c-60 0 -66 5 -66 17v7c0 5 0 10 -5 10c-3 0 -6 -4 -10 -9c-15 -18 -43 -30 -66 -30c-20 0 -67 -1 -101 39c-23 26 -37 68 -37 135v298c0 9 7 20 79 20c68 0 75 -11 75 -20v-290c0 -27 7 -41 25 -41s24 16 24 41v291c0 9 7 19 78 19
c69 0 76 -10 76 -19z" />
    <glyph glyph-name="v" unicode="v" horiz-adv-x="378" 
d="M367 465l-111 -454c-1 -6 -7 -16 -69 -16c-63 0 -67 10 -68 16l-108 454c-1 6 0 17 72 17c76 0 77 -11 78 -17l21 -246c1 -6 2 -14 8 -14s7 8 8 14l31 246c1 6 4 17 71 17c69 0 68 -11 67 -17z" />
    <glyph glyph-name="w" unicode="w" horiz-adv-x="465" 
d="M449 465l-71 -454c-1 -6 -6 -16 -60 -16c-56 0 -61 10 -62 16l-12 122c-1 10 -1 12 -7 12c-5 0 -6 -4 -7 -12l-19 -122c-1 -6 -6 -16 -62 -16s-61 10 -62 16l-71 454c-1 6 0 17 67 17c64 0 66 -11 66 -17l19 -237c0 -5 1 -14 7 -14s8 8 8 14l10 237c0 6 3 16 43 16
c41 0 44 -10 44 -16l8 -237c0 -6 2 -14 8 -14s7 9 7 14l15 237c0 6 2 17 67 17c64 0 65 -11 64 -17z" />
    <glyph glyph-name="x" unicode="x" horiz-adv-x="393" 
d="M283 230l98 -216c4 -9 0 -19 -69 -19c-71 0 -73 10 -75 16l-33 123c-2 6 -3 9 -8 9s-5 -3 -6 -9l-30 -123c-1 -6 -6 -16 -76 -16c-75 0 -75 11 -72 19l89 212c3 7 4 17 0 28l-81 210c-2 6 -3 18 72 18c67 0 71 -6 74 -18l24 -112c1 -6 1 -12 8 -12c6 0 6 6 7 12l24 113
c2 8 3 17 74 17c69 0 70 -10 67 -18l-86 -209c-4 -9 -3 -20 -1 -25z" />
    <glyph glyph-name="y" unicode="y" horiz-adv-x="373" 
d="M367 465l-114 -447l-46 -205c-2 -9 -7 -16 -70 -16c-71 0 -73 11 -70 19l61 167c4 12 -2 16 -5 16c-8 0 -11 8 -12 11l-100 455c-1 6 0 17 77 17c67 0 68 -11 69 -17l22 -253c1 -6 2 -14 8 -14s7 8 8 14l30 253c1 6 4 17 74 17s70 -11 68 -17z" />
    <glyph glyph-name="z" unicode="z" horiz-adv-x="329" 
d="M327 65c0 -58 -10 -65 -19 -65h-286c-9 0 -16 7 -16 16v98c0 11 -4 23 11 41l132 156c20 25 6 41 -12 41h-103c-9 0 -19 7 -19 65c0 53 10 60 19 60h268c9 0 16 -7 16 -16v-108c0 -9 -8 -26 -13 -33l-136 -164c-3 -5 -5 -8 -5 -15c0 -10 6 -14 20 -14h124
c9 0 19 -7 19 -62z" />
    <glyph glyph-name="braceleft" unicode="{" horiz-adv-x="329" 
d="M311 -80c-1 -47 -7 -53 -22 -53c-57 0 -105 8 -155 35c-65 35 -61 86 -59 151l6 163c1 22 -20 48 -57 49c-11 0 -16 7 -16 42c0 33 5 40 16 40c36 1 58 27 57 49l-6 159c-2 64 -5 114 59 148c50 27 98 35 155 35c15 0 22 -6 22 -56c0 -48 -6 -53 -24 -55
c-44 -4 -80 -13 -78 -68l5 -164c1 -35 -14 -74 -55 -89c40 -12 56 -54 55 -89l-5 -171c-2 -55 34 -66 78 -68c18 -1 25 -7 24 -58z" />
    <glyph glyph-name="bar" unicode="|" 
d="M247 783v-1006c0 -9 -7 -16 -16 -16h-63c-9 0 -16 7 -16 16v1006c0 9 7 16 16 16h63c9 0 16 -7 16 -16z" />
    <glyph glyph-name="braceright" unicode="}" horiz-adv-x="329" 
d="M18 -80c-1 51 6 57 24 58c44 2 80 13 78 68l-5 171c-1 35 15 77 55 89c-41 15 -56 54 -55 89l5 164c2 55 -34 64 -78 68c-18 2 -24 7 -24 55c0 50 7 56 22 56c57 0 105 -8 155 -35c64 -34 61 -84 59 -148l-6 -159c-1 -22 21 -48 57 -49c11 0 16 -7 16 -40
c0 -35 -5 -42 -16 -42c-37 -1 -58 -27 -57 -49l6 -163c2 -65 6 -116 -59 -151c-50 -27 -98 -35 -155 -35c-15 0 -21 6 -22 53z" />
    <glyph glyph-name="asciitilde" unicode="~" 
d="M391 403l-60 -142c-5 -13 -10 -16 -66 -17c-58 -1 -64 8 -70 17l-37 54c-6 9 -12 9 -18 0l-38 -54c-9 -12 -11 -17 -54 -17c-42 0 -44 10 -39 22l60 142c5 13 10 22 68 22s63 -13 68 -22l32 -56c5 -9 10 -8 17 0l44 56c10 14 11 22 51 22c46 0 48 -11 42 -27z" />
    <glyph glyph-name="Adieresis" unicode="&#xc4;" horiz-adv-x="402" 
d="M280 684l111 -670c1 -9 -7 -19 -74 -19c-69 0 -75 10 -76 19l-12 121c-1 15 -6 17 -17 17h-22c-16 0 -16 -5 -17 -17l-12 -121c-1 -9 -7 -19 -77 -19c-66 0 -74 10 -73 19l110 670c1 9 7 19 76 19c76 0 82 -10 83 -19zM223 273l-13 195c-1 9 -2 14 -8 14
c-5 0 -7 -5 -8 -14l-15 -195c-1 -9 4 -14 13 -14h18c9 0 14 5 13 14zM342 826v-17c0 -20 -8 -36 -18 -45c-11 -11 -29 -16 -46 -16s-34 5 -45 16c-10 9 -18 25 -18 45v17c0 20 8 36 18 45c11 11 28 16 45 16s35 -5 46 -16c10 -9 18 -25 18 -45zM187 826v-17
c0 -20 -8 -36 -18 -45c-11 -11 -29 -16 -46 -16s-34 5 -45 16c-10 9 -18 25 -18 45v17c0 20 8 36 18 45c11 11 28 16 45 16s35 -5 46 -16c10 -9 18 -25 18 -45z" />
    <glyph glyph-name="Aring" unicode="&#xc5;" horiz-adv-x="402" 
d="M280 684l111 -670c1 -9 -7 -19 -74 -19c-69 0 -75 10 -76 19l-12 121c-1 15 -6 17 -17 17h-22c-16 0 -16 -5 -17 -17l-12 -121c-1 -9 -7 -19 -77 -19c-66 0 -74 10 -73 19l110 670c1 9 7 19 76 19c76 0 82 -10 83 -19zM223 273l-13 195c-1 9 -2 14 -8 14
c-5 0 -7 -5 -8 -14l-15 -195c-1 -9 4 -14 13 -14h18c9 0 14 5 13 14zM311 846v-30c0 -26 -13 -45 -29 -57c-18 -14 -53 -22 -81 -22s-63 8 -81 22c-16 12 -30 31 -30 57v30c0 26 14 46 30 58c18 14 53 22 81 22s63 -8 81 -22c16 -12 29 -32 29 -58zM236 818v31
c0 14 -9 28 -35 28s-36 -14 -36 -28v-31c0 -14 10 -30 36 -30s35 16 35 30z" />
    <glyph glyph-name="Ccedilla" unicode="&#xc7;" horiz-adv-x="401" 
d="M243 172v58c0 9 7 19 70 19c66 0 73 -10 73 -19v-75c0 -51 -14 -95 -48 -124c-30 -26 -68 -40 -115 -40c-10 0 -12 1 -16 -9l-4 -13c-5 -12 4 -11 10 -10c17 5 37 11 64 6c49 -8 80 -36 70 -88c-11 -63 -72 -81 -131 -80c-19 0 -62 1 -94 11c-10 3 -15 9 -4 37
c9 25 11 25 19 24c41 -7 107 -19 115 25c3 19 -7 26 -17 28c-15 2 -37 -2 -47 -15c-2 -3 -7 -6 -14 -5l-46 9c-9 2 -9 8 -6 15l20 59c6 16 -5 18 -10 20c-16 6 -32 15 -44 26c-34 29 -53 73 -53 124v387c0 51 19 95 53 124c32 27 78 40 128 40s89 -13 121 -40
c34 -29 49 -73 49 -124v-73c0 -9 -7 -19 -72 -19c-64 0 -71 9 -71 18v59c0 21 -3 38 -27 38c-25 0 -27 -19 -27 -38v-355c0 -19 2 -38 27 -38c24 0 27 17 27 38z" />
    <glyph glyph-name="Eacute" unicode="&#xc9;" horiz-adv-x="344" 
d="M337 68c0 -61 -10 -68 -19 -68h-262c-9 0 -16 7 -16 16v664c0 9 7 16 16 16h262c9 0 19 -7 19 -66c0 -62 -10 -69 -19 -69h-110c-12 0 -16 -7 -16 -16v-102c0 -9 4 -16 16 -16h59c9 0 18 -7 18 -64c0 -59 -9 -66 -18 -66h-59c-12 0 -16 -7 -16 -16v-130
c0 -9 4 -16 16 -16h110c9 0 19 -7 19 -67zM108 768l30 103c3 11 7 15 67 15c67 0 74 -10 67 -19l-74 -103c-5 -7 -10 -15 -52 -14c-40 1 -40 10 -38 18z" />
    <glyph glyph-name="Ntilde" unicode="&#xd1;" horiz-adv-x="471" 
d="M431 684v-670c0 -9 -7 -19 -67 -19c-62 0 -71 14 -73 23l-80 282c-3 10 -8 14 -12 14s-10 -5 -10 -14l4 -286c0 -9 -7 -19 -81 -19c-65 0 -72 10 -72 19v670c0 9 7 19 68 19c63 0 67 -11 70 -19l82 -263c3 -9 8 -14 13 -14c3 0 9 2 9 16l-5 261c0 9 7 19 78 19
c69 0 76 -10 76 -19zM389 850l-59 -97c-6 -10 -11 -13 -47 -13c-33 0 -34 5 -42 11l-43 31c-8 6 -12 5 -19 -2l-23 -22c-7 -7 -8 -12 -45 -12s-37 8 -32 16l59 97c6 10 7 13 48 13c38 0 40 -5 45 -10l39 -34c8 -7 12 -3 19 4l23 22c7 7 8 11 42 12c42 1 40 -8 35 -16z" />
    <glyph glyph-name="Odieresis" unicode="&#xd6;" horiz-adv-x="432" 
d="M397 542v-388c0 -51 -19 -95 -53 -124c-32 -27 -78 -40 -128 -40s-96 13 -128 40c-34 29 -53 73 -53 124v388c0 51 19 95 53 124c32 27 78 40 128 40s96 -13 128 -40c34 -29 53 -73 53 -124zM251 171v356c0 21 -7 38 -31 38c-25 0 -31 -19 -31 -38v-356
c0 -19 6 -38 31 -38c24 0 31 17 31 38zM357 826v-17c0 -20 -8 -36 -18 -45c-11 -11 -29 -16 -46 -16s-34 5 -45 16c-10 9 -18 25 -18 45v17c0 20 8 36 18 45c11 11 28 16 45 16s35 -5 46 -16c10 -9 18 -25 18 -45zM202 826v-17c0 -20 -8 -36 -18 -45
c-11 -11 -29 -16 -46 -16s-34 5 -45 16c-10 9 -18 25 -18 45v17c0 20 8 36 18 45c11 11 28 16 45 16s35 -5 46 -16c10 -9 18 -25 18 -45z" />
    <glyph glyph-name="Udieresis" unicode="&#xdc;" horiz-adv-x="432" 
d="M397 684v-530c0 -51 -19 -95 -53 -124c-32 -27 -78 -40 -128 -40s-96 13 -128 40c-34 29 -53 73 -53 124v530c0 9 7 19 77 19s77 -10 77 -19v-513c0 -19 6 -38 31 -38c24 0 31 17 31 38v513c0 9 7 19 73 19s73 -10 73 -19zM357 826v-17c0 -20 -8 -36 -18 -45
c-11 -11 -29 -16 -46 -16s-34 5 -45 16c-10 9 -18 25 -18 45v17c0 20 8 36 18 45c11 11 28 16 45 16s35 -5 46 -16c10 -9 18 -25 18 -45zM202 826v-17c0 -20 -8 -36 -18 -45c-11 -11 -29 -16 -46 -16s-34 5 -45 16c-10 9 -18 25 -18 45v17c0 20 8 36 18 45
c11 11 28 16 45 16s35 -5 46 -16c10 -9 18 -25 18 -45z" />
    <glyph glyph-name="aacute" unicode="&#xe1;" horiz-adv-x="432" 
d="M402 329v-316c0 -9 -7 -18 -64 -18c-63 0 -68 8 -70 22c-1 5 -1 17 -5 17c-3 0 -7 -9 -11 -14c-18 -21 -45 -29 -72 -30c-43 -1 -86 13 -116 47c-25 29 -34 73 -34 112c0 50 35 135 144 135c28 0 48 -8 64 -16c10 -5 16 -1 16 11v38c0 20 -6 45 -37 45
c-24 0 -37 -21 -38 -39c-1 -8 -2 -18 -68 -18c-71 0 -75 9 -75 22c0 80 69 160 181 160c55 0 98 -14 129 -38c37 -28 56 -73 56 -120zM254 121v43c0 12 -14 28 -39 28c-21 0 -36 -16 -36 -48c0 -31 10 -53 36 -53s39 18 39 30zM152 547l30 103c3 11 7 15 67 15
c67 0 74 -10 67 -19l-74 -103c-5 -7 -10 -15 -52 -14c-40 1 -40 10 -38 18z" />
    <glyph glyph-name="agrave" unicode="&#xe0;" horiz-adv-x="432" 
d="M402 329v-316c0 -9 -7 -18 -64 -18c-63 0 -68 8 -70 22c-1 5 -1 17 -5 17c-3 0 -7 -9 -11 -14c-18 -21 -45 -29 -72 -30c-43 -1 -86 13 -116 47c-25 29 -34 73 -34 112c0 50 35 135 144 135c28 0 48 -8 64 -16c10 -5 16 -1 16 11v38c0 20 -6 45 -37 45
c-24 0 -37 -21 -38 -39c-1 -8 -2 -18 -68 -18c-71 0 -75 9 -75 22c0 80 69 160 181 160c55 0 98 -14 129 -38c37 -28 56 -73 56 -120zM254 121v43c0 12 -14 28 -39 28c-21 0 -36 -16 -36 -48c0 -31 10 -53 36 -53s39 18 39 30zM249 650l30 -103c2 -8 2 -17 -38 -18
c-42 -1 -47 7 -52 14l-74 103c-7 9 0 19 67 19c60 0 64 -4 67 -15z" />
    <glyph glyph-name="acircumflex" unicode="&#xe2;" horiz-adv-x="432" 
d="M402 329v-316c0 -9 -7 -18 -64 -18c-63 0 -68 8 -70 22c-1 5 -1 17 -5 17c-3 0 -7 -9 -11 -14c-18 -21 -45 -29 -72 -30c-43 -1 -86 13 -116 47c-25 29 -34 73 -34 112c0 50 35 135 144 135c28 0 48 -8 64 -16c10 -5 16 -1 16 11v38c0 20 -6 45 -37 45
c-24 0 -37 -21 -38 -39c-1 -8 -2 -18 -68 -18c-71 0 -75 9 -75 22c0 80 69 160 181 160c55 0 98 -14 129 -38c37 -28 56 -73 56 -120zM254 121v43c0 12 -14 28 -39 28c-21 0 -36 -16 -36 -48c0 -31 10 -53 36 -53s39 18 39 30zM273 650l89 -107c7 -8 7 -19 -34 -19
c-39 0 -41 4 -48 9l-53 39c-9 6 -15 7 -24 0l-50 -38c-9 -7 -9 -10 -48 -10c-43 0 -43 11 -36 19l89 107c9 11 9 15 56 15c49 0 50 -4 59 -15z" />
    <glyph glyph-name="adieresis" unicode="&#xe4;" horiz-adv-x="432" 
d="M402 329v-316c0 -9 -7 -18 -64 -18c-63 0 -68 8 -70 22c-1 5 -1 17 -5 17c-3 0 -7 -9 -11 -14c-18 -21 -45 -29 -72 -30c-43 -1 -86 13 -116 47c-25 29 -34 73 -34 112c0 50 35 135 144 135c28 0 48 -8 64 -16c10 -5 16 -1 16 11v38c0 20 -6 45 -37 45
c-24 0 -37 -21 -38 -39c-1 -8 -2 -18 -68 -18c-71 0 -75 9 -75 22c0 80 69 160 181 160c55 0 98 -14 129 -38c37 -28 56 -73 56 -120zM254 121v43c0 12 -14 28 -39 28c-21 0 -36 -16 -36 -48c0 -31 10 -53 36 -53s39 18 39 30zM357 605v-17c0 -20 -8 -36 -18 -45
c-11 -11 -29 -16 -46 -16s-34 5 -45 16c-10 9 -18 25 -18 45v17c0 20 8 36 18 45c11 11 28 16 45 16s35 -5 46 -16c10 -9 18 -25 18 -45zM202 605v-17c0 -20 -8 -36 -18 -45c-11 -11 -29 -16 -46 -16s-34 5 -45 16c-10 9 -18 25 -18 45v17c0 20 8 36 18 45
c11 11 28 16 45 16s35 -5 46 -16c10 -9 18 -25 18 -45z" />
    <glyph glyph-name="atilde" unicode="&#xe3;" horiz-adv-x="432" 
d="M402 329v-316c0 -9 -7 -18 -64 -18c-63 0 -68 8 -70 22c-1 5 -1 17 -5 17c-3 0 -7 -9 -11 -14c-18 -21 -45 -29 -72 -30c-43 -1 -86 13 -116 47c-25 29 -34 73 -34 112c0 50 35 135 144 135c28 0 48 -8 64 -16c10 -5 16 -1 16 11v38c0 20 -6 45 -37 45
c-24 0 -37 -21 -38 -39c-1 -8 -2 -18 -68 -18c-71 0 -75 9 -75 22c0 80 69 160 181 160c55 0 98 -14 129 -38c37 -28 56 -73 56 -120zM254 121v43c0 12 -14 28 -39 28c-21 0 -36 -16 -36 -48c0 -31 10 -53 36 -53s39 18 39 30zM370 629l-59 -97c-6 -10 -11 -13 -47 -13
c-33 0 -34 5 -42 11l-43 31c-8 6 -12 5 -19 -2l-23 -22c-7 -7 -8 -12 -45 -12s-37 8 -32 16l59 97c6 10 7 13 48 13c38 0 40 -5 45 -10l39 -34c8 -7 12 -3 19 4l23 22c7 7 8 11 42 12c42 1 40 -8 35 -16z" />
    <glyph glyph-name="aring" unicode="&#xe5;" horiz-adv-x="432" 
d="M402 329v-316c0 -9 -7 -18 -64 -18c-63 0 -68 8 -70 22c-1 5 -1 17 -5 17c-3 0 -7 -9 -11 -14c-18 -21 -45 -29 -72 -30c-43 -1 -86 13 -116 47c-25 29 -34 73 -34 112c0 50 35 135 144 135c28 0 48 -8 64 -16c10 -5 16 -1 16 11v38c0 20 -6 45 -37 45
c-24 0 -37 -21 -38 -39c-1 -8 -2 -18 -68 -18c-71 0 -75 9 -75 22c0 80 69 160 181 160c55 0 98 -14 129 -38c37 -28 56 -73 56 -120zM254 121v43c0 12 -14 28 -39 28c-21 0 -36 -16 -36 -48c0 -31 10 -53 36 -53s39 18 39 30zM326 625v-30c0 -26 -13 -45 -29 -57
c-18 -14 -53 -22 -81 -22s-63 8 -81 22c-16 12 -30 31 -30 57v30c0 26 14 46 30 58c18 14 53 22 81 22s63 -8 81 -22c16 -12 29 -32 29 -58zM251 597v31c0 14 -9 28 -35 28s-36 -14 -36 -28v-31c0 -14 10 -30 36 -30s35 16 35 30z" />
    <glyph glyph-name="ccedilla" unicode="&#xe7;" horiz-adv-x="404" 
d="M243 169c0 12 3 20 71 20c64 0 70 -4 70 -19v-15c0 -51 -19 -95 -52 -124c-28 -24 -67 -36 -110 -39c-9 0 -15 -1 -19 -13l-3 -10c-5 -12 4 -11 10 -10c17 5 37 11 64 6c49 -8 80 -36 70 -88c-11 -63 -72 -81 -131 -80c-19 0 -62 1 -94 11c-10 3 -15 9 -4 37
c9 25 11 25 19 24c41 -7 107 -19 115 25c3 19 -7 26 -17 28c-15 2 -37 -2 -47 -15c-2 -3 -7 -6 -14 -5l-46 9c-9 2 -9 8 -6 15l20 59c5 14 -5 17 -10 19c-18 6 -34 15 -47 27c-33 29 -52 73 -52 124v168c0 51 19 95 52 124c31 27 76 40 125 40s94 -13 125 -40
c33 -29 52 -73 52 -124v-13c0 -8 -2 -18 -69 -18c-72 0 -72 9 -72 19c0 21 -6 38 -30 38s-30 -19 -30 -38v-142c0 -19 6 -38 30 -38s30 17 30 38z" />
    <glyph glyph-name="eacute" unicode="&#xe9;" horiz-adv-x="420" 
d="M384 164v-10c0 -48 -19 -94 -52 -124c-30 -28 -76 -40 -125 -40s-94 13 -125 40c-33 29 -52 73 -52 124v169c0 51 19 95 52 124c31 27 76 40 125 40s94 -13 125 -40c33 -29 52 -73 52 -124v-81c0 -21 -7 -26 -26 -26h-158c-13 0 -17 -7 -17 -16v-32c0 -19 6 -38 30 -38
s30 14 30 33c0 12 3 19 71 19c64 0 71 -3 70 -18zM243 295v32c0 22 -11 32 -29 32c-24 0 -31 -19 -31 -38v-26c0 -13 5 -16 18 -16h24c16 0 18 10 18 16zM146 547l30 103c3 11 7 15 67 15c67 0 74 -10 67 -19l-74 -103c-5 -7 -10 -15 -52 -14c-40 1 -40 10 -38 18z" />
    <glyph glyph-name="egrave" unicode="&#xe8;" horiz-adv-x="420" 
d="M384 164v-10c0 -48 -19 -94 -52 -124c-30 -28 -76 -40 -125 -40s-94 13 -125 40c-33 29 -52 73 -52 124v169c0 51 19 95 52 124c31 27 76 40 125 40s94 -13 125 -40c33 -29 52 -73 52 -124v-81c0 -21 -7 -26 -26 -26h-158c-13 0 -17 -7 -17 -16v-32c0 -19 6 -38 30 -38
s30 14 30 33c0 12 3 19 71 19c64 0 71 -3 70 -18zM243 295v32c0 22 -11 32 -29 32c-24 0 -31 -19 -31 -38v-26c0 -13 5 -16 18 -16h24c16 0 18 10 18 16zM243 650l30 -103c2 -8 2 -17 -38 -18c-42 -1 -47 7 -52 14l-74 103c-7 9 0 19 67 19c60 0 64 -4 67 -15z" />
    <glyph glyph-name="ecircumflex" unicode="&#xea;" horiz-adv-x="420" 
d="M384 164v-10c0 -48 -19 -94 -52 -124c-30 -28 -76 -40 -125 -40s-94 13 -125 40c-33 29 -52 73 -52 124v169c0 51 19 95 52 124c31 27 76 40 125 40s94 -13 125 -40c33 -29 52 -73 52 -124v-81c0 -21 -7 -26 -26 -26h-158c-13 0 -17 -7 -17 -16v-32c0 -19 6 -38 30 -38
s30 14 30 33c0 12 3 19 71 19c64 0 71 -3 70 -18zM243 295v32c0 22 -11 32 -29 32c-24 0 -31 -19 -31 -38v-26c0 -13 5 -16 18 -16h24c16 0 18 10 18 16zM267 650l89 -107c7 -8 7 -19 -34 -19c-39 0 -41 4 -48 9l-53 39c-9 6 -15 7 -24 0l-50 -38c-9 -7 -9 -10 -48 -10
c-43 0 -43 11 -36 19l89 107c9 11 9 15 56 15c49 0 50 -4 59 -15z" />
    <glyph glyph-name="edieresis" unicode="&#xeb;" horiz-adv-x="420" 
d="M384 164v-10c0 -48 -19 -94 -52 -124c-30 -28 -76 -40 -125 -40s-94 13 -125 40c-33 29 -52 73 -52 124v169c0 51 19 95 52 124c31 27 76 40 125 40s94 -13 125 -40c33 -29 52 -73 52 -124v-81c0 -21 -7 -26 -26 -26h-158c-13 0 -17 -7 -17 -16v-32c0 -19 6 -38 30 -38
s30 14 30 33c0 12 3 19 71 19c64 0 71 -3 70 -18zM243 295v32c0 22 -11 32 -29 32c-24 0 -31 -19 -31 -38v-26c0 -13 5 -16 18 -16h24c16 0 18 10 18 16zM351 605v-17c0 -20 -8 -36 -18 -45c-11 -11 -29 -16 -46 -16s-34 5 -45 16c-10 9 -18 25 -18 45v17c0 20 8 36 18 45
c11 11 28 16 45 16s35 -5 46 -16c10 -9 18 -25 18 -45zM196 605v-17c0 -20 -8 -36 -18 -45c-11 -11 -29 -16 -46 -16s-34 5 -45 16c-10 9 -18 25 -18 45v17c0 20 8 36 18 45c11 11 28 16 45 16s35 -5 46 -16c10 -9 18 -25 18 -45z" />
    <glyph glyph-name="iacute" unicode="&#xed;" horiz-adv-x="233" 
d="M193 463v-449c0 -9 -7 -19 -76 -19c-70 0 -77 10 -77 19v449c0 9 7 19 77 19c69 0 76 -10 76 -19zM43 547l30 103c3 11 7 15 67 15c67 0 74 -10 67 -19l-74 -103c-5 -7 -10 -15 -52 -14c-40 1 -40 10 -38 18z" />
    <glyph glyph-name="igrave" unicode="&#xec;" horiz-adv-x="233" 
d="M193 463v-449c0 -9 -7 -19 -76 -19c-70 0 -77 10 -77 19v449c0 9 7 19 77 19c69 0 76 -10 76 -19zM160 650l30 -103c2 -8 2 -17 -38 -18c-42 -1 -47 7 -52 14l-74 103c-7 9 0 19 67 19c60 0 64 -4 67 -15z" />
    <glyph glyph-name="icircumflex" unicode="&#xee;" horiz-adv-x="233" 
d="M193 463v-449c0 -9 -7 -19 -76 -19c-70 0 -77 10 -77 19v449c0 9 7 19 77 19c69 0 76 -10 76 -19zM174 650l89 -107c7 -8 7 -19 -34 -19c-39 0 -41 4 -48 9l-53 39c-9 6 -15 7 -24 0l-50 -38c-9 -7 -9 -10 -48 -10c-43 0 -43 11 -36 19l89 107c9 11 9 15 56 15
c49 0 50 -4 59 -15z" />
    <glyph glyph-name="idieresis" unicode="&#xef;" horiz-adv-x="233" 
d="M193 463v-449c0 -9 -7 -19 -76 -19c-70 0 -77 10 -77 19v449c0 9 7 19 77 19c69 0 76 -10 76 -19zM258 605v-17c0 -20 -8 -36 -18 -45c-11 -11 -29 -16 -46 -16s-34 5 -45 16c-10 9 -18 25 -18 45v17c0 20 8 36 18 45c11 11 28 16 45 16s35 -5 46 -16
c10 -9 18 -25 18 -45zM103 605v-17c0 -20 -8 -36 -18 -45c-11 -11 -29 -16 -46 -16s-34 5 -45 16c-10 9 -18 25 -18 45v17c0 20 8 36 18 45c11 11 28 16 45 16s35 -5 46 -16c10 -9 18 -25 18 -45z" />
    <glyph glyph-name="ntilde" unicode="&#xf1;" horiz-adv-x="427" 
d="M392 313v-299c0 -9 -7 -19 -75 -19c-72 0 -79 10 -79 19v291c0 27 -7 41 -25 41s-24 -16 -24 -41v-291c0 -9 -7 -19 -79 -19c-68 0 -75 10 -75 19v449c0 10 6 19 71 19c61 0 67 -5 67 -17v-7c0 -5 1 -9 6 -9c3 0 5 3 9 8c15 18 43 30 66 30c20 0 67 1 101 -39
c23 -26 37 -68 37 -135zM367 629l-59 -97c-6 -10 -11 -13 -47 -13c-33 0 -34 5 -42 11l-43 31c-8 6 -12 5 -19 -2l-23 -22c-7 -7 -8 -12 -45 -12s-37 8 -32 16l59 97c6 10 7 13 48 13c38 0 40 -5 45 -10l39 -34c8 -7 12 -3 19 4l23 22c7 7 8 11 42 12c42 1 40 -8 35 -16z
" />
    <glyph glyph-name="oacute" unicode="&#xf3;" horiz-adv-x="414" 
d="M384 323v-169c0 -51 -19 -95 -52 -124c-31 -27 -76 -40 -125 -40s-94 13 -125 40c-33 29 -52 73 -52 124v169c0 51 19 95 52 124c31 27 76 40 125 40s94 -13 125 -40c33 -29 52 -73 52 -124zM243 171v137c0 21 -7 38 -31 38s-29 -19 -29 -38v-137c0 -19 6 -38 30 -38
s30 17 30 38zM143 547l30 103c3 11 7 15 67 15c67 0 74 -10 67 -19l-74 -103c-5 -7 -10 -15 -52 -14c-40 1 -40 10 -38 18z" />
    <glyph glyph-name="ograve" unicode="&#xf2;" horiz-adv-x="414" 
d="M384 323v-169c0 -51 -19 -95 -52 -124c-31 -27 -76 -40 -125 -40s-94 13 -125 40c-33 29 -52 73 -52 124v169c0 51 19 95 52 124c31 27 76 40 125 40s94 -13 125 -40c33 -29 52 -73 52 -124zM243 171v137c0 21 -7 38 -31 38s-29 -19 -29 -38v-137c0 -19 6 -38 30 -38
s30 17 30 38zM240 650l30 -103c2 -8 2 -17 -38 -18c-42 -1 -47 7 -52 14l-74 103c-7 9 0 19 67 19c60 0 64 -4 67 -15z" />
    <glyph glyph-name="ocircumflex" unicode="&#xf4;" horiz-adv-x="414" 
d="M384 323v-169c0 -51 -19 -95 -52 -124c-31 -27 -76 -40 -125 -40s-94 13 -125 40c-33 29 -52 73 -52 124v169c0 51 19 95 52 124c31 27 76 40 125 40s94 -13 125 -40c33 -29 52 -73 52 -124zM243 171v137c0 21 -7 38 -31 38s-29 -19 -29 -38v-137c0 -19 6 -38 30 -38
s30 17 30 38zM264 650l89 -107c7 -8 7 -19 -34 -19c-39 0 -41 4 -48 9l-53 39c-9 6 -15 7 -24 0l-50 -38c-9 -7 -9 -10 -48 -10c-43 0 -43 11 -36 19l89 107c9 11 9 15 56 15c49 0 50 -4 59 -15z" />
    <glyph glyph-name="odieresis" unicode="&#xf6;" horiz-adv-x="414" 
d="M384 323v-169c0 -51 -19 -95 -52 -124c-31 -27 -76 -40 -125 -40s-94 13 -125 40c-33 29 -52 73 -52 124v169c0 51 19 95 52 124c31 27 76 40 125 40s94 -13 125 -40c33 -29 52 -73 52 -124zM243 171v137c0 21 -7 38 -31 38s-29 -19 -29 -38v-137c0 -19 6 -38 30 -38
s30 17 30 38zM348 605v-17c0 -20 -8 -36 -18 -45c-11 -11 -29 -16 -46 -16s-34 5 -45 16c-10 9 -18 25 -18 45v17c0 20 8 36 18 45c11 11 28 16 45 16s35 -5 46 -16c10 -9 18 -25 18 -45zM193 605v-17c0 -20 -8 -36 -18 -45c-11 -11 -29 -16 -46 -16s-34 5 -45 16
c-10 9 -18 25 -18 45v17c0 20 8 36 18 45c11 11 28 16 45 16s35 -5 46 -16c10 -9 18 -25 18 -45z" />
    <glyph glyph-name="otilde" unicode="&#xf5;" horiz-adv-x="414" 
d="M384 323v-169c0 -51 -19 -95 -52 -124c-31 -27 -76 -40 -125 -40s-94 13 -125 40c-33 29 -52 73 -52 124v169c0 51 19 95 52 124c31 27 76 40 125 40s94 -13 125 -40c33 -29 52 -73 52 -124zM243 171v137c0 21 -7 38 -31 38s-29 -19 -29 -38v-137c0 -19 6 -38 30 -38
s30 17 30 38zM361 629l-59 -97c-6 -10 -11 -13 -47 -13c-33 0 -34 5 -42 11l-43 31c-8 6 -12 5 -19 -2l-23 -22c-7 -7 -8 -12 -45 -12s-37 8 -32 16l59 97c6 10 7 13 48 13c38 0 40 -5 45 -10l39 -34c8 -7 12 -3 19 4l23 22c7 7 8 11 42 12c42 1 40 -8 35 -16z" />
    <glyph glyph-name="uacute" unicode="&#xfa;" horiz-adv-x="422" 
d="M387 463v-449c0 -10 -6 -19 -72 -19c-60 0 -66 5 -66 17v7c0 5 0 10 -5 10c-3 0 -6 -4 -10 -9c-15 -18 -43 -30 -66 -30c-20 0 -67 -1 -101 39c-23 26 -37 68 -37 135v298c0 9 7 20 79 20c68 0 75 -11 75 -20v-290c0 -27 7 -41 25 -41s24 16 24 41v291c0 9 7 19 78 19
c69 0 76 -10 76 -19zM147 547l30 103c3 11 7 15 67 15c67 0 74 -10 67 -19l-74 -103c-5 -7 -10 -15 -52 -14c-40 1 -40 10 -38 18z" />
    <glyph glyph-name="ugrave" unicode="&#xf9;" horiz-adv-x="422" 
d="M387 463v-449c0 -10 -6 -19 -72 -19c-60 0 -66 5 -66 17v7c0 5 0 10 -5 10c-3 0 -6 -4 -10 -9c-15 -18 -43 -30 -66 -30c-20 0 -67 -1 -101 39c-23 26 -37 68 -37 135v298c0 9 7 20 79 20c68 0 75 -11 75 -20v-290c0 -27 7 -41 25 -41s24 16 24 41v291c0 9 7 19 78 19
c69 0 76 -10 76 -19zM244 650l30 -103c2 -8 2 -17 -38 -18c-42 -1 -47 7 -52 14l-74 103c-7 9 0 19 67 19c60 0 64 -4 67 -15z" />
    <glyph glyph-name="ucircumflex" unicode="&#xfb;" horiz-adv-x="422" 
d="M387 463v-449c0 -10 -6 -19 -72 -19c-60 0 -66 5 -66 17v7c0 5 0 10 -5 10c-3 0 -6 -4 -10 -9c-15 -18 -43 -30 -66 -30c-20 0 -67 -1 -101 39c-23 26 -37 68 -37 135v298c0 9 7 20 79 20c68 0 75 -11 75 -20v-290c0 -27 7 -41 25 -41s24 16 24 41v291c0 9 7 19 78 19
c69 0 76 -10 76 -19zM268 650l89 -107c7 -8 7 -19 -34 -19c-39 0 -41 4 -48 9l-53 39c-9 6 -15 7 -24 0l-50 -38c-9 -7 -9 -10 -48 -10c-43 0 -43 11 -36 19l89 107c9 11 9 15 56 15c49 0 50 -4 59 -15z" />
    <glyph glyph-name="udieresis" unicode="&#xfc;" horiz-adv-x="422" 
d="M387 463v-449c0 -10 -6 -19 -72 -19c-60 0 -66 5 -66 17v7c0 5 0 10 -5 10c-3 0 -6 -4 -10 -9c-15 -18 -43 -30 -66 -30c-20 0 -67 -1 -101 39c-23 26 -37 68 -37 135v298c0 9 7 20 79 20c68 0 75 -11 75 -20v-290c0 -27 7 -41 25 -41s24 16 24 41v291c0 9 7 19 78 19
c69 0 76 -10 76 -19zM352 605v-17c0 -20 -8 -36 -18 -45c-11 -11 -29 -16 -46 -16s-34 5 -45 16c-10 9 -18 25 -18 45v17c0 20 8 36 18 45c11 11 28 16 45 16s35 -5 46 -16c10 -9 18 -25 18 -45zM197 605v-17c0 -20 -8 -36 -18 -45c-11 -11 -29 -16 -46 -16s-34 5 -45 16
c-10 9 -18 25 -18 45v17c0 20 8 36 18 45c11 11 28 16 45 16s35 -5 46 -16c10 -9 18 -25 18 -45z" />
    <glyph glyph-name="dagger" unicode="&#x2020;" horiz-adv-x="255" 
d="M232 515c-1 -31 -9 -38 -18 -38h-29c-11 0 -16 0 -16 -15l-7 -451c0 -9 -7 -16 -16 -16h-37c-9 0 -16 7 -16 16l-7 452c0 10 -3 14 -14 14h-31c-9 0 -18 7 -18 39s9 39 18 39h29c13 0 15 2 15 14l-2 119c0 9 7 18 44 18c38 0 45 -9 45 -18l-2 -119c0 -12 4 -14 16 -14h28
c9 0 19 -7 18 -40z" />
    <glyph glyph-name="degree" unicode="&#xb0;" horiz-adv-x="294" 
d="M274 622v-28c0 -35 -11 -60 -33 -77c-24 -19 -56 -30 -94 -30s-71 11 -95 30c-22 17 -32 42 -32 77v28c0 35 10 60 32 77c24 19 57 30 95 30s70 -11 94 -30c22 -17 33 -42 33 -77zM189 596v27c0 19 -10 40 -42 40c-33 0 -43 -21 -43 -40v-27c0 -19 10 -40 43 -40
c31 0 42 21 42 40z" />
    <glyph glyph-name="cent" unicode="&#xa2;" horiz-adv-x="409" 
d="M243 170c0 12 3 20 71 20c64 0 70 -4 70 -19v-15c0 -51 -19 -95 -52 -124c-15 -13 -27 -20 -52 -29c-6 -2 -9 -7 -9 -16v-55c0 -9 -7 -16 -16 -16h-93c-9 0 -16 7 -16 16v55c0 8 -3 13 -9 15c-21 8 -39 16 -55 30c-33 29 -52 73 -52 124v167c0 51 19 95 52 124
c12 11 34 23 54 30c9 3 10 7 10 19v50c0 9 7 16 16 16h93c9 0 16 -7 16 -16v-50c0 -13 2 -17 15 -22c17 -7 32 -15 46 -27c33 -29 52 -73 52 -124v-13c0 -8 -2 -18 -69 -18c-72 0 -72 9 -72 19c0 21 -6 38 -30 38s-30 -19 -30 -38v-141c0 -19 6 -38 30 -38s30 17 30 38z" />
    <glyph glyph-name="sterling" unicode="&#xa3;" horiz-adv-x="428" 
d="M406 67c-1 -60 -10 -67 -19 -67h-322c-18 0 -25 11 -25 24l7 235v228c0 40 17 107 87 160c74 56 155 59 242 59c20 0 24 -6 24 -64c0 -62 -9 -66 -27 -67c-76 -4 -139 -10 -162 -59c-6 -13 -10 -41 -10 -57v-46c0 -11 3 -16 16 -16h68c9 0 19 -7 19 -68
c0 -60 -9 -67 -19 -67h-67c-15 0 -17 -3 -17 -16l-2 -90c0 -17 7 -21 22 -21h166c9 0 20 -7 19 -68z" />
    <glyph glyph-name="section" unicode="&#xa7;" horiz-adv-x="450" 
d="M400 161c0 -52 -7 -94 -55 -133c-31 -25 -77 -38 -126 -38s-87 12 -118 37c-33 27 -48 64 -48 112v28c0 8 6 18 66 18s67 -10 67 -18v-27c0 -23 12 -39 36 -39c23 0 35 20 35 44c0 92 -207 53 -207 216c0 25 6 50 26 78c9 13 4 18 -1 25c-16 19 -25 41 -25 71
c0 52 7 94 55 133c31 25 77 38 126 38s87 -12 118 -37c33 -27 48 -64 48 -112v-28c0 -8 -6 -18 -65 -18c-61 0 -68 10 -68 18v27c0 23 -12 39 -36 39c-23 0 -35 -20 -35 -44c0 -92 207 -52 207 -215c0 -25 -7 -52 -26 -80c-6 -9 -9 -14 0 -23c17 -20 26 -42 26 -72zM290 310
c0 42 -58 63 -117 90c-7 2 -10 1 -12 -5c-1 -2 -1 -9 -1 -9c0 -42 58 -63 117 -90c5 -1 10 -1 12 5c1 2 1 6 1 9z" />
    <glyph glyph-name="bullet" unicode="&#x2022;" horiz-adv-x="327" 
d="M277 341v-38c0 -39 -18 -70 -39 -88c-24 -21 -60 -31 -96 -31s-69 10 -93 31c-21 18 -39 49 -39 88v38c0 39 18 75 39 93c24 21 57 31 93 31s72 -10 96 -31c21 -18 39 -54 39 -93z" />
    <glyph glyph-name="paragraph" unicode="&#xb6;" horiz-adv-x="436" 
d="M386 685v-634c0 -50 -17 -82 -61 -104c-42 -21 -89 -22 -150 -22c-9 0 -17 2 -17 33c0 27 3 33 16 33c42 0 67 9 84 24c15 13 23 34 23 59v537c0 9 -3 11 -9 11s-10 -2 -10 -11v-533c0 -52 -36 -69 -86 -69c-13 0 -17 2 -17 23c0 23 2 25 14 26c33 3 34 20 34 29v180
c0 8 -4 12 -14 13c-95 7 -168 40 -168 144v143c0 87 64 139 152 139h188c13 0 21 -6 21 -21zM207 382v228c0 8 0 11 -11 11c-33 0 -46 -34 -46 -60v-132c0 -26 12 -59 44 -59c10 0 13 3 13 12z" />
    <glyph glyph-name="germandbls" unicode="&#xdf;" horiz-adv-x="438" 
d="M408 329v-166c0 -50 -4 -173 -178 -173c-11 0 -17 1 -17 49c0 46 0 52 14 54c20 3 32 15 32 51v158c0 47 5 74 -30 76c-11 1 -18 5 -18 45c0 41 7 44 18 46c8 1 25 10 25 37v21c0 16 -7 38 -31 38c-29 0 -30 -27 -30 -38v-511c0 -9 -7 -16 -16 -16h-122
c-9 0 -16 7 -16 16v312c0 10 -4 15 -15 15h-8c-9 0 -19 7 -19 68s10 68 19 68h11c12 0 12 9 12 15v48c0 51 19 95 53 124c24 21 64 40 115 40h29c40 0 82 -14 113 -41c32 -27 52 -71 52 -117v-17c0 -35 -7 -72 -44 -89c-7 -3 -10 -9 0 -12c45 -15 51 -66 51 -101z" />
    <glyph glyph-name="registered" unicode="&#xae;" horiz-adv-x="440" 
d="M415 552v-23c0 -65 -18 -115 -52 -147c-37 -35 -89 -54 -148 -54s-111 19 -148 54c-34 32 -52 82 -52 147v23c0 65 18 115 52 147c37 35 89 54 148 54s111 -19 148 -54c34 -32 52 -82 52 -147zM366 529v23c0 60 -16 97 -39 119c-28 26 -67 40 -112 40s-84 -14 -112 -40
c-23 -22 -39 -59 -39 -119v-23c0 -60 16 -97 39 -119c28 -26 67 -40 112 -40s84 14 112 40c23 22 39 59 39 119zM303 486l2 -58c0 -6 -4 -10 -10 -10h-26c-6 0 -10 5 -10 10v52c0 6 3 39 -40 39h-16c-6 0 -10 -4 -10 -9v-82c0 -6 -4 -10 -10 -10h-22c-6 0 -11 5 -11 10v239
c0 5 5 8 11 8h48c54 0 94 -24 94 -73v-9c0 -27 -7 -40 -35 -51c-3 -1 -7 -5 0 -6c29 -5 34 -30 35 -50zM257 591v9c0 6 0 39 -43 39h-11c-6 0 -10 -4 -10 -9v-68c0 -5 4 -9 10 -9h10c6 0 44 5 44 38z" />
    <glyph glyph-name="copyright" unicode="&#xa9;" horiz-adv-x="813" 
d="M763 370v-45c0 -116 -32 -202 -93 -259c-67 -63 -160 -98 -264 -98s-197 35 -264 98c-61 57 -92 143 -92 259v45c0 116 31 202 92 259c67 63 160 98 264 98s197 -35 264 -98c61 -57 93 -143 93 -259zM697 325v45c0 109 -30 179 -75 221c-54 50 -130 79 -216 79
s-162 -29 -216 -79c-45 -42 -74 -112 -74 -221v-45c0 -109 29 -179 74 -221c54 -50 130 -79 216 -79s162 29 216 79c45 42 75 112 75 221zM557 281v-43c0 -46 -13 -81 -37 -104c-26 -25 -70 -39 -112 -39s-85 14 -111 39c-24 23 -37 58 -37 104v212c0 46 13 81 37 104
c26 25 69 39 111 39s86 -14 112 -39c24 -23 37 -58 37 -104v-29c0 -9 -8 -18 -41 -17c-32 1 -41 7 -41 16v49c0 29 -24 61 -67 61c-44 0 -67 -32 -67 -61v-245c0 -29 23 -61 67 -61c43 0 67 32 67 61v57c0 9 9 17 40 18c34 1 42 -9 42 -18z" />
    <glyph glyph-name="trademark" unicode="&#x2122;" horiz-adv-x="370" 
d="M345 696v-225c0 -5 -5 -10 -11 -10h-27c-6 0 -10 5 -10 10l1 103c0 5 -2 9 -6 9c-2 0 -4 -3 -6 -9l-21 -62c-3 -10 -7 -12 -12 -12s-7 4 -10 13l-21 61c-2 5 -4 8 -6 8s-6 -3 -6 -8l1 -103c0 -5 -3 -10 -9 -10h-28c-6 0 -10 5 -10 10v225c0 5 4 10 10 10h18
c6 0 10 -5 12 -10l39 -86c5 -11 8 -16 13 -16c4 0 6 4 11 16l38 86c2 5 4 10 10 10h19c6 0 11 -5 11 -10zM138 696v-16c0 -5 -4 -9 -10 -9h-23c-6 0 -11 -5 -11 -10v-190c0 -5 -5 -10 -11 -10h-25c-6 0 -10 5 -10 10v190c0 5 -4 10 -10 10h-27c-6 0 -11 4 -11 9v16
c0 5 5 10 11 10h117c6 0 10 -5 10 -10z" />
    <glyph glyph-name="acute" unicode="&#xb4;" horiz-adv-x="267" 
d="M51 547l30 103c3 11 7 15 67 15c67 0 74 -10 67 -19l-74 -103c-5 -7 -10 -15 -52 -14c-40 1 -40 10 -38 18z" />
    <glyph glyph-name="dieresis" unicode="&#xa8;" horiz-adv-x="382" 
d="M332 605v-17c0 -20 -8 -36 -18 -45c-11 -11 -29 -16 -46 -16s-34 5 -45 16c-10 9 -18 25 -18 45v17c0 20 8 36 18 45c11 11 28 16 45 16s35 -5 46 -16c10 -9 18 -25 18 -45zM177 605v-17c0 -20 -8 -36 -18 -45c-11 -11 -29 -16 -46 -16s-34 5 -45 16c-10 9 -18 25 -18 45
v17c0 20 8 36 18 45c11 11 28 16 45 16s35 -5 46 -16c10 -9 18 -25 18 -45z" />
    <glyph glyph-name="notequal" unicode="&#x2260;" 
d="M354 276c-1 -34 -9 -42 -23 -42h-105c-11 0 -16 -6 -18 -15l-9 -39c-2 -9 -7 -17 -36 -17c-30 0 -35 8 -33 17l9 38c3 12 -1 16 -11 16h-59c-14 0 -23 8 -23 41c0 36 9 46 23 46h77c11 0 16 6 18 15l3 17c2 12 -1 16 -11 16h-87c-14 0 -23 8 -23 42c0 35 10 45 23 45h106
c11 0 16 6 18 15l8 37c2 9 7 17 38 17c32 0 35 -8 33 -17l-8 -36c-3 -12 1 -16 11 -16h56c14 0 23 -10 23 -45c0 -34 -9 -42 -23 -42h-75c-11 0 -16 -6 -18 -15l-4 -17c-3 -12 1 -16 11 -16h86c14 0 24 -10 23 -45z" />
    <glyph glyph-name="AE" unicode="&#xc6;" horiz-adv-x="545" 
d="M538 66c-1 -59 -10 -66 -19 -66h-263c-8 0 -15 5 -15 16v123c0 11 -6 13 -16 13h-24c-16 0 -16 -5 -18 -17l-22 -121c-2 -9 -8 -19 -81 -19s-81 10 -79 19l154 666c2 9 8 16 17 16h347c9 0 19 -7 19 -66c0 -62 -10 -69 -19 -69h-110c-12 0 -16 -7 -16 -16v-103
c0 -9 4 -16 16 -16h59c9 0 18 -7 18 -65s-9 -65 -18 -65h-59c-12 0 -16 -7 -16 -16v-129c0 -9 4 -16 16 -16h110c9 0 20 -7 19 -69zM207 259h19c7 0 15 3 15 9v211c0 8 -4 13 -9 13s-8 -5 -9 -14l-28 -205c-1 -9 2 -14 12 -14z" />
    <glyph glyph-name="Oslash" unicode="&#xd8;" horiz-adv-x="472" 
d="M435 686l-27 -60c-6 -13 -4 -19 0 -28c7 -17 8 -36 8 -56v-388c0 -51 -19 -95 -53 -124c-32 -27 -78 -40 -128 -40c-34 0 -68 6 -95 23c-4 2 -10 7 -14 1c-5 -7 -6 -19 -51 -19c-39 0 -43 9 -39 17l26 57c5 11 5 16 1 26c-6 18 -9 38 -9 59v388c0 51 19 95 53 124
c32 27 78 40 128 40c36 0 70 -6 98 -23c3 -2 9 -1 13 8c4 8 6 12 47 12c45 0 46 -9 42 -17zM208 527v-124c0 -13 7 -14 13 0l42 94c6 13 7 25 7 30c0 21 -7 38 -31 38c-25 0 -31 -19 -31 -38zM270 171v137c0 13 -7 14 -13 0l-42 -94c-4 -9 -7 -14 -7 -25v-18
c0 -21 7 -38 31 -38c25 0 31 19 31 38z" />
    <glyph glyph-name="plusminus" unicode="&#xb1;" 
d="M354 223c-1 -33 -10 -41 -24 -41h-260c-13 0 -24 8 -24 42s11 44 24 44h60c17 0 21 4 21 18v22c0 14 -4 19 -21 19h-60c-13 0 -24 8 -24 43c0 33 11 43 24 43h60c17 0 21 4 21 17v56c0 12 11 22 47 22c39 0 49 -10 49 -22v-57c0 -11 5 -16 21 -16h62c14 0 24 -10 24 -43
c0 -35 -10 -43 -24 -43h-62c-16 0 -21 -6 -21 -17v-26c0 -11 5 -16 21 -16h62c14 0 25 -10 24 -45z" />
    <glyph glyph-name="yen" unicode="&#xa5;" horiz-adv-x="414" 
d="M393 684l-70 -250c-3 -11 -3 -15 10 -15h27c9 0 18 -7 18 -42c0 -36 -9 -43 -18 -43h-49c-10 0 -16 -1 -19 -11l-4 -14c-4 -13 2 -13 15 -13h57c9 0 18 -7 18 -44c0 -34 -9 -41 -18 -41h-66c-12 0 -16 -7 -16 -17l1 -180c0 -9 -7 -19 -72 -19c-63 0 -70 10 -70 19v182
c0 14 -8 15 -18 15h-63c-9 0 -18 7 -18 41c0 37 9 44 18 44h56c12 0 17 5 14 15l-4 12c-3 8 -3 11 -18 11h-48c-9 0 -18 7 -18 46c0 32 9 39 18 39h25c11 0 12 8 10 15l-70 250c-2 9 7 19 81 19c68 0 74 -10 75 -19l26 -239c1 -9 3 -14 8 -14c6 0 7 5 8 14l28 239
c1 9 7 19 73 19s75 -10 73 -19z" />
    <glyph glyph-name="uni00B5" unicode="&#xb5;" horiz-adv-x="427" 
d="M392 463v-450c0 -10 -6 -18 -68 -18c-60 0 -66 4 -66 16v8c0 5 0 10 -5 10c-3 0 -6 -3 -9 -9c-7 -13 -19 -20 -38 -20c-7 0 -13 3 -17 3c-5 0 -8 -4 -7 -18l4 -169c0 -9 -7 -19 -78 -19s-78 10 -78 19l5 335v312c0 9 7 19 77 19s77 -10 77 -19v-289c0 -27 7 -41 25 -41
s24 16 24 41v289c0 9 7 19 77 19s77 -10 77 -19z" />
    <glyph glyph-name="summation" unicode="&#x2211;" horiz-adv-x="422" 
d="M387 463v-449c0 -9 -7 -19 -66 -19c-63 0 -68 9 -70 23c-1 5 -2 14 -6 14c-3 0 -6 -7 -10 -12c-18 -21 -46 -30 -75 -30c-35 0 -72 15 -93 39c-23 26 -37 68 -37 135v149c0 67 14 109 37 135c21 24 58 39 93 39c29 0 57 -9 75 -30c4 -5 7 -12 10 -12c4 0 5 9 6 14
c2 14 7 23 70 23c59 0 66 -10 66 -19zM235 174v130c0 27 -7 42 -25 42c-21 0 -26 -20 -26 -40v-132c0 -27 7 -41 25 -41c21 0 26 14 26 41z" />
    <glyph glyph-name="product" unicode="&#x220f;" horiz-adv-x="460" 
d="M340 377l113 -356c6 -18 -5 -26 -78 -26c-77 0 -82 10 -84 19l-66 270c-2 9 -2 12 -8 12c-5 0 -8 -4 -11 -12l-5 -12c-4 -10 -6 -27 -6 -39l1 -219c0 -9 -7 -19 -78 -19s-78 10 -78 19v670c0 9 7 19 78 19c69 0 76 -8 76 -19l-2 -245c0 -9 1 -16 5 -16c7 0 10 8 12 16
l71 245c2 8 7 19 79 19c71 0 77 -11 74 -19l-94 -262c-7 -19 -5 -27 1 -45z" />
    <glyph glyph-name="ordfeminine" unicode="&#xaa;" horiz-adv-x="208" 
d="M188 635v-140c0 -4 -3 -8 -8 -8h-44c-5 0 -8 3 -9 9c0 3 0 7 -2 7c-1 0 -3 -3 -5 -6c-8 -9 -20 -13 -32 -13c-20 -1 -39 6 -52 21c-12 13 -16 32 -16 49c0 23 16 61 65 61c13 0 22 -3 29 -7c4 -2 7 0 7 5v17c0 9 -3 20 -17 20c-10 0 -16 -8 -17 -16c0 -4 -1 -8 -6 -8h-49
c-7 0 -9 3 -9 9c0 36 31 72 81 72c25 0 45 -7 58 -18c17 -12 26 -32 26 -54zM121 542v19c0 6 -6 13 -17 13c-10 0 -17 -7 -17 -22c0 -14 5 -24 17 -24c11 0 17 8 17 14zM177 455v-27c0 -7 -5 -12 -12 -12h-111c-7 0 -12 5 -12 12v27c0 7 4 12 12 12h111c7 0 12 -5 12 -12z
" />
    <glyph glyph-name="ordmasculine" unicode="&#xba;" horiz-adv-x="200" 
d="M180 632v-75c0 -23 -9 -43 -24 -56c-14 -12 -34 -18 -56 -18s-42 6 -56 18c-15 13 -24 33 -24 56v75c0 23 9 43 24 56c14 12 34 18 56 18s42 -6 56 -18c15 -13 24 -33 24 -56zM116 565v60c0 10 -3 17 -13 17c-11 0 -14 -8 -14 -17v-60c0 -9 3 -18 14 -18c10 0 13 8 13 18
zM170 455v-27c0 -7 -5 -12 -12 -12h-111c-7 0 -12 5 -12 12v27c0 7 4 12 12 12h111c7 0 12 -5 12 -12z" />
    <glyph glyph-name="ae" unicode="&#xe6;" horiz-adv-x="620" 
d="M584 164v-10c-1 -51 -18 -95 -49 -124c-30 -27 -73 -40 -120 -40c-39 0 -75 9 -101 28c-20 15 -17 15 -39 0c-45 -30 -84 -26 -101 -28c-42 -1 -83 13 -112 47c-24 29 -32 73 -32 112c0 50 33 135 138 135c27 0 46 -8 61 -16c9 -5 16 -2 16 7v48c0 18 -9 39 -36 39
c-23 0 -35 -20 -36 -38c-1 -8 -2 -18 -66 -19c-68 -1 -72 9 -72 22c0 80 67 160 174 160c34 0 63 -9 87 -23c16 -11 19 -10 36 1c24 15 53 22 83 22c47 0 90 -13 120 -40c31 -29 49 -73 49 -124v-81c0 -21 -6 -26 -25 -26h-151c-13 0 -17 -7 -17 -16v-32c0 -19 6 -38 29 -38
c22 0 28 14 29 33c1 12 3 20 69 20c61 0 67 -4 66 -19zM245 119v43c0 12 -14 28 -38 28c-20 0 -34 -14 -34 -46c0 -31 9 -55 34 -55s38 18 38 30zM451 295v32c0 22 -12 32 -30 32c-23 0 -32 -19 -32 -38v-26c0 -13 5 -16 18 -16h25c15 0 19 10 19 16z" />
    <glyph glyph-name="oslash" unicode="&#xf8;" horiz-adv-x="426" 
d="M392 464l-22 -37c-8 -13 -2 -18 0 -22c13 -24 19 -52 19 -82v-169c0 -51 -19 -95 -52 -124c-31 -27 -76 -40 -125 -40c-35 0 -67 7 -95 20c-2 1 -7 3 -12 -4c-3 -5 -6 -11 -40 -11c-35 0 -38 10 -33 18l21 34c9 14 3 20 1 24c-12 24 -19 52 -19 83v169c0 51 19 95 52 124
c31 27 76 40 125 40c35 0 68 -6 95 -20c2 -1 6 -3 11 2c7 7 7 13 42 13c36 0 37 -10 32 -18zM248 171v59c0 7 -4 16 -13 2l-40 -66c-7 -12 -4 -17 -2 -20c5 -7 16 -13 25 -13c24 0 30 17 30 38zM188 308v-43c0 -12 5 -15 13 -3l37 60c7 11 2 15 0 17c-5 4 -12 7 -20 7
c-24 0 -30 -19 -30 -38z" />
    <glyph glyph-name="questiondown" unicode="&#xbf;" horiz-adv-x="397" 
d="M10 -26c0 81 25 108 84 171c35 38 40 62 40 87v26c0 7 -2 19 75 19c68 0 76 -6 76 -19v-42c0 -58 -7 -65 -39 -103c-31 -37 -75 -85 -75 -126v-15c0 -19 6 -35 25 -35c25 0 25 26 25 36v21c0 13 6 23 72 23c62 0 74 -3 74 -23v-38c0 -99 -71 -164 -174 -164
c-123 0 -183 68 -183 182zM139 391v22c0 25 10 42 23 54c14 13 32 20 54 20s40 -7 54 -20c13 -12 23 -29 23 -54v-22c0 -25 -10 -40 -23 -52c-14 -13 -32 -20 -54 -20s-40 7 -54 20c-13 12 -23 27 -23 52z" />
    <glyph glyph-name="exclamdown" unicode="&#xa1;" horiz-adv-x="246" 
d="M30 -184l10 449c0 9 7 19 69 19c61 0 68 -10 68 -19l9 -449c0 -9 -7 -19 -79 -19c-70 0 -77 10 -77 19zM32 391v22c0 25 10 42 23 54c14 13 32 20 54 20s40 -7 54 -20c13 -12 23 -29 23 -54v-22c0 -25 -10 -40 -23 -52c-14 -13 -32 -20 -54 -20s-40 7 -54 20
c-13 12 -23 27 -23 52z" />
    <glyph glyph-name="logicalnot" unicode="&#xac;" 
d="M352 251c0 -12 -10 -20 -49 -20c-36 0 -47 8 -47 20v59c0 14 -4 19 -21 19h-167c-13 0 -22 8 -22 43c0 34 9 44 22 44h260c14 0 24 -10 24 -22v-143z" />
    <glyph glyph-name="radical" unicode="&#x221a;" horiz-adv-x="387" 
d="M425 746l-221 -692c-3 -9 -16 -20 -29 -14l-164 80c-9 4 -9 7 -5 51c5 53 13 60 26 53l78 -39c9 -4 15 -1 18 9l182 559c3 9 6 12 59 12c59 0 58 -12 56 -19z" />
    <glyph glyph-name="florin" unicode="&#x192;" horiz-adv-x="266" 
d="M316 635c0 -63 -11 -70 -20 -70h-34c-25 0 -32 -19 -33 -38l-2 -33c-1 -10 3 -17 14 -17h42c9 0 19 -7 19 -67c0 -62 -12 -69 -21 -69h-45c-9 0 -15 -3 -16 -15l-12 -231c-3 -51 -25 -95 -60 -124c-25 -21 -68 -40 -119 -40h-44c-9 0 -19 7 -18 74c1 60 11 67 20 67h35
c25 0 32 19 33 38l11 216c1 10 -3 15 -14 15h-8c-9 0 -19 7 -19 68s12 68 21 68h16c12 0 13 11 13 17l3 48c3 51 24 95 59 124c25 21 67 40 118 40h43c9 0 18 -7 18 -71z" />
    <glyph glyph-name="guillemotleft" unicode="&#xab;" horiz-adv-x="372" 
d="M275 303l55 -139c4 -10 1 -19 -40 -19c-44 0 -48 8 -54 19l-71 140c-5 9 -4 21 0 30l71 140c6 11 10 19 52 19c43 0 46 -9 42 -19l-55 -139c-5 -12 -4 -21 0 -32zM134 303l55 -139c4 -10 0 -19 -41 -19c-43 0 -48 8 -54 19l-70 140c-5 9 -4 21 0 30l70 140
c6 11 11 19 53 19s46 -9 42 -19l-55 -139c-5 -12 -4 -21 0 -32z" />
    <glyph glyph-name="guillemotright" unicode="&#xbb;" horiz-adv-x="372" 
d="M42 164l55 139c4 11 5 20 0 32l-55 139c-4 10 -1 19 42 19c42 0 46 -8 52 -19l71 -140c4 -9 5 -21 0 -30l-71 -140c-6 -11 -10 -19 -54 -19c-41 0 -44 9 -40 19zM183 164l55 139c4 11 5 20 0 32l-55 139c-4 10 0 19 42 19s47 -8 53 -19l70 -140c4 -9 5 -21 0 -30
l-70 -140c-6 -11 -11 -19 -54 -19c-41 0 -45 9 -41 19z" />
    <glyph glyph-name="ellipsis" unicode="&#x2026;" horiz-adv-x="745" 
d="M170 76c0 -36 -10 -54 -22 -66c-14 -13 -35 -20 -56 -20s-41 7 -55 20c-12 12 -22 30 -22 67c0 36 10 54 22 66c14 13 34 20 55 20s42 -7 56 -20c12 -12 22 -30 22 -67zM450 76c0 -36 -10 -54 -22 -66c-14 -13 -35 -20 -56 -20s-41 7 -55 20c-12 12 -22 30 -22 67
c0 36 10 54 22 66c14 13 34 20 55 20s42 -7 56 -20c12 -12 22 -30 22 -67zM730 76c0 -36 -10 -54 -22 -66c-14 -13 -35 -20 -56 -20s-41 7 -55 20c-12 12 -22 30 -22 67c0 36 10 54 22 66c14 13 34 20 55 20s42 -7 56 -20c12 -12 22 -30 22 -67z" />
    <glyph glyph-name="uni00A0" unicode="&#xa0;" horiz-adv-x="210" 
 />
    <glyph glyph-name="Agrave" unicode="&#xc0;" horiz-adv-x="402" 
d="M280 684l111 -670c1 -9 -7 -19 -74 -19c-69 0 -75 10 -76 19l-12 121c-1 15 -6 17 -17 17h-22c-16 0 -16 -5 -17 -17l-12 -121c-1 -9 -7 -19 -77 -19c-66 0 -74 10 -73 19l110 670c1 9 7 19 76 19c76 0 82 -10 83 -19zM223 273l-13 195c-1 9 -2 14 -8 14
c-5 0 -7 -5 -8 -14l-15 -195c-1 -9 4 -14 13 -14h18c9 0 14 5 13 14zM234 871l30 -103c2 -8 2 -17 -38 -18c-42 -1 -47 7 -52 14l-74 103c-7 9 0 19 67 19c60 0 64 -4 67 -15z" />
    <glyph glyph-name="Atilde" unicode="&#xc3;" horiz-adv-x="402" 
d="M280 684l111 -670c1 -9 -7 -19 -74 -19c-69 0 -75 10 -76 19l-12 121c-1 15 -6 17 -17 17h-22c-16 0 -16 -5 -17 -17l-12 -121c-1 -9 -7 -19 -77 -19c-66 0 -74 10 -73 19l110 670c1 9 7 19 76 19c76 0 82 -10 83 -19zM223 273l-13 195c-1 9 -2 14 -8 14
c-5 0 -7 -5 -8 -14l-15 -195c-1 -9 4 -14 13 -14h18c9 0 14 5 13 14zM355 850l-59 -97c-6 -10 -11 -13 -47 -13c-33 0 -34 5 -42 11l-43 31c-8 6 -12 5 -19 -2l-23 -22c-7 -7 -8 -12 -45 -12s-37 8 -32 16l59 97c6 10 7 13 48 13c38 0 40 -5 45 -10l39 -34c8 -7 12 -3 19 4
l23 22c7 7 8 11 42 12c42 1 40 -8 35 -16z" />
    <glyph glyph-name="Otilde" unicode="&#xd5;" horiz-adv-x="432" 
d="M397 542v-388c0 -51 -19 -95 -53 -124c-32 -27 -78 -40 -128 -40s-96 13 -128 40c-34 29 -53 73 -53 124v388c0 51 19 95 53 124c32 27 78 40 128 40s96 -13 128 -40c34 -29 53 -73 53 -124zM251 171v356c0 21 -7 38 -31 38c-25 0 -31 -19 -31 -38v-356
c0 -19 6 -38 31 -38c24 0 31 17 31 38zM370 850l-59 -97c-6 -10 -11 -13 -47 -13c-33 0 -34 5 -42 11l-43 31c-8 6 -12 5 -19 -2l-23 -22c-7 -7 -8 -12 -45 -12s-37 8 -32 16l59 97c6 10 7 13 48 13c38 0 40 -5 45 -10l39 -34c8 -7 12 -3 19 4l23 22c7 7 8 11 42 12
c42 1 40 -8 35 -16z" />
    <glyph glyph-name="OE" unicode="&#x152;" horiz-adv-x="538" 
d="M531 67c-1 -60 -10 -67 -19 -67h-229c-9 0 -14 4 -16 17c-1 8 -4 10 -7 10c-5 0 -10 -5 -14 -8c-24 -21 -50 -30 -80 -29c-79 3 -131 74 -131 154v406c0 70 47 156 131 156c34 0 58 -7 83 -28c4 -4 9 -9 13 -9c3 0 6 3 8 11c3 13 7 16 16 16h226c9 0 19 -7 19 -68
c0 -60 -10 -67 -19 -67h-110c-12 0 -16 -7 -16 -16v-102c0 -9 4 -16 16 -16h59c9 0 18 -7 18 -63c0 -60 -9 -67 -18 -67h-59c-11 0 -16 -6 -16 -13v-133c0 -9 4 -16 16 -16h110c9 0 20 -7 19 -68zM247 177v342c0 21 -7 44 -29 44c-25 0 -31 -19 -31 -38v-352
c0 -19 6 -38 31 -38c22 0 29 21 29 42z" />
    <glyph glyph-name="oe" unicode="&#x153;" horiz-adv-x="611" 
d="M575 164v-10c0 -51 -19 -95 -50 -124c-30 -27 -73 -40 -120 -40c-32 0 -62 8 -87 24c-17 14 -17 11 -34 0c-25 -15 -54 -24 -84 -24c-47 0 -90 13 -120 40c-31 29 -50 73 -50 124v169c0 51 19 95 50 124c30 27 73 40 120 40c30 0 59 -8 84 -23c19 -13 15 -15 35 -1
c25 16 54 24 86 24c47 0 90 -13 120 -40c31 -29 50 -73 50 -124v-81c0 -21 -7 -26 -25 -26h-152c-12 0 -16 -7 -16 -16v-32c0 -19 5 -38 29 -38c20 0 27 14 28 33c1 12 3 19 68 19c62 0 69 -3 68 -18zM235 171v137c0 21 -6 38 -29 38s-29 -19 -29 -38v-137
c0 -19 6 -38 29 -38s29 17 29 38zM441 295v32c0 22 -12 32 -30 32c-23 0 -32 -19 -32 -38v-26c0 -13 5 -16 17 -16h28c15 0 17 10 17 16z" />
    <glyph glyph-name="endash" unicode="&#x2013;" horiz-adv-x="525" 
d="M507 304c-1 -52 -11 -64 -27 -64h-435c-16 0 -27 12 -27 67c0 50 8 62 27 62h435c16 0 28 -12 27 -65z" />
    <glyph glyph-name="emdash" unicode="&#x2014;" horiz-adv-x="817" 
d="M799 304c-1 -50 -10 -62 -26 -62h-728c-16 0 -27 12 -27 65c0 50 8 62 27 62h728c16 0 27 -12 26 -65z" />
    <glyph glyph-name="quotedblleft" unicode="&#x201c;" horiz-adv-x="371" 
d="M15 559c0 61 27 146 146 160c11 1 12 -4 12 -30c0 -27 -5 -27 -12 -28c-26 -3 -54 -21 -68 -44c-5 -9 -1 -14 10 -9c3 1 12 2 14 2c30 0 59 -20 59 -77c0 -36 -10 -55 -22 -68c-14 -15 -33 -24 -56 -24s-42 9 -56 24c-23 23 -27 59 -27 94zM198 559c0 61 27 146 146 160
c11 1 12 -4 12 -30c0 -27 -5 -27 -12 -28c-26 -3 -54 -21 -68 -44c-5 -9 -1 -14 10 -9c3 1 12 2 14 2c30 0 59 -20 59 -77c0 -36 -10 -55 -22 -68c-14 -15 -33 -24 -56 -24s-42 9 -56 24c-23 23 -27 59 -27 94z" />
    <glyph glyph-name="quotedblright" unicode="&#x201d;" horiz-adv-x="371" 
d="M356 598c0 -61 -27 -146 -146 -160c-11 -1 -12 4 -12 30c0 27 5 27 12 28c26 3 54 21 68 44c5 9 1 14 -10 9c-3 -1 -12 -2 -14 -2c-30 0 -59 20 -59 77c0 36 10 55 22 68c14 15 33 24 56 24s42 -9 56 -24c23 -23 27 -59 27 -94zM173 598c0 -61 -27 -146 -146 -160
c-11 -1 -12 4 -12 30c0 27 5 27 12 28c26 3 54 21 68 44c5 9 1 14 -10 9c-3 -1 -12 -2 -14 -2c-30 0 -59 20 -59 77c0 36 10 55 22 68c14 15 33 24 56 24s42 -9 56 -24c23 -23 27 -59 27 -94z" />
    <glyph glyph-name="quoteleft" unicode="&#x2018;" horiz-adv-x="188" 
d="M15 559c0 61 27 146 146 160c11 1 12 -4 12 -30c0 -27 -5 -27 -12 -28c-26 -3 -54 -21 -68 -44c-5 -9 -1 -14 10 -9c3 1 12 2 14 2c30 0 59 -20 59 -77c0 -36 -10 -55 -22 -68c-14 -15 -33 -24 -56 -24s-42 9 -56 24c-23 23 -27 59 -27 94z" />
    <glyph glyph-name="quoteright" unicode="&#x2019;" horiz-adv-x="188" 
d="M173 598c0 -61 -27 -146 -146 -160c-11 -1 -12 4 -12 30c0 27 5 27 12 28c26 3 54 21 68 44c5 9 1 14 -10 9c-3 -1 -12 -2 -14 -2c-30 0 -59 20 -59 77c0 36 10 55 22 68c14 15 33 24 56 24s42 -9 56 -24c23 -23 27 -59 27 -94z" />
    <glyph glyph-name="divide" unicode="&#xf7;" 
d="M260 476v-15c0 -18 -7 -33 -16 -41c-10 -10 -26 -14 -41 -14s-29 4 -39 14c-9 8 -16 23 -16 41v15c0 18 7 33 16 41c10 10 24 14 39 14s31 -4 41 -14c9 -8 16 -23 16 -41zM354 345c0 -35 -8 -43 -22 -43h-264c-13 0 -22 8 -22 44c0 33 9 43 22 43h264c14 0 22 -10 22 -44
zM260 227v-15c0 -18 -7 -33 -16 -41c-10 -10 -26 -14 -41 -14s-29 4 -39 14c-9 8 -16 23 -16 41v15c0 18 7 33 16 41c10 10 24 14 39 14s31 -4 41 -14c9 -8 16 -23 16 -41z" />
    <glyph glyph-name="ydieresis" unicode="&#xff;" horiz-adv-x="373" 
d="M367 465l-114 -447l-46 -205c-2 -9 -7 -16 -70 -16c-71 0 -73 11 -70 19l61 167c4 12 -2 16 -5 16c-8 0 -11 8 -12 11l-100 455c-1 6 0 17 77 17c67 0 68 -11 69 -17l22 -253c1 -6 2 -14 8 -14s7 8 8 14l30 253c1 6 4 17 74 17s70 -11 68 -17zM328 605v-17
c0 -20 -8 -36 -18 -45c-11 -11 -29 -16 -46 -16s-34 5 -45 16c-10 9 -18 25 -18 45v17c0 20 8 36 18 45c11 11 28 16 45 16s35 -5 46 -16c10 -9 18 -25 18 -45zM173 605v-17c0 -20 -8 -36 -18 -45c-11 -11 -29 -16 -46 -16s-34 5 -45 16c-10 9 -18 25 -18 45v17
c0 20 8 36 18 45c11 11 28 16 45 16s35 -5 46 -16c10 -9 18 -25 18 -45z" />
    <glyph glyph-name="Ydieresis" unicode="&#x178;" horiz-adv-x="384" 
d="M378 684l-103 -367c-5 -19 -6 -33 -6 -52l3 -251c0 -9 -7 -19 -79 -19s-79 10 -79 19l3 250c0 17 -2 30 -7 49l-104 371c-2 9 7 19 78 19s77 -10 78 -19l24 -239c1 -9 3 -14 8 -14c6 0 7 5 8 14l30 239c1 9 7 19 73 19s75 -10 73 -19zM333 826v-17c0 -20 -8 -36 -18 -45
c-11 -11 -29 -16 -46 -16s-34 5 -45 16c-10 9 -18 25 -18 45v17c0 20 8 36 18 45c11 11 28 16 45 16s35 -5 46 -16c10 -9 18 -25 18 -45zM178 826v-17c0 -20 -8 -36 -18 -45c-11 -11 -29 -16 -46 -16s-34 5 -45 16c-10 9 -18 25 -18 45v17c0 20 8 36 18 45
c11 11 28 16 45 16s35 -5 46 -16c10 -9 18 -25 18 -45z" />
    <glyph glyph-name="fraction" unicode="&#x2044;" horiz-adv-x="98" 
d="M222 618l-247 -554c-4 -8 -6 -14 -53 -13c-42 1 -46 10 -42 18l248 554c4 8 6 13 50 13c47 0 48 -10 44 -18z" />
    <glyph glyph-name="Euro" unicode="&#x20ac;" horiz-adv-x="422" 
d="M402 183v-29c0 -51 -14 -95 -48 -124c-32 -27 -72 -40 -122 -40s-96 13 -128 40c-34 29 -53 73 -53 124v78c0 11 -2 15 -12 15h-23c-9 0 -18 7 -18 40c0 38 9 45 18 45h23c12 0 12 4 12 15v7c0 12 0 16 -12 16h-23c-9 0 -18 7 -18 42c0 36 9 43 18 43h23c11 0 12 8 12 15
v72c0 51 19 95 53 124c32 27 78 40 128 40s89 -13 121 -40c34 -29 49 -73 49 -124v-26c0 -9 -7 -19 -66 -24c-66 -6 -73 4 -73 13v22c0 21 -5 38 -29 38c-25 0 -29 -19 -29 -38v-57c0 -10 -1 -15 12 -15h73c9 0 18 -7 18 -43c0 -35 -9 -42 -18 -42h-73c-7 0 -12 -3 -12 -11
v-15c0 -11 4 -12 12 -12h73c9 0 18 -7 18 -45c0 -33 -9 -40 -18 -40h-73c-12 0 -12 -8 -12 -17v-59c0 -19 4 -38 29 -38c24 0 29 17 29 38v22c0 9 7 20 71 14c61 -5 68 -15 68 -24z" />
    <glyph glyph-name="guilsinglleft" unicode="&#x2039;" horiz-adv-x="236" 
d="M140 303l49 -139c4 -10 0 -19 -40 -19c-44 0 -49 8 -55 19l-70 140c-5 9 -4 21 0 30l70 140c6 11 11 19 55 19c40 0 44 -9 40 -19l-49 -139c-5 -12 -4 -21 0 -32z" />
    <glyph glyph-name="guilsinglright" unicode="&#x203a;" horiz-adv-x="236" 
d="M47 164l49 139c4 11 4 20 0 32l-49 139c-4 10 0 19 40 19c44 0 49 -8 55 -19l70 -140c4 -9 5 -21 0 -30l-70 -140c-6 -11 -11 -19 -55 -19c-40 0 -44 9 -40 19z" />
    <glyph glyph-name="daggerdbl" unicode="&#x2021;" horiz-adv-x="254" 
d="M231 589c0 -28 -9 -35 -18 -35h-28c-11 0 -15 0 -16 -15l-12 -167c-1 -9 -2 -14 -11 -14h-37c-9 0 -10 5 -11 14l-12 168c-1 10 -3 14 -14 14h-31c-9 0 -18 7 -18 34c0 29 9 36 18 36h29c13 0 15 2 15 14l-2 53c0 9 7 18 43 18c39 0 46 -9 46 -18l-2 -53
c0 -12 4 -14 16 -14h27c9 0 18 -7 18 -35zM231 110c0 -28 -9 -35 -18 -35h-27c-12 0 -16 -2 -16 -14l2 -53c0 -9 -7 -18 -46 -18c-36 0 -43 9 -43 18l2 53c0 12 -2 14 -15 14h-29c-9 0 -18 7 -18 36c0 27 9 34 18 34h31c11 0 13 4 14 14l12 169c1 9 2 14 11 14h37
c9 0 10 -5 11 -14l12 -168c1 -15 5 -15 16 -15h28c9 0 18 -7 18 -35z" />
    <glyph glyph-name="periodcentered" unicode="&#xb7;" horiz-adv-x="207" 
d="M181 354v-21c0 -25 -10 -44 -22 -56c-14 -13 -35 -20 -56 -20s-41 7 -55 20c-12 12 -22 31 -22 56v21c0 25 10 44 22 56c14 13 34 20 55 20s42 -7 56 -20c12 -12 22 -31 22 -56z" />
    <glyph glyph-name="quotesinglbase" unicode="&#x201a;" horiz-adv-x="188" 
d="M173 41c0 -61 -27 -146 -146 -160c-11 -1 -12 4 -12 28c0 29 5 29 12 30c26 3 54 21 68 44c5 9 1 14 -10 9c-3 -1 -12 -2 -14 -2c-30 0 -59 20 -59 77c0 36 10 55 22 68c14 15 33 24 56 24s42 -9 56 -24c23 -23 27 -59 27 -94z" />
    <glyph glyph-name="quotedblbase" unicode="&#x201e;" horiz-adv-x="371" 
d="M173 41c0 -61 -27 -146 -146 -160c-11 -1 -12 4 -12 28c0 29 5 29 12 30c26 3 54 21 68 44c5 9 1 14 -10 9c-3 -1 -12 -2 -14 -2c-30 0 -59 20 -59 77c0 36 10 55 22 68c14 15 33 24 56 24s42 -9 56 -24c23 -23 27 -59 27 -94zM356 41c0 -61 -27 -146 -146 -160
c-11 -1 -12 4 -12 28c0 29 5 29 12 30c26 3 54 21 68 44c5 9 1 14 -10 9c-3 -1 -12 -2 -14 -2c-30 0 -59 20 -59 77c0 36 10 55 22 68c14 15 33 24 56 24s42 -9 56 -24c23 -23 27 -59 27 -94z" />
    <glyph glyph-name="perthousand" unicode="&#x2030;" horiz-adv-x="722" 
d="M223 571v-104c0 -60 -51 -77 -99 -77s-99 19 -99 78v103c0 61 50 78 99 78c48 0 99 -19 99 -78zM142 484v72c0 13 1 30 -18 30c-18 0 -18 -16 -18 -30v-71c0 -14 0 -31 18 -31c19 0 18 16 18 30zM475 246v-104c0 -60 -51 -77 -99 -77s-99 19 -99 78v103c0 61 50 78 99 78
c48 0 99 -19 99 -78zM394 159v72c0 13 1 30 -18 30c-18 0 -18 -16 -18 -30v-71c0 -14 0 -31 18 -31c19 0 18 16 18 30zM697 246v-104c0 -60 -51 -77 -99 -77s-99 19 -99 78v103c0 61 50 78 99 78c48 0 99 -19 99 -78zM616 159v72c0 13 1 30 -18 30c-18 0 -18 -16 -18 -30
v-71c0 -14 0 -31 18 -31c19 0 18 16 18 30zM432 640l-281 -577c-4 -8 -6 -20 -48 -19c-40 1 -43 11 -39 19l282 578c4 8 6 17 47 18c46 1 43 -11 39 -19z" />
    <glyph glyph-name="Acircumflex" unicode="&#xc2;" horiz-adv-x="402" 
d="M280 684l111 -670c1 -9 -7 -19 -74 -19c-69 0 -75 10 -76 19l-12 121c-1 15 -6 17 -17 17h-22c-16 0 -16 -5 -17 -17l-12 -121c-1 -9 -7 -19 -77 -19c-66 0 -74 10 -73 19l110 670c1 9 7 19 76 19c76 0 82 -10 83 -19zM223 273l-13 195c-1 9 -2 14 -8 14
c-5 0 -7 -5 -8 -14l-15 -195c-1 -9 4 -14 13 -14h18c9 0 14 5 13 14zM259 871l89 -107c7 -8 7 -19 -34 -19c-39 0 -41 4 -48 9l-53 39c-9 6 -15 7 -24 0l-50 -38c-9 -7 -9 -10 -48 -10c-43 0 -43 11 -36 19l89 107c9 11 9 15 56 15c49 0 50 -4 59 -15z" />
    <glyph glyph-name="Ecircumflex" unicode="&#xca;" horiz-adv-x="344" 
d="M337 68c0 -61 -10 -68 -19 -68h-262c-9 0 -16 7 -16 16v664c0 9 7 16 16 16h262c9 0 19 -7 19 -66c0 -62 -10 -69 -19 -69h-110c-12 0 -16 -7 -16 -16v-102c0 -9 4 -16 16 -16h59c9 0 18 -7 18 -64c0 -59 -9 -66 -18 -66h-59c-12 0 -16 -7 -16 -16v-130
c0 -9 4 -16 16 -16h110c9 0 19 -7 19 -67zM240 871l89 -107c7 -8 7 -19 -34 -19c-39 0 -41 4 -48 9l-53 39c-9 6 -15 7 -24 0l-50 -38c-9 -7 -9 -10 -48 -10c-43 0 -43 11 -36 19l89 107c9 11 9 15 56 15c49 0 50 -4 59 -15z" />
    <glyph glyph-name="Aacute" unicode="&#xc1;" horiz-adv-x="402" 
d="M280 684l111 -670c1 -9 -7 -19 -74 -19c-69 0 -75 10 -76 19l-12 121c-1 15 -6 17 -17 17h-22c-16 0 -16 -5 -17 -17l-12 -121c-1 -9 -7 -19 -77 -19c-66 0 -74 10 -73 19l110 670c1 9 7 19 76 19c76 0 82 -10 83 -19zM223 273l-13 195c-1 9 -2 14 -8 14
c-5 0 -7 -5 -8 -14l-15 -195c-1 -9 4 -14 13 -14h18c9 0 14 5 13 14zM127 768l30 103c3 11 7 15 67 15c67 0 74 -10 67 -19l-74 -103c-5 -7 -10 -15 -52 -14c-40 1 -40 10 -38 18z" />
    <glyph glyph-name="Edieresis" unicode="&#xcb;" horiz-adv-x="344" 
d="M337 68c0 -61 -10 -68 -19 -68h-262c-9 0 -16 7 -16 16v664c0 9 7 16 16 16h262c9 0 19 -7 19 -66c0 -62 -10 -69 -19 -69h-110c-12 0 -16 -7 -16 -16v-102c0 -9 4 -16 16 -16h59c9 0 18 -7 18 -64c0 -59 -9 -66 -18 -66h-59c-12 0 -16 -7 -16 -16v-130
c0 -9 4 -16 16 -16h110c9 0 19 -7 19 -67zM323 826v-17c0 -20 -8 -36 -18 -45c-11 -11 -29 -16 -46 -16s-34 5 -45 16c-10 9 -18 25 -18 45v17c0 20 8 36 18 45c11 11 28 16 45 16s35 -5 46 -16c10 -9 18 -25 18 -45zM168 826v-17c0 -20 -8 -36 -18 -45
c-11 -11 -29 -16 -46 -16s-34 5 -45 16c-10 9 -18 25 -18 45v17c0 20 8 36 18 45c11 11 28 16 45 16s35 -5 46 -16c10 -9 18 -25 18 -45z" />
    <glyph glyph-name="Egrave" unicode="&#xc8;" horiz-adv-x="344" 
d="M337 68c0 -61 -10 -68 -19 -68h-262c-9 0 -16 7 -16 16v664c0 9 7 16 16 16h262c9 0 19 -7 19 -66c0 -62 -10 -69 -19 -69h-110c-12 0 -16 -7 -16 -16v-102c0 -9 4 -16 16 -16h59c9 0 18 -7 18 -64c0 -59 -9 -66 -18 -66h-59c-12 0 -16 -7 -16 -16v-130
c0 -9 4 -16 16 -16h110c9 0 19 -7 19 -67zM205 871l30 -103c2 -8 2 -17 -38 -18c-42 -1 -47 7 -52 14l-74 103c-7 9 0 19 67 19c60 0 64 -4 67 -15z" />
    <glyph glyph-name="Iacute" unicode="&#xcd;" horiz-adv-x="254" 
d="M204 684v-670c0 -9 -7 -19 -77 -19s-77 10 -77 19v670c0 9 7 19 77 19s77 -10 77 -19zM54 768l30 103c3 11 7 15 67 15c67 0 74 -10 67 -19l-74 -103c-5 -7 -10 -15 -52 -14c-40 1 -40 10 -38 18z" />
    <glyph glyph-name="Icircumflex" unicode="&#xce;" horiz-adv-x="254" 
d="M204 684v-670c0 -9 -7 -19 -77 -19s-77 10 -77 19v670c0 9 7 19 77 19s77 -10 77 -19zM185 871l89 -107c7 -8 7 -19 -34 -19c-39 0 -41 4 -48 9l-53 39c-9 6 -15 7 -24 0l-50 -38c-9 -7 -9 -10 -48 -10c-43 0 -43 11 -36 19l89 107c9 11 9 15 56 15c49 0 50 -4 59 -15z
" />
    <glyph glyph-name="Idieresis" unicode="&#xcf;" horiz-adv-x="254" 
d="M204 684v-670c0 -9 -7 -19 -77 -19s-77 10 -77 19v670c0 9 7 19 77 19s77 -10 77 -19zM268 826v-17c0 -20 -8 -36 -18 -45c-11 -11 -29 -16 -46 -16s-34 5 -45 16c-10 9 -18 25 -18 45v17c0 20 8 36 18 45c11 11 28 16 45 16s35 -5 46 -16c10 -9 18 -25 18 -45zM113 826
v-17c0 -20 -8 -36 -18 -45c-11 -11 -29 -16 -46 -16s-34 5 -45 16c-10 9 -18 25 -18 45v17c0 20 8 36 18 45c11 11 28 16 45 16s35 -5 46 -16c10 -9 18 -25 18 -45z" />
    <glyph glyph-name="Igrave" unicode="&#xcc;" horiz-adv-x="254" 
d="M204 684v-670c0 -9 -7 -19 -77 -19s-77 10 -77 19v670c0 9 7 19 77 19s77 -10 77 -19zM171 871l30 -103c2 -8 2 -17 -38 -18c-42 -1 -47 7 -52 14l-74 103c-7 9 0 19 67 19c60 0 64 -4 67 -15z" />
    <glyph glyph-name="Oacute" unicode="&#xd3;" horiz-adv-x="432" 
d="M397 542v-388c0 -51 -19 -95 -53 -124c-32 -27 -78 -40 -128 -40s-96 13 -128 40c-34 29 -53 73 -53 124v388c0 51 19 95 53 124c32 27 78 40 128 40s96 -13 128 -40c34 -29 53 -73 53 -124zM251 171v356c0 21 -7 38 -31 38c-25 0 -31 -19 -31 -38v-356
c0 -19 6 -38 31 -38c24 0 31 17 31 38zM152 768l30 103c3 11 7 15 67 15c67 0 74 -10 67 -19l-74 -103c-5 -7 -10 -15 -52 -14c-40 1 -40 10 -38 18z" />
    <glyph glyph-name="Ocircumflex" unicode="&#xd4;" horiz-adv-x="432" 
d="M397 542v-388c0 -51 -19 -95 -53 -124c-32 -27 -78 -40 -128 -40s-96 13 -128 40c-34 29 -53 73 -53 124v388c0 51 19 95 53 124c32 27 78 40 128 40s96 -13 128 -40c34 -29 53 -73 53 -124zM251 171v356c0 21 -7 38 -31 38c-25 0 -31 -19 -31 -38v-356
c0 -19 6 -38 31 -38c24 0 31 17 31 38zM273 871l89 -107c7 -8 7 -19 -34 -19c-39 0 -41 4 -48 9l-53 39c-9 6 -15 7 -24 0l-50 -38c-9 -7 -9 -10 -48 -10c-43 0 -43 11 -36 19l89 107c9 11 9 15 56 15c49 0 50 -4 59 -15z" />
    <glyph glyph-name="uniF8FF" unicode="&#xf8ff;" horiz-adv-x="1411" 
d="M1386 316h1l-1 -6h-3l-1 -12h-2v-4c-2 -2 -5 -5 -8 -5v2h-3l-6 -3l-4 -5c-5 1 -11 2 -17 1v-1h-9l-13 -5l-3 -15c-5 -5 -10 -11 -14 -17h-3v-7l-9 -8l-7 -1v-1l-11 -8h-12l-3 -3h-3v-2l-19 3l-2 -3h-2l-3 -4l-5 -17l-4 -3h-1v-2h-6v-1l-6 -6l-2 -6l-10 -2
c-7 -12 -20 -20 -33 -15l-4 4l-6 1l-7 7l-4 1v2l-9 8v6l-13 13v14l-12 -3c-3 -8 -6 -14 -10 -21c-3 -3 -15 -11 -18 -12v-2c-6 -5 -9 -9 -17 -13h-2v-1h-5v1h-8v2h-3v1c-1 -1 -8 2 -10 2l-5 -1l-8 3l-6 5c-1 4 -6 8 -8 12v1c-7 3 -7 12 -7 19l1 1v8h-1v6v0l-5 10l-5 -5l-8 1
l-3 -4c0 -4 -1 -9 -2 -13l-4 -4l-4 -16l-12 -9c-2 -3 -2 -7 -2 -9h-1v-3c-8 -8 -16 -25 -15 -34c-2 -2 -7 -7 -8 -10h-3l-9 -5v-7l-12 -9l-4 3l-3 -6c-4 1 -10 -2 -16 -1v-1h-6l-3 2v-1h-6v1l-13 12h-2v6l-9 8c-7 15 -4 14 -3 28l3 2l1 7l-4 1v8h3v7h1v4l-7 5l-5 -8v-6
l-3 -2l-2 -4h-1v-4h1l-1 -7l-5 -6v-5l-9 -10c0 -16 1 -19 -5 -33h-1c-3 -8 -10 -26 -16 -31v-6h-1c-2 -5 -5 -11 -6 -17l-2 -3v-5c-8 -4 -12 -12 -12 -20c-7 -4 -7 -15 -10 -22l-7 -1l-3 -10c-6 -7 -15 -13 -21 -21c-8 -3 -17 -8 -23 -12v-1c-5 -2 -11 -2 -16 -2l-1 -1
c-9 0 -16 4 -22 12l-4 3c-1 2 -4 6 -5 6l-9 2l-4 4c-2 4 -2 10 -2 14h-1v3c-6 10 -5 20 -5 31h2c-1 6 2 12 1 17h2c-1 7 2 14 3 21c2 11 0 23 0 35h1v4h2l-2 7l2 1c0 3 1 9 2 11v9h1l6 11h1v7h1v5l7 10v9h-2v6h2v10v0c0 2 3 13 2 15h2v2c1 1 3 6 3 8v6h-2
c-5 -8 -13 -16 -13 -26l-4 -3c-3 -8 -9 -21 -15 -26v-8h-2c-6 -8 -9 -13 -8 -22l-4 -9v0h-1c-2 -6 -3 -13 -4 -19v-7h-2v-7l-3 -4l-9 -2c-6 -15 -10 -28 -21 -42v-5l-5 -9c-4 -2 -7 -4 -12 -6h-1v-1l-6 -7v-1h-9l-4 -3c-1 -1 -6 -2 -7 -1v3h-2l-12 -5h4l-11 2l-3 4l-6 1v1
h-3l-3 2l-4 6l-3 2l-3 4l-12 3v10h-2v4h-1l-3 6v8l-5 7v2v0c0 4 -1 8 -2 11h-1v12h1v14h-1v2h1l-4 9c-5 -5 -9 -12 -11 -20c-8 -4 -12 -14 -20 -17c-10 -2 -12 -5 -19 -11h-6v0h-3c-8 3 -13 8 -19 13l-1 5l-1 2v1h-3v9h-1v4h-2v8h-1l-9 10l1 4l-9 9l-8 -2
c-3 -6 -7 -11 -14 -16l-2 -4l-9 -11l-9 3l-8 -4h-1v-1c-2 -1 -7 0 -11 1c-4 5 -9 8 -15 11v1l-7 4c-1 2 -3 13 -3 15h-1v10l-7 10v4h-2c1 2 2 6 2 8l2 6v16l1 1v8h-1v6l-2 2v1h-5l-4 -6c-8 -3 -16 -2 -24 -4h-3l-10 7l-2 5l-9 12h-3l-8 -17h-2l-4 -5l-4 -1v-1l-3 -5v-1
c-7 -4 -14 -12 -19 -18l-11 -3v-1h-9c-3 3 -11 6 -17 6c-1 3 -5 8 -6 9h-3l-5 8v12c-6 5 -12 14 -13 22v8h-1c0 3 0 10 -2 13h-1v5c-4 3 -10 8 -13 12l-5 -5l-11 1v1h-5l-12 -6l-6 4h-7l-7 5v8h-2l-4 5l2 4l-6 7v3l3 4l1 8l7 10v2h2l5 16v0l4 7l5 2h9v2h5v1h1l2 4l10 2l7 10
l2 7l1 1l2 5l10 5v8c5 10 17 19 28 19v2h6v-2h2l1 -1h9v-2h5c3 -1 12 -11 15 -15c2 0 7 0 10 2c3 5 8 9 12 13l2 7l3 1c0 3 3 7 5 8l2 6v0c6 6 10 13 15 19l4 1h7v-1c4 0 18 7 23 9v2h7v-2h7l5 -5h7l4 -6h6l1 -3l11 -9c3 -1 7 -2 11 -3c8 15 16 28 19 46h1v3h2l1 6l3 5l2 3
h1c2 10 9 18 14 27c0 6 7 8 8 14l11 15c14 10 17 19 38 19l10 -5c7 -6 13 -11 20 -14l2 -5l5 -3l4 -5v-8l8 -8v-8h-1v-4h-2l-3 -16h3c4 9 10 19 19 25v2l13 6v2l14 2l4 -1v-1l9 -2l8 -9h2c3 -5 4 -10 3 -16l2 -2v-5h4l5 10h2l7 11c1 8 3 15 3 22l1 1v11h3c1 7 30 58 37 65
c4 10 9 20 12 31h2c0 6 2 12 8 16v1h6l1 3c7 6 15 14 21 22h18v1c4 1 9 0 14 -1l9 -13h6l3 -3l8 -13h1c-1 -14 3 -33 5 -47h1v-2l-3 -5h-1c-3 -10 -10 -36 -10 -43h-1v-4l-3 -6c0 -4 -3 -9 -2 -12h-1c0 -4 -1 -10 -3 -14h-1v-5h-2c0 -18 -11 -34 -11 -52l7 1l9 14v5l7 11v5
c4 7 8 13 14 19c-1 4 1 10 3 14l2 3c7 28 22 51 38 74l5 1l3 6v3h2l4 7l3 2l5 11l2 3c0 4 3 9 6 13h2c-1 2 1 6 1 9c8 7 14 14 19 22c5 0 13 3 15 4v2c5 -1 10 0 14 1v-1h8v1h9c9 -7 23 -10 31 -19v-18v0v-6h2c-1 -7 1 -14 1 -21c0 -10 -1 -20 -1 -30l-2 -4
c-1 -6 -1 -12 -1 -17h-1v-6h-2c0 -8 -1 -23 -10 -30v-4h-1v-10l-2 -3v-7l-3 -2c0 -3 -1 -7 -2 -9v0v-11h-1l1 -9l6 1c0 14 8 28 16 38v8v1h8l2 2l1 5l6 2l7 13l9 2l5 5c7 3 10 14 20 14l5 -3h10v-1c4 -1 8 -2 11 -4c4 -6 7 -12 14 -15c2 -6 3 -15 5 -18l5 -3v-16h1v-9h-1
c-5 -18 -7 -14 -2 -34c-3 -4 -3 -10 -5 -14v-5h2v-9h-2v-7h2l2 -6l5 1c1 6 6 12 8 17c3 4 6 8 10 11l3 6h2c0 4 2 10 2 15h1c0 11 8 15 8 24c2 1 4 1 7 2l2 5c7 6 14 11 25 11v2l5 4h5l3 1h3v1h4c8 1 10 0 17 0c4 0 7 1 10 1l3 -5c3 -1 6 -3 8 -5l1 -7c7 -3 12 -9 14 -16
l6 -4c0 -6 -2 -11 -1 -17l4 -3v-5h2c-1 -4 -2 -10 -2 -15l5 -2v2c3 5 7 12 13 14h6l5 8l2 3h3v1l9 -1v1c3 1 7 3 8 4l1 -1l11 -1c6 -4 10 -8 14 -13l7 -1c2 -2 5 -6 8 -8l1 -5l13 -8l4 -10v-7h1v-12c2 -2 3 -12 3 -14v0v-4v0v-10h-1v-7l12 9l1 5h2v1l3 6l6 1l10 10h4l3 -1h9
v1h9v-1c2 0 5 -1 6 -2l10 -9c3 -6 7 -11 6 -17h2v-7l4 -2l6 -5l2 -6h1l2 -3l6 -2v-1h7c3 -2 8 -8 9 -11l6 -5l2 -7l9 -5c2 -9 -3 -16 0 -22zM1229 398c0 20 -7 31 -24 31s-26 -11 -26 -31c0 -15 5 -32 12 -48c5 -9 11 -15 14 -15c5 0 10 7 17 22c6 14 7 28 7 41zM1229 299
c0 13 -10 24 -24 24s-24 -11 -24 -24s10 -24 24 -24s24 11 24 24zM1174 374c0 8 -7 12 -24 12s-25 -5 -25 -12c0 -6 8 -7 8 -12c0 -1 -1 -6 -4 -13c-3 -6 -4 -9 -8 -9s-5 3 -9 9c-2 7 -4 11 -4 13c0 3 5 4 5 12c0 11 -10 12 -32 12c-27 0 -40 -6 -40 -16c0 -7 4 -8 9 -11
c7 -3 7 -8 10 -14l16 -35c8 -20 14 -33 14 -41c0 -5 -3 -7 -6 -7c-4 0 -1 8 -4 16c-3 6 -10 9 -18 9c-9 0 -19 -9 -19 -21c0 -17 14 -28 36 -28c20 0 33 10 46 32c11 22 16 48 25 73c3 12 8 17 16 20c5 2 8 3 8 11zM1034 299c0 7 -4 13 -8 13s-7 -4 -12 -4
c-9 0 -12 4 -12 12v37c0 6 1 6 7 6h15c9 0 10 1 10 9v7c0 6 0 7 -8 7h-2h-20v9c0 12 0 16 -9 16c-10 0 -24 -10 -46 -25c-10 -7 -11 -7 -11 -14c0 -10 1 -8 16 -9v-50c0 -25 12 -37 37 -37s43 12 43 23zM929 414c0 9 -9 15 -24 15c-22 0 -35 -11 -35 -20c0 -11 6 -15 22 -15
c22 0 37 9 37 20zM940 291c0 5 -3 8 -6 11s-3 4 -3 10v63v7c0 5 -1 7 -8 7c-6 0 -24 -3 -44 -10c-8 -3 -12 -6 -12 -12s5 -8 8 -10c4 -3 4 -8 4 -19v-4c0 -14 0 -24 -1 -28c-1 -2 -3 -4 -4 -5c-4 -3 -5 -5 -5 -10c0 -10 10 -15 36 -15c24 0 35 5 35 15zM860 289
c0 7 -4 9 -6 12s-2 8 -2 17c-1 23 -1 40 -6 52c-6 11 -15 18 -32 18c-10 0 -20 -4 -26 -11c-4 -5 -5 -7 -8 -7c-1 0 -3 2 -3 4v40v2c0 8 0 12 -6 12c-15 0 -31 -3 -44 -10c-8 -3 -13 -7 -13 -12c0 -9 8 -9 12 -12c3 -3 3 -15 3 -38v-16c0 -21 0 -33 -3 -38
c-3 -3 -12 -4 -12 -11c0 -8 15 -15 37 -15c24 0 35 4 35 13c0 6 -6 11 -7 15c-2 5 -2 18 -2 38c0 7 3 11 11 11c9 0 12 -7 12 -21v-12c0 -9 0 -14 -2 -19c-2 -3 -6 -7 -6 -12c0 -9 13 -13 36 -13s32 4 32 13zM716 335c0 34 -17 53 -42 53c-8 0 -16 -2 -23 -8
c-3 -2 -5 -5 -7 -5s-3 3 -3 7c0 5 0 6 -5 6c-9 0 -25 -4 -42 -13c-11 -4 -15 -9 -15 -13s2 -7 4 -9c3 -1 8 -1 11 -4c2 -2 3 -17 3 -41c0 -26 0 -39 -5 -42c-6 -4 -11 -6 -11 -14s13 -14 38 -14c27 0 42 4 42 14c0 8 -3 9 -11 12c-5 3 -6 6 -6 14c0 4 0 6 1 6
c3 0 13 -8 24 -8c14 0 25 6 36 18c8 10 11 24 11 41zM583 299c0 3 -2 6 -7 7c-7 2 -7 4 -7 19v3v24c0 23 -16 37 -48 37c-31 0 -51 -13 -51 -27c0 -8 6 -13 12 -13c8 0 14 3 19 10c4 5 7 11 14 11c6 0 8 -6 8 -18v-11c-6 1 -12 1 -17 1c-26 0 -44 -15 -44 -34s14 -32 37 -32
c9 0 16 2 22 8c2 2 2 3 5 3c1 0 3 -3 9 -7c3 -3 7 -4 13 -4c19 0 35 13 35 23zM464 362c0 16 -11 26 -28 26c-8 0 -15 -4 -19 -10c-1 -3 0 -6 -3 -6s-1 3 -3 10c0 4 -3 6 -9 6c-13 0 -30 -4 -43 -10c-5 -3 -8 -8 -8 -12s3 -8 7 -10s4 -3 4 -8v-3c0 -21 -1 -34 -1 -37
c-1 -2 -3 -3 -5 -4c-2 -3 -7 -5 -7 -12c0 -11 13 -16 40 -16s40 4 40 15c0 7 -6 9 -12 11c-6 4 -6 9 -6 24c0 16 1 24 5 24c1 0 1 -4 4 -8c4 -5 12 -8 18 -8c15 0 26 12 26 28zM342 281c0 18 -9 28 -31 28c-15 0 -26 -3 -35 -3s-15 3 -15 7c0 2 1 5 2 5h17c32 0 53 14 53 37
v7c6 7 9 12 9 20c0 7 -3 12 -8 12c-2 0 -9 -11 -24 -11c-9 0 -19 5 -34 5c-29 0 -50 -16 -50 -36c0 -12 5 -23 17 -28c-14 -5 -21 -11 -21 -20s5 -15 13 -20c-9 -3 -13 -7 -13 -15c0 -16 20 -31 53 -31c41 0 67 19 67 43zM667 326c0 -15 -5 -22 -16 -22c-7 0 -8 3 -8 14
c0 14 1 25 1 31s1 8 7 8c9 0 16 -11 16 -31zM523 320c0 -14 -2 -19 -8 -19s-9 4 -9 12s5 12 12 12c3 0 5 0 5 -5zM291 349c0 -11 -3 -17 -11 -17s-11 9 -11 24c0 10 2 16 8 16c9 0 14 -8 14 -23zM297 267c0 -6 -7 -9 -21 -9c-13 0 -25 7 -25 14c0 1 1 3 2 4
c6 -2 12 -3 19 -3h19c3 0 6 -3 6 -6z" />
    <glyph glyph-name="Ograve" unicode="&#xd2;" horiz-adv-x="432" 
d="M397 542v-388c0 -51 -19 -95 -53 -124c-32 -27 -78 -40 -128 -40s-96 13 -128 40c-34 29 -53 73 -53 124v388c0 51 19 95 53 124c32 27 78 40 128 40s96 -13 128 -40c34 -29 53 -73 53 -124zM251 171v356c0 21 -7 38 -31 38c-25 0 -31 -19 -31 -38v-356
c0 -19 6 -38 31 -38c24 0 31 17 31 38zM249 871l30 -103c2 -8 2 -17 -38 -18c-42 -1 -47 7 -52 14l-74 103c-7 9 0 19 67 19c60 0 64 -4 67 -15z" />
    <glyph glyph-name="Uacute" unicode="&#xda;" horiz-adv-x="432" 
d="M397 684v-530c0 -51 -19 -95 -53 -124c-32 -27 -78 -40 -128 -40s-96 13 -128 40c-34 29 -53 73 -53 124v530c0 9 7 19 77 19s77 -10 77 -19v-513c0 -19 6 -38 31 -38c24 0 31 17 31 38v513c0 9 7 19 73 19s73 -10 73 -19zM152 768l30 103c3 11 7 15 67 15
c67 0 74 -10 67 -19l-74 -103c-5 -7 -10 -15 -52 -14c-40 1 -40 10 -38 18z" />
    <glyph glyph-name="Ucircumflex" unicode="&#xdb;" horiz-adv-x="432" 
d="M397 684v-530c0 -51 -19 -95 -53 -124c-32 -27 -78 -40 -128 -40s-96 13 -128 40c-34 29 -53 73 -53 124v530c0 9 7 19 77 19s77 -10 77 -19v-513c0 -19 6 -38 31 -38c24 0 31 17 31 38v513c0 9 7 19 73 19s73 -10 73 -19zM273 871l89 -107c7 -8 7 -19 -34 -19
c-39 0 -41 4 -48 9l-53 39c-9 6 -15 7 -24 0l-50 -38c-9 -7 -9 -10 -48 -10c-43 0 -43 11 -36 19l89 107c9 11 9 15 56 15c49 0 50 -4 59 -15z" />
    <glyph glyph-name="Ugrave" unicode="&#xd9;" horiz-adv-x="432" 
d="M397 684v-530c0 -51 -19 -95 -53 -124c-32 -27 -78 -40 -128 -40s-96 13 -128 40c-34 29 -53 73 -53 124v530c0 9 7 19 77 19s77 -10 77 -19v-513c0 -19 6 -38 31 -38c24 0 31 17 31 38v513c0 9 7 19 73 19s73 -10 73 -19zM249 871l30 -103c2 -8 2 -17 -38 -18
c-42 -1 -47 7 -52 14l-74 103c-7 9 0 19 67 19c60 0 64 -4 67 -15z" />
    <glyph glyph-name="dotlessi" unicode="&#x131;" horiz-adv-x="233" 
d="M193 463v-449c0 -9 -7 -19 -76 -19c-70 0 -77 10 -77 19v449c0 9 7 19 77 19c69 0 76 -10 76 -19z" />
    <glyph glyph-name="circumflex" unicode="&#x2c6;" horiz-adv-x="403" 
d="M259 650l89 -107c7 -8 7 -19 -34 -19c-39 0 -41 4 -48 9l-53 39c-9 6 -15 7 -24 0l-50 -38c-9 -7 -9 -10 -48 -10c-43 0 -43 11 -36 19l89 107c9 11 9 15 56 15c49 0 50 -4 59 -15z" />
    <glyph glyph-name="tilde" unicode="&#x2dc;" horiz-adv-x="418" 
d="M364 629l-59 -97c-6 -10 -11 -13 -47 -13c-33 0 -34 5 -42 11l-43 31c-8 6 -12 5 -19 -2l-23 -22c-7 -7 -8 -12 -45 -12s-37 8 -32 16l59 97c6 10 7 13 48 13c38 0 40 -5 45 -10l39 -34c8 -7 12 -3 19 4l23 22c7 7 8 11 42 12c42 1 40 -8 35 -16z" />
    <glyph glyph-name="macron" unicode="&#xaf;" horiz-adv-x="323" 
d="M275 592c-1 -38 -9 -45 -18 -45h-191c-9 0 -18 7 -18 45c0 39 9 46 18 46h191c9 0 19 -7 18 -46z" />
    <glyph glyph-name="breve" unicode="&#x2d8;" horiz-adv-x="373" 
d="M323 645c0 -62 -51 -127 -137 -127s-136 65 -136 127c0 12 6 14 40 15c35 1 42 -3 44 -15c5 -32 28 -45 52 -45c25 0 48 13 53 45c2 12 9 15 41 15c36 0 43 -3 43 -15z" />
    <glyph glyph-name="dotaccent" unicode="&#x2d9;" horiz-adv-x="227" 
d="M177 608v-20c0 -18 -8 -32 -18 -40c-12 -9 -29 -15 -46 -15s-33 6 -45 15c-10 8 -18 22 -18 40v20c0 18 8 32 18 40c12 9 28 15 45 15s34 -6 46 -15c10 -8 18 -22 18 -40z" />
    <glyph glyph-name="ring" unicode="&#x2da;" horiz-adv-x="321" 
d="M271 625v-30c0 -26 -13 -45 -29 -57c-18 -14 -53 -22 -81 -22s-63 8 -81 22c-16 12 -30 31 -30 57v30c0 26 14 46 30 58c18 14 53 22 81 22s63 -8 81 -22c16 -12 29 -32 29 -58zM196 597v31c0 14 -9 28 -35 28s-36 -14 -36 -28v-31c0 -14 10 -30 36 -30s35 16 35 30z" />
    <glyph glyph-name="cedilla" unicode="&#xb8;" horiz-adv-x="334" 
d="M280 -120c-11 -63 -72 -81 -131 -80c-19 0 -62 1 -94 11c-10 3 -15 9 -5 36c9 26 12 26 20 25c41 -7 107 -19 115 25c3 19 -7 26 -17 28c-15 2 -34 0 -47 -15c-2 -3 -7 -6 -14 -5l-46 9c-9 2 -9 8 -6 15l27 76c3 7 2 9 14 9h47c6 -1 8 -7 6 -11l-13 -31
c-5 -12 4 -11 10 -10c17 5 42 10 64 6c49 -8 80 -36 70 -88z" />
    <glyph glyph-name="hungarumlaut" unicode="&#x2dd;" horiz-adv-x="401" 
d="M349 645c-13 -28 -40 -81 -54 -108c-5 -11 -10 -15 -65 -15c-59 0 -66 11 -59 19l97 108c7 8 13 14 45 14c35 0 40 -9 36 -18zM230 646l-97 -108c-7 -8 -13 -14 -47 -14c-33 0 -39 9 -34 18l54 108c5 11 10 15 67 15s64 -11 57 -19z" />
    <glyph glyph-name="ogonek" unicode="&#x2db;" horiz-adv-x="325" 
d="M185 0h89v-1c-42 -11 -114 -36 -114 -77c0 -39 65 -42 102 -42c8 0 14 -1 14 -34c0 -31 -3 -35 -14 -35c-102 0 -212 14 -212 94c0 62 76 89 135 95z" />
    <glyph glyph-name="caron" unicode="&#x2c7;" horiz-adv-x="403" 
d="M348 645l-89 -107c-9 -11 -10 -15 -59 -15c-47 0 -47 4 -56 15l-89 107c-7 8 -7 19 36 19c39 0 39 -3 48 -10l50 -38c9 -7 15 -6 24 0l53 39c7 5 9 9 48 9c41 0 41 -11 34 -19z" />
    <glyph glyph-name="currency" unicode="&#xa4;" 
d="M363 173c-24 -28 -32 -24 -38 -19l-33 29c-7 6 -9 6 -19 1c-22 -10 -47 -16 -73 -16s-51 6 -73 16c-10 5 -12 5 -19 -1l-33 -29c-6 -5 -14 -9 -38 19c-26 30 -22 36 -14 43l30 24c6 5 7 7 4 16c-10 27 -15 55 -15 83s5 56 15 83c3 9 2 11 -4 16l-30 24c-8 7 -11 14 13 42
c25 29 33 25 39 20l33 -29c7 -6 9 -6 19 -1c22 10 47 16 73 16s51 -6 73 -16c10 -5 12 -5 19 1l33 29c6 5 14 9 38 -19c26 -30 22 -36 14 -43l-30 -24c-6 -5 -7 -7 -4 -16c10 -27 15 -55 15 -83s-5 -56 -15 -83c-3 -9 -2 -11 4 -16l30 -24c8 -7 12 -13 -14 -43zM251 339
c0 37 -3 87 -51 87s-52 -50 -52 -87s4 -87 52 -87s51 50 51 87z" />
    <glyph glyph-name="brokenbar" unicode="&#xa6;" 
d="M252 783v-428c0 -9 -7 -16 -16 -16h-73c-9 0 -16 7 -16 16v428c0 9 7 16 16 16h73c9 0 16 -7 16 -16zM252 205v-428c0 -9 -7 -16 -16 -16h-73c-9 0 -16 7 -16 16v428c0 9 7 16 16 16h73c9 0 16 -7 16 -16z" />
    <glyph glyph-name="Eth" unicode="&#xd0;" horiz-adv-x="431" 
d="M39 492v188c0 9 7 16 16 16h177c84 0 164 -58 164 -156v-385c0 -32 -18 -155 -175 -155h-166c-9 0 -16 7 -16 16v310c0 10 -4 15 -15 15h-8c-9 0 -19 7 -19 68s10 68 19 68h11c12 0 12 9 12 15zM193 326v-175c0 -9 7 -16 16 -16h17c9 0 21 11 21 26v374
c0 16 -12 26 -21 26h-17c-9 0 -16 -7 -16 -16l-1 -53c0 -10 4 -15 15 -15h9c9 0 18 -7 18 -66c0 -63 -9 -70 -18 -70h-7c-9 0 -16 -3 -16 -15z" />
    <glyph glyph-name="multiply" unicode="&#xd7;" 
d="M276 335l54 -54c9 -9 10 -23 -17 -50c-28 -28 -42 -27 -51 -18l-53 54c-10 10 -16 10 -28 -2l-49 -48c-10 -10 -23 -13 -48 12c-24 24 -23 39 -13 49l49 48c12 12 12 17 2 27l-52 53c-9 9 -11 24 19 53c25 24 39 24 48 15l54 -54c8 -8 14 -8 26 4l50 49
c10 10 24 12 48 -12c25 -26 23 -39 13 -49l-50 -49c-12 -12 -10 -20 -2 -28z" />
    <glyph glyph-name="Yacute" unicode="&#xdd;" horiz-adv-x="384" 
d="M378 684l-103 -367c-5 -19 -6 -33 -6 -52l3 -251c0 -9 -7 -19 -79 -19s-79 10 -79 19l3 250c0 17 -2 30 -7 49l-104 371c-2 9 7 19 78 19s77 -10 78 -19l24 -239c1 -9 3 -14 8 -14c6 0 7 5 8 14l30 239c1 9 7 19 73 19s75 -10 73 -19zM128 768l30 103c3 11 7 15 67 15
c67 0 74 -10 67 -19l-74 -103c-5 -7 -10 -15 -52 -14c-40 1 -40 10 -38 18z" />
    <glyph glyph-name="Thorn" unicode="&#xde;" horiz-adv-x="419" 
d="M40 14v670c0 9 7 19 78 19c69 0 76 -10 76 -19l-2 -79c0 -12 7 -20 19 -20h10c84 0 173 -54 173 -152v-161c0 -47 -27 -151 -183 -151c-12 0 -19 -8 -19 -20l2 -87c0 -9 -7 -19 -78 -19c-69 0 -76 10 -76 19zM252 274v144c0 25 -14 32 -41 32c-14 0 -16 -7 -16 -16v-173
c0 -11 5 -16 16 -16c25 0 41 10 41 29z" />
    <glyph glyph-name="eth" unicode="&#xf0;" horiz-adv-x="415" 
d="M114 520l5 7c9 12 2 14 -6 15c-17 2 -35 3 -54 5c-18 1 -26 5 -26 68c0 57 3 63 23 63c49 0 98 -4 144 -18c6 -2 18 -7 28 6l14 19c6 7 17 10 53 -18c37 -29 37 -40 32 -46l-7 -9c-10 -13 0 -18 4 -21c47 -36 61 -89 61 -132v-308c0 -104 -81 -161 -175 -161
s-180 49 -180 154v152c0 84 53 132 111 132c21 0 51 -2 75 -22c10 -9 18 -3 18 9c1 33 -1 42 -4 55c-1 8 -7 17 -18 3l-13 -17c-6 -8 -17 -11 -51 15c-38 29 -39 41 -34 49zM179 271v-113c0 -18 6 -33 26 -33c21 0 26 15 26 33v113c0 20 -5 38 -26 38c-25 0 -26 -23 -26 -38
z" />
    <glyph glyph-name="yacute" unicode="&#xfd;" horiz-adv-x="373" 
d="M367 465l-114 -447l-46 -205c-2 -9 -7 -16 -70 -16c-71 0 -73 11 -70 19l61 167c4 12 -2 16 -5 16c-8 0 -11 8 -12 11l-100 455c-1 6 0 17 77 17c67 0 68 -11 69 -17l22 -253c1 -6 2 -14 8 -14s7 8 8 14l30 253c1 6 4 17 74 17s70 -11 68 -17zM123 547l30 103
c3 11 7 15 67 15c67 0 74 -10 67 -19l-74 -103c-5 -7 -10 -15 -52 -14c-40 1 -40 10 -38 18z" />
    <glyph glyph-name="thorn" unicode="&#xfe;" horiz-adv-x="422" 
d="M392 313v-149c0 -67 -14 -109 -37 -135c-21 -24 -58 -39 -93 -39c-29 0 -57 9 -75 30c-4 5 -7 11 -10 11c-4 0 -6 -8 -6 -13l-1 -201c0 -12 -7 -20 -70 -20c-58 0 -65 10 -65 19v868c0 9 7 19 73 19c64 0 71 -10 71 -19l-2 -219c0 -15 3 -17 7 -17c3 0 6 4 10 9
c17 22 43 30 71 30c36 0 70 -15 91 -39c23 -26 36 -68 36 -135zM238 174v132c0 20 -5 40 -26 40c-18 0 -25 -15 -25 -42v-130c0 -27 5 -41 26 -41c18 0 25 14 25 41z" />
    <glyph glyph-name="Lslash" unicode="&#x141;" horiz-adv-x="340" 
d="M192 684v-158c0 -10 2 -15 15 -14l35 3c9 1 17 -6 17 -49c0 -42 -8 -49 -17 -50l-35 -4c-9 0 -15 -4 -15 -16v-245c0 -9 4 -16 16 -16h116c9 0 19 -7 19 -67c0 -61 -10 -68 -19 -68h-270c-9 0 -16 7 -16 16v370c0 10 -4 15 -15 14l-8 -1c-9 -1 -17 7 -17 49
c0 43 8 49 17 50l11 2c12 1 12 10 12 16v168c0 9 7 19 77 19s77 -10 77 -19z" />
    <glyph glyph-name="lslash" unicode="&#x142;" horiz-adv-x="258" 
d="M206 396v-382c0 -9 -7 -19 -77 -19s-77 10 -77 19v372c0 10 -4 15 -15 14l-22 -2c-9 -1 -16 7 -16 49c0 43 7 49 16 50l25 3c12 1 12 10 12 16v168c0 9 7 19 78 19c69 0 76 -10 76 -19v-158c0 -10 2 -15 15 -14l21 2c9 1 17 -6 17 -49c0 -42 -8 -49 -17 -50l-21 -3
c-9 -1 -15 -4 -15 -16z" />
    <glyph glyph-name="Scaron" unicode="&#x160;" horiz-adv-x="420" 
d="M390 179c0 -55 -9 -108 -58 -149c-32 -27 -78 -40 -128 -40s-89 13 -121 40c-34 29 -49 73 -49 124v61c0 9 7 20 72 19c62 -1 69 -9 69 -18v-51c0 -21 7 -40 29 -40s30 24 30 44c0 73 -31 102 -89 150c-56 46 -115 93 -115 199c0 55 7 106 56 147c32 27 78 41 128 41
s89 -13 121 -40c34 -29 49 -73 49 -124v-39c0 -9 -7 -19 -70 -19c-64 0 -71 9 -71 18v29c0 21 -8 41 -30 41c-23 0 -31 -23 -31 -46c0 -52 37 -78 72 -106c60 -47 136 -94 136 -241zM356 866l-89 -107c-9 -11 -10 -15 -59 -15c-47 0 -47 4 -56 15l-89 107c-7 8 -7 19 36 19
c39 0 39 -3 48 -10l50 -38c9 -7 15 -6 24 0l53 39c7 5 9 9 48 9c41 0 41 -11 34 -19z" />
    <glyph glyph-name="scaron" unicode="&#x161;" horiz-adv-x="391" 
d="M366 129c0 -75 -68 -139 -170 -139c-96 0 -171 57 -171 159c0 6 4 19 72 19c66 0 68 -9 68 -16c1 -20 2 -46 28 -46c14 0 24 10 24 29c0 46 -63 55 -94 67c-51 20 -94 55 -94 142s73 143 164 143c85 0 155 -49 163 -148c1 -11 -1 -21 -70 -21c-63 0 -71 4 -72 19
c-1 24 -12 31 -25 31s-21 -10 -21 -26c0 -29 37 -39 89 -60c63 -25 109 -69 109 -153zM342 645l-89 -107c-9 -11 -10 -15 -59 -15c-47 0 -47 4 -56 15l-89 107c-7 8 -7 19 36 19c39 0 39 -3 48 -10l50 -38c9 -7 15 -6 24 0l53 39c7 5 9 9 48 9c41 0 41 -11 34 -19z" />
    <glyph glyph-name="Zcaron" unicode="&#x17d;" horiz-adv-x="354" 
d="M337 70c0 -63 -10 -70 -19 -70h-272c-18 0 -26 8 -26 26v137c0 14 6 22 11 33l148 331c6 13 5 30 -15 30h-118c-9 0 -20 7 -19 72c1 60 10 67 19 67h261c19 0 26 -8 26 -26v-88c0 -13 0 -24 -5 -38c-158 -393 -156 -374 -156 -374c-9 -22 4 -31 19 -31h129
c9 0 17 -7 17 -69zM324 866l-89 -107c-9 -11 -10 -15 -59 -15c-47 0 -47 4 -56 15l-89 107c-7 8 -7 19 36 19c39 0 39 -3 48 -10l50 -38c9 -7 15 -6 24 0l53 39c7 5 9 9 48 9c41 0 41 -11 34 -19z" />
    <glyph glyph-name="zcaron" unicode="&#x17e;" horiz-adv-x="329" 
d="M327 65c0 -58 -10 -65 -19 -65h-286c-9 0 -16 7 -16 16v98c0 11 -4 23 11 41l132 156c20 25 6 41 -12 41h-103c-9 0 -19 7 -19 65c0 53 10 60 19 60h268c9 0 16 -7 16 -16v-108c0 -9 -8 -26 -13 -33l-136 -164c-3 -5 -5 -8 -5 -15c0 -10 6 -14 20 -14h124
c9 0 19 -7 19 -62zM311 645l-89 -107c-9 -11 -10 -15 -59 -15c-47 0 -47 4 -56 15l-89 107c-7 8 -7 19 36 19c39 0 39 -3 48 -10l50 -38c9 -7 15 -6 24 0l53 39c7 5 9 9 48 9c41 0 41 -11 34 -19z" />
    <glyph glyph-name="minus" unicode="&#x2212;" 
d="M354 345c0 -39 -8 -47 -22 -47h-264c-13 0 -22 8 -22 49c0 36 9 46 22 46h264c14 0 22 -10 22 -48z" />
    <glyph glyph-name="filledbox" unicode="&#x25a0;" horiz-adv-x="500" 
d="M475 25h-450v451h450v-451z" />
    <glyph glyph-name="H18533" unicode="&#x25cf;" horiz-adv-x="500" 
d="M25 250c0 125 100 226 225 226c124 0 225 -101 225 -226c0 -124 -101 -225 -225 -225c-125 0 -225 101 -225 225z" />
    <glyph glyph-name="uniE190" unicode="&#xe190;" horiz-adv-x="500" 
d="M226 554v3l269 14l-16 -276h-4l-75 78l-78 -75v-298h-317v405h206l83 80zM60 56h206v188l-67 -66l-108 114l62 57h-93v-293zM199 239l202 194l39 -43l8 137l-130 -8l34 -34l-202 -194z" />
    <glyph glyph-name="uniF100" unicode="&#xf100;" horiz-adv-x="1411" 
d="M1386 316h1l-1 -6h-3l-1 -12h-2v-4c-2 -2 -5 -5 -8 -5v2h-3l-6 -3l-4 -5c-5 1 -11 2 -17 1v-1h-9l-13 -5l-3 -15c-5 -5 -10 -11 -14 -17h-3v-7l-9 -8l-7 -1v-1l-11 -8h-12l-3 -3h-3v-2l-19 3l-2 -3h-2l-3 -4l-5 -17l-4 -3h-1v-2h-6v-1l-6 -6l-2 -6l-10 -2
c-7 -12 -20 -20 -33 -15l-4 4l-6 1l-7 7l-4 1v2l-9 8v6l-13 13v14l-12 -3c-3 -8 -6 -14 -10 -21c-3 -3 -15 -11 -18 -12v-2c-6 -5 -9 -9 -17 -13h-2v-1h-5v1h-8v2h-3v1c-1 -1 -8 2 -10 2l-5 -1l-8 3l-6 5c-1 4 -6 8 -8 12v1c-7 3 -7 12 -7 19l1 1v8h-1v6v0l-5 10l-5 -5l-8 1
l-3 -4c0 -4 -1 -9 -2 -13l-4 -4l-4 -16l-12 -9c-2 -3 -2 -7 -2 -9h-1v-3c-8 -8 -16 -25 -15 -34c-2 -2 -7 -7 -8 -10h-3l-9 -5v-7l-12 -9l-4 3l-3 -6c-4 1 -10 -2 -16 -1v-1h-6l-3 2v-1h-6v1l-13 12h-2v6l-9 8c-7 15 -4 14 -3 28l3 2l1 7l-4 1v8h3v7h1v4l-7 5l-5 -8v-6
l-3 -2l-2 -4h-1v-4h1l-1 -7l-5 -6v-5l-9 -10c0 -16 1 -19 -5 -33h-1c-3 -8 -10 -26 -16 -31v-6h-1c-2 -5 -5 -11 -6 -17l-2 -3v-5c-8 -4 -12 -12 -12 -20c-7 -4 -7 -15 -10 -22l-7 -1l-3 -10c-6 -7 -15 -13 -21 -21c-8 -3 -17 -8 -23 -12v-1c-5 -2 -11 -2 -16 -2l-1 -1
c-9 0 -16 4 -22 12l-4 3c-1 2 -4 6 -5 6l-9 2l-4 4c-2 4 -2 10 -2 14h-1v3c-6 10 -5 20 -5 31h2c-1 6 2 12 1 17h2c-1 7 2 14 3 21c2 11 0 23 0 35h1v4h2l-2 7l2 1c0 3 1 9 2 11v9h1l6 11h1v7h1v5l7 10v9h-2v6h2v10v0c0 2 3 13 2 15h2v2c1 1 3 6 3 8v6h-2
c-5 -8 -13 -16 -13 -26l-4 -3c-3 -8 -9 -21 -15 -26v-8h-2c-6 -8 -9 -13 -8 -22l-4 -9v0h-1c-2 -6 -3 -13 -4 -19v-7h-2v-7l-3 -4l-9 -2c-6 -15 -10 -28 -21 -42v-5l-5 -9c-4 -2 -7 -4 -12 -6h-1v-1l-6 -7v-1h-9l-4 -3c-1 -1 -6 -2 -7 -1v3h-2l-12 -5h4l-11 2l-3 4l-6 1v1
h-3l-3 2l-4 6l-3 2l-3 4l-12 3v10h-2v4h-1l-3 6v8l-5 7v2v0c0 4 -1 8 -2 11h-1v12h1v14h-1v2h1l-4 9c-5 -5 -9 -12 -11 -20c-8 -4 -12 -14 -20 -17c-10 -2 -12 -5 -19 -11h-6v0h-3c-8 3 -13 8 -19 13l-1 5l-1 2v1h-3v9h-1v4h-2v8h-1l-9 10l1 4l-9 9l-8 -2
c-3 -6 -7 -11 -14 -16l-2 -4l-9 -11l-9 3l-8 -4h-1v-1c-2 -1 -7 0 -11 1c-4 5 -9 8 -15 11v1l-7 4c-1 2 -3 13 -3 15h-1v10l-7 10v4h-2c1 2 2 6 2 8l2 6v16l1 1v8h-1v6l-2 2v1h-5l-4 -6c-8 -3 -16 -2 -24 -4h-3l-10 7l-2 5l-9 12h-3l-8 -17h-2l-4 -5l-4 -1v-1l-3 -5v-1
c-7 -4 -14 -12 -19 -18l-11 -3v-1h-9c-3 3 -11 6 -17 6c-1 3 -5 8 -6 9h-3l-5 8v12c-6 5 -12 14 -13 22v8h-1c0 3 0 10 -2 13h-1v5c-4 3 -10 8 -13 12l-5 -5l-11 1v1h-5l-12 -6l-6 4h-7l-7 5v8h-2l-4 5l2 4l-6 7v3l3 4l1 8l7 10v2h2l5 16v0l4 7l5 2h9v2h5v1h1l2 4l10 2l7 10
l2 7l1 1l2 5l10 5v8c5 10 17 19 28 19v2h6v-2h2l1 -1h9v-2h5c3 -1 12 -11 15 -15c2 0 7 0 10 2c3 5 8 9 12 13l2 7l3 1c0 3 3 7 5 8l2 6v0c6 6 10 13 15 19l4 1h7v-1c4 0 18 7 23 9v2h7v-2h7l5 -5h7l4 -6h6l1 -3l11 -9c3 -1 7 -2 11 -3c8 15 16 28 19 46h1v3h2l1 6l3 5l2 3
h1c2 10 9 18 14 27c0 6 7 8 8 14l11 15c14 10 17 19 38 19l10 -5c7 -6 13 -11 20 -14l2 -5l5 -3l4 -5v-8l8 -8v-8h-1v-4h-2l-3 -16h3c4 9 10 19 19 25v2l13 6v2l14 2l4 -1v-1l9 -2l8 -9h2c3 -5 4 -10 3 -16l2 -2v-5h4l5 10h2l7 11c1 8 3 15 3 22l1 1v11h3c1 7 30 58 37 65
c4 10 9 20 12 31h2c0 6 2 12 8 16v1h6l1 3c7 6 15 14 21 22h18v1c4 1 9 0 14 -1l9 -13h6l3 -3l8 -13h1c-1 -14 3 -33 5 -47h1v-2l-3 -5h-1c-3 -10 -10 -36 -10 -43h-1v-4l-3 -6c0 -4 -3 -9 -2 -12h-1c0 -4 -1 -10 -3 -14h-1v-5h-2c0 -18 -11 -34 -11 -52l7 1l9 14v5l7 11v5
c4 7 8 13 14 19c-1 4 1 10 3 14l2 3c7 28 22 51 38 74l5 1l3 6v3h2l4 7l3 2l5 11l2 3c0 4 3 9 6 13h2c-1 2 1 6 1 9c8 7 14 14 19 22c5 0 13 3 15 4v2c5 -1 10 0 14 1v-1h8v1h9c9 -7 23 -10 31 -19v-18v0v-6h2c-1 -7 1 -14 1 -21c0 -10 -1 -20 -1 -30l-2 -4
c-1 -6 -1 -12 -1 -17h-1v-6h-2c0 -8 -1 -23 -10 -30v-4h-1v-10l-2 -3v-7l-3 -2c0 -3 -1 -7 -2 -9v0v-11h-1l1 -9l6 1c0 14 8 28 16 38v8v1h8l2 2l1 5l6 2l7 13l9 2l5 5c7 3 10 14 20 14l5 -3h10v-1c4 -1 8 -2 11 -4c4 -6 7 -12 14 -15c2 -6 3 -15 5 -18l5 -3v-16h1v-9h-1
c-5 -18 -7 -14 -2 -34c-3 -4 -3 -10 -5 -14v-5h2v-9h-2v-7h2l2 -6l5 1c1 6 6 12 8 17c3 4 6 8 10 11l3 6h2c0 4 2 10 2 15h1c0 11 8 15 8 24c2 1 4 1 7 2l2 5c7 6 14 11 25 11v2l5 4h5l3 1h3v1h4c8 1 10 0 17 0c4 0 7 1 10 1l3 -5c3 -1 6 -3 8 -5l1 -7c7 -3 12 -9 14 -16
l6 -4c0 -6 -2 -11 -1 -17l4 -3v-5h2c-1 -4 -2 -10 -2 -15l5 -2v2c3 5 7 12 13 14h6l5 8l2 3h3v1l9 -1v1c3 1 7 3 8 4l1 -1l11 -1c6 -4 10 -8 14 -13l7 -1c2 -2 5 -6 8 -8l1 -5l13 -8l4 -10v-7h1v-12c2 -2 3 -12 3 -14v0v-4v0v-10h-1v-7l12 9l1 5h2v1l3 6l6 1l10 10h4l3 -1h9
v1h9v-1c2 0 5 -1 6 -2l10 -9c3 -6 7 -11 6 -17h2v-7l4 -2l6 -5l2 -6h1l2 -3l6 -2v-1h7c3 -2 8 -8 9 -11l6 -5l2 -7l9 -5c2 -9 -3 -16 0 -22zM1229 398c0 20 -7 31 -24 31s-26 -11 -26 -31c0 -15 5 -32 12 -48c5 -9 11 -15 14 -15c5 0 10 7 17 22c6 14 7 28 7 41zM1229 299
c0 13 -10 24 -24 24s-24 -11 -24 -24s10 -24 24 -24s24 11 24 24zM1174 374c0 8 -7 12 -24 12s-25 -5 -25 -12c0 -6 8 -7 8 -12c0 -1 -1 -6 -4 -13c-3 -6 -4 -9 -8 -9s-5 3 -9 9c-2 7 -4 11 -4 13c0 3 5 4 5 12c0 11 -10 12 -32 12c-27 0 -40 -6 -40 -16c0 -7 4 -8 9 -11
c7 -3 7 -8 10 -14l16 -35c8 -20 14 -33 14 -41c0 -5 -3 -7 -6 -7c-4 0 -1 8 -4 16c-3 6 -10 9 -18 9c-9 0 -19 -9 -19 -21c0 -17 14 -28 36 -28c20 0 33 10 46 32c11 22 16 48 25 73c3 12 8 17 16 20c5 2 8 3 8 11zM1034 299c0 7 -4 13 -8 13s-7 -4 -12 -4
c-9 0 -12 4 -12 12v37c0 6 1 6 7 6h15c9 0 10 1 10 9v7c0 6 0 7 -8 7h-2h-20v9c0 12 0 16 -9 16c-10 0 -24 -10 -46 -25c-10 -7 -11 -7 -11 -14c0 -10 1 -8 16 -9v-50c0 -25 12 -37 37 -37s43 12 43 23zM929 414c0 9 -9 15 -24 15c-22 0 -35 -11 -35 -20c0 -11 6 -15 22 -15
c22 0 37 9 37 20zM940 291c0 5 -3 8 -6 11s-3 4 -3 10v63v7c0 5 -1 7 -8 7c-6 0 -24 -3 -44 -10c-8 -3 -12 -6 -12 -12s5 -8 8 -10c4 -3 4 -8 4 -19v-4c0 -14 0 -24 -1 -28c-1 -2 -3 -4 -4 -5c-4 -3 -5 -5 -5 -10c0 -10 10 -15 36 -15c24 0 35 5 35 15zM860 289
c0 7 -4 9 -6 12s-2 8 -2 17c-1 23 -1 40 -6 52c-6 11 -15 18 -32 18c-10 0 -20 -4 -26 -11c-4 -5 -5 -7 -8 -7c-1 0 -3 2 -3 4v40v2c0 8 0 12 -6 12c-15 0 -31 -3 -44 -10c-8 -3 -13 -7 -13 -12c0 -9 8 -9 12 -12c3 -3 3 -15 3 -38v-16c0 -21 0 -33 -3 -38
c-3 -3 -12 -4 -12 -11c0 -8 15 -15 37 -15c24 0 35 4 35 13c0 6 -6 11 -7 15c-2 5 -2 18 -2 38c0 7 3 11 11 11c9 0 12 -7 12 -21v-12c0 -9 0 -14 -2 -19c-2 -3 -6 -7 -6 -12c0 -9 13 -13 36 -13s32 4 32 13zM716 335c0 34 -17 53 -42 53c-8 0 -16 -2 -23 -8
c-3 -2 -5 -5 -7 -5s-3 3 -3 7c0 5 0 6 -5 6c-9 0 -25 -4 -42 -13c-11 -4 -15 -9 -15 -13s2 -7 4 -9c3 -1 8 -1 11 -4c2 -2 3 -17 3 -41c0 -26 0 -39 -5 -42c-6 -4 -11 -6 -11 -14s13 -14 38 -14c27 0 42 4 42 14c0 8 -3 9 -11 12c-5 3 -6 6 -6 14c0 4 0 6 1 6
c3 0 13 -8 24 -8c14 0 25 6 36 18c8 10 11 24 11 41zM583 299c0 3 -2 6 -7 7c-7 2 -7 4 -7 19v3v24c0 23 -16 37 -48 37c-31 0 -51 -13 -51 -27c0 -8 6 -13 12 -13c8 0 14 3 19 10c4 5 7 11 14 11c6 0 8 -6 8 -18v-11c-6 1 -12 1 -17 1c-26 0 -44 -15 -44 -34s14 -32 37 -32
c9 0 16 2 22 8c2 2 2 3 5 3c1 0 3 -3 9 -7c3 -3 7 -4 13 -4c19 0 35 13 35 23zM464 362c0 16 -11 26 -28 26c-8 0 -15 -4 -19 -10c-1 -3 0 -6 -3 -6s-1 3 -3 10c0 4 -3 6 -9 6c-13 0 -30 -4 -43 -10c-5 -3 -8 -8 -8 -12s3 -8 7 -10s4 -3 4 -8v-3c0 -21 -1 -34 -1 -37
c-1 -2 -3 -3 -5 -4c-2 -3 -7 -5 -7 -12c0 -11 13 -16 40 -16s40 4 40 15c0 7 -6 9 -12 11c-6 4 -6 9 -6 24c0 16 1 24 5 24c1 0 1 -4 4 -8c4 -5 12 -8 18 -8c15 0 26 12 26 28zM342 281c0 18 -9 28 -31 28c-15 0 -26 -3 -35 -3s-15 3 -15 7c0 2 1 5 2 5h17c32 0 53 14 53 37
v7c6 7 9 12 9 20c0 7 -3 12 -8 12c-2 0 -9 -11 -24 -11c-9 0 -19 5 -34 5c-29 0 -50 -16 -50 -36c0 -12 5 -23 17 -28c-14 -5 -21 -11 -21 -20s5 -15 13 -20c-9 -3 -13 -7 -13 -15c0 -16 20 -31 53 -31c41 0 67 19 67 43zM667 326c0 -15 -5 -22 -16 -22c-7 0 -8 3 -8 14
c0 14 1 25 1 31s1 8 7 8c9 0 16 -11 16 -31zM523 320c0 -14 -2 -19 -8 -19s-9 4 -9 12s5 12 12 12c3 0 5 0 5 -5zM291 349c0 -11 -3 -17 -11 -17s-11 9 -11 24c0 10 2 16 8 16c9 0 14 -8 14 -23zM297 267c0 -6 -7 -9 -21 -9c-13 0 -25 7 -25 14c0 1 1 3 2 4
c6 -2 12 -3 19 -3h19c3 0 6 -3 6 -6z" />
    <glyph glyph-name="uniF14B" unicode="&#xf14b;" horiz-adv-x="751" 
d="M627 377h-454c-2 -10 -2 -18 -2 -28s0 -20 1 -29h431l-25 -62h-393c36 -120 149 -207 282 -207c91 0 173 43 226 108v-88c-61 -50 -143 -81 -226 -81c-167 0 -307 112 -348 268h-99l27 62h63c-1 9 -1 19 -1 29s0 19 1 28h-90l27 63h73c42 154 181 266 347 266
c99 0 189 -40 254 -104l-27 -63c-53 64 -136 106 -227 106c-131 0 -244 -88 -282 -205h468z" />
    <glyph glyph-name="uniFFFC" unicode="&#xfffc;" horiz-adv-x="1000" 
d="M986 618v-154h-47v104h-107v50h154zM714 618v-50h-153v50h153zM986 343v-154h-47v154h47zM859 434v-226c0 -77 -33 -114 -100 -114c-25 0 -47 8 -63 23l33 34c9 -6 17 -10 30 -10c30 0 45 20 45 63v230h55zM440 618v-50h-154v50h154zM986 71v-154h-154v48h107v106h47z
M689 198c0 -66 -44 -96 -129 -96h-114v332h111c79 0 118 -28 118 -87c0 -29 -14 -53 -41 -70c37 -12 55 -41 55 -79zM168 618v-50h-106v-104h-48v154h154zM714 -35v-48h-153v48h153zM419 268c0 -110 -54 -174 -151 -174c-95 0 -147 64 -147 174c0 108 52 172 147 172
c97 0 151 -64 151 -172zM62 343v-154h-48v154h48zM440 -35v-48h-154v48h154zM168 -35v-48h-154v154h48v-106h106zM621 342c0 31 -27 47 -79 47h-42v-93h49c47 0 72 15 72 46zM634 198c0 34 -27 52 -81 52h-53v-104h60c49 0 74 16 74 52zM365 268c0 84 -32 128 -97 128
c-61 0 -92 -44 -92 -128c0 -86 31 -127 92 -127c65 0 97 41 97 127z" />
    <glyph glyph-name="uniFFFD" unicode="&#xfffd;" horiz-adv-x="1018" 
d="M470 123h77v23c0 63 15 82 59 120c53 45 114 99 114 178c0 95 -83 176 -208 176c-119 0 -203 -70 -209 -196h81c14 89 61 131 129 131c70 0 125 -58 125 -116c0 -35 -11 -56 -67 -106c-81 -72 -101 -105 -101 -186v-24zM464 -36h90v90h-90v-90zM510 -190l-500 500
l500 500l498 -500z" />
    </font>
</defs>
</svg>
