<?xml version="1.0" standalone="no"?>
<!DOCTYPE svg PUBLIC "-//W3C//DTD SVG 1.1//EN" "http://www.w3.org/Graphics/SVG/1.1/DTD/svg11.dtd" >
<svg xmlns="http://www.w3.org/2000/svg" width="100%" height="100%">
<metadata>
Created by FontXChange 20110222 at Mon Jul 21 09:37:29 2014
 By Creative4
Copyright (c) 2013 by James T. Edmondson. All rights reserved.
</metadata>
<defs>
<font id="MissionGothic-ThinItalic" horiz-adv-x="474" >
  <font-face 
    font-family="MissionGothic"
    font-weight="410"
    font-style="italic"
    font-stretch="normal"
    units-per-em="1000"
    panose-1="2 0 6 3 2 0 0 2 0 3"
    ascent="750"
    descent="-250"
    x-height="516"
    cap-height="700"
    bbox="-126 -260 1368 916"
    underline-thickness="55"
    underline-position="-51"
    stemh="38"
    stemv="40"
    unicode-range="U+000D-FB02"
  />
<missing-glyph horiz-adv-x="500" 
 />
    <glyph glyph-name=".notdef" horiz-adv-x="500" 
 />
    <glyph glyph-name="NUL" horiz-adv-x="1000" 
 />
    <glyph glyph-name="NUL" horiz-adv-x="1000" 
 />
    <glyph glyph-name="Eth" unicode="&#xd0;" horiz-adv-x="505" 
d="M173 0h-152l70 332h-56l8 38h56l70 330h135c139 0 210 -95 210 -241c0 -178 -90 -459 -341 -459zM69 37h111c211 0 294 255 294 422c0 126 -56 204 -171 204h-102l-62 -293h132l-8 -38h-132z" />
    <glyph glyph-name="eth" unicode="&#xf0;" horiz-adv-x="506" 
d="M462 35l-8 -39c-7 0 -6 -1 -18 -1c-69 0 -92 43 -93 101h-2c-28 -53 -77 -106 -151 -106c-97 0 -134 84 -134 182c0 28 3 58 9 87c31 161 110 267 224 267c66 0 105 -38 119 -91h2s6 38 18 96c3 16 5 31 5 45c0 20 -4 37 -10 51l-82 -62l-16 23l80 64
c-27 27 -70 39 -117 39l9 39c57 0 106 -19 137 -54l90 72l20 -29l-91 -69c12 -22 19 -49 19 -80c0 -14 -2 -30 -5 -46l-82 -387c-4 -20 -7 -35 -7 -50c0 -39 20 -53 65 -53c6 0 12 0 19 1zM371 265l18 82c2 12 4 23 4 34c0 60 -39 107 -105 107c-85 0 -151 -77 -183 -235
c-5 -26 -9 -54 -9 -82c0 -74 24 -143 98 -143s139 62 177 237z" />
    <glyph glyph-name="Lslash" unicode="&#x141;" horiz-adv-x="367" 
d="M345 0h-297l57 273l-65 -26l-7 35l81 32l82 386h41l-79 -369l153 61l6 -35l-167 -67l-54 -252h257z" />
    <glyph glyph-name="lslash" unicode="&#x142;" horiz-adv-x="287" 
d="M213 35l-8 -39c-5 0 -10 -1 -14 -1c-76 0 -102 36 -102 91c0 17 3 35 7 55l30 141l-88 -35l-7 35l103 41l87 407h41l-83 -390l130 52l6 -35l-145 -58l-34 -162c-4 -20 -7 -36 -7 -50c0 -39 19 -53 65 -53c6 0 12 0 19 1z" />
    <glyph glyph-name="Scaron" unicode="&#x160;" horiz-adv-x="489" 
d="M78 137l-35 -20c35 -76 115 -127 207 -127c109 0 199 70 199 190c0 114 -85 162 -161 207c-60 36 -115 74 -115 149c0 87 71 136 147 136c75 0 132 -50 154 -107l37 18c-27 68 -94 127 -190 127c-105 0 -188 -69 -188 -175c0 -96 72 -144 142 -187
c68 -41 134 -81 134 -170s-68 -150 -157 -150c-79 0 -146 49 -174 109zM259 889l30 24l27 -35c23 -29 46 -65 46 -65h2s35 34 61 56l57 47l23 -30l-147 -120h-2z" />
    <glyph glyph-name="scaron" unicode="&#x161;" horiz-adv-x="419" 
d="M434 442l-30 -26c-32 42 -89 70 -151 70c-67 0 -121 -33 -121 -95c0 -118 254 -110 254 -258c0 -85 -63 -143 -165 -143c-78 0 -160 31 -199 99l34 22c30 -55 101 -83 165 -83c77 0 125 46 125 103c0 122 -256 107 -254 260c1 80 69 133 162 133c76 0 140 -33 180 -82z
M197 709l30 24l27 -35c23 -29 46 -65 46 -65h2s35 34 61 56l57 47l23 -30l-147 -120h-2z" />
    <glyph glyph-name="Yacute" unicode="&#xdd;" horiz-adv-x="421" 
d="M192 0h-41l45 214l-90 486h40l62 -335c8 -42 17 -103 17 -103h2s29 53 54 95l207 343h47l-298 -487zM437 825l-212 -89l-14 31l208 97z" />
    <glyph glyph-name="yacute" unicode="&#xfd;" horiz-adv-x="412" 
d="M112 -68l36 72l-66 512h41l43 -349c6 -49 11 -114 11 -114h2s25 59 50 110l177 353h45l-301 -595c-42 -82 -91 -131 -162 -131c-35 0 -65 7 -91 19l19 36c22 -11 47 -17 74 -17c58 0 92 44 122 104zM392 665l-212 -89l-14 31l208 97z" />
    <glyph glyph-name="Thorn" unicode="&#xde;" horiz-adv-x="452" 
d="M191 105h-87l-22 -105h-41l149 700h40l-20 -91h88c136 0 178 -103 151 -252c-27 -151 -116 -252 -258 -252zM112 143h87c109 0 182 84 210 214c27 130 -6 214 -119 214h-88z" />
    <glyph glyph-name="thorn" unicode="&#xfe;" horiz-adv-x="501" 
d="M32 -200h-41l201 930h40l-46 -212c-9 -40 -19 -79 -19 -79h2c31 48 76 87 145 87c82 0 132 -53 132 -179c0 -179 -93 -357 -234 -357c-60 0 -107 39 -117 105h-2s-6 -37 -16 -83zM145 325l-29 -131c-17 -78 19 -166 99 -166c114 0 191 165 191 316c0 89 -28 144 -100 144
c-85 0 -142 -79 -161 -163z" />
    <glyph glyph-name="Zcaron" unicode="&#x17d;" horiz-adv-x="455" 
d="M383 0h-398v2l432 596c27 38 50 62 50 62v2h-318l8 38h382v-2l-431 -594c-26 -36 -52 -64 -52 -64v-2h335zM267 889l30 24l27 -35c23 -29 46 -65 46 -65h2s35 34 61 56l57 47l23 -30l-147 -120h-2z" />
    <glyph glyph-name="zcaron" unicode="&#x17e;" horiz-adv-x="416" 
d="M311 0h-334v2l341 415c28 34 53 59 53 59v2h-259l9 38h329v-2l-329 -398c-34 -41 -69 -76 -69 -76v-2h267zM205 709l30 24l27 -35c23 -29 46 -65 46 -65h2s35 34 61 56l57 47l23 -30l-147 -120h-2z" />
    <glyph glyph-name="multiply" unicode="&#xd7;" horiz-adv-x="344" 
d="M305 242l-31 -24l-75 100l-123 -101l-24 30l124 102l-76 102l31 24l75 -101l122 101l24 -30l-123 -102z" />
    <glyph glyph-name="space" unicode=" " horiz-adv-x="260" 
 />
    <glyph glyph-name="exclam" unicode="!" horiz-adv-x="191" 
d="M112 148h-40l117 552h40zM89 16c0 -15 -12 -26 -27 -26s-26 11 -26 26s11 27 26 27s27 -12 27 -27z" />
    <glyph glyph-name="quotedbl" unicode="&#x22;" horiz-adv-x="250" 
d="M150 492h-32l43 208h43zM250 492h-32l43 208h43z" />
    <glyph glyph-name="numbersign" unicode="#" horiz-adv-x="600" 
d="M581 321l-3 -34h-159l-38 -179h-42l38 179h-128l-38 -179h-42l38 179h-147l3 34h151l31 146h-148l3 34h153l35 164h41l-35 -164h129l35 164h41l-35 -164h154l-3 -34h-158l-31 -146h155zM256 321h128l31 146h-128z" />
    <glyph glyph-name="dollar" unicode="$" horiz-adv-x="489" 
d="M190 -2l-31 -98h-38l35 108c-50 22 -91 60 -113 109l35 20c28 -60 95 -109 174 -109c89 0 157 61 157 150s-66 129 -134 170c-70 43 -142 91 -142 187c0 106 83 175 188 175c21 0 41 -4 59 -9l37 112h39l-41 -125c46 -23 79 -63 96 -105l-37 -18c-22 57 -79 107 -154 107
c-76 0 -147 -49 -147 -136c0 -75 55 -113 115 -149c76 -45 161 -93 161 -207c0 -120 -90 -190 -199 -190c-21 0 -41 3 -60 8z" />
    <glyph glyph-name="percent" unicode="%" horiz-adv-x="600" 
d="M96 0l513 700h-42l-513 -700h42zM444 -10c-74 0 -108 57 -108 135c0 96 58 210 159 210c74 0 108 -57 108 -135c0 -96 -58 -210 -159 -210zM447 25c71 0 116 96 116 175c0 58 -22 100 -71 100c-71 0 -116 -96 -116 -175c0 -58 22 -100 71 -100zM174 365
c-74 0 -108 57 -108 135c0 96 58 210 159 210c74 0 108 -57 108 -135c0 -96 -58 -210 -159 -210zM177 400c71 0 116 96 116 175c0 58 -22 100 -71 100c-71 0 -116 -96 -116 -175c0 -58 22 -100 71 -100z" />
    <glyph glyph-name="ampersand" unicode="&#x26;" horiz-adv-x="566" 
d="M508 35l-11 -37c-41 0 -69 38 -80 86h-2c-46 -63 -109 -98 -188 -98c-104 0 -178 77 -178 182c0 143 100 226 220 248v2c-51 25 -80 69 -80 127c0 80 57 165 173 165c62 0 104 -28 130 -62l-31 -27c-16 28 -51 51 -103 51c-86 0 -129 -65 -129 -127
c0 -60 38 -116 112 -116l86 -264h2c39 74 66 173 88 277h41c-25 -119 -60 -235 -114 -321l10 -29c11 -34 28 -54 54 -57zM402 125l-87 267c-124 -4 -225 -87 -225 -221c0 -81 48 -147 138 -147c74 0 130 38 174 101z" />
    <glyph glyph-name="quotesingle" unicode="'" horiz-adv-x="150" 
d="M150 492h-32l43 208h43z" />
    <glyph glyph-name="parenleft" unicode="(" horiz-adv-x="208" 
d="M151 -72l-36 -14c-26 70 -35 144 -35 231c0 230 84 491 216 642l30 -24c-121 -138 -208 -395 -208 -618c0 -75 12 -155 33 -217z" />
    <glyph glyph-name="parenright" unicode=")" horiz-adv-x="208" 
d="M129 783l36 14c26 -70 35 -144 35 -231c0 -230 -84 -491 -216 -642l-30 24c121 138 208 395 208 618c0 75 -12 155 -33 217z" />
    <glyph glyph-name="asterisk" unicode="*" horiz-adv-x="385" 
d="M365 382l-35 -19c-30 55 -59 127 -68 152h-2c-18 -21 -66 -81 -109 -126l-29 28c41 42 98 89 122 108v2c-28 12 -95 37 -150 64l18 36c53 -27 115 -67 142 -82l2 1c1 31 3 102 12 162l39 -6c-8 -59 -26 -128 -33 -159l2 -1c29 7 99 27 160 38l6 -40
c-59 -10 -130 -14 -160 -17l-1 -2c15 -24 55 -85 84 -139z" />
    <glyph glyph-name="plus" unicode="+" horiz-adv-x="372" 
d="M374 330h-141l-31 -146h-40l31 146h-141l8 38h141l31 146h40l-31 -146h141z" />
    <glyph glyph-name="comma" unicode="," horiz-adv-x="160" 
d="M39 -79l-16 18c41 36 43 59 43 59l-1 1c-3 -2 -7 -3 -10 -3c-11 0 -20 9 -20 23c0 15 11 24 26 24c14 0 24 -9 24 -31c0 -30 -19 -65 -46 -91z" />
    <glyph glyph-name="hyphen" unicode="-" horiz-adv-x="288" 
d="M278 370l-8 -38h-198l8 38h198z" />
    <glyph glyph-name="period" unicode="." horiz-adv-x="163" 
d="M80 16c0 -15 -12 -26 -27 -26s-26 11 -26 26s11 27 26 27s27 -12 27 -27z" />
    <glyph glyph-name="slash" unicode="/" horiz-adv-x="291" 
d="M368 760l-331 -820h-44l330 820h45z" />
    <glyph glyph-name="zero" unicode="0" horiz-adv-x="465" 
d="M199 -10c-172 0 -162 218 -131 360c44 206 120 360 263 360c177 0 156 -233 129 -360c-44 -206 -116 -360 -261 -360zM199 27c112 0 181 133 221 323c18 82 57 323 -90 323c-112 0 -182 -133 -222 -323c-18 -85 -59 -323 91 -323z" />
    <glyph glyph-name="one" unicode="1" horiz-adv-x="268" 
d="M129 0h-41l140 662h-68l8 38h109z" />
    <glyph glyph-name="two" unicode="2" horiz-adv-x="463" 
d="M362 0h-365v2l342 355c51 53 107 125 107 198c0 64 -43 117 -120 117c-85 0 -143 -67 -166 -157l-38 10c33 117 103 185 207 185c107 0 157 -73 157 -153s-51 -157 -120 -229l-206 -214c-35 -36 -76 -71 -76 -71v-2h286z" />
    <glyph glyph-name="three" unicode="3" horiz-adv-x="449" 
d="M29 161l42 4c0 -92 56 -137 129 -137c111 0 176 115 176 212c0 77 -40 145 -120 145c-13 0 -26 -1 -40 -3l-24 27l237 253h-266l8 38h341v-2l-266 -281l2 -2h14c111 0 154 -89 154 -175c0 -122 -82 -250 -215 -250c-109 0 -172 82 -172 171z" />
    <glyph glyph-name="four" unicode="4" horiz-adv-x="425" 
d="M274 0h-40l37 174h-248v2l359 524h40l-103 -488h106l-9 -38h-105zM279 212l64 302c11 51 23 99 23 99h-2s-27 -44 -56 -87l-156 -232c-33 -48 -59 -80 -59 -80v-2h186z" />
    <glyph glyph-name="five" unicode="5" horiz-adv-x="463" 
d="M43 161l42 4c0 -92 56 -137 129 -137c111 0 176 115 176 212c0 77 -40 141 -120 141c-48 0 -80 -9 -120 -35l-34 14l103 340h256l-8 -41h-220l-86 -270l2 -1c28 20 68 31 109 31c106 0 158 -89 158 -179c0 -122 -82 -250 -215 -250c-109 0 -172 82 -172 171z" />
    <glyph glyph-name="six" unicode="6" horiz-adv-x="489" 
d="M487 573l-39 -8c-12 64 -45 108 -113 108c-153 0 -208 -239 -232 -368h2c36 69 108 112 178 112c78 0 144 -53 144 -163c0 -114 -60 -264 -208 -264c-178 0 -173 218 -146 360c37 193 110 360 266 360c93 0 134 -60 148 -137zM221 27c110 4 166 125 166 226
c0 73 -34 126 -109 126c-78 0 -183 -63 -183 -182c0 -87 32 -174 126 -170z" />
    <glyph glyph-name="seven" unicode="7" horiz-adv-x="363" 
d="M90 0h-50l350 662h-279l8 38h342z" />
    <glyph glyph-name="eight" unicode="8" horiz-adv-x="468" 
d="M335 385v-2c72 -13 108 -76 108 -141c0 -136 -92 -252 -234 -252c-110 0 -167 79 -167 165c0 116 70 209 179 230v2c-49 22 -78 59 -78 118c0 111 81 205 194 205c95 0 135 -59 135 -127c0 -77 -56 -172 -137 -198zM211 28c113 0 192 94 192 212c0 68 -40 128 -130 128
c-108 0 -191 -91 -191 -209c0 -68 39 -131 129 -131zM285 402c84 0 145 98 145 175c0 52 -28 95 -99 95c-72 0 -148 -63 -148 -169c0 -53 31 -101 102 -101z" />
    <glyph glyph-name="nine" unicode="9" horiz-adv-x="485" 
d="M440 395h-2c-36 -69 -108 -112 -178 -112c-78 0 -144 53 -144 163c0 114 60 264 208 264c178 0 173 -218 146 -360c-37 -193 -110 -360 -266 -360c-93 0 -134 60 -148 137l39 8c12 -64 45 -108 113 -108c153 0 208 239 232 368zM448 503c0 87 -32 174 -126 170
c-110 -4 -166 -125 -166 -226c0 -73 34 -126 109 -126c78 0 183 63 183 182z" />
    <glyph glyph-name="colon" unicode=":" horiz-adv-x="163" 
d="M80 16c0 -15 -12 -26 -27 -26s-26 11 -26 26s11 27 26 27s27 -12 27 -27zM149 343c0 -15 -12 -26 -27 -26s-26 11 -26 26s11 27 26 27s27 -12 27 -27z" />
    <glyph glyph-name="semicolon" unicode=";" horiz-adv-x="160" 
d="M146 343c0 -15 -12 -26 -27 -26s-26 11 -26 26s11 27 26 27s27 -12 27 -27zM32 -79l-16 18c41 36 43 59 43 59l-1 1c-3 -2 -7 -3 -10 -3c-11 0 -20 9 -20 23c0 15 11 24 26 24c14 0 24 -9 24 -31c0 -30 -19 -65 -46 -91z" />
    <glyph glyph-name="less" unicode="&#x3c;" horiz-adv-x="308" 
d="M235 159l-193 195v2l276 194l21 -31l-165 -111c-40 -27 -88 -56 -88 -56v-2s27 -24 76 -71l98 -94z" />
    <glyph glyph-name="equal" unicode="=" horiz-adv-x="344" 
d="M310 269h-242l8 40h242zM336 391h-242l8 40h242z" />
    <glyph glyph-name="greater" unicode="&#x3e;" horiz-adv-x="308" 
d="M145 551l193 -195v-2l-276 -194l-21 31l165 111c40 27 88 56 88 56v2s-27 24 -76 71l-98 94z" />
    <glyph glyph-name="question" unicode="?" horiz-adv-x="393" 
d="M214 133l-37 -15s-11 20 -11 51c0 165 245 235 245 387c0 63 -44 116 -120 116c-85 0 -143 -67 -166 -157l-38 10c33 117 103 185 207 185c100 0 157 -69 157 -150c0 -182 -245 -244 -245 -391c0 -22 8 -36 8 -36zM188 16c0 -15 -12 -26 -27 -26s-26 11 -26 26
s11 27 26 27s27 -12 27 -27z" />
    <glyph glyph-name="at" unicode="@" horiz-adv-x="793" 
d="M570 48l20 -35c-60 -40 -118 -61 -197 -61c-244 0 -342 199 -297 428c39 202 177 368 384 368c199 0 296 -156 296 -327c0 -126 -52 -251 -163 -251c-50 0 -88 34 -88 100h-2c-33 -67 -91 -100 -143 -100c-102 0 -114 108 -96 192c22 102 88 168 172 168
c89 0 134 -73 115 -167l-7 -35c-4 -18 -6 -35 -6 -49c0 -47 21 -71 59 -71c79 0 120 108 120 212c0 149 -79 290 -260 290c-176 0 -305 -141 -343 -335c-39 -199 33 -383 263 -383c79 0 121 22 173 56zM390 208c57 0 121 51 140 152c17 92 -21 132 -76 132
c-61 0 -110 -50 -130 -142c-22 -102 16 -142 66 -142z" />
    <glyph glyph-name="A" unicode="A" horiz-adv-x="480" 
d="M429 0h-40l-19 190h-256l-99 -190h-45l363 700h30zM366 228l-27 287c-5 51 -6 105 -6 105h-2s-25 -59 -47 -101l-150 -291h232z" />
    <glyph glyph-name="B" unicode="B" horiz-adv-x="509" 
d="M222 0h-181l148 700h141c119 0 171 -48 171 -134c0 -100 -61 -171 -156 -189v-2c76 -15 123 -58 123 -154c0 -144 -101 -221 -246 -221zM90 38h140c116 0 198 59 198 185c0 86 -50 133 -131 133h-140zM165 394h100c122 0 196 59 196 168c0 70 -44 100 -139 100h-100z" />
    <glyph glyph-name="C" unicode="C" horiz-adv-x="499" 
d="M421 166l35 -17c-50 -97 -123 -159 -226 -159c-130 0 -176 99 -176 230c0 170 74 490 301 490c115 0 164 -78 174 -187l-39 -3c-9 90 -49 153 -138 153c-191 0 -259 -293 -259 -450c0 -113 38 -196 140 -196c82 0 145 54 188 139z" />
    <glyph glyph-name="D" unicode="D" horiz-adv-x="505" 
d="M173 0h-152l148 700h135c172 0 240 -144 199 -350c-41 -208 -148 -350 -330 -350zM69 37h111c144 0 245 118 283 313c37 190 -15 313 -160 313h-102z" />
    <glyph glyph-name="E" unicode="E" horiz-adv-x="470" 
d="M394 0h-353l148 700h354l-8 -37h-314l-66 -311h273l-8 -38h-273l-58 -276h313z" />
    <glyph glyph-name="F" unicode="F" horiz-adv-x="447" 
d="M404 276h-265l-58 -276h-40l148 700h344l-8 -37h-304l-74 -349h265z" />
    <glyph glyph-name="G" unicode="G" horiz-adv-x="523" 
d="M462 301h-164l8 38h204c-37 -199 -113 -349 -273 -349c-173 0 -205 176 -169 370c37 199 127 350 287 350c112 0 163 -74 174 -179l-40 -5c-10 87 -50 147 -137 147c-129 0 -209 -133 -244 -313c-34 -174 -15 -333 130 -333c119 0 187 114 224 274z" />
    <glyph glyph-name="H" unicode="H" horiz-adv-x="550" 
d="M431 0h-42l64 300h-306l-64 -300h-42l148 700h42l-76 -362h306l76 362h42z" />
    <glyph glyph-name="I" unicode="I" horiz-adv-x="241" 
d="M102 0h-41l148 700h41z" />
    <glyph glyph-name="J" unicode="J" horiz-adv-x="366" 
d="M236 234l98 466h42l-100 -473c-33 -160 -95 -237 -217 -237c-28 0 -47 2 -65 8l8 37c16 -5 34 -7 57 -7c92 0 146 59 177 206z" />
    <glyph glyph-name="K" unicode="K" horiz-adv-x="470" 
d="M419 0h-43l-127 353h-2s-40 -48 -120 -139l-45 -214h-41l148 700h41l-66 -310c-10 -47 -24 -103 -24 -103h2l359 413h53l-277 -315z" />
    <glyph glyph-name="L" unicode="L" horiz-adv-x="377" 
d="M338 0h-297l148 700h41l-141 -662h257z" />
    <glyph glyph-name="M" unicode="M" horiz-adv-x="662" 
d="M533 0h-41l105 498c13 64 31 125 31 125h-2s-36 -57 -80 -117l-197 -270h-16l-78 270c-19 66 -32 117 -32 117h-2s-9 -53 -23 -119l-106 -504h-41l148 700h41l85 -295c11 -37 26 -102 26 -102h2s37 55 65 94l222 303h41z" />
    <glyph glyph-name="N" unicode="N" horiz-adv-x="609" 
d="M451 0h-36l-170 513c-18 53 -33 109 -33 109h-2s-7 -56 -19 -111l-109 -511h-41l148 700h35l171 -514c19 -57 33 -111 33 -111h2s7 54 19 111l109 514h41z" />
    <glyph glyph-name="O" unicode="O" horiz-adv-x="524" 
d="M230 -10c-173 0 -198 176 -162 370c37 199 127 350 287 350c173 0 198 -176 162 -370c-37 -199 -127 -350 -287 -350zM233 27c129 0 209 133 244 313c34 174 16 333 -125 333c-129 0 -209 -133 -244 -313c-34 -174 -16 -333 125 -333z" />
    <glyph glyph-name="P" unicode="P" horiz-adv-x="479" 
d="M82 0h-41l149 700h145c146 0 201 -103 174 -252c-27 -151 -124 -252 -281 -252h-105zM131 234h105c119 0 205 84 233 214c27 130 -19 214 -142 214h-105z" />
    <glyph glyph-name="Q" unicode="Q" horiz-adv-x="524" 
d="M406 -62l-26 -28c-40 37 -59 68 -73 101c-29 -13 -61 -21 -97 -21c-173 0 -198 176 -162 370c37 199 127 350 287 350c173 0 198 -176 162 -370c-26 -138 -77 -252 -158 -310c14 -30 32 -59 67 -92zM241 150l29 22c27 -39 40 -75 53 -107h2c66 52 108 153 132 275
c34 174 16 333 -125 333c-129 0 -209 -133 -244 -313c-34 -174 -16 -333 125 -333c29 0 55 7 80 19c-12 30 -26 63 -52 104z" />
    <glyph glyph-name="R" unicode="R" horiz-adv-x="505" 
d="M421 0h-43l-73 234c-23 -5 -49 -8 -77 -8h-98l-48 -226h-41l149 700h145c120 0 182 -62 182 -167c0 -115 -54 -246 -174 -289zM138 264h98c128 0 240 85 240 263c0 85 -47 135 -149 135h-105z" />
    <glyph glyph-name="S" unicode="S" horiz-adv-x="489" 
d="M43 117l35 20c28 -60 95 -109 174 -109c89 0 157 61 157 150s-66 129 -134 170c-70 43 -142 91 -142 187c0 106 83 175 188 175c96 0 163 -59 190 -127l-37 -18c-22 57 -79 107 -154 107c-76 0 -147 -49 -147 -136c0 -75 55 -113 115 -149c76 -45 161 -93 161 -207
c0 -120 -90 -190 -199 -190c-92 0 -172 51 -207 127z" />
    <glyph glyph-name="T" unicode="T" horiz-adv-x="424" 
d="M191 0h-41l140 662h-173l8 38h387l-8 -38h-173z" />
    <glyph glyph-name="U" unicode="U" horiz-adv-x="536" 
d="M430 228l100 472h41l-101 -478c-35 -165 -114 -232 -222 -232c-100 0 -173 60 -173 175c0 21 3 44 8 69l99 466h41l-100 -473c-5 -23 -7 -44 -7 -63c0 -95 58 -136 134 -136c87 0 150 59 180 200z" />
    <glyph glyph-name="V" unicode="V" 
d="M212 0h-30l-66 700h40l47 -511c4 -47 8 -116 8 -116h2s24 52 51 106l266 521h45z" />
    <glyph glyph-name="W" unicode="W" horiz-adv-x="766" 
d="M530 0h-30l-26 509c-3 57 -2 110 -2 110h-2s-20 -52 -45 -105l-243 -514h-30l-36 700h40l24 -495c3 -54 3 -125 3 -125h2s26 63 52 119l233 501h34l25 -495c3 -55 2 -125 2 -125h2s25 64 50 118l235 502h44z" />
    <glyph glyph-name="X" unicode="X" horiz-adv-x="465" 
d="M385 0h-41l-59 218c-14 50 -24 101 -24 101h-2s-32 -51 -62 -95l-154 -224h-47l240 350l-92 350h41l64 -241c11 -41 19 -79 19 -79h2s22 37 46 72l170 248h47l-241 -350z" />
    <glyph glyph-name="Y" unicode="Y" horiz-adv-x="421" 
d="M192 0h-41l45 214l-90 486h40l62 -335c8 -42 17 -103 17 -103h2s29 53 54 95l207 343h47l-298 -487z" />
    <glyph glyph-name="Z" unicode="Z" horiz-adv-x="455" 
d="M383 0h-398v2l432 596c27 38 50 62 50 62v2h-318l8 38h382v-2l-431 -594c-26 -36 -52 -64 -52 -64v-2h335z" />
    <glyph glyph-name="bracketleft" unicode="[" horiz-adv-x="184" 
d="M177 -120h-158l202 950h158l-8 -38h-118l-186 -874h118z" />
    <glyph glyph-name="backslash" unicode="\" horiz-adv-x="239" 
d="M147 761l58 -822l-39 1l-59 821h40z" />
    <glyph glyph-name="bracketright" unicode="]" horiz-adv-x="184" 
d="M97 830h158l-202 -950h-158l8 38h118l186 874h-118z" />
    <glyph glyph-name="asciicircum" unicode="^" horiz-adv-x="365" 
d="M435 791l-30 -24l-27 35c-23 29 -46 65 -46 65h-2s-35 -34 -61 -56l-57 -47l-23 30l147 120h2z" />
    <glyph glyph-name="underscore" unicode="_" horiz-adv-x="377" 
d="M338 -100l-8 -38h-383l8 38h383z" />
    <glyph glyph-name="grave" unicode="`" horiz-adv-x="239" 
d="M322 736l-212 89l18 39l208 -97z" />
    <glyph glyph-name="a" unicode="a" horiz-adv-x="523" 
d="M463 35l-8 -39s-6 -1 -18 -1c-80 0 -101 48 -96 104h-2c-28 -53 -67 -109 -149 -109c-125 0 -150 140 -125 269c31 161 110 267 224 267c102 0 163 -84 140 -190l-43 -199c-4 -20 -7 -35 -7 -50c0 -39 20 -53 65 -53c6 0 12 0 19 1zM380 299l9 42c17 79 -21 147 -101 147
c-85 0 -151 -77 -183 -235c-19 -94 -13 -225 89 -225c96 0 155 125 186 271z" />
    <glyph glyph-name="b" unicode="b" horiz-adv-x="446" 
d="M66 242l104 488h41l-46 -214c-8 -38 -21 -86 -21 -86h2c30 52 74 96 148 96c82 0 132 -53 132 -179c0 -179 -93 -357 -234 -357c-112 0 -160 91 -126 252zM117 294l-13 -61c-28 -129 10 -205 91 -205c114 0 191 165 191 316c0 89 -28 144 -100 144
c-96 0 -150 -102 -169 -194z" />
    <glyph glyph-name="c" unicode="c" horiz-adv-x="430" 
d="M335 111l31 -23c-38 -58 -91 -98 -160 -98c-105 0 -150 93 -150 205c0 149 80 331 226 331c79 0 123 -53 140 -126l-38 -12c-14 63 -49 100 -105 100c-113 0 -183 -157 -183 -293c0 -103 39 -167 112 -167c53 0 96 33 127 83z" />
    <glyph glyph-name="d" unicode="d" horiz-adv-x="512" 
d="M463 35l-8 -39s-6 -1 -18 -1c-70 0 -99 38 -95 105h-2c-27 -59 -76 -110 -150 -110c-97 0 -134 84 -134 182c0 126 68 354 233 354c70 0 105 -39 119 -93h2s8 50 14 80l46 217h41l-125 -593c-4 -20 -7 -35 -7 -50c0 -39 20 -53 65 -53c6 0 12 0 19 1zM371 262l17 79
c3 13 4 25 4 37c0 62 -37 110 -104 110c-85 0 -151 -77 -183 -235c-5 -26 -9 -54 -9 -82c0 -74 24 -143 98 -143c73 0 140 61 177 234z" />
    <glyph glyph-name="e" unicode="e" 
d="M373 103l29 -27c-47 -51 -106 -86 -175 -86c-109 0 -171 89 -171 215c0 147 85 321 235 321c109 0 160 -93 160 -209c0 -23 -2 -50 -6 -75h-347c-2 -13 -2 -26 -2 -38c0 -118 57 -176 135 -176c59 0 106 34 142 75zM104 280h305c1 12 2 25 2 39c0 106 -47 169 -123 169
c-95 0 -162 -98 -184 -208z" />
    <glyph glyph-name="f" unicode="f" horiz-adv-x="284" 
d="M98 0h-40l101 478h-86l8 38h86l19 91c18 82 60 133 135 133c41 0 69 -16 88 -32l-26 -31c-15 16 -39 25 -62 25c-48 0 -81 -33 -95 -95l-19 -91h114l-8 -38h-114z" />
    <glyph glyph-name="g" unicode="g" horiz-adv-x="461" 
d="M320 10l24 103h-2c-30 -57 -79 -103 -148 -103c-94 0 -134 79 -134 176c0 124 66 340 230 340c67 0 109 -37 121 -94h2c7 47 27 84 27 84h41s-19 -31 -31 -87l-90 -425c-31 -147 -96 -214 -202 -214c-68 0 -120 27 -153 66l30 30c31 -36 75 -58 125 -58
c86 0 136 67 160 182zM385 313l6 28c2 12 4 23 4 37c0 61 -40 110 -108 110c-134 0 -187 -194 -187 -300c0 -75 27 -141 104 -141s137 66 181 266z" />
    <glyph glyph-name="h" unicode="h" horiz-adv-x="510" 
d="M465 35l-8 -39s-7 -1 -18 -1c-70 0 -98 36 -98 91c0 18 3 35 7 55l37 172c20 95 7 175 -83 175c-95 0 -144 -85 -162 -172l-67 -316h-41l155 730h41l-44 -209c-9 -43 -20 -84 -20 -84h2c29 52 73 89 142 89c117 0 140 -106 116 -220l-36 -169c-4 -20 -7 -35 -7 -50
c0 -39 20 -53 65 -53c6 0 12 0 19 1z" />
    <glyph glyph-name="i" unicode="i" horiz-adv-x="244" 
d="M185 35l-8 -39s-8 -1 -14 -1c-76 0 -102 36 -102 91c0 17 3 35 7 55l55 257c17 82 15 117 15 118h41c0 -4 0 -41 -17 -123l-54 -256c-4 -20 -7 -36 -7 -50c0 -39 19 -53 65 -53c6 0 12 0 19 1zM218 646c0 -15 -12 -26 -27 -26s-26 11 -26 26s11 27 26 27s27 -12 27 -27z
" />
    <glyph glyph-name="j" unicode="j" horiz-adv-x="270" 
d="M84 2l109 514h41l-109 -516c-33 -157 -92 -210 -189 -210c-16 0 -39 2 -59 7l8 40c16 -6 35 -8 51 -8c77 0 122 49 148 173zM268 646c0 -15 -12 -26 -27 -26s-26 11 -26 26s11 27 26 27s27 -12 27 -27z" />
    <glyph glyph-name="k" unicode="k" horiz-adv-x="434" 
d="M385 40l-9 -40s-16 -4 -38 -4c-58 0 -88 32 -110 71c-35 62 -50 149 -111 147l-2 -1s-5 -35 -14 -77l-29 -136h-40l155 730h40l-45 -210c-9 -42 -20 -86 -20 -86h2c29 53 73 92 140 92c78 0 112 -54 112 -110c0 -93 -92 -199 -230 -203l-1 -2c15 -6 26 -20 35 -34
c33 -55 47 -143 118 -143c22 0 33 3 47 6zM137 305l-13 -59c14 -1 28 -1 41 -1c145 0 210 96 210 168c0 45 -30 75 -84 75c-85 0 -132 -83 -154 -183z" />
    <glyph glyph-name="l" unicode="l" horiz-adv-x="269" 
d="M195 35l-8 -39s-6 -1 -14 -1c-76 0 -102 36 -102 91c0 17 3 35 7 55l125 589h41l-126 -593c-4 -20 -7 -36 -7 -50c0 -39 19 -53 65 -53c6 0 12 0 19 1z" />
    <glyph glyph-name="m" unicode="m" horiz-adv-x="752" 
d="M707 35l-8 -39s-6 -1 -18 -1c-70 0 -98 36 -98 91c0 18 3 35 7 55l42 194c5 22 7 44 7 61c0 56 -23 92 -79 92c-86 0 -137 -83 -156 -172l-67 -316h-41l72 335c5 22 7 44 7 61c0 56 -23 92 -78 92c-94 0 -143 -103 -162 -194l-62 -294h-41l85 398c13 62 15 97 15 111v7
h41c0 -6 -3 -38 -11 -84h2c27 53 68 94 137 94c74 0 110 -50 111 -122h2c27 64 74 122 151 122c80 0 114 -52 114 -128c0 -22 -3 -45 -8 -70l-41 -191c-4 -20 -7 -35 -7 -50c0 -39 20 -53 65 -53c6 0 12 0 19 1z" />
    <glyph glyph-name="n" unicode="n" horiz-adv-x="510" 
d="M465 35l-8 -39s-6 -1 -18 -1c-70 0 -98 36 -98 91c0 18 3 35 7 55l37 172c5 24 8 48 8 69c0 62 -24 106 -91 106c-103 0 -147 -101 -167 -194l-62 -294h-41l85 398c13 62 15 97 15 111v7h41s-2 -45 -12 -83h2c28 52 74 93 145 93c90 0 124 -63 124 -144
c0 -24 -3 -50 -8 -76l-36 -169c-4 -20 -7 -35 -7 -50c0 -39 20 -53 65 -53c6 0 12 0 19 1z" />
    <glyph glyph-name="o" unicode="o" 
d="M216 -10c-108 0 -160 93 -160 208c0 158 85 328 236 328c107 0 159 -93 159 -208c0 -158 -85 -328 -235 -328zM218 28c117 0 193 143 193 290c0 107 -47 170 -122 170c-117 0 -193 -143 -193 -290c0 -107 47 -170 122 -170z" />
    <glyph glyph-name="p" unicode="p" horiz-adv-x="472" 
d="M35 -200h-41l128 598c18 83 15 118 15 118h41s0 -40 -12 -87h2c30 50 77 97 149 97c82 0 132 -53 132 -179c0 -179 -93 -357 -234 -357c-61 0 -105 41 -117 106h-2s-6 -38 -15 -80zM140 294l-21 -100c-18 -84 22 -166 99 -166c114 0 191 165 191 316
c0 89 -28 144 -100 144c-96 0 -150 -102 -169 -194z" />
    <glyph glyph-name="q" unicode="q" horiz-adv-x="457" 
d="M313 -200h-41l66 310h-2c-30 -53 -77 -100 -146 -100c-94 0 -134 79 -134 176c0 124 66 340 230 340c67 0 107 -39 121 -93h2c8 46 27 83 27 83h41s-19 -31 -31 -87zM381 309l6 32c2 12 4 23 4 37c0 61 -40 110 -108 110c-134 0 -187 -194 -187 -300
c0 -75 27 -141 104 -141c117 0 163 167 181 262z" />
    <glyph glyph-name="r" unicode="r" horiz-adv-x="293" 
d="M73 0h-41l85 398c13 62 15 97 15 111v7h41s0 -35 -11 -81h2c27 51 73 91 144 91c13 0 25 -2 36 -4l-9 -40c-11 3 -22 4 -34 4c-103 0 -146 -99 -166 -192z" />
    <glyph glyph-name="s" unicode="s" horiz-adv-x="420" 
d="M434 442l-30 -26c-32 42 -89 70 -151 70c-67 0 -121 -33 -121 -95c0 -118 254 -110 254 -258c0 -85 -63 -143 -165 -143c-78 0 -160 31 -199 99l34 22c30 -55 101 -83 165 -83c77 0 125 46 125 103c0 122 -256 107 -254 260c1 80 69 133 162 133c76 0 140 -33 180 -82z
" />
    <glyph glyph-name="t" unicode="t" horiz-adv-x="301" 
d="M245 39l11 -39c-19 -7 -42 -11 -65 -11c-79 0 -119 49 -119 118c0 19 3 37 7 57l66 314h-73l9 38h72l25 114h40l-24 -114h118l-9 -38h-117l-67 -318c-4 -17 -6 -32 -6 -47c0 -54 24 -86 78 -86c19 0 36 4 54 12z" />
    <glyph glyph-name="u" unicode="u" horiz-adv-x="523" 
d="M481 36l-8 -39h-14c-87 0 -99 44 -99 95h-2c-28 -52 -67 -102 -142 -102c-94 0 -134 59 -134 141c0 20 3 43 8 66l68 319h41l-70 -326c-4 -19 -6 -37 -6 -55c0 -59 26 -107 99 -107c94 0 140 103 159 194l62 294h40l-79 -378c-4 -20 -7 -36 -7 -50c0 -39 19 -53 65 -53
c6 0 12 0 19 1z" />
    <glyph glyph-name="v" unicode="v" horiz-adv-x="398" 
d="M168 0h-36l-67 516h41l43 -346c6 -45 10 -110 10 -110h2s23 56 49 107l177 349h45z" />
    <glyph glyph-name="w" unicode="w" horiz-adv-x="664" 
d="M446 0h-36l-34 338c-6 64 -7 113 -7 113h-3s-19 -47 -48 -108l-164 -343h-36l-53 516h41l31 -335c5 -52 8 -120 8 -120h2s27 64 52 117l161 338h37l31 -335c5 -53 8 -120 8 -120h2s27 62 53 117l162 338h45z" />
    <glyph glyph-name="x" unicode="x" horiz-adv-x="414" 
d="M348 0h-43l-51 146c-16 45 -28 91 -28 91h-2s-29 -45 -59 -86l-112 -151h-50l197 264l-88 252h43l45 -132c14 -42 31 -98 31 -98h2s36 51 71 96l103 134h50l-200 -258z" />
    <glyph glyph-name="y" unicode="y" horiz-adv-x="394" 
d="M89 -68l36 72l-66 512h41l43 -349c6 -49 11 -114 11 -114h2s25 59 50 110l177 353h45l-301 -595c-42 -82 -91 -131 -162 -131c-35 0 -65 7 -91 19l19 36c22 -11 47 -17 74 -17c58 0 92 44 122 104z" />
    <glyph glyph-name="z" unicode="z" horiz-adv-x="416" 
d="M324 0h-334v2l341 415c28 34 53 59 53 59v2h-259l9 38h329v-2l-329 -398c-34 -41 -69 -76 -69 -76v-2h267z" />
    <glyph glyph-name="braceleft" unicode="{" horiz-adv-x="253" 
d="M158 -90l-8 -39c-80 0 -137 36 -137 105c0 131 146 212 146 308c0 41 -33 50 -72 50l8 36c48 0 102 18 102 99c0 58 -40 108 -40 181c0 118 84 183 197 183l-8 -39c-74 0 -152 -38 -152 -144c0 -68 41 -115 41 -179c0 -66 -43 -109 -97 -120v-2c34 -10 58 -34 58 -67
c0 -105 -145 -197 -145 -301c0 -57 48 -71 107 -71z" />
    <glyph glyph-name="bar" unicode="|" horiz-adv-x="217" 
d="M265 800l-192 -900h-41l192 900h41z" />
    <glyph glyph-name="braceright" unicode="}" horiz-adv-x="253" 
d="M165 794l8 39c80 0 137 -36 137 -105c0 -131 -146 -212 -146 -308c0 -41 33 -50 72 -50l-8 -36c-48 0 -102 -18 -102 -99c0 -58 40 -108 40 -181c0 -118 -84 -183 -197 -183l8 39c74 0 152 38 152 144c0 68 -41 115 -41 179c0 66 43 109 97 120v2c-34 10 -58 34 -58 67
c0 105 145 197 145 301c0 57 -48 71 -107 71z" />
    <glyph glyph-name="asciitilde" unicode="~" horiz-adv-x="417" 
d="M370 445l38 -5c-15 -67 -39 -108 -104 -108c-67 0 -95 77 -143 77c-43 0 -57 -42 -64 -75l-38 5c14 67 43 108 103 108c67 0 94 -78 142 -78c44 0 59 43 66 76z" />
    <glyph glyph-name="Adieresis" unicode="&#xc4;" horiz-adv-x="480" 
d="M429 0h-40l-19 190h-256l-99 -190h-45l363 700h30zM366 228l-27 287c-5 51 -6 105 -6 105h-2s-25 -59 -47 -101l-150 -291h232zM320 814c0 -15 -12 -26 -27 -26s-26 11 -26 26s11 27 26 27s27 -12 27 -27zM460 814c0 -15 -12 -26 -27 -26s-26 11 -26 26s11 27 26 27
s27 -12 27 -27z" />
    <glyph glyph-name="Aring" unicode="&#xc5;" horiz-adv-x="480" 
d="M429 0h-40l-19 190h-256l-99 -190h-45l363 700h30zM366 228l-27 287c-5 51 -6 105 -6 105h-2s-25 -59 -47 -101l-150 -291h232zM445 849c0 -36 -25 -74 -77 -74c-44 0 -65 29 -65 60c0 37 26 76 78 76c43 0 64 -30 64 -62zM370 805c28 0 43 21 43 43c0 17 -11 33 -34 33
c-28 0 -44 -21 -44 -44c0 -17 11 -32 35 -32z" />
    <glyph glyph-name="Ccedilla" unicode="&#xc7;" horiz-adv-x="499" 
d="M103 -201l33 23c9 -23 31 -43 63 -43c44 0 73 30 73 67c0 26 -17 44 -49 44c-30 0 -59 -17 -68 -26l-30 20l50 113c-88 25 -121 112 -121 223c0 170 74 490 301 490c115 0 164 -78 174 -187l-39 -3c-9 90 -49 153 -138 153c-191 0 -259 -293 -259 -450
c0 -113 38 -196 140 -196c82 0 145 54 188 139l35 -17c-50 -97 -123 -159 -226 -159c-7 0 -15 0 -21 1l-37 -82l2 -1c15 10 32 18 58 18c51 0 82 -35 82 -78c0 -54 -39 -108 -114 -108c-45 0 -85 26 -97 59z" />
    <glyph glyph-name="Eacute" unicode="&#xc9;" horiz-adv-x="470" 
d="M394 0h-353l148 700h354l-8 -37h-314l-66 -311h273l-8 -38h-273l-58 -276h313zM490 825l-212 -89l-14 31l208 97z" />
    <glyph glyph-name="Ntilde" unicode="&#xd1;" horiz-adv-x="609" 
d="M451 0h-36l-170 513c-18 53 -33 109 -33 109h-2s-7 -56 -19 -111l-109 -511h-41l148 700h35l171 -514c19 -57 33 -111 33 -111h2s7 54 19 111l109 514h41zM552 885l38 -5c-15 -67 -39 -108 -104 -108c-67 0 -95 77 -143 77c-43 0 -57 -42 -64 -75l-38 5
c14 67 43 108 103 108c67 0 94 -78 142 -78c44 0 59 43 66 76z" />
    <glyph glyph-name="Odieresis" unicode="&#xd6;" horiz-adv-x="524" 
d="M230 -10c-173 0 -198 176 -162 370c37 199 127 350 287 350c173 0 198 -176 162 -370c-37 -199 -127 -350 -287 -350zM233 27c129 0 209 133 244 313c34 174 16 333 -125 333c-129 0 -209 -133 -244 -313c-34 -174 -16 -333 125 -333zM342 814c0 -15 -12 -26 -27 -26
s-26 11 -26 26s11 27 26 27s27 -12 27 -27zM482 814c0 -15 -12 -26 -27 -26s-26 11 -26 26s11 27 26 27s27 -12 27 -27z" />
    <glyph glyph-name="Udieresis" unicode="&#xdc;" horiz-adv-x="536" 
d="M430 228l100 472h41l-101 -478c-35 -165 -114 -232 -222 -232c-100 0 -173 60 -173 175c0 21 3 44 8 69l99 466h41l-100 -473c-5 -23 -7 -44 -7 -63c0 -95 58 -136 134 -136c87 0 150 59 180 200zM345 814c0 -15 -12 -26 -27 -26s-26 11 -26 26s11 27 26 27
s27 -12 27 -27zM485 814c0 -15 -12 -26 -27 -26s-26 11 -26 26s11 27 26 27s27 -12 27 -27z" />
    <glyph glyph-name="aacute" unicode="&#xe1;" horiz-adv-x="508" 
d="M463 35l-8 -39s-6 -1 -18 -1c-80 0 -101 48 -96 104h-2c-28 -53 -67 -109 -149 -109c-125 0 -150 140 -125 269c31 161 110 267 224 267c102 0 163 -84 140 -190l-43 -199c-4 -20 -7 -35 -7 -50c0 -39 20 -53 65 -53c6 0 12 0 19 1zM380 299l9 42c17 79 -21 147 -101 147
c-85 0 -151 -77 -183 -235c-19 -94 -13 -225 89 -225c96 0 155 125 186 271zM425 665l-212 -89l-14 31l208 97z" />
    <glyph glyph-name="agrave" unicode="&#xe0;" horiz-adv-x="508" 
d="M463 35l-8 -39s-6 -1 -18 -1c-80 0 -101 48 -96 104h-2c-28 -53 -67 -109 -149 -109c-125 0 -150 140 -125 269c31 161 110 267 224 267c102 0 163 -84 140 -190l-43 -199c-4 -20 -7 -35 -7 -50c0 -39 20 -53 65 -53c6 0 12 0 19 1zM380 299l9 42c17 79 -21 147 -101 147
c-85 0 -151 -77 -183 -235c-19 -94 -13 -225 89 -225c96 0 155 125 186 271zM422 576l-212 89l18 39l208 -97z" />
    <glyph glyph-name="acircumflex" unicode="&#xe2;" horiz-adv-x="508" 
d="M463 35l-8 -39s-6 -1 -18 -1c-80 0 -101 48 -96 104h-2c-28 -53 -67 -109 -149 -109c-125 0 -150 140 -125 269c31 161 110 267 224 267c102 0 163 -84 140 -190l-43 -199c-4 -20 -7 -35 -7 -50c0 -39 20 -53 65 -53c6 0 12 0 19 1zM380 299l9 42c17 79 -21 147 -101 147
c-85 0 -151 -77 -183 -235c-19 -94 -13 -225 89 -225c96 0 155 125 186 271zM435 613l-30 -24l-27 35c-23 29 -46 65 -46 65h-2s-35 -34 -61 -56l-57 -47l-23 30l147 120h2z" />
    <glyph glyph-name="adieresis" unicode="&#xe4;" horiz-adv-x="508" 
d="M463 35l-8 -39s-6 -1 -18 -1c-80 0 -101 48 -96 104h-2c-28 -53 -67 -109 -149 -109c-125 0 -150 140 -125 269c31 161 110 267 224 267c102 0 163 -84 140 -190l-43 -199c-4 -20 -7 -35 -7 -50c0 -39 20 -53 65 -53c6 0 12 0 19 1zM380 299l9 42c17 79 -21 147 -101 147
c-85 0 -151 -77 -183 -235c-19 -94 -13 -225 89 -225c96 0 155 125 186 271zM271 632c0 -15 -12 -26 -27 -26s-26 11 -26 26s11 27 26 27s27 -12 27 -27zM411 632c0 -15 -12 -26 -27 -26s-26 11 -26 26s11 27 26 27s27 -12 27 -27z" />
    <glyph glyph-name="atilde" unicode="&#xe3;" horiz-adv-x="507" 
d="M463 35l-8 -39s-6 -1 -18 -1c-80 0 -101 48 -96 104h-2c-28 -53 -67 -109 -149 -109c-125 0 -150 140 -125 269c31 161 110 267 224 267c102 0 163 -84 140 -190l-43 -199c-4 -20 -7 -35 -7 -50c0 -39 20 -53 65 -53c6 0 12 0 19 1zM380 299l9 42c17 79 -21 147 -101 147
c-85 0 -151 -77 -183 -235c-19 -94 -13 -225 89 -225c96 0 155 125 186 271zM466 719l38 -5c-15 -67 -39 -108 -104 -108c-67 0 -95 77 -143 77c-43 0 -57 -42 -64 -75l-38 5c14 67 43 108 103 108c67 0 94 -78 142 -78c44 0 59 43 66 76z" />
    <glyph glyph-name="aring" unicode="&#xe5;" horiz-adv-x="508" 
d="M463 35l-8 -39s-6 -1 -18 -1c-80 0 -101 48 -96 104h-2c-28 -53 -67 -109 -149 -109c-125 0 -150 140 -125 269c31 161 110 267 224 267c102 0 163 -84 140 -190l-43 -199c-4 -20 -7 -35 -7 -50c0 -39 20 -53 65 -53c6 0 12 0 19 1zM380 299l9 42c17 79 -21 147 -101 147
c-85 0 -151 -77 -183 -235c-19 -94 -13 -225 89 -225c96 0 155 125 186 271zM388 649c0 -36 -25 -74 -77 -74c-44 0 -65 29 -65 60c0 37 26 76 78 76c43 0 64 -30 64 -62zM313 605c28 0 43 21 43 43c0 17 -11 33 -34 33c-28 0 -44 -21 -44 -44c0 -17 11 -32 35 -32z" />
    <glyph glyph-name="ccedilla" unicode="&#xe7;" horiz-adv-x="430" 
d="M76 -201l33 23c9 -23 31 -43 63 -43c44 0 73 30 73 67c0 26 -17 44 -49 44c-30 0 -59 -17 -68 -26l-30 20l51 116c-65 28 -93 105 -93 195c0 149 80 331 226 331c79 0 123 -53 140 -126l-38 -12c-14 63 -49 100 -105 100c-113 0 -183 -157 -183 -293
c0 -103 39 -167 112 -167c53 0 96 33 127 83l31 -23c-38 -58 -91 -98 -160 -98c-8 0 -16 1 -24 2l-37 -83l2 -1c15 10 32 18 58 18c51 0 82 -35 82 -78c0 -54 -39 -108 -114 -108c-45 0 -85 26 -97 59z" />
    <glyph glyph-name="eacute" unicode="&#xe9;" 
d="M373 103l29 -27c-47 -51 -106 -86 -175 -86c-109 0 -171 89 -171 215c0 147 85 321 235 321c109 0 160 -93 160 -209c0 -23 -2 -50 -6 -75h-347c-2 -13 -2 -26 -2 -38c0 -118 57 -176 135 -176c59 0 106 34 142 75zM104 280h305c1 12 2 25 2 39c0 106 -47 169 -123 169
c-95 0 -162 -98 -184 -208zM418 665l-212 -89l-14 31l208 97z" />
    <glyph glyph-name="egrave" unicode="&#xe8;" 
d="M373 103l29 -27c-47 -51 -106 -86 -175 -86c-109 0 -171 89 -171 215c0 147 85 321 235 321c109 0 160 -93 160 -209c0 -23 -2 -50 -6 -75h-347c-2 -13 -2 -26 -2 -38c0 -118 57 -176 135 -176c59 0 106 34 142 75zM104 280h305c1 12 2 25 2 39c0 106 -47 169 -123 169
c-95 0 -162 -98 -184 -208zM422 576l-212 89l18 39l208 -97z" />
    <glyph glyph-name="ecircumflex" unicode="&#xea;" 
d="M373 103l29 -27c-47 -51 -106 -86 -175 -86c-109 0 -171 89 -171 215c0 147 85 321 235 321c109 0 160 -93 160 -209c0 -23 -2 -50 -6 -75h-347c-2 -13 -2 -26 -2 -38c0 -118 57 -176 135 -176c59 0 106 34 142 75zM104 280h305c1 12 2 25 2 39c0 106 -47 169 -123 169
c-95 0 -162 -98 -184 -208zM435 613l-30 -24l-27 35c-23 29 -46 65 -46 65h-2s-35 -34 -61 -56l-57 -47l-23 30l147 120h2z" />
    <glyph glyph-name="edieresis" unicode="&#xeb;" 
d="M373 103l29 -27c-47 -51 -106 -86 -175 -86c-109 0 -171 89 -171 215c0 147 85 321 235 321c109 0 160 -93 160 -209c0 -23 -2 -50 -6 -75h-347c-2 -13 -2 -26 -2 -38c0 -118 57 -176 135 -176c59 0 106 34 142 75zM104 280h305c1 12 2 25 2 39c0 106 -47 169 -123 169
c-95 0 -162 -98 -184 -208zM269 632c0 -15 -12 -26 -27 -26s-26 11 -26 26s11 27 26 27s27 -12 27 -27zM409 632c0 -15 -12 -26 -27 -26s-26 11 -26 26s11 27 26 27s27 -12 27 -27z" />
    <glyph glyph-name="iacute" unicode="&#xed;" horiz-adv-x="261" 
d="M251 653l-100 -82l-22 25l93 89zM185 35l-8 -39c-5 0 -10 -1 -14 -1c-76 0 -102 36 -102 91c0 17 3 35 7 55l55 257c13 62 15 97 15 111v7h41c0 -4 0 -41 -17 -123l-54 -256c-4 -20 -7 -36 -7 -50c0 -39 19 -53 65 -53c6 0 12 0 19 1z" />
    <glyph glyph-name="igrave" unicode="&#xec;" horiz-adv-x="261" 
d="M216 572l-100 82l29 32l93 -89zM185 35l-8 -39c-5 0 -10 -1 -14 -1c-76 0 -102 36 -102 91c0 17 3 35 7 55l55 257c13 62 15 97 15 111v7h41c0 -4 0 -41 -17 -123l-54 -256c-4 -20 -7 -36 -7 -50c0 -39 19 -53 65 -53c6 0 12 0 19 1z" />
    <glyph glyph-name="icircumflex" unicode="&#xee;" horiz-adv-x="261" 
d="M185 35l-8 -39c-5 0 -10 -1 -14 -1c-76 0 -102 36 -102 91c0 17 3 35 7 55l55 257c13 62 15 97 15 111v7h41c0 -4 0 -41 -17 -123l-54 -256c-4 -20 -7 -36 -7 -50c0 -39 19 -53 65 -53c6 0 12 0 19 1zM301 613l-30 -24l-27 35c-23 29 -46 65 -46 65h-2s-35 -34 -61 -56
l-57 -47l-23 30l147 120h2z" />
    <glyph glyph-name="idieresis" unicode="&#xef;" horiz-adv-x="261" 
d="M167 646c0 -15 -12 -26 -27 -26s-26 11 -26 26s11 27 26 27s27 -12 27 -27zM247 646c0 -15 -12 -26 -27 -26s-26 11 -26 26s11 27 26 27s27 -12 27 -27zM185 35l-8 -39c-5 0 -10 -1 -14 -1c-76 0 -102 36 -102 91c0 17 3 35 7 55l55 257c13 62 15 97 15 111v7h41
c0 -4 0 -41 -17 -123l-54 -256c-4 -20 -7 -36 -7 -50c0 -39 19 -53 65 -53c6 0 12 0 19 1z" />
    <glyph glyph-name="ntilde" unicode="&#xf1;" horiz-adv-x="511" 
d="M465 35l-8 -39s-6 -1 -18 -1c-70 0 -98 36 -98 91c0 18 3 35 7 55l37 172c5 24 8 48 8 69c0 62 -24 106 -91 106c-103 0 -147 -101 -167 -194l-62 -294h-41l85 398c13 62 15 97 15 111v7h41s-2 -45 -12 -83h2c28 52 74 93 145 93c90 0 124 -63 124 -144
c0 -24 -3 -50 -8 -76l-36 -169c-4 -20 -7 -35 -7 -50c0 -39 20 -53 65 -53c6 0 12 0 19 1zM459 719l38 -5c-15 -67 -39 -108 -104 -108c-67 0 -95 77 -143 77c-43 0 -57 -42 -64 -75l-38 5c14 67 43 108 103 108c67 0 94 -78 142 -78c44 0 59 43 66 76z" />
    <glyph glyph-name="oacute" unicode="&#xf3;" 
d="M216 -10c-108 0 -160 93 -160 208c0 158 85 328 236 328c107 0 159 -93 159 -208c0 -158 -85 -328 -235 -328zM218 28c117 0 193 143 193 290c0 107 -47 170 -122 170c-117 0 -193 -143 -193 -290c0 -107 47 -170 122 -170zM421 665l-212 -89l-14 31l208 97z" />
    <glyph glyph-name="ograve" unicode="&#xf2;" 
d="M216 -10c-108 0 -160 93 -160 208c0 158 85 328 236 328c107 0 159 -93 159 -208c0 -158 -85 -328 -235 -328zM218 28c117 0 193 143 193 290c0 107 -47 170 -122 170c-117 0 -193 -143 -193 -290c0 -107 47 -170 122 -170zM412 576l-212 89l18 39l208 -97z" />
    <glyph glyph-name="ocircumflex" unicode="&#xf4;" 
d="M216 -10c-108 0 -160 93 -160 208c0 158 85 328 236 328c107 0 159 -93 159 -208c0 -158 -85 -328 -235 -328zM218 28c117 0 193 143 193 290c0 107 -47 170 -122 170c-117 0 -193 -143 -193 -290c0 -107 47 -170 122 -170zM428 613l-30 -24l-27 35c-23 29 -46 65 -46 65
h-2s-35 -34 -61 -56l-57 -47l-23 30l147 120h2z" />
    <glyph glyph-name="odieresis" unicode="&#xf6;" 
d="M216 -10c-108 0 -160 93 -160 208c0 158 85 328 236 328c107 0 159 -93 159 -208c0 -158 -85 -328 -235 -328zM218 28c117 0 193 143 193 290c0 107 -47 170 -122 170c-117 0 -193 -143 -193 -290c0 -107 47 -170 122 -170zM260 654c0 -15 -12 -26 -27 -26s-26 11 -26 26
s11 27 26 27s27 -12 27 -27zM400 654c0 -15 -12 -26 -27 -26s-26 11 -26 26s11 27 26 27s27 -12 27 -27z" />
    <glyph glyph-name="otilde" unicode="&#xf5;" 
d="M216 -10c-108 0 -160 93 -160 208c0 158 85 328 236 328c107 0 159 -93 159 -208c0 -158 -85 -328 -235 -328zM218 28c117 0 193 143 193 290c0 107 -47 170 -122 170c-117 0 -193 -143 -193 -290c0 -107 47 -170 122 -170zM453 720l38 -5c-15 -67 -39 -108 -104 -108
c-67 0 -95 77 -143 77c-43 0 -57 -42 -64 -75l-38 5c14 67 43 108 103 108c67 0 94 -78 142 -78c44 0 59 43 66 76z" />
    <glyph glyph-name="uacute" unicode="&#xfa;" horiz-adv-x="523" 
d="M481 36l-8 -39h-14c-87 0 -99 44 -99 95h-2c-28 -52 -67 -102 -142 -102c-94 0 -134 59 -134 141c0 20 3 43 8 66l68 319h41l-70 -326c-4 -19 -6 -37 -6 -55c0 -59 26 -107 99 -107c94 0 140 103 159 194l62 294h40l-79 -378c-4 -20 -7 -36 -7 -50c0 -39 19 -53 65 -53
c6 0 12 0 19 1zM442 665l-212 -89l-14 31l208 97z" />
    <glyph glyph-name="ugrave" unicode="&#xf9;" horiz-adv-x="523" 
d="M481 36l-8 -39h-14c-87 0 -99 44 -99 95h-2c-28 -52 -67 -102 -142 -102c-94 0 -134 59 -134 141c0 20 3 43 8 66l68 319h41l-70 -326c-4 -19 -6 -37 -6 -55c0 -59 26 -107 99 -107c94 0 140 103 159 194l62 294h40l-79 -378c-4 -20 -7 -36 -7 -50c0 -39 19 -53 65 -53
c6 0 12 0 19 1zM432 576l-212 89l18 39l208 -97z" />
    <glyph glyph-name="ucircumflex" unicode="&#xfb;" horiz-adv-x="523" 
d="M481 36l-8 -39h-14c-87 0 -99 44 -99 95h-2c-28 -52 -67 -102 -142 -102c-94 0 -134 59 -134 141c0 20 3 43 8 66l68 319h41l-70 -326c-4 -19 -6 -37 -6 -55c0 -59 26 -107 99 -107c94 0 140 103 159 194l62 294h40l-79 -378c-4 -20 -7 -36 -7 -50c0 -39 19 -53 65 -53
c6 0 12 0 19 1zM451 613l-30 -24l-27 35c-23 29 -46 65 -46 65h-2s-35 -34 -61 -56l-57 -47l-23 30l147 120h2z" />
    <glyph glyph-name="udieresis" unicode="&#xfc;" horiz-adv-x="523" 
d="M481 36l-8 -39h-14c-87 0 -99 44 -99 95h-2c-28 -52 -67 -102 -142 -102c-94 0 -134 59 -134 141c0 20 3 43 8 66l68 319h41l-70 -326c-4 -19 -6 -37 -6 -55c0 -59 26 -107 99 -107c94 0 140 103 159 194l62 294h40l-79 -378c-4 -20 -7 -36 -7 -50c0 -39 19 -53 65 -53
c6 0 12 0 19 1zM289 632c0 -15 -12 -26 -27 -26s-26 11 -26 26s11 27 26 27s27 -12 27 -27zM429 632c0 -15 -12 -26 -27 -26s-26 11 -26 26s11 27 26 27s27 -12 27 -27z" />
    <glyph glyph-name="dagger" unicode="&#x2020;" horiz-adv-x="367" 
d="M247 401l-107 -501h-38l112 528c-19 17 -37 34 -59 34c-43 0 -57 -42 -64 -75l-38 5c14 67 43 108 103 108c28 0 49 -14 67 -30l71 330h38l-77 -359c14 -11 27 -19 43 -19c44 0 59 43 66 76l38 -5c-15 -67 -39 -108 -104 -108c-20 0 -37 6 -51 16z" />
    <glyph glyph-name="degree" unicode="&#xb0;" horiz-adv-x="268" 
d="M212 510c-66 0 -91 44 -91 88c0 56 37 112 113 112c62 0 87 -47 87 -88c0 -52 -37 -112 -109 -112zM212 548c45 0 68 41 68 75c0 26 -16 49 -50 49c-43 0 -68 -38 -68 -75c0 -27 17 -49 50 -49z" />
    <glyph glyph-name="cent" unicode="&#xa2;" horiz-adv-x="424" 
d="M371 269l31 -23c-44 -66 -94 -98 -161 -98c-29 0 -54 4 -75 13l-53 -100h-45l63 120c-55 43 -70 121 -54 196c23 110 95 188 200 188c19 0 37 -3 53 -8l48 90h45l-57 -107c32 -22 54 -57 65 -101l-38 -12c-15 64 -57 100 -118 100c-80 0 -138 -62 -158 -158
c-19 -89 11 -183 125 -183c58 0 95 30 129 83z" />
    <glyph glyph-name="sterling" unicode="&#xa3;" horiz-adv-x="518" 
d="M402 63l25 -32c-117 -105 -265 43 -366 -42l-19 32c1 1 2 2 3 2c60 50 95 113 107 186c3 20 5 41 7 64h-101l8 38h96c12 181 13 399 192 399c98 0 156 -82 156 -190h-40c0 66 -32 152 -116 152c-138 0 -138 -192 -151 -361h191l-8 -38h-186c-2 -22 -5 -44 -8 -64
c-15 -84 -46 -132 -86 -165l1 -2c102 27 205 -56 295 21z" />
    <glyph glyph-name="section" unicode="&#xa7;" horiz-adv-x="491" 
d="M406 198v-2c10 -12 18 -36 18 -62c0 -78 -63 -144 -173 -144c-97 0 -173 51 -209 127l35 20c25 -54 88 -109 177 -109c91 0 130 56 130 107c0 134 -275 116 -275 268c0 46 26 86 77 107v2c-9 15 -14 35 -14 56c0 80 63 142 166 142s158 -61 184 -125l-37 -18
c-22 56 -67 105 -147 105c-77 0 -126 -45 -126 -102c0 -133 267 -114 267 -271c0 -52 -32 -82 -73 -101zM385 225c38 20 51 44 51 72c0 97 -159 108 -230 184c-38 -15 -57 -45 -57 -76c0 -90 160 -105 236 -180z" />
    <glyph glyph-name="bullet" unicode="&#x2022;" horiz-adv-x="220" 
d="M198 263c0 -25 -20 -44 -46 -44s-45 19 -45 44c0 26 19 47 45 47s46 -21 46 -47z" />
    <glyph glyph-name="paragraph" unicode="&#xb6;" horiz-adv-x="466" 
d="M444 700l-148 -700h-40l41 195h-45c-141 0 -197 98 -197 217c0 136 100 288 285 288h104zM524 700l-148 -700h-40l148 700h40z" />
    <glyph glyph-name="registered" unicode="&#xae;" horiz-adv-x="783" 
d="M791 350c0 -205 -157 -360 -361 -360c-205 0 -362 155 -362 360c0 204 157 360 362 360c204 0 361 -156 361 -360zM431 28c184 0 320 137 320 322c0 183 -136 322 -320 322s-323 -139 -323 -322c0 -185 139 -322 323 -322zM541 195h-45l-52 109c-6 -1 -12 -1 -18 -1h-47
v-108h-40v322h87c70 0 100 -54 100 -107c0 -37 -14 -73 -45 -93zM379 341h47c39 0 60 30 60 69c0 38 -21 69 -60 69h-47v-138z" />
    <glyph glyph-name="copyright" unicode="&#xa9;" horiz-adv-x="783" 
d="M791 350c0 -205 -157 -360 -361 -360c-205 0 -362 155 -362 360c0 204 157 360 362 360c204 0 361 -156 361 -360zM431 28c184 0 320 137 320 322c0 183 -136 322 -320 322s-323 -139 -323 -322c0 -185 139 -322 323 -322zM490 288l38 -10c-14 -53 -47 -90 -101 -90
c-71 0 -117 62 -117 167c0 106 46 168 117 168c53 0 84 -34 99 -85l-37 -11c-11 39 -31 58 -62 58c-49 0 -77 -44 -77 -130c0 -84 28 -129 77 -129c34 0 52 22 63 62z" />
    <glyph glyph-name="trademark" unicode="&#x2122;" horiz-adv-x="587" 
d="M582 385h-41l37 169c9 42 21 84 21 84h-2s-30 -41 -62 -78l-58 -68h-2l-28 68c-16 39 -31 78 -31 78h-2s-6 -42 -15 -84l-36 -169h-40l67 315h39l27 -66c15 -37 29 -78 29 -78h2s29 37 58 70l65 74h39zM182 385h-40l59 277h-77l8 38h194l-8 -38h-77z" />
    <glyph glyph-name="acute" unicode="&#xb4;" horiz-adv-x="256" 
d="M379 825l-212 -89l-14 31l208 97z" />
    <glyph glyph-name="dieresis" unicode="&#xa8;" horiz-adv-x="250" 
d="M210 814c0 -15 -12 -26 -27 -26s-26 11 -26 26s11 27 26 27s27 -12 27 -27zM350 814c0 -15 -12 -26 -27 -26s-26 11 -26 26s11 27 26 27s27 -12 27 -27z" />
    <glyph glyph-name="notequal" unicode="&#x2260;" horiz-adv-x="344" 
d="M310 269h-127l-71 -131h-45l71 131h-70l8 40h84l45 82h-111l8 40h125l73 134h46l-74 -134h72l-8 -40h-86l-45 -82h113z" />
    <glyph glyph-name="AE" unicode="&#xc6;" horiz-adv-x="749" 
d="M671 0h-353l40 190h-210l-134 -190h-50l502 700h354l-8 -37h-314l-66 -311h273l-8 -38h-273l-58 -276h313zM366 228l60 284c12 55 25 106 25 106h-2s-34 -51 -64 -94l-210 -296h191z" />
    <glyph glyph-name="Oslash" unicode="&#xd8;" horiz-adv-x="524" 
d="M230 -10c-173 0 -198 176 -162 370c37 199 127 350 287 350c173 0 198 -176 162 -370c-37 -199 -127 -350 -287 -350zM455 624l-299 -575c20 -14 45 -22 77 -22c129 0 209 133 244 313c22 115 22 224 -22 284zM130 75l298 576c-20 14 -45 22 -76 22
c-129 0 -209 -133 -244 -313c-23 -116 -22 -225 22 -285z" />
    <glyph glyph-name="plusminus" unicode="&#xb1;" horiz-adv-x="370" 
d="M296 162l8 38h-238l-8 -38h238zM366 390h-121l-27 -126h-40l27 126h-121l8 38h121l27 126h40l-27 -126h121z" />
    <glyph glyph-name="yen" unicode="&#xa5;" horiz-adv-x="433" 
d="M329 133h-117l-28 -133h-41l28 133h-120l7 34h120l11 50l-7 56h-102l7 34h91l-46 393h40l37 -328c5 -44 8 -107 8 -107h2s23 51 50 102l178 333h45l-213 -393h86l-7 -34h-97l-31 -57l-11 -49h117z" />
    <glyph glyph-name="pi" unicode="&#x3c0;" horiz-adv-x="783" 
d="M791 350c0 -205 -157 -360 -361 -360c-205 0 -362 155 -362 360c0 204 157 360 362 360c204 0 361 -156 361 -360zM431 28c184 0 320 137 320 322c0 183 -136 322 -320 322s-323 -139 -323 -322c0 -185 139 -322 323 -322zM398 195h-40v322h87c70 0 100 -57 100 -116
c0 -60 -30 -116 -100 -116h-47v-90zM398 323h47c39 0 60 33 60 78c0 44 -21 78 -60 78h-47v-156z" />
    <glyph glyph-name="ordfeminine" unicode="&#xaa;" horiz-adv-x="257" 
d="M291 383h-40l-6 65h-114l-32 -65h-45l171 317h29zM242 481l-7 85c-3 40 -5 81 -5 81h-2s-17 -41 -36 -79l-44 -87h94z" />
    <glyph glyph-name="ordmasculine" unicode="&#xba;" horiz-adv-x="282" 
d="M194 405c57 0 94 105 94 185c0 42 -16 86 -59 86c-61 0 -94 -105 -94 -186c0 -42 14 -85 59 -85zM191 371c-67 0 -92 64 -92 130c0 94 47 209 133 209c69 0 91 -65 91 -130c0 -95 -47 -209 -132 -209z" />
    <glyph glyph-name="ae" unicode="&#xe6;" horiz-adv-x="855" 
d="M706 103l29 -27c-47 -51 -106 -86 -175 -86c-118 0 -154 102 -157 202h-2c-22 -72 -84 -202 -210 -202c-78 0 -122 52 -122 118c0 132 104 192 332 194l10 46c21 98 -16 142 -80 142c-58 0 -104 -36 -142 -89l-31 26c52 68 107 100 174 100c78 0 116 -51 111 -140h2
c35 75 85 139 179 139c109 0 160 -93 160 -209c0 -16 -1 -35 -3 -53h-348c-3 -20 -4 -40 -4 -60c0 -118 57 -176 135 -176c59 0 106 34 142 75zM386 230l7 34h-32c-157 0 -252 -46 -252 -156c0 -53 39 -80 90 -80c96 0 166 103 187 202zM744 302v17c0 106 -47 169 -123 169
c-88 0 -154 -85 -180 -186h303z" />
    <glyph glyph-name="oslash" unicode="&#xf8;" 
d="M216 -10c-108 0 -160 93 -160 208c0 158 85 328 236 328c107 0 159 -93 159 -208c0 -158 -85 -328 -235 -328zM355 466l-175 -432c12 -4 24 -6 38 -6c117 0 193 143 193 290c0 70 -21 121 -56 148zM149 51l174 432c-10 3 -22 5 -34 5c-117 0 -193 -143 -193 -290
c0 -69 19 -119 53 -147z" />
    <glyph glyph-name="questiondown" unicode="&#xbf;" horiz-adv-x="393" 
d="M347 196l38 -10c-33 -117 -103 -185 -207 -185c-100 0 -157 69 -157 150c0 182 245 244 245 391c0 22 -8 36 -8 36l37 15s11 -20 11 -51c0 -165 -245 -235 -245 -387c0 -63 44 -116 120 -116c85 0 143 67 166 157zM318 683c0 -15 -12 -26 -27 -26s-26 11 -26 26
s11 27 26 27s27 -12 27 -27z" />
    <glyph glyph-name="exclamdown" unicode="&#xa1;" horiz-adv-x="191" 
d="M77 -1h-40l117 552h40zM228 683c0 -15 -12 -26 -27 -26s-26 11 -26 26s11 27 26 27s27 -12 27 -27z" />
    <glyph glyph-name="logicalnot" unicode="&#xac;" horiz-adv-x="344" 
d="M305 242l-31 -24l-75 100l-123 -101l-24 30l124 102l-76 102l31 24l75 -101l122 101l24 -30l-123 -102z" />
    <glyph glyph-name="florin" unicode="&#x192;" horiz-adv-x="459" 
d="M435 370l-8 -38h-130c-36 -170 -80 -342 -266 -342v40c151 0 193 151 224 302h-146l8 38h146c0 3 1 6 2 9c37 179 77 332 216 332v-40c-107 0 -143 -139 -176 -300v-1h130z" />
    <glyph glyph-name="guillemotleft" unicode="&#xab;" horiz-adv-x="392" 
d="M231 205l-28 -26l-175 155l7 41l244 155l21 -31l-167 -105c-35 -22 -71 -42 -71 -42v-2s34 -26 63 -52zM401 205l-28 -26l-175 155l7 41l244 155l21 -31l-167 -105c-35 -22 -71 -42 -71 -42v-2s34 -26 63 -52z" />
    <glyph glyph-name="guillemotright" unicode="&#xbb;" horiz-adv-x="399" 
d="M55 500l28 26l175 -155l-7 -41l-244 -155l-21 31l167 105c35 22 71 42 71 42v2s-34 26 -63 52zM230 500l28 26l175 -155l-7 -41l-244 -155l-21 31l167 105c35 22 71 42 71 42v2s-34 26 -63 52z" />
    <glyph glyph-name="ellipsis" unicode="&#x2026;" horiz-adv-x="377" 
d="M80 16c0 -15 -12 -26 -27 -26s-26 11 -26 26s11 27 26 27s27 -12 27 -27zM187 16c0 -15 -12 -26 -27 -26s-26 11 -26 26s11 27 26 27s27 -12 27 -27zM294 16c0 -15 -12 -26 -27 -26s-26 11 -26 26s11 27 26 27s27 -12 27 -27z" />
    <glyph glyph-name="Agrave" unicode="&#xc0;" horiz-adv-x="480" 
d="M429 0h-40l-19 190h-256l-99 -190h-45l363 700h30zM366 228l-27 287c-5 51 -6 105 -6 105h-2s-25 -59 -47 -101l-150 -291h232zM412 736l-212 89l18 39l208 -97z" />
    <glyph glyph-name="Atilde" unicode="&#xc3;" horiz-adv-x="480" 
d="M429 0h-40l-19 190h-256l-99 -190h-45l363 700h30zM366 228l-27 287c-5 51 -6 105 -6 105h-2s-25 -59 -47 -101l-150 -291h232zM498 885l38 -5c-15 -67 -39 -108 -104 -108c-67 0 -95 77 -143 77c-43 0 -57 -42 -64 -75l-38 5c14 67 43 108 103 108c67 0 94 -78 142 -78
c44 0 59 43 66 76z" />
    <glyph glyph-name="Otilde" unicode="&#xd5;" horiz-adv-x="524" 
d="M230 -10c-173 0 -198 176 -162 370c37 199 127 350 287 350c173 0 198 -176 162 -370c-37 -199 -127 -350 -287 -350zM233 27c129 0 209 133 244 313c34 174 16 333 -125 333c-129 0 -209 -133 -244 -313c-34 -174 -16 -333 125 -333zM529 885l38 -5
c-15 -67 -39 -108 -104 -108c-67 0 -95 77 -143 77c-43 0 -57 -42 -64 -75l-38 5c14 67 43 108 103 108c67 0 94 -78 142 -78c44 0 59 43 66 76z" />
    <glyph glyph-name="OE" unicode="&#x152;" horiz-adv-x="673" 
d="M617 0h-409c-182 0 -172 208 -141 350c44 206 120 350 273 350h426l-8 -37h-314l-66 -311h273l-8 -38h-273l-58 -276h313zM272 37l132 626h-65c-122 0 -192 -123 -232 -313c-18 -85 -59 -313 101 -313h64z" />
    <glyph glyph-name="oe" unicode="&#x153;" horiz-adv-x="823" 
d="M722 103l29 -27c-47 -51 -106 -86 -175 -86c-113 0 -151 98 -157 193h-2c-31 -104 -92 -193 -201 -193c-108 0 -160 93 -160 208c0 158 85 328 236 328c108 0 143 -94 146 -190h2c31 101 91 190 200 190s160 -93 160 -209c0 -23 -2 -50 -6 -75h-347c-2 -13 -2 -26 -2 -38
c0 -118 57 -176 135 -176c59 0 106 34 142 75zM218 28c117 0 193 143 193 290c0 107 -47 170 -122 170c-117 0 -193 -143 -193 -290c0 -107 47 -170 122 -170zM453 280h305c1 12 2 25 2 39c0 106 -47 169 -123 169c-95 0 -162 -98 -184 -208z" />
    <glyph glyph-name="endash" unicode="&#x2013;" horiz-adv-x="423" 
d="M387 370l-8 -38h-280l8 38h280z" />
    <glyph glyph-name="emdash" unicode="&#x2014;" horiz-adv-x="624" 
d="M595 370l-8 -38h-480l8 38h480z" />
    <glyph glyph-name="quotedblleft" unicode="&#x201c;" horiz-adv-x="260" 
d="M191 712l16 -18c-41 -36 -43 -59 -43 -59l1 -1c3 2 7 3 10 3c11 0 20 -9 20 -23c0 -15 -11 -24 -26 -24c-14 0 -24 9 -24 31c0 30 19 65 46 91zM291 712l16 -18c-41 -36 -43 -59 -43 -59l1 -1c3 2 7 3 10 3c11 0 20 -9 20 -23c0 -15 -11 -24 -26 -24c-14 0 -24 9 -24 31
c0 30 19 65 46 91z" />
    <glyph glyph-name="quotedblright" unicode="&#x201d;" horiz-adv-x="260" 
d="M161 588l-16 18c41 36 43 59 43 59l-1 1c-3 -2 -7 -3 -10 -3c-11 0 -20 9 -20 23c0 15 11 24 26 24c14 0 24 -9 24 -31c0 -30 -19 -65 -46 -91zM261 588l-16 18c41 36 43 59 43 59l-1 1c-3 -2 -7 -3 -10 -3c-11 0 -20 9 -20 23c0 15 11 24 26 24c14 0 24 -9 24 -31
c0 -30 -19 -65 -46 -91z" />
    <glyph glyph-name="quoteleft" unicode="&#x2018;" horiz-adv-x="160" 
d="M191 710l16 -18c-41 -36 -43 -59 -43 -59l1 -1c3 2 7 3 10 3c11 0 20 -9 20 -23c0 -15 -11 -24 -26 -24c-14 0 -24 9 -24 31c0 30 19 65 46 91z" />
    <glyph glyph-name="quoteright" unicode="&#x2019;" horiz-adv-x="160" 
d="M161 590l-16 18c41 36 43 59 43 59l-1 1c-3 -2 -7 -3 -10 -3c-11 0 -20 9 -20 23c0 15 11 24 26 24c14 0 24 -9 24 -31c0 -30 -19 -65 -46 -91z" />
    <glyph glyph-name="ydieresis" unicode="&#xff;" horiz-adv-x="412" 
d="M112 -68l36 72l-66 512h41l43 -349c6 -49 11 -114 11 -114h2s25 59 50 110l177 353h45l-301 -595c-42 -82 -91 -131 -162 -131c-35 0 -65 7 -91 19l19 36c22 -11 47 -17 74 -17c58 0 92 44 122 104zM234 632c0 -15 -12 -26 -27 -26s-26 11 -26 26s11 27 26 27
s27 -12 27 -27zM374 632c0 -15 -12 -26 -27 -26s-26 11 -26 26s11 27 26 27s27 -12 27 -27z" />
    <glyph glyph-name="Ydieresis" unicode="&#x178;" horiz-adv-x="421" 
d="M192 0h-41l45 214l-90 486h40l62 -335c8 -42 17 -103 17 -103h2s29 53 54 95l207 343h47l-298 -487zM292 814c0 -15 -12 -26 -27 -26s-26 11 -26 26s11 27 26 27s27 -12 27 -27zM432 814c0 -15 -12 -26 -27 -26s-26 11 -26 26s11 27 26 27s27 -12 27 -27z" />
    <glyph glyph-name="fraction" unicode="&#x2044;" horiz-adv-x="415" 
d="M511 700l-476 -700h-48l475 700h49z" />
    <glyph glyph-name="currency" unicode="&#xa4;" horiz-adv-x="562" 
d="M417 166l36 -12c-43 -100 -103 -164 -203 -164c-157 0 -174 166 -155 303h-52l7 34h50l6 28c1 6 2 12 4 18h-50l8 34h50c46 178 124 303 264 303c116 0 148 -90 149 -188l-38 -1c-1 79 -26 152 -112 152c-111 0 -181 -105 -223 -266h158l-8 -34h-158c-2 -6 -3 -12 -4 -18
l-6 -28h158l-7 -34h-156c-15 -106 -15 -266 115 -266c77 0 129 53 167 139z" />
    <glyph glyph-name="guilsinglleft" unicode="&#x2039;" horiz-adv-x="222" 
d="M236 205l-28 -26l-175 155l7 41l244 155l21 -31l-167 -105c-35 -22 -71 -42 -71 -42v-2s34 -26 63 -52z" />
    <glyph glyph-name="guilsinglright" unicode="&#x203a;" horiz-adv-x="224" 
d="M55 500l28 26l175 -155l-7 -41l-244 -155l-21 31l167 105c35 22 71 42 71 42v2s-34 26 -63 52z" />
    <glyph glyph-name="fi" unicode="&#xfb01;" horiz-adv-x="531" 
d="M98 0h-40l101 478h-86l8 38h86l19 91c18 82 60 133 135 133c41 0 69 -16 88 -32l-26 -31c-15 16 -39 25 -62 25c-48 0 -81 -33 -95 -95l-19 -91h114l-8 -38h-114zM471 35l-8 -39c-5 0 -10 -1 -14 -1c-76 0 -102 36 -102 91c0 17 3 35 7 55l55 257c13 62 15 97 15 111v7
h41c0 -4 0 -41 -17 -123l-54 -256c-4 -20 -7 -36 -7 -50c0 -39 19 -53 65 -53c6 0 12 0 19 1zM505 646c0 -15 -12 -26 -27 -26s-26 11 -26 26s11 27 26 27s27 -12 27 -27z" />
    <glyph glyph-name="fl" unicode="&#xfb02;" horiz-adv-x="553" 
d="M98 0h-40l101 478h-86l8 38h86l19 91c18 82 60 133 135 133c41 0 69 -16 88 -32l-26 -31c-15 16 -39 25 -62 25c-48 0 -81 -33 -95 -95l-19 -91h114l-8 -38h-114zM479 35l-8 -39s-6 -1 -14 -1c-76 0 -102 36 -102 91c0 17 3 35 7 55l125 589h41l-126 -593
c-4 -20 -7 -36 -7 -50c0 -39 19 -53 65 -53c6 0 12 0 19 1z" />
    <glyph glyph-name="daggerdbl" unicode="&#x2021;" horiz-adv-x="359" 
d="M226 306l-86 -406h-38l92 432c-20 18 -38 36 -61 36c-43 0 -57 -42 -64 -75l-38 5c14 67 43 108 103 108c29 0 50 -15 69 -31l32 152c-19 17 -37 34 -59 34c-43 0 -57 -42 -64 -75l-38 5c14 67 43 108 103 108c28 0 49 -14 67 -30l50 231h38l-56 -260
c14 -11 27 -19 43 -19c44 0 59 43 66 76l38 -5c-15 -67 -39 -108 -104 -108c-20 0 -37 7 -51 16l-33 -154c13 -10 26 -18 41 -18c44 0 59 43 66 76l38 -5c-15 -67 -39 -108 -104 -108c-19 0 -36 6 -50 15z" />
    <glyph glyph-name="periodcentered" unicode="&#xb7;" horiz-adv-x="165" 
d="M133 289c0 -15 -12 -26 -27 -26s-26 11 -26 26s11 27 26 27s27 -12 27 -27z" />
    <glyph glyph-name="quotesinglbase" unicode="&#x201a;" horiz-adv-x="160" 
d="M39 -79l-16 18c41 36 43 59 43 59l-1 1c-3 -2 -7 -3 -10 -3c-11 0 -20 9 -20 23c0 15 11 24 26 24c14 0 24 -9 24 -31c0 -30 -19 -65 -46 -91z" />
    <glyph glyph-name="quotedblbase" unicode="&#x201e;" horiz-adv-x="260" 
d="M39 -79l-16 18c41 36 43 59 43 59l-1 1c-3 -2 -7 -3 -10 -3c-11 0 -20 9 -20 23c0 15 11 24 26 24c14 0 24 -9 24 -31c0 -30 -19 -65 -46 -91zM139 -79l-16 18c41 36 43 59 43 59l-1 1c-3 -2 -7 -3 -10 -3c-11 0 -20 9 -20 23c0 15 11 24 26 24c14 0 24 -9 24 -31
c0 -30 -19 -65 -46 -91z" />
    <glyph glyph-name="perthousand" unicode="&#x2030;" horiz-adv-x="993" 
d="M797 25c71 0 116 96 116 175c0 58 -22 100 -71 100c-71 0 -116 -96 -116 -175c0 -58 22 -100 71 -100zM794 -10c-74 0 -108 57 -108 135c0 96 58 210 159 210c74 0 108 -57 108 -135c0 -96 -58 -210 -159 -210zM141 0l513 700h-42l-513 -700h42zM489 -10
c-74 0 -108 57 -108 135c0 96 58 210 159 210c74 0 108 -57 108 -135c0 -96 -58 -210 -159 -210zM492 25c71 0 116 96 116 175c0 58 -22 100 -71 100c-71 0 -116 -96 -116 -175c0 -58 22 -100 71 -100zM219 365c-74 0 -108 57 -108 135c0 96 58 210 159 210
c74 0 108 -57 108 -135c0 -96 -58 -210 -159 -210zM222 400c71 0 116 96 116 175c0 58 -22 100 -71 100c-71 0 -116 -96 -116 -175c0 -58 22 -100 71 -100z" />
    <glyph glyph-name="Acircumflex" unicode="&#xc2;" horiz-adv-x="480" 
d="M429 0h-40l-19 190h-256l-99 -190h-45l363 700h30zM366 228l-27 287c-5 51 -6 105 -6 105h-2s-25 -59 -47 -101l-150 -291h232zM473 791l-30 -24l-27 35c-23 29 -46 65 -46 65h-2s-35 -34 -61 -56l-57 -47l-23 30l147 120h2z" />
    <glyph glyph-name="Ecircumflex" unicode="&#xca;" horiz-adv-x="470" 
d="M394 0h-353l148 700h354l-8 -37h-314l-66 -311h273l-8 -38h-273l-58 -276h313zM505 791l-30 -24l-27 35c-23 29 -46 65 -46 65h-2s-35 -34 -61 -56l-57 -47l-23 30l147 120h2z" />
    <glyph glyph-name="Aacute" unicode="&#xc1;" horiz-adv-x="480" 
d="M429 0h-40l-19 190h-256l-99 -190h-45l363 700h30zM366 228l-27 287c-5 51 -6 105 -6 105h-2s-25 -59 -47 -101l-150 -291h232zM489 825l-212 -89l-14 31l208 97z" />
    <glyph glyph-name="Edieresis" unicode="&#xcb;" horiz-adv-x="470" 
d="M394 0h-353l148 700h354l-8 -37h-314l-66 -311h273l-8 -38h-273l-58 -276h313zM330 814c0 -15 -12 -26 -27 -26s-26 11 -26 26s11 27 26 27s27 -12 27 -27zM470 814c0 -15 -12 -26 -27 -26s-26 11 -26 26s11 27 26 27s27 -12 27 -27z" />
    <glyph glyph-name="Egrave" unicode="&#xc8;" horiz-adv-x="470" 
d="M394 0h-353l148 700h354l-8 -37h-314l-66 -311h273l-8 -38h-273l-58 -276h313zM472 736l-212 89l18 39l208 -97z" />
    <glyph glyph-name="Iacute" unicode="&#xcd;" horiz-adv-x="241" 
d="M102 0h-41l148 700h41zM358 825l-212 -89l-14 31l208 97z" />
    <glyph glyph-name="Icircumflex" unicode="&#xce;" horiz-adv-x="241" 
d="M102 0h-41l148 700h41zM371 791l-30 -24l-27 35c-23 29 -46 65 -46 65h-2s-35 -34 -61 -56l-57 -47l-23 30l147 120h2z" />
    <glyph glyph-name="Idieresis" unicode="&#xcf;" horiz-adv-x="241" 
d="M102 0h-41l148 700h41zM204 814c0 -15 -12 -26 -27 -26s-26 11 -26 26s11 27 26 27s27 -12 27 -27zM344 814c0 -15 -12 -26 -27 -26s-26 11 -26 26s11 27 26 27s27 -12 27 -27z" />
    <glyph glyph-name="Igrave" unicode="&#xcc;" horiz-adv-x="241" 
d="M102 0h-41l148 700h41zM342 736l-212 89l18 39l208 -97z" />
    <glyph glyph-name="Oacute" unicode="&#xd3;" horiz-adv-x="524" 
d="M230 -10c-173 0 -198 176 -162 370c37 199 127 350 287 350c173 0 198 -176 162 -370c-37 -199 -127 -350 -287 -350zM233 27c129 0 209 133 244 313c34 174 16 333 -125 333c-129 0 -209 -133 -244 -313c-34 -174 -16 -333 125 -333zM509 825l-212 -89l-14 31l208 97z
" />
    <glyph glyph-name="Ocircumflex" unicode="&#xd4;" horiz-adv-x="524" 
d="M230 -10c-173 0 -198 176 -162 370c37 199 127 350 287 350c173 0 198 -176 162 -370c-37 -199 -127 -350 -287 -350zM233 27c129 0 209 133 244 313c34 174 16 333 -125 333c-129 0 -209 -133 -244 -313c-34 -174 -16 -333 125 -333zM508 791l-30 -24l-27 35
c-23 29 -46 65 -46 65h-2s-35 -34 -61 -56l-57 -47l-23 30l147 120h2z" />
    <glyph glyph-name="apple" unicode="&#xf8ff;" horiz-adv-x="1417" 
d="M109 424l16 36c4 -2 8 -4 14 -4c20 0 26 15 26 35v148h40v-145c0 -53 -28 -76 -66 -76c-10 0 -21 2 -30 6zM189 72h-40v179h-38v38h117v-38h-39v-179zM514 421h-116v218h116v-39h-75v-56h63v-39h-63v-45h75v-39zM456 72h-61v217h60c46 0 70 -22 70 -59
c0 -18 -10 -37 -26 -44v-1c17 -7 32 -23 32 -48c0 -37 -21 -65 -75 -65zM436 110h23c27 0 34 13 34 29c0 15 -8 26 -34 26h-23v-55zM436 201h14c26 0 34 12 34 27s-8 23 -34 23h-14v-50zM320 421h-40v179h-38v39h116v-39h-38v-179zM374 72h-43l-8 34h-50l-7 -34h-42l52 218
h46zM317 143l-18 80v8l-1 -8l-17 -80h36zM548 336h-455v39h455v-39zM1257 201c-13 -6 -30 -6 -30 -1c0 1 1 2 3 4c11 10 91 63 91 189c0 122 -47 284 -250 284c-178 0 -238 -101 -238 -157c0 -16 -1 -23 -13 -27c-63 -23 -86 -71 -86 -121s23 -99 51 -114
c16 -9 2 -13 -14 -2c-40 28 -58 71 -58 114c0 58 30 116 81 139c9 4 12 5 12 15c0 80 87 188 265 188c176 0 297 -103 297 -319c0 -131 -95 -184 -111 -192zM1005 162l-5 23c-1 3 -1 6 2 11c7 13 9 25 9 36c0 20 -29 23 -31 -1c-1 -11 1 -27 4 -46c0 -2 1 -7 -1 -11
c-6 -15 -12 -26 -20 -38c-3 -5 -3 -4 -4 1c-4 19 -8 38 -13 58c0 1 -1 4 2 10c5 10 7 20 7 27c0 34 -36 29 -36 -3c0 -10 5 -23 11 -40c1 -3 2 -6 0 -9c-6 -10 -14 -21 -21 -33c-4 -7 -7 -9 -10 -1c-5 15 -10 30 -16 43c-2 4 -2 8 0 12c4 11 5 23 5 35c0 32 -32 22 -32 -9
c0 -14 4 -28 10 -41c2 -4 2 -7 1 -9l-13 -27c-2 -3 -3 -4 -6 1c-7 13 -15 26 -25 39c-5 6 -3 9 -3 10c1 9 1 17 1 23c-2 30 -37 27 -30 0c3 -14 10 -24 16 -36c3 -8 1 -8 1 -10c-7 -38 -17 -89 -8 -121c13 -44 53 -66 194 -66c165 0 181 51 183 82c3 31 6 164 55 218
c9 10 -5 15 -12 9c-37 -28 -59 -102 -71 -220c-5 -48 -102 -51 -179 -51s-158 4 -163 51c-3 30 2 61 7 86c1 4 3 4 4 1c6 -12 12 -25 17 -40c1 -3 1 -4 0 -8c-1 -6 -2 -15 -2 -21c0 -15 6 -23 13 -23c10 0 15 8 15 22c0 10 -1 19 -5 32c-2 5 -2 10 0 14c7 13 9 17 13 23
c3 4 3 5 5 1c7 -16 11 -25 16 -44c1 -3 1 -11 0 -14c-3 -11 -4 -17 -4 -24c0 -14 6 -20 12 -20c10 0 16 8 16 26c0 6 -2 19 -6 29c-2 5 0 9 3 15l23 41c6 -17 10 -36 15 -58c0 -2 1 -4 -3 -14c-4 -9 -6 -17 -6 -23c0 -24 27 -24 27 3c0 8 -1 21 -4 36c0 1 -1 3 2 9l19 34
c2 3 3 3 4 -1l5 -24c1 -5 0 -7 -1 -10c-4 -11 -6 -22 -6 -30c0 -7 1 -16 13 -16c10 0 15 7 15 25c0 9 -1 19 -3 33c-1 6 0 11 2 14c6 9 13 18 24 26c7 5 6 10 -4 2c-7 -5 -16 -13 -22 -21c-3 -5 -5 -3 -6 2zM1064 262c70 0 94 60 94 109c0 51 -36 95 -92 95
s-101 -41 -101 -96c0 -56 29 -108 99 -108zM852 269c-58 0 -98 35 -98 99c0 44 28 98 96 98c58 0 98 -29 98 -90c0 -67 -39 -107 -96 -107zM772 134c11 6 8 13 -1 14c-132 11 -161 116 -161 235c0 124 4 201 -32 259c-21 35 -97 70 -213 70c-86 0 -210 -16 -240 -32
c-51 -26 -81 -183 -81 -397c0 -255 42 -258 180 -279c40 -6 65 -10 119 -10s85 4 129 10c71 10 102 14 119 79c7 27 19 34 44 30c39 -6 87 -5 137 21zM923 330v80h-15l-16 -32h-1l-17 32h-14v-80h15v51l15 -25h3l15 25v-51h15zM1042 324h-15l-9 29h-2l-9 -29h-15l15 40
l-15 40h15l9 -30h2l9 30h15l-15 -40zM1134 324h-15v80h15v-80zM843 330v80h-15l-16 -32h-1l-17 32h-14v-80h15v51l15 -25h3l15 25v-51h15zM1067 324h-15v80h15v-80zM1100 324h-15v80h15v-80z" />
    <glyph glyph-name="Ograve" unicode="&#xd2;" horiz-adv-x="524" 
d="M230 -10c-173 0 -198 176 -162 370c37 199 127 350 287 350c173 0 198 -176 162 -370c-37 -199 -127 -350 -287 -350zM233 27c129 0 209 133 244 313c34 174 16 333 -125 333c-129 0 -209 -133 -244 -313c-34 -174 -16 -333 125 -333zM482 736l-212 89l18 39l208 -97z
" />
    <glyph glyph-name="Uacute" unicode="&#xda;" horiz-adv-x="536" 
d="M430 228l100 472h41l-101 -478c-35 -165 -114 -232 -222 -232c-100 0 -173 60 -173 175c0 21 3 44 8 69l99 466h41l-100 -473c-5 -23 -7 -44 -7 -63c0 -95 58 -136 134 -136c87 0 150 59 180 200zM489 825l-212 -89l-14 31l208 97z" />
    <glyph glyph-name="Ucircumflex" unicode="&#xdb;" horiz-adv-x="536" 
d="M430 228l100 472h41l-101 -478c-35 -165 -114 -232 -222 -232c-100 0 -173 60 -173 175c0 21 3 44 8 69l99 466h41l-100 -473c-5 -23 -7 -44 -7 -63c0 -95 58 -136 134 -136c87 0 150 59 180 200zM509 791l-30 -24l-27 35c-23 29 -46 65 -46 65h-2s-35 -34 -61 -56
l-57 -47l-23 30l147 120h2z" />
    <glyph glyph-name="Ugrave" unicode="&#xd9;" horiz-adv-x="536" 
d="M430 228l100 472h41l-101 -478c-35 -165 -114 -232 -222 -232c-100 0 -173 60 -173 175c0 21 3 44 8 69l99 466h41l-100 -473c-5 -23 -7 -44 -7 -63c0 -95 58 -136 134 -136c87 0 150 59 180 200zM488 736l-212 89l18 39l208 -97z" />
    <glyph glyph-name="dotlessi" unicode="&#x131;" horiz-adv-x="261" 
d="M185 35l-8 -39c-5 0 -10 -1 -14 -1c-76 0 -102 36 -102 91c0 17 3 35 7 55l55 257c13 62 15 97 15 111v7h41c0 -4 0 -41 -17 -123l-54 -256c-4 -20 -7 -36 -7 -50c0 -39 19 -53 65 -53c6 0 12 0 19 1z" />
    <glyph glyph-name="circumflex" unicode="&#x2c6;" horiz-adv-x="365" 
d="M435 791l-30 -24l-27 35c-23 29 -46 65 -46 65h-2s-35 -34 -61 -56l-57 -47l-23 30l147 120h2z" />
    <glyph glyph-name="tilde" unicode="&#x2dc;" horiz-adv-x="383" 
d="M441 885l38 -5c-15 -67 -39 -108 -104 -108c-67 0 -95 77 -143 77c-43 0 -57 -42 -64 -75l-38 5c14 67 43 108 103 108c67 0 94 -78 142 -78c44 0 59 43 66 76z" />
    <glyph glyph-name="macron" unicode="&#xaf;" horiz-adv-x="306" 
d="M402 810l-8 -38h-258l8 38h258z" />
    <glyph glyph-name="breve" unicode="&#x2d8;" horiz-adv-x="343" 
d="M388 847l40 9c0 -72 -59 -113 -131 -113c-62 0 -107 31 -107 85c0 9 2 18 4 28l38 -9c-2 -6 -2 -11 -2 -16c0 -32 33 -48 66 -48c47 0 85 14 92 64z" />
    <glyph glyph-name="dotaccent" unicode="&#x2d9;" horiz-adv-x="250" 
d="M280 814c0 -15 -12 -26 -27 -26s-26 11 -26 26s11 27 26 27s27 -12 27 -27z" />
    <glyph glyph-name="ring" unicode="&#x2da;" horiz-adv-x="231" 
d="M317 849c0 -36 -25 -74 -77 -74c-44 0 -65 29 -65 60c0 37 26 76 78 76c43 0 64 -30 64 -62zM242 805c28 0 43 21 43 43c0 17 -11 33 -34 33c-28 0 -44 -21 -44 -44c0 -17 11 -32 35 -32z" />
    <glyph glyph-name="cedilla" unicode="&#xb8;" horiz-adv-x="242" 
d="M-37 -201l33 23c9 -23 31 -43 63 -43c44 0 73 30 73 67c0 26 -17 44 -49 44c-30 0 -59 -17 -68 -26l-30 20l59 133h37l-49 -108l2 -1c15 10 32 18 58 18c51 0 82 -35 82 -78c0 -54 -39 -108 -114 -108c-45 0 -85 26 -97 59z" />
    <glyph glyph-name="hungarumlaut" unicode="&#x2dd;" horiz-adv-x="262" 
d="M214 752h-34l40 152h45zM294 752h-34l40 152h45z" />
    <glyph glyph-name="ogonek" unicode="&#x2db;" horiz-adv-x="273" 
d="M165 -152l14 -36c-14 -8 -28 -12 -45 -12c-61 0 -96 55 -96 113c0 51 26 103 85 124l15 -37c-40 -11 -57 -48 -57 -84c0 -38 20 -75 57 -75c11 0 19 3 27 7z" />
    <glyph glyph-name="caron" unicode="&#x2c7;" horiz-adv-x="365" 
d="M287 889l30 24l27 -35c23 -29 46 -65 46 -65h2s35 34 61 56l57 47l23 -30l-147 -120h-2z" />
    <glyph glyph-name="Euro" unicode="&#x20ac;" horiz-adv-x="486" 
d="M404 166l36 -12c-43 -100 -103 -164 -203 -164c-157 0 -174 166 -155 303h-52l7 34h50l6 28c1 6 2 12 4 18h-50l8 34h50c46 178 124 303 264 303c116 0 148 -90 149 -188l-38 -1c-1 79 -26 152 -112 152c-111 0 -181 -105 -223 -266h158l-8 -34h-158c-2 -6 -3 -12 -4 -18
l-6 -28h158l-7 -34h-156c-15 -106 -15 -266 115 -266c77 0 129 53 167 139z" />
    <glyph glyph-name="onesuperior" unicode="&#xb9;" horiz-adv-x="179" 
d="M163 385h-41l59 277h-34l8 38h75z" />
    <glyph glyph-name="twosuperior" unicode="&#xb2;" horiz-adv-x="280" 
d="M267 385h-193l4 20l156 145c30 28 49 49 49 78c0 30 -21 44 -46 44c-40 0 -63 -36 -76 -70l-37 12c21 51 53 96 114 96c57 0 85 -38 85 -81c0 -42 -26 -76 -60 -106l-45 -40c-33 -29 -72 -58 -72 -58v-2h129z" />
    <glyph glyph-name="threesuperior" unicode="&#xb3;" horiz-adv-x="259" 
d="M338 687l-93 -79c-24 -20 -47 -38 -47 -38l1 -2c52 2 90 -30 90 -80c0 -60 -38 -113 -110 -113c-64 0 -101 41 -104 89l39 7c4 -37 29 -59 67 -59c43 0 69 31 69 72c0 54 -52 64 -83 56l-13 28l46 40c32 27 66 52 66 52v2h-131l8 38h198z" />
    <glyph glyph-name="uni00AD" unicode="&#xad;" horiz-adv-x="833" 
 />
    <glyph glyph-name="minus" unicode="&#x2212;" horiz-adv-x="270" 
d="M274 370l-8 -38h-198l8 38h198z" />
    <glyph glyph-name="brokenbar" unicode="&#xa6;" horiz-adv-x="205" 
d="M153 313l-88 -413h-41l88 413h41zM257 800l-85 -400h-41l85 400h41z" />
    <glyph glyph-name="onequarter" unicode="&#xbc;" horiz-adv-x="477" 
d="M345 0h-41l14 69h-127l182 247h39l-45 -209h45l-8 -38h-45zM328 103l29 142h-2c-36 -57 -64 -98 -97 -140v-2h70zM173 385h-41l59 277h-34l8 38h75zM45 0l476 700h-49l-475 -700h48z" />
    <glyph glyph-name="onehalf" unicode="&#xbd;" horiz-adv-x="482" 
d="M173 385h-41l59 277h-34l8 38h75zM45 0l476 700h-49l-475 -700h48zM389 0h-193l4 20l156 145c30 28 49 49 49 78c0 30 -21 44 -46 44c-40 0 -63 -36 -76 -70l-37 12c21 51 53 96 114 96c57 0 85 -38 85 -81c0 -42 -26 -76 -60 -106l-45 -40c-33 -29 -72 -58 -72 -58v-2
h129z" />
    <glyph glyph-name="threequarters" unicode="&#xbe;" horiz-adv-x="513" 
d="M384 0h-41l14 69h-127l182 247h39l-45 -209h45l-8 -38h-45zM367 103l29 142h-2c-36 -57 -64 -98 -97 -140v-2h70zM319 687l-93 -79c-24 -20 -47 -38 -47 -38l1 -2c52 2 90 -30 90 -80c0 -60 -38 -113 -110 -113c-64 0 -101 41 -104 89l39 7c4 -37 29 -59 67 -59
c43 0 69 31 69 72c0 54 -52 64 -83 56l-13 28l46 40c32 27 66 52 66 52v2h-131l8 38h198zM81 0l476 700h-49l-475 -700h48z" />
    <glyph glyph-name="divide" unicode="&#xf7;" horiz-adv-x="370" 
d="M224 240c0 -12 -10 -21 -22 -21c-13 0 -22 9 -22 21c0 13 9 23 22 23c12 0 22 -10 22 -23zM268 453c0 -12 -10 -21 -22 -21c-13 0 -22 9 -22 21c0 13 9 23 22 23c12 0 22 -10 22 -23zM362 332l8 38h-280l-8 -38h280z" />
    <glyph glyph-name="UNI2116" unicode="&#x2116;" horiz-adv-x="994" 
d="M803 200c-94 0 -137 74 -137 170c0 126 74 270 204 270c93 0 137 -73 137 -170c0 -125 -73 -270 -204 -270zM466 0h-36l-143 524c-12 44 -21 87 -21 87h-2s-7 -44 -16 -87l-78 -369c-22 -104 -50 -165 -143 -165c-41 0 -69 16 -88 32l26 31c15 -16 39 -25 62 -25
c66 0 84 43 102 127l115 545h35l143 -525c12 -44 22 -89 22 -89h2s6 44 16 90l88 414c22 104 50 165 143 165c41 0 69 -16 88 -32l-26 -31c-15 16 -39 25 -62 25c-66 0 -84 -43 -102 -127zM806 238c96 0 162 118 162 229c0 80 -35 135 -100 135c-97 0 -162 -121 -162 -230
c0 -78 34 -134 100 -134zM922 69l9 38h-328l-9 -38h328z" />
    <glyph glyph-name="germandbls" unicode="&#xdf;" horiz-adv-x="526" 
d="M140 58l29 26c23 -29 68 -56 131 -56c67 0 121 37 121 108c0 108 -197 93 -197 220s180 96 180 224c0 56 -35 92 -95 92c-85 0 -109 -72 -126 -152l-110 -520h-41l110 518c26 124 69 192 169 192c84 0 133 -49 133 -129c0 -153 -180 -128 -180 -222
c0 -99 196 -86 196 -218c0 -81 -56 -151 -163 -151c-73 0 -130 32 -157 68z" />
    <glyph glyph-name="agrave.alt" horiz-adv-x="476" 
d="M441 35l-8 -39s-6 -1 -18 -1c-70 0 -94 44 -94 99h-2c-33 -54 -87 -104 -167 -104c-79 0 -125 52 -125 120c0 130 130 194 331 190l11 48c21 98 -21 142 -82 142c-58 0 -104 -31 -139 -89l-32 25c49 69 105 101 172 101c92 0 147 -61 121 -180l-45 -210
c-4 -20 -7 -35 -7 -50c0 -39 20 -53 65 -53c6 0 12 0 19 1zM334 188l16 74c-11 1 -21 1 -31 1c-157 0 -252 -53 -252 -153c0 -53 39 -82 90 -82c93 0 161 88 177 160zM422 596l-212 89l18 39l208 -97z" />
    <glyph glyph-name="aacute.alt" horiz-adv-x="476" 
d="M441 35l-8 -39s-6 -1 -18 -1c-70 0 -94 44 -94 99h-2c-33 -54 -87 -104 -167 -104c-79 0 -125 52 -125 120c0 130 130 194 331 190l11 48c21 98 -21 142 -82 142c-58 0 -104 -31 -139 -89l-32 25c49 69 105 101 172 101c92 0 147 -61 121 -180l-45 -210
c-4 -20 -7 -35 -7 -50c0 -39 20 -53 65 -53c6 0 12 0 19 1zM334 188l16 74c-11 1 -21 1 -31 1c-157 0 -252 -53 -252 -153c0 -53 39 -82 90 -82c93 0 161 88 177 160zM439 685l-212 -89l-14 31l208 97z" />
    <glyph glyph-name="acircumflex.alt" horiz-adv-x="476" 
d="M441 35l-8 -39s-6 -1 -18 -1c-70 0 -94 44 -94 99h-2c-33 -54 -87 -104 -167 -104c-79 0 -125 52 -125 120c0 130 130 194 331 190l11 48c21 98 -21 142 -82 142c-58 0 -104 -31 -139 -89l-32 25c49 69 105 101 172 101c92 0 147 -61 121 -180l-45 -210
c-4 -20 -7 -35 -7 -50c0 -39 20 -53 65 -53c6 0 12 0 19 1zM334 188l16 74c-11 1 -21 1 -31 1c-157 0 -252 -53 -252 -153c0 -53 39 -82 90 -82c93 0 161 88 177 160zM435 615l-30 -24l-27 35c-23 29 -46 65 -46 65h-2s-35 -34 -61 -56l-57 -47l-23 30l147 120h2z" />
    <glyph glyph-name="atilde.alt" horiz-adv-x="476" 
d="M441 35l-8 -39s-6 -1 -18 -1c-70 0 -94 44 -94 99h-2c-33 -54 -87 -104 -167 -104c-79 0 -125 52 -125 120c0 130 130 194 331 190l11 48c21 98 -21 142 -82 142c-58 0 -104 -31 -139 -89l-32 25c49 69 105 101 172 101c92 0 147 -61 121 -180l-45 -210
c-4 -20 -7 -35 -7 -50c0 -39 20 -53 65 -53c6 0 12 0 19 1zM334 188l16 74c-11 1 -21 1 -31 1c-157 0 -252 -53 -252 -153c0 -53 39 -82 90 -82c93 0 161 88 177 160zM451 708l38 -5c-15 -67 -39 -108 -104 -108c-67 0 -95 77 -143 77c-43 0 -57 -42 -64 -75l-38 5
c14 67 43 108 103 108c67 0 94 -78 142 -78c44 0 59 43 66 76z" />
    <glyph glyph-name="adieresis.alt" horiz-adv-x="476" 
d="M441 35l-8 -39s-6 -1 -18 -1c-70 0 -94 44 -94 99h-2c-33 -54 -87 -104 -167 -104c-79 0 -125 52 -125 120c0 130 130 194 331 190l11 48c21 98 -21 142 -82 142c-58 0 -104 -31 -139 -89l-32 25c49 69 105 101 172 101c92 0 147 -61 121 -180l-45 -210
c-4 -20 -7 -35 -7 -50c0 -39 20 -53 65 -53c6 0 12 0 19 1zM334 188l16 74c-11 1 -21 1 -31 1c-157 0 -252 -53 -252 -153c0 -53 39 -82 90 -82c93 0 161 88 177 160zM280 633c0 -15 -12 -26 -27 -26s-26 11 -26 26s11 27 26 27s27 -12 27 -27zM420 633
c0 -15 -12 -26 -27 -26s-26 11 -26 26s11 27 26 27s27 -12 27 -27z" />
    <glyph glyph-name="aring.alt" horiz-adv-x="476" 
d="M441 35l-8 -39s-6 -1 -18 -1c-70 0 -94 44 -94 99h-2c-33 -54 -87 -104 -167 -104c-79 0 -125 52 -125 120c0 130 130 194 331 190l11 48c21 98 -21 142 -82 142c-58 0 -104 -31 -139 -89l-32 25c49 69 105 101 172 101c92 0 147 -61 121 -180l-45 -210
c-4 -20 -7 -35 -7 -50c0 -39 20 -53 65 -53c6 0 12 0 19 1zM334 188l16 74c-11 1 -21 1 -31 1c-157 0 -252 -53 -252 -153c0 -53 39 -82 90 -82c93 0 161 88 177 160zM386 650c0 -36 -25 -74 -77 -74c-44 0 -65 29 -65 60c0 37 26 76 78 76c43 0 64 -30 64 -62zM311 606
c28 0 43 21 43 43c0 17 -11 33 -34 33c-28 0 -44 -21 -44 -44c0 -17 11 -32 35 -32z" />
    <glyph glyph-name="zero.osf" horiz-adv-x="538" 
d="M248 -10h2c-126 0 -194 87 -194 218c0 174 95 318 255 318c126 0 194 -87 194 -218c0 -174 -95 -318 -257 -318zM252 28c142 0 213 140 213 281c0 122 -65 179 -156 179c-142 0 -213 -140 -213 -281c0 -122 65 -179 156 -179z" />
    <glyph glyph-name="one.osf" horiz-adv-x="272" 
d="M125 0h-41l102 478h-78l8 38h119z" />
    <glyph glyph-name="two.osf" horiz-adv-x="479" 
d="M379 0h-348l8 35l257 197c53 41 108 84 108 155c0 54 -33 101 -106 101c-85 0 -135 -62 -165 -141l-38 14c36 95 107 165 203 165c95 0 147 -62 147 -139c0 -76 -48 -131 -128 -190l-153 -112c-31 -22 -69 -45 -69 -45v-2h292z" />
    <glyph glyph-name="three.osf" horiz-adv-x="484" 
d="M491 481l-156 -141c-32 -29 -65 -56 -65 -56l1 -2c105 -5 162 -70 162 -156c0 -108 -73 -211 -214 -211c-105 0 -178 51 -194 152l41 8c15 -88 75 -122 150 -122c119 0 177 84 177 173c0 84 -71 129 -154 123l-21 35l141 129c40 36 75 63 75 63v2h-290l8 38h347z" />
    <glyph glyph-name="four.osf" horiz-adv-x="390" 
d="M234 -75h-40l34 162h-229l8 36l315 407h40l-86 -405h106l-8 -38h-106zM236 125l53 251c9 45 22 88 22 88h-2s-27 -40 -54 -75l-154 -202c-25 -33 -51 -60 -51 -60v-2h186z" />
    <glyph glyph-name="five.osf" horiz-adv-x="477" 
d="M31 34l39 12c12 -58 62 -93 123 -93c113 0 183 86 183 193c0 71 -41 120 -126 120c-52 0 -91 -20 -118 -38l-33 17l88 270h256l-8 -41h-221l-39 -116c-13 -39 -31 -87 -31 -87l2 -1c24 15 62 34 111 34c106 0 159 -73 159 -156c0 -128 -82 -233 -225 -233
c-90 0 -146 52 -160 119z" />
    <glyph glyph-name="six.osf" horiz-adv-x="450" 
d="M431 477l-39 -11c-14 55 -49 96 -119 96c-121 0 -172 -125 -193 -271h2c27 65 85 98 149 98c78 0 163 -44 163 -167c0 -95 -62 -232 -200 -232c-124 0 -162 96 -162 198c0 34 4 69 9 102c26 170 88 309 235 309c90 0 138 -52 155 -122zM196 26c103 0 158 107 158 195
c0 90 -55 130 -125 130c-92 0 -159 -80 -159 -160c0 -83 31 -165 126 -165z" />
    <glyph glyph-name="seven.osf" horiz-adv-x="387" 
d="M87 -75h-46l325 553h-283l8 38h340z" />
    <glyph glyph-name="eight.osf" horiz-adv-x="451" 
d="M311 325v-2c70 -20 104 -77 104 -138c0 -112 -81 -195 -204 -195c-110 0 -171 65 -171 153c0 93 66 168 163 186v2c-44 15 -74 54 -74 106c0 94 75 163 169 163c86 0 139 -58 139 -131c0 -78 -60 -131 -126 -144zM374 181c0 64 -42 130 -131 130
c-98 0 -162 -80 -162 -164c0 -68 40 -120 134 -120c97 0 159 68 159 154zM396 467c0 56 -41 95 -102 95c-70 0 -125 -51 -125 -124c0 -50 26 -94 95 -94c80 0 132 59 132 123z" />
    <glyph glyph-name="nine.osf" horiz-adv-x="450" 
d="M379 223h-2c-27 -65 -85 -98 -149 -98c-78 0 -163 44 -163 167c0 95 62 232 200 232c124 0 162 -96 162 -198c0 -34 -4 -69 -9 -102c-26 -170 -88 -309 -235 -309c-90 0 -138 52 -155 122l39 11c14 -55 49 -96 119 -96c121 0 172 125 193 271zM230 163
c92 0 159 80 159 160c0 83 -31 165 -126 165c-103 0 -158 -107 -158 -195c0 -90 55 -130 125 -130z" />
    <glyph glyph-name="a.alt" horiz-adv-x="476" 
d="M441 35l-8 -39s-6 -1 -18 -1c-70 0 -94 44 -94 99h-2c-33 -54 -87 -104 -167 -104c-79 0 -125 52 -125 120c0 130 130 194 331 190l11 48c21 98 -21 142 -82 142c-58 0 -104 -31 -139 -89l-32 25c49 69 105 101 172 101c92 0 147 -61 121 -180l-45 -210
c-4 -20 -7 -35 -7 -50c0 -39 20 -53 65 -53c6 0 12 0 19 1zM334 188l16 74c-11 1 -21 1 -31 1c-157 0 -252 -53 -252 -153c0 -53 39 -82 90 -82c93 0 161 88 177 160z" />
    <glyph glyph-name="dollar.osf" horiz-adv-x="449" 
d="M134 -100h-38l34 105c-45 15 -85 42 -108 84l34 22c30 -55 101 -83 165 -83c77 0 125 46 125 103c0 122 -256 107 -254 260c1 80 69 133 162 133c15 0 29 -2 43 -4l33 104h39l-37 -113c41 -14 76 -38 102 -69l-30 -26c-32 42 -89 70 -151 70c-67 0 -121 -33 -121 -95
c0 -118 254 -110 254 -258c0 -85 -63 -143 -165 -143c-19 0 -38 2 -56 6z" />
    <glyph glyph-name="sterling.osf" horiz-adv-x="518" 
d="M387 53l18 -33c-31 -22 -64 -30 -94 -30c-50 0 -108 21 -162 21c-28 0 -55 -6 -80 -22l-13 25c40 31 86 78 98 139l6 30h-73l8 38h70c13 127 13 305 173 305c98 0 139 -68 143 -138l-40 -4c-4 58 -32 104 -104 104c-125 0 -119 -139 -134 -267h150l-8 -38h-147l-6 -30
c-11 -56 -42 -98 -73 -117v-2c17 5 36 9 53 9c46 0 91 -13 135 -13c27 0 54 5 80 23z" />
    <glyph glyph-name="Euro.osf" horiz-adv-x="430" 
d="M335 111l31 -23c-38 -58 -91 -98 -160 -98c-103 0 -149 89 -150 199h-50l7 34h44c1 18 3 37 7 56h-39l7 34h40c30 112 101 213 210 213c79 0 123 -53 140 -126l-38 -12c-14 63 -49 100 -105 100c-81 0 -140 -80 -167 -175h133l-7 -34h-134c-3 -19 -6 -37 -7 -56h129
l-7 -34h-123c1 -100 40 -161 112 -161c53 0 96 33 127 83z" />
    <glyph glyph-name="yen.osf" horiz-adv-x="433" 
d="M331 133h-116l-28 -133h-36l28 133h-126l7 34h126l2 9l-16 57h-98l7 34h81l-68 249h41l56 -212c11 -41 21 -91 21 -91h2s27 48 54 89l145 214h49l-175 -249h72l-7 -34h-89l-39 -57l-2 -9h116z" />
    <glyph glyph-name="CR" unicode="&#xd;" horiz-adv-x="260" 
 />
    <glyph glyph-name="uni00A0" unicode="&#xa0;" horiz-adv-x="260" 
 />
    </font>
</defs>
</svg>
