<svg xmlns="http://www.w3.org/2000/svg" viewBox="0 0 939.2 459.83"><defs><style>.cls-1{isolation:isolate;}.cls-2{opacity:0.5;mix-blend-mode:multiply;}.cls-3,.cls-4{fill:none;stroke-miterlimit:10;stroke-width:5.28px;stroke-dasharray:21.14 21.14;}.cls-3{stroke:#1f191a;}.cls-4{stroke:#f0eff1;}</style></defs><title>lines</title><g class="cls-1"><g id="Layer_1" data-name="Layer 1"><g id="_Group_" data-name="&lt;Group&gt;" class="cls-2"><g id="_Group_2" data-name="&lt;Group&gt;"><path id="_Path_" data-name="&lt;Path&gt;" class="cls-3" d="M906.57,470.83S867.89,52.57,512.13,52.57c0,0-36.47-10.73-81.67-22.72" transform="translate(-8.43 -12.58)"/></g></g><g id="_Group_3" data-name="&lt;Group&gt;" class="cls-2"><g id="_Group_4" data-name="&lt;Group&gt;"><path id="_Path_2" data-name="&lt;Path&gt;" class="cls-3" d="M906.57,470.83S584.15,38.53,98.09,151.26c0,0-40.9,9.17-89-3.31" transform="translate(-8.43 -12.58)"/></g></g><g id="_Group_5" data-name="&lt;Group&gt;" class="cls-2"><g id="_Group_6" data-name="&lt;Group&gt;"><path id="_Path_3" data-name="&lt;Path&gt;" class="cls-3" d="M904.95,457.36c45.76,18.35,6.69-223.7-89.68-236.92,0,0-40.47-3.46-86.27-27.14" transform="translate(-8.43 -12.58)"/></g></g><path id="_Path_4" data-name="&lt;Path&gt;" class="cls-4" d="M909.34,468.34S944.68-27.87,514.27,18.25c0,0-36.47,2.15-83.82,5.93" transform="translate(-8.43 -12.58)"/><path id="_Path_5" data-name="&lt;Path&gt;" class="cls-4" d="M20.86,140.53L84,131.63C679.51-14.31,904.95,457.36,904.95,457.36" transform="translate(-8.43 -12.58)"/><g id="_Group_7" data-name="&lt;Group&gt;"><path id="_Path_6" data-name="&lt;Path&gt;" class="cls-4" d="M909.34,468.34s121.85-170.29-85.05-260L729,187.63" transform="translate(-8.43 -12.58)"/></g></g></g></svg>