<svg id="Layer_1" data-name="Layer 1" xmlns="http://www.w3.org/2000/svg" xmlns:xlink="http://www.w3.org/1999/xlink" viewBox="0 0 635.78 333.99"><defs><style>.cls-1,.cls-5{fill:none;}.cls-2{isolation:isolate;}.cls-3{fill:#034e75;}.cls-4{clip-path:url(#clip-path);}.cls-5{stroke:#034e75;stroke-width:0.3px;}</style><clipPath id="clip-path" transform="translate(-15.84 -0.01)"><rect class="cls-1" x="-225.24" y="-6.97" width="1018.38" height="361.45"/></clipPath></defs><title>bar-chart</title><metadata><?xpacket begin="﻿" id="W5M0MpCehiHzreSzNTczkc9d"?>
<x:xmpmeta xmlns:x="adobe:ns:meta/" x:xmptk="Adobe XMP Core 5.6-c111 79.158366, 2015/09/25-01:12:00        ">
   <rdf:RDF xmlns:rdf="http://www.w3.org/1999/02/22-rdf-syntax-ns#">
      <rdf:Description rdf:about=""
            xmlns:dc="http://purl.org/dc/elements/1.1/">
         <dc:title>
            <rdf:Alt>
               <rdf:li xml:lang="x-default">bar-chart</rdf:li>
            </rdf:Alt>
         </dc:title>
      </rdf:Description>
   </rdf:RDF>
</x:xmpmeta>
                                                                                                    
                                                                                                    
                                                                                                    
                                                                                                    
                                                                                                    
                                                                                                    
                                                                                                    
                                                                                                    
                                                                                                    
                                                                                                    
                                                                                                    
                                                                                                    
                                                                                                    
                                                                                                    
                                                                                                    
                                                                                                    
                                                                                                    
                                                                                                    
                                                                                                    
                                                                                                    
                           
<?xpacket end="w"?></metadata>
<g class="cls-2"><g class="cls-2"><path class="cls-3" d="M19,334c-2.11,0-3.2-1.72-3.2-4.19s1.12-4.21,3.23-4.21,3.2,1.72,3.2,4.19S21.15,334,19,334Zm0-7.22c-1.42,0-2,1.29-2,3s0.57,3,2,3,2-1.29,2-3S20.47,326.78,19,326.78Z" transform="translate(-15.84 -0.01)"/></g></g><g class="cls-2"><g class="cls-2"><path class="cls-3" d="M98,334a5.1,5.1,0,0,1-2.84-.8l0.59-1a4.94,4.94,0,0,0,2.28.63c1.27,0,1.93-.62,1.93-1.65a1.42,1.42,0,0,0-1.65-1.46,2.45,2.45,0,0,0-1.57.51l-1.3-.51,0.28-4h5v1.16H96.78l-0.16,2.06a3.5,3.5,0,0,1,1.76-.42,2.49,2.49,0,0,1,2.81,2.57C101.18,333.09,99.85,334,98,334Z" transform="translate(-15.84 -0.01)"/></g></g><g class="cls-2"><path class="cls-3" d="M168.83,334c-2.11,0-3.2-1.72-3.2-4.19s1.12-4.21,3.23-4.21,3.2,1.72,3.2,4.19S170.94,334,168.83,334Zm0-7.22c-1.42,0-2,1.29-2,3s0.57,3,2,3,2-1.29,2-3S170.26,326.78,168.83,326.78Z" transform="translate(-15.84 -0.01)"/></g><g class="cls-2"><path class="cls-3" d="M162.67,333.87v-6.24h-1.44v-0.85a1.58,1.58,0,0,0,1.68-1.06h1v8.15h-1.22Z" transform="translate(-15.84 -0.01)"/></g><g class="cls-2"><path class="cls-3" d="M247.75,334a5.1,5.1,0,0,1-2.84-.8l0.59-1a4.94,4.94,0,0,0,2.28.63c1.27,0,1.93-.62,1.93-1.65a1.42,1.42,0,0,0-1.65-1.46,2.45,2.45,0,0,0-1.57.51l-1.3-.51,0.28-4h5v1.16h-3.91l-0.16,2.06a3.5,3.5,0,0,1,1.76-.42A2.49,2.49,0,0,1,251,331.1C251,333.09,249.64,334,247.75,334Z" transform="translate(-15.84 -0.01)"/></g><g class="cls-2"><path class="cls-3" d="M242,333.87v-6.24h-1.44v-0.85a1.58,1.58,0,0,0,1.68-1.06h1v8.15H242Z" transform="translate(-15.84 -0.01)"/></g><g class="cls-2"><path class="cls-3" d="M330.81,334c-2.11,0-3.2-1.72-3.2-4.19s1.12-4.21,3.22-4.21,3.2,1.72,3.2,4.19S332.92,334,330.81,334Zm0-7.22c-1.42,0-2,1.29-2,3s0.57,3,2,3,2-1.29,2-3S332.24,326.78,330.81,326.78Z" transform="translate(-15.84 -0.01)"/></g><g class="cls-2"><path class="cls-3" d="M320.16,333.87c0.08-2.39,1.53-3.45,3.13-4.4,1.11-.65,1.39-1,1.39-1.58s-0.44-1.07-1.56-1.07a3,3,0,0,0-2,.82l-0.78-.93a4.17,4.17,0,0,1,2.78-1.11c1.69,0,2.77.72,2.77,2.22,0,1.26-.62,1.79-2,2.64s-2,1.44-2.19,2.22H326v1.19h-5.84Z" transform="translate(-15.84 -0.01)"/></g><g class="cls-2"><path class="cls-3" d="M409.73,334a5.1,5.1,0,0,1-2.84-.8l0.59-1a4.94,4.94,0,0,0,2.28.63c1.27,0,1.93-.62,1.93-1.65A1.42,1.42,0,0,0,410,329.7a2.45,2.45,0,0,0-1.57.51l-1.3-.51,0.28-4h5v1.16h-3.91l-0.16,2.06a3.5,3.5,0,0,1,1.76-.42,2.49,2.49,0,0,1,2.81,2.57C412.94,333.09,411.62,334,409.73,334Z" transform="translate(-15.84 -0.01)"/></g><g class="cls-2"><path class="cls-3" d="M399.46,333.87c0.08-2.39,1.53-3.45,3.13-4.4,1.11-.65,1.39-1,1.39-1.58s-0.44-1.07-1.56-1.07a3,3,0,0,0-2,.82l-0.78-.93a4.17,4.17,0,0,1,2.78-1.11c1.69,0,2.77.72,2.77,2.22,0,1.26-.62,1.79-2,2.64s-2,1.44-2.19,2.22h4.32v1.19h-5.84Z" transform="translate(-15.84 -0.01)"/></g><g class="cls-2"><path class="cls-3" d="M489.16,334c-2.11,0-3.2-1.72-3.2-4.19s1.12-4.21,3.23-4.21,3.2,1.72,3.2,4.19S491.27,334,489.16,334Zm0-7.22c-1.42,0-2,1.29-2,3s0.57,3,2,3,2-1.29,2-3S490.59,326.78,489.16,326.78Z" transform="translate(-15.84 -0.01)"/></g><g class="cls-2"><path class="cls-3" d="M481.44,334a3.64,3.64,0,0,1-2.93-1.35l0.93-.79a2.56,2.56,0,0,0,2,.93c1.3,0,1.78-.5,1.78-1.34a1.25,1.25,0,0,0-1.48-1.22H481V329h0.75a1.07,1.07,0,0,0,1.15-1.12c0-.47-0.34-1.12-1.54-1.12a2.16,2.16,0,0,0-1.61.76l-0.91-.86a3.4,3.4,0,0,1,2.54-1.11c1.54,0,2.78.79,2.78,2.21a1.84,1.84,0,0,1-1,1.78,1.8,1.8,0,0,1,1.33,1.86C484.49,333.11,483.35,334,481.44,334Z" transform="translate(-15.84 -0.01)"/></g><g class="cls-2"><path class="cls-3" d="M568.08,334a5.1,5.1,0,0,1-2.84-.8l0.59-1a4.94,4.94,0,0,0,2.28.63c1.27,0,1.93-.62,1.93-1.65a1.42,1.42,0,0,0-1.65-1.46,2.44,2.44,0,0,0-1.57.51l-1.3-.51,0.28-4h5v1.16h-3.91l-0.16,2.06a3.5,3.5,0,0,1,1.76-.42,2.49,2.49,0,0,1,2.81,2.57C571.29,333.09,570,334,568.08,334Z" transform="translate(-15.84 -0.01)"/></g><g class="cls-2"><path class="cls-3" d="M560.74,334a3.64,3.64,0,0,1-2.93-1.35l0.93-.79a2.56,2.56,0,0,0,2,.93c1.3,0,1.78-.5,1.78-1.34a1.25,1.25,0,0,0-1.48-1.22h-0.76V329H561a1.07,1.07,0,0,0,1.15-1.12c0-.47-0.34-1.12-1.54-1.12a2.16,2.16,0,0,0-1.61.76l-0.91-.86a3.4,3.4,0,0,1,2.54-1.11c1.54,0,2.78.79,2.78,2.21a1.84,1.84,0,0,1-1,1.78,1.8,1.8,0,0,1,1.33,1.86C563.79,333.11,562.65,334,560.74,334Z" transform="translate(-15.84 -0.01)"/></g><g class="cls-2"><path class="cls-3" d="M648.39,334c-2.11,0-3.2-1.72-3.2-4.19s1.12-4.21,3.22-4.21,3.2,1.72,3.2,4.19S650.5,334,648.39,334Zm0-7.22c-1.42,0-2,1.29-2,3s0.57,3,2,3,2-1.29,2-3S649.82,326.78,648.39,326.78Z" transform="translate(-15.84 -0.01)"/></g><g class="cls-2"><path class="cls-3" d="M642.87,332v1.83h-1.19v-1.79h-4.41v-1.16l4.2-5.19h1.4V331H644V332h-1.08Zm-1.89-4-1.57,2c-0.24.31-.59,0.72-0.77,0.91h3v-2.38c0-.46,0-1.19,0-1.49C641.56,327.3,641.25,327.72,641,328.06Z" transform="translate(-15.84 -0.01)"/></g><g class="cls-4"><path class="cls-5" d="M599.52,125.32c7.44-2.57,11-8,11-16.4v-26c0-10.43,1.63-17.62,11.1-20.19V62.44c-8.94-2-11.1-8.13-11.1-18.3V16.23c0-8.71-3.11-13.55-10.89-16.08" transform="translate(-15.84 -0.01)"/><path class="cls-5" d="M599.52,310.67c7.44-2.57,11-8,11-16.4V239.2c0-10.43,1.63-17.62,11.1-20.19v-0.27c-8.94-2-11.1-8.13-11.1-18.3V144.18c0-8.71-3.11-13.55-10.89-16.09" transform="translate(-15.84 -0.01)"/></g></svg>