<svg id="Layer_1" data-name="Layer 1" xmlns="http://www.w3.org/2000/svg" viewBox="0 0 496.81 227.83"><defs><style>.cls-1{fill:#d9e4ea;}.cls-2,.cls-3,.cls-4,.cls-6,.cls-9{fill:none;stroke-miterlimit:10;}.cls-2,.cls-3,.cls-4,.cls-6{stroke:#004d74;}.cls-2,.cls-6,.cls-9{stroke-linecap:round;}.cls-2{stroke-width:0.3px;stroke-dasharray:4 3;}.cls-3{stroke-width:0.25px;}.cls-4{stroke-width:0.5px;}.cls-5{fill:#004d74;}.cls-7{fill:#b2d234;}.cls-8{fill:#f7931d;}.cls-9{stroke:#004d76;}.cls-10{opacity:0.9;}.cls-10,.cls-11{isolation:isolate;}</style></defs><title>data</title><metadata><?xpacket begin="﻿" id="W5M0MpCehiHzreSzNTczkc9d"?>
<x:xmpmeta xmlns:x="adobe:ns:meta/" x:xmptk="Adobe XMP Core 5.6-c111 79.158366, 2015/09/25-01:12:00        ">
   <rdf:RDF xmlns:rdf="http://www.w3.org/1999/02/22-rdf-syntax-ns#">
      <rdf:Description rdf:about=""
            xmlns:dc="http://purl.org/dc/elements/1.1/">
         <dc:title>
            <rdf:Alt>
               <rdf:li xml:lang="x-default">data</rdf:li>
            </rdf:Alt>
         </dc:title>
      </rdf:Description>
   </rdf:RDF>
</x:xmpmeta>
                                                                                                    
                                                                                                    
                                                                                                    
                                                                                                    
                                                                                                    
                                                                                                    
                                                                                                    
                                                                                                    
                                                                                                    
                                                                                                    
                                                                                                    
                                                                                                    
                                                                                                    
                                                                                                    
                                                                                                    
                                                                                                    
                                                                                                    
                                                                                                    
                                                                                                    
                                                                                                    
                           
<?xpacket end="w"?></metadata>
<rect class="cls-1" x="198.92" y="18.9" width="75.73" height="179.53"/><line class="cls-2" x1="431.24" y1="23.64" x2="431.24" y2="197.69"/><line class="cls-3" x1="431.24" y1="201.74" x2="431.24" y2="198.17"/><line class="cls-4" x1="120.08" y1="198.17" x2="496.81" y2="198.17"/><line class="cls-4" x1="124.51" y1="216.17" x2="426.72" y2="216.17"/><polygon class="cls-5" points="125.5 217.62 120.08 216.17 125.5 214.72 125.5 217.62"/><line class="cls-4" x1="435.81" y1="216.17" x2="491.75" y2="216.17"/><polygon class="cls-5" points="490.76 217.62 496.18 216.17 490.76 214.72 490.76 217.62"/><line class="cls-4" x1="151.2" y1="201.74" x2="151.2" y2="198.17"/><line class="cls-4" x1="182.73" y1="201.74" x2="182.73" y2="198.17"/><line class="cls-4" x1="213.66" y1="201.69" x2="213.66" y2="198.12"/><line class="cls-4" x1="244.74" y1="201.74" x2="244.74" y2="198.17"/><line class="cls-4" x1="275.66" y1="201.74" x2="275.66" y2="198.17"/><line class="cls-4" x1="307.06" y1="201.74" x2="307.06" y2="198.17"/><line class="cls-4" x1="338" y1="201.74" x2="338" y2="198.17"/><line class="cls-4" x1="369.08" y1="201.74" x2="369.08" y2="198.17"/><line class="cls-4" x1="399.86" y1="201.74" x2="399.86" y2="198.17"/><line class="cls-6" x1="196.42" y1="26.71" x2="274.16" y2="26.71"/><ellipse class="cls-7" cx="229.89" cy="26.71" rx="3.82" ry="3.5"/><line class="cls-6" x1="132.23" y1="45.82" x2="204.51" y2="45.82"/><ellipse class="cls-8" cx="153.43" cy="45.82" rx="2.73" ry="2.5"/><line class="cls-6" x1="139.25" y1="55.42" x2="205.6" y2="55.42"/><ellipse class="cls-8" cx="162.05" cy="55.42" rx="2.73" ry="2.5"/><line class="cls-6" x1="185.62" y1="84.47" x2="414.43" y2="84.47"/><ellipse class="cls-8" cx="260.2" cy="84.47" rx="2.73" ry="2.5"/><line class="cls-6" x1="216.24" y1="65.01" x2="333.75" y2="65.01"/><ellipse class="cls-8" cx="266.2" cy="65.01" rx="3.28" ry="3"/><line class="cls-6" x1="200.89" y1="131.75" x2="283.4" y2="131.75"/><ellipse class="cls-8" cx="236.39" cy="131.75" rx="3.57" ry="3.48"/><line class="cls-6" x1="201.11" y1="160.4" x2="305.11" y2="160.4"/><ellipse class="cls-8" cx="245.66" cy="160.4" rx="3.28" ry="3.02"/><line class="cls-6" x1="158.06" y1="94.07" x2="235.44" y2="94.07"/><ellipse class="cls-8" cx="187.33" cy="94.07" rx="2.8" ry="2.65"/><line class="cls-6" x1="200.89" y1="122.14" x2="279.5" y2="122.14"/><ellipse class="cls-8" cx="233.25" cy="122.14" rx="2.8" ry="2.65"/><line class="cls-9" x1="161.55" y1="151.53" x2="265.08" y2="151.53"/><ellipse class="cls-8" cx="199.23" cy="151.53" rx="2.24" ry="2.1"/><line class="cls-6" x1="183.44" y1="179.81" x2="294" y2="179.81"/><ellipse class="cls-8" cx="225.93" cy="179.81" rx="2.24" ry="2.09"/><line class="cls-6" x1="192.49" y1="188.82" x2="300.86" y2="188.82"/><ellipse class="cls-8" cx="235.3" cy="188.82" rx="2.24" ry="2.09"/><line class="cls-6" x1="221.28" y1="103.66" x2="435.86" y2="103.66"/><ellipse class="cls-8" cx="298.63" cy="103.66" rx="2.24" ry="2.09"/><g class="cls-10"><g class="cls-10"><path class="cls-5" d="M2.3,30.18C1,30.18.22,29.09,0.51,27.51a2.57,2.57,0,0,1,2.4-2.39c1.32,0,2,1.11,1.75,2.67A2.57,2.57,0,0,1,2.3,30.18Zm0.5-4.35a1.79,1.79,0,0,0-1.54,1.72c-0.2,1.13.27,1.92,1.09,1.92a1.77,1.77,0,0,0,1.57-1.72C4.12,26.6,3.64,25.83,2.8,25.83Z" transform="translate(-0.28 -0.97)"/></g><g class="cls-11"><path class="cls-5" d="M6.68,30.1H6L5.35,26.42H6.1l0.34,2.3c0,0.14,0,.4,0,0.49,0-.09.15-0.35,0.22-0.49l1.16-2.3H8.65Z" transform="translate(-0.28 -0.97)"/></g><g class="cls-11"><path class="cls-5" d="M11.64,28.51H9.31a0.83,0.83,0,0,0,.85,1A1.55,1.55,0,0,0,11,29.24l0.31,0.5a2,2,0,0,1-1.24.43,1.46,1.46,0,0,1-1.44-1.79,1.93,1.93,0,0,1,1.79-2,1.31,1.31,0,0,1,1.33,1.48A2.61,2.61,0,0,1,11.64,28.51ZM10.32,27a1,1,0,0,0-.92.93H11A0.73,0.73,0,0,0,10.32,27Z" transform="translate(-0.28 -0.97)"/></g><g class="cls-11"><path class="cls-5" d="M14.7,27.25a0.82,0.82,0,0,0-.52-0.17,0.94,0.94,0,0,0-.9,1l-0.35,2H12.21l0.65-3.68h0.72l-0.06.34a1.13,1.13,0,0,1,.86-0.41,0.91,0.91,0,0,1,.62.2Z" transform="translate(-0.28 -0.97)"/></g><g class="cls-11"><path class="cls-5" d="M17.93,27.66L17.5,30.1H16.8l0.06-.33a1.38,1.38,0,0,1-1,.41A1,1,0,0,1,14.72,29a1.39,1.39,0,0,1,1.54-1.25,2.23,2.23,0,0,1,.91.18l0-.27a1.22,1.22,0,0,0,0-.21c0-.32-0.21-0.45-0.67-0.45a2.09,2.09,0,0,0-.94.23l-0.2-.57a2.85,2.85,0,0,1,1.23-.3,1.06,1.06,0,0,1,1.3,1A2.28,2.28,0,0,1,17.93,27.66Zm-1.7.67a0.7,0.7,0,0,0-.81.65,0.54,0.54,0,0,0,.64.58A1.27,1.27,0,0,0,17,29.11l0.1-.6A1.79,1.79,0,0,0,16.23,28.33Z" transform="translate(-0.28 -0.97)"/><path class="cls-5" d="M18.54,30.1l0.83-4.73L20.16,25l-0.9,5.11H18.54Z" transform="translate(-0.28 -0.97)"/><path class="cls-5" d="M20.39,30.1l0.83-4.73L22,25l-0.9,5.11H20.39Z" transform="translate(-0.28 -0.97)"/></g><g class="cls-11"><path class="cls-5" d="M2.86,39.6H0.63V34.7H2.88A1.32,1.32,0,0,1,4.43,36a1.08,1.08,0,0,1-.52,1A1.12,1.12,0,0,1,4.6,38,1.53,1.53,0,0,1,2.86,39.6Zm0-4H1.59v0.93h1.3a0.45,0.45,0,0,0,.55-0.46C3.44,35.76,3.26,35.6,2.84,35.6Zm0.06,1.8H1.59v1.27h1.3A0.61,0.61,0,0,0,3.59,38,0.59,0.59,0,0,0,2.89,37.4Z" transform="translate(-0.28 -0.97)"/><path class="cls-5" d="M8.44,39.6L7.57,37.84h-1V39.6h-1V34.7H7.88a1.52,1.52,0,0,1,1.69,1.55,1.4,1.4,0,0,1-.94,1.44L9.57,39.6H8.44Zm-0.58-4H6.58v1.26H7.86a0.6,0.6,0,0,0,.7-0.64A0.59,0.59,0,0,0,7.86,35.65Z" transform="translate(-0.28 -0.97)"/></g><g class="cls-11"><path class="cls-5" d="M13.05,36.13a0.93,0.93,0,0,0-.9-0.53A1.31,1.31,0,0,0,11,37.15a1.33,1.33,0,0,0,1.16,1.55,1,1,0,0,0,1-.62l0.83,0.49a1.87,1.87,0,0,1-1.81,1.11c-1.28,0-2.14-1-2.14-2.53a2.27,2.27,0,0,1,2.18-2.53A1.85,1.85,0,0,1,14,35.71Z" transform="translate(-0.28 -0.97)"/></g><g class="cls-11"><path class="cls-5" d="M17.9,39.6l-0.39-1.09H15.73L15.34,39.6H14.29l1.88-4.9h1L19,39.6H17.9Zm-1-2.91c-0.1-.29-0.2-0.58-0.25-0.76,0,0.18-.15.48-0.25,0.76l-0.31.89h1.12Z" transform="translate(-0.28 -0.97)"/><path class="cls-5" d="M26.06,39.6v-2c0-.66-0.19-0.85-0.59-0.85s-0.6.2-.6,0.83v2h-1v-2c0-.66-0.19-0.85-0.59-0.85s-0.6.2-.6,0.83v2h-1V35.92h1v0.25a1.06,1.06,0,0,1,.81-0.32,1.15,1.15,0,0,1,1,.47,1.46,1.46,0,0,1,1.17-.47c0.94,0,1.31.64,1.31,1.68V39.6h-1Z" transform="translate(-0.28 -0.97)"/><path class="cls-5" d="M30.11,39.6V39.35a1.21,1.21,0,0,1-.86.32c-0.94,0-1.36-.64-1.36-1.68V35.92h1v2c0,0.66.22,0.85,0.62,0.85s0.63-.2.63-0.83v-2h1V39.6h-1Z" transform="translate(-0.28 -0.97)"/></g><g class="cls-11"><path class="cls-5" d="M33.37,39.45a1.29,1.29,0,0,1-.75.22,1,1,0,0,1-1-1.11V36.83H31V35.92h0.62V35l1-.48v1.43h0.88v0.91H32.61v1.48c0,0.35.13,0.44,0.36,0.44a0.83,0.83,0,0,0,.55-0.28Z" transform="translate(-0.28 -0.97)"/></g><g class="cls-11"><path class="cls-5" d="M36.15,39.6V39.35a1.17,1.17,0,0,1-.83.32,1.28,1.28,0,1,1,.12-2.53,1.54,1.54,0,0,1,.71.15V37.11a0.47,0.47,0,0,0-.52-0.47,1.82,1.82,0,0,0-1,.25l-0.37-.67a2.47,2.47,0,0,1,1.38-.37,1.3,1.3,0,0,1,1.49,1.29V39.6h-1Zm0-1.54a1.12,1.12,0,0,0-.67-0.15,0.47,0.47,0,0,0-.56.46,0.48,0.48,0,0,0,.56.49,0.79,0.79,0,0,0,.67-0.34V38.06Z" transform="translate(-0.28 -0.97)"/><path class="cls-5" d="M40.07,39.45a1.29,1.29,0,0,1-.75.22,1,1,0,0,1-1-1.11V36.83H37.73V35.92h0.62V35l1-.48v1.43h0.88v0.91H39.31v1.48c0,0.35.13,0.44,0.36,0.44a0.83,0.83,0,0,0,.55-0.28Z" transform="translate(-0.28 -0.97)"/><path class="cls-5" d="M41.63,35.62a0.55,0.55,0,1,1,.55-0.55A0.56,0.56,0,0,1,41.63,35.62Zm-0.48,4V35.92h1V39.6h-1Z" transform="translate(-0.28 -0.97)"/><path class="cls-5" d="M44.56,39.68a1.93,1.93,0,1,1,1.67-1.91A1.73,1.73,0,0,1,44.56,39.68Zm0-2.9a1.05,1.05,0,0,0,0,2,0.83,0.83,0,0,0,.69-1A0.81,0.81,0,0,0,44.56,36.78Z" transform="translate(-0.28 -0.97)"/><path class="cls-5" d="M49.19,39.6v-2c0-.66-0.22-0.85-0.62-0.85s-0.63.2-.63,0.83v2H47V35.92h1v0.25a1.2,1.2,0,0,1,.86-0.32c0.94,0,1.36.64,1.36,1.68V39.6h-1Z" transform="translate(-0.28 -0.97)"/></g><g class="cls-11"><path class="cls-5" d="M6.78,47.17L6.44,49.1H5.71l0.34-1.94-1.22-3H5.65l0.5,1.28c0.13,0.33.29,0.77,0.37,1,0.16-.23.46-0.67,0.71-1l1-1.28H9.06Z" transform="translate(-0.28 -0.97)"/></g><g class="cls-11"><path class="cls-5" d="M11.16,47.51H8.83a0.83,0.83,0,0,0,.85,1,1.55,1.55,0,0,0,.83-0.29l0.31,0.5a2,2,0,0,1-1.24.43,1.46,1.46,0,0,1-1.44-1.79,1.93,1.93,0,0,1,1.79-2,1.31,1.31,0,0,1,1.33,1.48A2.61,2.61,0,0,1,11.16,47.51ZM9.84,46a1,1,0,0,0-.92.93h1.65A0.73,0.73,0,0,0,9.84,46Z" transform="translate(-0.28 -0.97)"/></g><g class="cls-11"><path class="cls-5" d="M14.3,46.36a1.68,1.68,0,0,0-1-.38,0.41,0.41,0,0,0-.5.34c0,0.21.07,0.31,0.68,0.59a1.16,1.16,0,0,1,1,1.17A1.21,1.21,0,0,1,13,49.18a2.17,2.17,0,0,1-1.48-.55l0.38-.53a1.73,1.73,0,0,0,1.16.44,0.5,0.5,0,0,0,.6-0.42c0-.21-0.1-0.35-0.62-0.57C12.34,47.24,12,47,12,46.37a1.12,1.12,0,0,1,1.27-1,2.19,2.19,0,0,1,1.34.44Z" transform="translate(-0.28 -0.97)"/></g><g class="cls-11"><path class="cls-5" d="M7.59,54.88a1.49,1.49,0,0,0-1.2-.56,0.72,0.72,0,0,0-.83.61c0,0.33.15,0.51,1,.83s1.38,0.7,1.3,1.55A1.6,1.6,0,0,1,6,58.68a2.16,2.16,0,0,1-1.85-.9l0.59-.48A1.63,1.63,0,0,0,6.13,58a0.83,0.83,0,0,0,1-.7c0-.37-0.22-0.59-1-0.9s-1.3-.67-1.23-1.47a1.5,1.5,0,0,1,1.69-1.27,2,2,0,0,1,1.66.76Z" transform="translate(-0.28 -0.97)"/><path class="cls-5" d="M10.84,55.58H10l-0.34,2a1.08,1.08,0,0,0,0,.2,0.27,0.27,0,0,0,.33.27,0.87,0.87,0,0,0,.53-0.16l-0.21.69a1.28,1.28,0,0,1-.58.14,0.7,0.7,0,0,1-.81-0.74,1.77,1.77,0,0,1,0-.25l0.37-2.11H8.74l0.12-.66H9.38l0.18-1,0.78-.39-0.25,1.43H11Z" transform="translate(-0.28 -0.97)"/></g><g class="cls-11"><path class="cls-5" d="M14.07,56.16L13.64,58.6H12.94L13,58.27a1.38,1.38,0,0,1-1,.41,1,1,0,0,1-1.16-1.19,1.39,1.39,0,0,1,1.54-1.25,2.23,2.23,0,0,1,.91.18l0-.27a1.22,1.22,0,0,0,0-.21c0-.32-0.21-0.45-0.67-0.45a2.09,2.09,0,0,0-.94.23l-0.2-.57a2.85,2.85,0,0,1,1.23-.3,1.06,1.06,0,0,1,1.3,1A2.28,2.28,0,0,1,14.07,56.16Zm-1.7.67a0.7,0.7,0,0,0-.81.65,0.54,0.54,0,0,0,.64.58,1.27,1.27,0,0,0,.91-0.45l0.1-.6A1.79,1.79,0,0,0,12.37,56.83Z" transform="translate(-0.28 -0.97)"/></g><g class="cls-11"><path class="cls-5" d="M16.86,55.58H16l-0.34,2a1.08,1.08,0,0,0,0,.2A0.27,0.27,0,0,0,16,58a0.87,0.87,0,0,0,.53-0.16l-0.21.69a1.28,1.28,0,0,1-.58.14,0.7,0.7,0,0,1-.81-0.74,1.77,1.77,0,0,1,0-.25l0.37-2.11H14.76l0.12-.66h0.52l0.18-1,0.78-.39-0.25,1.43H17Z" transform="translate(-0.28 -0.97)"/></g><g class="cls-11"><path class="cls-5" d="M17.36,57.07l0.38-2.14h0.72L18.1,57a2.27,2.27,0,0,0,0,.36,0.55,0.55,0,0,0,.6.68,1,1,0,0,0,.92-1l0.36-2h0.72L20,58.6H19.29l0.06-.32a1.22,1.22,0,0,1-.91.39,1,1,0,0,1-1.13-1.14A2.91,2.91,0,0,1,17.36,57.07Z" transform="translate(-0.28 -0.97)"/><path class="cls-5" d="M23.73,55.86a1.68,1.68,0,0,0-1-.38,0.41,0.41,0,0,0-.5.34c0,0.21.07,0.31,0.68,0.59a1.16,1.16,0,0,1,1,1.17,1.21,1.21,0,0,1-1.37,1.09A2.17,2.17,0,0,1,21,58.13l0.38-.53a1.73,1.73,0,0,0,1.16.44,0.5,0.5,0,0,0,.6-0.42c0-.21-0.1-0.35-0.62-0.57-0.73-.32-1.07-0.57-1-1.18a1.12,1.12,0,0,1,1.27-1,2.19,2.19,0,0,1,1.34.44Z" transform="translate(-0.28 -0.97)"/><path class="cls-5" d="M27.36,57.51l-0.2,1.09H26.44l0.83-4.73,0.79-.38-0.42,2.37c0,0.26-.11.57-0.13,0.65l0.29-.34L29,54.92h0.83l-1.16,1.23L29.3,58.6H28.57l-0.49-1.85Z" transform="translate(-0.28 -0.97)"/><path class="cls-5" d="M33.42,56.46L33,58.6H32.32l0.36-2.05a2.29,2.29,0,0,0,0-.36,0.55,0.55,0,0,0-.6-0.68,1,1,0,0,0-.92,1l-0.36,2H30.11l0.65-3.68h0.72l-0.06.32a1.22,1.22,0,0,1,.91-0.39A1,1,0,0,1,33.47,56,2.86,2.86,0,0,1,33.42,56.46Z" transform="translate(-0.28 -0.97)"/></g><g class="cls-11"><path class="cls-5" d="M34.89,58.68a1.5,1.5,0,0,1-1.47-1.8,2,2,0,0,1,1.83-2,1.5,1.5,0,0,1,1.48,1.81A2,2,0,0,1,34.89,58.68Zm0.29-3.14a1.25,1.25,0,0,0-1,1.37A0.86,0.86,0,0,0,35,58,1.26,1.26,0,0,0,36,56.63,0.87,0.87,0,0,0,35.19,55.53Z" transform="translate(-0.28 -0.97)"/></g><g class="cls-11"><path class="cls-5" d="M40.38,58.6H39.72l-0.18-2c0-.2,0-0.54,0-0.69,0,0.15-.18.49-0.27,0.69l-0.88,2H37.71l-0.33-3.68h0.73l0.11,1.89c0,0.2,0,.53,0,0.68,0.06-.15.17-0.47,0.26-0.68l0.88-1.89H40l0.18,1.89c0,0.21,0,.53,0,0.68l0.25-.68,0.81-1.89H42Z" transform="translate(-0.28 -0.97)"/><path class="cls-5" d="M45.46,56.46L45.08,58.6H44.36l0.36-2.05a2.29,2.29,0,0,0,0-.36,0.55,0.55,0,0,0-.6-0.68,1,1,0,0,0-.92,1l-0.36,2H42.15l0.65-3.68h0.72l-0.06.32a1.22,1.22,0,0,1,.91-0.39A1,1,0,0,1,45.51,56,2.86,2.86,0,0,1,45.46,56.46Z" transform="translate(-0.28 -0.97)"/></g><g class="cls-11"><path class="cls-5" d="M7.59,64.38a1.49,1.49,0,0,0-1.2-.56,0.72,0.72,0,0,0-.83.61c0,0.33.15,0.51,1,.83s1.38,0.7,1.3,1.55A1.6,1.6,0,0,1,6,68.18a2.16,2.16,0,0,1-1.85-.9l0.59-.48a1.63,1.63,0,0,0,1.36.67,0.83,0.83,0,0,0,1-.7c0-.37-0.22-0.59-1-0.9s-1.3-.67-1.23-1.47a1.5,1.5,0,0,1,1.69-1.27,2,2,0,0,1,1.66.76Z" transform="translate(-0.28 -0.97)"/><path class="cls-5" d="M10.84,65.08H10L9.63,67a1.08,1.08,0,0,0,0,.2,0.27,0.27,0,0,0,.33.27,0.87,0.87,0,0,0,.53-0.16L10.25,68a1.28,1.28,0,0,1-.58.14,0.7,0.7,0,0,1-.81-0.74,1.77,1.77,0,0,1,0-.25l0.37-2.11H8.74l0.12-.66H9.38l0.18-1L10.34,63l-0.25,1.43H11Z" transform="translate(-0.28 -0.97)"/></g><g class="cls-11"><path class="cls-5" d="M14.07,65.66L13.64,68.1H12.94L13,67.77a1.38,1.38,0,0,1-1,.41A1,1,0,0,1,10.86,67a1.39,1.39,0,0,1,1.54-1.25,2.23,2.23,0,0,1,.91.18l0-.27a1.22,1.22,0,0,0,0-.21c0-.32-0.21-0.45-0.67-0.45a2.09,2.09,0,0,0-.94.23l-0.2-.57a2.85,2.85,0,0,1,1.23-.3,1.06,1.06,0,0,1,1.3,1A2.28,2.28,0,0,1,14.07,65.66Zm-1.7.67a0.7,0.7,0,0,0-.81.65,0.54,0.54,0,0,0,.64.58,1.27,1.27,0,0,0,.91-0.45l0.1-.6A1.79,1.79,0,0,0,12.37,66.33Z" transform="translate(-0.28 -0.97)"/></g><g class="cls-11"><path class="cls-5" d="M16.86,65.08H16l-0.34,2a1.08,1.08,0,0,0,0,.2,0.27,0.27,0,0,0,.33.27,0.87,0.87,0,0,0,.53-0.16L16.27,68a1.28,1.28,0,0,1-.58.14,0.7,0.7,0,0,1-.81-0.74,1.77,1.77,0,0,1,0-.25l0.37-2.11H14.76l0.12-.66h0.52l0.18-1L16.36,63l-0.25,1.43H17Z" transform="translate(-0.28 -0.97)"/></g><g class="cls-11"><path class="cls-5" d="M17.36,66.57l0.38-2.14h0.72L18.1,66.47a2.27,2.27,0,0,0,0,.36,0.55,0.55,0,0,0,.6.68,1,1,0,0,0,.92-1l0.36-2h0.72L20,68.1H19.29l0.06-.32a1.22,1.22,0,0,1-.91.39A1,1,0,0,1,17.31,67,2.91,2.91,0,0,1,17.36,66.57Z" transform="translate(-0.28 -0.97)"/><path class="cls-5" d="M23.73,65.36a1.68,1.68,0,0,0-1-.38,0.41,0.41,0,0,0-.5.34c0,0.21.07,0.31,0.68,0.59a1.16,1.16,0,0,1,1,1.17,1.21,1.21,0,0,1-1.37,1.09A2.17,2.17,0,0,1,21,67.63l0.38-.53a1.73,1.73,0,0,0,1.16.44,0.5,0.5,0,0,0,.6-0.42c0-.21-0.1-0.35-0.62-0.57-0.73-.32-1.07-0.57-1-1.18a1.12,1.12,0,0,1,1.27-1,2.19,2.19,0,0,1,1.34.44Z" transform="translate(-0.28 -0.97)"/><path class="cls-5" d="M26.68,66.57l0.38-2.14h0.72l-0.36,2.05a2.27,2.27,0,0,0,0,.36,0.55,0.55,0,0,0,.6.68,1,1,0,0,0,.92-1l0.36-2H30L29.34,68.1H28.62l0.06-.32a1.22,1.22,0,0,1-.91.39A1,1,0,0,1,26.63,67,2.91,2.91,0,0,1,26.68,66.57Z" transform="translate(-0.28 -0.97)"/><path class="cls-5" d="M33.7,66L33.33,68.1H32.6L33,66a2.28,2.28,0,0,0,0-.36A0.55,0.55,0,0,0,32.4,65a1,1,0,0,0-.92,1l-0.36,2H30.4l0.65-3.68h0.72l-0.06.32a1.22,1.22,0,0,1,.91-0.39,1,1,0,0,1,1.13,1.14A2.86,2.86,0,0,1,33.7,66Z" transform="translate(-0.28 -0.97)"/><path class="cls-5" d="M35.29,67l-0.2,1.09H34.37l0.83-4.73L36,63l-0.42,2.37c0,0.26-.11.57-0.13,0.65l0.29-.34,1.16-1.25h0.83l-1.16,1.23,0.65,2.45H36.5L36,66.25Z" transform="translate(-0.28 -0.97)"/><path class="cls-5" d="M41.34,66L41,68.1H40.24L40.6,66a2.29,2.29,0,0,0,0-.36A0.55,0.55,0,0,0,40,65a1,1,0,0,0-.92,1l-0.36,2H38l0.65-3.68h0.72l-0.06.32a1.22,1.22,0,0,1,.91-0.39,1,1,0,0,1,1.13,1.14A2.86,2.86,0,0,1,41.34,66Z" transform="translate(-0.28 -0.97)"/></g><g class="cls-11"><path class="cls-5" d="M42.52,68.18a1.5,1.5,0,0,1-1.47-1.8,2,2,0,0,1,1.83-2,1.5,1.5,0,0,1,1.48,1.81A2,2,0,0,1,42.52,68.18ZM42.82,65a1.25,1.25,0,0,0-1,1.37,0.86,0.86,0,0,0,.81,1.09,1.26,1.26,0,0,0,1.06-1.37A0.87,0.87,0,0,0,42.82,65Z" transform="translate(-0.28 -0.97)"/></g><g class="cls-11"><path class="cls-5" d="M48,68.1H47.35l-0.18-2c0-.2,0-0.54,0-0.69,0,0.15-.18.49-0.27,0.69L46,68.1H45.34L45,64.42h0.73l0.11,1.89c0,0.2,0,.53,0,0.68,0.06-.15.17-0.47,0.26-0.68L47,64.42h0.62l0.18,1.89c0,0.21,0,.53,0,0.68l0.25-.68,0.81-1.89h0.74Z" transform="translate(-0.28 -0.97)"/><path class="cls-5" d="M53.09,66L52.71,68.1H52L52.35,66a2.29,2.29,0,0,0,0-.36,0.55,0.55,0,0,0-.6-0.68,1,1,0,0,0-.92,1l-0.36,2H49.78l0.65-3.68h0.72l-0.06.32A1.22,1.22,0,0,1,52,64.35a1,1,0,0,1,1.13,1.14A2.86,2.86,0,0,1,53.09,66Z" transform="translate(-0.28 -0.97)"/></g><g class="cls-11"><path class="cls-5" d="M3.89,77.6L3.51,76.51H1.72L1.33,77.6H0.28l1.88-4.9h1L5,77.6H3.89Zm-1-2.91c-0.1-.29-0.2-0.58-0.25-0.76,0,0.18-.15.48-0.25,0.76l-0.31.89H3.17Z" transform="translate(-0.28 -0.97)"/></g><g class="cls-11"><path class="cls-5" d="M6.84,79L6.5,78.22c0.76-.1,1-0.29,1-0.85a1.13,1.13,0,0,1-.78.31c-0.78,0-1.43-.59-1.43-2,0-1.1.52-1.87,1.43-1.87a1.16,1.16,0,0,1,.78.29V73.92h1V77C8.42,78.19,8.13,78.81,6.84,79Zm0.62-3.88a0.77,0.77,0,0,0-.65-0.32c-0.37,0-.57.32-0.57,0.94s0.25,1.07.63,1.07a0.68,0.68,0,0,0,.6-0.31V75.07Z" transform="translate(-0.28 -0.97)"/><path class="cls-5" d="M12.36,76.07h-2.2a0.71,0.71,0,0,0,.76.69,0.82,0.82,0,0,0,.63-0.26l0.69,0.57a1.74,1.74,0,0,1-3-1.32,1.74,1.74,0,0,1,1.64-1.92,1.69,1.69,0,0,1,1.55,1.92A3,3,0,0,1,12.36,76.07Zm-1.58-1.39a0.64,0.64,0,0,0-.6.66h1.26A0.65,0.65,0,0,0,10.77,74.69Z" transform="translate(-0.28 -0.97)"/></g><g class="cls-11"><path class="cls-5" d="M4.1,85L8,83.46v0.62L4.81,85.31,8,86.55v0.62L4.1,85.6V85Z" transform="translate(-0.28 -0.97)"/></g><g class="cls-11"><path class="cls-5" d="M12.29,82.9H10L9.65,84.11a1.7,1.7,0,0,1,.9-0.24,1.43,1.43,0,0,1,1.63,1.45,1.82,1.82,0,0,1-2,1.86,2.91,2.91,0,0,1-1.86-.61L8.77,86a2.4,2.4,0,0,0,1.44.49,1,1,0,0,0,1.2-1.07,0.82,0.82,0,0,0-1-.81,1.59,1.59,0,0,0-.91.31l-0.66-.28,0.6-2.42h3Z" transform="translate(-0.28 -0.97)"/><path class="cls-5" d="M14.74,87.18c-1.21,0-1.83-.92-1.72-2.31,0.11-1.61,1-2.75,2.24-2.75S17.1,83,17,84.42C16.87,86,15.94,87.18,14.74,87.18Zm0.47-4.34c-0.78,0-1.38.82-1.45,2.06-0.07.92,0.27,1.57,1,1.57s1.39-.83,1.46-2.06C16.32,83.48,16,82.83,15.21,82.83Z" transform="translate(-0.28 -0.97)"/></g><g class="cls-11"><path class="cls-5" d="M19.92,88.4H19.15l0.72-1.32-0.7-3.66h0.76l0.36,2.22c0,0.14.07,0.5,0.08,0.59,0-.09.2-0.44,0.27-0.59l1.16-2.22h0.77Z" transform="translate(-0.28 -0.97)"/></g><g class="cls-11"><path class="cls-5" d="M25.52,85.51H23.19a0.83,0.83,0,0,0,.85,1,1.55,1.55,0,0,0,.83-0.29l0.31,0.5a2,2,0,0,1-1.24.43,1.46,1.46,0,0,1-1.44-1.79,1.93,1.93,0,0,1,1.79-2,1.31,1.31,0,0,1,1.33,1.48A2.61,2.61,0,0,1,25.52,85.51ZM24.2,84a1,1,0,0,0-.92.93h1.65A0.73,0.73,0,0,0,24.2,84Z" transform="translate(-0.28 -0.97)"/></g><g class="cls-11"><path class="cls-5" d="M29.25,84.66L28.82,87.1H28.12l0.06-.33a1.38,1.38,0,0,1-1,.41A1,1,0,0,1,26,86a1.39,1.39,0,0,1,1.54-1.25,2.23,2.23,0,0,1,.91.18l0-.27a1.22,1.22,0,0,0,0-.21c0-.32-0.21-0.45-0.67-0.45a2.09,2.09,0,0,0-.94.23l-0.2-.57a2.85,2.85,0,0,1,1.23-.3,1.06,1.06,0,0,1,1.3,1A2.28,2.28,0,0,1,29.25,84.66Zm-1.7.67a0.7,0.7,0,0,0-.81.65,0.54,0.54,0,0,0,.64.58,1.27,1.27,0,0,0,.91-0.45l0.1-.6A1.79,1.79,0,0,0,27.55,85.33Z" transform="translate(-0.28 -0.97)"/></g><g class="cls-11"><path class="cls-5" d="M32.19,84.25a0.82,0.82,0,0,0-.52-0.17,0.94,0.94,0,0,0-.9,1l-0.35,2H29.7l0.65-3.68h0.72L31,83.76a1.13,1.13,0,0,1,.86-0.41,0.91,0.91,0,0,1,.62.2Z" transform="translate(-0.28 -0.97)"/></g><g class="cls-11"><path class="cls-5" d="M35,84.36a1.68,1.68,0,0,0-1-.38,0.41,0.41,0,0,0-.5.34c0,0.21.07,0.31,0.68,0.59a1.16,1.16,0,0,1,1,1.17,1.21,1.21,0,0,1-1.37,1.09,2.17,2.17,0,0,1-1.48-.55l0.38-.53a1.73,1.73,0,0,0,1.16.44,0.5,0.5,0,0,0,.6-0.42c0-.21-0.1-0.35-0.62-0.57-0.73-.32-1.07-0.57-1-1.18a1.12,1.12,0,0,1,1.27-1,2.19,2.19,0,0,1,1.34.44Z" transform="translate(-0.28 -0.97)"/></g><g class="cls-11"><path class="cls-5" d="M4.31,93l3.58,1.21v0.58L4.31,96V95.34l2.85-.89-2.85-.87V93ZM7.89,96V96.6H4.31V96H7.89Z" transform="translate(-0.28 -0.97)"/></g><g class="cls-11"><path class="cls-5" d="M12.29,92.4H10L9.65,93.61a1.7,1.7,0,0,1,.9-0.24,1.43,1.43,0,0,1,1.63,1.45,1.82,1.82,0,0,1-2,1.86,2.91,2.91,0,0,1-1.86-.61l0.46-.6A2.4,2.4,0,0,0,10.2,96a1,1,0,0,0,1.2-1.07,0.82,0.82,0,0,0-1-.81,1.59,1.59,0,0,0-.91.31l-0.66-.28,0.6-2.42h3Z" transform="translate(-0.28 -0.97)"/><path class="cls-5" d="M14.74,96.68c-1.21,0-1.83-.92-1.72-2.31,0.11-1.61,1-2.75,2.24-2.75s1.84,0.91,1.72,2.3C16.87,95.54,15.94,96.68,14.74,96.68Zm0.47-4.34c-0.78,0-1.38.82-1.45,2.06-0.07.92,0.27,1.57,1,1.57s1.39-.83,1.46-2.06C16.32,93,16,92.33,15.21,92.33Z" transform="translate(-0.28 -0.97)"/></g><g class="cls-11"><path class="cls-5" d="M21.16,93.58H20.29l-0.34,2a1.08,1.08,0,0,0,0,.2,0.27,0.27,0,0,0,.33.27,0.87,0.87,0,0,0,.53-0.16l-0.21.69a1.28,1.28,0,0,1-.58.14,0.7,0.7,0,0,1-.81-0.74,1.77,1.77,0,0,1,0-.25l0.37-2.11H19.06l0.12-.66h0.52l0.18-1,0.78-.39-0.25,1.43h0.87Z" transform="translate(-0.28 -0.97)"/></g><g class="cls-11"><path class="cls-5" d="M22.92,96.68a1.5,1.5,0,0,1-1.47-1.8,2,2,0,0,1,1.83-2,1.5,1.5,0,0,1,1.48,1.81A2,2,0,0,1,22.92,96.68Zm0.29-3.14a1.25,1.25,0,0,0-1,1.37A0.86,0.86,0,0,0,23,96,1.26,1.26,0,0,0,24,94.63,0.87,0.87,0,0,0,23.22,93.53Z" transform="translate(-0.28 -0.97)"/></g><g class="cls-11"><path class="cls-5" d="M26.76,94.53L30.69,93v0.62l-3.22,1.23L30.69,96v0.62L26.76,95.1V94.53Z" transform="translate(-0.28 -0.97)"/></g><g class="cls-11"><path class="cls-5" d="M31.17,95a3.38,3.38,0,0,1,3.55-3.4l-0.11.72a2.59,2.59,0,0,0-2.47,1.54,1.72,1.72,0,0,1,1.16-.38A1.42,1.42,0,0,1,34.93,95a1.79,1.79,0,0,1-2,1.72A1.57,1.57,0,0,1,31.17,95Zm1.88-.83a1,1,0,0,0-1.16.92A0.91,0.91,0,0,0,33,96a1,1,0,0,0,1.15-1C34.18,94.5,33.81,94.2,33.06,94.2Z" transform="translate(-0.28 -0.97)"/></g><g class="cls-11"><path class="cls-5" d="M39.16,92.4H36.83l-0.31,1.21a1.7,1.7,0,0,1,.9-0.24A1.43,1.43,0,0,1,39,94.82a1.82,1.82,0,0,1-2,1.86,2.91,2.91,0,0,1-1.86-.61l0.46-.6a2.4,2.4,0,0,0,1.44.49,1,1,0,0,0,1.2-1.07,0.82,0.82,0,0,0-1-.81,1.59,1.59,0,0,0-.91.31l-0.66-.28,0.6-2.42h3Z" transform="translate(-0.28 -0.97)"/><path class="cls-5" d="M40.77,97.9H40l0.72-1.32L40,92.92h0.76l0.36,2.22c0,0.14.07,0.5,0.08,0.59,0-.09.2-0.44,0.27-0.59l1.16-2.22h0.77Z" transform="translate(-0.28 -0.97)"/><path class="cls-5" d="M46,93.75a0.82,0.82,0,0,0-.52-0.17,0.94,0.94,0,0,0-.9,1l-0.35,2H43.53l0.65-3.68H44.9l-0.06.34a1.13,1.13,0,0,1,.86-0.41,0.91,0.91,0,0,1,.62.2Z" transform="translate(-0.28 -0.97)"/></g><g class="cls-11"><path class="cls-5" d="M4.31,102.46l3.58,1.21v0.58l-3.58,1.21v-0.62L7.16,104l-2.85-.87v-0.62Zm3.58,3.09v0.55H4.31v-0.55H7.89Z" transform="translate(-0.28 -0.97)"/></g><g class="cls-11"><path class="cls-5" d="M8.51,104.52a3.38,3.38,0,0,1,3.55-3.4l-0.11.72a2.59,2.59,0,0,0-2.47,1.54,1.72,1.72,0,0,1,1.16-.38,1.42,1.42,0,0,1,1.63,1.46,1.79,1.79,0,0,1-2,1.72A1.57,1.57,0,0,1,8.51,104.52Zm1.88-.83a1,1,0,0,0-1.16.92,0.91,0.91,0,0,0,1.13.85,1,1,0,0,0,1.15-1C11.52,104,11.15,103.7,10.4,103.7Z" transform="translate(-0.28 -0.97)"/></g><g class="cls-11"><path class="cls-5" d="M16.5,101.9H14.17l-0.31,1.21a1.7,1.7,0,0,1,.9-0.24,1.43,1.43,0,0,1,1.63,1.45,1.82,1.82,0,0,1-2,1.86,2.91,2.91,0,0,1-1.86-.61L13,105a2.4,2.4,0,0,0,1.44.49,1,1,0,0,0,1.2-1.07,0.82,0.82,0,0,0-1-.81,1.59,1.59,0,0,0-.91.31L13,103.61l0.6-2.42h3Z" transform="translate(-0.28 -0.97)"/></g><g class="cls-11"><path class="cls-5" d="M19.67,107.4H18.9l0.72-1.32-0.7-3.66h0.76L20,104.64c0,0.14.07,0.5,0.08,0.59,0-.09.2-0.44,0.27-0.59l1.16-2.22h0.77Z" transform="translate(-0.28 -0.97)"/></g><g class="cls-11"><path class="cls-5" d="M25.26,104.51H22.93a0.83,0.83,0,0,0,.85,1,1.55,1.55,0,0,0,.83-0.29l0.31,0.5a2,2,0,0,1-1.24.43,1.46,1.46,0,0,1-1.44-1.79,1.93,1.93,0,0,1,1.79-2,1.31,1.31,0,0,1,1.33,1.48A2.61,2.61,0,0,1,25.26,104.51ZM23.94,103a1,1,0,0,0-.92.93h1.65A0.73,0.73,0,0,0,23.94,103Z" transform="translate(-0.28 -0.97)"/></g><g class="cls-11"><path class="cls-5" d="M29,103.66l-0.43,2.44H27.87l0.06-.33a1.38,1.38,0,0,1-1,.41A1,1,0,0,1,25.79,105a1.39,1.39,0,0,1,1.54-1.25,2.23,2.23,0,0,1,.91.18l0-.27a1.22,1.22,0,0,0,0-.21c0-.32-0.21-0.45-0.67-0.45a2.09,2.09,0,0,0-.94.23l-0.2-.57a2.85,2.85,0,0,1,1.23-.3,1.06,1.06,0,0,1,1.3,1A2.28,2.28,0,0,1,29,103.66Zm-1.7.67a0.7,0.7,0,0,0-.81.65,0.54,0.54,0,0,0,.64.58,1.27,1.27,0,0,0,.91-0.45l0.1-.6A1.79,1.79,0,0,0,27.3,104.33Z" transform="translate(-0.28 -0.97)"/></g><g class="cls-11"><path class="cls-5" d="M31.94,103.25a0.82,0.82,0,0,0-.52-0.17,0.94,0.94,0,0,0-.9,1l-0.35,2H29.45l0.65-3.68h0.72l-0.06.34a1.13,1.13,0,0,1,.86-0.41,0.91,0.91,0,0,1,.62.2Z" transform="translate(-0.28 -0.97)"/></g><g class="cls-11"><path class="cls-5" d="M34.71,103.36a1.68,1.68,0,0,0-1-.38,0.41,0.41,0,0,0-.5.34c0,0.21.07,0.31,0.68,0.59a1.16,1.16,0,0,1,1,1.17,1.21,1.21,0,0,1-1.37,1.09,2.17,2.17,0,0,1-1.48-.55l0.38-.53a1.73,1.73,0,0,0,1.16.44,0.5,0.5,0,0,0,.6-0.42c0-.21-0.1-0.35-0.62-0.57-0.73-.32-1.07-0.57-1-1.18a1.12,1.12,0,0,1,1.27-1,2.19,2.19,0,0,1,1.34.44Z" transform="translate(-0.28 -0.97)"/></g><g class="cls-11"><path class="cls-5" d="M3.47,115.6L2.6,113.84h-1v1.76h-1v-4.9H2.91a1.52,1.52,0,0,1,1.69,1.55,1.4,1.4,0,0,1-.94,1.44L4.6,115.6H3.47Zm-0.58-4H1.61v1.26H2.89a0.6,0.6,0,0,0,.7-0.64A0.59,0.59,0,0,0,2.89,111.65Z" transform="translate(-0.28 -0.97)"/></g><g class="cls-11"><path class="cls-5" d="M7.11,115.6v-0.25a1.17,1.17,0,0,1-.83.32,1.28,1.28,0,1,1,.12-2.53,1.54,1.54,0,0,1,.71.15v-0.18a0.47,0.47,0,0,0-.52-0.47,1.82,1.82,0,0,0-1,.25l-0.37-.67a2.47,2.47,0,0,1,1.38-.37,1.3,1.3,0,0,1,1.49,1.29v2.46h-1Zm0-1.54a1.12,1.12,0,0,0-.67-0.15,0.47,0.47,0,0,0-.56.46,0.48,0.48,0,0,0,.56.49,0.79,0.79,0,0,0,.67-0.34v-0.46Z" transform="translate(-0.28 -0.97)"/></g><g class="cls-11"><path class="cls-5" d="M10.34,115.68a1.92,1.92,0,0,1,0-3.83,1.65,1.65,0,0,1,1.46.81l-0.64.64a1,1,0,0,0-.84-0.53,1,1,0,0,0,0,2,1.06,1.06,0,0,0,.87-0.47l0.62,0.58A1.75,1.75,0,0,1,10.34,115.68Z" transform="translate(-0.28 -0.97)"/></g><g class="cls-11"><path class="cls-5" d="M15.29,114.07h-2.2a0.71,0.71,0,0,0,.76.69,0.82,0.82,0,0,0,.63-0.26l0.69,0.57a1.74,1.74,0,0,1-3-1.32,1.74,1.74,0,0,1,1.64-1.92,1.69,1.69,0,0,1,1.55,1.92A3,3,0,0,1,15.29,114.07Zm-1.58-1.39a0.64,0.64,0,0,0-.6.66h1.26A0.65,0.65,0,0,0,13.71,112.69Z" transform="translate(-0.28 -0.97)"/><path class="cls-5" d="M19.58,115.68a1.93,1.93,0,1,1,1.67-1.91A1.73,1.73,0,0,1,19.58,115.68Zm0-2.9a1.05,1.05,0,0,0,0,2,0.83,0.83,0,0,0,.69-1A0.81,0.81,0,0,0,19.58,112.78Z" transform="translate(-0.28 -0.97)"/><path class="cls-5" d="M24.14,113.05a0.84,0.84,0,0,0-.56-0.24c-0.38,0-.62.16-0.62,0.8v2H22v-3.68h1v0.25a1,1,0,0,1,.76-0.32,0.94,0.94,0,0,1,.68.26Z" transform="translate(-0.28 -0.97)"/></g><g class="cls-11"><path class="cls-5" d="M29.12,114.07h-2.2a0.71,0.71,0,0,0,.76.69,0.82,0.82,0,0,0,.63-0.26L29,115.08a1.74,1.74,0,0,1-3-1.32,1.74,1.74,0,0,1,1.64-1.92,1.69,1.69,0,0,1,1.55,1.92A3,3,0,0,1,29.12,114.07Zm-1.58-1.39a0.64,0.64,0,0,0-.6.66H28.2A0.65,0.65,0,0,0,27.54,112.69Z" transform="translate(-0.28 -0.97)"/></g><g class="cls-11"><path class="cls-5" d="M31.72,115.45a1.29,1.29,0,0,1-.75.22,1,1,0,0,1-1-1.11v-1.74H29.38v-0.91H30V111l1-.48v1.43h0.88v0.91H31v1.48c0,0.35.13,0.44,0.36,0.44a0.83,0.83,0,0,0,.55-0.28Z" transform="translate(-0.28 -0.97)"/><path class="cls-5" d="M35,115.6v-2c0-.66-0.22-0.85-0.62-0.85s-0.63.2-.63,0.83v2h-1V111l1-.48v1.67a1.2,1.2,0,0,1,.86-0.32c0.94,0,1.36.64,1.36,1.68v2.07H35Z" transform="translate(-0.28 -0.97)"/><path class="cls-5" d="M39.07,115.6v-2c0-.66-0.22-0.85-0.62-0.85s-0.63.2-.63,0.83v2h-1v-3.68h1v0.25a1.2,1.2,0,0,1,.86-0.32c0.94,0,1.36.64,1.36,1.68v2.07h-1Z" transform="translate(-0.28 -0.97)"/><path class="cls-5" d="M41.46,111.62a0.55,0.55,0,1,1,.55-0.55A0.56,0.56,0,0,1,41.46,111.62Zm-0.48,4v-3.68h1v3.68H41Z" transform="translate(-0.28 -0.97)"/><path class="cls-5" d="M44.45,115.68a1.92,1.92,0,0,1,0-3.83,1.65,1.65,0,0,1,1.46.81l-0.64.64a1,1,0,0,0-.84-0.53,1,1,0,0,0,0,2,1.06,1.06,0,0,0,.87-0.47L46,114.86A1.75,1.75,0,0,1,44.45,115.68Z" transform="translate(-0.28 -0.97)"/><path class="cls-5" d="M50.1,117l-0.34-.73c0.76-.1,1-0.29,1-0.85a1.13,1.13,0,0,1-.78.31c-0.78,0-1.43-.59-1.43-2,0-1.1.52-1.87,1.43-1.87a1.16,1.16,0,0,1,.78.29v-0.21h1V115C51.69,116.19,51.39,116.81,50.1,117Zm0.62-3.88a0.77,0.77,0,0,0-.65-0.32c-0.37,0-.57.32-0.57,0.94s0.25,1.07.63,1.07a0.68,0.68,0,0,0,.6-0.31v-1.39Z" transform="translate(-0.28 -0.97)"/></g><g class="cls-11"><path class="cls-5" d="M53.57,113.05a0.84,0.84,0,0,0-.56-0.24c-0.38,0-.62.16-0.62,0.8v2h-1v-3.68h1v0.25a1,1,0,0,1,.76-0.32,0.94,0.94,0,0,1,.68.26Z" transform="translate(-0.28 -0.97)"/></g><g class="cls-11"><path class="cls-5" d="M55.6,115.68a1.93,1.93,0,1,1,1.67-1.91A1.73,1.73,0,0,1,55.6,115.68Zm0-2.9a1.05,1.05,0,0,0,0,2,0.83,0.83,0,0,0,.69-1A0.81,0.81,0,0,0,55.6,112.78Z" transform="translate(-0.28 -0.97)"/><path class="cls-5" d="M60.2,115.6v-0.25a1.21,1.21,0,0,1-.86.32C58.4,115.68,58,115,58,114v-2.07h1v2c0,0.66.22,0.85,0.62,0.85s0.63-.2.63-0.83v-2h1v3.68h-1Z" transform="translate(-0.28 -0.97)"/><path class="cls-5" d="M63.85,115.68a1.17,1.17,0,0,1-.78-0.29v1.08l-1,.48v-5h1v0.23a1.13,1.13,0,0,1,.78-0.31c0.78,0,1.43.59,1.43,2C65.28,114.91,64.76,115.68,63.85,115.68Zm-0.18-2.92a0.68,0.68,0,0,0-.6.31v1.39a0.77,0.77,0,0,0,.65.32c0.37,0,.57-0.32.57-0.94S64,112.76,63.66,112.76Z" transform="translate(-0.28 -0.97)"/></g><g class="cls-11"><path class="cls-5" d="M8.37,125.1H7.59L7.4,122.27c0-.31,0-0.73,0-1-0.09.25-.25,0.67-0.39,1l-1.2,2.83H5l-0.13-4.9H5.67V123c0,0.28,0,.73,0,1,0.08-.22.25-0.67,0.37-0.95l1.18-2.77h0.7L8.1,123c0,0.29,0,.72,0,0.95,0.07-.22.22-0.67,0.32-1l1-2.77h0.75Z" transform="translate(-0.28 -0.97)"/></g><g class="cls-11"><path class="cls-5" d="M13.31,123l-0.38,2.14H12.21L12.57,123a2.29,2.29,0,0,0,0-.36A0.55,0.55,0,0,0,12,122a1,1,0,0,0-.92,1l-0.36,2H10l0.83-4.73,0.79-.38-0.31,1.74a1.22,1.22,0,0,1,.91-0.39,1,1,0,0,1,1.13,1.14A2.86,2.86,0,0,1,13.31,123Z" transform="translate(-0.28 -0.97)"/><path class="cls-5" d="M14.73,125.1H14l0.64-3.68h0.72Zm0.43-4.15a0.47,0.47,0,1,1,.45-0.46A0.46,0.46,0,0,1,15.16,120.95Z" transform="translate(-0.28 -0.97)"/></g><g class="cls-11"><path class="cls-5" d="M17.83,122.08H17l-0.34,2a1.08,1.08,0,0,0,0,.2,0.27,0.27,0,0,0,.33.27,0.87,0.87,0,0,0,.53-0.16l-0.21.69a1.28,1.28,0,0,1-.58.14,0.7,0.7,0,0,1-.81-0.74,1.77,1.77,0,0,1,0-.25l0.37-2.11H15.73l0.12-.66h0.52l0.18-1,0.78-.39-0.25,1.43H18Z" transform="translate(-0.28 -0.97)"/></g><g class="cls-11"><path class="cls-5" d="M21.15,123.51H18.82a0.83,0.83,0,0,0,.85,1,1.55,1.55,0,0,0,.83-0.29l0.31,0.5a2,2,0,0,1-1.24.43,1.46,1.46,0,0,1-1.44-1.79,1.93,1.93,0,0,1,1.79-2,1.31,1.31,0,0,1,1.33,1.48A2.61,2.61,0,0,1,21.15,123.51ZM19.83,122a1,1,0,0,0-.92.93h1.65A0.73,0.73,0,0,0,19.83,122Z" transform="translate(-0.28 -0.97)"/></g><g class="cls-11"><path class="cls-5" d="M8,134.6H7.34l-1.43-3.14c-0.08-.19-0.2-0.44-0.25-0.58l-0.1.7L5,134.6H4.31l0.87-4.9H5.89l1.4,3.13c0.08,0.18.19,0.45,0.24,0.57l0.1-.69,0.53-3H8.88Z" transform="translate(-0.28 -0.97)"/><path class="cls-5" d="M10.76,134.68a1.5,1.5,0,0,1-1.47-1.8,2,2,0,0,1,1.83-2,1.5,1.5,0,0,1,1.48,1.81A2,2,0,0,1,10.76,134.68Zm0.29-3.14a1.25,1.25,0,0,0-1,1.37,0.86,0.86,0,0,0,.81,1.09,1.26,1.26,0,0,0,1.06-1.37A0.87,0.87,0,0,0,11.06,131.53Z" transform="translate(-0.28 -0.97)"/><path class="cls-5" d="M16.44,132.46l-0.38,2.14H15.34l0.36-2.05a2.28,2.28,0,0,0,0-.36,0.55,0.55,0,0,0-.6-0.68,1,1,0,0,0-.92,1l-0.36,2H13.14l0.65-3.68h0.72l-0.06.32a1.22,1.22,0,0,1,.91-0.39A1,1,0,0,1,16.49,132,2.86,2.86,0,0,1,16.44,132.46Z" transform="translate(-0.28 -0.97)"/></g><g class="cls-11"><path class="cls-5" d="M16.9,132.39l0.13-.71h1.75l-0.13.71H16.9Z" transform="translate(-0.28 -0.97)"/></g><g class="cls-11"><path class="cls-5" d="M21.78,132.67c-0.25,1.4-.81,2-1.91,2a1.51,1.51,0,0,1-1.62-1.37l0.71-.18a0.91,0.91,0,0,0,.94.83c0.64,0,1-.38,1.16-1.32l0.52-2.93h0.74Z" transform="translate(-0.28 -0.97)"/></g><g class="cls-11"><path class="cls-5" d="M25.56,133H23.23a0.83,0.83,0,0,0,.85,1,1.55,1.55,0,0,0,.83-0.29l0.31,0.5a2,2,0,0,1-1.24.43,1.46,1.46,0,0,1-1.44-1.79,1.93,1.93,0,0,1,1.79-2,1.31,1.31,0,0,1,1.33,1.48A2.61,2.61,0,0,1,25.56,133Zm-1.32-1.51a1,1,0,0,0-.92.93H25A0.73,0.73,0,0,0,24.24,131.5Z" transform="translate(-0.28 -0.97)"/></g><g class="cls-11"><path class="cls-5" d="M29.37,134.6H28.71l-0.18-2c0-.2,0-0.54,0-0.69,0,0.15-.18.49-0.27,0.69l-0.88,2H26.7l-0.33-3.68H27.1l0.11,1.89c0,0.2,0,.53,0,0.68,0.06-.15.17-0.47,0.26-0.68l0.88-1.89H29l0.18,1.89c0,0.21,0,.53,0,0.68l0.25-.68,0.81-1.89H31Z" transform="translate(-0.28 -0.97)"/><path class="cls-5" d="M31.91,134.6H31.18l0.64-3.68h0.72Zm0.43-4.15a0.47,0.47,0,1,1,.45-0.46A0.46,0.46,0,0,1,32.34,130.45Z" transform="translate(-0.28 -0.97)"/><path class="cls-5" d="M35.65,131.86a1.68,1.68,0,0,0-1-.38,0.41,0.41,0,0,0-.5.34c0,0.21.07,0.31,0.68,0.59a1.16,1.16,0,0,1,1,1.17,1.21,1.21,0,0,1-1.37,1.09,2.17,2.17,0,0,1-1.48-.55l0.39-.53a1.73,1.73,0,0,0,1.16.44,0.5,0.5,0,0,0,.6-0.42c0-.21-0.1-0.35-0.62-0.57-0.73-.32-1.07-0.57-1-1.18a1.12,1.12,0,0,1,1.27-1,2.19,2.19,0,0,1,1.34.44Z" transform="translate(-0.28 -0.97)"/><path class="cls-5" d="M39.77,132.46l-0.38,2.14H38.67L39,132.55a2.28,2.28,0,0,0,0-.36,0.55,0.55,0,0,0-.6-0.68,1,1,0,0,0-.92,1l-0.36,2H36.46l0.83-4.73,0.79-.38-0.31,1.74a1.22,1.22,0,0,1,.91-0.39A1,1,0,0,1,39.82,132,2.86,2.86,0,0,1,39.77,132.46Z" transform="translate(-0.28 -0.97)"/><path class="cls-5" d="M45.55,132.16l-0.43,2.44H44.42l0.06-.33a1.38,1.38,0,0,1-1,.41,1,1,0,0,1-1.16-1.19,1.39,1.39,0,0,1,1.54-1.25,2.23,2.23,0,0,1,.91.18l0-.27a1.22,1.22,0,0,0,0-.21c0-.32-0.21-0.45-0.67-0.45a2.09,2.09,0,0,0-.94.23l-0.2-.57a2.85,2.85,0,0,1,1.23-.3,1.06,1.06,0,0,1,1.3,1A2.28,2.28,0,0,1,45.55,132.16Zm-1.7.67a0.7,0.7,0,0,0-.81.65,0.54,0.54,0,0,0,.64.58,1.27,1.27,0,0,0,.91-0.45l0.1-.6A1.79,1.79,0,0,0,43.85,132.83Z" transform="translate(-0.28 -0.97)"/><path class="cls-5" d="M49.42,132.46L49,134.6H48.32l0.36-2.05a2.29,2.29,0,0,0,0-.36,0.55,0.55,0,0,0-.6-0.68,1,1,0,0,0-.92,1l-0.36,2H46.11l0.65-3.68h0.72l-0.06.32a1.22,1.22,0,0,1,.91-0.39A1,1,0,0,1,49.47,132,2.86,2.86,0,0,1,49.42,132.46Z" transform="translate(-0.28 -0.97)"/></g><g class="cls-11"><path class="cls-5" d="M51.74,132a1,1,0,0,0-.82-0.51,1.24,1.24,0,0,0-1.06,1.37,0.86,0.86,0,0,0,.82,1.09,1.2,1.2,0,0,0,.82-0.39l0.39,0.49a1.82,1.82,0,0,1-1.3.59,1.49,1.49,0,0,1-1.46-1.81,2,2,0,0,1,1.84-2,1.42,1.42,0,0,1,1.3.71Z" transform="translate(-0.28 -0.97)"/></g><g class="cls-11"><path class="cls-5" d="M55.52,133H53.19a0.83,0.83,0,0,0,.85,1,1.55,1.55,0,0,0,.83-0.29l0.31,0.5a2,2,0,0,1-1.24.43,1.46,1.46,0,0,1-1.44-1.79,1.93,1.93,0,0,1,1.79-2,1.31,1.31,0,0,1,1.33,1.48A2.61,2.61,0,0,1,55.52,133ZM54.2,131.5a1,1,0,0,0-.92.93h1.65A0.73,0.73,0,0,0,54.2,131.5Z" transform="translate(-0.28 -0.97)"/><path class="cls-5" d="M58.77,131.86a1.68,1.68,0,0,0-1-.38,0.41,0.41,0,0,0-.5.34c0,0.21.07,0.31,0.68,0.59a1.16,1.16,0,0,1,1,1.17,1.21,1.21,0,0,1-1.37,1.09,2.17,2.17,0,0,1-1.48-.55l0.38-.53a1.73,1.73,0,0,0,1.16.44,0.5,0.5,0,0,0,.6-0.42c0-.21-0.1-0.35-0.62-0.57-0.73-.32-1.07-0.57-1-1.18a1.12,1.12,0,0,1,1.27-1,2.19,2.19,0,0,1,1.34.44Z" transform="translate(-0.28 -0.97)"/></g><g class="cls-11"><path class="cls-5" d="M61.59,131.58H60.72l-0.34,2a1.08,1.08,0,0,0,0,.2,0.27,0.27,0,0,0,.33.27,0.87,0.87,0,0,0,.53-0.16l-0.21.69a1.28,1.28,0,0,1-.58.14,0.7,0.7,0,0,1-.81-0.74,1.77,1.77,0,0,1,0-.25L60,131.58H59.49l0.12-.66h0.52l0.18-1,0.78-.39-0.25,1.43h0.87Z" transform="translate(-0.28 -0.97)"/><path class="cls-5" d="M64.55,131.75a0.82,0.82,0,0,0-.52-0.17,0.94,0.94,0,0,0-.9,1l-0.35,2H62.05l0.65-3.68h0.72l-0.06.34a1.13,1.13,0,0,1,.86-0.41,0.91,0.91,0,0,1,.62.2Z" transform="translate(-0.28 -0.97)"/><path class="cls-5" d="M66,135.9H65.27L66,134.58l-0.7-3.66h0.76l0.36,2.22c0,0.14.07,0.5,0.08,0.59,0-.09.2-0.44,0.27-0.59l1.16-2.22h0.77Z" transform="translate(-0.28 -0.97)"/></g><g class="cls-11"><path class="cls-5" d="M2.86,144.1H0.63v-4.9H2.88a1.32,1.32,0,0,1,1.56,1.29,1.08,1.08,0,0,1-.52,1,1.12,1.12,0,0,1,.69,1.07A1.53,1.53,0,0,1,2.86,144.1Zm0-4H1.59V141h1.3a0.45,0.45,0,0,0,.55-0.46C3.44,140.26,3.26,140.1,2.84,140.1Zm0.06,1.8H1.59v1.27h1.3a0.61,0.61,0,0,0,.7-0.64A0.59,0.59,0,0,0,2.89,141.9Z" transform="translate(-0.28 -0.97)"/></g><g class="cls-11"><path class="cls-5" d="M7.22,144.1v-0.25a1.17,1.17,0,0,1-.83.32,1.28,1.28,0,1,1,.12-2.53,1.54,1.54,0,0,1,.71.15v-0.18a0.47,0.47,0,0,0-.52-0.47,1.82,1.82,0,0,0-1,.25l-0.37-.67a2.47,2.47,0,0,1,1.38-.37,1.3,1.3,0,0,1,1.49,1.29v2.46h-1Zm0-1.54a1.12,1.12,0,0,0-.67-0.15,0.47,0.47,0,0,0-.56.46,0.48,0.48,0,0,0,.56.49A0.79,0.79,0,0,0,7.22,143v-0.46Z" transform="translate(-0.28 -0.97)"/></g><g class="cls-11"><path class="cls-5" d="M10.32,144.18a2.88,2.88,0,0,1-1.54-.43L9.1,143a2.56,2.56,0,0,0,1.27.34c0.38,0,.49-0.09.49-0.28s-0.13-.25-0.54-0.37c-0.88-.27-1.45-0.48-1.45-1.26s0.61-1.09,1.47-1.09a2.92,2.92,0,0,1,1.36.36l-0.31.76a2.39,2.39,0,0,0-1.07-.29c-0.39,0-.5.08-0.5,0.24s0.11,0.22.76,0.43A1.33,1.33,0,0,1,11.82,143C11.82,143.88,11.14,144.18,10.32,144.18Z" transform="translate(-0.28 -0.97)"/></g><g class="cls-11"><path class="cls-5" d="M15.41,142.57h-2.2a0.71,0.71,0,0,0,.76.69A0.82,0.82,0,0,0,14.6,143l0.69,0.57a1.74,1.74,0,0,1-3-1.32,1.74,1.74,0,0,1,1.64-1.92,1.69,1.69,0,0,1,1.55,1.92A3,3,0,0,1,15.41,142.57Zm-1.58-1.39a0.64,0.64,0,0,0-.6.66h1.26A0.65,0.65,0,0,0,13.83,141.19Z" transform="translate(-0.28 -0.97)"/><path class="cls-5" d="M16.23,144.1v-4.62l1-.48v5.11h-1Z" transform="translate(-0.28 -0.97)"/><path class="cls-5" d="M18.69,140.12a0.55,0.55,0,1,1,.55-0.55A0.56,0.56,0,0,1,18.69,140.12Zm-0.48,4v-3.68h1v3.68h-1Z" transform="translate(-0.28 -0.97)"/><path class="cls-5" d="M22.36,144.1v-2c0-.66-0.22-0.85-0.62-0.85s-0.63.2-.63,0.83v2h-1v-3.68h1v0.25a1.2,1.2,0,0,1,.86-0.32c0.94,0,1.36.64,1.36,1.68v2.07h-1Z" transform="translate(-0.28 -0.97)"/><path class="cls-5" d="M27.21,142.57H25a0.71,0.71,0,0,0,.76.69A0.82,0.82,0,0,0,26.4,143l0.69,0.57a1.74,1.74,0,0,1-3-1.32,1.74,1.74,0,0,1,1.64-1.92,1.69,1.69,0,0,1,1.55,1.92A3,3,0,0,1,27.21,142.57Zm-1.58-1.39a0.64,0.64,0,0,0-.6.66h1.26A0.65,0.65,0,0,0,25.63,141.19Z" transform="translate(-0.28 -0.97)"/></g><g class="cls-11"><path class="cls-5" d="M31.12,141.55a0.84,0.84,0,0,0-.56-0.24c-0.38,0-.62.16-0.62,0.8v2H29v-3.68h1v0.25a1,1,0,0,1,.76-0.32,0.94,0.94,0,0,1,.68.26Z" transform="translate(-0.28 -0.97)"/></g><g class="cls-11"><path class="cls-5" d="M34.67,142.57h-2.2a0.71,0.71,0,0,0,.76.69,0.82,0.82,0,0,0,.63-0.26l0.69,0.57a1.74,1.74,0,0,1-3-1.32,1.74,1.74,0,0,1,1.64-1.92,1.69,1.69,0,0,1,1.55,1.92A3,3,0,0,1,34.67,142.57Zm-1.58-1.39a0.64,0.64,0,0,0-.6.66h1.26A0.65,0.65,0,0,0,33.09,141.19Z" transform="translate(-0.28 -0.97)"/></g><g class="cls-11"><path class="cls-5" d="M36.62,144.18a2.88,2.88,0,0,1-1.54-.43L35.4,143a2.56,2.56,0,0,0,1.27.34c0.38,0,.49-0.09.49-0.28s-0.13-.25-0.54-0.37c-0.88-.27-1.45-0.48-1.45-1.26s0.61-1.09,1.47-1.09a2.92,2.92,0,0,1,1.36.36l-0.31.76a2.39,2.39,0,0,0-1.07-.29c-0.39,0-.5.08-0.5,0.24s0.11,0.22.76,0.43A1.33,1.33,0,0,1,38.12,143C38.12,143.88,37.44,144.18,36.62,144.18Z" transform="translate(-0.28 -0.97)"/><path class="cls-5" d="M40.71,144.18a1.17,1.17,0,0,1-.78-0.29V145l-1,.48v-5h1v0.23a1.13,1.13,0,0,1,.78-0.31c0.78,0,1.43.59,1.43,2C42.14,143.41,41.62,144.18,40.71,144.18Zm-0.18-2.92a0.68,0.68,0,0,0-.6.31V143a0.77,0.77,0,0,0,.65.32c0.37,0,.57-0.32.57-0.94S40.91,141.26,40.53,141.26Z" transform="translate(-0.28 -0.97)"/><path class="cls-5" d="M44.37,144.18A1.93,1.93,0,1,1,46,142.26,1.73,1.73,0,0,1,44.37,144.18Zm0-2.9a1.05,1.05,0,0,0,0,2,0.83,0.83,0,0,0,.69-1A0.81,0.81,0,0,0,44.37,141.28Z" transform="translate(-0.28 -0.97)"/><path class="cls-5" d="M49,144.1v-2c0-.66-0.22-0.85-0.62-0.85s-0.63.2-.63,0.83v2h-1v-3.68h1v0.25a1.2,1.2,0,0,1,.86-0.32c0.94,0,1.36.64,1.36,1.68v2.07H49Z" transform="translate(-0.28 -0.97)"/></g><g class="cls-11"><path class="cls-5" d="M51.59,144.18a2.88,2.88,0,0,1-1.54-.43l0.32-.74a2.56,2.56,0,0,0,1.27.34c0.38,0,.49-0.09.49-0.28s-0.13-.25-0.54-0.37c-0.88-.27-1.45-0.48-1.45-1.26s0.61-1.09,1.47-1.09a2.92,2.92,0,0,1,1.36.36l-0.31.76a2.39,2.39,0,0,0-1.07-.29c-0.39,0-.5.08-0.5,0.24s0.11,0.22.76,0.43A1.33,1.33,0,0,1,53.09,143C53.09,143.88,52.41,144.18,51.59,144.18Z" transform="translate(-0.28 -0.97)"/></g><g class="cls-11"><path class="cls-5" d="M56.67,142.57h-2.2a0.71,0.71,0,0,0,.76.69,0.82,0.82,0,0,0,.63-0.26l0.69,0.57a1.74,1.74,0,0,1-3-1.32,1.74,1.74,0,0,1,1.64-1.92,1.69,1.69,0,0,1,1.55,1.92A3,3,0,0,1,56.67,142.57Zm-1.58-1.39a0.64,0.64,0,0,0-.6.66h1.26A0.65,0.65,0,0,0,55.09,141.19Z" transform="translate(-0.28 -0.97)"/></g><g class="cls-11"><path class="cls-5" d="M7.8,150a1,1,0,0,0-1-.64c-0.88,0-1.6.93-1.6,2.21A1.17,1.17,0,0,0,6.28,153a1.49,1.49,0,0,0,1.16-.64L8,152.77a2.09,2.09,0,0,1-1.74.9,1.76,1.76,0,0,1-1.79-2c0-1.83,1.11-3,2.44-3a1.6,1.6,0,0,1,1.6,1Z" transform="translate(-0.28 -0.97)"/></g><g class="cls-11"><path class="cls-5" d="M10.06,153.68a1.5,1.5,0,0,1-1.47-1.8,2,2,0,0,1,1.83-2,1.5,1.5,0,0,1,1.48,1.81A2,2,0,0,1,10.06,153.68Zm0.29-3.14a1.25,1.25,0,0,0-1,1.37,0.86,0.86,0,0,0,.81,1.09,1.26,1.26,0,0,0,1.06-1.37A0.87,0.87,0,0,0,10.36,150.53Z" transform="translate(-0.28 -0.97)"/><path class="cls-5" d="M17.78,151.48l-0.37,2.12H16.69l0.36-2.05a3,3,0,0,0,0-.41,0.52,0.52,0,0,0-.57-0.62,1,1,0,0,0-.88,1l-0.36,2H14.56l0.36-2.05a3.07,3.07,0,0,0,0-.41,0.53,0.53,0,0,0-.58-0.63,1,1,0,0,0-.87,1l-0.36,2H12.44l0.64-3.68h0.72l-0.06.33a1.11,1.11,0,0,1,.88-0.41,0.93,0.93,0,0,1,.94.55,1.53,1.53,0,0,1,1.18-.55A1,1,0,0,1,17.83,151,2.7,2.7,0,0,1,17.78,151.48Z" transform="translate(-0.28 -0.97)"/><path class="cls-5" d="M19.21,153.25L19,154.58,18.2,155l0.89-5H19.8l-0.06.31a1.28,1.28,0,0,1,.91-0.38,1.3,1.3,0,0,1,1.22,1.53c0,1.41-.78,2.3-1.67,2.3A1.26,1.26,0,0,1,19.21,153.25Zm1.22-2.74a1.28,1.28,0,0,0-.82.41l-0.28,1.6a1.1,1.1,0,0,0,.84.49c0.62,0,1-.79,1-1.59A0.75,0.75,0,0,0,20.43,150.51Z" transform="translate(-0.28 -0.97)"/><path class="cls-5" d="M22.44,153.6l0.83-4.73,0.79-.38-0.9,5.11H22.44Z" transform="translate(-0.28 -0.97)"/></g><g class="cls-11"><path class="cls-5" d="M26.78,152H24.45a0.83,0.83,0,0,0,.85,1,1.55,1.55,0,0,0,.83-0.29l0.31,0.5a2,2,0,0,1-1.24.43,1.46,1.46,0,0,1-1.44-1.79,1.93,1.93,0,0,1,1.79-2,1.31,1.31,0,0,1,1.33,1.48A2.61,2.61,0,0,1,26.78,152Zm-1.32-1.51a1,1,0,0,0-.92.93h1.65A0.73,0.73,0,0,0,25.46,150.5Z" transform="translate(-0.28 -0.97)"/></g><g class="cls-11"><path class="cls-5" d="M29.62,150.58H28.75l-0.34,2a1.08,1.08,0,0,0,0,.2,0.27,0.27,0,0,0,.33.27,0.87,0.87,0,0,0,.53-0.16l-0.21.69a1.28,1.28,0,0,1-.58.14,0.7,0.7,0,0,1-.81-0.74,1.77,1.77,0,0,1,0-.25L28,150.58H27.52l0.12-.66h0.52l0.18-1,0.78-.39-0.25,1.43h0.87Z" transform="translate(-0.28 -0.97)"/></g><g class="cls-11"><path class="cls-5" d="M32.93,152H30.6a0.83,0.83,0,0,0,.85,1,1.55,1.55,0,0,0,.83-0.29l0.31,0.5a2,2,0,0,1-1.24.43,1.46,1.46,0,0,1-1.44-1.79,1.93,1.93,0,0,1,1.79-2A1.31,1.31,0,0,1,33,151.33,2.61,2.61,0,0,1,32.93,152Zm-1.32-1.51a1,1,0,0,0-.92.93h1.65A0.73,0.73,0,0,0,31.61,150.5Z" transform="translate(-0.28 -0.97)"/></g><g class="cls-11"><path class="cls-5" d="M6.53,161.27H5.36L5,163.1H4.31l0.87-4.9H6.85a1.37,1.37,0,0,1,1.61,1.47A1.71,1.71,0,0,1,6.53,161.27Zm0.26-2.38h-1l-0.29,1.69H6.59a1,1,0,0,0,1.11-.9A0.75,0.75,0,0,0,6.79,158.89Z" transform="translate(-0.28 -0.97)"/></g><g class="cls-11"><path class="cls-5" d="M11.58,160.66l-0.43,2.44H10.45l0.06-.33a1.38,1.38,0,0,1-1,.41A1,1,0,0,1,8.37,162a1.39,1.39,0,0,1,1.54-1.25,2.23,2.23,0,0,1,.91.18l0-.27a1.22,1.22,0,0,0,0-.21c0-.32-0.21-0.45-0.67-0.45a2.09,2.09,0,0,0-.94.23l-0.2-.57a2.85,2.85,0,0,1,1.23-.3,1.06,1.06,0,0,1,1.3,1A2.28,2.28,0,0,1,11.58,160.66Zm-1.7.67a0.7,0.7,0,0,0-.81.65,0.54,0.54,0,0,0,.64.58,1.27,1.27,0,0,0,.91-0.45l0.1-.6A1.79,1.79,0,0,0,9.88,161.33Z" transform="translate(-0.28 -0.97)"/></g><g class="cls-11"><path class="cls-5" d="M14.53,160.25a0.82,0.82,0,0,0-.52-0.17,0.94,0.94,0,0,0-.9,1l-0.35,2H12l0.65-3.68h0.72l-0.06.34a1.13,1.13,0,0,1,.86-0.41,0.91,0.91,0,0,1,.62.2Z" transform="translate(-0.28 -0.97)"/></g><g class="cls-11"><path class="cls-5" d="M17.19,160.08H16.32L16,162a1.08,1.08,0,0,0,0,.2,0.27,0.27,0,0,0,.33.27,0.87,0.87,0,0,0,.53-0.16L16.6,163a1.28,1.28,0,0,1-.58.14,0.7,0.7,0,0,1-.81-0.74,1.77,1.77,0,0,1,0-.25l0.37-2.11H15.09l0.12-.66h0.52l0.18-1,0.78-.39-0.25,1.43h0.87Z" transform="translate(-0.28 -0.97)"/><path class="cls-5" d="M18.41,163.1H17.69l0.64-3.68h0.72Zm0.43-4.15a0.47,0.47,0,1,1,.45-0.46A0.46,0.46,0,0,1,18.84,158.95Z" transform="translate(-0.28 -0.97)"/><path class="cls-5" d="M22.73,160.66L22.3,163.1H21.6l0.06-.33a1.38,1.38,0,0,1-1,.41A1,1,0,0,1,19.52,162a1.39,1.39,0,0,1,1.54-1.25,2.23,2.23,0,0,1,.91.18l0-.27a1.22,1.22,0,0,0,0-.21c0-.32-0.21-0.45-0.67-0.45a2.09,2.09,0,0,0-.94.23l-0.2-.57a2.85,2.85,0,0,1,1.23-.3,1.06,1.06,0,0,1,1.3,1A2.28,2.28,0,0,1,22.73,160.66Zm-1.7.67a0.7,0.7,0,0,0-.81.65,0.54,0.54,0,0,0,.64.58,1.27,1.27,0,0,0,.91-0.45l0.11-.6A1.79,1.79,0,0,0,21,161.33Z" transform="translate(-0.28 -0.97)"/><path class="cls-5" d="M23.34,163.1l0.83-4.73L25,158l-0.9,5.11H23.34Z" transform="translate(-0.28 -0.97)"/></g><g class="cls-11"><path class="cls-5" d="M2.69,170.86H1.61v1.74h-1v-4.9H2.77a1.52,1.52,0,0,1,1.69,1.55A1.54,1.54,0,0,1,2.69,170.86Zm0-2.21H1.61v1.26H2.75a0.6,0.6,0,0,0,.7-0.64A0.61,0.61,0,0,0,2.74,168.65Z" transform="translate(-0.28 -0.97)"/></g><g class="cls-11"><path class="cls-5" d="M7.89,171.07H5.69a0.71,0.71,0,0,0,.76.69,0.82,0.82,0,0,0,.63-0.26l0.69,0.57a1.74,1.74,0,0,1-3-1.32,1.74,1.74,0,0,1,1.64-1.92,1.69,1.69,0,0,1,1.55,1.92A3,3,0,0,1,7.89,171.07Zm-1.58-1.39a0.64,0.64,0,0,0-.6.66H7A0.65,0.65,0,0,0,6.31,169.69Z" transform="translate(-0.28 -0.97)"/><path class="cls-5" d="M10.9,172.6v-2c0-.66-0.22-0.85-0.62-0.85s-0.63.2-.63,0.83v2h-1v-3.68h1v0.25a1.2,1.2,0,0,1,.86-0.32c0.94,0,1.36.64,1.36,1.68v2.07h-1Z" transform="translate(-0.28 -0.97)"/><path class="cls-5" d="M14.95,172.6v-0.25a1.21,1.21,0,0,1-.86.32c-0.94,0-1.36-.64-1.36-1.68v-2.07h1v2c0,0.66.22,0.85,0.62,0.85s0.63-.2.63-0.83v-2h1v3.68h-1Z" transform="translate(-0.28 -0.97)"/><path class="cls-5" d="M16.89,172.6V168l1-.48v5.11h-1Z" transform="translate(-0.28 -0.97)"/><path class="cls-5" d="M20.88,172.45a1.29,1.29,0,0,1-.75.22,1,1,0,0,1-1-1.11v-1.74H18.53v-0.91h0.62V168l1-.48v1.43H21v0.91H20.11v1.48c0,0.35.13,0.44,0.36,0.44a0.83,0.83,0,0,0,.55-0.28Z" transform="translate(-0.28 -0.97)"/><path class="cls-5" d="M22.44,168.62a0.55,0.55,0,1,1,.55-0.55A0.56,0.56,0,0,1,22.44,168.62Zm-0.48,4v-3.68h1v3.68H22Z" transform="translate(-0.28 -0.97)"/><path class="cls-5" d="M28.19,172.6v-2c0-.66-0.19-0.85-0.59-0.85s-0.6.2-.6,0.83v2H26v-2c0-.66-0.19-0.85-0.59-0.85s-0.6.2-.6,0.83v2h-1v-3.68h1v0.25a1.06,1.06,0,0,1,.81-0.32,1.15,1.15,0,0,1,1,.47,1.46,1.46,0,0,1,1.17-.47c0.94,0,1.31.64,1.31,1.68v2.07h-1Z" transform="translate(-0.28 -0.97)"/><path class="cls-5" d="M32.08,172.6v-0.25a1.17,1.17,0,0,1-.83.32,1.28,1.28,0,1,1,.12-2.53,1.54,1.54,0,0,1,.71.15v-0.18a0.47,0.47,0,0,0-.52-0.47,1.82,1.82,0,0,0-1,.25l-0.37-.67a2.47,2.47,0,0,1,1.38-.37,1.3,1.3,0,0,1,1.49,1.29v2.46h-1Zm0-1.54a1.12,1.12,0,0,0-.67-0.15,0.47,0.47,0,0,0-.56.46,0.48,0.48,0,0,0,.56.49,0.79,0.79,0,0,0,.67-0.34v-0.46Z" transform="translate(-0.28 -0.97)"/></g><g class="cls-11"><path class="cls-5" d="M34.6,172.45a1.29,1.29,0,0,1-.75.22,1,1,0,0,1-1-1.11v-1.74H32.26v-0.91h0.62V168l1-.48v1.43h0.88v0.91H33.84v1.48c0,0.35.13,0.44,0.36,0.44a0.83,0.83,0,0,0,.55-0.28Z" transform="translate(-0.28 -0.97)"/></g><g class="cls-11"><path class="cls-5" d="M38.3,171.07H36.1a0.71,0.71,0,0,0,.76.69,0.82,0.82,0,0,0,.63-0.26l0.69,0.57a1.74,1.74,0,0,1-3-1.32,1.74,1.74,0,0,1,1.64-1.92,1.69,1.69,0,0,1,1.55,1.92A3,3,0,0,1,38.3,171.07Zm-1.58-1.39a0.64,0.64,0,0,0-.6.66h1.26A0.65,0.65,0,0,0,36.72,169.69Z" transform="translate(-0.28 -0.97)"/><path class="cls-5" d="M42.86,172.68a1.17,1.17,0,0,1-.78-0.29v1.08l-1,.48v-5h1v0.23a1.13,1.13,0,0,1,.78-0.31c0.78,0,1.43.59,1.43,2C44.29,171.91,43.77,172.68,42.86,172.68Zm-0.18-2.92a0.68,0.68,0,0,0-.6.31v1.39a0.77,0.77,0,0,0,.65.32c0.37,0,.57-0.32.57-0.94S43.06,169.76,42.68,169.76Z" transform="translate(-0.28 -0.97)"/><path class="cls-5" d="M45.08,172.6V168l1-.48v5.11h-1Z" transform="translate(-0.28 -0.97)"/><path class="cls-5" d="M49,172.6v-0.25a1.17,1.17,0,0,1-.83.32,1.28,1.28,0,1,1,.12-2.53,1.54,1.54,0,0,1,.71.15v-0.18a0.47,0.47,0,0,0-.52-0.47,1.82,1.82,0,0,0-1,.25l-0.37-.67a2.47,2.47,0,0,1,1.38-.37A1.3,1.3,0,0,1,50,170.14v2.46H49Zm0-1.54a1.12,1.12,0,0,0-.67-0.15,0.47,0.47,0,0,0-.56.46,0.48,0.48,0,0,0,.56.49,0.79,0.79,0,0,0,.67-0.34v-0.46Z" transform="translate(-0.28 -0.97)"/><path class="cls-5" d="M53,172.45a1.29,1.29,0,0,1-.75.22,1,1,0,0,1-1-1.11v-1.74H50.62v-0.91h0.62V168l1-.48v1.43h0.88v0.91H52.2v1.48c0,0.35.13,0.44,0.36,0.44a0.83,0.83,0,0,0,.55-0.28Z" transform="translate(-0.28 -0.97)"/><path class="cls-5" d="M54.53,168.62a0.55,0.55,0,1,1,.55-0.55A0.56,0.56,0,0,1,54.53,168.62Zm-0.48,4v-3.68h1v3.68H54Z" transform="translate(-0.28 -0.97)"/><path class="cls-5" d="M58.2,172.6v-2c0-.66-0.22-0.85-0.62-0.85s-0.63.2-.63,0.83v2H56v-3.68h1v0.25a1.2,1.2,0,0,1,.86-0.32c0.94,0,1.36.64,1.36,1.68v2.07h-1Z" transform="translate(-0.28 -0.97)"/><path class="cls-5" d="M62.26,172.6v-0.25a1.21,1.21,0,0,1-.86.32C60.46,172.68,60,172,60,171v-2.07h1v2c0,0.66.22,0.85,0.62,0.85s0.63-.2.63-0.83v-2h1v3.68h-1Z" transform="translate(-0.28 -0.97)"/><path class="cls-5" d="M68.46,172.6v-2c0-.66-0.19-0.85-0.59-0.85s-0.6.2-.6,0.83v2h-1v-2c0-.66-0.19-0.85-0.59-0.85s-0.6.2-.6,0.83v2h-1v-3.68h1v0.25a1.06,1.06,0,0,1,.81-0.32,1.15,1.15,0,0,1,1,.47,1.46,1.46,0,0,1,1.17-.47c0.94,0,1.31.64,1.31,1.68v2.07h-1Z" transform="translate(-0.28 -0.97)"/><path class="cls-5" d="M70.28,170.54v-1h2v1h-2Z" transform="translate(-0.28 -0.97)"/></g><g class="cls-11"><path class="cls-5" d="M73,172.68a1.17,1.17,0,0,1-.78-0.29v0.21h-1V168l1-.48v1.66a1.13,1.13,0,0,1,.78-0.31c0.78,0,1.43.59,1.43,2C74.42,171.91,73.9,172.68,73,172.68Zm-0.18-2.92a0.68,0.68,0,0,0-.6.31v1.39a0.77,0.77,0,0,0,.65.32c0.37,0,.57-0.32.57-0.94S73.19,169.76,72.81,169.76Z" transform="translate(-0.28 -0.97)"/></g><g class="cls-11"><path class="cls-5" d="M77,172.6v-0.25a1.17,1.17,0,0,1-.83.32,1.28,1.28,0,1,1,.12-2.53,1.54,1.54,0,0,1,.71.15v-0.18a0.47,0.47,0,0,0-.52-0.47,1.82,1.82,0,0,0-1,.25l-0.37-.67a2.47,2.47,0,0,1,1.38-.37A1.3,1.3,0,0,1,78,170.14v2.46H77Zm0-1.54a1.12,1.12,0,0,0-.67-0.15,0.47,0.47,0,0,0-.56.46,0.48,0.48,0,0,0,.56.49,0.79,0.79,0,0,0,.67-0.34v-0.46Z" transform="translate(-0.28 -0.97)"/></g><g class="cls-11"><path class="cls-5" d="M80.08,172.68a2.88,2.88,0,0,1-1.54-.43l0.32-.74a2.56,2.56,0,0,0,1.27.34c0.38,0,.49-0.09.49-0.28s-0.13-.25-0.54-0.37c-0.88-.27-1.45-0.48-1.45-1.26s0.61-1.09,1.47-1.09a2.92,2.92,0,0,1,1.36.36l-0.31.76a2.39,2.39,0,0,0-1.07-.29c-0.39,0-.5.08-0.5,0.24s0.11,0.22.76,0.43a1.33,1.33,0,0,1,1.23,1.19C81.58,172.38,80.9,172.68,80.08,172.68Z" transform="translate(-0.28 -0.97)"/></g><g class="cls-11"><path class="cls-5" d="M85.17,171.07H83a0.71,0.71,0,0,0,.76.69,0.82,0.82,0,0,0,.63-0.26L85,172.08a1.74,1.74,0,0,1-3-1.32,1.74,1.74,0,0,1,1.64-1.92,1.69,1.69,0,0,1,1.55,1.92A3,3,0,0,1,85.17,171.07Zm-1.58-1.39a0.64,0.64,0,0,0-.6.66h1.26A0.65,0.65,0,0,0,83.59,169.69Z" transform="translate(-0.28 -0.97)"/><path class="cls-5" d="M88,172.6v-0.23a1.13,1.13,0,0,1-.78.31c-0.78,0-1.43-.59-1.43-2,0-1.1.52-1.87,1.43-1.87a1.16,1.16,0,0,1,.78.29V168l1-.48v5.11H88Zm0-2.53a0.77,0.77,0,0,0-.65-0.32c-0.37,0-.57.32-0.57,0.94s0.25,1.07.63,1.07a0.68,0.68,0,0,0,.6-0.31v-1.39Z" transform="translate(-0.28 -0.97)"/></g><g class="cls-11"><path class="cls-5" d="M93.54,170.05a0.84,0.84,0,0,0-.56-0.24c-0.38,0-.62.16-0.62,0.8v2h-1v-3.68h1v0.25a1,1,0,0,1,.76-0.32,0.94,0.94,0,0,1,.68.26Z" transform="translate(-0.28 -0.97)"/></g><g class="cls-11"><path class="cls-5" d="M97.09,171.07h-2.2a0.71,0.71,0,0,0,.76.69,0.82,0.82,0,0,0,.63-0.26L97,172.08a1.74,1.74,0,0,1-3-1.32,1.74,1.74,0,0,1,1.64-1.92,1.69,1.69,0,0,1,1.55,1.92A3,3,0,0,1,97.09,171.07Zm-1.58-1.39a0.64,0.64,0,0,0-.6.66h1.26A0.65,0.65,0,0,0,95.51,169.69Z" transform="translate(-0.28 -0.97)"/><path class="cls-5" d="M99.28,174l-0.34-.73c0.76-.1,1-0.29,1-0.85a1.13,1.13,0,0,1-.78.31c-0.78,0-1.43-.59-1.43-2,0-1.1.52-1.87,1.43-1.87a1.16,1.16,0,0,1,.78.29v-0.21h1V172C100.86,173.19,100.56,173.81,99.28,174Zm0.62-3.88a0.77,0.77,0,0,0-.65-0.32c-0.37,0-.57.32-0.57,0.94s0.25,1.07.63,1.07a0.68,0.68,0,0,0,.6-0.31v-1.39Z" transform="translate(-0.28 -0.97)"/><path class="cls-5" d="M102.33,168.62a0.55,0.55,0,1,1,.55-0.55A0.56,0.56,0,0,1,102.33,168.62Zm-0.48,4v-3.68h1v3.68h-1Z" transform="translate(-0.28 -0.97)"/><path class="cls-5" d="M108.08,172.6v-2c0-.66-0.19-0.85-0.59-0.85s-0.6.2-.6,0.83v2h-1v-2c0-.66-0.19-0.85-0.59-0.85s-0.6.2-.6,0.83v2h-1v-3.68h1v0.25a1.06,1.06,0,0,1,.81-0.32,1.15,1.15,0,0,1,1,.47,1.46,1.46,0,0,1,1.17-.47c0.94,0,1.31.64,1.31,1.68v2.07h-1Z" transform="translate(-0.28 -0.97)"/><path class="cls-5" d="M112.93,171.07h-2.2a0.71,0.71,0,0,0,.76.69,0.82,0.82,0,0,0,.63-0.26l0.69,0.57a1.74,1.74,0,0,1-3-1.32,1.74,1.74,0,0,1,1.64-1.92,1.69,1.69,0,0,1,1.55,1.92A3,3,0,0,1,112.93,171.07Zm-1.58-1.39a0.64,0.64,0,0,0-.6.66H112A0.65,0.65,0,0,0,111.35,169.69Z" transform="translate(-0.28 -0.97)"/><path class="cls-5" d="M115.94,172.6v-2c0-.66-0.22-0.85-0.62-0.85s-0.63.2-.63,0.83v2h-1v-3.68h1v0.25a1.2,1.2,0,0,1,.86-0.32c0.94,0,1.36.64,1.36,1.68v2.07h-1Z" transform="translate(-0.28 -0.97)"/></g><g class="cls-11"><path class="cls-5" d="M4.34,180.52a3.38,3.38,0,0,1,3.55-3.4l-0.11.72a2.59,2.59,0,0,0-2.47,1.54A1.72,1.72,0,0,1,6.47,179a1.42,1.42,0,0,1,1.62,1.46,1.79,1.79,0,0,1-2,1.72A1.57,1.57,0,0,1,4.34,180.52Zm1.88-.83a1,1,0,0,0-1.16.92,0.91,0.91,0,0,0,1.13.85,1,1,0,0,0,1.15-1C7.35,180,7,179.7,6.23,179.7Z" transform="translate(-0.28 -0.97)"/></g><g class="cls-11"><path class="cls-5" d="M8.73,179.89l0.13-.71H10.6l-0.13.71H8.73Z" transform="translate(-0.28 -0.97)"/></g><g class="cls-11"><path class="cls-5" d="M11.82,182.1H11.08l0.67-3.75H10.88l0.09-.51a1.17,1.17,0,0,0,1.11-.64h0.6Z" transform="translate(-0.28 -0.97)"/><path class="cls-5" d="M15.48,180a2.49,2.49,0,0,0-1.55,1.37h2.52l-0.13.71H12.9a3.27,3.27,0,0,1,2.27-2.66c0.78-.36,1-0.56,1-1s-0.31-.61-0.89-0.61a2.05,2.05,0,0,0-1.27.46l-0.36-.58a2.62,2.62,0,0,1,1.69-.6c1,0,1.63.45,1.63,1.24S16.46,179.56,15.48,180Z" transform="translate(-0.28 -0.97)"/><path class="cls-5" d="M24.65,180l-0.37,2.12H23.56L23.92,180a3.1,3.1,0,0,0,0-.41,0.52,0.52,0,0,0-.57-0.62,1,1,0,0,0-.88,1l-0.36,2H21.44L21.79,180a3.07,3.07,0,0,0,0-.41,0.53,0.53,0,0,0-.58-0.63,1,1,0,0,0-.87,1l-0.36,2H19.31L20,178.42h0.72l-0.06.33a1.11,1.11,0,0,1,.88-0.41,0.93,0.93,0,0,1,.94.55,1.53,1.53,0,0,1,1.18-.55,1,1,0,0,1,1.09,1.12A2.7,2.7,0,0,1,24.65,180Z" transform="translate(-0.28 -0.97)"/><path class="cls-5" d="M26.9,182.18a1.5,1.5,0,0,1-1.47-1.8,2,2,0,0,1,1.83-2,1.5,1.5,0,0,1,1.48,1.81A2,2,0,0,1,26.9,182.18ZM27.19,179a1.25,1.25,0,0,0-1,1.37,0.86,0.86,0,0,0,.81,1.09A1.26,1.26,0,0,0,28,180.13,0.87,0.87,0,0,0,27.19,179Z" transform="translate(-0.28 -0.97)"/></g><g class="cls-11"><path class="cls-5" d="M32.52,179.08H31.65l-0.34,2a1.08,1.08,0,0,0,0,.2,0.27,0.27,0,0,0,.33.27,0.87,0.87,0,0,0,.53-0.16l-0.21.69a1.28,1.28,0,0,1-.58.14,0.7,0.7,0,0,1-.81-0.74,1.77,1.77,0,0,1,0-.25l0.37-2.11H30.42l0.12-.66h0.52l0.18-1L32,177l-0.25,1.43h0.87Z" transform="translate(-0.28 -0.97)"/></g><g class="cls-11"><path class="cls-5" d="M34.28,182.18a1.5,1.5,0,0,1-1.47-1.8,2,2,0,0,1,1.83-2,1.5,1.5,0,0,1,1.48,1.81A2,2,0,0,1,34.28,182.18ZM34.58,179a1.25,1.25,0,0,0-1,1.37,0.86,0.86,0,0,0,.81,1.09,1.26,1.26,0,0,0,1.06-1.37A0.87,0.87,0,0,0,34.58,179Z" transform="translate(-0.28 -0.97)"/><path class="cls-5" d="M39.33,181.75l-0.23,1.33-0.78.37,0.89-5h0.71l-0.06.31a1.28,1.28,0,0,1,.91-0.38A1.3,1.3,0,0,1,42,179.88c0,1.41-.78,2.3-1.67,2.3A1.26,1.26,0,0,1,39.33,181.75ZM40.55,179a1.28,1.28,0,0,0-.82.41L39.45,181a1.1,1.1,0,0,0,.84.49c0.62,0,1-.79,1-1.59A0.75,0.75,0,0,0,40.55,179Z" transform="translate(-0.28 -0.97)"/></g><g class="cls-11"><path class="cls-5" d="M44.53,179.25a0.82,0.82,0,0,0-.52-0.17,0.94,0.94,0,0,0-.9,1l-0.35,2H42l0.65-3.68h0.72l-0.06.34a1.13,1.13,0,0,1,.86-0.41,0.91,0.91,0,0,1,.62.2Z" transform="translate(-0.28 -0.97)"/></g><g class="cls-11"><path class="cls-5" d="M46.2,182.18a1.5,1.5,0,0,1-1.47-1.8,2,2,0,0,1,1.83-2A1.5,1.5,0,0,1,48,180.15,2,2,0,0,1,46.2,182.18ZM46.5,179a1.25,1.25,0,0,0-1,1.37,0.86,0.86,0,0,0,.81,1.09,1.26,1.26,0,0,0,1.06-1.37A0.87,0.87,0,0,0,46.5,179Z" transform="translate(-0.28 -0.97)"/><path class="cls-5" d="M48.7,180.64c0-1.41.78-2.3,1.67-2.3a1.26,1.26,0,0,1,1,.43l0.06-.35h0.72l-0.56,3.21a1.83,1.83,0,0,1-2.06,1.81l-0.15-.57c1.05,0,1.32-.37,1.45-1v-0.07a1.28,1.28,0,0,1-.91.39A1.3,1.3,0,0,1,48.7,180.64Zm1.44,0.87A1.28,1.28,0,0,0,51,181.1l0.28-1.6A1.1,1.1,0,0,0,50.4,179c-0.62,0-1,.78-1,1.59A0.75,0.75,0,0,0,50.14,181.51Z" transform="translate(-0.28 -0.97)"/></g><g class="cls-11"><path class="cls-5" d="M54.74,179.25a0.82,0.82,0,0,0-.52-0.17,0.94,0.94,0,0,0-.9,1l-0.35,2H52.25l0.65-3.68h0.72l-0.06.34a1.13,1.13,0,0,1,.86-0.41,0.91,0.91,0,0,1,.62.2Z" transform="translate(-0.28 -0.97)"/></g><g class="cls-11"><path class="cls-5" d="M58,180.51H55.64a0.83,0.83,0,0,0,.85,1,1.55,1.55,0,0,0,.83-0.29l0.31,0.5a2,2,0,0,1-1.24.43,1.46,1.46,0,0,1-1.44-1.79,1.93,1.93,0,0,1,1.79-2,1.31,1.31,0,0,1,1.33,1.48A2.61,2.61,0,0,1,58,180.51ZM56.65,179a1,1,0,0,0-.92.93h1.65A0.73,0.73,0,0,0,56.65,179Z" transform="translate(-0.28 -0.97)"/><path class="cls-5" d="M61.22,179.36a1.68,1.68,0,0,0-1-.38,0.41,0.41,0,0,0-.5.34c0,0.21.07,0.31,0.68,0.59a1.16,1.16,0,0,1,1,1.17A1.21,1.21,0,0,1,60,182.18a2.17,2.17,0,0,1-1.48-.55l0.38-.53a1.73,1.73,0,0,0,1.16.44,0.5,0.5,0,0,0,.6-0.42c0-.21-0.1-0.35-0.62-0.57-0.73-.32-1.07-0.57-1-1.18a1.12,1.12,0,0,1,1.27-1,2.19,2.19,0,0,1,1.34.44Z" transform="translate(-0.28 -0.97)"/></g><g class="cls-11"><path class="cls-5" d="M64.36,179.36a1.68,1.68,0,0,0-1-.38,0.41,0.41,0,0,0-.5.34c0,0.21.07,0.31,0.68,0.59a1.16,1.16,0,0,1,1,1.17,1.21,1.21,0,0,1-1.37,1.09,2.17,2.17,0,0,1-1.48-.55L62,181.1a1.73,1.73,0,0,0,1.16.44,0.5,0.5,0,0,0,.6-0.42c0-.21-0.1-0.35-0.62-0.57-0.73-.32-1.07-0.57-1-1.18a1.12,1.12,0,0,1,1.27-1,2.19,2.19,0,0,1,1.34.44Z" transform="translate(-0.28 -0.97)"/><path class="cls-5" d="M65.93,182.1H65.21l0.64-3.68h0.72Zm0.43-4.15a0.47,0.47,0,1,1,.45-0.46A0.46,0.46,0,0,1,66.37,177.95Z" transform="translate(-0.28 -0.97)"/><path class="cls-5" d="M68.61,182.18a1.5,1.5,0,0,1-1.47-1.8,2,2,0,0,1,1.83-2,1.5,1.5,0,0,1,1.48,1.81A2,2,0,0,1,68.61,182.18ZM68.91,179a1.25,1.25,0,0,0-1,1.37,0.86,0.86,0,0,0,.81,1.09,1.26,1.26,0,0,0,1.06-1.37A0.87,0.87,0,0,0,68.91,179Z" transform="translate(-0.28 -0.97)"/><path class="cls-5" d="M74.29,180l-0.38,2.14H73.19L73.55,180a2.28,2.28,0,0,0,0-.36A0.55,0.55,0,0,0,73,179a1,1,0,0,0-.92,1l-0.36,2H71l0.65-3.68h0.72l-0.06.32a1.22,1.22,0,0,1,.91-0.39,1,1,0,0,1,1.13,1.14A2.86,2.86,0,0,1,74.29,180Z" transform="translate(-0.28 -0.97)"/></g><g class="cls-11"><path class="cls-5" d="M8,190.1L4.1,191.66V191l3.22-1.23L4.1,188.58V188L8,189.53v0.58Z" transform="translate(-0.28 -0.97)"/></g><g class="cls-11"><path class="cls-5" d="M9.41,191.6H8.67l0.67-3.75H8.47l0.09-.51a1.17,1.17,0,0,0,1.11-.64h0.6Z" transform="translate(-0.28 -0.97)"/><path class="cls-5" d="M13.07,189.51a2.49,2.49,0,0,0-1.55,1.37H14l-0.13.71H10.48a3.27,3.27,0,0,1,2.27-2.66c0.78-.36,1-0.56,1-1s-0.31-.61-0.89-0.61a2.05,2.05,0,0,0-1.27.46l-0.36-.58a2.62,2.62,0,0,1,1.69-.6c1,0,1.63.45,1.63,1.24S14,189.06,13.07,189.51Z" transform="translate(-0.28 -0.97)"/><path class="cls-5" d="M22.24,189.48l-0.37,2.12H21.15l0.36-2.05a3.1,3.1,0,0,0,0-.41,0.52,0.52,0,0,0-.57-0.62,1,1,0,0,0-.88,1l-0.36,2H19l0.36-2.05a3.07,3.07,0,0,0,0-.41,0.53,0.53,0,0,0-.58-0.63,1,1,0,0,0-.87,1l-0.36,2H16.9l0.64-3.68h0.72l-0.06.33a1.11,1.11,0,0,1,.88-0.41,0.93,0.93,0,0,1,.94.55,1.53,1.53,0,0,1,1.18-.55A1,1,0,0,1,22.3,189,2.7,2.7,0,0,1,22.24,189.48Z" transform="translate(-0.28 -0.97)"/><path class="cls-5" d="M24.49,191.68a1.5,1.5,0,0,1-1.47-1.8,2,2,0,0,1,1.83-2,1.5,1.5,0,0,1,1.48,1.81A2,2,0,0,1,24.49,191.68Zm0.29-3.14a1.25,1.25,0,0,0-1,1.37,0.86,0.86,0,0,0,.81,1.09,1.26,1.26,0,0,0,1.06-1.37A0.87,0.87,0,0,0,24.78,188.53Z" transform="translate(-0.28 -0.97)"/></g><g class="cls-11"><path class="cls-5" d="M30.11,188.58H29.24l-0.34,2a1.08,1.08,0,0,0,0,.2,0.27,0.27,0,0,0,.33.27,0.87,0.87,0,0,0,.53-0.16l-0.21.69a1.28,1.28,0,0,1-.58.14,0.7,0.7,0,0,1-.81-0.74,1.77,1.77,0,0,1,0-.25l0.37-2.11H28l0.12-.66h0.52l0.18-1,0.78-.39-0.25,1.43h0.87Z" transform="translate(-0.28 -0.97)"/></g><g class="cls-11"><path class="cls-5" d="M31.86,191.68a1.5,1.5,0,0,1-1.47-1.8,2,2,0,0,1,1.83-2,1.5,1.5,0,0,1,1.48,1.81A2,2,0,0,1,31.86,191.68Zm0.29-3.14a1.25,1.25,0,0,0-1,1.37,0.86,0.86,0,0,0,.81,1.09A1.26,1.26,0,0,0,33,189.63,0.87,0.87,0,0,0,32.16,188.53Z" transform="translate(-0.28 -0.97)"/><path class="cls-5" d="M36.91,191.25l-0.23,1.33-0.78.37,0.89-5H37.5l-0.06.31a1.28,1.28,0,0,1,.91-0.38,1.3,1.3,0,0,1,1.22,1.53c0,1.41-.78,2.3-1.67,2.3A1.26,1.26,0,0,1,36.91,191.25Zm1.22-2.74a1.28,1.28,0,0,0-.82.41L37,190.52a1.1,1.1,0,0,0,.84.49c0.62,0,1-.79,1-1.59A0.75,0.75,0,0,0,38.13,188.51Z" transform="translate(-0.28 -0.97)"/></g><g class="cls-11"><path class="cls-5" d="M42.12,188.75a0.82,0.82,0,0,0-.52-0.17,0.94,0.94,0,0,0-.9,1l-0.35,2H39.63l0.65-3.68H41l-0.06.34a1.13,1.13,0,0,1,.86-0.41,0.91,0.91,0,0,1,.62.2Z" transform="translate(-0.28 -0.97)"/></g><g class="cls-11"><path class="cls-5" d="M43.79,191.68a1.5,1.5,0,0,1-1.47-1.8,2,2,0,0,1,1.83-2,1.5,1.5,0,0,1,1.48,1.81A2,2,0,0,1,43.79,191.68Zm0.29-3.14a1.25,1.25,0,0,0-1,1.37,0.86,0.86,0,0,0,.81,1.09,1.26,1.26,0,0,0,1.06-1.37A0.87,0.87,0,0,0,44.09,188.53Z" transform="translate(-0.28 -0.97)"/><path class="cls-5" d="M46.29,190.14c0-1.41.78-2.3,1.67-2.3a1.26,1.26,0,0,1,1,.43l0.06-.35h0.72l-0.56,3.21A1.83,1.83,0,0,1,47.11,193L47,192.38c1.05,0,1.32-.37,1.45-1v-0.07a1.28,1.28,0,0,1-.91.39A1.3,1.3,0,0,1,46.29,190.14ZM47.73,191a1.28,1.28,0,0,0,.82-0.41l0.28-1.6a1.1,1.1,0,0,0-.84-0.49c-0.62,0-1,.78-1,1.59A0.75,0.75,0,0,0,47.73,191Z" transform="translate(-0.28 -0.97)"/></g><g class="cls-11"><path class="cls-5" d="M52.33,188.75a0.82,0.82,0,0,0-.52-0.17,0.94,0.94,0,0,0-.9,1l-0.35,2H49.84l0.65-3.68h0.72l-0.06.34a1.13,1.13,0,0,1,.86-0.41,0.91,0.91,0,0,1,.62.2Z" transform="translate(-0.28 -0.97)"/></g><g class="cls-11"><path class="cls-5" d="M55.55,190H53.22a0.83,0.83,0,0,0,.85,1,1.55,1.55,0,0,0,.83-0.29l0.31,0.5a2,2,0,0,1-1.24.43,1.46,1.46,0,0,1-1.44-1.79,1.93,1.93,0,0,1,1.79-2,1.31,1.31,0,0,1,1.33,1.48A2.61,2.61,0,0,1,55.55,190Zm-1.32-1.51a1,1,0,0,0-.92.93H55A0.73,0.73,0,0,0,54.23,188.5Z" transform="translate(-0.28 -0.97)"/><path class="cls-5" d="M58.8,188.86a1.68,1.68,0,0,0-1-.38,0.41,0.41,0,0,0-.5.34c0,0.21.07,0.31,0.68,0.59a1.16,1.16,0,0,1,1,1.17,1.21,1.21,0,0,1-1.37,1.09,2.17,2.17,0,0,1-1.48-.55l0.38-.53a1.73,1.73,0,0,0,1.16.44,0.5,0.5,0,0,0,.6-0.42c0-.21-0.1-0.35-0.62-0.57-0.73-.32-1.07-0.57-1-1.18a1.12,1.12,0,0,1,1.27-1,2.19,2.19,0,0,1,1.34.44Z" transform="translate(-0.28 -0.97)"/></g><g class="cls-11"><path class="cls-5" d="M61.94,188.86a1.68,1.68,0,0,0-1-.38,0.41,0.41,0,0,0-.5.34c0,0.21.07,0.31,0.68,0.59a1.16,1.16,0,0,1,1,1.17,1.21,1.21,0,0,1-1.37,1.09,2.17,2.17,0,0,1-1.48-.55l0.38-.53a1.73,1.73,0,0,0,1.16.44,0.5,0.5,0,0,0,.6-0.42c0-.21-0.1-0.35-0.62-0.57-0.73-.32-1.07-0.57-1-1.18a1.12,1.12,0,0,1,1.27-1,2.19,2.19,0,0,1,1.34.44Z" transform="translate(-0.28 -0.97)"/><path class="cls-5" d="M63.51,191.6H62.79l0.64-3.68h0.72Zm0.43-4.15a0.47,0.47,0,1,1,.45-0.46A0.46,0.46,0,0,1,63.95,187.45Z" transform="translate(-0.28 -0.97)"/><path class="cls-5" d="M66.19,191.68a1.5,1.5,0,0,1-1.47-1.8,2,2,0,0,1,1.83-2A1.5,1.5,0,0,1,68,189.65,2,2,0,0,1,66.19,191.68Zm0.29-3.14a1.25,1.25,0,0,0-1,1.37,0.86,0.86,0,0,0,.81,1.09,1.26,1.26,0,0,0,1.06-1.37A0.87,0.87,0,0,0,66.49,188.53Z" transform="translate(-0.28 -0.97)"/><path class="cls-5" d="M71.87,189.46l-0.38,2.14H70.77l0.36-2.05a2.28,2.28,0,0,0,0-.36,0.55,0.55,0,0,0-.6-0.68,1,1,0,0,0-.92,1l-0.36,2H68.56l0.65-3.68h0.72l-0.06.32a1.22,1.22,0,0,1,.91-0.39A1,1,0,0,1,71.92,189,2.86,2.86,0,0,1,71.87,189.46Z" transform="translate(-0.28 -0.97)"/></g></g><g class="cls-11"><g class="cls-11"><path class="cls-5" d="M254.63,227.64v-4.2h0.63V227h2.09v0.62h-2.72Z" transform="translate(-0.28 -0.97)"/></g><g class="cls-11"><path class="cls-5" d="M258.57,228.75h-0.65l0.46-1.17-1.16-3.09h0.68l0.52,1.54c0.1,0.28.24,0.74,0.28,0.92,0.05-.19.19-0.64,0.28-0.91l0.53-1.55h0.65Z" transform="translate(-0.28 -0.97)"/><path class="cls-5" d="M262.72,227.64v-1.78c0-.64-0.24-0.86-0.65-0.86a0.67,0.67,0,0,0-.65.8v1.84h-0.62v-3.15h0.62v0.3a1,1,0,0,1,.79-0.37,1.15,1.15,0,0,1,1.12,1.41v1.8h-0.62Z" transform="translate(-0.28 -0.97)"/></g><g class="cls-11"><path class="cls-5" d="M265.34,227.71a1.12,1.12,0,0,1-.79-0.36v1.13l-0.61.32v-4.31h0.61v0.3a1.2,1.2,0,0,1,.82-0.37c0.68,0,1.21.49,1.21,1.69A1.35,1.35,0,0,1,265.34,227.71ZM265.25,225a1,1,0,0,0-.71.4v1.33a1,1,0,0,0,.74.41c0.44,0,.68-0.34.68-1S265.71,225,265.25,225Z" transform="translate(-0.28 -0.97)"/></g><g class="cls-11"><path class="cls-5" d="M269,227.64v-0.31a1.24,1.24,0,0,1-.86.38,1,1,0,0,1-1.09-1.06,1.06,1.06,0,0,1,1.25-1,1.73,1.73,0,0,1,.7.12v-0.23a0.51,0.51,0,0,0-.59-0.53,1.59,1.59,0,0,0-.82.2l-0.24-.47a2,2,0,0,1,1.08-.28,1,1,0,0,1,1.18,1.05v2.16H269Zm0-1.34a1.57,1.57,0,0,0-.72-0.14,0.54,0.54,0,0,0-.65.47,0.51,0.51,0,0,0,.61.52,1,1,0,0,0,.76-0.4V226.3Z" transform="translate(-0.28 -0.97)"/></g><g class="cls-11"><path class="cls-5" d="M272,225.15a0.92,0.92,0,0,0-.47-0.11,0.66,0.66,0,0,0-.62.81v1.8h-0.62v-3.15h0.62v0.3a0.87,0.87,0,0,1,.72-0.37,0.91,0.91,0,0,1,.53.13Z" transform="translate(-0.28 -0.97)"/></g><g class="cls-11"><path class="cls-5" d="M272.45,227.64v-0.5l1.35-1.65,0.38-.46h-1.61v-0.54h2.31V225l-1.32,1.65-0.38.46h1.7v0.54h-2.43Z" transform="translate(-0.28 -0.97)"/></g><g class="cls-11"><path class="cls-5" d="M277.29,227.64v-0.31a1.24,1.24,0,0,1-.86.38,1,1,0,0,1-1.09-1.06,1.06,1.06,0,0,1,1.25-1,1.74,1.74,0,0,1,.7.12v-0.23a0.51,0.51,0,0,0-.59-0.53,1.59,1.59,0,0,0-.82.2l-0.24-.47a2,2,0,0,1,1.08-.28,1,1,0,0,1,1.18,1.05v2.16h-0.61Zm0-1.34a1.57,1.57,0,0,0-.72-0.14,0.54,0.54,0,0,0-.65.47,0.51,0.51,0,0,0,.61.52,1,1,0,0,0,.76-0.4V226.3Z" transform="translate(-0.28 -0.97)"/></g><g class="cls-11"><path class="cls-5" d="M281.86,227.64H280.2v-4.2h1.73a1.06,1.06,0,0,1,1.21,1.09,0.89,0.89,0,0,1-.53.84,1,1,0,0,1,.71,1A1.23,1.23,0,0,1,281.86,227.64Zm0.05-3.62h-1.13v1.09h1.13a0.52,0.52,0,0,0,.58-0.53A0.51,0.51,0,0,0,281.92,224Zm0,1.66h-1.14v1.39h1.12a0.64,0.64,0,0,0,.76-0.7A0.66,0.66,0,0,0,281.93,225.67Z" transform="translate(-0.28 -0.97)"/></g><g class="cls-11"><path class="cls-5" d="M286.48,226.28H284.4a0.82,0.82,0,0,0,.79.86,1.11,1.11,0,0,0,.68-0.25l0.37,0.4a1.46,1.46,0,0,1-1.08.41,1.44,1.44,0,0,1-1.36-1.64,1.41,1.41,0,0,1,1.38-1.64A1.38,1.38,0,0,1,286.5,226C286.5,226.12,286.49,226.22,286.48,226.28Zm-1.35-1.3a0.74,0.74,0,0,0-.72.79h1.46A0.73,0.73,0,0,0,285.13,225Z" transform="translate(-0.28 -0.97)"/></g><g class="cls-11"><path class="cls-5" d="M288.58,227.56a1.26,1.26,0,0,1-.61.14,0.7,0.7,0,0,1-.71-0.83v-1.82h-0.45v-0.56h0.45v-0.9l0.61-.32v1.22h0.78v0.56h-0.78v1.71c0,0.29.1,0.38,0.32,0.38a1,1,0,0,0,.46-0.13Z" transform="translate(-0.28 -0.97)"/></g><g class="cls-11"><path class="cls-5" d="M290.76,227.56a1.25,1.25,0,0,1-.61.14,0.7,0.7,0,0,1-.71-0.83v-1.82H289v-0.56h0.45v-0.9l0.61-.32v1.22h0.78v0.56h-0.78v1.71c0,0.29.1,0.38,0.32,0.38a1,1,0,0,0,.46-0.13Z" transform="translate(-0.28 -0.97)"/></g><g class="cls-11"><path class="cls-5" d="M293.93,226.28h-2.08a0.82,0.82,0,0,0,.79.86,1.11,1.11,0,0,0,.68-0.25l0.37,0.4a1.46,1.46,0,0,1-1.08.41,1.44,1.44,0,0,1-1.36-1.64,1.41,1.41,0,0,1,1.38-1.64A1.38,1.38,0,0,1,294,226C294,226.12,293.94,226.22,293.93,226.28Zm-1.35-1.3a0.74,0.74,0,0,0-.72.79h1.46A0.73,0.73,0,0,0,292.58,225Z" transform="translate(-0.28 -0.97)"/><path class="cls-5" d="M296.43,225.15A0.92,0.92,0,0,0,296,225a0.66,0.66,0,0,0-.62.81v1.8h-0.62v-3.15h0.62v0.3a0.87,0.87,0,0,1,.72-0.37,0.91,0.91,0,0,1,.53.13Z" transform="translate(-0.28 -0.97)"/></g></g><g class="cls-11"><g class="cls-11"><path class="cls-5" d="M446.8,225.07h-1.1v1.57h-0.62v-4.2h1.76a1.23,1.23,0,0,1,1.35,1.31A1.25,1.25,0,0,1,446.8,225.07Zm0-2H445.7v1.45h1.13a0.65,0.65,0,0,0,.72-0.73A0.66,0.66,0,0,0,446.83,223Z" transform="translate(-0.28 -0.97)"/><path class="cls-5" d="M448.94,226.64v-4l0.62-.32v4.37h-0.62Z" transform="translate(-0.28 -0.97)"/><path class="cls-5" d="M452.31,226.64v-0.31a1.24,1.24,0,0,1-.86.38,1,1,0,0,1-1.09-1.06,1.06,1.06,0,0,1,1.25-1,1.74,1.74,0,0,1,.7.12v-0.23a0.51,0.51,0,0,0-.59-0.53,1.59,1.59,0,0,0-.82.2l-0.24-.47a2,2,0,0,1,1.08-.28,1,1,0,0,1,1.18,1.05v2.16h-0.61Zm0-1.34a1.57,1.57,0,0,0-.72-0.14,0.54,0.54,0,0,0-.65.47,0.51,0.51,0,0,0,.61.52,1,1,0,0,0,.76-0.4V225.3Z" transform="translate(-0.28 -0.97)"/></g><g class="cls-11"><path class="cls-5" d="M455.33,224.4a1,1,0,0,0-.77-0.38,0.86,0.86,0,0,0-.74,1,0.88,0.88,0,0,0,.75,1.06,0.93,0.93,0,0,0,.71-0.39l0.4,0.39a1.34,1.34,0,0,1-1.13.59,1.67,1.67,0,0,1,0-3.28,1.39,1.39,0,0,1,1.12.53Z" transform="translate(-0.28 -0.97)"/></g><g class="cls-11"><path class="cls-5" d="M458.77,225.28h-2.08a0.82,0.82,0,0,0,.79.86,1.11,1.11,0,0,0,.68-0.25l0.37,0.4a1.46,1.46,0,0,1-1.08.41,1.44,1.44,0,0,1-1.36-1.64,1.41,1.41,0,0,1,1.38-1.64,1.38,1.38,0,0,1,1.33,1.58C458.79,225.12,458.78,225.22,458.77,225.28Zm-1.35-1.3a0.74,0.74,0,0,0-.72.79h1.46A0.73,0.73,0,0,0,457.42,224Z" transform="translate(-0.28 -0.97)"/><path class="cls-5" d="M461,226.71a1.12,1.12,0,0,1-.79-0.36v0.29h-0.61v-4.05l0.61-.32v1.52a1.2,1.2,0,0,1,.82-0.37c0.68,0,1.21.49,1.21,1.69A1.35,1.35,0,0,1,461,226.71ZM460.88,224a1,1,0,0,0-.71.4v1.33a1,1,0,0,0,.74.41c0.44,0,.68-0.34.68-1S461.33,224,460.88,224Z" transform="translate(-0.28 -0.97)"/><path class="cls-5" d="M464.21,226.71a1.66,1.66,0,1,1,1.42-1.66A1.46,1.46,0,0,1,464.21,226.71Zm0-2.69a0.87,0.87,0,0,0-.76,1,0.88,0.88,0,0,0,.79,1.07,0.92,0.92,0,0,0,.77-1A0.89,0.89,0,0,0,464.21,224Z" transform="translate(-0.28 -0.97)"/></g><g class="cls-11"><path class="cls-5" d="M469.17,226.64h-1.67v-4.2h1.73a1.06,1.06,0,0,1,1.21,1.09,0.89,0.89,0,0,1-.53.84,1,1,0,0,1,.71,1A1.23,1.23,0,0,1,469.17,226.64Zm0.05-3.62H468.1v1.09h1.13a0.52,0.52,0,0,0,.58-0.53A0.51,0.51,0,0,0,469.23,223Zm0,1.66H468.1v1.39h1.12a0.64,0.64,0,0,0,.76-0.7A0.66,0.66,0,0,0,469.24,224.67Z" transform="translate(-0.28 -0.97)"/></g><g class="cls-11"><path class="cls-5" d="M473.79,225.28h-2.08a0.82,0.82,0,0,0,.79.86,1.11,1.11,0,0,0,.68-0.25l0.37,0.4a1.47,1.47,0,0,1-1.09.41,1.44,1.44,0,0,1-1.36-1.64,1.41,1.41,0,0,1,1.38-1.64,1.38,1.38,0,0,1,1.33,1.58A2.62,2.62,0,0,1,473.79,225.28Zm-1.35-1.3a0.74,0.74,0,0,0-.72.79h1.46A0.73,0.73,0,0,0,472.44,224Z" transform="translate(-0.28 -0.97)"/></g><g class="cls-11"><path class="cls-5" d="M475.89,226.56a1.25,1.25,0,0,1-.61.14,0.7,0.7,0,0,1-.71-0.83v-1.82h-0.45v-0.56h0.45v-0.9l0.61-.32v1.22H476v0.56h-0.78v1.71c0,0.29.1,0.38,0.32,0.38A1,1,0,0,0,476,226Z" transform="translate(-0.28 -0.97)"/></g><g class="cls-11"><path class="cls-5" d="M478.07,226.56a1.26,1.26,0,0,1-.61.14,0.7,0.7,0,0,1-.71-0.83v-1.82h-0.45v-0.56h0.45v-0.9l0.61-.32v1.22h0.78v0.56h-0.78v1.71c0,0.29.1,0.38,0.32,0.38a1,1,0,0,0,.46-0.13Z" transform="translate(-0.28 -0.97)"/></g><g class="cls-11"><path class="cls-5" d="M481.24,225.28h-2.08a0.82,0.82,0,0,0,.79.86,1.11,1.11,0,0,0,.68-0.25l0.37,0.4a1.46,1.46,0,0,1-1.08.41,1.44,1.44,0,0,1-1.36-1.64,1.41,1.41,0,0,1,1.38-1.64,1.38,1.38,0,0,1,1.32,1.58C481.26,225.12,481.25,225.22,481.24,225.28Zm-1.35-1.3a0.74,0.74,0,0,0-.72.79h1.46A0.73,0.73,0,0,0,479.89,224Z" transform="translate(-0.28 -0.97)"/><path class="cls-5" d="M483.74,224.15a0.92,0.92,0,0,0-.47-0.11,0.66,0.66,0,0,0-.62.81v1.8H482v-3.15h0.62v0.3a0.87,0.87,0,0,1,.72-0.37,0.9,0.9,0,0,1,.53.13Z" transform="translate(-0.28 -0.97)"/></g></g><g class="cls-11"><g class="cls-11"><path class="cls-5" d="M117.76,210.94c-1.09,0-1.65-.89-1.65-2.16s0.58-2.17,1.66-2.17,1.65,0.89,1.65,2.16S118.84,210.94,117.76,210.94Zm0-3.72c-0.73,0-1,.67-1,1.55s0.29,1.56,1,1.56,1-.66,1-1.55S118.5,207.22,117.76,207.22Z" transform="translate(-0.28 -0.97)"/><path class="cls-5" d="M120.36,210.94a0.48,0.48,0,0,1-.47-0.47,0.47,0.47,0,1,1,.95,0A0.48,0.48,0,0,1,120.36,210.94Z" transform="translate(-0.28 -0.97)"/></g><g class="cls-11"><path class="cls-5" d="M123,210.94c-1.09,0-1.65-.89-1.65-2.16s0.58-2.17,1.66-2.17,1.65,0.89,1.65,2.16S124,210.94,123,210.94Zm0-3.72c-0.73,0-1,.67-1,1.55s0.29,1.56,1,1.56,1-.66,1-1.55S123.7,207.22,123,207.22Z" transform="translate(-0.28 -0.97)"/></g></g><g class="cls-11"><g class="cls-11"><path class="cls-5" d="M149.89,210.94c-1.09,0-1.65-.89-1.65-2.16s0.58-2.17,1.66-2.17,1.65,0.89,1.65,2.16S151,210.94,149.89,210.94Zm0-3.72c-0.73,0-1,.67-1,1.55s0.29,1.56,1,1.56,1-.66,1-1.55S150.63,207.22,149.89,207.22Z" transform="translate(-0.28 -0.97)"/></g><g class="cls-11"><path class="cls-5" d="M152.49,210.94a0.48,0.48,0,0,1-.47-0.47,0.47,0.47,0,1,1,.95,0A0.48,0.48,0,0,1,152.49,210.94Z" transform="translate(-0.28 -0.97)"/></g><g class="cls-11"><path class="cls-5" d="M153.85,210.87v-3.21H153.1v-0.44a0.81,0.81,0,0,0,.86-0.54h0.51v4.2h-0.63Z" transform="translate(-0.28 -0.97)"/></g></g><g class="cls-11"><g class="cls-11"><path class="cls-5" d="M180,210.94c-1.09,0-1.65-.89-1.65-2.16s0.58-2.17,1.66-2.17,1.65,0.89,1.65,2.16S181.08,210.94,180,210.94Zm0-3.72c-0.73,0-1,.67-1,1.55s0.29,1.56,1,1.56,1-.66,1-1.55S180.74,207.22,180,207.22Z" transform="translate(-0.28 -0.97)"/></g><g class="cls-11"><path class="cls-5" d="M182.6,210.94a0.48,0.48,0,0,1-.47-0.47,0.47,0.47,0,1,1,.95,0A0.48,0.48,0,0,1,182.6,210.94Z" transform="translate(-0.28 -0.97)"/><path class="cls-5" d="M183.65,210.87a2.61,2.61,0,0,1,1.61-2.27,1,1,0,0,0,.71-0.81c0-.34-0.23-0.55-0.8-0.55a1.53,1.53,0,0,0-1,.42l-0.4-.48a2.15,2.15,0,0,1,1.43-.57,1.18,1.18,0,0,1,1.43,1.14,1.5,1.5,0,0,1-1.06,1.36,1.87,1.87,0,0,0-1.13,1.15h2.23v0.61h-3Z" transform="translate(-0.28 -0.97)"/></g></g><g class="cls-11"><g class="cls-11"><path class="cls-5" d="M211.13,210.94c-1.09,0-1.65-.89-1.65-2.16s0.58-2.17,1.66-2.17,1.65,0.89,1.65,2.16S212.21,210.94,211.13,210.94Zm0-3.72c-0.73,0-1,.67-1,1.55s0.29,1.56,1,1.56,1-.66,1-1.55S211.87,207.22,211.13,207.22Z" transform="translate(-0.28 -0.97)"/></g><g class="cls-11"><path class="cls-5" d="M213.73,210.94a0.48,0.48,0,0,1-.47-0.47,0.47,0.47,0,1,1,.95,0A0.48,0.48,0,0,1,213.73,210.94Z" transform="translate(-0.28 -0.97)"/></g><g class="cls-11"><path class="cls-5" d="M216.26,210.94a1.88,1.88,0,0,1-1.51-.7l0.48-.41a1.32,1.32,0,0,0,1,.48c0.67,0,.92-0.26.92-0.69a0.65,0.65,0,0,0-.76-0.63H216v-0.61h0.38a0.55,0.55,0,0,0,.59-0.58,0.65,0.65,0,0,0-.79-0.58,1.11,1.11,0,0,0-.83.39l-0.47-.45a1.75,1.75,0,0,1,1.31-.57,1.25,1.25,0,0,1,1.43,1.14,1,1,0,0,1-.51.92,0.93,0.93,0,0,1,.68,1A1.32,1.32,0,0,1,216.26,210.94Z" transform="translate(-0.28 -0.97)"/></g></g><g class="cls-11"><g class="cls-11"><path class="cls-5" d="M242.16,210.94c-1.09,0-1.65-.89-1.65-2.16s0.58-2.17,1.66-2.17,1.65,0.89,1.65,2.16S243.24,210.94,242.16,210.94Zm0-3.72c-0.73,0-1,.67-1,1.55s0.29,1.56,1,1.56,1-.66,1-1.55S242.9,207.22,242.16,207.22Z" transform="translate(-0.28 -0.97)"/></g><g class="cls-11"><path class="cls-5" d="M244.76,210.94a0.48,0.48,0,0,1-.47-0.47,0.47,0.47,0,1,1,.95,0A0.48,0.48,0,0,1,244.76,210.94Z" transform="translate(-0.28 -0.97)"/></g><g class="cls-11"><path class="cls-5" d="M248.6,209.93v0.94H248v-0.92h-2.27v-0.6l2.17-2.67h0.72v2.7h0.56v0.56H248.6Zm-1-2.05-0.81,1c-0.13.16-.31,0.37-0.4,0.47H248v-1.22c0-.24,0-0.61,0-0.77Z" transform="translate(-0.28 -0.97)"/></g></g><g class="cls-11"><g class="cls-11"><path class="cls-5" d="M273.34,210.94c-1.08,0-1.65-.89-1.65-2.16s0.58-2.17,1.66-2.17,1.65,0.89,1.65,2.16S274.42,210.94,273.34,210.94Zm0-3.72c-0.73,0-1,.67-1,1.55s0.29,1.56,1,1.56,1-.66,1-1.55S274.08,207.22,273.34,207.22Z" transform="translate(-0.28 -0.97)"/></g><g class="cls-11"><path class="cls-5" d="M275.94,210.94a0.48,0.48,0,0,1-.47-0.47,0.47,0.47,0,1,1,.95,0A0.48,0.48,0,0,1,275.94,210.94Z" transform="translate(-0.28 -0.97)"/><path class="cls-5" d="M278.49,210.94a2.64,2.64,0,0,1-1.46-.41l0.31-.52a2.55,2.55,0,0,0,1.17.32,0.84,0.84,0,0,0,1-.85,0.73,0.73,0,0,0-.85-0.75,1.26,1.26,0,0,0-.81.26l-0.67-.26,0.14-2.05h2.58v0.6h-2l-0.08,1.06a1.8,1.8,0,0,1,.91-0.22,1.28,1.28,0,0,1,1.44,1.33A1.44,1.44,0,0,1,278.49,210.94Z" transform="translate(-0.28 -0.97)"/></g></g><g class="cls-11"><g class="cls-11"><path class="cls-5" d="M304.46,210.94c-1.08,0-1.65-.89-1.65-2.16s0.58-2.17,1.66-2.17,1.65,0.89,1.65,2.16S305.54,210.94,304.46,210.94Zm0-3.72c-0.73,0-1,.67-1,1.55s0.29,1.56,1,1.56,1-.66,1-1.55S305.2,207.22,304.46,207.22Z" transform="translate(-0.28 -0.97)"/></g><g class="cls-11"><path class="cls-5" d="M307.06,210.94a0.48,0.48,0,0,1-.47-0.47,0.47,0.47,0,1,1,.95,0A0.48,0.48,0,0,1,307.06,210.94Z" transform="translate(-0.28 -0.97)"/><path class="cls-5" d="M309.73,210.94a1.48,1.48,0,0,1-1.58-1.67,2.52,2.52,0,0,1,2.6-2.66v0.59a1.88,1.88,0,0,0-1.9,1.36,1.59,1.59,0,0,1,1.1-.34,1.27,1.27,0,0,1,1.41,1.31A1.44,1.44,0,0,1,309.73,210.94Zm0.05-2.12a0.8,0.8,0,0,0-1,.74,0.83,0.83,0,0,0,1,.77,0.82,0.82,0,0,0,1-.77A0.77,0.77,0,0,0,309.79,208.82Z" transform="translate(-0.28 -0.97)"/></g></g><g class="cls-11"><g class="cls-11"><path class="cls-5" d="M335.88,210.94c-1.08,0-1.65-.89-1.65-2.16s0.58-2.17,1.66-2.17,1.65,0.89,1.65,2.16S337,210.94,335.88,210.94Zm0-3.72c-0.73,0-1,.67-1,1.55s0.29,1.56,1,1.56,1-.66,1-1.55S336.62,207.22,335.88,207.22Z" transform="translate(-0.28 -0.97)"/></g><g class="cls-11"><path class="cls-5" d="M338.48,210.94a0.48,0.48,0,0,1-.47-0.47,0.47,0.47,0,1,1,.95,0A0.48,0.48,0,0,1,338.48,210.94Z" transform="translate(-0.28 -0.97)"/></g><g class="cls-11"><path class="cls-5" d="M340.57,210.87h-0.64a5.78,5.78,0,0,1,1.3-3.59H339v-0.61H342v0.63A5.46,5.46,0,0,0,340.57,210.87Z" transform="translate(-0.28 -0.97)"/></g></g><g class="cls-11"><g class="cls-11"><path class="cls-5" d="M366.59,210.94c-1.08,0-1.65-.89-1.65-2.16s0.58-2.17,1.66-2.17,1.65,0.89,1.65,2.16S367.67,210.94,366.59,210.94Zm0-3.72c-0.73,0-1,.67-1,1.55s0.29,1.56,1,1.56,1-.66,1-1.55S367.33,207.22,366.59,207.22Z" transform="translate(-0.28 -0.97)"/></g><g class="cls-11"><path class="cls-5" d="M369.19,210.94a0.48,0.48,0,0,1-.47-0.47,0.47,0.47,0,1,1,.95,0A0.48,0.48,0,0,1,369.19,210.94Z" transform="translate(-0.28 -0.97)"/><path class="cls-5" d="M372,210.94c-1,0-1.64-.46-1.64-1.29a1,1,0,0,1,.74-1,0.88,0.88,0,0,1-.56-0.81,1.26,1.26,0,0,1,1.48-1.19,1.27,1.27,0,0,1,1.46,1.18,0.89,0.89,0,0,1-.56.82,1,1,0,0,1,.74,1C373.61,210.47,373,210.94,372,210.94Zm0-2c-0.67,0-1,.26-1,0.69a0.83,0.83,0,0,0,1,.73,0.82,0.82,0,0,0,1-.7C373,209.22,372.66,208.94,372,208.94Zm0-1.76c-0.61,0-.83.28-0.83,0.59a0.7,0.7,0,0,0,.84.58A0.62,0.62,0,1,0,372,207.18Z" transform="translate(-0.28 -0.97)"/></g></g><g class="cls-11"><g class="cls-11"><path class="cls-5" d="M397.94,210.94c-1.09,0-1.65-.89-1.65-2.16s0.58-2.17,1.66-2.17,1.65,0.89,1.65,2.16S399,210.94,397.94,210.94Zm0-3.72c-0.73,0-1,.67-1,1.55s0.29,1.56,1,1.56,1-.66,1-1.55S398.68,207.22,397.94,207.22Z" transform="translate(-0.28 -0.97)"/></g><g class="cls-11"><path class="cls-5" d="M400.54,210.94a0.48,0.48,0,0,1-.47-0.47,0.47,0.47,0,1,1,.95,0A0.48,0.48,0,0,1,400.54,210.94Z" transform="translate(-0.28 -0.97)"/></g><g class="cls-11"><path class="cls-5" d="M401.92,210.94v-0.59a1.88,1.88,0,0,0,1.9-1.36,1.6,1.6,0,0,1-1.1.34A1.27,1.27,0,0,1,401.3,208a1.44,1.44,0,0,1,1.64-1.4,1.48,1.48,0,0,1,1.58,1.67A2.52,2.52,0,0,1,401.92,210.94Zm1-3.72a0.82,0.82,0,0,0-1,.77,0.77,0.77,0,0,0,1,.73,0.8,0.8,0,0,0,1-.74A0.83,0.83,0,0,0,402.92,207.22Z" transform="translate(-0.28 -0.97)"/></g></g><g class="cls-11"><g class="cls-11"><path class="cls-5" d="M428.68,210.87v-3.21h-0.74v-0.44a0.81,0.81,0,0,0,.86-0.54h0.51v4.2h-0.63Z" transform="translate(-0.28 -0.97)"/></g><g class="cls-11"><path class="cls-5" d="M430.63,210.94a0.48,0.48,0,0,1-.47-0.47,0.47,0.47,0,1,1,.95,0A0.48,0.48,0,0,1,430.63,210.94Z" transform="translate(-0.28 -0.97)"/></g><g class="cls-11"><path class="cls-5" d="M433.23,210.94c-1.08,0-1.65-.89-1.65-2.16s0.58-2.17,1.66-2.17,1.65,0.89,1.65,2.16S434.31,210.94,433.23,210.94Zm0-3.72c-0.73,0-1,.67-1,1.55s0.29,1.56,1,1.56,1-.66,1-1.55S434,207.22,433.23,207.22Z" transform="translate(-0.28 -0.97)"/></g></g><line class="cls-4" x1="120.08" y1="201.65" x2="120.08" y2="198.17"/><g class="cls-10"><g class="cls-10"><path class="cls-5" d="M2.62,6.89a2.59,2.59,0,0,1-2.17-1l0.81-.72a1.81,1.81,0,0,0,1.43.64c0.66,0,1-.18,1-0.61S3.47,4.67,2.41,4.43,0.66,3.86.66,2.75a1.77,1.77,0,0,1,2-1.64A2.67,2.67,0,0,1,4.7,2l-0.81.78A1.71,1.71,0,0,0,2.62,2.2c-0.6,0-.8.26-0.8,0.5S2.06,3.17,3,3.38,4.82,3.89,4.82,5.1C4.82,6.17,4.15,6.89,2.62,6.89Z" transform="translate(-0.28 -0.97)"/></g><g class="cls-11"><path class="cls-5" d="M8,6.8V6.52a1.37,1.37,0,0,1-1,.37C6,6.89,5.51,6.15,5.51,5V2.6h1.1V4.87c0,0.75.26,1,.71,1S8,5.62,8,4.9V2.6h1.1V6.8H8Z" transform="translate(-0.28 -0.97)"/><path class="cls-5" d="M12.21,6.89a1.33,1.33,0,0,1-.89-0.33V6.8h-1.1V1.52L11.32,1v1.9a1.29,1.29,0,0,1,.89-0.35c0.9,0,1.63.67,1.63,2.24C13.84,6,13.25,6.89,12.21,6.89ZM12,3.55a0.77,0.77,0,0,0-.68.35V5.49a0.88,0.88,0,0,0,.74.36c0.42,0,.66-0.37.66-1.07C12.72,3.91,12.43,3.55,12,3.55Z" transform="translate(-0.28 -0.97)"/><path class="cls-5" d="M16.31,8.34l-0.39-.83c0.86-.12,1.1-0.33,1.1-1a1.3,1.3,0,0,1-.89.35c-0.9,0-1.63-.67-1.63-2.24,0-1.26.59-2.13,1.63-2.13a1.33,1.33,0,0,1,.89.33V2.6h1.1V6.09C18.12,7.47,17.78,8.18,16.31,8.34ZM17,3.91a0.88,0.88,0,0,0-.74-0.36c-0.42,0-.66.37-0.66,1.07,0,0.86.29,1.22,0.72,1.22A0.77,0.77,0,0,0,17,5.5V3.91Z" transform="translate(-0.28 -0.97)"/></g><g class="cls-11"><path class="cls-5" d="M21.06,3.89a1,1,0,0,0-.64-0.27c-0.43,0-.71.18-0.71,0.91V6.8h-1.1V2.6h1.1V2.88a1.16,1.16,0,0,1,.86-0.37,1.08,1.08,0,0,1,.78.29Z" transform="translate(-0.28 -0.97)"/></g><g class="cls-11"><path class="cls-5" d="M23.4,6.89a2,2,0,0,1-1.9-2.18,1.92,1.92,0,1,1,3.8,0A2,2,0,0,1,23.4,6.89Zm0-3.31a0.92,0.92,0,0,0-.78,1.13,0.91,0.91,0,0,0,.78,1.12,1,1,0,0,0,.78-1.12A0.93,0.93,0,0,0,23.4,3.58Z" transform="translate(-0.28 -0.97)"/><path class="cls-5" d="M28.65,6.8V6.52a1.37,1.37,0,0,1-1,.37c-1.07,0-1.55-.74-1.55-1.92V2.6h1.1V4.87c0,0.75.26,1,.71,1s0.72-.22.72-1V2.6h1.1V6.8h-1.1Z" transform="translate(-0.28 -0.97)"/><path class="cls-5" d="M32.82,6.89a1.33,1.33,0,0,1-.89-0.33V7.79l-1.1.55V2.6h1.1V2.87a1.29,1.29,0,0,1,.89-0.35c0.9,0,1.63.67,1.63,2.24C34.45,6,33.86,6.89,32.82,6.89ZM32.61,3.55a0.77,0.77,0,0,0-.68.35V5.49a0.88,0.88,0,0,0,.74.36c0.42,0,.66-0.37.66-1.07C33.33,3.91,33,3.55,32.61,3.55Z" transform="translate(-0.28 -0.97)"/></g></g><g class="cls-10"><g class="cls-10"><path class="cls-5" d="M266.86,6.8V4.45h-2.29V6.8h-1.12V1.2h1.12V3.35h2.29V1.2H268V6.8h-1.12Z" transform="translate(-0.28 -0.97)"/><path class="cls-5" d="M271.55,6.8V6.52a1.34,1.34,0,0,1-.94.37A1.46,1.46,0,1,1,270.75,4a1.74,1.74,0,0,1,.81.17V4a0.53,0.53,0,0,0-.6-0.54,2.08,2.08,0,0,0-1.15.28l-0.42-.77A2.83,2.83,0,0,1,271,2.52,1.48,1.48,0,0,1,272.66,4V6.8h-1.1Zm0-1.76a1.28,1.28,0,0,0-.77-0.18,0.53,0.53,0,0,0-.64.53,0.55,0.55,0,0,0,.64.56,0.9,0.9,0,0,0,.77-0.38V5Z" transform="translate(-0.28 -0.97)"/></g><g class="cls-11"><path class="cls-5" d="M273.23,6.8V6l1.53-1.81,0.53-.6-0.69,0h-1.23v-1h3.33V3.4l-1.48,1.82c-0.17.21-.41,0.47-0.52,0.6l0.69,0h1.31v1h-3.47Z" transform="translate(-0.28 -0.97)"/></g><g class="cls-11"><path class="cls-5" d="M279.73,6.8V6.52a1.34,1.34,0,0,1-.94.37A1.46,1.46,0,1,1,278.92,4a1.74,1.74,0,0,1,.81.17V4a0.53,0.53,0,0,0-.6-0.54,2.08,2.08,0,0,0-1.15.28l-0.42-.77a2.83,2.83,0,0,1,1.58-.42A1.48,1.48,0,0,1,280.83,4V6.8h-1.1Zm0-1.76A1.28,1.28,0,0,0,279,4.87a0.53,0.53,0,0,0-.64.53A0.55,0.55,0,0,0,279,6a0.9,0.9,0,0,0,.77-0.38V5Z" transform="translate(-0.28 -0.97)"/></g><g class="cls-11"><path class="cls-5" d="M284.12,3.89a1,1,0,0,0-.64-0.27c-0.43,0-.71.18-0.71,0.91V6.8h-1.1V2.6h1.1V2.88a1.16,1.16,0,0,1,.86-0.37,1.07,1.07,0,0,1,.78.29Z" transform="translate(-0.28 -0.97)"/></g><g class="cls-11"><path class="cls-5" d="M287.07,6.8V6.54a1.29,1.29,0,0,1-.89.35c-0.9,0-1.63-.67-1.63-2.24,0-1.26.59-2.13,1.63-2.13a1.33,1.33,0,0,1,.89.33V1.52l1.1-.55V6.8h-1.1Zm0-2.89a0.88,0.88,0,0,0-.74-0.36c-0.42,0-.66.37-0.66,1.07,0,0.86.29,1.22,0.72,1.22a0.77,0.77,0,0,0,.68-0.35V3.91Z" transform="translate(-0.28 -0.97)"/></g><g class="cls-11"><path class="cls-5" d="M294.62,6.8l-1-2h-1.13v2h-1.12V1.2H294A1.74,1.74,0,0,1,295.9,3a1.6,1.6,0,0,1-1.07,1.65L295.9,6.8h-1.29ZM294,2.29h-1.46V3.73H294a0.68,0.68,0,0,0,.8-0.73A0.67,0.67,0,0,0,294,2.29Z" transform="translate(-0.28 -0.97)"/></g><g class="cls-11"><path class="cls-5" d="M298.78,6.8V6.52a1.34,1.34,0,0,1-.94.37A1.46,1.46,0,1,1,298,4a1.74,1.74,0,0,1,.81.17V4a0.53,0.53,0,0,0-.6-0.54,2.08,2.08,0,0,0-1.15.28l-0.42-.77a2.83,2.83,0,0,1,1.58-.42A1.48,1.48,0,0,1,299.88,4V6.8h-1.1Zm0-1.76A1.28,1.28,0,0,0,298,4.87a0.53,0.53,0,0,0-.64.53A0.55,0.55,0,0,0,298,6a0.9,0.9,0,0,0,.77-0.38V5Z" transform="translate(-0.28 -0.97)"/><path class="cls-5" d="M303.26,6.63a1.47,1.47,0,0,1-.86.26,1.14,1.14,0,0,1-1.12-1.26v-2h-0.7v-1h0.7V1.52l1.1-.55V2.6h1v1h-1V5.33c0,0.4.14,0.5,0.41,0.5a1,1,0,0,0,.62-0.32Z" transform="translate(-0.28 -0.97)"/><path class="cls-5" d="M305,2.26a0.63,0.63,0,1,1,.63-0.63A0.64,0.64,0,0,1,305,2.26ZM304.49,6.8V2.6h1.1V6.8h-1.1Z" transform="translate(-0.28 -0.97)"/><path class="cls-5" d="M308.38,6.89a2,2,0,0,1-1.9-2.18,1.92,1.92,0,1,1,3.8,0A2,2,0,0,1,308.38,6.89Zm0-3.31a0.92,0.92,0,0,0-.78,1.13,0.91,0.91,0,0,0,.78,1.12,1,1,0,0,0,.78-1.12A0.93,0.93,0,0,0,308.38,3.58Z" transform="translate(-0.28 -0.97)"/><path class="cls-5" d="M314.83,7.68a4.63,4.63,0,0,1,0-6.6l0.72,0.5a4.28,4.28,0,0,0-1,2.79,4.28,4.28,0,0,0,1,2.82Z" transform="translate(-0.28 -0.97)"/></g><g class="cls-11"><path class="cls-5" d="M315.85,6.89V5.8a2.3,2.3,0,0,0,2.44-1.31,2.09,2.09,0,0,1-1.28.35A1.75,1.75,0,0,1,315,3c0-1.25,1-1.92,2.36-1.92a2.06,2.06,0,0,1,2.22,2.26A3.41,3.41,0,0,1,315.85,6.89Zm1.5-4.73a1,1,0,0,0-1.18.84,0.9,0.9,0,0,0,1.12.83c0.76,0,1.17-.26,1.17-0.84A0.9,0.9,0,0,0,317.34,2.15Z" transform="translate(-0.28 -0.97)"/></g><g class="cls-11"><path class="cls-5" d="M322.24,6.89a3.87,3.87,0,0,1-2.18-.6l0.54-1a3.31,3.31,0,0,0,1.64.47,1,1,0,0,0,1.2-.92,0.82,0.82,0,0,0-1-.83,1.83,1.83,0,0,0-1.1.34L320.32,4l0.19-2.8h3.73V2.28h-2.69l-0.06,1A2.31,2.31,0,0,1,322.66,3a1.76,1.76,0,0,1,1.92,1.85C324.58,6.19,323.62,6.89,322.24,6.89Z" transform="translate(-0.28 -0.97)"/></g><g class="cls-11"><path class="cls-5" d="M326.4,4.59a1.52,1.52,0,0,1-1.46-1.73,1.53,1.53,0,0,1,1.48-1.75,1.51,1.51,0,0,1,1.47,1.73A1.55,1.55,0,0,1,326.4,4.59Zm0-2.73c-0.38,0-.58.33-0.58,1s0.2,1,.58,1,0.58-.38.58-1S326.79,1.86,326.41,1.86Zm1,4.94h-1l3.43-5.6h1Zm3.44,0.09a1.52,1.52,0,0,1-1.46-1.73,1.54,1.54,0,0,1,1.48-1.75,1.51,1.51,0,0,1,1.47,1.74A1.55,1.55,0,0,1,330.83,6.89Zm0-2.73c-0.38,0-.58.33-0.58,1s0.2,1,.58,1,0.58-.38.58-1S331.22,4.15,330.83,4.15Z" transform="translate(-0.28 -0.97)"/><path class="cls-5" d="M338.86,2.83a1.06,1.06,0,0,0-1-.61c-0.84,0-1.32.74-1.32,1.77s0.49,1.78,1.33,1.78a1.17,1.17,0,0,0,1.09-.71l0.94,0.56a2.14,2.14,0,0,1-2.07,1.26c-1.46,0-2.45-1.12-2.45-2.89a2.59,2.59,0,0,1,2.49-2.89,2.11,2.11,0,0,1,2,1.24Z" transform="translate(-0.28 -0.97)"/><path class="cls-5" d="M340.88,6.8V1.52L342,1V6.8h-1.1Z" transform="translate(-0.28 -0.97)"/><path class="cls-5" d="M343.62,7.68l-0.72-.5a4.28,4.28,0,0,0,1-2.79,4.28,4.28,0,0,0-1-2.82l0.72-.5A4.63,4.63,0,0,1,343.62,7.68Z" transform="translate(-0.28 -0.97)"/></g></g></svg>