<?xml version="1.0" encoding="utf-8"?>
<!-- Generator: Adobe Illustrator 21.0.0, SVG Export Plug-In . SVG Version: 6.00 Build 0)  -->
<svg version="1.1" id="Layer_1" xmlns="http://www.w3.org/2000/svg" xmlns:xlink="http://www.w3.org/1999/xlink" x="0px" y="0px"
	 viewBox="0 0 1801 868" style="enable-background:new 0 0 1801 868;" xml:space="preserve">
<style type="text/css">
	.st0{fill:#231F20;}
	.st1{fill:none;stroke:#FFFFFF;stroke-width:0.9722;stroke-miterlimit:10;}
	.st2{fill:none;stroke:#231F20;stroke-width:0.9722;stroke-miterlimit:10;}
	.st3{fill:#FF956C;}
	.st4{fill:#FF7238;}
	.st5{fill:#FF4D00;}
	.st6{fill:#FFFFFF;}
	.st7{font-family:'HelveticaNeue-LightCond';}
	.st8{font-size:28.0066px;}
	.st9{opacity:0.5;}
	.st10{fill:#646464;}
</style>
<g>
	<g>
		<path class="st0" d="M5.7,544.5v-2.7l25.8-6.4v-0.1L5.7,529v-2.7l28.6,7.5v3.2L5.7,544.5z"/>
		<path class="st0" d="M5.7,519.3v-3.2l28.6-8.4v2.7l-8.3,2.3v10l8.3,2.3v2.7L5.7,519.3z M23.8,513.2l-16.1,4.4v0.1l16.1,4.4V513.2z
			"/>
		<path class="st0" d="M24.6,488.7c6.5,0.4,10.2,3.4,10.2,8.5c0,5.8-4.5,9.1-14.8,9.1S5.2,503,5.2,497.2c0-5.8,4.1-8.2,8.8-8.2v2.6
			c-3.9,0-6.6,2-6.6,5.6c0,4.1,3.4,6.6,12.6,6.6c9.2,0,12.6-2.5,12.6-6.6c0-3.6-3.1-5.6-8-5.9V488.7z"/>
		<path class="st0" d="M24.6,468c6.5,0.4,10.2,3.4,10.2,8.5c0,5.8-4.5,9.1-14.8,9.1s-14.8-3.3-14.8-9.1c0-5.8,4.1-8.2,8.8-8.2v2.6
			c-3.9,0-6.6,2-6.6,5.6c0,4.1,3.4,6.6,12.6,6.6c9.2,0,12.6-2.5,12.6-6.6c0-3.6-3.1-5.6-8-5.9V468z"/>
		<path class="st0" d="M5.7,464.4v-2.6h28.6v2.6H5.7z"/>
		<path class="st0" d="M5.7,457.2v-3.4l24.9-10.9v-0.1H5.7v-2.6h28.6v3.4L9.4,454.5v0.1h24.9v2.6H5.7z"/>
		<path class="st0" d="M5.7,435.5v-14.2h2.2v11.6h10.4v-10.8h2.2v10.8h11.7v-12h2.2v14.5H5.7z"/>
		<path class="st0" d="M5.7,408.1V394h2.2v11.6h10.4v-10.8h2.2v10.8h11.7v-12h2.2v14.5H5.7z"/>
		<path class="st0" d="M5.7,390.4v-14.2h2.2v11.6h10.4V377h2.2v10.8h13.8v2.6H5.7z"/>
		<path class="st0" d="M5.7,373.2V359h2.2v11.6h10.4v-10.8h2.2v10.8h13.8v2.6H5.7z"/>
		<path class="st0" d="M5.7,355.9v-2.6h28.6v2.6H5.7z"/>
		<path class="st0" d="M24.6,331.5c6.5,0.4,10.2,3.4,10.2,8.5c0,5.8-4.5,9.1-14.8,9.1s-14.8-3.3-14.8-9.1c0-5.8,4.1-8.2,8.8-8.2v2.6
			c-3.9,0-6.6,2-6.6,5.6c0,4.1,3.4,6.6,12.6,6.6c9.2,0,12.6-2.5,12.6-6.6c0-3.6-3.1-5.6-8-5.9V331.5z"/>
		<path class="st0" d="M5.7,321.9v-3.2l28.6-8.4v2.7l-8.3,2.3v10l8.3,2.3v2.7L5.7,321.9z M23.8,315.8l-16.1,4.4v0.1l16.1,4.4V315.8z
			"/>
		<path class="st0" d="M24.6,291.3c6.5,0.4,10.2,3.4,10.2,8.5c0,5.8-4.5,9.1-14.8,9.1s-14.8-3.3-14.8-9.1c0-5.8,4.1-8.2,8.8-8.2v2.6
			c-3.9,0-6.6,2-6.6,5.6c0,4.1,3.4,6.6,12.6,6.6c9.2,0,12.6-2.5,12.6-6.6c0-3.6-3.1-5.6-8-5.9V291.3z"/>
		<path class="st0" d="M22.8,282.7l-17.1,7.7v-2.7l14.2-6.3l-14.2-6.3v-2.7l17.1,7.7h11.4v2.6H22.8z"/>
		<path class="st0" d="M5.7,253.7c5.4,3.1,11.7,4.6,18,4.6c6.3,0,12.5-1.5,18-4.6v1.7c-6.4,3.9-12.4,5.3-18,5.3
			c-5.6,0-11.6-1.4-18-5.3V253.7z"/>
		<path class="st0" d="M6,234v-2l28.8,12.3v2L6,234z M6,246.4c0-3.2,1.6-5,7.4-5s7.4,1.8,7.4,5s-1.6,5-7.4,5S6,249.6,6,246.4z
			 M18.9,246.4c0-1.7-1.3-2.9-5.6-2.9c-4.2,0-5.6,1.2-5.6,2.9c0,1.7,1.4,2.9,5.6,2.9C17.6,249.3,18.9,248.1,18.9,246.4z M20,231.8
			c0-3.2,1.6-5,7.4-5s7.4,1.8,7.4,5s-1.6,5-7.4,5S20,235,20,231.8z M33,231.8c0-1.7-1.3-2.9-5.6-2.9c-4.2,0-5.6,1.2-5.6,2.9
			c0,1.7,1.4,2.9,5.6,2.9C31.7,234.7,33,233.5,33,231.8z"/>
		<path class="st0" d="M41.6,224.6c-5.4-3.1-11.7-4.6-18-4.6c-6.3,0-12.5,1.5-18,4.6v-1.7c6.4-3.9,12.4-5.3,18-5.3
			c5.6,0,11.6,1.4,18,5.3V224.6z"/>
	</g>
	<line class="st1" x1="136.6" y1="21.7" x2="144.6" y2="21.7"/>
	<line class="st1" x1="136.6" y1="91.1" x2="144.6" y2="91.1"/>
	<line class="st1" x1="136.6" y1="160.6" x2="144.6" y2="160.6"/>
	<line class="st1" x1="136.6" y1="230" x2="144.6" y2="230"/>
	<line class="st1" x1="136.6" y1="299.4" x2="144.6" y2="299.4"/>
	<line class="st1" x1="136.6" y1="368.9" x2="144.6" y2="368.9"/>
	<line class="st1" x1="136.6" y1="438.3" x2="144.6" y2="438.3"/>
	<line class="st1" x1="136.6" y1="507.7" x2="144.6" y2="507.7"/>
	<line class="st1" x1="136.6" y1="577.2" x2="144.6" y2="577.2"/>
	<line class="st1" x1="136.6" y1="646.6" x2="144.6" y2="646.6"/>
	<line class="st1" x1="136.6" y1="716" x2="144.6" y2="716"/>
	<line class="st2" x1="144.6" y1="21.7" x2="420.7" y2="21.7"/>
	<line class="st2" x1="420.7" y1="21.7" x2="696.7" y2="21.7"/>
	<line class="st2" x1="696.7" y1="21.7" x2="972.8" y2="21.7"/>
	<line class="st2" x1="972.8" y1="21.7" x2="1248.9" y2="21.7"/>
	<line class="st2" x1="1248.9" y1="21.7" x2="1524.9" y2="21.7"/>
	<line class="st2" x1="1524.9" y1="21.7" x2="1801" y2="21.7"/>
	<line class="st2" x1="144.6" y1="91.1" x2="420.7" y2="91.1"/>
	<line class="st2" x1="420.7" y1="91.1" x2="696.7" y2="91.1"/>
	<line class="st2" x1="696.7" y1="91.1" x2="972.8" y2="91.1"/>
	<line class="st2" x1="972.8" y1="91.1" x2="1248.9" y2="91.1"/>
	<line class="st2" x1="1248.9" y1="91.1" x2="1524.9" y2="91.1"/>
	<line class="st2" x1="1524.9" y1="91.1" x2="1801" y2="91.1"/>
	<line class="st2" x1="144.6" y1="160.6" x2="420.7" y2="160.6"/>
	<line class="st2" x1="420.7" y1="160.6" x2="696.7" y2="160.6"/>
	<line class="st2" x1="696.7" y1="160.6" x2="972.8" y2="160.6"/>
	<line class="st2" x1="972.8" y1="160.6" x2="1248.9" y2="160.6"/>
	<line class="st2" x1="1248.9" y1="160.6" x2="1524.9" y2="160.6"/>
	<line class="st2" x1="1524.9" y1="160.6" x2="1801" y2="160.6"/>
	<line class="st2" x1="144.6" y1="230" x2="420.7" y2="230"/>
	<line class="st2" x1="420.7" y1="230" x2="696.7" y2="230"/>
	<line class="st2" x1="696.7" y1="230" x2="972.8" y2="230"/>
	<line class="st2" x1="972.8" y1="230" x2="1248.9" y2="230"/>
	<line class="st2" x1="1248.9" y1="230" x2="1524.9" y2="230"/>
	<line class="st2" x1="1524.9" y1="230" x2="1801" y2="230"/>
	<line class="st2" x1="144.6" y1="299.4" x2="420.7" y2="299.4"/>
	<line class="st2" x1="420.7" y1="299.4" x2="696.7" y2="299.4"/>
	<line class="st2" x1="696.7" y1="299.4" x2="972.8" y2="299.4"/>
	<line class="st2" x1="972.8" y1="299.4" x2="1248.9" y2="299.4"/>
	<line class="st2" x1="1248.9" y1="299.4" x2="1524.9" y2="299.4"/>
	<line class="st2" x1="1524.9" y1="299.4" x2="1801" y2="299.4"/>
	<line class="st2" x1="144.6" y1="368.9" x2="420.7" y2="368.9"/>
	<line class="st2" x1="420.7" y1="368.9" x2="696.7" y2="368.9"/>
	<line class="st2" x1="696.7" y1="368.9" x2="972.8" y2="368.9"/>
	<line class="st2" x1="972.8" y1="368.9" x2="1248.9" y2="368.9"/>
	<line class="st2" x1="1248.9" y1="368.9" x2="1524.9" y2="368.9"/>
	<line class="st2" x1="1524.9" y1="368.9" x2="1801" y2="368.9"/>
	<line class="st2" x1="144.6" y1="438.3" x2="420.7" y2="438.3"/>
	<line class="st2" x1="420.7" y1="438.3" x2="696.7" y2="438.3"/>
	<line class="st2" x1="696.7" y1="438.3" x2="972.8" y2="438.3"/>
	<line class="st2" x1="972.8" y1="438.3" x2="1248.9" y2="438.3"/>
	<line class="st2" x1="1248.9" y1="438.3" x2="1524.9" y2="438.3"/>
	<line class="st2" x1="1524.9" y1="438.3" x2="1801" y2="438.3"/>
	<line class="st2" x1="144.6" y1="507.7" x2="420.7" y2="507.7"/>
	<line class="st2" x1="420.7" y1="507.7" x2="696.7" y2="507.7"/>
	<line class="st2" x1="696.7" y1="507.7" x2="972.8" y2="507.7"/>
	<line class="st2" x1="972.8" y1="507.7" x2="1248.9" y2="507.7"/>
	<line class="st2" x1="1248.9" y1="507.7" x2="1524.9" y2="507.7"/>
	<line class="st2" x1="1524.9" y1="507.7" x2="1801" y2="507.7"/>
	<line class="st2" x1="144.6" y1="577.2" x2="420.7" y2="577.2"/>
	<line class="st2" x1="420.7" y1="577.2" x2="696.7" y2="577.2"/>
	<line class="st2" x1="696.7" y1="577.2" x2="972.8" y2="577.2"/>
	<line class="st2" x1="972.8" y1="577.2" x2="1248.9" y2="577.2"/>
	<line class="st2" x1="1248.9" y1="577.2" x2="1524.9" y2="577.2"/>
	<line class="st2" x1="1524.9" y1="577.2" x2="1801" y2="577.2"/>
	<line class="st2" x1="144.6" y1="646.6" x2="420.7" y2="646.6"/>
	<line class="st2" x1="420.7" y1="646.6" x2="696.7" y2="646.6"/>
	<line class="st2" x1="696.7" y1="646.6" x2="972.8" y2="646.6"/>
	<line class="st2" x1="972.8" y1="646.6" x2="1248.9" y2="646.6"/>
	<line class="st2" x1="1248.9" y1="646.6" x2="1524.9" y2="646.6"/>
	<line class="st2" x1="1524.9" y1="646.6" x2="1801" y2="646.6"/>
	<line class="st2" x1="144.6" y1="716" x2="420.7" y2="716"/>
	<line class="st2" x1="420.7" y1="716" x2="696.7" y2="716"/>
	<line class="st2" x1="696.7" y1="716" x2="972.8" y2="716"/>
	<line class="st2" x1="972.8" y1="716" x2="1248.9" y2="716"/>
	<line class="st2" x1="1248.9" y1="716" x2="1524.9" y2="716"/>
	<line class="st2" x1="1524.9" y1="716" x2="1801" y2="716"/>
	<g>
		<path class="st0" d="M78.7,13.9h-7.1v-1.9c5.2,0,7.6-2.1,7.7-5.4h2v31.2h-2.6V13.9z"/>
		<path class="st0" d="M97.4,6.6c7.1,0,8.8,6.6,8.8,15.8c0,9.2-1.7,15.8-8.8,15.8s-8.8-6.6-8.8-15.8C88.6,13.2,90.3,6.6,97.4,6.6z
			 M97.4,36c4.3,0,5.9-3.7,5.9-13.6c0-10-1.7-13.6-5.9-13.6s-5.9,3.7-5.9,13.6C91.4,32.4,93.1,36,97.4,36z"/>
		<path class="st0" d="M118.6,6.6c7.1,0,8.8,6.6,8.8,15.8c0,9.2-1.7,15.8-8.8,15.8s-8.8-6.6-8.8-15.8
			C109.8,13.2,111.5,6.6,118.6,6.6z M118.6,36c4.3,0,5.9-3.7,5.9-13.6c0-10-1.7-13.6-5.9-13.6s-5.9,3.7-5.9,13.6
			C112.7,32.4,114.3,36,118.6,36z"/>
	</g>
	<g>
		<path class="st0" d="M94.5,160.1L94.5,160.1c-3.1-0.9-4.7-4-4.7-7c0-5.1,3.3-7.7,7.8-7.7c4.6,0,7.8,2.6,7.8,7.7
			c0,2.9-1.6,6.1-4.7,6.9v0.1c3.8,0.4,5.6,4,5.6,7.7c0,5.9-3.5,9.3-8.8,9.3c-5.2,0-8.8-3.4-8.8-9.3
			C88.9,164.1,90.7,160.5,94.5,160.1z M97.7,174.9c4,0,5.9-3.2,5.9-6.9c0-3.8-2-7-5.9-7s-5.9,3.2-5.9,7
			C91.7,171.7,93.7,174.9,97.7,174.9z M97.7,158.8c3.4,0,5-2.3,5-5.6c0-3.3-1.6-5.6-5-5.6c-3.3,0-5,2.3-5,5.6
			C92.6,156.5,94.3,158.8,97.7,158.8z"/>
		<path class="st0" d="M118.6,145.4c7.1,0,8.8,6.6,8.8,15.8c0,9.2-1.7,15.8-8.8,15.8s-8.8-6.6-8.8-15.8
			C109.9,152.1,111.6,145.4,118.6,145.4z M118.6,174.9c4.3,0,5.9-3.7,5.9-13.6c0-10-1.7-13.6-5.9-13.6s-5.9,3.7-5.9,13.6
			C112.7,171.2,114.4,174.9,118.6,174.9z"/>
	</g>
	<g>
		<path class="st0" d="M102.9,291.6c-0.1-3-1.8-5.1-4.9-5.1c-4.3,0-6.4,3.9-6.6,14.2l0.1,0.1c1-3.2,3.4-5.1,6.7-5.1
			c5.4,0,8.2,4,8.2,9.7c0,5.9-2.7,10.6-8.7,10.6c-7,0-9.1-5.2-9.1-15c0-10.2,2-16.7,9.5-16.7c4.9,0,7.5,3,7.6,7.3H102.9z
			 M97.8,313.8c4.3,0,5.8-4,5.8-8c0-4-1.5-8-5.8-8c-4.3,0-5.8,4-5.8,8C92,309.8,93.5,313.8,97.8,313.8z"/>
		<path class="st0" d="M118.6,284.3c7.1,0,8.8,6.6,8.8,15.8c0,9.2-1.7,15.8-8.8,15.8s-8.8-6.6-8.8-15.8
			C109.9,290.9,111.6,284.3,118.6,284.3z M118.6,313.8c4.3,0,5.9-3.7,5.9-13.6c0-10-1.7-13.6-5.9-13.6s-5.9,3.7-5.9,13.6
			C112.7,310.1,114.4,313.8,118.6,313.8z"/>
	</g>
	<g>
		<path class="st0" d="M100.2,446.3h-12v-2.6l12-20.5h2.6v20.8h3.7v2.4h-3.7v8h-2.6V446.3z M100.2,443.9v-16.3h-0.1l-9.5,16.3H100.2
			z"/>
		<path class="st0" d="M118.6,423.1c7.1,0,8.8,6.6,8.8,15.8s-1.7,15.8-8.8,15.8s-8.8-6.6-8.8-15.8S111.5,423.1,118.6,423.1z
			 M118.6,452.6c4.3,0,5.9-3.7,5.9-13.6s-1.7-13.6-5.9-13.6s-5.9,3.7-5.9,13.6S114.3,452.6,118.6,452.6z"/>
	</g>
	<g>
		<path class="st0" d="M89.4,571.7c0.1-6,2.9-9.8,8.8-9.8c4.2,0,8.1,2.5,8.1,8.4c0,3.8-1.1,6.3-5.1,9.6l-3.4,2.8
			c-3.3,2.7-5,4.7-5.5,8h14.3v2.4H89.2c0-5.1,2.3-8.5,6.5-12l3.3-2.8c3.1-2.6,4.3-4.8,4.3-7.7c0-4.1-2.3-6.4-5.5-6.4
			c-3.6,0-5.5,2.4-5.7,7.6H89.4z"/>
		<path class="st0" d="M118.6,562c7.1,0,8.8,6.6,8.8,15.8s-1.7,15.8-8.8,15.8s-8.8-6.6-8.8-15.8S111.5,562,118.6,562z M118.6,591.5
			c4.3,0,5.9-3.7,5.9-13.6s-1.7-13.6-5.9-13.6s-5.9,3.7-5.9,13.6S114.3,591.5,118.6,591.5z"/>
	</g>
	<g>
		<path class="st0" d="M118.6,700.8c7.1,0,8.8,6.6,8.8,15.8s-1.7,15.8-8.8,15.8s-8.8-6.6-8.8-15.8S111.5,700.8,118.6,700.8z
			 M118.6,730.3c4.3,0,5.9-3.7,5.9-13.6s-1.7-13.6-5.9-13.6s-5.9,3.7-5.9,13.6S114.3,730.3,118.6,730.3z"/>
	</g>
	<g>
		<path class="st0" d="M393,735.7h2.8v31.4H393V735.7z"/>
		<path class="st0" d="M400.9,735.7h8.5c6.1,0,8.6,3.6,8.6,8.9c0,4.8-2.4,8.9-9.6,8.9h-4.7v13.6h-2.8V735.7z M403.7,751.1h4.8
			c3.7,0,6.7-1.7,6.7-6.5c0-4.7-2.4-6.5-6.7-6.5h-4.8V751.1z"/>
		<path class="st0" d="M421.7,735.7h7.6c9.2,0,11.4,5.5,11.4,15.7c0,10.3-2.2,15.7-11.4,15.7h-7.6V735.7z M424.6,764.7h4.6
			c6.2,0,8.8-3.1,8.8-13.3c0-10.3-2.6-13.4-8.8-13.4h-4.6V764.7z"/>
	</g>
	<g>
		<path class="st0" d="M449.1,739c0-1.1-0.7-1.9-1.8-1.9c-1.6,0-2.4,1.4-2.4,5.3l0,0c0.4-1.2,1.3-1.9,2.5-1.9c2,0,3,1.5,3,3.6
			c0,2.2-1,4-3.2,4c-2.6,0-3.4-1.9-3.4-5.6c0-3.8,0.8-6.2,3.5-6.2c1.8,0,2.8,1.1,2.8,2.7H449.1z M447.1,747.2c1.6,0,2.2-1.5,2.2-3
			c0-1.5-0.6-3-2.2-3c-1.6,0-2.2,1.5-2.2,3C445,745.7,445.6,747.2,447.1,747.2z"/>
	</g>
	<g>
		<path class="st0" d="M840.9,743.8h2.8l5.2,20.4h0.1l4.8-20.4h2.8l-6.2,23.4h-3L840.9,743.8z"/>
		<path class="st0" d="M858.1,750.7c0-4.8,2.3-7.5,7.2-7.5c4.8,0,6.6,2.5,6.6,6.2v13.8c0,1.3,0.4,1.9,1.4,1.9h0.7v1.9
			c-0.5,0.2-0.9,0.3-1.2,0.3c-2.1,0-3.4-0.5-3.4-2.9v-0.8h-0.1c-1.1,3.1-3.4,4-6,4c-4.1,0-5.9-2.6-5.9-6.6c0-3.1,1.4-5.5,4.7-6.5
			l5-1.4c1.8-0.5,2.2-1,2.2-3.7c0-3-1.7-4-4-4c-3.1,0-4.5,1.9-4.5,5.3H858.1z M869.3,754L869.3,754c-0.4,0.8-1.8,1.3-2.9,1.5
			l-2.2,0.6c-2.6,0.7-4,2.1-4,4.8c0,2.7,1.4,4.6,3.7,4.6c3.2,0,5.4-2.4,5.4-6.6V754z"/>
		<path class="st0" d="M890.5,759.4c-0.4,5-3.1,8.3-7.4,8.3c-4.9,0-7.8-3.4-7.8-12.2c0-8.1,2.9-12.2,8.1-12.2c4.4,0,7,2.7,7.2,7.5
			h-2.6c-0.3-3.7-1.8-5.3-4.6-5.3c-2.9,0-5.2,1.8-5.2,10c0,8.8,2.5,10,5,10c2.7,0,4.4-2,4.8-6.1H890.5z"/>
		<path class="st0" d="M908,759.4c-0.4,5-3.1,8.3-7.4,8.3c-4.9,0-7.8-3.4-7.8-12.2c0-8.1,2.9-12.2,8.1-12.2c4.4,0,7,2.7,7.2,7.5
			h-2.6c-0.3-3.7-1.8-5.3-4.6-5.3c-2.9,0-5.2,1.8-5.2,10c0,8.8,2.5,10,5,10c2.7,0,4.4-2,4.8-6.1H908z"/>
		<path class="st0" d="M911.1,735.7h2.6v4.5h-2.6V735.7z M911.1,743.8h2.6v23.4h-2.6V743.8z"/>
		<path class="st0" d="M917.9,743.8h2.4v3.3h0.1c1.3-2.6,3.6-3.8,6-3.8c3.6,0,6,1.8,6,6.2v17.6h-2.6v-16.9c0-3.2-1.3-4.8-4-4.8
			c-3.1,0-5.1,2.4-5.1,6v15.7h-2.6V743.8z"/>
		<path class="st0" d="M951.1,759.4c-0.4,5-3.1,8.3-7.5,8.3c-4.9,0-7.8-3.4-7.8-12.2c0-8.1,2.9-12.2,8.1-12.2
			c5.2,0,7.5,3.6,7.5,11.4v1h-12.8v1.1c0,6.7,2.4,8.8,5,8.8c2.8,0,4.5-2,4.9-6.1H951.1z M948.5,753.4c-0.1-5.8-1.7-7.9-5-7.9
			c-3.3,0-4.9,2.1-5,7.9H948.5z"/>
		<path class="st0" d="M964.6,753.5v2.4H955v-2.4H964.6z"/>
		<path class="st0" d="M969.2,746H966v-2.2h3.2v-6.5h2.6v6.5h4.1v2.2h-4.1v16.8c0,1.8,0.8,2.5,2.5,2.5c0.5,0,1.1-0.1,1.6-0.3v2.2
			c-0.3,0.2-1,0.3-1.8,0.3c-3.6,0-4.9-1-4.9-4.1V746z"/>
		<path class="st0" d="M977.2,743.8h2.8l5.2,20.2h0.1l4.7-20.2h2.8l-6.8,25.3c-1.2,4.6-2.6,5.9-6.2,5.9c-0.7,0-1.2,0-1.8-0.1v-2.2
			c0.6,0,1.1,0.1,1.7,0.1c1.6,0,2.7-0.7,3.5-3.1l0.7-2.2L977.2,743.8z"/>
		<path class="st0" d="M995.1,743.8h2.4v3.3h0.1c0.8-2.2,2.8-3.9,5.8-3.9c5.2,0,7.4,4.1,7.4,12.2c0,8.1-2.3,12.2-7.5,12.2
			c-2.9,0-4.9-1.6-5.5-4h-0.1v11.3h-2.6V743.8z M1003,745.5c-1.5,0-2.8,0.8-3.7,2.1c-1.1,1.6-1.5,3.9-1.5,8c0,8.6,2.4,10,5.1,10
			c2.6,0,5.1-1.4,5.1-10C1008,747,1005.5,745.5,1003,745.5z"/>
		<path class="st0" d="M1028.8,759.4c-0.4,5-3.1,8.3-7.5,8.3c-4.9,0-7.8-3.4-7.8-12.2c0-8.1,2.9-12.2,8.1-12.2
			c5.2,0,7.5,3.6,7.5,11.4v1h-12.8v1.1c0,6.7,2.4,8.8,5,8.8c2.8,0,4.5-2,4.9-6.1H1028.8z M1026.2,753.4c-0.1-5.8-1.7-7.9-5-7.9
			c-3.3,0-4.9,2.1-5,7.9H1026.2z"/>
		<path class="st0" d="M1042.3,753.5v2.4h-9.5v-2.4H1042.3z"/>
		<path class="st0" d="M1047.2,735.7h2.8v31.4h-2.8V735.7z"/>
		<path class="st0" d="M1055.2,735.7h8.5c6.1,0,8.6,3.6,8.6,8.9c0,4.8-2.4,8.9-9.6,8.9h-4.7v13.6h-2.8V735.7z M1058,751.1h4.8
			c3.7,0,6.7-1.7,6.7-6.5c0-4.7-2.4-6.5-6.7-6.5h-4.8V751.1z"/>
		<path class="st0" d="M1076,735.7h7.6c9.2,0,11.4,5.5,11.4,15.7c0,10.3-2.2,15.7-11.4,15.7h-7.6V735.7z M1078.8,764.8h4.6
			c6.2,0,8.8-3.1,8.8-13.3c0-10.3-2.6-13.4-8.8-13.4h-4.6V764.8z"/>
	</g>
	<g>
		<path class="st0" d="M1103.1,739c0-1.1-0.7-1.9-1.8-1.9c-1.6,0-2.4,1.4-2.4,5.3l0,0c0.4-1.2,1.3-1.9,2.5-1.9c2,0,3,1.5,3,3.6
			c0,2.2-1,4-3.2,4c-2.6,0-3.4-1.9-3.4-5.6c0-3.8,0.8-6.2,3.5-6.2c1.8,0,2.8,1.1,2.8,2.7H1103.1z M1101.2,747.2c1.6,0,2.2-1.5,2.2-3
			c0-1.5-0.6-3-2.2-3c-1.6,0-2.2,1.5-2.2,3C1099,745.7,1099.6,747.2,1101.2,747.2z"/>
	</g>
	<g>
		<path class="st0" d="M1501.9,737.8c1.8-0.3,4.3-0.6,7.3-0.6c3.8,0,6.6,0.9,8.3,2.5c1.6,1.4,2.6,3.6,2.6,6.2c0,2.7-0.8,4.8-2.3,6.3
			c-2,2.2-5.3,3.3-9.1,3.3c-1.1,0-2.2,0-3.1-0.3v11.9h-3.8V737.8z M1505.7,752.2c0.8,0.2,1.9,0.3,3.2,0.3c4.6,0,7.4-2.2,7.4-6.3
			c0-3.9-2.8-5.8-7-5.8c-1.7,0-2.9,0.1-3.6,0.3V752.2z"/>
		<path class="st0" d="M1523.9,737.8c1.8-0.3,4.3-0.6,7.3-0.6c3.8,0,6.6,0.9,8.3,2.5c1.6,1.4,2.6,3.6,2.6,6.2c0,2.7-0.8,4.8-2.3,6.3
			c-2,2.2-5.3,3.3-9.1,3.3c-1.1,0-2.2,0-3.1-0.3v11.9h-3.8V737.8z M1527.7,752.2c0.8,0.2,1.9,0.3,3.2,0.3c4.6,0,7.4-2.2,7.4-6.3
			c0-3.9-2.8-5.8-7-5.8c-1.7,0-2.9,0.1-3.6,0.3V752.2z"/>
	</g>
	<g>
		<path class="st0" d="M1546.3,741.7L1546.3,741.7c-1.1-0.3-1.7-1.5-1.7-2.6c0-1.9,1.2-2.9,2.9-2.9c1.7,0,2.9,1,2.9,2.9
			c0,1.1-0.6,2.3-1.7,2.5v0c1.4,0.1,2.1,1.5,2.1,2.9c0,2.2-1.3,3.5-3.2,3.5c-1.9,0-3.2-1.3-3.2-3.5
			C1544.2,743.2,1544.9,741.9,1546.3,741.7z M1547.4,747.2c1.5,0,2.2-1.2,2.2-2.6c0-1.4-0.7-2.6-2.2-2.6c-1.5,0-2.2,1.2-2.2,2.6
			C1545.2,746,1546,747.2,1547.4,747.2z M1547.4,741.2c1.3,0,1.9-0.8,1.9-2.1c0-1.2-0.6-2.1-1.9-2.1c-1.2,0-1.9,0.8-1.9,2.1
			C1545.6,740.4,1546.2,741.2,1547.4,741.2z"/>
	</g>
	<rect x="270.9" y="201.9" class="st3" width="296" height="513.7"/>
	<rect x="821.2" y="146.4" class="st4" width="296" height="569.2"/>
	<rect x="1368.6" y="272.2" class="st5" width="296" height="443.4"/>
	<g>
		<path class="st6" d="M370.6,231.6h27.7v8.3c-5.9,9.2-10.3,22.6-11.1,33.3h-11.5c1.1-10.9,5-22.9,12-32.5h-17.1V231.6z"/>
		<path class="st6" d="M395.7,256.9l13.4-25.3h12.1v25.7h3.7v8h-3.7v7.9h-10.4v-7.9h-15.1V256.9z M411.2,257.3v-14.2H411l-7,14.2
			H411.2z"/>
	</g>
	<g>
		<path class="st6" d="M433.1,230.8c7.1,0,9.4,3.2,9.4,11.5s-2.3,11.5-9.4,11.5s-9.4-3.2-9.4-11.5S426,230.8,433.1,230.8z
			 M433.1,249c1.7,0,2.1-1.2,2.1-6.7c0-5.5-0.4-6.7-2.1-6.7c-1.7,0-2.1,1.2-2.1,6.7C431,247.8,431.3,249,433.1,249z M452.1,230.8
			h6.6l-19,43.3h-6.6L452.1,230.8z M458.9,251.1c7.1,0,9.4,3.2,9.4,11.5s-2.3,11.5-9.4,11.5s-9.4-3.2-9.4-11.5
			S451.8,251.1,458.9,251.1z M458.9,269.3c1.7,0,2.1-1.2,2.1-6.7c0-5.5-0.4-6.7-2.1-6.7c-1.7,0-2.1,1.2-2.1,6.7
			C456.8,268.1,457.1,269.3,458.9,269.3z"/>
	</g>
	<g>
		<path class="st6" d="M385,316.2c0.1,1.9,1.2,3.2,3.1,3.2c2.7,0,4.1-2.5,4.2-9l-0.1-0.1c-0.6,2-2.2,3.2-4.3,3.2
			c-3.4,0-5.2-2.5-5.2-6.2c0-3.8,1.7-6.8,5.5-6.8c4.5,0,5.8,3.3,5.8,9.5c0,6.5-1.3,10.6-6,10.6c-3.1,0-4.8-1.9-4.8-4.6H385z
			 M388.2,312.3c2.7,0,3.7-2.5,3.7-5.1s-1-5.1-3.7-5.1c-2.7,0-3.7,2.5-3.7,5.1S385.5,312.3,388.2,312.3z"/>
		<path class="st6" d="M406.5,301.1v1.5h-7.3l-0.9,6.9l0.1,0.1c0.8-1.5,2.4-2,3.8-2c3.1,0,5.2,2.2,5.2,6.6c0,4-2,6.8-5.9,6.8
			c-3.1,0-5.3-1.9-5.3-5.4h1.8c0,2.2,1.3,4,3.7,4s3.9-2,3.9-5.7c0-2.7-1.2-4.9-3.9-4.9c-1.5,0-2.9,0.7-3.4,2.3h-1.7l1.1-10.2H406.5z
			"/>
		<path class="st6" d="M413.6,300.7c2.2,0,3.5,1.1,3.5,5.2s-1.3,5.2-3.5,5.2c-2.2,0-3.5-1.1-3.5-5.2S411.3,300.7,413.6,300.7z
			 M413.6,309.8c1.2,0,2-0.9,2-3.9c0-3-0.8-3.9-2-3.9c-1.2,0-2,1-2,3.9C411.5,308.9,412.4,309.8,413.6,309.8z M422.2,300.7h1.4
			l-8.6,20.2h-1.4L422.2,300.7z M423.7,310.6c2.2,0,3.5,1.1,3.5,5.2s-1.3,5.2-3.5,5.2c-2.2,0-3.5-1.1-3.5-5.2
			S421.5,310.6,423.7,310.6z M423.7,319.7c1.2,0,2-0.9,2-3.9c0-3-0.8-3.9-2-3.9c-1.2,0-2,1-2,3.9
			C421.7,318.7,422.6,319.7,423.7,319.7z"/>
		<path class="st6" d="M449.2,313.8c-0.3,4.6-2.4,7.1-5.9,7.1c-4.1,0-6.4-3.2-6.4-10.3s2.3-10.3,6.4-10.3c4.1,0,5.7,2.9,5.7,6.2
			h-1.8c0-2.7-1.4-4.6-3.9-4.6c-2.9,0-4.6,2.4-4.6,8.8c0,6.5,1.7,8.8,4.6,8.8c2.5,0,3.9-2.2,4.1-5.6H449.2z"/>
		<path class="st6" d="M451.8,300.6h1.8v20h-1.8V300.6z"/>
	</g>
	<text transform="matrix(1 0 0 1 461.9683 320.5615)" class="st6 st7 st8"> </text>
	<g>
		<path class="st6" d="M365.3,334.6c-2.2,3.8-3.2,8.2-3.2,12.6s1.1,8.8,3.2,12.6h-1.2c-2.7-4.5-3.7-8.7-3.7-12.6s1-8.1,3.7-12.6
			H365.3z"/>
		<path class="st6" d="M377.6,335.1v1.5h-7.3l-0.9,6.9l0.1,0.1c0.8-1.5,2.4-2,3.8-2c3.1,0,5.2,2.2,5.2,6.6c0,4-2,6.8-5.9,6.8
			c-3.1,0-5.3-1.9-5.3-5.4h1.8c0,2.2,1.3,4,3.7,4s3.9-2,3.9-5.7c0-2.7-1.2-4.9-3.9-4.9c-1.5,0-2.9,0.7-3.4,2.3h-1.7l1.1-10.2H377.6z
			"/>
		<path class="st6" d="M391.1,335.1v1.5h-7.3l-0.9,6.9l0.1,0.1c0.8-1.5,2.4-2,3.8-2c3.1,0,5.2,2.2,5.2,6.6c0,4-2,6.8-5.9,6.8
			c-3.1,0-5.3-1.9-5.3-5.4h1.8c0,2.2,1.3,4,3.7,4s3.9-2,3.9-5.7c0-2.7-1.2-4.9-3.9-4.9c-1.5,0-2.9,0.7-3.4,2.3h-1.7l1.1-10.2H391.1z
			"/>
		<path class="st6" d="M398.2,334.7c2.2,0,3.5,1.1,3.5,5.2s-1.3,5.2-3.5,5.2c-2.2,0-3.5-1.1-3.5-5.2S396,334.7,398.2,334.7z
			 M398.2,343.8c1.2,0,2-0.9,2-3.9c0-3-0.8-3.9-2-3.9c-1.2,0-2,1-2,3.9C396.2,342.9,397,343.8,398.2,343.8z M406.9,334.7h1.4
			l-8.6,20.2h-1.4L406.9,334.7z M408.4,344.6c2.2,0,3.5,1.1,3.5,5.2s-1.3,5.2-3.5,5.2c-2.2,0-3.5-1.1-3.5-5.2
			S406.2,344.6,408.4,344.6z M408.4,353.7c1.2,0,2-0.9,2-3.9c0-3-0.8-3.9-2-3.9c-1.2,0-2,1-2,3.9
			C406.4,352.7,407.2,353.7,408.4,353.7z"/>
		<path class="st6" d="M422.2,345.9v1.5h-6.1v-1.5H422.2z"/>
		<path class="st6" d="M428.5,344.1L428.5,344.1c-2-0.6-3-2.5-3-4.4c0-3.2,2.1-4.9,5-4.9c2.9,0,5,1.7,5,4.9c0,1.9-1,3.9-3,4.4v0.1
			c2.4,0.3,3.6,2.6,3.6,4.9c0,3.8-2.2,5.9-5.6,5.9c-3.3,0-5.6-2.2-5.6-5.9C424.9,346.6,426,344.3,428.5,344.1z M430.5,353.5
			c2.5,0,3.8-2,3.8-4.4c0-2.4-1.3-4.4-3.8-4.4c-2.5,0-3.8,2-3.8,4.4C426.7,351.5,428,353.5,430.5,353.5z M430.5,343.3
			c2.2,0,3.2-1.5,3.2-3.6c0-2.1-1-3.6-3.2-3.6c-2.1,0-3.2,1.5-3.2,3.6C427.3,341.8,428.3,343.3,430.5,343.3z"/>
		<path class="st6" d="M447.4,339.4c-0.1-1.9-1.2-3.2-3.1-3.2c-2.7,0-4.1,2.5-4.2,9l0.1,0.1c0.6-2,2.2-3.2,4.3-3.2
			c3.4,0,5.2,2.5,5.2,6.2c0,3.8-1.7,6.8-5.5,6.8c-4.5,0-5.8-3.3-5.8-9.5c0-6.5,1.3-10.6,6-10.6c3.1,0,4.8,1.9,4.8,4.6H447.4z
			 M444.2,353.5c2.7,0,3.7-2.5,3.7-5.1c0-2.5-1-5.1-3.7-5.1c-2.7,0-3.7,2.5-3.7,5.1C440.5,351,441.5,353.5,444.2,353.5z"/>
		<path class="st6" d="M456.2,334.7c2.2,0,3.5,1.1,3.5,5.2s-1.3,5.2-3.5,5.2c-2.2,0-3.5-1.1-3.5-5.2S454,334.7,456.2,334.7z
			 M456.2,343.8c1.2,0,2-0.9,2-3.9c0-3-0.8-3.9-2-3.9c-1.2,0-2,1-2,3.9C454.2,342.9,455.1,343.8,456.2,343.8z M464.9,334.7h1.4
			l-8.6,20.2h-1.4L464.9,334.7z M466.4,344.6c2.2,0,3.5,1.1,3.5,5.2s-1.3,5.2-3.5,5.2c-2.2,0-3.5-1.1-3.5-5.2
			S464.2,344.6,466.4,344.6z M466.4,353.7c1.2,0,2-0.9,2-3.9c0-3-0.8-3.9-2-3.9c-1.2,0-2,1-2,3.9
			C464.4,352.7,465.3,353.7,466.4,353.7z"/>
		<path class="st6" d="M471.6,359.7c2.2-3.8,3.2-8.2,3.2-12.6s-1.1-8.8-3.2-12.6h1.2c2.7,4.5,3.7,8.7,3.7,12.6s-1,8.1-3.7,12.6
			H471.6z"/>
	</g>
	<g>
		<path class="st6" d="M917,203.6c0-5.2,2.4-9.2,7.1-9.8v-0.1c-5-1.2-6.3-4.9-6.3-8.6c0-6.8,3.8-11.4,13.7-11.4
			c9.8,0,13.7,4.6,13.7,11.4c0,3.7-1.3,7.4-6.3,8.6v0.1c5.1,0.9,7.1,5,7.1,9.8c0,10.5-5.3,13.4-14.5,13.4
			C922.4,217.1,917,214.1,917,203.6z M931.5,210.1c2,0,3.3-1.3,3.3-6.3c0-5-1.3-6.2-3.3-6.2c-2,0-3.3,1.3-3.3,6.2
			C928.2,208.9,929.5,210.1,931.5,210.1z M931.5,191c1.6,0,2.9-1,2.9-5.2c0-4.1-1.3-5.1-2.9-5.1s-2.9,1-2.9,5.1
			C928.6,190,929.9,191,931.5,191z"/>
		<path class="st6" d="M946.4,188.2c0.1-4.4,0.6-7.9,2.6-10.4c2-2.5,5.5-4,11.3-4c11.2,0,13.7,5.2,13.7,11.6c0,5.8-2.1,9.4-5.3,12.6
			l-6.6,6.4c-1,1-2.3,2.2-2.8,3.5H974v8.4h-28c0-5.9,1.5-11.3,6.4-16.3l7.4-7.6c2.2-2.2,3-3.8,3-7c0-3.6-1.1-4.7-2.9-4.7
			c-1.6,0-3.1,0.8-3.1,5.6v1.8H946.4z"/>
	</g>
	<g>
		<path class="st6" d="M983.9,173.8c7.1,0,9.4,3.2,9.4,11.5s-2.3,11.5-9.4,11.5c-7.1,0-9.4-3.2-9.4-11.5S976.9,173.8,983.9,173.8z
			 M983.9,192c1.7,0,2.1-1.2,2.1-6.7c0-5.5-0.4-6.7-2.1-6.7s-2.1,1.2-2.1,6.7C981.8,190.8,982.2,192,983.9,192z M1003,173.8h6.6
			l-19,43.3H984L1003,173.8z M1009.8,194c7.1,0,9.4,3.2,9.4,11.5s-2.3,11.5-9.4,11.5c-7.1,0-9.4-3.2-9.4-11.5S1002.7,194,1009.8,194
			z M1009.8,212.3c1.7,0,2.1-1.2,2.1-6.7c0-5.5-0.4-6.7-2.1-6.7s-2.1,1.2-2.1,6.7C1007.7,211.1,1008,212.3,1009.8,212.3z"/>
	</g>
	<g>
		<path class="st6" d="M934.2,257.9c0.1,1.9,1.2,3.2,3.1,3.2c2.7,0,4.1-2.5,4.2-9l-0.1-0.1c-0.6,2-2.2,3.2-4.3,3.2
			c-3.4,0-5.2-2.5-5.2-6.2c0-3.8,1.7-6.8,5.5-6.8c4.5,0,5.8,3.3,5.8,9.5c0,6.5-1.3,10.6-6,10.6c-3.1,0-4.8-1.9-4.8-4.6H934.2z
			 M937.5,254c2.7,0,3.7-2.5,3.7-5.1s-1-5.1-3.7-5.1c-2.7,0-3.7,2.5-3.7,5.1S934.7,254,937.5,254z"/>
		<path class="st6" d="M955.7,242.8v1.5h-7.3l-0.9,6.9l0.1,0.1c0.8-1.5,2.4-2,3.8-2c3.1,0,5.2,2.2,5.2,6.6c0,4-2,6.8-5.9,6.8
			c-3.1,0-5.3-1.9-5.3-5.4h1.8c0,2.2,1.3,4,3.7,4c2.4,0,3.9-2,3.9-5.7c0-2.7-1.2-4.9-3.9-4.9c-1.5,0-2.9,0.7-3.4,2.3h-1.7l1.1-10.2
			H955.7z"/>
		<path class="st6" d="M962.8,242.4c2.2,0,3.5,1.1,3.5,5.2s-1.3,5.2-3.5,5.2c-2.2,0-3.5-1.1-3.5-5.2S960.5,242.4,962.8,242.4z
			 M962.8,251.5c1.2,0,2-0.9,2-3.9c0-3-0.8-3.9-2-3.9c-1.2,0-2,1-2,3.9C960.8,250.6,961.6,251.5,962.8,251.5z M971.5,242.4h1.4
			l-8.6,20.2h-1.4L971.5,242.4z M973,252.3c2.2,0,3.5,1.1,3.5,5.2s-1.3,5.2-3.5,5.2s-3.5-1.1-3.5-5.2S970.7,252.3,973,252.3z
			 M973,261.4c1.2,0,2-0.9,2-3.9c0-3-0.8-3.9-2-3.9c-1.2,0-2,1-2,3.9C971,260.4,971.8,261.4,973,261.4z"/>
		<path class="st6" d="M998.4,255.5c-0.3,4.6-2.4,7.1-5.9,7.1c-4.1,0-6.4-3.2-6.4-10.3s2.3-10.3,6.4-10.3c4.1,0,5.7,2.9,5.7,6.2
			h-1.8c0-2.7-1.4-4.6-3.9-4.6c-2.9,0-4.6,2.4-4.6,8.8c0,6.5,1.7,8.8,4.6,8.8c2.5,0,3.9-2.2,4.1-5.6H998.4z"/>
		<path class="st6" d="M1001,242.3h1.8v20h-1.8V242.3z"/>
	</g>
	<g>
		<path class="st6" d="M914.1,276.3c-2.2,3.8-3.2,8.2-3.2,12.6s1.1,8.8,3.2,12.6h-1.2c-2.7-4.5-3.7-8.7-3.7-12.6s1-8.1,3.7-12.6
			H914.1z"/>
		<path class="st6" d="M925.3,281.1c-0.1-1.9-1.2-3.2-3.1-3.2c-2.7,0-4.1,2.5-4.2,9l0.1,0.1c0.6-2,2.2-3.2,4.3-3.2
			c3.4,0,5.2,2.5,5.2,6.2c0,3.8-1.7,6.8-5.5,6.8c-4.5,0-5.8-3.3-5.8-9.5c0-6.5,1.3-10.6,6-10.6c3.1,0,4.8,1.9,4.8,4.6H925.3z
			 M922,295.2c2.7,0,3.7-2.5,3.7-5.1c0-2.5-1-5.1-3.7-5.1c-2.7,0-3.7,2.5-3.7,5.1C918.3,292.7,919.3,295.2,922,295.2z"/>
		<path class="st6" d="M931.8,291.9c0.1,1.9,1.2,3.2,3.1,3.2c2.7,0,4.1-2.5,4.2-9l-0.1-0.1c-0.6,2-2.2,3.2-4.3,3.2
			c-3.4,0-5.2-2.5-5.2-6.2c0-3.8,1.7-6.8,5.5-6.8c4.5,0,5.8,3.3,5.8,9.5c0,6.5-1.3,10.6-6,10.6c-3.1,0-4.8-1.9-4.8-4.6H931.8z
			 M935,288c2.7,0,3.7-2.5,3.7-5.1s-1-5.1-3.7-5.1c-2.7,0-3.7,2.5-3.7,5.1S932.3,288,935,288z"/>
		<path class="st6" d="M947.7,276.4c2.2,0,3.5,1.1,3.5,5.2s-1.3,5.2-3.5,5.2c-2.2,0-3.5-1.1-3.5-5.2S945.5,276.4,947.7,276.4z
			 M947.7,285.5c1.2,0,2-0.9,2-3.9c0-3-0.8-3.9-2-3.9c-1.2,0-2,1-2,3.9C945.7,284.6,946.5,285.5,947.7,285.5z M956.4,276.4h1.4
			l-8.6,20.2h-1.4L956.4,276.4z M957.9,286.3c2.2,0,3.5,1.1,3.5,5.2s-1.3,5.2-3.5,5.2s-3.5-1.1-3.5-5.2S955.7,286.3,957.9,286.3z
			 M957.9,295.4c1.2,0,2-0.9,2-3.9c0-3-0.8-3.9-2-3.9c-1.2,0-2,1-2,3.9C955.9,294.4,956.7,295.4,957.9,295.4z"/>
		<path class="st6" d="M971.7,287.6v1.5h-6.1v-1.5H971.7z"/>
		<path class="st6" d="M976.3,291.9c0.1,1.9,1.2,3.2,3.1,3.2c2.7,0,4.1-2.5,4.2-9l-0.1-0.1c-0.6,2-2.2,3.2-4.3,3.2
			c-3.4,0-5.2-2.5-5.2-6.2c0-3.8,1.7-6.8,5.5-6.8c4.5,0,5.8,3.3,5.8,9.5c0,6.5-1.3,10.6-6,10.6c-3.1,0-4.8-1.9-4.8-4.6H976.3z
			 M979.6,288c2.7,0,3.7-2.5,3.7-5.1s-1-5.1-3.7-5.1c-2.7,0-3.7,2.5-3.7,5.1S976.9,288,979.6,288z"/>
		<path class="st6" d="M993.5,276.4c4.5,0,5.6,4.2,5.6,10.1c0,5.9-1.1,10.1-5.6,10.1s-5.6-4.2-5.6-10.1
			C987.9,280.7,989,276.4,993.5,276.4z M993.5,295.2c2.7,0,3.8-2.3,3.8-8.7s-1.1-8.7-3.8-8.7s-3.8,2.3-3.8,8.7
			S990.8,295.2,993.5,295.2z"/>
		<path class="st6" d="M1005.9,276.4c2.2,0,3.5,1.1,3.5,5.2s-1.3,5.2-3.5,5.2c-2.2,0-3.5-1.1-3.5-5.2S1003.7,276.4,1005.9,276.4z
			 M1005.9,285.5c1.2,0,2-0.9,2-3.9c0-3-0.8-3.9-2-3.9c-1.2,0-2,1-2,3.9C1003.9,284.6,1004.8,285.5,1005.9,285.5z M1014.6,276.4h1.4
			l-8.6,20.2h-1.4L1014.6,276.4z M1016.1,286.3c2.2,0,3.5,1.1,3.5,5.2s-1.3,5.2-3.5,5.2s-3.5-1.1-3.5-5.2S1013.9,286.3,1016.1,286.3
			z M1016.1,295.4c1.2,0,2-0.9,2-3.9c0-3-0.8-3.9-2-3.9c-1.2,0-2,1-2,3.9C1014.1,294.4,1015,295.4,1016.1,295.4z"/>
		<path class="st6" d="M1021.3,301.4c2.2-3.8,3.2-8.2,3.2-12.6s-1.1-8.8-3.2-12.6h1.2c2.7,4.5,3.7,8.7,3.7,12.6s-1,8.1-3.7,12.6
			H1021.3z"/>
	</g>
	<g>
		<path class="st6" d="M1482.9,310.4c-0.1-1.4-0.3-2.5-0.8-3.1c-0.5-0.6-1.2-0.8-2.2-0.8c-1.6,0-3.1,1.3-3.1,4v6.8h0.1
			c1-2,3.9-3.4,7.1-3.4c6.1,0,10.1,2.9,10.1,12.9c0,11.5-5.1,16-14.2,16c-9.7,0-14.7-4.2-14.7-18.1V320c0-13.1,2-20.5,14.6-20.5
			c11,0,13.4,5.3,13.4,10.9H1482.9z M1479.9,335.9c2.1,0,3.1-1.5,3.1-7c0-5.5-0.8-7-3.1-7c-2.1,0-3.1,1.5-3.1,7
			C1476.7,334.4,1477.5,335.9,1479.9,335.9z"/>
		<path class="st6" d="M1496.2,325.7l13.4-25.3h12.1V326h3.7v8h-3.7v7.9h-10.4v-7.9h-15.1V325.7z M1511.7,326v-14.2h-0.1l-7,14.2
			H1511.7z"/>
	</g>
	<g>
		<path class="st6" d="M1533.7,299.5c7.1,0,9.4,3.2,9.4,11.5s-2.3,11.5-9.4,11.5c-7.1,0-9.4-3.2-9.4-11.5S1526.6,299.5,1533.7,299.5
			z M1533.7,317.7c1.7,0,2.1-1.2,2.1-6.7c0-5.5-0.4-6.7-2.1-6.7s-2.1,1.2-2.1,6.7C1531.6,316.5,1531.9,317.7,1533.7,317.7z
			 M1552.8,299.5h6.6l-19,43.3h-6.6L1552.8,299.5z M1559.5,319.8c7.1,0,9.4,3.2,9.4,11.5s-2.3,11.5-9.4,11.5
			c-7.1,0-9.4-3.2-9.4-11.5S1552.4,319.8,1559.5,319.8z M1559.5,338c1.7,0,2.1-1.2,2.1-6.7c0-5.5-0.4-6.7-2.1-6.7s-2.1,1.2-2.1,6.7
			C1557.4,336.8,1557.8,338,1559.5,338z"/>
	</g>
	<g>
		<path class="st6" d="M1483.1,383c0.1,1.9,1.2,3.2,3.1,3.2c2.7,0,4.1-2.5,4.2-9l-0.1-0.1c-0.6,2-2.2,3.2-4.3,3.2
			c-3.4,0-5.2-2.5-5.2-6.2c0-3.8,1.7-6.8,5.5-6.8c4.5,0,5.8,3.3,5.8,9.5c0,6.5-1.3,10.6-6,10.6c-3.1,0-4.8-1.9-4.8-4.6H1483.1z
			 M1486.4,379c2.7,0,3.7-2.5,3.7-5.1s-1-5.1-3.7-5.1c-2.7,0-3.7,2.5-3.7,5.1S1483.7,379,1486.4,379z"/>
		<path class="st6" d="M1504.6,367.8v1.5h-7.3l-0.9,6.9l0.1,0.1c0.8-1.5,2.4-2,3.8-2c3.1,0,5.2,2.2,5.2,6.6c0,4-2,6.8-5.9,6.8
			c-3.1,0-5.3-1.9-5.3-5.4h1.8c0,2.2,1.3,4,3.7,4c2.4,0,3.9-2,3.9-5.7c0-2.7-1.2-4.9-3.9-4.9c-1.5,0-2.9,0.7-3.4,2.3h-1.7l1.1-10.2
			H1504.6z"/>
		<path class="st6" d="M1511.7,367.5c2.2,0,3.5,1.1,3.5,5.2s-1.3,5.2-3.5,5.2c-2.2,0-3.5-1.1-3.5-5.2S1509.5,367.5,1511.7,367.5z
			 M1511.7,376.5c1.2,0,2-0.9,2-3.9c0-3-0.8-3.9-2-3.9c-1.2,0-2,1-2,3.9C1509.7,375.6,1510.5,376.5,1511.7,376.5z M1520.4,367.5h1.4
			l-8.6,20.2h-1.4L1520.4,367.5z M1521.9,377.3c2.2,0,3.5,1.1,3.5,5.2s-1.3,5.2-3.5,5.2s-3.5-1.1-3.5-5.2S1519.7,377.3,1521.9,377.3
			z M1521.9,386.4c1.2,0,2-0.9,2-3.9c0-3-0.8-3.9-2-3.9c-1.2,0-2,1-2,3.9C1519.9,385.5,1520.7,386.4,1521.9,386.4z"/>
		<path class="st6" d="M1547.3,380.5c-0.3,4.6-2.4,7.1-5.9,7.1c-4.1,0-6.4-3.2-6.4-10.3s2.3-10.3,6.4-10.3c4.1,0,5.7,2.9,5.7,6.2
			h-1.8c0-2.7-1.4-4.6-3.9-4.6c-2.9,0-4.6,2.4-4.6,8.8c0,6.5,1.7,8.8,4.6,8.8c2.5,0,3.9-2.2,4.1-5.6H1547.3z"/>
		<path class="st6" d="M1549.9,367.3h1.8v20h-1.8V367.3z"/>
	</g>
	<text transform="matrix(1 0 0 1 1560.1377 387.2891)" class="st6 st7 st8"> </text>
	<g>
		<path class="st6" d="M1463.5,401.3c-2.2,3.8-3.2,8.2-3.2,12.6s1.1,8.8,3.2,12.6h-1.2c-2.7-4.5-3.7-8.7-3.7-12.6s1-8.1,3.7-12.6
			H1463.5z"/>
		<path class="st6" d="M1469.5,410.3h0.9c2.4,0,3.8-1.3,3.8-3.7c0-2.3-1.1-3.7-3.3-3.7c-2,0-3.5,1.3-3.5,4.1h-1.8
			c0-3.3,1.8-5.5,5.3-5.5c3.1,0,5.1,1.8,5.1,4.9c0,2.2-1,3.9-3.2,4.5v0.1c2.4,0.3,3.8,2.3,3.8,4.7c0,3.6-2,6-5.7,6
			c-3.4,0-5.4-1.9-5.5-5.6h1.8c0,2.3,1.2,4.2,3.8,4.2c2,0,3.9-1.2,3.9-4.6c0-2.6-1.5-4-3.9-4h-1.3V410.3z"/>
		<path class="st6" d="M1489.1,401.8v1.5h-7.3l-0.9,6.9l0.1,0.1c0.8-1.5,2.4-2,3.8-2c3.1,0,5.2,2.2,5.2,6.6c0,4-2,6.8-5.9,6.8
			c-3.1,0-5.3-1.9-5.3-5.4h1.8c0,2.2,1.3,4,3.7,4c2.4,0,3.9-2,3.9-5.7c0-2.7-1.2-4.9-3.9-4.9c-1.5,0-2.9,0.7-3.4,2.3h-1.7l1.1-10.2
			H1489.1z"/>
		<path class="st6" d="M1496.2,401.5c2.2,0,3.5,1.1,3.5,5.2s-1.3,5.2-3.5,5.2c-2.2,0-3.5-1.1-3.5-5.2S1494,401.5,1496.2,401.5z
			 M1496.2,410.5c1.2,0,2-0.9,2-3.9c0-3-0.8-3.9-2-3.9c-1.2,0-2,1-2,3.9C1494.2,409.6,1495,410.5,1496.2,410.5z M1504.9,401.5h1.4
			l-8.6,20.2h-1.4L1504.9,401.5z M1506.4,411.3c2.2,0,3.5,1.1,3.5,5.2s-1.3,5.2-3.5,5.2s-3.5-1.1-3.5-5.2S1504.2,411.3,1506.4,411.3
			z M1506.4,420.4c1.2,0,2-0.9,2-3.9c0-3-0.8-3.9-2-3.9c-1.2,0-2,1-2,3.9C1504.4,419.5,1505.2,420.4,1506.4,420.4z"/>
		<path class="st6" d="M1520.2,412.6v1.5h-6.1v-1.5H1520.2z"/>
		<path class="st6" d="M1526.5,410.8L1526.5,410.8c-2-0.6-3-2.5-3-4.4c0-3.2,2.1-4.9,5-4.9c2.9,0,5,1.7,5,4.9c0,1.9-1,3.9-3,4.4v0.1
			c2.4,0.3,3.6,2.6,3.6,4.9c0,3.8-2.2,5.9-5.6,5.9c-3.3,0-5.6-2.2-5.6-5.9C1522.9,413.4,1524,411,1526.5,410.8z M1528.5,420.2
			c2.5,0,3.8-2,3.8-4.4c0-2.4-1.3-4.4-3.8-4.4c-2.5,0-3.8,2-3.8,4.4C1524.7,418.2,1526,420.2,1528.5,420.2z M1528.5,410
			c2.2,0,3.2-1.5,3.2-3.6c0-2.1-1-3.6-3.2-3.6c-2.1,0-3.2,1.5-3.2,3.6C1525.3,408.5,1526.3,410,1528.5,410z"/>
		<path class="st6" d="M1541.9,401.5c4.5,0,5.6,4.2,5.6,10.1c0,5.9-1.1,10.1-5.6,10.1s-5.6-4.2-5.6-10.1
			C1536.4,405.7,1537.4,401.5,1541.9,401.5z M1541.9,420.2c2.7,0,3.8-2.3,3.8-8.7s-1.1-8.7-3.8-8.7s-3.8,2.3-3.8,8.7
			S1539.2,420.2,1541.9,420.2z"/>
		<path class="st6" d="M1554.4,401.5c2.2,0,3.5,1.1,3.5,5.2s-1.3,5.2-3.5,5.2c-2.2,0-3.5-1.1-3.5-5.2S1552.2,401.5,1554.4,401.5z
			 M1554.4,410.5c1.2,0,2-0.9,2-3.9c0-3-0.8-3.9-2-3.9c-1.2,0-2,1-2,3.9C1552.4,409.6,1553.2,410.5,1554.4,410.5z M1563.1,401.5h1.4
			l-8.6,20.2h-1.4L1563.1,401.5z M1564.6,411.3c2.2,0,3.5,1.1,3.5,5.2s-1.3,5.2-3.5,5.2s-3.5-1.1-3.5-5.2S1562.4,411.3,1564.6,411.3
			z M1564.6,420.4c1.2,0,2-0.9,2-3.9c0-3-0.8-3.9-2-3.9c-1.2,0-2,1-2,3.9C1562.6,419.5,1563.4,420.4,1564.6,420.4z"/>
		<path class="st6" d="M1569.8,426.4c2.2-3.8,3.2-8.2,3.2-12.6s-1.1-8.8-3.2-12.6h1.2c2.7,4.5,3.7,8.7,3.7,12.6s-1,8.1-3.7,12.6
			H1569.8z"/>
	</g>
	<g>
		<g class="st9">
			<g>
				<g>
					<path class="st10" d="M15.6,808h1.5v5.7h4.5v1.3h-4.5v15h-1.5v-15h-4.5v-1.3h4.5V808z"/>
				</g>
				<g>
					<path class="st10" d="M32.8,811.9h-8.1v-2.4h19v2.4h-8.1v29h-2.8V811.9z"/>
					<path class="st10" d="M46.4,809.6h2.6v11.3h0.1c0.7-2.4,2.9-3.8,5.7-3.8c3.6,0,6,1.8,6,6.2V841h-2.6v-16.9c0-3.2-1.3-4.8-4-4.8
						c-3.1,0-5.1,2.4-5.1,6V841h-2.6V809.6z"/>
					<path class="st10" d="M79.6,833.2c-0.4,5-3.1,8.3-7.5,8.3c-4.9,0-7.8-3.4-7.8-12.2c0-8.1,2.9-12.2,8.1-12.2
						c5.2,0,7.5,3.6,7.5,11.4v1H67v1.1c0,6.7,2.4,8.8,5,8.8c2.8,0,4.5-2,4.9-6.1H79.6z M77,827.2c-0.1-5.8-1.7-7.9-5-7.9
						c-3.3,0-4.9,2.1-5,7.9H77z"/>
					<path class="st10" d="M94.5,817.6h2.6v3.7h0.1c1-2.6,3.2-4.2,5.9-4.2c0.3,0,0.6,0,0.9,0.1v2.6c-0.4-0.1-0.9-0.1-1.3-0.1
						c-2.9,0-5.6,2.1-5.6,6.6V841h-2.6V817.6z"/>
					<path class="st10" d="M120.2,833.2c-0.4,5-3.1,8.3-7.5,8.3c-4.9,0-7.8-3.4-7.8-12.2c0-8.1,2.9-12.2,8.1-12.2
						c5.2,0,7.5,3.6,7.5,11.4v1h-12.8v1.1c0,6.7,2.4,8.8,5,8.8c2.8,0,4.5-2,4.9-6.1H120.2z M117.7,827.2c-0.1-5.8-1.7-7.9-5-7.9
						c-3.3,0-4.9,2.1-5,7.9H117.7z"/>
					<path class="st10" d="M127.6,829.4c-3.3-1.3-4.5-3.2-4.5-5.5c0-4.8,3-6.7,7-6.7c4.4,0,6.4,2.2,6.4,6.5v0.7h-2.6v-0.7
						c0-3-1.4-4.3-3.8-4.3c-3.1,0-4.3,1.6-4.3,4c0,1.6,0.5,2.9,3.2,3.9l3.8,1.5c3.2,1.2,4.4,3.4,4.4,5.9c0,4-2.3,7-7.2,7
						c-4.8,0-7.2-2-7.2-7.3v-0.7h2.6v0.6c0,3.4,1.5,5.2,4.5,5.2c2.8,0,4.6-1.6,4.6-4.2c0-2.1-0.8-3.4-3.2-4.3L127.6,829.4z"/>
					<path class="st10" d="M140.2,817.6h2.6v16.5c0,3.8,1.3,5.2,4,5.2c3,0,5.1-2.4,5.1-6v-15.7h2.6V841h-2.4v-3.3h-0.1
						c-1.3,2.6-3.6,3.8-6,3.8c-3.6,0-6-1.8-6-6.2V817.6z"/>
					<path class="st10" d="M158.9,809.6h2.6V841h-2.6V809.6z"/>
					<path class="st10" d="M167.2,819.8h-3.2v-2.2h3.2v-6.5h2.6v6.5h4.1v2.2h-4.1v16.8c0,1.8,0.8,2.5,2.5,2.5c0.5,0,1.1-0.1,1.6-0.3
						v2.2c-0.3,0.2-1,0.3-1.8,0.3c-3.6,0-4.9-1-4.9-4.1V819.8z"/>
					<path class="st10" d="M180.3,829.4c-3.3-1.3-4.5-3.2-4.5-5.5c0-4.8,3-6.7,7-6.7c4.4,0,6.4,2.2,6.4,6.5v0.7h-2.6v-0.7
						c0-3-1.4-4.3-3.8-4.3c-3.1,0-4.3,1.6-4.3,4c0,1.6,0.5,2.9,3.2,3.9l3.8,1.5c3.2,1.2,4.4,3.4,4.4,5.9c0,4-2.3,7-7.2,7
						c-4.8,0-7.2-2-7.2-7.3v-0.7h2.6v0.6c0,3.4,1.5,5.2,4.5,5.2c2.8,0,4.6-1.6,4.6-4.2c0-2.1-0.8-3.4-3.2-4.3L180.3,829.4z"/>
					<path class="st10" d="M203.8,824.6c0-4.8,2.3-7.5,7.2-7.5c4.8,0,6.6,2.5,6.6,6.2v13.8c0,1.3,0.4,1.9,1.4,1.9h0.7v1.9
						c-0.5,0.2-0.9,0.3-1.2,0.3c-2.1,0-3.4-0.5-3.4-2.9v-0.8H215c-1.1,3.1-3.4,4-6,4c-4.1,0-5.9-2.6-5.9-6.6c0-3.1,1.4-5.5,4.7-6.5
						l5-1.4c1.8-0.5,2.2-1,2.2-3.7c0-3-1.7-4-4-4c-3.1,0-4.5,1.9-4.5,5.3H203.8z M215,827.8L215,827.8c-0.4,0.8-1.8,1.3-2.9,1.5
						l-2.2,0.6c-2.6,0.7-4,2.1-4,4.8c0,2.7,1.4,4.6,3.7,4.6c3.2,0,5.4-2.4,5.4-6.6V827.8z"/>
					<path class="st10" d="M222.4,817.6h2.6v3.7h0.1c1-2.6,3.2-4.2,5.9-4.2c0.3,0,0.6,0,0.9,0.1v2.6c-0.4-0.1-0.9-0.1-1.3-0.1
						c-2.9,0-5.6,2.1-5.6,6.6V841h-2.6V817.6z"/>
					<path class="st10" d="M248.1,833.2c-0.4,5-3.1,8.3-7.5,8.3c-4.9,0-7.8-3.4-7.8-12.2c0-8.1,2.9-12.2,8.1-12.2
						c5.2,0,7.5,3.6,7.5,11.4v1h-12.8v1.1c0,6.7,2.4,8.8,5,8.8c2.8,0,4.5-2,4.9-6.1H248.1z M245.5,827.2c-0.1-5.8-1.7-7.9-5-7.9
						c-3.3,0-4.9,2.1-5,7.9H245.5z"/>
					<path class="st10" d="M275.3,837.1L275.3,837.1c-0.8,2.7-3,4.4-5.8,4.4c-5.1,0-7.5-4.1-7.5-12.2c0-8.1,2.3-12.2,7.5-12.2
						c2.9,0,4.9,1.6,5.5,4h0.1v-11.6h2.6V841h-2.4V837.1z M270,839.3c2.7,0,5.1-1.4,5.1-10c0-8.6-2.4-10-5.1-10
						c-2.6,0-5.1,1.4-5.1,10C264.9,838,267.3,839.3,270,839.3z"/>
					<path class="st10" d="M296.3,833.2c-0.4,5-3.1,8.3-7.5,8.3c-4.9,0-7.8-3.4-7.8-12.2c0-8.1,2.9-12.2,8.1-12.2
						c5.2,0,7.5,3.6,7.5,11.4v1h-12.8v1.1c0,6.7,2.4,8.8,5,8.8c2.8,0,4.5-2,4.9-6.1H296.3z M293.7,827.2c-0.1-5.8-1.7-7.9-5-7.9
						c-3.3,0-4.9,2.1-5,7.9H293.7z"/>
					<path class="st10" d="M299.9,817.6h2.6v3.7h0.1c1-2.6,3.2-4.2,5.9-4.2c0.3,0,0.6,0,0.9,0.1v2.6c-0.4-0.1-0.9-0.1-1.3-0.1
						c-2.9,0-5.6,2.1-5.6,6.6V841h-2.6V817.6z"/>
					<path class="st10" d="M311.8,809.6h2.6v4.5h-2.6V809.6z M311.8,817.6h2.6V841h-2.6V817.6z"/>
					<path class="st10" d="M316.8,817.6h2.8l5.2,20.4h0.1l4.8-20.4h2.8l-6.2,23.4h-3L316.8,817.6z"/>
					<path class="st10" d="M348.7,833.2c-0.4,5-3.1,8.3-7.5,8.3c-4.9,0-7.8-3.4-7.8-12.2c0-8.1,2.9-12.2,8.1-12.2
						c5.2,0,7.5,3.6,7.5,11.4v1h-12.8v1.1c0,6.7,2.4,8.8,5,8.8c2.8,0,4.5-2,4.9-6.1H348.7z M346.1,827.2c-0.1-5.8-1.7-7.9-5-7.9
						c-3.3,0-4.9,2.1-5,7.9H346.1z"/>
					<path class="st10" d="M364.8,837.1L364.8,837.1c-0.8,2.7-3,4.4-5.8,4.4c-5.1,0-7.5-4.1-7.5-12.2c0-8.1,2.3-12.2,7.5-12.2
						c2.9,0,4.9,1.6,5.5,4h0.1v-11.6h2.6V841h-2.4V837.1z M359.4,839.3c2.7,0,5.1-1.4,5.1-10c0-8.6-2.4-10-5.1-10
						c-2.6,0-5.1,1.4-5.1,10C354.3,838,356.8,839.3,359.4,839.3z"/>
					<path class="st10" d="M383.5,819.8h-3.2v-2.2h3.2v-2.8c0-3.2,0.7-5.6,5.1-5.6c0.8,0,1.2,0,1.7,0.1v2.2
						c-0.4-0.1-0.8-0.1-1.3-0.1c-1.9,0-2.9,0.7-2.9,3.4v2.8h4.1v2.2h-4.1V841h-2.6V819.8z"/>
					<path class="st10" d="M392.6,817.6h2.6v3.7h0.1c1-2.6,3.2-4.2,5.9-4.2c0.3,0,0.6,0,0.9,0.1v2.6c-0.4-0.1-0.9-0.1-1.3-0.1
						c-2.9,0-5.6,2.1-5.6,6.6V841h-2.6V817.6z"/>
					<path class="st10" d="M410.9,817.1c5.1,0,8.1,4.1,8.1,12.2c0,8.1-2.9,12.2-8.1,12.2c-5.1,0-8.1-4.1-8.1-12.2
						C402.9,821.2,405.8,817.1,410.9,817.1z M410.9,839.3c2.9,0,5.2-2.6,5.2-10c0-7.4-2.3-10-5.2-10c-2.9,0-5.2,2.6-5.2,10
						C405.7,836.8,408,839.3,410.9,839.3z"/>
					<path class="st10" d="M422.3,817.6h2.4v3.3h0.1c1.2-2.6,3.3-3.8,5.9-3.8c2.8,0,4.5,1.7,4.9,4.1h0.1c1.1-2.6,2.9-4.1,5.9-4.1
						c3.3,0,5.4,1.8,5.4,6V841h-2.6v-17.5c0-2.8-1.3-4.2-3.7-4.2c-2.6,0-4.8,2.4-4.8,6V841h-2.6v-17.5c0-2.8-1.3-4.2-3.7-4.2
						c-2.6,0-4.8,2.4-4.8,6V841h-2.6V817.6z"/>
					<path class="st10" d="M463.8,819.8h-3.2v-2.2h3.2v-6.5h2.6v6.5h4.1v2.2h-4.1v16.8c0,1.8,0.8,2.5,2.5,2.5c0.5,0,1.1-0.1,1.6-0.3
						v2.2c-0.3,0.2-1,0.3-1.8,0.3c-3.6,0-4.9-1-4.9-4.1V819.8z"/>
					<path class="st10" d="M471.9,817.6h2.8l4,20.7h0.1l4.2-20.7h3.3l4,20.7h0.1l4-20.7h2.8l-5.2,23.4h-3.1l-4.2-20.7h-0.1
						l-4.2,20.7h-3.1L471.9,817.6z"/>
					<path class="st10" d="M506.1,817.1c5.1,0,8.1,4.1,8.1,12.2c0,8.1-2.9,12.2-8.1,12.2c-5.1,0-8.1-4.1-8.1-12.2
						C498.1,821.2,501,817.1,506.1,817.1z M506.1,839.3c2.9,0,5.2-2.6,5.2-10c0-7.4-2.3-10-5.2-10c-2.9,0-5.2,2.6-5.2,10
						C500.9,836.8,503.2,839.3,506.1,839.3z"/>
					<path class="st10" d="M532.3,829.4c-3.3-1.3-4.5-3.2-4.5-5.5c0-4.8,3-6.7,7-6.7c4.4,0,6.4,2.2,6.4,6.5v0.7h-2.6v-0.7
						c0-3-1.4-4.3-3.8-4.3c-3.1,0-4.3,1.6-4.3,4c0,1.6,0.5,2.9,3.2,3.9l3.8,1.5c3.2,1.2,4.4,3.4,4.4,5.9c0,4-2.3,7-7.2,7
						c-4.8,0-7.2-2-7.2-7.3v-0.7h2.6v0.6c0,3.4,1.5,5.2,4.5,5.2c2.8,0,4.6-1.6,4.6-4.2c0-2.1-0.8-3.4-3.2-4.3L532.3,829.4z"/>
					<path class="st10" d="M559.5,833.2c-0.4,5-3.1,8.3-7.5,8.3c-4.9,0-7.8-3.4-7.8-12.2c0-8.1,2.9-12.2,8.1-12.2
						c5.2,0,7.5,3.6,7.5,11.4v1H547v1.1c0,6.7,2.4,8.8,5,8.8c2.8,0,4.5-2,4.9-6.1H559.5z M556.9,827.2c-0.1-5.8-1.7-7.9-5-7.9
						c-3.3,0-4.9,2.1-5,7.9H556.9z"/>
					<path class="st10" d="M563,817.6h2.4v3.3h0.1c0.8-2.2,2.8-3.9,5.8-3.9c5.2,0,7.4,4.1,7.4,12.2c0,8.1-2.3,12.2-7.5,12.2
						c-2.9,0-4.9-1.6-5.5-4h-0.1v11.3H563V817.6z M570.8,819.3c-1.5,0-2.8,0.8-3.7,2.1c-1.1,1.6-1.5,3.9-1.5,8c0,8.6,2.4,10,5.1,10
						c2.6,0,5.1-1.4,5.1-10C575.8,820.8,573.4,819.3,570.8,819.3z"/>
					<path class="st10" d="M581.7,824.6c0-4.8,2.3-7.5,7.2-7.5c4.8,0,6.6,2.5,6.6,6.2v13.8c0,1.3,0.4,1.9,1.4,1.9h0.7v1.9
						c-0.5,0.2-0.9,0.3-1.2,0.3c-2.1,0-3.4-0.5-3.4-2.9v-0.8h-0.1c-1.1,3.1-3.4,4-6,4c-4.1,0-5.9-2.6-5.9-6.6c0-3.1,1.4-5.5,4.7-6.5
						l5-1.4c1.8-0.5,2.2-1,2.2-3.7c0-3-1.7-4-4-4c-3.1,0-4.5,1.9-4.5,5.3H581.7z M592.9,827.8L592.9,827.8c-0.4,0.8-1.8,1.3-2.9,1.5
						l-2.2,0.6c-2.6,0.7-4,2.1-4,4.8c0,2.7,1.4,4.6,3.7,4.6c3.2,0,5.4-2.4,5.4-6.6V827.8z"/>
					<path class="st10" d="M600.2,817.6h2.6v3.7h0.1c1-2.6,3.2-4.2,5.9-4.2c0.3,0,0.6,0,0.9,0.1v2.6c-0.4-0.1-0.9-0.1-1.3-0.1
						c-2.9,0-5.6,2.1-5.6,6.6V841h-2.6V817.6z"/>
					<path class="st10" d="M611.4,824.6c0-4.8,2.3-7.5,7.2-7.5c4.8,0,6.6,2.5,6.6,6.2v13.8c0,1.3,0.4,1.9,1.4,1.9h0.7v1.9
						c-0.5,0.2-0.9,0.3-1.2,0.3c-2.1,0-3.4-0.5-3.4-2.9v-0.8h-0.1c-1.1,3.1-3.4,4-6,4c-4.1,0-5.9-2.6-5.9-6.6c0-3.1,1.4-5.5,4.7-6.5
						l5-1.4c1.8-0.5,2.2-1,2.2-3.7c0-3-1.7-4-4-4c-3.1,0-4.5,1.9-4.5,5.3H611.4z M622.6,827.8L622.6,827.8c-0.4,0.8-1.8,1.3-2.9,1.5
						l-2.2,0.6c-2.6,0.7-4,2.1-4,4.8c0,2.7,1.4,4.6,3.7,4.6c3.2,0,5.4-2.4,5.4-6.6V827.8z"/>
					<path class="st10" d="M630.7,819.8h-3.2v-2.2h3.2v-6.5h2.6v6.5h4.1v2.2h-4.1v16.8c0,1.8,0.8,2.5,2.5,2.5c0.5,0,1.1-0.1,1.6-0.3
						v2.2c-0.3,0.2-1,0.3-1.8,0.3c-3.6,0-4.9-1-4.9-4.1V819.8z"/>
					<path class="st10" d="M653.9,833.2c-0.4,5-3.1,8.3-7.5,8.3c-4.9,0-7.8-3.4-7.8-12.2c0-8.1,2.9-12.2,8.1-12.2
						c5.2,0,7.5,3.6,7.5,11.4v1h-12.8v1.1c0,6.7,2.4,8.8,5,8.8c2.8,0,4.5-2,4.9-6.1H653.9z M651.3,827.2c-0.1-5.8-1.7-7.9-5-7.9
						c-3.3,0-4.9,2.1-5,7.9H651.3z"/>
					<path class="st10" d="M669,817.6h2.4v3.3h0.1c1.2-2.6,3.3-3.8,5.9-3.8c2.8,0,4.5,1.7,4.9,4.1h0.1c1.1-2.6,2.9-4.1,5.9-4.1
						c3.3,0,5.4,1.8,5.4,6V841h-2.6v-17.5c0-2.8-1.3-4.2-3.7-4.2c-2.6,0-4.8,2.4-4.8,6V841H680v-17.5c0-2.8-1.3-4.2-3.7-4.2
						c-2.6,0-4.8,2.4-4.8,6V841H669V817.6z"/>
					<path class="st10" d="M712.5,833.2c-0.4,5-3.1,8.3-7.5,8.3c-4.9,0-7.8-3.4-7.8-12.2c0-8.1,2.9-12.2,8.1-12.2
						c5.2,0,7.5,3.6,7.5,11.4v1H700v1.1c0,6.7,2.4,8.8,5,8.8c2.8,0,4.5-2,4.9-6.1H712.5z M709.9,827.2c-0.1-5.8-1.7-7.9-5-7.9
						c-3.3,0-4.9,2.1-5,7.9H709.9z"/>
					<path class="st10" d="M717.1,819.8h-3.2v-2.2h3.2v-6.5h2.6v6.5h4.1v2.2h-4.1v16.8c0,1.8,0.8,2.5,2.5,2.5c0.5,0,1.1-0.1,1.6-0.3
						v2.2c-0.3,0.2-1,0.3-1.8,0.3c-3.6,0-4.9-1-4.9-4.1V819.8z"/>
					<path class="st10" d="M726.2,824.6c0-4.8,2.3-7.5,7.2-7.5c4.8,0,6.6,2.5,6.6,6.2v13.8c0,1.3,0.4,1.9,1.4,1.9h0.7v1.9
						c-0.5,0.2-0.9,0.3-1.2,0.3c-2.1,0-3.4-0.5-3.4-2.9v-0.8h-0.1c-1.1,3.1-3.4,4-6,4c-4.1,0-5.9-2.6-5.9-6.6c0-3.1,1.4-5.5,4.7-6.5
						l5-1.4c1.8-0.5,2.2-1,2.2-3.7c0-3-1.7-4-4-4c-3.1,0-4.5,1.9-4.5,5.3H726.2z M737.4,827.8L737.4,827.8c-0.4,0.8-1.8,1.3-2.9,1.5
						l-2.2,0.6c-2.6,0.7-4,2.1-4,4.8c0,2.7,1.4,4.6,3.7,4.6c3.2,0,5.4-2.4,5.4-6.6V827.8z"/>
					<path class="st10" d="M753.9,827.3v2.4h-9.5v-2.4H753.9z"/>
					<path class="st10" d="M757.6,824.6c0-4.8,2.3-7.5,7.2-7.5c4.8,0,6.6,2.5,6.6,6.2v13.8c0,1.3,0.4,1.9,1.4,1.9h0.7v1.9
						c-0.5,0.2-0.9,0.3-1.2,0.3c-2.1,0-3.4-0.5-3.4-2.9v-0.8h-0.1c-1.1,3.1-3.4,4-6,4c-4.1,0-5.9-2.6-5.9-6.6c0-3.1,1.4-5.5,4.7-6.5
						l5-1.4c1.8-0.5,2.2-1,2.2-3.7c0-3-1.7-4-4-4c-3.1,0-4.5,1.9-4.5,5.3H757.6z M768.8,827.8L768.8,827.8c-0.4,0.8-1.8,1.3-2.9,1.5
						l-2.2,0.6c-2.6,0.7-4,2.1-4,4.8c0,2.7,1.4,4.6,3.7,4.6c3.2,0,5.4-2.4,5.4-6.6V827.8z"/>
					<path class="st10" d="M776.2,817.6h2.4v3.3h0.1c1.3-2.6,3.6-3.8,6-3.8c3.6,0,6,1.8,6,6.2V841H788v-16.9c0-3.2-1.3-4.8-4-4.8
						c-3.1,0-5.1,2.4-5.1,6V841h-2.6V817.6z"/>
					<path class="st10" d="M794.4,824.6c0-4.8,2.3-7.5,7.2-7.5c4.8,0,6.6,2.5,6.6,6.2v13.8c0,1.3,0.4,1.9,1.4,1.9h0.7v1.9
						c-0.5,0.2-0.9,0.3-1.2,0.3c-2.1,0-3.4-0.5-3.4-2.9v-0.8h-0.1c-1.1,3.1-3.4,4-6,4c-4.1,0-5.9-2.6-5.9-6.6c0-3.1,1.4-5.5,4.7-6.5
						l5-1.4c1.8-0.5,2.2-1,2.2-3.7c0-3-1.7-4-4-4c-3.1,0-4.5,1.9-4.5,5.3H794.4z M805.6,827.8L805.6,827.8c-0.4,0.8-1.8,1.3-2.9,1.5
						l-2.2,0.6c-2.6,0.7-4,2.1-4,4.8c0,2.7,1.4,4.6,3.7,4.6c3.2,0,5.4-2.4,5.4-6.6V827.8z"/>
					<path class="st10" d="M813.1,809.6h2.6V841h-2.6V809.6z"/>
					<path class="st10" d="M818.1,817.6h2.8l5.2,20.2h0.1l4.7-20.2h2.8l-6.8,25.3c-1.2,4.6-2.6,5.9-6.2,5.9c-0.7,0-1.2,0-1.8-0.1
						v-2.2c0.6,0,1.1,0.1,1.7,0.1c1.6,0,2.7-0.7,3.5-3.1l0.7-2.2L818.1,817.6z"/>
					<path class="st10" d="M839.7,829.4c-3.3-1.3-4.5-3.2-4.5-5.5c0-4.8,3-6.7,7-6.7c4.4,0,6.4,2.2,6.4,6.5v0.7H846v-0.7
						c0-3-1.4-4.3-3.8-4.3c-3.1,0-4.3,1.6-4.3,4c0,1.6,0.5,2.9,3.2,3.9l3.8,1.5c3.2,1.2,4.4,3.4,4.4,5.9c0,4-2.3,7-7.2,7
						c-4.8,0-7.2-2-7.2-7.3v-0.7h2.6v0.6c0,3.4,1.5,5.2,4.5,5.2c2.8,0,4.6-1.6,4.6-4.2c0-2.1-0.8-3.4-3.2-4.3L839.7,829.4z"/>
					<path class="st10" d="M866.9,833.2c-0.4,5-3.1,8.3-7.5,8.3c-4.9,0-7.8-3.4-7.8-12.2c0-8.1,2.9-12.2,8.1-12.2
						c5.2,0,7.5,3.6,7.5,11.4v1h-12.8v1.1c0,6.7,2.4,8.8,5,8.8c2.8,0,4.5-2,4.9-6.1H866.9z M864.3,827.2c-0.1-5.8-1.7-7.9-5-7.9
						c-3.3,0-4.9,2.1-5,7.9H864.3z"/>
					<path class="st10" d="M874.4,829.4c-3.3-1.3-4.5-3.2-4.5-5.5c0-4.8,3-6.7,7-6.7c4.4,0,6.4,2.2,6.4,6.5v0.7h-2.6v-0.7
						c0-3-1.4-4.3-3.8-4.3c-3.1,0-4.3,1.6-4.3,4c0,1.6,0.5,2.9,3.2,3.9l3.8,1.5c3.2,1.2,4.4,3.4,4.4,5.9c0,4-2.3,7-7.2,7
						c-4.8,0-7.2-2-7.2-7.3v-0.7h2.6v0.6c0,3.4,1.5,5.2,4.5,5.2c2.8,0,4.6-1.6,4.6-4.2c0-2.1-0.8-3.4-3.2-4.3L874.4,829.4z"/>
				</g>
			</g>
		</g>
	</g>
</g>
</svg>
