<svg id="Layer_1" data-name="Layer 1" xmlns="http://www.w3.org/2000/svg" viewBox="0 0 944 127.52"><defs><style>.cls-1{fill:#004d74;}.cls-2{fill:#b2d234;}.cls-3{fill:#4d829e;}.cls-4{fill:#99b8c7;}.cls-5{fill:#80a6b9;}</style></defs><title>blocks</title><rect class="cls-1" x="488.2" y="118.81" width="67.01" height="8.71"/><rect class="cls-2" x="560.05" y="118.81" width="67.01" height="8.71"/><rect class="cls-1" width="67.01" height="23.24"/><rect class="cls-1" y="26.07" width="67.01" height="23.24"/><rect class="cls-1" y="52.14" width="67.01" height="23.24"/><rect class="cls-1" y="78.21" width="67.01" height="23.24"/><rect class="cls-1" y="104.28" width="67.01" height="23.24"/><rect class="cls-2" x="69.84" y="52.14" width="67.01" height="23.24"/><rect class="cls-2" x="69.84" y="78.21" width="67.01" height="23.24"/><rect class="cls-2" x="69.84" y="104.28" width="67.01" height="23.24"/><rect class="cls-1" x="171.26" y="38.19" width="67.01" height="11.12"/><rect class="cls-1" x="171.26" y="52.14" width="67.01" height="23.24"/><rect class="cls-1" x="171.26" y="78.21" width="67.01" height="23.24"/><rect class="cls-1" x="171.26" y="104.28" width="67.01" height="23.24"/><rect class="cls-3" x="243.1" y="67.66" width="67.01" height="7.72"/><rect class="cls-3" x="243.1" y="78.21" width="67.01" height="23.24"/><rect class="cls-3" x="243.1" y="104.28" width="67.01" height="23.24"/><rect class="cls-4" x="314.95" y="78.21" width="67.01" height="23.24"/><rect class="cls-4" x="314.94" y="104.28" width="67.01" height="23.24"/><rect class="cls-2" x="386.79" y="78.21" width="67.01" height="23.24"/><rect class="cls-2" x="386.79" y="104.28" width="67.01" height="23.24"/><rect class="cls-1" x="661.46" y="54.9" width="67.01" height="20.48"/><rect class="cls-1" x="661.46" y="78.21" width="67.01" height="23.24"/><rect class="cls-1" x="661.46" y="104.28" width="67.01" height="23.24"/><rect class="cls-3" x="733.3" y="80.97" width="67.01" height="20.48"/><rect class="cls-3" x="733.3" y="104.28" width="67.01" height="23.24"/><rect class="cls-5" x="805.15" y="89.83" width="67.01" height="11.62"/><rect class="cls-5" x="805.15" y="104.28" width="67.01" height="23.24"/><rect class="cls-2" x="876.99" y="85.45" width="67.01" height="16"/><rect class="cls-2" x="876.99" y="104.28" width="67.01" height="23.24"/></svg>