<svg id="Layer_1" data-name="Layer 1" xmlns="http://www.w3.org/2000/svg" xmlns:xlink="http://www.w3.org/1999/xlink" viewBox="0 0 1656.98 657.34"><defs><style>.cls-1,.cls-35{fill:none;}.cls-2{fill:#fff;}.cls-3{clip-path:url(#clip-path);}.cls-4{opacity:0.1;}.cls-5{clip-path:url(#clip-path-2);}.cls-6{fill:#b1b1b1;}.cls-7{opacity:0.5;}.cls-8{clip-path:url(#clip-path-3);}.cls-9{opacity:0.3;}.cls-10{clip-path:url(#clip-path-4);}.cls-11{opacity:0.7;}.cls-12{clip-path:url(#clip-path-5);}.cls-13{opacity:0.9;}.cls-14{clip-path:url(#clip-path-6);}.cls-15{opacity:0.2;}.cls-16{clip-path:url(#clip-path-7);}.cls-17{opacity:0.6;}.cls-18{clip-path:url(#clip-path-8);}.cls-19{opacity:0.4;}.cls-20{clip-path:url(#clip-path-9);}.cls-21{opacity:0.8;}.cls-22{clip-path:url(#clip-path-10);}.cls-23{fill:#6ea0d6;}.cls-24{clip-path:url(#clip-path-12);}.cls-25{clip-path:url(#clip-path-13);}.cls-26{clip-path:url(#clip-path-14);}.cls-27{clip-path:url(#clip-path-15);}.cls-28{clip-path:url(#clip-path-16);}.cls-29{clip-path:url(#clip-path-17);}.cls-30{clip-path:url(#clip-path-18);}.cls-31{clip-path:url(#clip-path-19);}.cls-32{clip-path:url(#clip-path-20);}.cls-33{fill:#fdc400;}.cls-34{fill:#eb8a2e;}.cls-35{stroke:#fff;stroke-width:1.5px;}</style><clipPath id="clip-path" transform="translate(-15.68 -37.79)"><rect class="cls-1" x="-18.74" y="-58.96" width="1691.4" height="754.51"/></clipPath><clipPath id="clip-path-2" transform="translate(-15.68 -37.79)"><rect class="cls-1" x="1148.96" y="50.15" width="532.7" height="57.28"/></clipPath><clipPath id="clip-path-3" transform="translate(-15.68 -37.79)"><rect class="cls-1" x="1148.96" y="247.22" width="532.7" height="57.27"/></clipPath><clipPath id="clip-path-4" transform="translate(-15.68 -37.79)"><rect class="cls-1" x="1148.96" y="148.67" width="532.7" height="57.28"/></clipPath><clipPath id="clip-path-5" transform="translate(-15.68 -37.79)"><rect class="cls-1" x="1148.96" y="345.77" width="532.7" height="57.27"/></clipPath><clipPath id="clip-path-6" transform="translate(-15.68 -37.79)"><rect class="cls-1" x="1148.96" y="444.2" width="532.7" height="57.28"/></clipPath><clipPath id="clip-path-7" transform="translate(-15.68 -37.79)"><rect class="cls-1" x="1148.96" y="99.42" width="532.7" height="57.27"/></clipPath><clipPath id="clip-path-8" transform="translate(-15.68 -37.79)"><rect class="cls-1" x="1148.96" y="296.5" width="532.7" height="57.28"/></clipPath><clipPath id="clip-path-9" transform="translate(-15.68 -37.79)"><rect class="cls-1" x="1148.96" y="197.95" width="532.7" height="57.28"/></clipPath><clipPath id="clip-path-10" transform="translate(-15.68 -37.79)"><rect class="cls-1" x="1148.96" y="395.05" width="532.7" height="57.28"/></clipPath><clipPath id="clip-path-12" transform="translate(-15.68 -37.79)"><rect class="cls-1" x="109.21" y="50.15" width="834.56" height="57.28"/></clipPath><clipPath id="clip-path-13" transform="translate(-15.68 -37.79)"><rect class="cls-1" x="109.21" y="247.22" width="834.56" height="57.27"/></clipPath><clipPath id="clip-path-14" transform="translate(-15.68 -37.79)"><rect class="cls-1" x="109.21" y="148.67" width="834.56" height="57.28"/></clipPath><clipPath id="clip-path-15" transform="translate(-15.68 -37.79)"><rect class="cls-1" x="109.21" y="345.77" width="834.56" height="57.27"/></clipPath><clipPath id="clip-path-16" transform="translate(-15.68 -37.79)"><rect class="cls-1" x="109.21" y="444.2" width="834.56" height="57.28"/></clipPath><clipPath id="clip-path-17" transform="translate(-15.68 -37.79)"><rect class="cls-1" x="109.21" y="99.42" width="834.56" height="57.27"/></clipPath><clipPath id="clip-path-18" transform="translate(-15.68 -37.79)"><rect class="cls-1" x="109.21" y="296.5" width="834.56" height="57.28"/></clipPath><clipPath id="clip-path-19" transform="translate(-15.68 -37.79)"><rect class="cls-1" x="109.21" y="197.95" width="834.56" height="57.28"/></clipPath><clipPath id="clip-path-20" transform="translate(-15.68 -37.79)"><rect class="cls-1" x="109.21" y="395.05" width="834.56" height="57.28"/></clipPath></defs><title>graph_13</title><path class="cls-2" d="M1371.5,577.41l8.28,21.36h-2.19l-2.4-6.42h-9.39l-2.55,6.42h-2.1l8.7-21.36h1.65Zm3,13.26-4-10.53-4.08,10.53h8Z" transform="translate(-15.68 -37.79)"/><path class="cls-2" d="M1379.87,584.37h2.94v-6.15h1.8v6.15h3.12v1.5h-3.12v9.51c0,1.08,0,2.07,1,2.07a3.38,3.38,0,0,0,2-.72v1.8a5.86,5.86,0,0,1-2.37.6,2.28,2.28,0,0,1-2.46-2.55V585.87h-2.94v-1.5Z" transform="translate(-15.68 -37.79)"/><path class="cls-2" d="M1398.2,577.41h1.8v21.36h-1.8V577.41Z" transform="translate(-15.68 -37.79)"/><path class="cls-2" d="M1404.92,591.51v0.39c0,3.21,1.41,5.55,4.62,5.55a4.64,4.64,0,0,0,4.68-3.06l1.68,0.45a6.62,6.62,0,0,1-6.51,4.29c-3.6,0-6.51-2.64-6.51-7.56s2.91-7.56,6.51-7.56c4.26,0,6.36,3.24,6.51,7.5h-11Zm8.94-1.5c-0.39-2.1-1.47-4.32-4.47-4.32-2.55,0-4.17,1.92-4.47,4.32h8.94Z" transform="translate(-15.68 -37.79)"/><path class="cls-2" d="M1431.32,598.95c-2.22,0-3.57,0-3.75-2.52h-0.06a5.31,5.31,0,0,1-5,2.7c-2.34,0-4.59-1.17-4.59-3.81,0-3.06,2.67-4,5.16-4.59l4.41-1.14v-1.44c0-1.86-1.32-2.64-3.6-2.64s-3.51,1.17-3.57,3.48l-2-.36c0.6-3.09,2.46-4.62,5.67-4.62,5.34,0,5.34,3.09,5.34,4.5v7c0,1.86.84,1.89,2.07,1.89v1.5Zm-8.7-1.5a4.68,4.68,0,0,0,4.83-4.65v-1.65l-5.19,1.44c-1.44.39-2.58,1.08-2.58,2.7S1421.27,597.45,1422.62,597.45Z" transform="translate(-15.68 -37.79)"/><path class="cls-2" d="M1433.81,594.78a3.83,3.83,0,0,0,4.17,2.85c1.47,0,3.51-.57,3.51-2.94,0-4.29-8.52-1-8.52-6.72,0-2.07,1.71-4,4.92-4,2.82,0,4.74.84,5.43,3.27l-1.71.42c-0.63-1.8-1.8-2.19-3.45-2.19-2.7,0-3.39,1.08-3.39,2.52,0,3.72,8.52.93,8.52,6.72,0,2.37-2,4.38-5.58,4.38-2.16,0-4.26-.6-5.64-3.81Z" transform="translate(-15.68 -37.79)"/><path class="cls-2" d="M1444.88,584.37h2.94v-6.15h1.8v6.15h3.12v1.5h-3.12v9.51c0,1.08,0,2.07,1,2.07a3.38,3.38,0,0,0,2-.72v1.8a5.86,5.86,0,0,1-2.37.6,2.28,2.28,0,0,1-2.46-2.55V585.87h-2.94v-1.5Z" transform="translate(-15.68 -37.79)"/><path class="cls-2" d="M1465.67,580.68c1.74,0.09,4-.48,4-3.27h1.74v21.36h-1.8V581.43a7.57,7.57,0,0,1-4,.93v-1.68Z" transform="translate(-15.68 -37.79)"/><path class="cls-2" d="M1299.65,609.42h9.45c4.41,0,6.24,2.94,6.24,5.94,0,3.66-2.4,5.58-6.27,5.85l6.84,9.57h-2.58l-6.78-9.48h-4.86v9.48h-2V609.42Zm2,10H1308c4.32,0,5.28-2.19,5.28-4.08,0-2.49-1.32-4.08-5-4.08h-6.66v8.16Z" transform="translate(-15.68 -37.79)"/><path class="cls-2" d="M1318,609.42h14v1.86H1320v7.56h10.77v1.86H1320v8.22h12.57v1.86H1318V609.42Z" transform="translate(-15.68 -37.79)"/><path class="cls-2" d="M1336,609.42h2.49l6.93,17.88h0.06l6.93-17.88h2.49v21.36h-2V613.32h-0.06l-6.66,17.46h-1.38l-6.66-17.46h-0.06v17.46h-2V609.42Z" transform="translate(-15.68 -37.79)"/><path class="cls-2" d="M1359.47,609.42h2v21.36h-2V609.42Z" transform="translate(-15.68 -37.79)"/><path class="cls-2" d="M1380.56,615.42c-0.9-3-2.4-4.68-6.24-4.68-4.77,0-7.14,3.75-7.14,9.36,0,6.81,3.15,9.36,7.47,9.36,3.36,0,5-1.74,6-4.53l2,1c-1.5,3.84-4.38,5.34-8.34,5.34-5.07,0-9.12-3.18-9.12-11.22s4.32-11.22,9-11.22c4.23,0,6.81,1.5,8.49,5.52Z" transform="translate(-15.68 -37.79)"/><path class="cls-2" d="M1393.46,609.42l8.28,21.36h-2.19l-2.4-6.42h-9.39l-2.55,6.42h-2.1l8.7-21.36h1.65Zm3,13.26-4-10.53-4.08,10.53h8Z" transform="translate(-15.68 -37.79)"/><path class="cls-2" d="M1404,609.42h8.4c6.54,0,8.43,6,8.43,10.68,0,4.5-2,10.68-9,10.68H1404V609.42Zm2,19.5h5.67c5.31,0,7.08-4.53,7.08-8.82,0-4-1.65-8.82-6.66-8.82H1406v17.64Z" transform="translate(-15.68 -37.79)"/><path class="cls-2" d="M1424.09,609.42h14v1.86h-11.94v7.56h10.77v1.86h-10.77v8.22h12.57v1.86h-14.61V609.42Z" transform="translate(-15.68 -37.79)"/><path class="cls-2" d="M1450.16,610.44h1.8v2.82h-1.8v-2.82Zm0,5.94h1.8v14.4h-1.8v-14.4Z" transform="translate(-15.68 -37.79)"/><path class="cls-2" d="M1455.74,616.38h1.8v2.1h0.06a4.54,4.54,0,0,1,4.29-2.46c3.54,0,5.07,2,5.07,5v9.75h-1.8v-9.21c0-2.91-1.23-3.87-3.51-3.87s-4.11,1.44-4.11,4.68v8.4h-1.8v-14.4Z" transform="translate(-15.68 -37.79)"/><path class="cls-2" d="M1472.39,617.88h-3.15v-1.5h3.15v-4.56c0-2.16,1.47-2.94,3.54-2.94a4.12,4.12,0,0,1,1.59.3v1.71a3.25,3.25,0,0,0-1.65-.33c-1.23,0-1.68.69-1.68,2.13v3.69h3.15v1.5h-3.15v12.9h-1.8v-12.9Z" transform="translate(-15.68 -37.79)"/><path class="cls-2" d="M1489,628.68H1489a4.54,4.54,0,0,1-4.29,2.46c-3.54,0-5.07-2-5.07-5v-9.75h1.8v9.21c0,2.91,1.23,3.87,3.51,3.87s4.11-1.44,4.11-4.68v-8.4h1.8v14.4H1489v-2.1Z" transform="translate(-15.68 -37.79)"/><path class="cls-2" d="M1495.22,626.79a3.83,3.83,0,0,0,4.17,2.85c1.47,0,3.51-.57,3.51-2.94,0-4.29-8.52-1-8.52-6.72,0-2.07,1.71-4,4.92-4,2.82,0,4.74.84,5.43,3.27l-1.71.42c-0.63-1.8-1.8-2.19-3.45-2.19-2.7,0-3.39,1.08-3.39,2.52,0,3.72,8.52.93,8.52,6.72,0,2.37-2,4.38-5.58,4.38-2.16,0-4.26-.6-5.64-3.81Z" transform="translate(-15.68 -37.79)"/><path class="cls-2" d="M1507.94,610.44h1.8v2.82h-1.8v-2.82Zm0,5.94h1.8v14.4h-1.8v-14.4Z" transform="translate(-15.68 -37.79)"/><path class="cls-2" d="M1519.13,616c3.6,0,6.51,2.64,6.51,7.56s-2.91,7.56-6.51,7.56-6.51-2.64-6.51-7.56S1515.53,616,1519.13,616Zm-4.71,7.56c0,3.72,2,5.88,4.71,5.88s4.71-2.16,4.71-5.88-2-5.88-4.71-5.88S1514.42,619.89,1514.42,623.58Z" transform="translate(-15.68 -37.79)"/><path class="cls-2" d="M1528.52,616.38h1.8v2.1h0.06a4.54,4.54,0,0,1,4.29-2.46c3.54,0,5.07,2,5.07,5v9.75h-1.8v-9.21c0-2.91-1.23-3.87-3.51-3.87s-4.11,1.44-4.11,4.68v8.4h-1.8v-14.4Z" transform="translate(-15.68 -37.79)"/><path class="cls-2" d="M1388.36,648.39h1.8v2.1h0.06a4.54,4.54,0,0,1,4.29-2.46c3.54,0,5.07,2,5.07,5v9.75h-1.8v-9.21c0-2.91-1.23-3.87-3.51-3.87s-4.11,1.44-4.11,4.68v8.4h-1.8v-14.4Z" transform="translate(-15.68 -37.79)"/><path class="cls-2" d="M1418.06,653h-15.18v-1.5h15.18V653Zm0,5.82h-15.18v-1.5h15.18v1.5Z" transform="translate(-15.68 -37.79)"/><path class="cls-2" d="M1421.09,641.43h13.74v1.68a35,35,0,0,0-7.59,19.68h-2c0.75-7.92,2.88-13,7.53-19.5h-9.84v4.77h-1.8v-6.63Z" transform="translate(-15.68 -37.79)"/><path class="cls-2" d="M1444.49,641.07c4,0,7.53,3.24,7.53,11s-3.57,11-7.53,11-7.53-3.24-7.53-11S1440.53,641.07,1444.49,641.07Zm0,20.4c2,0,5.49-1.44,5.49-9.36s-3.45-9.36-5.49-9.36-5.49,1.44-5.49,9.36S1442.45,661.47,1444.49,661.47Z" transform="translate(-15.68 -37.79)"/><g class="cls-3"><g class="cls-4"><g class="cls-5"><rect class="cls-6" x="1142.28" y="19.35" width="514.71" height="49.28"/></g></g><g class="cls-7"><g class="cls-8"><rect class="cls-6" x="1142.28" y="216.43" width="514.71" height="49.27"/></g></g><g class="cls-9"><g class="cls-10"><rect class="cls-6" x="1142.28" y="117.88" width="514.71" height="49.28"/></g></g><g class="cls-11"><g class="cls-12"><rect class="cls-6" x="1142.28" y="314.98" width="514.71" height="49.27"/></g></g><g class="cls-13"><g class="cls-14"><rect class="cls-6" x="1142.28" y="413.41" width="514.71" height="49.28"/></g></g><g class="cls-15"><g class="cls-16"><rect class="cls-6" x="1142.28" y="68.63" width="514.71" height="49.28"/></g></g><g class="cls-17"><g class="cls-18"><rect class="cls-6" x="1142.28" y="265.71" width="514.71" height="49.27"/></g></g><g class="cls-19"><g class="cls-20"><rect class="cls-6" x="1142.28" y="167.16" width="514.71" height="49.27"/></g></g><g class="cls-21"><g class="cls-22"><rect class="cls-6" x="1142.28" y="364.25" width="514.71" height="49.27"/></g></g></g><rect class="cls-6" x="1142.28" y="462.69" width="514.71" height="49.28"/><path class="cls-2" d="M1099,48.74c1.74,0.09,4-.48,4-3.27h1.74V66.83h-1.8V49.49a7.57,7.57,0,0,1-4,.93V48.74Z" transform="translate(-15.68 -37.79)"/><path class="cls-2" d="M1119.63,45.11c4,0,7.53,3.24,7.53,11s-3.57,11-7.53,11-7.53-3.24-7.53-11S1115.67,45.11,1119.63,45.11Zm0,20.4c2,0,5.49-1.44,5.49-9.36s-3.45-9.36-5.49-9.36-5.49,1.44-5.49,9.36S1117.59,65.51,1119.63,65.51Z" transform="translate(-15.68 -37.79)"/><path class="cls-2" d="M1136.31,45.11c4,0,7.53,3.24,7.53,11s-3.57,11-7.53,11-7.53-3.24-7.53-11S1132.35,45.11,1136.31,45.11Zm0,20.4c2,0,5.49-1.44,5.49-9.36s-3.45-9.36-5.49-9.36-5.49,1.44-5.49,9.36S1134.27,65.51,1136.31,65.51Z" transform="translate(-15.68 -37.79)"/><path class="cls-2" d="M1126.5,149.33a4.65,4.65,0,0,1-3.63,4.59V154a5.84,5.84,0,0,1,4.23,5.37c0,4.29-3.09,6.45-7.47,6.45-3.27,0-7.47-1.65-7.47-6.45a5.64,5.64,0,0,1,4.23-5.37v-0.06a4.65,4.65,0,0,1-3.63-4.59c0-1.68.87-5.61,6.87-5.61S1126.5,147.65,1126.5,149.33Zm-12.3,10.29c0,2.82,2.46,4.5,5.43,4.5s5.43-1.68,5.43-4.5-1.89-4.68-5.43-4.65S1114.2,156.86,1114.2,159.62Zm10.26-10.32c0-1.44-.81-3.9-4.83-3.9-3.66,0-4.83,2.07-4.83,3.9s1.59,4,4.83,4C1123.35,153.29,1124.46,150.62,1124.46,149.3Z" transform="translate(-15.68 -37.79)"/><path class="cls-2" d="M1136.31,143.72c4,0,7.53,3.24,7.53,11s-3.57,11-7.53,11-7.53-3.24-7.53-11S1132.35,143.72,1136.31,143.72Zm0,20.4c2,0,5.49-1.44,5.49-9.36s-3.45-9.36-5.49-9.36-5.49,1.44-5.49,9.36S1134.27,164.12,1136.31,164.12Z" transform="translate(-15.68 -37.79)"/><path class="cls-2" d="M1124.73,247.76c-0.39-3.42-2.73-3.75-4.29-3.75-4.77,0-5.67,4.23-6.09,8.52h0.06a6.83,6.83,0,0,1,5.43-2.88c3.21,0,7.11,1.74,7.11,7.59,0,3.63-2.16,7.17-7.26,7.17-5.58,0-7.38-4.74-7.38-10.32,0-10.32,4.8-11.76,8.16-11.76a6,6,0,0,1,6.3,4.77Zm-10.38,8.85c0,3.78,2.58,6.12,5.4,6.12,2.64,0,5.16-1.74,5.16-5.52,0-2.82-1.2-5.88-4.95-5.88A5.33,5.33,0,0,0,1114.35,256.61Z" transform="translate(-15.68 -37.79)"/><path class="cls-2" d="M1136.31,242.33c4,0,7.53,3.24,7.53,11s-3.57,11-7.53,11-7.53-3.24-7.53-11S1132.35,242.33,1136.31,242.33Zm0,20.4c2,0,5.49-1.44,5.49-9.36s-3.45-9.36-5.49-9.36-5.49,1.44-5.49,9.36S1134.27,262.73,1136.31,262.73Z" transform="translate(-15.68 -37.79)"/><path class="cls-2" d="M1112.31,355.64l9.33-14.34h2v14.34H1127v1.68h-3.39v5.34h-1.8v-5.34h-9.51v-1.68Zm2,0h7.47V344.39h-0.06Z" transform="translate(-15.68 -37.79)"/><path class="cls-2" d="M1136.31,340.94c4,0,7.53,3.24,7.53,11s-3.57,11-7.53,11-7.53-3.24-7.53-11S1132.35,340.94,1136.31,340.94Zm0,20.4c2,0,5.49-1.44,5.49-9.36s-3.45-9.36-5.49-9.36-5.49,1.44-5.49,9.36S1134.27,361.34,1136.31,361.34Z" transform="translate(-15.68 -37.79)"/><path class="cls-2" d="M1113.3,449.42a8.57,8.57,0,0,1-.75-3.57c0-3.81,2.76-6.3,7-6.3,4.8,0,7.41,2.7,7.41,6.9,0,5.64-7.35,10.65-11.43,13.08v0.06H1126v1.68h-13.35v-1.68c3.09-2.37,12.3-7.17,12.3-13.26a5,5,0,0,0-5.25-5.1c-2.94,0-5.31,1.71-5.31,4.83a5.63,5.63,0,0,0,1.35,3.6Z" transform="translate(-15.68 -37.79)"/><path class="cls-2" d="M1136.31,439.55c4,0,7.53,3.24,7.53,11s-3.57,11-7.53,11-7.53-3.24-7.53-11S1132.35,439.55,1136.31,439.55Zm0,20.4c2,0,5.49-1.44,5.49-9.36s-3.45-9.36-5.49-9.36-5.49,1.44-5.49,9.36S1134.27,460,1136.31,460Z" transform="translate(-15.68 -37.79)"/><path class="cls-2" d="M1136.31,538.16c4,0,7.53,3.24,7.53,11s-3.57,11-7.53,11-7.53-3.24-7.53-11S1132.35,538.16,1136.31,538.16Zm0,20.4c2,0,5.49-1.44,5.49-9.36s-3.45-9.36-5.49-9.36-5.49,1.44-5.49,9.36S1134.27,558.56,1136.31,558.56Z" transform="translate(-15.68 -37.79)"/><path class="cls-2" d="M1057,457.79V447.26c0-4.2,3.09-5.55,5.82-5.55,4.17,0,5.85,2.64,5.85,6.48v7.56h9.69v2H1057Zm9.81-2V449c0-3.48-1.29-5.22-4-5.22-1.26,0-4,.21-4,4.38v7.62h7.95Z" transform="translate(-15.68 -37.79)"/><path class="cls-2" d="M1063.95,439.13v-1.8h2v-0.06a4.33,4.33,0,0,1-2.37-3.9c0-.48,0-0.84.06-1.29h1.56a5.63,5.63,0,0,0-.12,1.2c0,2.79,2,4,5,4h8.28v1.8h-14.4Z" transform="translate(-15.68 -37.79)"/><path class="cls-2" d="M1063.59,424.91c0-3.6,2.64-6.51,7.56-6.51s7.56,2.91,7.56,6.51-2.64,6.51-7.56,6.51S1063.59,428.52,1063.59,424.91Zm7.56,4.71c3.72,0,5.88-2,5.88-4.71s-2.16-4.71-5.88-4.71-5.88,2-5.88,4.71S1067.46,429.62,1071.15,429.62Z" transform="translate(-15.68 -37.79)"/><path class="cls-2" d="M1063.95,415.53v-1.8h2.16v-0.06a4.54,4.54,0,0,1-2.52-4.23c0-3.15,2.49-6,7.32-6,6,0,7.8,3.06,7.8,5.91,0,2.1-.78,3.66-2.4,4.35v0.06h9.48v1.8h-21.84Zm1.32-6c0,3.57,3.12,4.29,5.88,4.29s5.88-.72,5.88-4.26c0-2.58-2.25-4.35-5.88-4.35S1065.27,407,1065.27,409.53Z" transform="translate(-15.68 -37.79)"/><path class="cls-2" d="M1063.59,394.91c0-3.6,2.64-6.51,7.56-6.51s7.56,2.91,7.56,6.51-2.64,6.51-7.56,6.51S1063.59,398.52,1063.59,394.91Zm7.56,4.71c3.72,0,5.88-2,5.88-4.71s-2.16-4.71-5.88-4.71-5.88,2-5.88,4.71S1067.46,399.62,1071.15,399.62Z" transform="translate(-15.68 -37.79)"/><path class="cls-2" d="M1063.95,385.25v-1.8h2V383.4a4.33,4.33,0,0,1-2.37-3.9c0-.48,0-0.84.06-1.29h1.56a5.63,5.63,0,0,0-.12,1.2c0,2.79,2,4,5,4h8.28v1.8h-14.4Z" transform="translate(-15.68 -37.79)"/><path class="cls-2" d="M1063.95,378.29v-2.94h-6.15v-1.8h6.15v-3.12h1.5v3.12H1075c1.08,0,2.07,0,2.07-1a3.38,3.38,0,0,0-.72-2h1.8a5.88,5.88,0,0,1,.6,2.37,2.28,2.28,0,0,1-2.55,2.46h-10.71v2.94h-1.5Z" transform="translate(-15.68 -37.79)"/><path class="cls-2" d="M1058,368.31v-1.8h2.82v1.8H1058Zm5.94,0v-1.8h14.4v1.8h-14.4Z" transform="translate(-15.68 -37.79)"/><path class="cls-2" d="M1063.59,357.11c0-3.6,2.64-6.51,7.56-6.51s7.56,2.91,7.56,6.51-2.64,6.51-7.56,6.51S1063.59,360.72,1063.59,357.11Zm7.56,4.71c3.72,0,5.88-2,5.88-4.71s-2.16-4.71-5.88-4.71-5.88,2-5.88,4.71S1067.46,361.82,1071.15,361.82Z" transform="translate(-15.68 -37.79)"/><path class="cls-2" d="M1063.95,347.73v-1.8h2.1v-0.06a4.54,4.54,0,0,1-2.46-4.29c0-3.54,2-5.07,5-5.07h9.75v1.8h-9.21c-2.91,0-3.87,1.23-3.87,3.51s1.44,4.11,4.68,4.11h8.4v1.8h-14.4Z" transform="translate(-15.68 -37.79)"/><path class="cls-2" d="M1063.59,318.78c0-3.6,2.64-6.51,7.56-6.51s7.56,2.91,7.56,6.51-2.64,6.51-7.56,6.51S1063.59,322.38,1063.59,318.78Zm7.56,4.71c3.72,0,5.88-2,5.88-4.71s-2.16-4.71-5.88-4.71-5.88,2-5.88,4.71S1067.46,323.48,1071.15,323.48Z" transform="translate(-15.68 -37.79)"/><path class="cls-2" d="M1065.45,307.73v3.15h-1.5v-3.15h-4.56c-2.16,0-2.94-1.47-2.94-3.54a4.1,4.1,0,0,1,.3-1.59h1.71a3.24,3.24,0,0,0-.33,1.65c0,1.23.69,1.68,2.13,1.68h3.69v-3.15h1.5v3.15h12.9v1.8h-12.9Z" transform="translate(-15.68 -37.79)"/><path class="cls-2" d="M1063.95,292.17v-1.8h2.16v-0.06a4.54,4.54,0,0,1-2.52-4.23c0-3.15,2.49-6,7.32-6,6,0,7.8,3.06,7.8,5.91,0,2.1-.78,3.66-2.4,4.35v0.06h9.48v1.8h-21.84Zm1.32-6c0,3.57,3.12,4.29,5.88,4.29s5.88-.72,5.88-4.26c0-2.58-2.25-4.35-5.88-4.35S1065.27,283.62,1065.27,286.17Z" transform="translate(-15.68 -37.79)"/><path class="cls-2" d="M1078.53,264.63c0,2.22,0,3.57-2.52,3.75v0.06a5.31,5.31,0,0,1,2.7,5c0,2.34-1.17,4.59-3.81,4.59-3.06,0-4-2.67-4.59-5.16l-1.14-4.41h-1.44c-1.86,0-2.64,1.32-2.64,3.6s1.17,3.51,3.48,3.57l-0.36,2c-3.09-.6-4.62-2.46-4.62-5.67,0-5.34,3.09-5.34,4.5-5.34h7.05c1.86,0,1.89-.84,1.89-2.07h1.5Zm-1.5,8.7a4.68,4.68,0,0,0-4.65-4.83h-1.65l1.44,5.19c0.39,1.44,1.08,2.58,2.7,2.58S1077,274.68,1077,273.33Z" transform="translate(-15.68 -37.79)"/><path class="cls-2" d="M1063.95,264.39v-2.94h-6.15v-1.8h6.15v-3.12h1.5v3.12H1075c1.08,0,2.07,0,2.07-1a3.38,3.38,0,0,0-.72-2h1.8a5.88,5.88,0,0,1,.6,2.37,2.28,2.28,0,0,1-2.55,2.46h-10.71v2.94h-1.5Z" transform="translate(-15.68 -37.79)"/><path class="cls-2" d="M1058,254.4v-1.8h2.82v1.8H1058Zm5.94,0v-1.8h14.4v1.8h-14.4Z" transform="translate(-15.68 -37.79)"/><path class="cls-2" d="M1071.09,247.68h0.39c3.21,0,5.55-1.41,5.55-4.62a4.64,4.64,0,0,0-3.06-4.68l0.45-1.68a6.62,6.62,0,0,1,4.29,6.51c0,3.6-2.64,6.51-7.56,6.51s-7.56-2.91-7.56-6.51c0-4.26,3.24-6.36,7.5-6.51v11Zm-1.5-8.94c-2.1.39-4.32,1.47-4.32,4.47,0,2.55,1.92,4.17,4.32,4.47v-8.94Z" transform="translate(-15.68 -37.79)"/><path class="cls-2" d="M1063.95,233.82V232h2.1V232a4.54,4.54,0,0,1-2.46-4.29c0-3.54,2-5.07,5-5.07h9.75v1.8h-9.21c-2.91,0-3.87,1.23-3.87,3.51s1.44,4.11,4.68,4.11h8.4v1.8h-14.4Z" transform="translate(-15.68 -37.79)"/><path class="cls-2" d="M1063.95,220.47v-2.94h-6.15v-1.8h6.15v-3.12h1.5v3.12H1075c1.08,0,2.07,0,2.07-1a3.38,3.38,0,0,0-.72-2h1.8a5.88,5.88,0,0,1,.6,2.37,2.28,2.28,0,0,1-2.55,2.46h-10.71v2.94h-1.5Z" transform="translate(-15.68 -37.79)"/><path class="cls-2" d="M1074.36,209.88a3.83,3.83,0,0,0,2.85-4.17c0-1.47-.57-3.51-2.94-3.51-4.29,0-1,8.52-6.72,8.52-2.07,0-4-1.71-4-4.92,0-2.82.84-4.74,3.27-5.43l0.42,1.71c-1.8.63-2.19,1.8-2.19,3.45,0,2.7,1.08,3.39,2.52,3.39,3.72,0,.93-8.52,6.72-8.52,2.37,0,4.38,2,4.38,5.58,0,2.16-.6,4.26-3.81,5.64Z" transform="translate(-15.68 -37.79)"/><path class="cls-2" d="M1084,182c-2.79,5-8.58,7.29-14.28,7.29s-11.49-2.16-14.28-7.29H1057c3.09,4,8.22,5.25,12.72,5.25s9.63-1.26,12.72-5.25H1084Z" transform="translate(-15.68 -37.79)"/><path class="cls-2" d="M1056.69,162.18L1079.43,174l-0.54,1.14-22.77-11.82Zm5.55,7.83c2.67,0,5.61,1.2,5.61,4.32v0.06c0,3.12-2.94,4.32-5.61,4.32s-5.61-1.29-5.61-4.35S1059.6,170,1062.24,170Zm0,1.5c-1.8,0-4.11.45-4.11,2.85s2.31,2.88,4.11,2.85,4.11-.45,4.11-2.85S1064,171.51,1062.24,171.51Zm10.86-13.23c2.67,0,5.61,1.2,5.61,4.32v0.06c0,3.12-2.94,4.32-5.61,4.32s-5.61-1.29-5.61-4.35S1070.46,158.28,1073.1,158.28Zm0,1.5c-1.8,0-4.11.45-4.11,2.85s2.31,2.88,4.11,2.85,4.11-.45,4.11-2.85S1074.9,159.78,1073.1,159.78Z" transform="translate(-15.68 -37.79)"/><path class="cls-2" d="M1082.43,154.95c-3.09-4-8.22-5.25-12.72-5.25s-9.63,1.26-12.72,5.25h-1.56c2.79-5,8.58-7.29,14.28-7.29s11.49,2.16,14.28,7.29h-1.56Z" transform="translate(-15.68 -37.79)"/><rect class="cls-23" x="1313.1" y="99.65" width="168.73" height="411.08"/><path class="cls-2" d="M1383.72,177.09c-1.9-1.16-3.4-2.55-3.4-4.93,0-5,4.73-6.32,8.87-6.32,3,0,7.58,1.56,7.58,5.24,0,2.18-1.77,3.6-3.6,4.39,2.35,0.92,4.55,3,4.55,5.64,0,4.56-4.9,6.32-8.87,6.32-3.33,0-9.35-1.09-9.35-5.34C1379.51,179.43,1381.48,178,1383.72,177.09Zm4.76,7.79c2,0,5.1-.48,5.1-2.92s-5.78-3.4-7.21-3.88c-1.39.44-3,1.19-3,3.33C1383.35,183.92,1386.31,184.87,1388.48,184.87Zm2.41-10.2c1.09-.65,2.35-1.5,2.35-3.43,0-2.35-3-3.16-4.9-3.16s-3.87.78-3.87,2.92C1384.47,173.48,1388.35,174.27,1390.9,174.67Z" transform="translate(-15.68 -37.79)"/><path class="cls-2" d="M1407.25,174.88c2.52,0,5.41-.31,5.41-3.33,0-2.58-2.24-3.54-4.49-3.54a5.73,5.73,0,0,0-3.77,1.22l0.07,0.07a2,2,0,0,1,2.21,2.28c0,1.22-1.09,2.31-2.86,2.31a2.51,2.51,0,0,1-2.65-2.75c0-4,5.17-5.3,8.33-5.3s7.92,1.33,7.92,5.3c0,3.2-2.48,4.39-5.2,4.83V176c3.2,0.68,5.85,1.46,5.85,5.34,0,4.86-5.13,6.05-9.11,6.05-3.64,0-8.5-1.12-8.5-5.64a3,3,0,0,1,3-3.09,2.65,2.65,0,0,1,2.79,2.41,2.34,2.34,0,0,1-2.18,2.55,2.57,2.57,0,0,1-.78-0.1l-0.07.07c0.85,1.22,2.58,1.63,4.42,1.63,2.62,0,5.3-.85,5.3-4.08,0-3.43-2.92-4-5.71-3.91v-2.38Z" transform="translate(-15.68 -37.79)"/><path class="cls-2" d="M1432.21,172.23c0,3.94-1.7,6.39-5.54,6.39s-5.54-2.45-5.54-6.39,1.7-6.39,5.54-6.39S1432.21,168.28,1432.21,172.23Zm-7.45,0c0,3,.61,4.52,1.9,4.52s1.9-1.53,1.9-4.52-0.61-4.52-1.9-4.52S1424.76,169.23,1424.76,172.23Zm1.12,15.2L1440,165.84h2l-14.07,21.59h-2Zm20.84-6.39c0,3.94-1.7,6.39-5.54,6.39s-5.54-2.45-5.54-6.39,1.7-6.39,5.54-6.39S1446.72,177.09,1446.72,181Zm-7.45,0c0,3,.61,4.52,1.9,4.52s1.9-1.53,1.9-4.52-0.61-4.52-1.9-4.52S1439.28,178,1439.28,181Z" transform="translate(-15.68 -37.79)"/><path class="cls-2" d="M712.61,583.41c-0.9-3-2.4-4.68-6.24-4.68-4.77,0-7.14,3.75-7.14,9.36,0,6.81,3.15,9.36,7.47,9.36,3.36,0,5-1.74,6-4.53l2,1c-1.5,3.84-4.38,5.34-8.34,5.34-5.07,0-9.12-3.18-9.12-11.22s4.32-11.22,9-11.22c4.23,0,6.81,1.5,8.49,5.52Z" transform="translate(-15.68 -37.79)"/><path class="cls-2" d="M722.81,584c3.6,0,6.51,2.64,6.51,7.56s-2.91,7.56-6.51,7.56-6.51-2.64-6.51-7.56S719.21,584,722.81,584Zm-4.71,7.56c0,3.72,2,5.88,4.71,5.88s4.71-2.16,4.71-5.88-2-5.88-4.71-5.88S718.1,587.88,718.1,591.57Z" transform="translate(-15.68 -37.79)"/><path class="cls-2" d="M732.35,584.37h1.8v2.31h0.06a4.14,4.14,0,0,1,4-2.67c2.13,0,3.84,1,4.14,3.15h0.06a4.45,4.45,0,0,1,4.5-3.15c4.17,0,4.17,3.51,4.17,5.25v9.51h-1.8v-9.3c0-1.62-.06-3.78-2.76-3.78-2.52,0-3.9,2.28-3.9,5.07v8h-1.8v-9.06c0-1.86-.18-4-2.76-4-2.22,0-3.9,2-3.9,5.16v7.92h-1.8v-14.4Z" transform="translate(-15.68 -37.79)"/><path class="cls-2" d="M755,577.41h1.8v9.18h0.06a4.36,4.36,0,0,1,4.23-2.58c3.3,0,6,2.7,6,7.74,0,5.34-3.57,7.38-6.12,7.38a4.17,4.17,0,0,1-4.14-2.58H756.8v2.22H755V577.41Zm5.85,8.28c-3.42,0-4.14,3.06-4.14,5.88s0.9,5.88,4.26,5.88c2.58,0,4.35-2.25,4.35-5.88S763.55,585.69,760.85,585.69Z" transform="translate(-15.68 -37.79)"/><path class="cls-2" d="M770,578.43h1.8v2.82H770v-2.82Zm0,5.94h1.8v14.4H770v-14.4Z" transform="translate(-15.68 -37.79)"/><path class="cls-2" d="M775.58,584.37h1.8v2.1h0.06a4.54,4.54,0,0,1,4.29-2.46c3.54,0,5.07,2,5.07,5v9.75H785v-9.21c0-2.91-1.23-3.87-3.51-3.87s-4.11,1.44-4.11,4.68v8.4h-1.8v-14.4Z" transform="translate(-15.68 -37.79)"/><path class="cls-2" d="M791.72,591.51v0.39c0,3.21,1.41,5.55,4.62,5.55a4.64,4.64,0,0,0,4.68-3.06l1.68,0.45a6.62,6.62,0,0,1-6.51,4.29c-3.6,0-6.51-2.64-6.51-7.56s2.91-7.56,6.51-7.56c4.26,0,6.36,3.24,6.51,7.5h-11Zm8.94-1.5c-0.39-2.1-1.47-4.32-4.47-4.32-2.55,0-4.17,1.92-4.47,4.32h8.94Z" transform="translate(-15.68 -37.79)"/><path class="cls-2" d="M815,596.82h-0.06a4.41,4.41,0,0,1-4.2,2.31c-2.7,0-6.06-2-6.06-7.38,0-5,2.73-7.74,6-7.74a4.62,4.62,0,0,1,4.23,2.25H815v-8.85h1.8v21.36H815v-2Zm-4.17.63c3.36,0,4.26-3.06,4.26-5.88s-0.72-5.88-4.14-5.88c-2.7,0-4.47,2.25-4.47,5.88S808.25,597.45,810.83,597.45Z" transform="translate(-15.68 -37.79)"/><path class="cls-2" d="M829.91,600.66c0.3,2.79,2,3.87,4.47,3.87s4.53-.63,4.53-5v-3l0-.06a5.2,5.2,0,0,1-4.74,2.61c-2.55,0-6.12-2-6.12-7.38,0-5,2.73-7.74,6-7.74a4.9,4.9,0,0,1,4.8,2.73h0.06v-2.37h1.8v15c0,3-.48,6.81-6.33,6.81-3.69,0-5.91-1.35-6.3-5.16Zm4.38-15c-2.7,0-4.47,2.25-4.47,5.88s1.77,5.88,4.47,5.88c3.48,0,4.56-2.43,4.56-5.61S838.07,585.69,834.29,585.69Z" transform="translate(-15.68 -37.79)"/><path class="cls-2" d="M844.76,584.37h1.8v2h0.06a4.33,4.33,0,0,1,3.9-2.37c0.48,0,.84,0,1.29.06v1.56a5.62,5.62,0,0,0-1.2-.12c-2.79,0-4,2-4,5v8.28h-1.8v-14.4Z" transform="translate(-15.68 -37.79)"/><path class="cls-2" d="M859,584c3.6,0,6.51,2.64,6.51,7.56s-2.91,7.56-6.51,7.56-6.51-2.64-6.51-7.56S855.38,584,859,584Zm-4.71,7.56c0,3.72,2,5.88,4.71,5.88s4.71-2.16,4.71-5.88-2-5.88-4.71-5.88S854.27,587.88,854.27,591.57Z" transform="translate(-15.68 -37.79)"/><path class="cls-2" d="M877.79,596.67h-0.06a4.54,4.54,0,0,1-4.29,2.46c-3.54,0-5.07-2-5.07-5v-9.75h1.8v9.21c0,2.91,1.23,3.87,3.51,3.87s4.11-1.44,4.11-4.68v-8.4h1.8v14.4h-1.8v-2.1Z" transform="translate(-15.68 -37.79)"/><path class="cls-2" d="M883.37,584.37h1.8v2.16h0.06a4.54,4.54,0,0,1,4.23-2.52c3.15,0,6,2.49,6,7.32,0,6-3.06,7.8-5.91,7.8-2.1,0-3.66-.78-4.35-2.4h-0.06v9.48h-1.8V584.37Zm6,1.32c-3.57,0-4.29,3.12-4.29,5.88s0.72,5.88,4.26,5.88c2.58,0,4.35-2.25,4.35-5.88S891.92,585.69,889.37,585.69Z" transform="translate(-15.68 -37.79)"/><path class="cls-2" d="M899,594.78a3.83,3.83,0,0,0,4.17,2.85c1.47,0,3.51-.57,3.51-2.94,0-4.29-8.52-1-8.52-6.72,0-2.07,1.71-4,4.92-4,2.82,0,4.74.84,5.43,3.27l-1.71.42c-0.63-1.8-1.8-2.19-3.45-2.19-2.7,0-3.39,1.08-3.39,2.52,0,3.72,8.52.93,8.52,6.72,0,2.37-2,4.38-5.58,4.38-2.16,0-4.26-.6-5.64-3.81Z" transform="translate(-15.68 -37.79)"/><path class="cls-2" d="M754.67,609.42L763,630.78h-2.19l-2.4-6.42H749l-2.55,6.42h-2.1l8.7-21.36h1.65Zm3,13.26-4-10.53-4.08,10.53h8Z" transform="translate(-15.68 -37.79)"/><path class="cls-2" d="M763,616.38H766v-6.15h1.8v6.15h3.12v1.5h-3.12v9.51c0,1.08,0,2.07,1,2.07a3.38,3.38,0,0,0,2-.72v1.8a5.86,5.86,0,0,1-2.37.6,2.28,2.28,0,0,1-2.46-2.55V617.88H763v-1.5Z" transform="translate(-15.68 -37.79)"/><path class="cls-2" d="M781.37,609.42h1.8v21.36h-1.8V609.42Z" transform="translate(-15.68 -37.79)"/><path class="cls-2" d="M788.1,623.52v0.39c0,3.21,1.41,5.55,4.62,5.55a4.64,4.64,0,0,0,4.68-3.06l1.68,0.45a6.62,6.62,0,0,1-6.51,4.29c-3.6,0-6.51-2.64-6.51-7.56S789,616,792.56,616c4.26,0,6.36,3.24,6.51,7.5h-11ZM797,622c-0.39-2.1-1.47-4.32-4.47-4.32-2.55,0-4.17,1.92-4.47,4.32H797Z" transform="translate(-15.68 -37.79)"/><path class="cls-2" d="M814.49,631c-2.22,0-3.57,0-3.75-2.52h-0.06a5.31,5.31,0,0,1-5,2.7c-2.34,0-4.59-1.17-4.59-3.81,0-3.06,2.67-4,5.16-4.59l4.41-1.14v-1.44c0-1.86-1.32-2.64-3.6-2.64s-3.51,1.17-3.57,3.48l-2-.36c0.6-3.09,2.46-4.62,5.67-4.62,5.34,0,5.34,3.09,5.34,4.5v7c0,1.86.84,1.89,2.07,1.89V631Zm-8.7-1.5a4.68,4.68,0,0,0,4.83-4.65v-1.65l-5.19,1.44c-1.44.39-2.58,1.08-2.58,2.7S804.44,629.46,805.79,629.46Z" transform="translate(-15.68 -37.79)"/><path class="cls-2" d="M817,626.79a3.83,3.83,0,0,0,4.17,2.85c1.47,0,3.51-.57,3.51-2.94,0-4.29-8.52-1-8.52-6.72,0-2.07,1.71-4,4.92-4,2.82,0,4.74.84,5.43,3.27l-1.71.42c-0.63-1.8-1.8-2.19-3.45-2.19-2.7,0-3.39,1.08-3.39,2.52,0,3.72,8.52.93,8.52,6.72,0,2.37-2,4.38-5.58,4.38-2.16,0-4.26-.6-5.64-3.81Z" transform="translate(-15.68 -37.79)"/><path class="cls-2" d="M828.05,616.38H831v-6.15h1.8v6.15h3.12v1.5h-3.12v9.51c0,1.08,0,2.07,1,2.07a3.38,3.38,0,0,0,2-.72v1.8a5.86,5.86,0,0,1-2.37.6,2.28,2.28,0,0,1-2.46-2.55V617.88h-2.94v-1.5Z" transform="translate(-15.68 -37.79)"/><path class="cls-2" d="M848.84,612.69c1.74,0.09,4-.48,4-3.27h1.74v21.36h-1.8V613.44a7.57,7.57,0,0,1-4,.93v-1.68Z" transform="translate(-15.68 -37.79)"/><path class="cls-2" d="M683.27,641.43h9.45c4.41,0,6.24,2.94,6.24,5.94,0,3.66-2.4,5.58-6.27,5.85l6.84,9.57H697l-6.78-9.48h-4.86v9.48h-2V641.43Zm2,10h6.33c4.32,0,5.28-2.19,5.28-4.08,0-2.49-1.32-4.08-5-4.08h-6.66v8.16Z" transform="translate(-15.68 -37.79)"/><path class="cls-2" d="M701.6,641.43h14v1.86H703.64v7.56h10.77v1.86H703.64v8.22h12.57v1.86H701.6V641.43Z" transform="translate(-15.68 -37.79)"/><path class="cls-2" d="M719.66,641.43h2.49l6.93,17.88h0.06l6.93-17.88h2.49v21.36h-2V645.33h-0.06l-6.66,17.46h-1.38l-6.66-17.46H721.7v17.46h-2V641.43Z" transform="translate(-15.68 -37.79)"/><path class="cls-2" d="M743.09,641.43h2v21.36h-2V641.43Z" transform="translate(-15.68 -37.79)"/><path class="cls-2" d="M764.18,647.43c-0.9-3-2.4-4.68-6.24-4.68-4.77,0-7.14,3.75-7.14,9.36,0,6.81,3.15,9.36,7.47,9.36,3.36,0,5-1.74,6-4.53l2,1c-1.5,3.84-4.38,5.34-8.34,5.34-5.07,0-9.12-3.18-9.12-11.22s4.32-11.22,9-11.22c4.23,0,6.81,1.5,8.49,5.52Z" transform="translate(-15.68 -37.79)"/><path class="cls-2" d="M777.08,641.43l8.28,21.36h-2.19l-2.4-6.42h-9.39l-2.55,6.42h-2.1l8.7-21.36h1.65Zm3,13.26-4-10.53-4.08,10.53h8Z" transform="translate(-15.68 -37.79)"/><path class="cls-2" d="M787.61,641.43H796c6.54,0,8.43,6,8.43,10.68,0,4.5-2,10.68-9,10.68h-7.83V641.43Zm2,19.5h5.67c5.31,0,7.08-4.53,7.08-8.82,0-4-1.65-8.82-6.66-8.82h-6.09v17.64Z" transform="translate(-15.68 -37.79)"/><path class="cls-2" d="M807.71,641.43h14v1.86H809.75v7.56h10.77v1.86H809.75v8.22h12.57v1.86H807.71V641.43Z" transform="translate(-15.68 -37.79)"/><path class="cls-2" d="M832.91,642.45h1.8v2.82h-1.8v-2.82Zm0,5.94h1.8v14.4h-1.8v-14.4Z" transform="translate(-15.68 -37.79)"/><path class="cls-2" d="M838.49,648.39h1.8v2.1h0.06a4.54,4.54,0,0,1,4.29-2.46c3.54,0,5.07,2,5.07,5v9.75h-1.8v-9.21c0-2.91-1.23-3.87-3.51-3.87s-4.11,1.44-4.11,4.68v8.4h-1.8v-14.4Z" transform="translate(-15.68 -37.79)"/><path class="cls-2" d="M855.14,649.89H852v-1.5h3.15v-4.56c0-2.16,1.47-2.94,3.54-2.94a4.12,4.12,0,0,1,1.59.3v1.71a3.25,3.25,0,0,0-1.65-.33c-1.23,0-1.68.69-1.68,2.13v3.69h3.15v1.5h-3.15v12.9h-1.8v-12.9Z" transform="translate(-15.68 -37.79)"/><path class="cls-2" d="M871.79,660.69h-0.06a4.54,4.54,0,0,1-4.29,2.46c-3.54,0-5.07-2-5.07-5v-9.75h1.8v9.21c0,2.91,1.23,3.87,3.51,3.87s4.11-1.44,4.11-4.68v-8.4h1.8v14.4h-1.8v-2.1Z" transform="translate(-15.68 -37.79)"/><path class="cls-2" d="M878,658.8a3.83,3.83,0,0,0,4.17,2.85c1.47,0,3.51-.57,3.51-2.94,0-4.29-8.52-1-8.52-6.72,0-2.07,1.71-4,4.92-4,2.82,0,4.74.84,5.43,3.27l-1.71.42c-0.63-1.8-1.8-2.19-3.45-2.19-2.7,0-3.39,1.08-3.39,2.52,0,3.72,8.52.93,8.52,6.72,0,2.37-2,4.38-5.58,4.38-2.16,0-4.26-.6-5.64-3.81Z" transform="translate(-15.68 -37.79)"/><path class="cls-2" d="M890.69,642.45h1.8v2.82h-1.8v-2.82Zm0,5.94h1.8v14.4h-1.8v-14.4Z" transform="translate(-15.68 -37.79)"/><path class="cls-2" d="M901.88,648c3.6,0,6.51,2.64,6.51,7.56s-2.91,7.56-6.51,7.56-6.51-2.64-6.51-7.56S898.28,648,901.88,648Zm-4.71,7.56c0,3.72,2,5.88,4.71,5.88s4.71-2.16,4.71-5.88-2-5.88-4.71-5.88S897.17,651.9,897.17,655.59Z" transform="translate(-15.68 -37.79)"/><path class="cls-2" d="M911.27,648.39h1.8v2.1h0.06a4.54,4.54,0,0,1,4.29-2.46c3.54,0,5.07,2,5.07,5v9.75h-1.8v-9.21c0-2.91-1.23-3.87-3.51-3.87s-4.11,1.44-4.11,4.68v8.4h-1.8v-14.4Z" transform="translate(-15.68 -37.79)"/><g class="cls-3"><path class="cls-2" d="M771.55,680.37h1.8v2.1h0.06A4.54,4.54,0,0,1,777.7,680c3.54,0,5.07,2,5.07,5v9.75H781v-9.21c0-2.91-1.23-3.87-3.51-3.87s-4.11,1.44-4.11,4.68v8.4h-1.8v-14.4Z" transform="translate(-15.68 -37.79)"/><path class="cls-2" d="M801.25,685H786.07v-1.5h15.18V685Zm0,5.82H786.07v-1.5h15.18v1.5Z" transform="translate(-15.68 -37.79)"/><path class="cls-2" d="M817.87,678.66a4.65,4.65,0,0,1-3.63,4.59v0.06a5.84,5.84,0,0,1,4.23,5.37c0,4.29-3.09,6.45-7.47,6.45-3.27,0-7.47-1.65-7.47-6.45a5.64,5.64,0,0,1,4.23-5.37v-0.06a4.65,4.65,0,0,1-3.63-4.59c0-1.68.87-5.61,6.87-5.61S817.87,677,817.87,678.66ZM805.57,689c0,2.82,2.46,4.5,5.43,4.5s5.43-1.68,5.43-4.5-1.89-4.68-5.43-4.65S805.57,686.19,805.57,689Zm10.26-10.32c0-1.44-.81-3.9-4.83-3.9-3.66,0-4.83,2.07-4.83,3.9s1.59,4,4.83,4C814.72,682.62,815.83,680,815.83,678.63Z" transform="translate(-15.68 -37.79)"/><path class="cls-2" d="M822.28,688c0,4.56,3.45,5.49,5.55,5.49,2.64,0,5.07-1.62,5.07-4.47,0-4.29-3.24-4.5-5.91-4.5h-1c-0.6,0-1.11,0-1.77.06v-1.77c0.6,0,1.17,0,1.77,0h0.93c3.54,0,5.55-1.38,5.55-3.72,0-2.91-2-4.35-4.68-4.35-3.06,0-4.77,1.74-5.1,4.68l-2-.54c1-4.08,3.42-5.82,7.35-5.82,4.8,0,6.51,3.21,6.51,5.67a4.42,4.42,0,0,1-4.47,4.77v0.06c0.63,0,4.89.24,4.89,5.34,0,4.08-3.24,6.24-7.08,6.24-4.32,0-7.2-2.25-7.62-6.51Z" transform="translate(-15.68 -37.79)"/></g><path class="cls-2" d="M517.4,586.92a8.57,8.57,0,0,1-.75-3.57c0-3.81,2.76-6.3,7-6.3,4.8,0,7.41,2.7,7.41,6.9,0,5.64-7.35,10.65-11.43,13.08v0.06h10.44v1.68H516.71v-1.68c3.09-2.37,12.3-7.17,12.3-13.26a5,5,0,0,0-5.25-5.1c-2.94,0-5.31,1.71-5.31,4.83a5.63,5.63,0,0,0,1.35,3.6Z" transform="translate(-15.68 -37.79)"/><path class="cls-2" d="M533.42,591.81V590h8.4v1.86h-8.4Z" transform="translate(-15.68 -37.79)"/><path class="cls-2" d="M546.11,592c0,4.56,3.45,5.49,5.55,5.49,2.64,0,5.07-1.62,5.07-4.47,0-4.29-3.24-4.5-5.91-4.5h-1c-0.6,0-1.11,0-1.77.06v-1.77c0.6,0,1.17,0,1.77,0h0.93c3.54,0,5.55-1.38,5.55-3.72,0-2.91-2-4.35-4.68-4.35-3.06,0-4.77,1.74-5.1,4.68l-2-.54c1-4.08,3.42-5.82,7.35-5.82,4.8,0,6.51,3.21,6.51,5.67a4.42,4.42,0,0,1-4.47,4.77v0.06c0.63,0,4.89.24,4.89,5.34,0,4.08-3.24,6.24-7.08,6.24-4.32,0-7.2-2.25-7.62-6.51Z" transform="translate(-15.68 -37.79)"/><path class="cls-2" d="M411,609.42h9.45c4.41,0,6.24,2.94,6.24,5.94,0,3.66-2.4,5.58-6.27,5.85l6.84,9.57h-2.58l-6.78-9.48H413v9.48h-2V609.42Zm2,10h6.33c4.32,0,5.28-2.19,5.28-4.08,0-2.49-1.32-4.08-5-4.08H413v8.16Z" transform="translate(-15.68 -37.79)"/><path class="cls-2" d="M429.29,609.42h14v1.86H431.33v7.56H442.1v1.86H431.33v8.22H443.9v1.86H429.29V609.42Z" transform="translate(-15.68 -37.79)"/><path class="cls-2" d="M447.35,609.42h2.49l6.93,17.88h0.06l6.93-17.88h2.49v21.36h-2V613.32h-0.06l-6.66,17.46h-1.38l-6.66-17.46h-0.06v17.46h-2V609.42Z" transform="translate(-15.68 -37.79)"/><path class="cls-2" d="M470.78,609.42h2v21.36h-2V609.42Z" transform="translate(-15.68 -37.79)"/><path class="cls-2" d="M491.87,615.42c-0.9-3-2.4-4.68-6.24-4.68-4.77,0-7.14,3.75-7.14,9.36,0,6.81,3.15,9.36,7.47,9.36,3.36,0,5-1.74,6-4.53l2,1c-1.5,3.84-4.38,5.34-8.34,5.34-5.07,0-9.12-3.18-9.12-11.22s4.32-11.22,9-11.22c4.23,0,6.81,1.5,8.49,5.52Z" transform="translate(-15.68 -37.79)"/><path class="cls-2" d="M504.77,609.42L513,630.78h-2.19l-2.4-6.42h-9.39l-2.55,6.42h-2.1l8.7-21.36h1.65Zm3,13.26-4-10.53-4.08,10.53h8Z" transform="translate(-15.68 -37.79)"/><path class="cls-2" d="M515.3,609.42h8.4c6.54,0,8.43,6,8.43,10.68,0,4.5-2,10.68-9,10.68H515.3V609.42Zm2,19.5H523c5.31,0,7.08-4.53,7.08-8.82,0-4-1.65-8.82-6.66-8.82h-6.09v17.64Z" transform="translate(-15.68 -37.79)"/><path class="cls-2" d="M535.4,609.42h14v1.86H537.44v7.56h10.77v1.86H537.44v8.22H550v1.86H535.4V609.42Z" transform="translate(-15.68 -37.79)"/><path class="cls-2" d="M561.47,610.44h1.8v2.82h-1.8v-2.82Zm0,5.94h1.8v14.4h-1.8v-14.4Z" transform="translate(-15.68 -37.79)"/><path class="cls-2" d="M567,616.38h1.8v2.1h0.06A4.54,4.54,0,0,1,573.2,616c3.54,0,5.07,2,5.07,5v9.75h-1.8v-9.21c0-2.91-1.23-3.87-3.51-3.87s-4.11,1.44-4.11,4.68v8.4H567v-14.4Z" transform="translate(-15.68 -37.79)"/><path class="cls-2" d="M583.7,617.88h-3.15v-1.5h3.15v-4.56c0-2.16,1.47-2.94,3.54-2.94a4.12,4.12,0,0,1,1.59.3v1.71a3.25,3.25,0,0,0-1.65-.33c-1.23,0-1.68.69-1.68,2.13v3.69h3.15v1.5H585.5v12.9h-1.8v-12.9Z" transform="translate(-15.68 -37.79)"/><path class="cls-2" d="M600.35,628.68h-0.06a4.54,4.54,0,0,1-4.29,2.46c-3.54,0-5.07-2-5.07-5v-9.75h1.8v9.21c0,2.91,1.23,3.87,3.51,3.87s4.11-1.44,4.11-4.68v-8.4h1.8v14.4h-1.8v-2.1Z" transform="translate(-15.68 -37.79)"/><path class="cls-2" d="M606.53,626.79a3.83,3.83,0,0,0,4.17,2.85c1.47,0,3.51-.57,3.51-2.94,0-4.29-8.52-1-8.52-6.72,0-2.07,1.71-4,4.92-4,2.82,0,4.74.84,5.43,3.27l-1.71.42c-0.63-1.8-1.8-2.19-3.45-2.19-2.7,0-3.39,1.08-3.39,2.52,0,3.72,8.52.93,8.52,6.72,0,2.37-2,4.38-5.58,4.38-2.16,0-4.26-.6-5.64-3.81Z" transform="translate(-15.68 -37.79)"/><path class="cls-2" d="M619.25,610.44H621v2.82h-1.8v-2.82Zm0,5.94H621v14.4h-1.8v-14.4Z" transform="translate(-15.68 -37.79)"/><path class="cls-2" d="M630.44,616c3.6,0,6.51,2.64,6.51,7.56s-2.91,7.56-6.51,7.56-6.51-2.64-6.51-7.56S626.84,616,630.44,616Zm-4.71,7.56c0,3.72,2,5.88,4.71,5.88s4.71-2.16,4.71-5.88-2-5.88-4.71-5.88S625.73,619.89,625.73,623.58Z" transform="translate(-15.68 -37.79)"/><path class="cls-2" d="M639.83,616.38h1.8v2.1h0.06A4.54,4.54,0,0,1,646,616c3.54,0,5.07,2,5.07,5v9.75h-1.8v-9.21c0-2.91-1.23-3.87-3.51-3.87s-4.11,1.44-4.11,4.68v8.4h-1.8v-14.4Z" transform="translate(-15.68 -37.79)"/><path class="cls-2" d="M655.43,626.79a3.83,3.83,0,0,0,4.17,2.85c1.47,0,3.51-.57,3.51-2.94,0-4.29-8.52-1-8.52-6.72,0-2.07,1.71-4,4.92-4,2.82,0,4.74.84,5.43,3.27l-1.71.42c-0.63-1.8-1.8-2.19-3.45-2.19-2.7,0-3.39,1.08-3.39,2.52,0,3.72,8.52.93,8.52,6.72,0,2.37-2,4.38-5.58,4.38-2.16,0-4.26-.6-5.64-3.81Z" transform="translate(-15.68 -37.79)"/><path class="cls-2" d="M506.33,648.39h1.8v2.1h0.06a4.54,4.54,0,0,1,4.29-2.46c3.54,0,5.07,2,5.07,5v9.75h-1.8v-9.21c0-2.91-1.23-3.87-3.51-3.87s-4.11,1.44-4.11,4.68v8.4h-1.8v-14.4Z" transform="translate(-15.68 -37.79)"/><path class="cls-2" d="M536,653H520.85v-1.5H536V653Zm0,5.82H520.85v-1.5H536v1.5Z" transform="translate(-15.68 -37.79)"/><path class="cls-2" d="M539.27,653.49l0.63-12.06h11.28v1.86h-9.6l-0.39,7.11h0.06a5,5,0,0,1,4.56-2.37c5.73,0,7,4.68,7,7.44s-1.26,7.68-7.5,7.68c-3.75,0-6.27-2.19-6.9-6.12l2-.57c0.33,3,2,5,4.92,5s5.46-1.53,5.46-6c0-3.39-1.74-5.73-5.25-5.73-2.37,0-3.9,1.71-4.5,3.9Z" transform="translate(-15.68 -37.79)"/><path class="cls-2" d="M555.74,641.43h13.74v1.68a35,35,0,0,0-7.59,19.68h-2c0.75-7.92,2.88-13,7.53-19.5h-9.84v4.77h-1.8v-6.63Z" transform="translate(-15.68 -37.79)"/><path class="cls-2" d="M224.33,592.38c0.18,3.6,2.46,5.1,6,5.1,3.36,0,5.85-1.74,5.85-4.35,0-6.54-12.75-2.46-12.75-10.8,0-3.9,3.81-5.43,6.81-5.43,3.63,0,6.39,1.2,7.62,4.77l-1.89,1c-0.87-2.79-3.06-3.93-5.73-3.93-2.19,0-4.77,1.23-4.77,3.57,0,6.33,12.75,2.25,12.75,10.47,0,4.2-2.94,6.54-7.89,6.54-4.29,0-7.26-1.59-8-5.91Z" transform="translate(-15.68 -37.79)"/><path class="cls-2" d="M241.31,578.46h1.8v2.82h-1.8v-2.82Zm0,5.94h1.8v14.4h-1.8V584.4Z" transform="translate(-15.68 -37.79)"/><path class="cls-2" d="M246.89,584.4h1.8v2.1h0.06A4.54,4.54,0,0,1,253,584c3.54,0,5.07,2,5.07,5v9.75h-1.8v-9.21c0-2.91-1.23-3.87-3.51-3.87s-4.11,1.44-4.11,4.68v8.4h-1.8V584.4Z" transform="translate(-15.68 -37.79)"/><path class="cls-2" d="M262.88,600.69c0.3,2.79,2,3.87,4.47,3.87s4.53-.63,4.53-5v-3l0-.06a5.2,5.2,0,0,1-4.74,2.61c-2.55,0-6.12-2-6.12-7.38,0-5,2.73-7.74,6-7.74a4.9,4.9,0,0,1,4.8,2.73h0.06V584.4h1.8v15c0,3-.48,6.81-6.33,6.81-3.69,0-5.91-1.35-6.3-5.16Zm4.38-15c-2.7,0-4.47,2.25-4.47,5.88s1.77,5.88,4.47,5.88c3.48,0,4.56-2.43,4.56-5.61S271,585.72,267.26,585.72Z" transform="translate(-15.68 -37.79)"/><path class="cls-2" d="M277.46,577.44h1.8V598.8h-1.8V577.44Z" transform="translate(-15.68 -37.79)"/><path class="cls-2" d="M284.18,591.54v0.39c0,3.21,1.41,5.55,4.62,5.55a4.64,4.64,0,0,0,4.68-3.06l1.68,0.45a6.62,6.62,0,0,1-6.51,4.29c-3.6,0-6.51-2.64-6.51-7.56S285,584,288.65,584c4.26,0,6.36,3.24,6.51,7.5h-11Zm8.94-1.5c-0.39-2.1-1.47-4.32-4.47-4.32-2.55,0-4.17,1.92-4.47,4.32h8.94Z" transform="translate(-15.68 -37.79)"/><path class="cls-2" d="M138.62,609.45h9.45c4.41,0,6.24,2.94,6.24,5.94,0,3.66-2.4,5.58-6.27,5.85l6.84,9.57H152.3l-6.78-9.48h-4.86v9.48h-2V609.45Zm2,10H147c4.32,0,5.28-2.19,5.28-4.08,0-2.49-1.32-4.08-5-4.08h-6.66v8.16Z" transform="translate(-15.68 -37.79)"/><path class="cls-2" d="M156.95,609.45h14v1.86H159v7.56h10.77v1.86H159v8.22h12.57v1.86H156.95V609.45Z" transform="translate(-15.68 -37.79)"/><path class="cls-2" d="M175,609.45h2.49l6.93,17.88h0.06l6.93-17.88h2.49v21.36h-2V613.35h-0.06l-6.66,17.46h-1.38l-6.66-17.46H177v17.46h-2V609.45Z" transform="translate(-15.68 -37.79)"/><path class="cls-2" d="M198.44,609.45h2v21.36h-2V609.45Z" transform="translate(-15.68 -37.79)"/><path class="cls-2" d="M219.53,615.45c-0.9-3-2.4-4.68-6.24-4.68-4.77,0-7.14,3.75-7.14,9.36,0,6.81,3.15,9.36,7.47,9.36,3.36,0,5-1.74,6-4.53l2,1c-1.5,3.84-4.38,5.34-8.34,5.34-5.07,0-9.12-3.18-9.12-11.22s4.32-11.22,9-11.22c4.23,0,6.81,1.5,8.49,5.52Z" transform="translate(-15.68 -37.79)"/><path class="cls-2" d="M232.43,609.45l8.28,21.36h-2.19l-2.4-6.42h-9.39l-2.55,6.42h-2.1l8.7-21.36h1.65Zm3,13.26-4-10.53-4.08,10.53h8Z" transform="translate(-15.68 -37.79)"/><path class="cls-2" d="M243,609.45h8.4c6.54,0,8.43,6,8.43,10.68,0,4.5-2,10.68-9,10.68H243V609.45Zm2,19.5h5.67c5.31,0,7.08-4.53,7.08-8.82,0-4-1.65-8.82-6.66-8.82H245v17.64Z" transform="translate(-15.68 -37.79)"/><path class="cls-2" d="M263.06,609.45h14v1.86H265.1v7.56h10.77v1.86H265.1v8.22h12.57v1.86H263.06V609.45Z" transform="translate(-15.68 -37.79)"/><path class="cls-2" d="M289.13,610.47h1.8v2.82h-1.8v-2.82Zm0,5.94h1.8v14.4h-1.8v-14.4Z" transform="translate(-15.68 -37.79)"/><path class="cls-2" d="M294.71,616.41h1.8v2.1h0.06a4.54,4.54,0,0,1,4.29-2.46c3.54,0,5.07,2,5.07,5v9.75h-1.8V621.6c0-2.91-1.23-3.87-3.51-3.87s-4.11,1.44-4.11,4.68v8.4h-1.8v-14.4Z" transform="translate(-15.68 -37.79)"/><path class="cls-2" d="M311.36,617.91h-3.15v-1.5h3.15v-4.56c0-2.16,1.47-2.94,3.54-2.94a4.12,4.12,0,0,1,1.59.3v1.71a3.25,3.25,0,0,0-1.65-.33c-1.23,0-1.68.69-1.68,2.13v3.69h3.15v1.5h-3.15v12.9h-1.8v-12.9Z" transform="translate(-15.68 -37.79)"/><path class="cls-2" d="M328,628.71h-0.06a4.54,4.54,0,0,1-4.29,2.46c-3.54,0-5.07-2-5.07-5v-9.75h1.8v9.21c0,2.91,1.23,3.87,3.51,3.87s4.11-1.44,4.11-4.68v-8.4h1.8v14.4H328v-2.1Z" transform="translate(-15.68 -37.79)"/><path class="cls-2" d="M334.19,626.82a3.83,3.83,0,0,0,4.17,2.85c1.47,0,3.51-.57,3.51-2.94,0-4.29-8.52-1-8.52-6.72,0-2.07,1.71-4,4.92-4,2.82,0,4.74.84,5.43,3.27l-1.71.42c-0.63-1.8-1.8-2.19-3.45-2.19-2.7,0-3.39,1.08-3.39,2.52,0,3.72,8.52.93,8.52,6.72,0,2.37-2,4.38-5.58,4.38-2.16,0-4.26-.6-5.64-3.81Z" transform="translate(-15.68 -37.79)"/><path class="cls-2" d="M346.91,610.47h1.8v2.82h-1.8v-2.82Zm0,5.94h1.8v14.4h-1.8v-14.4Z" transform="translate(-15.68 -37.79)"/><path class="cls-2" d="M358.1,616.05c3.6,0,6.51,2.64,6.51,7.56s-2.91,7.56-6.51,7.56-6.51-2.64-6.51-7.56S354.5,616.05,358.1,616.05Zm-4.71,7.56c0,3.72,2,5.88,4.71,5.88s4.71-2.16,4.71-5.88-2-5.88-4.71-5.88S353.39,619.92,353.39,623.61Z" transform="translate(-15.68 -37.79)"/><path class="cls-2" d="M367.49,616.41h1.8v2.1h0.06a4.54,4.54,0,0,1,4.29-2.46c3.54,0,5.07,2,5.07,5v9.75h-1.8V621.6c0-2.91-1.23-3.87-3.51-3.87s-4.11,1.44-4.11,4.68v8.4h-1.8v-14.4Z" transform="translate(-15.68 -37.79)"/><path class="cls-2" d="M227.33,648.42h1.8v2.1h0.06a4.54,4.54,0,0,1,4.29-2.46c3.54,0,5.07,2,5.07,5v9.75h-1.8v-9.21c0-2.91-1.23-3.87-3.51-3.87s-4.11,1.44-4.11,4.68v8.4h-1.8v-14.4Z" transform="translate(-15.68 -37.79)"/><path class="cls-2" d="M257,653.07H241.85v-1.5H257v1.5Zm0,5.82H241.85v-1.5H257v1.5Z" transform="translate(-15.68 -37.79)"/><path class="cls-2" d="M260.45,651a8.57,8.57,0,0,1-.75-3.57c0-3.81,2.76-6.3,7-6.3,4.8,0,7.41,2.7,7.41,6.9,0,5.64-7.35,10.65-11.43,13.08v0.06h10.44v1.68H259.76v-1.68c3.09-2.37,12.3-7.17,12.3-13.26a5,5,0,0,0-5.25-5.1c-2.94,0-5.31,1.71-5.31,4.83a5.63,5.63,0,0,0,1.35,3.6Z" transform="translate(-15.68 -37.79)"/><path class="cls-2" d="M288.56,646.53c-0.39-3.42-2.73-3.75-4.29-3.75-4.77,0-5.67,4.23-6.09,8.52h0.06a6.83,6.83,0,0,1,5.43-2.88c3.21,0,7.11,1.74,7.11,7.59,0,3.63-2.16,7.17-7.26,7.17-5.58,0-7.38-4.74-7.38-10.32,0-10.32,4.8-11.76,8.16-11.76a6,6,0,0,1,6.3,4.77Zm-10.38,8.85c0,3.78,2.58,6.12,5.4,6.12,2.64,0,5.16-1.74,5.16-5.52,0-2.82-1.2-5.88-4.95-5.88A5.33,5.33,0,0,0,278.18,655.38Z" transform="translate(-15.68 -37.79)"/><g class="cls-4"><g class="cls-24"><rect class="cls-6" x="102.53" y="19.35" width="816.56" height="49.28"/></g></g><g class="cls-7"><g class="cls-25"><rect class="cls-6" x="102.53" y="216.43" width="816.56" height="49.27"/></g></g><g class="cls-9"><g class="cls-26"><rect class="cls-6" x="102.53" y="117.88" width="816.56" height="49.28"/></g></g><g class="cls-11"><g class="cls-27"><rect class="cls-6" x="102.53" y="314.98" width="816.56" height="49.27"/></g></g><g class="cls-13"><g class="cls-28"><rect class="cls-6" x="102.53" y="413.41" width="816.56" height="49.28"/></g></g><g class="cls-15"><g class="cls-29"><rect class="cls-6" x="102.53" y="68.63" width="816.56" height="49.28"/></g></g><g class="cls-17"><g class="cls-30"><rect class="cls-6" x="102.53" y="265.71" width="816.56" height="49.27"/></g></g><g class="cls-19"><g class="cls-31"><rect class="cls-6" x="102.53" y="167.16" width="816.56" height="49.27"/></g></g><g class="cls-21"><g class="cls-32"><rect class="cls-6" x="102.53" y="364.25" width="816.56" height="49.27"/></g></g><rect class="cls-6" x="102.53" y="462.69" width="816.56" height="49.28"/><path class="cls-2" d="M59.21,48.74c1.74,0.09,4-.48,4-3.27H65V66.83h-1.8V49.49a7.57,7.57,0,0,1-4,.93V48.74Z" transform="translate(-15.68 -37.79)"/><path class="cls-2" d="M79.88,45.11c4,0,7.53,3.24,7.53,11s-3.57,11-7.53,11-7.53-3.24-7.53-11S75.92,45.11,79.88,45.11Zm0,20.4c2,0,5.49-1.44,5.49-9.36s-3.45-9.36-5.49-9.36-5.49,1.44-5.49,9.36S77.84,65.51,79.88,65.51Z" transform="translate(-15.68 -37.79)"/><path class="cls-2" d="M96.56,45.11c4,0,7.53,3.24,7.53,11s-3.57,11-7.53,11S89,64,89,56.15,92.6,45.11,96.56,45.11Zm0,20.4c2,0,5.49-1.44,5.49-9.36s-3.45-9.36-5.49-9.36-5.49,1.44-5.49,9.36S94.52,65.51,96.56,65.51Z" transform="translate(-15.68 -37.79)"/><path class="cls-2" d="M86.75,149.33a4.65,4.65,0,0,1-3.63,4.59V154a5.84,5.84,0,0,1,4.23,5.37c0,4.29-3.09,6.45-7.47,6.45-3.27,0-7.47-1.65-7.47-6.45A5.64,5.64,0,0,1,76.64,154v-0.06A4.65,4.65,0,0,1,73,149.33c0-1.68.87-5.61,6.87-5.61S86.75,147.65,86.75,149.33Zm-12.3,10.29c0,2.82,2.46,4.5,5.43,4.5s5.43-1.68,5.43-4.5-1.89-4.68-5.43-4.65S74.45,156.86,74.45,159.62ZM84.71,149.3c0-1.44-.81-3.9-4.83-3.9-3.66,0-4.83,2.07-4.83,3.9s1.59,4,4.83,4C83.6,153.29,84.71,150.62,84.71,149.3Z" transform="translate(-15.68 -37.79)"/><path class="cls-2" d="M96.56,143.72c4,0,7.53,3.24,7.53,11s-3.57,11-7.53,11-7.53-3.24-7.53-11S92.6,143.72,96.56,143.72Zm0,20.4c2,0,5.49-1.44,5.49-9.36s-3.45-9.36-5.49-9.36-5.49,1.44-5.49,9.36S94.52,164.12,96.56,164.12Z" transform="translate(-15.68 -37.79)"/><path class="cls-2" d="M85,247.76c-0.39-3.42-2.73-3.75-4.29-3.75-4.77,0-5.67,4.23-6.09,8.52h0.06a6.84,6.84,0,0,1,5.43-2.88c3.21,0,7.11,1.74,7.11,7.59,0,3.63-2.16,7.17-7.26,7.17-5.58,0-7.38-4.74-7.38-10.32,0-10.32,4.8-11.76,8.16-11.76A6,6,0,0,1,87,247.1ZM74.6,256.61c0,3.78,2.58,6.12,5.4,6.12,2.64,0,5.16-1.74,5.16-5.52,0-2.82-1.2-5.88-5-5.88A5.33,5.33,0,0,0,74.6,256.61Z" transform="translate(-15.68 -37.79)"/><path class="cls-2" d="M96.56,242.33c4,0,7.53,3.24,7.53,11s-3.57,11-7.53,11-7.53-3.24-7.53-11S92.6,242.33,96.56,242.33Zm0,20.4c2,0,5.49-1.44,5.49-9.36S98.6,244,96.56,244s-5.49,1.44-5.49,9.36S94.52,262.73,96.56,262.73Z" transform="translate(-15.68 -37.79)"/><path class="cls-2" d="M72.56,355.64l9.33-14.34h2v14.34h3.39v1.68H83.87v5.34h-1.8v-5.34H72.56v-1.68Zm2,0h7.47V344.39H82Z" transform="translate(-15.68 -37.79)"/><path class="cls-2" d="M96.56,340.94c4,0,7.53,3.24,7.53,11s-3.57,11-7.53,11S89,359.78,89,352,92.6,340.94,96.56,340.94Zm0,20.4c2,0,5.49-1.44,5.49-9.36s-3.45-9.36-5.49-9.36-5.49,1.44-5.49,9.36S94.52,361.34,96.56,361.34Z" transform="translate(-15.68 -37.79)"/><path class="cls-2" d="M73.55,449.42a8.57,8.57,0,0,1-.75-3.57c0-3.81,2.76-6.3,7-6.3,4.8,0,7.41,2.7,7.41,6.9,0,5.64-7.35,10.65-11.43,13.08v0.06H86.21v1.68H72.86v-1.68c3.09-2.37,12.3-7.17,12.3-13.26a5,5,0,0,0-5.25-5.1c-2.94,0-5.31,1.71-5.31,4.83a5.63,5.63,0,0,0,1.35,3.6Z" transform="translate(-15.68 -37.79)"/><path class="cls-2" d="M96.56,439.55c4,0,7.53,3.24,7.53,11s-3.57,11-7.53,11-7.53-3.24-7.53-11S92.6,439.55,96.56,439.55Zm0,20.4c2,0,5.49-1.44,5.49-9.36s-3.45-9.36-5.49-9.36-5.49,1.44-5.49,9.36S94.52,460,96.56,460Z" transform="translate(-15.68 -37.79)"/><path class="cls-2" d="M96.56,538.16c4,0,7.53,3.24,7.53,11s-3.57,11-7.53,11S89,557,89,549.2,92.6,538.16,96.56,538.16Zm0,20.4c2,0,5.49-1.44,5.49-9.36s-3.45-9.36-5.49-9.36-5.49,1.44-5.49,9.36S94.52,558.56,96.56,558.56Z" transform="translate(-15.68 -37.79)"/><path class="cls-2" d="M17.24,457.79V447.27c0-4.2,3.09-5.55,5.82-5.55,4.17,0,5.85,2.64,5.85,6.48v7.56H38.6v2H17.24Zm9.81-2V449c0-3.48-1.29-5.22-4-5.22-1.26,0-4,.21-4,4.38v7.62h7.95Z" transform="translate(-15.68 -37.79)"/><path class="cls-2" d="M24.2,439.13v-1.8h2v-0.06a4.33,4.33,0,0,1-2.37-3.9c0-.48,0-0.84.06-1.29h1.56a5.62,5.62,0,0,0-.12,1.2c0,2.79,2,4,5,4H38.6v1.8H24.2Z" transform="translate(-15.68 -37.79)"/><path class="cls-2" d="M23.84,424.92c0-3.6,2.64-6.51,7.56-6.51S39,421.32,39,424.92s-2.64,6.51-7.56,6.51S23.84,428.52,23.84,424.92Zm7.56,4.71c3.72,0,5.88-2,5.88-4.71s-2.16-4.71-5.88-4.71-5.88,2-5.88,4.71S27.71,429.62,31.4,429.62Z" transform="translate(-15.68 -37.79)"/><path class="cls-2" d="M24.2,415.53v-1.8h2.16v-0.06a4.54,4.54,0,0,1-2.52-4.23c0-3.15,2.49-6,7.32-6,6,0,7.8,3.06,7.8,5.91,0,2.1-.78,3.66-2.4,4.35v0.06H46v1.8H24.2Zm1.32-6c0,3.57,3.12,4.29,5.88,4.29s5.88-.72,5.88-4.26c0-2.58-2.25-4.35-5.88-4.35S25.52,407,25.52,409.53Z" transform="translate(-15.68 -37.79)"/><path class="cls-2" d="M23.84,394.91c0-3.6,2.64-6.51,7.56-6.51S39,391.32,39,394.91s-2.64,6.51-7.56,6.51S23.84,398.52,23.84,394.91Zm7.56,4.71c3.72,0,5.88-2,5.88-4.71s-2.16-4.71-5.88-4.71-5.88,2-5.88,4.71S27.71,399.62,31.4,399.62Z" transform="translate(-15.68 -37.79)"/><path class="cls-2" d="M24.2,385.25v-1.8h2V383.4a4.33,4.33,0,0,1-2.37-3.9c0-.48,0-0.84.06-1.29h1.56a5.63,5.63,0,0,0-.12,1.2c0,2.79,2,4,5,4H38.6v1.8H24.2Z" transform="translate(-15.68 -37.79)"/><path class="cls-2" d="M24.2,378.3v-2.94H18.05v-1.8H24.2v-3.12h1.5v3.12h9.51c1.08,0,2.07,0,2.07-1a3.38,3.38,0,0,0-.72-2h1.8a5.88,5.88,0,0,1,.6,2.37,2.28,2.28,0,0,1-2.55,2.46H25.7v2.94H24.2Z" transform="translate(-15.68 -37.79)"/><path class="cls-2" d="M18.26,368.31v-1.8h2.82v1.8H18.26Zm5.94,0v-1.8H38.6v1.8H24.2Z" transform="translate(-15.68 -37.79)"/><path class="cls-2" d="M23.84,357.12c0-3.6,2.64-6.51,7.56-6.51S39,353.52,39,357.12s-2.64,6.51-7.56,6.51S23.84,360.72,23.84,357.12Zm7.56,4.71c3.72,0,5.88-2,5.88-4.71s-2.16-4.71-5.88-4.71-5.88,2-5.88,4.71S27.71,361.83,31.4,361.83Z" transform="translate(-15.68 -37.79)"/><path class="cls-2" d="M24.2,347.73v-1.8h2.1v-0.06a4.54,4.54,0,0,1-2.46-4.29c0-3.54,2-5.07,5-5.07H38.6v1.8H29.39c-2.91,0-3.87,1.23-3.87,3.51s1.44,4.11,4.68,4.11h8.4v1.8H24.2Z" transform="translate(-15.68 -37.79)"/><path class="cls-2" d="M23.84,318.78c0-3.6,2.64-6.51,7.56-6.51S39,315.18,39,318.78s-2.64,6.51-7.56,6.51S23.84,322.38,23.84,318.78Zm7.56,4.71c3.72,0,5.88-2,5.88-4.71s-2.16-4.71-5.88-4.71-5.88,2-5.88,4.71S27.71,323.49,31.4,323.49Z" transform="translate(-15.68 -37.79)"/><path class="cls-2" d="M25.7,307.74v3.15H24.2v-3.15H19.64c-2.16,0-2.94-1.47-2.94-3.54a4.1,4.1,0,0,1,.3-1.59h1.71a3.24,3.24,0,0,0-.33,1.65c0,1.23.69,1.68,2.13,1.68H24.2v-3.15h1.5v3.15H38.6v1.8H25.7Z" transform="translate(-15.68 -37.79)"/><path class="cls-2" d="M24.2,292.17v-1.8h2.16v-0.06a4.54,4.54,0,0,1-2.52-4.23c0-3.15,2.49-6,7.32-6,6,0,7.8,3.06,7.8,5.91,0,2.1-.78,3.66-2.4,4.35v0.06H46v1.8H24.2Zm1.32-6c0,3.57,3.12,4.29,5.88,4.29s5.88-.72,5.88-4.26c0-2.58-2.25-4.35-5.88-4.35S25.52,283.62,25.52,286.17Z" transform="translate(-15.68 -37.79)"/><path class="cls-2" d="M38.78,264.63c0,2.22,0,3.57-2.52,3.75v0.06a5.31,5.31,0,0,1,2.7,5c0,2.34-1.17,4.59-3.81,4.59-3.06,0-4-2.67-4.59-5.16l-1.14-4.41H28c-1.86,0-2.64,1.32-2.64,3.6s1.17,3.51,3.48,3.57l-0.36,2c-3.09-.6-4.62-2.46-4.62-5.67,0-5.34,3.09-5.34,4.5-5.34h7c1.86,0,1.89-.84,1.89-2.07h1.5Zm-1.5,8.7a4.68,4.68,0,0,0-4.65-4.83H31l1.44,5.19c0.39,1.44,1.08,2.58,2.7,2.58S37.28,274.68,37.28,273.33Z" transform="translate(-15.68 -37.79)"/><path class="cls-2" d="M24.2,264.39v-2.94H18.05v-1.8H24.2v-3.12h1.5v3.12h9.51c1.08,0,2.07,0,2.07-1a3.38,3.38,0,0,0-.72-2h1.8A5.88,5.88,0,0,1,39,259a2.28,2.28,0,0,1-2.55,2.46H25.7v2.94H24.2Z" transform="translate(-15.68 -37.79)"/><path class="cls-2" d="M18.26,254.4v-1.8h2.82v1.8H18.26Zm5.94,0v-1.8H38.6v1.8H24.2Z" transform="translate(-15.68 -37.79)"/><path class="cls-2" d="M31.34,247.68h0.39c3.21,0,5.55-1.41,5.55-4.62a4.64,4.64,0,0,0-3.06-4.68l0.45-1.68A6.62,6.62,0,0,1,39,243.21c0,3.6-2.64,6.51-7.56,6.51s-7.56-2.91-7.56-6.51c0-4.26,3.24-6.36,7.5-6.51v11Zm-1.5-8.94c-2.1.39-4.32,1.47-4.32,4.47,0,2.55,1.92,4.17,4.32,4.47v-8.94Z" transform="translate(-15.68 -37.79)"/><path class="cls-2" d="M24.2,233.82V232h2.1V232a4.54,4.54,0,0,1-2.46-4.29c0-3.54,2-5.07,5-5.07H38.6v1.8H29.39c-2.91,0-3.87,1.23-3.87,3.51S27,232,30.2,232h8.4v1.8H24.2Z" transform="translate(-15.68 -37.79)"/><path class="cls-2" d="M24.2,220.47v-2.94H18.05v-1.8H24.2v-3.12h1.5v3.12h9.51c1.08,0,2.07,0,2.07-1a3.38,3.38,0,0,0-.72-2h1.8a5.88,5.88,0,0,1,.6,2.37,2.28,2.28,0,0,1-2.55,2.46H25.7v2.94H24.2Z" transform="translate(-15.68 -37.79)"/><path class="cls-2" d="M34.61,209.88a3.83,3.83,0,0,0,2.85-4.17c0-1.47-.57-3.51-2.94-3.51-4.29,0-1,8.52-6.72,8.52-2.07,0-4-1.71-4-4.92,0-2.82.84-4.74,3.27-5.43l0.42,1.71c-1.8.63-2.19,1.8-2.19,3.45,0,2.7,1.08,3.39,2.52,3.39,3.72,0,.93-8.52,6.72-8.52,2.37,0,4.38,2,4.38,5.58,0,2.16-.6,4.26-3.81,5.64Z" transform="translate(-15.68 -37.79)"/><path class="cls-2" d="M44.24,182c-2.79,5-8.58,7.29-14.28,7.29S18.47,187.17,15.68,182h1.56c3.09,4,8.22,5.25,12.72,5.25S39.59,186,42.68,182h1.56Z" transform="translate(-15.68 -37.79)"/><path class="cls-2" d="M16.94,162.18L39.68,174l-0.54,1.14L16.37,163.32ZM22.49,170c2.67,0,5.61,1.2,5.61,4.32v0.06c0,3.12-2.94,4.32-5.61,4.32s-5.61-1.29-5.61-4.35S19.85,170,22.49,170Zm0,1.5c-1.8,0-4.11.45-4.11,2.85s2.31,2.88,4.11,2.85,4.11-.45,4.11-2.85S24.29,171.51,22.49,171.51Zm10.86-13.23c2.67,0,5.61,1.2,5.61,4.32v0.06C39,165.78,36,167,33.35,167s-5.61-1.29-5.61-4.35S30.71,158.28,33.35,158.28Zm0,1.5c-1.8,0-4.11.45-4.11,2.85s2.31,2.88,4.11,2.85,4.11-.45,4.11-2.85S35.15,159.78,33.35,159.78Z" transform="translate(-15.68 -37.79)"/><path class="cls-2" d="M42.68,154.95c-3.09-4-8.22-5.25-12.72-5.25s-9.63,1.26-12.72,5.25H15.68c2.79-5,8.58-7.29,14.28-7.29s11.49,2.16,14.28,7.29H42.68Z" transform="translate(-15.68 -37.79)"/><rect class="cls-23" x="705.29" y="90.65" width="168.73" height="420.08"/><path class="cls-2" d="M775.91,168.09c-1.9-1.16-3.4-2.55-3.4-4.93,0-5,4.73-6.32,8.87-6.32,3,0,7.58,1.56,7.58,5.24,0,2.18-1.77,3.6-3.6,4.39,2.35,0.92,4.56,3,4.56,5.64,0,4.56-4.9,6.32-8.87,6.32-3.33,0-9.35-1.09-9.35-5.34C771.7,170.43,773.67,169,775.91,168.09Zm4.76,7.79c2,0,5.1-.48,5.1-2.92s-5.78-3.4-7.21-3.88c-1.39.44-3,1.19-3,3.33C775.54,174.92,778.49,175.87,780.67,175.87Zm2.41-10.2c1.09-.65,2.35-1.5,2.35-3.43,0-2.35-3-3.16-4.9-3.16s-3.88.78-3.88,2.92C776.66,164.48,780.53,165.27,783.08,165.67Z" transform="translate(-15.68 -37.79)"/><path class="cls-2" d="M802,178.42c-5.78,0-9.14-4.22-9.14-9.69,0-5.81,2.89-11.9,9.45-11.9,2.52,0,7.07,1.26,7.07,4.49a2.62,2.62,0,0,1-2.55,2.75c-1.29,0-2.65-.71-2.65-2.18a2,2,0,0,1,1.56-2v-0.2a7,7,0,0,0-2.86-.75c-4.39,0-5,4.52-5.07,8a7.54,7.54,0,0,1,4.93-1.87c3.77,0,7.72,2.11,7.72,6.32C810.49,176,806.44,178.42,802,178.42Zm-4-6.53c0,2.69,1.53,4.15,3.71,4.15s3.71-1.46,3.71-4.15-1.53-4.15-3.71-4.15S798,169.21,798,171.9Z" transform="translate(-15.68 -37.79)"/><path class="cls-2" d="M824.39,163.23c0,3.94-1.7,6.39-5.54,6.39s-5.54-2.45-5.54-6.39,1.7-6.39,5.54-6.39S824.39,159.28,824.39,163.23Zm-7.45,0c0,3,.61,4.52,1.9,4.52s1.9-1.53,1.9-4.52-0.61-4.52-1.9-4.52S816.95,160.23,816.95,163.23Zm1.12,15.2,14.08-21.59h2l-14.07,21.59h-2ZM838.91,172c0,3.94-1.7,6.39-5.54,6.39s-5.54-2.45-5.54-6.39,1.7-6.39,5.54-6.39S838.91,168.09,838.91,172Zm-7.45,0c0,3,.61,4.52,1.9,4.52s1.9-1.53,1.9-4.52-0.61-4.52-1.9-4.52S831.47,169,831.47,172Z" transform="translate(-15.68 -37.79)"/><rect class="cls-33" x="439.12" y="44.23" width="168.73" height="468"/><path class="cls-2" d="M513.88,132c-2.52,0-7.07-1.26-7.07-4.49a2.62,2.62,0,0,1,2.55-2.75c1.29,0,2.65.71,2.65,2.18a2,2,0,0,1-1.56,2v0.2a7,7,0,0,0,2.86.75c4.39,0,5-4.52,5.07-8a7.54,7.54,0,0,1-4.93,1.87c-3.77,0-7.72-2.11-7.72-6.32,0-4.66,4-7.07,8.46-7.07,5.78,0,9.15,4.22,9.15,9.69C523.34,125.92,520.45,132,513.88,132Zm4.35-15.06c0-2.69-1.53-4.15-3.71-4.15s-3.71,1.46-3.71,4.15,1.53,4.15,3.71,4.15S518.24,119.63,518.24,116.94Z" transform="translate(-15.68 -37.79)"/><path class="cls-2" d="M527.45,121.5l1-11.08a23.71,23.71,0,0,0,14.42,0c-1,3.91-4.66,4.86-8.16,4.86a23,23,0,0,1-4-.37l-0.37,3.4a9.8,9.8,0,0,1,5.44-1.33c4.76,0,8.19,3,8.19,7.68,0,5.34-4.66,7.34-9.21,7.34-3.43,0-8-1.56-8-5.61a2.68,2.68,0,0,1,2.69-3,2.59,2.59,0,0,1,2.86,2.65,2.24,2.24,0,0,1-2.65,2.21c0.58,1.09,2.92,1.53,4.11,1.53,3.84,0,5.1-1.77,5.1-5.17s-1.7-5.17-5.1-5.17a5.36,5.36,0,0,0-4,2h-2.28Z" transform="translate(-15.68 -37.79)"/><path class="cls-2" d="M558.22,116.81c0,3.94-1.7,6.39-5.54,6.39s-5.54-2.45-5.54-6.39,1.7-6.39,5.54-6.39S558.22,112.87,558.22,116.81Zm-7.45,0c0,3,.61,4.52,1.9,4.52s1.9-1.53,1.9-4.52-0.61-4.52-1.9-4.52S550.77,113.82,550.77,116.81ZM551.9,132L566,110.42h2L553.94,132h-2Zm20.84-6.39c0,3.94-1.7,6.39-5.54,6.39s-5.54-2.45-5.54-6.39,1.7-6.39,5.54-6.39S572.74,121.67,572.74,125.61Zm-7.45,0c0,3,.61,4.52,1.9,4.52s1.9-1.53,1.9-4.52-0.61-4.52-1.9-4.52S565.29,122.62,565.29,125.61Z" transform="translate(-15.68 -37.79)"/><rect class="cls-34" x="160.12" y="188.23" width="168.73" height="324"/><path class="cls-2" d="M236.07,276c-5.78,0-9.14-4.22-9.14-9.69,0-5.81,2.89-11.9,9.45-11.9,2.52,0,7.07,1.26,7.07,4.49a2.62,2.62,0,0,1-2.55,2.75c-1.29,0-2.65-.71-2.65-2.18a2,2,0,0,1,1.56-2v-0.2a7,7,0,0,0-2.86-.75c-4.38,0-5,4.52-5.07,8a7.54,7.54,0,0,1,4.93-1.87c3.77,0,7.72,2.11,7.72,6.32C244.54,273.59,240.49,276,236.07,276Zm-4-6.53c0,2.69,1.53,4.15,3.71,4.15s3.71-1.46,3.71-4.15-1.53-4.15-3.71-4.15S232,266.79,232,269.48Z" transform="translate(-15.68 -37.79)"/><path class="cls-2" d="M248.45,265.5l1-11.08a23.71,23.71,0,0,0,14.42,0c-1,3.91-4.66,4.86-8.16,4.86a23,23,0,0,1-4-.37l-0.37,3.4a9.8,9.8,0,0,1,5.44-1.33c4.76,0,8.19,3,8.19,7.68,0,5.34-4.66,7.34-9.21,7.34-3.43,0-8-1.56-8-5.61a2.68,2.68,0,0,1,2.69-3,2.59,2.59,0,0,1,2.86,2.65,2.24,2.24,0,0,1-2.65,2.21c0.58,1.09,2.92,1.53,4.11,1.53,3.84,0,5.1-1.77,5.1-5.17s-1.7-5.17-5.1-5.17a5.36,5.36,0,0,0-4,2h-2.28Z" transform="translate(-15.68 -37.79)"/><path class="cls-2" d="M279.22,260.81c0,3.94-1.7,6.39-5.54,6.39s-5.54-2.45-5.54-6.39,1.7-6.39,5.54-6.39S279.22,256.87,279.22,260.81Zm-7.45,0c0,3,.61,4.52,1.9,4.52s1.9-1.53,1.9-4.52-0.61-4.52-1.9-4.52S271.77,257.82,271.77,260.81ZM272.9,276L287,254.42h2L274.94,276h-2Zm20.84-6.39c0,3.94-1.7,6.39-5.54,6.39s-5.54-2.45-5.54-6.39,1.7-6.39,5.54-6.39S293.74,265.67,293.74,269.61Zm-7.45,0c0,3,.61,4.52,1.9,4.52s1.9-1.53,1.9-4.52-0.61-4.52-1.9-4.52S286.29,266.62,286.29,269.61Z" transform="translate(-15.68 -37.79)"/><line class="cls-35" x1="244.09" y1="30.73" x2="516.62" y2="30.73"/><path class="cls-2" d="M343.9,45.11h1.8v2.16h0.06A4.54,4.54,0,0,1,350,44.75c3.15,0,6,2.49,6,7.32,0,6-3.06,7.8-5.91,7.8-2.1,0-3.66-.78-4.35-2.4H345.7V67h-1.8V45.11Zm6,1.32c-3.57,0-4.29,3.12-4.29,5.88s0.72,5.88,4.26,5.88c2.58,0,4.35-2.25,4.35-5.88S352.45,46.43,349.9,46.43Z" transform="translate(-15.68 -37.79)"/><path class="cls-2" d="M373.6,49.76H358.42v-1.5H373.6v1.5Zm0,5.82H358.42v-1.5H373.6v1.5Z" transform="translate(-15.68 -37.79)"/><path class="cls-2" d="M383.35,37.79c4,0,7.53,3.24,7.53,11s-3.57,11-7.53,11-7.53-3.24-7.53-11S379.39,37.79,383.35,37.79Zm0,20.4c2,0,5.49-1.44,5.49-9.36s-3.45-9.36-5.49-9.36-5.49,1.44-5.49,9.36S381.31,58.19,383.35,58.19Z" transform="translate(-15.68 -37.79)"/><path class="cls-2" d="M397,59.51h-2.28V56H397v3.48Z" transform="translate(-15.68 -37.79)"/><path class="cls-2" d="M408.37,37.79c4,0,7.53,3.24,7.53,11s-3.57,11-7.53,11-7.53-3.24-7.53-11S404.41,37.79,408.37,37.79Zm0,20.4c2,0,5.49-1.44,5.49-9.36s-3.45-9.36-5.49-9.36-5.49,1.44-5.49,9.36S406.33,58.19,408.37,58.19Z" transform="translate(-15.68 -37.79)"/><path class="cls-2" d="M425,37.79c4,0,7.53,3.24,7.53,11s-3.57,11-7.53,11-7.53-3.24-7.53-11S421.09,37.79,425,37.79Zm0,20.4c2,0,5.49-1.44,5.49-9.36s-3.45-9.36-5.49-9.36-5.49,1.44-5.49,9.36S423,58.19,425,58.19Z" transform="translate(-15.68 -37.79)"/><path class="cls-2" d="M437.74,41.42c1.74,0.09,4-.48,4-3.27h1.74V59.51h-1.8V42.17a7.57,7.57,0,0,1-4,.93V41.42Z" transform="translate(-15.68 -37.79)"/></svg>