<?xml version="1.0" standalone="no"?>
<!DOCTYPE svg PUBLIC "-//W3C//DTD SVG 1.1//EN" "http://www.w3.org/Graphics/SVG/1.1/DTD/svg11.dtd" >
<svg xmlns="http://www.w3.org/2000/svg" width="100%" height="100%">
<metadata>
Created by FontXChange 20110222 at Tue Jul  4 12:28:08 2017
 By Creative4
Copyright (c) 2014 by Typesketchbook. All rights reserved.
</metadata>
<defs>
<font id="Noyh-Black" horiz-adv-x="270" >
  <font-face 
    font-family="Noyh"
    font-weight="900"
    font-stretch="normal"
    units-per-em="1000"
    panose-1="2 0 0 0 0 0 0 0 0 0"
    ascent="750"
    descent="-250"
    x-height="400"
    cap-height="568"
    bbox="-56.16 -262 1196 895"
    underline-thickness="35"
    underline-position="-74"
    stemh="122"
    stemv="109"
    unicode-range="U+0020-FB02"
  />
<missing-glyph horiz-adv-x="569" 
d="M539 0h-509v628h509v-628zM76 46v-11c0 6 -3 10 -8 11h8zM493 582v8c0 -5 3 -8 8 -8h-8zM493 46h8c-5 -1 -8 -4 -8 -9v9zM76 582h-8c4 0 7 3 8 8v-8zM76 582v-536h417v536h-417z" />
    <glyph glyph-name="fi" unicode="fi" horiz-adv-x="604" 
d="M537 379v-358c0 -12 -9 -21 -21 -21h-98c-13 0 -21 9 -21 21v253h-170v-253c0 -12 -9 -21 -21 -21h-98c-13 0 -21 9 -21 21v253h-51c-12 0 -21 8 -21 21v89c0 12 9 21 21 21h51v31c0 120 55 189 147 189h8c19 0 55 -5 84 -26c5 -3 15 -11 15 -20c0 -4 0 -14 -3 -19
l-22 -60c-4 -5 -4 -9 -15 -9c-4 0 -11 1 -14 2c-11 3 -16 4 -32 4c-25 0 -28 -26 -28 -61v-31h288c13 0 20 -6 21 -19c1 -1 1 -4 1 -7z" />
    <glyph glyph-name="fl" unicode="fl" horiz-adv-x="617" 
d="M87 405v31c0 120 55 189 147 189h8c19 0 55 -5 84 -26c5 -3 15 -11 15 -20c0 -4 0 -14 -3 -19l-22 -60c-4 -5 -4 -9 -15 -9c-4 0 -11 1 -14 2c-11 3 -16 4 -32 4c-25 0 -28 -26 -28 -61v-31h80c12 0 21 -9 21 -21v-89c0 -13 -9 -21 -21 -21h-80v-253
c0 -12 -9 -21 -21 -21h-98c-13 0 -21 9 -21 21v253h-51c-12 0 -21 8 -21 21v89c0 12 9 21 21 21h51zM551 547v-526c0 -12 -9 -21 -21 -21h-98c-13 0 -21 9 -21 21v526c0 12 8 21 21 21h98c12 0 21 -9 21 -21z" />
    <glyph glyph-name=".notdef" horiz-adv-x="569" 
d="M539 0h-509v628h509v-628zM76 46v-11c0 6 -3 10 -8 11h8zM493 582v8c0 -5 3 -8 8 -8h-8zM493 46h8c-5 -1 -8 -4 -8 -9v9zM76 582h-8c4 0 7 3 8 8v-8zM76 582v-536h417v536h-417z" />
    <glyph glyph-name="NULL" horiz-adv-x="0" 
 />
    <glyph glyph-name="nonmarkingreturn" horiz-adv-x="283" 
 />
    <glyph glyph-name="space" unicode=" " horiz-adv-x="199" 
 />
    <glyph glyph-name="exclam" unicode="!" horiz-adv-x="273" 
d="M67 65c0 39 31 70 70 70s70 -31 70 -70s-31 -70 -70 -70s-70 31 -70 70zM78 205l-13 342c0 12 9 21 21 21h100c13 0 22 -9 22 -21l-14 -342c-1 -12 -10 -21 -21 -21h-74c-14 0 -21 7 -21 21z" />
    <glyph glyph-name="quotedbl" unicode="&#x22;" horiz-adv-x="438" 
d="M200 546l-15 -173c-1 -11 -9 -20 -21 -20h-64c-14 0 -21 7 -21 20l-14 173c0 12 9 22 21 22h93c12 0 21 -10 21 -22zM373 546l-15 -173c-1 -11 -9 -20 -21 -20h-64c-14 0 -21 7 -21 20l-14 173c0 12 9 22 21 22h93c12 0 21 -10 21 -22z" />
    <glyph glyph-name="numbersign" unicode="#" horiz-adv-x="754" 
d="M632 442h35c15 0 22 -7 22 -22v-92c0 -12 -9 -21 -22 -21h-87c-11 -29 -12 -29 -23 -60h56c15 0 22 -7 22 -22v-92c0 -14 -7 -21 -22 -21h-106l-36 -95c-5 -8 -11 -17 -24 -17h-94c-12 0 -21 10 -21 22l34 90h-98l-35 -95c-5 -8 -12 -17 -24 -17h-93c-13 0 -22 10 -22 22
l34 90h-42c-14 0 -21 7 -21 21v92c0 15 7 22 21 22h93c11 29 12 29 23 60h-65c-13 0 -21 9 -21 21v92c0 15 7 22 21 22h116l40 109c4 8 12 17 25 17h93c12 0 21 -10 21 -22l-39 -104h97l41 109c4 8 11 17 24 17h94c13 0 21 -10 21 -22zM417 247l23 60h-98l-23 -60h98z" />
    <glyph glyph-name="dollar" unicode="$" horiz-adv-x="551" 
d="M486 156c0 -80 -74 -134 -147 -153v-68c0 -12 -9 -21 -22 -21h-85c-12 0 -21 9 -21 21v65c-44 7 -90 22 -135 49c-4 3 -11 12 -11 19c0 5 1 8 2 10l34 63c4 8 12 11 19 11c5 0 8 -1 11 -2c20 -12 70 -33 137 -33c33 0 78 14 78 38c0 68 -278 58 -278 249
c0 88 51 146 143 165v64c0 12 9 21 21 21h85c13 0 22 -9 22 -21v-65c45 -8 86 -23 107 -32c4 -3 9 -7 12 -18c0 -5 0 -8 -1 -11l-32 -74c-3 -7 -13 -14 -21 -14l-11 3c-24 8 -86 21 -115 21c-64 0 -70 -32 -70 -39c0 -69 278 -71 278 -248z" />
    <glyph glyph-name="percent" unicode="%" horiz-adv-x="909" 
d="M675 544l-286 -528c-5 -7 -15 -16 -28 -16h-102c-12 0 -21 9 -21 24l286 527c4 8 12 17 24 17h106c13 0 21 -9 21 -24zM215 373c23 0 41 20 41 47s-18 42 -41 42s-41 -15 -41 -42s18 -47 41 -47zM215 271c-81 0 -150 69 -150 149c0 83 69 148 150 148s150 -65 150 -148
c0 -80 -69 -149 -150 -149zM694 97c23 0 41 20 41 47s-18 42 -41 42s-41 -15 -41 -42s18 -47 41 -47zM694 -5c-81 0 -150 69 -150 149c0 83 69 148 150 148s150 -65 150 -148c0 -80 -69 -149 -150 -149z" />
    <glyph glyph-name="ampersand" unicode="&#x26;" horiz-adv-x="668" 
d="M268 119c15 0 33 9 52 28l-75 79c-19 -11 -40 -34 -40 -58c0 -46 40 -49 63 -49zM448 15l-43 44c-55 -55 -125 -64 -145 -64c-103 0 -195 66 -195 182c0 45 31 111 85 149c-23 41 -24 72 -24 99c0 80 59 150 204 150c69 0 113 -24 142 -41c4 -3 9 -7 12 -18
c0 -5 -1 -8 -2 -11l-32 -71c-3 -7 -12 -14 -20 -14c-5 0 -9 1 -12 3c-20 11 -56 20 -85 20c-62 0 -63 -37 -63 -44c0 -25 48 -76 132 -163l82 84c7 3 8 3 9 3c4 0 8 -1 11 -4l11 -11c8 -8 21 -22 44 -45c3 -4 6 -9 6 -16c0 -4 -1 -10 -5 -17l-73 -84l116 -122
c0 -15 -9 -24 -21 -24h-100c-19 0 -23 4 -34 15z" />
    <glyph glyph-name="quotesingle" unicode="'" horiz-adv-x="265" 
d="M200 546l-15 -173c-1 -11 -9 -20 -21 -20h-64c-14 0 -21 7 -21 20l-14 173c0 12 9 22 21 22h93c12 0 21 -10 21 -22z" />
    <glyph glyph-name="parenleft" unicode="(" horiz-adv-x="374" 
d="M65 265c0 136 30 302 102 440c1 12 9 18 22 18h98c12 0 21 -9 21 -24c-72 -135 -102 -301 -102 -434c0 -135 31 -275 103 -412c0 -15 -9 -24 -21 -24h-98c-13 0 -21 6 -22 18c-72 139 -103 281 -103 418z" />
    <glyph glyph-name="parenright" unicode=")" horiz-adv-x="374" 
d="M309 265c0 -137 -31 -279 -103 -418c-1 -12 -9 -18 -22 -18h-98c-12 0 -21 9 -21 24c72 137 103 277 103 412c0 133 -30 299 -102 434c0 15 9 24 21 24h98c13 0 21 -6 22 -18c72 -138 102 -304 102 -440z" />
    <glyph glyph-name="asterisk" unicode="*" horiz-adv-x="546" 
d="M229 568h88c13 0 21 -10 21 -22l-6 -111l83 45c2 1 5 2 10 2c7 0 15 -3 18 -11l36 -84c1 -4 2 -7 2 -10c0 -9 -4 -16 -13 -19l-97 -37l52 -71c2 -4 3 -8 3 -13c0 -7 -3 -13 -8 -16l-82 -49c-4 -2 -8 -3 -11 -3c-8 0 -14 4 -18 11l-34 69l-34 -69c-4 -7 -10 -11 -18 -11
c-3 0 -7 1 -11 3l-82 49c-5 3 -8 9 -8 16c0 5 1 9 3 13l52 71l-97 37c-9 3 -13 10 -13 19c0 3 1 6 2 10l36 84c3 8 11 11 18 11c5 0 8 -1 10 -2l83 -45l-6 111c0 12 8 22 21 22z" />
    <glyph glyph-name="plus" unicode="+" horiz-adv-x="480" 
d="M169 289v89c0 12 8 21 21 21h100c12 0 21 -9 21 -21v-89h83c12 0 21 -9 21 -21v-93c0 -13 -9 -21 -21 -21h-83v-88c0 -12 -9 -21 -21 -21h-100c-13 0 -21 9 -21 21v88h-83c-12 0 -21 8 -21 21v93c0 12 9 21 21 21h83z" />
    <glyph glyph-name="comma" unicode="," horiz-adv-x="282" 
d="M65 -56l26 65c-13 13 -24 31 -24 54c0 43 32 75 76 75c40 0 74 -32 74 -75c0 -11 -4 -24 -8 -33l-47 -93c-5 -9 -12 -13 -21 -13h-61c-10 0 -15 7 -15 20z" />
    <glyph glyph-name="hyphen" unicode="-" horiz-adv-x="460" 
d="M395 238v-77c0 -12 -8 -21 -21 -21h-288c-12 0 -21 9 -21 21v77c0 12 9 21 21 21h288c13 0 21 -9 21 -21z" />
    <glyph glyph-name="period" unicode="." horiz-adv-x="280" 
d="M65 70c0 41 34 75 75 75s75 -34 75 -75s-34 -75 -75 -75s-75 34 -75 75z" />
    <glyph glyph-name="slash" unicode="/" horiz-adv-x="543" 
d="M478 635l-277 -738c-5 -11 -15 -23 -32 -23h-74c-19 0 -30 14 -30 33l278 740c7 11 15 21 31 21h74c19 0 30 -14 30 -33z" />
    <glyph glyph-name="zero" unicode="0" horiz-adv-x="588" 
d="M293 117c85 0 115 78 115 165s-30 161 -115 161c-83 0 -113 -74 -113 -161s30 -165 113 -165zM294 -5c-160 0 -254 130 -254 290s94 290 254 290s254 -130 254 -290s-94 -290 -254 -290z" />
    <glyph glyph-name="one" unicode="1" horiz-adv-x="395" 
d="M52 464c92 23 165 65 238 100c6 3 12 4 19 4c11 0 18 -6 21 -17v-530c0 -12 -9 -21 -21 -21h-98c-13 0 -21 9 -21 21v353c-48 -27 -110 -33 -136 -33c-17 0 -29 15 -29 30v63c0 17 12 27 27 30z" />
    <glyph glyph-name="two" unicode="2" horiz-adv-x="518" 
d="M66 526c31 19 104 49 171 49c144 0 225 -64 225 -171c0 -136 -127 -195 -205 -273h185c12 0 21 -9 21 -21v-89c0 -13 -9 -21 -21 -21h-364c-12 0 -21 8 -21 21v51c0 133 261 238 261 327c0 7 0 44 -83 44c-32 0 -78 -15 -114 -30c-3 -2 -7 -3 -11 -3c-8 0 -17 8 -20 15
l-33 72c-1 3 -2 6 -2 11c4 12 7 15 11 18z" />
    <glyph glyph-name="three" unicode="3" horiz-adv-x="494" 
d="M45 59c-3 4 -5 9 -5 14s1 8 3 11l39 65c3 3 8 5 13 5c2 0 5 -1 9 -2c29 -16 84 -35 121 -35c59 0 79 33 79 78c0 43 -46 55 -85 55c-9 0 -37 0 -49 -3c-9 0 -17 9 -17 17l80 169h-171c-12 0 -21 8 -21 21v93c0 12 9 21 21 21h362c11 0 20 -8 20 -19c0 -3 -1 -6 -2 -9
l-95 -195c71 -24 97 -78 97 -149c0 -116 -68 -201 -220 -201c-53 0 -142 27 -179 64z" />
    <glyph glyph-name="four" unicode="4" horiz-adv-x="527" 
d="M297 253v106l-75 -106h75zM437 253h44c12 0 21 -9 21 -21v-93c0 -13 -9 -21 -21 -21h-44v-97c0 -12 -9 -21 -21 -21h-98c-13 0 -21 9 -21 21v97h-221c-19 0 -31 11 -31 30v68c0 15 11 30 18 41l200 293c5 11 11 18 26 18h127c12 0 21 -9 21 -21v-294z" />
    <glyph glyph-name="five" unicode="5" horiz-adv-x="499" 
d="M55 144c0 15 9 23 21 23h88c12 0 21 -4 29 -19c13 -23 39 -31 66 -31c35 0 76 13 76 68c0 33 -22 61 -73 61c-27 0 -45 -5 -57 -12c-11 -8 -31 -11 -43 -11c-3 0 -16 0 -76 5c-13 5 -20 11 -20 20v299c0 12 9 21 21 21h333c12 0 21 -9 21 -21v-93c0 -13 -9 -21 -21 -21
h-214v-67c25 9 51 12 70 12c113 0 199 -77 199 -193c0 -115 -101 -190 -213 -190c-104 0 -191 45 -207 149z" />
    <glyph glyph-name="six" unicode="6" horiz-adv-x="533" 
d="M266 269c-40 0 -81 -27 -81 -70c0 -53 37 -81 81 -81s82 28 82 81c0 43 -43 70 -82 70zM363 544l-79 -146c107 -11 204 -86 204 -194c0 -139 -107 -209 -223 -209c-114 0 -220 70 -220 209c0 28 10 68 22 89l140 255c8 15 20 20 32 20h103c13 0 21 -9 21 -24z" />
    <glyph glyph-name="seven" unicode="7" horiz-adv-x="487" 
d="M93 26l177 407h-219c-12 0 -21 8 -21 21v93c0 12 9 21 21 21h396c11 0 20 -7 20 -19c0 -4 -1 -7 -2 -9l-221 -518c-5 -12 -13 -22 -32 -22h-95c-15 0 -24 10 -24 26z" />
    <glyph glyph-name="eight" unicode="8" horiz-adv-x="532" 
d="M266 117c28 0 81 9 81 57c0 43 -45 60 -82 60c-35 0 -80 -17 -80 -60c0 -48 53 -57 81 -57zM266 348c35 0 62 12 62 49c0 35 -28 46 -63 46c-32 0 -61 -11 -61 -46c0 -37 27 -49 62 -49zM265 -5c-112 0 -220 59 -220 175c0 47 24 96 72 124c-32 25 -53 70 -53 113
c0 109 73 168 202 168s202 -59 202 -168c0 -43 -21 -88 -53 -113c48 -28 72 -77 72 -124c0 -116 -107 -175 -222 -175z" />
    <glyph glyph-name="nine" unicode="9" horiz-adv-x="533" 
d="M267 299c40 0 81 28 81 72s-37 72 -81 72s-82 -28 -82 -72s43 -72 82 -72zM169 24l80 148c-107 11 -204 86 -204 194c0 139 107 209 223 209c114 0 220 -70 220 -209c0 -28 -10 -68 -22 -89l-141 -257c-8 -15 -20 -20 -32 -20h-103c-13 0 -21 9 -21 24z" />
    <glyph glyph-name="colon" unicode=":" horiz-adv-x="280" 
d="M65 322c0 41 34 75 75 75s75 -34 75 -75s-34 -75 -75 -75s-75 34 -75 75zM65 70c0 41 34 75 75 75s75 -34 75 -75s-34 -75 -75 -75s-75 34 -75 75z" />
    <glyph glyph-name="semicolon" unicode=";" horiz-adv-x="282" 
d="M65 -56l26 65c-13 13 -24 31 -24 54c0 43 32 75 76 75c40 0 74 -32 74 -75c0 -11 -4 -24 -8 -33l-47 -93c-5 -9 -12 -13 -21 -13h-61c-10 0 -15 7 -15 20zM67 322c0 41 34 75 75 75s75 -34 75 -75s-34 -75 -75 -75s-75 34 -75 75z" />
    <glyph glyph-name="less" unicode="&#x3c;" horiz-adv-x="446" 
d="M363 300l-164 -82l172 -86c5 -3 10 -4 10 -16v-100c0 -12 -10 -21 -23 -21l-284 143c-6 4 -9 10 -9 17v127c0 7 3 13 9 16l284 143c13 0 23 -8 23 -21v-99c0 -13 -7 -14 -18 -21z" />
    <glyph glyph-name="equal" unicode="=" horiz-adv-x="390" 
d="M325 137v-60c0 -19 -10 -29 -30 -29h-200c-17 0 -30 10 -30 29v60c0 19 13 30 30 30h200c19 0 30 -11 30 -30zM325 324v-60c0 -19 -10 -29 -30 -29h-200c-17 0 -30 10 -30 29v60c0 19 13 30 30 30h200c19 0 30 -11 30 -30z" />
    <glyph glyph-name="greater" unicode="&#x3e;" horiz-adv-x="446" 
d="M247 218l-164 82c-11 7 -18 8 -18 21v99c0 13 10 21 23 21l284 -143c6 -3 9 -9 9 -16v-127c0 -7 -3 -13 -9 -17l-284 -143c-13 0 -23 9 -23 21v100c0 12 5 13 10 16z" />
    <glyph glyph-name="question" unicode="?" horiz-adv-x="484" 
d="M77 531c29 20 88 44 155 44c98 0 187 -41 187 -153c0 -86 -112 -135 -112 -206v-14c0 -12 -9 -21 -21 -21h-98c-13 0 -21 9 -21 21v32c0 99 112 145 112 187c0 15 -22 22 -49 22c-32 0 -78 -15 -98 -26c-3 -2 -7 -3 -11 -3c-7 0 -17 7 -20 14l-34 74c-1 3 -2 6 -2 11
c4 11 8 15 12 18zM162 70c0 41 34 75 75 75s75 -34 75 -75s-34 -75 -75 -75s-75 34 -75 75z" />
    <glyph glyph-name="at" unicode="@" horiz-adv-x="935" 
d="M543 377h86c14 0 21 -7 21 -22v-252c9 -3 24 -5 39 -5c21 0 61 12 61 111c0 85 -54 240 -282 240s-283 -156 -283 -242c0 -126 26 -289 343 -289c40 0 95 10 202 45c16 0 24 -11 24 -22v-72c0 -12 -8 -18 -19 -21c-48 -24 -151 -37 -200 -37c-225 0 -470 56 -470 396
c0 148 91 361 406 361c314 0 399 -213 399 -361c0 -93 -50 -218 -180 -218c-39 0 -80 0 -131 44c-36 -33 -78 -38 -106 -38c-99 0 -195 54 -195 191c0 115 59 190 156 190c32 0 79 -10 108 -47v26c0 13 9 22 21 22zM451 103c45 0 71 18 71 79c0 52 -26 73 -71 73
c-43 0 -65 -21 -65 -73c0 -61 22 -79 65 -79z" />
    <glyph glyph-name="A" unicode="A" horiz-adv-x="604" 
d="M258 219h86l-42 87zM397 103h-190l-40 -86c-5 -8 -12 -17 -24 -17h-107c-12 0 -21 10 -21 23l258 533c7 8 17 15 29 15s22 -7 29 -15l258 -533c0 -13 -9 -23 -21 -23h-107c-12 0 -19 9 -24 17z" />
    <glyph glyph-name="B" unicode="B" horiz-adv-x="549" 
d="M205 433v-87h117c24 0 42 20 42 43s-18 44 -42 44h-117zM205 132h116c24 0 43 23 43 46c0 17 -10 40 -25 40h-134v-86zM326 0h-240c-12 0 -21 9 -21 21v526c0 12 9 21 21 21h240c99 0 178 -77 178 -177c0 -41 -13 -80 -57 -109c39 -31 57 -67 57 -106
c0 -99 -79 -176 -178 -176z" />
    <glyph glyph-name="C" unicode="C" horiz-adv-x="577" 
d="M540 77c-53 -64 -126 -82 -215 -82c-161 0 -285 130 -285 290s127 290 290 290c80 0 156 -28 212 -83c3 -5 5 -11 5 -16c0 -6 -2 -11 -6 -15l-61 -54c-4 -4 -9 -6 -14 -6c-6 0 -12 2 -19 6c-31 27 -75 36 -118 36c-86 0 -149 -74 -149 -161s69 -165 150 -165
c55 0 73 1 129 41c5 5 11 8 18 8c5 0 9 -2 14 -5l48 -53c3 -3 7 -8 7 -15c0 -5 -2 -11 -6 -16z" />
    <glyph glyph-name="D" unicode="D" horiz-adv-x="574" 
d="M276 0h-190c-12 0 -21 9 -21 21v526c0 12 9 21 21 21h190c160 0 273 -126 273 -286s-113 -282 -273 -282zM205 132h57c85 0 147 62 147 147s-62 154 -147 154h-57v-301z" />
    <glyph glyph-name="E" unicode="E" horiz-adv-x="520" 
d="M205 347h192c12 0 21 -9 21 -21v-90c0 -13 -9 -21 -21 -21h-192v-83h244c12 0 21 -9 21 -21v-90c0 -13 -9 -21 -21 -21h-363c-12 0 -21 9 -21 21v526c0 12 9 21 21 21h363c12 0 21 -9 21 -21v-93c0 -13 -9 -21 -21 -21h-244v-86z" />
    <glyph glyph-name="F" unicode="F" horiz-adv-x="480" 
d="M205 215v-194c0 -12 -9 -21 -21 -21h-98c-13 0 -21 9 -21 21v526c0 12 9 21 21 21h363c12 0 21 -9 21 -21v-93c0 -13 -9 -21 -21 -21h-244v-86h192c12 0 21 -9 21 -21v-90c0 -13 -9 -21 -21 -21h-192z" />
    <glyph glyph-name="G" unicode="G" horiz-adv-x="626" 
d="M566 304v-283c0 -12 -9 -21 -21 -21h-32c-17 0 -20 3 -25 10l-14 27c-43 -32 -89 -42 -149 -42c-161 0 -285 130 -285 290s127 290 290 290c80 0 156 -28 212 -83c3 -5 5 -11 5 -16c0 -6 -2 -11 -6 -15l-61 -54c-4 -4 -9 -6 -14 -6c-6 0 -12 2 -19 6
c-31 27 -75 36 -118 36c-86 0 -149 -74 -149 -161s69 -165 150 -165c40 0 61 0 92 16v73h-86c-12 0 -21 9 -21 21v77c0 13 9 21 21 21h209c12 0 21 -8 21 -21z" />
    <glyph glyph-name="H" unicode="H" horiz-adv-x="586" 
d="M521 547v-526c0 -12 -9 -21 -21 -21h-98c-13 0 -21 9 -21 21v189h-176v-189c0 -12 -9 -21 -21 -21h-98c-13 0 -21 9 -21 21v526c0 12 8 21 21 21h98c12 0 21 -9 21 -21v-205h176v205c0 12 8 21 21 21h98c12 0 21 -9 21 -21z" />
    <glyph glyph-name="I" unicode="I" 
d="M205 547v-526c0 -12 -9 -21 -21 -21h-98c-13 0 -21 9 -21 21v526c0 12 8 21 21 21h98c12 0 21 -9 21 -21z" />
    <glyph glyph-name="J" unicode="J" horiz-adv-x="469" 
d="M89 150c31 -25 66 -33 106 -33c60 0 79 30 79 144v286c0 12 8 21 21 21h98c12 0 21 -9 21 -21v-289c0 -200 -59 -263 -220 -263c-76 0 -128 19 -175 58c-5 5 -8 11 -8 18c0 5 2 9 5 12l43 62c6 6 12 9 18 9c4 0 7 0 12 -4z" />
    <glyph glyph-name="K" unicode="K" horiz-adv-x="593" 
d="M418 17l-141 228l-72 -76v-148c0 -12 -9 -21 -21 -21h-98c-13 0 -21 9 -21 21v526c0 12 8 21 21 21h98c12 0 21 -9 21 -21v-168l162 172c15 12 20 17 48 17h114c15 0 24 -10 24 -26l-178 -187l203 -329c0 -16 -9 -26 -24 -26h-88c-28 0 -33 5 -48 17z" />
    <glyph glyph-name="L" unicode="L" horiz-adv-x="509" 
d="M65 21v526c0 12 8 21 21 21h98c12 0 21 -9 21 -21v-416h244c12 0 21 -9 21 -21v-89c0 -13 -9 -21 -21 -21h-363c-13 0 -21 9 -21 21z" />
    <glyph glyph-name="M" unicode="M" horiz-adv-x="676" 
d="M338 140c-7 0 -8 2 -15 9l-118 121v-240c0 -17 -11 -30 -30 -30h-80c-19 0 -30 13 -30 30v527c7 11 9 14 20 14c9 0 13 -4 18 -11l224 -223c5 -5 8 -8 11 -8s6 3 11 8l224 223c5 7 9 11 18 11c11 0 13 -3 20 -14v-527c0 -17 -11 -30 -30 -30h-80c-19 0 -30 13 -30 30v240
l-118 -121c-7 -7 -8 -9 -15 -9z" />
    <glyph glyph-name="N" unicode="N" horiz-adv-x="625" 
d="M65 21v533c0 13 9 20 26 20l329 -212v176c0 17 11 30 30 30h80c17 0 30 -13 30 -30v-517c0 -12 -9 -21 -21 -21h-98c-13 0 -21 9 -21 21v173l-215 141v-314c0 -12 -9 -21 -21 -21h-98c-13 0 -21 9 -21 21z" />
    <glyph glyph-name="O" unicode="O" horiz-adv-x="656" 
d="M327 117c87 0 149 78 149 165s-62 161 -149 161c-85 0 -147 -74 -147 -161s62 -165 147 -165zM328 -5c-160 0 -288 130 -288 290s128 290 288 290s288 -130 288 -290s-128 -290 -288 -290z" />
    <glyph glyph-name="P" unicode="P" horiz-adv-x="517" 
d="M205 313h113c24 0 44 19 44 58s-20 56 -44 56h-113v-114zM65 21v526c0 12 8 21 21 21h239c98 0 177 -78 177 -196s-79 -194 -177 -194h-120v-157c0 -12 -9 -21 -21 -21h-98c-13 0 -21 9 -21 21z" />
    <glyph glyph-name="Q" unicode="Q" horiz-adv-x="656" 
d="M616 285c0 -142 -99 -257 -231 -284c7 -15 15 -27 32 -27c16 0 22 0 30 1c7 1 11 1 15 1c7 0 12 -2 15 -9l23 -53c0 -3 0 -12 -4 -17c-28 -16 -62 -22 -93 -22c-71 0 -128 28 -139 127c-128 29 -224 144 -224 283c0 160 128 290 288 290s288 -130 288 -290zM327 117
c87 0 149 78 149 165s-62 161 -149 161c-85 0 -147 -74 -147 -161s62 -165 147 -165z" />
    <glyph glyph-name="R" unicode="R" horiz-adv-x="552" 
d="M205 313h122c23 0 41 24 41 59c0 40 -18 55 -41 55h-122v-114zM366 22l-75 158h-86v-159c0 -12 -9 -21 -21 -21h-98c-13 0 -21 9 -21 21v526c0 12 8 21 21 21h249c99 0 176 -78 176 -187c0 -75 -33 -133 -89 -164l95 -191c0 -16 -9 -26 -24 -26h-95c-19 0 -28 10 -32 22z
" />
    <glyph glyph-name="S" unicode="S" horiz-adv-x="508" 
d="M61 49c-4 3 -11 12 -11 19c0 5 1 8 2 10l34 63c4 8 12 11 19 11c5 0 8 -1 11 -2c20 -12 70 -33 137 -33c33 0 78 14 78 38c0 68 -278 58 -278 249c0 107 74 171 207 171c64 0 139 -26 171 -39c4 -3 9 -7 12 -18c0 -5 0 -8 -1 -11l-32 -74c-3 -7 -13 -14 -21 -14l-11 3
c-24 8 -86 21 -115 21c-64 0 -70 -32 -70 -39c0 -69 278 -71 278 -248c0 -104 -120 -161 -204 -161c-65 0 -137 11 -206 54z" />
    <glyph glyph-name="T" unicode="T" horiz-adv-x="468" 
d="M46 568h376c12 0 21 -9 21 -21v-93c0 -13 -9 -21 -21 -21h-118v-412c0 -12 -9 -21 -21 -21h-98c-13 0 -21 9 -21 21v412h-118c-12 0 -21 8 -21 21v93c0 12 9 21 21 21z" />
    <glyph glyph-name="U" unicode="U" horiz-adv-x="616" 
d="M307 -5c-161 0 -242 101 -242 258v294c0 12 8 21 21 21h98c12 0 21 -9 21 -21v-299c0 -95 28 -131 103 -131s103 36 103 131v299c0 12 9 21 21 21h98c13 0 21 -9 21 -21v-294c0 -157 -80 -258 -244 -258z" />
    <glyph glyph-name="V" unicode="V" horiz-adv-x="604" 
d="M302 262l135 289c5 8 12 17 24 17h107c12 0 21 -10 21 -23l-258 -533c-7 -8 -17 -15 -29 -15s-22 7 -29 15l-258 533c0 13 9 23 21 23h107c12 0 19 -9 24 -17z" />
    <glyph glyph-name="W" unicode="W" horiz-adv-x="746" 
d="M374 265c-5 0 -6 -1 -11 -9l-121 -247c-6 -7 -13 -11 -22 -11c-7 0 -15 4 -22 11l-183 533c0 16 9 26 24 26h92c19 0 28 -10 32 -22l80 -240l103 225c7 12 20 15 27 15s20 -3 27 -15l103 -225l80 240c4 12 13 22 32 22h92c15 0 24 -10 24 -26l-183 -533
c-7 -7 -13 -11 -22 -11s-16 4 -22 11l-121 247c-5 8 -6 9 -9 9z" />
    <glyph glyph-name="X" unicode="X" horiz-adv-x="550" 
d="M377 22l-102 156l-102 -156c-8 -13 -13 -22 -32 -22h-102c-15 0 -24 10 -24 26l164 261l-164 255c0 16 9 26 24 26h102c19 0 24 -9 32 -22l102 -158l102 158c8 13 13 22 32 22h102c15 0 24 -10 24 -26l-164 -255l164 -261c0 -16 -9 -26 -24 -26h-102c-19 0 -24 9 -32 22z
" />
    <glyph glyph-name="Y" unicode="Y" horiz-adv-x="568" 
d="M553 542l-199 -330v-191c0 -12 -9 -21 -21 -21h-98c-13 0 -21 9 -21 21v191l-199 330c0 16 9 26 24 26h95c19 0 28 -10 32 -22l118 -193l118 193c4 12 13 22 32 22h95c15 0 24 -10 24 -26z" />
    <glyph glyph-name="Z" unicode="Z" horiz-adv-x="495" 
d="M444 0h-399c-11 0 -20 7 -20 19c0 4 1 7 2 9l224 405h-204c-12 0 -21 8 -21 21v93c0 12 9 21 21 21h403c11 0 20 -7 20 -19c0 -4 -1 -7 -2 -9l-225 -410h201c12 0 21 -9 21 -21v-87c0 -13 -9 -21 -21 -22z" />
    <glyph glyph-name="bracketleft" unicode="[" horiz-adv-x="371" 
d="M306 684v-68c0 -19 -11 -30 -30 -30h-77v-629h77c19 0 30 -12 30 -31v-67c0 -19 -11 -30 -30 -30h-181c-17 0 -30 11 -30 30v825c0 19 13 30 30 30h181c19 0 30 -11 30 -30z" />
    <glyph glyph-name="backslash" unicode="\" horiz-adv-x="543" 
d="M342 -103l-277 738c0 19 11 33 30 33h74c16 0 24 -10 31 -21l278 -740c0 -19 -11 -33 -30 -33h-74c-17 0 -27 12 -32 23z" />
    <glyph glyph-name="bracketright" unicode="]" horiz-adv-x="371" 
d="M65 616v68c0 19 11 30 30 30h181c17 0 30 -11 30 -30v-825c0 -19 -13 -30 -30 -30h-181c-19 0 -30 11 -30 30v67c0 19 11 31 30 31h77v629h-77c-19 0 -30 11 -30 30z" />
    <glyph glyph-name="asciicircum" unicode="^" horiz-adv-x="460" 
d="M181 568h98c13 0 24 -9 29 -18l87 -168c0 -23 -11 -36 -30 -36h-74c-15 0 -28 8 -32 20l-29 62l-29 -62c-4 -12 -17 -20 -32 -20h-74c-19 0 -30 13 -30 36l87 168c5 9 16 18 29 18z" />
    <glyph glyph-name="underscore" unicode="_" horiz-adv-x="460" 
d="M374 -123h-288c-12 0 -21 8 -21 21v76c0 12 9 21 21 21h295c12 0 14 -9 14 -21v-76c0 -13 -9 -21 -21 -21z" />
    <glyph glyph-name="grave" unicode="`" horiz-adv-x="342" 
d="M215 548l62 -171c0 -12 -9 -21 -21 -21h-62c-11 0 -21 8 -26 15l-103 173c0 15 9 24 21 24h108c11 0 20 -9 21 -20z" />
    <glyph glyph-name="a" unicode="a" horiz-adv-x="445" 
d="M208 107c5 0 24 2 37 13v24c-7 7 -21 14 -37 14c-29 0 -44 -8 -44 -25c0 -19 17 -26 44 -26zM275 20l-5 21c-34 -44 -93 -46 -102 -46c-28 0 -133 10 -133 133c0 78 56 110 131 110c20 0 56 -3 79 -15c-9 41 -27 50 -64 50c-12 0 -39 1 -62 -6c-7 -1 -9 -1 -12 -1
c-11 0 -21 3 -26 14l-22 62c-1 5 -2 10 -2 15c0 10 4 18 12 23c61 24 93 25 129 25c129 0 187 -71 187 -183v-201c0 -12 -9 -21 -21 -21h-60c-17 0 -22 4 -29 20z" />
    <glyph glyph-name="b" unicode="b" horiz-adv-x="505" 
d="M272 117c35 0 63 35 63 84c0 44 -29 72 -64 72c-37 0 -66 -28 -66 -72c0 -51 28 -84 67 -84zM180 41l-5 -21c-7 -16 -12 -20 -29 -20h-60c-12 0 -21 9 -21 21v526c0 12 8 21 21 21h98c12 0 21 -9 21 -21v-169c32 27 81 27 95 27c91 0 175 -91 175 -203
s-79 -207 -186 -207c-35 0 -76 5 -109 46z" />
    <glyph glyph-name="c" unicode="c" horiz-adv-x="418" 
d="M246 117c17 0 35 2 56 17c9 6 17 9 24 9s14 -3 18 -8l39 -41c4 -5 10 -14 10 -22c0 -7 -2 -14 -6 -21c-44 -47 -97 -56 -148 -56c-115 0 -209 95 -209 207s94 203 209 203c51 0 106 -17 145 -53c4 -7 6 -17 6 -20c0 -9 -5 -17 -9 -21l-41 -52c-7 -5 -15 -7 -18 -7h-6
c-6 2 -10 3 -11 4l-2 1c-15 7 -37 16 -65 16c-37 0 -68 -27 -68 -72s32 -84 76 -84z" />
    <glyph glyph-name="d" unicode="d" horiz-adv-x="505" 
d="M233 117c39 0 67 33 67 84c0 44 -29 72 -66 72c-35 0 -64 -28 -64 -72c0 -49 28 -84 63 -84zM330 20l-5 21c-33 -41 -74 -46 -109 -46c-107 0 -186 95 -186 207s84 203 175 203c14 0 63 0 95 -27v169c0 12 9 21 21 21h98c13 0 21 -9 21 -21v-526c0 -12 -9 -21 -21 -21
h-60c-17 0 -22 4 -29 20z" />
    <glyph glyph-name="e" unicode="e" horiz-adv-x="449" 
d="M419 213v-33c0 -12 -9 -21 -21 -21h-225c8 -44 52 -49 79 -49c32 0 60 1 95 17c1 1 3 1 5 1c5 0 9 -2 13 -7l27 -45c3 -5 5 -9 5 -14c0 -7 -2 -12 -5 -17c-27 -37 -88 -50 -140 -50c-112 0 -222 56 -222 209c0 111 58 201 195 201c109 0 194 -64 194 -192zM227 281
c-20 0 -47 -2 -55 -45h107c-5 40 -37 45 -52 45z" />
    <glyph glyph-name="f" unicode="f" horiz-adv-x="346" 
d="M87 405v31c0 120 55 189 147 189h8c19 0 55 -5 84 -26c5 -3 15 -11 15 -20c0 -4 0 -14 -3 -19l-22 -60c-4 -5 -4 -9 -15 -9c-4 0 -11 1 -14 2c-11 3 -16 4 -32 4c-25 0 -28 -26 -28 -61v-31h80c12 0 21 -9 21 -21v-89c0 -13 -9 -21 -21 -21h-80v-253
c0 -12 -9 -21 -21 -21h-98c-13 0 -21 9 -21 21v253h-51c-12 0 -21 8 -21 21v89c0 12 9 21 21 21h51z" />
    <glyph glyph-name="g" unicode="g" horiz-adv-x="505" 
d="M234 117c36 0 66 29 66 84c0 44 -31 72 -66 72c-36 0 -64 -28 -64 -72c0 -53 28 -84 64 -84zM143 -50c31 -25 71 -26 96 -26c49 0 61 23 61 58v30c-31 -17 -62 -17 -85 -17c-107 0 -185 95 -185 207s82 203 191 203c33 0 77 -6 116 -34l2 9c7 16 12 20 29 20h51
c12 0 21 -9 21 -21v-381c0 -143 -100 -196 -191 -196c-75 0 -122 15 -167 54c-5 5 -8 11 -8 18c0 5 1 9 3 13l35 60c5 5 10 7 15 7c4 0 13 -1 16 -4z" />
    <glyph glyph-name="h" unicode="h" horiz-adv-x="497" 
d="M65 21v526c0 12 9 21 21 21h98c13 0 21 -9 21 -21v-164c27 20 57 22 78 22c116 0 159 -86 159 -181v-203c0 -12 -8 -21 -21 -21h-98c-12 0 -21 9 -21 21v189c0 35 -3 63 -51 63c-33 0 -46 -28 -46 -63v-189c0 -12 -8 -21 -21 -21h-98c-12 0 -21 9 -21 21z" />
    <glyph glyph-name="i" unicode="i" horiz-adv-x="258" 
d="M191 379v-358c0 -12 -9 -21 -21 -21h-98c-13 0 -21 9 -21 21v358c0 12 8 21 21 21h98c12 0 21 -9 21 -21zM43 521c0 43 35 78 78 78s78 -35 78 -78s-35 -78 -78 -78s-78 35 -78 78z" />
    <glyph glyph-name="j" unicode="j" horiz-adv-x="258" 
d="M47 521c0 43 35 78 78 78s78 -35 78 -78s-35 -78 -78 -78s-78 35 -78 78zM-56 -146c0 3 -1 4 2 11l21 61c3 4 5 7 13 7c27 -9 33 -9 50 -9c21 0 25 10 25 65v390c0 12 8 21 21 21h98c12 0 21 -9 21 -21v-394c0 -148 -50 -183 -148 -183c-21 0 -103 12 -103 52z" />
    <glyph glyph-name="k" unicode="k" horiz-adv-x="464" 
d="M449 376l-130 -173l129 -179c0 -15 -8 -24 -21 -24h-114c-15 0 -28 7 -32 18l-76 107v-104c0 -12 -9 -21 -21 -21h-98c-13 0 -21 9 -21 21v526c0 12 8 21 21 21h98c12 0 21 -9 21 -21v-265l76 99c9 11 17 19 32 19h115c13 0 21 -9 21 -24z" />
    <glyph glyph-name="l" unicode="l" 
d="M205 547v-526c0 -12 -9 -21 -21 -21h-98c-13 0 -21 9 -21 21v526c0 12 8 21 21 21h98c12 0 21 -9 21 -21z" />
    <glyph glyph-name="m" unicode="m" horiz-adv-x="673" 
d="M478 21v208c0 32 -19 44 -36 44c-13 0 -34 -9 -37 -24c1 -8 1 -14 1 -21v-207c0 -12 -9 -21 -21 -21h-85c-13 0 -21 9 -21 21v195c0 35 -17 57 -36 57c-24 0 -38 -22 -38 -57v-195c0 -12 -9 -21 -21 -21h-98c-13 0 -21 9 -21 21v358c0 12 8 21 21 21h70
c12 0 21 -9 21 -21v-17c23 32 58 43 93 43c31 0 68 -12 93 -45c31 35 75 45 110 45c96 0 145 -75 145 -173v-211c0 -12 -9 -21 -21 -21h-98c-13 0 -21 9 -21 21z" />
    <glyph glyph-name="n" unicode="n" horiz-adv-x="497" 
d="M86 400h51c17 0 22 -4 29 -20l5 -21c27 37 79 46 112 46c116 0 159 -86 159 -181v-203c0 -12 -8 -21 -21 -21h-98c-12 0 -21 9 -21 21v189c0 35 -3 63 -51 63c-33 0 -46 -28 -46 -63v-189c0 -12 -8 -21 -21 -21h-98c-12 0 -21 9 -21 21v358c0 12 9 21 21 21z" />
    <glyph glyph-name="o" unicode="o" horiz-adv-x="477" 
d="M237 117c39 0 70 35 70 78c0 45 -31 78 -70 78c-37 0 -67 -33 -67 -78c0 -43 30 -78 67 -78zM238 -5c-113 0 -208 90 -208 201c0 112 95 209 208 209c112 0 209 -97 209 -209c0 -111 -97 -201 -209 -201z" />
    <glyph glyph-name="p" unicode="p" horiz-adv-x="505" 
d="M271 117c36 0 64 31 64 84c0 44 -28 72 -64 72c-35 0 -66 -28 -66 -72c0 -55 30 -84 66 -84zM166 380l2 -9c39 28 83 34 116 34c109 0 191 -91 191 -203s-79 -207 -185 -207c-23 0 -54 0 -85 17v-162c0 -12 -8 -21 -21 -21h-98c-12 0 -21 9 -21 21v529c0 12 9 21 21 21
h51c17 0 22 -4 29 -20z" />
    <glyph glyph-name="q" unicode="q" horiz-adv-x="505" 
d="M234 117c36 0 66 29 66 84c0 44 -31 72 -66 72c-36 0 -64 -28 -64 -72c0 -53 28 -84 64 -84zM337 371l2 9c7 16 12 20 29 20h51c12 0 21 -9 21 -21v-529c0 -12 -9 -21 -21 -21h-98c-13 0 -21 9 -21 21v162c-31 -17 -62 -17 -85 -17c-107 0 -185 95 -185 207
s82 203 191 203c33 0 77 -6 116 -34z" />
    <glyph glyph-name="r" unicode="r" horiz-adv-x="331" 
d="M305 274h-35c-51 0 -65 -30 -65 -62v-191c0 -12 -9 -21 -21 -21h-98c-13 0 -21 9 -21 21v358c0 12 8 21 21 21h70c12 0 21 -9 21 -21v-17c25 32 62 40 90 43h38c12 0 21 -9 21 -21v-89c0 -13 -9 -21 -21 -21z" />
    <glyph glyph-name="s" unicode="s" horiz-adv-x="409" 
d="M86 135c10 -7 68 -25 112 -25c15 0 35 2 35 13c0 35 -191 39 -191 155c0 87 78 127 171 127c48 0 98 -17 120 -25c4 -2 8 -6 12 -13c0 -3 0 -7 -1 -10l-17 -71c-3 -7 -5 -11 -21 -11c-7 0 -39 11 -75 11c-37 0 -47 -2 -47 -15c0 -32 189 -53 189 -149
c0 -103 -94 -127 -174 -127c-47 0 -98 10 -149 42c-4 3 -10 9 -10 17c1 0 -1 6 20 70c4 9 12 13 17 13c3 0 6 -1 9 -2z" />
    <glyph glyph-name="t" unicode="t" horiz-adv-x="359" 
d="M312 8c-28 -11 -46 -13 -77 -13c-91 0 -143 37 -143 174v105h-51c-12 0 -21 8 -21 21v89c0 12 9 21 21 21h51v142c0 12 8 21 21 21h98c12 0 21 -9 21 -21v-142h69c12 0 21 -9 21 -21v-89c0 -13 -9 -21 -21 -21h-69v-92c0 -39 4 -65 32 -65c16 0 10 2 23 2c2 1 5 1 8 1
c8 0 17 -7 20 -15l12 -70c1 -3 1 -5 1 -8c0 -11 -12 -18 -16 -19z" />
    <glyph glyph-name="u" unicode="u" horiz-adv-x="497" 
d="M411 0h-51c-17 0 -22 4 -29 20l-5 21c-27 -39 -72 -46 -105 -46c-115 0 -166 86 -166 181v203c0 12 8 21 21 21h98c12 0 21 -9 21 -21v-199c0 -35 3 -63 51 -63c33 0 46 28 46 63v199c0 12 8 21 21 21h98c12 0 21 -9 21 -21v-358c0 -12 -9 -21 -21 -21z" />
    <glyph glyph-name="v" unicode="v" horiz-adv-x="440" 
d="M220 -5c-11 0 -21 7 -29 15l-181 364c0 16 9 26 24 26h93c19 0 27 -10 32 -22l61 -142l61 142c5 12 13 22 32 22h93c15 0 24 -10 24 -26l-181 -364c-8 -8 -18 -15 -29 -15z" />
    <glyph glyph-name="w" unicode="w" horiz-adv-x="596" 
d="M385 14l-87 163l-87 -163c-9 -9 -19 -16 -30 -16c-12 0 -21 7 -29 14l-132 362c0 16 9 26 24 26h86c19 0 28 -10 32 -22l46 -128l62 139c7 15 21 16 28 16s21 -1 28 -16l62 -139l46 128c4 12 13 22 32 22h86c15 0 24 -10 24 -26l-132 -362c-8 -7 -17 -14 -29 -14
c-11 0 -21 7 -30 16z" />
    <glyph glyph-name="x" unicode="x" horiz-adv-x="432" 
d="M261 22l-45 88l-45 -88c-4 -12 -13 -22 -32 -22h-95c-15 0 -24 10 -24 26l101 166l-101 182c0 16 9 26 24 26h95c19 0 28 -10 32 -22l45 -88l45 88c4 12 13 22 32 22h95c15 0 24 -10 24 -26l-101 -182l101 -166c0 -16 -9 -26 -24 -26h-95c-19 0 -28 10 -32 22z" />
    <glyph glyph-name="y" unicode="y" horiz-adv-x="443" 
d="M433 374l-250 -523c-5 -12 -13 -22 -32 -22h-95c-15 0 -24 10 -24 26l119 253l-126 266c0 16 9 26 24 26h93c19 0 26 -10 31 -22l56 -115l55 115c5 12 12 22 31 22h94c15 0 24 -10 24 -26z" />
    <glyph glyph-name="z" unicode="z" horiz-adv-x="425" 
d="M40 28l134 242h-118c-12 0 -21 8 -21 21v88c0 12 9 21 21 21h313c11 0 20 -7 20 -19c0 -4 -1 -7 -2 -9l-132 -243h114c12 0 21 -9 21 -21v-87c0 -13 -9 -21 -21 -21h-311c-11 0 -20 7 -20 19c0 4 1 7 2 9z" />
    <glyph glyph-name="braceleft" unicode="{" horiz-adv-x="429" 
d="M230 272c28 -32 42 -70 42 -114v-122c0 -67 2 -79 27 -79h44c13 0 21 -9 21 -21v-86c0 -12 -8 -21 -21 -21h-58c-88 0 -146 38 -146 174v155c0 29 -24 53 -53 53c-14 0 -21 8 -21 23v77c0 14 7 21 21 21c29 0 53 24 53 53v155c0 136 58 174 146 174h58c13 0 21 -9 21 -21
v-86c0 -12 -8 -21 -21 -21h-44c-25 0 -27 -12 -27 -79v-122c0 -45 -14 -82 -42 -113z" />
    <glyph glyph-name="bar" unicode="|" horiz-adv-x="265" 
d="M200 693v-844c0 -12 -9 -21 -22 -21h-92c-12 0 -21 9 -21 21v844c0 12 9 21 21 21h92c13 0 22 -9 22 -21z" />
    <glyph glyph-name="braceright" unicode="}" horiz-adv-x="429" 
d="M199 272c-28 31 -42 68 -42 113v122c0 67 -2 79 -27 79h-44c-13 0 -21 9 -21 21v86c0 12 8 21 21 21h58c88 0 146 -38 146 -174v-155c0 -29 24 -53 53 -53c14 0 21 -7 21 -21v-77c0 -15 -7 -23 -21 -23c-29 0 -53 -24 -53 -53v-155c0 -136 -58 -174 -146 -174h-58
c-13 0 -21 9 -21 21v86c0 12 8 21 21 21h44c25 0 27 12 27 79v122c0 44 14 82 42 114z" />
    <glyph glyph-name="asciitilde" unicode="~" horiz-adv-x="437" 
d="M372 169c0 -11 -3 -19 -10 -22c-27 -23 -59 -39 -94 -39c-40 0 -67 33 -107 33c-17 0 -28 -3 -41 -14c-7 -3 -8 -2 -11 -2c-9 0 -15 3 -18 10l-24 62c-1 5 -2 9 -2 11c0 7 3 13 9 17c27 21 54 36 87 36c46 0 75 -33 108 -33c20 0 33 5 48 16c7 3 7 3 10 3
c8 0 15 -6 19 -10z" />
    <glyph glyph-name="ellipsis" unicode="&#x2026;" horiz-adv-x="829" 
d="M65 70c0 41 34 75 75 75s75 -34 75 -75s-34 -75 -75 -75s-75 34 -75 75zM339 70c0 41 34 75 75 75s75 -34 75 -75s-34 -75 -75 -75s-75 34 -75 75zM614 70c0 41 34 75 75 75s75 -34 75 -75s-34 -75 -75 -75s-75 34 -75 75z" />
    <glyph glyph-name="quoteleft" unicode="&#x2018;" horiz-adv-x="282" 
d="M217 548l-26 -65c13 -13 24 -31 24 -54c0 -43 -32 -75 -76 -75c-40 0 -74 32 -74 75c0 11 4 24 8 33l47 93c5 9 12 13 21 13h61c10 0 15 -7 15 -20z" />
    <glyph glyph-name="quoteright" unicode="&#x2019;" horiz-adv-x="282" 
d="M65 374l26 65c-13 13 -24 31 -24 54c0 43 32 75 76 75c40 0 74 -32 74 -75c0 -11 -4 -24 -8 -33l-47 -93c-5 -9 -12 -13 -21 -13h-61c-10 0 -15 7 -15 20z" />
    <glyph glyph-name="quotedblleft" unicode="&#x201c;" horiz-adv-x="485" 
d="M217 548l-26 -65c13 -13 24 -31 24 -54c0 -43 -32 -75 -76 -75c-40 0 -74 32 -74 75c0 11 4 24 8 33l47 93c5 9 12 13 21 13h61c10 0 15 -7 15 -20zM420 548l-26 -65c13 -13 24 -31 24 -54c0 -43 -32 -75 -76 -75c-40 0 -74 32 -74 75c0 11 4 24 8 33l47 93
c5 9 12 13 21 13h61c10 0 15 -7 15 -20z" />
    <glyph glyph-name="quotedblright" unicode="&#x201d;" horiz-adv-x="485" 
d="M268 374l26 65c-13 13 -24 31 -24 54c0 43 32 75 76 75c40 0 74 -32 74 -75c0 -11 -4 -24 -8 -33l-47 -93c-5 -9 -12 -13 -21 -13h-61c-10 0 -15 7 -15 20zM65 374l26 65c-13 13 -24 31 -24 54c0 43 32 75 76 75c40 0 74 -32 74 -75c0 -11 -4 -24 -8 -33l-47 -93
c-5 -9 -12 -13 -21 -13h-61c-10 0 -15 7 -15 20z" />
    <glyph glyph-name="bullet" unicode="&#x2022;" horiz-adv-x="280" 
d="M65 201c0 41 34 75 75 75s75 -34 75 -75s-34 -75 -75 -75s-75 34 -75 75z" />
    <glyph glyph-name="endash" unicode="&#x2013;" horiz-adv-x="460" 
d="M395 238v-77c0 -12 -8 -21 -21 -21h-288c-12 0 -21 9 -21 21v77c0 12 9 21 21 21h288c13 0 21 -9 21 -21z" />
    <glyph glyph-name="emdash" unicode="&#x2014;" horiz-adv-x="515" 
d="M450 238v-77c0 -12 -9 -21 -21 -21h-342c-13 0 -22 9 -22 21v77c0 12 9 21 22 21h342c12 0 21 -9 21 -21z" />
    <glyph glyph-name="uni00A0" unicode="&#xa0;" horiz-adv-x="199" 
 />
    <glyph glyph-name="uni25CC" unicode="&#x25cc;" horiz-adv-x="199" 
 />
    <glyph glyph-name="ZWSP" unicode="&#x200b;" horiz-adv-x="0" 
 />
    <glyph glyph-name="onequarter" unicode="&#xbc;" horiz-adv-x="769" 
d="M241 554v-287c0 -7 -8 -17 -15 -17h-70c-11 0 -16 10 -16 17v173c-25 -11 -45 -12 -61 -12c-8 0 -14 8 -14 15v51c0 9 5 14 14 15c35 8 73 27 98 42c19 9 38 17 49 17c7 0 15 -6 15 -14zM518 546l-199 -529c-5 -8 -11 -17 -24 -17h-63c-12 0 -21 10 -21 22l199 529
c4 8 12 17 24 17h63c13 0 21 -10 21 -22zM574 127v64l-52 -64h52zM430 57v65c0 4 4 16 7 20l127 151c4 5 8 7 13 7h82c7 0 15 -8 15 -15v-158h14c7 0 15 -8 15 -15v-55c0 -11 -8 -16 -15 -16h-14v-24c0 -7 -8 -17 -15 -17h-69c-11 0 -16 10 -16 17v24h-129
c-7 0 -15 5 -15 16z" />
    <glyph glyph-name="onehalf" unicode="&#xbd;" horiz-adv-x="773" 
d="M518 546l-199 -529c-5 -8 -11 -17 -24 -17h-63c-12 0 -21 10 -21 22l199 529c4 8 12 17 24 17h63c13 0 21 -10 21 -22zM241 554v-287c0 -7 -8 -17 -15 -17h-70c-11 0 -16 10 -16 17v173c-25 -11 -45 -12 -61 -12c-8 0 -14 8 -14 15v51c0 9 5 14 14 15c35 8 73 27 98 42
c19 9 38 17 49 17c7 0 15 -6 15 -14zM477 15v34c0 77 127 109 127 160c0 7 -9 17 -32 17c-19 0 -40 -6 -53 -13c-4 -2 -8 -3 -11 -3c-9 0 -13 7 -16 18l-13 47c-1 4 -2 6 -2 7c3 8 6 13 9 14c16 11 59 25 95 25c81 0 125 -37 125 -109c0 -40 -25 -73 -80 -117h66
c11 0 16 -6 16 -17v-63c0 -7 -7 -15 -16 -15h-200c-7 0 -15 8 -15 15z" />
    <glyph glyph-name="threequarters" unicode="&#xbe;" horiz-adv-x="776" 
d="M535 546l-199 -529c-5 -8 -11 -17 -24 -17h-63c-12 0 -21 10 -21 22l199 529c4 8 12 17 24 17h63c13 0 21 -10 21 -22zM582 127v64l-52 -64h52zM438 57v65c0 4 4 16 7 20l127 151c4 5 8 7 13 7h82c7 0 15 -8 15 -15v-158h14c7 0 15 -8 15 -15v-55c0 -11 -8 -16 -15 -16
h-14v-24c0 -7 -8 -17 -15 -17h-69c-11 0 -16 10 -16 17v24h-129c-7 0 -15 5 -15 16zM108 409l45 65h-73c-7 0 -15 5 -15 16v63c0 7 8 15 15 15h194c8 0 15 -6 15 -14c0 -4 -1 -7 -3 -9l-42 -90c35 -16 47 -54 47 -90c0 -63 -42 -116 -126 -116c-29 0 -75 8 -96 28
c-4 4 -4 9 -4 13c0 3 0 8 3 11l19 50c5 5 7 5 14 5c17 -8 42 -12 65 -12c21 0 26 5 26 24c0 25 -30 27 -53 27c-5 0 -11 0 -18 -1c-5 0 -13 4 -13 15z" />
    <glyph glyph-name="questiondown" unicode="&#xbf;" horiz-adv-x="484" 
d="M407 39c-29 -20 -88 -44 -155 -44c-98 0 -187 41 -187 153c0 86 112 135 112 206v14c0 12 9 21 21 21h98c13 0 21 -9 21 -21v-32c0 -99 -112 -145 -112 -187c0 -15 22 -22 49 -22c32 0 78 13 98 26c3 2 6 3 11 3c7 0 17 -7 20 -14l34 -74c1 -3 2 -6 2 -11
c-4 -11 -8 -15 -12 -18zM322 500c0 -41 -34 -75 -75 -75s-75 34 -75 75s34 75 75 75s75 -34 75 -75z" />
    <glyph glyph-name="Superstore" horiz-adv-x="635" 
d="M316 505c140 0 254 -114 254 -254c0 -138 -114 -251 -254 -251c-138 0 -251 113 -251 251c0 140 113 254 251 254zM414 90h9c19 0 32 6 32 27c0 23 -7 30 -24 30v133c0 35 -15 56 -32 71c7 3 12 2 19 2s12 1 19 -2h11v65c-41 -5 -84 -15 -115 -32c-12 3 -21 2 -37 2
c-31 0 -57 -3 -88 -14v-63h6c25 8 55 16 76 16c24 0 74 1 74 -43l-82 -8c-48 -5 -102 -17 -102 -92c0 -56 42 -92 102 -92c15 0 30 0 43 3v54l-6 4c-9 -4 -15 -4 -23 -4c-21 0 -45 10 -45 41c0 22 13 25 113 41v-71c0 -48 10 -68 50 -68z" />
    <glyph glyph-name="yen" unicode="&#xa5;" horiz-adv-x="668" 
d="M477 302c15 0 22 -7 22 -22v-59c0 -14 -7 -21 -22 -21h-73v-34h73c15 0 22 -7 22 -22v-59c0 -14 -7 -21 -22 -21h-73v-43c0 -12 -9 -21 -21 -21h-98c-13 0 -21 9 -21 21v43h-73c-15 0 -22 7 -22 21v59c0 15 7 22 22 22h73v34h-73c-15 0 -22 7 -22 21v59c0 15 7 22 22 22
h19l-145 240c0 16 9 26 24 26h95c19 0 28 -10 32 -22l118 -193l118 193c4 12 13 22 32 22h95c15 0 24 -10 24 -26l-145 -240h19z" />
    <glyph glyph-name="Euro" unicode="&#x20ac;" horiz-adv-x="694" 
d="M381 164h-72c27 -29 64 -47 103 -47c55 0 73 1 129 41c5 5 11 8 18 8c5 0 9 -2 14 -5l48 -53c3 -3 7 -8 7 -15c0 -5 -2 -11 -6 -16c-53 -64 -126 -82 -215 -82c-116 0 -218 68 -260 169h-61c-12 0 -21 8 -21 21v51c0 12 9 21 21 21h37c-1 9 -1 17 -1 28v8h-36
c-12 0 -21 8 -21 21v51c0 12 9 21 21 21h54c40 110 145 189 272 189c80 0 156 -28 212 -83c3 -5 5 -11 5 -16c0 -6 -2 -11 -6 -15l-61 -54c-4 -4 -9 -6 -14 -6c-6 0 -12 2 -19 6c-31 27 -75 36 -118 36c-48 0 -88 -22 -115 -57h85c12 0 21 -9 21 -21v-51
c0 -13 -9 -21 -21 -21h-119v-11c0 -9 1 -17 2 -25h117c12 0 21 -9 21 -21v-51c0 -13 -9 -21 -21 -21z" />
    <glyph glyph-name="ocircumflex" unicode="&#xf4;" horiz-adv-x="477" 
d="M237 117c39 0 70 35 70 78c0 45 -31 78 -70 78c-37 0 -67 -33 -67 -78c0 -43 30 -78 67 -78zM238 -5c-113 0 -208 90 -208 201c0 112 95 209 208 209c112 0 209 -97 209 -209c0 -111 -97 -201 -209 -201zM228 644h20c9 0 20 -7 24 -10l98 -69c5 -5 7 -11 7 -16
s-2 -9 -5 -13l-46 -54c-3 -4 -7 -6 -12 -6c-3 0 -8 1 -14 4l-62 46l-62 -46c-6 -3 -11 -4 -14 -4c-5 0 -9 2 -12 6l-46 54c-3 4 -5 8 -5 13s2 11 7 16l98 69c4 3 15 10 24 10z" />
    <glyph glyph-name="Agrave" unicode="&#xc0;" horiz-adv-x="604" 
d="M296 788l53 -127c0 -13 -8 -23 -21 -23h-57c-11 0 -20 8 -25 16l-88 129c0 13 8 23 21 23h97c13 0 13 -7 20 -18zM258 219h86l-42 87zM397 103h-190l-40 -86c-5 -8 -12 -17 -24 -17h-107c-12 0 -21 10 -21 23l258 533c7 8 17 15 29 15s22 -7 29 -15l258 -533
c0 -13 -9 -23 -21 -23h-107c-12 0 -19 9 -24 17z" />
    <glyph glyph-name="Aacute" unicode="&#xc1;" horiz-adv-x="604" 
d="M259 661l53 127c7 11 7 18 20 18h97c13 0 21 -10 21 -23l-88 -129c-5 -8 -14 -16 -25 -16h-57c-13 0 -21 10 -21 23zM258 219h86l-42 87zM397 103h-190l-40 -86c-5 -8 -12 -17 -24 -17h-107c-12 0 -21 10 -21 23l258 533c7 8 17 15 29 15s22 -7 29 -15l258 -533
c0 -13 -9 -23 -21 -23h-107c-12 0 -19 9 -24 17z" />
    <glyph glyph-name="Acircumflex" unicode="&#xc2;" horiz-adv-x="604" 
d="M258 219h86l-42 87zM397 103h-190l-40 -86c-5 -8 -12 -17 -24 -17h-107c-12 0 -21 10 -21 23l258 533c7 8 17 15 29 15s22 -7 29 -15l258 -533c0 -13 -9 -23 -21 -23h-107c-12 0 -19 9 -24 17zM291 807h20c9 0 20 -7 24 -10l98 -69c5 -5 7 -11 7 -16s-2 -9 -5 -13
l-46 -54c-3 -4 -7 -6 -12 -6c-3 0 -8 1 -14 4l-62 46l-62 -46c-6 -3 -11 -4 -14 -4c-5 0 -9 2 -12 6l-46 54c-3 4 -5 8 -5 13s2 11 7 16l98 69c4 3 15 10 24 10z" />
    <glyph glyph-name="Atilde" unicode="&#xc3;" horiz-adv-x="604" 
d="M258 219h86l-42 87zM397 103h-190l-40 -86c-5 -8 -12 -17 -24 -17h-107c-12 0 -21 10 -21 23l258 533c7 8 17 15 29 15s22 -7 29 -15l258 -533c0 -13 -9 -23 -21 -23h-107c-12 0 -19 9 -24 17zM432 767l26 -68c0 -11 -3 -19 -10 -22c-27 -23 -59 -39 -94 -39
c-40 0 -67 33 -107 33c-17 0 -28 -3 -41 -14c-7 -3 -8 -2 -11 -2c-9 0 -15 3 -18 10l-24 62c-1 5 -2 9 -2 11c0 7 3 13 9 17c27 21 54 36 87 36c46 0 75 -33 108 -33c20 0 33 5 48 16c7 3 7 3 10 3c8 0 15 -6 19 -10z" />
    <glyph glyph-name="Adieresis" unicode="&#xc4;" horiz-adv-x="604" 
d="M258 219h86l-42 87zM397 103h-190l-40 -86c-5 -8 -12 -17 -24 -17h-107c-12 0 -21 10 -21 23l258 533c7 8 17 15 29 15s22 -7 29 -15l258 -533c0 -13 -9 -23 -21 -23h-107c-12 0 -19 9 -24 17zM115 713c0 41 34 75 75 75s75 -34 75 -75s-34 -75 -75 -75s-75 34 -75 75z
M344 713c0 41 34 75 75 75s75 -34 75 -75s-34 -75 -75 -75s-75 34 -75 75z" />
    <glyph glyph-name="copyright" unicode="&#xa9;" horiz-adv-x="703" 
d="M351 574c159 0 287 -131 287 -290c0 -157 -128 -289 -287 -289c-157 0 -286 132 -286 289c0 159 129 290 286 290zM351 67c115 0 215 104 215 217c0 115 -100 219 -215 219c-113 0 -214 -104 -214 -219c0 -113 101 -217 214 -217zM360 211c16 0 35 2 54 13c7 3 10 7 17 7
c5 0 9 -1 12 -4l25 -43c1 -3 5 -6 5 -13c0 -5 -1 -10 -4 -15c-29 -27 -65 -41 -108 -41c-92 0 -169 77 -169 167c0 92 77 164 169 164c43 0 79 -12 108 -41c3 -5 5 -10 5 -16c0 -7 -4 -9 -5 -12l-26 -43c-3 -5 -8 -7 -13 -7s-14 2 -19 5c-13 8 -36 15 -51 15
c-35 0 -63 -23 -63 -66c0 -40 28 -70 63 -70z" />
    <glyph glyph-name="agrave" unicode="&#xe0;" horiz-adv-x="445" 
d="M208 107c5 0 24 2 37 13v24c-7 7 -21 14 -37 14c-29 0 -44 -8 -44 -25c0 -19 17 -26 44 -26zM275 20l-5 21c-34 -44 -93 -46 -102 -46c-28 0 -133 10 -133 133c0 78 56 110 131 110c20 0 56 -3 79 -15c-9 41 -27 50 -64 50c-12 0 -39 1 -62 -6c-7 -1 -9 -1 -12 -1
c-11 0 -21 3 -26 14l-22 62c-1 5 -2 10 -2 15c0 10 4 18 12 23c61 24 93 25 129 25c129 0 187 -71 187 -183v-201c0 -12 -9 -21 -21 -21h-60c-17 0 -22 4 -29 20zM234 626l53 -127c0 -13 -8 -23 -21 -23h-57c-11 0 -20 8 -25 16l-88 129c0 13 8 23 21 23h97
c13 0 13 -7 20 -18z" />
    <glyph glyph-name="aacute" unicode="&#xe1;" horiz-adv-x="445" 
d="M208 107c5 0 24 2 37 13v24c-7 7 -21 14 -37 14c-29 0 -44 -8 -44 -25c0 -19 17 -26 44 -26zM275 20l-5 21c-34 -44 -93 -46 -102 -46c-28 0 -133 10 -133 133c0 78 56 110 131 110c20 0 56 -3 79 -15c-9 41 -27 50 -64 50c-12 0 -39 1 -62 -6c-7 -1 -9 -1 -12 -1
c-11 0 -21 3 -26 14l-22 62c-1 5 -2 10 -2 15c0 10 4 18 12 23c61 24 93 25 129 25c129 0 187 -71 187 -183v-201c0 -12 -9 -21 -21 -21h-60c-17 0 -22 4 -29 20zM158 499l53 127c7 11 7 18 20 18h97c13 0 21 -10 21 -23l-88 -129c-5 -8 -14 -16 -25 -16h-57
c-13 0 -21 10 -21 23z" />
    <glyph glyph-name="acircumflex" unicode="&#xe2;" horiz-adv-x="445" 
d="M208 107c5 0 24 2 37 13v24c-7 7 -21 14 -37 14c-29 0 -44 -8 -44 -25c0 -19 17 -26 44 -26zM275 20l-5 21c-34 -44 -93 -46 -102 -46c-28 0 -133 10 -133 133c0 78 56 110 131 110c20 0 56 -3 79 -15c-9 41 -27 50 -64 50c-12 0 -39 1 -62 -6c-7 -1 -9 -1 -12 -1
c-11 0 -21 3 -26 14l-22 62c-1 5 -2 10 -2 15c0 10 4 18 12 23c61 24 93 25 129 25c129 0 187 -71 187 -183v-201c0 -12 -9 -21 -21 -21h-60c-17 0 -22 4 -29 20zM216 644h20c9 0 20 -7 24 -10l98 -69c5 -5 7 -11 7 -16s-2 -9 -5 -13l-46 -54c-3 -4 -7 -6 -12 -6
c-3 0 -8 1 -14 4l-62 46l-62 -46c-6 -3 -11 -4 -14 -4c-5 0 -9 2 -12 6l-46 54c-3 4 -5 8 -5 13s2 11 7 16l98 69c4 3 15 10 24 10z" />
    <glyph glyph-name="atilde" unicode="&#xe3;" horiz-adv-x="445" 
d="M208 107c5 0 24 2 37 13v24c-7 7 -21 14 -37 14c-29 0 -44 -8 -44 -25c0 -19 17 -26 44 -26zM275 20l-5 21c-34 -44 -93 -46 -102 -46c-28 0 -133 10 -133 133c0 78 56 110 131 110c20 0 56 -3 79 -15c-9 41 -27 50 -64 50c-12 0 -39 1 -62 -6c-7 -1 -9 -1 -12 -1
c-11 0 -21 3 -26 14l-22 62c-1 5 -2 10 -2 15c0 10 4 18 12 23c61 24 93 25 129 25c129 0 187 -71 187 -183v-201c0 -12 -9 -21 -21 -21h-60c-17 0 -22 4 -29 20zM347 605l26 -68c0 -11 -3 -19 -10 -22c-27 -23 -59 -39 -94 -39c-40 0 -67 33 -107 33c-17 0 -28 -3 -41 -14
c-7 -3 -8 -2 -11 -2c-9 0 -15 3 -18 10l-24 62c-1 5 -2 9 -2 11c0 7 3 13 9 17c27 21 54 36 87 36c46 0 75 -33 108 -33c20 0 33 5 48 16c7 3 7 3 10 3c8 0 15 -6 19 -10z" />
    <glyph glyph-name="adieresis" unicode="&#xe4;" horiz-adv-x="445" 
d="M208 107c5 0 24 2 37 13v24c-7 7 -21 14 -37 14c-29 0 -44 -8 -44 -25c0 -19 17 -26 44 -26zM275 20l-5 21c-34 -44 -93 -46 -102 -46c-28 0 -133 10 -133 133c0 78 56 110 131 110c20 0 56 -3 79 -15c-9 41 -27 50 -64 50c-12 0 -39 1 -62 -6c-7 -1 -9 -1 -12 -1
c-11 0 -21 3 -26 14l-22 62c-1 5 -2 10 -2 15c0 10 4 18 12 23c61 24 93 25 129 25c129 0 187 -71 187 -183v-201c0 -12 -9 -21 -21 -21h-60c-17 0 -22 4 -29 20zM49 551c0 41 34 75 75 75s75 -34 75 -75s-34 -75 -75 -75s-75 34 -75 75zM232 551c0 41 34 75 75 75
s75 -34 75 -75s-34 -75 -75 -75s-75 34 -75 75z" />
    <glyph glyph-name="egrave" unicode="&#xe8;" horiz-adv-x="449" 
d="M419 213v-33c0 -12 -9 -21 -21 -21h-225c8 -44 52 -49 79 -49c32 0 60 1 95 17c1 1 3 1 5 1c5 0 9 -2 13 -7l27 -45c3 -5 5 -9 5 -14c0 -7 -2 -12 -5 -17c-27 -37 -88 -50 -140 -50c-112 0 -222 56 -222 209c0 111 58 201 195 201c109 0 194 -64 194 -192zM227 281
c-20 0 -47 -2 -55 -45h107c-5 40 -37 45 -52 45zM234 626l53 -127c0 -13 -8 -23 -21 -23h-57c-11 0 -20 8 -25 16l-88 129c0 13 8 23 21 23h97c13 0 13 -7 20 -18z" />
    <glyph glyph-name="eacute" unicode="&#xe9;" horiz-adv-x="449" 
d="M419 213v-33c0 -12 -9 -21 -21 -21h-225c8 -44 52 -49 79 -49c32 0 60 1 95 17c1 1 3 1 5 1c5 0 9 -2 13 -7l27 -45c3 -5 5 -9 5 -14c0 -7 -2 -12 -5 -17c-27 -37 -88 -50 -140 -50c-112 0 -222 56 -222 209c0 111 58 201 195 201c109 0 194 -64 194 -192zM227 281
c-20 0 -47 -2 -55 -45h107c-5 40 -37 45 -52 45zM186 499l53 127c7 11 7 18 20 18h97c13 0 21 -10 21 -23l-88 -129c-5 -8 -14 -16 -25 -16h-57c-13 0 -21 10 -21 23z" />
    <glyph glyph-name="ecircumflex" unicode="&#xea;" horiz-adv-x="449" 
d="M419 213v-33c0 -12 -9 -21 -21 -21h-225c8 -44 52 -49 79 -49c32 0 60 1 95 17c1 1 3 1 5 1c5 0 9 -2 13 -7l27 -45c3 -5 5 -9 5 -14c0 -7 -2 -12 -5 -17c-27 -37 -88 -50 -140 -50c-112 0 -222 56 -222 209c0 111 58 201 195 201c109 0 194 -64 194 -192zM227 281
c-20 0 -47 -2 -55 -45h107c-5 40 -37 45 -52 45zM218 644h20c9 0 20 -7 24 -10l98 -69c5 -5 7 -11 7 -16s-2 -9 -5 -13l-46 -54c-3 -4 -7 -6 -12 -6c-3 0 -8 1 -14 4l-62 46l-62 -46c-6 -3 -11 -4 -14 -4c-5 0 -9 2 -12 6l-46 54c-3 4 -5 8 -5 13s2 11 7 16l98 69
c4 3 15 10 24 10z" />
    <glyph glyph-name="edieresis" unicode="&#xeb;" horiz-adv-x="449" 
d="M419 213v-33c0 -12 -9 -21 -21 -21h-225c8 -44 52 -49 79 -49c32 0 60 1 95 17c1 1 3 1 5 1c5 0 9 -2 13 -7l27 -45c3 -5 5 -9 5 -14c0 -7 -2 -12 -5 -17c-27 -37 -88 -50 -140 -50c-112 0 -222 56 -222 209c0 111 58 201 195 201c109 0 194 -64 194 -192zM227 281
c-20 0 -47 -2 -55 -45h107c-5 40 -37 45 -52 45zM62 551c0 41 34 75 75 75s75 -34 75 -75s-34 -75 -75 -75s-75 34 -75 75zM245 551c0 41 34 75 75 75s75 -34 75 -75s-34 -75 -75 -75s-75 34 -75 75z" />
    <glyph glyph-name="Ograve" unicode="&#xd2;" horiz-adv-x="656" 
d="M327 117c87 0 149 78 149 165s-62 161 -149 161c-85 0 -147 -74 -147 -161s62 -165 147 -165zM328 -5c-160 0 -288 130 -288 290s128 290 288 290s288 -130 288 -290s-128 -290 -288 -290zM319 788l53 -127c0 -13 -8 -23 -21 -23h-57c-11 0 -20 8 -25 16l-88 129
c0 13 8 23 21 23h97c13 0 13 -7 20 -18z" />
    <glyph glyph-name="Oacute" unicode="&#xd3;" horiz-adv-x="656" 
d="M329 117c85 0 147 78 147 165s-62 161 -147 161c-87 0 -149 -74 -149 -161s62 -165 149 -165zM328 -5c-160 0 -288 130 -288 290s128 290 288 290s288 -130 288 -290s-128 -290 -288 -290zM284 661l53 127c7 11 7 18 20 18h97c13 0 21 -10 21 -23l-88 -129
c-5 -8 -14 -16 -25 -16h-57c-13 0 -21 10 -21 23z" />
    <glyph glyph-name="Ocircumflex" unicode="&#xd4;" horiz-adv-x="656" 
d="M329 117c85 0 147 78 147 165s-62 161 -147 161c-87 0 -149 -74 -149 -161s62 -165 149 -165zM328 -5c-160 0 -288 130 -288 290s128 290 288 290s288 -130 288 -290s-128 -290 -288 -290zM318 807h20c9 0 20 -7 24 -10l98 -69c5 -5 7 -11 7 -16s-2 -9 -5 -13l-46 -54
c-3 -4 -7 -6 -12 -6c-3 0 -8 1 -14 4l-62 46l-62 -46c-6 -3 -11 -4 -14 -4c-5 0 -9 2 -12 6l-46 54c-3 4 -5 8 -5 13s2 11 7 16l98 69c4 3 15 10 24 10z" />
    <glyph glyph-name="Otilde" unicode="&#xd5;" horiz-adv-x="656" 
d="M329 117c85 0 147 78 147 165s-62 161 -147 161c-87 0 -149 -74 -149 -161s62 -165 149 -165zM328 -5c-160 0 -288 130 -288 290s128 290 288 290s288 -130 288 -290s-128 -290 -288 -290zM459 767l26 -68c0 -11 -3 -19 -10 -22c-27 -23 -59 -39 -94 -39
c-40 0 -67 33 -107 33c-17 0 -28 -3 -41 -14c-7 -3 -8 -2 -11 -2c-9 0 -15 3 -18 10l-24 62c-1 5 -2 9 -2 11c0 7 3 13 9 17c27 21 54 36 87 36c46 0 75 -33 108 -33c20 0 33 5 48 16c7 3 7 3 10 3c8 0 15 -6 19 -10z" />
    <glyph glyph-name="Odieresis" unicode="&#xd6;" horiz-adv-x="656" 
d="M329 117c85 0 147 78 147 165s-62 161 -147 161c-87 0 -149 -74 -149 -161s62 -165 149 -165zM328 -5c-160 0 -288 130 -288 290s128 290 288 290s288 -130 288 -290s-128 -290 -288 -290zM142 713c0 41 34 75 75 75s75 -34 75 -75s-34 -75 -75 -75s-75 34 -75 75z
M371 713c0 41 34 75 75 75s75 -34 75 -75s-34 -75 -75 -75s-75 34 -75 75z" />
    <glyph glyph-name="igrave" unicode="&#xec;" 
d="M205 379v-358c0 -12 -9 -21 -21 -21h-98c-13 0 -21 9 -21 21v358c0 12 8 21 21 21h98c12 0 21 -9 21 -21zM128 626l53 -127c0 -13 -8 -23 -21 -23h-57c-11 0 -20 8 -25 16l-88 129c0 13 8 23 21 23h97c13 0 13 -7 20 -18z" />
    <glyph glyph-name="iacute" unicode="&#xed;" 
d="M65 21v358c0 12 9 21 21 21h98c13 0 21 -9 21 -21v-358c0 -12 -8 -21 -21 -21h-98c-12 0 -21 9 -21 21zM89 499l53 127c7 11 7 18 20 18h97c13 0 21 -10 21 -23l-88 -129c-5 -8 -14 -16 -25 -16h-57c-13 0 -21 10 -21 23z" />
    <glyph glyph-name="icircumflex" unicode="&#xee;" 
d="M65 21v358c0 12 9 21 21 21h98c13 0 21 -9 21 -21v-358c0 -12 -8 -21 -21 -21h-98c-12 0 -21 9 -21 21zM125 644h20c9 0 20 -7 24 -10l98 -69c5 -5 7 -11 7 -16s-2 -9 -5 -13l-46 -54c-3 -4 -7 -6 -12 -6c-3 0 -8 1 -14 4l-62 46l-62 -46c-6 -3 -11 -4 -14 -4
c-5 0 -9 2 -12 6l-46 54c-3 4 -5 8 -5 13s2 11 7 16l98 69c4 3 15 10 24 10z" />
    <glyph glyph-name="idieresis" unicode="&#xef;" 
d="M65 21v358c0 12 9 21 21 21h98c13 0 21 -9 21 -21v-358c0 -12 -8 -21 -21 -21h-98c-12 0 -21 9 -21 21zM-32 551c0 41 34 75 75 75s75 -34 75 -75s-34 -75 -75 -75s-75 34 -75 75zM150 551c0 41 34 75 75 75s75 -34 75 -75s-34 -75 -75 -75s-75 34 -75 75z" />
    <glyph glyph-name="oacute" unicode="&#xf3;" horiz-adv-x="477" 
d="M237 117c39 0 70 35 70 78c0 45 -31 78 -70 78c-37 0 -67 -33 -67 -78c0 -43 30 -78 67 -78zM238 -5c-113 0 -208 90 -208 201c0 112 95 209 208 209c112 0 209 -97 209 -209c0 -111 -97 -201 -209 -201zM187 499l53 127c7 11 7 18 20 18h97c13 0 21 -10 21 -23l-88 -129
c-5 -8 -14 -16 -25 -16h-57c-13 0 -21 10 -21 23z" />
    <glyph glyph-name="ograve" unicode="&#xf2;" horiz-adv-x="477" 
d="M237 117c39 0 70 35 70 78c0 45 -31 78 -70 78c-37 0 -67 -33 -67 -78c0 -43 30 -78 67 -78zM238 -5c-113 0 -208 90 -208 201c0 112 95 209 208 209c112 0 209 -97 209 -209c0 -111 -97 -201 -209 -201zM234 626l53 -127c0 -13 -8 -23 -21 -23h-57c-11 0 -20 8 -25 16
l-88 129c0 13 8 23 21 23h97c13 0 13 -7 20 -18z" />
    <glyph glyph-name="ntilde" unicode="&#xf1;" horiz-adv-x="497" 
d="M86 400h51c17 0 22 -4 29 -20l5 -21c27 37 79 46 112 46c116 0 159 -86 159 -181v-203c0 -12 -8 -21 -21 -21h-98c-12 0 -21 9 -21 21v189c0 35 -3 63 -51 63c-33 0 -46 -28 -46 -63v-189c0 -12 -8 -21 -21 -21h-98c-12 0 -21 9 -21 21v358c0 12 9 21 21 21zM376 605
l26 -68c0 -11 -3 -19 -10 -22c-27 -23 -59 -39 -94 -39c-40 0 -67 33 -107 33c-17 0 -28 -3 -41 -14c-7 -3 -8 -2 -11 -2c-9 0 -15 3 -18 10l-24 62c-1 5 -2 9 -2 11c0 7 3 13 9 17c27 21 54 36 87 36c46 0 75 -33 108 -33c20 0 33 5 48 16c7 3 7 3 10 3c8 0 15 -6 19 -10z
" />
    <glyph glyph-name="ydieresis" unicode="&#xff;" horiz-adv-x="443" 
d="M433 374l-250 -523c-5 -12 -13 -22 -32 -22h-95c-15 0 -24 10 -24 26l119 253l-126 266c0 16 9 26 24 26h93c19 0 26 -10 31 -22l56 -115l55 115c5 12 12 22 31 22h94c15 0 24 -10 24 -26zM63 551c0 41 34 75 75 75s75 -34 75 -75s-34 -75 -75 -75s-75 34 -75 75z
M246 551c0 41 34 75 75 75s75 -34 75 -75s-34 -75 -75 -75s-75 34 -75 75z" />
    <glyph glyph-name="plusminus" unicode="&#xb1;" horiz-adv-x="480" 
d="M169 413v89c0 12 8 21 21 21h100c12 0 21 -9 21 -21v-89h83c12 0 21 -9 21 -21v-93c0 -13 -9 -21 -21 -21h-83v-88c0 -12 -9 -21 -21 -21h-100c-13 0 -21 9 -21 21v88h-83c-12 0 -21 8 -21 21v93c0 12 9 21 21 21h83zM394 0h-308c-12 0 -21 8 -21 21v93c0 12 9 21 21 21
h308c12 0 21 -9 21 -21v-93c0 -13 -9 -21 -21 -21z" />
    <glyph glyph-name="onesuperior" unicode="&#xb9;" horiz-adv-x="306" 
d="M241 554v-287c0 -7 -8 -17 -15 -17h-70c-11 0 -16 10 -16 17v173c-25 -11 -45 -12 -61 -12c-8 0 -14 8 -14 15v51c0 9 5 14 14 15c35 8 73 27 98 42c19 9 38 17 49 17c7 0 15 -6 15 -14z" />
    <glyph glyph-name="twosuperior" unicode="&#xb2;" horiz-adv-x="361" 
d="M65 262v34c0 77 127 109 127 160c0 7 -9 17 -32 17c-19 0 -40 -6 -53 -13c-4 -2 -8 -3 -11 -3c-9 0 -13 7 -16 18l-13 47c-1 4 -2 6 -2 7c3 8 6 13 9 14c16 11 59 25 95 25c81 0 125 -37 125 -109c0 -40 -25 -73 -80 -117h66c11 0 16 -6 16 -17v-63c0 -7 -7 -15 -16 -15
h-200c-7 0 -15 8 -15 15z" />
    <glyph glyph-name="threesuperior" unicode="&#xb3;" horiz-adv-x="356" 
d="M108 409l45 65h-73c-7 0 -15 5 -15 16v63c0 7 8 15 15 15h194c8 0 15 -6 15 -14c0 -4 -1 -7 -3 -9l-42 -90c35 -16 47 -54 47 -90c0 -63 -42 -116 -126 -116c-29 0 -75 8 -96 28c-4 4 -4 9 -4 13c0 3 0 8 3 11l19 50c5 5 7 5 14 5c17 -8 42 -12 65 -12c21 0 26 5 26 24
c0 25 -30 27 -53 27c-5 0 -11 0 -18 -1c-5 0 -13 4 -13 15z" />
    <glyph glyph-name="Aring" unicode="&#xc5;" horiz-adv-x="604" 
d="M258 219h86l-42 87zM397 103h-190l-40 -86c-5 -8 -12 -17 -24 -17h-107c-12 0 -21 10 -21 23l258 533c7 8 17 15 29 15s22 -7 29 -15l258 -533c0 -13 -9 -23 -21 -23h-107c-12 0 -19 9 -24 17zM303 895c68 0 127 -57 127 -129c0 -68 -59 -128 -127 -128
c-69 0 -130 60 -130 128c0 72 61 129 130 129zM303 728c15 0 30 16 30 36c0 21 -15 36 -30 36c-19 0 -33 -13 -33 -36c0 -20 14 -36 33 -36z" />
    <glyph glyph-name="degree" unicode="&#xb0;" horiz-adv-x="426" 
d="M214 568c80 0 147 -65 147 -148c0 -80 -67 -149 -147 -149c-81 0 -149 69 -149 149c0 83 68 148 149 148zM214 373c21 0 39 19 39 46s-18 43 -39 43c-23 0 -41 -16 -41 -43s18 -46 41 -46z" />
    <glyph glyph-name="aring" unicode="&#xe5;" horiz-adv-x="445" 
d="M208 107c5 0 24 2 37 13v24c-7 7 -21 14 -37 14c-29 0 -44 -8 -44 -25c0 -19 17 -26 44 -26zM275 20l-5 21c-34 -44 -93 -46 -102 -46c-28 0 -133 10 -133 133c0 78 56 110 131 110c20 0 56 -3 79 -15c-9 41 -27 50 -64 50c-12 0 -39 1 -62 -6c-7 -1 -9 -1 -12 -1
c-11 0 -21 3 -26 14l-22 62c-1 5 -2 10 -2 15c0 10 4 18 12 23c61 24 93 25 129 25c129 0 187 -71 187 -183v-201c0 -12 -9 -21 -21 -21h-60c-17 0 -22 4 -29 20zM223 733c68 0 127 -57 127 -129c0 -68 -59 -128 -127 -128c-69 0 -130 60 -130 128c0 72 61 129 130 129z
M223 566c15 0 30 16 30 36c0 21 -15 36 -30 36c-19 0 -33 -13 -33 -36c0 -20 14 -36 33 -36z" />
    <glyph glyph-name="Ugrave" unicode="&#xd9;" horiz-adv-x="616" 
d="M307 -5c-161 0 -242 101 -242 258v294c0 12 8 21 21 21h98c12 0 21 -9 21 -21v-299c0 -95 28 -131 103 -131s103 36 103 131v299c0 12 9 21 21 21h98c13 0 21 -9 21 -21v-294c0 -157 -80 -258 -244 -258zM304 788l53 -127c0 -13 -8 -23 -21 -23h-57c-11 0 -20 8 -25 16
l-88 129c0 13 8 23 21 23h97c13 0 13 -7 20 -18z" />
    <glyph glyph-name="Uacute" unicode="&#xda;" horiz-adv-x="616" 
d="M309 -5c-164 0 -244 101 -244 258v294c0 12 8 21 21 21h98c12 0 21 -9 21 -21v-299c0 -95 28 -131 103 -131s103 36 103 131v299c0 12 9 21 21 21h98c13 0 21 -9 21 -21v-294c0 -157 -81 -258 -242 -258zM259 661l53 127c7 11 7 18 20 18h97c13 0 21 -10 21 -23l-88 -129
c-5 -8 -14 -16 -25 -16h-57c-13 0 -21 10 -21 23z" />
    <glyph glyph-name="otilde" unicode="&#xf5;" horiz-adv-x="477" 
d="M237 117c39 0 70 35 70 78c0 45 -31 78 -70 78c-37 0 -67 -33 -67 -78c0 -43 30 -78 67 -78zM238 -5c-113 0 -208 90 -208 201c0 112 95 209 208 209c112 0 209 -97 209 -209c0 -111 -97 -201 -209 -201zM368 605l26 -68c0 -11 -3 -19 -10 -22c-27 -23 -59 -39 -94 -39
c-40 0 -67 33 -107 33c-17 0 -28 -3 -41 -14c-7 -3 -8 -2 -11 -2c-9 0 -15 3 -18 10l-24 62c-1 5 -2 9 -2 11c0 7 3 13 9 17c27 21 54 36 87 36c46 0 75 -33 108 -33c20 0 33 5 48 16c7 3 7 3 10 3c8 0 15 -6 19 -10z" />
    <glyph glyph-name="odieresis" unicode="&#xf6;" horiz-adv-x="477" 
d="M237 117c39 0 70 35 70 78c0 45 -31 78 -70 78c-37 0 -67 -33 -67 -78c0 -43 30 -78 67 -78zM238 -5c-113 0 -208 90 -208 201c0 112 95 209 208 209c112 0 209 -97 209 -209c0 -111 -97 -201 -209 -201zM72 551c0 41 34 75 75 75s75 -34 75 -75s-34 -75 -75 -75
s-75 34 -75 75zM255 551c0 41 34 75 75 75s75 -34 75 -75s-34 -75 -75 -75s-75 34 -75 75z" />
    <glyph glyph-name="Ucircumflex" unicode="&#xdb;" horiz-adv-x="616" 
d="M309 -5c-164 0 -244 101 -244 258v294c0 12 8 21 21 21h98c12 0 21 -9 21 -21v-299c0 -95 28 -131 103 -131s103 36 103 131v299c0 12 9 21 21 21h98c13 0 21 -9 21 -21v-294c0 -157 -81 -258 -242 -258zM299 807h20c9 0 20 -7 24 -10l98 -69c5 -5 7 -11 7 -16
s-2 -9 -5 -13l-46 -54c-3 -4 -7 -6 -12 -6c-3 0 -8 1 -14 4l-62 46l-62 -46c-6 -3 -11 -4 -14 -4c-5 0 -9 2 -12 6l-46 54c-3 4 -5 8 -5 13s2 11 7 16l98 69c4 3 15 10 24 10z" />
    <glyph glyph-name="Udieresis" unicode="&#xdc;" horiz-adv-x="616" 
d="M307 -5c-161 0 -242 101 -242 258v294c0 12 8 21 21 21h98c12 0 21 -9 21 -21v-299c0 -95 28 -131 103 -131s103 36 103 131v299c0 12 9 21 21 21h98c13 0 21 -9 21 -21v-294c0 -157 -80 -258 -244 -258zM133 713c0 41 34 75 75 75s75 -34 75 -75s-34 -75 -75 -75
s-75 34 -75 75zM333 713c0 41 34 75 75 75s75 -34 75 -75s-34 -75 -75 -75s-75 34 -75 75z" />
    <glyph glyph-name="Ydieresis" unicode="&#x178;" horiz-adv-x="568" 
d="M553 542l-199 -330v-191c0 -12 -9 -21 -21 -21h-98c-13 0 -21 9 -21 21v191l-199 330c0 16 9 26 24 26h95c19 0 28 -10 32 -22l118 -193l118 193c4 12 13 22 32 22h95c15 0 24 -10 24 -26zM104 713c0 41 34 75 75 75s75 -34 75 -75s-34 -75 -75 -75s-75 34 -75 75z
M318 713c0 41 34 75 75 75s75 -34 75 -75s-34 -75 -75 -75s-75 34 -75 75z" />
    <glyph glyph-name="Egrave" unicode="&#xc8;" horiz-adv-x="520" 
d="M205 347h192c12 0 21 -9 21 -21v-90c0 -13 -9 -21 -21 -21h-192v-83h244c12 0 21 -9 21 -21v-90c0 -13 -9 -21 -21 -21h-363c-12 0 -21 9 -21 21v526c0 12 9 21 21 21h363c12 0 21 -9 21 -21v-93c0 -13 -9 -21 -21 -21h-244v-86zM261 788l53 -127c0 -13 -8 -23 -21 -23
h-57c-11 0 -20 8 -25 16l-88 129c0 13 8 23 21 23h97c13 0 13 -7 20 -18z" />
    <glyph glyph-name="Eacute" unicode="&#xc9;" horiz-adv-x="520" 
d="M205 347h192c12 0 21 -9 21 -21v-90c0 -13 -9 -21 -21 -21h-192v-83h244c12 0 21 -9 21 -21v-90c0 -13 -9 -21 -21 -21h-363c-12 0 -21 9 -21 21v526c0 12 9 21 21 21h363c12 0 21 -9 21 -21v-93c0 -13 -9 -21 -21 -21h-244v-86zM221 661l53 127c7 11 7 18 20 18h97
c13 0 21 -10 21 -23l-88 -129c-5 -8 -14 -16 -25 -16h-57c-13 0 -21 10 -21 23z" />
    <glyph glyph-name="Ecircumflex" unicode="&#xca;" horiz-adv-x="520" 
d="M205 347h192c12 0 21 -9 21 -21v-90c0 -13 -9 -21 -21 -21h-192v-83h244c12 0 21 -9 21 -21v-90c0 -13 -9 -21 -21 -21h-363c-12 0 -21 9 -21 21v526c0 12 9 21 21 21h363c12 0 21 -9 21 -21v-93c0 -13 -9 -21 -21 -21h-244v-86zM269 807h20c9 0 20 -7 24 -10l98 -69
c5 -5 7 -11 7 -16s-2 -9 -5 -13l-46 -54c-3 -4 -7 -6 -12 -6c-3 0 -8 1 -14 4l-62 46l-62 -46c-6 -3 -11 -4 -14 -4c-5 0 -9 2 -12 6l-46 54c-3 4 -5 8 -5 13s2 11 7 16l98 69c4 3 15 10 24 10z" />
    <glyph glyph-name="Edieresis" unicode="&#xcb;" horiz-adv-x="520" 
d="M205 347h192c12 0 21 -9 21 -21v-90c0 -13 -9 -21 -21 -21h-192v-83h244c12 0 21 -9 21 -21v-90c0 -13 -9 -21 -21 -21h-363c-12 0 -21 9 -21 21v526c0 12 9 21 21 21h363c12 0 21 -9 21 -21v-93c0 -13 -9 -21 -21 -21h-244v-86zM98 713c0 41 34 75 75 75s75 -34 75 -75
s-34 -75 -75 -75s-75 34 -75 75zM298 713c0 41 34 75 75 75s75 -34 75 -75s-34 -75 -75 -75s-75 34 -75 75z" />
    <glyph glyph-name="Igrave" unicode="&#xcc;" 
d="M205 547v-526c0 -12 -9 -21 -21 -21h-98c-13 0 -21 9 -21 21v526c0 12 8 21 21 21h98c12 0 21 -9 21 -21zM133 788l53 -127c0 -13 -8 -23 -21 -23h-57c-11 0 -20 8 -25 16l-88 129c0 13 8 23 21 23h97c13 0 13 -7 20 -18z" />
    <glyph glyph-name="Iacute" unicode="&#xcd;" 
d="M65 21v526c0 12 9 21 21 21h98c13 0 21 -9 21 -21v-526c0 -12 -8 -21 -21 -21h-98c-12 0 -21 9 -21 21zM84 661l53 127c7 11 7 18 20 18h97c13 0 21 -10 21 -23l-88 -129c-5 -8 -14 -16 -25 -16h-57c-13 0 -21 10 -21 23z" />
    <glyph glyph-name="Icircumflex" unicode="&#xce;" 
d="M65 21v526c0 12 9 21 21 21h98c13 0 21 -9 21 -21v-526c0 -12 -8 -21 -21 -21h-98c-12 0 -21 9 -21 21zM124 807h20c9 0 20 -7 24 -10l98 -69c5 -5 7 -11 7 -16s-2 -9 -5 -13l-46 -54c-3 -4 -7 -6 -12 -6c-3 0 -8 1 -14 4l-62 46l-62 -46c-6 -3 -11 -4 -14 -4
c-5 0 -9 2 -12 6l-46 54c-3 4 -5 8 -5 13s2 11 7 16l98 69c4 3 15 10 24 10z" />
    <glyph glyph-name="Idieresis" unicode="&#xcf;" 
d="M65 21v526c0 12 9 21 21 21h98c13 0 21 -9 21 -21v-526c0 -12 -8 -21 -21 -21h-98c-12 0 -21 9 -21 21zM-32 713c0 41 34 75 75 75s75 -34 75 -75s-34 -75 -75 -75s-75 34 -75 75zM150 713c0 41 34 75 75 75s75 -34 75 -75s-34 -75 -75 -75s-75 34 -75 75z" />
    <glyph glyph-name="Eth" unicode="&#xd0;" horiz-adv-x="597" 
d="M299 0h-190c-12 0 -21 9 -21 21v188h-57c-12 0 -21 8 -21 21v93c0 12 9 21 21 21h57v203c0 12 9 21 21 21h190c160 0 273 -126 273 -286s-113 -282 -273 -282zM326 209h-98v-77h57c85 0 147 62 147 147s-62 154 -147 154h-57v-89h98c12 0 21 -9 21 -21v-93
c0 -13 -9 -21 -21 -21z" />
    <glyph glyph-name="Ntilde" unicode="&#xd1;" horiz-adv-x="625" 
d="M65 21v533c0 13 9 20 26 20l329 -212v176c0 17 11 30 30 30h80c17 0 30 -13 30 -30v-517c0 -12 -9 -21 -21 -21h-98c-13 0 -21 9 -21 21v173l-215 141v-314c0 -12 -9 -21 -21 -21h-98c-13 0 -21 9 -21 21zM417 767l26 -68c0 -11 -3 -19 -10 -22c-27 -23 -59 -39 -94 -39
c-40 0 -67 33 -107 33c-17 0 -28 -3 -41 -14c-7 -3 -8 -2 -11 -2c-9 0 -15 3 -18 10l-24 62c-1 5 -2 9 -2 11c0 7 3 13 9 17c27 21 54 36 87 36c46 0 75 -33 108 -33c20 0 33 5 48 16c7 3 7 3 10 3c8 0 15 -6 19 -10z" />
    <glyph glyph-name="Yacute" unicode="&#xdd;" horiz-adv-x="568" 
d="M553 542l-199 -330v-191c0 -12 -9 -21 -21 -21h-98c-13 0 -21 9 -21 21v191l-199 330c0 16 9 26 24 26h95c19 0 28 -10 32 -22l118 -193l118 193c4 12 13 22 32 22h95c15 0 24 -10 24 -26zM249 661l53 127c7 11 7 18 20 18h97c13 0 21 -10 21 -23l-88 -129
c-5 -8 -14 -16 -25 -16h-57c-13 0 -21 10 -21 23z" />
    <glyph glyph-name="yacute" unicode="&#xfd;" horiz-adv-x="443" 
d="M433 374l-250 -523c-5 -12 -13 -22 -32 -22h-95c-15 0 -24 10 -24 26l119 253l-126 266c0 16 9 26 24 26h93c19 0 26 -10 31 -22l56 -115l55 115c5 12 12 22 31 22h94c15 0 24 -10 24 -26zM186 499l53 127c7 11 7 18 20 18h97c13 0 21 -10 21 -23l-88 -129
c-5 -8 -14 -16 -25 -16h-57c-13 0 -21 10 -21 23z" />
    <glyph glyph-name="ugrave" unicode="&#xf9;" horiz-adv-x="497" 
d="M411 0h-51c-17 0 -22 4 -29 20l-5 21c-27 -39 -72 -46 -105 -46c-115 0 -166 86 -166 181v203c0 12 8 21 21 21h98c12 0 21 -9 21 -21v-199c0 -35 3 -63 51 -63c33 0 46 28 46 63v199c0 12 8 21 21 21h98c12 0 21 -9 21 -21v-358c0 -12 -9 -21 -21 -21zM239 626l53 -127
c0 -13 -8 -23 -21 -23h-57c-11 0 -20 8 -25 16l-88 129c0 13 8 23 21 23h97c13 0 13 -7 20 -18z" />
    <glyph glyph-name="uacute" unicode="&#xfa;" horiz-adv-x="497" 
d="M411 0h-51c-17 0 -22 4 -29 20l-5 21c-27 -39 -72 -46 -105 -46c-115 0 -166 86 -166 181v203c0 12 8 21 21 21h98c12 0 21 -9 21 -21v-199c0 -35 3 -63 51 -63c33 0 46 28 46 63v199c0 12 8 21 21 21h98c12 0 21 -9 21 -21v-358c0 -12 -9 -21 -21 -21zM194 499l53 127
c7 11 7 18 20 18h97c13 0 21 -10 21 -23l-88 -129c-5 -8 -14 -16 -25 -16h-57c-13 0 -21 10 -21 23z" />
    <glyph glyph-name="ucircumflex" unicode="&#xfb;" horiz-adv-x="497" 
d="M411 0h-51c-17 0 -22 4 -29 20l-5 21c-27 -39 -72 -46 -105 -46c-115 0 -166 86 -166 181v203c0 12 8 21 21 21h98c12 0 21 -9 21 -21v-199c0 -35 3 -63 51 -63c33 0 46 28 46 63v199c0 12 8 21 21 21h98c12 0 21 -9 21 -21v-358c0 -12 -9 -21 -21 -21zM236 644h20
c9 0 20 -7 24 -10l98 -69c5 -5 7 -11 7 -16s-2 -9 -5 -13l-46 -54c-3 -4 -7 -6 -12 -6c-3 0 -8 1 -14 4l-62 46l-62 -46c-6 -3 -11 -4 -14 -4c-5 0 -9 2 -12 6l-46 54c-3 4 -5 8 -5 13s2 11 7 16l98 69c4 3 15 10 24 10z" />
    <glyph glyph-name="scaron" unicode="&#x161;" horiz-adv-x="409" 
d="M86 135c10 -7 68 -25 112 -25c15 0 35 2 35 13c0 35 -191 39 -191 155c0 87 78 127 171 127c48 0 98 -17 120 -25c4 -2 8 -6 12 -13c0 -3 0 -7 -1 -10l-17 -71c-3 -7 -5 -11 -21 -11c-7 0 -39 11 -75 11c-37 0 -47 -2 -47 -15c0 -32 189 -53 189 -149
c0 -103 -94 -127 -174 -127c-47 0 -98 10 -149 42c-4 3 -10 9 -10 17c1 0 -1 6 20 70c4 9 12 13 17 13c3 0 6 -1 9 -2zM217 476h-20c-9 0 -20 7 -24 10l-98 69c-5 5 -7 11 -7 16s2 9 5 13l46 54c3 4 7 6 12 6c3 0 8 -1 14 -4l62 -46l62 46c6 3 11 4 14 4c5 0 9 -2 12 -6
l46 -54c3 -4 5 -8 5 -13s-2 -11 -7 -16l-98 -69c-4 -3 -15 -10 -24 -10z" />
    <glyph glyph-name="Scaron" unicode="&#x160;" horiz-adv-x="508" 
d="M61 49c-4 3 -11 12 -11 19c0 5 1 8 2 10l34 63c4 8 12 11 19 11c5 0 8 -1 11 -2c20 -12 70 -33 137 -33c33 0 78 14 78 38c0 68 -278 58 -278 249c0 107 74 171 207 171c64 0 139 -26 171 -39c4 -3 9 -7 12 -18c0 -5 0 -8 -1 -11l-32 -74c-3 -7 -13 -14 -21 -14l-11 3
c-24 8 -86 21 -115 21c-64 0 -70 -32 -70 -39c0 -69 278 -71 278 -248c0 -104 -120 -161 -204 -161c-65 0 -137 11 -206 54zM267 639h-20c-9 0 -20 7 -24 10l-98 69c-5 5 -7 11 -7 16s2 9 5 13l46 54c3 4 7 6 12 6c3 0 8 -1 14 -4l62 -46l62 46c6 3 11 4 14 4
c5 0 9 -2 12 -6l46 -54c3 -4 5 -8 5 -13s-2 -11 -7 -16l-98 -69c-4 -3 -15 -10 -24 -10z" />
    <glyph glyph-name="multiply" unicode="&#xd7;" horiz-adv-x="442" 
d="M286 59l-65 65l-65 -65c-5 -5 -10 -7 -16 -7s-11 3 -15 8l-52 52c-5 4 -8 9 -8 16c0 5 2 10 7 15l66 65c-23 23 -43 42 -66 65c-3 3 -7 10 -7 15c0 7 3 10 6 14l55 55c5 3 9 6 14 6c7 0 12 -4 15 -7l66 -65l66 65c3 3 8 7 15 7c5 0 9 -3 14 -6l55 -55c3 -4 6 -7 6 -14
c0 -5 -4 -12 -7 -15c-23 -23 -43 -42 -66 -65l66 -65c5 -5 7 -10 7 -15c0 -7 -3 -12 -8 -16l-52 -52c-4 -5 -9 -8 -15 -8s-11 2 -16 7z" />
    <glyph glyph-name="divide" unicode="&#xf7;" horiz-adv-x="475" 
d="M410 263v-77c0 -12 -8 -21 -21 -21h-303c-12 0 -21 9 -21 21v77c0 12 9 21 21 21h303c13 0 21 -9 21 -21zM170 61c0 39 28 68 67 68s68 -29 68 -68s-29 -67 -68 -67s-67 28 -67 67zM170 388c0 39 28 68 67 68s68 -29 68 -68s-29 -67 -68 -67s-67 28 -67 67z" />
    <glyph glyph-name="zcaron" unicode="&#x17e;" horiz-adv-x="425" 
d="M40 28l134 242h-118c-12 0 -21 8 -21 21v88c0 12 9 21 21 21h313c11 0 20 -7 20 -19c0 -4 -1 -7 -2 -9l-132 -243h114c12 0 21 -9 21 -21v-87c0 -13 -9 -21 -21 -21h-311c-11 0 -20 7 -20 19c0 4 1 7 2 9zM227 476h-20c-9 0 -20 7 -24 10l-98 69c-5 5 -7 11 -7 16
s2 9 5 13l46 54c3 4 7 6 12 6c3 0 8 -1 14 -4l62 -46l62 46c6 3 11 4 14 4c5 0 9 -2 12 -6l46 -54c3 -4 5 -8 5 -13s-2 -11 -7 -16l-98 -69c-4 -3 -15 -10 -24 -10z" />
    <glyph glyph-name="ordmasculine" unicode="&#xba;" horiz-adv-x="426" 
d="M214 568c80 0 147 -65 147 -148c0 -80 -67 -149 -147 -149c-81 0 -149 69 -149 149c0 83 68 148 149 148zM214 373c21 0 39 19 39 46s-18 43 -39 43c-23 0 -41 -16 -41 -43s18 -46 41 -46z" />
    <glyph glyph-name="guillemotright" unicode="&#xbb;" horiz-adv-x="612" 
d="M396 205l-76 179c-1 3 -2 6 -2 9c0 12 10 19 21 19h106c12 0 20 -8 24 -17l78 -187c0 -3 -1 -7 -2 -11l-75 -180c-4 -8 -12 -17 -24 -17h-106c-11 0 -21 8 -21 19c0 3 1 6 2 9zM143 205l-76 179c-1 3 -2 6 -2 9c0 12 10 19 21 19h106c12 0 20 -8 24 -17l78 -187
c0 -3 -1 -7 -2 -11l-75 -180c-4 -8 -12 -17 -24 -17h-106c-11 0 -21 8 -21 19c0 3 1 6 2 9z" />
    <glyph glyph-name="cent" unicode="&#xa2;" horiz-adv-x="637" 
d="M516 162l48 -53c3 -3 7 -8 7 -15c0 -5 -2 -11 -6 -16c-41 -51 -93 -72 -157 -79v-63c0 -12 -9 -21 -22 -21h-85c-12 0 -21 9 -21 21v68c-125 32 -215 146 -215 282c0 133 90 248 215 280v68c0 12 9 21 21 21h85c13 0 22 -9 22 -21v-62c60 -11 116 -36 159 -79
c3 -5 5 -11 5 -16c0 -6 -2 -11 -6 -15l-61 -54c-4 -4 -9 -6 -14 -6c-6 0 -12 2 -19 6c-31 27 -75 36 -118 36c-86 0 -149 -74 -149 -161s69 -165 150 -165c55 0 73 1 129 41c5 5 11 8 18 8c5 0 9 -2 14 -5z" />
    <glyph glyph-name="registered" unicode="&#xae;" horiz-adv-x="703" 
d="M351 574c159 0 287 -131 287 -290c0 -157 -128 -289 -287 -289c-157 0 -286 132 -286 289c0 159 129 290 286 290zM351 67c115 0 215 104 215 217c0 115 -100 219 -215 219c-113 0 -214 -104 -214 -219c0 -113 101 -217 214 -217zM332 308h26c13 0 25 5 25 21
c0 17 -12 23 -25 23h-26v-44zM466 138h-66c-11 0 -14 6 -17 13l-38 68h-13v-66c0 -8 -5 -15 -16 -15h-70c-11 0 -15 7 -15 15v279c0 10 5 15 15 15h104c107 0 134 -60 134 -119c0 -40 -23 -76 -52 -95l50 -77c0 -9 -7 -18 -16 -18z" />
    <glyph glyph-name="acute" unicode="&#xb4;" horiz-adv-x="321" 
d="M65 423l53 127c7 11 7 18 20 18h97c13 0 21 -10 21 -23l-88 -129c-5 -8 -14 -16 -25 -16h-57c-13 0 -21 10 -21 23z" />
    <glyph glyph-name="brokenbar" unicode="&#xa6;" 
d="M205 694v-273c0 -12 -9 -21 -22 -21h-97c-12 0 -21 9 -21 21v273c0 12 9 21 21 21h97c13 0 22 -9 22 -21zM205 123v-273c0 -12 -9 -21 -22 -21h-97c-12 0 -21 9 -21 21v273c0 12 9 21 21 21h97c13 0 22 -9 22 -21z" />
    <glyph glyph-name="dieresis" unicode="&#xa8;" horiz-adv-x="509" 
d="M65 493c0 41 34 75 75 75s75 -34 75 -75s-34 -75 -75 -75s-75 34 -75 75zM294 493c0 41 34 75 75 75s75 -34 75 -75s-34 -75 -75 -75s-75 34 -75 75z" />
    <glyph glyph-name="guillemotleft" unicode="&#xab;" horiz-adv-x="612" 
d="M292 384l-76 -179l75 -177c1 -3 2 -6 2 -9c0 -11 -10 -19 -21 -19h-106c-12 0 -20 9 -24 17l-75 180c-1 4 -2 8 -2 11l78 187c4 9 12 17 24 17h106c11 0 21 -7 21 -19c0 -3 -1 -6 -2 -9zM545 384l-76 -179l75 -177c1 -3 2 -6 2 -9c0 -11 -10 -19 -21 -19h-106
c-12 0 -20 9 -24 17l-75 180c-1 4 -2 8 -2 11l78 187c4 9 12 17 24 17h106c11 0 21 -7 21 -19c0 -3 -1 -6 -2 -9z" />
    <glyph glyph-name="Oslash" unicode="&#xd8;" horiz-adv-x="656" 
d="M155 -40l28 74c-87 51 -143 143 -143 251c0 160 128 290 288 290c19 0 38 -2 57 -6l18 48c4 8 11 16 23 16h52c12 0 21 -9 21 -21l-28 -75c87 -51 145 -144 145 -252c0 -160 -128 -290 -288 -290c-21 0 -40 2 -59 6l-18 -47c-4 -8 -11 -16 -23 -16h-52
c-13 0 -21 10 -21 22zM313 117h14c87 0 149 78 149 165c0 51 -21 94 -54 125zM180 282c0 -48 18 -93 49 -124l108 284c-4 0 -7 1 -10 1c-85 0 -147 -74 -147 -161z" />
    <glyph glyph-name="ccedilla" unicode="&#xe7;" horiz-adv-x="418" 
d="M246 117c17 0 35 2 56 17c9 6 17 9 24 9s14 -3 18 -8l39 -41c4 -5 10 -14 10 -22c0 -7 -2 -14 -6 -21c-33 -36 -71 -50 -110 -54c-1 -9 -1 -16 -1 -17l8 -5c31 -20 50 -32 50 -65c0 -54 -48 -69 -93 -69c-39 0 -65 7 -98 34c-3 3 -5 5 -5 10c0 3 1 6 3 10l18 31
c3 3 6 5 14 5c7 -1 29 -19 57 -19c11 0 18 0 18 7c0 5 -21 17 -63 36l5 46c-92 22 -160 106 -160 201c0 112 94 203 209 203c51 0 106 -17 145 -53c4 -7 6 -17 6 -20c0 -9 -5 -17 -9 -21l-41 -52c-7 -5 -15 -7 -18 -7h-6c-6 2 -10 3 -11 4l-2 1c-15 7 -37 16 -65 16
c-37 0 -68 -27 -68 -72s32 -84 76 -84z" />
    <glyph glyph-name="cedilla" unicode="&#xb8;" horiz-adv-x="326" 
d="M112 -46l6 43h87c-1 -11 -2 -15 -2 -18l8 -5c31 -20 50 -32 50 -65c0 -54 -48 -69 -93 -69c-39 0 -65 7 -98 34c-3 3 -5 5 -5 10c0 3 1 6 3 10l18 31c3 3 6 5 14 5c7 -1 29 -19 57 -19c11 0 18 0 18 7c0 5 -21 17 -63 36z" />
    <glyph glyph-name="Ccedilla" unicode="&#xc7;" horiz-adv-x="577" 
d="M270 -45l4 45c-135 24 -234 141 -234 285c0 160 127 290 290 290c80 0 156 -28 212 -83c3 -5 5 -11 5 -16c0 -6 -2 -11 -6 -15l-61 -54c-4 -4 -9 -6 -14 -6c-6 0 -12 2 -19 6c-31 27 -75 36 -118 36c-86 0 -149 -74 -149 -161s69 -165 150 -165c55 0 73 1 129 41
c5 5 11 8 18 8c5 0 9 -2 14 -5l48 -53c3 -3 7 -8 7 -15c0 -5 -2 -11 -6 -16c-47 -56 -106 -76 -178 -80c-1 -8 -1 -16 -1 -17l8 -5c31 -20 50 -32 50 -65c0 -54 -48 -69 -93 -69c-39 0 -65 7 -98 34c-3 3 -5 5 -5 10c0 3 1 6 3 10l18 31c3 3 6 5 14 5c7 -1 29 -19 57 -19
c11 0 18 0 18 7c0 5 -21 17 -63 36z" />
    <glyph glyph-name="oslash" unicode="&#xf8;" horiz-adv-x="477" 
d="M238 -5c-8 0 -16 1 -23 2l-16 -43c-4 -8 -11 -16 -23 -16h-52c-13 0 -21 10 -21 22l25 66c-60 35 -98 98 -98 170c0 112 95 209 208 209c11 0 22 -1 32 -3l15 38c4 8 11 16 23 16h52c12 0 21 -9 21 -21l-26 -68c56 -39 92 -102 92 -171c0 -111 -97 -201 -209 -201z
M170 195c0 -13 3 -25 8 -37l43 113c-29 -8 -51 -37 -51 -76zM307 195c0 11 -2 21 -6 30l-39 -103c27 11 45 40 45 73z" />
    <glyph glyph-name="exclamdown" unicode="&#xa1;" horiz-adv-x="273" 
d="M67 498c0 39 31 70 70 70s70 -31 70 -70s-31 -70 -70 -70s-70 31 -70 70zM65 16l13 342c0 14 7 21 21 21h74c11 0 20 -9 21 -21l14 -342c0 -12 -9 -21 -22 -21h-100c-12 0 -21 9 -21 21z" />
    <glyph glyph-name="Thorn" unicode="&#xde;" horiz-adv-x="517" 
d="M205 546v-62h120c73 0 136 -44 163 -115c9 -24 14 -51 14 -81c0 -54 -17 -100 -45 -133c-32 -39 -79 -61 -132 -61h-120v-70c0 -12 -10 -24 -22 -24h-94c-13 0 -24 11 -24 23v522c0 12 10 23 23 23h94c12 0 23 -10 23 -22zM205 229h113c24 0 44 19 44 58s-20 56 -44 56
h-113v-114z" />
    <glyph glyph-name="lessequal" unicode="&#x2264;" horiz-adv-x="459" 
d="M394 98v-77c0 -12 -8 -21 -21 -21h-287c-12 0 -21 9 -21 21v77c0 12 9 21 21 21h287c13 0 21 -9 21 -21zM376 417l-163 -59l171 -66c5 -3 10 -4 10 -16v-100c0 -12 -10 -21 -23 -21l-297 123c-6 4 -9 10 -9 17v127c0 7 3 13 9 16l297 120c13 0 23 -8 23 -21v-99
c0 -13 -7 -14 -18 -21z" />
    <glyph glyph-name="greaterequal" unicode="&#x2265;" horiz-adv-x="459" 
d="M65 21v77c0 12 8 21 21 21h287c12 0 21 -9 21 -21v-77c0 -12 -9 -21 -21 -21h-287c-13 0 -21 9 -21 21zM246 358l-163 59c-11 7 -18 8 -18 21v99c0 13 10 21 23 21l297 -120c6 -3 9 -9 9 -16v-127c0 -7 -3 -13 -9 -17l-297 -123c-13 0 -23 9 -23 21v100c0 12 5 13 10 16z
" />
    <glyph glyph-name="mu" unicode="&#xb5;" horiz-adv-x="507" 
d="M421 0h-51c-17 0 -22 4 -29 20l-5 21c-27 -39 -49 -46 -82 -46c-7 0 -39 2 -49 14v-159c0 -12 -9 -21 -21 -21h-98c-13 0 -21 9 -21 21v529c0 12 8 21 21 21h98c12 0 21 -9 21 -21v-199c0 -35 3 -63 51 -63c33 0 46 28 46 63v199c0 12 8 21 21 21h98c12 0 21 -9 21 -21
v-358c0 -12 -9 -21 -21 -21z" />
    <glyph glyph-name="guilsinglleft" unicode="&#x2039;" horiz-adv-x="446" 
d="M363 300l-164 -82l172 -86c5 -3 10 -4 10 -16v-100c0 -12 -10 -21 -23 -21l-284 143c-6 4 -9 10 -9 17v127c0 7 3 13 9 16l284 143c13 0 23 -8 23 -21v-99c0 -13 -7 -14 -18 -21z" />
    <glyph glyph-name="guilsinglright" unicode="&#x203a;" horiz-adv-x="446" 
d="M247 218l-164 82c-11 7 -18 8 -18 21v99c0 13 10 21 23 21l284 -143c6 -3 9 -9 9 -16v-127c0 -7 -3 -13 -9 -17l-284 -143c-13 0 -23 9 -23 21v100c0 12 5 13 10 16z" />
    <glyph glyph-name="circumflex" unicode="&#x2c6;" horiz-adv-x="408" 
d="M194 568h20c9 0 20 -7 24 -10l98 -69c5 -5 7 -11 7 -16s-2 -9 -5 -13l-46 -54c-3 -4 -7 -6 -12 -6c-3 0 -8 1 -14 4l-62 46l-62 -46c-6 -3 -11 -4 -14 -4c-5 0 -9 2 -12 6l-46 54c-3 4 -5 8 -5 13s2 11 7 16l98 69c4 3 15 10 24 10z" />
    <glyph glyph-name="caron" unicode="&#x2c7;" horiz-adv-x="408" 
d="M214 400h-20c-9 0 -20 7 -24 10l-98 69c-5 5 -7 11 -7 16s2 9 5 13l46 54c3 4 7 6 12 6c3 0 8 -1 14 -4l62 -46l62 46c6 3 11 4 14 4c5 0 9 -2 12 -6l46 -54c3 -4 5 -8 5 -13s-2 -11 -7 -16l-98 -69c-4 -3 -15 -10 -24 -10z" />
    <glyph glyph-name="breve" unicode="&#x2d8;" horiz-adv-x="507" 
d="M253 384c-114 0 -188 69 -188 163c0 12 9 21 22 21h88c13 0 22 -9 22 -21c0 -46 44 -49 57 -49s57 3 57 49c0 12 9 21 22 21h87c13 0 22 -9 22 -21c0 -94 -73 -163 -189 -163z" />
    <glyph glyph-name="germandbls" unicode="&#xdf;" horiz-adv-x="553" 
d="M237 568h98c96 0 173 -77 173 -170c0 -43 -14 -80 -42 -112c24 -29 42 -76 42 -116c0 -96 -77 -170 -173 -170h-66c-13 0 -21 9 -21 21v90c0 14 7 21 21 21h46c29 0 53 14 53 43c0 22 -5 49 -49 49h-48c-12 0 -21 9 -21 21v77c0 13 9 21 21 21h45c28 0 52 10 52 46
c0 28 -24 44 -52 44h-60c-28 0 -51 -24 -51 -52v-360c0 -12 -9 -21 -21 -21h-98c-12 0 -21 9 -21 21v377c0 93 76 170 172 170z" />
    <glyph glyph-name="fraction" unicode="&#x2044;" horiz-adv-x="543" 
d="M478 635l-277 -738c-5 -11 -15 -23 -32 -23h-74c-19 0 -30 14 -30 33l278 740c7 11 15 21 31 21h74c19 0 30 -14 30 -33z" />
    <glyph glyph-name="Zcaron" unicode="&#x17d;" horiz-adv-x="495" 
d="M444 0h-399c-11 0 -20 7 -20 19c0 4 1 7 2 9l224 405h-204c-12 0 -21 8 -21 21v93c0 12 9 21 21 21h403c11 0 20 -7 20 -19c0 -4 -1 -7 -2 -9l-225 -410h201c12 0 21 -9 21 -21v-87c0 -13 -9 -21 -21 -22zM260 639h-20c-9 0 -20 7 -24 10l-98 69c-5 5 -7 11 -7 16
s2 9 5 13l46 54c3 4 7 6 12 6c3 0 8 -1 14 -4l62 -46l62 46c6 3 11 4 14 4c5 0 9 -2 12 -6l46 -54c3 -4 5 -8 5 -13s-2 -11 -7 -16l-98 -69c-4 -3 -15 -10 -24 -10z" />
    <glyph glyph-name="florin" unicode="&#x192;" horiz-adv-x="380" 
d="M264 379h56c12 0 21 -8 21 -21v-89c0 -12 -9 -21 -21 -21h-84l-84 -400c-1 -13 -8 -19 -21 -19h-100c-12 0 -21 10 -21 23l82 396h-50c-12 0 -21 9 -21 21v89c0 13 9 21 21 21h78c19 117 60 189 154 189c17 0 64 0 104 -24c4 -3 10 -7 10 -15c0 -3 0 -9 -1 -12l-25 -73
c-4 -7 -5 -9 -12 -9c-4 0 -8 0 -16 1c-15 3 -26 4 -34 4c-23 -1 -28 -20 -36 -61z" />
    <glyph glyph-name="eth" unicode="&#xf0;" horiz-adv-x="503" 
d="M418 432h-44l77 -139c12 -21 22 -61 22 -89c0 -139 -106 -209 -220 -209c-116 0 -223 70 -223 209c0 108 97 183 204 194l-19 34h-85c-12 0 -21 9 -21 21v41c0 12 9 21 21 21h40l-15 29c0 15 8 24 21 24h103c12 0 24 -5 32 -20l18 -33h89c13 0 21 -9 21 -21v-41
c0 -12 -8 -21 -21 -21zM252 269c-39 0 -82 -27 -82 -70c0 -53 38 -81 82 -81s81 28 81 81c0 43 -41 70 -81 70z" />
    <glyph glyph-name="paragraph" unicode="&#xb6;" horiz-adv-x="653" 
d="M251 -151l-1 275c-99 24 -185 117 -185 221c0 115 86 207 198 223h304c12 0 21 -9 21 -21v-698c0 -12 -9 -21 -21 -21h-98c-13 0 -21 9 -21 21v599h-57v-599c0 -12 -9 -21 -22 -21h-97c-12 0 -21 9 -21 21z" />
    <glyph glyph-name="uni00AD" unicode="&#xad;" horiz-adv-x="198" 
 />
    <glyph glyph-name="logicalnot" unicode="&#xac;" horiz-adv-x="460" 
d="M374 260c13 0 21 -9 21 -21v-177c0 -14 -7 -21 -21 -21h-86c-12 0 -21 8 -21 21v79h-181c-12 0 -21 9 -21 21v77c0 12 9 21 21 21h288z" />
    <glyph glyph-name="ordfeminine" unicode="&#xaa;" horiz-adv-x="397" 
d="M198 328c4 0 23 2 34 13v11c-3 7 -12 14 -32 14c-28 0 -42 -6 -42 -18c0 -13 13 -20 40 -20zM314 240h-43c-9 0 -17 14 -22 26c-21 -27 -64 -30 -72 -30c-32 0 -112 17 -112 108c0 71 46 98 111 98c21 0 40 -3 56 -9c-5 27 -20 35 -47 35c-8 0 -29 0 -56 -5
c-7 -1 -11 -2 -12 -2s-10 2 -14 10l-21 56c0 4 0 8 5 15c47 25 82 26 102 26c100 0 143 -58 143 -146v-164c0 -12 -6 -18 -18 -18z" />
    <glyph glyph-name="sterling" unicode="&#xa3;" horiz-adv-x="609" 
d="M88 336h51v18c0 125 93 221 219 221c60 0 129 -24 172 -64c3 -5 5 -14 5 -19c0 -7 -4 -13 -7 -16l-59 -55c-5 -5 -10 -7 -16 -7c-7 0 -14 3 -22 9c-23 15 -51 21 -74 21c-49 0 -78 -37 -78 -97v-11h95c15 0 22 -7 22 -22v-74c0 -14 -7 -21 -22 -21h-95v-88h244
c13 0 21 -9 21 -21v-89c0 -12 -8 -21 -21 -21h-437c-12 0 -21 9 -21 21v89c0 12 9 21 21 21c27 0 50 22 53 49v39h-51c-15 0 -22 7 -22 21v74c0 15 7 22 22 22z" />
    <glyph glyph-name="macron" unicode="&#xaf;" horiz-adv-x="460" 
d="M395 547v-77c0 -12 -8 -21 -21 -21h-288c-12 0 -21 9 -21 21v77c0 12 9 21 21 21h288c13 0 21 -9 21 -21z" />
    <glyph glyph-name="periodcentered" unicode="&#xb7;" horiz-adv-x="273" 
d="M65 197c0 40 31 72 71 72s72 -32 72 -72s-32 -71 -72 -71s-71 31 -71 71z" />
    <glyph glyph-name="section" unicode="&#xa7;" horiz-adv-x="537" 
d="M74 -4c-4 3 -9 9 -9 16c0 3 0 5 1 7l20 68c4 9 12 12 17 12c3 0 6 0 9 -1c15 -8 58 -27 109 -27c13 0 42 1 42 13c0 11 -26 18 -54 26c-60 16 -140 40 -140 140c0 59 32 94 83 113c-3 9 -2 20 -2 32c0 85 69 128 163 128c49 0 98 -16 121 -25c3 -1 7 -6 11 -13
c0 -3 0 -7 -1 -10l-21 -74c-3 -7 -10 -12 -18 -12c-1 0 -2 1 -3 1c-23 8 -63 14 -94 14s-30 -6 -30 -13c0 -11 27 -19 56 -28c60 -19 138 -43 138 -126c0 -67 -35 -102 -84 -119c3 -11 3 -17 3 -26c0 -101 -90 -136 -170 -136c-48 0 -96 7 -147 40zM211 241
c0 -18 48 -28 71 -28c20 0 48 3 48 16c0 26 -59 29 -83 29c-17 0 -36 -5 -36 -17z" />
    <glyph glyph-name="OE" unicode="&#x152;" horiz-adv-x="841" 
d="M526 347h192c12 0 21 -9 21 -21v-90c0 -13 -9 -21 -21 -21h-192v-83h244c12 0 21 -9 21 -21v-90c0 -13 -9 -21 -21 -21h-373c-23 -3 -47 -5 -72 -5c-161 0 -285 130 -285 290s127 290 290 290c23 0 44 -3 67 -7h373c12 0 21 -9 21 -21v-93c0 -13 -9 -21 -21 -21h-244v-86
zM330 117c23 0 40 0 56 3v316c-18 5 -37 7 -57 7c-86 0 -149 -74 -149 -161s69 -165 150 -165z" />
    <glyph glyph-name="oe" unicode="&#x153;" horiz-adv-x="727" 
d="M697 213v-33c0 -12 -9 -21 -21 -21h-225c8 -44 52 -49 79 -49c32 0 60 1 95 17c1 1 3 1 5 1c5 0 9 -2 13 -7l27 -45c3 -5 5 -9 5 -14c0 -7 -2 -12 -5 -17c-27 -37 -88 -50 -140 -50c-59 0 -113 14 -156 49c-37 -31 -85 -49 -136 -49c-113 0 -208 90 -208 201
c0 112 95 209 208 209c48 0 93 -18 128 -46c32 28 77 46 137 46c109 0 194 -64 194 -192zM237 117c39 0 70 35 70 78c0 45 -31 78 -70 78c-37 0 -67 -33 -67 -78c0 -43 30 -78 67 -78zM505 281c-20 0 -47 -2 -55 -45h107c-5 40 -37 45 -52 45z" />
    <glyph glyph-name="ae" unicode="&#xe6;" horiz-adv-x="662" 
d="M632 213v-33c0 -12 -9 -21 -21 -21h-225c8 -44 52 -49 79 -49c32 0 60 1 95 17c1 1 3 1 5 1c5 0 9 -2 13 -7l27 -45c3 -5 5 -9 5 -14c0 -7 -2 -12 -5 -17c-27 -37 -88 -50 -140 -50c-61 0 -120 16 -163 55c-45 -55 -128 -55 -134 -55c-28 0 -133 10 -133 133
c0 78 56 110 131 110c19 0 54 -3 77 -14c0 1 1 1 1 4c-11 36 -28 45 -63 45c-12 0 -39 1 -62 -6c-7 -1 -9 -1 -12 -1c-11 0 -21 3 -26 14l-22 62c-1 5 -2 10 -2 15c0 10 4 18 12 23c61 24 93 25 129 25c52 0 91 -10 122 -45c29 33 67 45 118 45c109 0 194 -64 194 -192z
M440 281c-20 0 -47 -2 -55 -45h107c-5 40 -37 45 -52 45zM208 107c5 0 24 2 37 13v24c-7 7 -21 14 -37 14c-29 0 -44 -8 -44 -25c0 -19 17 -26 44 -26z" />
    <glyph glyph-name="AE" unicode="&#xc6;" horiz-adv-x="904" 
d="M452 568h381c12 0 21 -9 21 -21v-93c0 -13 -9 -21 -21 -21h-244v-86h192c12 0 21 -9 21 -21v-90c0 -13 -9 -21 -21 -21h-192v-83h244c12 0 21 -9 21 -21v-90c0 -13 -9 -21 -21 -21h-363c-13 0 -22 9 -22 21v115h-170l-96 -121c-5 -7 -17 -16 -33 -16h-118
c-12 0 -21 9 -21 24l418 533c7 7 13 12 24 12zM368 252h80v104z" />
    <glyph glyph-name="thorn" unicode="&#xfe;" horiz-adv-x="505" 
d="M205 547v-156c28 11 56 14 79 14c109 0 191 -91 191 -203s-79 -207 -185 -207c-23 0 -54 0 -85 17v-162c0 -12 -8 -21 -21 -21h-98c-12 0 -21 9 -21 21v697c0 12 8 21 21 21h98c12 0 21 -9 21 -21zM271 117c36 0 64 31 64 84c0 44 -28 72 -64 72c-35 0 -66 -28 -66 -72
v-8c3 -49 31 -76 66 -76z" />
    <glyph glyph-name="dotlessi" unicode="&#x131;" 
d="M205 379v-358c0 -12 -9 -21 -21 -21h-98c-13 0 -21 9 -21 21v358c0 12 8 21 21 21h98c12 0 21 -9 21 -21z" />
    <glyph glyph-name="Lslash" unicode="&#x141;" horiz-adv-x="531" 
d="M310 282l-83 -18v-133h244c12 0 21 -9 21 -21v-89c0 -13 -9 -21 -21 -21h-363c-13 0 -21 9 -21 21v212l-54 -12c-13 0 -23 9 -23 21v77c0 11 9 20 20 21l57 12v195c0 12 8 21 21 21h98c12 0 21 -9 21 -21v-164l79 18c15 0 23 -9 23 -21v-77c0 -13 -6 -20 -19 -21z" />
    <glyph glyph-name="lslash" unicode="&#x142;" horiz-adv-x="317" 
d="M19 335l70 15v197c0 12 8 21 21 21h98c12 0 21 -9 21 -21v-166l65 14c15 0 23 -7 23 -20v-76c0 -11 -8 -20 -19 -21l-69 -15v-242c0 -12 -9 -21 -21 -21h-98c-13 0 -21 9 -21 21v211l-66 -14c-13 0 -23 9 -23 21v75c0 12 8 20 19 21z" />
    <glyph glyph-name="trademark" unicode="&#x2122;" horiz-adv-x="730" 
d="M142 272v204h-62c-7 0 -15 7 -15 16v61c0 11 8 15 15 15h228c10 0 15 -5 15 -15v-61c0 -11 -5 -16 -15 -16h-61v-204c0 -11 -6 -16 -17 -16h-72c-11 0 -16 5 -16 16zM507 318c-4 0 -7 3 -12 7l-41 42v-97c-3 -7 -5 -14 -16 -14h-73c-11 0 -16 5 -16 16v287
c5 8 7 11 15 11c7 0 12 -3 15 -8l117 -114c4 -7 8 -8 11 -8s7 1 11 8l117 114c3 5 8 8 15 8c8 0 10 -3 15 -11v-287c0 -11 -5 -16 -16 -16h-73c-11 0 -13 7 -16 14v97l-41 -42c-5 -4 -8 -7 -12 -7z" />
    <glyph glyph-name="dotaccent" unicode="&#x2d9;" horiz-adv-x="280" 
d="M65 493c0 41 34 75 75 75s75 -34 75 -75s-34 -75 -75 -75s-75 34 -75 75z" />
    <glyph glyph-name="ring" unicode="&#x2da;" horiz-adv-x="387" 
d="M195 568c68 0 127 -57 127 -129c0 -68 -59 -128 -127 -128c-69 0 -130 60 -130 128c0 72 61 129 130 129zM195 401c15 0 30 16 30 36c0 21 -15 36 -30 36c-19 0 -33 -13 -33 -36c0 -20 14 -36 33 -36z" />
    <glyph glyph-name="currency" unicode="&#xa4;" horiz-adv-x="519" 
d="M401 160l47 -43c4 -3 6 -8 6 -13c0 -4 -2 -9 -5 -14l-40 -43c-3 -4 -8 -6 -13 -6c-3 0 -7 1 -12 4l-45 41c-21 -11 -53 -21 -80 -21s-54 8 -78 21l-46 -41c-5 -3 -9 -4 -12 -4c-5 0 -10 2 -14 6l-39 43c-3 5 -5 10 -5 14c0 5 2 10 6 13l48 43c-7 16 -10 34 -10 55
c0 17 3 39 10 55l-48 43c-4 4 -6 9 -6 14c0 4 2 9 5 14l39 43c4 4 9 6 14 6c3 0 7 -1 12 -4l46 -42c23 15 50 22 80 22c23 0 58 -11 77 -22l46 42c5 3 9 4 12 4c5 0 10 -2 13 -6l40 -43c3 -5 5 -10 5 -14c0 -5 -2 -10 -6 -14l-48 -43c7 -16 10 -38 10 -55
c0 -19 -2 -39 -9 -55zM260 170c25 0 46 20 46 45s-21 46 -46 46s-47 -21 -47 -46s22 -45 47 -45z" />
    <glyph glyph-name="dagger" unicode="&#x2020;" horiz-adv-x="459" 
d="M160 276h-74c-12 0 -21 8 -21 21v92c0 13 9 22 21 22h74v136c0 12 8 21 21 21h97c12 0 21 -9 21 -21v-136h73c15 0 22 -7 22 -22v-92c0 -14 -7 -21 -22 -21h-73v-426c0 -12 -9 -21 -21 -21h-97c-13 0 -21 9 -21 21v426z" />
    <glyph glyph-name="daggerdbl" unicode="&#x2021;" horiz-adv-x="459" 
d="M86 135h74v141h-74c-12 0 -21 8 -21 21v92c0 13 9 22 21 22h74v136c0 12 8 21 21 21h97c12 0 21 -9 21 -21v-136h73c15 0 22 -7 22 -22v-92c0 -14 -7 -21 -22 -21h-73v-141h73c15 0 22 -7 22 -22v-92c0 -14 -7 -21 -22 -21h-73v-150c0 -12 -9 -21 -21 -21h-97
c-13 0 -21 9 -21 21v150h-74c-12 0 -21 8 -21 21v92c0 13 9 22 21 22z" />
    <glyph glyph-name="tilde" unicode="&#x2dc;" horiz-adv-x="449" 
d="M370 440c-27 -23 -62 -39 -97 -39c-38 0 -66 34 -104 34c-15 0 -23 -5 -34 -13c-8 -7 -17 -7 -20 -7c-9 0 -15 3 -18 10l-30 74c-1 5 -2 9 -2 11c0 8 7 18 14 22c28 21 55 36 90 36c38 0 67 -33 105 -33c17 0 28 4 40 15c8 7 17 7 20 7c9 0 15 -3 18 -10l30 -74
c1 -5 2 -9 2 -11c0 -8 -7 -18 -14 -22z" />
    <glyph glyph-name="ogonek" unicode="&#x2db;" horiz-adv-x="294" 
d="M82 0h62c-7 -11 -9 -21 -9 -28c0 -12 3 -21 22 -21c12 0 25 1 38 12c3 1 5 2 7 2c1 0 3 -1 6 -2l20 -44c1 -1 1 -2 1 -3c0 -3 -2 -4 -3 -7c-23 -23 -54 -29 -75 -29c-43 0 -86 12 -86 61c0 21 6 44 17 59z" />
    <glyph glyph-name="Delta" unicode="&#x2206;" horiz-adv-x="810" 
d="M404 315l-111 -183h226zM429 547l316 -523c0 -15 -9 -24 -21 -24h-638c-12 0 -21 9 -21 24l316 523c11 19 15 21 24 21s13 -2 24 -21z" />
    <glyph glyph-name="pi" unicode="&#x3c0;" horiz-adv-x="679" 
d="M593 405c13 0 21 -9 21 -21v-93c0 -14 -7 -21 -21 -21h-80v-249c0 -12 -8 -21 -21 -21h-97c-13 0 -21 9 -21 21v249h-68v-249c0 -12 -8 -21 -21 -21h-98c-12 0 -21 9 -21 21v249h-81c-13 0 -20 7 -20 21v93c0 12 8 21 20 21h508z" />
    <glyph glyph-name="hungarumlaut" unicode="&#x2dd;" horiz-adv-x="504" 
d="M65 389l38 158c5 14 14 21 27 21h93c13 0 21 -9 21 -24l-80 -161c-7 -7 -16 -15 -25 -15h-52c-13 0 -22 9 -22 21zM260 389l38 158c5 14 14 21 27 21h93c13 0 21 -9 21 -24l-80 -161c-7 -7 -16 -15 -25 -15h-52c-13 0 -22 9 -22 21z" />
    <glyph glyph-name="quotesinglbase" unicode="&#x201a;" horiz-adv-x="282" 
d="M65 -71l26 65c-13 13 -24 31 -24 54c0 43 32 75 76 75c40 0 74 -32 74 -75c0 -11 -4 -24 -8 -33l-47 -93c-5 -9 -12 -13 -21 -13h-61c-10 0 -15 7 -15 20z" />
    <glyph glyph-name="quotedblbase" unicode="&#x201e;" horiz-adv-x="485" 
d="M268 -71l26 65c-13 13 -24 31 -24 54c0 43 32 75 76 75c40 0 74 -32 74 -75c0 -11 -4 -24 -8 -33l-47 -93c-5 -9 -12 -13 -21 -13h-61c-10 0 -15 7 -15 20zM65 -71l26 65c-13 13 -24 31 -24 54c0 43 32 75 76 75c40 0 74 -32 74 -75c0 -11 -4 -24 -8 -33l-47 -93
c-5 -9 -12 -13 -21 -13h-61c-10 0 -15 7 -15 20z" />
    <glyph glyph-name="perthousand" unicode="&#x2030;" horiz-adv-x="1261" 
d="M675 544l-286 -528c-5 -7 -15 -16 -28 -16h-102c-12 0 -21 9 -21 24l286 527c4 8 12 17 24 17h106c13 0 21 -9 21 -24zM215 373c23 0 41 20 41 47s-18 42 -41 42s-41 -15 -41 -42s18 -47 41 -47zM215 271c-81 0 -150 69 -150 149c0 83 69 148 150 148s150 -65 150 -148
c0 -80 -69 -149 -150 -149zM694 97c23 0 41 20 41 47s-18 42 -41 42s-41 -15 -41 -42s18 -47 41 -47zM694 -5c-81 0 -150 69 -150 149c0 83 69 148 150 148s150 -65 150 -148c0 -80 -69 -149 -150 -149zM1046 97c23 0 41 20 41 47s-18 42 -41 42s-41 -15 -41 -42
s18 -47 41 -47zM1046 -5c-81 0 -150 69 -150 149c0 83 69 148 150 148s150 -65 150 -148c0 -80 -69 -149 -150 -149z" />
    <glyph glyph-name="partialdiff" unicode="&#x2202;" horiz-adv-x="540" 
d="M268 117c39 0 67 22 67 73c0 44 -29 69 -66 69c-35 0 -64 -25 -64 -69c0 -49 28 -73 63 -73zM335 364v29c-9 41 -27 50 -64 50c-12 0 -39 1 -62 -6c-7 -1 -9 -1 -12 -1c-11 0 -21 3 -26 14l-22 62c-1 5 -2 10 -2 15c0 10 4 18 12 23c61 24 93 25 129 25
c129 0 187 -71 187 -183v-371c0 -12 -9 -21 -21 -21h-60c-17 0 -22 4 -29 20l-5 21c-33 -41 -74 -46 -109 -46c-107 0 -186 95 -186 207s84 189 175 189c14 0 63 0 95 -27z" />
    <glyph glyph-name="Omega" unicode="&#x2126;" horiz-adv-x="762" 
d="M381 443c-93 0 -122 -52 -122 -147c0 -90 3 -127 35 -167v-108c0 -12 -9 -21 -21 -21h-187c-13 0 -21 9 -21 21v90c0 12 8 21 21 21h80c-28 39 -47 83 -47 167c0 160 102 276 262 276s262 -116 262 -276c0 -84 -19 -128 -47 -167h80c13 0 21 -9 21 -21v-90
c0 -12 -8 -21 -21 -21h-187c-12 0 -21 9 -21 21v108c32 40 35 77 35 167c0 95 -29 147 -122 147z" />
    <glyph glyph-name="product" unicode="&#x220f;" horiz-adv-x="679" 
d="M593 568c13 0 21 -9 21 -21v-93c0 -14 -7 -21 -21 -21h-80v-412c0 -12 -8 -21 -21 -21h-97c-13 0 -21 9 -21 21v412h-68v-412c0 -12 -8 -21 -21 -21h-98c-12 0 -21 9 -21 21v412h-81c-13 0 -20 7 -20 21v93c0 12 8 21 20 21h508z" />
    <glyph glyph-name="summation" unicode="&#x2211;" horiz-adv-x="516" 
d="M189 221l-124 325c0 15 11 22 22 22h343c12 0 21 -9 21 -21v-93c0 -12 -9 -21 -21 -21h-173l80 -212l-80 -212h173c12 0 21 -9 21 -21v-93c0 -12 -9 -21 -21 -21h-343c-11 0 -22 7 -22 22z" />
    <glyph glyph-name="minus" unicode="&#x2212;" horiz-adv-x="460" 
d="M395 238v-77c0 -12 -8 -21 -21 -21h-288c-12 0 -21 9 -21 21v77c0 12 9 21 21 21h288c13 0 21 -9 21 -21z" />
    <glyph glyph-name="lozenge" unicode="&#x25ca;" horiz-adv-x="538" 
d="M269 -5c-7 0 -15 4 -22 11l-182 270v11l182 270c7 7 15 11 22 11s15 -4 22 -11l182 -270v-11l-182 -270c-7 -7 -14 -11 -22 -11zM317 283l-48 72l-48 -72l48 -75z" />
    <glyph glyph-name="notequal" unicode="&#x2260;" horiz-adv-x="401" 
d="M318 390l-12 -36h9c12 0 21 -9 21 -21v-84c0 -13 -9 -21 -21 -21h-49l-15 -48h64c12 0 21 -9 21 -21v-84c0 -13 -9 -21 -21 -21h-104l-13 -42c-4 -9 -11 -18 -24 -18h-64c-12 0 -21 10 -21 23l11 37h-14c-12 0 -21 8 -21 21v84c0 12 9 21 21 21h54l16 48h-70
c-12 0 -21 8 -21 21v84c0 12 9 21 21 21h110l13 41c4 9 11 17 24 17h64c12 0 21 -9 21 -22z" />
    <glyph glyph-name="radical" unicode="&#x221a;" horiz-adv-x="822" 
d="M736 638c12 0 21 -9 21 -21v-93c0 -13 -9 -21 -21 -21h-186l-246 -493c-8 -8 -18 -15 -29 -15s-21 7 -29 15l-181 364c0 16 9 26 24 26h93c19 0 27 -10 32 -22l61 -142l180 380c5 12 13 22 32 22h249z" />
    <glyph glyph-name="infinity" unicode="&#x221e;" horiz-adv-x="926" 
d="M464 148c-47 -47 -104 -77 -184 -77c-107 0 -215 54 -215 182c0 117 82 183 215 183c57 0 127 -20 183 -85c56 65 126 85 183 85c133 0 215 -66 215 -183c0 -128 -108 -182 -215 -182c-80 0 -138 30 -182 77zM283 304c-33 0 -78 -9 -78 -52c0 -39 33 -59 78 -59
c51 0 82 5 127 53c-37 49 -79 58 -127 58zM643 304c-48 0 -90 -9 -127 -58c45 -48 75 -53 127 -53c45 0 78 20 78 59c0 43 -45 52 -78 52z" />
    <glyph glyph-name="integral" unicode="&#x222b;" horiz-adv-x="492" 
d="M427 516c0 -3 1 -4 -2 -11l-21 -61c-3 -4 -5 -7 -13 -7c-27 9 -33 9 -50 9c-21 0 -25 -10 -25 -65v-364c0 -148 -50 -183 -148 -183c-21 0 -103 12 -103 52c0 3 -1 4 2 11l21 61c3 4 5 7 13 7c27 -9 33 -9 50 -9c21 0 25 10 25 65v364c0 148 50 183 148 183
c21 0 103 -12 103 -52z" />
    <glyph glyph-name="approxequal" unicode="&#x2248;" horiz-adv-x="437" 
d="M346 175l26 -68c0 -11 -3 -19 -10 -22c-27 -23 -59 -39 -94 -39c-40 0 -67 33 -107 33c-17 0 -28 -3 -41 -14c-7 -3 -8 -2 -11 -2c-9 0 -15 3 -18 10l-24 62c-1 5 -2 9 -2 11c0 7 3 13 9 17c27 21 54 36 87 36c46 0 75 -33 108 -33c20 0 33 5 48 16c7 3 7 3 10 3
c8 0 15 -6 19 -10zM346 358l26 -68c0 -11 -3 -19 -10 -22c-27 -23 -59 -39 -94 -39c-40 0 -67 33 -107 33c-17 0 -28 -3 -41 -14c-7 -3 -8 -2 -11 -2c-9 0 -15 3 -18 10l-24 62c-1 5 -2 9 -2 11c0 7 3 13 9 17c27 21 54 36 87 36c46 0 75 -33 108 -33c20 0 33 5 48 16
c7 3 7 3 10 3c8 0 15 -6 19 -10z" />
    <glyph glyph-name="udieresis" unicode="&#xfc;" horiz-adv-x="497" 
d="M411 0h-51c-17 0 -22 4 -29 20l-5 21c-27 -39 -72 -46 -105 -46c-115 0 -166 86 -166 181v203c0 12 8 21 21 21h98c12 0 21 -9 21 -21v-199c0 -35 3 -63 51 -63c33 0 46 28 46 63v199c0 12 8 21 21 21h98c12 0 21 -9 21 -21v-358c0 -12 -9 -21 -21 -21zM80 551
c0 41 34 75 75 75s75 -34 75 -75s-34 -75 -75 -75s-75 34 -75 75zM263 551c0 41 34 75 75 75s75 -34 75 -75s-34 -75 -75 -75s-75 34 -75 75z" />
    <glyph glyph-name="aogonek" unicode="&#x105;" horiz-adv-x="446" 
d="M208 107c5 0 24 2 37 13v24c-7 7 -21 14 -37 14c-29 0 -44 -8 -44 -25c0 -19 17 -26 44 -26zM277 12c-1 3 0 5 -7 29c-34 -44 -93 -46 -102 -46c-28 0 -133 10 -133 133c0 78 56 110 131 110c20 0 56 -3 79 -15c-9 41 -27 50 -64 50c-12 0 -39 1 -62 -6
c-7 -1 -9 -1 -12 -1c-11 0 -21 3 -26 14l-22 62c-1 5 -2 10 -2 15c0 10 4 18 12 23c61 24 93 25 129 25c129 0 187 -71 187 -183v-210c0 -3 0 -6 -1 -7c-5 -16 -97 -35 -97 -54c0 -7 8 -11 24 -11c7 0 21 2 36 13c3 1 5 2 8 2c1 0 3 -1 6 -2l24 -42c1 -1 1 -2 1 -4
c0 -3 -2 -4 -3 -7c-27 -23 -55 -31 -91 -31c-47 0 -91 16 -91 55c0 17 2 51 76 88z" />
    <glyph glyph-name="Zdotaccent" unicode="&#x17b;" horiz-adv-x="495" 
d="M444 0h-399c-11 0 -20 7 -20 19c0 4 1 7 2 9l224 405h-204c-12 0 -21 8 -21 21v93c0 12 9 21 21 21h403c11 0 20 -7 20 -19c0 -4 -1 -7 -2 -9l-225 -410h201c12 0 21 -9 21 -21v-87c0 -13 -9 -21 -21 -22zM174 713c0 41 34 75 75 75s75 -34 75 -75s-34 -75 -75 -75
s-75 34 -75 75z" />
    <glyph glyph-name="Zacute" unicode="&#x179;" horiz-adv-x="495" 
d="M444 0h-399c-11 0 -20 7 -20 19c0 4 1 7 2 9l224 405h-204c-12 0 -21 8 -21 21v93c0 12 9 21 21 21h403c11 0 20 -7 20 -19c0 -4 -1 -7 -2 -9l-225 -410h201c12 0 21 -9 21 -21v-87c0 -13 -9 -21 -21 -22zM192 661l53 127c7 11 7 18 20 18h97c13 0 21 -10 21 -23
l-88 -129c-5 -8 -14 -16 -25 -16h-57c-13 0 -21 10 -21 23z" />
    <glyph glyph-name="Tcaron" unicode="&#x164;" horiz-adv-x="468" 
d="M46 568h376c12 0 21 -9 21 -21v-93c0 -13 -9 -21 -21 -21h-118v-412c0 -12 -9 -21 -21 -21h-98c-13 0 -21 9 -21 21v412h-118c-12 0 -21 8 -21 21v93c0 12 9 21 21 21zM245 639h-20c-9 0 -20 7 -24 10l-98 69c-5 5 -7 11 -7 16s2 9 5 13l46 54c3 4 7 6 12 6
c3 0 8 -1 14 -4l62 -46l62 46c6 3 11 4 14 4c5 0 9 -2 12 -6l46 -54c3 -4 5 -8 5 -13s-2 -11 -7 -16l-98 -69c-4 -3 -15 -10 -24 -10z" />
    <glyph glyph-name="Scedilla" unicode="&#x15e;" horiz-adv-x="508" 
d="M471 156c0 -87 -88 -144 -165 -157c-1 -11 -2 -19 -2 -20l8 -5c31 -20 50 -32 50 -65c0 -54 -48 -69 -93 -69c-39 0 -65 7 -98 34c-3 3 -5 5 -5 10c0 3 1 6 3 10l18 31c3 3 6 5 14 5c7 -1 29 -19 57 -19c11 0 18 0 18 7c0 5 -21 17 -63 36l5 43c-51 7 -105 20 -157 52
c-4 3 -11 12 -11 19c0 5 1 8 2 10l34 63c4 8 12 11 19 11c5 0 8 -1 11 -2c20 -12 70 -33 137 -33c33 0 78 14 78 38c0 68 -278 58 -278 249c0 107 74 171 207 171c64 0 139 -26 171 -39c4 -3 9 -7 12 -18c0 -5 0 -8 -1 -11l-32 -74c-3 -7 -13 -14 -21 -14l-11 3
c-24 8 -86 21 -115 21c-64 0 -70 -32 -70 -39c0 -69 278 -71 278 -248z" />
    <glyph glyph-name="Abreve" unicode="&#x102;" horiz-adv-x="604" 
d="M258 219h86l-42 87zM397 103h-190l-40 -86c-5 -8 -12 -17 -24 -17h-107c-12 0 -21 10 -21 23l258 533c7 8 17 15 29 15s22 -7 29 -15l258 -533c0 -13 -9 -23 -21 -23h-107c-12 0 -19 9 -24 17zM302 638c-114 0 -188 69 -188 163c0 12 9 21 22 21h88c13 0 22 -9 22 -21
c0 -46 44 -49 57 -49s57 3 57 49c0 12 9 21 22 21h87c13 0 22 -9 22 -21c0 -94 -73 -163 -189 -163z" />
    <glyph glyph-name="Racute" unicode="&#x154;" horiz-adv-x="552" 
d="M205 313h122c23 0 41 24 41 59c0 40 -18 55 -41 55h-122v-114zM366 22l-75 158h-86v-159c0 -12 -9 -21 -21 -21h-98c-13 0 -21 9 -21 21v526c0 12 8 21 21 21h249c99 0 176 -78 176 -187c0 -75 -33 -133 -89 -164l95 -191c0 -16 -9 -26 -24 -26h-95c-19 0 -28 10 -32 22z
M209 661l53 127c7 11 7 18 20 18h97c13 0 21 -10 21 -23l-88 -129c-5 -8 -14 -16 -25 -16h-57c-13 0 -21 10 -21 23z" />
    <glyph glyph-name="zdotaccent" unicode="&#x17c;" horiz-adv-x="425" 
d="M40 28l134 242h-118c-12 0 -21 8 -21 21v88c0 12 9 21 21 21h313c11 0 20 -7 20 -19c0 -4 -1 -7 -2 -9l-132 -243h114c12 0 21 -9 21 -21v-87c0 -13 -9 -21 -21 -21h-311c-11 0 -20 7 -20 19c0 4 1 7 2 9zM135 551c0 41 34 75 75 75s75 -34 75 -75s-34 -75 -75 -75
s-75 34 -75 75z" />
    <glyph glyph-name="Sacute" unicode="&#x15a;" horiz-adv-x="508" 
d="M61 49c-4 3 -11 12 -11 19c0 5 1 8 2 10l34 63c4 8 12 11 19 11c5 0 8 -1 11 -2c20 -12 70 -33 137 -33c33 0 78 14 78 38c0 68 -278 58 -278 249c0 107 74 171 207 171c64 0 139 -26 171 -39c4 -3 9 -7 12 -18c0 -5 0 -8 -1 -11l-32 -74c-3 -7 -13 -14 -21 -14l-11 3
c-24 8 -86 21 -115 21c-64 0 -70 -32 -70 -39c0 -69 278 -71 278 -248c0 -104 -120 -161 -204 -161c-65 0 -137 11 -206 54zM212 661l53 127c7 11 7 18 20 18h97c13 0 21 -10 21 -23l-88 -129c-5 -8 -14 -16 -25 -16h-57c-13 0 -21 10 -21 23z" />
    <glyph glyph-name="Lcaron" unicode="&#x13d;" horiz-adv-x="509" 
d="M65 21v526c0 12 8 21 21 21h98c12 0 21 -9 21 -21v-416h244c12 0 21 -9 21 -21v-89c0 -13 -9 -21 -21 -21h-363c-13 0 -21 9 -21 21zM285 374l26 65c-13 13 -24 31 -24 54c0 43 32 75 76 75c40 0 74 -32 74 -75c0 -11 -4 -24 -8 -33l-47 -93c-5 -9 -12 -13 -21 -13h-61
c-10 0 -15 7 -15 20z" />
    <glyph glyph-name="Cacute" unicode="&#x106;" horiz-adv-x="577" 
d="M540 77c-53 -64 -126 -82 -215 -82c-161 0 -285 130 -285 290s127 290 290 290c80 0 156 -28 212 -83c3 -5 5 -11 5 -16c0 -6 -2 -11 -6 -15l-61 -54c-4 -4 -9 -6 -14 -6c-6 0 -12 2 -19 6c-31 27 -75 36 -118 36c-86 0 -149 -74 -149 -161s69 -165 150 -165
c55 0 73 1 129 41c5 5 11 8 18 8c5 0 9 -2 14 -5l48 -53c3 -3 7 -8 7 -15c0 -5 -2 -11 -6 -16zM278 661l53 127c7 11 7 18 20 18h97c13 0 21 -10 21 -23l-88 -129c-5 -8 -14 -16 -25 -16h-57c-13 0 -21 10 -21 23z" />
    <glyph glyph-name="racute" unicode="&#x155;" horiz-adv-x="331" 
d="M305 274h-35c-51 0 -65 -30 -65 -62v-191c0 -12 -9 -21 -21 -21h-98c-13 0 -21 9 -21 21v358c0 12 8 21 21 21h70c12 0 21 -9 21 -21v-17c25 32 62 40 90 43h38c12 0 21 -9 21 -21v-89c0 -13 -9 -21 -21 -21zM131 499l53 127c7 11 7 18 20 18h97c13 0 21 -10 21 -23
l-88 -129c-5 -8 -14 -16 -25 -16h-57c-13 0 -21 10 -21 23z" />
    <glyph glyph-name="cacute" unicode="&#x107;" horiz-adv-x="418" 
d="M246 117c17 0 35 2 56 17c9 6 17 9 24 9s14 -3 18 -8l39 -41c4 -5 10 -14 10 -22c0 -7 -2 -14 -6 -21c-44 -47 -97 -56 -148 -56c-115 0 -209 95 -209 207s94 203 209 203c51 0 106 -17 145 -53c4 -7 6 -17 6 -20c0 -9 -5 -17 -9 -21l-41 -52c-7 -5 -15 -7 -18 -7h-6
c-6 2 -10 3 -11 4l-2 1c-15 7 -37 16 -65 16c-37 0 -68 -27 -68 -72s32 -84 76 -84zM172 499l53 127c7 11 7 18 20 18h97c13 0 21 -10 21 -23l-88 -129c-5 -8 -14 -16 -25 -16h-57c-13 0 -21 10 -21 23z" />
    <glyph glyph-name="zacute" unicode="&#x17a;" horiz-adv-x="425" 
d="M40 28l134 242h-118c-12 0 -21 8 -21 21v88c0 12 9 21 21 21h313c11 0 20 -7 20 -19c0 -4 -1 -7 -2 -9l-132 -243h114c12 0 21 -9 21 -21v-87c0 -13 -9 -21 -21 -21h-311c-11 0 -20 7 -20 19c0 4 1 7 2 9zM172 499l53 127c7 11 7 18 20 18h97c13 0 21 -10 21 -23
l-88 -129c-5 -8 -14 -16 -25 -16h-57c-13 0 -21 10 -21 23z" />
    <glyph glyph-name="scedilla" unicode="&#x15f;" horiz-adv-x="409" 
d="M373 122c0 -84 -63 -116 -130 -124c-1 -9 -2 -18 -2 -19l8 -5c31 -20 50 -32 50 -65c0 -54 -48 -69 -93 -69c-39 0 -65 7 -98 34c-3 3 -5 5 -5 10c0 3 1 6 3 10l18 31c3 3 6 5 14 5c7 -1 29 -19 57 -19c11 0 18 0 18 7c0 5 -21 17 -63 36l6 44c-35 5 -71 16 -106 39
c-4 3 -10 9 -10 17c1 0 -1 6 20 70c4 9 12 13 17 13c3 0 6 -1 9 -2c10 -7 68 -25 112 -25c15 0 35 2 35 13c0 35 -191 39 -191 155c0 87 78 127 171 127c48 0 98 -17 120 -25c4 -2 8 -6 12 -13c0 -3 0 -7 -1 -10l-17 -71c-3 -7 -5 -11 -21 -11c-7 0 -39 11 -75 11
c-37 0 -47 -2 -47 -15c0 -32 189 -53 189 -149z" />
    <glyph glyph-name="sacute" unicode="&#x15b;" horiz-adv-x="409" 
d="M86 135c10 -7 68 -25 112 -25c15 0 35 2 35 13c0 35 -191 39 -191 155c0 87 78 127 171 127c48 0 98 -17 120 -25c4 -2 8 -6 12 -13c0 -3 0 -7 -1 -10l-17 -71c-3 -7 -5 -11 -21 -11c-7 0 -39 11 -75 11c-37 0 -47 -2 -47 -15c0 -32 189 -53 189 -149
c0 -103 -94 -127 -174 -127c-47 0 -98 10 -149 42c-4 3 -10 9 -10 17c1 0 -1 6 20 70c4 9 12 13 17 13c3 0 6 -1 9 -2zM155 499l53 127c7 11 7 18 20 18h97c13 0 21 -10 21 -23l-88 -129c-5 -8 -14 -16 -25 -16h-57c-13 0 -21 10 -21 23z" />
    <glyph glyph-name="tcaron" unicode="&#x165;" horiz-adv-x="520" 
d="M312 8c-28 -11 -46 -13 -77 -13c-91 0 -143 37 -143 174v105h-51c-12 0 -21 8 -21 21v89c0 12 9 21 21 21h51v142c0 12 8 21 21 21h98c12 0 21 -9 21 -21v-142h69c12 0 21 -9 21 -21v-89c0 -13 -9 -21 -21 -21h-69v-92c0 -39 4 -65 32 -65c16 0 10 2 23 2c2 1 5 1 8 1
c8 0 17 -7 20 -15l12 -70c1 -3 1 -5 1 -8c0 -11 -12 -18 -16 -19zM368 374l26 65c-13 13 -24 31 -24 54c0 43 32 75 76 75c40 0 74 -32 74 -75c0 -11 -4 -24 -8 -33l-47 -93c-5 -9 -12 -13 -21 -13h-61c-10 0 -15 7 -15 20z" />
    <glyph glyph-name="nacute" unicode="&#x144;" horiz-adv-x="497" 
d="M86 400h51c17 0 22 -4 29 -20l5 -21c27 37 79 46 112 46c116 0 159 -86 159 -181v-203c0 -12 -8 -21 -21 -21h-98c-12 0 -21 9 -21 21v189c0 35 -3 63 -51 63c-33 0 -46 -28 -46 -63v-189c0 -12 -8 -21 -21 -21h-98c-12 0 -21 9 -21 21v358c0 12 9 21 21 21zM214 499
l53 127c7 11 7 18 20 18h97c13 0 21 -10 21 -23l-88 -129c-5 -8 -14 -16 -25 -16h-57c-13 0 -21 10 -21 23z" />
    <glyph glyph-name="ncaron" unicode="&#x148;" horiz-adv-x="497" 
d="M86 400h51c17 0 22 -4 29 -20l5 -21c27 37 79 46 112 46c116 0 159 -86 159 -181v-203c0 -12 -8 -21 -21 -21h-98c-12 0 -21 9 -21 21v189c0 35 -3 63 -51 63c-33 0 -46 -28 -46 -63v-189c0 -12 -8 -21 -21 -21h-98c-12 0 -21 9 -21 21v358c0 12 9 21 21 21zM265 476h-20
c-9 0 -20 7 -24 10l-98 69c-5 5 -7 11 -7 16s2 9 5 13l46 54c3 4 7 6 12 6c3 0 8 -1 14 -4l62 -46l62 46c6 3 11 4 14 4c5 0 9 -2 12 -6l46 -54c3 -4 5 -8 5 -13s-2 -11 -7 -16l-98 -69c-4 -3 -15 -10 -24 -10z" />
    <glyph glyph-name="ecaron" unicode="&#x11b;" horiz-adv-x="449" 
d="M238 476h-20c-9 0 -20 7 -24 10l-98 69c-5 5 -7 11 -7 16s2 9 5 13l46 54c3 4 7 6 12 6c3 0 8 -1 14 -4l62 -46l62 46c6 3 11 4 14 4c5 0 9 -2 12 -6l46 -54c3 -4 5 -8 5 -13s-2 -11 -7 -16l-98 -69c-4 -3 -15 -10 -24 -10zM419 213v-33c0 -12 -9 -21 -21 -21h-225
c8 -44 52 -49 79 -49c32 0 60 1 95 17c1 1 3 1 5 1c5 0 9 -2 13 -7l27 -45c3 -5 5 -9 5 -14c0 -7 -2 -12 -5 -17c-27 -37 -88 -50 -140 -50c-112 0 -222 56 -222 209c0 111 58 201 195 201c109 0 194 -64 194 -192zM227 281c-20 0 -47 -2 -55 -45h107c-5 40 -37 45 -52 45z
" />
    <glyph glyph-name="eogonek" unicode="&#x119;" horiz-adv-x="449" 
d="M419 213v-33c0 -12 -9 -21 -21 -21h-225c8 -44 52 -49 79 -49c32 0 60 1 95 17c1 1 3 1 5 1c5 0 9 -2 13 -7l27 -45c3 -5 5 -9 5 -14c0 -7 -2 -12 -5 -17c-17 -23 -47 -37 -79 -44c-7 -9 -9 -22 -9 -29c0 -12 3 -21 22 -21c12 0 25 1 38 12c3 1 5 2 7 2c1 0 3 -1 6 -2
l20 -44c1 -1 1 -2 1 -3c0 -3 -2 -4 -3 -7c-23 -23 -54 -29 -75 -29c-43 0 -86 12 -86 61c0 21 4 39 13 54c-109 3 -217 57 -217 209c0 111 58 201 195 201c109 0 194 -64 194 -192zM227 281c-20 0 -47 -2 -55 -45h107c-5 40 -37 45 -52 45z" />
    <glyph glyph-name="ccaron" unicode="&#x10d;" horiz-adv-x="418" 
d="M246 117c17 0 35 2 56 17c9 6 17 9 24 9s14 -3 18 -8l39 -41c4 -5 10 -14 10 -22c0 -7 -2 -14 -6 -21c-44 -47 -97 -56 -148 -56c-115 0 -209 95 -209 207s94 203 209 203c51 0 106 -17 145 -53c4 -7 6 -17 6 -20c0 -9 -5 -17 -9 -21l-41 -52c-7 -5 -15 -7 -18 -7h-6
c-6 2 -10 3 -11 4l-2 1c-15 7 -37 16 -65 16c-37 0 -68 -27 -68 -72s32 -84 76 -84zM239 476h-20c-9 0 -20 7 -24 10l-98 69c-5 5 -7 11 -7 16s2 9 5 13l46 54c3 4 7 6 12 6c3 0 8 -1 14 -4l62 -46l62 46c6 3 11 4 14 4c5 0 9 -2 12 -6l46 -54c3 -4 5 -8 5 -13
s-2 -11 -7 -16l-98 -69c-4 -3 -15 -10 -24 -10z" />
    <glyph glyph-name="Eogonek" unicode="&#x118;" horiz-adv-x="521" 
d="M324 0h-238c-12 0 -21 9 -21 21v526c0 12 9 21 21 21h363c12 0 21 -9 21 -21v-93c0 -13 -9 -21 -21 -21h-244v-86h192c12 0 21 -9 21 -21v-90c0 -13 -9 -21 -21 -21h-192v-83h244c12 0 21 -9 21 -21v-90c0 -13 -9 -21 -21 -21h-63c-7 -11 -9 -21 -9 -28
c0 -12 3 -21 22 -21c12 0 25 1 38 12c3 1 5 2 7 2c1 0 3 -1 6 -2l20 -44c1 -1 1 -2 1 -3c0 -3 -2 -4 -3 -7c-23 -23 -54 -29 -75 -29c-43 0 -86 12 -86 61c0 21 6 44 17 59z" />
    <glyph glyph-name="ohungarumlaut" unicode="&#x151;" horiz-adv-x="477" 
d="M237 117c39 0 70 35 70 78c0 45 -31 78 -70 78c-37 0 -67 -33 -67 -78c0 -43 30 -78 67 -78zM238 -5c-113 0 -208 90 -208 201c0 112 95 209 208 209c112 0 209 -97 209 -209c0 -111 -97 -201 -209 -201zM79 497l38 158c5 14 14 21 27 21h93c13 0 21 -9 21 -24l-80 -161
c-7 -7 -16 -15 -25 -15h-52c-13 0 -22 9 -22 21zM252 497l38 158c5 14 14 21 27 21h93c13 0 21 -9 21 -24l-80 -161c-7 -7 -16 -15 -25 -15h-52c-13 0 -22 9 -22 21z" />
    <glyph glyph-name="Ohungarumlaut" unicode="&#x150;" horiz-adv-x="656" 
d="M186 660l38 158c5 14 14 21 27 21h93c13 0 21 -9 21 -24l-80 -161c-7 -7 -16 -15 -25 -15h-52c-13 0 -22 9 -22 21zM359 660l38 158c5 14 14 21 27 21h93c13 0 21 -9 21 -24l-80 -161c-7 -7 -16 -15 -25 -15h-52c-13 0 -22 9 -22 21zM327 117c87 0 149 78 149 165
s-62 161 -149 161c-85 0 -147 -74 -147 -161s62 -165 147 -165zM328 -5c-160 0 -288 130 -288 290s128 290 288 290s288 -130 288 -290s-128 -290 -288 -290z" />
    <glyph glyph-name="Ncaron" unicode="&#x147;" horiz-adv-x="625" 
d="M65 21v533c0 13 9 20 26 20l329 -212v176c0 17 11 30 30 30h80c17 0 30 -13 30 -30v-517c0 -12 -9 -21 -21 -21h-98c-13 0 -21 9 -21 21v173l-215 141v-314c0 -12 -9 -21 -21 -21h-98c-13 0 -21 9 -21 21zM330 639h-20c-9 0 -20 7 -24 10l-98 69c-5 5 -7 11 -7 16
s2 9 5 13l46 54c3 4 7 6 12 6c3 0 8 -1 14 -4l62 -46l62 46c6 3 11 4 14 4c5 0 9 -2 12 -6l46 -54c3 -4 5 -8 5 -13s-2 -11 -7 -16l-98 -69c-4 -3 -15 -10 -24 -10z" />
    <glyph glyph-name="Nacute" unicode="&#x143;" horiz-adv-x="625" 
d="M65 21v533c0 13 9 20 26 20l329 -212v176c0 17 11 30 30 30h80c17 0 30 -13 30 -30v-517c0 -12 -9 -21 -21 -21h-98c-13 0 -21 9 -21 21v173l-215 141v-314c0 -12 -9 -21 -21 -21h-98c-13 0 -21 9 -21 21zM259 661l53 127c7 11 7 18 20 18h97c13 0 21 -10 21 -23
l-88 -129c-5 -8 -14 -16 -25 -16h-57c-13 0 -21 10 -21 23z" />
    <glyph glyph-name="Dcroat" unicode="&#x110;" horiz-adv-x="597" 
d="M299 0h-190c-12 0 -21 9 -21 21v188h-57c-12 0 -21 8 -21 21v93c0 12 9 21 21 21h57v203c0 12 9 21 21 21h190c160 0 273 -126 273 -286s-113 -282 -273 -282zM326 209h-98v-77h57c85 0 147 62 147 147s-62 154 -147 154h-57v-89h98c12 0 21 -9 21 -21v-93
c0 -13 -9 -21 -21 -21z" />
    <glyph glyph-name="Lacute" unicode="&#x139;" horiz-adv-x="509" 
d="M65 21v526c0 12 8 21 21 21h98c12 0 21 -9 21 -21v-416h244c12 0 21 -9 21 -21v-89c0 -13 -9 -21 -21 -21h-363c-13 0 -21 9 -21 21zM95 661l53 127c7 11 7 18 20 18h97c13 0 21 -10 21 -23l-88 -129c-5 -8 -14 -16 -25 -16h-57c-13 0 -21 10 -21 23z" />
    <glyph glyph-name="lcaron" unicode="&#x13e;" horiz-adv-x="415" 
d="M205 547v-526c0 -12 -9 -21 -21 -21h-98c-13 0 -21 9 -21 21v526c0 12 8 21 21 21h98c12 0 21 -9 21 -21zM263 374l26 65c-13 13 -24 31 -24 54c0 43 32 75 76 75c40 0 74 -32 74 -75c0 -11 -4 -24 -8 -33l-47 -93c-5 -9 -12 -13 -21 -13h-61c-10 0 -15 7 -15 20z" />
    <glyph glyph-name="Ccaron" unicode="&#x10c;" horiz-adv-x="577" 
d="M540 77c-53 -64 -126 -82 -215 -82c-161 0 -285 130 -285 290s127 290 290 290c80 0 156 -28 212 -83c3 -5 5 -11 5 -16c0 -6 -2 -11 -6 -15l-61 -54c-4 -4 -9 -6 -14 -6c-6 0 -12 2 -19 6c-31 27 -75 36 -118 36c-86 0 -149 -74 -149 -161s69 -165 150 -165
c55 0 73 1 129 41c5 5 11 8 18 8c5 0 9 -2 14 -5l48 -53c3 -3 7 -8 7 -15c0 -5 -2 -11 -6 -16zM330 639h-20c-9 0 -20 7 -24 10l-98 69c-5 5 -7 11 -7 16s2 9 5 13l46 54c3 4 7 6 12 6c3 0 8 -1 14 -4l62 -46l62 46c6 3 11 4 14 4c5 0 9 -2 12 -6l46 -54c3 -4 5 -8 5 -13
s-2 -11 -7 -16l-98 -69c-4 -3 -15 -10 -24 -10z" />
    <glyph glyph-name="Ecaron" unicode="&#x11a;" horiz-adv-x="520" 
d="M205 347h192c12 0 21 -9 21 -21v-90c0 -13 -9 -21 -21 -21h-192v-83h244c12 0 21 -9 21 -21v-90c0 -13 -9 -21 -21 -21h-363c-12 0 -21 9 -21 21v526c0 12 9 21 21 21h363c12 0 21 -9 21 -21v-93c0 -13 -9 -21 -21 -21h-244v-86zM275 639h-20c-9 0 -20 7 -24 10l-98 69
c-5 5 -7 11 -7 16s2 9 5 13l46 54c3 4 7 6 12 6c3 0 8 -1 14 -4l62 -46l62 46c6 3 11 4 14 4c5 0 9 -2 12 -6l46 -54c3 -4 5 -8 5 -13s-2 -11 -7 -16l-98 -69c-4 -3 -15 -10 -24 -10z" />
    <glyph glyph-name="Dcaron" unicode="&#x10e;" horiz-adv-x="574" 
d="M276 0h-190c-12 0 -21 9 -21 21v526c0 12 9 21 21 21h190c160 0 273 -126 273 -286s-113 -282 -273 -282zM262 132c85 0 147 62 147 147s-62 154 -147 154h-57v-301h57zM275 639h-20c-9 0 -20 7 -24 10l-98 69c-5 5 -7 11 -7 16s2 9 5 13l46 54c3 4 7 6 12 6
c3 0 8 -1 14 -4l62 -46l62 46c6 3 11 4 14 4c5 0 9 -2 12 -6l46 -54c3 -4 5 -8 5 -13s-2 -11 -7 -16l-98 -69c-4 -3 -15 -10 -24 -10z" />
    <glyph glyph-name="Aogonek" unicode="&#x104;" horiz-adv-x="604" 
d="M258 219h86l-42 87zM568 0h-78c-8 -11 -17 -22 -17 -33c0 -8 6 -16 23 -16c19 0 24 1 37 12c3 1 5 2 7 2c1 0 3 -1 6 -2l20 -44c1 -1 1 -2 1 -3c0 -3 -2 -4 -3 -7c-24 -20 -39 -29 -75 -29c-43 0 -86 17 -86 66c0 17 17 51 36 67l-42 90h-190l-40 -86
c-5 -8 -12 -17 -24 -17h-107c-12 0 -21 10 -21 23l258 533c7 8 17 15 29 15s22 -7 29 -15l258 -533c0 -13 -9 -23 -21 -23z" />
    <glyph glyph-name="abreve" unicode="&#x103;" horiz-adv-x="445" 
d="M208 107c5 0 24 2 37 13v24c-7 7 -21 14 -37 14c-29 0 -44 -8 -44 -25c0 -19 17 -26 44 -26zM275 20l-5 21c-34 -44 -93 -46 -102 -46c-28 0 -133 10 -133 133c0 78 56 110 131 110c20 0 56 -3 79 -15c-9 41 -27 50 -64 50c-12 0 -39 1 -62 -6c-7 -1 -9 -1 -12 -1
c-11 0 -21 3 -26 14l-22 62c-1 5 -2 10 -2 15c0 10 4 18 12 23c61 24 93 25 129 25c129 0 187 -71 187 -183v-201c0 -12 -9 -21 -21 -21h-60c-17 0 -22 4 -29 20zM210 476c-115 0 -173 69 -173 163c0 12 9 21 22 21h88c13 0 22 -9 22 -21c0 -46 28 -49 42 -49
c13 0 43 3 43 49c0 12 9 21 22 21h87c13 0 22 -9 22 -21c0 -94 -59 -163 -175 -163z" />
    <glyph glyph-name="Uhungarumlaut" unicode="&#x170;" horiz-adv-x="616" 
d="M307 -5c-161 0 -242 101 -242 258v294c0 12 8 21 21 21h98c12 0 21 -9 21 -21v-299c0 -95 28 -131 103 -131s103 36 103 131v299c0 12 9 21 21 21h98c13 0 21 -9 21 -21v-294c0 -157 -80 -258 -244 -258zM164 660l38 158c5 14 14 21 27 21h93c13 0 21 -9 21 -24l-80 -161
c-7 -7 -16 -15 -25 -15h-52c-13 0 -22 9 -22 21zM337 660l38 158c5 14 14 21 27 21h93c13 0 21 -9 21 -24l-80 -161c-7 -7 -16 -15 -25 -15h-52c-13 0 -22 9 -22 21z" />
    <glyph glyph-name="Uring" unicode="&#x16e;" horiz-adv-x="616" 
d="M307 -5c-161 0 -242 101 -242 258v294c0 12 8 21 21 21h98c12 0 21 -9 21 -21v-299c0 -95 28 -131 103 -131s103 36 103 131v299c0 12 9 21 21 21h98c13 0 21 -9 21 -21v-294c0 -157 -80 -258 -244 -258zM308 895c68 0 127 -57 127 -129c0 -68 -59 -128 -127 -128
c-69 0 -130 60 -130 128c0 72 61 129 130 129zM308 728c15 0 30 16 30 36c0 21 -15 36 -30 36c-19 0 -33 -13 -33 -36c0 -20 14 -36 33 -36z" />
    <glyph glyph-name="Rcaron" unicode="&#x158;" horiz-adv-x="552" 
d="M327 313c23 0 41 24 41 59c0 40 -18 55 -41 55h-122v-114h122zM366 22l-75 158h-86v-159c0 -12 -9 -21 -21 -21h-98c-13 0 -21 9 -21 21v526c0 12 8 21 21 21h249c99 0 176 -78 176 -187c0 -75 -33 -133 -89 -164l95 -191c0 -16 -9 -26 -24 -26h-95c-19 0 -28 10 -32 22z
M275 639h-20c-9 0 -20 7 -24 10l-98 69c-5 5 -7 11 -7 16s2 9 5 13l46 54c3 4 7 6 12 6c3 0 8 -1 14 -4l62 -46l62 46c6 3 11 4 14 4c5 0 9 -2 12 -6l46 -54c3 -4 5 -8 5 -13s-2 -11 -7 -16l-98 -69c-4 -3 -15 -10 -24 -10z" />
    <glyph glyph-name="uni0162" unicode="&#x162;" horiz-adv-x="468" 
d="M46 568h376c12 0 21 -9 21 -21v-93c0 -13 -9 -21 -21 -21h-118v-412c0 -12 -9 -21 -21 -21h-98c-13 0 -21 9 -21 21v412h-118c-12 0 -21 8 -21 21v93c0 12 9 21 21 21zM158 -242l26 65c-13 13 -24 31 -24 54c0 43 32 75 76 75c40 0 74 -32 74 -75c0 -11 -4 -24 -8 -33
l-47 -93c-5 -9 -12 -13 -21 -13h-61c-10 0 -15 7 -15 20z" />
    <glyph glyph-name="lacute" unicode="&#x13a;" 
d="M205 547v-526c0 -12 -9 -21 -21 -21h-98c-13 0 -21 9 -21 21v526c0 12 8 21 21 21h98c12 0 21 -9 21 -21zM89 661l53 127c7 11 7 18 20 18h97c13 0 21 -10 21 -23l-88 -129c-5 -8 -14 -16 -25 -16h-57c-13 0 -21 10 -21 23z" />
    <glyph glyph-name="uni0163" unicode="&#x163;" horiz-adv-x="359" 
d="M312 8c-28 -11 -46 -13 -77 -13c-91 0 -143 37 -143 174v105h-51c-12 0 -21 8 -21 21v89c0 12 9 21 21 21h51v142c0 12 8 21 21 21h98c12 0 21 -9 21 -21v-142h69c12 0 21 -9 21 -21v-89c0 -13 -9 -21 -21 -21h-69v-92c0 -39 4 -65 32 -65c16 0 10 2 23 2c2 1 5 1 8 1
c8 0 17 -7 20 -15l12 -70c1 -3 1 -5 1 -8c0 -11 -12 -18 -16 -19zM112 -242l26 65c-13 13 -24 31 -24 54c0 43 32 75 76 75c40 0 74 -32 74 -75c0 -11 -4 -24 -8 -33l-47 -93c-5 -9 -12 -13 -21 -13h-61c-10 0 -15 7 -15 20z" />
    <glyph glyph-name="uhungarumlaut" unicode="&#x171;" horiz-adv-x="497" 
d="M411 0h-51c-17 0 -22 4 -29 20l-5 21c-27 -39 -72 -46 -105 -46c-115 0 -166 86 -166 181v203c0 12 8 21 21 21h98c12 0 21 -9 21 -21v-199c0 -35 3 -63 51 -63c33 0 46 28 46 63v199c0 12 8 21 21 21h98c12 0 21 -9 21 -21v-358c0 -12 -9 -21 -21 -21zM79 497l38 158
c5 14 14 21 27 21h93c13 0 21 -9 21 -24l-80 -161c-7 -7 -16 -15 -25 -15h-52c-13 0 -22 9 -22 21zM252 497l38 158c5 14 14 21 27 21h93c13 0 21 -9 21 -24l-80 -161c-7 -7 -16 -15 -25 -15h-52c-13 0 -22 9 -22 21z" />
    <glyph glyph-name="uring" unicode="&#x16f;" horiz-adv-x="497" 
d="M411 0h-51c-17 0 -22 4 -29 20l-5 21c-27 -39 -72 -46 -105 -46c-115 0 -166 86 -166 181v203c0 12 8 21 21 21h98c12 0 21 -9 21 -21v-199c0 -35 3 -63 51 -63c33 0 46 28 46 63v199c0 12 8 21 21 21h98c12 0 21 -9 21 -21v-358c0 -12 -9 -21 -21 -21zM244 733
c68 0 127 -57 127 -129c0 -68 -59 -128 -127 -128c-69 0 -130 60 -130 128c0 72 61 129 130 129zM244 566c15 0 30 16 30 36c0 21 -15 36 -30 36c-19 0 -33 -13 -33 -36c0 -20 14 -36 33 -36z" />
    <glyph glyph-name="rcaron" unicode="&#x159;" horiz-adv-x="331" 
d="M305 274h-35c-51 0 -65 -30 -65 -62v-191c0 -12 -9 -21 -21 -21h-98c-13 0 -21 9 -21 21v358c0 12 8 21 21 21h70c12 0 21 -9 21 -21v-17c25 32 62 40 90 43h38c12 0 21 -9 21 -21v-89c0 -13 -9 -21 -21 -21zM205 476h-20c-9 0 -20 7 -24 10l-88 69c-5 5 -7 11 -7 16
s2 9 5 13l46 54c3 4 7 6 12 6c3 0 8 -1 14 -4l52 -46l52 46c6 3 11 4 14 4c5 0 9 -2 12 -6l46 -54c3 -4 5 -8 5 -13s-2 -11 -7 -16l-88 -69c-4 -3 -15 -10 -24 -10z" />
    <glyph glyph-name="dcaron" unicode="&#x10f;" horiz-adv-x="650" 
d="M233 117c39 0 67 33 67 84c0 44 -29 72 -66 72c-35 0 -64 -28 -64 -72c0 -49 28 -84 63 -84zM330 20l-5 21c-33 -41 -74 -46 -109 -46c-107 0 -186 95 -186 207s84 203 175 203c14 0 63 0 95 -27v169c0 12 9 21 21 21h98c13 0 21 -9 21 -21v-526c0 -12 -9 -21 -21 -21
h-60c-17 0 -22 4 -29 20zM498 374l26 65c-13 13 -24 31 -24 54c0 43 32 75 76 75c40 0 74 -32 74 -75c0 -11 -4 -24 -8 -33l-47 -93c-5 -9 -12 -13 -21 -13h-61c-10 0 -15 7 -15 20z" />
    <glyph glyph-name="dcroat" unicode="&#x111;" horiz-adv-x="533" 
d="M502 443h-62v-422c0 -12 -9 -21 -21 -21h-60c-17 0 -22 4 -29 20l-5 21c-33 -41 -74 -46 -109 -46c-107 0 -186 95 -186 207s84 203 175 203c14 0 63 0 95 -27v65h-69c-12 0 -21 9 -21 21v41c0 12 9 21 21 21h69v21c0 12 9 21 21 21h98c13 0 21 -9 21 -21v-21h62
c13 0 21 -9 21 -21v-41c0 -12 -8 -21 -21 -21zM233 117c39 0 67 33 67 84c0 44 -29 72 -66 72c-35 0 -64 -28 -64 -72c0 -49 28 -84 63 -84z" />
    <glyph glyph-name="Amacron" unicode="&#x100;" horiz-adv-x="604" 
d="M258 219h86l-42 87zM397 103h-190l-40 -86c-5 -8 -12 -17 -24 -17h-107c-12 0 -21 10 -21 23l258 533c7 8 17 15 29 15s22 -7 29 -15l258 -533c0 -13 -9 -23 -21 -23h-107c-12 0 -19 9 -24 17zM447 638h-288c-12 0 -21 8 -21 21v76c0 12 9 21 21 21h295
c12 0 14 -9 14 -21v-76c0 -13 -9 -21 -21 -21z" />
    <glyph glyph-name="umacron" unicode="&#x16b;" horiz-adv-x="497" 
d="M411 0h-51c-17 0 -22 4 -29 20l-5 21c-27 -39 -72 -46 -105 -46c-115 0 -166 86 -166 181v203c0 12 8 21 21 21h98c12 0 21 -9 21 -21v-199c0 -35 3 -63 51 -63c33 0 46 28 46 63v199c0 12 8 21 21 21h98c12 0 21 -9 21 -21v-358c0 -12 -9 -21 -21 -21zM384 476h-288
c-12 0 -21 8 -21 21v76c0 12 9 21 21 21h295c12 0 14 -9 14 -21v-76c0 -13 -9 -21 -21 -21z" />
    <glyph glyph-name="tbar" unicode="&#x167;" horiz-adv-x="359" 
d="M301 168h-69c1 -31 8 -51 32 -51c16 0 10 2 23 2c2 1 5 1 8 1c8 0 17 -7 20 -15l12 -70c1 -3 1 -5 1 -8c0 -11 -12 -18 -16 -19c-28 -11 -46 -13 -77 -13c-90 0 -143 37 -143 173h-51c-12 0 -21 8 -21 21v89c0 12 9 21 21 21h51v42h-51c-12 0 -21 8 -21 21v89
c0 12 9 21 21 21h51v75c0 12 8 21 21 21h98c12 0 21 -9 21 -21v-75h69c12 0 21 -9 21 -21v-89c0 -13 -9 -21 -21 -21h-69v-42h69c12 0 21 -9 21 -21v-89c0 -13 -9 -21 -21 -21z" />
    <glyph glyph-name="uni0137" unicode="&#x137;" horiz-adv-x="464" 
d="M449 376l-130 -173l129 -179c0 -15 -8 -24 -21 -24h-114c-15 0 -28 7 -32 18l-76 107v-104c0 -12 -9 -21 -21 -21h-98c-13 0 -21 9 -21 21v526c0 12 8 21 21 21h98c12 0 21 -9 21 -21v-265l76 99c9 11 17 19 32 19h115c13 0 21 -9 21 -24zM154 -242l26 65
c-13 13 -24 31 -24 54c0 43 32 75 76 75c40 0 74 -32 74 -75c0 -11 -4 -24 -8 -33l-47 -93c-5 -9 -12 -13 -21 -13h-61c-10 0 -15 7 -15 20z" />
    <glyph glyph-name="uni013C" unicode="&#x13c;" 
d="M205 547v-526c0 -12 -9 -21 -21 -21h-98c-13 0 -21 9 -21 21v526c0 12 8 21 21 21h98c12 0 21 -9 21 -21zM55 -242l26 65c-13 13 -24 31 -24 54c0 43 32 75 76 75c40 0 74 -32 74 -75c0 -11 -4 -24 -8 -33l-47 -93c-5 -9 -12 -13 -21 -13h-61c-10 0 -15 7 -15 20z" />
    <glyph glyph-name="itilde" unicode="&#x129;" 
d="M261 603l26 -67c0 -10 -3 -17 -10 -22c-31 -20 -58 -38 -93 -38c-38 0 -67 32 -105 32c-17 0 -28 -2 -41 -13c-7 -3 -8 -3 -11 -3c-7 0 -15 5 -18 10l-24 62c-1 3 -1 6 -1 10c0 7 3 13 9 18c27 21 53 35 86 35c48 0 69 -32 106 -32c20 0 32 5 47 16c3 2 6 3 9 3
c6 0 13 -4 20 -11zM205 379v-358c0 -12 -9 -21 -21 -21h-98c-13 0 -21 9 -21 21v358c0 12 8 21 21 21h98c12 0 21 -9 21 -21z" />
    <glyph glyph-name="uni0123" unicode="&#x123;" horiz-adv-x="505" 
d="M234 117c36 0 66 29 66 84c0 44 -31 72 -66 72c-36 0 -64 -28 -64 -72c0 -53 28 -84 64 -84zM143 -50c31 -25 71 -26 96 -26c49 0 61 23 61 58v30c-31 -17 -62 -17 -85 -17c-107 0 -185 95 -185 207s82 203 191 203c33 0 77 -6 116 -34l2 9c7 16 12 20 29 20h51
c12 0 21 -9 21 -21v-381c0 -143 -100 -196 -191 -196c-75 0 -122 15 -167 54c-5 5 -8 11 -8 18c0 5 1 9 3 13l35 60c5 5 10 7 15 7c4 0 13 -1 16 -4zM312 670l-26 -65c13 -13 24 -31 24 -54c0 -43 -32 -75 -76 -75c-40 0 -74 32 -74 75c0 11 4 24 8 33l47 93
c5 9 12 13 21 13h61c10 0 15 -7 15 -20z" />
    <glyph glyph-name="uni0122" unicode="&#x122;" horiz-adv-x="626" 
d="M252 -242l26 65c-13 13 -24 31 -24 54c0 43 32 75 76 75c40 0 74 -32 74 -75c0 -11 -4 -24 -8 -33l-47 -93c-5 -9 -12 -13 -21 -13h-61c-10 0 -15 7 -15 20zM566 304v-283c0 -12 -9 -21 -21 -21h-32c-17 0 -20 3 -25 10l-14 27c-43 -32 -89 -42 -149 -42
c-161 0 -285 130 -285 290s127 290 290 290c80 0 156 -28 212 -83c3 -5 5 -11 5 -16c0 -6 -2 -11 -6 -15l-61 -54c-4 -4 -9 -6 -14 -6c-6 0 -12 2 -19 6c-31 27 -75 36 -118 36c-86 0 -149 -74 -149 -161s69 -165 150 -165c40 0 61 0 92 16v73h-86c-12 0 -21 9 -21 21v77
c0 13 9 21 21 21h209c12 0 21 -8 21 -21z" />
    <glyph glyph-name="Emacron" unicode="&#x112;" horiz-adv-x="520" 
d="M205 347h192c12 0 21 -9 21 -21v-90c0 -13 -9 -21 -21 -21h-192v-83h244c12 0 21 -9 21 -21v-90c0 -13 -9 -21 -21 -21h-363c-12 0 -21 9 -21 21v526c0 12 9 21 21 21h363c12 0 21 -9 21 -21v-93c0 -13 -9 -21 -21 -21h-244v-86zM414 638h-288c-12 0 -21 8 -21 21v76
c0 12 9 21 21 21h295c12 0 14 -9 14 -21v-76c0 -13 -9 -21 -21 -21z" />
    <glyph glyph-name="Imacron" unicode="&#x12a;" 
d="M298 736v-77c0 -12 -8 -21 -21 -21h-284c-12 0 -21 9 -21 21v77c0 12 9 21 21 21h284c13 0 21 -9 21 -21zM205 546v-525c0 -12 -9 -21 -21 -21h-98c-13 0 -21 9 -21 21v525c0 12 8 21 21 21h98c12 0 21 -9 21 -21z" />
    <glyph glyph-name="Itilde" unicode="&#x128;" 
d="M260 766l26 -67c0 -10 -3 -17 -10 -22c-31 -20 -58 -38 -93 -38c-38 0 -67 32 -105 32c-17 0 -28 -2 -41 -13c-7 -3 -8 -3 -11 -3c-7 0 -15 5 -18 10l-24 62c-1 3 -1 6 -1 10c0 7 3 13 9 18c27 21 53 35 86 35c48 0 69 -32 106 -32c20 0 32 5 47 16c3 2 6 3 9 3
c6 0 13 -4 20 -11zM205 547v-526c0 -12 -9 -21 -21 -21h-98c-13 0 -21 9 -21 21v526c0 12 8 21 21 21h98c12 0 21 -9 21 -21z" />
    <glyph glyph-name="uni0136" unicode="&#x136;" horiz-adv-x="593" 
d="M418 17l-141 228l-72 -76v-148c0 -12 -9 -21 -21 -21h-98c-13 0 -21 9 -21 21v526c0 12 8 21 21 21h98c12 0 21 -9 21 -21v-168l162 172c15 12 20 17 48 17h114c15 0 24 -10 24 -26l-178 -187l203 -329c0 -16 -9 -26 -24 -26h-88c-28 0 -33 5 -48 17zM230 -242l26 65
c-13 13 -24 31 -24 54c0 43 32 75 76 75c40 0 74 -32 74 -75c0 -11 -4 -24 -8 -33l-47 -93c-5 -9 -12 -13 -21 -13h-61c-10 0 -15 7 -15 20z" />
    <glyph glyph-name="uni013B" unicode="&#x13b;" horiz-adv-x="509" 
d="M65 21v526c0 12 8 21 21 21h98c12 0 21 -9 21 -21v-416h244c12 0 21 -9 21 -21v-89c0 -13 -9 -21 -21 -21h-363c-13 0 -21 9 -21 21zM181 -242l26 65c-13 13 -24 31 -24 54c0 43 32 75 76 75c40 0 74 -32 74 -75c0 -11 -4 -24 -8 -33l-47 -93c-5 -9 -12 -13 -21 -13h-61
c-10 0 -15 7 -15 20z" />
    <glyph glyph-name="Tbar" unicode="&#x166;" horiz-adv-x="468" 
d="M384 217h-80v-196c0 -12 -9 -21 -21 -21h-98c-13 0 -21 9 -21 21v196h-81c-12 0 -21 8 -21 21v93c0 12 9 21 21 21h81v81h-118c-12 0 -21 8 -21 21v93c0 12 9 21 21 21h376c12 0 21 -9 21 -21v-93c0 -13 -9 -21 -21 -21h-118v-81h80c12 0 21 -9 21 -21v-93
c0 -13 -9 -21 -21 -21z" />
    <glyph glyph-name="Umacron" unicode="&#x16a;" horiz-adv-x="616" 
d="M307 -5c-161 0 -242 101 -242 258v294c0 12 8 21 21 21h98c12 0 21 -9 21 -21v-299c0 -95 28 -131 103 -131s103 36 103 131v299c0 12 9 21 21 21h98c13 0 21 -9 21 -21v-294c0 -157 -80 -258 -244 -258zM452 638h-288c-12 0 -21 8 -21 21v76c0 12 9 21 21 21h295
c12 0 14 -9 14 -21v-76c0 -13 -9 -21 -21 -21z" />
    <glyph glyph-name="Eng" unicode="&#x14a;" horiz-adv-x="625" 
d="M560 538v-553c0 -148 -50 -183 -148 -183c-21 0 -103 12 -103 52c0 3 -1 4 2 11l21 61c3 4 5 7 13 7c27 -9 33 -9 50 -9c21 0 25 10 25 65v205l-215 141v-314c0 -12 -9 -21 -21 -21h-98c-13 0 -21 9 -21 21v533c0 13 9 20 26 20l329 -212v176c0 17 11 30 30 30h80
c17 0 30 -13 30 -30z" />
    <glyph glyph-name="emacron" unicode="&#x113;" horiz-adv-x="449" 
d="M419 213v-33c0 -12 -9 -21 -21 -21h-225c8 -44 52 -49 79 -49c32 0 60 1 95 17c1 1 3 1 5 1c5 0 9 -2 13 -7l27 -45c3 -5 5 -9 5 -14c0 -7 -2 -12 -5 -17c-27 -37 -88 -50 -140 -50c-112 0 -222 56 -222 209c0 111 58 201 195 201c109 0 194 -64 194 -192zM227 281
c-20 0 -47 -2 -55 -45h107c-5 40 -37 45 -52 45zM373 476h-288c-12 0 -21 8 -21 21v76c0 12 9 21 21 21h295c12 0 14 -9 14 -21v-76c0 -13 -9 -21 -21 -21z" />
    <glyph glyph-name="imacron" unicode="&#x12b;" 
d="M298 574v-77c0 -12 -8 -21 -21 -21h-284c-12 0 -21 9 -21 21v77c0 12 9 21 21 21h284c13 0 21 -9 21 -21zM205 379v-358c0 -12 -9 -21 -21 -21h-98c-13 0 -21 9 -21 21v358c0 12 8 21 21 21h98c12 0 21 -9 21 -21z" />
    <glyph glyph-name="eng" unicode="&#x14b;" horiz-adv-x="497" 
d="M302 -11v221c0 35 -3 63 -51 63c-33 0 -46 -28 -46 -63v-189c0 -12 -8 -21 -21 -21h-98c-12 0 -21 9 -21 21v358c0 12 9 21 21 21h51c17 0 22 -4 29 -20l5 -21c27 37 79 46 112 46c116 0 159 -86 159 -181v-239c0 -148 -50 -183 -148 -183c-21 0 -103 12 -103 52
c0 3 -1 4 2 11l21 61c3 4 5 7 13 7c27 -9 33 -9 50 -9c21 0 25 10 25 65z" />
    <glyph glyph-name="Edotaccent" unicode="&#x116;" horiz-adv-x="520" 
d="M205 347h192c12 0 21 -9 21 -21v-90c0 -13 -9 -21 -21 -21h-192v-83h244c12 0 21 -9 21 -21v-90c0 -13 -9 -21 -21 -21h-363c-12 0 -21 9 -21 21v526c0 12 9 21 21 21h363c12 0 21 -9 21 -21v-93c0 -13 -9 -21 -21 -21h-244v-86zM191 713c0 41 34 75 75 75s75 -34 75 -75
s-34 -75 -75 -75s-75 34 -75 75z" />
    <glyph glyph-name="edotaccent" unicode="&#x117;" horiz-adv-x="449" 
d="M419 213v-33c0 -12 -9 -21 -21 -21h-225c8 -44 52 -49 79 -49c32 0 60 1 95 17c1 1 3 1 5 1c5 0 9 -2 13 -7l27 -45c3 -5 5 -9 5 -14c0 -7 -2 -12 -5 -17c-27 -37 -88 -50 -140 -50c-112 0 -222 56 -222 209c0 111 58 201 195 201c109 0 194 -64 194 -192zM227 281
c-20 0 -47 -2 -55 -45h107c-5 40 -37 45 -52 45zM153 551c0 41 34 75 75 75s75 -34 75 -75s-34 -75 -75 -75s-75 34 -75 75z" />
    <glyph glyph-name="Iogonek" unicode="&#x12e;" horiz-adv-x="269" 
d="M217 -37l20 -44c1 -1 1 -2 1 -3c0 -3 -2 -4 -3 -7c-23 -23 -54 -29 -75 -29c-43 0 -86 12 -86 61c0 19 5 44 14 59c-13 0 -23 9 -23 21v526c0 12 8 21 21 21h98c12 0 21 -9 21 -21v-526c0 -12 -9 -21 -21 -21h-31c-7 -11 -9 -21 -9 -28c0 -12 3 -21 22 -21
c12 0 25 1 38 12c3 1 5 2 7 2c1 0 3 -1 6 -2z" />
    <glyph glyph-name="uni0145" unicode="&#x145;" horiz-adv-x="625" 
d="M65 21v533c0 13 9 20 26 20l329 -212v176c0 17 11 30 30 30h80c17 0 30 -13 30 -30v-517c0 -12 -9 -21 -21 -21h-98c-13 0 -21 9 -21 21v173l-215 141v-314c0 -12 -9 -21 -21 -21h-98c-13 0 -21 9 -21 21zM232 -242l26 65c-13 13 -24 31 -24 54c0 43 32 75 76 75
c40 0 74 -32 74 -75c0 -11 -4 -24 -8 -33l-47 -93c-5 -9 -12 -13 -21 -13h-61c-10 0 -15 7 -15 20z" />
    <glyph glyph-name="Omacron" unicode="&#x14c;" horiz-adv-x="656" 
d="M327 117c87 0 149 78 149 165s-62 161 -149 161c-85 0 -147 -74 -147 -161s62 -165 147 -165zM328 -5c-160 0 -288 130 -288 290s128 290 288 290s288 -130 288 -290s-128 -290 -288 -290zM472 638h-288c-12 0 -21 8 -21 21v76c0 12 9 21 21 21h295c12 0 14 -9 14 -21
v-76c0 -13 -9 -21 -21 -21z" />
    <glyph glyph-name="iogonek" unicode="&#x12f;" 
d="M184 0h-39c-7 -11 -9 -21 -9 -28c0 -12 3 -21 22 -21c12 0 25 1 38 12c3 1 5 2 7 2c1 0 3 -1 6 -2l20 -44c1 -1 1 -2 1 -3c0 -3 -2 -4 -3 -7c-23 -23 -54 -29 -75 -29c-43 0 -86 12 -86 61c0 19 5 44 14 59c-10 2 -15 9 -15 21v358c0 12 8 21 21 21h98c12 0 21 -9 21 -21
v-358c0 -12 -9 -21 -21 -21zM57 521c0 43 35 78 78 78s78 -35 78 -78s-35 -78 -78 -78s-78 35 -78 78z" />
    <glyph glyph-name="uni0146" unicode="&#x146;" horiz-adv-x="497" 
d="M86 400h51c17 0 22 -4 29 -20l5 -21c27 37 79 46 112 46c116 0 159 -86 159 -181v-203c0 -12 -8 -21 -21 -21h-98c-12 0 -21 9 -21 21v189c0 35 -3 63 -51 63c-33 0 -46 -28 -46 -63v-189c0 -12 -8 -21 -21 -21h-98c-12 0 -21 9 -21 21v358c0 12 9 21 21 21zM172 -242
l26 65c-13 13 -24 31 -24 54c0 43 32 75 76 75c40 0 74 -32 74 -75c0 -11 -4 -24 -8 -33l-47 -93c-5 -9 -12 -13 -21 -13h-61c-10 0 -15 7 -15 20z" />
    <glyph glyph-name="omacron" unicode="&#x14d;" horiz-adv-x="477" 
d="M237 117c39 0 70 35 70 78c0 45 -31 78 -70 78c-37 0 -67 -33 -67 -78c0 -43 30 -78 67 -78zM238 -5c-113 0 -208 90 -208 201c0 112 95 209 208 209c112 0 209 -97 209 -209c0 -111 -97 -201 -209 -201zM383 476h-288c-12 0 -21 8 -21 21v76c0 12 9 21 21 21h295
c12 0 14 -9 14 -21v-76c0 -13 -9 -21 -21 -21z" />
    <glyph glyph-name="Utilde" unicode="&#x168;" horiz-adv-x="616" 
d="M307 -5c-161 0 -242 101 -242 258v294c0 12 8 21 21 21h98c12 0 21 -9 21 -21v-299c0 -95 28 -131 103 -131s103 36 103 131v299c0 12 9 21 21 21h98c13 0 21 -9 21 -21v-294c0 -157 -80 -258 -244 -258zM440 767l26 -68c0 -11 -3 -19 -10 -22c-27 -23 -59 -39 -94 -39
c-40 0 -67 33 -107 33c-17 0 -28 -3 -41 -14c-7 -3 -8 -2 -11 -2c-9 0 -15 3 -18 10l-24 62c-1 5 -2 9 -2 11c0 7 3 13 9 17c27 21 54 36 87 36c46 0 75 -33 108 -33c20 0 33 5 48 16c7 3 7 3 10 3c8 0 15 -6 19 -10z" />
    <glyph glyph-name="Uogonek" unicode="&#x172;" horiz-adv-x="616" 
d="M551 253c0 -148 -70 -245 -213 -257c-5 -9 -6 -17 -6 -24c0 -12 3 -21 22 -21c12 0 25 1 38 12c3 1 5 2 7 2c1 0 3 -1 6 -2l20 -44c1 -1 1 -2 1 -3c0 -3 -2 -4 -3 -7c-23 -23 -54 -29 -75 -29c-43 0 -86 12 -86 61c0 19 6 40 14 55c-141 12 -211 109 -211 257v294
c0 12 8 21 21 21h98c12 0 21 -9 21 -21v-299c0 -95 28 -131 103 -131s103 36 103 131v299c0 12 9 21 21 21h98c13 0 21 -9 21 -21v-294z" />
    <glyph glyph-name="amacron" unicode="&#x101;" horiz-adv-x="445" 
d="M208 107c5 0 24 2 37 13v24c-7 7 -21 14 -37 14c-29 0 -44 -8 -44 -25c0 -19 17 -26 44 -26zM275 20l-5 21c-34 -44 -93 -46 -102 -46c-28 0 -133 10 -133 133c0 78 56 110 131 110c20 0 56 -3 79 -15c-9 41 -27 50 -64 50c-12 0 -39 1 -62 -6c-7 -1 -9 -1 -12 -1
c-11 0 -21 3 -26 14l-22 62c-1 5 -2 10 -2 15c0 10 4 18 12 23c61 24 93 25 129 25c129 0 187 -71 187 -183v-201c0 -12 -9 -21 -21 -21h-60c-17 0 -22 4 -29 20zM362 476h-277c-12 0 -21 8 -21 21v76c0 12 9 21 21 21h284c12 0 14 -9 14 -21v-76c0 -13 -9 -21 -21 -21z" />
    <glyph glyph-name="uogonek" unicode="&#x173;" horiz-adv-x="498" 
d="M333 15c-1 1 -1 2 -2 5l-5 21c-27 -39 -72 -46 -105 -46c-115 0 -166 86 -166 181v203c0 12 8 21 21 21h98c12 0 21 -9 21 -21v-199c0 -35 3 -63 51 -63c33 0 46 28 46 63v199c0 12 8 21 21 21h98c12 0 21 -9 21 -21v-367c0 -3 0 -6 -1 -7c-5 -16 -97 -35 -97 -54
c0 -7 8 -11 24 -11c7 0 21 2 36 13c3 1 5 2 8 2c1 0 3 -1 6 -2l24 -42c1 -1 1 -2 1 -4c0 -3 -2 -4 -3 -7c-27 -23 -55 -31 -91 -31c-47 0 -91 16 -91 55c0 17 14 54 85 91z" />
    <glyph glyph-name="utilde" unicode="&#x169;" horiz-adv-x="497" 
d="M411 0h-51c-17 0 -22 4 -29 20l-5 21c-27 -39 -72 -46 -105 -46c-115 0 -166 86 -166 181v203c0 12 8 21 21 21h98c12 0 21 -9 21 -21v-199c0 -35 3 -63 51 -63c33 0 46 28 46 63v199c0 12 8 21 21 21h98c12 0 21 -9 21 -21v-358c0 -12 -9 -21 -21 -21zM365 605l26 -68
c0 -11 -3 -19 -10 -22c-27 -23 -59 -39 -94 -39c-40 0 -67 33 -107 33c-17 0 -28 -3 -41 -14c-7 -3 -8 -2 -11 -2c-9 0 -15 3 -18 10l-24 62c-1 5 -2 9 -2 11c0 7 3 13 9 17c27 21 54 36 87 36c46 0 75 -33 108 -33c20 0 33 5 48 16c7 3 7 3 10 3c8 0 15 -6 19 -10z" />
    <glyph glyph-name="kgreenlandic" unicode="&#x138;" horiz-adv-x="464" 
d="M449 376l-130 -173l129 -179c0 -15 -8 -24 -21 -24h-114c-15 0 -28 7 -32 18l-76 107v-104c0 -12 -9 -21 -21 -21h-98c-13 0 -21 9 -21 21v358c0 12 8 21 21 21h98c12 0 21 -9 21 -21v-97l76 99c9 11 17 19 32 19h115c13 0 21 -9 21 -24z" />
    <glyph glyph-name="uni03A9" unicode="&#x3a9;" horiz-adv-x="762" 
d="M381 443c-93 0 -122 -52 -122 -147c0 -90 3 -127 35 -167v-108c0 -12 -9 -21 -21 -21h-187c-13 0 -21 9 -21 21v90c0 12 8 21 21 21h80c-28 39 -47 83 -47 167c0 160 102 276 262 276s262 -116 262 -276c0 -84 -19 -128 -47 -167h80c13 0 21 -9 21 -21v-90
c0 -12 -8 -21 -21 -21h-187c-12 0 -21 9 -21 21v108c32 40 35 77 35 167c0 95 -29 147 -122 147z" />
    <glyph glyph-name="uni0219" unicode="&#x219;" horiz-adv-x="409" 
d="M86 135c10 -7 68 -25 112 -25c15 0 35 2 35 13c0 35 -191 39 -191 155c0 87 78 127 171 127c48 0 98 -17 120 -25c4 -2 8 -6 12 -13c0 -3 0 -7 -1 -10l-17 -71c-3 -7 -5 -11 -21 -11c-7 0 -39 11 -75 11c-37 0 -47 -2 -47 -15c0 -32 189 -53 189 -149
c0 -103 -94 -127 -174 -127c-47 0 -98 10 -149 42c-4 3 -10 9 -10 17c1 0 -1 6 20 70c4 9 12 13 17 13c3 0 6 -1 9 -2zM134 -242l26 65c-13 13 -24 31 -24 54c0 43 32 75 76 75c40 0 74 -32 74 -75c0 -11 -4 -24 -8 -33l-47 -93c-5 -9 -12 -13 -21 -13h-61
c-10 0 -15 7 -15 20z" />
    <glyph glyph-name="uni021A" unicode="&#x21a;" horiz-adv-x="468" 
d="M46 568h376c12 0 21 -9 21 -21v-93c0 -13 -9 -21 -21 -21h-118v-412c0 -12 -9 -21 -21 -21h-98c-13 0 -21 9 -21 21v412h-118c-12 0 -21 8 -21 21v93c0 12 9 21 21 21zM155 -242l26 65c-13 13 -24 31 -24 54c0 43 32 75 76 75c40 0 74 -32 74 -75c0 -11 -4 -24 -8 -33
l-47 -93c-5 -9 -12 -13 -21 -13h-61c-10 0 -15 7 -15 20z" />
    <glyph glyph-name="uni021B" unicode="&#x21b;" horiz-adv-x="359" 
d="M312 8c-28 -11 -46 -13 -77 -13c-91 0 -143 37 -143 174v105h-51c-12 0 -21 8 -21 21v89c0 12 9 21 21 21h51v142c0 12 8 21 21 21h98c12 0 21 -9 21 -21v-142h69c12 0 21 -9 21 -21v-89c0 -13 -9 -21 -21 -21h-69v-92c0 -39 4 -65 32 -65c16 0 10 2 23 2c2 1 5 1 8 1
c8 0 17 -7 20 -15l12 -70c1 -3 1 -5 1 -8c0 -11 -12 -18 -16 -19zM93 -242l26 65c-13 13 -24 31 -24 54c0 43 32 75 76 75c40 0 74 -32 74 -75c0 -11 -4 -24 -8 -33l-47 -93c-5 -9 -12 -13 -21 -13h-61c-10 0 -15 7 -15 20z" />
    <glyph glyph-name="uni0218" unicode="&#x218;" horiz-adv-x="508" 
d="M61 49c-4 3 -11 12 -11 19c0 5 1 8 2 10l34 63c4 8 12 11 19 11c5 0 8 -1 11 -2c20 -12 70 -33 137 -33c33 0 78 14 78 38c0 68 -278 58 -278 249c0 107 74 171 207 171c64 0 139 -26 171 -39c4 -3 9 -7 12 -18c0 -5 0 -8 -1 -11l-32 -74c-3 -7 -13 -14 -21 -14l-11 3
c-24 8 -86 21 -115 21c-64 0 -70 -32 -70 -39c0 -69 278 -71 278 -248c0 -104 -120 -161 -204 -161c-65 0 -137 11 -206 54zM177 -242l26 65c-13 13 -24 31 -24 54c0 43 32 75 76 75c40 0 74 -32 74 -75c0 -11 -4 -24 -8 -33l-47 -93c-5 -9 -12 -13 -21 -13h-61
c-10 0 -15 7 -15 20z" />
    <glyph glyph-name="uni0156" unicode="&#x156;" horiz-adv-x="552" 
d="M205 313h122c23 0 41 24 41 59c0 40 -18 55 -41 55h-122v-114zM366 22l-75 158h-86v-159c0 -12 -9 -21 -21 -21h-98c-13 0 -21 9 -21 21v526c0 12 8 21 21 21h249c99 0 176 -78 176 -187c0 -75 -33 -133 -89 -164l95 -191c0 -16 -9 -26 -24 -26h-95c-19 0 -28 10 -32 22z
M200 -242l26 65c-13 13 -24 31 -24 54c0 43 32 75 76 75c40 0 74 -32 74 -75c0 -11 -4 -24 -8 -33l-47 -93c-5 -9 -12 -13 -21 -13h-61c-10 0 -15 7 -15 20z" />
    <glyph glyph-name="uni0157" unicode="&#x157;" horiz-adv-x="331" 
d="M305 274h-35c-51 0 -65 -30 -65 -62v-191c0 -12 -9 -21 -21 -21h-98c-13 0 -21 9 -21 21v358c0 12 8 21 21 21h70c12 0 21 -9 21 -21v-17c25 32 62 40 90 43h38c12 0 21 -9 21 -21v-89c0 -13 -9 -21 -21 -21zM71 -242l26 65c-13 13 -24 31 -24 54c0 43 32 75 76 75
c40 0 74 -32 74 -75c0 -11 -4 -24 -8 -33l-47 -93c-5 -9 -12 -13 -21 -13h-61c-10 0 -15 7 -15 20z" />
    <glyph glyph-name="gbreve" unicode="&#x11f;" horiz-adv-x="505" 
d="M234 117c36 0 66 29 66 84c0 44 -31 72 -66 72c-36 0 -64 -28 -64 -72c0 -53 28 -84 64 -84zM143 -50c31 -25 71 -26 96 -26c49 0 61 23 61 58v30c-31 -17 -62 -17 -85 -17c-107 0 -185 95 -185 207s82 203 191 203c33 0 77 -6 116 -34l2 9c7 16 12 20 29 20h51
c12 0 21 -9 21 -21v-381c0 -143 -100 -196 -191 -196c-75 0 -122 15 -167 54c-5 5 -8 11 -8 18c0 5 1 9 3 13l35 60c5 5 10 7 15 7c4 0 13 -1 16 -4zM244 476c-115 0 -173 69 -173 163c0 12 9 21 22 21h88c13 0 22 -9 22 -21c0 -46 28 -49 42 -49c13 0 43 3 43 49
c0 12 9 21 22 21h87c13 0 22 -9 22 -21c0 -94 -59 -163 -175 -163z" />
    <glyph glyph-name="Idotaccent" unicode="&#x130;" 
d="M205 547v-526c0 -12 -9 -21 -21 -21h-98c-13 0 -21 9 -21 21v526c0 12 8 21 21 21h98c12 0 21 -9 21 -21zM57 716c0 43 35 78 78 78s78 -35 78 -78s-35 -78 -78 -78s-78 35 -78 78z" />
    <glyph glyph-name="Gbreve" unicode="&#x11e;" horiz-adv-x="626" 
d="M319 638c-114 0 -188 69 -188 163c0 12 9 21 22 21h88c13 0 22 -9 22 -21c0 -46 44 -49 57 -49s57 3 57 49c0 12 9 21 22 21h87c13 0 22 -9 22 -21c0 -94 -73 -163 -189 -163zM566 304v-283c0 -12 -9 -21 -21 -21h-32c-17 0 -20 3 -25 10l-14 27
c-43 -32 -89 -42 -149 -42c-161 0 -285 130 -285 290s127 290 290 290c80 0 156 -28 212 -83c3 -5 5 -11 5 -16c0 -6 -2 -11 -6 -15l-61 -54c-4 -4 -9 -6 -14 -6c-6 0 -12 2 -19 6c-31 27 -75 36 -118 36c-86 0 -149 -74 -149 -161s69 -165 150 -165c40 0 61 0 92 16v73h-86
c-12 0 -21 9 -21 21v77c0 13 9 21 21 21h209c12 0 21 -8 21 -21z" />
    <glyph glyph-name="Numero" unicode="&#x2116;" horiz-adv-x="1130" 
d="M65 21v533c0 13 9 20 26 20l329 -212v176c0 17 11 30 30 30h80c17 0 30 -13 30 -30v-517c0 -12 -9 -21 -21 -21h-98c-13 0 -21 9 -21 21v173l-215 141v-314c0 -12 -9 -21 -21 -21h-98c-13 0 -21 9 -21 21zM855 280c39 0 70 35 70 78c0 45 -31 78 -70 78
c-37 0 -67 -33 -67 -78c0 -43 30 -78 67 -78zM856 158c-113 0 -208 90 -208 201c0 112 95 209 208 209c112 0 209 -97 209 -209c0 -111 -97 -201 -209 -201zM1044 0h-375c-12 0 -21 8 -21 21v76c0 12 9 21 21 21h382c12 0 14 -9 14 -21v-76c0 -13 -9 -21 -21 -21z" />
    <glyph glyph-name="Cdotaccent" unicode="&#x10a;" horiz-adv-x="577" 
d="M540 77c-53 -64 -126 -82 -215 -82c-161 0 -285 130 -285 290s127 290 290 290c80 0 156 -28 212 -83c3 -5 5 -11 5 -16c0 -6 -2 -11 -6 -15l-61 -54c-4 -4 -9 -6 -14 -6c-6 0 -12 2 -19 6c-31 27 -75 36 -118 36c-86 0 -149 -74 -149 -161s69 -165 150 -165
c55 0 73 1 129 41c5 5 11 8 18 8c5 0 9 -2 14 -5l48 -53c3 -3 7 -8 7 -15c0 -5 -2 -11 -6 -16zM232 716c0 43 35 78 78 78s78 -35 78 -78s-35 -78 -78 -78s-78 35 -78 78z" />
    <glyph glyph-name="ccircumflex" unicode="&#x109;" horiz-adv-x="418" 
d="M246 117c17 0 35 2 56 17c9 6 17 9 24 9s14 -3 18 -8l39 -41c4 -5 10 -14 10 -22c0 -7 -2 -14 -6 -21c-44 -47 -97 -56 -148 -56c-115 0 -209 95 -209 207s94 203 209 203c51 0 106 -17 145 -53c4 -7 6 -17 6 -20c0 -9 -5 -17 -9 -21l-41 -52c-7 -5 -15 -7 -18 -7h-6
c-6 2 -10 3 -11 4l-2 1c-15 7 -37 16 -65 16c-37 0 -68 -27 -68 -72s32 -84 76 -84zM216 644h20c9 0 20 -7 24 -10l98 -69c5 -5 7 -11 7 -16s-2 -9 -5 -13l-46 -54c-3 -4 -7 -6 -12 -6c-3 0 -8 1 -14 4l-62 46l-62 -46c-6 -3 -11 -4 -14 -4c-5 0 -9 2 -12 6l-46 54
c-3 4 -5 8 -5 13s2 11 7 16l98 69c4 3 15 10 24 10z" />
    <glyph glyph-name="cdotaccent" unicode="&#x10b;" horiz-adv-x="418" 
d="M246 117c17 0 35 2 56 17c9 6 17 9 24 9s14 -3 18 -8l39 -41c4 -5 10 -14 10 -22c0 -7 -2 -14 -6 -21c-44 -47 -97 -56 -148 -56c-115 0 -209 95 -209 207s94 203 209 203c51 0 106 -17 145 -53c4 -7 6 -17 6 -20c0 -9 -5 -17 -9 -21l-41 -52c-7 -5 -15 -7 -18 -7h-6
c-6 2 -10 3 -11 4l-2 1c-15 7 -37 16 -65 16c-37 0 -68 -27 -68 -72s32 -84 76 -84zM162 551c0 41 34 75 75 75s75 -34 75 -75s-34 -75 -75 -75s-75 34 -75 75z" />
    <glyph glyph-name="Hcircumflex" unicode="&#x124;" horiz-adv-x="586" 
d="M521 547v-526c0 -12 -9 -21 -21 -21h-98c-13 0 -21 9 -21 21v189h-176v-189c0 -12 -9 -21 -21 -21h-98c-13 0 -21 9 -21 21v526c0 12 8 21 21 21h98c12 0 21 -9 21 -21v-205h176v205c0 12 8 21 21 21h98c12 0 21 -9 21 -21zM283 807h20c9 0 20 -7 24 -10l98 -69
c5 -5 7 -11 7 -16s-2 -9 -5 -13l-46 -54c-3 -4 -7 -6 -12 -6c-3 0 -8 1 -14 4l-62 46l-62 -46c-6 -3 -11 -4 -14 -4c-5 0 -9 2 -12 6l-46 54c-3 4 -5 8 -5 13s2 11 7 16l98 69c4 3 15 10 24 10z" />
    <glyph glyph-name="hbar" unicode="&#x127;" horiz-adv-x="520" 
d="M302 443h-69v-60c27 20 57 22 78 22c116 0 159 -86 159 -181v-203c0 -12 -8 -21 -21 -21h-98c-12 0 -21 9 -21 21v189c0 35 -3 63 -51 63c-33 0 -46 -28 -46 -63v-189c0 -12 -8 -21 -21 -21h-98c-12 0 -21 9 -21 21v422h-62c-13 0 -21 9 -21 21v41c0 12 8 21 21 21h62v21
c0 12 9 21 21 21h98c13 0 21 -9 21 -21v-21h69c12 0 21 -9 21 -21v-41c0 -12 -9 -21 -21 -21z" />
    <glyph glyph-name="hcircumflex" unicode="&#x125;" horiz-adv-x="497" 
d="M65 21v526c0 12 9 21 21 21h98c13 0 21 -9 21 -21v-164c27 20 57 22 78 22c116 0 159 -86 159 -181v-203c0 -12 -8 -21 -21 -21h-98c-12 0 -21 9 -21 21v189c0 35 -3 63 -51 63c-33 0 -46 -28 -46 -63v-189c0 -12 -8 -21 -21 -21h-98c-12 0 -21 9 -21 21zM256 807h20
c9 0 20 -7 24 -10l98 -69c5 -5 7 -11 7 -16s-2 -9 -5 -13l-46 -54c-3 -4 -7 -6 -12 -6c-3 0 -8 1 -14 4l-62 46l-62 -46c-6 -3 -11 -4 -14 -4c-5 0 -9 2 -12 6l-46 54c-3 4 -5 8 -5 13s2 11 7 16l98 69c4 3 15 10 24 10z" />
    <glyph glyph-name="jcircumflex" unicode="&#x135;" 
d="M-46 -146c0 3 -1 4 2 11l21 61c3 4 5 7 13 7c27 -9 33 -9 50 -9c21 0 25 10 25 65v390c0 12 8 21 21 21h98c12 0 21 -9 21 -21v-394c0 -148 -50 -183 -148 -183c-21 0 -103 12 -103 52zM125 644h20c9 0 20 -7 24 -10l98 -69c5 -5 7 -11 7 -16s-2 -9 -5 -13l-46 -54
c-3 -4 -7 -6 -12 -6c-3 0 -8 1 -14 4l-62 46l-62 -46c-6 -3 -11 -4 -14 -4c-5 0 -9 2 -12 6l-46 54c-3 4 -5 8 -5 13s2 11 7 16l98 69c4 3 15 10 24 10z" />
    <glyph glyph-name="Scircumflex" unicode="&#x15c;" horiz-adv-x="508" 
d="M61 49c-4 3 -11 12 -11 19c0 5 1 8 2 10l34 63c4 8 12 11 19 11c5 0 8 -1 11 -2c20 -12 70 -33 137 -33c33 0 78 14 78 38c0 68 -278 58 -278 249c0 107 74 171 207 171c64 0 139 -26 171 -39c4 -3 9 -7 12 -18c0 -5 0 -8 -1 -11l-32 -74c-3 -7 -13 -14 -21 -14l-11 3
c-24 8 -86 21 -115 21c-64 0 -70 -32 -70 -39c0 -69 278 -71 278 -248c0 -104 -120 -161 -204 -161c-65 0 -137 11 -206 54zM247 807h20c9 0 20 -7 24 -10l98 -69c5 -5 7 -11 7 -16s-2 -9 -5 -13l-46 -54c-3 -4 -7 -6 -12 -6c-3 0 -8 1 -14 4l-62 46l-62 -46
c-6 -3 -11 -4 -14 -4c-5 0 -9 2 -12 6l-46 54c-3 4 -5 8 -5 13s2 11 7 16l98 69c4 3 15 10 24 10z" />
    <glyph glyph-name="Ubreve" unicode="&#x16c;" horiz-adv-x="616" 
d="M307 -5c-161 0 -242 101 -242 258v294c0 12 8 21 21 21h98c12 0 21 -9 21 -21v-299c0 -95 28 -131 103 -131s103 36 103 131v299c0 12 9 21 21 21h98c13 0 21 -9 21 -21v-294c0 -157 -80 -258 -244 -258zM310 638c-114 0 -188 69 -188 163c0 12 9 21 22 21h88
c13 0 22 -9 22 -21c0 -46 44 -49 57 -49s57 3 57 49c0 12 9 21 22 21h87c13 0 22 -9 22 -21c0 -94 -73 -163 -189 -163z" />
    <glyph glyph-name="Gcircumflex" unicode="&#x11c;" horiz-adv-x="626" 
d="M318 807h20c9 0 20 -7 24 -10l98 -69c5 -5 7 -11 7 -16s-2 -9 -5 -13l-46 -54c-3 -4 -7 -6 -12 -6c-3 0 -8 1 -14 4l-62 46l-62 -46c-6 -3 -11 -4 -14 -4c-5 0 -9 2 -12 6l-46 54c-3 4 -5 8 -5 13s2 11 7 16l98 69c4 3 15 10 24 10zM566 304v-283c0 -12 -9 -21 -21 -21
h-32c-17 0 -20 3 -25 10l-14 27c-43 -32 -89 -42 -149 -42c-161 0 -285 130 -285 290s127 290 290 290c80 0 156 -28 212 -83c3 -5 5 -11 5 -16c0 -6 -2 -11 -6 -15l-61 -54c-4 -4 -9 -6 -14 -6c-6 0 -12 2 -19 6c-31 27 -75 36 -118 36c-86 0 -149 -74 -149 -161
s69 -165 150 -165c40 0 61 0 92 16v73h-86c-12 0 -21 9 -21 21v77c0 13 9 21 21 21h209c12 0 21 -8 21 -21z" />
    <glyph glyph-name="Gdotaccent" unicode="&#x120;" horiz-adv-x="626" 
d="M252 716c0 43 35 78 78 78s78 -35 78 -78s-35 -78 -78 -78s-78 35 -78 78zM566 304v-283c0 -12 -9 -21 -21 -21h-32c-17 0 -20 3 -25 10l-14 27c-43 -32 -89 -42 -149 -42c-161 0 -285 130 -285 290s127 290 290 290c80 0 156 -28 212 -83c3 -5 5 -11 5 -16
c0 -6 -2 -11 -6 -15l-61 -54c-4 -4 -9 -6 -14 -6c-6 0 -12 2 -19 6c-31 27 -75 36 -118 36c-86 0 -149 -74 -149 -161s69 -165 150 -165c40 0 61 0 92 16v73h-86c-12 0 -21 9 -21 21v77c0 13 9 21 21 21h209c12 0 21 -8 21 -21z" />
    <glyph glyph-name="Jcircumflex" unicode="&#x134;" horiz-adv-x="469" 
d="M265 807h20c9 0 20 -7 24 -10l98 -69c5 -5 7 -11 7 -16s-2 -9 -5 -13l-46 -54c-3 -4 -7 -6 -12 -6c-3 0 -8 1 -14 4l-62 46l-62 -46c-6 -3 -11 -4 -14 -4c-5 0 -9 2 -12 6l-46 54c-3 4 -5 8 -5 13s2 11 7 16l98 69c4 3 15 10 24 10zM89 150c31 -25 66 -33 106 -33
c60 0 79 30 79 144v286c0 12 8 21 21 21h98c12 0 21 -9 21 -21v-289c0 -200 -59 -263 -220 -263c-76 0 -128 19 -175 58c-5 5 -8 11 -8 18c0 5 2 9 5 12l43 62c6 6 12 9 18 9c4 0 7 0 12 -4z" />
    <glyph glyph-name="Ccircumflex" unicode="&#x108;" horiz-adv-x="577" 
d="M540 77c-53 -64 -126 -82 -215 -82c-161 0 -285 130 -285 290s127 290 290 290c80 0 156 -28 212 -83c3 -5 5 -11 5 -16c0 -6 -2 -11 -6 -15l-61 -54c-4 -4 -9 -6 -14 -6c-6 0 -12 2 -19 6c-31 27 -75 36 -118 36c-86 0 -149 -74 -149 -161s69 -165 150 -165
c55 0 73 1 129 41c5 5 11 8 18 8c5 0 9 -2 14 -5l48 -53c3 -3 7 -8 7 -15c0 -5 -2 -11 -6 -16zM316 807h20c9 0 20 -7 24 -10l98 -69c5 -5 7 -11 7 -16s-2 -9 -5 -13l-46 -54c-3 -4 -7 -6 -12 -6c-3 0 -8 1 -14 4l-62 46l-62 -46c-6 -3 -11 -4 -14 -4c-5 0 -9 2 -12 6
l-46 54c-3 4 -5 8 -5 13s2 11 7 16l98 69c4 3 15 10 24 10z" />
    <glyph glyph-name="gdotaccent" unicode="&#x121;" horiz-adv-x="505" 
d="M234 117c36 0 66 29 66 84c0 44 -31 72 -66 72c-36 0 -64 -28 -64 -72c0 -53 28 -84 64 -84zM143 -50c31 -25 71 -26 96 -26c49 0 61 23 61 58v30c-31 -17 -62 -17 -85 -17c-107 0 -185 95 -185 207s82 203 191 203c33 0 77 -6 116 -34l2 9c7 16 12 20 29 20h51
c12 0 21 -9 21 -21v-381c0 -143 -100 -196 -191 -196c-75 0 -122 15 -167 54c-5 5 -8 11 -8 18c0 5 1 9 3 13l35 60c5 5 10 7 15 7c4 0 13 -1 16 -4zM154 551c0 41 34 75 75 75s75 -34 75 -75s-34 -75 -75 -75s-75 34 -75 75z" />
    <glyph glyph-name="gcircumflex" unicode="&#x11d;" horiz-adv-x="505" 
d="M234 117c36 0 66 29 66 84c0 44 -31 72 -66 72c-36 0 -64 -28 -64 -72c0 -53 28 -84 64 -84zM143 -50c31 -25 71 -26 96 -26c49 0 61 23 61 58v30c-31 -17 -62 -17 -85 -17c-107 0 -185 95 -185 207s82 203 191 203c33 0 77 -6 116 -34l2 9c7 16 12 20 29 20h51
c12 0 21 -9 21 -21v-381c0 -143 -100 -196 -191 -196c-75 0 -122 15 -167 54c-5 5 -8 11 -8 18c0 5 1 9 3 13l35 60c5 5 10 7 15 7c4 0 13 -1 16 -4zM216 644h20c9 0 20 -7 24 -10l98 -69c5 -5 7 -11 7 -16s-2 -9 -5 -13l-46 -54c-3 -4 -7 -6 -12 -6c-3 0 -8 1 -14 4l-62 46
l-62 -46c-6 -3 -11 -4 -14 -4c-5 0 -9 2 -12 6l-46 54c-3 4 -5 8 -5 13s2 11 7 16l98 69c4 3 15 10 24 10z" />
    <glyph glyph-name="ubreve" unicode="&#x16d;" horiz-adv-x="497" 
d="M411 0h-51c-17 0 -22 4 -29 20l-5 21c-27 -39 -72 -46 -105 -46c-115 0 -166 86 -166 181v203c0 12 8 21 21 21h98c12 0 21 -9 21 -21v-199c0 -35 3 -63 51 -63c33 0 46 28 46 63v199c0 12 8 21 21 21h98c12 0 21 -9 21 -21v-358c0 -12 -9 -21 -21 -21zM239 476
c-115 0 -173 69 -173 163c0 12 9 21 22 21h88c13 0 22 -9 22 -21c0 -46 28 -49 42 -49c13 0 43 3 43 49c0 12 9 21 22 21h87c13 0 22 -9 22 -21c0 -94 -59 -163 -175 -163z" />
    <glyph glyph-name="scircumflex" unicode="&#x15d;" horiz-adv-x="409" 
d="M86 135c10 -7 68 -25 112 -25c15 0 35 2 35 13c0 35 -191 39 -191 155c0 87 78 127 171 127c48 0 98 -17 120 -25c4 -2 8 -6 12 -13c0 -3 0 -7 -1 -10l-17 -71c-3 -7 -5 -11 -21 -11c-7 0 -39 11 -75 11c-37 0 -47 -2 -47 -15c0 -32 189 -53 189 -149
c0 -103 -94 -127 -174 -127c-47 0 -98 10 -149 42c-4 3 -10 9 -10 17c1 0 -1 6 20 70c4 9 12 13 17 13c3 0 6 -1 9 -2zM191 644h20c9 0 20 -7 24 -10l98 -69c5 -5 7 -11 7 -16s-2 -9 -5 -13l-46 -54c-3 -4 -7 -6 -12 -6c-3 0 -8 1 -14 4l-62 46l-62 -46c-6 -3 -11 -4 -14 -4
c-5 0 -9 2 -12 6l-46 54c-3 4 -5 8 -5 13s2 11 7 16l98 69c4 3 15 10 24 10z" />
    <glyph glyph-name="Hbar" unicode="&#x126;" horiz-adv-x="641" 
d="M41 509h52v38c0 12 8 21 21 21h98c12 0 21 -9 21 -21v-38h176v38c0 12 8 21 21 21h98c12 0 21 -9 21 -21v-38h51c13 0 21 -9 21 -21v-77c0 -12 -8 -21 -21 -21h-51v-369c0 -12 -9 -21 -21 -21h-98c-13 0 -21 9 -21 21v189h-176v-189c0 -12 -9 -21 -21 -21h-98
c-13 0 -21 9 -21 21v369h-52c-12 0 -21 9 -21 21v77c0 12 9 21 21 21zM233 342h176v48h-176v-48z" />
    </font>
</defs>
</svg>
