<?xml version="1.0" standalone="no"?>
<!DOCTYPE svg PUBLIC "-//W3C//DTD SVG 1.1//EN" "http://www.w3.org/Graphics/SVG/1.1/DTD/svg11.dtd" >
<svg xmlns="http://www.w3.org/2000/svg" width="100%" height="100%">
<metadata>
Created by FontXChange 20110222 at Tue Jul  4 12:28:11 2017
 By Creative4
Copyright \(c\) 2014 by Typesketchbook. All rights reserved.
</metadata>
<defs>
<font id="Noyh-Light" horiz-adv-x="202" >
  <font-face 
    font-family="Noyh"
    font-weight="300"
    font-stretch="normal"
    units-per-em="1000"
    panose-1="2 0 0 0 0 0 0 0 0 0"
    ascent="750"
    descent="-250"
    x-height="400"
    cap-height="568"
    bbox="-66 -207 1075 831"
    underline-thickness="35"
    underline-position="-74"
    stemh="36"
    stemv="42"
    unicode-range="U+0020-FB02"
  />
<missing-glyph horiz-adv-x="569" 
d="M539 0h-509v628h509v-628zM76 46v-11c0 6 -3 10 -8 11h8zM493 582v8c0 -5 3 -8 8 -8h-8zM493 46h8c-5 -1 -8 -4 -8 -9v9zM76 582h-8c4 0 7 3 8 8v-8zM76 582v-536h417v536h-417z" />
    <glyph glyph-name="fi" unicode="fi" horiz-adv-x="545" 
d="M456 405c6 0 9 -3 9 -9v-389c0 -5 -3 -7 -8 -7h-26c-5 0 -8 2 -8 7v353h-252v-351c0 -6 -3 -9 -9 -9h-24c-6 0 -9 3 -9 9v351h-90c-6 0 -9 3 -9 9v27c0 6 3 9 9 9h90c0 166 45 208 125 208c12 0 39 1 63 -6c4 -3 6 -5 6 -6c0 -3 -3 -13 -8 -28c-1 -2 -4 -3 -8 -3
c-8 1 -21 1 -32 1c-83 0 -104 -32 -104 -166h285z" />
    <glyph glyph-name="fl" unicode="fl" horiz-adv-x="544" 
d="M129 360h-90c-6 0 -9 3 -9 9v27c0 6 3 9 9 9h90c0 166 45 208 125 208c12 0 39 1 63 -6c4 -3 6 -5 6 -6c0 -3 -3 -13 -8 -28c-1 -2 -4 -3 -8 -3c-8 1 -21 1 -32 1c-83 0 -104 -32 -104 -166h123c6 0 9 -3 9 -9v-27c0 -6 -3 -9 -9 -9h-123v-351c0 -6 -3 -9 -9 -9h-24
c-6 0 -9 3 -9 9v351zM423 7v561c0 5 3 7 8 7h26c5 0 8 -2 8 -7v-561c0 -5 -3 -7 -8 -7h-26c-5 0 -8 2 -8 7z" />
    <glyph glyph-name=".notdef" horiz-adv-x="569" 
d="M539 0h-509v628h509v-628zM76 46v-11c0 6 -3 10 -8 11h8zM493 582v8c0 -5 3 -8 8 -8h-8zM493 46h8c-5 -1 -8 -4 -8 -9v9zM76 582h-8c4 0 7 3 8 8v-8zM76 582v-536h417v536h-417z" />
    <glyph glyph-name="null" horiz-adv-x="0" 
 />
    <glyph glyph-name="nonmarkingreturn" horiz-adv-x="283" 
 />
    <glyph glyph-name="space" unicode=" " horiz-adv-x="199" 
 />
    <glyph glyph-name="exclam" unicode="!" horiz-adv-x="220" 
d="M94 110l-8 451c0 5 3 7 8 7h33c5 0 8 -2 8 -7l-9 -451c0 -5 -3 -7 -8 -7h-16c-5 0 -8 2 -8 7zM80 25c0 17 13 30 30 30s30 -13 30 -30s-13 -30 -30 -30s-30 13 -30 30z" />
    <glyph glyph-name="quotedbl" unicode="&#x22;" horiz-adv-x="335" 
d="M108 411h-9c-6 0 -9 3 -9 9c-4 49 -7 88 -10 139c0 6 3 9 9 9h29c7 0 10 -3 10 -9l-11 -139c0 -6 -3 -9 -9 -9zM235 411h-9c-6 0 -9 3 -9 9c-4 49 -7 88 -10 139c0 6 3 9 9 9h29c7 0 10 -3 10 -9l-11 -139c0 -6 -3 -9 -9 -9z" />
    <glyph glyph-name="numbersign" unicode="#" horiz-adv-x="790" 
d="M506 188l63 173h-264l-63 -173h264zM490 143h-263l-49 -132c-4 -7 -9 -11 -14 -11h-20c-7 0 -10 3 -10 10l48 133h-94c-5 0 -8 3 -8 8v29c0 5 3 8 8 8h110l63 173h-114c-5 0 -8 3 -8 8v29c0 5 3 8 8 8h131l54 151c4 7 9 11 14 11h20c7 0 10 -3 10 -10l-54 -152h264
l54 151c4 7 9 11 14 11h20c7 0 10 -3 10 -10l-54 -152h72c5 0 8 -3 8 -8v-29c0 -5 -3 -8 -8 -8h-89l-63 -173h93c5 0 8 -3 8 -8v-29c0 -5 -3 -8 -8 -8h-108l-49 -132c-4 -7 -9 -11 -14 -11h-20c-7 0 -10 3 -10 10z" />
    <glyph glyph-name="dollar" unicode="$" horiz-adv-x="542" 
d="M462 133c0 -92 -94 -134 -170 -137v-75c0 -5 -3 -7 -8 -7h-26c-5 0 -8 2 -8 7v76c-48 4 -102 15 -149 36c-3 2 -5 5 -5 8c0 2 0 4 1 5l7 17c2 3 5 5 8 5c1 0 3 0 4 -1c39 -15 98 -29 159 -29c73 0 145 31 145 97c0 146 -340 99 -340 293c0 91 62 140 170 147v79
c0 5 3 7 8 7h26c5 0 8 -2 8 -7v-79c44 -3 88 -11 119 -22c3 -3 5 -4 5 -8c0 -2 0 -3 -1 -4l-9 -21c-1 -3 -2 -4 -5 -4c-2 0 -4 0 -6 1c-35 8 -87 14 -123 14c-148 0 -150 -81 -150 -104c0 -148 340 -104 340 -294z" />
    <glyph glyph-name="percent" unicode="%" horiz-adv-x="843" 
d="M255 10l296 547c4 7 9 11 14 11h24c7 0 10 -3 10 -10l-296 -547c-4 -7 -9 -11 -14 -11h-24c-7 0 -10 3 -10 10zM211 568c68 0 128 -57 128 -129c0 -71 -60 -130 -128 -130c-72 0 -131 59 -131 130c0 72 59 129 131 129zM211 350c41 0 79 37 79 90c0 52 -38 83 -79 83
c-45 0 -83 -27 -83 -83c0 -53 38 -90 83 -90zM635 254c68 0 128 -57 128 -129c0 -71 -60 -130 -128 -130c-72 0 -131 59 -131 130c0 72 59 129 131 129zM635 36c41 0 79 37 79 90c0 52 -38 83 -79 83c-45 0 -83 -27 -83 -83c0 -53 38 -90 83 -90z" />
    <glyph glyph-name="ampersand" unicode="&#x26;" horiz-adv-x="657" 
d="M420 116l-164 173c-99 -27 -131 -99 -131 -139c0 -108 85 -113 142 -113c37 0 97 20 153 79zM448 146l91 96c2 2 4 3 7 3s5 -1 7 -3l14 -13c2 -2 3 -4 3 -6c0 -3 -1 -5 -4 -8l-89 -98l100 -108c0 -6 -3 -9 -8 -9h-35c-5 0 -10 3 -14 9l-72 77c-82 -87 -167 -91 -186 -91
c-112 0 -182 52 -182 152c0 54 45 136 144 176c-60 63 -69 96 -69 115c0 74 54 137 186 137c49 0 84 -9 108 -21c4 -3 6 -5 6 -6c0 -3 -3 -9 -10 -26c-1 -2 -4 -3 -8 -3c-24 8 -54 11 -93 11c-125 0 -145 -53 -145 -92c0 -23 27 -57 60 -92z" />
    <glyph glyph-name="quotesingle" unicode="'" horiz-adv-x="208" 
d="M108 411h-9c-6 0 -9 3 -9 9c-4 49 -7 88 -10 139c0 6 3 9 9 9h29c7 0 10 -3 10 -9l-11 -139c0 -6 -3 -9 -9 -9z" />
    <glyph glyph-name="parenleft" unicode="(" horiz-adv-x="308" 
d="M228 707c-68 -149 -107 -295 -107 -447c0 -144 36 -277 107 -421c-1 -7 -4 -10 -10 -10h-20c-5 0 -9 3 -12 10c-73 148 -106 280 -106 423c0 145 44 305 107 446c3 7 6 10 11 10h23c7 0 7 -6 7 -11z" />
    <glyph glyph-name="parenright" unicode=")" horiz-adv-x="308" 
d="M80 707c0 5 0 11 7 11h23c5 0 8 -3 11 -10c63 -141 107 -301 107 -446c0 -143 -33 -275 -106 -423c-3 -7 -7 -10 -12 -10h-20c-6 0 -9 3 -10 10c71 144 107 277 107 421c0 152 -39 298 -107 447z" />
    <glyph glyph-name="asterisk" unicode="*" horiz-adv-x="490" 
d="M273 383l92 -114c0 -1 1 -1 1 -4s-1 -6 -4 -8l-29 -18c-3 -1 -4 -2 -5 -2c-2 0 -4 2 -6 5l-77 124l-77 -124c-2 -3 -4 -5 -6 -5c-1 0 -2 1 -5 2l-29 18c-3 2 -4 5 -4 8s1 3 1 4l92 114l-131 41c-5 1 -7 5 -5 10l12 32c2 4 4 6 7 6c1 0 3 0 4 -1l125 -54l-10 143
c0 5 3 8 8 8h36c5 0 8 -3 8 -8l-10 -143l125 54c1 1 3 1 4 1c3 0 5 -2 7 -6l12 -32c2 -5 0 -9 -5 -10z" />
    <glyph glyph-name="plus" unicode="+" horiz-adv-x="436" 
d="M347 223c6 0 9 -3 9 -9v-27c0 -6 -3 -9 -8 -9h-109v-116c0 -5 -3 -7 -8 -7h-26c-5 0 -8 2 -8 7v116h-109c-5 0 -8 3 -8 9v27c0 6 3 9 9 9h108v119c0 5 3 7 8 7h26c5 0 8 -2 8 -7v-119h108z" />
    <glyph glyph-name="comma" unicode="," horiz-adv-x="224" 
d="M99 -65h-12c-3 0 -5 2 -5 6l17 53c-11 8 -19 18 -19 29c0 19 15 32 32 32c19 0 32 -13 32 -32c0 -4 -2 -11 -3 -12l-34 -69c-1 -5 -3 -7 -8 -7z" />
    <glyph glyph-name="hyphen" unicode="-" horiz-adv-x="442" 
d="M89 207h264c6 0 9 -3 9 -9v-27c0 -6 -3 -9 -8 -9h-266c-5 0 -8 3 -8 9v27c0 6 3 9 9 9z" />
    <glyph glyph-name="period" unicode="." horiz-adv-x="220" 
d="M80 25c0 17 13 30 30 30s30 -13 30 -30s-13 -30 -30 -30s-30 13 -30 30z" />
    <glyph glyph-name="slash" unicode="/" horiz-adv-x="498" 
d="M418 658l-291 -773c-4 -7 -9 -11 -14 -11h-23c-7 0 -10 3 -10 10l291 773c4 7 9 11 14 11h23c7 0 10 -3 10 -10z" />
    <glyph glyph-name="zero" unicode="0" horiz-adv-x="598" 
d="M299 37c128 0 199 111 199 247c0 137 -63 246 -199 246s-199 -109 -199 -246c0 -136 71 -247 199 -247zM299 -4c-157 0 -244 130 -244 290s87 289 244 289s244 -129 244 -289s-87 -290 -244 -290z" />
    <glyph glyph-name="one" unicode="1" horiz-adv-x="363" 
d="M47 408c-5 0 -7 5 -7 9v27c0 4 8 7 9 8c74 21 166 75 224 114c3 1 5 2 6 2c3 0 4 -3 4 -8v-553c0 -5 -3 -7 -8 -7h-26c-5 0 -8 2 -8 7v484c-68 -44 -143 -72 -194 -83z" />
    <glyph glyph-name="two" unicode="2" horiz-adv-x="506" 
d="M105 503c-5 0 -9 3 -12 8l-8 21c-1 1 -1 3 -1 5c0 3 1 6 3 8c35 16 90 30 147 30c137 0 201 -52 201 -148c0 -182 -281 -268 -314 -382h306c6 0 9 -3 9 -9v-27c0 -6 -3 -9 -8 -9h-350c-5 0 -8 3 -8 9v8c0 152 319 248 323 408c0 21 -3 105 -162 105
c-37 0 -87 -14 -126 -27z" />
    <glyph glyph-name="three" unicode="3" horiz-adv-x="484" 
d="M70 29c-3 2 -4 4 -4 7s1 5 2 6l12 20c2 3 4 4 7 4s6 -1 10 -3c39 -13 81 -26 118 -26c124 0 162 41 162 137c0 91 -87 116 -155 124c-7 0 -14 1 -23 -2c-3 0 -4 1 -4 4l124 223h-256c-5 0 -8 3 -8 9v27c0 6 3 9 9 9h317c5 0 8 -2 8 -6c0 -3 -1 -6 -2 -7l-126 -224
c115 -24 158 -86 158 -156c0 -133 -63 -180 -208 -180c-41 0 -101 11 -141 34z" />
    <glyph glyph-name="four" unicode="4" horiz-adv-x="525" 
d="M370 186v342l-267 -342h267zM477 141h-65v-134c0 -5 -3 -7 -8 -7h-26c-5 0 -8 2 -8 7v134h-302c-5 0 -8 3 -8 8v47c0 1 11 19 281 363c4 6 8 9 13 9h50c5 0 8 -2 8 -7v-375h64c6 0 9 -3 9 -9v-27c0 -6 -3 -9 -8 -9z" />
    <glyph glyph-name="five" unicode="5" horiz-adv-x="483" 
d="M74 77c0 8 3 12 10 12h32c3 0 7 -3 12 -10c40 -42 81 -42 131 -42c80 0 143 21 143 124c0 101 -70 133 -146 133c-40 0 -72 0 -122 -26c-4 0 -28 0 -56 3c-5 3 -8 6 -8 9v279c0 6 3 9 9 9h315c6 0 9 -3 9 -9v-27c0 -6 -3 -9 -8 -9h-283v-219c67 33 114 35 145 35
c104 0 187 -66 187 -177c0 -122 -76 -167 -186 -167c-80 0 -149 23 -184 82z" />
    <glyph glyph-name="six" unicode="6" horiz-adv-x="531" 
d="M266 319c-81 0 -164 -38 -164 -138c0 -99 82 -144 163 -144c83 0 164 45 164 144c0 100 -80 138 -163 138zM288 559l-120 -220c26 21 87 21 99 21c99 0 204 -65 204 -172c0 -127 -98 -193 -207 -193c-108 0 -204 66 -204 193c0 27 15 68 28 92c49 92 101 186 152 279
c4 6 9 9 14 9h25c6 0 9 -3 9 -9z" />
    <glyph glyph-name="seven" unicode="7" horiz-adv-x="458" 
d="M148 9l213 514h-308c-5 0 -8 3 -8 9v27c0 6 3 9 9 9h361c5 0 8 -2 8 -6c0 -3 -1 -6 -2 -7l-227 -546c-4 -6 -9 -9 -14 -9h-23c-6 0 -9 3 -9 9z" />
    <glyph glyph-name="eight" unicode="8" horiz-adv-x="530" 
d="M265 37c61 0 163 19 163 119c0 93 -103 115 -164 115c-59 0 -162 -22 -162 -115c0 -100 102 -119 163 -119zM265 314c64 0 144 3 144 113c0 103 -102 103 -145 103c-41 0 -143 0 -143 -103c0 -110 80 -113 144 -113zM264 -5c-105 0 -204 51 -204 153c0 52 14 104 97 144
c-77 42 -78 103 -78 137c0 104 84 146 186 146s186 -42 186 -146c0 -34 -1 -95 -78 -137c83 -40 97 -92 97 -144c0 -102 -98 -153 -206 -153z" />
    <glyph glyph-name="nine" unicode="9" horiz-adv-x="531" 
d="M265 251c81 0 164 38 164 138c0 99 -82 141 -163 141c-83 0 -164 -42 -164 -141c0 -100 80 -138 163 -138zM242 9l121 222c-28 -20 -86 -21 -99 -21c-99 0 -204 65 -204 172c0 127 98 193 207 193c108 0 204 -66 204 -193c0 -27 -15 -68 -28 -92
c-49 -92 -102 -188 -153 -281c-4 -6 -9 -9 -14 -9h-25c-6 0 -9 3 -9 9z" />
    <glyph glyph-name="colon" unicode=":" horiz-adv-x="220" 
d="M80 330c0 17 13 30 30 30s30 -13 30 -30s-13 -30 -30 -30s-30 13 -30 30zM80 30c0 17 13 30 30 30s30 -13 30 -30s-13 -30 -30 -30s-30 13 -30 30z" />
    <glyph glyph-name="semicolon" unicode=";" horiz-adv-x="224" 
d="M99 -65h-12c-3 0 -5 2 -5 6l17 53c-11 8 -19 18 -19 29c0 19 15 32 32 32c19 0 32 -13 32 -32c0 -4 -2 -11 -3 -12l-34 -69c-1 -5 -3 -7 -8 -7zM81 330c0 17 13 30 30 30s30 -13 30 -30s-13 -30 -30 -30s-30 13 -30 30z" />
    <glyph glyph-name="less" unicode="&#x3c;" horiz-adv-x="458" 
d="M80 159v48c0 3 3 5 8 8l281 151c6 0 9 -3 9 -9v-29c0 -4 -8 -9 -9 -9l-249 -136l249 -136c1 0 9 -5 9 -9v-29c0 -6 -3 -9 -9 -9l-281 151c-5 3 -8 5 -8 8z" />
    <glyph glyph-name="equal" unicode="=" horiz-adv-x="363" 
d="M275 82h-187c-5 0 -8 3 -8 9v27c0 6 3 9 9 9h185c6 0 9 -3 9 -9v-27c0 -6 -3 -9 -8 -9zM275 241h-187c-5 0 -8 3 -8 9v27c0 6 3 9 9 9h185c6 0 9 -3 9 -9v-27c0 -6 -3 -9 -8 -9z" />
    <glyph glyph-name="greater" unicode="&#x3e;" horiz-adv-x="458" 
d="M378 207v-48c0 -3 -3 -5 -8 -8l-281 -151c-6 0 -9 3 -9 9v29c0 4 8 9 9 9l249 136l-249 136c-1 0 -9 5 -9 9v29c0 6 3 9 9 9l281 -151c5 -3 8 -5 8 -8z" />
    <glyph glyph-name="question" unicode="?" horiz-adv-x="451" 
d="M181 25c0 17 13 30 30 30s30 -13 30 -30s-13 -30 -30 -30s-30 13 -30 30zM191 125v53c0 120 138 166 138 267c0 65 -29 88 -124 88c-35 0 -71 -8 -104 -19c-5 -3 -10 -4 -13 3l-7 21c-2 5 0 8 5 11c29 13 79 26 131 26c85 0 154 -34 154 -130c0 -109 -138 -166 -138 -272
v-48c0 -5 -3 -7 -8 -7h-26c-5 0 -8 2 -8 7z" />
    <glyph glyph-name="at" unicode="@" horiz-adv-x="998" 
d="M478 37c87 0 141 22 141 125c0 91 -53 131 -141 131s-131 -29 -131 -131c0 -77 40 -125 131 -125zM876 194c0 124 -57 329 -377 329s-377 -205 -377 -329c0 -179 51 -364 450 -364c47 0 125 5 208 32c6 0 9 -3 9 -9v-20c0 -5 -3 -8 -9 -9c-58 -19 -153 -31 -199 -31
c-241 0 -501 44 -501 401c0 173 105 374 414 374h10c309 0 414 -201 414 -374c0 -128 -39 -205 -154 -205c-39 0 -86 6 -143 53c-48 -48 -114 -47 -141 -47c-88 0 -178 49 -178 172c0 104 60 171 165 171c36 0 101 -8 150 -51v45c0 5 3 8 8 8h29c5 0 8 -3 8 -8v-263
c7 -7 16 -14 26 -20c17 -11 42 -20 75 -20c53 0 113 2 113 165z" />
    <glyph glyph-name="A" unicode="A" horiz-adv-x="578" 
d="M296 569l252 -559c0 -7 -3 -10 -10 -10h-22c-5 0 -10 3 -15 10l-55 125h-314l-55 -125c-5 -7 -10 -10 -15 -10h-22c-7 0 -10 3 -10 10l252 559c3 1 5 2 7 2s4 -1 7 -2zM153 180h272l-136 300z" />
    <glyph glyph-name="B" unicode="B" horiz-adv-x="540" 
d="M122 523v-224h198c81 0 118 57 118 117c0 64 -49 107 -118 107h-198zM122 45h198c67 0 117 41 117 105c0 55 -25 104 -101 104h-214v-209zM330 0h-242c-5 0 -8 2 -8 7v554c0 5 3 7 8 7h228c101 0 164 -68 164 -152c0 -40 -9 -89 -53 -136c51 -43 52 -89 52 -130
c0 -85 -67 -150 -149 -150z" />
    <glyph glyph-name="C" unicode="C" horiz-adv-x="596" 
d="M550 69c-51 -55 -123 -74 -203 -74c-161 0 -292 130 -292 290s131 290 291 290c64 0 128 -20 176 -56c2 -2 3 -4 3 -5c0 -2 -1 -4 -4 -7l-14 -15c-3 -3 -6 -4 -9 -4c-2 0 -4 1 -6 3c-43 31 -89 39 -146 39c-137 0 -246 -111 -246 -247c0 -137 109 -246 246 -246
c49 0 117 11 176 59c2 2 5 3 8 3s6 -1 8 -4l10 -16c1 -3 3 -4 3 -7v-1c0 -1 0 -1 -1 -2z" />
    <glyph glyph-name="D" unicode="D" horiz-adv-x="582" 
d="M122 42h129c145 0 249 90 249 237s-97 247 -242 247h-136v-484zM256 0h-168c-5 0 -8 2 -8 7v554c0 5 3 7 8 7h181c160 0 273 -126 273 -286s-104 -282 -286 -282z" />
    <glyph glyph-name="E" unicode="E" horiz-adv-x="514" 
d="M123 298h251c6 0 9 -3 9 -9v-27c0 -6 -3 -9 -8 -9h-253v-208h318c6 0 9 -3 9 -9v-27c0 -6 -3 -9 -8 -9h-353c-5 0 -8 3 -8 9v552c0 5 3 7 8 7h352c6 0 9 -3 9 -9v-27c0 -6 -3 -9 -8 -9h-318v-225z" />
    <glyph glyph-name="F" unicode="F" horiz-adv-x="474" 
d="M80 7v554c0 5 3 7 8 7h352c6 0 9 -3 9 -9v-27c0 -6 -3 -9 -8 -9h-318v-225h251c6 0 9 -3 9 -9v-27c0 -6 -3 -9 -8 -9h-253v-246c0 -5 -3 -7 -8 -7h-26c-5 0 -8 2 -8 7z" />
    <glyph glyph-name="G" unicode="G" horiz-adv-x="649" 
d="M409 277h156c6 0 9 -3 9 -9v-259c0 -6 -3 -9 -9 -9h-6c-4 0 -9 4 -12 11l-13 43c-51 -43 -115 -59 -187 -59c-161 0 -292 130 -292 290s131 290 291 290c64 0 128 -20 176 -56c2 -2 3 -4 3 -5c0 -2 -1 -4 -4 -7l-14 -15c-3 -3 -6 -4 -9 -4c-2 0 -4 1 -6 3
c-43 31 -89 39 -146 39c-137 0 -246 -111 -246 -247c0 -137 109 -246 246 -246c49 0 127 15 186 63v132h-124c-5 0 -8 3 -8 9v27c0 6 3 9 9 9z" />
    <glyph glyph-name="H" unicode="H" horiz-adv-x="588" 
d="M500 568c5 0 8 -2 8 -7v-554c0 -5 -3 -7 -8 -7h-26c-5 0 -8 2 -8 7v245h-344v-245c0 -5 -3 -7 -8 -7h-26c-5 0 -8 2 -8 7v554c0 5 3 7 8 7h26c5 0 8 -2 8 -7v-264h344v264c0 5 3 7 8 7h26z" />
    <glyph glyph-name="I" unicode="I" 
d="M80 7v554c0 5 3 7 8 7h26c5 0 8 -2 8 -7v-554c0 -5 -3 -7 -8 -7h-26c-5 0 -8 2 -8 7z" />
    <glyph glyph-name="J" unicode="J" horiz-adv-x="447" 
d="M30 34c-3 3 -4 4 -4 5c0 3 2 5 3 8l11 18c3 4 6 6 9 6s5 0 6 -1c35 -21 68 -33 117 -33c128 0 163 42 163 239v285c0 5 3 7 8 7h26c5 0 8 -2 8 -7v-294c0 -209 -52 -272 -203 -272c-57 0 -105 13 -144 39z" />
    <glyph glyph-name="K" unicode="K" horiz-adv-x="557" 
d="M299 361l228 -352c0 -6 -3 -9 -8 -9h-29c-5 0 -10 3 -14 9l-206 320l-148 -166v-156c0 -5 -3 -7 -8 -7h-26c-5 0 -8 2 -8 7v554c0 5 3 7 8 7h26c5 0 8 -2 8 -7v-333l298 331c4 6 9 9 14 9h34c6 0 9 -3 9 -9z" />
    <glyph glyph-name="L" unicode="L" horiz-adv-x="504" 
d="M442 0h-354c-5 0 -8 3 -8 9v552c0 5 3 7 8 7h26c5 0 8 -2 8 -7v-516h319c6 0 9 -3 9 -9v-27c0 -6 -3 -9 -8 -9z" />
    <glyph glyph-name="M" unicode="M" horiz-adv-x="698" 
d="M349 183c-2 0 -4 1 -7 2l-220 278v-456c0 -5 -3 -7 -8 -7h-26c-5 0 -8 2 -8 7v560c2 3 4 4 6 4c4 0 4 -1 7 -4l240 -303c7 -7 9 -11 16 -11s9 4 16 11l240 303c3 3 3 4 7 4c2 0 4 -1 6 -4v-560c0 -5 -3 -7 -8 -7h-26c-5 0 -8 2 -8 7v456l-220 -278c-3 -1 -5 -2 -7 -2z
" />
    <glyph glyph-name="N" unicode="N" horiz-adv-x="640" 
d="M518 250v311c0 5 3 7 8 7h26c5 0 8 -2 8 -7v-554c0 -5 -3 -7 -8 -7h-26c-5 0 -8 2 -8 7v191l-396 296v-487c0 -5 -3 -7 -8 -7h-26c-5 0 -8 2 -8 7v560c2 3 4 4 6 4c4 0 4 -1 7 -4z" />
    <glyph glyph-name="O" unicode="O" horiz-adv-x="690" 
d="M345 575c160 0 290 -130 290 -290s-130 -290 -290 -290c-159 0 -290 130 -290 290s131 290 290 290zM345 37c137 0 246 109 246 246c0 136 -109 247 -246 247s-245 -111 -245 -247c0 -137 108 -246 245 -246z" />
    <glyph glyph-name="P" unicode="P" horiz-adv-x="520" 
d="M123 271h199c66 0 123 26 123 121s-57 131 -123 131h-199v-252zM115 0h-27c-5 0 -8 2 -8 7v554c0 5 3 7 8 7h251c83 0 151 -72 151 -175c0 -107 -68 -167 -151 -167h-216v-219c0 -5 -3 -7 -8 -7z" />
    <glyph glyph-name="Q" unicode="Q" horiz-adv-x="690" 
d="M635 285c0 -153 -119 -278 -268 -289v-46c0 -27 7 -44 55 -44c4 0 9 1 12 1c2 0 4 -1 7 -2l2 -2c3 -7 6 -22 6 -23c0 -3 -2 -4 -5 -5c-11 -3 -22 -4 -33 -4c-45 0 -86 7 -86 99v26c-150 11 -270 136 -270 289c0 160 131 290 290 290c160 0 290 -130 290 -290zM100 283
c0 -137 108 -246 245 -246s246 109 246 246c0 136 -109 247 -246 247s-245 -111 -245 -247z" />
    <glyph glyph-name="R" unicode="R" horiz-adv-x="540" 
d="M490 393c0 -95 -53 -153 -125 -165l111 -219c0 -6 -3 -9 -10 -9h-22c-5 0 -10 3 -15 10l-108 216h-198v-219c0 -5 -3 -7 -8 -7h-27c-5 0 -8 2 -8 7v554c0 5 3 7 8 7h251c83 0 151 -72 151 -175zM123 523v-252h199c66 0 123 26 123 121s-57 131 -123 131h-199z" />
    <glyph glyph-name="S" unicode="S" horiz-adv-x="499" 
d="M86 32c-3 2 -5 5 -5 8c0 2 0 4 1 5l7 17c2 3 5 5 8 5c1 0 3 0 4 -1c39 -15 98 -29 159 -29c73 0 145 31 145 97c0 145 -340 100 -340 293c0 96 71 148 192 148c51 0 103 -11 139 -23c5 -2 6 -6 4 -12l-9 -21c-1 -3 -2 -4 -5 -4c-2 0 -4 0 -6 1c-35 8 -87 14 -123 14
c-148 0 -150 -81 -150 -104c0 -146 340 -104 340 -294c0 -95 -101 -137 -178 -137c-55 0 -124 10 -183 37z" />
    <glyph glyph-name="T" unicode="T" horiz-adv-x="470" 
d="M421 568c6 0 9 -3 9 -9v-27c0 -6 -3 -9 -8 -9h-166v-516c0 -5 -3 -7 -8 -7h-26c-5 0 -8 2 -8 7v516h-166c-5 0 -8 3 -8 9v27c0 6 3 9 9 9h372z" />
    <glyph glyph-name="U" unicode="U" horiz-adv-x="634" 
d="M316 -5c-155 0 -236 85 -236 242v324c0 5 3 7 8 7h26c5 0 8 -2 8 -7v-300c0 -151 55 -224 195 -224s195 73 195 224v300c0 5 3 7 8 7h26c5 0 8 -2 8 -7v-324c0 -157 -81 -242 -238 -242z" />
    <glyph glyph-name="V" unicode="V" horiz-adv-x="580" 
d="M290 -5c-2 0 -4 1 -7 2l-253 561c0 7 3 10 10 10h22c5 0 10 -3 15 -10l213 -474l213 474c5 7 10 10 15 10h22c7 0 10 -3 10 -10l-253 -561c-3 -1 -5 -2 -7 -2z" />
    <glyph glyph-name="W" unicode="W" horiz-adv-x="778" 
d="M389 398c-4 0 -5 -2 -9 -6l-165 -395c-3 -1 -5 -2 -6 -2s-3 1 -6 2c-57 183 -116 379 -173 562c0 6 3 9 9 9h21c5 0 10 -3 14 -9l140 -456l169 407c3 3 5 4 6 4s3 -1 6 -4l169 -407l140 456c4 6 9 9 14 9h21c6 0 9 -3 9 -9c-57 -183 -116 -379 -173 -562
c-3 -1 -5 -2 -6 -2s-3 1 -6 2l-165 395c-4 4 -5 6 -9 6z" />
    <glyph glyph-name="X" unicode="X" horiz-adv-x="498" 
d="M416 9l-167 241l-167 -241c-4 -6 -9 -9 -14 -9h-28c-6 0 -9 3 -9 9l191 276l-192 274c0 6 3 9 9 9h30c5 0 10 -3 14 -9l166 -241l166 241c4 6 9 9 14 9h30c6 0 9 -3 9 -9l-192 -274l191 -276c0 -6 -3 -9 -9 -9h-28c-5 0 -10 3 -14 9z" />
    <glyph glyph-name="Y" unicode="Y" horiz-adv-x="528" 
d="M264 262l185 297c4 6 9 9 14 9h26c6 0 9 -3 9 -9l-213 -347v-205c0 -5 -3 -7 -8 -7h-26c-5 0 -8 2 -8 7v205l-213 347c0 6 3 9 9 9h26c5 0 10 -3 14 -9z" />
    <glyph glyph-name="Z" unicode="Z" horiz-adv-x="474" 
d="M426 0h-380c-4 0 -6 2 -6 7c0 3 0 5 1 6l318 510h-310c-6 0 -9 3 -9 9v27c0 6 3 9 9 9h377c5 0 8 -2 8 -7c0 -2 0 -3 -1 -4l-318 -512h310c6 0 9 -3 9 -9v-27c0 -6 -3 -9 -8 -9z" />
    <glyph glyph-name="bracketleft" unicode="[" horiz-adv-x="315" 
d="M122 -126h104c6 0 9 -3 9 -9v-27c0 -6 -3 -9 -9 -9h-137c-6 0 -9 3 -9 9v872c0 6 3 9 9 9h137c6 0 9 -3 9 -9v-27c0 -6 -3 -9 -9 -9h-104v-800z" />
    <glyph glyph-name="backslash" unicode="\" horiz-adv-x="498" 
d="M371 -115l-291 773c0 7 3 10 10 10h23c5 0 10 -4 14 -11l291 -773c0 -7 -3 -10 -10 -10h-23c-5 0 -10 4 -14 11z" />
    <glyph glyph-name="bracketright" unicode="]" horiz-adv-x="315" 
d="M89 -126h104v800h-104c-6 0 -9 3 -9 9v27c0 6 3 9 9 9h137c6 0 9 -3 9 -9v-872c0 -6 -3 -9 -9 -9h-137c-6 0 -9 3 -9 9v27c0 6 3 9 9 9z" />
    <glyph glyph-name="asciicircum" unicode="^" horiz-adv-x="390" 
d="M174 568h42c4 0 7 -2 9 -5l85 -154c0 -7 -3 -10 -9 -10h-29c-7 0 -8 5 -11 10l-66 121l-66 -121c-3 -5 -4 -10 -11 -10h-29c-6 0 -9 3 -9 10l85 154c2 3 5 5 9 5z" />
    <glyph glyph-name="underscore" unicode="_" horiz-adv-x="454" 
d="M366 -50h-278c-5 0 -8 3 -8 9v27c0 6 3 9 9 9h276c6 0 9 -3 9 -9v-27c0 -6 -3 -9 -8 -9z" />
    <glyph glyph-name="grave" unicode="`" horiz-adv-x="260" 
d="M136 560l44 -121c-3 -6 -6 -9 -9 -9h-17c-5 0 -7 4 -10 7c-23 39 -40 84 -64 123c0 5 2 8 7 8h40c4 0 7 -3 9 -8z" />
    <glyph glyph-name="a" unicode="a" horiz-adv-x="458" 
d="M213 37c15 0 83 9 128 57v37c-27 45 -99 67 -139 67c-84 0 -107 -27 -107 -82c0 -47 35 -79 118 -79zM116 350c-4 -1 -5 -2 -8 -2s-6 2 -8 7l-7 26c0 3 1 6 4 8c43 15 72 16 101 16c121 0 185 -64 185 -177v-220c0 -5 -3 -8 -8 -8h-18c-6 0 -10 3 -12 9l-5 45
c-35 -59 -130 -59 -139 -59c-40 0 -151 7 -151 122c0 91 57 126 133 126c45 0 99 -5 158 -58c0 152 -58 175 -158 175c-15 0 -39 -3 -67 -10z" />
    <glyph glyph-name="b" unicode="b" horiz-adv-x="531" 
d="M285 37c88 0 156 45 156 164c0 100 -68 159 -156 159c-83 0 -163 -58 -163 -159c0 -104 78 -164 163 -164zM80 7v552c0 6 3 9 9 9h24c6 0 9 -3 9 -9v-229c58 74 144 75 161 75c125 0 203 -84 203 -203c0 -114 -65 -207 -191 -207c-44 0 -106 9 -173 78l-4 -64
c-2 -6 -6 -9 -12 -9h-18c-5 0 -8 2 -8 7z" />
    <glyph glyph-name="c" unicode="c" horiz-adv-x="411" 
d="M364 17c-33 -17 -75 -22 -114 -22c-112 0 -205 92 -205 205c0 112 93 205 205 205c45 0 82 -8 117 -31c3 -3 4 -5 4 -6c0 -3 0 -5 -1 -6l-12 -19c-3 -3 -6 -5 -8 -5s-3 0 -4 1l-2 2c-31 15 -67 19 -94 19c-89 0 -160 -74 -160 -162c0 -89 71 -161 160 -161
c31 0 65 3 94 14c1 1 3 1 6 1s5 -1 7 -3l9 -20c1 -2 2 -4 2 -7c0 -1 -1 -3 -4 -5z" />
    <glyph glyph-name="d" unicode="d" horiz-adv-x="531" 
d="M246 37c85 0 163 60 163 164c0 101 -80 159 -163 159c-88 0 -156 -59 -156 -159c0 -119 68 -164 156 -164zM451 559v-552c0 -5 -3 -7 -8 -7h-18c-6 0 -10 3 -12 9l-4 64c-67 -69 -129 -78 -173 -78c-126 0 -191 93 -191 207c0 119 77 203 203 203c19 0 101 -1 161 -75
v229c0 6 3 9 9 9h24c6 0 9 -3 9 -9z" />
    <glyph glyph-name="e" unicode="e" horiz-adv-x="470" 
d="M92 217h286c0 109 -77 143 -146 143c-70 0 -140 -36 -140 -143zM381 23c-35 -23 -85 -28 -126 -28c-116 0 -210 64 -210 205c0 111 54 205 190 205s190 -94 190 -205v-14c0 -6 -3 -9 -9 -9h-324c0 -120 106 -140 162 -140c28 0 72 5 107 20c1 1 3 1 6 1s5 -1 7 -3l9 -20
c1 -2 2 -4 2 -7c0 -1 -1 -3 -4 -5z" />
    <glyph glyph-name="f" unicode="f" horiz-adv-x="343" 
d="M39 405h90v12c0 166 45 208 125 208c12 0 39 1 63 -6c4 -3 6 -5 6 -6c0 -3 -3 -13 -8 -28c-1 -2 -4 -3 -8 -3c-8 1 -21 1 -32 1c-83 0 -104 -32 -104 -166v-12h123c6 0 9 -3 9 -9v-27c0 -6 -3 -9 -9 -9h-123v-351c0 -6 -3 -9 -9 -9h-24c-6 0 -9 3 -9 9v351h-90
c-6 0 -9 3 -9 9v27c0 6 3 9 9 9z" />
    <glyph glyph-name="g" unicode="g" horiz-adv-x="531" 
d="M246 37c85 0 160 60 160 164c0 101 -77 159 -160 159c-88 0 -156 -59 -156 -159c0 -119 68 -164 156 -164zM118 -169c-3 1 -5 4 -5 7c0 1 1 3 2 6l7 20c2 2 4 3 5 3c2 0 4 -1 7 -2c43 -17 87 -19 116 -19c126 0 159 50 159 139v88c-67 -69 -129 -78 -173 -78
c-126 0 -191 93 -191 207c0 119 77 203 203 203c19 0 98 -1 158 -75l7 61c2 6 6 9 12 9h18c5 0 8 -2 8 -7v-416c0 -145 -101 -173 -187 -173c-61 0 -110 6 -146 27z" />
    <glyph glyph-name="h" unicode="h" horiz-adv-x="515" 
d="M122 561v-229c65 73 133 73 157 73c119 0 166 -67 166 -184v-214c0 -5 -3 -7 -8 -7h-26c-5 0 -8 2 -8 7v196c0 85 -6 157 -135 157c-84 0 -146 -74 -146 -158v-195c0 -5 -3 -7 -8 -7h-26c-5 0 -8 2 -8 7v554c0 5 3 7 8 7h26c5 0 8 -2 8 -7z" />
    <glyph glyph-name="i" unicode="i" 
d="M80 7v386c0 5 3 7 8 7h26c5 0 8 -2 8 -7v-386c0 -5 -3 -7 -8 -7h-26c-5 0 -8 2 -8 7zM71 475c0 16 13 30 30 30s30 -14 30 -30c0 -17 -13 -30 -30 -30s-30 13 -30 30z" />
    <glyph glyph-name="j" unicode="j" 
d="M-63 -185c-2 0 -3 2 -3 5s0 3 8 30c2 2 5 3 8 3c15 -3 33 -7 42 -7c67 0 88 10 88 141v406c0 5 3 7 8 7h26c5 0 8 -2 8 -7v-413c0 -145 -41 -176 -118 -176c-12 0 -43 0 -67 11zM71 475c0 16 13 30 30 30s30 -14 30 -30c0 -17 -13 -30 -30 -30s-30 13 -30 30z" />
    <glyph glyph-name="k" unicode="k" horiz-adv-x="427" 
d="M80 7v554c0 5 3 7 8 7h26c5 0 8 -2 8 -7v-337c104 84 158 125 185 148c16 13 25 20 28 23c7 5 9 5 14 5h39c6 0 9 -3 9 -9l-230 -185l227 -197c0 -6 -3 -9 -9 -9h-39c-3 0 -8 2 -14 7l-210 181v-181c0 -5 -3 -7 -8 -7h-26c-5 0 -8 2 -8 7z" />
    <glyph glyph-name="l" unicode="l" 
d="M80 7v554c0 5 3 7 8 7h26c5 0 8 -2 8 -7v-554c0 -5 -3 -7 -8 -7h-26c-5 0 -8 2 -8 7z" />
    <glyph glyph-name="m" unicode="m" horiz-adv-x="726" 
d="M614 7v216c0 93 -31 137 -104 137c-57 0 -111 -42 -119 -103c3 -13 2 -22 2 -35v-215c0 -5 -3 -7 -8 -7h-26c-5 0 -8 2 -8 7v197c0 84 -33 156 -109 156c-80 0 -120 -72 -120 -156v-197c0 -5 -3 -7 -8 -7h-26c-5 0 -8 2 -8 7v386c0 5 3 7 8 7h18c6 0 10 -3 12 -9l3 -59
c40 73 108 73 124 73c36 0 90 -17 127 -78c51 76 107 78 144 78c95 0 140 -68 140 -165v-233c0 -5 -3 -7 -8 -7h-26c-5 0 -8 2 -8 7z" />
    <glyph glyph-name="n" unicode="n" horiz-adv-x="515" 
d="M445 221v-214c0 -5 -3 -7 -8 -7h-26c-5 0 -8 2 -8 7v196c0 85 -6 157 -135 157c-84 0 -146 -74 -146 -158v-195c0 -5 -3 -7 -8 -7h-26c-5 0 -8 2 -8 7v386c0 5 3 7 8 7h18c6 0 10 -3 12 -9l3 -59c65 73 134 73 158 73c119 0 166 -67 166 -184z" />
    <glyph glyph-name="o" unicode="o" horiz-adv-x="500" 
d="M250 405c113 0 205 -93 205 -205c0 -113 -92 -205 -205 -205c-112 0 -205 92 -205 205c0 112 93 205 205 205zM250 37c90 0 160 72 160 161c0 88 -70 162 -160 162c-89 0 -160 -74 -160 -162c0 -89 71 -161 160 -161z" />
    <glyph glyph-name="p" unicode="p" horiz-adv-x="531" 
d="M285 37c88 0 156 45 156 164c0 100 -68 159 -156 159c-83 0 -160 -58 -160 -159c0 -104 75 -164 160 -164zM122 73v-237c0 -5 -3 -7 -8 -7h-26c-5 0 -8 2 -8 7v557c0 5 3 7 8 7h18c6 0 10 -3 12 -9l7 -61c58 74 141 75 158 75c125 0 203 -84 203 -203
c0 -114 -65 -207 -191 -207c-44 0 -106 9 -173 78z" />
    <glyph glyph-name="q" unicode="q" horiz-adv-x="531" 
d="M246 37c85 0 160 60 160 164c0 101 -77 159 -160 159c-88 0 -156 -59 -156 -159c0 -119 68 -164 156 -164zM409 -164v237c-67 -69 -129 -78 -173 -78c-126 0 -191 93 -191 207c0 119 77 203 203 203c19 0 98 -1 158 -75l7 61c2 6 6 9 12 9h18c5 0 8 -2 8 -7v-557
c0 -5 -3 -7 -8 -7h-26c-5 0 -8 2 -8 7z" />
    <glyph glyph-name="r" unicode="r" horiz-adv-x="318" 
d="M122 199v-192c0 -5 -3 -7 -8 -7h-26c-5 0 -8 2 -8 7v386c0 5 3 7 8 7h18c6 0 10 -3 12 -9l5 -59c46 73 126 73 155 73h11c6 0 9 -3 9 -9v-27c0 -6 -3 -9 -8 -9h-14c-123 0 -154 -81 -154 -161z" />
    <glyph glyph-name="s" unicode="s" horiz-adv-x="406" 
d="M70 62c36 -12 78 -26 121 -26c32 0 122 0 122 57c0 97 -258 79 -258 212c0 67 51 100 142 100c29 0 80 -5 113 -12c3 -3 5 -6 5 -10l-7 -25c-1 -1 -5 -5 -9 -5c-28 7 -63 7 -91 7c-94 0 -111 -25 -111 -60c0 -73 258 -85 258 -196c0 -89 -82 -109 -154 -109
c-47 0 -98 9 -138 28c-3 2 -5 6 -5 11l5 23c1 3 3 5 7 5z" />
    <glyph glyph-name="t" unicode="t" horiz-adv-x="347" 
d="M134 405v154c0 6 3 9 9 9h24c6 0 9 -3 9 -9v-154h116c6 0 9 -3 9 -9v-27c0 -6 -3 -9 -9 -9h-116v-167c0 -131 17 -156 100 -156c4 0 7 1 10 1c4 0 7 -2 8 -5c7 -25 7 -27 7 -30s-5 -7 -6 -7c-12 -1 -22 -1 -38 -1c-76 0 -123 37 -123 162v203h-90c-6 0 -9 3 -9 9v27
c0 6 3 9 9 9h90z" />
    <glyph glyph-name="u" unicode="u" horiz-adv-x="515" 
d="M70 179v214c0 5 3 7 8 7h26c5 0 8 -2 8 -7v-199c0 -85 6 -157 135 -157c84 0 146 75 146 124v232c0 5 3 7 8 7h26c5 0 8 -2 8 -7v-386c0 -5 -3 -7 -8 -7h-18c-6 0 -10 3 -12 9l-3 57c-63 -71 -136 -71 -158 -71c-119 0 -166 67 -166 184z" />
    <glyph glyph-name="v" unicode="v" horiz-adv-x="416" 
d="M208 -5c-1 0 -3 1 -6 2l-177 394c0 6 3 9 9 9h28c4 0 9 -3 14 -9l132 -298l132 298c5 6 9 9 14 9h28c6 0 9 -3 9 -9l-177 -394c-3 -1 -5 -2 -6 -2z" />
    <glyph glyph-name="w" unicode="w" horiz-adv-x="646" 
d="M323 287c-3 0 -6 -2 -9 -5l-136 -285c-3 -1 -5 -2 -6 -2s-3 1 -6 2l-131 394c0 6 3 9 9 9h24c5 0 10 -3 14 -9l97 -291l136 299c3 1 5 2 8 2s5 -1 8 -2l136 -299l97 291c4 6 9 9 14 9h24c6 0 9 -3 9 -9l-131 -394c-3 -1 -5 -2 -6 -2s-3 1 -6 2l-136 285c-3 3 -6 5 -9 5z
" />
    <glyph glyph-name="x" unicode="x" horiz-adv-x="412" 
d="M317 9l-110 152l-112 -152c-4 -6 -9 -9 -14 -9h-33c-5 0 -8 3 -8 9l140 190l-142 192c0 6 3 9 9 9h34c5 0 10 -3 14 -9l111 -155l111 155c4 6 9 9 14 9h34c6 0 9 -3 9 -9l-142 -192l140 -190c0 -6 -3 -9 -8 -9h-33c-5 0 -10 3 -14 9z" />
    <glyph glyph-name="y" unicode="y" horiz-adv-x="418" 
d="M393 391l-263 -553c-5 -6 -10 -9 -14 -9h-28c-6 0 -9 3 -9 9l112 234l-151 319c0 6 3 9 9 9h28c4 0 9 -3 14 -9l125 -266l126 266c5 6 9 9 14 9h28c6 0 9 -3 9 -9z" />
    <glyph glyph-name="z" unicode="z" horiz-adv-x="431" 
d="M59 400h314c5 0 8 -2 8 -7c0 -2 0 -3 -1 -4l-250 -344h242c6 0 9 -3 9 -9v-27c0 -6 -3 -9 -8 -9h-317c-4 0 -6 2 -6 7c0 3 0 5 1 6l249 342h-241c-6 0 -9 3 -9 9v27c0 6 3 9 9 9z" />
    <glyph glyph-name="braceleft" unicode="{" horiz-adv-x="405" 
d="M163 -15v174c0 41 -31 79 -74 90c-6 0 -9 3 -9 9v27c0 6 3 9 9 9c43 11 74 48 74 91v178c0 126 29 156 108 156h45c6 0 9 -3 9 -9v-27c0 -6 -3 -9 -9 -9h-48c-56 0 -63 -27 -63 -125v-152c0 -44 -23 -88 -58 -125c35 -39 58 -83 58 -127v-146c0 -99 7 -125 63 -125h48
c6 0 9 -3 9 -9v-27c0 -6 -3 -9 -9 -9h-45c-79 0 -108 30 -108 156z" />
    <glyph glyph-name="bar" unicode="|" 
d="M80 -164v871c0 5 3 7 8 7h26c5 0 8 -2 8 -7v-871c0 -5 -3 -7 -8 -7h-26c-5 0 -8 2 -8 7z" />
    <glyph glyph-name="braceright" unicode="}" horiz-adv-x="405" 
d="M242 159v-174c0 -126 -29 -156 -108 -156h-45c-6 0 -9 3 -9 9v27c0 6 3 9 9 9h48c56 0 63 26 63 125v146c0 44 23 88 58 127c-35 37 -58 81 -58 125v152c0 98 -7 125 -63 125h-48c-6 0 -9 3 -9 9v27c0 6 3 9 9 9h45c79 0 108 -30 108 -156v-178c0 -43 31 -80 74 -91
c6 0 9 -3 9 -9v-27c0 -6 -3 -9 -9 -9c-43 -11 -74 -49 -74 -90z" />
    <glyph glyph-name="asciitilde" unicode="~" horiz-adv-x="455" 
d="M368 178c-27 -23 -51 -32 -86 -32c-43 0 -72 35 -110 35c-21 0 -46 -12 -62 -24c-1 -1 -3 -1 -5 -1c-3 0 -6 2 -10 6l-14 14c-1 1 -1 2 -1 3c0 4 4 6 7 9c27 23 52 35 85 35c66 0 64 -35 111 -35c22 0 42 7 60 21c1 1 3 1 5 1c4 0 8 -2 25 -17c1 -3 2 -4 2 -4
c0 -5 -2 -9 -7 -11z" />
    <glyph glyph-name="ellipsis" unicode="&#x2026;" horiz-adv-x="660" 
d="M80 25c0 17 13 30 30 30s30 -13 30 -30s-13 -30 -30 -30s-30 13 -30 30zM300 25c0 17 13 30 30 30s30 -13 30 -30s-13 -30 -30 -30s-30 13 -30 30zM520 25c0 17 13 30 30 30s30 -13 30 -30s-13 -30 -30 -30s-30 13 -30 30z" />
    <glyph glyph-name="quoteleft" unicode="&#x2018;" horiz-adv-x="224" 
d="M125 568h12c3 0 5 -2 5 -6l-17 -53c11 -8 19 -18 19 -29c0 -19 -15 -32 -32 -32c-19 0 -32 13 -32 32c0 4 2 11 3 12l34 69c1 5 3 7 8 7z" />
    <glyph glyph-name="quoteright" unicode="&#x2019;" horiz-adv-x="224" 
d="M99 448h-12c-3 0 -5 2 -5 6l17 53c-11 8 -19 18 -19 29c0 19 15 32 32 32c19 0 32 -13 32 -32c0 -4 -2 -11 -3 -12l-34 -69c-1 -5 -3 -7 -8 -7z" />
    <glyph glyph-name="quotedblleft" unicode="&#x201c;" horiz-adv-x="337" 
d="M125 568h12c3 0 5 -2 5 -6l-17 -53c11 -8 19 -18 19 -29c0 -19 -15 -32 -32 -32c-19 0 -32 13 -32 32c0 4 2 11 3 12l34 69c1 5 3 7 8 7zM238 568h12c3 0 5 -2 5 -6l-17 -53c11 -8 19 -18 19 -29c0 -19 -15 -32 -32 -32c-19 0 -32 13 -32 32c0 4 2 11 3 12l34 69
c1 5 3 7 8 7z" />
    <glyph glyph-name="quotedblright" unicode="&#x201d;" horiz-adv-x="337" 
d="M212 448h-12c-3 0 -5 2 -5 6l17 53c-11 8 -19 18 -19 29c0 19 15 32 32 32c19 0 32 -13 32 -32c0 -4 -2 -11 -3 -12l-34 -69c-1 -5 -3 -7 -8 -7zM99 448h-12c-3 0 -5 2 -5 6l17 53c-11 8 -19 18 -19 29c0 19 15 32 32 32c19 0 32 -13 32 -32c0 -4 -2 -11 -3 -12l-34 -69
c-1 -5 -3 -7 -8 -7z" />
    <glyph glyph-name="bullet" unicode="&#x2022;" horiz-adv-x="236" 
d="M80 184c0 21 16 38 36 38c23 0 40 -17 40 -38c0 -20 -17 -37 -40 -37c-20 0 -36 17 -36 37z" />
    <glyph glyph-name="endash" unicode="&#x2013;" horiz-adv-x="442" 
d="M89 207h264c6 0 9 -3 9 -9v-27c0 -6 -3 -9 -8 -9h-266c-5 0 -8 3 -8 9v27c0 6 3 9 9 9z" />
    <glyph glyph-name="emdash" unicode="&#x2014;" horiz-adv-x="504" 
d="M89 207h326c6 0 9 -3 9 -9v-27c0 -6 -3 -9 -8 -9h-328c-5 0 -8 3 -8 9v27c0 6 3 9 9 9z" />
    <glyph glyph-name="uni00A0" unicode="&#xa0;" horiz-adv-x="199" 
 />
    <glyph glyph-name="uni25CC" unicode="&#x25cc;" horiz-adv-x="199" 
 />
    <glyph glyph-name="ZWSP" unicode="&#x200b;" horiz-adv-x="0" 
 />
    <glyph glyph-name="onequarter" unicode="&#xbc;" horiz-adv-x="715" 
d="M450 558l-212 -547c-4 -7 -9 -11 -14 -11h-14c-7 0 -10 3 -10 10l207 547c4 7 9 11 14 11h19c7 0 10 -3 10 -10zM205 563v-297c0 -5 -2 -7 -6 -7h-26c-4 0 -6 2 -6 7v243c-29 -15 -63 -24 -82 -24c-3 0 -5 2 -5 6v19c0 4 2 6 6 6c75 19 102 52 114 52c3 0 5 -2 5 -5z
M377 125l130 170c2 3 5 5 10 5h31c3 0 5 -2 6 -5v-196h21c4 0 6 -2 6 -6v-24c0 -4 -2 -6 -6 -6h-21v-57c0 -4 -2 -6 -6 -6h-25c-5 0 -7 2 -7 6v57h-140c-4 0 -6 2 -6 6v36c0 4 4 16 7 20zM516 99v146l-110 -146h110z" />
    <glyph glyph-name="onehalf" unicode="&#xbd;" horiz-adv-x="713" 
d="M450 558l-212 -547c-4 -7 -9 -11 -14 -11h-14c-7 0 -10 3 -10 10l207 547c4 7 9 11 14 11h19c7 0 10 -3 10 -10zM421 6v34c0 63 173 131 173 177c0 24 -8 47 -76 47c-19 0 -63 -8 -76 -16c-3 -1 -6 -3 -7 -3c-3 0 -5 2 -6 5l-7 18c-3 3 1 8 4 9c15 11 57 23 93 23
c76 0 113 -25 113 -85c0 -64 -139 -112 -177 -179h171c5 0 7 -2 7 -7v-23c0 -4 -2 -6 -7 -6h-199c-4 0 -6 2 -6 6zM205 563v-297c0 -5 -2 -7 -6 -7h-26c-4 0 -6 2 -6 7v243c-29 -15 -63 -24 -82 -24c-3 0 -5 2 -5 6v19c0 4 2 6 6 6c75 19 102 52 114 52c3 0 5 -2 5 -5z" />
    <glyph glyph-name="threequarters" unicode="&#xbe;" horiz-adv-x="734" 
d="M513 558l-212 -547c-4 -7 -9 -11 -14 -11h-14c-7 0 -10 3 -10 10l207 547c4 7 9 11 14 11h19c7 0 10 -3 10 -10zM156 410l72 122h-142c-4 0 -6 2 -6 7v23c0 4 2 6 6 6h197c4 0 6 -2 6 -5c0 -1 0 -2 -1 -3l-67 -116c40 -11 68 -40 68 -77c0 -60 -36 -104 -116 -104
c-28 0 -72 11 -92 30c-1 1 -1 3 -1 6c0 1 1 3 2 4l17 15c1 1 2 1 4 1c19 -8 47 -19 71 -19c29 0 77 20 77 68c0 33 -45 40 -72 40c-7 0 -13 0 -20 -1c-2 0 -3 1 -3 3zM450 125l130 170c2 3 5 5 10 5h31c3 0 5 -2 6 -5v-196h21c4 0 6 -2 6 -6v-24c0 -4 -2 -6 -6 -6h-21v-57
c0 -4 -2 -6 -6 -6h-25c-5 0 -7 2 -7 6v57h-140c-4 0 -6 2 -6 6v36c0 4 4 16 7 20zM589 99v146l-110 -146h110z" />
    <glyph glyph-name="questiondown" unicode="&#xbf;" horiz-adv-x="451" 
d="M270 545c0 -17 -13 -30 -30 -30s-30 13 -30 30s13 30 30 30s30 -13 30 -30zM260 445v-53c0 -120 -115 -166 -115 -267c0 -65 13 -88 109 -88c34 0 46 9 75 19c3 1 3 2 6 2s6 -2 7 -5l7 -21c2 -5 0 -8 -5 -11c-27 -16 -50 -26 -102 -26c-87 0 -139 34 -139 130
c0 109 115 166 115 272v48c0 5 3 7 8 7h26c5 0 8 -2 8 -7z" />
    <glyph glyph-name="Superstore" horiz-adv-x="665" 
d="M331 505c140 0 254 -114 254 -254c0 -138 -114 -251 -254 -251c-138 0 -251 113 -251 251c0 140 113 254 251 254zM429 90h9c19 0 32 6 32 27c0 23 -7 30 -24 30v133c0 35 -15 56 -32 71c7 3 12 2 19 2s12 1 19 -2h11v65c-41 -5 -84 -15 -115 -32c-12 3 -21 2 -37 2
c-31 0 -57 -3 -88 -14v-63h6c25 8 55 16 76 16c24 0 74 1 74 -43l-82 -8c-48 -5 -102 -17 -102 -92c0 -56 42 -92 102 -92c15 0 30 0 43 3v54l-6 4c-9 -4 -15 -4 -23 -4c-21 0 -45 10 -45 41c0 22 13 25 113 41v-71c0 -48 10 -68 50 -68z" />
    <glyph glyph-name="yen" unicode="&#xa5;" horiz-adv-x="628" 
d="M166 273h89l-175 286c0 6 3 9 9 9h26c5 0 10 -3 14 -9l185 -297l185 297c4 6 9 9 14 9h26c6 0 9 -3 9 -9l-176 -286h89c6 0 9 -3 9 -9v-27c0 -6 -3 -9 -8 -9h-117l-10 -16v-75h126c6 0 9 -3 9 -9v-27c0 -6 -3 -9 -8 -9h-127v-85c0 -5 -3 -7 -8 -7h-26c-5 0 -8 2 -8 7v85
h-128c-5 0 -8 3 -8 9v27c0 6 3 9 9 9h127v75l-10 16h-118c-5 0 -8 3 -8 9v27c0 6 3 9 9 9z" />
    <glyph glyph-name="Euro" unicode="&#x20ac;" horiz-adv-x="717" 
d="M89 417h84c48 93 147 158 259 158c64 0 128 -20 176 -56c2 -2 3 -4 3 -5c0 -2 -1 -4 -4 -7l-14 -15c-3 -3 -6 -4 -9 -4c-2 0 -4 1 -6 3c-43 31 -89 39 -146 39c-88 0 -164 -45 -208 -113h129c6 0 9 -3 9 -9v-17c0 -6 -3 -9 -8 -9h-148c-13 -31 -20 -64 -20 -99
c0 -29 4 -56 13 -80h154c6 0 9 -3 9 -9v-17c0 -6 -3 -9 -8 -9h-140c41 -79 122 -131 218 -131c49 0 117 11 176 59c2 2 5 3 8 3s6 -1 8 -4l10 -16c1 -3 3 -4 3 -7v-1c0 -1 0 -1 -1 -2c-51 -55 -123 -74 -203 -74c-120 0 -221 71 -267 173h-78c-5 0 -8 3 -8 9v17c0 6 3 9 9 9
h64c-8 26 -12 53 -12 82c0 35 5 67 16 97h-69c-5 0 -8 3 -8 9v17c0 6 3 9 9 9z" />
    <glyph glyph-name="ocircumflex" unicode="&#xf4;" horiz-adv-x="500" 
d="M250 405c112 0 205 -93 205 -205c0 -113 -93 -205 -205 -205c-113 0 -205 92 -205 205c0 112 92 205 205 205zM250 37c89 0 160 72 160 161c0 88 -71 162 -160 162c-90 0 -160 -74 -160 -162c0 -89 70 -161 160 -161zM258 592h-16c-4 0 -8 -3 -11 -6l-94 -81
c-2 -2 -3 -4 -3 -6c0 -1 2 -4 5 -7l14 -13c2 -2 4 -3 7 -3s5 1 6 2l84 77l84 -77c1 -1 3 -2 6 -2s5 1 7 3l14 13c3 3 5 6 5 7c0 2 -1 4 -3 6l-94 81c-3 3 -7 6 -11 6z" />
    <glyph glyph-name="Agrave" unicode="&#xc0;" horiz-adv-x="578" 
d="M296 569l252 -559c0 -7 -3 -10 -10 -10h-22c-5 0 -10 3 -15 10l-55 125h-314l-55 -125c-5 -7 -10 -10 -15 -10h-22c-7 0 -10 3 -10 10l252 559c3 1 5 2 7 2s4 -1 7 -2zM153 180h272l-136 300zM251 756l46 -107c0 -7 -3 -10 -10 -10h-10c-7 0 -12 6 -15 10l-71 107
c0 7 3 10 10 10h40c5 0 9 -9 10 -10z" />
    <glyph glyph-name="Aacute" unicode="&#xc1;" horiz-adv-x="578" 
d="M296 569l252 -559c0 -7 -3 -10 -10 -10h-22c-5 0 -10 3 -15 10l-55 125h-314l-55 -125c-5 -7 -10 -10 -15 -10h-22c-7 0 -10 3 -10 10l252 559c3 1 5 2 7 2s4 -1 7 -2zM153 180h272l-136 300zM282 649l46 107c1 1 5 10 10 10h40c7 0 10 -3 10 -10l-71 -107
c-3 -4 -8 -10 -15 -10h-10c-7 0 -10 3 -10 10z" />
    <glyph glyph-name="Acircumflex" unicode="&#xc2;" horiz-adv-x="578" 
d="M296 569l252 -559c0 -7 -3 -10 -10 -10h-22c-5 0 -10 3 -15 10l-55 125h-314l-55 -125c-5 -7 -10 -10 -15 -10h-22c-7 0 -10 3 -10 10l252 559c3 1 5 2 7 2s4 -1 7 -2zM153 180h272l-136 300zM297 753h-16c-4 0 -8 -3 -11 -6l-94 -81c-2 -2 -3 -4 -3 -6c0 -1 2 -4 5 -7
l14 -13c2 -2 4 -3 7 -3s5 1 6 2l84 77l84 -77c1 -1 3 -2 6 -2s5 1 7 3l14 13c3 3 5 6 5 7c0 2 -1 4 -3 6l-94 81c-3 3 -7 6 -11 6z" />
    <glyph glyph-name="Atilde" unicode="&#xc3;" horiz-adv-x="578" 
d="M296 569l252 -559c0 -7 -3 -10 -10 -10h-22c-5 0 -10 3 -15 10l-55 125h-314l-55 -125c-5 -7 -10 -10 -15 -10h-22c-7 0 -10 3 -10 10l252 559c3 1 5 2 7 2s4 -1 7 -2zM153 180h272l-136 300zM431 671c-27 -23 -51 -32 -86 -32c-43 0 -72 35 -110 35
c-21 0 -46 -12 -62 -24c-1 -1 -3 -1 -5 -1c-3 0 -6 2 -10 6l-14 14c-1 1 -1 2 -1 3c0 4 4 6 7 9c27 23 52 35 85 35c66 0 64 -35 111 -35c22 0 42 7 60 21c1 1 3 1 5 1c4 0 8 -2 25 -17c1 -3 2 -4 2 -4c0 -5 -2 -9 -7 -11z" />
    <glyph glyph-name="Adieresis" unicode="&#xc4;" horiz-adv-x="578" 
d="M296 569l252 -559c0 -7 -3 -10 -10 -10h-22c-5 0 -10 3 -15 10l-55 125h-314l-55 -125c-5 -7 -10 -10 -15 -10h-22c-7 0 -10 3 -10 10l252 559c3 1 5 2 7 2s4 -1 7 -2zM153 180h272l-136 300zM206 669c0 17 13 30 30 30s30 -13 30 -30s-13 -30 -30 -30s-30 13 -30 30z
M314 669c0 17 13 30 30 30s30 -13 30 -30s-13 -30 -30 -30s-30 13 -30 30z" />
    <glyph glyph-name="copyright" unicode="&#xa9;" horiz-adv-x="733" 
d="M366 568c159 0 287 -128 287 -287c0 -157 -128 -286 -287 -286c-157 0 -286 129 -286 286c0 159 129 287 286 287zM366 31c133 0 254 120 254 251c0 133 -121 254 -254 254c-131 0 -251 -121 -251 -254c0 -131 120 -251 251 -251zM478 138c-29 -19 -68 -28 -103 -28
c-93 0 -165 77 -165 171c0 91 72 167 165 167c39 0 73 -10 104 -34c1 -1 1 -3 1 -4s-2 -4 -5 -7l-15 -15c-2 -2 -4 -3 -6 -3s-3 0 -4 1c-1 0 -1 0 -1 1c-21 12 -55 18 -74 18c-56 0 -121 -45 -121 -125c0 -81 64 -133 120 -133c25 0 60 6 80 17c1 1 3 2 5 2s5 -1 8 -3
l12 -14c2 -2 3 -4 3 -6s-1 -4 -4 -5z" />
    <glyph glyph-name="agrave" unicode="&#xe0;" horiz-adv-x="458" 
d="M215 593l46 -107c0 -7 -3 -10 -10 -10h-10c-7 0 -12 6 -15 10l-71 107c0 7 3 10 10 10h40c5 0 9 -9 10 -10zM213 37c15 0 83 9 128 57v37c-27 45 -99 67 -139 67c-84 0 -107 -27 -107 -82c0 -47 35 -79 118 -79zM116 350c-4 -1 -5 -2 -8 -2s-6 2 -8 7l-7 26c0 3 1 6 4 8
c43 15 72 16 101 16c121 0 185 -64 185 -177v-220c0 -5 -3 -8 -8 -8h-18c-6 0 -10 3 -12 9l-5 45c-35 -59 -130 -59 -139 -59c-40 0 -151 7 -151 122c0 91 57 126 133 126c45 0 99 -5 158 -58c0 152 -58 175 -158 175c-15 0 -39 -3 -67 -10z" />
    <glyph glyph-name="aacute" unicode="&#xe1;" horiz-adv-x="458" 
d="M224 486l46 107c1 1 5 10 10 10h40c7 0 10 -3 10 -10l-71 -107c-3 -4 -8 -10 -15 -10h-10c-7 0 -10 3 -10 10zM213 37c15 0 83 9 128 57v37c-27 45 -99 67 -139 67c-84 0 -107 -27 -107 -82c0 -47 35 -79 118 -79zM116 350c-4 -1 -5 -2 -8 -2s-6 2 -8 7l-7 26
c0 3 1 6 4 8c43 15 72 16 101 16c121 0 185 -64 185 -177v-220c0 -5 -3 -8 -8 -8h-18c-6 0 -10 3 -12 9l-5 45c-35 -59 -130 -59 -139 -59c-40 0 -151 7 -151 122c0 91 57 126 133 126c45 0 99 -5 158 -58c0 152 -58 175 -158 175c-15 0 -39 -3 -67 -10z" />
    <glyph glyph-name="acircumflex" unicode="&#xe2;" horiz-adv-x="458" 
d="M242 592h-16c-4 0 -8 -3 -11 -6l-94 -81c-2 -2 -3 -4 -3 -6c0 -1 2 -4 5 -7l14 -13c2 -2 4 -3 7 -3s5 1 6 2l84 77l84 -77c1 -1 3 -2 6 -2s5 1 7 3l14 13c3 3 5 6 5 7c0 2 -1 4 -3 6l-94 81c-3 3 -7 6 -11 6zM213 37c15 0 83 9 128 57v37c-27 45 -99 67 -139 67
c-84 0 -107 -27 -107 -82c0 -47 35 -79 118 -79zM116 350c-4 -1 -5 -2 -8 -2s-6 2 -8 7l-7 26c0 3 1 6 4 8c43 15 72 16 101 16c121 0 185 -64 185 -177v-220c0 -5 -3 -8 -8 -8h-18c-6 0 -10 3 -12 9l-5 45c-35 -59 -130 -59 -139 -59c-40 0 -151 7 -151 122
c0 91 57 126 133 126c45 0 99 -5 158 -58c0 152 -58 175 -158 175c-15 0 -39 -3 -67 -10z" />
    <glyph glyph-name="atilde" unicode="&#xe3;" horiz-adv-x="458" 
d="M365 508c-27 -23 -51 -32 -86 -32c-43 0 -72 35 -110 35c-21 0 -46 -12 -62 -24c-1 -1 -3 -1 -5 -1c-3 0 -6 2 -10 6l-14 14c-1 1 -1 2 -1 3c0 4 4 6 7 9c27 23 52 35 85 35c66 0 64 -35 111 -35c22 0 42 7 60 21c1 1 3 1 5 1c4 0 8 -2 25 -17c1 -3 2 -4 2 -4
c0 -5 -2 -9 -7 -11zM213 37c15 0 83 9 128 57v37c-27 45 -99 67 -139 67c-84 0 -107 -27 -107 -82c0 -47 35 -79 118 -79zM116 350c-4 -1 -5 -2 -8 -2s-6 2 -8 7l-7 26c0 3 1 6 4 8c43 15 72 16 101 16c121 0 185 -64 185 -177v-220c0 -5 -3 -8 -8 -8h-18c-6 0 -10 3 -12 9
l-5 45c-35 -59 -130 -59 -139 -59c-40 0 -151 7 -151 122c0 91 57 126 133 126c45 0 99 -5 158 -58c0 152 -58 175 -158 175c-15 0 -39 -3 -67 -10z" />
    <glyph glyph-name="adieresis" unicode="&#xe4;" horiz-adv-x="458" 
d="M142 506c0 17 13 30 30 30s30 -13 30 -30s-13 -30 -30 -30s-30 13 -30 30zM264 506c0 17 13 30 30 30s30 -13 30 -30s-13 -30 -30 -30s-30 13 -30 30zM213 37c15 0 83 9 128 57v37c-27 45 -99 67 -139 67c-84 0 -107 -27 -107 -82c0 -47 35 -79 118 -79zM116 350
c-4 -1 -5 -2 -8 -2s-6 2 -8 7l-7 26c0 3 1 6 4 8c43 15 72 16 101 16c121 0 185 -64 185 -177v-220c0 -5 -3 -8 -8 -8h-18c-6 0 -10 3 -12 9l-5 45c-35 -59 -130 -59 -139 -59c-40 0 -151 7 -151 122c0 91 57 126 133 126c45 0 99 -5 158 -58c0 152 -58 175 -158 175
c-15 0 -39 -3 -67 -10z" />
    <glyph glyph-name="egrave" unicode="&#xe8;" horiz-adv-x="470" 
d="M92 217h286c0 109 -77 143 -146 143c-70 0 -140 -36 -140 -143zM381 23c-35 -23 -85 -28 -126 -28c-116 0 -210 64 -210 205c0 111 54 205 190 205s190 -94 190 -205v-14c0 -6 -3 -9 -9 -9h-324c0 -120 106 -140 162 -140c28 0 72 5 107 20c1 1 3 1 6 1s5 -1 7 -3l9 -20
c1 -2 2 -4 2 -7c0 -1 -1 -3 -4 -5zM215 593l46 -107c0 -7 -3 -10 -10 -10h-10c-7 0 -12 6 -15 10l-71 107c0 7 3 10 10 10h40c5 0 9 -9 10 -10z" />
    <glyph glyph-name="eacute" unicode="&#xe9;" horiz-adv-x="470" 
d="M92 217h286c0 109 -77 143 -146 143c-70 0 -140 -36 -140 -143zM381 23c-35 -23 -85 -28 -126 -28c-116 0 -210 64 -210 205c0 111 54 205 190 205s190 -94 190 -205v-14c0 -6 -3 -9 -9 -9h-324c0 -120 106 -140 162 -140c28 0 72 5 107 20c1 1 3 1 6 1s5 -1 7 -3l9 -20
c1 -2 2 -4 2 -7c0 -1 -1 -3 -4 -5zM217 486l46 107c1 1 5 10 10 10h40c7 0 10 -3 10 -10l-71 -107c-3 -4 -8 -10 -15 -10h-10c-7 0 -10 3 -10 10z" />
    <glyph glyph-name="ecircumflex" unicode="&#xea;" horiz-adv-x="470" 
d="M92 217h286c0 109 -77 143 -146 143c-70 0 -140 -36 -140 -143zM381 23c-35 -23 -85 -28 -126 -28c-116 0 -210 64 -210 205c0 111 54 205 190 205s190 -94 190 -205v-14c0 -6 -3 -9 -9 -9h-324c0 -120 106 -140 162 -140c28 0 72 5 107 20c1 1 3 1 6 1s5 -1 7 -3l9 -20
c1 -2 2 -4 2 -7c0 -1 -1 -3 -4 -5zM243 592h-16c-4 0 -8 -3 -11 -6l-94 -81c-2 -2 -3 -4 -3 -6c0 -1 2 -4 5 -7l14 -13c2 -2 4 -3 7 -3s5 1 6 2l84 77l84 -77c1 -1 3 -2 6 -2s5 1 7 3l14 13c3 3 5 6 5 7c0 2 -1 4 -3 6l-94 81c-3 3 -7 6 -11 6z" />
    <glyph glyph-name="edieresis" unicode="&#xeb;" horiz-adv-x="470" 
d="M92 217h286c0 109 -77 143 -146 143c-70 0 -140 -36 -140 -143zM381 23c-35 -23 -85 -28 -126 -28c-116 0 -210 64 -210 205c0 111 54 205 190 205s190 -94 190 -205v-14c0 -6 -3 -9 -9 -9h-324c0 -120 106 -140 162 -140c28 0 72 5 107 20c1 1 3 1 6 1s5 -1 7 -3l9 -20
c1 -2 2 -4 2 -7c0 -1 -1 -3 -4 -5zM143 506c0 17 13 30 30 30s30 -13 30 -30s-13 -30 -30 -30s-30 13 -30 30zM265 506c0 17 13 30 30 30s30 -13 30 -30s-13 -30 -30 -30s-30 13 -30 30z" />
    <glyph glyph-name="Ograve" unicode="&#xd2;" horiz-adv-x="690" 
d="M345 575c160 0 290 -130 290 -290s-130 -290 -290 -290c-159 0 -290 130 -290 290s131 290 290 290zM345 37c137 0 246 109 246 246c0 136 -109 247 -246 247s-245 -111 -245 -247c0 -137 108 -246 245 -246zM313 756l46 -107c0 -7 -3 -10 -10 -10h-10c-7 0 -12 6 -15 10
l-71 107c0 7 3 10 10 10h40c5 0 9 -9 10 -10z" />
    <glyph glyph-name="Oacute" unicode="&#xd3;" horiz-adv-x="690" 
d="M345 575c159 0 290 -130 290 -290s-131 -290 -290 -290c-160 0 -290 130 -290 290s130 290 290 290zM345 37c137 0 245 109 245 246c0 136 -108 247 -245 247s-246 -111 -246 -247c0 -137 109 -246 246 -246zM331 649l46 107c1 1 5 10 10 10h40c7 0 10 -3 10 -10
l-71 -107c-3 -4 -8 -10 -15 -10h-10c-7 0 -10 3 -10 10z" />
    <glyph glyph-name="Ocircumflex" unicode="&#xd4;" horiz-adv-x="690" 
d="M345 575c159 0 290 -130 290 -290s-131 -290 -290 -290c-160 0 -290 130 -290 290s130 290 290 290zM345 37c137 0 245 109 245 246c0 136 -108 247 -245 247s-246 -111 -246 -247c0 -137 109 -246 246 -246zM353 753h-16c-4 0 -8 -3 -11 -6l-94 -81c-2 -2 -3 -4 -3 -6
c0 -1 2 -4 5 -7l14 -13c2 -2 4 -3 7 -3s5 1 6 2l84 77l84 -77c1 -1 3 -2 6 -2s5 1 7 3l14 13c3 3 5 6 5 7c0 2 -1 4 -3 6l-94 81c-3 3 -7 6 -11 6z" />
    <glyph glyph-name="Otilde" unicode="&#xd5;" horiz-adv-x="690" 
d="M345 575c159 0 290 -130 290 -290s-131 -290 -290 -290c-160 0 -290 130 -290 290s130 290 290 290zM345 37c137 0 245 109 245 246c0 136 -108 247 -245 247s-246 -111 -246 -247c0 -137 109 -246 246 -246zM487 671c-27 -23 -51 -32 -86 -32c-43 0 -72 35 -110 35
c-21 0 -46 -12 -62 -24c-1 -1 -3 -1 -5 -1c-3 0 -6 2 -10 6l-14 14c-1 1 -1 2 -1 3c0 4 4 6 7 9c27 23 52 35 85 35c66 0 64 -35 111 -35c22 0 42 7 60 21c1 1 3 1 5 1c4 0 8 -2 25 -17c1 -3 2 -4 2 -4c0 -5 -2 -9 -7 -11z" />
    <glyph glyph-name="Odieresis" unicode="&#xd6;" horiz-adv-x="690" 
d="M345 575c159 0 290 -130 290 -290s-131 -290 -290 -290c-160 0 -290 130 -290 290s130 290 290 290zM345 37c137 0 245 109 245 246c0 136 -108 247 -245 247s-246 -111 -246 -247c0 -137 109 -246 246 -246zM263 669c0 17 13 30 30 30s30 -13 30 -30s-13 -30 -30 -30
s-30 13 -30 30zM371 669c0 17 13 30 30 30s30 -13 30 -30s-13 -30 -30 -30s-30 13 -30 30z" />
    <glyph glyph-name="igrave" unicode="&#xec;" 
d="M80 7v386c0 5 3 7 8 7h26c5 0 8 -2 8 -7v-386c0 -5 -3 -7 -8 -7h-26c-5 0 -8 2 -8 7zM72 593l46 -107c0 -7 -3 -10 -10 -10h-10c-7 0 -12 6 -15 10l-71 107c0 7 3 10 10 10h40c5 0 9 -9 10 -10z" />
    <glyph glyph-name="iacute" unicode="&#xed;" 
d="M122 393v-386c0 -5 -3 -7 -8 -7h-26c-5 0 -8 2 -8 7v386c0 5 3 7 8 7h26c5 0 8 -2 8 -7zM84 486l46 107c1 1 5 10 10 10h40c7 0 10 -3 10 -10l-71 -107c-3 -4 -8 -10 -15 -10h-10c-7 0 -10 3 -10 10z" />
    <glyph glyph-name="icircumflex" unicode="&#xee;" 
d="M122 393v-386c0 -5 -3 -7 -8 -7h-26c-5 0 -8 2 -8 7v386c0 5 3 7 8 7h26c5 0 8 -2 8 -7zM93 587h16c4 0 8 -3 11 -6l84 -81c2 -2 3 -4 3 -6c0 -1 -2 -4 -5 -7l-14 -13c-2 -2 -4 -3 -7 -3s-5 1 -6 2l-74 77l-74 -77c-1 -1 -3 -2 -6 -2s-5 1 -7 3l-14 13c-3 3 -5 6 -5 7
c0 2 1 4 3 6l84 81c3 3 7 6 11 6z" />
    <glyph glyph-name="idieresis" unicode="&#xef;" 
d="M122 393v-386c0 -5 -3 -7 -8 -7h-26c-5 0 -8 2 -8 7v386c0 5 3 7 8 7h26c5 0 8 -2 8 -7zM26 501c0 17 13 30 30 30s30 -13 30 -30s-13 -30 -30 -30s-30 13 -30 30zM116 501c0 17 13 30 30 30s30 -13 30 -30s-13 -30 -30 -30s-30 13 -30 30z" />
    <glyph glyph-name="oacute" unicode="&#xf3;" horiz-adv-x="500" 
d="M250 405c112 0 205 -93 205 -205c0 -113 -93 -205 -205 -205c-113 0 -205 92 -205 205c0 112 92 205 205 205zM250 37c89 0 160 72 160 161c0 88 -71 162 -160 162c-90 0 -160 -74 -160 -162c0 -89 70 -161 160 -161zM235 486l46 107c1 1 5 10 10 10h40c7 0 10 -3 10 -10
l-71 -107c-3 -4 -8 -10 -15 -10h-10c-7 0 -10 3 -10 10z" />
    <glyph glyph-name="ograve" unicode="&#xf2;" horiz-adv-x="500" 
d="M250 405c113 0 205 -93 205 -205c0 -113 -92 -205 -205 -205c-112 0 -205 92 -205 205c0 112 93 205 205 205zM250 37c90 0 160 72 160 161c0 88 -70 162 -160 162c-89 0 -160 -74 -160 -162c0 -89 71 -161 160 -161zM219 593l46 -107c0 -7 -3 -10 -10 -10h-10
c-7 0 -12 6 -15 10l-71 107c0 7 3 10 10 10h40c5 0 9 -9 10 -10z" />
    <glyph glyph-name="ntilde" unicode="&#xf1;" horiz-adv-x="515" 
d="M445 221v-214c0 -5 -3 -7 -8 -7h-26c-5 0 -8 2 -8 7v196c0 85 -6 157 -135 157c-84 0 -146 -74 -146 -158v-195c0 -5 -3 -7 -8 -7h-26c-5 0 -8 2 -8 7v386c0 5 3 7 8 7h18c6 0 10 -3 12 -9l3 -59c65 73 134 73 158 73c119 0 166 -67 166 -184zM398 508
c-27 -23 -51 -32 -86 -32c-43 0 -72 35 -110 35c-21 0 -46 -12 -62 -24c-1 -1 -3 -1 -5 -1c-3 0 -6 2 -10 6l-14 14c-1 1 -1 2 -1 3c0 4 4 6 7 9c27 23 52 35 85 35c66 0 64 -35 111 -35c22 0 42 7 60 21c1 1 3 1 5 1c4 0 8 -2 25 -17c1 -3 2 -4 2 -4c0 -5 -2 -9 -7 -11z
" />
    <glyph glyph-name="ydieresis" unicode="&#xff;" horiz-adv-x="418" 
d="M393 391l-263 -553c-5 -6 -10 -9 -14 -9h-28c-6 0 -9 3 -9 9l112 234l-151 319c0 6 3 9 9 9h28c4 0 9 -3 14 -9l125 -266l126 266c5 6 9 9 14 9h28c6 0 9 -3 9 -9zM127 506c0 17 13 30 30 30s30 -13 30 -30s-13 -30 -30 -30s-30 13 -30 30zM249 506c0 17 13 30 30 30
s30 -13 30 -30s-13 -30 -30 -30s-30 13 -30 30z" />
    <glyph glyph-name="plusminus" unicode="&#xb1;" horiz-adv-x="436" 
d="M239 280h108c6 0 9 -3 9 -9v-27c0 -6 -3 -9 -8 -9h-109v-116c0 -5 -3 -7 -8 -7h-26c-5 0 -8 2 -8 7v116h-109c-5 0 -8 3 -8 9v27c0 6 3 9 9 9h108v119c0 5 3 7 8 7h26c5 0 8 -2 8 -7v-119zM89 45h258c6 0 9 -3 9 -9v-27c0 -6 -3 -9 -8 -9h-260c-5 0 -8 3 -8 9v27
c0 6 3 9 9 9z" />
    <glyph glyph-name="onesuperior" unicode="&#xb9;" horiz-adv-x="285" 
d="M205 563v-297c0 -5 -2 -7 -6 -7h-26c-4 0 -6 2 -6 7v243c-29 -15 -63 -24 -82 -24c-3 0 -5 2 -5 6v19c0 4 2 6 6 6c75 19 102 52 114 52c3 0 5 -2 5 -5z" />
    <glyph glyph-name="twosuperior" unicode="&#xb2;" horiz-adv-x="372" 
d="M80 274v34c0 63 173 131 173 177c0 24 -8 47 -76 47c-19 0 -63 -8 -76 -16c-3 -1 -6 -3 -7 -3c-3 0 -5 2 -6 5l-7 18c-3 3 1 8 4 9c15 11 57 23 93 23c76 0 113 -25 113 -85c0 -64 -139 -112 -177 -179h171c5 0 7 -2 7 -7v-23c0 -4 -2 -6 -7 -6h-199c-4 0 -6 2 -6 6z" />
    <glyph glyph-name="threesuperior" unicode="&#xb3;" horiz-adv-x="369" 
d="M156 408l72 122h-142c-4 0 -6 2 -6 7v23c0 4 2 6 6 6h197c4 0 6 -2 6 -5c0 -1 0 -2 -1 -3l-67 -116c40 -11 68 -40 68 -77c0 -60 -36 -104 -116 -104c-28 0 -72 11 -92 30c-1 1 -1 3 -1 6c0 1 1 3 2 4l17 15c1 1 2 1 4 1c19 -8 47 -19 71 -19c29 0 77 20 77 68
c0 33 -45 40 -72 40c-7 0 -13 0 -20 -1c-2 0 -3 1 -3 3z" />
    <glyph glyph-name="Aring" unicode="&#xc5;" horiz-adv-x="578" 
d="M296 569l252 -559c0 -7 -3 -10 -10 -10h-22c-5 0 -10 3 -15 10l-55 125h-314l-55 -125c-5 -7 -10 -10 -15 -10h-22c-7 0 -10 3 -10 10l252 559c3 1 5 2 7 2s4 -1 7 -2zM153 180h272l-136 300zM289 831c52 0 95 -44 95 -97c0 -52 -43 -95 -95 -95s-95 43 -95 95
c0 53 43 97 95 97zM289 680c28 0 55 20 55 55c0 36 -27 55 -55 55s-55 -19 -55 -55c0 -35 27 -55 55 -55z" />
    <glyph glyph-name="degree" unicode="&#xb0;" horiz-adv-x="419" 
d="M210 348c47 0 88 36 88 93c0 56 -41 88 -88 88s-89 -32 -89 -88c0 -57 42 -93 89 -93zM210 309c-72 0 -130 60 -130 132c0 69 58 127 130 127s129 -58 129 -127c0 -72 -57 -132 -129 -132z" />
    <glyph glyph-name="aring" unicode="&#xe5;" horiz-adv-x="458" 
d="M232 668c52 0 95 -44 95 -97c0 -52 -43 -95 -95 -95s-95 43 -95 95c0 53 43 97 95 97zM232 517c28 0 55 20 55 55c0 36 -27 55 -55 55s-55 -19 -55 -55c0 -35 27 -55 55 -55zM213 37c15 0 83 9 128 57v37c-27 45 -99 67 -139 67c-84 0 -107 -27 -107 -82
c0 -47 35 -79 118 -79zM116 350c-4 -1 -5 -2 -8 -2s-6 2 -8 7l-7 26c0 3 1 6 4 8c43 15 72 16 101 16c121 0 185 -64 185 -177v-220c0 -5 -3 -8 -8 -8h-18c-6 0 -10 3 -12 9l-5 45c-35 -59 -130 -59 -139 -59c-40 0 -151 7 -151 122c0 91 57 126 133 126c45 0 99 -5 158 -58
c0 152 -58 175 -158 175c-15 0 -39 -3 -67 -10z" />
    <glyph glyph-name="Ugrave" unicode="&#xd9;" horiz-adv-x="634" 
d="M316 -5c-155 0 -236 85 -236 242v324c0 5 3 7 8 7h26c5 0 8 -2 8 -7v-300c0 -151 55 -224 195 -224s195 73 195 224v300c0 5 3 7 8 7h26c5 0 8 -2 8 -7v-324c0 -157 -81 -242 -238 -242zM278 756l46 -107c0 -7 -3 -10 -10 -10h-10c-7 0 -12 6 -15 10l-71 107
c0 7 3 10 10 10h40c5 0 9 -9 10 -10z" />
    <glyph glyph-name="Uacute" unicode="&#xda;" horiz-adv-x="634" 
d="M318 -5c-157 0 -238 85 -238 242v324c0 5 3 7 8 7h26c5 0 8 -2 8 -7v-300c0 -151 55 -224 195 -224s195 73 195 224v300c0 5 3 7 8 7h26c5 0 8 -2 8 -7v-324c0 -157 -81 -242 -236 -242zM310 649l46 107c1 1 5 10 10 10h40c7 0 10 -3 10 -10l-71 -107
c-3 -4 -8 -10 -15 -10h-10c-7 0 -10 3 -10 10z" />
    <glyph glyph-name="otilde" unicode="&#xf5;" horiz-adv-x="500" 
d="M250 405c112 0 205 -93 205 -205c0 -113 -93 -205 -205 -205c-113 0 -205 92 -205 205c0 112 92 205 205 205zM250 37c89 0 160 72 160 161c0 88 -71 162 -160 162c-90 0 -160 -74 -160 -162c0 -89 70 -161 160 -161zM390 508c-27 -23 -51 -32 -86 -32
c-43 0 -72 35 -110 35c-21 0 -46 -12 -62 -24c-1 -1 -3 -1 -5 -1c-3 0 -6 2 -10 6l-14 14c-1 1 -1 2 -1 3c0 4 4 6 7 9c27 23 52 35 85 35c66 0 64 -35 111 -35c22 0 42 7 60 21c1 1 3 1 5 1c4 0 8 -2 25 -17c1 -3 2 -4 2 -4c0 -5 -2 -9 -7 -11z" />
    <glyph glyph-name="odieresis" unicode="&#xf6;" horiz-adv-x="500" 
d="M250 405c112 0 205 -93 205 -205c0 -113 -93 -205 -205 -205c-113 0 -205 92 -205 205c0 112 92 205 205 205zM250 37c89 0 160 72 160 161c0 88 -71 162 -160 162c-90 0 -160 -74 -160 -162c0 -89 70 -161 160 -161zM166 506c0 17 13 30 30 30s30 -13 30 -30
s-13 -30 -30 -30s-30 13 -30 30zM274 506c0 17 13 30 30 30s30 -13 30 -30s-13 -30 -30 -30s-30 13 -30 30z" />
    <glyph glyph-name="Ucircumflex" unicode="&#xdb;" horiz-adv-x="634" 
d="M318 -5c-157 0 -238 85 -238 242v324c0 5 3 7 8 7h26c5 0 8 -2 8 -7v-300c0 -151 55 -224 195 -224s195 73 195 224v300c0 5 3 7 8 7h26c5 0 8 -2 8 -7v-324c0 -157 -81 -242 -236 -242zM326 753h-16c-4 0 -8 -3 -11 -6l-94 -81c-2 -2 -3 -4 -3 -6c0 -1 2 -4 5 -7l14 -13
c2 -2 4 -3 7 -3s5 1 6 2l84 77l84 -77c1 -1 3 -2 6 -2s5 1 7 3l14 13c3 3 5 6 5 7c0 2 -1 4 -3 6l-94 81c-3 3 -7 6 -11 6z" />
    <glyph glyph-name="Udieresis" unicode="&#xdc;" horiz-adv-x="634" 
d="M318 -5c-157 0 -238 85 -238 242v324c0 5 3 7 8 7h26c5 0 8 -2 8 -7v-300c0 -151 55 -224 195 -224s195 73 195 224v300c0 5 3 7 8 7h26c5 0 8 -2 8 -7v-324c0 -157 -81 -242 -236 -242zM227 669c0 17 13 30 30 30s30 -13 30 -30s-13 -30 -30 -30s-30 13 -30 30zM350 669
c0 17 13 30 30 30s30 -13 30 -30s-13 -30 -30 -30s-30 13 -30 30z" />
    <glyph glyph-name="Ydieresis" unicode="&#x178;" horiz-adv-x="528" 
d="M264 262l185 297c4 6 9 9 14 9h26c6 0 9 -3 9 -9l-213 -347v-205c0 -5 -3 -7 -8 -7h-26c-5 0 -8 2 -8 7v205l-213 347c0 6 3 9 9 9h26c5 0 10 -3 14 -9zM182 669c0 17 13 30 30 30s30 -13 30 -30s-13 -30 -30 -30s-30 13 -30 30zM290 669c0 17 13 30 30 30s30 -13 30 -30
s-13 -30 -30 -30s-30 13 -30 30z" />
    <glyph glyph-name="Egrave" unicode="&#xc8;" horiz-adv-x="514" 
d="M123 298h251c6 0 9 -3 9 -9v-27c0 -6 -3 -9 -8 -9h-253v-208h318c6 0 9 -3 9 -9v-27c0 -6 -3 -9 -8 -9h-353c-5 0 -8 3 -8 9v552c0 5 3 7 8 7h352c6 0 9 -3 9 -9v-27c0 -6 -3 -9 -8 -9h-318v-225zM238 756l46 -107c0 -7 -3 -10 -10 -10h-10c-7 0 -12 6 -15 10l-71 107
c0 7 3 10 10 10h40c5 0 9 -9 10 -10z" />
    <glyph glyph-name="Eacute" unicode="&#xc9;" horiz-adv-x="514" 
d="M123 298h251c6 0 9 -3 9 -9v-27c0 -6 -3 -9 -8 -9h-253v-208h318c6 0 9 -3 9 -9v-27c0 -6 -3 -9 -8 -9h-353c-5 0 -8 3 -8 9v552c0 5 3 7 8 7h352c6 0 9 -3 9 -9v-27c0 -6 -3 -9 -8 -9h-318v-225zM255 649l46 107c1 1 5 10 10 10h40c7 0 10 -3 10 -10l-71 -107
c-3 -4 -8 -10 -15 -10h-10c-7 0 -10 3 -10 10z" />
    <glyph glyph-name="Ecircumflex" unicode="&#xca;" horiz-adv-x="514" 
d="M123 298h251c6 0 9 -3 9 -9v-27c0 -6 -3 -9 -8 -9h-253v-208h318c6 0 9 -3 9 -9v-27c0 -6 -3 -9 -8 -9h-353c-5 0 -8 3 -8 9v552c0 5 3 7 8 7h352c6 0 9 -3 9 -9v-27c0 -6 -3 -9 -8 -9h-318v-225zM272 753h-16c-4 0 -8 -3 -11 -6l-94 -81c-2 -2 -3 -4 -3 -6
c0 -1 2 -4 5 -7l14 -13c2 -2 4 -3 7 -3s5 1 6 2l84 77l84 -77c1 -1 3 -2 6 -2s5 1 7 3l14 13c3 3 5 6 5 7c0 2 -1 4 -3 6l-94 81c-3 3 -7 6 -11 6z" />
    <glyph glyph-name="Edieresis" unicode="&#xcb;" horiz-adv-x="514" 
d="M123 298h251c6 0 9 -3 9 -9v-27c0 -6 -3 -9 -8 -9h-253v-208h318c6 0 9 -3 9 -9v-27c0 -6 -3 -9 -8 -9h-353c-5 0 -8 3 -8 9v552c0 5 3 7 8 7h352c6 0 9 -3 9 -9v-27c0 -6 -3 -9 -8 -9h-318v-225zM162 669c0 17 13 30 30 30s30 -13 30 -30s-13 -30 -30 -30s-30 13 -30 30
zM285 669c0 17 13 30 30 30s30 -13 30 -30s-13 -30 -30 -30s-30 13 -30 30z" />
    <glyph glyph-name="Igrave" unicode="&#xcc;" 
d="M80 7v554c0 5 3 7 8 7h26c5 0 8 -2 8 -7v-554c0 -5 -3 -7 -8 -7h-26c-5 0 -8 2 -8 7zM72 756l46 -107c0 -7 -3 -10 -10 -10h-10c-7 0 -12 6 -15 10l-71 107c0 7 3 10 10 10h40c5 0 9 -9 10 -10z" />
    <glyph glyph-name="Iacute" unicode="&#xcd;" 
d="M122 561v-554c0 -5 -3 -7 -8 -7h-26c-5 0 -8 2 -8 7v554c0 5 3 7 8 7h26c5 0 8 -2 8 -7zM84 649l46 107c1 1 5 10 10 10h40c7 0 10 -3 10 -10l-71 -107c-3 -4 -8 -10 -15 -10h-10c-7 0 -10 3 -10 10z" />
    <glyph glyph-name="Icircumflex" unicode="&#xce;" 
d="M122 561v-554c0 -5 -3 -7 -8 -7h-26c-5 0 -8 2 -8 7v554c0 5 3 7 8 7h26c5 0 8 -2 8 -7zM93 755h16c4 0 8 -3 11 -6l84 -81c2 -2 3 -4 3 -6c0 -1 -2 -4 -5 -7l-14 -13c-2 -2 -4 -3 -7 -3s-5 1 -6 2l-74 77l-74 -77c-1 -1 -3 -2 -6 -2s-5 1 -7 3l-14 13c-3 3 -5 6 -5 7
c0 2 1 4 3 6l84 81c3 3 7 6 11 6z" />
    <glyph glyph-name="Idieresis" unicode="&#xcf;" 
d="M122 561v-554c0 -5 -3 -7 -8 -7h-26c-5 0 -8 2 -8 7v554c0 5 3 7 8 7h26c5 0 8 -2 8 -7zM26 669c0 17 13 30 30 30s30 -13 30 -30s-13 -30 -30 -30s-30 13 -30 30zM116 669c0 17 13 30 30 30s30 -13 30 -30s-13 -30 -30 -30s-30 13 -30 30z" />
    <glyph glyph-name="Eth" unicode="&#xd0;" horiz-adv-x="626" 
d="M34 300h90v261c0 5 3 7 8 7h181c160 0 273 -126 273 -286s-104 -282 -286 -282h-168c-5 0 -8 2 -8 7v248h-91c-5 0 -8 3 -8 9v27c0 6 3 9 9 9zM166 42h129c145 0 249 90 249 237s-97 247 -242 247h-136v-226h132c6 0 9 -3 9 -9v-27c0 -6 -3 -9 -8 -9h-133v-213z" />
    <glyph glyph-name="Ntilde" unicode="&#xd1;" horiz-adv-x="640" 
d="M518 250v311c0 5 3 7 8 7h26c5 0 8 -2 8 -7v-554c0 -5 -3 -7 -8 -7h-26c-5 0 -8 2 -8 7v191l-396 296v-487c0 -5 -3 -7 -8 -7h-26c-5 0 -8 2 -8 7v560c2 3 4 4 6 4c4 0 4 -1 7 -4zM453 671c-27 -23 -51 -32 -86 -32c-43 0 -72 35 -110 35c-21 0 -46 -12 -62 -24
c-1 -1 -3 -1 -5 -1c-3 0 -6 2 -10 6l-14 14c-1 1 -1 2 -1 3c0 4 4 6 7 9c27 23 52 35 85 35c66 0 64 -35 111 -35c22 0 42 7 60 21c1 1 3 1 5 1c4 0 8 -2 25 -17c1 -3 2 -4 2 -4c0 -5 -2 -9 -7 -11z" />
    <glyph glyph-name="Yacute" unicode="&#xdd;" horiz-adv-x="528" 
d="M264 262l185 297c4 6 9 9 14 9h26c6 0 9 -3 9 -9l-213 -347v-205c0 -5 -3 -7 -8 -7h-26c-5 0 -8 2 -8 7v205l-213 347c0 6 3 9 9 9h26c5 0 10 -3 14 -9zM261 649l46 107c1 1 5 10 10 10h40c7 0 10 -3 10 -10l-71 -107c-3 -4 -8 -10 -15 -10h-10c-7 0 -10 3 -10 10z" />
    <glyph glyph-name="yacute" unicode="&#xfd;" horiz-adv-x="418" 
d="M393 391l-263 -553c-5 -6 -10 -9 -14 -9h-28c-6 0 -9 3 -9 9l112 234l-151 319c0 6 3 9 9 9h28c4 0 9 -3 14 -9l125 -266l126 266c5 6 9 9 14 9h28c6 0 9 -3 9 -9zM212 486l46 107c1 1 5 10 10 10h40c7 0 10 -3 10 -10l-71 -107c-3 -4 -8 -10 -15 -10h-10
c-7 0 -10 3 -10 10z" />
    <glyph glyph-name="ugrave" unicode="&#xf9;" horiz-adv-x="515" 
d="M70 179v214c0 5 3 7 8 7h26c5 0 8 -2 8 -7v-199c0 -85 6 -157 135 -157c84 0 146 75 146 124v232c0 5 3 7 8 7h26c5 0 8 -2 8 -7v-386c0 -5 -3 -7 -8 -7h-18c-6 0 -10 3 -12 9l-3 57c-63 -71 -136 -71 -158 -71c-119 0 -166 67 -166 184zM222 593l46 -107
c0 -7 -3 -10 -10 -10h-10c-7 0 -12 6 -15 10l-71 107c0 7 3 10 10 10h40c5 0 9 -9 10 -10z" />
    <glyph glyph-name="uacute" unicode="&#xfa;" horiz-adv-x="515" 
d="M70 179v214c0 5 3 7 8 7h26c5 0 8 -2 8 -7v-199c0 -85 6 -157 135 -157c84 0 146 75 146 124v232c0 5 3 7 8 7h26c5 0 8 -2 8 -7v-386c0 -5 -3 -7 -8 -7h-18c-6 0 -10 3 -12 9l-3 57c-63 -71 -136 -71 -158 -71c-119 0 -166 67 -166 184zM234 486l46 107c1 1 5 10 10 10
h40c7 0 10 -3 10 -10l-71 -107c-3 -4 -8 -10 -15 -10h-10c-7 0 -10 3 -10 10z" />
    <glyph glyph-name="ucircumflex" unicode="&#xfb;" horiz-adv-x="515" 
d="M70 179v214c0 5 3 7 8 7h26c5 0 8 -2 8 -7v-199c0 -85 6 -157 135 -157c84 0 146 75 146 124v232c0 5 3 7 8 7h26c5 0 8 -2 8 -7v-386c0 -5 -3 -7 -8 -7h-18c-6 0 -10 3 -12 9l-3 57c-63 -71 -136 -71 -158 -71c-119 0 -166 67 -166 184zM261 592h-16c-4 0 -8 -3 -11 -6
l-94 -81c-2 -2 -3 -4 -3 -6c0 -1 2 -4 5 -7l14 -13c2 -2 4 -3 7 -3s5 1 6 2l84 77l84 -77c1 -1 3 -2 6 -2s5 1 7 3l14 13c3 3 5 6 5 7c0 2 -1 4 -3 6l-94 81c-3 3 -7 6 -11 6z" />
    <glyph glyph-name="scaron" unicode="&#x161;" horiz-adv-x="406" 
d="M70 62c36 -12 78 -26 121 -26c32 0 122 0 122 57c0 97 -258 79 -258 212c0 67 51 100 142 100c29 0 80 -5 113 -12c3 -3 5 -6 5 -10l-7 -25c-1 -1 -5 -5 -9 -5c-28 7 -63 7 -91 7c-94 0 -111 -25 -111 -60c0 -73 258 -85 258 -196c0 -89 -82 -109 -154 -109
c-47 0 -98 9 -138 28c-3 2 -5 6 -5 11l5 23c1 3 3 5 7 5zM187 469h16c4 0 8 3 11 6l94 81c2 2 3 4 3 6c0 1 -2 4 -5 7l-14 13c-2 2 -4 3 -7 3s-5 -1 -6 -2l-84 -77l-84 77c-1 1 -3 2 -6 2s-5 -1 -7 -3l-14 -13c-3 -3 -5 -6 -5 -7c0 -2 1 -4 3 -6l94 -81c3 -3 7 -6 11 -6z
" />
    <glyph glyph-name="Scaron" unicode="&#x160;" horiz-adv-x="499" 
d="M86 32c-3 2 -5 5 -5 8c0 2 0 4 1 5l7 17c2 3 5 5 8 5c1 0 3 0 4 -1c39 -15 98 -29 159 -29c73 0 145 31 145 97c0 145 -340 100 -340 293c0 96 71 148 192 148c51 0 103 -11 139 -23c3 -3 5 -4 5 -8c0 -2 0 -3 -1 -4l-9 -21c-1 -3 -2 -4 -5 -4c-2 0 -4 0 -6 1
c-35 8 -87 14 -123 14c-148 0 -150 -81 -150 -104c0 -146 340 -104 340 -294c0 -95 -101 -137 -178 -137c-55 0 -124 10 -183 37zM238 637h16c4 0 8 3 11 6l94 81c2 2 3 4 3 6c0 1 -2 4 -5 7l-14 13c-2 2 -4 3 -7 3s-5 -1 -6 -2l-84 -77l-84 77c-1 1 -3 2 -6 2s-5 -1 -7 -3
l-14 -13c-3 -3 -5 -6 -5 -7c0 -2 1 -4 3 -6l94 -81c3 -3 7 -6 11 -6z" />
    <glyph glyph-name="multiply" unicode="&#xd7;" horiz-adv-x="430" 
d="M315 67l-100 98l-100 -98c-3 -3 -5 -4 -8 -4c-2 0 -5 1 -9 4l-12 12c-3 3 -5 7 -5 10s1 5 4 8l100 98l-101 98c-3 3 -4 5 -4 8s2 7 5 10l12 12c4 3 7 4 9 4c3 0 5 -1 8 -4l101 -98l101 98c3 3 5 4 8 4c2 0 5 -1 9 -4l12 -12c3 -3 5 -7 5 -10s-1 -5 -4 -8l-101 -98
l100 -98c3 -3 4 -5 4 -8s-2 -7 -5 -10l-12 -12c-4 -3 -7 -4 -9 -4c-3 0 -5 1 -8 4z" />
    <glyph glyph-name="divide" unicode="&#xf7;" horiz-adv-x="451" 
d="M89 182h273c6 0 9 -3 9 -9v-27c0 -6 -3 -9 -8 -9h-275c-5 0 -8 3 -8 9v27c0 6 3 9 9 9zM195 25c0 17 13 30 30 30s30 -13 30 -30s-13 -30 -30 -30s-30 13 -30 30zM195 294c0 17 13 30 30 30s30 -13 30 -30s-13 -30 -30 -30s-30 13 -30 30z" />
    <glyph glyph-name="zcaron" unicode="&#x17e;" horiz-adv-x="431" 
d="M59 400h314c5 0 8 -2 8 -7c0 -2 0 -3 -1 -4l-250 -344h242c6 0 9 -3 9 -9v-27c0 -6 -3 -9 -8 -9h-317c-4 0 -6 2 -6 7c0 3 0 5 1 6l249 342h-241c-6 0 -9 3 -9 9v27c0 6 3 9 9 9zM209 469h16c4 0 8 3 11 6l94 81c2 2 3 4 3 6c0 1 -2 4 -5 7l-14 13c-2 2 -4 3 -7 3
s-5 -1 -6 -2l-84 -77l-84 77c-1 1 -3 2 -6 2s-5 -1 -7 -3l-14 -13c-3 -3 -5 -6 -5 -7c0 -2 1 -4 3 -6l94 -81c3 -3 7 -6 11 -6z" />
    <glyph glyph-name="ordmasculine" unicode="&#xba;" horiz-adv-x="419" 
d="M210 348c47 0 88 36 88 93c0 56 -41 88 -88 88s-89 -32 -89 -88c0 -57 42 -93 89 -93zM210 309c-72 0 -130 60 -130 132c0 69 58 127 130 127s129 -58 129 -127c0 -72 -57 -132 -129 -132z" />
    <glyph glyph-name="guillemotright" unicode="&#xbb;" horiz-adv-x="532" 
d="M451 196l-81 -187c-3 -6 -8 -9 -13 -9h-24c-5 0 -8 3 -8 8l81 191l-81 191c0 5 3 8 8 8h24c5 0 10 -3 13 -9l81 -187c1 -1 1 -2 1 -3s0 -2 -1 -3zM206 196l-81 -187c-3 -6 -8 -9 -13 -9h-24c-5 0 -8 3 -8 8l81 191l-81 191c0 5 3 8 8 8h24c5 0 10 -3 13 -9l81 -187
c1 -1 1 -2 1 -3s0 -2 -1 -3z" />
    <glyph glyph-name="cent" unicode="&#xa2;" horiz-adv-x="656" 
d="M573 80c1 -3 3 -4 3 -7v-1c0 -1 0 -1 -1 -2c-48 -51 -114 -71 -190 -74v-75c0 -5 -3 -7 -8 -7h-26c-5 0 -8 2 -8 7v76c-147 16 -263 139 -263 289c0 152 116 273 263 289v77c0 5 3 7 8 7h26c5 0 8 -2 8 -7v-76c59 -3 117 -23 162 -56c2 -2 3 -4 3 -5c0 -2 -1 -4 -4 -7
l-14 -15c-3 -3 -6 -4 -9 -4c-2 0 -4 1 -6 3c-43 31 -89 39 -146 39c-137 0 -246 -111 -246 -247c0 -137 109 -246 246 -246c49 0 117 11 176 59c2 2 5 3 8 3s6 -1 8 -4z" />
    <glyph glyph-name="registered" unicode="&#xae;" horiz-adv-x="733" 
d="M366 568c159 0 287 -128 287 -287c0 -157 -128 -286 -287 -286c-157 0 -286 129 -286 286c0 159 129 287 286 287zM366 31c133 0 254 120 254 251c0 133 -121 254 -254 254c-131 0 -251 -121 -251 -254c0 -131 120 -251 251 -251zM289 260h120c33 0 49 49 49 76
c0 26 -11 71 -75 71h-94v-147zM453 125l-57 96h-107v-96c0 -5 -2 -7 -7 -7h-28c-5 0 -7 2 -7 7v314c0 5 2 7 7 7h117c104 0 129 -52 129 -112c0 -45 -25 -89 -60 -105l62 -104c0 -5 -2 -7 -7 -7h-33c-5 0 -8 2 -9 7z" />
    <glyph glyph-name="acute" unicode="&#xb4;" horiz-adv-x="266" 
d="M80 451l46 107c1 1 5 10 10 10h40c7 0 10 -3 10 -10l-71 -107c-3 -4 -8 -10 -15 -10h-10c-7 0 -10 3 -10 10z" />
    <glyph glyph-name="brokenbar" unicode="&#xa6;" 
d="M80 422v285c0 5 3 7 8 7h26c5 0 8 -2 8 -7v-285c0 -5 -3 -7 -8 -7h-26c-5 0 -8 2 -8 7zM80 -164v285c0 5 3 7 8 7h26c5 0 8 -2 8 -7v-285c0 -5 -3 -7 -8 -7h-26c-5 0 -8 2 -8 7z" />
    <glyph glyph-name="dieresis" unicode="&#xa8;" horiz-adv-x="343" 
d="M80 538c0 17 13 30 30 30s30 -13 30 -30s-13 -30 -30 -30s-30 13 -30 30zM203 538c0 17 13 30 30 30s30 -13 30 -30s-13 -30 -30 -30s-30 13 -30 30z" />
    <glyph glyph-name="guillemotleft" unicode="&#xab;" horiz-adv-x="532" 
d="M162 9l-81 187c-1 1 -1 2 -1 3s0 2 1 3l81 187c3 6 8 9 13 9h24c5 0 8 -3 8 -8l-81 -191l81 -191c0 -5 -3 -8 -8 -8h-24c-5 0 -10 3 -13 9zM407 9l-81 187c-1 1 -1 2 -1 3s0 2 1 3l81 187c3 6 8 9 13 9h24c5 0 8 -3 8 -8l-81 -191l81 -191c0 -5 -3 -8 -8 -8h-24
c-5 0 -10 3 -13 9z" />
    <glyph glyph-name="Oslash" unicode="&#xd8;" horiz-adv-x="690" 
d="M491 624l-28 -74c101 -45 172 -148 172 -265c0 -160 -131 -290 -290 -290c-31 0 -59 4 -84 13l-23 -62c-4 -7 -9 -11 -14 -11h-14c-7 0 -10 3 -10 10l28 75c-102 46 -173 147 -173 265c0 160 130 290 290 290c31 0 58 -5 85 -13l23 61c4 7 9 11 14 11h14
c7 0 10 -3 10 -10zM99 283c0 -100 58 -185 143 -224l172 461c-21 7 -44 10 -69 10c-137 0 -246 -111 -246 -247zM345 37c137 0 245 109 245 246c0 100 -58 185 -143 225l-172 -461c23 -7 46 -10 70 -10z" />
    <glyph glyph-name="ccedilla" unicode="&#xe7;" horiz-adv-x="411" 
d="M364 17c-31 -16 -68 -21 -103 -22l-4 -33c41 -21 81 -44 81 -75c0 -44 -50 -58 -87 -58c-31 0 -56 6 -83 25c-1 1 -2 3 -2 5c0 3 0 4 1 5l11 13c1 1 3 1 5 1c3 0 5 -1 8 -2c8 -5 39 -18 62 -18c12 0 52 4 52 28c0 20 -47 35 -86 56l8 55c-102 11 -182 98 -182 203
c0 112 93 205 205 205c45 0 82 -8 117 -31c3 -3 4 -5 4 -6c0 -3 0 -5 -1 -6l-12 -19c-3 -3 -6 -5 -8 -5s-3 0 -4 1l-2 2c-31 15 -67 19 -94 19c-89 0 -160 -74 -160 -162c0 -89 71 -161 160 -161c31 0 65 3 94 14c1 1 3 1 6 1s5 -1 7 -3l9 -20c1 -2 2 -4 2 -7
c0 -1 -1 -3 -4 -5z" />
    <glyph glyph-name="cedilla" unicode="&#xb8;" horiz-adv-x="332" 
d="M141 -5h34l-4 -33c41 -21 81 -44 81 -75c0 -44 -50 -58 -87 -58c-31 0 -56 6 -83 25c-1 1 -2 3 -2 5c0 3 0 4 1 5l11 13c1 1 3 1 5 1c3 0 5 -1 8 -2c8 -5 39 -18 62 -18c12 0 52 4 52 28c0 20 -47 35 -86 56z" />
    <glyph glyph-name="Ccedilla" unicode="&#xc7;" horiz-adv-x="596" 
d="M550 69c-49 -52 -118 -71 -195 -74l-4 -33c41 -21 81 -44 81 -75c0 -44 -50 -58 -87 -58c-31 0 -56 6 -83 25c-1 1 -2 3 -2 5c0 3 0 4 1 5l11 13c1 1 3 1 5 1c3 0 5 -1 8 -2c8 -5 39 -18 62 -18c12 0 52 4 52 28c0 20 -47 35 -86 56l8 54c-149 13 -266 137 -266 289
c0 160 131 290 291 290c64 0 128 -20 176 -56c2 -2 3 -4 3 -5c0 -2 -1 -4 -4 -7l-14 -15c-3 -3 -6 -4 -9 -4c-2 0 -4 1 -6 3c-43 31 -89 39 -146 39c-137 0 -246 -111 -246 -247c0 -137 109 -246 246 -246c49 0 117 11 176 59c2 2 5 3 8 3s6 -1 8 -4l10 -16c1 -3 3 -4 3 -7
v-1c0 -1 0 -1 -1 -2z" />
    <glyph glyph-name="oslash" unicode="&#xf8;" horiz-adv-x="500" 
d="M361 442l-21 -58c68 -35 115 -104 115 -184c0 -113 -92 -205 -205 -205c-19 0 -37 2 -53 7l-21 -55c-4 -7 -9 -11 -14 -11h-14c-7 0 -10 3 -10 10l26 68c-71 33 -119 103 -119 186c0 112 93 205 205 205c19 0 38 -3 57 -8l16 44c4 7 9 11 14 11h14c7 0 10 -3 10 -10z
M90 198c0 -64 36 -117 89 -144l112 301c-15 3 -28 5 -41 5c-89 0 -160 -74 -160 -162zM250 37c90 0 160 72 160 161c0 63 -34 116 -86 144l-112 -300c13 -3 26 -5 38 -5z" />
    <glyph glyph-name="exclamdown" unicode="&#xa1;" horiz-adv-x="220" 
d="M86 2l8 451c0 5 3 7 8 7h16c5 0 8 -2 8 -7l9 -451c0 -5 -3 -7 -8 -7h-33c-5 0 -8 2 -8 7zM80 538c0 17 13 30 30 30s30 -13 30 -30s-13 -30 -30 -30s-30 13 -30 30z" />
    <glyph glyph-name="Thorn" unicode="&#xde;" horiz-adv-x="520" 
d="M122 463h217c83 0 151 -72 151 -175c0 -107 -68 -167 -151 -167h-217v-114c0 -5 -3 -7 -8 -7h-26c-5 0 -8 2 -8 7v554c0 5 3 7 8 7h26c5 0 8 -2 8 -7v-98zM122 166h200c66 0 123 26 123 121s-57 131 -123 131h-200v-252z" />
    <glyph glyph-name="lessequal" unicode="&#x2264;" horiz-adv-x="463" 
d="M374 45h-285c-6 0 -9 -3 -9 -9v-27c0 -6 3 -9 8 -9h287c5 0 8 3 8 9v27c0 6 -3 9 -9 9zM81 249v48c0 7 6 10 13 13l277 119c8 0 12 -4 12 -12v-24c0 -7 -5 -9 -12 -12l-251 -108l251 -107c7 -3 12 -5 12 -12v-24c0 -8 -4 -12 -12 -12l-277 118c-7 3 -13 6 -13 13z" />
    <glyph glyph-name="greaterequal" unicode="&#x2265;" horiz-adv-x="463" 
d="M374 45h-285c-6 0 -9 -3 -9 -9v-27c0 -6 3 -9 8 -9h287c5 0 8 3 8 9v27c0 6 -3 9 -9 9zM382 297v-48c0 -7 -6 -10 -13 -13l-277 -118c-8 0 -12 4 -12 12v24c0 7 5 9 12 12l251 107l-251 108c-7 3 -12 5 -12 12v24c0 8 4 12 12 12l277 -119c7 -3 13 -6 13 -13z" />
    <glyph glyph-name="mu" unicode="&#xb5;" horiz-adv-x="515" 
d="M427 400c5 0 8 -2 8 -7v-386c0 -5 -3 -7 -8 -7h-18c-6 0 -10 3 -12 9l-3 57c-63 -71 -136 -71 -158 -71c-55 0 -97 15 -124 44v-203c0 -5 -3 -7 -8 -7h-26c-5 0 -8 2 -8 7v557c0 5 3 7 8 7h26c5 0 8 -2 8 -7v-199c0 -85 6 -157 135 -157c84 0 146 75 146 124v232
c0 5 3 7 8 7h26z" />
    <glyph glyph-name="guilsinglleft" unicode="&#x2039;" horiz-adv-x="458" 
d="M80 159v48c0 3 3 5 8 8l281 151c6 0 9 -3 9 -9v-29c0 -4 -8 -9 -9 -9l-249 -136l249 -136c1 0 9 -5 9 -9v-29c0 -6 -3 -9 -9 -9l-281 151c-5 3 -8 5 -8 8z" />
    <glyph glyph-name="guilsinglright" unicode="&#x203a;" horiz-adv-x="458" 
d="M378 207v-48c0 -3 -3 -5 -8 -8l-281 -151c-6 0 -9 3 -9 9v29c0 4 8 9 9 9l249 136l-249 136c-1 0 -9 5 -9 9v29c0 6 3 9 9 9l281 -151c5 -3 8 -5 8 -8z" />
    <glyph glyph-name="circumflex" unicode="&#x2c6;" horiz-adv-x="392" 
d="M188 568h16c4 0 8 -3 11 -6l94 -81c2 -2 3 -4 3 -6c0 -1 -2 -4 -5 -7l-14 -13c-2 -2 -4 -3 -7 -3s-5 1 -6 2l-84 77l-84 -77c-1 -1 -3 -2 -6 -2s-5 1 -7 3l-14 13c-3 3 -5 6 -5 7c0 2 1 4 3 6l94 81c3 3 7 6 11 6z" />
    <glyph glyph-name="caron" unicode="&#x2c7;" horiz-adv-x="392" 
d="M204 452h-16c-4 0 -8 3 -11 6l-94 81c-2 2 -3 4 -3 6c0 1 2 4 5 7l14 13c2 2 4 3 7 3s5 -1 6 -2l84 -77l84 77c1 1 3 2 6 2s5 -1 7 -3l14 -13c3 -3 5 -6 5 -7c0 -2 -1 -4 -3 -6l-94 -81c-3 -3 -7 -6 -11 -6z" />
    <glyph glyph-name="breve" unicode="&#x2d8;" horiz-adv-x="474" 
d="M238 445c-92 0 -146 46 -158 113c0 7 3 10 10 10h26c5 0 9 -3 10 -10c19 -67 91 -69 111 -69s92 2 111 69c1 7 5 10 10 10h26c7 0 10 -3 10 -10c-12 -67 -65 -113 -156 -113z" />
    <glyph glyph-name="germandbls" unicode="&#xdf;" horiz-adv-x="574" 
d="M364 267h-56c-5 0 -8 3 -8 9v27c0 6 3 9 9 9h34c72 0 129 45 129 112c0 68 -53 109 -125 109h-99c-69 0 -126 -50 -126 -117v-409c0 -5 -3 -7 -8 -7h-26c-5 0 -8 2 -8 7v409c0 88 67 159 171 159h101c91 0 162 -63 162 -151c0 -42 -13 -98 -73 -133
c55 -40 73 -95 73 -135c0 -88 -48 -156 -158 -156h-51c-5 0 -8 3 -8 9v27c0 6 3 9 9 9h55c67 0 111 43 111 111c0 59 -45 111 -108 111z" />
    <glyph glyph-name="fraction" unicode="&#x2044;" horiz-adv-x="498" 
d="M418 658l-291 -773c-4 -7 -9 -11 -14 -11h-23c-7 0 -10 3 -10 10l291 773c4 7 9 11 14 11h23c7 0 10 -3 10 -10z" />
    <glyph glyph-name="Zcaron" unicode="&#x17d;" horiz-adv-x="474" 
d="M426 0h-380c-4 0 -6 2 -6 7c0 3 0 5 1 6l318 510h-310c-6 0 -9 3 -9 9v27c0 6 3 9 9 9h377c5 0 8 -2 8 -7c0 -2 0 -3 -1 -4l-318 -512h310c6 0 9 -3 9 -9v-27c0 -6 -3 -9 -8 -9zM229 637h16c4 0 8 3 11 6l94 81c2 2 3 4 3 6c0 1 -2 4 -5 7l-14 13c-2 2 -4 3 -7 3
s-5 -1 -6 -2l-84 -77l-84 77c-1 1 -3 2 -6 2s-5 -1 -7 -3l-14 -13c-3 -3 -5 -6 -5 -7c0 -2 1 -4 3 -6l94 -81c3 -3 7 -6 11 -6z" />
    <glyph glyph-name="florin" unicode="&#x192;" horiz-adv-x="346" 
d="M349 565c1 -1 2 -3 2 -4c0 -2 0 -4 -1 -5l-7 -18c-2 -2 -4 -3 -6 -3c-11 0 -20 3 -35 3c-79 0 -96 -32 -115 -160h113c6 0 9 -3 9 -9v-27c0 -6 -3 -9 -8 -9h-123l-101 -495c-4 -6 -9 -9 -14 -9h-22c-5 0 -8 3 -8 9l101 495h-101c-5 0 -8 3 -8 9v27c0 6 3 9 9 9h111
c24 151 57 197 140 197c11 0 37 -1 64 -10z" />
    <glyph glyph-name="eth" unicode="&#xf0;" horiz-adv-x="501" 
d="M155 501h104l-31 58c0 6 3 9 9 9h25c5 0 10 -3 14 -9c11 -20 20 -39 31 -58h112c6 0 9 -3 9 -9v-16c0 -6 -3 -9 -8 -9h-94c35 -64 69 -124 102 -187c13 -24 28 -65 28 -92c0 -127 -96 -193 -204 -193c-109 0 -207 66 -207 193c0 107 105 172 204 172c13 0 71 -1 99 -21
l-70 128h-124c-5 0 -8 3 -8 9v16c0 6 3 9 9 9zM250 319c-83 0 -163 -38 -163 -138c0 -99 81 -144 164 -144c81 0 163 45 163 144c0 100 -83 138 -164 138z" />
    <glyph glyph-name="paragraph" unicode="&#xb6;" horiz-adv-x="594" 
d="M514 561v-725c0 -5 -3 -7 -8 -7h-26c-5 0 -8 2 -8 7v687h-164v-687c0 -5 -3 -7 -8 -7h-26c-5 0 -8 2 -8 7v364c-107 16 -186 90 -186 185c0 90 74 167 163 183h263c5 0 8 -2 8 -7z" />
    <glyph glyph-name="uni00AD" unicode="&#xad;" horiz-adv-x="198" 
 />
    <glyph glyph-name="logicalnot" unicode="&#xac;" horiz-adv-x="442" 
d="M353 207c6 0 9 -3 9 -9v-144c0 -5 -3 -7 -8 -7h-26c-5 0 -8 2 -8 7v108h-232c-5 0 -8 3 -8 9v27c0 6 3 9 9 9h264z" />
    <glyph glyph-name="ordfeminine" unicode="&#xaa;" horiz-adv-x="410" 
d="M207 300c5 0 66 7 85 31v66c-5 11 -54 23 -83 23c-37 0 -91 -3 -91 -59c0 -52 57 -61 89 -61zM303 276l-4 20c-27 -29 -94 -33 -103 -33c-32 0 -116 14 -116 100c0 65 50 94 126 94c27 0 70 -9 86 -20c0 53 -14 95 -90 95c-8 0 -55 -4 -76 -12c-1 0 -3 -1 -4 -1
c-5 0 -7 3 -8 6l-4 9c-1 4 -2 5 -2 8s1 5 2 7c43 19 71 19 98 19c97 0 122 -61 122 -145v-147c0 -6 -3 -9 -9 -9h-6c-6 0 -10 3 -12 9z" />
    <glyph glyph-name="sterling" unicode="&#xa3;" horiz-adv-x="597" 
d="M89 283h58v119c0 145 101 173 187 173c61 0 110 -6 146 -27c3 -1 5 -4 5 -7c0 -1 -1 -3 -2 -6l-7 -20c-2 -2 -4 -3 -5 -3c-2 0 -4 1 -7 2c-43 17 -87 19 -116 19c-126 0 -159 -50 -159 -139v-111h146c6 0 9 -3 9 -9v-27c0 -6 -3 -9 -8 -9h-147v-193h319c6 0 9 -3 9 -9
v-27c0 -6 -3 -9 -8 -9h-423c-4 0 -6 2 -6 6v33c0 3 2 5 5 5c21 3 62 6 62 34v160h-59c-5 0 -8 3 -8 9v27c0 6 3 9 9 9z" />
    <glyph glyph-name="macron" unicode="&#xaf;" horiz-adv-x="456" 
d="M89 568h278c6 0 9 -3 9 -9v-27c0 -6 -3 -9 -8 -9h-280c-5 0 -8 3 -8 9v27c0 6 3 9 9 9z" />
    <glyph glyph-name="periodcentered" unicode="&#xb7;" horiz-adv-x="241" 
d="M80 184c0 23 16 41 39 41s42 -18 42 -41c0 -21 -19 -40 -42 -40s-39 19 -39 40z" />
    <glyph glyph-name="section" unicode="&#xa7;" horiz-adv-x="615" 
d="M95 28c36 -12 78 -26 121 -26c32 0 122 0 122 57c0 98 -258 78 -258 212c0 67 51 100 142 100c8 0 17 -1 28 -1c-10 14 -15 31 -15 51c0 67 51 100 142 100c29 0 80 -5 113 -12c3 -3 5 -6 5 -10l-7 -25c-1 -1 -5 -5 -9 -5c-28 7 -63 7 -91 7c-94 0 -111 -25 -111 -60
c0 -73 258 -85 258 -196c0 -89 -82 -109 -154 -109h-15c9 -13 14 -26 14 -41c0 -89 -82 -109 -154 -109c-47 0 -98 9 -138 28c-3 2 -5 6 -5 11l5 23c1 3 3 5 7 5zM122 266c0 -48 178 -114 249 -114c32 0 122 0 122 57c0 69 -184 117 -260 117c-94 0 -111 -25 -111 -60z" />
    <glyph glyph-name="OE" unicode="&#x152;" horiz-adv-x="836" 
d="M763 523h-318v-225h251c6 0 9 -3 9 -9v-27c0 -6 -3 -9 -8 -9h-253v-208h318c6 0 9 -3 9 -9v-27c0 -6 -3 -9 -8 -9h-352c-21 -3 -41 -5 -64 -5c-161 0 -292 130 -292 290s131 290 291 290c20 0 41 -2 64 -7h352c6 0 9 -3 9 -9v-27c0 -6 -3 -9 -8 -9zM346 37
c17 0 36 2 56 5v484c-19 3 -36 4 -56 4c-137 0 -246 -111 -246 -247c0 -137 109 -246 246 -246z" />
    <glyph glyph-name="oe" unicode="&#x153;" horiz-adv-x="835" 
d="M746 23c-35 -23 -85 -28 -126 -28c-85 0 -157 34 -190 106c-35 -64 -103 -106 -180 -106c-112 0 -205 92 -205 205c0 112 93 205 205 205c76 0 143 -42 178 -105c27 63 80 105 172 105c136 0 190 -94 190 -205v-14c0 -6 -3 -9 -9 -9h-324c0 -120 106 -140 162 -140
c28 0 72 5 107 20c1 1 3 1 6 1s5 -1 7 -3l9 -20c1 -2 2 -4 2 -7c0 -1 -1 -3 -4 -5zM250 37c87 0 160 69 160 154v13c0 85 -73 156 -160 156c-89 0 -160 -74 -160 -162c0 -89 71 -161 160 -161zM457 217h286c0 109 -77 143 -146 143c-70 0 -140 -36 -140 -143z" />
    <glyph glyph-name="ae" unicode="&#xe6;" horiz-adv-x="763" 
d="M674 23c-35 -23 -85 -28 -126 -28c-71 0 -130 23 -169 71c-63 -71 -160 -71 -168 -71c-54 0 -161 7 -161 122c0 91 57 126 133 126c45 0 96 -5 155 -58c0 152 -55 175 -155 175c-15 0 -39 -3 -67 -10c-4 -1 -5 -2 -8 -2s-6 2 -8 7l-7 26c0 3 1 6 4 8c43 15 72 16 101 16
c84 0 140 -31 167 -87c28 52 80 87 163 87c136 0 190 -94 190 -205v-14c0 -6 -3 -9 -9 -9h-324c0 -120 106 -140 162 -140c28 0 72 5 107 20c1 1 3 1 6 1s5 -1 7 -3l9 -20c1 -2 2 -4 2 -7c0 -1 -1 -3 -4 -5zM385 217h286c0 109 -77 143 -146 143c-70 0 -140 -36 -140 -143z
M213 37c15 0 80 9 125 57v37c-27 45 -96 67 -136 67c-84 0 -107 -27 -107 -82c0 -47 35 -79 118 -79z" />
    <glyph glyph-name="AE" unicode="&#xc6;" horiz-adv-x="912" 
d="M839 523h-318v-225h251c6 0 9 -3 9 -9v-27c0 -6 -3 -9 -8 -9h-253v-208h318c6 0 9 -3 9 -9v-27c0 -6 -3 -9 -8 -9h-353c-5 0 -8 3 -8 9v127h-303l-99 -126c-5 -7 -9 -10 -14 -10h-29c-5 0 -8 3 -8 9l420 552c5 5 10 7 15 7h378c6 0 9 -3 9 -9v-27c0 -6 -3 -9 -8 -9z
M478 181v352l-271 -352h271z" />
    <glyph glyph-name="thorn" unicode="&#xfe;" horiz-adv-x="531" 
d="M285 37c88 0 156 45 156 164c0 100 -68 159 -156 159c-83 0 -160 -58 -160 -159c0 -104 75 -164 160 -164zM122 73v-237c0 -5 -3 -7 -8 -7h-26c-5 0 -8 2 -8 7v725c0 5 3 7 8 7h25c6 0 10 -3 12 -9v-229c58 74 141 75 158 75c125 0 203 -84 203 -203
c0 -114 -65 -207 -191 -207c-44 0 -106 9 -173 78z" />
    <glyph glyph-name="dotlessi" unicode="&#x131;" 
d="M80 7v386c0 5 3 7 8 7h26c5 0 8 -2 8 -7v-386c0 -5 -3 -7 -8 -7h-26c-5 0 -8 2 -8 7z" />
    <glyph glyph-name="Lslash" unicode="&#x141;" horiz-adv-x="556" 
d="M288 335l-114 -29v-261h319c6 0 9 -3 9 -9v-27c0 -6 -3 -9 -8 -9h-354c-5 0 -8 3 -8 9v286l-98 -24c-6 0 -9 3 -9 9v28c0 6 3 9 10 9c35 8 66 16 97 24v220c0 5 3 7 8 7h26c5 0 8 -2 8 -7v-210c56 15 96 26 115 30c6 0 9 -3 9 -9v-28c0 -6 -3 -9 -10 -9z" />
    <glyph glyph-name="lslash" unicode="&#x142;" horiz-adv-x="288" 
d="M166 353l98 25c6 0 9 -3 9 -9v-28c0 -6 -3 -9 -10 -9l-97 -25v-300c0 -5 -3 -7 -8 -7h-26c-5 0 -8 2 -8 7v289l-100 -25c-6 0 -9 3 -9 9v28c0 6 3 9 10 9l99 25v226c0 5 3 7 8 7h26c5 0 8 -2 8 -7v-215z" />
    <glyph glyph-name="trademark" unicode="&#x2122;" horiz-adv-x="712" 
d="M184 272v261h-98c-4 0 -6 2 -6 7v22c0 4 2 6 6 6h229c4 0 6 -2 6 -6v-22c0 -5 -2 -7 -6 -7h-97v-261c0 -5 -2 -7 -7 -7h-21c-4 0 -6 2 -6 7zM497 377c-1 0 -3 2 -6 5l-96 101v-211c-1 -5 -4 -7 -7 -7h-20c-5 0 -7 2 -7 7v294c2 3 4 4 6 4c4 0 4 -1 7 -4l114 -129
c5 -4 8 -6 9 -6s4 2 9 6l113 129c3 3 3 4 7 4c2 0 4 -1 6 -4v-294c0 -5 -2 -7 -7 -7h-20c-3 0 -6 2 -7 7v211l-95 -101c-3 -3 -5 -5 -6 -5z" />
    <glyph glyph-name="dotaccent" unicode="&#x2d9;" horiz-adv-x="220" 
d="M80 538c0 17 13 30 30 30s30 -13 30 -30s-13 -30 -30 -30s-30 13 -30 30z" />
    <glyph glyph-name="ring" unicode="&#x2da;" horiz-adv-x="350" 
d="M175 568c52 0 95 -44 95 -97c0 -52 -43 -95 -95 -95s-95 43 -95 95c0 53 43 97 95 97zM175 417c28 0 55 20 55 55c0 36 -27 55 -55 55s-55 -19 -55 -55c0 -35 27 -55 55 -55z" />
    <glyph glyph-name="currency" unicode="&#xa4;" horiz-adv-x="468" 
d="M345 141l41 -36c1 -3 2 -4 2 -5s-1 -3 -2 -4l-11 -13c-2 -2 -4 -3 -5 -3c0 0 -1 1 -4 2l-41 37c-27 -23 -60 -35 -91 -35s-64 12 -91 35l-41 -37c-3 -1 -4 -2 -4 -2c-1 0 -3 1 -5 3l-11 13c-1 1 -2 3 -2 4s1 2 2 5l41 36c-16 27 -26 53 -26 80c0 29 11 57 32 86l-47 41
c-1 3 -2 4 -2 5s1 3 2 4l11 13c2 2 4 3 5 3c0 0 1 -1 4 -2l47 -42c27 19 56 29 85 29s57 -10 84 -29l48 42c3 1 4 2 4 2c1 0 3 -1 5 -3l11 -13c1 -1 2 -3 2 -4s-1 -2 -2 -5l-47 -41c21 -29 32 -57 32 -86c0 -27 -10 -53 -26 -80zM234 113c56 0 108 48 108 108
s-52 107 -108 107s-108 -47 -108 -107s52 -108 108 -108z" />
    <glyph glyph-name="dagger" unicode="&#x2020;" horiz-adv-x="421" 
d="M332 395c6 0 9 -3 9 -9v-27c0 -6 -3 -9 -8 -9h-101v-524c0 -5 -3 -7 -8 -7h-26c-5 0 -8 2 -8 7v524h-102c-5 0 -8 3 -8 9v27c0 6 3 9 9 9h101v155c0 5 3 7 8 7h26c5 0 8 -2 8 -7v-155h100z" />
    <glyph glyph-name="daggerdbl" unicode="&#x2021;" horiz-adv-x="421" 
d="M333 350h-101v-305h100c6 0 9 -3 9 -9v-27c0 -6 -3 -9 -8 -9h-101v-174c0 -5 -3 -7 -8 -7h-26c-5 0 -8 2 -8 7v174h-102c-5 0 -8 3 -8 9v27c0 6 3 9 9 9h101v305h-102c-5 0 -8 3 -8 9v27c0 6 3 9 9 9h101v155c0 5 3 7 8 7h26c5 0 8 -2 8 -7v-155h100c6 0 9 -3 9 -9v-27
c0 -6 -3 -9 -8 -9z" />
    <glyph glyph-name="tilde" unicode="&#x2dc;" horiz-adv-x="455" 
d="M368 521c-27 -23 -51 -32 -86 -32c-43 0 -72 35 -110 35c-21 0 -46 -12 -62 -24c-1 -1 -3 -1 -5 -1c-3 0 -6 2 -10 6l-14 14c-1 1 -1 2 -1 3c0 4 4 6 7 9c27 23 52 35 85 35c66 0 64 -35 111 -35c22 0 42 7 60 21c1 1 3 1 5 1c4 0 8 -2 25 -17c1 -3 2 -4 2 -4
c0 -5 -2 -9 -7 -11z" />
    <glyph glyph-name="ogonek" unicode="&#x2db;" horiz-adv-x="306" 
d="M88 -5h34c-4 -9 -9 -21 -9 -32c0 -36 17 -43 44 -43c19 0 35 8 48 16c3 1 5 2 7 2c1 0 3 -1 6 -2l7 -12c1 -1 1 -2 1 -3c0 -3 -2 -4 -3 -7c-20 -17 -43 -23 -72 -23c-39 0 -71 19 -71 62c0 11 3 29 8 42z" />
    <glyph glyph-name="Delta" unicode="&#x2206;" horiz-adv-x="834" 
d="M423 568l331 -558c0 -7 -3 -10 -10 -10h-654c-7 0 -10 3 -10 10l331 558l3 3h2c3 0 6 -1 7 -3zM151 45h532l-266 453z" />
    <glyph glyph-name="pi" unicode="&#x3c0;" horiz-adv-x="741" 
d="M89 405h563c6 0 9 -3 9 -9v-27c0 -6 -3 -9 -8 -9h-116v-353c0 -5 -3 -7 -8 -7h-26c-5 0 -8 2 -8 7v353h-249v-353c0 -5 -3 -7 -8 -7h-26c-5 0 -8 2 -8 7v353h-116c-5 0 -8 3 -8 9v27c0 6 3 9 9 9z" />
    <glyph glyph-name="hungarumlaut" unicode="&#x2dd;" horiz-adv-x="407" 
d="M80 439l51 121c2 5 5 8 9 8h40c5 0 7 -3 7 -8c-24 -39 -48 -84 -71 -123c-3 -3 -5 -7 -10 -7h-17c-3 0 -6 3 -9 9zM220 439l51 121c2 5 5 8 9 8h40c5 0 7 -3 7 -8c-24 -39 -48 -84 -71 -123c-3 -3 -5 -7 -10 -7h-17c-3 0 -6 3 -9 9z" />
    <glyph glyph-name="quotesinglbase" unicode="&#x201a;" horiz-adv-x="224" 
d="M99 -65h-12c-3 0 -5 2 -5 6l17 53c-11 8 -19 18 -19 29c0 19 15 32 32 32c19 0 32 -13 32 -32c0 -4 -2 -11 -3 -12l-34 -69c-1 -5 -3 -7 -8 -7z" />
    <glyph glyph-name="quotedblbase" unicode="&#x201e;" horiz-adv-x="337" 
d="M212 -65h-12c-3 0 -5 2 -5 6l17 53c-11 8 -19 18 -19 29c0 19 15 32 32 32c19 0 32 -13 32 -32c0 -4 -2 -11 -3 -12l-34 -69c-1 -5 -3 -7 -8 -7zM99 -65h-12c-3 0 -5 2 -5 6l17 53c-11 8 -19 18 -19 29c0 19 15 32 32 32c19 0 32 -13 32 -32c0 -4 -2 -11 -3 -12l-34 -69
c-1 -5 -3 -7 -8 -7z" />
    <glyph glyph-name="perthousand" unicode="&#x2030;" horiz-adv-x="1155" 
d="M255 10l296 547c4 7 9 11 14 11h24c7 0 10 -3 10 -10l-296 -547c-4 -7 -9 -11 -14 -11h-24c-7 0 -10 3 -10 10zM211 568c68 0 128 -57 128 -129c0 -71 -60 -130 -128 -130c-72 0 -131 59 -131 130c0 72 59 129 131 129zM211 350c41 0 79 37 79 90c0 52 -38 83 -79 83
c-45 0 -83 -27 -83 -83c0 -53 38 -90 83 -90zM635 254c68 0 128 -57 128 -129c0 -71 -60 -130 -128 -130c-72 0 -131 59 -131 130c0 72 59 129 131 129zM635 36c41 0 79 37 79 90c0 52 -38 83 -79 83c-45 0 -83 -27 -83 -83c0 -53 38 -90 83 -90zM947 254
c68 0 128 -57 128 -129c0 -71 -60 -130 -128 -130c-72 0 -131 59 -131 130c0 72 59 129 131 129zM947 36c41 0 79 37 79 90c0 52 -38 83 -79 83c-45 0 -83 -27 -83 -83c0 -53 38 -90 83 -90z" />
    <glyph glyph-name="partialdiff" unicode="&#x2202;" horiz-adv-x="566" 
d="M281 37c85 0 160 60 160 164c0 101 -77 159 -160 159c-88 0 -156 -59 -156 -159c0 -119 68 -164 156 -164zM486 398v-391c0 -5 -3 -7 -8 -7h-18c-6 0 -10 3 -12 9l-4 64c-67 -69 -129 -78 -173 -78c-126 0 -191 93 -191 207c0 119 77 203 203 203c19 0 98 -1 158 -75v28
c0 152 -55 172 -155 172c-15 0 -39 -3 -67 -10c-4 -1 -5 -2 -8 -2s-6 2 -8 7l-7 26c0 3 1 6 4 8c43 15 72 16 101 16c121 0 185 -64 185 -177z" />
    <glyph glyph-name="Omega" unicode="&#x2126;" horiz-adv-x="806" 
d="M403 530c-151 0 -216 -94 -216 -240c0 -118 11 -160 43 -227v-63h-142c-5 0 -8 3 -8 9v27c0 6 3 9 9 9h105c-45 90 -49 185 -49 251c0 175 98 279 258 279s258 -104 258 -279c0 -66 -4 -161 -49 -251h105c6 0 9 -3 9 -9v-27c0 -6 -3 -9 -8 -9h-142v63
c32 67 43 109 43 227c0 146 -65 240 -216 240z" />
    <glyph glyph-name="product" unicode="&#x220f;" horiz-adv-x="741" 
d="M89 568h563c6 0 9 -3 9 -9v-27c0 -6 -3 -9 -8 -9h-116v-516c0 -5 -3 -7 -8 -7h-26c-5 0 -8 2 -8 7v516h-249v-516c0 -5 -3 -7 -8 -7h-26c-5 0 -8 2 -8 7v516h-116c-5 0 -8 3 -8 9v27c0 6 3 9 9 9z" />
    <glyph glyph-name="summation" unicode="&#x2211;" horiz-adv-x="493" 
d="M217 209l-137 351c0 5 2 8 7 8h317c6 0 9 -3 9 -9v-27c0 -6 -3 -9 -8 -9h-261l121 -314l-121 -314h261c5 0 8 -3 8 -9v-27c0 -6 -3 -9 -9 -9h-317c-5 0 -7 3 -7 8z" />
    <glyph glyph-name="minus" unicode="&#x2212;" horiz-adv-x="442" 
d="M89 207h264c6 0 9 -3 9 -9v-27c0 -6 -3 -9 -8 -9h-266c-5 0 -8 3 -8 9v27c0 6 3 9 9 9z" />
    <glyph glyph-name="lozenge" unicode="&#x25ca;" horiz-adv-x="554" 
d="M424 282l-147 219l-147 -219l147 -217zM277 -5c-3 0 -4 2 -7 3l-190 282v5l190 280c3 1 4 3 7 3s4 -2 7 -3l190 -280v-5l-190 -282c-3 -1 -4 -3 -7 -3z" />
    <glyph glyph-name="notequal" unicode="&#x2260;" horiz-adv-x="363" 
d="M275 241h-56l-44 -114h99c6 0 9 -3 9 -9v-27c0 -6 -3 -9 -8 -9h-117l-29 -76c-4 -7 -9 -11 -14 -11h-19c-7 0 -10 3 -10 10l29 77h-27c-5 0 -8 3 -8 9v27c0 6 3 9 9 9h44l43 114h-88c-5 0 -8 3 -8 9v27c0 6 3 9 9 9h105l40 105c4 7 9 11 14 11h19c7 0 10 -3 10 -10
l-41 -106h38c6 0 9 -3 9 -9v-27c0 -6 -3 -9 -8 -9z" />
    <glyph glyph-name="radical" unicode="&#x221a;" horiz-adv-x="746" 
d="M657 639c6 0 9 -3 9 -9v-27c0 -6 -3 -9 -8 -9h-119l-270 -597c-3 -1 -5 -2 -6 -2s-3 1 -6 2l-177 394c0 6 3 9 9 9h28c4 0 9 -3 14 -9l132 -298l241 537c5 6 9 9 14 9h139z" />
    <glyph glyph-name="infinity" unicode="&#x221e;" horiz-adv-x="1026" 
d="M513 183c-71 -84 -151 -104 -234 -104c-100 0 -199 53 -199 169c0 107 74 171 199 171c67 0 165 -21 234 -133c67 112 168 133 234 133c125 0 199 -64 199 -171c0 -116 -99 -169 -199 -169c-83 0 -163 20 -234 104zM279 374c-61 0 -157 -22 -157 -127
c0 -80 74 -123 157 -123c81 0 151 23 215 103c-30 83 -116 147 -215 147zM747 374c-97 0 -188 -63 -215 -147c64 -80 134 -103 215 -103c82 0 157 43 157 123c0 105 -96 127 -157 127z" />
    <glyph glyph-name="integral" unicode="&#x222b;" horiz-adv-x="494" 
d="M411 557c2 0 3 -2 3 -5s0 -3 -8 -30c-2 -2 -5 -3 -8 -3c-15 3 -33 7 -42 7c-67 0 -88 -11 -88 -141v-389c0 -145 -41 -176 -118 -176c-12 0 -43 0 -67 11c-2 0 -3 2 -3 5s0 3 8 30c2 2 5 3 8 3c15 -3 33 -7 42 -7c67 0 88 10 88 141v389c0 143 41 176 118 176
c12 0 43 0 67 -11z" />
    <glyph glyph-name="approxequal" unicode="&#x2248;" horiz-adv-x="455" 
d="M368 112c-27 -23 -51 -32 -86 -32c-43 0 -72 35 -110 35c-21 0 -46 -12 -62 -24c-1 -1 -3 -1 -5 -1c-3 0 -6 2 -10 6l-14 14c-1 1 -1 2 -1 3c0 4 4 6 7 9c27 23 52 35 85 35c66 0 64 -35 111 -35c22 0 42 7 60 21c1 1 3 1 5 1c4 0 8 -2 25 -17c1 -3 2 -4 2 -4
c0 -5 -2 -9 -7 -11zM368 241c-27 -23 -51 -32 -86 -32c-43 0 -72 35 -110 35c-21 0 -46 -12 -62 -24c-1 -1 -3 -1 -5 -1c-3 0 -6 2 -10 6l-14 14c-1 1 -1 2 -1 3c0 4 4 6 7 9c27 23 52 35 85 35c66 0 64 -35 111 -35c22 0 42 7 60 21c1 1 3 1 5 1c4 0 8 -2 25 -17
c1 -3 2 -4 2 -4c0 -5 -2 -9 -7 -11z" />
    <glyph glyph-name="udieresis" unicode="&#xfc;" horiz-adv-x="515" 
d="M70 179v214c0 5 3 7 8 7h26c5 0 8 -2 8 -7v-199c0 -85 6 -157 135 -157c84 0 146 75 146 124v232c0 5 3 7 8 7h26c5 0 8 -2 8 -7v-386c0 -5 -3 -7 -8 -7h-18c-6 0 -10 3 -12 9l-3 57c-63 -71 -136 -71 -158 -71c-119 0 -166 67 -166 184zM161 506c0 17 13 30 30 30
s30 -13 30 -30s-13 -30 -30 -30s-30 13 -30 30zM283 506c0 17 13 30 30 30s30 -13 30 -30s-13 -30 -30 -30s-30 13 -30 30z" />
    <glyph glyph-name="aogonek" unicode="&#x105;" horiz-adv-x="458" 
d="M198 405c121 0 185 -64 185 -177v-220c0 -3 -1 -5 -3 -6c-16 -16 -72 -22 -72 -45c0 -7 2 -20 29 -20c8 0 13 0 24 7c1 1 3 2 5 2c0 0 1 -1 4 -2l11 -9c0 -1 1 -1 1 -2s0 -1 1 -2c0 -2 -1 -4 -3 -6c-9 -11 -25 -17 -46 -17c-27 0 -65 4 -65 46c0 20 10 38 75 62l-4 38
c-35 -59 -130 -59 -139 -59c-40 0 -151 7 -151 122c0 91 57 126 133 126c45 0 99 -5 158 -58c0 152 -58 175 -158 175c-15 0 -39 -3 -67 -10c-4 -1 -5 -2 -8 -2s-6 2 -8 7l-7 26c0 3 1 6 4 8c43 15 72 16 101 16zM341 94v37c-27 45 -99 67 -139 67c-84 0 -107 -27 -107 -82
c0 -47 35 -79 118 -79c15 0 83 9 128 57z" />
    <glyph glyph-name="Zdotaccent" unicode="&#x17b;" horiz-adv-x="474" 
d="M426 0h-380c-4 0 -6 2 -6 7c0 3 0 5 1 6l318 510h-310c-6 0 -9 3 -9 9v27c0 6 3 9 9 9h377c5 0 8 -2 8 -7c0 -2 0 -3 -1 -4l-318 -512h310c6 0 9 -3 9 -9v-27c0 -6 -3 -9 -8 -9zM207 669c0 17 13 30 30 30s30 -13 30 -30s-13 -30 -30 -30s-30 13 -30 30z" />
    <glyph glyph-name="Zacute" unicode="&#x179;" horiz-adv-x="474" 
d="M426 0h-380c-4 0 -6 2 -6 7c0 3 0 5 1 6l318 510h-310c-6 0 -9 3 -9 9v27c0 6 3 9 9 9h377c5 0 8 -2 8 -7c0 -2 0 -3 -1 -4l-318 -512h310c6 0 9 -3 9 -9v-27c0 -6 -3 -9 -8 -9zM228 649l46 107c1 1 5 10 10 10h40c7 0 10 -3 10 -10l-71 -107c-3 -4 -8 -10 -15 -10h-10
c-7 0 -10 3 -10 10z" />
    <glyph glyph-name="Tcaron" unicode="&#x164;" horiz-adv-x="470" 
d="M421 568c6 0 9 -3 9 -9v-27c0 -6 -3 -9 -8 -9h-166v-516c0 -5 -3 -7 -8 -7h-26c-5 0 -8 2 -8 7v516h-166c-5 0 -8 3 -8 9v27c0 6 3 9 9 9h372zM227 637h16c4 0 8 3 11 6l94 81c2 2 3 4 3 6c0 1 -2 4 -5 7l-14 13c-2 2 -4 3 -7 3s-5 -1 -6 -2l-84 -77l-84 77
c-1 1 -3 2 -6 2s-5 -1 -7 -3l-14 -13c-3 -3 -5 -6 -5 -7c0 -2 1 -4 3 -6l94 -81c3 -3 7 -6 11 -6z" />
    <glyph glyph-name="Scedilla" unicode="&#x15e;" horiz-adv-x="499" 
d="M257 530c-148 0 -150 -81 -150 -104c0 -146 340 -104 340 -294c0 -89 -88 -131 -162 -136l-3 -34c41 -21 81 -44 81 -75c0 -44 -50 -58 -87 -58c-31 0 -56 6 -83 25c-1 1 -2 3 -2 5c0 3 0 4 1 5l11 13c1 1 3 1 5 1c3 0 5 -1 8 -2c8 -5 39 -18 62 -18c12 0 52 4 52 28
c0 20 -47 35 -86 56l8 53c-51 3 -114 13 -166 37c-3 2 -5 5 -5 8c0 2 0 4 1 5l7 17c2 3 5 5 8 5c1 0 3 0 4 -1c39 -15 98 -29 159 -29c73 0 145 31 145 97c0 145 -340 100 -340 293c0 96 71 148 192 148c51 0 103 -11 139 -23c5 -2 6 -6 4 -12l-9 -21c-1 -3 -2 -4 -5 -4
c-2 0 -4 0 -6 1c-35 8 -87 14 -123 14z" />
    <glyph glyph-name="Abreve" unicode="&#x102;" horiz-adv-x="578" 
d="M296 569l252 -559c0 -7 -3 -10 -10 -10h-22c-5 0 -10 3 -15 10l-55 125h-314l-55 -125c-5 -7 -10 -10 -15 -10h-22c-7 0 -10 3 -10 10l252 559c3 1 5 2 7 2s4 -1 7 -2zM153 180h272l-136 300zM289 639c-92 0 -146 46 -158 113c0 7 3 10 10 10h26c5 0 9 -3 10 -10
c19 -67 91 -69 111 -69s92 2 111 69c1 7 5 10 10 10h26c7 0 10 -3 10 -10c-12 -67 -65 -113 -156 -113z" />
    <glyph glyph-name="Racute" unicode="&#x154;" horiz-adv-x="540" 
d="M490 393c0 -95 -53 -153 -125 -165l111 -219c0 -6 -3 -9 -10 -9h-22c-5 0 -10 3 -15 10l-108 216h-198v-219c0 -5 -3 -7 -8 -7h-27c-5 0 -8 2 -8 7v554c0 5 3 7 8 7h251c83 0 151 -72 151 -175zM123 523v-252h199c66 0 123 26 123 121s-57 131 -123 131h-199zM272 649
l46 107c1 1 5 10 10 10h40c7 0 10 -3 10 -10l-71 -107c-3 -4 -8 -10 -15 -10h-10c-7 0 -10 3 -10 10z" />
    <glyph glyph-name="zdotaccent" unicode="&#x17c;" horiz-adv-x="431" 
d="M59 400h314c5 0 8 -2 8 -7c0 -2 0 -3 -1 -4l-250 -344h242c6 0 9 -3 9 -9v-27c0 -6 -3 -9 -8 -9h-317c-4 0 -6 2 -6 7c0 3 0 5 1 6l249 342h-241c-6 0 -9 3 -9 9v27c0 6 3 9 9 9zM185 506c0 17 13 30 30 30s30 -13 30 -30s-13 -30 -30 -30s-30 13 -30 30z" />
    <glyph glyph-name="Sacute" unicode="&#x15a;" horiz-adv-x="499" 
d="M242 649l46 107c1 1 5 10 10 10h40c7 0 10 -3 10 -10l-71 -107c-3 -4 -8 -10 -15 -10h-10c-7 0 -10 3 -10 10zM86 32c-3 2 -5 5 -5 8c0 2 0 4 1 5l7 17c2 3 5 5 8 5c1 0 3 0 4 -1c39 -15 98 -29 159 -29c73 0 145 31 145 97c0 145 -340 100 -340 293c0 96 71 148 192 148
c51 0 103 -11 139 -23c5 -2 6 -6 4 -12l-9 -21c-1 -3 -2 -4 -5 -4c-2 0 -4 0 -6 1c-35 8 -87 14 -123 14c-148 0 -150 -81 -150 -104c0 -146 340 -104 340 -294c0 -95 -101 -137 -178 -137c-55 0 -124 10 -183 37z" />
    <glyph glyph-name="Lcaron" unicode="&#x13d;" horiz-adv-x="504" 
d="M442 0h-354c-5 0 -8 3 -8 9v552c0 5 3 7 8 7h26c5 0 8 -2 8 -7v-516h319c6 0 9 -3 9 -9v-27c0 -6 -3 -9 -8 -9zM232 448h-12c-3 0 -5 2 -5 6l17 53c-11 8 -19 18 -19 29c0 19 15 32 32 32c19 0 32 -13 32 -32c0 -4 -2 -11 -3 -12l-34 -69c-1 -5 -3 -7 -8 -7z" />
    <glyph glyph-name="Cacute" unicode="&#x106;" horiz-adv-x="596" 
d="M550 69c-51 -55 -123 -74 -203 -74c-161 0 -292 130 -292 290s131 290 291 290c64 0 128 -20 176 -56c2 -2 3 -4 3 -5c0 -2 -1 -4 -4 -7l-14 -15c-3 -3 -6 -4 -9 -4c-2 0 -4 1 -6 3c-43 31 -89 39 -146 39c-137 0 -246 -111 -246 -247c0 -137 109 -246 246 -246
c49 0 117 11 176 59c2 2 5 3 8 3s6 -1 8 -4l10 -16c1 -3 3 -4 3 -7v-1c0 -1 0 -1 -1 -2zM323 649l46 107c1 1 5 10 10 10h40c7 0 10 -3 10 -10l-71 -107c-3 -4 -8 -10 -15 -10h-10c-7 0 -10 3 -10 10z" />
    <glyph glyph-name="racute" unicode="&#x155;" horiz-adv-x="318" 
d="M122 199v-192c0 -5 -3 -7 -8 -7h-26c-5 0 -8 2 -8 7v386c0 5 3 7 8 7h18c6 0 10 -3 12 -9l5 -59c46 73 126 73 155 73h11c6 0 9 -3 9 -9v-27c0 -6 -3 -9 -8 -9h-14c-123 0 -154 -81 -154 -161zM130 486l46 107c1 1 5 10 10 10h40c7 0 10 -3 10 -10l-71 -107
c-3 -4 -8 -10 -15 -10h-10c-7 0 -10 3 -10 10z" />
    <glyph glyph-name="cacute" unicode="&#x107;" horiz-adv-x="411" 
d="M364 17c-33 -17 -75 -22 -114 -22c-112 0 -205 92 -205 205c0 112 93 205 205 205c45 0 82 -8 117 -31c3 -3 4 -5 4 -6c0 -3 0 -5 -1 -6l-12 -19c-3 -3 -6 -5 -8 -5s-3 0 -4 1l-2 2c-31 15 -67 19 -94 19c-89 0 -160 -74 -160 -162c0 -89 71 -161 160 -161
c31 0 65 3 94 14c1 1 3 1 6 1s5 -1 7 -3l9 -20c1 -2 2 -4 2 -7c0 -1 -1 -3 -4 -5zM224 486l46 107c1 1 5 10 10 10h40c7 0 10 -3 10 -10l-71 -107c-3 -4 -8 -10 -15 -10h-10c-7 0 -10 3 -10 10z" />
    <glyph glyph-name="zacute" unicode="&#x17a;" horiz-adv-x="431" 
d="M59 400h314c5 0 8 -2 8 -7c0 -2 0 -3 -1 -4l-250 -344h242c6 0 9 -3 9 -9v-27c0 -6 -3 -9 -8 -9h-317c-4 0 -6 2 -6 7c0 3 0 5 1 6l249 342h-241c-6 0 -9 3 -9 9v27c0 6 3 9 9 9zM201 486l46 107c1 1 5 10 10 10h40c7 0 10 -3 10 -10l-71 -107c-3 -4 -8 -10 -15 -10h-10
c-7 0 -10 3 -10 10z" />
    <glyph glyph-name="scedilla" unicode="&#x15f;" horiz-adv-x="406" 
d="M70 62c36 -12 78 -26 121 -26c32 0 122 0 122 57c0 97 -258 79 -258 212c0 67 51 100 142 100c29 0 80 -5 113 -12c3 -3 5 -6 5 -10l-7 -25c-1 -1 -5 -5 -9 -5c-28 7 -63 7 -91 7c-94 0 -111 -25 -111 -60c0 -73 258 -85 258 -196c0 -82 -69 -105 -137 -108l-4 -34
c41 -21 81 -44 81 -75c0 -44 -50 -58 -87 -58c-31 0 -56 6 -83 25c-1 1 -2 3 -2 5c0 3 0 4 1 5l11 13c1 1 3 1 5 1c3 0 5 -1 8 -2c8 -5 39 -18 62 -18c12 0 52 4 52 28c0 20 -47 35 -86 56l8 54c-41 3 -86 11 -121 27c-3 2 -5 6 -5 11l5 23c1 3 3 5 7 5z" />
    <glyph glyph-name="sacute" unicode="&#x15b;" horiz-adv-x="406" 
d="M70 62c36 -12 78 -26 121 -26c32 0 122 0 122 57c0 97 -258 79 -258 212c0 67 51 100 142 100c29 0 80 -5 113 -12c3 -3 5 -6 5 -10l-7 -25c-1 -1 -5 -5 -9 -5c-28 7 -63 7 -91 7c-94 0 -111 -25 -111 -60c0 -73 258 -85 258 -196c0 -89 -82 -109 -154 -109
c-47 0 -98 9 -138 28c-3 2 -5 6 -5 11l5 23c1 3 3 5 7 5zM168 486l46 107c1 1 5 10 10 10h40c7 0 10 -3 10 -10l-71 -107c-3 -4 -8 -10 -15 -10h-10c-7 0 -10 3 -10 10z" />
    <glyph glyph-name="tcaron" unicode="&#x165;" horiz-adv-x="445" 
d="M134 405v154c0 6 3 9 9 9h24c6 0 9 -3 9 -9v-154h116c6 0 9 -3 9 -9v-27c0 -6 -3 -9 -9 -9h-116v-167c0 -131 17 -156 100 -156c4 0 7 1 10 1c4 0 7 -2 8 -5c7 -25 7 -27 7 -30s-5 -7 -6 -7c-12 -1 -22 -1 -38 -1c-76 0 -123 37 -123 162v203h-90c-6 0 -9 3 -9 9v27
c0 6 3 9 9 9h90zM385 448h-12c-3 0 -5 2 -5 6l17 53c-11 8 -19 18 -19 29c0 19 15 32 32 32c19 0 32 -13 32 -32c0 -4 -2 -11 -3 -12l-34 -69c-1 -5 -3 -7 -8 -7z" />
    <glyph glyph-name="nacute" unicode="&#x144;" horiz-adv-x="515" 
d="M445 221v-214c0 -5 -3 -7 -8 -7h-26c-5 0 -8 2 -8 7v196c0 85 -6 157 -135 157c-84 0 -146 -74 -146 -158v-195c0 -5 -3 -7 -8 -7h-26c-5 0 -8 2 -8 7v386c0 5 3 7 8 7h18c6 0 10 -3 12 -9l3 -59c65 73 134 73 158 73c119 0 166 -67 166 -184zM253 486l46 107
c1 1 5 10 10 10h40c7 0 10 -3 10 -10l-71 -107c-3 -4 -8 -10 -15 -10h-10c-7 0 -10 3 -10 10z" />
    <glyph glyph-name="ncaron" unicode="&#x148;" horiz-adv-x="515" 
d="M445 221v-214c0 -5 -3 -7 -8 -7h-26c-5 0 -8 2 -8 7v196c0 85 -6 157 -135 157c-84 0 -146 -74 -146 -158v-195c0 -5 -3 -7 -8 -7h-26c-5 0 -8 2 -8 7v386c0 5 3 7 8 7h18c6 0 10 -3 12 -9l3 -59c65 73 134 73 158 73c119 0 166 -67 166 -184zM253 469h16c4 0 8 3 11 6
l94 81c2 2 3 4 3 6c0 1 -2 4 -5 7l-14 13c-2 2 -4 3 -7 3s-5 -1 -6 -2l-84 -77l-84 77c-1 1 -3 2 -6 2s-5 -1 -7 -3l-14 -13c-3 -3 -5 -6 -5 -7c0 -2 1 -4 3 -6l94 -81c3 -3 7 -6 11 -6z" />
    <glyph glyph-name="ecaron" unicode="&#x11b;" horiz-adv-x="470" 
d="M92 217h286c0 109 -77 143 -146 143c-70 0 -140 -36 -140 -143zM381 23c-35 -23 -85 -28 -126 -28c-116 0 -210 64 -210 205c0 111 54 205 190 205s190 -94 190 -205v-14c0 -6 -3 -9 -9 -9h-324c0 -120 106 -140 162 -140c28 0 72 5 107 20c1 1 3 1 6 1s5 -1 7 -3l9 -20
c1 -2 2 -4 2 -7c0 -1 -1 -3 -4 -5zM228 469h16c4 0 8 3 11 6l94 81c2 2 3 4 3 6c0 1 -2 4 -5 7l-14 13c-2 2 -4 3 -7 3s-5 -1 -6 -2l-84 -77l-84 77c-1 1 -3 2 -6 2s-5 -1 -7 -3l-14 -13c-3 -3 -5 -6 -5 -7c0 -2 1 -4 3 -6l94 -81c3 -3 7 -6 11 -6z" />
    <glyph glyph-name="eogonek" unicode="&#x119;" horiz-adv-x="470" 
d="M381 23c-28 -19 -64 -24 -99 -27c-4 -9 -10 -22 -10 -33c0 -36 17 -43 44 -43c19 0 35 8 48 16c3 1 5 2 7 2c1 0 3 -1 6 -2l7 -12c1 -1 1 -2 1 -3c0 -3 -2 -4 -3 -7c-20 -17 -43 -23 -72 -23c-39 0 -71 19 -71 62c0 11 3 29 8 42c-112 3 -202 67 -202 205
c0 111 54 205 190 205s190 -94 190 -205v-14c0 -6 -3 -9 -9 -9h-324c0 -120 106 -140 162 -140c28 0 72 5 107 20c1 1 3 1 6 1s5 -1 7 -3l9 -20c1 -2 2 -4 2 -7c0 -1 -1 -3 -4 -5zM92 217h286c0 109 -77 143 -146 143c-70 0 -140 -36 -140 -143z" />
    <glyph glyph-name="ccaron" unicode="&#x10d;" horiz-adv-x="411" 
d="M364 17c-33 -17 -75 -22 -114 -22c-112 0 -205 92 -205 205c0 112 93 205 205 205c45 0 82 -8 117 -31c3 -3 4 -5 4 -6c0 -3 0 -5 -1 -6l-12 -19c-3 -3 -6 -5 -8 -5s-3 0 -4 1l-2 2c-31 15 -67 19 -94 19c-89 0 -160 -74 -160 -162c0 -89 71 -161 160 -161
c31 0 65 3 94 14c1 1 3 1 6 1s5 -1 7 -3l9 -20c1 -2 2 -4 2 -7c0 -1 -1 -3 -4 -5zM228 469h16c4 0 8 3 11 6l94 81c2 2 3 4 3 6c0 1 -2 4 -5 7l-14 13c-2 2 -4 3 -7 3s-5 -1 -6 -2l-84 -77l-84 77c-1 1 -3 2 -6 2s-5 -1 -7 -3l-14 -13c-3 -3 -5 -6 -5 -7c0 -2 1 -4 3 -6
l94 -81c3 -3 7 -6 11 -6z" />
    <glyph glyph-name="Eogonek" unicode="&#x118;" horiz-adv-x="514" 
d="M123 298h251c6 0 9 -3 9 -9v-27c0 -6 -3 -9 -8 -9h-253v-208h318c6 0 9 -3 9 -9v-27c0 -6 -3 -9 -8 -9h-95c-4 -11 -10 -28 -10 -37c0 -36 17 -43 44 -43c19 0 35 8 48 16c3 1 5 2 7 2c1 0 3 -1 6 -2l7 -12c1 -1 1 -2 1 -3c0 -3 -2 -4 -3 -7c-20 -17 -43 -23 -72 -23
c-39 0 -71 19 -71 62c0 11 4 34 9 47h-224c-5 0 -8 3 -8 9v552c0 5 3 7 8 7h352c6 0 9 -3 9 -9v-27c0 -6 -3 -9 -8 -9h-318v-225z" />
    <glyph glyph-name="ohungarumlaut" unicode="&#x151;" horiz-adv-x="500" 
d="M250 405c112 0 205 -93 205 -205c0 -113 -93 -205 -205 -205c-113 0 -205 92 -205 205c0 112 92 205 205 205zM250 37c89 0 160 72 160 161c0 88 -71 162 -160 162c-90 0 -160 -74 -160 -162c0 -89 70 -161 160 -161zM158 485l51 121c2 5 5 8 9 8h40c5 0 7 -3 7 -8
c-24 -39 -48 -84 -71 -123c-3 -3 -5 -7 -10 -7h-17c-3 0 -6 3 -9 9zM298 485l51 121c2 5 5 8 9 8h40c5 0 7 -3 7 -8c-24 -39 -48 -84 -71 -123c-3 -3 -5 -7 -10 -7h-17c-3 0 -6 3 -9 9z" />
    <glyph glyph-name="Ohungarumlaut" unicode="&#x150;" horiz-adv-x="690" 
d="M345 575c160 0 290 -130 290 -290s-130 -290 -290 -290c-159 0 -290 130 -290 290s131 290 290 290zM345 37c137 0 246 109 246 246c0 136 -109 247 -246 247s-245 -111 -245 -247c0 -137 108 -246 245 -246zM253 648l51 121c2 5 5 8 9 8h40c5 0 7 -3 7 -8
c-24 -39 -48 -84 -71 -123c-3 -3 -5 -7 -10 -7h-17c-3 0 -6 3 -9 9zM393 648l51 121c2 5 5 8 9 8h40c5 0 7 -3 7 -8c-24 -39 -48 -84 -71 -123c-3 -3 -5 -7 -10 -7h-17c-3 0 -6 3 -9 9z" />
    <glyph glyph-name="Ncaron" unicode="&#x147;" horiz-adv-x="640" 
d="M518 250v311c0 5 3 7 8 7h26c5 0 8 -2 8 -7v-554c0 -5 -3 -7 -8 -7h-26c-5 0 -8 2 -8 7v191l-396 296v-487c0 -5 -3 -7 -8 -7h-26c-5 0 -8 2 -8 7v560c2 3 4 4 6 4c4 0 4 -1 7 -4zM327 637h-16c-4 0 -8 3 -11 6l-94 81c-2 2 -3 4 -3 6c0 1 2 4 5 7l14 13c2 2 4 3 7 3
s5 -1 6 -2l84 -77l84 77c1 1 3 2 6 2s5 -1 7 -3l14 -13c3 -3 5 -6 5 -7c0 -2 -1 -4 -3 -6l-94 -81c-3 -3 -7 -6 -11 -6z" />
    <glyph glyph-name="Nacute" unicode="&#x143;" horiz-adv-x="640" 
d="M518 250v311c0 5 3 7 8 7h26c5 0 8 -2 8 -7v-554c0 -5 -3 -7 -8 -7h-26c-5 0 -8 2 -8 7v191l-396 296v-487c0 -5 -3 -7 -8 -7h-26c-5 0 -8 2 -8 7v560c2 3 4 4 6 4c4 0 4 -1 7 -4zM305 649l46 107c1 1 5 10 10 10h40c7 0 10 -3 10 -10l-71 -107c-3 -4 -8 -10 -15 -10h-10
c-7 0 -10 3 -10 10z" />
    <glyph glyph-name="Dcroat" unicode="&#x110;" horiz-adv-x="626" 
d="M34 300h90v261c0 5 3 7 8 7h181c160 0 273 -126 273 -286s-104 -282 -286 -282h-168c-5 0 -8 2 -8 7v248h-91c-5 0 -8 3 -8 9v27c0 6 3 9 9 9zM166 42h129c145 0 249 90 249 237s-97 247 -242 247h-136v-226h132c6 0 9 -3 9 -9v-27c0 -6 -3 -9 -8 -9h-133v-213z" />
    <glyph glyph-name="Lacute" unicode="&#x139;" horiz-adv-x="504" 
d="M442 0h-354c-5 0 -8 3 -8 9v552c0 5 3 7 8 7h26c5 0 8 -2 8 -7v-516h319c6 0 9 -3 9 -9v-27c0 -6 -3 -9 -8 -9zM85 649l46 107c1 1 5 10 10 10h40c7 0 10 -3 10 -10l-71 -107c-3 -4 -8 -10 -15 -10h-10c-7 0 -10 3 -10 10z" />
    <glyph glyph-name="lcaron" unicode="&#x13e;" horiz-adv-x="266" 
d="M80 7v554c0 5 3 7 8 7h26c5 0 8 -2 8 -7v-554c0 -5 -3 -7 -8 -7h-26c-5 0 -8 2 -8 7zM194 448h12c5 0 7 2 8 7l34 69c1 1 3 8 3 12c0 19 -13 32 -32 32c-17 0 -32 -13 -32 -32c0 -11 8 -21 19 -29l-17 -53c0 -4 2 -6 5 -6z" />
    <glyph glyph-name="Ccaron" unicode="&#x10c;" horiz-adv-x="596" 
d="M550 69c-51 -55 -123 -74 -203 -74c-161 0 -292 130 -292 290s131 290 291 290c64 0 128 -20 176 -56c2 -2 3 -4 3 -5c0 -2 -1 -4 -4 -7l-14 -15c-3 -3 -6 -4 -9 -4c-2 0 -4 1 -6 3c-43 31 -89 39 -146 39c-137 0 -246 -111 -246 -247c0 -137 109 -246 246 -246
c49 0 117 11 176 59c2 2 5 3 8 3s6 -1 8 -4l10 -16c1 -3 3 -4 3 -7v-1c0 -1 0 -1 -1 -2zM326 637h16c4 0 8 3 11 6l94 81c2 2 3 4 3 6c0 1 -2 4 -5 7l-14 13c-2 2 -4 3 -7 3s-5 -1 -6 -2l-84 -77l-84 77c-1 1 -3 2 -6 2s-5 -1 -7 -3l-14 -13c-3 -3 -5 -6 -5 -7
c0 -2 1 -4 3 -6l94 -81c3 -3 7 -6 11 -6z" />
    <glyph glyph-name="Ecaron" unicode="&#x11a;" horiz-adv-x="514" 
d="M123 298h251c6 0 9 -3 9 -9v-27c0 -6 -3 -9 -8 -9h-253v-208h318c6 0 9 -3 9 -9v-27c0 -6 -3 -9 -8 -9h-353c-5 0 -8 3 -8 9v552c0 5 3 7 8 7h352c6 0 9 -3 9 -9v-27c0 -6 -3 -9 -8 -9h-318v-225zM253 637h16c4 0 8 3 11 6l94 81c2 2 3 4 3 6c0 1 -2 4 -5 7l-14 13
c-2 2 -4 3 -7 3s-5 -1 -6 -2l-84 -77l-84 77c-1 1 -3 2 -6 2s-5 -1 -7 -3l-14 -13c-3 -3 -5 -6 -5 -7c0 -2 1 -4 3 -6l94 -81c3 -3 7 -6 11 -6z" />
    <glyph glyph-name="Dcaron" unicode="&#x10e;" horiz-adv-x="582" 
d="M251 42c145 0 249 90 249 237s-97 247 -242 247h-136v-484h129zM256 0h-168c-5 0 -8 2 -8 7v554c0 5 3 7 8 7h181c160 0 273 -126 273 -286s-104 -282 -286 -282zM253 637h16c4 0 8 3 11 6l94 81c2 2 3 4 3 6c0 1 -2 4 -5 7l-14 13c-2 2 -4 3 -7 3s-5 -1 -6 -2l-84 -77
l-84 77c-1 1 -3 2 -6 2s-5 -1 -7 -3l-14 -13c-3 -3 -5 -6 -5 -7c0 -2 1 -4 3 -6l94 -81c3 -3 7 -6 11 -6z" />
    <glyph glyph-name="Aogonek" unicode="&#x104;" horiz-adv-x="578" 
d="M540 -83l5 -10c1 -1 1 -2 1 -3c0 -11 -21 -12 -49 -12c-32 0 -65 21 -65 61c0 23 6 53 60 77l-46 105h-314l-55 -125c-5 -7 -10 -10 -15 -10h-22c-7 0 -10 3 -10 10l252 559c3 1 5 2 7 2s4 -1 7 -2l252 -559c0 -7 -3 -10 -10 -10h-21c-39 -5 -51 -29 -51 -44
s1 -36 43 -36c7 0 11 1 16 2c1 1 4 1 7 1s6 -2 8 -6zM153 180h272l-136 300z" />
    <glyph glyph-name="abreve" unicode="&#x103;" horiz-adv-x="458" 
d="M226 498c-92 0 -134 46 -146 113c0 7 3 10 10 10h26c5 0 9 -3 10 -10c19 -67 79 -69 99 -69c19 0 82 2 101 69c1 7 5 10 10 10h26c7 0 10 -3 10 -10c-12 -67 -55 -113 -146 -113zM213 37c15 0 83 9 128 57v37c-27 45 -99 67 -139 67c-84 0 -107 -27 -107 -82
c0 -47 35 -79 118 -79zM116 350c-4 -1 -5 -2 -8 -2s-6 2 -8 7l-7 26c0 3 1 6 4 8c43 15 72 16 101 16c121 0 185 -64 185 -177v-220c0 -5 -3 -8 -8 -8h-18c-6 0 -10 3 -12 9l-5 45c-35 -59 -130 -59 -139 -59c-40 0 -151 7 -151 122c0 91 57 126 133 126c45 0 99 -5 158 -58
c0 152 -58 175 -158 175c-15 0 -39 -3 -67 -10z" />
    <glyph glyph-name="Uhungarumlaut" unicode="&#x170;" horiz-adv-x="634" 
d="M227 648l51 121c2 5 5 8 9 8h40c5 0 7 -3 7 -8c-24 -39 -48 -84 -71 -123c-3 -3 -5 -7 -10 -7h-17c-3 0 -6 3 -9 9zM367 648l51 121c2 5 5 8 9 8h40c5 0 7 -3 7 -8c-24 -39 -48 -84 -71 -123c-3 -3 -5 -7 -10 -7h-17c-3 0 -6 3 -9 9zM316 -5c-155 0 -236 85 -236 242v324
c0 5 3 7 8 7h26c5 0 8 -2 8 -7v-300c0 -151 55 -224 195 -224s195 73 195 224v300c0 5 3 7 8 7h26c5 0 8 -2 8 -7v-324c0 -157 -81 -242 -238 -242z" />
    <glyph glyph-name="Uring" unicode="&#x16e;" horiz-adv-x="634" 
d="M316 -5c-155 0 -236 85 -236 242v324c0 5 3 7 8 7h26c5 0 8 -2 8 -7v-300c0 -151 55 -224 195 -224s195 73 195 224v300c0 5 3 7 8 7h26c5 0 8 -2 8 -7v-324c0 -157 -81 -242 -238 -242zM318 831c52 0 95 -44 95 -97c0 -52 -43 -95 -95 -95s-95 43 -95 95
c0 53 43 97 95 97zM318 680c28 0 55 20 55 55c0 36 -27 55 -55 55s-55 -19 -55 -55c0 -35 27 -55 55 -55z" />
    <glyph glyph-name="Rcaron" unicode="&#x158;" horiz-adv-x="540" 
d="M490 393c0 -95 -53 -153 -125 -165l111 -219c0 -6 -3 -9 -10 -9h-22c-5 0 -10 3 -15 10l-108 216h-198v-219c0 -5 -3 -7 -8 -7h-27c-5 0 -8 2 -8 7v554c0 5 3 7 8 7h251c83 0 151 -72 151 -175zM123 523v-252h199c66 0 123 26 123 121s-57 131 -123 131h-199zM253 637h16
c4 0 8 3 11 6l94 81c2 2 3 4 3 6c0 1 -2 4 -5 7l-14 13c-2 2 -4 3 -7 3s-5 -1 -6 -2l-84 -77l-84 77c-1 1 -3 2 -6 2s-5 -1 -7 -3l-14 -13c-3 -3 -5 -6 -5 -7c0 -2 1 -4 3 -6l94 -81c3 -3 7 -6 11 -6z" />
    <glyph glyph-name="uni0162" unicode="&#x162;" horiz-adv-x="470" 
d="M49 568h372c6 0 9 -3 9 -9v-27c0 -6 -3 -9 -8 -9h-166v-516c0 -5 -3 -7 -8 -7h-26c-5 0 -8 2 -8 7v516h-166c-5 0 -8 3 -8 9v27c0 6 3 9 9 9zM223 -169h-12c-3 0 -5 2 -5 6l17 53c-11 8 -19 18 -19 29c0 19 15 32 32 32c19 0 32 -13 32 -32c0 -4 -2 -11 -3 -12l-34 -69
c-1 -5 -3 -7 -8 -7z" />
    <glyph glyph-name="lacute" unicode="&#x13a;" 
d="M80 7v554c0 5 3 7 8 7h26c5 0 8 -2 8 -7v-554c0 -5 -3 -7 -8 -7h-26c-5 0 -8 2 -8 7zM86 649l46 107c1 1 5 10 10 10h40c7 0 10 -3 10 -10l-71 -107c-3 -4 -8 -10 -15 -10h-10c-7 0 -10 3 -10 10z" />
    <glyph glyph-name="uni0163" unicode="&#x163;" horiz-adv-x="347" 
d="M134 405v154c0 6 3 9 9 9h24c6 0 9 -3 9 -9v-154h116c6 0 9 -3 9 -9v-27c0 -6 -3 -9 -9 -9h-116v-167c0 -131 17 -156 100 -156c4 0 7 1 10 1c4 0 7 -2 8 -5c7 -25 7 -27 7 -30s-5 -7 -6 -7c-12 -1 -22 -1 -38 -1c-76 0 -123 37 -123 162v203h-90c-6 0 -9 3 -9 9v27
c0 6 3 9 9 9h90zM208 -169h-12c-3 0 -5 2 -5 6l17 53c-11 8 -19 18 -19 29c0 19 15 32 32 32c19 0 32 -13 32 -32c0 -4 -2 -11 -3 -12l-34 -69c-1 -5 -3 -7 -8 -7z" />
    <glyph glyph-name="uhungarumlaut" unicode="&#x171;" horiz-adv-x="515" 
d="M70 179v214c0 5 3 7 8 7h26c5 0 8 -2 8 -7v-199c0 -85 6 -157 135 -157c84 0 146 75 146 124v232c0 5 3 7 8 7h26c5 0 8 -2 8 -7v-386c0 -5 -3 -7 -8 -7h-18c-6 0 -10 3 -12 9l-3 57c-63 -71 -136 -71 -158 -71c-119 0 -166 67 -166 184zM171 485l51 121c2 5 5 8 9 8h40
c5 0 7 -3 7 -8c-24 -39 -48 -84 -71 -123c-3 -3 -5 -7 -10 -7h-17c-3 0 -6 3 -9 9zM311 485l51 121c2 5 5 8 9 8h40c5 0 7 -3 7 -8c-24 -39 -48 -84 -71 -123c-3 -3 -5 -7 -10 -7h-17c-3 0 -6 3 -9 9z" />
    <glyph glyph-name="uring" unicode="&#x16f;" horiz-adv-x="515" 
d="M70 179v214c0 5 3 7 8 7h26c5 0 8 -2 8 -7v-199c0 -85 6 -157 135 -157c84 0 146 75 146 124v232c0 5 3 7 8 7h26c5 0 8 -2 8 -7v-386c0 -5 -3 -7 -8 -7h-18c-6 0 -10 3 -12 9l-3 57c-63 -71 -136 -71 -158 -71c-119 0 -166 67 -166 184zM253 668c52 0 95 -44 95 -97
c0 -52 -43 -95 -95 -95s-95 43 -95 95c0 53 43 97 95 97zM253 517c28 0 55 20 55 55c0 36 -27 55 -55 55s-55 -19 -55 -55c0 -35 27 -55 55 -55z" />
    <glyph glyph-name="rcaron" unicode="&#x159;" horiz-adv-x="318" 
d="M122 199v-192c0 -5 -3 -7 -8 -7h-26c-5 0 -8 2 -8 7v386c0 5 3 7 8 7h18c6 0 10 -3 12 -9l5 -59c46 73 126 73 155 73h11c6 0 9 -3 9 -9v-27c0 -6 -3 -9 -8 -9h-14c-123 0 -154 -81 -154 -161zM181 469h16c4 0 8 3 11 6l86 81c2 2 3 4 3 6c0 1 -2 4 -5 7l-14 13
c-2 2 -4 3 -7 3s-5 -1 -6 -2l-76 -77l-77 77c-1 1 -3 2 -6 2s-5 -1 -7 -3l-14 -13c-3 -3 -5 -6 -5 -7c0 -2 1 -4 3 -6l87 -81c3 -3 7 -6 11 -6z" />
    <glyph glyph-name="dcaron" unicode="&#x10f;" horiz-adv-x="595" 
d="M246 37c85 0 163 60 163 164c0 101 -80 159 -163 159c-88 0 -156 -59 -156 -159c0 -119 68 -164 156 -164zM451 559v-552c0 -5 -3 -7 -8 -7h-18c-6 0 -10 3 -12 9l-4 64c-67 -69 -129 -78 -173 -78c-126 0 -191 93 -191 207c0 119 77 203 203 203c19 0 101 -1 161 -75
v229c0 6 3 9 9 9h24c6 0 9 -3 9 -9zM535 448h-12c-3 0 -5 2 -5 6l17 53c-11 8 -19 18 -19 29c0 19 15 32 32 32c19 0 32 -13 32 -32c0 -4 -2 -11 -3 -12l-34 -69c-1 -5 -3 -7 -8 -7z" />
    <glyph glyph-name="dcroat" unicode="&#x111;" horiz-adv-x="548" 
d="M332 520h77v39c0 6 3 9 9 9h24c6 0 9 -3 9 -9v-39h65c5 0 7 -2 7 -7v-21c0 -5 -2 -7 -6 -7h-66v-478c0 -5 -3 -7 -8 -7h-18c-6 0 -10 3 -12 9l-4 64c-67 -69 -129 -78 -173 -78c-126 0 -191 93 -191 207c0 119 77 203 203 203c19 0 101 -1 161 -75v155h-78
c-4 0 -6 2 -6 7v21c0 5 2 7 7 7zM246 37c85 0 163 60 163 164c0 101 -80 159 -163 159c-88 0 -156 -59 -156 -159c0 -119 68 -164 156 -164z" />
    <glyph glyph-name="Amacron" unicode="&#x100;" horiz-adv-x="578" 
d="M296 569l252 -559c0 -7 -3 -10 -10 -10h-22c-5 0 -10 3 -15 10l-55 125h-314l-55 -125c-5 -7 -10 -10 -15 -10h-22c-7 0 -10 3 -10 10l252 559c3 1 5 2 7 2s4 -1 7 -2zM153 180h272l-136 300zM150 684h278c6 0 9 -3 9 -9v-27c0 -6 -3 -9 -8 -9h-280c-5 0 -8 3 -8 9v27
c0 6 3 9 9 9z" />
    <glyph glyph-name="umacron" unicode="&#x16b;" horiz-adv-x="515" 
d="M70 179v214c0 5 3 7 8 7h26c5 0 8 -2 8 -7v-199c0 -85 6 -157 135 -157c84 0 146 75 146 124v232c0 5 3 7 8 7h26c5 0 8 -2 8 -7v-386c0 -5 -3 -7 -8 -7h-18c-6 0 -10 3 -12 9l-3 57c-63 -71 -136 -71 -158 -71c-119 0 -166 67 -166 184zM115 521h278c6 0 9 -3 9 -9v-27
c0 -6 -3 -9 -8 -9h-280c-5 0 -8 3 -8 9v27c0 6 3 9 9 9z" />
    <glyph glyph-name="tbar" unicode="&#x167;" horiz-adv-x="347" 
d="M44 485h90v74c0 6 3 9 9 9h24c6 0 9 -3 9 -9v-74h116c6 0 9 -3 9 -9v-27c0 -6 -3 -9 -9 -9h-116v-158h116c6 0 9 -3 9 -9v-27c0 -6 -3 -9 -9 -9h-116v-44c0 -131 17 -156 100 -156c4 0 7 1 10 1c4 0 7 -2 8 -5c7 -25 7 -27 7 -30s-5 -7 -6 -7c-12 -1 -22 -1 -38 -1
c-76 0 -123 37 -123 162v80h-90c-6 0 -9 3 -9 9v27c0 6 3 9 9 9h90v158h-90c-6 0 -9 3 -9 9v27c0 6 3 9 9 9z" />
    <glyph glyph-name="uni0137" unicode="&#x137;" horiz-adv-x="427" 
d="M80 7v554c0 5 3 7 8 7h26c5 0 8 -2 8 -7v-337c104 84 158 125 185 148c16 13 25 20 28 23c7 5 9 5 14 5h39c6 0 9 -3 9 -9l-230 -185l227 -197c0 -6 -3 -9 -9 -9h-39c-3 0 -8 2 -14 7l-210 181v-181c0 -5 -3 -7 -8 -7h-26c-5 0 -8 2 -8 7zM196 -169h12c5 0 7 2 8 7l34 69
c1 1 3 8 3 12c0 19 -13 32 -32 32c-17 0 -32 -13 -32 -32c0 -11 8 -21 19 -29l-17 -53c0 -4 2 -6 5 -6z" />
    <glyph glyph-name="uni013C" unicode="&#x13c;" 
d="M80 7v554c0 5 3 7 8 7h26c5 0 8 -2 8 -7v-554c0 -5 -3 -7 -8 -7h-26c-5 0 -8 2 -8 7zM78 -169h12c5 0 7 2 8 7l34 69c1 1 3 8 3 12c0 19 -13 32 -32 32c-17 0 -32 -13 -32 -32c0 -11 8 -21 19 -29l-17 -53c0 -4 2 -6 5 -6z" />
    <glyph glyph-name="itilde" unicode="&#x129;" 
d="M80 7v386c0 5 3 7 8 7h26c5 0 8 -2 8 -7v-386c0 -5 -3 -7 -8 -7h-26c-5 0 -8 2 -8 7zM-16 484l-15 17c0 4 4 6 7 9c27 23 45 35 78 35c51 0 54 -27 94 -27c23 0 36 8 53 21c1 1 3 1 5 1c4 0 8 -2 25 -17c1 -3 2 -4 2 -4c0 -5 -2 -9 -7 -11c-27 -23 -48 -32 -79 -32
c-43 0 -55 27 -93 27c-21 0 -39 -12 -55 -24c-1 -1 -3 -1 -5 -1c-3 0 -6 2 -10 6z" />
    <glyph glyph-name="uni0123" unicode="&#x123;" horiz-adv-x="531" 
d="M246 37c85 0 160 60 160 164c0 101 -77 159 -160 159c-88 0 -156 -59 -156 -159c0 -119 68 -164 156 -164zM118 -169c-3 1 -5 4 -5 7c0 1 1 3 2 6l7 20c2 2 4 3 5 3c2 0 4 -1 7 -2c43 -17 87 -19 116 -19c126 0 159 50 159 139v88c-67 -69 -129 -78 -173 -78
c-126 0 -191 93 -191 207c0 119 77 203 203 203c19 0 98 -1 158 -75l7 61c2 6 6 9 12 9h18c5 0 8 -2 8 -7v-416c0 -145 -101 -173 -187 -173c-61 0 -110 6 -146 27zM265 596h12c3 0 5 -2 5 -6l-17 -53c11 -8 19 -18 19 -29c0 -19 -15 -32 -32 -32c-19 0 -32 13 -32 32
c0 4 2 11 3 12l34 69c1 5 3 7 8 7z" />
    <glyph glyph-name="uni0122" unicode="&#x122;" horiz-adv-x="649" 
d="M331 -169h12c5 0 7 2 8 7l34 69c1 1 3 8 3 12c0 19 -13 32 -32 32c-17 0 -32 -13 -32 -32c0 -11 8 -21 19 -29l-17 -53c0 -4 2 -6 5 -6zM409 277h156c6 0 9 -3 9 -9v-259c0 -6 -3 -9 -9 -9h-6c-4 0 -9 4 -12 11l-13 43c-51 -43 -115 -59 -187 -59
c-161 0 -292 130 -292 290s131 290 291 290c64 0 128 -20 176 -56c2 -2 3 -4 3 -5c0 -2 -1 -4 -4 -7l-14 -15c-3 -3 -6 -4 -9 -4c-2 0 -4 1 -6 3c-43 31 -89 39 -146 39c-137 0 -246 -111 -246 -247c0 -137 109 -246 246 -246c49 0 127 15 186 63v132h-124c-5 0 -8 3 -8 9
v27c0 6 3 9 9 9z" />
    <glyph glyph-name="Emacron" unicode="&#x112;" horiz-adv-x="514" 
d="M123 298h251c6 0 9 -3 9 -9v-27c0 -6 -3 -9 -8 -9h-253v-208h318c6 0 9 -3 9 -9v-27c0 -6 -3 -9 -8 -9h-353c-5 0 -8 3 -8 9v552c0 5 3 7 8 7h352c6 0 9 -3 9 -9v-27c0 -6 -3 -9 -8 -9h-318v-225zM123 684h278c6 0 9 -3 9 -9v-27c0 -6 -3 -9 -8 -9h-280c-5 0 -8 3 -8 9
v27c0 6 3 9 9 9z" />
    <glyph glyph-name="Imacron" unicode="&#x12a;" 
d="M80 7v554c0 5 3 7 8 7h26c5 0 8 -2 8 -7v-554c0 -5 -3 -7 -8 -7h-26c-5 0 -8 2 -8 7zM-15 684h232c6 0 9 -3 9 -9v-27c0 -6 -3 -9 -8 -9h-234c-5 0 -8 3 -8 9v27c0 6 3 9 9 9z" />
    <glyph glyph-name="Itilde" unicode="&#x128;" 
d="M80 7v554c0 5 3 7 8 7h26c5 0 8 -2 8 -7v-554c0 -5 -3 -7 -8 -7h-26c-5 0 -8 2 -8 7zM-16 647l-15 17c0 4 4 6 7 9c27 23 45 35 78 35c51 0 54 -27 94 -27c23 0 36 8 53 21c1 1 3 1 5 1c4 0 8 -2 25 -17c1 -3 2 -4 2 -4c0 -5 -2 -9 -7 -11c-27 -23 -48 -32 -79 -32
c-43 0 -55 27 -93 27c-21 0 -39 -12 -55 -24c-1 -1 -3 -1 -5 -1c-3 0 -6 2 -10 6z" />
    <glyph glyph-name="uni0136" unicode="&#x136;" horiz-adv-x="557" 
d="M299 361l228 -352c0 -6 -3 -9 -8 -9h-29c-5 0 -10 3 -14 9l-206 320l-148 -166v-156c0 -5 -3 -7 -8 -7h-26c-5 0 -8 2 -8 7v554c0 5 3 7 8 7h26c5 0 8 -2 8 -7v-333l298 331c4 6 9 9 14 9h34c6 0 9 -3 9 -9zM276 -169h-12c-3 0 -5 2 -5 6l17 53c-11 8 -19 18 -19 29
c0 19 15 32 32 32c19 0 32 -13 32 -32c0 -4 -2 -11 -3 -12l-34 -69c-1 -5 -3 -7 -8 -7z" />
    <glyph glyph-name="uni013B" unicode="&#x13b;" horiz-adv-x="504" 
d="M442 0h-354c-5 0 -8 3 -8 9v552c0 5 3 7 8 7h26c5 0 8 -2 8 -7v-516h319c6 0 9 -3 9 -9v-27c0 -6 -3 -9 -8 -9zM253 -169h-12c-3 0 -5 2 -5 6l17 53c-11 8 -19 18 -19 29c0 19 15 32 32 32c19 0 32 -13 32 -32c0 -4 -2 -11 -3 -12l-34 -69c-1 -5 -3 -7 -8 -7z" />
    <glyph glyph-name="Tbar" unicode="&#x166;" horiz-adv-x="470" 
d="M421 568c6 0 9 -3 9 -9v-27c0 -6 -3 -9 -8 -9h-166v-213h111c6 0 9 -3 9 -9v-27c0 -6 -3 -9 -8 -9h-112v-258c0 -5 -3 -7 -8 -7h-26c-5 0 -8 2 -8 7v258h-112c-5 0 -8 3 -8 9v27c0 6 3 9 9 9h111v213h-166c-5 0 -8 3 -8 9v27c0 6 3 9 9 9h372z" />
    <glyph glyph-name="Umacron" unicode="&#x16a;" horiz-adv-x="634" 
d="M316 -5c-155 0 -236 85 -236 242v324c0 5 3 7 8 7h26c5 0 8 -2 8 -7v-300c0 -151 55 -224 195 -224s195 73 195 224v300c0 5 3 7 8 7h26c5 0 8 -2 8 -7v-324c0 -157 -81 -242 -238 -242zM180 684h278c6 0 9 -3 9 -9v-27c0 -6 -3 -9 -8 -9h-280c-5 0 -8 3 -8 9v27
c0 6 3 9 9 9z" />
    <glyph glyph-name="Eng" unicode="&#x14a;" horiz-adv-x="640" 
d="M518 3v195l-396 296v-487c0 -5 -3 -7 -8 -7h-26c-5 0 -8 2 -8 7v560c2 3 4 4 6 4c4 0 4 -1 7 -4l425 -317v311c0 5 3 7 8 7h26c5 0 8 -2 8 -7v-565c0 -145 -41 -176 -118 -176c-12 0 -43 0 -67 11c-2 0 -3 2 -3 5s0 3 8 30c2 2 5 3 8 3c15 -3 33 -7 42 -7
c67 0 88 10 88 141z" />
    <glyph glyph-name="emacron" unicode="&#x113;" horiz-adv-x="470" 
d="M92 217h286c0 109 -77 143 -146 143c-70 0 -140 -36 -140 -143zM381 23c-35 -23 -85 -28 -126 -28c-116 0 -210 64 -210 205c0 111 54 205 190 205s190 -94 190 -205v-14c0 -6 -3 -9 -9 -9h-324c0 -120 106 -140 162 -140c28 0 72 5 107 20c1 1 3 1 6 1s5 -1 7 -3l9 -20
c1 -2 2 -4 2 -7c0 -1 -1 -3 -4 -5zM100 521h278c6 0 9 -3 9 -9v-27c0 -6 -3 -9 -8 -9h-280c-5 0 -8 3 -8 9v27c0 6 3 9 9 9z" />
    <glyph glyph-name="imacron" unicode="&#x12b;" 
d="M80 7v386c0 5 3 7 8 7h26c5 0 8 -2 8 -7v-386c0 -5 -3 -7 -8 -7h-26c-5 0 -8 2 -8 7zM-15 521h232c6 0 9 -3 9 -9v-27c0 -6 -3 -9 -8 -9h-234c-5 0 -8 3 -8 9v27c0 6 3 9 9 9z" />
    <glyph glyph-name="eng" unicode="&#x14b;" horiz-adv-x="515" 
d="M445 221v-225c0 -145 -41 -176 -118 -176c-12 0 -43 0 -67 11c-2 0 -3 2 -3 5s0 3 8 30c2 2 5 3 8 3c15 -3 33 -7 42 -7c67 0 88 10 88 141v200c0 85 -6 157 -135 157c-84 0 -146 -74 -146 -158v-195c0 -5 -3 -7 -8 -7h-26c-5 0 -8 2 -8 7v386c0 5 3 7 8 7h18
c6 0 10 -3 12 -9l3 -59c65 73 134 73 158 73c119 0 166 -67 166 -184z" />
    <glyph glyph-name="Edotaccent" unicode="&#x116;" horiz-adv-x="514" 
d="M123 298h251c6 0 9 -3 9 -9v-27c0 -6 -3 -9 -8 -9h-253v-208h318c6 0 9 -3 9 -9v-27c0 -6 -3 -9 -8 -9h-353c-5 0 -8 3 -8 9v552c0 5 3 7 8 7h352c6 0 9 -3 9 -9v-27c0 -6 -3 -9 -8 -9h-318v-225zM234 669c0 17 13 30 30 30s30 -13 30 -30s-13 -30 -30 -30s-30 13 -30 30
z" />
    <glyph glyph-name="edotaccent" unicode="&#x117;" horiz-adv-x="470" 
d="M92 217h286c0 109 -77 143 -146 143c-70 0 -140 -36 -140 -143zM381 23c-35 -23 -85 -28 -126 -28c-116 0 -210 64 -210 205c0 111 54 205 190 205s190 -94 190 -205v-14c0 -6 -3 -9 -9 -9h-324c0 -120 106 -140 162 -140c28 0 72 5 107 20c1 1 3 1 6 1s5 -1 7 -3l9 -20
c1 -2 2 -4 2 -7c0 -1 -1 -3 -4 -5zM204 506c0 17 13 30 30 30s30 -13 30 -30s-13 -30 -30 -30s-30 13 -30 30z" />
    <glyph glyph-name="Iogonek" unicode="&#x12e;" 
d="M141 -83c7 -11 6 -12 6 -13c0 -11 -21 -12 -49 -12c-32 0 -65 21 -65 61c0 21 6 47 47 70v538c0 5 3 7 8 7h26c5 0 8 -2 8 -7v-554c0 -5 -2 -7 -7 -7c-39 -5 -48 -29 -48 -44s1 -36 43 -36c7 0 11 1 16 2c3 1 6 1 7 1c3 0 6 -2 8 -6z" />
    <glyph glyph-name="uni0145" unicode="&#x145;" horiz-adv-x="640" 
d="M518 250v311c0 5 3 7 8 7h26c5 0 8 -2 8 -7v-554c0 -5 -3 -7 -8 -7h-26c-5 0 -8 2 -8 7v191l-396 296v-487c0 -5 -3 -7 -8 -7h-26c-5 0 -8 2 -8 7v560c2 3 4 4 6 4c4 0 4 -1 7 -4zM296 -169h12c5 0 7 2 8 7l34 69c1 1 3 8 3 12c0 19 -13 32 -32 32c-17 0 -32 -13 -32 -32
c0 -11 8 -21 19 -29l-17 -53c0 -4 2 -6 5 -6z" />
    <glyph glyph-name="Omacron" unicode="&#x14c;" horiz-adv-x="690" 
d="M345 575c160 0 290 -130 290 -290s-130 -290 -290 -290c-159 0 -290 130 -290 290s131 290 290 290zM345 37c137 0 246 109 246 246c0 136 -109 247 -246 247s-245 -111 -245 -247c0 -137 108 -246 245 -246zM206 684h278c6 0 9 -3 9 -9v-27c0 -6 -3 -9 -8 -9h-280
c-5 0 -8 3 -8 9v27c0 6 3 9 9 9z" />
    <glyph glyph-name="iogonek" unicode="&#x12f;" 
d="M71 475c0 16 13 30 30 30s30 -14 30 -30c0 -17 -13 -30 -30 -30s-30 13 -30 30zM98 -108c-32 0 -65 21 -65 61c0 21 6 47 47 70v370c0 5 3 7 8 7h26c5 0 8 -2 8 -7v-386c0 -5 -2 -7 -7 -7c-39 -5 -48 -29 -48 -44s1 -36 43 -36c7 0 11 1 16 2c3 1 6 1 7 1c3 0 6 -2 8 -6
c7 -11 6 -12 6 -13c0 -11 -21 -12 -49 -12z" />
    <glyph glyph-name="uni0146" unicode="&#x146;" horiz-adv-x="515" 
d="M445 221v-214c0 -5 -3 -7 -8 -7h-26c-5 0 -8 2 -8 7v196c0 85 -6 157 -135 157c-84 0 -146 -74 -146 -158v-195c0 -5 -3 -7 -8 -7h-26c-5 0 -8 2 -8 7v386c0 5 3 7 8 7h18c6 0 10 -3 12 -9l3 -59c65 73 134 73 158 73c119 0 166 -67 166 -184zM257 -169h-12
c-3 0 -5 2 -5 6l17 53c-11 8 -19 18 -19 29c0 19 15 32 32 32c19 0 32 -13 32 -32c0 -4 -2 -11 -3 -12l-34 -69c-1 -5 -3 -7 -8 -7z" />
    <glyph glyph-name="omacron" unicode="&#x14d;" horiz-adv-x="500" 
d="M250 405c113 0 205 -93 205 -205c0 -113 -92 -205 -205 -205c-112 0 -205 92 -205 205c0 112 93 205 205 205zM250 37c90 0 160 72 160 161c0 88 -70 162 -160 162c-89 0 -160 -74 -160 -162c0 -89 71 -161 160 -161zM111 521h278c6 0 9 -3 9 -9v-27c0 -6 -3 -9 -8 -9
h-280c-5 0 -8 3 -8 9v27c0 6 3 9 9 9z" />
    <glyph glyph-name="Utilde" unicode="&#x168;" horiz-adv-x="634" 
d="M316 -5c-155 0 -236 85 -236 242v324c0 5 3 7 8 7h26c5 0 8 -2 8 -7v-300c0 -151 55 -224 195 -224s195 73 195 224v300c0 5 3 7 8 7h26c5 0 8 -2 8 -7v-324c0 -157 -81 -242 -238 -242zM461 671c-27 -23 -51 -32 -86 -32c-43 0 -72 35 -110 35c-21 0 -46 -12 -62 -24
c-1 -1 -3 -1 -5 -1c-3 0 -6 2 -10 6l-14 14c-1 1 -1 2 -1 3c0 4 4 6 7 9c27 23 52 35 85 35c66 0 64 -35 111 -35c22 0 42 7 60 21c1 1 3 1 5 1c4 0 8 -2 25 -17c1 -3 2 -4 2 -4c0 -5 -2 -9 -7 -11z" />
    <glyph glyph-name="Uogonek" unicode="&#x172;" horiz-adv-x="634" 
d="M546 568c5 0 8 -2 8 -7v-324c0 -151 -74 -235 -219 -242c-4 -9 -9 -23 -9 -32c0 -36 17 -43 44 -43c19 0 35 8 48 16c3 1 5 2 7 2c1 0 3 -1 6 -2l7 -12c1 -1 1 -2 1 -3c0 -3 -2 -4 -3 -7c-20 -17 -43 -23 -72 -23c-39 0 -71 19 -71 62c0 11 3 29 8 42
c-145 7 -221 90 -221 242v324c0 5 3 7 8 7h26c5 0 8 -2 8 -7v-300c0 -151 55 -224 195 -224s195 73 195 224v300c0 5 3 7 8 7h26z" />
    <glyph glyph-name="amacron" unicode="&#x101;" horiz-adv-x="459" 
d="M97 521h278c6 0 9 -3 9 -9v-27c0 -6 -3 -9 -8 -9h-280c-5 0 -8 3 -8 9v27c0 6 3 9 9 9zM213 37c15 0 83 9 128 57v37c-27 45 -99 67 -139 67c-84 0 -107 -27 -107 -82c0 -47 35 -79 118 -79zM116 350c-4 -1 -5 -2 -8 -2s-6 2 -8 7l-7 26c0 3 1 6 4 8c43 15 72 16 101 16
c121 0 185 -64 185 -177v-220c0 -5 -3 -8 -8 -8h-18c-6 0 -10 3 -12 9l-5 45c-35 -59 -130 -59 -139 -59c-40 0 -151 7 -151 122c0 91 57 126 133 126c45 0 99 -5 158 -58c0 152 -58 175 -158 175c-15 0 -39 -3 -67 -10z" />
    <glyph glyph-name="uogonek" unicode="&#x173;" horiz-adv-x="515" 
d="M397 16l-3 50c-63 -71 -136 -71 -158 -71c-119 0 -166 67 -166 184v214c0 5 3 7 8 7h26c5 0 8 -2 8 -7v-199c0 -85 6 -157 135 -157c84 0 146 75 146 124v232c0 5 3 7 8 7h26c5 0 8 -2 8 -7v-385c0 -3 -1 -5 -3 -6c-16 -16 -72 -22 -72 -45c0 -7 2 -20 29 -20
c8 0 13 0 24 7c1 1 3 2 5 2c0 0 1 -1 4 -2l11 -9c0 -1 1 -1 1 -2s0 -1 1 -2c0 -2 -1 -4 -3 -6c-9 -11 -25 -17 -46 -17c-27 0 -65 4 -65 46c0 20 11 38 76 62z" />
    <glyph glyph-name="utilde" unicode="&#x169;" horiz-adv-x="515" 
d="M70 179v214c0 5 3 7 8 7h26c5 0 8 -2 8 -7v-199c0 -85 6 -157 135 -157c84 0 146 75 146 124v232c0 5 3 7 8 7h26c5 0 8 -2 8 -7v-386c0 -5 -3 -7 -8 -7h-18c-6 0 -10 3 -12 9l-3 57c-63 -71 -136 -71 -158 -71c-119 0 -166 67 -166 184zM391 508
c-27 -23 -51 -32 -86 -32c-43 0 -72 35 -110 35c-21 0 -46 -12 -62 -24c-1 -1 -3 -1 -5 -1c-3 0 -6 2 -10 6l-14 14c-1 1 -1 2 -1 3c0 4 4 6 7 9c27 23 52 35 85 35c66 0 64 -35 111 -35c22 0 42 7 60 21c1 1 3 1 5 1c4 0 8 -2 25 -17c1 -3 2 -4 2 -4c0 -5 -2 -9 -7 -11z
" />
    <glyph glyph-name="kgreenlandic" unicode="&#x138;" horiz-adv-x="427" 
d="M80 7v386c0 5 3 7 8 7h26c5 0 8 -2 8 -7v-169c104 84 158 125 185 148c16 13 25 20 28 23c7 5 9 5 14 5h39c6 0 9 -3 9 -9l-230 -185l227 -197c0 -6 -3 -9 -9 -9h-39c-3 0 -8 2 -14 7l-210 181v-181c0 -5 -3 -7 -8 -7h-26c-5 0 -8 2 -8 7z" />
    <glyph glyph-name="uni03A9" unicode="&#x3a9;" horiz-adv-x="806" 
d="M403 530c-151 0 -216 -94 -216 -240c0 -118 11 -160 43 -227v-63h-142c-5 0 -8 3 -8 9v27c0 6 3 9 9 9h105c-45 90 -49 185 -49 251c0 175 98 279 258 279s258 -104 258 -279c0 -66 -4 -161 -49 -251h105c6 0 9 -3 9 -9v-27c0 -6 -3 -9 -8 -9h-142v63
c32 67 43 109 43 227c0 146 -65 240 -216 240z" />
    <glyph glyph-name="uni0219" unicode="&#x219;" horiz-adv-x="406" 
d="M70 62c36 -12 78 -26 121 -26c32 0 122 0 122 57c0 97 -258 79 -258 212c0 67 51 100 142 100c29 0 80 -5 113 -12c3 -3 5 -6 5 -10l-7 -25c-1 -1 -5 -5 -9 -5c-28 7 -63 7 -91 7c-94 0 -111 -25 -111 -60c0 -73 258 -85 258 -196c0 -89 -82 -109 -154 -109
c-47 0 -98 9 -138 28c-3 2 -5 6 -5 11l5 23c1 3 3 5 7 5zM202 -169h-12c-3 0 -5 2 -5 6l17 53c-11 8 -19 18 -19 29c0 19 15 32 32 32c19 0 32 -13 32 -32c0 -4 -2 -11 -3 -12l-34 -69c-1 -5 -3 -7 -8 -7z" />
    <glyph glyph-name="uni021A" unicode="&#x21a;" horiz-adv-x="470" 
d="M49 568h372c6 0 9 -3 9 -9v-27c0 -6 -3 -9 -8 -9h-166v-516c0 -5 -3 -7 -8 -7h-26c-5 0 -8 2 -8 7v516h-166c-5 0 -8 3 -8 9v27c0 6 3 9 9 9zM222 -169h-12c-3 0 -5 2 -5 6l17 53c-11 8 -19 18 -19 29c0 19 15 32 32 32c19 0 32 -13 32 -32c0 -4 -2 -11 -3 -12l-34 -69
c-1 -5 -3 -7 -8 -7z" />
    <glyph glyph-name="uni021B" unicode="&#x21b;" horiz-adv-x="347" 
d="M134 405v154c0 6 3 9 9 9h24c6 0 9 -3 9 -9v-154h116c6 0 9 -3 9 -9v-27c0 -6 -3 -9 -9 -9h-116v-167c0 -131 17 -156 100 -156c4 0 7 1 10 1c4 0 7 -2 8 -5c7 -25 7 -27 7 -30s-5 -7 -6 -7c-12 -1 -22 -1 -38 -1c-76 0 -123 37 -123 162v203h-90c-6 0 -9 3 -9 9v27
c0 6 3 9 9 9h90zM192 -169h-12c-3 0 -5 2 -5 6l17 53c-11 8 -19 18 -19 29c0 19 15 32 32 32c19 0 32 -13 32 -32c0 -4 -2 -11 -3 -12l-34 -69c-1 -5 -3 -7 -8 -7z" />
    <glyph glyph-name="uni0218" unicode="&#x218;" horiz-adv-x="499" 
d="M276 -169h-12c-3 0 -5 2 -5 6l17 53c-11 8 -19 18 -19 29c0 19 15 32 32 32c19 0 32 -13 32 -32c0 -4 -2 -11 -3 -12l-34 -69c-1 -5 -3 -7 -8 -7zM86 32c-3 2 -5 5 -5 8c0 2 0 4 1 5l7 17c2 3 5 5 8 5c1 0 3 0 4 -1c39 -15 98 -29 159 -29c73 0 145 31 145 97
c0 145 -340 100 -340 293c0 96 71 148 192 148c51 0 103 -11 139 -23c5 -2 6 -6 4 -12l-9 -21c-1 -3 -2 -4 -5 -4c-2 0 -4 0 -6 1c-35 8 -87 14 -123 14c-148 0 -150 -81 -150 -104c0 -146 340 -104 340 -294c0 -95 -101 -137 -178 -137c-55 0 -124 10 -183 37z" />
    <glyph glyph-name="uni0156" unicode="&#x156;" horiz-adv-x="540" 
d="M490 393c0 -95 -53 -153 -125 -165l111 -219c0 -6 -3 -9 -10 -9h-22c-5 0 -10 3 -15 10l-108 216h-198v-219c0 -5 -3 -7 -8 -7h-27c-5 0 -8 2 -8 7v554c0 5 3 7 8 7h251c83 0 151 -72 151 -175zM123 523v-252h199c66 0 123 26 123 121s-57 131 -123 131h-199zM264 -169
h-12c-3 0 -5 2 -5 6l17 53c-11 8 -19 18 -19 29c0 19 15 32 32 32c19 0 32 -13 32 -32c0 -4 -2 -11 -3 -12l-34 -69c-1 -5 -3 -7 -8 -7z" />
    <glyph glyph-name="uni0157" unicode="&#x157;" horiz-adv-x="318" 
d="M122 199v-192c0 -5 -3 -7 -8 -7h-26c-5 0 -8 2 -8 7v386c0 5 3 7 8 7h18c6 0 10 -3 12 -9l5 -59c46 73 126 73 155 73h11c6 0 9 -3 9 -9v-27c0 -6 -3 -9 -8 -9h-14c-123 0 -154 -81 -154 -161zM101 -169h-12c-3 0 -5 2 -5 6l17 53c-11 8 -19 18 -19 29c0 19 15 32 32 32
c19 0 32 -13 32 -32c0 -4 -2 -11 -3 -12l-34 -69c-1 -5 -3 -7 -8 -7z" />
    <glyph glyph-name="gbreve" unicode="&#x11f;" horiz-adv-x="531" 
d="M246 37c85 0 160 60 160 164c0 101 -77 159 -160 159c-88 0 -156 -59 -156 -159c0 -119 68 -164 156 -164zM118 -169c-3 1 -5 4 -5 7c0 1 1 3 2 6l7 20c2 2 4 3 5 3c2 0 4 -1 7 -2c43 -17 87 -19 116 -19c126 0 159 50 159 139v88c-67 -69 -129 -78 -173 -78
c-126 0 -191 93 -191 207c0 119 77 203 203 203c19 0 98 -1 158 -75l7 61c2 6 6 9 12 9h18c5 0 8 -2 8 -7v-416c0 -145 -101 -173 -187 -173c-61 0 -110 6 -146 27zM247 498c-92 0 -134 46 -146 113c0 7 3 10 10 10h26c5 0 9 -3 10 -10c19 -67 79 -69 99 -69
c19 0 82 2 101 69c1 7 5 10 10 10h26c7 0 10 -3 10 -10c-12 -67 -55 -113 -146 -113z" />
    <glyph glyph-name="Idotaccent" unicode="&#x130;" 
d="M80 7v554c0 5 3 7 8 7h26c5 0 8 -2 8 -7v-554c0 -5 -3 -7 -8 -7h-26c-5 0 -8 2 -8 7zM71 643c0 16 13 30 30 30s30 -14 30 -30c0 -17 -13 -30 -30 -30s-30 13 -30 30z" />
    <glyph glyph-name="Gbreve" unicode="&#x11e;" horiz-adv-x="649" 
d="M337 639c-92 0 -146 46 -158 113c0 7 3 10 10 10h26c5 0 9 -3 10 -10c19 -67 91 -69 111 -69s92 2 111 69c1 7 5 10 10 10h26c7 0 10 -3 10 -10c-12 -67 -65 -113 -156 -113zM409 277h156c6 0 9 -3 9 -9v-259c0 -6 -3 -9 -9 -9h-6c-4 0 -9 4 -12 11l-13 43
c-51 -43 -115 -59 -187 -59c-161 0 -292 130 -292 290s131 290 291 290c64 0 128 -20 176 -56c2 -2 3 -4 3 -5c0 -2 -1 -4 -4 -7l-14 -15c-3 -3 -6 -4 -9 -4c-2 0 -4 1 -6 3c-43 31 -89 39 -146 39c-137 0 -246 -111 -246 -247c0 -137 109 -246 246 -246c49 0 127 15 186 63
v132h-124c-5 0 -8 3 -8 9v27c0 6 3 9 9 9z" />
    <glyph glyph-name="Numero" unicode="&#x2116;" horiz-adv-x="1154" 
d="M518 561v-311l-425 317c-3 3 -3 4 -7 4c-2 0 -4 -1 -6 -4v-560c0 -5 3 -7 8 -7h26c5 0 8 2 8 7v487l396 -296v-191c0 -5 3 -7 8 -7h26c5 0 8 2 8 7v554c0 5 -3 7 -8 7h-26c-5 0 -8 -2 -8 -7zM673 45h387c6 0 9 -3 9 -9v-27c0 -6 -3 -9 -8 -9h-389c-5 0 -8 3 -8 9v27
c0 6 3 9 9 9zM869 519c113 0 205 -93 205 -205c0 -113 -92 -205 -205 -205c-112 0 -205 92 -205 205c0 112 93 205 205 205zM869 151c90 0 160 72 160 161c0 88 -70 162 -160 162c-89 0 -160 -74 -160 -162c0 -89 71 -161 160 -161z" />
    <glyph glyph-name="Cdotaccent" unicode="&#x10a;" horiz-adv-x="596" 
d="M550 69c-51 -55 -123 -74 -203 -74c-161 0 -292 130 -292 290s131 290 291 290c64 0 128 -20 176 -56c2 -2 3 -4 3 -5c0 -2 -1 -4 -4 -7l-14 -15c-3 -3 -6 -4 -9 -4c-2 0 -4 1 -6 3c-43 31 -89 39 -146 39c-137 0 -246 -111 -246 -247c0 -137 109 -246 246 -246
c49 0 117 11 176 59c2 2 5 3 8 3s6 -1 8 -4l10 -16c1 -3 3 -4 3 -7v-1c0 -1 0 -1 -1 -2zM279 669c0 17 13 30 30 30s30 -13 30 -30s-13 -30 -30 -30s-30 13 -30 30z" />
    <glyph glyph-name="ccircumflex" unicode="&#x109;" horiz-adv-x="411" 
d="M364 17c-33 -17 -75 -22 -114 -22c-112 0 -205 92 -205 205c0 112 93 205 205 205c45 0 82 -8 117 -31c3 -3 4 -5 4 -6c0 -3 0 -5 -1 -6l-12 -19c-3 -3 -6 -5 -8 -5s-3 0 -4 1l-2 2c-31 15 -67 19 -94 19c-89 0 -160 -74 -160 -162c0 -89 71 -161 160 -161
c31 0 65 3 94 14c1 1 3 1 6 1s5 -1 7 -3l9 -20c1 -2 2 -4 2 -7c0 -1 -1 -3 -4 -5zM242 592h-16c-4 0 -8 -3 -11 -6l-94 -81c-2 -2 -3 -4 -3 -6c0 -1 2 -4 5 -7l14 -13c2 -2 4 -3 7 -3s5 1 6 2l84 77l84 -77c1 -1 3 -2 6 -2s5 1 7 3l14 13c3 3 5 6 5 7c0 2 -1 4 -3 6l-94 81
c-3 3 -7 6 -11 6z" />
    <glyph glyph-name="cdotaccent" unicode="&#x10b;" horiz-adv-x="411" 
d="M364 17c-33 -17 -75 -22 -114 -22c-112 0 -205 92 -205 205c0 112 93 205 205 205c45 0 82 -8 117 -31c3 -3 4 -5 4 -6c0 -3 0 -5 -1 -6l-12 -19c-3 -3 -6 -5 -8 -5s-3 0 -4 1l-2 2c-31 15 -67 19 -94 19c-89 0 -160 -74 -160 -162c0 -89 71 -161 160 -161
c31 0 65 3 94 14c1 1 3 1 6 1s5 -1 7 -3l9 -20c1 -2 2 -4 2 -7c0 -1 -1 -3 -4 -5zM201 506c0 17 13 30 30 30s30 -13 30 -30s-13 -30 -30 -30s-30 13 -30 30z" />
    <glyph glyph-name="Hcircumflex" unicode="&#x124;" horiz-adv-x="588" 
d="M500 568c5 0 8 -2 8 -7v-554c0 -5 -3 -7 -8 -7h-26c-5 0 -8 2 -8 7v245h-344v-245c0 -5 -3 -7 -8 -7h-26c-5 0 -8 2 -8 7v554c0 5 3 7 8 7h26c5 0 8 -2 8 -7v-264h344v264c0 5 3 7 8 7h26zM302 753h-16c-4 0 -8 -3 -11 -6l-94 -81c-2 -2 -3 -4 -3 -6c0 -1 2 -4 5 -7
l14 -13c2 -2 4 -3 7 -3s5 1 6 2l84 77l84 -77c1 -1 3 -2 6 -2s5 1 7 3l14 13c3 3 5 6 5 7c0 2 -1 4 -3 6l-94 81c-3 3 -7 6 -11 6z" />
    <glyph glyph-name="hbar" unicode="&#x127;" horiz-adv-x="527" 
d="M220 485h-81v-153c65 73 133 73 157 73c119 0 166 -67 166 -184v-214c0 -5 -3 -7 -8 -7h-26c-5 0 -8 2 -8 7v196c0 85 -6 157 -135 157c-84 0 -146 -74 -146 -158v-195c0 -5 -3 -7 -8 -7h-26c-5 0 -8 2 -8 7v478h-66c-4 0 -6 2 -6 7v21c0 5 2 7 7 7h65v41c0 5 3 7 8 7h26
c5 0 8 -2 8 -7v-41h80c5 0 7 -2 7 -7v-21c0 -5 -2 -7 -6 -7z" />
    <glyph glyph-name="hcircumflex" unicode="&#x125;" horiz-adv-x="515" 
d="M122 561v-229c65 73 133 73 157 73c119 0 166 -67 166 -184v-214c0 -5 -3 -7 -8 -7h-26c-5 0 -8 2 -8 7v196c0 85 -6 157 -135 157c-84 0 -146 -74 -146 -158v-195c0 -5 -3 -7 -8 -7h-26c-5 0 -8 2 -8 7v554c0 5 3 7 8 7h26c5 0 8 -2 8 -7zM205 753h-16
c-4 0 -8 -3 -11 -6l-94 -81c-2 -2 -3 -4 -3 -6c0 -1 2 -4 5 -7l14 -13c2 -2 4 -3 7 -3s5 1 6 2l84 77l84 -77c1 -1 3 -2 6 -2s5 1 7 3l14 13c3 3 5 6 5 7c0 2 -1 4 -3 6l-94 81c-3 3 -7 6 -11 6z" />
    <glyph glyph-name="jcircumflex" unicode="&#x135;" 
d="M-63 -185c-2 0 -3 2 -3 5s0 3 8 30c2 2 5 3 8 3c15 -3 33 -7 42 -7c67 0 88 10 88 141v406c0 5 3 7 8 7h26c5 0 8 -2 8 -7v-413c0 -145 -41 -176 -118 -176c-12 0 -43 0 -67 11zM109 592h-16c-4 0 -8 -3 -11 -6l-94 -81c-2 -2 -3 -4 -3 -6c0 -1 2 -4 5 -7l14 -13
c2 -2 4 -3 7 -3s5 1 6 2l84 77l84 -77c1 -1 3 -2 6 -2s5 1 7 3l14 13c3 3 5 6 5 7c0 2 -1 4 -3 6l-94 81c-3 3 -7 6 -11 6z" />
    <glyph glyph-name="Scircumflex" unicode="&#x15c;" horiz-adv-x="499" 
d="M257 753h-16c-4 0 -8 -3 -11 -6l-94 -81c-2 -2 -3 -4 -3 -6c0 -1 2 -4 5 -7l14 -13c2 -2 4 -3 7 -3s5 1 6 2l84 77l84 -77c1 -1 3 -2 6 -2s5 1 7 3l14 13c3 3 5 6 5 7c0 2 -1 4 -3 6l-94 81c-3 3 -7 6 -11 6zM86 32c-3 2 -5 5 -5 8c0 2 0 4 1 5l7 17c2 3 5 5 8 5
c1 0 3 0 4 -1c39 -15 98 -29 159 -29c73 0 145 31 145 97c0 145 -340 100 -340 293c0 96 71 148 192 148c51 0 103 -11 139 -23c5 -2 6 -6 4 -12l-9 -21c-1 -3 -2 -4 -5 -4c-2 0 -4 0 -6 1c-35 8 -87 14 -123 14c-148 0 -150 -81 -150 -104c0 -146 340 -104 340 -294
c0 -95 -101 -137 -178 -137c-55 0 -124 10 -183 37z" />
    <glyph glyph-name="Ubreve" unicode="&#x16c;" horiz-adv-x="634" 
d="M318 -5c-157 0 -238 85 -238 242v324c0 5 3 7 8 7h26c5 0 8 -2 8 -7v-300c0 -151 55 -224 195 -224s195 73 195 224v300c0 5 3 7 8 7h26c5 0 8 -2 8 -7v-324c0 -157 -81 -242 -236 -242zM318 639c-92 0 -146 46 -158 113c0 7 3 10 10 10h26c5 0 9 -3 10 -10
c19 -67 91 -69 111 -69s92 2 111 69c1 7 5 10 10 10h26c7 0 10 -3 10 -10c-12 -67 -65 -113 -156 -113z" />
    <glyph glyph-name="Gcircumflex" unicode="&#x11c;" horiz-adv-x="649" 
d="M331 753h16c4 0 8 -3 11 -6l94 -81c2 -2 3 -4 3 -6c0 -1 -2 -4 -5 -7l-14 -13c-2 -2 -4 -3 -7 -3s-5 1 -6 2l-84 77l-84 -77c-1 -1 -3 -2 -6 -2s-5 1 -7 3l-14 13c-3 3 -5 6 -5 7c0 2 1 4 3 6l94 81c3 3 7 6 11 6zM409 277h156c6 0 9 -3 9 -9v-259c0 -6 -3 -9 -9 -9h-6
c-4 0 -9 4 -12 11l-13 43c-51 -43 -115 -59 -187 -59c-161 0 -292 130 -292 290s131 290 291 290c64 0 128 -20 176 -56c2 -2 3 -4 3 -5c0 -2 -1 -4 -4 -7l-14 -15c-3 -3 -6 -4 -9 -4c-2 0 -4 1 -6 3c-43 31 -89 39 -146 39c-137 0 -246 -111 -246 -247
c0 -137 109 -246 246 -246c49 0 127 15 186 63v132h-124c-5 0 -8 3 -8 9v27c0 6 3 9 9 9z" />
    <glyph glyph-name="Gdotaccent" unicode="&#x120;" horiz-adv-x="649" 
d="M319 669c0 17 13 30 30 30s30 -13 30 -30s-13 -30 -30 -30s-30 13 -30 30zM409 277h156c6 0 9 -3 9 -9v-259c0 -6 -3 -9 -9 -9h-6c-4 0 -9 4 -12 11l-13 43c-51 -43 -115 -59 -187 -59c-161 0 -292 130 -292 290s131 290 291 290c64 0 128 -20 176 -56c2 -2 3 -4 3 -5
c0 -2 -1 -4 -4 -7l-14 -15c-3 -3 -6 -4 -9 -4c-2 0 -4 1 -6 3c-43 31 -89 39 -146 39c-137 0 -246 -111 -246 -247c0 -137 109 -246 246 -246c49 0 127 15 186 63v132h-124c-5 0 -8 3 -8 9v27c0 6 3 9 9 9z" />
    <glyph glyph-name="Jcircumflex" unicode="&#x134;" horiz-adv-x="447" 
d="M30 34c-3 3 -4 4 -4 5c0 3 2 5 3 8l11 18c3 4 6 6 9 6s5 0 6 -1c35 -21 68 -33 117 -33c128 0 163 42 163 239v285c0 5 3 7 8 7h26c5 0 8 -2 8 -7v-294c0 -209 -52 -272 -203 -272c-57 0 -105 13 -144 39zM268 753h-16c-4 0 -8 -3 -11 -6l-94 -81c-2 -2 -3 -4 -3 -6
c0 -1 2 -4 5 -7l14 -13c2 -2 4 -3 7 -3s5 1 6 2l84 77l84 -77c1 -1 3 -2 6 -2s5 1 7 3l14 13c3 3 5 6 5 7c0 2 -1 4 -3 6l-94 81c-3 3 -7 6 -11 6z" />
    <glyph glyph-name="Ccircumflex" unicode="&#x108;" horiz-adv-x="596" 
d="M550 69c-51 -55 -123 -74 -203 -74c-161 0 -292 130 -292 290s131 290 291 290c64 0 128 -20 176 -56c2 -2 3 -4 3 -5c0 -2 -1 -4 -4 -7l-14 -15c-3 -3 -6 -4 -9 -4c-2 0 -4 1 -6 3c-43 31 -89 39 -146 39c-137 0 -246 -111 -246 -247c0 -137 109 -246 246 -246
c49 0 117 11 176 59c2 2 5 3 8 3s6 -1 8 -4l10 -16c1 -3 3 -4 3 -7v-1c0 -1 0 -1 -1 -2zM339 753h-16c-4 0 -8 -3 -11 -6l-94 -81c-2 -2 -3 -4 -3 -6c0 -1 2 -4 5 -7l14 -13c2 -2 4 -3 7 -3s5 1 6 2l84 77l84 -77c1 -1 3 -2 6 -2s5 1 7 3l14 13c3 3 5 6 5 7c0 2 -1 4 -3 6
l-94 81c-3 3 -7 6 -11 6z" />
    <glyph glyph-name="gdotaccent" unicode="&#x121;" horiz-adv-x="531" 
d="M246 37c85 0 160 60 160 164c0 101 -77 159 -160 159c-88 0 -156 -59 -156 -159c0 -119 68 -164 156 -164zM118 -169c-3 1 -5 4 -5 7c0 1 1 3 2 6l7 20c2 2 4 3 5 3c2 0 4 -1 7 -2c43 -17 87 -19 116 -19c126 0 159 50 159 139v88c-67 -69 -129 -78 -173 -78
c-126 0 -191 93 -191 207c0 119 77 203 203 203c19 0 98 -1 158 -75l7 61c2 6 6 9 12 9h18c5 0 8 -2 8 -7v-416c0 -145 -101 -173 -187 -173c-61 0 -110 6 -146 27zM221 506c0 17 13 30 30 30s30 -13 30 -30s-13 -30 -30 -30s-30 13 -30 30z" />
    <glyph glyph-name="gcircumflex" unicode="&#x11d;" horiz-adv-x="531" 
d="M246 37c85 0 160 60 160 164c0 101 -77 159 -160 159c-88 0 -156 -59 -156 -159c0 -119 68 -164 156 -164zM118 -169c-3 1 -5 4 -5 7c0 1 1 3 2 6l7 20c2 2 4 3 5 3c2 0 4 -1 7 -2c43 -17 87 -19 116 -19c126 0 159 50 159 139v88c-67 -69 -129 -78 -173 -78
c-126 0 -191 93 -191 207c0 119 77 203 203 203c19 0 98 -1 158 -75l7 61c2 6 6 9 12 9h18c5 0 8 -2 8 -7v-416c0 -145 -101 -173 -187 -173c-61 0 -110 6 -146 27zM261 592h-16c-4 0 -8 -3 -11 -6l-94 -81c-2 -2 -3 -4 -3 -6c0 -1 2 -4 5 -7l14 -13c2 -2 4 -3 7 -3s5 1 6 2
l84 77l84 -77c1 -1 3 -2 6 -2s5 1 7 3l14 13c3 3 5 6 5 7c0 2 -1 4 -3 6l-94 81c-3 3 -7 6 -11 6z" />
    <glyph glyph-name="ubreve" unicode="&#x16d;" horiz-adv-x="515" 
d="M70 179v214c0 5 3 7 8 7h26c5 0 8 -2 8 -7v-199c0 -85 6 -157 135 -157c84 0 146 75 146 124v232c0 5 3 7 8 7h26c5 0 8 -2 8 -7v-386c0 -5 -3 -7 -8 -7h-18c-6 0 -10 3 -12 9l-3 57c-63 -71 -136 -71 -158 -71c-119 0 -166 67 -166 184zM247 498c-92 0 -134 46 -146 113
c0 7 3 10 10 10h26c5 0 9 -3 10 -10c19 -67 79 -69 99 -69c19 0 82 2 101 69c1 7 5 10 10 10h26c7 0 10 -3 10 -10c-12 -67 -55 -113 -146 -113z" />
    <glyph glyph-name="scircumflex" unicode="&#x15d;" horiz-adv-x="406" 
d="M70 62c36 -12 78 -26 121 -26c32 0 122 0 122 57c0 97 -258 79 -258 212c0 67 51 100 142 100c29 0 80 -5 113 -12c3 -3 5 -6 5 -10l-7 -25c-1 -1 -5 -5 -9 -5c-28 7 -63 7 -91 7c-94 0 -111 -25 -111 -60c0 -73 258 -85 258 -196c0 -89 -82 -109 -154 -109
c-47 0 -98 9 -138 28c-3 2 -5 6 -5 11l5 23c1 3 3 5 7 5zM200 592h-16c-4 0 -8 -3 -11 -6l-94 -81c-2 -2 -3 -4 -3 -6c0 -1 2 -4 5 -7l14 -13c2 -2 4 -3 7 -3s5 1 6 2l84 77l84 -77c1 -1 3 -2 6 -2s5 1 7 3l14 13c3 3 5 6 5 7c0 2 -1 4 -3 6l-94 81c-3 3 -7 6 -11 6z" />
    <glyph glyph-name="Hbar" unicode="&#x126;" horiz-adv-x="676" 
d="M44 492h80v69c0 5 3 7 8 7h26c5 0 8 -2 8 -7v-69h344v69c0 5 3 7 8 7h26c5 0 8 -2 8 -7v-69h80c6 0 9 -3 9 -9v-27c0 -6 -3 -9 -8 -9h-81v-440c0 -5 -3 -7 -8 -7h-26c-5 0 -8 2 -8 7v245h-344v-245c0 -5 -3 -7 -8 -7h-26c-5 0 -8 2 -8 7v440h-81c-5 0 -8 3 -8 9v27
c0 6 3 9 9 9zM166 297h344v150h-344v-150z" />
    </font>
</defs>
</svg>
