<?xml version="1.0" standalone="no"?>
<!DOCTYPE svg PUBLIC "-//W3C//DTD SVG 1.1//EN" "http://www.w3.org/Graphics/SVG/1.1/DTD/svg11.dtd" >
<svg xmlns="http://www.w3.org/2000/svg" width="100%" height="100%">
<metadata>
Created by FontXChange 20110222 at Tue Jul  4 12:28:21 2017
 By Creative4
Copyright \(c\) 2014 by Typesketchbook. All rights reserved.
</metadata>
<defs>
<font id="NoyhSlim-SemiLight" horiz-adv-x="456" >
  <font-face 
    font-family="NoyhSlim"
    font-weight="300"
    font-stretch="normal"
    units-per-em="1000"
    panose-1="2 0 0 0 0 0 0 0 0 0"
    ascent="750"
    descent="-250"
    x-height="400"
    cap-height="568"
    bbox="-43 -202 1158 831"
    underline-thickness="35"
    underline-position="-74"
    stemh="51"
    stemv="54"
    unicode-range="U+0020-FB02"
  />
<missing-glyph horiz-adv-x="569" 
d="M539 0h-509v628h509v-628zM76 46v-11c0 6 -3 10 -8 11h8zM493 582v8c0 -5 3 -8 8 -8h-8zM493 46h8c-5 -1 -8 -4 -8 -9v9zM76 582h-8c4 0 7 3 8 8v-8zM76 582v-536h417v536h-417z" />
    <glyph glyph-name="fi" unicode="fi" horiz-adv-x="493" 
d="M409 405c5 0 8 -3 8 -8v-389c0 -5 -3 -8 -8 -8h-47c-5 0 -8 3 -8 8v334h-191v-334c0 -5 -3 -8 -8 -8h-47c-5 0 -8 3 -8 8v334h-67c-5 0 -8 3 -8 8v47c0 5 3 8 8 8h67v34c0 97 10 186 97 186c13 0 32 -1 61 -13c4 -3 6 -5 6 -6c0 -3 0 -5 -1 -6l-13 -37c-1 -2 -4 -3 -8 -3
c-8 0 -16 2 -33 2c-46 0 -46 -34 -46 -146v-11h246z" />
    <glyph glyph-name="fl" unicode="fl" horiz-adv-x="492" 
d="M33 405h67v34c0 97 10 186 97 186c13 0 32 -1 61 -13c4 -3 6 -5 6 -6c0 -3 0 -5 -1 -6l-13 -37c-1 -2 -4 -3 -8 -3c-8 0 -16 2 -33 2c-46 0 -46 -34 -46 -146v-11h74c5 0 8 -3 8 -8v-47c0 -5 -3 -8 -8 -8h-74v-334c0 -5 -3 -8 -8 -8h-47c-5 0 -8 3 -8 8v334h-67
c-5 0 -8 3 -8 8v47c0 5 3 8 8 8zM417 8v552c0 5 -3 8 -8 8h-47c-5 0 -8 -3 -8 -8v-552c0 -5 3 -8 8 -8h47c5 0 8 3 8 8z" />
    <glyph glyph-name=".notdef" horiz-adv-x="569" 
d="M539 0h-509v628h509v-628zM76 46v-11c0 6 -3 10 -8 11h8zM493 582v8c0 -5 3 -8 8 -8h-8zM493 46h8c-5 -1 -8 -4 -8 -9v9zM76 582h-8c4 0 7 3 8 8v-8zM76 582v-536h417v536h-417z" />
    <glyph glyph-name="null" horiz-adv-x="0" 
 />
    <glyph glyph-name="nonmarkingreturn" horiz-adv-x="283" 
 />
    <glyph glyph-name="space" unicode=" " horiz-adv-x="199" 
 />
    <glyph glyph-name="exclam" unicode="!" horiz-adv-x="228" 
d="M146 560l-11 -422c0 -5 -3 -8 -8 -8h-30c-5 0 -8 3 -8 8l-10 422c0 5 3 8 8 8h51c5 0 8 -3 8 -8zM75 34c0 23 16 39 39 39s39 -16 39 -39s-16 -39 -39 -39s-39 16 -39 39z" />
    <glyph glyph-name="quotedbl" unicode="&#x22;" horiz-adv-x="355" 
d="M123 411h-29c-6 0 -9 3 -9 9c-4 49 -7 88 -10 139c0 6 3 9 9 9h49c7 0 10 -3 10 -9l-11 -139c0 -6 -3 -9 -9 -9zM260 411h-29c-6 0 -9 3 -9 9c-4 49 -7 88 -10 139c0 6 3 9 9 9h49c7 0 10 -3 10 -9l-11 -139c0 -6 -3 -9 -9 -9z" />
    <glyph glyph-name="numbersign" unicode="#" horiz-adv-x="700" 
d="M400 200l55 152h-140l-55 -152h140zM377 137h-139l-47 -126c-4 -7 -9 -11 -14 -11h-43c-7 0 -10 3 -10 10l46 127h-87c-5 0 -8 3 -8 8v47c0 5 3 8 8 8h110l55 152h-108c-5 0 -8 3 -8 8v47c0 5 3 8 8 8h131l51 142c4 7 9 11 14 11h43c7 0 10 -3 10 -10l-51 -143h140
l51 142c4 7 9 11 14 11h43c7 0 10 -3 10 -10l-51 -143h72c5 0 8 -3 8 -8v-47c0 -5 -3 -8 -8 -8h-95l-55 -152h93c5 0 8 -3 8 -8v-47c0 -5 -3 -8 -8 -8h-115l-47 -126c-4 -7 -9 -11 -14 -11h-43c-7 0 -10 3 -10 10z" />
    <glyph glyph-name="dollar" unicode="$" horiz-adv-x="495" 
d="M420 138c0 -81 -77 -129 -149 -140v-74c0 -5 -3 -8 -8 -8h-47c-5 0 -8 3 -8 8v73c-43 4 -78 15 -126 40c-3 2 -5 5 -5 8c0 2 0 4 1 5l13 33c2 3 5 5 8 5c1 0 3 0 4 -1c33 -14 66 -32 136 -32c67 0 118 29 118 85c0 127 -282 93 -282 283c0 89 44 140 133 151v79
c0 5 3 8 8 8h47c5 0 8 -3 8 -8v-78c39 -4 70 -14 103 -26c3 -3 5 -3 5 -7c0 -3 -1 -6 -2 -7l-16 -34c-1 -3 -2 -4 -5 -4c-2 0 -4 0 -6 1c-33 9 -66 15 -102 15c-106 0 -110 -71 -110 -91c0 -130 282 -91 282 -284z" />
    <glyph glyph-name="percent" unicode="%" horiz-adv-x="902" 
d="M268 10l296 547c4 7 9 11 14 11h47c7 0 10 -3 10 -10l-296 -547c-4 -7 -9 -11 -14 -11h-47c-7 0 -10 3 -10 10zM215 568c74 0 137 -62 137 -138s-63 -139 -137 -139c-77 0 -140 63 -140 139s63 138 140 138zM214 342c40 0 77 37 77 88s-37 81 -77 81
c-44 0 -81 -28 -81 -81c0 -51 37 -88 81 -88zM690 272c74 0 137 -62 137 -138s-63 -139 -137 -139c-77 0 -140 63 -140 139s63 138 140 138zM689 46c40 0 77 37 77 88s-37 81 -77 81c-44 0 -81 -28 -81 -81c0 -51 37 -88 81 -88z" />
    <glyph glyph-name="ampersand" unicode="&#x26;" horiz-adv-x="661" 
d="M398 123l-147 154c-76 -16 -113 -86 -113 -122c0 -95 60 -101 127 -101c34 0 100 26 133 69zM563 222l-85 -96l108 -116c0 -7 -3 -10 -10 -10h-47c-7 0 -13 3 -18 9l-71 76c-77 -80 -152 -90 -174 -90c-113 0 -191 53 -191 157c0 55 38 135 129 172
c-52 55 -57 89 -57 109c0 76 54 142 190 142c55 0 91 -12 115 -25c4 -2 6 -5 6 -9c0 -2 0 -3 -1 -4l-14 -32c-2 -4 -5 -6 -8 -6c-1 0 -3 1 -6 2c-25 8 -54 11 -89 11c-112 0 -130 -44 -130 -79c0 -19 24 -50 55 -82l174 -185l89 93c2 2 4 3 7 3s5 -1 7 -4l22 -22
c2 -2 3 -4 3 -6c0 -3 -1 -5 -4 -8z" />
    <glyph glyph-name="quotesingle" unicode="'" horiz-adv-x="218" 
d="M123 411h-29c-6 0 -9 3 -9 9c-4 49 -7 88 -10 139c0 6 3 9 9 9h49c7 0 10 -3 10 -9l-11 -139c0 -6 -3 -9 -9 -9z" />
    <glyph glyph-name="parenleft" unicode="(" horiz-adv-x="320" 
d="M245 707c-68 -149 -107 -295 -107 -447c0 -144 36 -277 107 -421c-1 -7 -4 -10 -10 -10h-42c-5 0 -9 3 -12 10c-73 148 -106 280 -106 423c0 145 44 305 107 446c3 7 6 10 11 10h40c7 0 9 -6 12 -11z" />
    <glyph glyph-name="parenright" unicode=")" horiz-adv-x="320" 
d="M75 707c3 5 5 11 12 11h40c5 0 8 -3 11 -10c63 -141 107 -301 107 -446c0 -143 -33 -275 -106 -423c-3 -7 -7 -10 -12 -10h-42c-6 0 -9 3 -10 10c71 144 107 277 107 421c0 152 -39 298 -107 447z" />
    <glyph glyph-name="asterisk" unicode="*" horiz-adv-x="504" 
d="M229 568h46c6 0 9 -3 9 -9l-9 -151l124 61c1 1 3 1 4 1c3 0 6 -2 8 -6l17 -40c1 -1 1 -2 1 -4c0 -3 -2 -6 -6 -7l-124 -50l73 -107c0 -3 1 -2 1 -5s-1 -6 -4 -8l-39 -20c-3 -1 -4 -2 -5 -2c-3 0 -5 2 -7 5l-66 114l-66 -114c-2 -3 -4 -5 -7 -5c-1 0 -2 1 -5 2l-39 20
c-3 2 -4 5 -4 8s1 2 1 5l73 107l-124 50c-4 1 -6 4 -6 7c0 2 0 3 1 4l17 40c2 4 5 6 8 6c1 0 3 0 4 -1l123 -61l-8 151c0 6 3 9 9 9z" />
    <glyph glyph-name="plus" unicode="+" horiz-adv-x="410" 
d="M326 235c6 0 9 -3 9 -9v-45c0 -6 -3 -9 -9 -9h-88v-110c0 -6 -3 -9 -9 -9h-45c-6 0 -9 3 -9 9v110h-91c-6 0 -9 3 -9 9v45c0 6 3 9 9 9h91v113c0 6 3 9 9 9h45c6 0 9 -3 9 -9v-113h88z" />
    <glyph glyph-name="comma" unicode="," horiz-adv-x="227" 
d="M98 -71h-14c-5 0 -7 2 -7 7l21 64c-13 9 -23 22 -23 34c0 23 18 39 38 39c23 0 39 -16 39 -39c0 -4 -3 -13 -4 -14l-40 -83c-2 -5 -5 -8 -10 -8z" />
    <glyph glyph-name="hyphen" unicode="-" horiz-adv-x="419" 
d="M83 218h253c5 0 8 -3 8 -8v-47c0 -5 -3 -8 -8 -8h-253c-5 0 -8 3 -8 8v47c0 5 3 8 8 8z" />
    <glyph glyph-name="period" unicode="." horiz-adv-x="228" 
d="M75 34c0 23 16 39 39 39s39 -16 39 -39s-16 -39 -39 -39s-39 16 -39 39z" />
    <glyph glyph-name="slash" unicode="/" horiz-adv-x="507" 
d="M432 658l-291 -773c-4 -7 -9 -11 -14 -11h-42c-7 0 -10 3 -10 10l291 773c4 7 9 11 14 11h42c7 0 10 -3 10 -10z" />
    <glyph glyph-name="zero" unicode="0" horiz-adv-x="496" 
d="M248 55c125 0 135 103 135 229s-10 229 -135 229s-135 -103 -135 -229s10 -229 135 -229zM248 -4c-160 0 -198 130 -198 290s38 290 198 290s198 -130 198 -290s-38 -290 -198 -290z" />
    <glyph glyph-name="one" unicode="1" horiz-adv-x="296" 
d="M43 422c-5 0 -8 6 -8 11v38c0 7 3 7 10 10c56 25 114 50 166 85c3 1 5 2 6 2c3 0 4 -3 4 -8v-552c0 -5 -3 -8 -8 -8h-47c-5 0 -8 3 -8 8v458c-37 -16 -61 -22 -115 -44z" />
    <glyph glyph-name="two" unicode="2" horiz-adv-x="448" 
d="M104 484c-3 0 -5 0 -6 1c-3 1 -6 3 -8 8l-13 35c-1 3 -2 5 -2 7s2 4 5 6c35 17 77 34 138 34c129 0 164 -54 164 -153c0 -155 -136 -216 -239 -359h232c5 0 8 -3 8 -8v-47c0 -5 -3 -8 -8 -8h-302c-5 0 -8 3 -8 8v18c0 148 250 238 254 394c0 20 -3 92 -104 92
c-37 0 -74 -13 -111 -28z" />
    <glyph glyph-name="three" unicode="3" horiz-adv-x="445" 
d="M61 36c-3 3 -4 5 -4 7c0 1 1 4 3 7l19 30c2 3 5 4 9 4c3 0 6 -1 8 -3c32 -16 58 -27 97 -27c112 0 129 59 129 124c0 85 -67 105 -133 110c-7 0 -11 1 -20 -2c-3 0 -4 1 -4 4l100 215h-207c-5 0 -8 3 -8 8v47c0 5 3 8 8 8h296c5 0 8 -2 8 -6c0 -2 -1 -4 -2 -7l-104 -219
c93 -24 129 -94 129 -157c0 -108 -49 -184 -195 -184c-44 0 -86 12 -129 41z" />
    <glyph glyph-name="four" unicode="4" horiz-adv-x="473" 
d="M304 199v323l-180 -323h180zM267 568h91c6 0 9 -3 9 -9v-360h63c5 0 8 -3 8 -8v-47c0 -5 -3 -8 -8 -8h-63v-128c0 -5 -3 -8 -8 -8h-47c-5 0 -8 3 -8 8v128h-240c-6 0 -9 3 -9 9v59c0 3 5 13 12 22l187 333c4 6 8 9 13 9z" />
    <glyph glyph-name="five" unicode="5" horiz-adv-x="435" 
d="M158 267c-4 -3 -16 -10 -19 -10c-4 0 -32 1 -63 4c-6 3 -9 6 -9 10v289c0 5 3 8 8 8h278c5 0 8 -3 8 -8v-47c0 -5 -3 -8 -8 -8h-223v-191c43 33 77 33 108 33c105 0 163 -68 163 -181c0 -112 -53 -171 -166 -171c-88 0 -145 33 -170 100c0 7 4 11 11 11h45
c5 0 9 -4 13 -11c25 -41 58 -41 102 -41c71 0 102 20 102 111s-32 119 -101 119c-37 0 -44 -1 -79 -17z" />
    <glyph glyph-name="six" unicode="6" horiz-adv-x="469" 
d="M235 309c-73 0 -117 -35 -117 -124c0 -95 43 -131 116 -131c76 0 117 36 117 131c0 89 -40 124 -116 124zM303 558l-105 -189h34c111 0 182 -73 182 -178c0 -129 -69 -196 -181 -196c-109 0 -178 67 -178 196c0 55 36 116 49 139l128 228c5 7 10 10 15 10h46
c7 0 10 -3 10 -10z" />
    <glyph glyph-name="seven" unicode="7" horiz-adv-x="404" 
d="M98 10l188 495h-238c-5 0 -8 3 -8 8v47c0 5 3 8 8 8h318c5 0 8 -2 8 -6c0 -3 -1 -6 -2 -7l-205 -545c-5 -7 -10 -10 -15 -10h-44c-7 0 -10 3 -10 10z" />
    <glyph glyph-name="eight" unicode="8" horiz-adv-x="468" 
d="M235 54c53 0 115 14 115 101c0 81 -48 106 -116 106s-116 -25 -116 -106c0 -87 62 -101 117 -101zM235 323c72 0 96 3 96 99c0 89 -61 90 -97 90s-97 -1 -97 -90c0 -96 24 -99 98 -99zM235 575c103 0 159 -43 159 -151c0 -37 -1 -102 -51 -131c62 -27 70 -82 70 -136
c0 -105 -73 -162 -177 -162c-108 0 -181 57 -181 162c0 54 8 109 70 136c-50 29 -51 94 -51 131c0 108 57 151 161 151z" />
    <glyph glyph-name="nine" unicode="9" horiz-adv-x="469" 
d="M234 261c73 0 117 35 117 124s-43 127 -116 127c-76 0 -117 -38 -117 -127s40 -124 116 -124zM165 10l106 191h-34c-111 0 -182 73 -182 178c0 129 69 196 181 196c109 0 178 -67 178 -196c0 -55 -36 -116 -49 -139l-129 -230c-5 -7 -10 -10 -15 -10h-46
c-7 0 -10 3 -10 10z" />
    <glyph glyph-name="colon" unicode=":" horiz-adv-x="228" 
d="M75 34c0 23 16 39 39 39s39 -16 39 -39s-16 -39 -39 -39s-39 16 -39 39zM75 337c0 23 16 39 39 39s39 -16 39 -39s-16 -39 -39 -39s-39 16 -39 39z" />
    <glyph glyph-name="semicolon" unicode=";" horiz-adv-x="227" 
d="M77 334c0 19 16 36 36 36c21 0 39 -17 39 -36c0 -21 -18 -38 -39 -38c-20 0 -36 17 -36 38zM98 -71h-14c-5 0 -7 2 -7 7l21 64c-13 9 -23 22 -23 34c0 23 18 39 38 39c23 0 39 -16 39 -39c0 -4 -3 -13 -4 -14l-40 -83c-2 -5 -5 -8 -10 -8z" />
    <glyph glyph-name="less" unicode="&#x3c;" horiz-adv-x="408" 
d="M75 157v82c0 7 5 9 12 12l235 118c7 0 11 -4 11 -11v-50c0 -7 -4 -8 -11 -11l-202 -99l202 -99c7 -3 11 -4 11 -11v-50c0 -7 -4 -11 -11 -11l-235 118c-7 3 -12 5 -12 12z" />
    <glyph glyph-name="equal" unicode="=" horiz-adv-x="341" 
d="M83 143h175c5 0 8 -3 8 -8v-47c0 -5 -3 -8 -8 -8h-175c-5 0 -8 3 -8 8v47c0 5 3 8 8 8zM83 299h175c5 0 8 -3 8 -8v-47c0 -5 -3 -8 -8 -8h-175c-5 0 -8 3 -8 8v47c0 5 3 8 8 8z" />
    <glyph glyph-name="greater" unicode="&#x3e;" horiz-adv-x="408" 
d="M333 239v-82c0 -7 -5 -9 -12 -12l-235 -118c-7 0 -11 4 -11 11v50c0 7 4 8 11 11l202 99l-202 99c-7 3 -11 4 -11 11v50c0 7 4 11 11 11l235 -118c7 -3 12 -5 12 -12z" />
    <glyph glyph-name="question" unicode="?" horiz-adv-x="402" 
d="M82 547c31 15 56 28 105 28c88 0 140 -39 140 -136c0 -109 -106 -166 -106 -259v-38c0 -5 -3 -8 -8 -8h-47c-5 0 -8 3 -8 8v40c0 127 106 154 106 261c0 48 -12 69 -80 69c-23 0 -49 -6 -80 -17c-3 -1 -5 -2 -6 -2c-5 1 -9 3 -10 6l-12 34c-1 1 -1 3 -1 5c0 3 2 6 7 9z
M153 34c0 23 16 39 39 39s39 -16 39 -39s-16 -39 -39 -39s-39 16 -39 39z" />
    <glyph glyph-name="at" unicode="@" horiz-adv-x="981" 
d="M472 54c78 0 126 20 126 112c0 80 -47 117 -126 117s-117 -26 -117 -117c0 -68 37 -112 117 -112zM769 -169c-55 -21 -155 -33 -201 -33c-237 0 -493 44 -493 397c0 152 93 373 420 373c326 0 411 -221 411 -373c0 -125 -40 -206 -158 -206c-39 0 -88 6 -141 53
c-45 -48 -105 -47 -133 -47c-92 0 -182 51 -182 176c0 107 61 175 169 175c36 0 74 -2 135 -47v41c0 5 3 8 8 8h47c5 0 8 -3 8 -8v-260c6 -7 13 -14 22 -19c15 -11 35 -19 66 -19c46 0 96 3 96 155c0 117 -51 308 -351 308c-298 0 -354 -193 -354 -310
c0 -167 37 -338 422 -338c47 0 126 4 209 35c7 0 10 -3 10 -10v-40c0 -6 -3 -10 -10 -11z" />
    <glyph glyph-name="A" unicode="A" horiz-adv-x="516" 
d="M258 573c1 0 3 -1 6 -2l227 -561c0 -7 -3 -10 -10 -10h-43c-5 0 -10 3 -15 10l-48 120h-233l-49 -120c-5 -7 -10 -10 -15 -10h-43c-7 0 -10 3 -10 10l227 561c3 1 5 2 6 2zM258 417l-91 -224h182z" />
    <glyph glyph-name="B" unicode="B" horiz-adv-x="490" 
d="M139 505v-198h130c71 0 102 52 102 104c0 56 -42 94 -102 94h-130zM139 63h129c57 0 103 36 103 92c0 48 -23 89 -88 89h-144v-181zM287 0h-204c-5 0 -8 3 -8 8v552c0 5 3 8 8 8h184c103 0 168 -70 168 -157c0 -40 -18 -87 -58 -130c45 -37 57 -85 57 -126
c0 -86 -62 -155 -147 -155z" />
    <glyph glyph-name="C" unicode="C" horiz-adv-x="535" 
d="M494 76c-51 -59 -113 -81 -197 -81c-161 0 -247 130 -247 290s86 290 246 290c68 0 122 -23 173 -63c1 -3 3 -4 3 -5c0 -2 -2 -5 -5 -8l-25 -26c-3 -3 -7 -5 -10 -5s-5 1 -7 3c-42 32 -75 41 -129 41c-125 0 -183 -103 -183 -229s58 -229 183 -229c47 0 103 9 159 60
c1 1 3 2 6 2c5 0 9 -1 12 -4l18 -24c3 -4 4 -7 4 -8c0 -2 0 -3 -1 -4z" />
    <glyph glyph-name="D" unicode="D" horiz-adv-x="527" 
d="M138 63h63c133 0 228 80 228 216c0 135 -95 226 -228 226h-63v-442zM83 568h136c160 0 273 -126 273 -286s-113 -282 -273 -282h-136c-5 0 -8 3 -8 8v552c0 5 3 8 8 8z" />
    <glyph glyph-name="E" unicode="E" horiz-adv-x="458" 
d="M139 307h187c5 0 8 -3 8 -8v-47c0 -5 -3 -8 -8 -8h-188v-181h252c5 0 8 -3 8 -8v-47c0 -5 -3 -8 -8 -8h-307c-5 0 -8 3 -8 8v552c0 5 3 8 8 8h307c5 0 8 -3 8 -8v-47c0 -5 -3 -8 -8 -8h-251v-198z" />
    <glyph glyph-name="F" unicode="F" horiz-adv-x="418" 
d="M138 244v-236c0 -5 -3 -8 -8 -8h-47c-5 0 -8 3 -8 8v552c0 5 3 8 8 8h307c5 0 8 -3 8 -8v-47c0 -5 -3 -8 -8 -8h-251v-198h187c5 0 8 -3 8 -8v-47c0 -5 -3 -8 -8 -8h-188z" />
    <glyph glyph-name="G" unicode="G" horiz-adv-x="585" 
d="M296 54c44 0 97 8 149 51v119h-119c-5 0 -8 3 -8 8v47c0 5 3 8 8 8h181c5 0 8 -3 8 -8v-270c0 -6 -3 -9 -9 -9h-8c-3 0 -7 4 -12 11l-24 34c-45 -35 -97 -50 -165 -50c-161 0 -247 130 -247 290s86 290 246 290c68 0 122 -23 173 -63c1 -3 3 -4 3 -5c0 -2 -2 -5 -5 -8
l-25 -26c-3 -3 -7 -5 -10 -5s-5 1 -7 3c-42 32 -75 41 -129 41c-125 0 -183 -103 -183 -229s58 -229 183 -229z" />
    <glyph glyph-name="H" unicode="H" horiz-adv-x="537" 
d="M462 560v-552c0 -5 -3 -8 -8 -8h-47c-5 0 -8 3 -8 8v235h-261v-235c0 -5 -3 -8 -8 -8h-47c-5 0 -8 3 -8 8v552c0 5 3 8 8 8h47c5 0 8 -3 8 -8v-254h261v254c0 5 3 8 8 8h47c5 0 8 -3 8 -8z" />
    <glyph glyph-name="I" unicode="I" horiz-adv-x="213" 
d="M138 560v-552c0 -5 -3 -8 -8 -8h-47c-5 0 -8 3 -8 8v552c0 5 3 8 8 8h47c5 0 8 -3 8 -8z" />
    <glyph glyph-name="J" unicode="J" horiz-adv-x="404" 
d="M24 38c-2 2 -3 4 -3 5c0 4 3 4 19 39c3 4 6 6 9 6c2 0 4 0 5 -1c35 -23 70 -33 105 -33c99 0 117 39 117 220v286c0 5 3 8 8 8h47c5 0 8 -3 8 -8v-292c0 -203 -26 -273 -178 -273c-61 0 -101 12 -137 43z" />
    <glyph glyph-name="K" unicode="K" horiz-adv-x="532" 
d="M467 558l-174 -210l214 -338c0 -7 -3 -10 -10 -10h-52c-5 0 -10 3 -15 10l-180 287l-112 -136v-153c0 -5 -3 -8 -8 -8h-47c-5 0 -8 3 -8 8v552c0 5 3 8 8 8h47c5 0 8 -3 8 -8v-304l245 302c4 7 9 10 15 10h59c7 0 10 -3 10 -10z" />
    <glyph glyph-name="L" unicode="L" horiz-adv-x="440" 
d="M383 0h-300c-5 0 -8 3 -8 8v552c0 5 3 8 8 8h47c5 0 8 -3 8 -8v-497h245c5 0 8 -3 8 -8v-47c0 -5 -3 -8 -8 -8z" />
    <glyph glyph-name="M" unicode="M" horiz-adv-x="628" 
d="M314 154c-3 0 -6 2 -10 7l-166 227v-380c0 -5 -3 -8 -8 -8h-47c-5 0 -8 3 -8 8v559c2 3 4 4 6 4c4 0 4 -1 7 -4l210 -289c7 -7 9 -11 16 -11s9 4 16 11l210 289c3 3 3 4 7 4c2 0 4 -1 6 -4v-559c0 -5 -3 -8 -8 -8h-47c-5 0 -8 3 -8 8v380l-166 -227c-4 -5 -7 -7 -10 -7z
" />
    <glyph glyph-name="N" unicode="N" horiz-adv-x="575" 
d="M75 8v559c2 3 4 4 6 4c4 0 4 -1 7 -4l349 -293v286c0 5 3 8 8 8h47c5 0 8 -3 8 -8v-552c0 -5 -3 -8 -8 -8h-47c-5 0 -8 3 -8 8v187l-299 247v-434c0 -5 -3 -8 -8 -8h-47c-5 0 -8 3 -8 8z" />
    <glyph glyph-name="O" unicode="O" horiz-adv-x="606" 
d="M303 54c125 0 190 103 190 229s-65 229 -190 229s-190 -103 -190 -229s65 -229 190 -229zM303 -5c-160 0 -253 130 -253 290s93 290 253 290s253 -130 253 -290s-93 -290 -253 -290z" />
    <glyph glyph-name="P" unicode="P" horiz-adv-x="470" 
d="M138 271h139c59 0 105 33 105 117s-47 117 -105 117h-139v-234zM83 568h206c85 0 156 -72 156 -179c0 -108 -71 -177 -156 -177h-151v-204c0 -5 -3 -8 -8 -8h-47c-5 0 -8 3 -8 8v552c0 5 3 8 8 8z" />
    <glyph glyph-name="Q" unicode="Q" horiz-adv-x="606" 
d="M556 285c0 -151 -82 -275 -225 -288v-25c0 -21 7 -52 45 -52c8 0 14 1 19 1c2 0 4 -1 7 -2l2 -2c7 -23 8 -25 8 -26c0 -3 0 -7 -4 -8c-15 -7 -27 -7 -42 -7c-51 0 -92 25 -92 121c-143 13 -224 139 -224 288c0 160 93 290 253 290s253 -130 253 -290zM303 54
c125 0 190 103 190 229s-65 229 -190 229s-190 -103 -190 -229s65 -229 190 -229z" />
    <glyph glyph-name="R" unicode="R" horiz-adv-x="484" 
d="M439 389c0 -88 -47 -150 -94 -171l88 -208c0 -7 -3 -10 -10 -10h-49c-5 0 -10 3 -15 10l-84 202h-137v-204c0 -5 -3 -8 -8 -8h-47c-5 0 -8 3 -8 8v552c0 5 3 8 8 8h200c85 0 156 -72 156 -179zM138 505v-234h133c59 0 105 33 105 117s-47 117 -105 117h-133z" />
    <glyph glyph-name="S" unicode="S" horiz-adv-x="452" 
d="M335 497c-33 9 -66 15 -102 15c-106 0 -110 -71 -110 -91c0 -130 282 -91 282 -284c0 -93 -99 -142 -177 -142c-61 0 -100 9 -161 41c-3 2 -5 5 -5 8c0 2 0 4 1 5l13 33c2 3 5 5 8 5c1 0 3 0 4 -1c33 -14 66 -32 136 -32c67 0 118 29 118 85c0 127 -282 93 -282 283
c0 100 59 153 168 153c53 0 90 -12 131 -27c3 -2 5 -4 5 -7s-1 -6 -2 -7l-16 -34c-1 -3 -2 -4 -5 -4c-2 0 -4 0 -6 1z" />
    <glyph glyph-name="T" unicode="T" horiz-adv-x="436" 
d="M43 568h350c5 0 8 -3 8 -8v-47c0 -5 -3 -8 -8 -8h-143v-497c0 -5 -3 -8 -8 -8h-47c-5 0 -8 3 -8 8v497h-144c-5 0 -8 3 -8 8v47c0 5 3 8 8 8z" />
    <glyph glyph-name="U" unicode="U" horiz-adv-x="572" 
d="M285 -5c-155 0 -210 87 -210 244v321c0 5 3 8 8 8h47c5 0 8 -3 8 -8v-300c0 -140 25 -206 148 -206s148 66 148 206v300c0 5 3 8 8 8h47c5 0 8 -3 8 -8v-321c0 -157 -55 -244 -212 -244z" />
    <glyph glyph-name="V" unicode="V" horiz-adv-x="516" 
d="M258 -5c-1 0 -3 1 -6 2l-227 561c0 7 3 10 10 10h43c5 0 10 -3 15 -10l165 -407l165 407c5 7 10 10 15 10h43c7 0 10 -3 10 -10l-227 -561c-3 -1 -5 -2 -6 -2z" />
    <glyph glyph-name="W" unicode="W" horiz-adv-x="714" 
d="M357 523c1 0 3 -1 6 -4l140 -356l119 395c5 7 10 10 15 10h42c7 0 10 -3 10 -10l-170 -559c-1 -3 -4 -4 -7 -4s-9 0 -10 3l-136 334c-4 4 -5 6 -9 6s-5 -2 -9 -6l-136 -334c-1 -3 -7 -3 -10 -3s-6 1 -7 4l-170 559c0 7 3 10 10 10h42c5 0 10 -3 15 -10l119 -395l140 356
c3 3 5 4 6 4z" />
    <glyph glyph-name="X" unicode="X" horiz-adv-x="474" 
d="M372 10l-135 214l-135 -214c-5 -7 -10 -10 -15 -10h-52c-7 0 -10 3 -10 10l174 275l-172 273c0 7 3 10 10 10h52c6 0 11 -3 15 -10l133 -218l133 218c4 7 9 10 15 10h52c7 0 10 -3 10 -10l-172 -273l174 -275c0 -7 -3 -10 -10 -10h-52c-5 0 -10 3 -15 10z" />
    <glyph glyph-name="Y" unicode="Y" horiz-adv-x="485" 
d="M274 212v-204c0 -5 -3 -8 -8 -8h-47c-5 0 -8 3 -8 8v204l-186 346c0 7 3 10 10 10h45c7 0 12 -3 15 -10l148 -271l147 271c3 7 8 10 15 10h45c7 0 10 -3 10 -10z" />
    <glyph glyph-name="Z" unicode="Z" horiz-adv-x="413" 
d="M134 63h236c5 0 8 -3 8 -8v-47c0 -5 -3 -8 -8 -8h-324c-5 0 -8 2 -8 6c0 2 0 4 1 5l243 494h-239c-5 0 -8 3 -8 8v47c0 5 3 8 8 8h327c5 0 8 -2 8 -6c0 -2 0 -4 -1 -5z" />
    <glyph glyph-name="bracketleft" unicode="[" horiz-adv-x="326" 
d="M75 -162v872c0 6 3 9 9 9h158c6 0 9 -3 9 -9v-45c0 -6 -3 -9 -9 -9h-104v-764h104c6 0 9 -3 9 -9v-45c0 -6 -3 -9 -9 -9h-158c-6 0 -9 3 -9 9z" />
    <glyph glyph-name="backslash" unicode="\" horiz-adv-x="507" 
d="M366 -115l-291 773c0 7 3 10 10 10h42c5 0 10 -4 14 -11l291 -773c0 -7 -3 -10 -10 -10h-42c-5 0 -10 4 -14 11z" />
    <glyph glyph-name="bracketright" unicode="]" horiz-adv-x="326" 
d="M251 710v-872c0 -6 -3 -9 -9 -9h-158c-6 0 -9 3 -9 9v45c0 6 3 9 9 9h104v764h-104c-6 0 -9 3 -9 9v45c0 6 3 9 9 9h158c6 0 9 -3 9 -9z" />
    <glyph glyph-name="asciicircum" unicode="^" horiz-adv-x="402" 
d="M169 568h64c4 0 7 -2 9 -5l85 -154c0 -7 -3 -10 -9 -10h-43c-7 0 -8 5 -11 10l-63 117l-63 -117c-3 -5 -4 -10 -11 -10h-43c-6 0 -9 3 -9 10l85 154c2 3 5 5 9 5z" />
    <glyph glyph-name="underscore" unicode="_" horiz-adv-x="443" 
d="M83 -5h277c5 0 8 -3 8 -8v-47c0 -5 -3 -8 -8 -8h-277c-5 0 -8 3 -8 8v47c0 5 3 8 8 8z" />
    <glyph glyph-name="grave" unicode="`" horiz-adv-x="282" 
d="M160 560l47 -129c-3 -6 -6 -9 -10 -9h-32c-5 0 -7 4 -10 7c-24 43 -53 88 -80 131c0 5 3 8 8 8h68c4 0 7 -3 9 -8z" />
    <glyph glyph-name="a" unicode="a" horiz-adv-x="403" 
d="M183 54c23 0 48 9 87 49v30c-23 37 -53 55 -92 55c-63 0 -70 -31 -70 -68s10 -66 75 -66zM108 332c-4 -1 -5 -2 -8 -2c-4 0 -7 2 -8 7c-11 28 -13 37 -13 41c0 3 2 6 5 8c47 19 72 19 103 19c114 0 146 -70 146 -178v-218c0 -6 -3 -9 -9 -9h-32c-6 0 -10 3 -13 9l-4 36
c-26 -50 -93 -50 -101 -50c-41 0 -129 8 -129 126c0 84 36 130 115 130c45 0 84 -11 111 -52c0 109 -15 143 -92 143c-13 0 -42 -3 -71 -10z" />
    <glyph glyph-name="b" unicode="b" horiz-adv-x="446" 
d="M134 55l-5 -46c-3 -6 -8 -9 -13 -9h-32c-6 0 -9 3 -9 9v551c0 5 3 8 8 8h47c5 0 8 -3 8 -8v-201c51 46 92 46 111 46c111 0 157 -84 157 -203c0 -114 -28 -207 -155 -207c-34 0 -71 1 -117 60zM242 54c77 0 101 40 101 147c0 89 -24 141 -101 141
c-75 0 -104 -50 -104 -141c0 -92 28 -147 104 -147z" />
    <glyph glyph-name="c" unicode="c" horiz-adv-x="358" 
d="M315 22c-35 -20 -62 -27 -103 -27c-112 0 -172 93 -172 205s60 205 172 205c50 0 70 -8 108 -35c2 -2 3 -4 3 -6c0 -3 0 -5 -1 -6l-19 -34c-3 -3 -6 -5 -8 -5s-3 0 -4 1c-1 0 -1 0 -2 1c-28 17 -50 21 -77 21c-79 0 -109 -65 -109 -144s30 -144 109 -144c31 0 50 5 77 16
c1 1 3 1 6 1s6 -1 9 -4l14 -31c1 -3 2 -5 2 -8s-2 -5 -5 -6z" />
    <glyph glyph-name="d" unicode="d" horiz-adv-x="446" 
d="M317 9l-5 46c-46 -59 -83 -60 -117 -60c-127 0 -155 93 -155 207c0 119 46 203 157 203c19 0 60 0 111 -46v201c0 5 3 8 8 8h47c5 0 8 -3 8 -8v-551c0 -6 -3 -9 -9 -9h-32c-6 0 -10 3 -13 9zM204 54c76 0 104 55 104 147c0 91 -29 141 -104 141c-77 0 -101 -52 -101 -141
c0 -107 24 -147 101 -147z" />
    <glyph glyph-name="e" unicode="e" horiz-adv-x="405" 
d="M105 226h195c0 89 -41 116 -102 116s-93 -29 -93 -116zM355 168h-250c0 -99 64 -114 114 -114c28 0 46 6 78 22c1 1 4 1 7 1s6 -2 9 -5l14 -31c1 -3 2 -5 2 -8s-2 -5 -5 -6c-36 -27 -61 -32 -104 -32c-117 0 -180 64 -180 205c0 111 25 205 161 205s164 -94 164 -205v-22
c0 -7 -3 -10 -10 -10z" />
    <glyph glyph-name="f" unicode="f" horiz-adv-x="279" 
d="M33 405h67v34c0 97 10 186 97 186c13 0 32 -1 61 -13c4 -3 6 -5 6 -6c0 -3 -2 -8 -14 -43c-1 -2 -4 -3 -8 -3c-8 0 -16 2 -33 2c-46 0 -46 -34 -46 -146v-11h74c5 0 8 -3 8 -8v-47c0 -5 -3 -8 -8 -8h-74v-334c0 -5 -3 -8 -8 -8h-47c-5 0 -8 3 -8 8v334h-67
c-5 0 -8 3 -8 8v47c0 5 3 8 8 8z" />
    <glyph glyph-name="g" unicode="g" horiz-adv-x="446" 
d="M204 54c76 0 104 55 104 147c0 91 -29 141 -104 141c-77 0 -101 -52 -101 -141c0 -107 24 -147 101 -147zM308 -14v57c-41 -49 -79 -48 -113 -48c-127 0 -155 93 -155 207c0 119 46 203 157 203c18 0 81 -2 115 -49l5 35c3 6 7 9 13 9h32c6 0 9 -3 9 -9v-412
c0 -141 -69 -175 -152 -175c-63 0 -92 7 -131 32c-3 1 -4 4 -4 7c0 2 0 4 1 5l14 35c2 2 4 3 5 3c2 0 4 -1 7 -2c41 -19 61 -21 90 -21c100 0 107 45 107 123z" />
    <glyph glyph-name="h" unicode="h" 
d="M75 8v552c0 5 3 8 8 8h47c5 0 8 -3 8 -8v-210c32 51 74 55 111 55c130 0 142 -87 142 -203v-194c0 -5 -3 -8 -8 -8h-47c-5 0 -8 3 -8 8v204c0 75 0 130 -91 130c-81 0 -99 -72 -99 -147v-187c0 -5 -3 -8 -8 -8h-47c-5 0 -8 3 -8 8z" />
    <glyph glyph-name="i" unicode="i" horiz-adv-x="213" 
d="M138 392v-384c0 -5 -3 -8 -8 -8h-47c-5 0 -8 3 -8 8v384c0 5 3 8 8 8h47c5 0 8 -3 8 -8zM63 488c0 24 20 44 43 44c27 0 46 -20 46 -44s-19 -43 -46 -43c-23 0 -43 19 -43 43z" />
    <glyph glyph-name="j" unicode="j" horiz-adv-x="213" 
d="M40 -196c-15 0 -45 3 -69 15c-2 1 -3 2 -3 4c0 1 1 4 13 39c0 1 3 2 8 2c12 -3 33 -7 44 -7c40 0 42 23 42 139v396c0 5 3 8 8 8h47c5 0 8 -3 8 -8v-407c0 -145 -18 -181 -98 -181zM63 488c0 24 20 44 43 44c27 0 46 -20 46 -44s-19 -43 -46 -43c-23 0 -43 19 -43 43z
" />
    <glyph glyph-name="k" unicode="k" horiz-adv-x="398" 
d="M203 201l167 -191c0 -7 -13 -10 -20 -10h-42c-5 0 -13 3 -18 10l-152 170v-172c0 -5 -3 -8 -8 -8h-47c-5 0 -8 3 -8 8v552c0 5 3 8 8 8h47c5 0 8 -3 8 -8v-337l151 167c5 7 13 10 18 10h56c7 0 10 -3 10 -10z" />
    <glyph glyph-name="l" unicode="l" horiz-adv-x="213" 
d="M138 560v-552c0 -5 -3 -8 -8 -8h-47c-5 0 -8 3 -8 8v552c0 5 3 8 8 8h47c5 0 8 -3 8 -8z" />
    <glyph glyph-name="m" unicode="m" horiz-adv-x="595" 
d="M129 391l5 -44c27 53 65 58 88 58c27 0 52 -4 87 -57c33 49 68 57 105 57c91 0 116 -74 116 -164v-233c0 -5 -3 -8 -8 -8h-47c-5 0 -8 3 -8 8v214c0 80 -1 120 -61 120c-49 0 -64 -36 -71 -88c1 -12 1 -21 1 -33v-213c0 -5 -3 -8 -8 -8h-47c-5 0 -8 3 -8 8v196
c0 75 0 138 -61 138c-68 0 -74 -69 -74 -144v-190c0 -5 -3 -8 -8 -8h-47c-5 0 -8 3 -8 8v383c0 6 3 9 9 9h32c5 0 10 -3 13 -9z" />
    <glyph glyph-name="n" unicode="n" 
d="M328 8v204c0 75 0 130 -91 130c-81 0 -99 -72 -99 -147v-187c0 -5 -3 -8 -8 -8h-47c-5 0 -8 3 -8 8v383c0 6 3 9 9 9h32c5 0 10 -3 13 -9l5 -49c31 55 77 63 115 63c130 0 142 -87 142 -203v-194c0 -5 -3 -8 -8 -8h-47c-5 0 -8 3 -8 8z" />
    <glyph glyph-name="o" unicode="o" horiz-adv-x="422" 
d="M211 -5c-112 0 -171 93 -171 205s59 205 171 205s171 -93 171 -205s-59 -205 -171 -205zM211 342c-79 0 -108 -65 -108 -144s29 -144 108 -144s108 65 108 144s-29 144 -108 144z" />
    <glyph glyph-name="p" unicode="p" horiz-adv-x="446" 
d="M75 -162v553c0 6 3 9 9 9h32c5 0 10 -3 13 -9l5 -35c34 47 97 49 115 49c111 0 157 -84 157 -203c0 -114 -28 -207 -155 -207c-34 0 -72 -1 -113 48v-205c-3 -6 -8 -9 -13 -9h-41c-6 0 -9 3 -9 9zM242 54c77 0 101 40 101 147c0 89 -24 141 -101 141
c-75 0 -104 -50 -104 -141c0 -92 28 -147 104 -147z" />
    <glyph glyph-name="q" unicode="q" horiz-adv-x="446" 
d="M371 391v-553c0 -6 -3 -9 -9 -9h-41c-6 0 -10 3 -13 9v205c-41 -49 -79 -48 -113 -48c-127 0 -155 93 -155 207c0 119 46 203 157 203c18 0 81 -2 115 -49l5 35c3 6 7 9 13 9h32c6 0 9 -3 9 -9zM204 54c76 0 104 55 104 147c0 91 -29 141 -104 141
c-77 0 -101 -52 -101 -141c0 -107 24 -147 101 -147z" />
    <glyph glyph-name="r" unicode="r" horiz-adv-x="270" 
d="M255 397v-47c0 -5 -3 -8 -8 -8h-21c-86 0 -88 -72 -88 -143v-190c-3 -6 -8 -9 -13 -9h-41c-6 0 -9 3 -9 9v383c0 5 3 8 8 8h39c5 0 8 -3 8 -8l6 -38c31 50 62 51 92 51h19c5 0 8 -3 8 -8z" />
    <glyph glyph-name="s" unicode="s" horiz-adv-x="353" 
d="M56 25c-3 3 -6 3 -6 7c0 1 0 3 1 6l13 31c1 5 5 7 11 7c30 -16 45 -22 90 -22c28 0 79 3 79 44c0 90 -194 60 -194 202c0 71 37 105 129 105c35 0 56 -6 87 -14c4 -3 6 -7 6 -12l-11 -39c-1 -3 -5 -6 -10 -6c-29 7 -40 8 -69 8c-64 0 -69 -20 -69 -47
c0 -66 194 -73 194 -186c0 -87 -65 -114 -140 -114c-39 0 -76 7 -111 30z" />
    <glyph glyph-name="t" unicode="t" horiz-adv-x="303" 
d="M245 55c4 0 7 -2 8 -5l8 -41c1 -1 1 -2 1 -5c0 -4 -1 -6 -4 -6c-15 -3 -25 -3 -48 -3c-80 0 -105 42 -105 170v177h-67c-5 0 -8 3 -8 8v47c0 5 3 8 8 8h67v155c0 5 3 8 8 8h47c5 0 8 -3 8 -8v-155h74c5 0 8 -3 8 -8v-47c0 -5 -3 -8 -8 -8h-74v-146c0 -115 1 -142 60 -142
c9 0 13 1 17 1z" />
    <glyph glyph-name="u" unicode="u" 
d="M128 392v-208c0 -75 0 -130 91 -130c81 0 99 72 99 147v191c0 5 3 8 8 8h47c5 0 8 -3 8 -8v-383c0 -6 -3 -9 -9 -9h-32c-6 0 -10 3 -13 9l-5 45c-31 -55 -77 -59 -115 -59c-130 0 -142 87 -142 203v194c0 5 3 8 8 8h47c5 0 8 -3 8 -8z" />
    <glyph glyph-name="v" unicode="v" horiz-adv-x="378" 
d="M189 -5c-1 0 -3 1 -6 2l-163 393c0 7 3 10 10 10h45c5 0 10 -3 15 -10l99 -243l99 243c5 7 10 10 15 10h45c7 0 10 -3 10 -10l-163 -393c-3 -1 -5 -2 -6 -2z" />
    <glyph glyph-name="w" unicode="w" horiz-adv-x="574" 
d="M287 236c-3 0 -6 -2 -9 -5l-98 -233c-3 -1 -5 -3 -8 -3s-5 1 -8 2l-134 393c0 7 3 10 10 10h42c5 0 10 -3 15 -10l80 -242l102 251c3 1 5 2 8 2s5 -1 8 -2l102 -251l80 242c5 7 10 10 15 10h42c7 0 10 -3 10 -10l-134 -393c-3 -1 -5 -2 -8 -2s-5 2 -8 3l-98 233
c-3 3 -6 5 -9 5z" />
    <glyph glyph-name="x" unicode="x" horiz-adv-x="380" 
d="M273 10l-82 143l-84 -143c-5 -7 -10 -10 -15 -10h-49c-7 0 -10 3 -10 10l112 189l-110 191c0 7 3 10 10 10h47c6 0 11 -3 15 -10l83 -142l83 142c4 7 9 10 15 10h47c7 0 10 -3 10 -10l-110 -191l112 -189c0 -7 -3 -10 -10 -10h-49c-5 0 -10 3 -15 10z" />
    <glyph glyph-name="y" unicode="y" horiz-adv-x="374" 
d="M62 -161l96 239l-123 312c0 7 3 10 10 10h43c5 0 12 -3 15 -10l90 -229l92 229c3 7 10 10 15 10h44c7 0 10 -4 10 -11l-224 -550c-5 -7 -10 -10 -15 -10h-43c-7 0 -10 3 -10 10z" />
    <glyph glyph-name="z" unicode="z" horiz-adv-x="366" 
d="M144 63h169c5 0 8 -3 8 -8v-47c0 -5 -3 -8 -8 -8h-262c-4 0 -6 2 -6 7c0 3 0 5 1 6l174 324h-167c-5 0 -8 3 -8 8v47c0 5 3 8 8 8h260c5 0 8 -2 8 -6c0 -2 0 -4 -1 -5z" />
    <glyph glyph-name="braceleft" unicode="{" horiz-adv-x="408" 
d="M85 303c39 5 70 39 70 78v172c0 131 35 166 118 166h50c7 0 10 -3 10 -10v-42c0 -7 -3 -10 -10 -10h-55c-45 0 -50 -17 -50 -105v-159c0 -44 -21 -86 -53 -121c32 -35 53 -78 53 -122v-156c0 -88 5 -102 50 -102h55c7 0 10 -3 10 -10v-43c0 -7 -3 -10 -10 -10h-50
c-83 0 -118 35 -118 166v168c0 39 -31 73 -70 78c-7 0 -10 3 -10 10v42c0 7 3 10 10 10z" />
    <glyph glyph-name="bar" unicode="|" horiz-adv-x="213" 
d="M138 706v-869c0 -5 -3 -8 -8 -8h-47c-5 0 -8 3 -8 8v869c0 5 3 8 8 8h47c5 0 8 -3 8 -8z" />
    <glyph glyph-name="braceright" unicode="}" horiz-adv-x="408" 
d="M323 303c7 0 10 -3 10 -10v-42c0 -7 -3 -10 -10 -10c-39 -5 -70 -39 -70 -78v-168c0 -131 -35 -166 -118 -166h-50c-7 0 -10 3 -10 10v43c0 7 3 10 10 10h55c45 0 50 14 50 102v156c0 44 21 87 53 122c-32 35 -53 77 -53 121v159c0 88 -5 105 -50 105h-55
c-7 0 -10 3 -10 10v42c0 7 3 10 10 10h50c83 0 118 -35 118 -166v-172c0 -39 31 -73 70 -78z" />
    <glyph glyph-name="asciitilde" unicode="~" horiz-adv-x="451" 
d="M369 173c-27 -23 -57 -38 -92 -38c-43 0 -72 34 -110 34c-21 0 -39 -6 -54 -17c-1 -1 -3 -1 -5 -1c-4 0 -7 2 -10 6c-23 28 -23 29 -23 30c0 4 2 8 7 11c27 23 52 34 85 34c66 0 64 -34 111 -34c22 0 42 7 60 21c1 1 3 1 5 1c4 0 7 -2 10 -6l21 -26c1 -3 2 -4 2 -4
c0 -5 -2 -9 -7 -11z" />
    <glyph glyph-name="ellipsis" unicode="&#x2026;" horiz-adv-x="652" 
d="M75 34c0 23 16 39 39 39s39 -16 39 -39s-16 -39 -39 -39s-39 16 -39 39zM287 34c0 23 16 39 39 39s39 -16 39 -39s-16 -39 -39 -39s-39 16 -39 39zM499 34c0 23 16 39 39 39s39 -16 39 -39s-16 -39 -39 -39s-39 16 -39 39z" />
    <glyph glyph-name="quoteleft" unicode="&#x2018;" horiz-adv-x="227" 
d="M129 568h14c5 0 7 -2 7 -7l-21 -64c13 -9 23 -22 23 -34c0 -23 -18 -39 -38 -39c-23 0 -39 16 -39 39c0 4 3 13 4 14l40 83c2 5 5 8 10 8z" />
    <glyph glyph-name="quoteright" unicode="&#x2019;" horiz-adv-x="227" 
d="M98 424h-14c-5 0 -7 2 -7 7l21 64c-13 9 -23 22 -23 34c0 23 18 39 38 39c23 0 39 -16 39 -39c0 -4 -3 -13 -4 -14l-40 -83c-2 -5 -5 -8 -10 -8z" />
    <glyph glyph-name="quotedblleft" unicode="&#x201c;" horiz-adv-x="358" 
d="M129 568h14c5 0 7 -2 7 -7l-21 -64c13 -9 23 -22 23 -34c0 -23 -18 -39 -38 -39c-23 0 -39 16 -39 39c0 4 3 13 4 14l40 83c2 5 5 8 10 8zM260 568h14c5 0 7 -2 7 -7l-21 -64c13 -9 23 -22 23 -34c0 -23 -18 -39 -38 -39c-23 0 -39 16 -39 39c0 4 3 13 4 14l40 83
c2 5 5 8 10 8z" />
    <glyph glyph-name="quotedblright" unicode="&#x201d;" horiz-adv-x="358" 
d="M229 424h-14c-5 0 -7 2 -7 7l21 64c-13 9 -23 22 -23 34c0 23 18 39 38 39c23 0 39 -16 39 -39c0 -4 -3 -13 -4 -14l-40 -83c-2 -5 -5 -8 -10 -8zM98 424h-14c-5 0 -7 2 -7 7l21 64c-13 9 -23 22 -23 34c0 23 18 39 38 39c23 0 39 -16 39 -39c0 -4 -3 -13 -4 -14l-40 -83
c-2 -5 -5 -8 -10 -8z" />
    <glyph glyph-name="bullet" unicode="&#x2022;" horiz-adv-x="243" 
d="M75 188c0 27 20 46 45 46c27 0 48 -19 48 -46c0 -25 -21 -46 -48 -46c-25 0 -45 21 -45 46z" />
    <glyph glyph-name="endash" unicode="&#x2013;" horiz-adv-x="419" 
d="M83 218h253c5 0 8 -3 8 -8v-47c0 -5 -3 -8 -8 -8h-253c-5 0 -8 3 -8 8v47c0 5 3 8 8 8z" />
    <glyph glyph-name="emdash" unicode="&#x2014;" horiz-adv-x="471" 
d="M83 218h305c5 0 8 -3 8 -8v-47c0 -5 -3 -8 -8 -8h-305c-5 0 -8 3 -8 8v47c0 5 3 8 8 8z" />
    <glyph glyph-name="uni00A0" unicode="&#xa0;" horiz-adv-x="199" 
 />
    <glyph glyph-name="uni25CC" unicode="&#x25cc;" horiz-adv-x="512" 
 />
    <glyph glyph-name="ZWSP" unicode="&#x200b;" horiz-adv-x="0" 
 />
    <glyph glyph-name="onequarter" unicode="&#xbc;" horiz-adv-x="702" 
d="M450 558l-209 -547c-4 -7 -9 -11 -14 -11h-34c-7 0 -10 3 -10 10c69 187 138 360 207 547c4 7 9 11 14 11h36c7 0 10 -3 10 -10zM216 563v-297c0 -5 -2 -7 -6 -7h-42c-4 0 -6 2 -6 7v216c-29 -15 -63 -18 -82 -18c-3 0 -5 2 -5 6v31c0 4 2 6 6 6c66 13 112 61 129 61
c4 0 6 -2 6 -5zM367 125l107 170c1 3 3 5 6 5h74c3 0 5 -2 6 -5v-181h21c4 0 6 -2 6 -6v-39c0 -4 -2 -6 -6 -6h-21v-57c0 -4 -2 -6 -6 -6h-41c-5 0 -7 2 -7 6v57h-140c-4 0 -6 2 -6 6v36c0 4 4 16 7 20zM506 114v129l-80 -129h80z" />
    <glyph glyph-name="onehalf" unicode="&#xbd;" horiz-adv-x="687" 
d="M450 558l-209 -547c-4 -7 -9 -11 -14 -11h-34c-7 0 -10 3 -10 10c69 187 138 360 207 547c4 7 9 11 14 11h36c7 0 10 -3 10 -10zM216 563v-297c0 -5 -2 -7 -6 -7h-42c-4 0 -6 2 -6 7v216c-29 -15 -63 -18 -82 -18c-3 0 -5 2 -5 6v31c0 4 2 6 6 6c66 13 112 61 129 61
c4 0 6 -2 6 -5zM400 6v34c0 64 157 137 157 177c0 25 -21 32 -60 32c-20 0 -56 -9 -71 -16c-5 -2 -8 -1 -9 3l-16 31c-1 4 1 7 4 9c15 11 57 24 93 24c76 0 113 -25 113 -85c0 -65 -100 -102 -143 -164h137c5 0 7 -2 7 -7v-38c0 -4 -2 -6 -7 -6h-199c-4 0 -6 2 -6 6z" />
    <glyph glyph-name="threequarters" unicode="&#xbe;" horiz-adv-x="723" 
d="M503 558l-209 -547c-4 -7 -9 -11 -14 -11h-34c-7 0 -10 3 -10 10c69 187 138 360 207 547c4 7 9 11 14 11h36c7 0 10 -3 10 -10zM144 410l54 107h-117c-4 0 -6 2 -6 7v38c0 4 2 6 6 6h195c4 0 6 -2 6 -5c0 -1 0 -2 -1 -3l-50 -100c40 -11 53 -57 53 -93
c0 -60 -36 -104 -116 -104c-28 0 -72 11 -92 30c-1 1 -1 3 -1 6c0 1 1 3 2 4l17 29c1 1 2 1 4 1c19 -8 47 -19 71 -19c29 0 61 6 61 54c0 33 -36 40 -63 40c-7 0 -13 0 -20 -1c-2 0 -3 1 -3 3zM428 125l107 170c1 3 3 5 6 5h74c3 0 5 -2 6 -5v-181h21c4 0 6 -2 6 -6v-39
c0 -4 -2 -6 -6 -6h-21v-57c0 -4 -2 -6 -6 -6h-41c-5 0 -7 2 -7 6v57h-140c-4 0 -6 2 -6 6v36c0 4 4 16 7 20zM567 114v129l-80 -129h80z" />
    <glyph glyph-name="questiondown" unicode="&#xbf;" horiz-adv-x="402" 
d="M320 23c-31 -15 -56 -28 -105 -28c-88 0 -140 39 -140 136c0 109 106 166 106 259v38c0 5 3 8 8 8h47c5 0 8 -3 8 -8v-40c0 -127 -106 -154 -106 -261c0 -48 12 -69 80 -69c23 0 49 6 80 17c3 1 5 2 6 2c5 -1 9 -3 10 -6l12 -34c1 -1 1 -3 1 -5c0 -4 -2 -7 -7 -9z
M249 536c0 -23 -16 -39 -39 -39s-39 16 -39 39s16 39 39 39s39 -16 39 -39z" />
    <glyph glyph-name="Superstore" horiz-adv-x="655" 
d="M326 505c140 0 254 -114 254 -254c0 -138 -114 -251 -254 -251c-138 0 -251 113 -251 251c0 140 113 254 251 254zM424 90h9c19 0 32 6 32 27c0 23 -7 30 -24 30v133c0 35 -15 56 -32 71c7 3 12 2 19 2s12 1 19 -2h11v65c-41 -5 -84 -15 -115 -32c-12 3 -21 2 -37 2
c-31 0 -57 -3 -88 -14v-63h6c25 8 55 16 76 16c24 0 74 1 74 -43l-82 -8c-48 -5 -102 -17 -102 -92c0 -56 42 -92 102 -92c15 0 30 0 43 3v54l-6 4c-9 -4 -15 -4 -23 -4c-21 0 -45 10 -45 41c0 22 13 25 113 41v-71c0 -48 10 -68 50 -68z" />
    <glyph glyph-name="yen" unicode="&#xa5;" horiz-adv-x="585" 
d="M435 89h-111v-81c0 -5 -3 -8 -8 -8h-47c-5 0 -8 3 -8 8v81h-111c-5 0 -8 3 -8 8v47c0 5 3 8 8 8h111v59h-111c-5 0 -8 3 -8 8v47c0 5 3 8 8 8h78l-153 284c0 7 3 10 10 10h45c7 0 12 -3 15 -10l148 -271l147 271c3 7 8 10 15 10h45c7 0 10 -3 10 -10l-152 -284h77
c5 0 8 -3 8 -8v-47c0 -5 -3 -8 -8 -8h-111v-59h111c5 0 8 -3 8 -8v-47c0 -5 -3 -8 -8 -8z" />
    <glyph glyph-name="Euro" unicode="&#x20ac;" horiz-adv-x="684" 
d="M360 176h-117c25 -73 79 -122 167 -122c47 0 103 9 159 60c1 1 3 2 6 2c5 0 9 -1 12 -4l18 -24c3 -4 4 -7 4 -8c0 -2 0 -3 -1 -4c-51 -59 -113 -81 -197 -81c-123 0 -200 75 -232 181h-96c-5 0 -8 3 -8 8v39c0 5 3 8 8 8h84c-2 17 -3 35 -3 54c0 9 0 18 1 29h-82
c-5 0 -8 3 -8 8v39c0 5 3 8 8 8h89c26 119 108 206 238 206c68 0 122 -23 173 -63c1 -3 3 -4 3 -5c0 -2 -2 -5 -5 -8l-25 -26c-3 -3 -7 -5 -10 -5s-5 1 -7 3c-42 32 -75 41 -129 41c-96 0 -150 -59 -173 -143h123c5 0 8 -3 8 -8v-39c0 -5 -3 -8 -8 -8h-132
c-1 -11 -1 -20 -1 -31c0 -19 1 -36 3 -52h130c5 0 8 -3 8 -8v-39c0 -5 -3 -8 -8 -8z" />
    <glyph glyph-name="ocircumflex" unicode="&#xf4;" horiz-adv-x="422" 
d="M221 600h-16c-4 0 -8 -3 -11 -6l-94 -81c-2 -2 -3 -4 -3 -6c0 -1 2 -4 5 -7l22 -21c2 -2 4 -3 7 -3c1 0 3 1 6 2l76 71l76 -71c3 -1 5 -2 6 -2c3 0 5 1 7 3l22 21c3 3 5 6 5 7c0 2 -1 4 -3 6l-94 81c-3 3 -7 6 -11 6zM211 -5c-112 0 -171 93 -171 205s59 205 171 205
s171 -93 171 -205s-59 -205 -171 -205zM211 342c-79 0 -108 -65 -108 -144s29 -144 108 -144s108 65 108 144s-29 144 -108 144z" />
    <glyph glyph-name="Agrave" unicode="&#xc0;" horiz-adv-x="516" 
d="M231 764l49 -114c0 -7 -4 -11 -11 -11h-26c-7 0 -14 6 -17 11l-76 114c0 7 4 11 11 11h59c5 0 10 -10 11 -11zM258 573c1 0 3 -1 6 -2l227 -561c0 -7 -3 -10 -10 -10h-43c-5 0 -10 3 -15 10l-48 120h-233l-49 -120c-5 -7 -10 -10 -15 -10h-43c-7 0 -10 3 -10 10l227 561
c3 1 5 2 6 2zM258 417l-91 -224h182z" />
    <glyph glyph-name="Aacute" unicode="&#xc1;" horiz-adv-x="516" 
d="M235 650l49 114c1 1 6 11 11 11h59c7 0 11 -4 11 -11l-76 -114c-3 -5 -10 -11 -17 -11h-26c-7 0 -11 4 -11 11zM258 573c1 0 3 -1 6 -2l227 -561c0 -7 -3 -10 -10 -10h-43c-5 0 -10 3 -15 10l-48 120h-233l-49 -120c-5 -7 -10 -10 -15 -10h-43c-7 0 -10 3 -10 10l227 561
c3 1 5 2 6 2zM258 417l-91 -224h182z" />
    <glyph glyph-name="Acircumflex" unicode="&#xc2;" horiz-adv-x="516" 
d="M268 759h-16c-4 0 -8 -3 -11 -6l-94 -81c-2 -2 -3 -4 -3 -6c0 -1 2 -4 5 -7l22 -21c2 -2 4 -3 7 -3c1 0 3 1 6 2l76 71l76 -71c3 -1 5 -2 6 -2c3 0 5 1 7 3l22 21c3 3 5 6 5 7c0 2 -1 4 -3 6l-94 81c-3 3 -7 6 -11 6zM258 573c1 0 3 -1 6 -2l227 -561
c0 -7 -3 -10 -10 -10h-43c-5 0 -10 3 -15 10l-48 120h-233l-49 -120c-5 -7 -10 -10 -15 -10h-43c-7 0 -10 3 -10 10l227 561c3 1 5 2 6 2zM258 417l-91 -224h182z" />
    <glyph glyph-name="Atilde" unicode="&#xc3;" horiz-adv-x="516" 
d="M402 677c-27 -23 -57 -38 -92 -38c-43 0 -72 34 -110 34c-21 0 -39 -6 -54 -17c-1 -1 -3 -1 -5 -1c-4 0 -7 2 -10 6c-23 28 -23 29 -23 30c0 4 2 8 7 11c27 23 52 34 85 34c66 0 64 -34 111 -34c22 0 42 7 60 21c1 1 3 1 5 1c4 0 7 -2 10 -6l21 -26c1 -3 2 -4 2 -4
c0 -5 -2 -9 -7 -11zM258 573c1 0 3 -1 6 -2l227 -561c0 -7 -3 -10 -10 -10h-43c-5 0 -10 3 -15 10l-48 120h-233l-49 -120c-5 -7 -10 -10 -15 -10h-43c-7 0 -10 3 -10 10l227 561c3 1 5 2 6 2zM258 417l-91 -224h182z" />
    <glyph glyph-name="Adieresis" unicode="&#xc4;" horiz-adv-x="516" 
d="M146 678c0 23 16 39 39 39s39 -16 39 -39s-16 -39 -39 -39s-39 16 -39 39zM293 678c0 23 16 39 39 39s39 -16 39 -39s-16 -39 -39 -39s-39 16 -39 39zM258 573c1 0 3 -1 6 -2l227 -561c0 -7 -3 -10 -10 -10h-43c-5 0 -10 3 -15 10l-48 120h-233l-49 -120
c-5 -7 -10 -10 -15 -10h-43c-7 0 -10 3 -10 10l227 561c3 1 5 2 6 2zM258 417l-91 -224h182z" />
    <glyph glyph-name="copyright" unicode="&#xa9;" horiz-adv-x="723" 
d="M361 568c159 0 287 -128 287 -287c0 -157 -128 -286 -287 -286c-157 0 -286 129 -286 286c0 159 129 287 286 287zM361 35c131 0 249 118 249 247c0 131 -118 249 -249 249c-129 0 -247 -118 -247 -249c0 -129 118 -247 247 -247zM468 138c-29 -19 -68 -28 -103 -28
c-93 0 -165 77 -165 171c0 91 72 167 165 167c39 0 77 -13 108 -37c1 -1 2 -3 2 -4c0 -3 -1 -5 -2 -6l-23 -24c-2 -2 -4 -3 -6 -3s-3 0 -4 1c-1 0 -1 0 -1 1c-21 12 -55 18 -74 18c-56 0 -110 -47 -110 -114c0 -68 53 -122 109 -122c25 0 54 3 74 14c1 1 3 2 5 2s5 -1 8 -3
l18 -22c2 -2 3 -4 3 -6s-1 -4 -4 -5z" />
    <glyph glyph-name="agrave" unicode="&#xe0;" horiz-adv-x="403" 
d="M198 601l49 -114c0 -7 -4 -11 -11 -11h-26c-7 0 -14 6 -17 11l-76 114c0 7 4 11 11 11h59c5 0 10 -10 11 -11zM183 54c23 0 48 9 87 49v30c-23 37 -53 55 -92 55c-63 0 -70 -31 -70 -68s10 -66 75 -66zM108 332c-4 -1 -5 -2 -8 -2c-4 0 -7 2 -8 7c-11 28 -13 37 -13 41
c0 3 2 6 5 8c47 19 72 19 103 19c114 0 146 -70 146 -178v-218c0 -6 -3 -9 -9 -9h-32c-6 0 -10 3 -13 9l-4 36c-26 -50 -93 -50 -101 -50c-41 0 -129 8 -129 126c0 84 36 130 115 130c45 0 84 -11 111 -52c0 109 -15 143 -92 143c-13 0 -42 -3 -71 -10z" />
    <glyph glyph-name="aacute" unicode="&#xe1;" horiz-adv-x="403" 
d="M183 487l49 114c1 1 6 11 11 11h59c7 0 11 -4 11 -11l-76 -114c-3 -5 -10 -11 -17 -11h-26c-7 0 -11 4 -11 11zM183 54c23 0 48 9 87 49v30c-23 37 -53 55 -92 55c-63 0 -70 -31 -70 -68s10 -66 75 -66zM108 332c-4 -1 -5 -2 -8 -2c-4 0 -7 2 -8 7c-11 28 -13 37 -13 41
c0 3 2 6 5 8c47 19 72 19 103 19c114 0 146 -70 146 -178v-218c0 -6 -3 -9 -9 -9h-32c-6 0 -10 3 -13 9l-4 36c-26 -50 -93 -50 -101 -50c-41 0 -129 8 -129 126c0 84 36 130 115 130c45 0 84 -11 111 -52c0 109 -15 143 -92 143c-13 0 -42 -3 -71 -10z" />
    <glyph glyph-name="acircumflex" unicode="&#xe2;" horiz-adv-x="403" 
d="M203 600h-16c-4 0 -8 -3 -11 -6l-94 -81c-2 -2 -3 -4 -3 -6c0 -1 2 -4 5 -7l22 -21c2 -2 4 -3 7 -3c1 0 3 1 6 2l76 71l76 -71c3 -1 5 -2 6 -2c3 0 5 1 7 3l22 21c3 3 5 6 5 7c0 2 -1 4 -3 6l-94 81c-3 3 -7 6 -11 6zM183 54c23 0 48 9 87 49v30c-23 37 -53 55 -92 55
c-63 0 -70 -31 -70 -68s10 -66 75 -66zM108 332c-4 -1 -5 -2 -8 -2c-4 0 -7 2 -8 7c-11 28 -13 37 -13 41c0 3 2 6 5 8c47 19 72 19 103 19c114 0 146 -70 146 -178v-218c0 -6 -3 -9 -9 -9h-32c-6 0 -10 3 -13 9l-4 36c-26 -50 -93 -50 -101 -50c-41 0 -129 8 -129 126
c0 84 36 130 115 130c45 0 84 -11 111 -52c0 109 -15 143 -92 143c-13 0 -42 -3 -71 -10z" />
    <glyph glyph-name="atilde" unicode="&#xe3;" horiz-adv-x="403" 
d="M320 514c-27 -23 -50 -38 -85 -38c-42 0 -58 29 -96 29c-21 0 -31 -5 -47 -17c-1 -1 -3 -1 -5 -1c-4 0 -7 2 -10 6c-23 28 -23 29 -23 30c0 4 2 8 7 11c27 23 45 34 78 34c67 0 49 -29 97 -29c23 0 36 8 53 21c1 1 3 1 5 1c4 0 7 -2 10 -6l21 -26c1 -3 2 -4 2 -4
c0 -5 -2 -9 -7 -11zM183 54c23 0 48 9 87 49v30c-23 37 -53 55 -92 55c-63 0 -70 -31 -70 -68s10 -66 75 -66zM108 332c-4 -1 -5 -2 -8 -2c-4 0 -7 2 -8 7c-11 28 -13 37 -13 41c0 3 2 6 5 8c47 19 72 19 103 19c114 0 146 -70 146 -178v-218c0 -6 -3 -9 -9 -9h-32
c-6 0 -10 3 -13 9l-4 36c-26 -50 -93 -50 -101 -50c-41 0 -129 8 -129 126c0 84 36 130 115 130c45 0 84 -11 111 -52c0 109 -15 143 -92 143c-13 0 -42 -3 -71 -10z" />
    <glyph glyph-name="adieresis" unicode="&#xe4;" horiz-adv-x="403" 
d="M102 531c0 23 16 39 39 39s39 -16 39 -39s-16 -39 -39 -39s-39 16 -39 39zM231 531c0 23 16 39 39 39s39 -16 39 -39s-16 -39 -39 -39s-39 16 -39 39zM183 54c23 0 48 9 87 49v30c-23 37 -53 55 -92 55c-63 0 -70 -31 -70 -68s10 -66 75 -66zM108 332c-4 -1 -5 -2 -8 -2
c-4 0 -7 2 -8 7c-11 28 -13 37 -13 41c0 3 2 6 5 8c47 19 72 19 103 19c114 0 146 -70 146 -178v-218c0 -6 -3 -9 -9 -9h-32c-6 0 -10 3 -13 9l-4 36c-26 -50 -93 -50 -101 -50c-41 0 -129 8 -129 126c0 84 36 130 115 130c45 0 84 -11 111 -52c0 109 -15 143 -92 143
c-13 0 -42 -3 -71 -10z" />
    <glyph glyph-name="egrave" unicode="&#xe8;" horiz-adv-x="405" 
d="M193 601l49 -114c0 -7 -4 -11 -11 -11h-26c-7 0 -14 6 -17 11l-76 114c0 7 4 11 11 11h59c5 0 10 -10 11 -11zM105 226h195c0 89 -41 116 -102 116s-93 -29 -93 -116zM355 168h-250c0 -99 64 -114 114 -114c28 0 46 6 78 22c1 1 4 1 7 1s6 -2 9 -5l14 -31c1 -3 2 -5 2 -8
s-2 -5 -5 -6c-36 -27 -61 -32 -104 -32c-117 0 -180 64 -180 205c0 111 25 205 161 205s164 -94 164 -205v-22c0 -7 -3 -10 -10 -10z" />
    <glyph glyph-name="eacute" unicode="&#xe9;" horiz-adv-x="405" 
d="M175 487l49 114c1 1 6 11 11 11h59c7 0 11 -4 11 -11l-76 -114c-3 -5 -10 -11 -17 -11h-26c-7 0 -11 4 -11 11zM105 226h195c0 89 -41 116 -102 116s-93 -29 -93 -116zM355 168h-250c0 -99 64 -114 114 -114c28 0 46 6 78 22c1 1 4 1 7 1s6 -2 9 -5l14 -31
c1 -3 2 -5 2 -8s-2 -5 -5 -6c-36 -27 -61 -32 -104 -32c-117 0 -180 64 -180 205c0 111 25 205 161 205s164 -94 164 -205v-22c0 -7 -3 -10 -10 -10z" />
    <glyph glyph-name="ecircumflex" unicode="&#xea;" horiz-adv-x="405" 
d="M213 600h-16c-4 0 -8 -3 -11 -6l-94 -81c-2 -2 -3 -4 -3 -6c0 -1 2 -4 5 -7l22 -21c2 -2 4 -3 7 -3c1 0 3 1 6 2l76 71l76 -71c3 -1 5 -2 6 -2c3 0 5 1 7 3l22 21c3 3 5 6 5 7c0 2 -1 4 -3 6l-94 81c-3 3 -7 6 -11 6zM105 226h195c0 89 -41 116 -102 116
s-93 -29 -93 -116zM355 168h-250c0 -99 64 -114 114 -114c28 0 46 6 78 22c1 1 4 1 7 1s6 -2 9 -5l14 -31c1 -3 2 -5 2 -8s-2 -5 -5 -6c-36 -27 -61 -32 -104 -32c-117 0 -180 64 -180 205c0 111 25 205 161 205s164 -94 164 -205v-22c0 -7 -3 -10 -10 -10z" />
    <glyph glyph-name="edieresis" unicode="&#xeb;" horiz-adv-x="405" 
d="M85 531c0 23 16 39 39 39s39 -16 39 -39s-16 -39 -39 -39s-39 16 -39 39zM235 531c0 23 16 39 39 39s39 -16 39 -39s-16 -39 -39 -39s-39 16 -39 39zM105 226h195c0 89 -41 116 -102 116s-93 -29 -93 -116zM355 168h-250c0 -99 64 -114 114 -114c28 0 46 6 78 22
c1 1 4 1 7 1s6 -2 9 -5l14 -31c1 -3 2 -5 2 -8s-2 -5 -5 -6c-36 -27 -61 -32 -104 -32c-117 0 -180 64 -180 205c0 111 25 205 161 205s164 -94 164 -205v-22c0 -7 -3 -10 -10 -10z" />
    <glyph glyph-name="Ograve" unicode="&#xd2;" horiz-adv-x="606" 
d="M280 764l49 -114c0 -7 -4 -11 -11 -11h-26c-7 0 -14 6 -17 11l-76 114c0 7 4 11 11 11h59c5 0 10 -10 11 -11zM303 54c125 0 190 103 190 229s-65 229 -190 229s-190 -103 -190 -229s65 -229 190 -229zM303 -5c-160 0 -253 130 -253 290s93 290 253 290
s253 -130 253 -290s-93 -290 -253 -290z" />
    <glyph glyph-name="Oacute" unicode="&#xd3;" horiz-adv-x="606" 
d="M286 650l49 114c1 1 6 11 11 11h59c7 0 11 -4 11 -11l-76 -114c-3 -5 -10 -11 -17 -11h-26c-7 0 -11 4 -11 11zM303 54c125 0 190 103 190 229s-65 229 -190 229s-190 -103 -190 -229s65 -229 190 -229zM303 -5c-160 0 -253 130 -253 290s93 290 253 290
s253 -130 253 -290s-93 -290 -253 -290z" />
    <glyph glyph-name="Ocircumflex" unicode="&#xd4;" horiz-adv-x="606" 
d="M310 759h-16c-4 0 -8 -3 -11 -6l-94 -81c-2 -2 -3 -4 -3 -6c0 -1 2 -4 5 -7l22 -21c2 -2 4 -3 7 -3c1 0 3 1 6 2l76 71l76 -71c3 -1 5 -2 6 -2c3 0 5 1 7 3l22 21c3 3 5 6 5 7c0 2 -1 4 -3 6l-94 81c-3 3 -7 6 -11 6zM303 54c125 0 190 103 190 229s-65 229 -190 229
s-190 -103 -190 -229s65 -229 190 -229zM303 -5c-160 0 -253 130 -253 290s93 290 253 290s253 -130 253 -290s-93 -290 -253 -290z" />
    <glyph glyph-name="Otilde" unicode="&#xd5;" horiz-adv-x="606" 
d="M446 677c-27 -23 -57 -38 -92 -38c-43 0 -72 34 -110 34c-21 0 -39 -6 -54 -17c-1 -1 -3 -1 -5 -1c-4 0 -7 2 -10 6c-23 28 -23 29 -23 30c0 4 2 8 7 11c27 23 52 34 85 34c66 0 64 -34 111 -34c22 0 42 7 60 21c1 1 3 1 5 1c4 0 7 -2 10 -6l21 -26c1 -3 2 -4 2 -4
c0 -5 -2 -9 -7 -11zM303 54c125 0 190 103 190 229s-65 229 -190 229s-190 -103 -190 -229s65 -229 190 -229zM303 -5c-160 0 -253 130 -253 290s93 290 253 290s253 -130 253 -290s-93 -290 -253 -290z" />
    <glyph glyph-name="Odieresis" unicode="&#xd6;" horiz-adv-x="606" 
d="M190 678c0 23 16 39 39 39s39 -16 39 -39s-16 -39 -39 -39s-39 16 -39 39zM337 678c0 23 16 39 39 39s39 -16 39 -39s-16 -39 -39 -39s-39 16 -39 39zM303 54c125 0 190 103 190 229s-65 229 -190 229s-190 -103 -190 -229s65 -229 190 -229zM303 -5
c-160 0 -253 130 -253 290s93 290 253 290s253 -130 253 -290s-93 -290 -253 -290z" />
    <glyph glyph-name="igrave" unicode="&#xec;" horiz-adv-x="211" 
d="M137 392v-384c0 -5 -3 -8 -8 -8h-47c-5 0 -8 3 -8 8v384c0 5 3 8 8 8h47c5 0 8 -3 8 -8zM77 601l49 -114c0 -7 -4 -11 -11 -11h-26c-7 0 -14 6 -17 11l-76 114c0 7 4 11 11 11h59c5 0 10 -10 11 -11z" />
    <glyph glyph-name="iacute" unicode="&#xed;" horiz-adv-x="211" 
d="M74 8v384c0 5 3 8 8 8h47c5 0 8 -3 8 -8v-384c0 -5 -3 -8 -8 -8h-47c-5 0 -8 3 -8 8zM85 487l49 114c1 1 6 11 11 11h59c7 0 11 -4 11 -11l-76 -114c-3 -5 -10 -11 -17 -11h-26c-7 0 -11 4 -11 11z" />
    <glyph glyph-name="icircumflex" unicode="&#xee;" horiz-adv-x="211" 
d="M74 8v384c0 5 3 8 8 8h47c5 0 8 -3 8 -8v-384c0 -5 -3 -8 -8 -8h-47c-5 0 -8 3 -8 8zM114 591h-16c-4 0 -8 -3 -11 -6l-94 -81c-2 -2 -3 -4 -3 -6c0 -1 2 -4 5 -7l22 -21c2 -2 4 -3 7 -3c1 0 3 1 6 2l76 71l76 -71c3 -1 5 -2 6 -2c3 0 5 1 7 3l22 21c3 3 5 6 5 7
c0 2 -1 4 -3 6l-94 81c-3 3 -7 6 -11 6z" />
    <glyph glyph-name="idieresis" unicode="&#xef;" horiz-adv-x="211" 
d="M74 8v384c0 5 3 8 8 8h47c5 0 8 -3 8 -8v-384c0 -5 -3 -8 -8 -8h-47c-5 0 -8 3 -8 8zM14 510c0 23 16 39 39 39s39 -16 39 -39s-16 -39 -39 -39s-39 16 -39 39zM120 510c0 23 16 39 39 39s39 -16 39 -39s-16 -39 -39 -39s-39 16 -39 39z" />
    <glyph glyph-name="oacute" unicode="&#xf3;" horiz-adv-x="422" 
d="M188 487l49 114c1 1 6 11 11 11h59c7 0 11 -4 11 -11l-76 -114c-3 -5 -10 -11 -17 -11h-26c-7 0 -11 4 -11 11zM211 -5c-112 0 -171 93 -171 205s59 205 171 205s171 -93 171 -205s-59 -205 -171 -205zM211 342c-79 0 -108 -65 -108 -144s29 -144 108 -144
s108 65 108 144s-29 144 -108 144z" />
    <glyph glyph-name="ograve" unicode="&#xf2;" horiz-adv-x="422" 
d="M185 601l49 -114c0 -7 -4 -11 -11 -11h-26c-7 0 -14 6 -17 11l-76 114c0 7 4 11 11 11h59c5 0 10 -10 11 -11zM211 -5c-112 0 -171 93 -171 205s59 205 171 205s171 -93 171 -205s-59 -205 -171 -205zM211 342c-79 0 -108 -65 -108 -144s29 -144 108 -144s108 65 108 144
s-29 144 -108 144z" />
    <glyph glyph-name="ntilde" unicode="&#xf1;" 
d="M376 514c-27 -23 -57 -38 -92 -38c-43 0 -72 34 -110 34c-21 0 -39 -6 -54 -17c-1 -1 -3 -1 -5 -1c-4 0 -7 2 -10 6c-23 28 -23 29 -23 30c0 4 2 8 7 11c27 23 52 34 85 34c66 0 64 -34 111 -34c22 0 42 7 60 21c1 1 3 1 5 1c4 0 7 -2 10 -6l21 -26c1 -3 2 -4 2 -4
c0 -5 -2 -9 -7 -11zM328 8v204c0 75 0 130 -91 130c-81 0 -99 -72 -99 -147v-187c0 -5 -3 -8 -8 -8h-47c-5 0 -8 3 -8 8v383c0 6 3 9 9 9h32c5 0 10 -3 13 -9l5 -49c31 55 77 63 115 63c130 0 142 -87 142 -203v-194c0 -5 -3 -8 -8 -8h-47c-5 0 -8 3 -8 8z" />
    <glyph glyph-name="ydieresis" unicode="&#xff;" horiz-adv-x="374" 
d="M81 531c0 23 16 39 39 39s39 -16 39 -39s-16 -39 -39 -39s-39 16 -39 39zM231 531c0 23 16 39 39 39s39 -16 39 -39s-16 -39 -39 -39s-39 16 -39 39zM62 -161l96 239l-123 312c0 7 3 10 10 10h43c5 0 12 -3 15 -10l90 -229l92 229c3 7 10 10 15 10h44c7 0 10 -4 10 -11
l-224 -550c-5 -7 -10 -10 -15 -10h-43c-7 0 -10 3 -10 10z" />
    <glyph glyph-name="plusminus" unicode="&#xb1;" horiz-adv-x="410" 
d="M238 310h88c6 0 9 -3 9 -9v-45c0 -6 -3 -9 -9 -9h-88v-110c0 -6 -3 -9 -9 -9h-45c-6 0 -9 3 -9 9v110h-91c-6 0 -9 3 -9 9v45c0 6 3 9 9 9h91v113c0 6 3 9 9 9h45c6 0 9 -3 9 -9v-113zM83 63h244c5 0 8 -3 8 -8v-47c0 -5 -3 -8 -8 -8h-244c-5 0 -8 3 -8 8v47c0 5 3 8 8 8
z" />
    <glyph glyph-name="onesuperior" unicode="&#xb9;" horiz-adv-x="291" 
d="M216 563v-297c0 -5 -2 -7 -6 -7h-42c-4 0 -6 2 -6 7v216c-29 -15 -63 -18 -82 -18c-3 0 -5 2 -5 6v31c0 4 2 6 6 6c66 13 112 61 129 61c4 0 6 -2 6 -5z" />
    <glyph glyph-name="twosuperior" unicode="&#xb2;" horiz-adv-x="362" 
d="M75 274v34c0 64 157 137 157 177c0 25 -21 32 -60 32c-20 0 -56 -9 -71 -16c-5 -2 -8 -1 -9 3l-16 31c-1 4 1 7 4 9c15 11 57 24 93 24c76 0 113 -25 113 -85c0 -65 -100 -102 -143 -164h137c5 0 7 -2 7 -7v-38c0 -4 -2 -6 -7 -6h-199c-4 0 -6 2 -6 6z" />
    <glyph glyph-name="threesuperior" unicode="&#xb3;" horiz-adv-x="359" 
d="M144 410l54 107h-117c-4 0 -6 2 -6 7v38c0 4 2 6 6 6h195c4 0 6 -2 6 -5c0 -1 0 -2 -1 -3l-50 -100c40 -11 53 -57 53 -93c0 -60 -36 -104 -116 -104c-28 0 -72 11 -92 30c-1 1 -1 3 -1 6c0 1 1 3 2 4l17 29c1 1 2 1 4 1c19 -8 47 -19 71 -19c29 0 61 6 61 54
c0 33 -36 40 -63 40c-7 0 -13 0 -20 -1c-2 0 -3 1 -3 3z" />
    <glyph glyph-name="Aring" unicode="&#xc5;" horiz-adv-x="516" 
d="M258 831c54 0 97 -44 97 -97c0 -52 -43 -95 -97 -95c-52 0 -95 43 -95 95c0 53 43 97 95 97zM260 689c21 0 40 18 40 45s-19 41 -40 41s-41 -14 -41 -41s20 -45 41 -45zM258 573c1 0 3 -1 6 -2l227 -561c0 -7 -3 -10 -10 -10h-43c-5 0 -10 3 -15 10l-48 120h-233
l-49 -120c-5 -7 -10 -10 -15 -10h-43c-7 0 -10 3 -10 10l227 561c3 1 5 2 6 2zM258 417l-91 -224h182z" />
    <glyph glyph-name="degree" unicode="&#xb0;" horiz-adv-x="420" 
d="M210 348c44 0 83 34 83 87s-39 83 -83 83s-83 -30 -83 -83s39 -87 83 -87zM210 298c-75 0 -135 64 -135 137s60 133 135 133s135 -60 135 -133s-60 -137 -135 -137z" />
    <glyph glyph-name="aring" unicode="&#xe5;" horiz-adv-x="403" 
d="M208 684c54 0 97 -44 97 -97c0 -52 -43 -95 -97 -95c-52 0 -95 43 -95 95c0 53 43 97 95 97zM210 542c21 0 40 18 40 45s-19 41 -40 41s-41 -14 -41 -41s20 -45 41 -45zM183 54c23 0 48 9 87 49v30c-23 37 -53 55 -92 55c-63 0 -70 -31 -70 -68s10 -66 75 -66zM108 332
c-4 -1 -5 -2 -8 -2c-4 0 -7 2 -8 7c-11 28 -13 37 -13 41c0 3 2 6 5 8c47 19 72 19 103 19c114 0 146 -70 146 -178v-218c0 -6 -3 -9 -9 -9h-32c-6 0 -10 3 -13 9l-4 36c-26 -50 -93 -50 -101 -50c-41 0 -129 8 -129 126c0 84 36 130 115 130c45 0 84 -11 111 -52
c0 109 -15 143 -92 143c-13 0 -42 -3 -71 -10z" />
    <glyph glyph-name="Ugrave" unicode="&#xd9;" horiz-adv-x="572" 
d="M261 764l49 -114c0 -7 -4 -11 -11 -11h-26c-7 0 -14 6 -17 11l-76 114c0 7 4 11 11 11h59c5 0 10 -10 11 -11zM285 -5c-155 0 -210 87 -210 244v321c0 5 3 8 8 8h47c5 0 8 -3 8 -8v-300c0 -140 25 -206 148 -206s148 66 148 206v300c0 5 3 8 8 8h47c5 0 8 -3 8 -8v-321
c0 -157 -55 -244 -212 -244z" />
    <glyph glyph-name="Uacute" unicode="&#xda;" horiz-adv-x="572" 
d="M272 650l49 114c1 1 6 11 11 11h59c7 0 11 -4 11 -11l-76 -114c-3 -5 -10 -11 -17 -11h-26c-7 0 -11 4 -11 11zM285 -5c-155 0 -210 87 -210 244v321c0 5 3 8 8 8h47c5 0 8 -3 8 -8v-300c0 -140 25 -206 148 -206s148 66 148 206v300c0 5 3 8 8 8h47c5 0 8 -3 8 -8v-321
c0 -157 -55 -244 -212 -244z" />
    <glyph glyph-name="otilde" unicode="&#xf5;" horiz-adv-x="422" 
d="M356 514c-27 -23 -57 -38 -92 -38c-43 0 -72 34 -110 34c-21 0 -39 -6 -54 -17c-1 -1 -3 -1 -5 -1c-4 0 -7 2 -10 6c-23 28 -23 29 -23 30c0 4 2 8 7 11c27 23 52 34 85 34c66 0 64 -34 111 -34c22 0 42 7 60 21c1 1 3 1 5 1c4 0 7 -2 10 -6l21 -26c1 -3 2 -4 2 -4
c0 -5 -2 -9 -7 -11zM211 -5c-112 0 -171 93 -171 205s59 205 171 205s171 -93 171 -205s-59 -205 -171 -205zM211 342c-79 0 -108 -65 -108 -144s29 -144 108 -144s108 65 108 144s-29 144 -108 144z" />
    <glyph glyph-name="odieresis" unicode="&#xf6;" horiz-adv-x="422" 
d="M99 531c0 23 16 39 39 39s39 -16 39 -39s-16 -39 -39 -39s-39 16 -39 39zM249 531c0 23 16 39 39 39s39 -16 39 -39s-16 -39 -39 -39s-39 16 -39 39zM211 -5c-112 0 -171 93 -171 205s59 205 171 205s171 -93 171 -205s-59 -205 -171 -205zM211 342
c-79 0 -108 -65 -108 -144s29 -144 108 -144s108 65 108 144s-29 144 -108 144z" />
    <glyph glyph-name="Ucircumflex" unicode="&#xdb;" horiz-adv-x="572" 
d="M298 759h-16c-4 0 -8 -3 -11 -6l-94 -81c-2 -2 -3 -4 -3 -6c0 -1 2 -4 5 -7l22 -21c2 -2 4 -3 7 -3c1 0 3 1 6 2l76 71l76 -71c3 -1 5 -2 6 -2c3 0 5 1 7 3l22 21c3 3 5 6 5 7c0 2 -1 4 -3 6l-94 81c-3 3 -7 6 -11 6zM285 -5c-155 0 -210 87 -210 244v321c0 5 3 8 8 8h47
c5 0 8 -3 8 -8v-300c0 -140 25 -206 148 -206s148 66 148 206v300c0 5 3 8 8 8h47c5 0 8 -3 8 -8v-321c0 -157 -55 -244 -212 -244z" />
    <glyph glyph-name="Udieresis" unicode="&#xdc;" horiz-adv-x="572" 
d="M179 678c0 23 16 39 39 39s39 -16 39 -39s-16 -39 -39 -39s-39 16 -39 39zM326 678c0 23 16 39 39 39s39 -16 39 -39s-16 -39 -39 -39s-39 16 -39 39zM285 -5c-155 0 -210 87 -210 244v321c0 5 3 8 8 8h47c5 0 8 -3 8 -8v-300c0 -140 25 -206 148 -206s148 66 148 206
v300c0 5 3 8 8 8h47c5 0 8 -3 8 -8v-321c0 -157 -55 -244 -212 -244z" />
    <glyph glyph-name="Ydieresis" unicode="&#x178;" horiz-adv-x="485" 
d="M131 678c0 23 16 39 39 39s39 -16 39 -39s-16 -39 -39 -39s-39 16 -39 39zM278 678c0 23 16 39 39 39s39 -16 39 -39s-16 -39 -39 -39s-39 16 -39 39zM274 212v-204c0 -5 -3 -8 -8 -8h-47c-5 0 -8 3 -8 8v204l-186 346c0 7 3 10 10 10h45c7 0 12 -3 15 -10l148 -271
l147 271c3 7 8 10 15 10h45c7 0 10 -3 10 -10z" />
    <glyph glyph-name="Egrave" unicode="&#xc8;" horiz-adv-x="458" 
d="M220 764l49 -114c0 -7 -4 -11 -11 -11h-26c-7 0 -14 6 -17 11l-76 114c0 7 4 11 11 11h59c5 0 10 -10 11 -11zM139 307h187c5 0 8 -3 8 -8v-47c0 -5 -3 -8 -8 -8h-188v-181h252c5 0 8 -3 8 -8v-47c0 -5 -3 -8 -8 -8h-307c-5 0 -8 3 -8 8v552c0 5 3 8 8 8h307
c5 0 8 -3 8 -8v-47c0 -5 -3 -8 -8 -8h-251v-198z" />
    <glyph glyph-name="Eacute" unicode="&#xc9;" horiz-adv-x="458" 
d="M207 650l49 114c1 1 6 11 11 11h59c7 0 11 -4 11 -11l-76 -114c-3 -5 -10 -11 -17 -11h-26c-7 0 -11 4 -11 11zM139 307h187c5 0 8 -3 8 -8v-47c0 -5 -3 -8 -8 -8h-188v-181h252c5 0 8 -3 8 -8v-47c0 -5 -3 -8 -8 -8h-307c-5 0 -8 3 -8 8v552c0 5 3 8 8 8h307
c5 0 8 -3 8 -8v-47c0 -5 -3 -8 -8 -8h-251v-198z" />
    <glyph glyph-name="Ecircumflex" unicode="&#xca;" horiz-adv-x="458" 
d="M246 759h-16c-4 0 -8 -3 -11 -6l-94 -81c-2 -2 -3 -4 -3 -6c0 -1 2 -4 5 -7l22 -21c2 -2 4 -3 7 -3c1 0 3 1 6 2l76 71l76 -71c3 -1 5 -2 6 -2c3 0 5 1 7 3l22 21c3 3 5 6 5 7c0 2 -1 4 -3 6l-94 81c-3 3 -7 6 -11 6zM139 307h187c5 0 8 -3 8 -8v-47c0 -5 -3 -8 -8 -8
h-188v-181h252c5 0 8 -3 8 -8v-47c0 -5 -3 -8 -8 -8h-307c-5 0 -8 3 -8 8v552c0 5 3 8 8 8h307c5 0 8 -3 8 -8v-47c0 -5 -3 -8 -8 -8h-251v-198z" />
    <glyph glyph-name="Edieresis" unicode="&#xcb;" horiz-adv-x="458" 
d="M122 678c0 23 16 39 39 39s39 -16 39 -39s-16 -39 -39 -39s-39 16 -39 39zM269 678c0 23 16 39 39 39s39 -16 39 -39s-16 -39 -39 -39s-39 16 -39 39zM139 307h187c5 0 8 -3 8 -8v-47c0 -5 -3 -8 -8 -8h-188v-181h252c5 0 8 -3 8 -8v-47c0 -5 -3 -8 -8 -8h-307
c-5 0 -8 3 -8 8v552c0 5 3 8 8 8h307c5 0 8 -3 8 -8v-47c0 -5 -3 -8 -8 -8h-251v-198z" />
    <glyph glyph-name="Igrave" unicode="&#xcc;" horiz-adv-x="211" 
d="M137 560v-552c0 -5 -3 -8 -8 -8h-47c-5 0 -8 3 -8 8v552c0 5 3 8 8 8h47c5 0 8 -3 8 -8zM79 764l49 -114c0 -7 -4 -11 -11 -11h-26c-7 0 -14 6 -17 11l-76 114c0 7 4 11 11 11h59c5 0 10 -10 11 -11z" />
    <glyph glyph-name="Iacute" unicode="&#xcd;" horiz-adv-x="211" 
d="M74 8v552c0 5 3 8 8 8h47c5 0 8 -3 8 -8v-552c0 -5 -3 -8 -8 -8h-47c-5 0 -8 3 -8 8zM83 650l49 114c1 1 6 11 11 11h59c7 0 11 -4 11 -11l-76 -114c-3 -5 -10 -11 -17 -11h-26c-7 0 -11 4 -11 11z" />
    <glyph glyph-name="Icircumflex" unicode="&#xce;" horiz-adv-x="211" 
d="M74 8v552c0 5 3 8 8 8h47c5 0 8 -3 8 -8v-552c0 -5 -3 -8 -8 -8h-47c-5 0 -8 3 -8 8zM114 759h-16c-4 0 -8 -3 -11 -6l-94 -81c-2 -2 -3 -4 -3 -6c0 -1 2 -4 5 -7l22 -21c2 -2 4 -3 7 -3c1 0 3 1 6 2l76 71l76 -71c3 -1 5 -2 6 -2c3 0 5 1 7 3l22 21c3 3 5 6 5 7
c0 2 -1 4 -3 6l-94 81c-3 3 -7 6 -11 6z" />
    <glyph glyph-name="Idieresis" unicode="&#xcf;" horiz-adv-x="211" 
d="M74 8v552c0 5 3 8 8 8h47c5 0 8 -3 8 -8v-552c0 -5 -3 -8 -8 -8h-47c-5 0 -8 3 -8 8zM14 678c0 23 16 39 39 39s39 -16 39 -39s-16 -39 -39 -39s-39 16 -39 39zM120 678c0 23 16 39 39 39s39 -16 39 -39s-16 -39 -39 -39s-39 16 -39 39z" />
    <glyph glyph-name="Eth" unicode="&#xd0;" horiz-adv-x="544" 
d="M100 568h136c160 0 273 -126 273 -286s-113 -282 -273 -282h-136c-5 0 -8 3 -8 8v238h-64c-5 0 -8 3 -8 8v47c0 5 3 8 8 8h64v251c0 5 3 8 8 8zM242 246h-87v-183h63c133 0 228 80 228 216c0 135 -95 226 -228 226h-63v-196h87c5 0 8 -3 8 -8v-47c0 -5 -3 -8 -8 -8z" />
    <glyph glyph-name="Ntilde" unicode="&#xd1;" horiz-adv-x="575" 
d="M420 677c-27 -23 -57 -38 -92 -38c-43 0 -72 34 -110 34c-21 0 -39 -6 -54 -17c-1 -1 -3 -1 -5 -1c-4 0 -7 2 -10 6c-23 28 -23 29 -23 30c0 4 2 8 7 11c27 23 52 34 85 34c66 0 64 -34 111 -34c22 0 42 7 60 21c1 1 3 1 5 1c4 0 7 -2 10 -6l21 -26c1 -3 2 -4 2 -4
c0 -5 -2 -9 -7 -11zM75 8v559c2 3 4 4 6 4c4 0 4 -1 7 -4l349 -293v286c0 5 3 8 8 8h47c5 0 8 -3 8 -8v-552c0 -5 -3 -8 -8 -8h-47c-5 0 -8 3 -8 8v187l-299 247v-434c0 -5 -3 -8 -8 -8h-47c-5 0 -8 3 -8 8z" />
    <glyph glyph-name="Yacute" unicode="&#xdd;" horiz-adv-x="485" 
d="M228 650l49 114c1 1 6 11 11 11h59c7 0 11 -4 11 -11l-76 -114c-3 -5 -10 -11 -17 -11h-26c-7 0 -11 4 -11 11zM274 212v-204c0 -5 -3 -8 -8 -8h-47c-5 0 -8 3 -8 8v204l-186 346c0 7 3 10 10 10h45c7 0 12 -3 15 -10l148 -271l147 271c3 7 8 10 15 10h45
c7 0 10 -3 10 -10z" />
    <glyph glyph-name="yacute" unicode="&#xfd;" horiz-adv-x="374" 
d="M164 487l49 114c1 1 6 11 11 11h59c7 0 11 -4 11 -11l-76 -114c-3 -5 -10 -11 -17 -11h-26c-7 0 -11 4 -11 11zM62 -161l96 239l-123 312c0 7 3 10 10 10h43c5 0 12 -3 15 -10l90 -229l92 229c3 7 10 10 15 10h44c7 0 10 -4 10 -11l-224 -550c-5 -7 -10 -10 -15 -10h-43
c-7 0 -10 3 -10 10z" />
    <glyph glyph-name="ugrave" unicode="&#xf9;" 
d="M205 601l49 -114c0 -7 -4 -11 -11 -11h-26c-7 0 -14 6 -17 11l-76 114c0 7 4 11 11 11h59c5 0 10 -10 11 -11zM128 392v-208c0 -75 0 -130 91 -130c81 0 99 72 99 147v191c0 5 3 8 8 8h47c5 0 8 -3 8 -8v-383c0 -6 -3 -9 -9 -9h-32c-6 0 -10 3 -13 9l-5 45
c-31 -55 -77 -59 -115 -59c-130 0 -142 87 -142 203v194c0 5 3 8 8 8h47c5 0 8 -3 8 -8z" />
    <glyph glyph-name="uacute" unicode="&#xfa;" 
d="M201 487l49 114c1 1 6 11 11 11h59c7 0 11 -4 11 -11l-76 -114c-3 -5 -10 -11 -17 -11h-26c-7 0 -11 4 -11 11zM128 392v-208c0 -75 0 -130 91 -130c81 0 99 72 99 147v191c0 5 3 8 8 8h47c5 0 8 -3 8 -8v-383c0 -6 -3 -9 -9 -9h-32c-6 0 -10 3 -13 9l-5 45
c-31 -55 -77 -59 -115 -59c-130 0 -142 87 -142 203v194c0 5 3 8 8 8h47c5 0 8 -3 8 -8z" />
    <glyph glyph-name="ucircumflex" unicode="&#xfb;" 
d="M231 600h-16c-4 0 -8 -3 -11 -6l-94 -81c-2 -2 -3 -4 -3 -6c0 -1 2 -4 5 -7l22 -21c2 -2 4 -3 7 -3c1 0 3 1 6 2l76 71l76 -71c3 -1 5 -2 6 -2c3 0 5 1 7 3l22 21c3 3 5 6 5 7c0 2 -1 4 -3 6l-94 81c-3 3 -7 6 -11 6zM128 392v-208c0 -75 0 -130 91 -130
c81 0 99 72 99 147v191c0 5 3 8 8 8h47c5 0 8 -3 8 -8v-383c0 -6 -3 -9 -9 -9h-32c-6 0 -10 3 -13 9l-5 45c-31 -55 -77 -59 -115 -59c-130 0 -142 87 -142 203v194c0 5 3 8 8 8h47c5 0 8 -3 8 -8z" />
    <glyph glyph-name="scaron" unicode="&#x161;" horiz-adv-x="353" 
d="M172 476h16c4 0 8 3 11 6l94 81c2 2 3 4 3 6c0 1 -2 4 -5 7l-22 21c-2 2 -4 3 -7 3c-1 0 -3 -1 -6 -2l-76 -71l-76 71c-3 1 -5 2 -6 2c-3 0 -5 -1 -7 -3l-22 -21c-3 -3 -5 -6 -5 -7c0 -2 1 -4 3 -6l94 -81c3 -3 7 -6 11 -6zM56 25c-3 3 -6 3 -6 7c0 1 0 3 1 6l13 31
c1 5 5 7 11 7c30 -16 45 -22 90 -22c28 0 79 3 79 44c0 90 -194 60 -194 202c0 71 37 105 129 105c35 0 56 -6 87 -14c4 -3 6 -7 6 -12l-11 -39c-1 -3 -5 -6 -10 -6c-29 7 -40 8 -69 8c-64 0 -69 -20 -69 -47c0 -66 194 -73 194 -186c0 -87 -65 -114 -140 -114
c-39 0 -76 7 -111 30z" />
    <glyph glyph-name="Scaron" unicode="&#x160;" horiz-adv-x="452" 
d="M219 635h16c4 0 8 3 11 6l94 81c2 2 3 4 3 6c0 1 -2 4 -5 7l-22 21c-2 2 -4 3 -7 3c-1 0 -3 -1 -6 -2l-76 -71l-76 71c-3 1 -5 2 -6 2c-3 0 -5 -1 -7 -3l-22 -21c-3 -3 -5 -6 -5 -7c0 -2 1 -4 3 -6l94 -81c3 -3 7 -6 11 -6zM335 497c-33 9 -66 15 -102 15
c-106 0 -110 -71 -110 -91c0 -130 282 -91 282 -284c0 -93 -99 -142 -177 -142c-61 0 -100 9 -161 41c-3 2 -5 5 -5 8c0 2 0 4 1 5l13 33c2 3 5 5 8 5c1 0 3 0 4 -1c33 -14 66 -32 136 -32c67 0 118 29 118 85c0 127 -282 93 -282 283c0 100 59 153 168 153
c53 0 90 -12 131 -27c3 -2 5 -4 5 -7s-1 -6 -2 -7l-16 -34c-1 -3 -2 -4 -5 -4c-2 0 -4 0 -6 1z" />
    <glyph glyph-name="multiply" unicode="&#xd7;" horiz-adv-x="431" 
d="M215 241l92 90c3 3 5 4 8 4c2 0 5 -1 9 -4l28 -28c3 -4 4 -7 4 -9c0 -3 -1 -5 -4 -8l-91 -90l91 -89c3 -3 4 -5 4 -8c0 -2 -1 -5 -4 -9l-28 -28c-4 -3 -7 -4 -9 -4c-3 0 -5 1 -8 4l-92 90l-91 -90c-3 -3 -5 -4 -8 -4c-2 0 -5 1 -9 4l-28 28c-3 4 -4 7 -4 9c0 3 1 5 4 8
l91 89l-91 90c-3 3 -4 5 -4 8c0 2 1 5 4 9l28 28c4 3 7 4 9 4c3 0 5 -1 8 -4z" />
    <glyph glyph-name="divide" unicode="&#xf7;" horiz-adv-x="453" 
d="M83 207h287c5 0 8 -3 8 -8v-47c0 -5 -3 -8 -8 -8h-287c-5 0 -8 3 -8 8v47c0 5 3 8 8 8zM187 34c0 23 16 39 39 39s39 -16 39 -39s-16 -39 -39 -39s-39 16 -39 39zM187 325c0 23 16 39 39 39s39 -16 39 -39s-16 -39 -39 -39s-39 16 -39 39z" />
    <glyph glyph-name="zcaron" unicode="&#x17e;" horiz-adv-x="366" 
d="M174 476h16c4 0 8 3 11 6l94 81c2 2 3 4 3 6c0 1 -2 4 -5 7l-22 21c-2 2 -4 3 -7 3c-1 0 -3 -1 -6 -2l-76 -71l-76 71c-3 1 -5 2 -6 2c-3 0 -5 -1 -7 -3l-22 -21c-3 -3 -5 -6 -5 -7c0 -2 1 -4 3 -6l94 -81c3 -3 7 -6 11 -6zM144 63h169c5 0 8 -3 8 -8v-47
c0 -5 -3 -8 -8 -8h-262c-4 0 -6 2 -6 7c0 3 0 5 1 6l174 324h-167c-5 0 -8 3 -8 8v47c0 5 3 8 8 8h260c5 0 8 -2 8 -7c0 -2 0 -3 -1 -4z" />
    <glyph glyph-name="ordmasculine" unicode="&#xba;" horiz-adv-x="420" 
d="M210 348c44 0 83 34 83 87s-39 83 -83 83s-83 -30 -83 -83s39 -87 83 -87zM210 298c-75 0 -135 64 -135 137s60 133 135 133s135 -60 135 -133s-60 -137 -135 -137z" />
    <glyph glyph-name="guillemotright" unicode="&#xbb;" horiz-adv-x="546" 
d="M391 387l80 -185c0 -3 0 -6 -1 -7l-79 -184c-4 -7 -9 -11 -14 -11h-44c-7 0 -10 3 -10 10l81 189l-81 189c0 7 3 10 10 10h44c5 0 10 -4 14 -11zM143 387l80 -185c0 -3 0 -6 -1 -7l-79 -184c-4 -7 -9 -11 -14 -11h-44c-7 0 -10 3 -10 10l81 189l-81 189c0 7 3 10 10 10
h44c5 0 10 -4 14 -11z" />
    <glyph glyph-name="cent" unicode="&#xa2;" horiz-adv-x="595" 
d="M516 89c3 -4 4 -7 4 -8c0 -2 0 -3 -1 -4c-47 -52 -99 -76 -171 -80v-75c0 -5 -3 -8 -8 -8h-47c-5 0 -8 3 -8 8v76c-137 19 -210 141 -210 288c0 148 73 269 210 288v77c0 5 3 8 8 8h47c5 0 8 -3 8 -8v-76c56 -7 103 -27 146 -62c1 -3 3 -4 3 -5c0 -2 -2 -5 -5 -8l-25 -26
c-3 -3 -7 -5 -10 -5s-5 1 -7 3c-42 32 -75 41 -129 41c-125 0 -183 -103 -183 -229s58 -229 183 -229c47 0 103 9 159 60c1 1 3 2 6 2c5 0 9 -1 12 -4z" />
    <glyph glyph-name="registered" unicode="&#xae;" horiz-adv-x="723" 
d="M361 568c159 0 287 -128 287 -287c0 -157 -128 -286 -287 -286c-157 0 -286 129 -286 286c0 159 129 287 286 287zM361 35c131 0 249 118 249 247c0 131 -118 249 -249 249c-129 0 -247 -118 -247 -249c0 -129 118 -247 247 -247zM296 269h94c33 0 49 36 49 63
s-13 60 -64 60h-79v-123zM434 125l-57 96h-81v-96c0 -5 -2 -7 -7 -7h-41c-5 0 -7 2 -7 7v314c0 5 2 7 7 7h114c104 0 132 -59 132 -119c0 -45 -25 -82 -60 -98l62 -104c0 -5 -2 -7 -7 -7h-46c-5 0 -8 2 -9 7z" />
    <glyph glyph-name="acute" unicode="&#xb4;" horiz-adv-x="280" 
d="M75 443l49 114c1 1 6 11 11 11h59c7 0 11 -4 11 -11l-76 -114c-3 -5 -10 -11 -17 -11h-26c-7 0 -11 4 -11 11z" />
    <glyph glyph-name="brokenbar" unicode="&#xa6;" horiz-adv-x="213" 
d="M138 706v-283c0 -5 -3 -8 -8 -8h-47c-5 0 -8 3 -8 8v283c0 5 3 8 8 8h47c5 0 8 -3 8 -8zM138 120v-283c0 -5 -3 -8 -8 -8h-47c-5 0 -8 3 -8 8v283c0 5 3 8 8 8h47c5 0 8 -3 8 -8z" />
    <glyph glyph-name="dieresis" unicode="&#xa8;" horiz-adv-x="375" 
d="M75 529c0 23 16 39 39 39s39 -16 39 -39s-16 -39 -39 -39s-39 16 -39 39zM222 529c0 23 16 39 39 39s39 -16 39 -39s-16 -39 -39 -39s-39 16 -39 39z" />
    <glyph glyph-name="guillemotleft" unicode="&#xab;" horiz-adv-x="546" 
d="M75 202l80 185c4 7 9 11 14 11h44c7 0 10 -3 10 -10l-81 -189l81 -189c0 -7 -3 -10 -10 -10h-44c-5 0 -10 4 -14 11l-79 184c-1 1 -1 4 -1 7zM323 202l80 185c4 7 9 11 14 11h44c7 0 10 -3 10 -10l-81 -189l81 -189c0 -7 -3 -10 -10 -10h-44c-5 0 -10 4 -14 11l-79 184
c-1 1 -1 4 -1 7z" />
    <glyph glyph-name="Oslash" unicode="&#xd8;" horiz-adv-x="606" 
d="M452 624l-30 -79c85 -48 134 -146 134 -260c0 -160 -93 -290 -253 -290c-31 0 -57 5 -81 12l-23 -61c-4 -7 -9 -11 -14 -11h-25c-7 0 -10 3 -10 10l30 81c-84 48 -130 146 -130 259c0 160 93 290 253 290c28 0 54 -4 78 -12l22 60c4 7 9 11 14 11h25c7 0 10 -3 10 -10z
M303 54c125 0 190 103 190 229c0 88 -30 164 -93 203l-158 -423c18 -6 38 -9 61 -9zM113 283c0 -87 29 -161 88 -200l158 421c-18 5 -37 8 -56 8c-125 0 -190 -103 -190 -229z" />
    <glyph glyph-name="ccedilla" unicode="&#xe7;" horiz-adv-x="358" 
d="M315 22c-35 -20 -62 -27 -103 -27l-4 -31c43 -25 73 -46 73 -77c0 -44 -50 -58 -87 -58c-31 0 -56 6 -83 25c-1 3 -3 3 -3 6c0 1 0 2 1 3l13 19c3 1 5 2 6 2s3 -1 6 -2c8 -5 44 -18 65 -18c13 0 37 3 37 22c0 20 -34 33 -73 53l9 60c-86 19 -132 103 -132 201
c0 112 60 205 172 205c50 0 70 -8 108 -35c2 -2 3 -4 3 -6c0 -3 0 -5 -1 -6l-19 -34c-3 -3 -6 -5 -8 -5s-3 0 -4 1c-1 0 -1 0 -2 1c-28 17 -50 21 -77 21c-79 0 -109 -65 -109 -144s30 -144 109 -144c31 0 50 5 77 16c1 1 3 1 6 1s6 -1 9 -4l14 -31c1 -3 2 -5 2 -8
s-2 -5 -5 -6z" />
    <glyph glyph-name="cedilla" unicode="&#xb8;" horiz-adv-x="323" 
d="M138 -4h41l-4 -32c43 -25 73 -46 73 -77c0 -44 -50 -58 -87 -58c-31 0 -56 6 -83 25c-1 3 -3 3 -3 6c0 1 0 2 1 3l13 19c3 1 5 2 6 2s3 -1 6 -2c8 -5 44 -18 65 -18c13 0 37 3 37 22c0 20 -34 33 -73 53z" />
    <glyph glyph-name="Ccedilla" unicode="&#xc7;" horiz-adv-x="535" 
d="M494 76c-48 -56 -105 -78 -181 -81l-4 -31c43 -25 73 -46 73 -77c0 -44 -50 -58 -87 -58c-31 0 -56 6 -83 25c-1 3 -3 3 -3 6c0 1 0 2 1 3l13 19c3 1 5 2 6 2s3 -1 6 -2c8 -5 44 -18 65 -18c13 0 37 3 37 22c0 20 -34 33 -73 53l7 57c-144 13 -221 137 -221 289
c0 160 86 290 246 290c68 0 122 -23 173 -63c1 -3 3 -4 3 -5c0 -2 -2 -5 -5 -8l-25 -26c-3 -3 -7 -5 -10 -5s-5 1 -7 3c-42 32 -75 41 -129 41c-125 0 -183 -103 -183 -229s58 -229 183 -229c47 0 103 9 159 60c1 1 3 2 6 2c5 0 9 -1 12 -4l18 -24c3 -4 4 -7 4 -8
c0 -2 0 -3 -1 -4z" />
    <glyph glyph-name="oslash" unicode="&#xf8;" horiz-adv-x="422" 
d="M98 -54l27 72c-56 35 -85 102 -85 182c0 112 59 205 171 205c20 0 39 -3 56 -9l16 45c4 7 9 11 14 11h25c7 0 10 -3 10 -10l-25 -67c51 -36 75 -100 75 -175c0 -112 -59 -205 -171 -205c-14 0 -29 2 -44 5l-20 -53c-4 -7 -9 -11 -14 -11h-25c-7 0 -10 3 -10 10zM211 342
c-79 0 -108 -65 -108 -144c0 -52 13 -98 44 -123l98 262c-11 3 -23 5 -34 5zM319 198c0 47 -10 88 -35 115l-96 -257c7 -3 15 -2 23 -2c79 0 108 65 108 144z" />
    <glyph glyph-name="exclamdown" unicode="&#xa1;" horiz-adv-x="228" 
d="M135 425l11 -422c0 -5 -3 -8 -8 -8h-51c-5 0 -8 3 -8 8l10 422c0 5 3 8 8 8h30c5 0 8 -3 8 -8zM75 529c0 23 16 39 39 39s39 -16 39 -39s-16 -39 -39 -39s-39 16 -39 39z" />
    <glyph glyph-name="Thorn" unicode="&#xde;" horiz-adv-x="476" 
d="M138 560v-88h157c85 0 156 -72 156 -179c0 -108 -71 -177 -156 -177h-157v-108c0 -5 -3 -8 -8 -8h-47c-5 0 -8 3 -8 8v552c0 5 3 8 8 8h47c5 0 8 -3 8 -8zM138 175h145c59 0 105 33 105 117s-47 117 -105 117h-145v-234z" />
    <glyph glyph-name="lessequal" unicode="&#x2264;" horiz-adv-x="408" 
d="M325 63h-242c-5 0 -8 -3 -8 -8v-47c0 -5 3 -8 8 -8h242c5 0 8 3 8 8v47c0 5 -3 8 -8 8zM75 223v86c0 7 6 10 13 13l233 90c8 0 12 -4 12 -12v-43c0 -7 -5 -9 -12 -12l-201 -79l201 -79c7 -3 12 -5 12 -12v-43c0 -8 -4 -12 -12 -12l-233 90c-7 3 -13 6 -13 13z" />
    <glyph glyph-name="greaterequal" unicode="&#x2265;" horiz-adv-x="408" 
d="M325 63h-242c-5 0 -8 -3 -8 -8v-47c0 -5 3 -8 8 -8h242c5 0 8 3 8 8v47c0 5 -3 8 -8 8zM333 309v-86c0 -7 -6 -10 -13 -13l-233 -90c-8 0 -12 4 -12 12v43c0 7 5 9 12 12l201 79l-201 79c-7 3 -12 5 -12 12v43c0 8 4 12 12 12l233 -90c7 -3 13 -6 13 -13z" />
    <glyph glyph-name="mu" unicode="&#xb5;" 
d="M65 -163v555c0 5 3 8 8 8h47c5 0 8 -3 8 -8v-208c0 -75 0 -130 91 -130c81 0 99 72 99 147v191c0 5 3 8 8 8h47c5 0 8 -3 8 -8v-383c0 -6 -3 -9 -9 -9h-32c-6 0 -10 3 -13 9l-5 45c-31 -55 -77 -59 -115 -59c-33 0 -56 7 -79 23v-181c0 -5 -3 -8 -8 -8h-47
c-5 0 -8 3 -8 8z" />
    <glyph glyph-name="guilsinglleft" unicode="&#x2039;" horiz-adv-x="408" 
d="M75 157v82c0 7 5 9 12 12l235 118c7 0 11 -4 11 -11v-50c0 -7 -4 -8 -11 -11l-202 -99l202 -99c7 -3 11 -4 11 -11v-50c0 -7 -4 -11 -11 -11l-235 118c-7 3 -12 5 -12 12z" />
    <glyph glyph-name="guilsinglright" unicode="&#x203a;" horiz-adv-x="408" 
d="M333 239v-82c0 -7 -5 -9 -12 -12l-235 -118c-7 0 -11 4 -11 11v50c0 7 4 8 11 11l202 99l-202 99c-7 3 -11 4 -11 11v50c0 7 4 11 11 11l235 -118c7 -3 12 -5 12 -12z" />
    <glyph glyph-name="circumflex" unicode="&#x2c6;" horiz-adv-x="382" 
d="M183 568h16c4 0 8 -3 11 -6l94 -81c2 -2 3 -4 3 -6c0 -1 -2 -4 -5 -7l-22 -21c-2 -2 -4 -3 -7 -3c-1 0 -3 1 -6 2l-76 71l-76 -71c-3 -1 -5 -2 -6 -2c-3 0 -5 1 -7 3l-22 21c-3 3 -5 6 -5 7c0 2 1 4 3 6l94 81c3 3 7 6 11 6z" />
    <glyph glyph-name="caron" unicode="&#x2c7;" horiz-adv-x="382" 
d="M199 444h-16c-4 0 -8 3 -11 6l-94 81c-2 2 -3 4 -3 6c0 1 2 4 5 7l22 21c2 2 4 3 7 3c1 0 3 -1 6 -2l76 -71l76 71c3 1 5 2 6 2c3 0 5 -1 7 -3l22 -21c3 -3 5 -6 5 -7c0 -2 -1 -4 -3 -6l-94 -81c-3 -3 -7 -6 -11 -6z" />
    <glyph glyph-name="breve" unicode="&#x2d8;" horiz-adv-x="464" 
d="M231 445c-91 0 -144 46 -156 113c0 7 3 10 10 10h38c5 0 9 -3 10 -10c19 -51 79 -62 99 -62c18 0 80 11 99 62c1 7 5 10 10 10h38c7 0 10 -3 10 -10c-12 -67 -66 -113 -158 -113z" />
    <glyph glyph-name="germandbls" unicode="&#xdf;" horiz-adv-x="519" 
d="M248 317h43c63 0 110 39 110 96c0 59 -47 99 -110 99h-46c-61 0 -107 -40 -107 -99v-405c0 -5 -3 -8 -8 -8h-47c-5 0 -8 3 -8 8v405c0 91 69 162 173 162h52c90 0 164 -71 164 -162c0 -43 -16 -86 -67 -126c48 -39 67 -88 67 -129c0 -89 -75 -158 -164 -158h-55
c-5 0 -8 3 -8 8v47c0 5 3 8 8 8h45c59 0 111 39 111 95c0 50 -37 96 -90 96h-63c-5 0 -8 3 -8 8v47c0 5 3 8 8 8z" />
    <glyph glyph-name="fraction" unicode="&#x2044;" horiz-adv-x="507" 
d="M432 658l-291 -773c-4 -7 -9 -11 -14 -11h-42c-7 0 -10 3 -10 10l291 773c4 7 9 11 14 11h42c7 0 10 -3 10 -10z" />
    <glyph glyph-name="Zcaron" unicode="&#x17d;" horiz-adv-x="413" 
d="M199 635h16c4 0 8 3 11 6l94 81c2 2 3 4 3 6c0 1 -2 4 -5 7l-22 21c-2 2 -4 3 -7 3c-1 0 -3 -1 -6 -2l-76 -71l-76 71c-3 1 -5 2 -6 2c-3 0 -5 -1 -7 -3l-22 -21c-3 -3 -5 -6 -5 -7c0 -2 1 -4 3 -6l94 -81c3 -3 7 -6 11 -6zM134 63h236c5 0 8 -3 8 -8v-47
c0 -5 -3 -8 -8 -8h-324c-5 0 -8 2 -8 7c0 2 0 3 1 4l243 494h-239c-5 0 -8 3 -8 8v47c0 5 3 8 8 8h327c5 0 8 -2 8 -7c0 -2 0 -3 -1 -4z" />
    <glyph glyph-name="florin" unicode="&#x192;" horiz-adv-x="330" 
d="M319 517c-11 0 -23 4 -38 4c-61 0 -70 -34 -86 -142h91c5 0 8 -3 8 -8v-47c0 -5 -3 -8 -8 -8h-104l-96 -477c-5 -7 -10 -10 -15 -10h-41c-7 0 -10 3 -10 10l98 477h-79c-5 0 -8 3 -8 8v47c0 5 3 8 8 8h92c24 144 47 197 134 197c13 0 43 -2 72 -13c2 -1 3 -3 3 -6
s0 -5 -13 -37c-2 -2 -5 -3 -8 -3z" />
    <glyph glyph-name="eth" unicode="&#xf0;" horiz-adv-x="439" 
d="M95 497h90l-34 61c0 7 3 10 10 10h46c5 0 10 -3 15 -10l34 -61h116c5 0 8 -3 8 -8v-38c0 -5 -3 -8 -8 -8h-86l64 -113c13 -23 49 -84 49 -139c0 -129 -69 -196 -178 -196c-112 0 -181 67 -181 196c0 105 71 178 182 178h34l-41 74h-120c-5 0 -8 3 -8 8v38c0 5 3 8 8 8z
M219 309c-76 0 -116 -35 -116 -124c0 -95 41 -131 117 -131c73 0 116 36 116 131c0 89 -44 124 -117 124z" />
    <glyph glyph-name="paragraph" unicode="&#xb6;" horiz-adv-x="553" 
d="M415 -163v668h-97v-668c0 -5 -3 -8 -8 -8h-47c-5 0 -8 3 -8 8v357c-104 13 -180 92 -180 187c0 94 74 171 166 187h228c6 0 9 -3 9 -9v-722c0 -5 -3 -8 -8 -8h-47c-5 0 -8 3 -8 8z" />
    <glyph glyph-name="uni00AD" unicode="&#xad;" horiz-adv-x="198" 
 />
    <glyph glyph-name="logicalnot" unicode="&#xac;" horiz-adv-x="398" 
d="M83 225h232c5 0 8 -3 8 -8v-164c0 -5 -3 -8 -8 -8h-47c-5 0 -8 3 -8 8v109h-177c-5 0 -8 3 -8 8v47c0 5 3 8 8 8z" />
    <glyph glyph-name="ordfeminine" unicode="&#xaa;" horiz-adv-x="400" 
d="M202 314c4 0 56 2 69 17v56c-7 11 -36 19 -67 19c-37 0 -75 -6 -75 -47c0 -38 41 -45 73 -45zM282 276l-4 18c-27 -30 -78 -31 -87 -31c-32 0 -116 14 -116 100c0 65 42 94 105 94c26 0 75 -5 91 -16c0 39 -20 76 -84 76c-9 0 -46 -2 -69 -10c-1 0 -3 -1 -4 -1
c-5 0 -7 3 -8 6l-11 22c-1 4 -2 5 -2 8s1 5 2 7c43 19 71 19 98 19c97 0 132 -61 132 -145v-147c0 -6 -3 -9 -9 -9h-22c-6 0 -10 3 -12 9z" />
    <glyph glyph-name="sterling" unicode="&#xa3;" horiz-adv-x="533" 
d="M142 293v107c0 141 69 175 152 175c63 0 92 -7 131 -32c3 -1 4 -3 4 -7c0 -2 0 -4 -1 -5l-14 -35c-2 -2 -4 -3 -5 -3c-2 0 -4 1 -7 2c-43 17 -61 21 -90 21c-100 0 -107 -46 -107 -123v-100h133c5 0 8 -3 8 -8v-47c0 -5 -3 -8 -8 -8h-133v-167h245c5 0 8 -3 8 -8v-47
c0 -5 -3 -8 -8 -8h-367c-5 0 -8 3 -8 8v49c0 4 2 6 7 6c31 3 57 29 60 60v107h-59c-5 0 -8 3 -8 8v47c0 5 3 8 8 8h59z" />
    <glyph glyph-name="macron" unicode="&#xaf;" horiz-adv-x="463" 
d="M83 568h297c5 0 8 -3 8 -8v-47c0 -5 -3 -8 -8 -8h-297c-5 0 -8 3 -8 8v47c0 5 3 8 8 8z" />
    <glyph glyph-name="periodcentered" unicode="&#xb7;" horiz-adv-x="248" 
d="M75 188c0 27 21 49 48 49c28 0 50 -22 50 -49s-22 -49 -50 -49c-27 0 -48 22 -48 49z" />
    <glyph glyph-name="section" unicode="&#xa7;" horiz-adv-x="498" 
d="M81 -33c-3 3 -6 3 -6 7c0 1 0 3 1 6l13 31c1 5 5 7 11 7c30 -16 45 -22 90 -22c28 0 79 3 79 44c0 90 -194 60 -194 202c0 64 31 97 103 104c-8 15 -12 33 -12 55c0 71 37 105 129 105c35 0 56 -6 87 -14c4 -3 6 -7 6 -12l-11 -39c-1 -3 -5 -6 -10 -6c-29 7 -40 8 -69 8
c-64 0 -69 -20 -69 -47c0 -66 194 -73 194 -186c0 -73 -46 -104 -105 -112c9 -15 14 -30 14 -47c0 -87 -65 -114 -140 -114c-39 0 -76 7 -111 30zM360 199c0 59 -101 85 -153 85c-64 0 -69 -20 -69 -47c0 -41 98 -82 143 -82c28 0 79 3 79 44z" />
    <glyph glyph-name="OE" unicode="&#x152;" horiz-adv-x="733" 
d="M414 307h187c5 0 8 -3 8 -8v-47c0 -5 -3 -8 -8 -8h-188v-181h252c5 0 8 -3 8 -8v-47c0 -5 -3 -8 -8 -8h-308c-19 -3 -39 -5 -60 -5c-161 0 -247 130 -247 290s86 290 246 290c23 0 43 -3 63 -7h306c5 0 8 -3 8 -8v-47c0 -5 -3 -8 -8 -8h-251v-198zM296 54c17 0 35 1 54 5
v448c-16 3 -33 5 -54 5c-125 0 -183 -103 -183 -229s58 -229 183 -229z" />
    <glyph glyph-name="oe" unicode="&#x153;" horiz-adv-x="684" 
d="M644 200v-22c0 -7 -3 -10 -10 -10h-250c0 -99 64 -114 114 -114c28 0 46 6 78 22c1 1 4 1 7 1s6 -2 9 -5l14 -31c1 -3 2 -5 2 -8s-2 -5 -5 -6c-36 -27 -61 -32 -104 -32c-72 0 -122 25 -151 74c-29 -45 -74 -74 -137 -74c-112 0 -171 93 -171 205s59 205 171 205
c60 0 105 -26 133 -69c23 43 64 69 136 69c136 0 164 -94 164 -205zM211 342c-79 0 -108 -65 -108 -144s29 -144 108 -144s108 65 108 144v11c-3 74 -33 133 -108 133zM384 226h195c0 89 -41 116 -102 116s-93 -29 -93 -116z" />
    <glyph glyph-name="ae" unicode="&#xe6;" horiz-adv-x="636" 
d="M596 200v-22c0 -7 -3 -10 -10 -10h-250c0 -99 64 -114 114 -114c28 0 46 6 78 22c1 1 4 1 7 1s6 -2 9 -5l14 -31c1 -3 2 -5 2 -8s-2 -5 -5 -6c-36 -27 -61 -32 -104 -32c-65 0 -113 21 -144 62c-37 -61 -123 -62 -133 -62c-41 0 -129 8 -129 126c0 84 36 130 115 130
c45 0 84 -11 111 -52c0 109 -15 143 -92 143c-13 0 -42 -3 -71 -10c-4 -1 -5 -2 -8 -2c-4 0 -7 2 -8 7c-11 31 -13 37 -13 41c0 3 2 6 5 8c47 19 72 19 103 19c60 0 96 -19 119 -54c24 33 62 54 126 54c136 0 164 -94 164 -205zM336 226h195c0 89 -41 116 -102 116
s-93 -29 -93 -116zM183 54c23 0 48 9 87 49v30c-23 37 -53 55 -92 55c-63 0 -70 -31 -70 -68s10 -66 75 -66z" />
    <glyph glyph-name="AE" unicode="&#xc6;" horiz-adv-x="857" 
d="M219 195h202v299zM177 132l-82 -122c-5 -7 -10 -10 -15 -10h-50c-7 0 -10 5 -10 12l370 549c5 5 10 7 15 7h384c5 0 8 -3 8 -8v-47c0 -5 -3 -8 -8 -8h-304v-198h240c5 0 8 -3 8 -8v-47c0 -5 -3 -8 -8 -8h-241v-181h305c5 0 8 -3 8 -8v-47c0 -5 -3 -8 -8 -8h-359
c-5 0 -8 3 -9 8v124h-244z" />
    <glyph glyph-name="thorn" unicode="&#xfe;" horiz-adv-x="446" 
d="M75 -162v721c0 6 3 9 9 9h41c5 0 10 -3 13 -9v-199c35 43 93 45 111 45c111 0 157 -84 157 -203c0 -114 -28 -207 -155 -207c-34 0 -72 -1 -113 48v-205c-3 -6 -8 -9 -13 -9h-41c-6 0 -9 3 -9 9zM242 54c77 0 101 40 101 147c0 89 -24 141 -101 141
c-75 0 -104 -50 -104 -141c0 -92 28 -147 104 -147z" />
    <glyph glyph-name="dotlessi" unicode="&#x131;" horiz-adv-x="213" 
d="M138 392v-384c0 -5 -3 -8 -8 -8h-47c-5 0 -8 3 -8 8v384c0 5 3 8 8 8h47c5 0 8 -3 8 -8z" />
    <glyph glyph-name="Lslash" unicode="&#x141;" horiz-adv-x="513" 
d="M239 321l-89 -23v-235h306c5 0 8 -3 8 -8v-47c0 -5 -3 -8 -8 -8h-361c-5 0 -8 3 -8 8v274l-56 -14c-7 0 -11 4 -11 11v42c0 7 5 11 12 11l55 14v214c0 5 3 8 8 8h47c5 0 8 -3 8 -8v-198l90 23c7 0 11 -4 11 -11v-42c0 -7 -5 -11 -12 -11z" />
    <glyph glyph-name="lslash" unicode="&#x142;" horiz-adv-x="231" 
d="M209 315l-66 -17v-290c0 -5 -3 -8 -8 -8h-47c-5 0 -8 3 -8 8v274l-59 -14c-7 0 -11 4 -11 11v42c0 7 5 11 12 11l58 14v221c0 5 3 8 8 8h47c5 0 8 -3 8 -8v-205l67 17c7 0 11 -4 11 -11v-42c0 -7 -5 -11 -12 -11z" />
    <glyph glyph-name="trademark" unicode="&#x2122;" horiz-adv-x="702" 
d="M173 272v250h-92c-4 0 -6 2 -6 7v33c0 4 2 6 6 6h229c4 0 6 -2 6 -6v-33c0 -5 -2 -7 -6 -7h-91v-250c0 -5 -2 -7 -7 -7h-33c-4 0 -6 2 -6 7zM492 367c-1 0 -3 2 -6 5l-80 68v-168c-1 -5 -4 -7 -7 -7h-36c-5 0 -7 2 -7 7v294c2 3 4 4 6 4c4 0 4 -1 7 -4l114 -129
c5 -4 8 -6 9 -6s4 2 9 6l113 129c3 3 3 4 7 4c2 0 4 -1 6 -4v-294c0 -5 -2 -7 -7 -7h-36c-3 0 -6 2 -7 7v168l-79 -68c-3 -3 -5 -5 -6 -5z" />
    <glyph glyph-name="dotaccent" unicode="&#x2d9;" horiz-adv-x="228" 
d="M75 529c0 23 16 39 39 39s39 -16 39 -39s-16 -39 -39 -39s-39 16 -39 39z" />
    <glyph glyph-name="ring" unicode="&#x2da;" horiz-adv-x="342" 
d="M170 568c54 0 97 -44 97 -97c0 -52 -43 -95 -97 -95c-52 0 -95 43 -95 95c0 53 43 97 95 97zM172 426c21 0 40 18 40 45s-19 41 -40 41s-41 -14 -41 -41s20 -45 41 -45z" />
    <glyph glyph-name="currency" unicode="&#xa4;" horiz-adv-x="472" 
d="M236 129c51 0 97 43 97 96s-46 96 -97 96s-97 -43 -97 -96s46 -96 97 -96zM236 82c-34 0 -64 11 -89 32l-41 -36c-3 -1 -4 -2 -4 -2c-1 0 -3 1 -5 3l-20 23c-1 1 -2 3 -2 4s1 2 2 5l40 36c-15 23 -23 48 -23 77c0 31 9 59 28 84l-45 40c-1 3 -2 4 -2 5s1 3 2 4l20 23
c2 2 4 3 5 3c0 0 1 -1 4 -2l47 -42c25 18 53 27 83 27s58 -9 83 -27l47 42c3 1 4 2 4 2c1 0 3 -1 5 -3l20 -23c1 -1 2 -3 2 -4s-1 -2 -2 -5l-45 -40c19 -25 28 -53 28 -84c0 -29 -8 -54 -23 -77l40 -36c1 -3 2 -4 2 -5s-1 -3 -2 -4l-20 -23c-2 -2 -4 -3 -5 -3c0 0 -1 1 -4 2
l-41 36c-24 -20 -54 -32 -89 -32z" />
    <glyph glyph-name="dagger" unicode="&#x2020;" horiz-adv-x="407" 
d="M83 395h89v154c0 5 3 8 8 8h47c5 0 8 -3 8 -8v-154h89c5 0 8 -3 8 -8v-47c0 -5 -3 -8 -8 -8h-89v-505c0 -5 -3 -8 -8 -8h-47c-5 0 -8 3 -8 8v505h-89c-5 0 -8 3 -8 8v47c0 5 3 8 8 8z" />
    <glyph glyph-name="daggerdbl" unicode="&#x2021;" horiz-adv-x="407" 
d="M83 395h90v154c0 5 3 8 8 8h47c5 0 8 -3 8 -8v-154h88c5 0 8 -3 8 -8v-47c0 -5 -3 -8 -8 -8h-88v-269h88c5 0 8 -3 8 -8v-47c0 -5 -3 -8 -8 -8h-88v-173c0 -5 -3 -8 -8 -8h-47c-5 0 -8 3 -8 8v173h-90c-5 0 -8 3 -8 8v47c0 5 3 8 8 8h90v269h-90c-5 0 -8 3 -8 8v47
c0 5 3 8 8 8z" />
    <glyph glyph-name="tilde" unicode="&#x2dc;" horiz-adv-x="451" 
d="M369 509c-27 -23 -57 -38 -92 -38c-43 0 -72 34 -110 34c-21 0 -39 -6 -54 -17c-1 -1 -3 -1 -5 -1c-4 0 -7 2 -10 6c-23 28 -23 29 -23 30c0 4 2 8 7 11c27 23 52 34 85 34c66 0 64 -34 111 -34c22 0 42 7 60 21c1 1 3 1 5 1c4 0 7 -2 10 -6l21 -26c1 -3 2 -4 2 -4
c0 -5 -2 -9 -7 -11z" />
    <glyph glyph-name="ogonek" unicode="&#x2db;" horiz-adv-x="299" 
d="M90 0h39c-3 -8 -12 -23 -12 -35c0 -21 13 -32 38 -32c17 0 32 4 44 11c3 1 5 2 7 2c1 0 3 -1 6 -2l11 -20c1 -1 1 -2 1 -3c0 -3 -2 -4 -3 -7c-20 -17 -43 -23 -72 -23c-39 0 -74 18 -74 61c0 13 6 33 15 48z" />
    <glyph glyph-name="Delta" unicode="&#x2206;" horiz-adv-x="826" 
d="M413 571c3 0 4 -2 7 -3l331 -558c0 -7 -3 -10 -10 -10h-656c-7 0 -10 3 -10 10l331 558c3 1 4 3 7 3zM646 63l-234 392l-232 -392h466z" />
    <glyph glyph-name="pi" unicode="&#x3c0;" horiz-adv-x="654" 
d="M472 342v-333c0 -6 -3 -9 -9 -9h-45c-6 0 -9 3 -9 9v333h-165v-333c0 -6 -3 -9 -9 -9h-45c-6 0 -9 3 -9 9v333h-97c-6 0 -9 3 -9 9v45c0 6 3 9 9 9h486c6 0 9 -3 9 -9v-45c0 -6 -3 -9 -9 -9h-98z" />
    <glyph glyph-name="hungarumlaut" unicode="&#x2dd;" horiz-adv-x="381" 
d="M75 443l37 114c1 1 6 11 11 11h59c7 0 11 -4 11 -11l-64 -114c-3 -5 -10 -11 -17 -11h-26c-7 0 -11 4 -11 11zM188 443l37 114c1 1 6 11 11 11h59c7 0 11 -4 11 -11l-64 -114c-3 -5 -10 -11 -17 -11h-26c-7 0 -11 4 -11 11z" />
    <glyph glyph-name="quotesinglbase" unicode="&#x201a;" horiz-adv-x="227" 
d="M98 -85h-14c-5 0 -7 2 -7 7l21 64c-13 9 -23 22 -23 34c0 23 18 39 38 39c23 0 39 -16 39 -39c0 -4 -3 -13 -4 -14l-40 -83c-2 -5 -5 -8 -10 -8z" />
    <glyph glyph-name="quotedblbase" unicode="&#x201e;" horiz-adv-x="358" 
d="M229 -85h-14c-5 0 -7 2 -7 7l21 64c-13 9 -23 22 -23 34c0 23 18 39 38 39c23 0 39 -16 39 -39c0 -4 -3 -13 -4 -14l-40 -83c-2 -5 -5 -8 -10 -8zM98 -85h-14c-5 0 -7 2 -7 7l21 64c-13 9 -23 22 -23 34c0 23 18 39 38 39c23 0 39 -16 39 -39c0 -4 -3 -13 -4 -14l-40 -83
c-2 -5 -5 -8 -10 -8z" />
    <glyph glyph-name="perthousand" unicode="&#x2030;" horiz-adv-x="1233" 
d="M268 10l296 547c4 7 9 11 14 11h47c7 0 10 -3 10 -10l-296 -547c-4 -7 -9 -11 -14 -11h-47c-7 0 -10 3 -10 10zM215 568c74 0 137 -62 137 -138s-63 -139 -137 -139c-77 0 -140 63 -140 139s63 138 140 138zM214 342c40 0 77 37 77 88s-37 81 -77 81
c-44 0 -81 -28 -81 -81c0 -51 37 -88 81 -88zM690 272c74 0 137 -62 137 -138s-63 -139 -137 -139c-77 0 -140 63 -140 139s63 138 140 138zM689 46c40 0 77 37 77 88s-37 81 -77 81c-44 0 -81 -28 -81 -81c0 -51 37 -88 81 -88zM1021 272c74 0 137 -62 137 -138
s-63 -139 -137 -139c-77 0 -140 63 -140 139s63 138 140 138zM1020 46c40 0 77 37 77 88s-37 81 -77 81c-44 0 -81 -28 -81 -81c0 -51 37 -88 81 -88z" />
    <glyph glyph-name="partialdiff" unicode="&#x2202;" horiz-adv-x="481" 
d="M239 54c76 0 104 55 104 147c0 91 -29 141 -104 141c-77 0 -101 -52 -101 -141c0 -107 24 -147 101 -147zM406 398v-389c0 -6 -3 -9 -9 -9h-32c-6 0 -10 3 -13 9l-5 46c-46 -59 -83 -60 -117 -60c-127 0 -155 93 -155 207c0 119 46 203 157 203c19 0 60 0 111 -46v10
c0 109 -15 143 -92 143c-13 0 -42 -3 -71 -10c-4 -1 -5 -2 -8 -2c-4 0 -7 2 -8 7c-12 32 -13 37 -13 41c0 3 2 6 5 8c47 19 72 19 103 19c114 0 147 -69 147 -177z" />
    <glyph glyph-name="Omega" unicode="&#x2126;" horiz-adv-x="744" 
d="M372 512c-139 0 -173 -86 -173 -222c0 -113 8 -151 40 -216v-74h-156c-5 0 -8 3 -8 8v47c0 5 3 8 8 8h95c-38 75 -41 166 -41 233c0 160 75 279 235 279s235 -119 235 -279c0 -67 -3 -158 -41 -233h95c5 0 8 -3 8 -8v-47c0 -5 -3 -8 -8 -8h-156v74c32 63 40 105 40 216
c0 136 -34 222 -173 222z" />
    <glyph glyph-name="product" unicode="&#x220f;" horiz-adv-x="654" 
d="M472 505v-496c0 -6 -3 -9 -9 -9h-45c-6 0 -9 3 -9 9v496h-165v-496c0 -6 -3 -9 -9 -9h-45c-6 0 -9 3 -9 9v496h-97c-6 0 -9 3 -9 9v45c0 6 3 9 9 9h486c6 0 9 -3 9 -9v-45c0 -6 -3 -9 -9 -9h-98z" />
    <glyph glyph-name="summation" unicode="&#x2211;" horiz-adv-x="449" 
d="M210 212l-135 348c0 5 3 8 8 8h283c5 0 8 -3 8 -8v-47c0 -5 -3 -8 -8 -8h-201l113 -293l-113 -293h201c5 0 8 -3 8 -8v-47c0 -5 -3 -8 -8 -8h-283c-5 0 -8 3 -8 8z" />
    <glyph glyph-name="minus" unicode="&#x2212;" horiz-adv-x="419" 
d="M83 218h253c5 0 8 -3 8 -8v-47c0 -5 -3 -8 -8 -8h-253c-5 0 -8 3 -8 8v47c0 5 3 8 8 8z" />
    <glyph glyph-name="lozenge" unicode="&#x25ca;" horiz-adv-x="544" 
d="M391 280l-119 183l-125 -183l125 -179zM272 568c3 0 4 -2 7 -3l190 -280v-5l-190 -282c-3 -1 -4 -3 -7 -3s-4 2 -7 3l-190 282v5l190 280c3 1 4 3 7 3z" />
    <glyph glyph-name="notequal" unicode="&#x2260;" horiz-adv-x="365" 
d="M284 392l-36 -93h34c5 0 8 -3 8 -8v-47c0 -5 -3 -8 -8 -8h-58l-36 -93h94c5 0 8 -3 8 -8v-47c0 -5 -3 -8 -8 -8h-118l-28 -74c-4 -7 -9 -11 -14 -11h-35c-7 0 -10 3 -10 10l29 75h-23c-5 0 -8 3 -8 8v47c0 5 3 8 8 8h47l35 93h-82c-5 0 -8 3 -8 8v47c0 5 3 8 8 8h106
l36 92c4 7 9 11 14 11h35c7 0 10 -3 10 -10z" />
    <glyph glyph-name="radical" unicode="&#x221a;" horiz-adv-x="694" 
d="M491 576l-241 -579c-3 -1 -5 -2 -6 -2s-3 1 -6 2l-163 393c0 7 3 10 10 10h45c5 0 10 -3 15 -10l99 -243l199 482c5 7 10 10 15 10h153c5 0 8 -3 8 -8v-47c0 -5 -3 -8 -8 -8h-120z" />
    <glyph glyph-name="infinity" unicode="&#x221e;" horiz-adv-x="1006" 
d="M503 176c-78 -80 -143 -100 -226 -100c-100 0 -202 56 -202 173c0 109 75 175 202 175c68 0 164 -30 226 -129c62 99 157 129 226 129c127 0 202 -66 202 -175c0 -117 -102 -173 -202 -173c-83 0 -148 20 -226 100zM277 361c-55 0 -139 -20 -139 -113
c0 -72 65 -113 139 -113c76 0 143 27 199 99c-61 95 -126 127 -199 127zM729 361c-75 0 -138 -32 -199 -127c56 -72 123 -99 199 -99c74 0 139 41 139 113c0 93 -84 113 -139 113z" />
    <glyph glyph-name="integral" unicode="&#x222b;" horiz-adv-x="427" 
d="M280 568c15 0 46 -2 69 -15c2 0 3 -1 3 -4s0 -4 -1 -4l-12 -35c-1 -1 -4 -2 -8 -2c-12 3 -33 7 -44 7c-36 0 -42 -18 -42 -98v-407c0 -145 -18 -181 -98 -181c-15 0 -46 2 -69 15c-2 0 -3 1 -3 4s0 4 1 4l12 35c1 1 4 2 8 2c12 -3 33 -7 44 -7c40 0 42 23 42 139
c0 355 1 391 1 397c0 69 5 150 97 150z" />
    <glyph glyph-name="approxequal" unicode="&#x2248;" horiz-adv-x="451" 
d="M369 114c-27 -23 -57 -38 -92 -38c-43 0 -72 34 -110 34c-21 0 -39 -6 -54 -17c-1 -1 -3 -1 -5 -1c-4 0 -7 2 -10 6c-23 28 -23 29 -23 30c0 4 2 8 7 11c27 23 52 34 85 34c66 0 64 -34 111 -34c22 0 42 7 60 21c1 1 3 1 5 1c4 0 7 -2 10 -6l21 -26c1 -3 2 -4 2 -4
c0 -5 -2 -9 -7 -11zM369 259c-27 -23 -57 -38 -92 -38c-43 0 -72 34 -110 34c-21 0 -39 -6 -54 -17c-1 -1 -3 -1 -5 -1c-4 0 -7 2 -10 6c-23 28 -23 29 -23 30c0 4 2 8 7 11c27 23 52 34 85 34c66 0 64 -34 111 -34c22 0 42 7 60 21c1 1 3 1 5 1c4 0 7 -2 10 -6l21 -26
c1 -3 2 -4 2 -4c0 -5 -2 -9 -7 -11z" />
    <glyph glyph-name="udieresis" unicode="&#xfc;" 
d="M106 531c0 23 16 39 39 39s39 -16 39 -39s-16 -39 -39 -39s-39 16 -39 39zM256 531c0 23 16 39 39 39s39 -16 39 -39s-16 -39 -39 -39s-39 16 -39 39zM128 392v-208c0 -75 0 -130 91 -130c81 0 99 72 99 147v191c0 5 3 8 8 8h47c5 0 8 -3 8 -8v-383c0 -6 -3 -9 -9 -9h-32
c-6 0 -10 3 -13 9l-5 45c-31 -55 -77 -59 -115 -59c-130 0 -142 87 -142 203v194c0 5 3 8 8 8h47c5 0 8 -3 8 -8z" />
    <glyph glyph-name="aogonek" unicode="&#x105;" horiz-adv-x="403" 
d="M183 54c23 0 48 9 87 49v30c-23 37 -53 55 -92 55c-63 0 -70 -31 -70 -68s10 -66 75 -66zM278 16l-3 29c-26 -50 -93 -50 -101 -50c-41 0 -129 8 -129 126c0 84 36 130 115 130c45 0 84 -11 111 -52c0 109 -15 143 -92 143c-13 0 -42 -3 -71 -10c-4 -1 -5 -2 -8 -2
c-4 0 -7 2 -8 7c-9 27 -13 37 -13 41c0 3 2 6 5 8c47 19 72 19 103 19c114 0 146 -70 146 -178v-218c0 -22 -56 -19 -56 -46c0 -11 8 -11 13 -11c8 0 10 2 21 7c5 2 8 2 9 0l11 -24c0 -1 1 -1 1 -2s0 -1 1 -2c0 -2 -1 -4 -3 -6c-11 -11 -23 -17 -46 -17c-28 0 -61 13 -61 43
c0 19 11 42 55 65z" />
    <glyph glyph-name="Zdotaccent" unicode="&#x17b;" horiz-adv-x="413" 
d="M164 678c0 23 16 39 39 39s39 -16 39 -39s-16 -39 -39 -39s-39 16 -39 39zM134 63h236c5 0 8 -3 8 -8v-47c0 -5 -3 -8 -8 -8h-324c-5 0 -8 2 -8 6c0 2 0 4 1 5l243 494h-239c-5 0 -8 3 -8 8v47c0 5 3 8 8 8h327c5 0 8 -2 8 -6c0 -2 0 -4 -1 -5z" />
    <glyph glyph-name="Zacute" unicode="&#x179;" horiz-adv-x="413" 
d="M187 650l49 114c1 1 6 11 11 11h59c7 0 11 -4 11 -11l-76 -114c-3 -5 -10 -11 -17 -11h-26c-7 0 -11 4 -11 11zM134 63h236c5 0 8 -3 8 -8v-47c0 -5 -3 -8 -8 -8h-324c-5 0 -8 2 -8 6c0 2 0 4 1 5l243 494h-239c-5 0 -8 3 -8 8v47c0 5 3 8 8 8h327c5 0 8 -2 8 -6
c0 -2 0 -4 -1 -5z" />
    <glyph glyph-name="Tcaron" unicode="&#x164;" horiz-adv-x="436" 
d="M210 635h16c4 0 8 3 11 6l94 81c2 2 3 4 3 6c0 1 -2 4 -5 7l-22 21c-2 2 -4 3 -7 3c-1 0 -3 -1 -6 -2l-76 -71l-76 71c-3 1 -5 2 -6 2c-3 0 -5 -1 -7 -3l-22 -21c-3 -3 -5 -6 -5 -7c0 -2 1 -4 3 -6l94 -81c3 -3 7 -6 11 -6zM43 568h350c5 0 8 -3 8 -8v-47
c0 -5 -3 -8 -8 -8h-143v-497c0 -5 -3 -8 -8 -8h-47c-5 0 -8 3 -8 8v497h-144c-5 0 -8 3 -8 8v47c0 5 3 8 8 8z" />
    <glyph glyph-name="Scedilla" unicode="&#x15e;" horiz-adv-x="452" 
d="M335 497c-33 9 -66 15 -102 15c-106 0 -110 -71 -110 -91c0 -130 282 -91 282 -284c0 -86 -84 -133 -158 -141l-3 -32c43 -25 73 -46 73 -77c0 -44 -50 -58 -87 -58c-31 0 -56 6 -83 25c-1 3 -3 3 -3 6c0 1 0 2 1 3l13 19c3 1 5 2 6 2s3 -1 6 -2c8 -5 44 -18 65 -18
c13 0 37 3 37 22c0 20 -34 33 -73 53l8 57c-51 3 -87 12 -140 40c-3 2 -5 5 -5 8c0 2 0 4 1 5l13 33c2 3 5 5 8 5c1 0 3 0 4 -1c33 -14 66 -32 136 -32c67 0 118 29 118 85c0 127 -282 93 -282 283c0 100 59 153 168 153c53 0 90 -12 131 -27c3 -2 5 -4 5 -7s-1 -6 -2 -7
l-16 -34c-1 -3 -2 -4 -5 -4c-2 0 -4 0 -6 1z" />
    <glyph glyph-name="Abreve" unicode="&#x102;" horiz-adv-x="516" 
d="M257 639c-91 0 -144 46 -156 113c0 7 3 10 10 10h38c5 0 9 -3 10 -10c19 -51 79 -62 99 -62c18 0 80 11 99 62c1 7 5 10 10 10h38c7 0 10 -3 10 -10c-12 -67 -66 -113 -158 -113zM258 573c1 0 3 -1 6 -2l227 -561c0 -7 -3 -10 -10 -10h-43c-5 0 -10 3 -15 10l-48 120
h-233l-49 -120c-5 -7 -10 -10 -15 -10h-43c-7 0 -10 3 -10 10l227 561c3 1 5 2 6 2zM258 417l-91 -224h182z" />
    <glyph glyph-name="Racute" unicode="&#x154;" horiz-adv-x="484" 
d="M194 650l49 114c1 1 6 11 11 11h59c7 0 11 -4 11 -11l-76 -114c-3 -5 -10 -11 -17 -11h-26c-7 0 -11 4 -11 11zM439 389c0 -88 -47 -150 -94 -171l88 -208c0 -7 -3 -10 -10 -10h-49c-5 0 -10 3 -15 10l-84 202h-137v-204c0 -5 -3 -8 -8 -8h-47c-5 0 -8 3 -8 8v552
c0 5 3 8 8 8h200c85 0 156 -72 156 -179zM138 505v-234h133c59 0 105 33 105 117s-47 117 -105 117h-133z" />
    <glyph glyph-name="zdotaccent" unicode="&#x17c;" horiz-adv-x="366" 
d="M145 531c0 23 16 39 39 39s39 -16 39 -39s-16 -39 -39 -39s-39 16 -39 39zM144 63h169c5 0 8 -3 8 -8v-47c0 -5 -3 -8 -8 -8h-262c-4 0 -6 2 -6 7c0 3 0 5 1 6l174 324h-167c-5 0 -8 3 -8 8v47c0 5 3 8 8 8h260c5 0 8 -2 8 -6c0 -2 0 -4 -1 -5z" />
    <glyph glyph-name="Sacute" unicode="&#x15a;" horiz-adv-x="452" 
d="M207 650l49 114c1 1 6 11 11 11h59c7 0 11 -4 11 -11l-76 -114c-3 -5 -10 -11 -17 -11h-26c-7 0 -11 4 -11 11zM335 497c-33 9 -66 15 -102 15c-106 0 -110 -71 -110 -91c0 -130 282 -91 282 -284c0 -93 -99 -142 -177 -142c-61 0 -100 9 -161 41c-3 2 -5 5 -5 8
c0 2 0 4 1 5l13 33c2 3 5 5 8 5c1 0 3 0 4 -1c33 -14 66 -32 136 -32c67 0 118 29 118 85c0 127 -282 93 -282 283c0 100 59 153 168 153c53 0 90 -12 131 -27c3 -2 5 -4 5 -7s-1 -6 -2 -7l-16 -34c-1 -3 -2 -4 -5 -4c-2 0 -4 0 -6 1z" />
    <glyph glyph-name="Lcaron" unicode="&#x13d;" horiz-adv-x="440" 
d="M240 424h-14c-5 0 -7 2 -7 7l21 64c-13 9 -23 22 -23 34c0 23 18 39 38 39c23 0 39 -16 39 -39c0 -4 -3 -13 -4 -14l-40 -83c-2 -5 -5 -8 -10 -8zM383 0h-300c-5 0 -8 3 -8 8v552c0 5 3 8 8 8h47c5 0 8 -3 8 -8v-497h245c5 0 8 -3 8 -8v-47c0 -5 -3 -8 -8 -8z" />
    <glyph glyph-name="Cacute" unicode="&#x106;" horiz-adv-x="535" 
d="M264 650l49 114c1 1 6 11 11 11h59c7 0 11 -4 11 -11l-76 -114c-3 -5 -10 -11 -17 -11h-26c-7 0 -11 4 -11 11zM494 76c-51 -59 -113 -81 -197 -81c-161 0 -247 130 -247 290s86 290 246 290c68 0 122 -23 173 -63c1 -3 3 -4 3 -5c0 -2 -2 -5 -5 -8l-25 -26
c-3 -3 -7 -5 -10 -5s-5 1 -7 3c-42 32 -75 41 -129 41c-125 0 -183 -103 -183 -229s58 -229 183 -229c47 0 103 9 159 60c1 1 3 2 6 2c5 0 9 -1 12 -4l18 -24c3 -4 4 -7 4 -8c0 -2 0 -3 -1 -4z" />
    <glyph glyph-name="racute" unicode="&#x155;" horiz-adv-x="270" 
d="M113 487l49 114c1 1 6 11 11 11h59c7 0 11 -4 11 -11l-76 -114c-3 -5 -10 -11 -17 -11h-26c-7 0 -11 4 -11 11zM255 397v-47c0 -5 -3 -8 -8 -8h-21c-86 0 -88 -72 -88 -143v-190c-3 -6 -8 -9 -13 -9h-41c-6 0 -9 3 -9 9v383c0 5 3 8 8 8h39c5 0 8 -3 8 -8l6 -38
c31 50 62 51 92 51h19c5 0 8 -3 8 -8z" />
    <glyph glyph-name="cacute" unicode="&#x107;" horiz-adv-x="358" 
d="M171 487l49 114c1 1 6 11 11 11h59c7 0 11 -4 11 -11l-76 -114c-3 -5 -10 -11 -17 -11h-26c-7 0 -11 4 -11 11zM315 22c-35 -20 -62 -27 -103 -27c-112 0 -172 93 -172 205s60 205 172 205c50 0 70 -8 108 -35c2 -2 3 -4 3 -6c0 -3 0 -5 -1 -6l-19 -34c-3 -3 -6 -5 -8 -5
s-3 0 -4 1c-1 0 -1 0 -2 1c-28 17 -50 21 -77 21c-79 0 -109 -65 -109 -144s30 -144 109 -144c31 0 50 5 77 16c1 1 3 1 6 1s6 -1 9 -4l14 -31c1 -3 2 -5 2 -8s-2 -5 -5 -6z" />
    <glyph glyph-name="zacute" unicode="&#x17a;" horiz-adv-x="366" 
d="M149 487l49 114c1 1 6 11 11 11h59c7 0 11 -4 11 -11l-76 -114c-3 -5 -10 -11 -17 -11h-26c-7 0 -11 4 -11 11zM144 63h169c5 0 8 -3 8 -8v-47c0 -5 -3 -8 -8 -8h-262c-4 0 -6 2 -6 7c0 3 0 5 1 6l174 324h-167c-5 0 -8 3 -8 8v47c0 5 3 8 8 8h260c5 0 8 -2 8 -6
c0 -2 0 -4 -1 -5z" />
    <glyph glyph-name="scedilla" unicode="&#x15f;" horiz-adv-x="353" 
d="M56 25c-3 3 -6 3 -6 7c0 1 0 3 1 6l13 31c1 5 5 7 11 7c30 -16 45 -22 90 -22c28 0 79 3 79 44c0 90 -194 60 -194 202c0 71 37 105 129 105c35 0 56 -6 87 -14c4 -3 6 -7 6 -12l-11 -39c-1 -3 -5 -6 -10 -6c-29 7 -40 8 -69 8c-64 0 -69 -20 -69 -47
c0 -66 194 -73 194 -186c0 -77 -52 -108 -117 -113l-4 -32c43 -25 73 -46 73 -77c0 -44 -50 -58 -87 -58c-31 0 -56 6 -83 25c-1 3 -3 3 -3 6c0 1 0 2 1 3l13 19c3 1 5 2 6 2s3 -1 6 -2c8 -5 44 -18 65 -18c13 0 37 3 37 22c0 20 -34 33 -73 53l7 57c-32 3 -64 9 -92 29z
" />
    <glyph glyph-name="sacute" unicode="&#x15b;" horiz-adv-x="353" 
d="M134 487l49 114c1 1 6 11 11 11h59c7 0 11 -4 11 -11l-76 -114c-3 -5 -10 -11 -17 -11h-26c-7 0 -11 4 -11 11zM56 25c-3 3 -6 3 -6 7c0 1 0 3 1 6l13 31c1 5 5 7 11 7c30 -16 45 -22 90 -22c28 0 79 3 79 44c0 90 -194 60 -194 202c0 71 37 105 129 105
c35 0 56 -6 87 -14c4 -3 6 -7 6 -12l-11 -39c-1 -3 -5 -6 -10 -6c-29 7 -40 8 -69 8c-64 0 -69 -20 -69 -47c0 -66 194 -73 194 -186c0 -87 -65 -114 -140 -114c-39 0 -76 7 -111 30z" />
    <glyph glyph-name="tcaron" unicode="&#x165;" horiz-adv-x="401" 
d="M337 424h-14c-5 0 -7 2 -7 7l21 64c-13 9 -23 22 -23 34c0 23 18 39 38 39c23 0 39 -16 39 -39c0 -4 -3 -13 -4 -14l-40 -83c-2 -5 -5 -8 -10 -8zM245 55c4 0 7 -2 8 -5l8 -41c1 -1 1 -2 1 -5c0 -4 -1 -6 -4 -6c-15 -3 -25 -3 -48 -3c-80 0 -105 42 -105 170v177h-67
c-5 0 -8 3 -8 8v47c0 5 3 8 8 8h67v155c0 5 3 8 8 8h47c5 0 8 -3 8 -8v-155h74c5 0 8 -3 8 -8v-47c0 -5 -3 -8 -8 -8h-74v-146c0 -115 1 -142 60 -142c9 0 13 1 17 1z" />
    <glyph glyph-name="nacute" unicode="&#x144;" 
d="M207 487l49 114c1 1 6 11 11 11h59c7 0 11 -4 11 -11l-76 -114c-3 -5 -10 -11 -17 -11h-26c-7 0 -11 4 -11 11zM328 8v204c0 75 0 130 -91 130c-81 0 -99 -72 -99 -147v-187c0 -5 -3 -8 -8 -8h-47c-5 0 -8 3 -8 8v383c0 6 3 9 9 9h32c5 0 10 -3 13 -9l5 -49
c31 55 77 63 115 63c130 0 142 -87 142 -203v-194c0 -5 -3 -8 -8 -8h-47c-5 0 -8 3 -8 8z" />
    <glyph glyph-name="ncaron" unicode="&#x148;" 
d="M231 476h16c4 0 8 3 11 6l94 81c2 2 3 4 3 6c0 1 -2 4 -5 7l-22 21c-2 2 -4 3 -7 3c-1 0 -3 -1 -6 -2l-76 -71l-76 71c-3 1 -5 2 -6 2c-3 0 -5 -1 -7 -3l-22 -21c-3 -3 -5 -6 -5 -7c0 -2 1 -4 3 -6l94 -81c3 -3 7 -6 11 -6zM328 8v204c0 75 0 130 -91 130
c-81 0 -99 -72 -99 -147v-187c0 -5 -3 -8 -8 -8h-47c-5 0 -8 3 -8 8v383c0 6 3 9 9 9h32c5 0 10 -3 13 -9l5 -49c31 55 77 63 115 63c130 0 142 -87 142 -203v-194c0 -5 -3 -8 -8 -8h-47c-5 0 -8 3 -8 8z" />
    <glyph glyph-name="ecaron" unicode="&#x11b;" horiz-adv-x="405" 
d="M196 476h16c4 0 8 3 11 6l94 81c2 2 3 4 3 6c0 1 -2 4 -5 7l-22 21c-2 2 -4 3 -7 3c-1 0 -3 -1 -6 -2l-76 -71l-76 71c-3 1 -5 2 -6 2c-3 0 -5 -1 -7 -3l-22 -21c-3 -3 -5 -6 -5 -7c0 -2 1 -4 3 -6l94 -81c3 -3 7 -6 11 -6zM105 226h195c0 89 -41 116 -102 116
s-93 -29 -93 -116zM355 168h-250c0 -99 64 -114 114 -114c28 0 46 6 78 22c1 1 4 1 7 1s6 -2 9 -5l14 -31c1 -3 2 -5 2 -8s-2 -5 -5 -6c-36 -27 -61 -32 -104 -32c-117 0 -180 64 -180 205c0 111 25 205 161 205s164 -94 164 -205v-22c0 -7 -3 -10 -10 -10z" />
    <glyph glyph-name="eogonek" unicode="&#x119;" horiz-adv-x="405" 
d="M105 226h195c0 89 -41 116 -102 116s-93 -29 -93 -116zM355 168h-250c0 -99 64 -114 114 -114c28 0 46 6 78 22c1 1 4 1 7 1s6 -2 9 -5l14 -31c1 -3 2 -5 2 -8s-2 -5 -5 -6c-33 -24 -56 -31 -92 -32c-4 -9 -10 -21 -10 -30c0 -21 13 -32 38 -32c17 0 32 4 44 11
c3 1 5 2 7 2c1 0 3 -1 6 -2l11 -20c1 -1 1 -2 1 -3c0 -3 -2 -4 -3 -7c-20 -17 -43 -23 -72 -23c-39 0 -74 18 -74 61c0 11 6 30 11 45c-99 9 -151 74 -151 203c0 111 25 205 161 205s164 -94 164 -205v-22c0 -7 -3 -10 -10 -10z" />
    <glyph glyph-name="ccaron" unicode="&#x10d;" horiz-adv-x="358" 
d="M182 476h16c4 0 8 3 11 6l94 81c2 2 3 4 3 6c0 1 -2 4 -5 7l-22 21c-2 2 -4 3 -7 3c-1 0 -3 -1 -6 -2l-76 -71l-76 71c-3 1 -5 2 -6 2c-3 0 -5 -1 -7 -3l-22 -21c-3 -3 -5 -6 -5 -7c0 -2 1 -4 3 -6l94 -81c3 -3 7 -6 11 -6zM315 22c-35 -20 -62 -27 -103 -27
c-112 0 -172 93 -172 205s60 205 172 205c50 0 70 -8 108 -35c2 -2 3 -4 3 -6c0 -3 0 -5 -1 -6l-19 -34c-3 -3 -6 -5 -8 -5s-3 0 -4 1c-1 0 -1 0 -2 1c-28 17 -50 21 -77 21c-79 0 -109 -65 -109 -144s30 -144 109 -144c31 0 50 5 77 16c1 1 3 1 6 1s6 -1 9 -4l14 -31
c1 -3 2 -5 2 -8s-2 -5 -5 -6z" />
    <glyph glyph-name="Eogonek" unicode="&#x118;" horiz-adv-x="458" 
d="M139 307h187c5 0 8 -3 8 -8v-47c0 -5 -3 -8 -8 -8h-188v-181h252c5 0 8 -3 8 -8v-47c0 -5 -3 -8 -8 -8h-90c-4 -11 -9 -27 -9 -35c0 -21 13 -32 38 -32c17 0 32 4 44 11c3 1 5 2 7 2c1 0 3 -1 6 -2l11 -20c1 -1 1 -2 1 -3c0 -3 -2 -4 -3 -7c-20 -17 -43 -23 -72 -23
c-39 0 -74 18 -74 61c0 11 6 33 13 48h-179c-5 0 -8 3 -8 8v552c0 5 3 8 8 8h307c5 0 8 -3 8 -8v-47c0 -5 -3 -8 -8 -8h-251v-198z" />
    <glyph glyph-name="ohungarumlaut" unicode="&#x151;" horiz-adv-x="422" 
d="M128 487l37 114c1 1 6 11 11 11h59c7 0 11 -4 11 -11l-64 -114c-3 -5 -10 -11 -17 -11h-26c-7 0 -11 4 -11 11zM241 487l37 114c1 1 6 11 11 11h59c7 0 11 -4 11 -11l-64 -114c-3 -5 -10 -11 -17 -11h-26c-7 0 -11 4 -11 11zM211 -5c-112 0 -171 93 -171 205
s59 205 171 205s171 -93 171 -205s-59 -205 -171 -205zM211 342c-79 0 -108 -65 -108 -144s29 -144 108 -144s108 65 108 144s-29 144 -108 144z" />
    <glyph glyph-name="Ohungarumlaut" unicode="&#x150;" horiz-adv-x="606" 
d="M303 54c125 0 190 103 190 229s-65 229 -190 229s-190 -103 -190 -229s65 -229 190 -229zM303 -5c-160 0 -253 130 -253 290s93 290 253 290s253 -130 253 -290s-93 -290 -253 -290zM220 650l37 114c1 1 6 11 11 11h59c7 0 11 -4 11 -11l-64 -114c-3 -5 -10 -11 -17 -11
h-26c-7 0 -11 4 -11 11zM333 650l37 114c1 1 6 11 11 11h59c7 0 11 -4 11 -11l-64 -114c-3 -5 -10 -11 -17 -11h-26c-7 0 -11 4 -11 11z" />
    <glyph glyph-name="Ncaron" unicode="&#x147;" horiz-adv-x="575" 
d="M272 635h16c4 0 8 3 11 6l94 81c2 2 3 4 3 6c0 1 -2 4 -5 7l-22 21c-2 2 -4 3 -7 3c-1 0 -3 -1 -6 -2l-76 -71l-76 71c-3 1 -5 2 -6 2c-3 0 -5 -1 -7 -3l-22 -21c-3 -3 -5 -6 -5 -7c0 -2 1 -4 3 -6l94 -81c3 -3 7 -6 11 -6zM75 8v559c2 3 4 4 6 4c4 0 4 -1 7 -4l349 -293
v286c0 5 3 8 8 8h47c5 0 8 -3 8 -8v-552c0 -5 -3 -8 -8 -8h-47c-5 0 -8 3 -8 8v187l-299 247v-434c0 -5 -3 -8 -8 -8h-47c-5 0 -8 3 -8 8z" />
    <glyph glyph-name="Nacute" unicode="&#x143;" horiz-adv-x="575" 
d="M241 650l49 114c1 1 6 11 11 11h59c7 0 11 -4 11 -11l-76 -114c-3 -5 -10 -11 -17 -11h-26c-7 0 -11 4 -11 11zM75 8v559c2 3 4 4 6 4c4 0 4 -1 7 -4l349 -293v286c0 5 3 8 8 8h47c5 0 8 -3 8 -8v-552c0 -5 -3 -8 -8 -8h-47c-5 0 -8 3 -8 8v187l-299 247v-434
c0 -5 -3 -8 -8 -8h-47c-5 0 -8 3 -8 8z" />
    <glyph glyph-name="Dcroat" unicode="&#x110;" horiz-adv-x="544" 
d="M100 568h136c160 0 273 -126 273 -286s-113 -282 -273 -282h-136c-5 0 -8 3 -8 8v238h-64c-5 0 -8 3 -8 8v47c0 5 3 8 8 8h64v251c0 5 3 8 8 8zM242 246h-87v-183h63c133 0 228 80 228 216c0 135 -95 226 -228 226h-63v-196h87c5 0 8 -3 8 -8v-47c0 -5 -3 -8 -8 -8z" />
    <glyph glyph-name="Lacute" unicode="&#x139;" horiz-adv-x="440" 
d="M75 650l49 114c1 1 6 11 11 11h59c7 0 11 -4 11 -11l-76 -114c-3 -5 -10 -11 -17 -11h-26c-7 0 -11 4 -11 11zM383 0h-300c-5 0 -8 3 -8 8v552c0 5 3 8 8 8h47c5 0 8 -3 8 -8v-497h245c5 0 8 -3 8 -8v-47c0 -5 -3 -8 -8 -8z" />
    <glyph glyph-name="lcaron" unicode="&#x13e;" horiz-adv-x="292" 
d="M138 560v-552c0 -5 -3 -8 -8 -8h-47c-5 0 -8 3 -8 8v552c0 5 3 8 8 8h47c5 0 8 -3 8 -8zM228 424h-14c-5 0 -7 2 -7 7l21 64c-13 9 -23 22 -23 34c0 23 18 39 38 39c23 0 39 -16 39 -39c0 -4 -3 -13 -4 -14l-40 -83c-2 -5 -5 -8 -10 -8z" />
    <glyph glyph-name="Ccaron" unicode="&#x10c;" horiz-adv-x="535" 
d="M288 635h16c4 0 8 3 11 6l94 81c2 2 3 4 3 6c0 1 -2 4 -5 7l-22 21c-2 2 -4 3 -7 3c-1 0 -3 -1 -6 -2l-76 -71l-76 71c-3 1 -5 2 -6 2c-3 0 -5 -1 -7 -3l-22 -21c-3 -3 -5 -6 -5 -7c0 -2 1 -4 3 -6l94 -81c3 -3 7 -6 11 -6zM494 76c-51 -59 -113 -81 -197 -81
c-161 0 -247 130 -247 290s86 290 246 290c68 0 122 -23 173 -63c1 -3 3 -4 3 -5c0 -2 -2 -5 -5 -8l-25 -26c-3 -3 -7 -5 -10 -5s-5 1 -7 3c-42 32 -75 41 -129 41c-125 0 -183 -103 -183 -229s58 -229 183 -229c47 0 103 9 159 60c1 1 3 2 6 2c5 0 9 -1 12 -4l18 -24
c3 -4 4 -7 4 -8c0 -2 0 -3 -1 -4z" />
    <glyph glyph-name="Ecaron" unicode="&#x11a;" horiz-adv-x="458" 
d="M232 635h16c4 0 8 3 11 6l94 81c2 2 3 4 3 6c0 1 -2 4 -5 7l-22 21c-2 2 -4 3 -7 3c-1 0 -3 -1 -6 -2l-76 -71l-76 71c-3 1 -5 2 -6 2c-3 0 -5 -1 -7 -3l-22 -21c-3 -3 -5 -6 -5 -7c0 -2 1 -4 3 -6l94 -81c3 -3 7 -6 11 -6zM139 307h187c5 0 8 -3 8 -8v-47
c0 -5 -3 -8 -8 -8h-188v-181h252c5 0 8 -3 8 -8v-47c0 -5 -3 -8 -8 -8h-307c-5 0 -8 3 -8 8v552c0 5 3 8 8 8h307c5 0 8 -3 8 -8v-47c0 -5 -3 -8 -8 -8h-251v-198z" />
    <glyph glyph-name="Dcaron" unicode="&#x10e;" horiz-adv-x="527" 
d="M234 635h16c4 0 8 3 11 6l94 81c2 2 3 4 3 6c0 1 -2 4 -5 7l-22 21c-2 2 -4 3 -7 3c-1 0 -3 -1 -6 -2l-76 -71l-76 71c-3 1 -5 2 -6 2c-3 0 -5 -1 -7 -3l-22 -21c-3 -3 -5 -6 -5 -7c0 -2 1 -4 3 -6l94 -81c3 -3 7 -6 11 -6zM201 63c133 0 228 80 228 216
c0 135 -95 226 -228 226h-63v-442h63zM83 568h136c160 0 273 -126 273 -286s-113 -282 -273 -282h-136c-5 0 -8 3 -8 8v552c0 5 3 8 8 8z" />
    <glyph glyph-name="Aogonek" unicode="&#x104;" horiz-adv-x="517" 
d="M258 417l-91 -224h182zM415 30l-40 100h-233l-49 -120c-5 -7 -10 -10 -15 -10h-43c-7 0 -10 3 -10 10l227 561c3 1 5 2 6 2s3 -1 6 -2l227 -561c0 -7 -3 -10 -10 -10h-43c-39 -5 -40 -29 -40 -33c0 -19 10 -29 29 -29c15 0 29 4 41 11c3 1 5 2 7 2c1 0 3 -1 6 -2l10 -21
c1 -1 1 -2 1 -3c0 -3 -2 -4 -3 -7c-20 -17 -41 -22 -70 -22c-32 0 -64 20 -64 60c0 12 7 50 60 74z" />
    <glyph glyph-name="abreve" unicode="&#x103;" horiz-adv-x="403" 
d="M194 476c-89 0 -119 38 -130 104c0 7 3 10 10 10h38c5 0 9 -3 10 -10c19 -50 55 -53 73 -53c19 0 52 2 71 53c1 7 5 10 10 10h38c7 0 10 -3 10 -10c-13 -65 -38 -104 -130 -104zM183 54c23 0 48 9 87 49v30c-23 37 -53 55 -92 55c-63 0 -70 -31 -70 -68s10 -66 75 -66z
M108 332c-4 -1 -5 -2 -8 -2c-4 0 -7 2 -8 7c-11 28 -13 37 -13 41c0 3 2 6 5 8c47 19 72 19 103 19c114 0 146 -70 146 -178v-218c0 -6 -3 -9 -9 -9h-32c-6 0 -10 3 -13 9l-4 36c-26 -50 -93 -50 -101 -50c-41 0 -129 8 -129 126c0 84 36 130 115 130c45 0 84 -11 111 -52
c0 109 -15 143 -92 143c-13 0 -42 -3 -71 -10z" />
    <glyph glyph-name="Uhungarumlaut" unicode="&#x170;" horiz-adv-x="572" 
d="M285 -5c-155 0 -210 87 -210 244v321c0 5 3 8 8 8h47c5 0 8 -3 8 -8v-300c0 -140 25 -206 148 -206s148 66 148 206v300c0 5 3 8 8 8h47c5 0 8 -3 8 -8v-321c0 -157 -55 -244 -212 -244zM208 650l37 114c1 1 6 11 11 11h59c7 0 11 -4 11 -11l-64 -114
c-3 -5 -10 -11 -17 -11h-26c-7 0 -11 4 -11 11zM321 650l37 114c1 1 6 11 11 11h59c7 0 11 -4 11 -11l-64 -114c-3 -5 -10 -11 -17 -11h-26c-7 0 -11 4 -11 11z" />
    <glyph glyph-name="Uring" unicode="&#x16e;" horiz-adv-x="572" 
d="M288 831c54 0 97 -44 97 -97c0 -52 -43 -95 -97 -95c-52 0 -95 43 -95 95c0 53 43 97 95 97zM290 689c21 0 40 18 40 45s-19 41 -40 41s-41 -14 -41 -41s20 -45 41 -45zM285 -5c-155 0 -210 87 -210 244v321c0 5 3 8 8 8h47c5 0 8 -3 8 -8v-300c0 -140 25 -206 148 -206
s148 66 148 206v300c0 5 3 8 8 8h47c5 0 8 -3 8 -8v-321c0 -157 -55 -244 -212 -244z" />
    <glyph glyph-name="Rcaron" unicode="&#x158;" horiz-adv-x="484" 
d="M224 635h16c4 0 8 3 11 6l94 81c2 2 3 4 3 6c0 1 -2 4 -5 7l-22 21c-2 2 -4 3 -7 3c-1 0 -3 -1 -6 -2l-76 -71l-76 71c-3 1 -5 2 -6 2c-3 0 -5 -1 -7 -3l-22 -21c-3 -3 -5 -6 -5 -7c0 -2 1 -4 3 -6l94 -81c3 -3 7 -6 11 -6zM439 389c0 -88 -47 -150 -94 -171l88 -208
c0 -7 -3 -10 -10 -10h-49c-5 0 -10 3 -15 10l-84 202h-137v-204c0 -5 -3 -8 -8 -8h-47c-5 0 -8 3 -8 8v552c0 5 3 8 8 8h200c85 0 156 -72 156 -179zM138 505v-234h133c59 0 105 33 105 117s-47 117 -105 117h-133z" />
    <glyph glyph-name="uni0162" unicode="&#x162;" horiz-adv-x="436" 
d="M203 -193h-14c-5 0 -7 2 -7 7l21 64c-13 9 -23 22 -23 34c0 23 18 39 38 39c23 0 39 -16 39 -39c0 -4 -3 -13 -4 -14l-40 -83c-2 -5 -5 -8 -10 -8zM43 568h350c5 0 8 -3 8 -8v-47c0 -5 -3 -8 -8 -8h-143v-497c0 -5 -3 -8 -8 -8h-47c-5 0 -8 3 -8 8v497h-144
c-5 0 -8 3 -8 8v47c0 5 3 8 8 8z" />
    <glyph glyph-name="lacute" unicode="&#x13a;" horiz-adv-x="211" 
d="M137 560v-552c0 -5 -3 -8 -8 -8h-47c-5 0 -8 3 -8 8v552c0 5 3 8 8 8h47c5 0 8 -3 8 -8zM85 650l49 114c1 1 6 11 11 11h59c7 0 11 -4 11 -11l-76 -114c-3 -5 -10 -11 -17 -11h-26c-7 0 -11 4 -11 11z" />
    <glyph glyph-name="uni0163" unicode="&#x163;" horiz-adv-x="303" 
d="M166 -193h-14c-5 0 -7 2 -7 7l21 64c-13 9 -23 22 -23 34c0 23 18 39 38 39c23 0 39 -16 39 -39c0 -4 -3 -13 -4 -14l-40 -83c-2 -5 -5 -8 -10 -8zM245 55c4 0 7 -2 8 -5l8 -41c1 -1 1 -2 1 -5c0 -4 -1 -6 -4 -6c-15 -3 -25 -3 -48 -3c-80 0 -105 42 -105 170v177h-67
c-5 0 -8 3 -8 8v47c0 5 3 8 8 8h67v155c0 5 3 8 8 8h47c5 0 8 -3 8 -8v-155h74c5 0 8 -3 8 -8v-47c0 -5 -3 -8 -8 -8h-74v-146c0 -115 1 -142 60 -142c9 0 13 1 17 1z" />
    <glyph glyph-name="uhungarumlaut" unicode="&#x171;" 
d="M128 392v-208c0 -75 0 -130 91 -130c81 0 99 72 99 147v191c0 5 3 8 8 8h47c5 0 8 -3 8 -8v-383c0 -6 -3 -9 -9 -9h-32c-6 0 -10 3 -13 9l-5 45c-31 -55 -77 -59 -115 -59c-130 0 -142 87 -142 203v194c0 5 3 8 8 8h47c5 0 8 -3 8 -8zM138 487l37 114c1 1 6 11 11 11h59
c7 0 11 -4 11 -11l-64 -114c-3 -5 -10 -11 -17 -11h-26c-7 0 -11 4 -11 11zM251 487l37 114c1 1 6 11 11 11h59c7 0 11 -4 11 -11l-64 -114c-3 -5 -10 -11 -17 -11h-26c-7 0 -11 4 -11 11z" />
    <glyph glyph-name="uring" unicode="&#x16f;" 
d="M219 684c54 0 97 -44 97 -97c0 -52 -43 -95 -97 -95c-52 0 -95 43 -95 95c0 53 43 97 95 97zM221 542c21 0 40 18 40 45s-19 41 -40 41s-41 -14 -41 -41s20 -45 41 -45zM128 392v-208c0 -75 0 -130 91 -130c81 0 99 72 99 147v191c0 5 3 8 8 8h47c5 0 8 -3 8 -8v-383
c0 -6 -3 -9 -9 -9h-32c-6 0 -10 3 -13 9l-5 45c-31 -55 -77 -59 -115 -59c-130 0 -142 87 -142 203v194c0 5 3 8 8 8h47c5 0 8 -3 8 -8z" />
    <glyph glyph-name="rcaron" unicode="&#x159;" horiz-adv-x="270" 
d="M157 476h16c4 0 8 3 11 6l66 81c2 2 3 4 3 6c0 1 -2 4 -5 7l-22 21c-2 2 -4 3 -7 3s-5 -1 -6 -2l-48 -62l-48 62c-1 1 -3 2 -6 2s-5 -1 -7 -3l-22 -21c-3 -3 -5 -6 -5 -7c0 -2 1 -4 3 -6l66 -81c3 -3 7 -6 11 -6zM255 397v-47c0 -5 -3 -8 -8 -8h-21
c-86 0 -88 -72 -88 -143v-190c-3 -6 -8 -9 -13 -9h-41c-6 0 -9 3 -9 9v383c0 5 3 8 8 8h39c5 0 8 -3 8 -8l6 -38c31 50 62 51 92 51h19c5 0 8 -3 8 -8z" />
    <glyph glyph-name="dcaron" unicode="&#x10f;" horiz-adv-x="525" 
d="M461 424h-14c-5 0 -7 2 -7 7l21 64c-13 9 -23 22 -23 34c0 23 18 39 38 39c23 0 39 -16 39 -39c0 -4 -3 -13 -4 -14l-40 -83c-2 -5 -5 -8 -10 -8zM317 9l-5 46c-46 -59 -83 -60 -117 -60c-127 0 -155 93 -155 207c0 119 46 203 157 203c19 0 60 0 111 -46v201
c0 5 3 8 8 8h47c5 0 8 -3 8 -8v-551c0 -6 -3 -9 -9 -9h-32c-6 0 -10 3 -13 9zM204 54c76 0 104 55 104 147c0 91 -29 141 -104 141c-77 0 -101 -52 -101 -141c0 -107 24 -147 101 -147z" />
    <glyph glyph-name="dcroat" unicode="&#x111;" horiz-adv-x="459" 
d="M226 520h82v40c0 5 3 8 8 8h47c5 0 8 -3 8 -8v-40h60c5 0 8 -3 8 -8v-37c0 -5 -3 -8 -8 -8h-60v-458c0 -6 -3 -9 -9 -9h-32c-6 0 -10 3 -13 9l-5 46c-46 -59 -83 -60 -117 -60c-127 0 -155 93 -155 207c0 119 46 203 157 203c19 0 60 0 111 -46v108h-82c-5 0 -8 3 -8 8
v37c0 5 3 8 8 8zM204 54c76 0 104 55 104 147c0 91 -29 141 -104 141c-77 0 -101 -52 -101 -141c0 -107 24 -147 101 -147z" />
    <glyph glyph-name="Amacron" unicode="&#x100;" horiz-adv-x="516" 
d="M112 702h297c5 0 8 -3 8 -8v-47c0 -5 -3 -8 -8 -8h-297c-5 0 -8 3 -8 8v47c0 5 3 8 8 8zM258 573c1 0 3 -1 6 -2l227 -561c0 -7 -3 -10 -10 -10h-43c-5 0 -10 3 -15 10l-48 120h-233l-49 -120c-5 -7 -10 -10 -15 -10h-43c-7 0 -10 3 -10 10l227 561c3 1 5 2 6 2zM258 417
l-91 -224h182z" />
    <glyph glyph-name="umacron" unicode="&#x16b;" 
d="M128 392v-208c0 -75 0 -130 91 -130c81 0 99 72 99 147v191c0 5 3 8 8 8h47c5 0 8 -3 8 -8v-383c0 -6 -3 -9 -9 -9h-32c-6 0 -10 3 -13 9l-5 45c-31 -55 -77 -59 -115 -59c-130 0 -142 87 -142 203v194c0 5 3 8 8 8h47c5 0 8 -3 8 -8zM101 539h241c5 0 8 -3 8 -8v-47
c0 -5 -3 -8 -8 -8h-241c-5 0 -8 3 -8 8v47c0 5 3 8 8 8z" />
    <glyph glyph-name="tbar" unicode="&#x167;" horiz-adv-x="303" 
d="M242 227h-74v-31c0 -115 1 -142 60 -142c9 0 13 1 17 1s7 -2 8 -5l8 -41c1 -1 1 -2 1 -5c0 -4 -1 -6 -4 -6c-15 -3 -25 -3 -48 -3c-80 0 -105 42 -105 170v62h-67c-5 0 -8 3 -8 8v47c0 5 3 8 8 8h67v128h-67c-5 0 -8 3 -8 8v47c0 5 3 8 8 8h67v79c0 5 3 8 8 8h47
c5 0 8 -3 8 -8v-79h74c5 0 8 -3 8 -8v-47c0 -5 -3 -8 -8 -8h-74v-128h74c5 0 8 -3 8 -8v-47c0 -5 -3 -8 -8 -8z" />
    <glyph glyph-name="uni0137" unicode="&#x137;" horiz-adv-x="398" 
d="M201 -193h-14c-5 0 -7 2 -7 7l21 64c-13 9 -23 22 -23 34c0 23 18 39 38 39c23 0 39 -16 39 -39c0 -4 -3 -13 -4 -14l-40 -83c-2 -5 -5 -8 -10 -8zM203 201l167 -191c0 -7 -13 -10 -20 -10h-42c-5 0 -13 3 -18 10l-152 170v-172c0 -5 -3 -8 -8 -8h-47c-5 0 -8 3 -8 8v552
c0 5 3 8 8 8h47c5 0 8 -3 8 -8v-337l151 167c5 7 13 10 18 10h56c7 0 10 -3 10 -10z" />
    <glyph glyph-name="uni013C" unicode="&#x13c;" horiz-adv-x="211" 
d="M137 560v-552c0 -5 -3 -8 -8 -8h-47c-5 0 -8 3 -8 8v552c0 5 3 8 8 8h47c5 0 8 -3 8 -8zM91 -193h-14c-5 0 -7 2 -7 7l21 64c-13 9 -23 22 -23 34c0 23 18 39 38 39c23 0 39 -16 39 -39c0 -4 -3 -13 -4 -14l-40 -83c-2 -5 -5 -8 -10 -8z" />
    <glyph glyph-name="itilde" unicode="&#x129;" horiz-adv-x="211" 
d="M137 392v-384c0 -5 -3 -8 -8 -8h-47c-5 0 -8 3 -8 8v384c0 5 3 8 8 8h47c5 0 8 -3 8 -8zM246 514c-27 -23 -57 -38 -92 -38c-43 0 -72 34 -110 34c-21 0 -33 -4 -49 -16c-1 -1 -3 -1 -5 -1c-4 0 -7 2 -10 6l-22 28c0 1 -1 2 -1 3c0 5 2 8 7 11c27 23 47 32 80 32
c66 0 64 -34 111 -34c22 0 42 7 60 21c1 1 3 1 5 1c4 0 7 -2 10 -6l22 -27c0 -1 1 -2 1 -3c0 -5 -2 -9 -7 -11z" />
    <glyph glyph-name="uni0123" unicode="&#x123;" horiz-adv-x="446" 
d="M215 620h14c5 0 7 -2 7 -7l-21 -64c13 -9 23 -22 23 -34c0 -23 -18 -39 -38 -39c-23 0 -39 16 -39 39c0 4 3 13 4 14l40 83c2 5 5 8 10 8zM204 54c76 0 104 55 104 147c0 91 -29 141 -104 141c-77 0 -101 -52 -101 -141c0 -107 24 -147 101 -147zM308 -14v57
c-41 -49 -79 -48 -113 -48c-127 0 -155 93 -155 207c0 119 46 203 157 203c18 0 81 -2 115 -49l5 35c3 6 7 9 13 9h32c6 0 9 -3 9 -9v-412c0 -141 -69 -175 -152 -175c-63 0 -92 7 -131 32c-3 1 -4 3 -4 7c0 2 0 4 1 5l14 35c2 2 4 3 5 3c2 0 4 -1 7 -2
c41 -19 61 -21 90 -21c100 0 107 45 107 123z" />
    <glyph glyph-name="uni0122" unicode="&#x122;" horiz-adv-x="585" 
d="M283 -193h-14c-5 0 -7 2 -7 7l21 64c-13 9 -23 22 -23 34c0 23 18 39 38 39c23 0 39 -16 39 -39c0 -4 -3 -13 -4 -14l-40 -83c-2 -5 -5 -8 -10 -8zM296 54c44 0 97 8 149 51v119h-119c-5 0 -8 3 -8 8v47c0 5 3 8 8 8h181c5 0 8 -3 8 -8v-270c0 -6 -3 -9 -9 -9h-8
c-3 0 -7 4 -12 11l-24 34c-45 -35 -97 -50 -165 -50c-161 0 -247 130 -247 290s86 290 246 290c68 0 122 -23 173 -63c1 -3 3 -4 3 -5c0 -2 -2 -5 -5 -8l-25 -26c-3 -3 -7 -5 -10 -5s-5 1 -7 3c-42 32 -75 41 -129 41c-125 0 -183 -103 -183 -229s58 -229 183 -229z" />
    <glyph glyph-name="Emacron" unicode="&#x112;" horiz-adv-x="458" 
d="M110 702h258c5 0 8 -3 8 -8v-47c0 -5 -3 -8 -8 -8h-258c-5 0 -8 3 -8 8v47c0 5 3 8 8 8zM139 307h187c5 0 8 -3 8 -8v-47c0 -5 -3 -8 -8 -8h-188v-181h252c5 0 8 -3 8 -8v-47c0 -5 -3 -8 -8 -8h-307c-5 0 -8 3 -8 8v552c0 5 3 8 8 8h307c5 0 8 -3 8 -8v-47
c0 -5 -3 -8 -8 -8h-251v-198z" />
    <glyph glyph-name="Imacron" unicode="&#x12a;" horiz-adv-x="211" 
d="M74 8v552c0 5 3 8 8 8h47c5 0 8 -3 8 -8v-552c0 -5 -3 -8 -8 -8h-47c-5 0 -8 3 -8 8zM1 702h209c5 0 8 -3 8 -8v-47c0 -5 -3 -8 -8 -8h-209c-5 0 -8 3 -8 8v47c0 5 3 8 8 8z" />
    <glyph glyph-name="Itilde" unicode="&#x128;" horiz-adv-x="211" 
d="M74 8v552c0 5 3 8 8 8h47c5 0 8 -3 8 -8v-552c0 -5 -3 -8 -8 -8h-47c-5 0 -8 3 -8 8zM246 677c-27 -23 -57 -38 -92 -38c-43 0 -72 34 -110 34c-21 0 -33 -4 -49 -16c-1 -1 -3 -1 -5 -1c-4 0 -7 2 -10 6l-22 28c0 1 -1 2 -1 3c0 5 2 8 7 11c27 23 47 32 80 32
c66 0 64 -34 111 -34c22 0 42 7 60 21c1 1 3 1 5 1c4 0 7 -2 10 -6l22 -27c0 -1 1 -2 1 -3c0 -5 -2 -9 -7 -11z" />
    <glyph glyph-name="uni0136" unicode="&#x136;" horiz-adv-x="532" 
d="M277 -193h-14c-5 0 -7 2 -7 7l21 64c-13 9 -23 22 -23 34c0 23 18 39 38 39c23 0 39 -16 39 -39c0 -4 -3 -13 -4 -14l-40 -83c-2 -5 -5 -8 -10 -8zM467 558l-174 -210l214 -338c0 -7 -3 -10 -10 -10h-52c-5 0 -10 3 -15 10l-180 287l-112 -136v-153c0 -5 -3 -8 -8 -8h-47
c-5 0 -8 3 -8 8v552c0 5 3 8 8 8h47c5 0 8 -3 8 -8v-304l245 302c4 7 9 10 15 10h59c7 0 10 -3 10 -10z" />
    <glyph glyph-name="uni013B" unicode="&#x13b;" horiz-adv-x="440" 
d="M221 -193h-14c-5 0 -7 2 -7 7l21 64c-13 9 -23 22 -23 34c0 23 18 39 38 39c23 0 39 -16 39 -39c0 -4 -3 -13 -4 -14l-40 -83c-2 -5 -5 -8 -10 -8zM383 0h-300c-5 0 -8 3 -8 8v552c0 5 3 8 8 8h47c5 0 8 -3 8 -8v-497h245c5 0 8 -3 8 -8v-47c0 -5 -3 -8 -8 -8z" />
    <glyph glyph-name="Tbar" unicode="&#x166;" horiz-adv-x="436" 
d="M106 319h81v186h-144c-5 0 -8 3 -8 8v47c0 5 3 8 8 8h350c5 0 8 -3 8 -8v-47c0 -5 -3 -8 -8 -8h-143v-186h81c5 0 8 -3 8 -8v-47c0 -5 -3 -8 -8 -8h-81v-248c0 -5 -3 -8 -8 -8h-47c-5 0 -8 3 -8 8v248h-81c-5 0 -8 3 -8 8v47c0 5 3 8 8 8z" />
    <glyph glyph-name="Umacron" unicode="&#x16a;" horiz-adv-x="572" 
d="M138 702h297c5 0 8 -3 8 -8v-47c0 -5 -3 -8 -8 -8h-297c-5 0 -8 3 -8 8v47c0 5 3 8 8 8zM285 -5c-155 0 -210 87 -210 244v321c0 5 3 8 8 8h47c5 0 8 -3 8 -8v-300c0 -140 25 -206 148 -206s148 66 148 206v300c0 5 3 8 8 8h47c5 0 8 -3 8 -8v-321
c0 -157 -55 -244 -212 -244z" />
    <glyph glyph-name="Eng" unicode="&#x14a;" horiz-adv-x="575" 
d="M500 560v-575c0 -145 -18 -181 -98 -181c-15 0 -46 2 -69 15c-2 0 -3 1 -3 4s0 4 1 4l12 35c1 1 4 2 8 2c12 -3 33 -7 44 -7c40 0 42 23 42 139v199l-299 247v-434c0 -5 -3 -8 -8 -8h-47c-5 0 -8 3 -8 8v559c2 3 4 4 6 4c4 0 4 -1 7 -4l349 -293v286c0 5 3 8 8 8h47
c5 0 8 -3 8 -8z" />
    <glyph glyph-name="emacron" unicode="&#x113;" horiz-adv-x="405" 
d="M73 539h265c5 0 8 -3 8 -8v-47c0 -5 -3 -8 -8 -8h-265c-5 0 -8 3 -8 8v47c0 5 3 8 8 8zM105 226h195c0 89 -41 116 -102 116s-93 -29 -93 -116zM355 168h-250c0 -99 64 -114 114 -114c28 0 46 6 78 22c1 1 4 1 7 1s6 -2 9 -5l14 -31c1 -3 2 -5 2 -8s-2 -5 -5 -6
c-36 -27 -61 -32 -104 -32c-117 0 -180 64 -180 205c0 111 25 205 161 205s164 -94 164 -205v-22c0 -7 -3 -10 -10 -10z" />
    <glyph glyph-name="imacron" unicode="&#x12b;" horiz-adv-x="211" 
d="M74 8v384c0 5 3 8 8 8h47c5 0 8 -3 8 -8v-384c0 -5 -3 -8 -8 -8h-47c-5 0 -8 3 -8 8zM0 539h210c5 0 8 -3 8 -8v-47c0 -5 -3 -8 -8 -8h-210c-5 0 -8 3 -8 8v47c0 5 3 8 8 8z" />
    <glyph glyph-name="eng" unicode="&#x14b;" 
d="M391 202v-217c0 -145 -18 -181 -98 -181c-15 0 -46 2 -69 15c-2 0 -3 1 -3 4s0 4 1 4l12 35c1 1 4 2 8 2c12 -3 33 -7 44 -7c40 0 42 23 42 139v216c0 75 0 130 -91 130c-81 0 -99 -72 -99 -147v-187c0 -5 -3 -8 -8 -8h-47c-5 0 -8 3 -8 8v383c0 6 3 9 9 9h32
c5 0 10 -3 13 -9l5 -49c31 55 77 63 115 63c130 0 142 -87 142 -203z" />
    <glyph glyph-name="Edotaccent" unicode="&#x116;" horiz-adv-x="458" 
d="M197 678c0 23 16 39 39 39s39 -16 39 -39s-16 -39 -39 -39s-39 16 -39 39zM139 307h187c5 0 8 -3 8 -8v-47c0 -5 -3 -8 -8 -8h-188v-181h252c5 0 8 -3 8 -8v-47c0 -5 -3 -8 -8 -8h-307c-5 0 -8 3 -8 8v552c0 5 3 8 8 8h307c5 0 8 -3 8 -8v-47c0 -5 -3 -8 -8 -8h-251v-198
z" />
    <glyph glyph-name="edotaccent" unicode="&#x117;" horiz-adv-x="405" 
d="M164 531c0 23 16 39 39 39s39 -16 39 -39s-16 -39 -39 -39s-39 16 -39 39zM105 226h195c0 89 -41 116 -102 116s-93 -29 -93 -116zM355 168h-250c0 -99 64 -114 114 -114c28 0 46 6 78 22c1 1 4 1 7 1s6 -2 9 -5l14 -31c1 -3 2 -5 2 -8s-2 -5 -5 -6
c-36 -27 -61 -32 -104 -32c-117 0 -180 64 -180 205c0 111 25 205 161 205s164 -94 164 -205v-22c0 -7 -3 -10 -10 -10z" />
    <glyph glyph-name="Iogonek" unicode="&#x12e;" horiz-adv-x="211" 
d="M87 0h-5c-5 0 -8 3 -8 8v552c0 5 3 8 8 8h47c5 0 8 -3 8 -8v-552c0 -5 -4 -8 -11 -8c-3 -8 -12 -23 -12 -35c0 -21 13 -32 38 -32c17 0 32 4 44 11c3 1 5 2 7 2c1 0 3 -1 6 -2l11 -20c1 -1 1 -2 1 -3c0 -3 -2 -4 -3 -7c-20 -17 -43 -23 -72 -23c-39 0 -74 18 -74 61
c0 13 6 33 15 48z" />
    <glyph glyph-name="uni0145" unicode="&#x145;" horiz-adv-x="575" 
d="M285 -193h-14c-5 0 -7 2 -7 7l21 64c-13 9 -23 22 -23 34c0 23 18 39 38 39c23 0 39 -16 39 -39c0 -4 -3 -13 -4 -14l-40 -83c-2 -5 -5 -8 -10 -8zM75 8v559c2 3 4 4 6 4c4 0 4 -1 7 -4l349 -293v286c0 5 3 8 8 8h47c5 0 8 -3 8 -8v-552c0 -5 -3 -8 -8 -8h-47
c-5 0 -8 3 -8 8v187l-299 247v-434c0 -5 -3 -8 -8 -8h-47c-5 0 -8 3 -8 8z" />
    <glyph glyph-name="Omacron" unicode="&#x14c;" horiz-adv-x="606" 
d="M157 702h297c5 0 8 -3 8 -8v-47c0 -5 -3 -8 -8 -8h-297c-5 0 -8 3 -8 8v47c0 5 3 8 8 8zM303 54c125 0 190 103 190 229s-65 229 -190 229s-190 -103 -190 -229s65 -229 190 -229zM303 -5c-160 0 -253 130 -253 290s93 290 253 290s253 -130 253 -290s-93 -290 -253 -290
z" />
    <glyph glyph-name="iogonek" unicode="&#x12f;" horiz-adv-x="211" 
d="M62 488c0 24 20 44 43 44c27 0 46 -20 46 -44s-19 -43 -46 -43c-23 0 -43 19 -43 43zM74 8v384c0 5 3 8 8 8h47c5 0 8 -3 8 -8v-384c0 -5 -4 -8 -11 -8c-3 -8 -12 -23 -12 -35c0 -21 13 -32 38 -32c17 0 32 4 44 11c3 1 5 2 7 2c1 0 3 -1 6 -2l11 -20c1 -1 1 -2 1 -3
c0 -3 -2 -4 -3 -7c-20 -17 -43 -23 -72 -23c-39 0 -74 18 -74 61c0 13 6 33 15 48h-5c-5 0 -8 3 -8 8z" />
    <glyph glyph-name="uni0146" unicode="&#x146;" 
d="M222 -193h-14c-5 0 -7 2 -7 7l21 64c-13 9 -23 22 -23 34c0 23 18 39 38 39c23 0 39 -16 39 -39c0 -4 -3 -13 -4 -14l-40 -83c-2 -5 -5 -8 -10 -8zM328 8v204c0 75 0 130 -91 130c-81 0 -99 -72 -99 -147v-187c0 -5 -3 -8 -8 -8h-47c-5 0 -8 3 -8 8v383c0 6 3 9 9 9h32
c5 0 10 -3 13 -9l5 -49c31 55 77 63 115 63c130 0 142 -87 142 -203v-194c0 -5 -3 -8 -8 -8h-47c-5 0 -8 3 -8 8z" />
    <glyph glyph-name="omacron" unicode="&#x14d;" horiz-adv-x="422" 
d="M75 539h275c5 0 8 -3 8 -8v-47c0 -5 -3 -8 -8 -8h-275c-5 0 -8 3 -8 8v47c0 5 3 8 8 8zM211 -5c-112 0 -171 93 -171 205s59 205 171 205s171 -93 171 -205s-59 -205 -171 -205zM211 342c-79 0 -108 -65 -108 -144s29 -144 108 -144s108 65 108 144s-29 144 -108 144z
" />
    <glyph glyph-name="Utilde" unicode="&#x168;" horiz-adv-x="572" 
d="M434 677c-27 -23 -57 -38 -92 -38c-43 0 -72 34 -110 34c-21 0 -39 -6 -54 -17c-1 -1 -3 -1 -5 -1c-4 0 -7 2 -10 6c-23 28 -23 29 -23 30c0 4 2 8 7 11c27 23 52 34 85 34c66 0 64 -34 111 -34c22 0 42 7 60 21c1 1 3 1 5 1c4 0 7 -2 10 -6l21 -26c1 -3 2 -4 2 -4
c0 -5 -2 -9 -7 -11zM285 -5c-155 0 -210 87 -210 244v321c0 5 3 8 8 8h47c5 0 8 -3 8 -8v-300c0 -140 25 -206 148 -206s148 66 148 206v300c0 5 3 8 8 8h47c5 0 8 -3 8 -8v-321c0 -157 -55 -244 -212 -244z" />
    <glyph glyph-name="Uogonek" unicode="&#x172;" horiz-adv-x="572" 
d="M497 239c0 -150 -50 -235 -192 -243c-4 -9 -9 -20 -9 -31c0 -21 13 -32 38 -32c17 0 32 4 44 11c3 1 5 2 7 2c1 0 3 -1 6 -2l11 -20c1 -1 1 -2 1 -3c0 -3 -2 -4 -3 -7c-20 -17 -43 -23 -72 -23c-39 0 -74 18 -74 61c0 11 4 29 11 44c-140 5 -190 93 -190 243v321
c0 5 3 8 8 8h47c5 0 8 -3 8 -8v-300c0 -140 25 -206 148 -206s148 66 148 206v300c0 5 3 8 8 8h47c5 0 8 -3 8 -8v-321z" />
    <glyph glyph-name="amacron" unicode="&#x101;" horiz-adv-x="403" 
d="M73 539h236c5 0 8 -3 8 -8v-47c0 -5 -3 -8 -8 -8h-236c-5 0 -8 3 -8 8v47c0 5 3 8 8 8zM183 54c23 0 48 9 87 49v30c-23 37 -53 55 -92 55c-63 0 -70 -31 -70 -68s10 -66 75 -66zM108 332c-4 -1 -5 -2 -8 -2c-4 0 -7 2 -8 7c-11 28 -13 37 -13 41c0 3 2 6 5 8
c47 19 72 19 103 19c114 0 146 -70 146 -178v-218c0 -6 -3 -9 -9 -9h-32c-6 0 -10 3 -13 9l-4 36c-26 -50 -93 -50 -101 -50c-41 0 -129 8 -129 126c0 84 36 130 115 130c45 0 84 -11 111 -52c0 109 -15 143 -92 143c-13 0 -42 -3 -71 -10z" />
    <glyph glyph-name="uogonek" unicode="&#x173;" 
d="M381 392v-383c0 -22 -56 -19 -56 -46c0 -11 8 -11 13 -11c8 0 10 2 21 7c5 2 8 2 9 0l11 -24c0 -1 1 -1 1 -2s0 -1 1 -2c0 -2 -1 -4 -3 -6c-11 -11 -23 -17 -46 -17c-28 0 -61 13 -61 43c0 19 11 42 55 65l-4 38c-31 -55 -77 -59 -115 -59c-130 0 -142 87 -142 203v194
c0 5 3 8 8 8h47c5 0 8 -3 8 -8v-208c0 -75 0 -130 91 -130c81 0 99 72 99 147v191c0 5 3 8 8 8h47c5 0 8 -3 8 -8z" />
    <glyph glyph-name="utilde" unicode="&#x169;" 
d="M128 392v-208c0 -75 0 -130 91 -130c81 0 99 72 99 147v191c0 5 3 8 8 8h47c5 0 8 -3 8 -8v-383c0 -6 -3 -9 -9 -9h-32c-6 0 -10 3 -13 9l-5 45c-31 -55 -77 -59 -115 -59c-130 0 -142 87 -142 203v194c0 5 3 8 8 8h47c5 0 8 -3 8 -8zM365 514c-27 -23 -57 -38 -92 -38
c-43 0 -72 34 -110 34c-21 0 -39 -6 -54 -17c-1 -1 -3 -1 -5 -1c-4 0 -7 2 -10 6c-23 28 -23 29 -23 30c0 4 2 8 7 11c27 23 52 34 85 34c66 0 64 -34 111 -34c22 0 42 7 60 21c1 1 3 1 5 1c4 0 7 -2 10 -6l21 -26c1 -3 2 -4 2 -4c0 -5 -2 -9 -7 -11z" />
    <glyph glyph-name="kgreenlandic" unicode="&#x138;" horiz-adv-x="398" 
d="M203 201l167 -191c0 -7 -13 -10 -20 -10h-42c-5 0 -13 3 -18 10l-152 170v-172c0 -5 -3 -8 -8 -8h-47c-5 0 -8 3 -8 8v384c0 5 3 8 8 8h47c5 0 8 -3 8 -8v-169l151 167c5 7 13 10 18 10h56c7 0 10 -3 10 -10z" />
    <glyph glyph-name="uni03A9" unicode="&#x3a9;" horiz-adv-x="744" 
d="M372 512c-139 0 -173 -86 -173 -222c0 -113 8 -151 40 -216v-74h-156c-5 0 -8 3 -8 8v47c0 5 3 8 8 8h95c-38 75 -41 166 -41 233c0 160 75 279 235 279s235 -119 235 -279c0 -67 -3 -158 -41 -233h95c5 0 8 -3 8 -8v-47c0 -5 -3 -8 -8 -8h-156v74c32 63 40 105 40 216
c0 136 -34 222 -173 222z" />
    <glyph glyph-name="uni0219" unicode="&#x219;" horiz-adv-x="353" 
d="M169 -193h-14c-5 0 -7 2 -7 7l21 64c-13 9 -23 22 -23 34c0 23 18 39 38 39c23 0 39 -16 39 -39c0 -4 -3 -13 -4 -14l-40 -83c-2 -5 -5 -8 -10 -8zM56 25c-3 3 -6 3 -6 7c0 1 0 3 1 6l13 31c1 5 5 7 11 7c30 -16 45 -22 90 -22c28 0 79 3 79 44c0 90 -194 60 -194 202
c0 71 37 105 129 105c35 0 56 -6 87 -14c4 -3 6 -7 6 -12l-11 -39c-1 -3 -5 -6 -10 -6c-29 7 -40 8 -69 8c-64 0 -69 -20 -69 -47c0 -66 194 -73 194 -186c0 -87 -65 -114 -140 -114c-39 0 -76 7 -111 30z" />
    <glyph glyph-name="uni021A" unicode="&#x21a;" horiz-adv-x="436" 
d="M202 -193h-14c-5 0 -7 2 -7 7l21 64c-13 9 -23 22 -23 34c0 23 18 39 38 39c23 0 39 -16 39 -39c0 -4 -3 -13 -4 -14l-40 -83c-2 -5 -5 -8 -10 -8zM43 568h350c5 0 8 -3 8 -8v-47c0 -5 -3 -8 -8 -8h-143v-497c0 -5 -3 -8 -8 -8h-47c-5 0 -8 3 -8 8v497h-144
c-5 0 -8 3 -8 8v47c0 5 3 8 8 8z" />
    <glyph glyph-name="uni021B" unicode="&#x21b;" horiz-adv-x="303" 
d="M169 -193h-14c-5 0 -7 2 -7 7l21 64c-13 9 -23 22 -23 34c0 23 18 39 38 39c23 0 39 -16 39 -39c0 -4 -3 -13 -4 -14l-40 -83c-2 -5 -5 -8 -10 -8zM245 55c4 0 7 -2 8 -5l8 -41c1 -1 1 -2 1 -5c0 -4 -1 -6 -4 -6c-15 -3 -25 -3 -48 -3c-80 0 -105 42 -105 170v177h-67
c-5 0 -8 3 -8 8v47c0 5 3 8 8 8h67v155c0 5 3 8 8 8h47c5 0 8 -3 8 -8v-155h74c5 0 8 -3 8 -8v-47c0 -5 -3 -8 -8 -8h-74v-146c0 -115 1 -142 60 -142c9 0 13 1 17 1z" />
    <glyph glyph-name="uni0218" unicode="&#x218;" horiz-adv-x="452" 
d="M216 -193h-14c-5 0 -7 2 -7 7l21 64c-13 9 -23 22 -23 34c0 23 18 39 38 39c23 0 39 -16 39 -39c0 -4 -3 -13 -4 -14l-40 -83c-2 -5 -5 -8 -10 -8zM335 497c-33 9 -66 15 -102 15c-106 0 -110 -71 -110 -91c0 -130 282 -91 282 -284c0 -93 -99 -142 -177 -142
c-61 0 -100 9 -161 41c-3 2 -5 5 -5 8c0 2 0 4 1 5l13 33c2 3 5 5 8 5c1 0 3 0 4 -1c33 -14 66 -32 136 -32c67 0 118 29 118 85c0 127 -282 93 -282 283c0 100 59 153 168 153c53 0 90 -12 131 -27c3 -2 5 -4 5 -7s-1 -6 -2 -7l-16 -34c-1 -3 -2 -4 -5 -4c-2 0 -4 0 -6 1z
" />
    <glyph glyph-name="uni0156" unicode="&#x156;" horiz-adv-x="484" 
d="M231 -193h-14c-5 0 -7 2 -7 7l21 64c-13 9 -23 22 -23 34c0 23 18 39 38 39c23 0 39 -16 39 -39c0 -4 -3 -13 -4 -14l-40 -83c-2 -5 -5 -8 -10 -8zM439 389c0 -88 -47 -150 -94 -171l88 -208c0 -7 -3 -10 -10 -10h-49c-5 0 -10 3 -15 10l-84 202h-137v-204
c0 -5 -3 -8 -8 -8h-47c-5 0 -8 3 -8 8v552c0 5 3 8 8 8h200c85 0 156 -72 156 -179zM138 505v-234h133c59 0 105 33 105 117s-47 117 -105 117h-133z" />
    <glyph glyph-name="uni0157" unicode="&#x157;" horiz-adv-x="270" 
d="M102 -193h-14c-5 0 -7 2 -7 7l21 64c-13 9 -23 22 -23 34c0 23 18 39 38 39c23 0 39 -16 39 -39c0 -4 -3 -13 -4 -14l-40 -83c-2 -5 -5 -8 -10 -8zM255 397v-47c0 -5 -3 -8 -8 -8h-21c-86 0 -88 -72 -88 -143v-190c-3 -6 -8 -9 -13 -9h-41c-6 0 -9 3 -9 9v383
c0 5 3 8 8 8h39c5 0 8 -3 8 -8l6 -38c31 50 62 51 92 51h19c5 0 8 -3 8 -8z" />
    <glyph glyph-name="gbreve" unicode="&#x11f;" horiz-adv-x="446" 
d="M204 54c76 0 104 55 104 147c0 91 -29 141 -104 141c-77 0 -101 -52 -101 -141c0 -107 24 -147 101 -147zM308 -14v57c-41 -49 -79 -48 -113 -48c-127 0 -155 93 -155 207c0 119 46 203 157 203c18 0 81 -2 115 -49l5 35c3 6 7 9 13 9h32c6 0 9 -3 9 -9v-412
c0 -141 -69 -175 -152 -175c-63 0 -92 7 -131 32c-3 1 -4 3 -4 7c0 2 0 4 1 5l14 35c2 2 4 3 5 3c2 0 4 -1 7 -2c41 -19 61 -21 90 -21c100 0 107 45 107 123zM205 476c-89 0 -119 38 -130 104c0 7 3 10 10 10h38c5 0 9 -3 10 -10c19 -50 55 -53 73 -53c19 0 52 2 71 53
c1 7 5 10 10 10h38c7 0 10 -3 10 -10c-13 -65 -38 -104 -130 -104z" />
    <glyph glyph-name="Idotaccent" unicode="&#x130;" horiz-adv-x="211" 
d="M137 560v-552c0 -5 -3 -8 -8 -8h-47c-5 0 -8 3 -8 8v552c0 5 3 8 8 8h47c5 0 8 -3 8 -8zM62 656c0 24 20 44 43 44c27 0 46 -20 46 -44s-19 -43 -46 -43c-23 0 -43 19 -43 43z" />
    <glyph glyph-name="Gbreve" unicode="&#x11e;" horiz-adv-x="585" 
d="M290 639c-91 0 -144 46 -156 113c0 7 3 10 10 10h38c5 0 9 -3 10 -10c19 -51 79 -62 99 -62c18 0 80 11 99 62c1 7 5 10 10 10h38c7 0 10 -3 10 -10c-12 -67 -66 -113 -158 -113zM296 54c44 0 97 8 149 51v119h-119c-5 0 -8 3 -8 8v47c0 5 3 8 8 8h181c5 0 8 -3 8 -8
v-270c0 -6 -3 -9 -9 -9h-8c-3 0 -7 4 -12 11l-24 34c-45 -35 -97 -50 -165 -50c-161 0 -247 130 -247 290s86 290 246 290c68 0 122 -23 173 -63c1 -3 3 -4 3 -5c0 -2 -2 -5 -5 -8l-25 -26c-3 -3 -7 -5 -10 -5s-5 1 -7 3c-42 32 -75 41 -129 41c-125 0 -183 -103 -183 -229
s58 -229 183 -229z" />
    <glyph glyph-name="Numero" unicode="&#x2116;" horiz-adv-x="995" 
d="M587 63h325c5 0 8 -3 8 -8v-47c0 -5 -3 -8 -8 -8h-325c-5 0 -8 3 -8 8v47c0 5 3 8 8 8zM75 8v559c2 3 4 4 6 4c4 0 4 -1 7 -4l349 -293v286c0 5 3 8 8 8h47c5 0 8 -3 8 -8v-552c0 -5 -3 -8 -8 -8h-47c-5 0 -8 3 -8 8v187l-299 247v-434c0 -5 -3 -8 -8 -8h-47
c-5 0 -8 3 -8 8zM749 139c-112 0 -171 93 -171 205s59 205 171 205s171 -93 171 -205s-59 -205 -171 -205zM749 486c-79 0 -108 -65 -108 -144s29 -144 108 -144s108 65 108 144s-29 144 -108 144z" />
    <glyph glyph-name="Cdotaccent" unicode="&#x10a;" horiz-adv-x="535" 
d="M248 678c0 23 16 39 39 39s39 -16 39 -39s-16 -39 -39 -39s-39 16 -39 39zM494 76c-51 -59 -113 -81 -197 -81c-161 0 -247 130 -247 290s86 290 246 290c68 0 122 -23 173 -63c1 -3 3 -4 3 -5c0 -2 -2 -5 -5 -8l-25 -26c-3 -3 -7 -5 -10 -5s-5 1 -7 3
c-42 32 -75 41 -129 41c-125 0 -183 -103 -183 -229s58 -229 183 -229c47 0 103 9 159 60c1 1 3 2 6 2c5 0 9 -1 12 -4l18 -24c3 -4 4 -7 4 -8c0 -2 0 -3 -1 -4z" />
    <glyph glyph-name="ccircumflex" unicode="&#x109;" horiz-adv-x="363" 
d="M220 600h-16c-4 0 -8 -3 -11 -6l-94 -81c-2 -2 -3 -4 -3 -6c0 -1 2 -4 5 -7l22 -21c2 -2 4 -3 7 -3c1 0 3 1 6 2l76 71l76 -71c3 -1 5 -2 6 -2c3 0 5 1 7 3l22 21c3 3 5 6 5 7c0 2 -1 4 -3 6l-94 81c-3 3 -7 6 -11 6zM315 22c-35 -20 -62 -27 -103 -27
c-112 0 -172 93 -172 205s60 205 172 205c50 0 70 -8 108 -35c2 -2 3 -4 3 -6c0 -3 0 -5 -1 -6l-19 -34c-3 -3 -6 -5 -8 -5s-3 0 -4 1c-1 0 -1 0 -2 1c-28 17 -50 21 -77 21c-79 0 -109 -65 -109 -144s30 -144 109 -144c31 0 50 5 77 16c1 1 3 1 6 1s6 -1 9 -4l14 -31
c1 -3 2 -5 2 -8s-2 -5 -5 -6z" />
    <glyph glyph-name="cdotaccent" unicode="&#x10b;" horiz-adv-x="358" 
d="M166 531c0 23 16 39 39 39s39 -16 39 -39s-16 -39 -39 -39s-39 16 -39 39zM315 22c-35 -20 -62 -27 -103 -27c-112 0 -172 93 -172 205s60 205 172 205c50 0 70 -8 108 -35c2 -2 3 -4 3 -6c0 -3 0 -5 -1 -6l-19 -34c-3 -3 -6 -5 -8 -5s-3 0 -4 1c-1 0 -1 0 -2 1
c-28 17 -50 21 -77 21c-79 0 -109 -65 -109 -144s30 -144 109 -144c31 0 50 5 77 16c1 1 3 1 6 1s6 -1 9 -4l14 -31c1 -3 2 -5 2 -8s-2 -5 -5 -6z" />
    <glyph glyph-name="Hcircumflex" unicode="&#x124;" horiz-adv-x="537" 
d="M277 759h-16c-4 0 -8 -3 -11 -6l-94 -81c-2 -2 -3 -4 -3 -6c0 -1 2 -4 5 -7l22 -21c2 -2 4 -3 7 -3c1 0 3 1 6 2l76 71l76 -71c3 -1 5 -2 6 -2c3 0 5 1 7 3l22 21c3 3 5 6 5 7c0 2 -1 4 -3 6l-94 81c-3 3 -7 6 -11 6zM462 560v-552c0 -5 -3 -8 -8 -8h-47c-5 0 -8 3 -8 8
v235h-261v-235c0 -5 -3 -8 -8 -8h-47c-5 0 -8 3 -8 8v552c0 5 3 8 8 8h47c5 0 8 -3 8 -8v-254h261v254c0 5 3 8 8 8h47c5 0 8 -3 8 -8z" />
    <glyph glyph-name="hbar" unicode="&#x127;" horiz-adv-x="458" 
d="M233 467h-88v-117c32 51 74 55 111 55c130 0 142 -87 142 -203v-194c0 -5 -3 -8 -8 -8h-47c-5 0 -8 3 -8 8v204c0 75 0 130 -91 130c-81 0 -99 -72 -99 -147v-187c0 -5 -3 -8 -8 -8h-47c-5 0 -8 3 -8 8v459h-54c-5 0 -8 3 -8 8v37c0 5 3 8 8 8h54v40c0 5 3 8 8 8h47
c5 0 8 -3 8 -8v-40h88c5 0 8 -3 8 -8v-37c0 -5 -3 -8 -8 -8z" />
    <glyph glyph-name="hcircumflex" unicode="&#x125;" 
d="M75 8v552c0 5 3 8 8 8h47c5 0 8 -3 8 -8v-210c32 51 74 55 111 55c130 0 142 -87 142 -203v-194c0 -5 -3 -8 -8 -8h-47c-5 0 -8 3 -8 8v204c0 75 0 130 -91 130c-81 0 -99 -72 -99 -147v-187c0 -5 -3 -8 -8 -8h-47c-5 0 -8 3 -8 8zM199 759h-16c-4 0 -8 -3 -11 -6
l-94 -81c-2 -2 -3 -4 -3 -6c0 -1 2 -4 5 -7l22 -21c2 -2 4 -3 7 -3c1 0 3 1 6 2l76 71l76 -71c3 -1 5 -2 6 -2c3 0 5 1 7 3l22 21c3 3 5 6 5 7c0 2 -1 4 -3 6l-94 81c-3 3 -7 6 -11 6z" />
    <glyph glyph-name="jcircumflex" unicode="&#x135;" horiz-adv-x="211" 
d="M114 600h-16c-4 0 -8 -3 -11 -6l-94 -81c-2 -2 -3 -4 -3 -6c0 -1 2 -4 5 -7l22 -21c2 -2 4 -3 7 -3c1 0 3 1 6 2l76 71l76 -71c3 -1 5 -2 6 -2c3 0 5 1 7 3l22 21c3 3 5 6 5 7c0 2 -1 4 -3 6l-94 81c-3 3 -7 6 -11 6zM39 -196c-15 0 -45 3 -69 15c-2 1 -3 2 -3 4
c0 1 1 4 13 39c0 1 3 2 8 2c12 -3 33 -7 44 -7c40 0 42 23 42 139v396c0 5 3 8 8 8h47c5 0 8 -3 8 -8v-407c0 -145 -18 -181 -98 -181z" />
    <glyph glyph-name="Scircumflex" unicode="&#x15c;" horiz-adv-x="452" 
d="M235 759h-16c-4 0 -8 -3 -11 -6l-94 -81c-2 -2 -3 -4 -3 -6c0 -1 2 -4 5 -7l22 -21c2 -2 4 -3 7 -3c1 0 3 1 6 2l76 71l76 -71c3 -1 5 -2 6 -2c3 0 5 1 7 3l22 21c3 3 5 6 5 7c0 2 -1 4 -3 6l-94 81c-3 3 -7 6 -11 6zM335 497c-33 9 -66 15 -102 15
c-106 0 -110 -71 -110 -91c0 -130 282 -91 282 -284c0 -93 -99 -142 -177 -142c-61 0 -100 9 -161 41c-3 2 -5 5 -5 8c0 2 0 4 1 5l13 33c2 3 5 5 8 5c1 0 3 0 4 -1c33 -14 66 -32 136 -32c67 0 118 29 118 85c0 127 -282 93 -282 283c0 100 59 153 168 153
c53 0 90 -12 131 -27c3 -2 5 -4 5 -7s-1 -6 -2 -7l-16 -34c-1 -3 -2 -4 -5 -4c-2 0 -4 0 -6 1z" />
    <glyph glyph-name="Ubreve" unicode="&#x16c;" horiz-adv-x="572" 
d="M285 639c-91 0 -144 46 -156 113c0 7 3 10 10 10h38c5 0 9 -3 10 -10c19 -51 79 -62 99 -62c18 0 80 11 99 62c1 7 5 10 10 10h38c7 0 10 -3 10 -10c-12 -67 -66 -113 -158 -113zM285 -5c-155 0 -210 87 -210 244v321c0 5 3 8 8 8h47c5 0 8 -3 8 -8v-300
c0 -140 25 -206 148 -206s148 66 148 206v300c0 5 3 8 8 8h47c5 0 8 -3 8 -8v-321c0 -157 -55 -244 -212 -244z" />
    <glyph glyph-name="Gcircumflex" unicode="&#x11c;" horiz-adv-x="585" 
d="M303 759h-16c-4 0 -8 -3 -11 -6l-94 -81c-2 -2 -3 -4 -3 -6c0 -1 2 -4 5 -7l22 -21c2 -2 4 -3 7 -3c1 0 3 1 6 2l76 71l76 -71c3 -1 5 -2 6 -2c3 0 5 1 7 3l22 21c3 3 5 6 5 7c0 2 -1 4 -3 6l-94 81c-3 3 -7 6 -11 6zM296 54c44 0 97 8 149 51v119h-119c-5 0 -8 3 -8 8
v47c0 5 3 8 8 8h181c5 0 8 -3 8 -8v-270c0 -6 -3 -9 -9 -9h-8c-3 0 -7 4 -12 11l-24 34c-45 -35 -97 -50 -165 -50c-161 0 -247 130 -247 290s86 290 246 290c68 0 122 -23 173 -63c1 -3 3 -4 3 -5c0 -2 -2 -5 -5 -8l-25 -26c-3 -3 -7 -5 -10 -5s-5 1 -7 3
c-42 32 -75 41 -129 41c-125 0 -183 -103 -183 -229s58 -229 183 -229z" />
    <glyph glyph-name="Gdotaccent" unicode="&#x120;" horiz-adv-x="585" 
d="M253 678c0 23 16 39 39 39s39 -16 39 -39s-16 -39 -39 -39s-39 16 -39 39zM296 54c44 0 97 8 149 51v119h-119c-5 0 -8 3 -8 8v47c0 5 3 8 8 8h181c5 0 8 -3 8 -8v-270c0 -6 -3 -9 -9 -9h-8c-3 0 -7 4 -12 11l-24 34c-45 -35 -97 -50 -165 -50c-161 0 -247 130 -247 290
s86 290 246 290c68 0 122 -23 173 -63c1 -3 3 -4 3 -5c0 -2 -2 -5 -5 -8l-25 -26c-3 -3 -7 -5 -10 -5s-5 1 -7 3c-42 32 -75 41 -129 41c-125 0 -183 -103 -183 -229s58 -229 183 -229z" />
    <glyph glyph-name="Jcircumflex" unicode="&#x134;" horiz-adv-x="404" 
d="M231 759h-16c-4 0 -8 -3 -11 -6l-94 -81c-2 -2 -3 -4 -3 -6c0 -1 2 -4 5 -7l22 -21c2 -2 4 -3 7 -3c1 0 3 1 6 2l76 71l76 -71c3 -1 5 -2 6 -2c3 0 5 1 7 3l22 21c3 3 5 6 5 7c0 2 -1 4 -3 6l-94 81c-3 3 -7 6 -11 6zM24 38c-2 2 -3 4 -3 5c0 4 3 4 19 39c3 4 6 6 9 6
c2 0 4 0 5 -1c35 -23 70 -33 105 -33c99 0 117 39 117 220v286c0 5 3 8 8 8h47c5 0 8 -3 8 -8v-292c0 -203 -26 -273 -178 -273c-61 0 -101 12 -137 43z" />
    <glyph glyph-name="Ccircumflex" unicode="&#x108;" horiz-adv-x="535" 
d="M299 759h-16c-4 0 -8 -3 -11 -6l-94 -81c-2 -2 -3 -4 -3 -6c0 -1 2 -4 5 -7l22 -21c2 -2 4 -3 7 -3c1 0 3 1 6 2l76 71l76 -71c3 -1 5 -2 6 -2c3 0 5 1 7 3l22 21c3 3 5 6 5 7c0 2 -1 4 -3 6l-94 81c-3 3 -7 6 -11 6zM494 76c-51 -59 -113 -81 -197 -81
c-161 0 -247 130 -247 290s86 290 246 290c68 0 122 -23 173 -63c1 -3 3 -4 3 -5c0 -2 -2 -5 -5 -8l-25 -26c-3 -3 -7 -5 -10 -5s-5 1 -7 3c-42 32 -75 41 -129 41c-125 0 -183 -103 -183 -229s58 -229 183 -229c47 0 103 9 159 60c1 1 3 2 6 2c5 0 9 -1 12 -4l18 -24
c3 -4 4 -7 4 -8c0 -2 0 -3 -1 -4z" />
    <glyph glyph-name="gdotaccent" unicode="&#x121;" horiz-adv-x="446" 
d="M204 54c76 0 104 55 104 147c0 91 -29 141 -104 141c-77 0 -101 -52 -101 -141c0 -107 24 -147 101 -147zM308 -14v57c-41 -49 -79 -48 -113 -48c-127 0 -155 93 -155 207c0 119 46 203 157 203c18 0 81 -2 115 -49l5 35c3 6 7 9 13 9h32c6 0 9 -3 9 -9v-412
c0 -141 -69 -175 -152 -175c-63 0 -92 7 -131 32c-3 1 -4 3 -4 7c0 2 0 4 1 5l14 35c2 2 4 3 5 3c2 0 4 -1 7 -2c41 -19 61 -21 90 -21c100 0 107 45 107 123zM161 531c0 23 16 39 39 39s39 -16 39 -39s-16 -39 -39 -39s-39 16 -39 39z" />
    <glyph glyph-name="gcircumflex" unicode="&#x11d;" horiz-adv-x="446" 
d="M204 54c76 0 104 55 104 147c0 91 -29 141 -104 141c-77 0 -101 -52 -101 -141c0 -107 24 -147 101 -147zM308 -14v57c-41 -49 -79 -48 -113 -48c-127 0 -155 93 -155 207c0 119 46 203 157 203c18 0 81 -2 115 -49l5 35c3 6 7 9 13 9h32c6 0 9 -3 9 -9v-412
c0 -141 -69 -175 -152 -175c-63 0 -92 7 -131 32c-3 1 -4 3 -4 7c0 2 0 4 1 5l14 35c2 2 4 3 5 3c2 0 4 -1 7 -2c41 -19 61 -21 90 -21c100 0 107 45 107 123zM246 600h-16c-4 0 -8 -3 -11 -6l-94 -81c-2 -2 -3 -4 -3 -6c0 -1 2 -4 5 -7l22 -21c2 -2 4 -3 7 -3c1 0 3 1 6 2
l76 71l76 -71c3 -1 5 -2 6 -2c3 0 5 1 7 3l22 21c3 3 5 6 5 7c0 2 -1 4 -3 6l-94 81c-3 3 -7 6 -11 6z" />
    <glyph glyph-name="ubreve" unicode="&#x16d;" 
d="M128 392v-208c0 -75 0 -130 91 -130c81 0 99 72 99 147v191c0 5 3 8 8 8h47c5 0 8 -3 8 -8v-383c0 -6 -3 -9 -9 -9h-32c-6 0 -10 3 -13 9l-5 45c-31 -55 -77 -59 -115 -59c-130 0 -142 87 -142 203v194c0 5 3 8 8 8h47c5 0 8 -3 8 -8zM223 476c-89 0 -119 38 -130 104
c0 7 3 10 10 10h38c5 0 9 -3 10 -10c19 -50 55 -53 73 -53c19 0 52 2 71 53c1 7 5 10 10 10h38c7 0 10 -3 10 -10c-13 -65 -38 -104 -130 -104z" />
    <glyph glyph-name="scircumflex" unicode="&#x15d;" horiz-adv-x="353" 
d="M187 600h-16c-4 0 -8 -3 -11 -6l-94 -81c-2 -2 -3 -4 -3 -6c0 -1 2 -4 5 -7l22 -21c2 -2 4 -3 7 -3c1 0 3 1 6 2l76 71l76 -71c3 -1 5 -2 6 -2c3 0 5 1 7 3l22 21c3 3 5 6 5 7c0 2 -1 4 -3 6l-94 81c-3 3 -7 6 -11 6zM56 25c-3 3 -6 3 -6 7c0 1 0 3 1 6l13 31
c1 5 5 7 11 7c30 -16 45 -22 90 -22c28 0 79 3 79 44c0 90 -194 60 -194 202c0 71 37 105 129 105c35 0 56 -6 87 -14c4 -3 6 -7 6 -12l-11 -39c-1 -3 -5 -6 -10 -6c-29 7 -40 8 -69 8c-64 0 -69 -20 -69 -47c0 -66 194 -73 194 -186c0 -87 -65 -114 -140 -114
c-39 0 -76 7 -111 30z" />
    <glyph glyph-name="Hbar" unicode="&#x126;" horiz-adv-x="589" 
d="M38 495h63v65c0 5 3 8 8 8h47c5 0 8 -3 8 -8v-65h261v65c0 5 3 8 8 8h47c5 0 8 -3 8 -8v-65h63c5 0 8 -3 8 -8v-47c0 -5 -3 -8 -8 -8h-63v-424c0 -5 -3 -8 -8 -8h-47c-5 0 -8 3 -8 8v235h-261v-235c0 -5 -3 -8 -8 -8h-47c-5 0 -8 3 -8 8v424h-63c-5 0 -8 3 -8 8v47
c0 5 3 8 8 8zM164 306h261v126h-261v-126z" />
    </font>
</defs>
</svg>
