<?xml version="1.0" encoding="utf-8"?>
<!-- Generator: Adobe Illustrator 18.0.0, SVG Export Plug-In . SVG Version: 6.00 Build 0)  -->
<!DOCTYPE svg PUBLIC "-//W3C//DTD SVG 1.1//EN" "http://www.w3.org/Graphics/SVG/1.1/DTD/svg11.dtd">
<svg version="1.1" id="Layer_1" xmlns="http://www.w3.org/2000/svg" xmlns:xlink="http://www.w3.org/1999/xlink" x="0px" y="0px"
	 viewBox="0 0 200 200" enable-background="new 0 0 200 200" xml:space="preserve">
<g>
	<g>
		<ellipse opacity="0" fill="#BBBDBF" cx="99.9" cy="156.9" rx="29.2" ry="1.9"/>
		<ellipse opacity="9.090909e-02" fill="#BBBDBF" cx="99.9" cy="156.9" rx="27" ry="1.7"/>
		<ellipse opacity="0.1818" fill="#BBBDBF" cx="99.9" cy="156.9" rx="24.8" ry="1.6"/>
		<ellipse opacity="0.2727" fill="#BBBDBF" cx="99.9" cy="156.9" rx="22.6" ry="1.4"/>
		<ellipse opacity="0.3636" fill="#BBBDBF" cx="99.9" cy="156.9" rx="20.4" ry="1.3"/>
		<ellipse opacity="0.4545" fill="#BBBDBF" cx="99.9" cy="156.9" rx="18.1" ry="1.2"/>
		<ellipse opacity="0.5455" fill="#BBBDBF" cx="99.9" cy="156.9" rx="15.9" ry="1"/>
		<ellipse opacity="0.6364" fill="#BBBDBF" cx="99.9" cy="156.9" rx="13.7" ry="0.9"/>
		<ellipse opacity="0.7273" fill="#BBBDBF" cx="99.9" cy="156.9" rx="11.5" ry="0.7"/>
		<ellipse opacity="0.8182" fill="#BBBDBF" cx="99.9" cy="156.9" rx="9.3" ry="0.6"/>
		<ellipse opacity="0.9091" fill="#BBBDBF" cx="99.9" cy="156.9" rx="7.1" ry="0.4"/>
		<ellipse fill="#BBBDBF" cx="99.9" cy="156.9" rx="4.8" ry="0.3"/>
	</g>
	<g>
		<circle fill="#BBBDBF" cx="99.9" cy="52.1" r="11.8"/>
		<path fill="#BBBDBF" d="M125.9,108.4c0,0-2.4-11.8-3-14c-0.6-2.1-1.6-8.8-3.4-16.8c-0.7-3.3-2.7-5.4-4.4-6.7c-1-0.8-2.4-1.5-4-2
			c0,0-0.4-0.2-1.1-0.4l-5.7,7.3l-2.2-3.6l5.2-4.5c-2-0.5-4.7-0.9-7.8-0.9c-2.5,0-4.6,0.4-6.4,0.8l5.4,4.6l-2.2,3.6l-5.9-7.5
			c-1.5,0.5-2.4,0.9-2.4,0.9s-6.2,2-7.6,8.4c-1.8,8-2.8,14.7-3.4,16.8c-0.6,2.3-3,14-3,14s-1.4,4.2,0.7,5.6c1.7,1.1,4.1,0.6,5-2.1
			c0.2-0.7,3.7-13.9,3.7-13.9s0.9-3.3,1.7-7c0.5-2.3,1.7-6.4,2.6-9.4c0.4,1,0.9,2,1.5,2.8c-2.6,10.5-10.1,41-10.1,41
			s2.8,0.5,5.1,0.7c2.5,0.2,4,0.2,4,0.2l2.5,27c0,0-0.6,4.1,3.8,4.1c4.4,0,3.6-3.7,3.6-3.7v-27.3l3,0v27.3c0,0-0.3,3.7,4.2,3.6
			c3.7,0,3.7-4.1,3.7-4.1s2-19.7,2.6-26.7l0.5-0.1c1.4-0.1,6-0.2,9.5-0.9l-11.2-41.4c0.7-0.6,1.3-1.4,1.8-2.5c0.9,2.9,2.2,7,2.7,9.3
			c0.8,3.8,1.7,7,1.7,7s3.5,13.2,3.7,13.9c0.9,2.7,3.4,3.3,5,2.1C127.3,112.5,125.9,108.4,125.9,108.4z"/>
	</g>
</g>
</svg>
