<?xml version="1.0" standalone="no"?>
<!DOCTYPE svg PUBLIC "-//W3C//DTD SVG 1.1//EN" "http://www.w3.org/Graphics/SVG/1.1/DTD/svg11.dtd" >
<svg xmlns="http://www.w3.org/2000/svg" width="100%" height="100%">
<metadata>
Created by FontXChange 20110222 at Tue Feb 16 14:22:35 2016
 By Creative4
Copyright 1990, 2002 , 2005Adobe Systems Incorporated. All Rights Reserved. Rotis is a trademark of Agfa Division, Bayer Corporation.
</metadata>
<defs>
<font id="RotisSemiSansStd-Light" horiz-adv-x="482" >
  <font-face 
    font-family="RotisSemiSansStd"
    font-weight="300"
    font-stretch="normal"
    units-per-em="1000"
    panose-1="0 0 4 0 0 0 0 0 0 0"
    ascent="690"
    descent="-310"
    x-height="476"
    cap-height="690"
    bbox="-35 -235 1089 911"
    underline-thickness="50"
    underline-position="-50"
    stemh="39"
    stemv="55"
    unicode-range="U+0020-FB02"
  />
<missing-glyph horiz-adv-x="500" 
d="M0 0v700h500v-700h-500zM250 395l170 255h-340zM280 350l170 -255v510zM80 50h340l-170 255zM50 605v-510l170 255z" />
    <glyph glyph-name="f_i" unicode="fi" horiz-adv-x="519" 
d="M118 0v435h-81v41h81v70c0 66 21 147 151 147c31 0 48 -5 63 -8v-49c-21 7 -39 18 -66 18c-77 0 -93 -44 -93 -111v-67h133v-41h-133v-435h-55zM378 0v476h55v-476h-55zM371 609v81h70v-81h-70z" />
    <glyph glyph-name="f_l" unicode="fl" horiz-adv-x="522" 
d="M383 0v690h55v-690h-55zM118 0v435h-81v41h81v70c0 66 21 147 151 147c31 0 48 -5 63 -8v-49c-21 7 -39 18 -66 18c-77 0 -93 -44 -93 -111v-67h133v-41h-133v-435h-55z" />
    <glyph glyph-name=".notdef" horiz-adv-x="500" 
d="M0 0v700h500v-700h-500zM250 395l170 255h-340zM280 350l170 -255v510zM80 50h340l-170 255zM50 605v-510l170 255z" />
    <glyph glyph-name="space" unicode=" " horiz-adv-x="241" 
 />
    <glyph glyph-name="exclam" unicode="!" horiz-adv-x="260" 
d="M142 179l-11 511h72l-11 -511h-50zM127 0v80h80v-80h-80z" />
    <glyph glyph-name="quotedbl" unicode="&#x22;" horiz-adv-x="315" 
d="M72 484l-15 206h72l-15 -206h-42zM201 484l-15 206h72l-15 -206h-42z" />
    <glyph glyph-name="numbersign" unicode="#" horiz-adv-x="575" 
d="M107 0l58 225h-105l11 44h107l23 94h-105l11 44h107l60 227h52l-60 -227h87l58 227h52l-60 -227h112l-12 -44h-111l-25 -94h113l-12 -44h-112l-59 -225h-52l59 225h-86l-59 -225h-52zM254 363l-25 -94h87l23 94h-85z" />
    <glyph glyph-name="dollar" unicode="$" horiz-adv-x="519" 
d="M234 -91v80c-117 6 -164 69 -175 142h72c6 -46 28 -89 103 -103v292c-68 17 -167 41 -167 171c0 125 98 169 167 176v72h42v-72c109 -4 173 -78 173 -137h-72c0 56 -52 95 -101 98v-273c74 -25 184 -54 184 -187c0 -125 -95 -179 -184 -179v-80h-42zM234 367v261
c-49 -6 -102 -53 -102 -133c0 -87 65 -115 102 -128zM276 306v-278c43 0 116 46 116 137c0 95 -75 125 -116 141z" />
    <glyph glyph-name="percent" unicode="%" horiz-adv-x="779" 
d="M167 199c-132 0 -143 123 -143 217c0 99 11 229 143 229s143 -130 143 -229c0 -94 -11 -217 -143 -217zM78 417c0 -79 8 -177 86 -177c81 0 92 98 92 177c0 83 -11 187 -92 187c-78 0 -86 -104 -86 -187zM612 -11c-132 0 -143 123 -143 217c0 99 11 229 143 229
s143 -130 143 -229c0 -94 -11 -217 -143 -217zM523 207c0 -79 9 -177 86 -177c81 0 92 98 92 177c0 83 -11 187 -92 187c-77 0 -86 -104 -86 -187zM267 0l197 634h47l-196 -634h-48z" />
    <glyph glyph-name="ampersand" unicode="&#x26;" horiz-adv-x="612" 
d="M346 45v-45c-26 -6 -36 -11 -96 -11c-81 0 -199 38 -199 195c0 110 55 152 107 175c-38 11 -103 49 -103 139c0 122 104 168 192 168c34 0 76 -6 99 -13v-45c-12 4 -52 19 -97 19c-90 0 -132 -68 -132 -130c0 -89 79 -120 130 -120h192v157l55 38v-195h110v-41h-110v-202
c0 -52 5 -106 75 -106c19 0 24 3 35 6v-37c-15 -5 -27 -8 -47 -8c-116 0 -118 76 -118 150v197h-167c-66 0 -153 -16 -153 -145c0 -113 65 -163 148 -163c38 0 69 12 79 17z" />
    <glyph glyph-name="quoteright" unicode="&#x2019;" horiz-adv-x="185" 
d="M52 484l11 206h72l-30 -206h-53z" />
    <glyph glyph-name="parenleft" unicode="(" horiz-adv-x="260" 
d="M228 -104v-39c-153 32 -153 294 -153 436c0 201 0 437 153 475v-39c-92 -56 -92 -220 -92 -434c0 -181 0 -344 92 -399z" />
    <glyph glyph-name="parenright" unicode=")" horiz-adv-x="260" 
d="M32 -143v39c92 56 92 220 92 434c0 181 0 344 -92 399v39c153 -33 153 -294 153 -436c0 -201 0 -437 -153 -475z" />
    <glyph glyph-name="asterisk" unicode="*" horiz-adv-x="315" 
d="M66 448l55 94h-110v42h110l-55 95l37 22l56 -96l54 96l38 -22l-56 -95h109v-42h-109l56 -94l-38 -22l-54 93l-56 -93z" />
    <glyph glyph-name="plus" unicode="+" horiz-adv-x="575" 
d="M260 0v212h-200v50h200v200h55v-200h200v-50h-200v-212h-55z" />
    <glyph glyph-name="comma" unicode="," horiz-adv-x="185" 
d="M52 -133l11 216h72l-30 -216h-53z" />
    <glyph glyph-name="hyphen" unicode="-" horiz-adv-x="389" 
d="M57 215v56h275v-56h-275z" />
    <glyph glyph-name="period" unicode="." horiz-adv-x="185" 
d="M51 0v83h83v-83h-83z" />
    <glyph glyph-name="slash" unicode="/" horiz-adv-x="278" 
d="M24 -136l173 897h57l-174 -897h-56z" />
    <glyph glyph-name="zero" unicode="0" 
d="M246 -11c-203 0 -212 219 -212 336c0 180 45 320 204 320c177 0 210 -181 210 -339c0 -120 -17 -317 -202 -317zM102 331c0 -110 14 -298 141 -298c124 0 137 169 137 275c0 124 -17 293 -143 293c-122 0 -135 -183 -135 -270z" />
    <glyph glyph-name="one" unicode="1" 
d="M246 0v568l-113 -81v62l124 85h51v-634h-62z" />
    <glyph glyph-name="two" unicode="2" 
d="M62 0v51c95 92 280 288 280 437c0 66 -43 113 -108 113c-87 0 -96 -76 -101 -106h-73c6 54 36 150 178 150c101 0 169 -62 169 -172c0 -149 -153 -297 -271 -422h284v-51h-358z" />
    <glyph glyph-name="three" unicode="3" 
d="M125 511h-73c1 58 56 134 169 134c104 0 176 -57 176 -168c0 -103 -70 -138 -110 -145v-2c62 -11 121 -56 121 -161c0 -127 -79 -180 -183 -180c-144 0 -176 88 -181 138h74c1 -29 14 -94 104 -94c72 0 118 45 118 137c0 102 -62 138 -108 138h-29v44h19
c59 0 107 41 107 121c0 61 -32 128 -108 128s-91 -59 -96 -90z" />
    <glyph glyph-name="four" unicode="4" 
d="M299 0v188h-251v49l246 397h60v-395h112v-51h-112v-188h-55zM297 545l-188 -306h190v306h-2z" />
    <glyph glyph-name="five" unicode="5" 
d="M165 588l-14 -240c7 5 44 32 107 32c114 0 181 -89 181 -195c0 -132 -85 -196 -199 -196c-136 0 -166 81 -175 136h74c3 -36 26 -92 103 -92c91 0 129 63 129 152c0 82 -40 151 -122 151c-50 0 -88 -29 -98 -55h-58l17 353h294v-46h-239z" />
    <glyph glyph-name="six" unicode="6" 
d="M439 510h-73c0 53 -41 91 -90 91c-147 0 -147 -223 -147 -304h2c11 21 50 84 151 84c100 0 172 -65 172 -193c0 -137 -83 -199 -189 -199c-187 0 -201 183 -201 323c0 147 24 333 214 333c115 0 159 -86 161 -135zM140 193c0 -69 37 -160 126 -160c75 0 120 68 120 154
c0 78 -46 150 -121 150c-71 0 -125 -72 -125 -144z" />
    <glyph glyph-name="seven" unicode="7" 
d="M111 0l243 583h-287v51h355v-51l-240 -583h-71z" />
    <glyph glyph-name="eight" unicode="8" 
d="M245 -11c-113 0 -193 64 -193 182c0 95 64 145 126 157v2c-55 12 -112 51 -112 149c0 93 66 166 180 166c101 0 170 -63 170 -165c0 -98 -66 -144 -112 -151v-2c60 -12 126 -53 126 -164c0 -115 -83 -174 -185 -174zM134 474c0 -59 32 -123 104 -123c77 0 110 58 110 125
c0 69 -41 125 -107 125c-64 0 -107 -55 -107 -127zM120 168c0 -69 42 -135 125 -135c74 0 117 48 117 130c0 77 -42 140 -120 140c-81 0 -122 -71 -122 -135z" />
    <glyph glyph-name="nine" unicode="9" 
d="M47 127h73c0 -46 30 -94 98 -94c139 0 143 236 143 308h-2c-5 -17 -52 -85 -148 -85c-95 0 -173 65 -173 191c0 116 67 198 188 198c178 0 200 -179 200 -313c0 -165 -28 -343 -209 -343c-133 0 -170 101 -170 138zM106 453c0 -89 46 -153 117 -153c75 0 131 69 131 134
c0 61 -35 167 -131 167c-79 0 -117 -70 -117 -148z" />
    <glyph glyph-name="colon" unicode=":" horiz-adv-x="241" 
d="M107 393v83h83v-83h-83zM107 0v83h83v-83h-83z" />
    <glyph glyph-name="semicolon" unicode=";" horiz-adv-x="241" 
d="M104 -133l11 216h72l-30 -216h-53zM108 393v83h83v-83h-83z" />
    <glyph glyph-name="less" unicode="&#x3c;" horiz-adv-x="575" 
d="M515 0l-455 206v50l455 206v-50l-398 -181l398 -181v-50z" />
    <glyph glyph-name="equal" unicode="=" horiz-adv-x="575" 
d="M60 143v50h455v-50h-455zM60 281v50h455v-50h-455z" />
    <glyph glyph-name="greater" unicode="&#x3e;" horiz-adv-x="575" 
d="M60 0v50l398 181l-398 181v50l455 -206v-50z" />
    <glyph glyph-name="question" unicode="?" horiz-adv-x="389" 
d="M189 179h-54v73c0 81 31 86 97 171c37 49 70 73 70 134c0 60 -47 96 -106 96c-51 0 -105 -28 -128 -45v69c32 12 73 24 125 24c84 0 177 -38 177 -147c0 -89 -84 -160 -133 -220c-34 -44 -48 -74 -48 -105v-50zM202 80v-80h-80v80h80z" />
    <glyph glyph-name="at" unicode="@" horiz-adv-x="1000" 
d="M804 14l27 -23c-17 -20 -133 -124 -323 -124c-236 0 -413 136 -413 331c0 242 208 446 450 446c206 0 360 -136 360 -324c0 -176 -141 -320 -281 -320c-68 0 -69 45 -72 71c-16 -20 -57 -65 -130 -65s-133 49 -133 143c0 141 127 327 259 327c84 0 106 -55 116 -74l22 54
h87l-84 -207c-22 -56 -61 -147 -61 -170c0 -16 15 -27 30 -27c80 0 201 113 201 268c0 168 -141 273 -296 273c-237 0 -399 -213 -399 -394c0 -164 134 -287 348 -287c175 0 278 91 292 102zM369 114c0 -48 29 -67 69 -67c120 0 194 273 194 326c0 31 -22 64 -62 64
c-97 0 -201 -228 -201 -323z" />
    <glyph glyph-name="A" unicode="A" horiz-adv-x="538" 
d="M9 0l224 690h71l224 -690h-62l-75 229h-257l-75 -229h-50zM262 626l-113 -351h227l-112 351h-2z" />
    <glyph glyph-name="B" unicode="B" horiz-adv-x="519" 
d="M88 0v690h143c71 0 206 -14 206 -170c0 -96 -70 -150 -120 -155v-2c62 -2 151 -64 151 -174c0 -127 -88 -189 -213 -189h-167zM150 644v-261h56c83 0 166 31 166 137c0 122 -110 124 -132 124h-90zM150 337v-289h90c34 0 160 7 160 142c0 116 -98 147 -155 147h-95z" />
    <glyph glyph-name="C" unicode="C" horiz-adv-x="519" 
d="M477 100v-65c-29 -20 -81 -46 -163 -46c-185 0 -263 161 -263 373c0 117 34 339 244 339c131 0 209 -92 209 -198h-76c0 69 -32 152 -135 152c-154 0 -174 -189 -174 -285c0 -179 57 -335 203 -335c76 0 120 36 155 65z" />
    <glyph glyph-name="D" unicode="D" horiz-adv-x="574" 
d="M88 0v690h118c173 0 317 -53 317 -345c0 -187 -53 -345 -305 -345h-130zM150 644v-596h51c175 0 254 70 254 289c0 269 -112 307 -254 307h-51z" />
    <glyph glyph-name="E" unicode="E" horiz-adv-x="445" 
d="M88 0v690h306v-46h-244v-260h232v-46h-232v-290h253v-48h-315z" />
    <glyph glyph-name="F" unicode="F" horiz-adv-x="389" 
d="M88 0v690h299v-46h-237v-260h225v-46h-225v-338h-62z" />
    <glyph glyph-name="G" unicode="G" horiz-adv-x="593" 
d="M518 383v-327c-25 -26 -90 -67 -205 -67c-210 0 -262 193 -262 372c0 166 58 340 251 340c178 0 229 -129 229 -199h-76c0 83 -47 153 -152 153c-138 0 -184 -143 -184 -297c0 -150 44 -323 203 -323c70 0 113 29 134 50v252h-172v46h234z" />
    <glyph glyph-name="H" unicode="H" horiz-adv-x="593" 
d="M88 0v690h62v-310h293v310h62v-690h-62v334h-293v-334h-62z" />
    <glyph glyph-name="I" unicode="I" horiz-adv-x="241" 
d="M89 0v690h62v-690h-62z" />
    <glyph glyph-name="J" unicode="J" horiz-adv-x="334" 
d="M254 690v-548c0 -102 -58 -153 -172 -153c-38 0 -64 6 -82 10v66c19 -7 51 -23 90 -23c77 0 102 45 102 112v536h62z" />
    <glyph glyph-name="K" unicode="K" horiz-adv-x="501" 
d="M88 0v690h62v-313h2l250 313h66l-264 -325l297 -365h-75l-274 339h-2v-339h-62z" />
    <glyph glyph-name="L" unicode="L" horiz-adv-x="389" 
d="M88 0v690h62v-642h243v-48h-305z" />
    <glyph glyph-name="M" unicode="M" horiz-adv-x="760" 
d="M378 75l198 615h96v-690h-62v637h-2l-203 -637h-60l-203 637h-2v-637h-52v690h92l196 -615h2z" />
    <glyph glyph-name="N" unicode="N" horiz-adv-x="612" 
d="M88 0v690h77l300 -619h2v619h57v-690h-82l-295 614h-2v-614h-57z" />
    <glyph glyph-name="O" unicode="O" horiz-adv-x="575" 
d="M289 -11c-197 0 -238 193 -238 357c0 184 56 355 238 355c177 0 234 -171 234 -355c0 -164 -33 -357 -234 -357zM119 342c0 -73 12 -307 172 -307c164 0 164 234 164 307c0 151 -40 313 -169 313c-135 0 -167 -162 -167 -313z" />
    <glyph glyph-name="P" unicode="P" 
d="M88 0v690h137c109 0 234 -29 234 -189c0 -162 -125 -186 -234 -186h-75v-315h-62zM150 644v-283h52c68 0 189 0 189 138c0 140 -121 145 -189 145h-52z" />
    <glyph glyph-name="Q" unicode="Q" horiz-adv-x="575" 
d="M568 0h-279c-188 0 -238 187 -238 346c0 184 56 355 238 355c177 0 234 -171 234 -355c0 -162 -32 -255 -114 -306l2 -2c47 3 124 13 157 27v-65zM119 342c0 -46 12 -296 172 -296c164 0 164 225 164 296c0 151 -40 313 -169 313c-135 0 -167 -162 -167 -313z" />
    <glyph glyph-name="R" unicode="R" horiz-adv-x="538" 
d="M88 0v690h138c108 0 229 -32 229 -182c0 -124 -108 -161 -160 -167v-2c96 -13 117 -57 136 -153l38 -186h-64l-36 177c-18 89 -42 140 -170 140h-49v-317h-62zM150 644v-281h39c90 0 198 26 198 142c0 139 -125 139 -166 139h-71z" />
    <glyph glyph-name="S" unicode="S" horiz-adv-x="463" 
d="M385 685v-69c-33 15 -90 39 -152 39c-82 0 -133 -47 -133 -112c0 -102 86 -113 211 -188c67 -41 114 -77 114 -174c0 -139 -113 -192 -229 -192c-73 0 -137 12 -153 16v71c25 -12 89 -39 157 -39c85 0 157 41 157 137c0 87 -71 117 -140 153c-93 50 -178 87 -178 203
c0 103 78 171 209 171c60 0 107 -9 137 -16z" />
    <glyph glyph-name="T" unicode="T" horiz-adv-x="389" 
d="M164 0v644h-163v46h388v-46h-163v-644h-62z" />
    <glyph glyph-name="U" unicode="U" horiz-adv-x="593" 
d="M511 690v-461c0 -120 -52 -240 -217 -240s-211 120 -211 240v461h62v-442c0 -61 0 -213 153 -213c151 0 151 152 151 213v442h62z" />
    <glyph glyph-name="V" unicode="V" horiz-adv-x="500" 
d="M212 0l-229 690h64l210 -625h2l200 625h59l-226 -690h-80z" />
    <glyph glyph-name="W" unicode="W" horiz-adv-x="797" 
d="M159 0l-118 690h62l103 -616h2l156 616h75l153 -616h2l106 616h56l-119 -690h-84l-154 622h-2l-153 -622h-85z" />
    <glyph glyph-name="X" unicode="X" horiz-adv-x="501" 
d="M0 0l215 358l-197 332h74l161 -272l159 272h64l-193 -323l218 -367h-74l-182 306l-183 -306h-62z" />
    <glyph glyph-name="Y" unicode="Y" 
d="M207 0v317l-207 373h69l172 -314l176 314h65l-213 -373v-317h-62z" />
    <glyph glyph-name="Z" unicode="Z" 
d="M28 0v48l338 596h-321v46h395v-46l-340 -596h354v-48h-426z" />
    <glyph glyph-name="bracketleft" unicode="[" horiz-adv-x="260" 
d="M91 -136v897h154v-50h-96v-797h96v-50h-154z" />
    <glyph glyph-name="backslash" unicode="\" horiz-adv-x="278" 
d="M198 -136l-174 897h57l173 -897h-56z" />
    <glyph glyph-name="bracketright" unicode="]" horiz-adv-x="260" 
d="M14 -136v50h96v797h-96v50h154v-897h-154z" />
    <glyph glyph-name="asciicircum" unicode="^" horiz-adv-x="334" 
d="M52 537l86 153h59l84 -153h-53l-59 112l-64 -112h-53z" />
    <glyph glyph-name="underscore" unicode="_" horiz-adv-x="500" 
d="M0 -125v50h500v-50h-500z" />
    <glyph glyph-name="quoteleft" unicode="&#x2018;" horiz-adv-x="185" 
d="M51 484l30 206h53l-11 -206h-72z" />
    <glyph glyph-name="a" unicode="a" horiz-adv-x="445" 
d="M307 0v74h-2c-10 -23 -57 -85 -137 -85c-77 0 -127 58 -127 121c0 91 81 155 266 155v32c0 74 0 151 -97 151c-77 0 -87 -49 -89 -88h-69c7 52 33 127 164 127c129 0 146 -84 146 -164v-323h-55zM307 199v27c-46 0 -205 -1 -205 -109c0 -48 37 -78 83 -78
c91 0 122 93 122 160z" />
    <glyph glyph-name="b" unicode="b" horiz-adv-x="463" 
d="M123 690v-309h2c27 58 63 106 131 106c100 0 162 -106 162 -254c0 -145 -65 -244 -184 -244c-166 0 -166 164 -166 231v470h55zM127 219c0 -86 22 -191 108 -191c88 0 122 93 122 197c0 101 -23 223 -111 223c-70 0 -119 -107 -119 -229z" />
    <glyph glyph-name="c" unicode="c" horiz-adv-x="408" 
d="M360 41v-41c-28 -8 -58 -11 -87 -11c-192 0 -228 139 -228 260c0 166 73 238 181 238c132 0 152 -105 152 -152h-69c0 39 0 113 -89 113c-92 0 -114 -99 -114 -188c0 -134 66 -230 182 -230c24 0 48 3 72 11z" />
    <glyph glyph-name="d" unicode="d" 
d="M344 0v97h-2c-8 -33 -50 -108 -138 -108c-128 0 -158 128 -158 246c0 141 51 252 167 252c90 0 120 -76 129 -106h2v309h55v-690h-55zM107 231c0 -94 21 -203 100 -203c81 0 137 98 137 215c0 58 -40 205 -128 205c-80 0 -109 -104 -109 -217z" />
    <glyph glyph-name="e" unicode="e" horiz-adv-x="431" 
d="M379 42v-42c-31 -8 -66 -11 -100 -11c-155 0 -233 91 -233 261c0 138 50 237 184 237c80 0 158 -46 158 -190h-281c0 -230 123 -267 186 -267c29 0 61 3 86 12zM111 336h216c0 37 -12 112 -105 112c-92 0 -108 -77 -111 -112z" />
    <glyph glyph-name="f" unicode="f" horiz-adv-x="313" 
d="M118 0v435h-81v41h81v70c0 66 21 147 151 147c31 0 48 -5 63 -8v-49c-21 7 -39 18 -66 18c-77 0 -93 -44 -93 -111v-67h133v-41h-133v-435h-55z" />
    <glyph glyph-name="g" unicode="g" 
d="M399 476v-450c0 -154 -61 -227 -207 -227c-45 0 -80 5 -115 18v68c42 -21 78 -39 129 -39c131 0 138 114 138 199v62h-2c-8 -32 -46 -107 -130 -107c-115 0 -166 114 -166 248c0 124 51 239 167 239c90 0 122 -77 129 -106h2v95h55zM107 247c0 -100 31 -208 110 -208
c70 0 127 95 127 212c0 80 -45 197 -127 197c-80 0 -110 -106 -110 -201z" />
    <glyph glyph-name="h" unicode="h" horiz-adv-x="501" 
d="M83 0v690h55v-344h2c12 35 62 141 158 141c91 0 120 -61 120 -151v-336h-55v318c0 54 -6 119 -75 119c-99 0 -150 -165 -150 -215v-222h-55z" />
    <glyph glyph-name="i" unicode="i" horiz-adv-x="222" 
d="M84 0v476h55v-476h-55zM76 609v81h70v-81h-70z" />
    <glyph glyph-name="j" unicode="j" horiz-adv-x="222" 
d="M-35 -196v49c7 -1 18 -3 29 -3c91 0 95 69 95 102v524h55v-507c0 -97 -35 -129 -80 -150c-41 -15 -84 -15 -99 -15zM82 609v81h70v-81h-70z" />
    <glyph glyph-name="k" unicode="k" horiz-adv-x="408" 
d="M83 0v690h55v-431h2l175 217h62l-178 -215l198 -261h-66l-191 253h-2v-253h-55z" />
    <glyph glyph-name="l" unicode="l" horiz-adv-x="222" 
d="M84 0v690h55v-690h-55z" />
    <glyph glyph-name="m" unicode="m" horiz-adv-x="742" 
d="M82 0v476h55v-119h2c21 57 74 130 149 130c73 0 110 -56 110 -129h2c11 31 60 129 148 129c84 0 111 -70 111 -128v-359h-55v321c0 45 0 116 -70 116c-89 0 -136 -140 -136 -218v-219h-55v326c0 35 0 111 -68 111c-87 0 -138 -140 -138 -218v-219h-55z" />
    <glyph glyph-name="n" unicode="n" horiz-adv-x="501" 
d="M138 476v-130h2c12 35 59 141 158 141c109 0 120 -93 120 -155v-332h-55v318c0 58 -6 119 -75 119c-99 0 -150 -166 -150 -222v-215h-55v476h55z" />
    <glyph glyph-name="o" unicode="o" 
d="M242 -11c-137 0 -196 105 -196 252c0 141 64 246 192 246s199 -96 199 -255c0 -141 -62 -243 -195 -243zM107 250c0 -120 33 -222 134 -222c105 0 135 96 135 201c0 115 -31 219 -138 219c-103 0 -131 -106 -131 -198z" />
    <glyph glyph-name="p" unicode="p" 
d="M83 -214v690h55v-96h2c11 31 49 107 130 107c113 0 166 -109 166 -254c0 -125 -46 -244 -167 -244c-90 0 -120 76 -129 106h-2v-309h-55zM138 244c0 -74 40 -216 128 -216c78 0 109 106 109 203c0 110 -31 217 -110 217c-82 0 -127 -131 -127 -204z" />
    <glyph glyph-name="q" unicode="q" 
d="M344 -214v310h-2c-10 -29 -36 -107 -129 -107c-122 0 -167 122 -167 244c0 148 53 254 165 254c83 0 123 -74 131 -106h2v95h55v-690h-55zM107 233c0 -99 33 -205 107 -205c91 0 130 140 130 215c0 71 -43 205 -128 205c-75 0 -109 -106 -109 -215z" />
    <glyph glyph-name="r" unicode="r" horiz-adv-x="315" 
d="M83 0v476h55v-106h2c32 60 76 112 147 117v-72h-16c-103 0 -133 -100 -133 -175v-240h-55z" />
    <glyph glyph-name="s" unicode="s" horiz-adv-x="352" 
d="M304 470v-59c-19 8 -67 35 -123 35c-50 0 -93 -19 -93 -67c0 -55 45 -67 104 -97c66 -32 143 -56 143 -151c0 -66 -35 -142 -176 -142c-68 0 -109 11 -132 21v61c12 -7 75 -36 137 -36c68 0 110 27 110 87c0 70 -70 83 -168 132c-37 20 -74 56 -74 110
c0 90 73 123 160 123c49 0 91 -13 112 -17z" />
    <glyph glyph-name="t" unicode="t" horiz-adv-x="322" 
d="M299 35v-43c-16 -1 -32 -3 -49 -3c-63 0 -135 11 -135 111v335h-78v41h78v111l55 34v-145h125v-41h-125v-297c0 -46 0 -110 86 -110c15 0 29 2 43 7z" />
    <glyph glyph-name="u" unicode="u" horiz-adv-x="501" 
d="M360 0v118h-2c-10 -32 -46 -129 -139 -129c-122 0 -140 93 -140 155v332h55v-319c0 -73 30 -118 80 -118c103 0 146 129 146 222v215h55v-476h-55z" />
    <glyph glyph-name="v" unicode="v" horiz-adv-x="426" 
d="M197 0l-186 476h60l154 -403h2l135 403h54l-166 -476h-53z" />
    <glyph glyph-name="w" unicode="w" horiz-adv-x="667" 
d="M167 0l-123 476h57l97 -396h2l112 396h49l118 -396h2l91 396h51l-113 -476h-53l-118 397h-2l-117 -397h-53z" />
    <glyph glyph-name="x" unicode="x" horiz-adv-x="412" 
d="M11 0l160 255l-141 221h64l118 -182l114 182h58l-143 -228l160 -248h-66l-134 209l-131 -209h-59z" />
    <glyph glyph-name="y" unicode="y" horiz-adv-x="426" 
d="M138 -185l63 190l-190 471h59l160 -394l133 394h53l-228 -661h-50z" />
    <glyph glyph-name="z" unicode="z" horiz-adv-x="389" 
d="M27 0v42l261 393h-242v41h315v-28l-267 -407h268v-41h-335z" />
    <glyph glyph-name="braceleft" unicode="{" 
d="M395 -210v-25c-100 4 -211 74 -211 170c0 36 6 66 12 96c7 35 16 68 16 94c0 62 -53 109 -110 127v24c57 18 110 60 110 127c0 26 -9 59 -16 94c-6 30 -12 60 -12 96c0 96 111 166 211 170v-25c-74 -17 -107 -79 -107 -136c0 -26 3 -53 7 -85c3 -24 7 -60 7 -79
c0 -111 -105 -153 -155 -174c50 -22 155 -67 155 -174c0 -19 -4 -55 -7 -79c-4 -32 -7 -59 -7 -85c0 -57 33 -119 107 -136z" />
    <glyph glyph-name="bar" unicode="|" horiz-adv-x="241" 
d="M93 -136v897h55v-897h-55z" />
    <glyph glyph-name="braceright" unicode="}" 
d="M90 -235v25c74 17 107 79 107 136c0 26 -3 53 -7 85c-3 24 -7 60 -7 79c0 107 105 152 155 174c-50 21 -155 63 -155 174c0 19 4 55 7 79c4 32 7 59 7 85c0 57 -33 119 -107 136v25c100 -4 211 -74 211 -170c0 -36 -6 -66 -12 -96c-7 -35 -16 -68 -16 -94
c0 -67 53 -109 110 -127v-24c-57 -18 -110 -65 -110 -127c0 -26 9 -59 16 -94c6 -30 12 -60 12 -96c0 -96 -111 -166 -211 -170z" />
    <glyph glyph-name="asciitilde" unicode="~" horiz-adv-x="575" 
d="M58 163v48c0 36 20 121 113 121c43 0 64 -23 89 -45l84 -77c19 -20 36 -37 62 -37c45 0 61 40 61 78v45h49v-49c0 -30 -13 -123 -112 -123c-43 0 -66 25 -88 44l-89 82c-19 17 -31 33 -57 33c-54 0 -63 -52 -63 -75v-45h-49z" />
    <glyph glyph-name="exclamdown" unicode="&#xa1;" horiz-adv-x="260" 
d="M57 -136l11 510h50l11 -510h-72zM53 474v80h80v-80h-80z" />
    <glyph glyph-name="cent" unicode="&#xa2;" horiz-adv-x="426" 
d="M201 -88v91c-91 17 -156 98 -156 255c0 140 63 218 156 229v73h40v-73c86 -9 140 -61 140 -151h-66c0 62 -19 100 -74 115v-415c16 -3 33 -5 49 -5c29 0 58 4 85 12v-39c-18 -5 -57 -12 -104 -12c-10 0 -20 1 -30 1v-81h-40zM201 52v398c-63 -14 -88 -86 -88 -181
c0 -118 42 -189 88 -217z" />
    <glyph glyph-name="sterling" unicode="&#xa3;" horiz-adv-x="408" 
d="M94 0v308h-63v44h63v157c0 117 56 157 157 157c125 0 153 -88 160 -138h-72c0 35 -16 94 -94 94c-71 0 -89 -49 -89 -129v-141h100v-44h-100v-260h240v-48h-302z" />
    <glyph glyph-name="fraction" unicode="&#x2044;" horiz-adv-x="201" 
d="M-27 0l198 634h47l-196 -634h-49z" />
    <glyph glyph-name="yen" unicode="&#xa5;" 
d="M208 317l-23 41h-155v41h132l-162 291h69l172 -314l176 314h65l-165 -291h135v-41h-158l-24 -41v-77h182v-41h-182v-199h-62v199h-178v41h178v77z" />
    <glyph glyph-name="florin" unicode="&#x192;" horiz-adv-x="334" 
d="M46 0l76 435h-79l7 41h80l4 21c12 68 19 196 186 196c31 0 47 -5 62 -8l-9 -49c-20 7 -41 18 -62 18c-108 0 -110 -95 -120 -156l-4 -22h133l-8 -41h-133l-76 -435h-57z" />
    <glyph glyph-name="section" unicode="&#xa7;" horiz-adv-x="426" 
d="M348 678v-67c-21 15 -69 46 -126 46c-59 0 -100 -32 -100 -72c0 -88 154 -97 222 -148c33 -25 49 -55 49 -91c0 -73 -67 -114 -80 -123c14 -10 56 -37 56 -95c0 -90 -83 -139 -187 -139c-60 0 -92 14 -110 19v75c30 -21 66 -48 120 -48c79 0 109 49 109 88
c0 82 -145 94 -215 142c-38 26 -53 59 -53 98c0 69 62 113 74 125c-11 7 -46 33 -46 87c0 73 68 126 153 126c56 0 117 -17 134 -23zM181 281c57 -25 86 -35 101 -43c12 8 50 48 50 92c0 49 -37 71 -69 87c-37 18 -100 38 -126 52c-14 -15 -43 -43 -43 -93
c0 -58 40 -74 87 -95z" />
    <glyph glyph-name="currency" unicode="&#xa4;" horiz-adv-x="500" 
d="M456 122l-67 67c-26 -17 -65 -48 -139 -48s-113 30 -139 48l-67 -67l-31 31l67 67c-11 15 -46 62 -46 136c0 79 32 119 46 140l-67 67l32 31l66 -67c26 19 66 48 139 48c72 0 112 -29 139 -48l66 67l32 -31l-67 -67c14 -21 46 -61 46 -140c0 -74 -35 -121 -46 -136
l67 -67zM80 356c0 -94 77 -169 170 -169s170 75 170 169c0 95 -76 173 -170 173s-170 -78 -170 -173z" />
    <glyph glyph-name="quotesingle" unicode="'" horiz-adv-x="185" 
d="M72 484l-15 206h72l-15 -206h-42z" />
    <glyph glyph-name="quotedblleft" unicode="&#x201c;" horiz-adv-x="315" 
d="M180 484l30 206h53l-11 -206h-72zM50 484l30 206h53l-11 -206h-72z" />
    <glyph glyph-name="guillemotleft" unicode="&#xab;" horiz-adv-x="315" 
d="M112 59l-84 182l84 186h47l-57 -186l57 -182h-47zM228 59l-83 182l83 186h47l-57 -186l57 -182h-47z" />
    <glyph glyph-name="guilsinglleft" unicode="&#x2039;" horiz-adv-x="204" 
d="M114 59l-83 182l83 186h48l-58 -186l58 -182h-48z" />
    <glyph glyph-name="guilsinglright" unicode="&#x203a;" horiz-adv-x="204" 
d="M42 59l58 185l-58 183h48l83 -183l-83 -185h-48z" />
    <glyph glyph-name="endash" unicode="&#x2013;" 
d="M57 215v56h368v-56h-368z" />
    <glyph glyph-name="dagger" unicode="&#x2020;" horiz-adv-x="463" 
d="M201 0v388h-161v47h161v255h61v-255h161v-47h-161v-388h-61z" />
    <glyph glyph-name="daggerdbl" unicode="&#x2021;" 
d="M210 0v334h-161v47h161v68h-161v47h161v194h61v-194h162v-47h-162v-68h162v-47h-162v-334h-61z" />
    <glyph glyph-name="periodcentered" unicode="&#xb7;" horiz-adv-x="204" 
d="M59 274v85h85v-85h-85z" />
    <glyph glyph-name="paragraph" unicode="&#xb6;" 
d="M272 -214v437c-84 10 -221 65 -221 227c0 174 159 240 299 240h115v-37h-58v-867h-37v867h-61v-867h-37z" />
    <glyph glyph-name="bullet" unicode="&#x2022;" 
d="M241 180c-99 0 -181 81 -181 180c0 100 81 182 181 182s181 -82 181 -182c0 -99 -82 -180 -181 -180z" />
    <glyph glyph-name="quotesinglbase" unicode="&#x201a;" horiz-adv-x="185" 
d="M52 -123l11 206h72l-30 -206h-53z" />
    <glyph glyph-name="quotedblbase" unicode="&#x201e;" horiz-adv-x="315" 
d="M52 -123l11 206h72l-30 -206h-53zM182 -123l11 206h72l-30 -206h-53z" />
    <glyph glyph-name="quotedblright" unicode="&#x201d;" horiz-adv-x="315" 
d="M52 484l11 206h72l-30 -206h-53zM182 484l11 206h72l-30 -206h-53z" />
    <glyph glyph-name="guillemotright" unicode="&#xbb;" horiz-adv-x="315" 
d="M40 59l57 185l-57 183h47l84 -183l-84 -185h-47zM156 59l58 185l-58 183h47l84 -183l-84 -185h-47z" />
    <glyph glyph-name="ellipsis" unicode="&#x2026;" horiz-adv-x="686" 
d="M64 0v79h79v-79h-79zM303 0v79h79v-79h-79zM542 0v79h79v-79h-79z" />
    <glyph glyph-name="perthousand" unicode="&#x2030;" horiz-adv-x="1112" 
d="M167 199c-132 0 -143 123 -143 217c0 99 11 229 143 229s143 -130 143 -229c0 -94 -11 -217 -143 -217zM78 417c0 -79 8 -177 86 -177c81 0 92 98 92 177c0 83 -11 187 -92 187c-78 0 -86 -104 -86 -187zM612 -11c-132 0 -143 123 -143 217c0 99 11 229 143 229
s143 -130 143 -229c0 -94 -11 -217 -143 -217zM523 207c0 -79 9 -177 86 -177c81 0 92 98 92 177c0 83 -11 187 -92 187c-77 0 -86 -104 -86 -187zM945 -11c-132 0 -143 123 -143 217c0 99 11 229 143 229s144 -130 144 -229c0 -94 -12 -217 -144 -217zM856 207
c0 -79 8 -177 86 -177c83 0 93 98 93 177c0 83 -10 187 -93 187c-78 0 -86 -104 -86 -187zM267 0l197 634h47l-196 -634h-48z" />
    <glyph glyph-name="questiondown" unicode="&#xbf;" horiz-adv-x="389" 
d="M321 -54v-69c-32 -12 -73 -24 -125 -24c-84 0 -176 37 -176 147c0 88 83 160 132 219c36 44 49 75 49 105v51h54v-73c0 -81 -31 -86 -98 -171c-36 -49 -69 -74 -69 -134c0 -61 47 -96 105 -96c51 0 105 28 128 45zM188 474v80h80v-80h-80z" />
    <glyph glyph-name="grave" unicode="`" horiz-adv-x="301" 
d="M138 559l-61 119h74l41 -119h-54z" />
    <glyph glyph-name="acute" unicode="&#xb4;" horiz-adv-x="301" 
d="M124 559l41 119h74l-61 -119h-54z" />
    <glyph glyph-name="circumflex" unicode="&#x2c6;" horiz-adv-x="301" 
d="M36 559l86 119h59l84 -119h-53l-59 75l-64 -75h-53z" />
    <glyph glyph-name="tilde" unicode="&#x2dc;" horiz-adv-x="301" 
d="M74 559h-35c0 39 13 100 56 100c17 0 38 -13 58 -25c18 -12 35 -24 48 -24c22 0 25 29 25 44h35c0 -33 -4 -97 -58 -97c-14 0 -34 10 -54 20c-22 13 -43 26 -52 26c-20 0 -22 -35 -23 -44z" />
    <glyph glyph-name="macron" unicode="&#xaf;" horiz-adv-x="301" 
d="M35 559v53h230v-53h-230z" />
    <glyph glyph-name="breve" unicode="&#x2d8;" horiz-adv-x="301" 
d="M228 678h34c0 -50 -29 -122 -110 -122c-82 0 -113 72 -113 122h34c0 -26 21 -69 79 -69s76 43 76 69z" />
    <glyph glyph-name="dotaccent" unicode="&#x2d9;" horiz-adv-x="301" 
d="M112 570v81h77v-81h-77z" />
    <glyph glyph-name="dieresis" unicode="&#xa8;" horiz-adv-x="301" 
d="M39 570v78h74v-78h-74zM203 570v78h74v-78h-74z" />
    <glyph glyph-name="ring" unicode="&#x2da;" horiz-adv-x="301" 
d="M135 538c-43 0 -78 36 -78 80c0 43 35 79 78 79c44 0 79 -36 79 -79c0 -44 -35 -80 -79 -80zM91 618c0 -26 19 -46 44 -46c24 0 45 20 45 46c0 25 -20 45 -45 45s-44 -20 -44 -45z" />
    <glyph glyph-name="cedilla" unicode="&#xb8;" horiz-adv-x="301" 
d="M187 16l-14 -76c19 -1 92 -1 92 -72c0 -43 -31 -82 -92 -82c-25 0 -44 5 -58 11v42c5 -4 26 -20 53 -20s49 19 49 46c0 38 -37 47 -64 47h-19l17 104h36z" />
    <glyph glyph-name="hungarumlaut" unicode="&#x2dd;" horiz-adv-x="301" 
d="M73 559l41 119h74l-61 -119h-54zM186 559l42 119h73l-60 -119h-55z" />
    <glyph glyph-name="ogonek" unicode="&#x2db;" horiz-adv-x="301" 
d="M225 -158v-42c-18 -5 -29 -8 -55 -8c-50 0 -95 29 -95 80c0 63 68 123 85 138h37c-12 -12 -74 -73 -74 -127c0 -35 22 -56 52 -56c23 0 44 10 50 15z" />
    <glyph glyph-name="caron" unicode="&#x2c7;" horiz-adv-x="301" 
d="M120 559l-84 119h53l60 -75l63 75h53l-86 -119h-59z" />
    <glyph glyph-name="emdash" unicode="&#x2014;" horiz-adv-x="667" 
d="M57 215v56h553v-56h-553z" />
    <glyph glyph-name="AE" unicode="&#xc6;" horiz-adv-x="760" 
d="M0 0l391 690h319v-46h-256l21 -285h222v-46h-220l20 -265h221v-48h-280l-21 313h-181l-174 -313h-62zM395 611l-134 -252h154l-18 252h-2z" />
    <glyph glyph-name="ordfeminine" unicode="&#xaa;" horiz-adv-x="260" 
d="M183 281v32c-14 -16 -34 -35 -72 -35c-45 0 -74 33 -74 71c0 75 99 86 146 86v11c0 47 0 83 -49 83c-40 0 -42 -24 -45 -50h-47c4 38 20 79 95 79s85 -49 85 -94v-183h-39zM79 353c0 -24 18 -39 41 -39c40 0 63 32 63 92c-22 0 -104 0 -104 -53z" />
    <glyph glyph-name="Lslash" unicode="&#x141;" horiz-adv-x="389" 
d="M88 0v290l-88 -76v57l88 76v343h62v-289l123 107v-56l-123 -108v-296h243v-48h-305z" />
    <glyph glyph-name="Oslash" unicode="&#xd8;" horiz-adv-x="575" 
d="M495 705l-43 -76c32 -36 72 -121 72 -268c0 -205 -59 -372 -240 -372c-85 0 -131 40 -149 56l-44 -82l-37 20l55 99c-29 34 -58 110 -58 261c0 186 59 358 237 358c60 0 110 -20 131 -40l41 67zM422 570l-256 -469c19 -21 50 -66 118 -66c138 0 172 173 172 312
c0 154 -19 187 -34 223zM141 144l253 466c-17 14 -57 45 -107 45c-52 0 -168 -38 -168 -313c0 -60 8 -170 22 -198z" />
    <glyph glyph-name="OE" unicode="&#x152;" horiz-adv-x="853" 
d="M476 0v126h-2c-18 -43 -54 -137 -179 -137c-185 0 -244 182 -244 363c0 155 40 349 237 349c126 0 168 -92 186 -138h2v127h325v-46h-264v-257h251v-46h-251v-293h274v-48h-335zM119 362c0 -161 39 -327 185 -327c111 0 172 110 172 309c0 167 -55 311 -184 311
c-134 0 -173 -152 -173 -293z" />
    <glyph glyph-name="ordmasculine" unicode="&#xba;" horiz-adv-x="278" 
d="M139 276c-78 0 -112 61 -112 143c0 77 34 139 111 139c80 0 113 -70 113 -144c0 -80 -35 -138 -112 -138zM70 423c0 -65 17 -118 69 -118c53 0 69 54 69 107c0 59 -16 117 -71 117c-53 0 -67 -59 -67 -106z" />
    <glyph glyph-name="ae" unicode="&#xe6;" horiz-adv-x="709" 
d="M652 43v-43c-11 -3 -55 -11 -101 -11c-120 0 -182 75 -202 119c-13 -42 -62 -119 -167 -119c-86 0 -139 54 -139 131c0 156 219 156 278 156v59c0 40 -9 113 -99 113c-66 0 -99 -47 -101 -79h-69c5 40 48 118 171 118c82 0 113 -44 127 -77c19 23 69 77 150 77
c150 0 165 -147 165 -188v-62h-289c0 -61 55 -207 195 -207c39 0 65 7 81 13zM321 205v32c-32 0 -217 12 -217 -111c0 -54 42 -87 96 -87c121 0 121 115 121 166zM376 276h228c0 64 0 172 -103 172c-104 0 -125 -108 -125 -172z" />
    <glyph glyph-name="dotlessi" unicode="&#x131;" horiz-adv-x="222" 
d="M84 0v476h55v-476h-55z" />
    <glyph glyph-name="lslash" unicode="&#x142;" horiz-adv-x="222" 
d="M83 0v325l-83 -73v54l83 72v312h55v-264l85 72v-52l-85 -73v-373h-55z" />
    <glyph glyph-name="oslash" unicode="&#xf8;" 
d="M396 507l-35 -62c33 -25 76 -91 76 -202c0 -154 -73 -254 -197 -254c-60 0 -99 29 -110 35l-39 -71l-33 16l46 78c-27 34 -59 83 -59 183c0 176 83 257 193 257c47 0 85 -17 93 -24l35 61zM338 403l-185 -341c13 -11 37 -34 84 -34c98 0 139 99 139 213
c0 99 -21 139 -38 162zM129 94l184 336c-18 9 -36 18 -74 18c-94 0 -133 -98 -133 -207c0 -76 11 -120 23 -147z" />
    <glyph glyph-name="oe" unicode="&#x153;" horiz-adv-x="765" 
d="M710 45v-45c-21 -6 -45 -11 -94 -11c-136 0 -182 77 -208 120c-11 -35 -53 -120 -166 -120c-136 0 -197 114 -197 249c0 146 57 249 199 249c100 0 142 -59 163 -92c15 35 58 92 148 92c123 0 167 -92 167 -214v-35h-283c0 -82 70 -208 188 -208c37 0 67 8 83 15z
M106 253c0 -114 28 -225 138 -225c103 0 133 96 133 203c0 105 -28 217 -139 217c-105 0 -132 -102 -132 -195zM437 277h224c0 67 -6 171 -103 171c-103 0 -121 -104 -121 -171z" />
    <glyph glyph-name="germandbls" unicode="&#xdf;" horiz-adv-x="501" 
d="M83 0v525c0 52 5 91 36 124c27 29 73 52 126 52c94 0 170 -64 170 -173c0 -101 -66 -141 -107 -152v-2c67 -7 147 -39 147 -181c0 -124 -68 -197 -188 -197c-39 0 -59 4 -73 6v45c13 -3 38 -12 68 -12c76 0 132 40 132 159c0 107 -51 153 -135 153h-21v47h21
c27 0 95 38 95 130c0 86 -51 138 -116 138c-94 0 -100 -106 -100 -162v-500h-55z" />
    <glyph glyph-name="logicalnot" unicode="&#xac;" horiz-adv-x="574" 
d="M465 143v138h-406v50h456v-188h-50z" />
    <glyph glyph-name="mu" unicode="&#xb5;" horiz-adv-x="501" 
d="M81 -214v690h55v-273c0 -70 8 -164 103 -164c115 0 119 170 119 222v215h55v-367c0 -41 0 -73 37 -73h12v-42c-5 -1 -12 -2 -17 -2c-27 0 -59 11 -70 31c-11 18 -15 31 -15 77h-2c-4 -31 -35 -111 -131 -111c-55 0 -78 28 -91 42v-245h-55z" />
    <glyph glyph-name="trademark" unicode="&#x2122;" horiz-adv-x="612" 
d="M113 400v248h-73v42h190v-42h-74v-248h-43zM263 400v290h78l60 -228h2l59 228h80v-290h-43v262h-2l-68 -262h-53l-68 262h-2v-262h-43z" />
    <glyph glyph-name="Eth" unicode="&#xd0;" horiz-adv-x="574" 
d="M88 0v341h-88v46h88v303h124c202 0 311 -87 311 -345c0 -263 -109 -345 -311 -345h-124zM150 341v-293h50c168 0 255 62 255 297c0 242 -87 299 -255 299h-50v-257h158v-46h-158z" />
    <glyph glyph-name="onehalf" unicode="&#xbd;" horiz-adv-x="779" 
d="M224 0l198 634h47l-196 -634h-49zM145 205v369l-76 -54v55l87 59h41v-429h-52zM466 0v42c19 17 186 172 186 288c0 43 -26 70 -66 70c-54 0 -58 -47 -62 -71h-60c6 44 26 111 125 111c70 0 118 -43 118 -120c0 -115 -115 -218 -173 -275h181v-45h-249z" />
    <glyph glyph-name="plusminus" unicode="&#xb1;" horiz-adv-x="575" 
d="M60 -91v50h455v-50h-455zM260 0v212h-200v50h200v200h55v-200h200v-50h-200v-212h-55z" />
    <glyph glyph-name="Thorn" unicode="&#xde;" horiz-adv-x="556" 
d="M84 0v690h62v-139h166c96 0 201 -30 201 -191c0 -166 -105 -188 -201 -188h-166v-172h-62zM146 505v-287h131c72 0 168 0 168 140s-96 147 -168 147h-131z" />
    <glyph glyph-name="onequarter" unicode="&#xbc;" horiz-adv-x="779" 
d="M618 0v125h-165v40l166 268h51v-263h72v-45h-72v-125h-52zM616 346l-107 -176h109v176h-2zM231 0l197 634h47l-196 -634h-48zM140 205v369l-76 -54v55l87 59h41v-429h-52z" />
    <glyph glyph-name="divide" unicode="&#xf7;" horiz-adv-x="575" 
d="M60 211v50h455v-50h-455zM248 0v79h79v-79h-79zM248 393v79h79v-79h-79z" />
    <glyph glyph-name="brokenbar" unicode="&#xa6;" horiz-adv-x="241" 
d="M93 -136v359h55v-359h-55zM93 402v359h55v-359h-55z" />
    <glyph glyph-name="degree" unicode="&#xb0;" horiz-adv-x="334" 
d="M167 430c-60 0 -108 50 -108 110c0 59 49 105 108 105c58 0 107 -47 107 -106s-47 -109 -107 -109zM100 540c0 -36 29 -69 67 -69c37 0 66 32 66 69c0 36 -30 64 -66 64s-67 -28 -67 -64z" />
    <glyph glyph-name="thorn" unicode="&#xfe;" horiz-adv-x="463" 
d="M69 -214v904h55v-274h2c13 23 49 71 121 71c124 0 176 -120 176 -250c0 -127 -56 -248 -181 -248c-72 0 -104 45 -116 68h-2v-271h-55zM124 245c0 -94 22 -217 117 -217c92 0 121 114 121 213c0 90 -27 207 -125 207c-89 0 -113 -118 -113 -203z" />
    <glyph glyph-name="threequarters" unicode="&#xbe;" horiz-adv-x="779" 
d="M641 346l-107 -176h109v176h-2zM278 0l198 634h47l-196 -634h-49zM643 0v125h-165v40l166 268h51v-263h72v-45h-72v-125h-52zM95 545h-60c3 30 25 100 119 100c73 0 122 -42 122 -117c0 -59 -33 -86 -59 -97c32 -11 66 -42 66 -106c0 -98 -67 -126 -128 -126
c-104 0 -126 70 -126 102h60c1 -21 6 -62 65 -62c43 0 74 25 74 81c0 76 -39 88 -92 88v44c54 0 85 15 85 73c0 38 -20 80 -68 80c-44 0 -55 -36 -58 -60z" />
    <glyph glyph-name="registered" unicode="&#xae;" horiz-adv-x="500" 
d="M250 231c-129 0 -235 105 -235 235c0 129 106 235 235 235s235 -106 235 -235c0 -130 -106 -235 -235 -235zM50 466c0 -110 90 -200 200 -200s200 90 200 200s-90 200 -200 200s-200 -90 -200 -200zM161 348v248h83c47 0 101 -8 101 -80c0 -44 -27 -53 -43 -61l46 -107
h-50l-39 100h-53v-100h-45zM206 553v-65h54c21 0 38 10 38 32s-15 33 -42 33h-50z" />
    <glyph glyph-name="minus" unicode="&#x2212;" horiz-adv-x="575" 
d="M60 212v50h455v-50h-455z" />
    <glyph glyph-name="eth" unicode="&#xf0;" 
d="M346 602l-57 -26c58 -51 147 -149 147 -345c0 -137 -58 -242 -194 -242c-144 0 -196 120 -196 252c0 155 78 246 182 246c56 0 89 -31 101 -42l2 2c-25 37 -52 77 -94 108l-83 -37l-16 37l61 26c-39 26 -66 40 -102 51v3h110c15 -10 35 -22 43 -31l80 36zM107 248
c0 -105 26 -220 135 -220c104 0 133 110 133 204c0 101 -30 216 -137 216c-105 0 -131 -114 -131 -200z" />
    <glyph glyph-name="multiply" unicode="&#xd7;" horiz-adv-x="575" 
d="M93 -3l-35 37l190 194l-189 193l42 45l187 -195l187 195l36 -38l-188 -194l194 -196l-42 -41l-192 195z" />
    <glyph glyph-name="copyright" unicode="&#xa9;" horiz-adv-x="500" 
d="M250 231c-130 0 -235 105 -235 235c0 129 105 235 235 235c129 0 235 -106 235 -235c0 -130 -106 -235 -235 -235zM50 466c0 -110 90 -200 200 -200s200 90 200 200s-90 200 -200 200s-200 -90 -200 -200zM330 407l26 -32c-11 -10 -38 -39 -95 -39
c-71 0 -136 57 -136 134s66 134 136 134c55 0 84 -29 95 -39l-26 -33c-12 11 -34 31 -69 31c-43 0 -93 -34 -93 -93c0 -62 51 -93 90 -93c42 0 60 19 72 30z" />
    <glyph glyph-name="Aacute" unicode="&#xc1;" horiz-adv-x="538" 
d="M9 0l224 690h71l224 -690h-62l-75 229h-257l-75 -229h-50zM262 626l-113 -351h227l-112 351h-2zM243 773l41 119h74l-61 -119h-54z" />
    <glyph glyph-name="Acircumflex" unicode="&#xc2;" horiz-adv-x="538" 
d="M9 0l224 690h71l224 -690h-62l-75 229h-257l-75 -229h-50zM262 626l-113 -351h227l-112 351h-2zM155 773l86 119h59l84 -119h-53l-59 75l-64 -75h-53z" />
    <glyph glyph-name="Adieresis" unicode="&#xc4;" horiz-adv-x="538" 
d="M9 0l224 690h71l224 -690h-62l-75 229h-257l-75 -229h-50zM262 626l-113 -351h227l-112 351h-2zM158 784v78h74v-78h-74zM322 784v78h74v-78h-74z" />
    <glyph glyph-name="Agrave" unicode="&#xc0;" horiz-adv-x="538" 
d="M9 0l224 690h71l224 -690h-62l-75 229h-257l-75 -229h-50zM262 626l-113 -351h227l-112 351h-2zM257 773l-61 119h74l41 -119h-54z" />
    <glyph glyph-name="Aring" unicode="&#xc5;" horiz-adv-x="538" 
d="M9 0l224 690h71l224 -690h-62l-75 229h-257l-75 -229h-50zM262 626l-113 -351h227l-112 351h-2zM264 752c-43 0 -78 36 -78 80c0 43 35 79 78 79c44 0 79 -36 79 -79c0 -44 -35 -80 -79 -80zM220 832c0 -26 19 -46 44 -46c24 0 45 20 45 46c0 25 -20 45 -45 45
s-44 -20 -44 -45z" />
    <glyph glyph-name="Atilde" unicode="&#xc3;" horiz-adv-x="538" 
d="M9 0l224 690h71l224 -690h-62l-75 229h-257l-75 -229h-50zM262 626l-113 -351h227l-112 351h-2zM193 773h-35c0 39 13 100 56 100c17 0 38 -13 58 -25c18 -12 35 -24 48 -24c22 0 25 29 25 44h35c0 -33 -4 -97 -58 -97c-14 0 -34 10 -54 20c-22 13 -43 26 -52 26
c-20 0 -22 -35 -23 -44z" />
    <glyph glyph-name="Ccedilla" unicode="&#xc7;" horiz-adv-x="519" 
d="M243 -88l14 83c-145 31 -206 179 -206 367c0 117 34 339 244 339c131 0 209 -92 209 -198h-76c0 69 -32 152 -135 152c-154 0 -174 -189 -174 -285c0 -179 57 -335 203 -335c76 0 120 36 155 65v-65c-29 -20 -81 -46 -163 -46c-8 0 -16 0 -23 1l-9 -50
c19 -1 92 -1 92 -72c0 -43 -31 -82 -92 -82c-25 0 -44 5 -58 11v42c5 -4 26 -20 53 -20s49 19 49 46c0 38 -37 47 -64 47h-19z" />
    <glyph glyph-name="Eacute" unicode="&#xc9;" horiz-adv-x="445" 
d="M88 0v690h306v-46h-244v-260h232v-46h-232v-290h253v-48h-315zM196 773l41 119h74l-61 -119h-54z" />
    <glyph glyph-name="Ecircumflex" unicode="&#xca;" horiz-adv-x="445" 
d="M88 0v690h306v-46h-244v-260h232v-46h-232v-290h253v-48h-315zM123 773l86 119h59l84 -119h-53l-59 75l-64 -75h-53z" />
    <glyph glyph-name="Edieresis" unicode="&#xcb;" horiz-adv-x="445" 
d="M88 0v690h306v-46h-244v-260h232v-46h-232v-290h253v-48h-315zM111 784v78h74v-78h-74zM275 784v78h74v-78h-74z" />
    <glyph glyph-name="Egrave" unicode="&#xc8;" horiz-adv-x="445" 
d="M88 0v690h306v-46h-244v-260h232v-46h-232v-290h253v-48h-315zM210 773l-61 119h74l41 -119h-54z" />
    <glyph glyph-name="Iacute" unicode="&#xcd;" horiz-adv-x="241" 
d="M89 0v690h62v-690h-62zM94 773l41 119h74l-61 -119h-54z" />
    <glyph glyph-name="Icircumflex" unicode="&#xce;" horiz-adv-x="241" 
d="M89 0v690h62v-690h-62zM-4 773l86 119h59l84 -119h-53l-59 75l-64 -75h-53z" />
    <glyph glyph-name="Idieresis" unicode="&#xcf;" horiz-adv-x="241" 
d="M89 0v690h62v-690h-62zM-6 784v78h74v-78h-74zM158 784v78h74v-78h-74z" />
    <glyph glyph-name="Igrave" unicode="&#xcc;" horiz-adv-x="241" 
d="M89 0v690h62v-690h-62zM108 773l-61 119h74l41 -119h-54z" />
    <glyph glyph-name="Ntilde" unicode="&#xd1;" horiz-adv-x="612" 
d="M88 0v690h77l300 -619h2v619h57v-690h-82l-295 614h-2v-614h-57zM230 773h-35c0 39 13 100 56 100c17 0 38 -13 58 -25c18 -12 35 -24 48 -24c22 0 25 29 25 44h35c0 -33 -4 -97 -58 -97c-14 0 -34 10 -54 20c-22 13 -43 26 -52 26c-20 0 -22 -35 -23 -44z" />
    <glyph glyph-name="Oacute" unicode="&#xd3;" horiz-adv-x="575" 
d="M289 -11c-197 0 -238 193 -238 357c0 184 56 355 238 355c177 0 234 -171 234 -355c0 -164 -33 -357 -234 -357zM119 342c0 -73 12 -307 172 -307c164 0 164 234 164 307c0 151 -40 313 -169 313c-135 0 -167 -162 -167 -313zM261 773l41 119h74l-61 -119h-54z" />
    <glyph glyph-name="Ocircumflex" unicode="&#xd4;" horiz-adv-x="575" 
d="M289 -11c-197 0 -238 193 -238 357c0 184 56 355 238 355c177 0 234 -171 234 -355c0 -164 -33 -357 -234 -357zM119 342c0 -73 12 -307 172 -307c164 0 164 234 164 307c0 151 -40 313 -169 313c-135 0 -167 -162 -167 -313zM173 773l86 119h59l84 -119h-53l-59 75
l-64 -75h-53z" />
    <glyph glyph-name="Odieresis" unicode="&#xd6;" horiz-adv-x="575" 
d="M289 -11c-197 0 -238 193 -238 357c0 184 56 355 238 355c177 0 234 -171 234 -355c0 -164 -33 -357 -234 -357zM119 342c0 -73 12 -307 172 -307c164 0 164 234 164 307c0 151 -40 313 -169 313c-135 0 -167 -162 -167 -313zM176 784v78h74v-78h-74zM340 784v78h74v-78
h-74z" />
    <glyph glyph-name="Ograve" unicode="&#xd2;" horiz-adv-x="575" 
d="M289 -11c-197 0 -238 193 -238 357c0 184 56 355 238 355c177 0 234 -171 234 -355c0 -164 -33 -357 -234 -357zM119 342c0 -73 12 -307 172 -307c164 0 164 234 164 307c0 151 -40 313 -169 313c-135 0 -167 -162 -167 -313zM275 773l-61 119h74l41 -119h-54z" />
    <glyph glyph-name="Otilde" unicode="&#xd5;" horiz-adv-x="575" 
d="M289 -11c-197 0 -238 193 -238 357c0 184 56 355 238 355c177 0 234 -171 234 -355c0 -164 -33 -357 -234 -357zM119 342c0 -73 12 -307 172 -307c164 0 164 234 164 307c0 151 -40 313 -169 313c-135 0 -167 -162 -167 -313zM211 773h-35c0 39 13 100 56 100
c17 0 38 -13 58 -25c18 -12 35 -24 48 -24c22 0 25 29 25 44h35c0 -33 -4 -97 -58 -97c-14 0 -34 10 -54 20c-22 13 -43 26 -52 26c-20 0 -22 -35 -23 -44z" />
    <glyph glyph-name="Scaron" unicode="&#x160;" horiz-adv-x="463" 
d="M385 685v-69c-33 15 -90 39 -152 39c-82 0 -133 -47 -133 -112c0 -102 86 -113 211 -188c67 -41 114 -77 114 -174c0 -139 -113 -192 -229 -192c-73 0 -137 12 -153 16v71c25 -12 89 -39 157 -39c85 0 157 41 157 137c0 87 -71 117 -140 153c-93 50 -178 87 -178 203
c0 103 78 171 209 171c60 0 107 -9 137 -16zM201 773l-84 119h53l60 -75l63 75h53l-86 -119h-59z" />
    <glyph glyph-name="Uacute" unicode="&#xda;" horiz-adv-x="593" 
d="M511 690v-461c0 -120 -52 -240 -217 -240s-211 120 -211 240v461h62v-442c0 -61 0 -213 153 -213c151 0 151 152 151 213v442h62zM270 773l41 119h74l-61 -119h-54z" />
    <glyph glyph-name="Ucircumflex" unicode="&#xdb;" horiz-adv-x="593" 
d="M511 690v-461c0 -120 -52 -240 -217 -240s-211 120 -211 240v461h62v-442c0 -61 0 -213 153 -213c151 0 151 152 151 213v442h62zM182 773l86 119h59l84 -119h-53l-59 75l-64 -75h-53z" />
    <glyph glyph-name="Udieresis" unicode="&#xdc;" horiz-adv-x="593" 
d="M511 690v-461c0 -120 -52 -240 -217 -240s-211 120 -211 240v461h62v-442c0 -61 0 -213 153 -213c151 0 151 152 151 213v442h62zM185 784v78h74v-78h-74zM349 784v78h74v-78h-74z" />
    <glyph glyph-name="Ugrave" unicode="&#xd9;" horiz-adv-x="593" 
d="M511 690v-461c0 -120 -52 -240 -217 -240s-211 120 -211 240v461h62v-442c0 -61 0 -213 153 -213c151 0 151 152 151 213v442h62zM284 773l-61 119h74l41 -119h-54z" />
    <glyph glyph-name="Yacute" unicode="&#xdd;" 
d="M207 0v317l-207 373h69l172 -314l176 314h65l-213 -373v-317h-62zM215 773l41 119h74l-61 -119h-54z" />
    <glyph glyph-name="Ydieresis" unicode="&#x178;" 
d="M207 0v317l-207 373h69l172 -314l176 314h65l-213 -373v-317h-62zM130 784v78h74v-78h-74zM294 784v78h74v-78h-74z" />
    <glyph glyph-name="Zcaron" unicode="&#x17d;" 
d="M28 0v48l338 596h-321v46h395v-46l-340 -596h354v-48h-426zM211 773l-84 119h53l60 -75l63 75h53l-86 -119h-59z" />
    <glyph glyph-name="aacute" unicode="&#xe1;" horiz-adv-x="445" 
d="M307 0v74h-2c-10 -23 -57 -85 -137 -85c-77 0 -127 58 -127 121c0 91 81 155 266 155v32c0 74 0 151 -97 151c-77 0 -87 -49 -89 -88h-69c7 52 33 127 164 127c129 0 146 -84 146 -164v-323h-55zM307 199v27c-46 0 -205 -1 -205 -109c0 -48 37 -78 83 -78
c91 0 122 93 122 160zM196 559l41 119h74l-61 -119h-54z" />
    <glyph glyph-name="acircumflex" unicode="&#xe2;" horiz-adv-x="445" 
d="M307 0v74h-2c-10 -23 -57 -85 -137 -85c-77 0 -127 58 -127 121c0 91 81 155 266 155v32c0 74 0 151 -97 151c-77 0 -87 -49 -89 -88h-69c7 52 33 127 164 127c129 0 146 -84 146 -164v-323h-55zM307 199v27c-46 0 -205 -1 -205 -109c0 -48 37 -78 83 -78
c91 0 122 93 122 160zM108 559l86 119h59l84 -119h-53l-59 75l-64 -75h-53z" />
    <glyph glyph-name="adieresis" unicode="&#xe4;" horiz-adv-x="445" 
d="M307 0v74h-2c-10 -23 -57 -85 -137 -85c-77 0 -127 58 -127 121c0 91 81 155 266 155v32c0 74 0 151 -97 151c-77 0 -87 -49 -89 -88h-69c7 52 33 127 164 127c129 0 146 -84 146 -164v-323h-55zM307 199v27c-46 0 -205 -1 -205 -109c0 -48 37 -78 83 -78
c91 0 122 93 122 160zM111 570v78h74v-78h-74zM275 570v78h74v-78h-74z" />
    <glyph glyph-name="agrave" unicode="&#xe0;" horiz-adv-x="445" 
d="M307 0v74h-2c-10 -23 -57 -85 -137 -85c-77 0 -127 58 -127 121c0 91 81 155 266 155v32c0 74 0 151 -97 151c-77 0 -87 -49 -89 -88h-69c7 52 33 127 164 127c129 0 146 -84 146 -164v-323h-55zM307 199v27c-46 0 -205 -1 -205 -109c0 -48 37 -78 83 -78
c91 0 122 93 122 160zM210 559l-61 119h74l41 -119h-54z" />
    <glyph glyph-name="aring" unicode="&#xe5;" horiz-adv-x="445" 
d="M307 0v74h-2c-10 -23 -57 -85 -137 -85c-77 0 -127 58 -127 121c0 91 81 155 266 155v32c0 74 0 151 -97 151c-77 0 -87 -49 -89 -88h-69c7 52 33 127 164 127c129 0 146 -84 146 -164v-323h-55zM307 199v27c-46 0 -205 -1 -205 -109c0 -48 37 -78 83 -78
c91 0 122 93 122 160zM207 538c-43 0 -78 36 -78 80c0 43 35 79 78 79c44 0 79 -36 79 -79c0 -44 -35 -80 -79 -80zM163 618c0 -26 19 -46 44 -46c24 0 45 20 45 46c0 25 -20 45 -45 45s-44 -20 -44 -45z" />
    <glyph glyph-name="atilde" unicode="&#xe3;" horiz-adv-x="445" 
d="M307 0v74h-2c-10 -23 -57 -85 -137 -85c-77 0 -127 58 -127 121c0 91 81 155 266 155v32c0 74 0 151 -97 151c-77 0 -87 -49 -89 -88h-69c7 52 33 127 164 127c129 0 146 -84 146 -164v-323h-55zM307 199v27c-46 0 -205 -1 -205 -109c0 -48 37 -78 83 -78
c91 0 122 93 122 160zM146 559h-35c0 39 13 100 56 100c17 0 38 -13 58 -25c18 -12 35 -24 48 -24c22 0 25 29 25 44h35c0 -33 -4 -97 -58 -97c-14 0 -34 10 -54 20c-22 13 -43 26 -52 26c-20 0 -22 -35 -23 -44z" />
    <glyph glyph-name="ccedilla" unicode="&#xe7;" horiz-adv-x="408" 
d="M188 -88l14 85c-130 30 -157 148 -157 252c0 166 73 238 181 238c132 0 152 -105 152 -152h-69c0 39 0 113 -89 113c-92 0 -114 -99 -114 -188c0 -134 66 -230 182 -230c24 0 48 3 72 11v-41c-28 -8 -58 -11 -87 -11c-13 0 -25 1 -37 2l-9 -51c19 -1 92 -1 92 -72
c0 -43 -31 -82 -92 -82c-25 0 -44 5 -58 11v42c5 -4 26 -20 53 -20s49 19 49 46c0 38 -37 47 -64 47h-19z" />
    <glyph glyph-name="eacute" unicode="&#xe9;" horiz-adv-x="431" 
d="M379 42v-42c-31 -8 -66 -11 -100 -11c-155 0 -233 91 -233 261c0 138 50 237 184 237c80 0 158 -46 158 -190h-281c0 -230 123 -267 186 -267c29 0 61 3 86 12zM111 336h216c0 37 -12 112 -105 112c-92 0 -108 -77 -111 -112zM189 559l41 119h74l-61 -119h-54z" />
    <glyph glyph-name="ecircumflex" unicode="&#xea;" horiz-adv-x="431" 
d="M379 42v-42c-31 -8 -66 -11 -100 -11c-155 0 -233 91 -233 261c0 138 50 237 184 237c80 0 158 -46 158 -190h-281c0 -230 123 -267 186 -267c29 0 61 3 86 12zM111 336h216c0 37 -12 112 -105 112c-92 0 -108 -77 -111 -112zM101 559l86 119h59l84 -119h-53l-59 75
l-64 -75h-53z" />
    <glyph glyph-name="edieresis" unicode="&#xeb;" horiz-adv-x="431" 
d="M379 42v-42c-31 -8 -66 -11 -100 -11c-155 0 -233 91 -233 261c0 138 50 237 184 237c80 0 158 -46 158 -190h-281c0 -230 123 -267 186 -267c29 0 61 3 86 12zM111 336h216c0 37 -12 112 -105 112c-92 0 -108 -77 -111 -112zM104 570v78h74v-78h-74zM268 570v78h74v-78
h-74z" />
    <glyph glyph-name="egrave" unicode="&#xe8;" horiz-adv-x="431" 
d="M379 42v-42c-31 -8 -66 -11 -100 -11c-155 0 -233 91 -233 261c0 138 50 237 184 237c80 0 158 -46 158 -190h-281c0 -230 123 -267 186 -267c29 0 61 3 86 12zM111 336h216c0 37 -12 112 -105 112c-92 0 -108 -77 -111 -112zM203 559l-61 119h74l41 -119h-54z" />
    <glyph glyph-name="iacute" unicode="&#xed;" horiz-adv-x="222" 
d="M84 0v476h55v-476h-55zM85 559l41 119h74l-61 -119h-54z" />
    <glyph glyph-name="icircumflex" unicode="&#xee;" horiz-adv-x="222" 
d="M84 0v476h55v-476h-55zM-14 559l86 119h59l84 -119h-53l-59 75l-64 -75h-53z" />
    <glyph glyph-name="idieresis" unicode="&#xef;" horiz-adv-x="222" 
d="M84 0v476h55v-476h-55zM-11 570v78h74v-78h-74zM153 570v78h74v-78h-74z" />
    <glyph glyph-name="igrave" unicode="&#xec;" horiz-adv-x="222" 
d="M84 0v476h55v-476h-55zM99 559l-61 119h74l41 -119h-54z" />
    <glyph glyph-name="ntilde" unicode="&#xf1;" horiz-adv-x="501" 
d="M138 476v-130h2c12 35 59 141 158 141c109 0 120 -93 120 -155v-332h-55v318c0 58 -6 119 -75 119c-99 0 -150 -166 -150 -222v-215h-55v476h55zM164 559h-35c0 39 13 100 56 100c17 0 38 -13 58 -25c18 -12 35 -24 48 -24c22 0 25 29 25 44h35c0 -33 -4 -97 -58 -97
c-14 0 -34 10 -54 20c-22 13 -43 26 -52 26c-20 0 -22 -35 -23 -44z" />
    <glyph glyph-name="oacute" unicode="&#xf3;" 
d="M242 -11c-137 0 -196 105 -196 252c0 141 64 246 192 246s199 -96 199 -255c0 -141 -62 -243 -195 -243zM107 250c0 -120 33 -222 134 -222c105 0 135 96 135 201c0 115 -31 219 -138 219c-103 0 -131 -106 -131 -198zM215 559l41 119h74l-61 -119h-54z" />
    <glyph glyph-name="ocircumflex" unicode="&#xf4;" 
d="M242 -11c-137 0 -196 105 -196 252c0 141 64 246 192 246s199 -96 199 -255c0 -141 -62 -243 -195 -243zM107 250c0 -120 33 -222 134 -222c105 0 135 96 135 201c0 115 -31 219 -138 219c-103 0 -131 -106 -131 -198zM127 559l86 119h59l84 -119h-53l-59 75l-64 -75h-53
z" />
    <glyph glyph-name="odieresis" unicode="&#xf6;" 
d="M242 -11c-137 0 -196 105 -196 252c0 141 64 246 192 246s199 -96 199 -255c0 -141 -62 -243 -195 -243zM107 250c0 -120 33 -222 134 -222c105 0 135 96 135 201c0 115 -31 219 -138 219c-103 0 -131 -106 -131 -198zM130 570v78h74v-78h-74zM294 570v78h74v-78h-74z
" />
    <glyph glyph-name="ograve" unicode="&#xf2;" 
d="M242 -11c-137 0 -196 105 -196 252c0 141 64 246 192 246s199 -96 199 -255c0 -141 -62 -243 -195 -243zM107 250c0 -120 33 -222 134 -222c105 0 135 96 135 201c0 115 -31 219 -138 219c-103 0 -131 -106 -131 -198zM229 559l-61 119h74l41 -119h-54z" />
    <glyph glyph-name="otilde" unicode="&#xf5;" 
d="M242 -11c-137 0 -196 105 -196 252c0 141 64 246 192 246s199 -96 199 -255c0 -141 -62 -243 -195 -243zM107 250c0 -120 33 -222 134 -222c105 0 135 96 135 201c0 115 -31 219 -138 219c-103 0 -131 -106 -131 -198zM165 559h-35c0 39 13 100 56 100
c17 0 38 -13 58 -25c18 -12 35 -24 48 -24c22 0 25 29 25 44h35c0 -33 -4 -97 -58 -97c-14 0 -34 10 -54 20c-22 13 -43 26 -52 26c-20 0 -22 -35 -23 -44z" />
    <glyph glyph-name="scaron" unicode="&#x161;" horiz-adv-x="352" 
d="M304 470v-59c-19 8 -67 35 -123 35c-50 0 -93 -19 -93 -67c0 -55 45 -67 104 -97c66 -32 143 -56 143 -151c0 -66 -35 -142 -176 -142c-68 0 -109 11 -132 21v61c12 -7 75 -36 137 -36c68 0 110 27 110 87c0 70 -70 83 -168 132c-37 20 -74 56 -74 110
c0 90 73 123 160 123c49 0 91 -13 112 -17zM146 559l-84 119h53l60 -75l63 75h53l-86 -119h-59z" />
    <glyph glyph-name="uacute" unicode="&#xfa;" horiz-adv-x="501" 
d="M360 0v118h-2c-10 -32 -46 -129 -139 -129c-122 0 -140 93 -140 155v332h55v-319c0 -73 30 -118 80 -118c103 0 146 129 146 222v215h55v-476h-55zM224 559l41 119h74l-61 -119h-54z" />
    <glyph glyph-name="ucircumflex" unicode="&#xfb;" horiz-adv-x="501" 
d="M360 0v118h-2c-10 -32 -46 -129 -139 -129c-122 0 -140 93 -140 155v332h55v-319c0 -73 30 -118 80 -118c103 0 146 129 146 222v215h55v-476h-55zM126 559l86 119h59l84 -119h-53l-59 75l-64 -75h-53z" />
    <glyph glyph-name="udieresis" unicode="&#xfc;" horiz-adv-x="501" 
d="M360 0v118h-2c-10 -32 -46 -129 -139 -129c-122 0 -140 93 -140 155v332h55v-319c0 -73 30 -118 80 -118c103 0 146 129 146 222v215h55v-476h-55zM129 570v78h74v-78h-74zM293 570v78h74v-78h-74z" />
    <glyph glyph-name="ugrave" unicode="&#xf9;" horiz-adv-x="501" 
d="M360 0v118h-2c-10 -32 -46 -129 -139 -129c-122 0 -140 93 -140 155v332h55v-319c0 -73 30 -118 80 -118c103 0 146 129 146 222v215h55v-476h-55zM238 559l-61 119h74l41 -119h-54z" />
    <glyph glyph-name="yacute" unicode="&#xfd;" horiz-adv-x="426" 
d="M138 -185l63 190l-190 471h59l160 -394l133 394h53l-228 -661h-50zM187 559l41 119h74l-61 -119h-54z" />
    <glyph glyph-name="ydieresis" unicode="&#xff;" horiz-adv-x="426" 
d="M138 -185l63 190l-190 471h59l160 -394l133 394h53l-228 -661h-50zM102 570v78h74v-78h-74zM266 570v78h74v-78h-74z" />
    <glyph glyph-name="zcaron" unicode="&#x17e;" horiz-adv-x="389" 
d="M27 0v42l261 393h-242v41h315v-28l-267 -407h268v-41h-335zM164 559l-84 119h53l60 -75l63 75h53l-86 -119h-59z" />
    <glyph glyph-name="one.superior" unicode="&#xb9;" horiz-adv-x="334" 
d="M165 205v369l-76 -54v55l87 59h41v-429h-52z" />
    <glyph glyph-name="two.superior" unicode="&#xb2;" horiz-adv-x="334" 
d="M42 205v42c19 16 186 173 186 288c0 42 -26 70 -66 70c-54 0 -58 -46 -62 -71h-60c6 44 26 111 125 111c70 0 118 -43 118 -120c0 -114 -115 -219 -173 -275h181v-45h-249z" />
    <glyph glyph-name="three.superior" unicode="&#xb3;" horiz-adv-x="333" 
d="M95 545h-60c3 30 25 100 119 100c73 0 122 -42 122 -117c0 -59 -33 -86 -59 -97c32 -11 66 -42 66 -106c0 -98 -67 -126 -128 -126c-104 0 -126 70 -126 102h60c1 -21 6 -62 65 -62c43 0 74 25 74 81c0 76 -39 88 -92 88v44c54 0 85 15 85 73c0 38 -20 80 -68 80
c-44 0 -55 -36 -58 -60z" />
    <glyph glyph-name="Delta" unicode="&#x2206;" horiz-adv-x="561" 
d="M28 0v41l222 608h64l219 -607v-42h-505zM85 47h387l-132 364c-16 49 -48 125 -59 168h-4c-8 -35 -37 -106 -53 -155z" />
    <glyph glyph-name="Omega" unicode="&#x2126;" horiz-adv-x="626" 
d="M177 48v2c-64 59 -120 159 -120 288c0 183 113 304 259 304c152 0 252 -137 252 -300c0 -134 -61 -239 -121 -292v-2h133v-48h-204v35c69 49 135 153 135 297c0 119 -66 262 -196 262c-123 0 -201 -117 -201 -264c0 -134 67 -248 135 -295v-35h-204v48h132z" />
    <glyph glyph-name="uni03BC" unicode="&#x3bc;" horiz-adv-x="501" 
d="M81 -214v690h55v-273c0 -70 8 -164 103 -164c115 0 119 170 119 222v215h55v-367c0 -41 0 -73 37 -73h12v-42c-5 -1 -12 -2 -17 -2c-27 0 -59 11 -70 31c-11 18 -15 31 -15 77h-2c-4 -31 -35 -111 -131 -111c-55 0 -78 28 -91 42v-245h-55z" />
    <glyph glyph-name="pi" unicode="&#x3c0;" horiz-adv-x="491" 
d="M467 420h-72v-288c0 -77 6 -109 13 -132h-55c-7 14 -14 50 -14 126v294h-165c-5 -122 -33 -335 -65 -420h-56c34 96 60 293 65 420c-57 0 -81 -5 -99 -11l-9 37c21 14 56 23 121 23h341z" />
    <glyph glyph-name="Euro" unicode="&#x20ac;" horiz-adv-x="519" 
d="M495 478h-68c-3 90 -44 144 -118 144c-105 0 -138 -130 -144 -215h196l-8 -41h-190v-40c0 -18 1 -17 2 -38h175l-8 -41h-163c10 -93 49 -214 169 -214c55 0 97 26 134 58v-59c-25 -20 -76 -43 -139 -43c-157 0 -214 123 -232 258h-82l8 41h70c-1 21 -2 19 -2 38v40h-76
l8 41h71c13 125 65 259 214 259c105 0 182 -79 183 -188z" />
    <glyph glyph-name="afii61289" unicode="&#x2113;" horiz-adv-x="418" 
d="M368 126l29 -24c-37 -70 -91 -108 -159 -108c-100 0 -139 79 -141 172c0 4 0 8 -1 12c-15 -13 -33 -28 -50 -43l-19 34c25 22 48 41 69 63v252c0 164 68 213 130 213c71 0 105 -63 105 -143c0 -115 -73 -225 -181 -335v-29c0 -110 47 -151 99 -151c56 0 98 47 119 87z
M150 488v-210c78 88 140 180 140 275c0 60 -18 100 -65 100c-34 0 -75 -42 -75 -165z" />
    <glyph glyph-name="estimated" unicode="&#x212e;" horiz-adv-x="791" 
d="M759 308h-590c-3 0 -5 -1 -5 -4v-179c0 -7 3 -14 8 -20c57 -59 136 -97 223 -97c95 0 178 43 235 109h53c-65 -77 -171 -127 -289 -127c-200 0 -363 146 -363 327s163 328 363 328c202 0 365 -147 365 -328v-9zM625 331v180c0 7 -2 15 -8 21c-58 56 -135 93 -222 93
c-86 0 -165 -38 -222 -96c-6 -6 -9 -14 -9 -22v-176c0 -2 2 -6 5 -6h453c2 0 3 4 3 6z" />
    <glyph glyph-name="partialdiff" unicode="&#x2202;" horiz-adv-x="471" 
d="M89 617l-21 42c29 24 73 49 142 49c110 0 216 -105 216 -341c0 -214 -76 -374 -223 -374c-111 0 -165 101 -165 207c0 141 89 231 186 231c81 0 131 -59 145 -87h1c1 11 1 29 1 40c0 168 -77 276 -166 276c-54 0 -92 -22 -116 -43zM207 41h1c86 0 143 112 155 241
c-14 42 -62 102 -132 102c-74 0 -136 -82 -136 -183c0 -94 44 -160 112 -160z" />
    <glyph glyph-name="product" unicode="&#x220f;" horiz-adv-x="605" 
d="M580 580h-96v-667h-55v667h-255v-667h-55v667h-96v52h557v-52z" />
    <glyph glyph-name="summation" unicode="&#x2211;" horiz-adv-x="481" 
d="M461 -87h-441v39l240 319l-229 321v40h416v-49h-338v-4l215 -300l-231 -309v-3h368v-54z" />
    <glyph glyph-name="uni2219" unicode="&#x2219;" horiz-adv-x="204" 
d="M59 274v85h85v-85h-85z" />
    <glyph glyph-name="radical" unicode="&#x221a;" horiz-adv-x="497" 
d="M494 750l-193 -887h-51l-143 425l-65 -24l-12 36l114 44l115 -344c5 -22 12 -48 15 -65h1c2 16 7 42 11 63l165 752h43z" />
    <glyph glyph-name="infinity" unicode="&#x221e;" horiz-adv-x="684" 
d="M639 263c0 -84 -64 -138 -133 -138c-57 0 -101 36 -163 106c-47 -53 -95 -106 -168 -106c-71 0 -130 59 -130 135c0 78 58 137 136 137c67 0 118 -52 165 -107c47 53 93 107 166 107c77 0 127 -55 127 -134zM181 162h1c58 0 102 57 140 96c-40 48 -82 103 -147 103
c-57 0 -90 -49 -89 -103c0 -53 38 -96 95 -96zM508 361h-1c-61 0 -109 -68 -141 -99c60 -64 94 -100 143 -100c57 0 90 50 90 98c0 64 -40 101 -91 101z" />
    <glyph glyph-name="integral" unicode="&#x222b;" horiz-adv-x="309" 
d="M293 758l-10 -40c-8 5 -21 9 -32 9c-15 0 -33 -6 -45 -21c-23 -28 -31 -75 -31 -164c0 -140 12 -315 12 -460c0 -99 -18 -152 -39 -183c-18 -28 -50 -42 -82 -42c-22 0 -45 8 -55 14l11 42c8 -3 23 -10 40 -10c15 0 31 7 41 21c18 23 31 65 31 159c0 145 -11 324 -11 464
c0 98 12 153 45 189c22 23 50 34 79 34c18 0 37 -6 46 -12z" />
    <glyph glyph-name="approxequal" unicode="&#x2248;" horiz-adv-x="495" 
d="M427 383l25 -21c-22 -45 -57 -83 -111 -83c-36 0 -61 14 -104 37c-27 16 -53 31 -83 31c-41 0 -65 -31 -87 -67l-26 20c26 52 69 84 119 84c43 0 75 -24 99 -37c31 -17 52 -31 84 -31c36 0 60 23 84 67zM427 236l25 -21c-23 -45 -57 -83 -111 -83c-36 0 -61 14 -104 38
c-27 15 -53 30 -82 30c-42 0 -67 -32 -88 -67l-26 20c26 53 69 84 119 84c44 0 75 -24 99 -36c30 -17 52 -32 85 -32c36 0 59 23 83 67z" />
    <glyph glyph-name="notequal" unicode="&#x2260;" horiz-adv-x="495" 
d="M348 449l-40 -88h140v-39h-156l-60 -130h216v-39h-232l-48 -104l-30 14l41 90h-134v39h150l60 130h-210v39h226l47 102z" />
    <glyph glyph-name="lessequal" unicode="&#x2264;" horiz-adv-x="495" 
d="M446 89l-396 201v40l396 200v-47l-353 -172v-2l353 -173v-47zM448 12h-403v40h403v-40z" />
    <glyph glyph-name="greaterequal" unicode="&#x2265;" horiz-adv-x="495" 
d="M51 530l396 -200v-41l-396 -200v47l353 172v2l-353 173v47zM448 12h-402v40h402v-40z" />
    <glyph glyph-name="lozenge" unicode="&#x25ca;" horiz-adv-x="498" 
d="M448 316l-177 -355h-47l-175 355l177 354h46zM395 314l-129 260c-7 15 -14 35 -17 47h-2c-4 -14 -9 -30 -17 -47l-129 -257l131 -261c7 -19 13 -35 15 -46h3c3 11 10 33 16 45z" />
    <glyph glyph-name="uni00A0" unicode="&#xa0;" horiz-adv-x="241" 
 />
    <glyph glyph-name="uni00AD" unicode="&#xad;" horiz-adv-x="389" 
d="M57 215v56h275v-56h-275z" />
    <glyph glyph-name="uni02C9" unicode="&#x2c9;" horiz-adv-x="301" 
d="M35 559v53h230v-53h-230z" />
    <glyph glyph-name="uni2215" unicode="&#x2215;" horiz-adv-x="201" 
d="M-27 0l198 634h47l-196 -634h-49z" />
    <glyph glyph-name="uni03A9" unicode="&#x3a9;" horiz-adv-x="626" 
d="M177 48v2c-64 59 -120 159 -120 288c0 183 113 304 259 304c152 0 252 -137 252 -300c0 -134 -61 -239 -121 -292v-2h133v-48h-204v35c69 49 135 153 135 297c0 119 -66 262 -196 262c-123 0 -201 -117 -201 -264c0 -134 67 -248 135 -295v-35h-204v48h132z" />
    </font>
</defs>
</svg>
