<svg id="Layer_1" data-name="Layer 1" xmlns="http://www.w3.org/2000/svg" viewBox="0 0 538.5 275.8"><defs><style>.cls-1{fill:#d9e4ea;}.cls-2,.cls-3,.cls-4{fill:none;}.cls-2,.cls-3,.cls-4,.cls-6{stroke:#004d74;}.cls-2,.cls-6,.cls-9{stroke-linecap:round;}.cls-2,.cls-3,.cls-4,.cls-6,.cls-9{stroke-miterlimit:10;}.cls-2{stroke-width:0.3px;stroke-dasharray:4 3;}.cls-3{stroke-width:0.25px;}.cls-4{stroke-width:0.5px;}.cls-10,.cls-15,.cls-16,.cls-5{fill:#004d74;}.cls-6{fill:#f1f5f7;}.cls-7{fill:#b2d234;}.cls-8{fill:#f7931d;}.cls-9{fill:#fff;stroke:#004d76;}.cls-10{font-size:7px;}.cls-10,.cls-14,.cls-15,.cls-16{font-family:Interstate;}.cls-10,.cls-16{opacity:0.9;}.cls-11,.cls-16{font-weight:700;}.cls-12{letter-spacing:-1px;}.cls-13{font-family:HelveticaNeueLTStd Roman;}.cls-15{font-size:6px;}.cls-16{font-size:8px;}</style></defs><title>data</title><rect class="cls-1" x="199.2" y="19.87" width="75.73" height="179.53"/><line class="cls-2" x1="431.52" y1="24.61" x2="431.52" y2="198.66"/><line class="cls-3" x1="431.52" y1="202.71" x2="431.52" y2="199.14"/><line class="cls-4" x1="120.36" y1="199.14" x2="497.09" y2="199.14"/><line class="cls-4" x1="124.79" y1="217.14" x2="427" y2="217.14"/><polygon class="cls-5" points="125.78 218.59 120.36 217.14 125.78 215.69 125.78 218.59"/><line class="cls-4" x1="436.09" y1="217.14" x2="492.03" y2="217.14"/><polygon class="cls-5" points="491.04 218.59 496.46 217.14 491.04 215.69 491.04 218.59"/><line class="cls-4" x1="151.48" y1="202.71" x2="151.48" y2="199.14"/><line class="cls-4" x1="183.01" y1="202.71" x2="183.01" y2="199.14"/><line class="cls-4" x1="213.94" y1="202.66" x2="213.94" y2="199.09"/><line class="cls-4" x1="245.02" y1="202.71" x2="245.02" y2="199.14"/><line class="cls-4" x1="275.94" y1="202.71" x2="275.94" y2="199.14"/><line class="cls-4" x1="307.34" y1="202.71" x2="307.34" y2="199.14"/><line class="cls-4" x1="338.28" y1="202.71" x2="338.28" y2="199.14"/><line class="cls-4" x1="369.36" y1="202.71" x2="369.36" y2="199.14"/><line class="cls-4" x1="400.14" y1="202.71" x2="400.14" y2="199.14"/><line class="cls-6" x1="196.7" y1="27.68" x2="274.44" y2="27.68"/><ellipse class="cls-7" cx="230.17" cy="27.68" rx="3.82" ry="3.5"/><line class="cls-6" x1="132.51" y1="46.79" x2="204.79" y2="46.79"/><ellipse class="cls-8" cx="153.71" cy="46.79" rx="2.73" ry="2.5"/><line class="cls-6" x1="139.53" y1="56.39" x2="205.88" y2="56.39"/><ellipse class="cls-8" cx="162.33" cy="56.39" rx="2.73" ry="2.5"/><line class="cls-6" x1="185.9" y1="85.44" x2="414.71" y2="85.44"/><ellipse class="cls-8" cx="260.48" cy="85.44" rx="2.73" ry="2.5"/><line class="cls-6" x1="216.52" y1="65.98" x2="334.03" y2="65.98"/><ellipse class="cls-8" cx="266.48" cy="65.98" rx="3.28" ry="3"/><line class="cls-6" x1="201.17" y1="132.72" x2="283.68" y2="132.72"/><ellipse class="cls-8" cx="236.67" cy="132.72" rx="3.57" ry="3.48"/><line class="cls-6" x1="201.39" y1="161.37" x2="305.39" y2="161.37"/><ellipse class="cls-8" cx="245.94" cy="161.37" rx="3.28" ry="3.02"/><line class="cls-6" x1="158.34" y1="95.04" x2="235.72" y2="95.04"/><ellipse class="cls-8" cx="187.61" cy="95.04" rx="2.8" ry="2.65"/><line class="cls-6" x1="201.17" y1="123.11" x2="279.78" y2="123.11"/><ellipse class="cls-8" cx="233.53" cy="123.11" rx="2.8" ry="2.65"/><line class="cls-9" x1="161.83" y1="152.5" x2="265.36" y2="152.5"/><ellipse class="cls-8" cx="199.51" cy="152.5" rx="2.24" ry="2.1"/><line class="cls-6" x1="183.72" y1="180.78" x2="294.28" y2="180.78"/><ellipse class="cls-8" cx="226.21" cy="180.78" rx="2.24" ry="2.09"/><line class="cls-6" x1="192.77" y1="189.79" x2="301.14" y2="189.79"/><ellipse class="cls-8" cx="235.58" cy="189.79" rx="2.24" ry="2.09"/><line class="cls-6" x1="221.56" y1="104.63" x2="436.14" y2="104.63"/><ellipse class="cls-8" cx="298.91" cy="104.63" rx="2.24" ry="2.09"/><text class="cls-10" transform="translate(0 30.1)">O<tspan x="4.8" y="0">v</tspan><tspan x="8.29" y="0">e</tspan><tspan x="12" y="0">r</tspan><tspan x="14.5" y="0">all</tspan><tspan class="cls-11"><tspan x="0" y="9.5">BR</tspan><tspan x="9.62" y="9.5">C</tspan><tspan x="14.01" y="9.5">A mu</tspan><tspan x="30.85" y="9.5">t</tspan><tspan x="33.66" y="9.5">ation</tspan></tspan><tspan class="cls-12" x="4" y="19">Y</tspan><tspan x="7.81" y="19">e</tspan><tspan x="11.44" y="19">s</tspan><tspan x="4" y="28.5">St</tspan><tspan x="10.64" y="28.5">a</tspan><tspan x="14.32" y="28.5">t</tspan><tspan x="16.91" y="28.5">us kn</tspan><tspan x="33.1" y="28.5">o</tspan><tspan x="36.79" y="28.5">wn</tspan><tspan x="4" y="38">St</tspan><tspan x="10.64" y="38">a</tspan><tspan x="14.32" y="38">t</tspan><tspan x="16.91" y="38">us unkn</tspan><tspan x="40.73" y="38">o</tspan><tspan x="44.42" y="38">wn</tspan><tspan class="cls-11"><tspan x="0" y="47.5">A</tspan><tspan x="4.97" y="47.5">ge</tspan></tspan><tspan class="cls-13"><tspan x="4" y="57">&lt;</tspan><tspan class="cls-14" x="8.17" y="57">50 </tspan><tspan class="cls-14" x="18.62" y="57">y</tspan><tspan class="cls-14" x="22.17" y="57">e</tspan><tspan class="cls-14" x="25.82" y="57">a</tspan><tspan class="cls-14" x="29.49" y="57">r</tspan><tspan class="cls-14" x="32.1" y="57">s</tspan><tspan x="4" y="66.5">≥</tspan><tspan class="cls-14" x="8.17" y="66.5">50 </tspan><tspan class="cls-14" x="18.62" y="66.5">t</tspan><tspan class="cls-14" x="21.13" y="66.5">o </tspan><tspan x="26.66" y="66.5">&lt;</tspan><tspan class="cls-14" x="30.83" y="66.5">6</tspan><tspan class="cls-14" x="35.04" y="66.5">5yr</tspan><tspan x="4" y="76">≥</tspan><tspan class="cls-14" x="8.17" y="76">6</tspan><tspan class="cls-14" x="12.38" y="76">5 </tspan><tspan class="cls-14" x="18.37" y="76">y</tspan><tspan class="cls-14" x="21.91" y="76">e</tspan><tspan class="cls-14" x="25.57" y="76">a</tspan><tspan class="cls-14" x="29.24" y="76">r</tspan><tspan class="cls-14" x="31.85" y="76">s</tspan></tspan><tspan class="cls-11"><tspan x="0" y="85.5">R</tspan><tspan x="4.62" y="85.5">a</tspan><tspan x="8.34" y="85.5">c</tspan><tspan x="11.84" y="85.5">e or </tspan><tspan x="25.67" y="85.5">e</tspan><tspan x="29.2" y="85.5">thnic g</tspan><tspan x="50.95" y="85.5">r</tspan><tspan x="53.66" y="85.5">oup</tspan></tspan><tspan x="4" y="95">W</tspan><tspan x="9.8" y="95">hi</tspan><tspan x="15.29" y="95">t</tspan><tspan x="17.8" y="95">e</tspan><tspan x="4" y="104.5">Non</tspan><tspan x="16.45" y="104.5">-</tspan><tspan x="18.17" y="104.5">J</tspan><tspan x="22.21" y="104.5">e</tspan><tspan x="25.78" y="104.5">wish an</tspan><tspan x="48.81" y="104.5">c</tspan><tspan x="52.17" y="104.5">es</tspan><tspan x="59.05" y="104.5">try</tspan><tspan class="cls-11"><tspan x="0" y="114">B</tspan><tspan x="4.73" y="114">a</tspan><tspan x="8.44" y="114">s</tspan><tspan x="11.96" y="114">eline </tspan><tspan x="28.5" y="114">r</tspan><tspan x="31.22" y="114">e</tspan><tspan x="34.74" y="114">spon</tspan><tspan x="49.71" y="114">s</tspan><tspan x="53.22" y="114">e</tspan></tspan><tspan x="4" y="123.5">C</tspan><tspan x="8.27" y="123.5">ompl</tspan><tspan x="23.43" y="123.5">e</tspan><tspan x="27.08" y="123.5">t</tspan><tspan x="29.58" y="123.5">e</tspan><tspan x="4" y="133">P</tspan><tspan x="8.15" y="133">a</tspan><tspan x="11.83" y="133">r</tspan><tspan x="14.65" y="133">tial</tspan><tspan class="cls-11"><tspan x="0" y="142.5">P</tspan><tspan x="4.44" y="142.5">enultima</tspan><tspan x="32.08" y="142.5">t</tspan><tspan x="34.85" y="142.5">e platinum-</tspan><tspan x="70.78" y="142.5">b</tspan><tspan x="74.49" y="142.5">a</tspan><tspan x="78.2" y="142.5">s</tspan><tspan x="81.72" y="142.5">ed </tspan><tspan x="90.92" y="142.5">r</tspan><tspan x="93.64" y="142.5">egimen</tspan></tspan><tspan x="4" y="152">6</tspan><tspan x="8.28" y="152">-</tspan><tspan x="10.41" y="152">12 mo </tspan><tspan x="29.98" y="152">t</tspan><tspan x="32.49" y="152">o p</tspan><tspan x="41.83" y="152">r</tspan><tspan x="44.41" y="152">og</tspan><tspan x="52.04" y="152">r</tspan><tspan x="54.62" y="152">es</tspan><tspan x="61.5" y="152">sion</tspan><tspan class="cls-13"><tspan x="4" y="161.5">&gt;</tspan><tspan class="cls-14" x="8" y="161.5">12 mo </tspan><tspan class="cls-14" x="27.57" y="161.5">t</tspan><tspan class="cls-14" x="30.07" y="161.5">o p</tspan><tspan class="cls-14" x="39.42" y="161.5">r</tspan><tspan class="cls-14" x="42" y="161.5">og</tspan><tspan class="cls-14" x="49.63" y="161.5">r</tspan><tspan class="cls-14" x="52.2" y="161.5">es</tspan><tspan class="cls-14" x="59.08" y="161.5">sion</tspan></tspan></text><text class="cls-15" transform="translate(254.08 227.64)">L<tspan x="2.94" y="0">yn</tspan><tspan x="9.4" y="0">p</tspan><tspan x="12.62" y="0">a</tspan><tspan x="15.77" y="0">r</tspan><tspan x="18.02" y="0">z</tspan><tspan x="20.95" y="0">a </tspan><tspan x="25.57" y="0">B</tspan><tspan x="29.41" y="0">e</tspan><tspan x="32.54" y="0">t</tspan><tspan x="34.72" y="0">t</tspan><tspan x="36.86" y="0">er</tspan></text><text class="cls-15" transform="translate(444.54 226.64)">Pla<tspan x="8.36" y="0">c</tspan><tspan x="11.24" y="0">ebo </tspan><tspan x="22.42" y="0">B</tspan><tspan x="26.26" y="0">e</tspan><tspan x="29.39" y="0">t</tspan><tspan x="31.57" y="0">t</tspan><tspan x="33.71" y="0">er</tspan></text><text class="cls-15" transform="translate(115.78 210.87)">0.<tspan x="5.2" y="0">0</tspan></text><text class="cls-15" transform="translate(147.91 210.87)">0<tspan x="3.82" y="0">.</tspan><tspan x="5.08" y="0">1</tspan></text><text class="cls-15" transform="translate(178.02 210.87)">0<tspan x="3.82" y="0">.2</tspan></text><text class="cls-15" transform="translate(209.15 210.87)">0<tspan x="3.82" y="0">.</tspan><tspan x="5.44" y="0">3</tspan></text><text class="cls-15" transform="translate(240.18 210.87)">0<tspan x="3.82" y="0">.</tspan><tspan x="5.29" y="0">4</tspan></text><text class="cls-15" transform="translate(271.36 210.87)">0<tspan x="3.82" y="0">.5</tspan></text><text class="cls-15" transform="translate(302.48 210.87)">0<tspan x="3.82" y="0">.6</tspan></text><text class="cls-15" transform="translate(333.9 210.87)">0<tspan x="3.82" y="0">.</tspan><tspan x="4.99" y="0">7</tspan></text><text class="cls-15" transform="translate(364.61 210.87)">0<tspan x="3.82" y="0">.8</tspan></text><text class="cls-15" transform="translate(395.96 210.87)">0<tspan x="3.82" y="0">.</tspan><tspan x="5.08" y="0">9</tspan></text><text class="cls-15" transform="translate(427.82 210.87)">1<tspan x="2.05" y="0">.</tspan><tspan x="3.43" y="0">0</tspan></text><line class="cls-4" x1="120.36" y1="202.62" x2="120.36" y2="199.14"/><text class="cls-16" transform="translate(0 6.8)">S<tspan x="5.01" y="0">ubg</tspan><tspan x="18.07" y="0">r</tspan><tspan x="21.18" y="0">oup</tspan></text><text class="cls-16" transform="translate(262.73 6.8)">Ha<tspan x="10.02" y="0">z</tspan><tspan x="14.15" y="0">a</tspan><tspan x="18.4" y="0">r</tspan><tspan x="21.5" y="0">d </tspan><tspan x="27.92" y="0">R</tspan><tspan x="33.2" y="0">atio (</tspan><tspan x="51.96" y="0">9</tspan><tspan x="56.92" y="0">5</tspan><tspan x="61.9" y="0">% Cl)</tspan></text><text x="-30.5" y="-81.7"/></svg>