<?xml version="1.0" encoding="utf-8"?>
<!-- Generator: Adobe Illustrator 18.0.0, SVG Export Plug-In . SVG Version: 6.00 Build 0)  -->
<!DOCTYPE svg PUBLIC "-//W3C//DTD SVG 1.1//EN" "http://www.w3.org/Graphics/SVG/1.1/DTD/svg11.dtd">
<svg version="1.1" id="Layer_1" xmlns="http://www.w3.org/2000/svg" xmlns:xlink="http://www.w3.org/1999/xlink" x="0px" y="0px"
	 viewBox="0 0 200 200" enable-background="new 0 0 200 200" xml:space="preserve">
<path d="M134.4,71.9L94.8,51.5c-5.4-2.9-16.1,2.7-19.2,7.5c-1.4,2.2-1.3,3.7-1.3,4.6l0.5,46.1c0,1,1.3,2.3,2.3,2.9
	c2.2,1.3,35.4,22.1,36.4,22.7c0.5,0.3,1.1,0.5,1.7,0.5c0.5,0,1-0.1,1.5-0.3c1-0.5,1.6-1.4,1.6-2.5V84.6c0-1-0.6-1.9-1.5-2.4
	l-36-20.1c0.4-0.8,2-2.5,4.9-4c3.1-1.6,5.4-1,6-0.8c0,0,34.5,18.5,35.6,19c1.1,0.5,1.1,0.6,1.1,1.6c0,0.9,0,45.9,0,45.9
	c0,2.3,2.3,3.2,4,3.2c1.7,0,3.5-1.7,3.5-3.2V74.3C135.9,73.3,135.3,72.4,134.4,71.9z"/>
</svg>
