<svg id="Layer_1" data-name="Layer 1" xmlns="http://www.w3.org/2000/svg" viewBox="0 0 67.49 162.6"><defs><style>.cls-1{fill:#fff;}.cls-2,.cls-3{fill:none;stroke:#fff;stroke-miterlimit:10;}.cls-2{stroke-width:0.8px;}.cls-3{stroke-width:0.78px;}</style></defs><title>icons</title><path class="cls-1" d="M49.07,138.27a8.48,8.48,0,0,0,8.47-8.47,0.91,0.91,0,1,0-1.81,0,6.66,6.66,0,0,1-6.66,6.66,0.91,0.91,0,1,0,0,1.81" transform="translate(-5.3 -7.26)"/><path class="cls-2" d="M49.07,138.27a8.48,8.48,0,0,0,8.47-8.47,0.91,0.91,0,1,0-1.81,0,6.66,6.66,0,0,1-6.66,6.66A0.91,0.91,0,1,0,49.07,138.27Z" transform="translate(-5.3 -7.26)"/><path class="cls-1" d="M47.47,117.88a2.06,2.06,0,0,1,3.2,0c5.58,6.85,8.78,12.53,8.78,15.59a10.38,10.38,0,0,1-20.77,0c0-3.06,3.2-8.74,8.78-15.59m1.6,27.78a12.21,12.21,0,0,0,12.2-12.19c0-4.51-5-11.59-9.19-16.73a4,4,0,0,0-6,0c-4.19,5.15-9.19,12.23-9.19,16.73a12.21,12.21,0,0,0,12.2,12.19" transform="translate(-5.3 -7.26)"/><path class="cls-1" d="M71.89,145.81a4.54,4.54,0,0,0-3.63-1.8,4.38,4.38,0,0,0-2.42.7l-11.68,6.47a0.91,0.91,0,0,0,.88,1.59l11.75-6.51a2.81,2.81,0,0,1,3.66.64,2.7,2.7,0,0,1,.49,2.13,2.66,2.66,0,0,1-1.22,1.78l-24,15.09a13.78,13.78,0,0,1-13.42.74L22.61,162a6.7,6.7,0,0,0-6.06.12l-2.1,1.12a1.79,1.79,0,0,1-2.5-.9L7.25,150.65a1.77,1.77,0,0,1,.8-2.24c2.56-1.37,8.93-4.56,12.8-4.72,5.15-.24,9.06,1.3,12,4.69,1.74,2,6.41,3.21,13.88,3.48a2.72,2.72,0,0,1,2,.94,2.75,2.75,0,0,1,.66,2.13,2.89,2.89,0,0,1-2.91,2.44c-8.08.06-14.09-.48-16.9-1.49a0.91,0.91,0,1,0-.61,1.71c3.86,1.39,11.67,1.64,17.52,1.6a4.66,4.66,0,0,0,4.7-4.06A4.57,4.57,0,0,0,46.79,150c-6.65-.24-11.23-1.27-12.57-2.85-3.27-3.79-7.8-5.59-13.45-5.32-4.09.17-10.26,3.17-13.57,4.94a3.58,3.58,0,0,0-1.63,4.52L10.28,163a3.6,3.6,0,0,0,5,1.82l2.1-1.12a4.88,4.88,0,0,1,4.41-.09l9.69,4.69a15.6,15.6,0,0,0,15.18-.84l24-15.09a4.51,4.51,0,0,0,2-3,4.56,4.56,0,0,0-.82-3.56" transform="translate(-5.3 -7.26)"/><path class="cls-1" d="M41,39.3a0.93,0.93,0,0,0-.34.07,1,1,0,0,0-.53.52L38.39,44a1,1,0,0,0,.5,1.32l4,1.77a0.9,0.9,0,0,0,.69,0,1,1,0,0,0,.54-0.53l1.73-4.09a1,1,0,0,0-.51-1.32l-4-1.76A0.91,0.91,0,0,0,41,39.3M49,50.1a0.91,0.91,0,0,0-.26,0l-4.2,1.28A1,1,0,0,0,44,52.67l1.26,4.27a1,1,0,0,0,.48.59,0.86,0.86,0,0,0,.68.07l4.2-1.28a1,1,0,0,0,.64-1.25L50,50.8a1,1,0,0,0-.48-0.6A0.93,0.93,0,0,0,49,50.1" transform="translate(-5.3 -7.26)"/><path class="cls-3" d="M41,39.3a0.93,0.93,0,0,0-.34.07,1,1,0,0,0-.53.52L38.39,44a1,1,0,0,0,.5,1.32l4,1.77a0.9,0.9,0,0,0,.69,0,1,1,0,0,0,.54-0.53l1.73-4.09a1,1,0,0,0-.51-1.32l-4-1.76A0.91,0.91,0,0,0,41,39.3ZM49,50.1a0.91,0.91,0,0,0-.26,0l-4.2,1.28A1,1,0,0,0,44,52.67l1.26,4.27a1,1,0,0,0,.48.59,0.86,0.86,0,0,0,.68.07l4.2-1.28a1,1,0,0,0,.64-1.25L50,50.8a1,1,0,0,0-.48-0.6A0.93,0.93,0,0,0,49,50.1Z" transform="translate(-5.3 -7.26)"/><path class="cls-1" d="M49.62,19.56h2.19l0.13,1,1.25,9.76,0.17,1.31H46.49l0.25-1.37,1.74-9.76,0.17-1h1Zm3.93,13.62,0.13,1,1.93,15.65A14.13,14.13,0,0,1,52,60.53a13.81,13.81,0,0,1-20.48,0A14,14,0,0,1,28,50l2-15.8,0.13-1h23.4ZM22.43,26.6l-1.27.63-0.38-1.37a11.15,11.15,0,0,1,5.94-13,11.5,11.5,0,0,1,4.94-1.18,11,11,0,0,1,3.68.65,10.71,10.71,0,0,1,5.29,3.9l0.86,1.63H30.4L30,22.51l0,0.34-0.55.28Zm9.49-7.25,6.18-.05-6.5,2.84Zm13.75,0.21h1.39l-0.25,1.37-1.74,9.76-0.17,1H30.33l0.17-1.32,0.77-5.79,0.08-.62,8.82-4.36h5.49Zm4-5.49,0.1-.62,0.58-.26,9.95-4.44a0.89,0.89,0,0,0,.36-1.11,0.77,0.77,0,0,0-.71-0.38,1.24,1.24,0,0,0-.42.08L48.57,12.42a0.68,0.68,0,0,0-.4.56l-0.68,4.09-0.21.77h-4L43.05,17a12.34,12.34,0,0,0-7.21-6.22,12.06,12.06,0,0,0-4.12-.72A12.78,12.78,0,0,0,20.25,28.52a0.62,0.62,0,0,0,.45.4h0.07a1.72,1.72,0,0,0,.54-0.11l6.55-3.24,1.93-1v0l-0.26,2.11-0.68,5.41L26.64,49.66A15.41,15.41,0,0,0,40.2,66.32l1,0.13v7.22H31.37a0.76,0.76,0,0,0,0,1.53H52.62a0.76,0.76,0,1,0,0-1.53H42.76V66.45l1-.12A15.43,15.43,0,0,0,57.35,49.54L55.13,32.08,53.4,18.46a0.75,0.75,0,0,0-.77-0.62H49l0.22-1.35Z" transform="translate(-5.3 -7.26)"/></svg>