<svg id="Layer_1" data-name="Layer 1" xmlns="http://www.w3.org/2000/svg" viewBox="0 0 498 183.6"><defs><style>.cls-1{fill:#fff;}.cls-2{fill:#6f6f6e;}.cls-3{fill:#ba5409;}.cls-4{fill:#ffc700;}.cls-5{fill:#e18b05;}</style></defs><title>key</title><path class="cls-1" d="M331.13,186.67a0.27,0.27,0,0,0,.3.3h1.2a0.54,0.54,0,0,0,.4-0.3l6.3-15.4a0.27,0.27,0,0,0-.3-0.3h-1.2a0.54,0.54,0,0,0-.4.3l-2.6,6.4-2.5-6.4a0.54,0.54,0,0,0-.4-0.3h-1.2a0.27,0.27,0,0,0-.3.3l3.4,8.7Zm-3.8-20.2a0.22,0.22,0,0,0-.2-0.2h-1.3a0.22,0.22,0,0,0-.2.2V182a0.22,0.22,0,0,0,.2.2h1.3a0.22,0.22,0,0,0,.2-0.2v-15.5Zm-10.6,14.2c-2.2,0-2.8-1.1-2.8-4.1,0-2.5.7-3.9,2.8-3.9s2.9,1.4,2.9,3.9-0.8,4.1-2.9,4.1m3.2,1.3a0.42,0.42,0,0,0,.4.3h0.9a0.27,0.27,0,0,0,.3-0.3v-15.4a0.22,0.22,0,0,0-.2-0.2H320a0.22,0.22,0,0,0-.2.2v5.6a4.22,4.22,0,0,0-3.1-1.3c-3.1,0-4.4,2.4-4.4,5.7s0.8,5.8,4.3,5.8a3.47,3.47,0,0,0,3.3-1.7V182Zm-13.3-13.5a1.22,1.22,0,0,0,1.2,1.2,1.2,1.2,0,1,0,0-2.4,1.29,1.29,0,0,0-1.2,1.2m2.1,2.7a0.22,0.22,0,0,0-.2-0.2h-1.3a0.22,0.22,0,0,0-.2.2V182a0.22,0.22,0,0,0,.2.2h1.3a0.22,0.22,0,0,0,.2-0.2v-10.8Zm-9.8,9.5c-2.1,0-2.9-1.5-2.9-4.1s0.8-3.9,2.9-3.9,2.8,1.5,2.8,3.9c0.1,3-.6,4.1-2.8,4.1m-4.6,6a0.27,0.27,0,0,0,.3.3h1.1a0.54,0.54,0,0,0,.4-0.3V181a3.34,3.34,0,0,0,3.2,1.3c3.6,0,4.3-2.6,4.3-5.8s-1.3-5.7-4.4-5.7a4,4,0,0,0-3.2,1.4l-0.1-1a0.42,0.42,0,0,0-.4-0.3h-0.9a0.27,0.27,0,0,0-.3.3v15.5Zm-10.4-13.8a9.63,9.63,0,0,1,2-.3c2.2,0,2.6,1,2.6,4a3.5,3.5,0,0,0-3.1-1.5c-2.2,0-3.2,1.3-3.2,3.6,0,3.3,2.5,3.5,3.6,3.5,0.2,0,2.1,0,2.8-1.4l0.1,1a0.42,0.42,0,0,0,.4.3H290a0.27,0.27,0,0,0,.3-0.3v-6.1c0-3-.9-5-4.1-5a6.78,6.78,0,0,0-2.9.5,0.2,0.2,0,0,0-.1.2,4.88,4.88,0,0,0,.4,1.1,0.22,0.22,0,0,0,.2.2c0,0.3,0,.2.1,0.2m2.1,7.8c-1.8,0-2.1-.8-2.1-1.8s0.2-1.9,2-1.9a3,3,0,0,1,2.6,1.5v0.8c-1.2,1.1-1.9,1.4-2.5,1.4m-5.8-9.6a0.22,0.22,0,0,0-.2-0.2h-0.5a2.6,2.6,0,0,0-2.6,1.4l-0.2-1.1a0.22,0.22,0,0,0-.2-0.2h-1.1a0.22,0.22,0,0,0-.2.2v10.7a0.27,0.27,0,0,0,.3.3h1.1a0.54,0.54,0,0,0,.4-0.3v-5.3c0-2,.1-4,2.5-4h0.6a0.22,0.22,0,0,0,.2-0.2v-1.3h-0.1Zm-15.2,6.4a0.27,0.27,0,0,0,.3-0.3v-0.6c0-3.1-.8-5.7-4.6-5.7s-4.5,2.6-4.5,5.7c0,3.9,1.8,5.7,5,5.7a3.89,3.89,0,0,0,2.9-.9c0.1,0,.1-0.1.1-0.2a0.2,0.2,0,0,0-.1-0.2l-0.4-.9a0.37,0.37,0,0,0-.3-0.1h-0.2a4.87,4.87,0,0,1-2.2.6c-1.4,0-3.2-.4-3.2-3.2H265v0.1Zm-7-1.6c0-2.4.9-3.2,2.6-3.2s2.9,0.8,2.9,3.2H258Zm-7.1,6.7c0,2.2-.2,3.4-3,3.4a5.3,5.3,0,0,1-2.5-.6c-0.1,0-.1-0.1-0.2-0.1a0.1,0.1,0,0,0-.1.1l-0.4,1v0.1c0,0.1,0,.2.1,0.2a5.82,5.82,0,0,0,3.7.9c2.3,0,4.3-1,4.3-4.9v-11.5a0.27,0.27,0,0,0-.3-0.3h-0.9a0.42,0.42,0,0,0-.4.3l-0.1,1a4.13,4.13,0,0,0-3.2-1.4c-3.1,0-4.4,2.4-4.4,5.7s0.8,5.8,4.3,5.8A3.67,3.67,0,0,0,251,181v1.6h-0.1Zm-2.9-1.9c-2.2,0-2.8-1.1-2.8-4.1,0-2.5.7-3.9,2.8-3.9s2.9,1.4,2.9,3.9-0.8,4.1-2.9,4.1m-9.7,1.3a0.22,0.22,0,0,0,.2.2h1.3a0.22,0.22,0,0,0,.2-0.2v-5.4c0-3.2-.3-5.7-4-5.7a3.18,3.18,0,0,0-3.2,1.8l-0.1-1.4a0.42,0.42,0,0,0-.4-0.3h-0.9a0.27,0.27,0,0,0-.3.3V182a0.22,0.22,0,0,0,.2.2h1.3a0.22,0.22,0,0,0,.2-0.2v-5.2c0-2.1.5-4.1,2.8-4.1,2.5,0,2.5,1.5,2.5,3.6V182h0.2Zm-17.4-9.1a9.63,9.63,0,0,1,2-.3c2.2,0,2.6,1,2.6,4a3.5,3.5,0,0,0-3.1-1.5c-2.2,0-3.2,1.3-3.2,3.6,0,3.3,2.5,3.5,3.6,3.5,0.2,0,2.1,0,2.8-1.4l0.1,1a0.42,0.42,0,0,0,.4.3H227a0.27,0.27,0,0,0,.3-0.3v-6.1c0-3-.9-5-4.1-5a6.78,6.78,0,0,0-2.9.5,0.2,0.2,0,0,0-.1.2,4.88,4.88,0,0,0,.4,1.1,0.22,0.22,0,0,0,.2.2c0,0.3,0,.2.1,0.2m2.1,7.8c-1.8,0-2.1-.8-2.1-1.8s0.2-1.9,2-1.9a3,3,0,0,1,2.6,1.5v0.8c-1.2,1.1-1.9,1.4-2.5,1.4m-15.9,1.3a0.22,0.22,0,0,0,.2.2h1.3a0.22,0.22,0,0,0,.2-0.2v-5.2c0-2.1.5-4.1,2.8-4.1,2.5,0,2.5,1.5,2.5,3.6V182a0.22,0.22,0,0,0,.2.2h1.3a0.22,0.22,0,0,0,.2-0.2v-5.4c0-3.2-.3-5.7-4-5.7a3.24,3.24,0,0,0-3.1,1.5v-5.9a0.22,0.22,0,0,0-.2-0.2h-1.2a0.22,0.22,0,0,0-.2.2V182Zm-3.4-.4c0.1,0,.1-0.1.1-0.2a0.2,0.2,0,0,0-.1-0.2l-0.4-.9a0.37,0.37,0,0,0-.3-0.1h-0.2a5.38,5.38,0,0,1-2.2.4c-2.2,0-3.1-1.8-3.1-4s0.8-4,3.1-4a3.68,3.68,0,0,1,2.2.6H203a0.35,0.35,0,0,1,.2-0.1l0.5-1v-0.2a0.2,0.2,0,0,0-.1-0.2,4.06,4.06,0,0,0-3-1c-3.1,0-4.8,2.6-4.8,5.7s1.7,5.7,4.8,5.7a3.56,3.56,0,0,0,3.1-.5m-23.7-8.7a9.63,9.63,0,0,1,2-.3c2.2,0,2.6,1,2.6,4a3.5,3.5,0,0,0-3.1-1.5c-2.2,0-3.2,1.3-3.2,3.6,0,3.3,2.5,3.5,3.6,3.5,0.2,0,2.1,0,2.8-1.4l0.1,1a0.42,0.42,0,0,0,.4.3h0.9a0.27,0.27,0,0,0,.3-0.3v-6.1c0-3-.9-5-4.1-5a6.78,6.78,0,0,0-2.9.5,0.2,0.2,0,0,0-.1.2,4.88,4.88,0,0,0,.4,1.1,0.22,0.22,0,0,0,.2.2c-0.1.3,0,.2,0.1,0.2m2.1,7.8c-1.8,0-2.1-.8-2.1-1.8s0.2-1.9,2-1.9a3,3,0,0,1,2.6,1.5v0.8c-1.2,1.1-1.9,1.4-2.5,1.4m-5.8-9.6a0.22,0.22,0,0,0-.2-0.2h-0.5a2.6,2.6,0,0,0-2.6,1.4l-0.2-1.1a0.22,0.22,0,0,0-.2-0.2h-1.1a0.22,0.22,0,0,0-.2.2v10.7a0.27,0.27,0,0,0,.3.3h1.1a0.54,0.54,0,0,0,.4-0.3v-5.3c0-2,.1-4,2.5-4h0.6a0.22,0.22,0,0,0,.2-0.2v-1.3h-0.1Zm-8.7,6.4a0.27,0.27,0,0,0,.3-0.3v-0.6c0-3.1-.8-5.7-4.6-5.7s-4.5,2.6-4.5,5.7c0,3.9,1.8,5.7,5,5.7a3.89,3.89,0,0,0,2.9-.9c0.1,0,.1-0.1.1-0.2a0.2,0.2,0,0,0-.1-0.2l-0.4-.9a0.37,0.37,0,0,0-.3-0.1h-0.2a4.87,4.87,0,0,1-2.2.6c-1.4,0-3.2-.4-3.2-3.2h7.2v0.1Zm-7-1.6c0-2.4.9-3.2,2.6-3.2s2.9,0.8,2.9,3.2h-5.5Zm-5.3-9.4a0.22,0.22,0,0,0-.2-0.2h-1.3a0.22,0.22,0,0,0-.2.2V182a0.22,0.22,0,0,0,.2.2h1.3a0.22,0.22,0,0,0,.2-0.2v-15.5Zm-10,6.1c2.2,0,3,1.8,3,4s-0.8,4-3,4-3-1.8-3-4,0.8-4,3-4m0,9.8c3.1,0,4.8-2.6,4.8-5.7s-1.7-5.7-4.8-5.7-4.8,2.6-4.8,5.7,1.7,5.7,4.8,5.7m-16.9-.4a0.22,0.22,0,0,0,.2.2h1.3a0.22,0.22,0,0,0,.2-0.2v-5.2c0-2.1.5-4.1,2.8-4.1,2.5,0,2.5,1.5,2.5,3.6V182a0.22,0.22,0,0,0,.2.2h1.3a0.22,0.22,0,0,0,.2-0.2v-5.4c0-3.2-.3-5.7-4-5.7a3.24,3.24,0,0,0-3.1,1.5v-5.9a0.22,0.22,0,0,0-.2-0.2h-1.3a0.22,0.22,0,0,0-.2.2V182h0.1Zm-3.3-.4c0.1,0,.1-0.1.1-0.2a0.2,0.2,0,0,0-.1-0.2l-0.4-.9a0.37,0.37,0,0,0-.3-0.1h-0.2a5.38,5.38,0,0,1-2.2.4c-2.2,0-3.1-1.8-3.1-4s0.8-4,3.1-4a3.68,3.68,0,0,1,2.2.6h0.2a0.35,0.35,0,0,1,.2-0.1l0.5-1v-0.2a0.2,0.2,0,0,0-.1-0.2,4.06,4.06,0,0,0-3-1c-3.1,0-4.8,2.6-4.8,5.7s1.7,5.7,4.8,5.7a3.62,3.62,0,0,0,3.1-.5m-26.2.4a0.22,0.22,0,0,0,.2.2h1.3a0.22,0.22,0,0,0,.2-0.2v-5.2c0-2.1.5-4.1,2.8-4.1,2.5,0,2.5,1.5,2.5,3.6V182a0.22,0.22,0,0,0,.2.2h1.3a0.22,0.22,0,0,0,.2-0.2v-5.4c0-3.2-.3-5.7-4-5.7a3.24,3.24,0,0,0-3.1,1.5v-5.9a0.22,0.22,0,0,0-.2-0.2H99a0.22,0.22,0,0,0-.2.2V182h0.1Zm-3.6-1.3h-0.5c-1.7,0-1.7-.8-1.7-4v-4.1h2.1a0.22,0.22,0,0,0,.2-0.2v-1.3a0.22,0.22,0,0,0-.2-0.2h-2.1v-4.3a0.22,0.22,0,0,0-.2-0.2h-1.3a0.22,0.22,0,0,0-.2.2v4.3h-1.9a0.22,0.22,0,0,0-.2.2v1.3a0.22,0.22,0,0,0,.2.2h1.9v5c0,3.6.7,4.8,2.9,4.8a4.89,4.89,0,0,0,1.3-.1c0.1,0,.1-0.1.1-0.2V182l-0.2-1.1a0.16,0.16,0,0,0-.2-0.2m-11.1-12.2a1.22,1.22,0,0,0,1.2,1.2,1.2,1.2,0,1,0,0-2.4,1.29,1.29,0,0,0-1.2,1.2m2.1,2.7a0.22,0.22,0,0,0-.2-0.2h-1.3a0.22,0.22,0,0,0-.2.2V182a0.22,0.22,0,0,0,.2.2h1.3a0.22,0.22,0,0,0,.2-0.2v-10.8Zm-12,4.4c0.1,0,.2.1,0.3,0.1l2.7,6.5c0.1,0,.1.1,0.2,0.1a0.2,0.2,0,0,0,.2-0.1l3.8-11a0.27,0.27,0,0,0-.3-0.3H80a0.54,0.54,0,0,0-.4.3l-2.2,6.8-2.9-7c-0.1,0-.1-0.1-0.2-0.1a0.2,0.2,0,0,0-.2.1l-2.9,7-2.2-6.8a0.54,0.54,0,0,0-.4-0.3h-1.2a0.27,0.27,0,0,0-.3.3l3.8,11c0.1,0,.1.1,0.2,0.1s0.1-.1.2-0.1l2.7-6.5c0.1,0,.2-0.1.3-0.1m-23,5.9a5.75,5.75,0,0,0,3.1.8c2.1,0,3.9-.8,3.9-3.2,0-3.2-5.4-3.4-5.4-5.2,0-.8.1-1.3,1.9-1.3a6.15,6.15,0,0,1,1.9.2,0.34,0.34,0,0,0,.3-0.2l0.3-1.1a0.34,0.34,0,0,0-.2-0.3,10,10,0,0,0-2.4-.4c-2.6,0-3.6,1-3.6,2.9,0,4,5.4,3.1,5.4,5.7,0,1.1-1.4,1.2-2.2,1.2a4.4,4.4,0,0,1-2.5-.6,0.25,0.25,0,0,0-.3.2l-0.4.9v0.2a0.38,0.38,0,0,0,.2.2m-9.8-8.6a9.63,9.63,0,0,1,2-.3c2.2,0,2.6,1,2.6,4a3.5,3.5,0,0,0-3.1-1.5c-2.2,0-3.2,1.3-3.2,3.6,0,3.3,2.5,3.5,3.6,3.5,0.2,0,2.1,0,2.8-1.4l0.1,1a0.42,0.42,0,0,0,.4.3h0.9a0.27,0.27,0,0,0,.3-0.3v-6.1c0-3-.9-5-4.1-5a6.78,6.78,0,0,0-2.9.5,0.2,0.2,0,0,0-.1.2,4.88,4.88,0,0,0,.4,1.1,0.22,0.22,0,0,0,.2.2c-0.1.3,0,.2,0.1,0.2m2.1,7.8c-1.8,0-2.1-.8-2.1-1.8s0.2-1.9,2-1.9a3,3,0,0,1,2.6,1.5v0.8c-1.2,1.1-1.9,1.4-2.5,1.4m-6.9-3.2a0.27,0.27,0,0,0,.3-0.3v-0.6c0-3.1-.8-5.7-4.6-5.7s-4.5,2.6-4.5,5.7c0,3.9,1.8,5.7,5,5.7a3.89,3.89,0,0,0,2.9-.9c0.1,0,.1-0.1.1-0.2a0.2,0.2,0,0,0-.1-0.2l-0.4-.9a0.37,0.37,0,0,0-.3-0.1h-0.2a4.87,4.87,0,0,1-2.2.6c-1.4,0-3.2-.4-3.2-3.2h7.2v0.1Zm-7-1.6c0-2.4.9-3.2,2.6-3.2s2.9,0.8,2.9,3.2h-5.5Zm-3.8-4.8a0.22,0.22,0,0,0-.2-0.2h-0.5a2.6,2.6,0,0,0-2.6,1.4l-0.2-1.1a0.22,0.22,0,0,0-.2-0.2h-1.1a0.22,0.22,0,0,0-.2.2v10.7a0.27,0.27,0,0,0,.3.3h1.1a0.54,0.54,0,0,0,.4-0.3v-5.3c0-2,.1-4,2.5-4h0.6a0.22,0.22,0,0,0,.2-0.2v-1.3h-0.1Zm-14.7-.6,2.5,6.3h-5Zm0-4.3a0.31,0.31,0,0,0-.2.1L4.63,182a0.27,0.27,0,0,0,.3.3h1.2a0.54,0.54,0,0,0,.4-0.3l1.4-3.4h6.5l1.3,3.4a0.54,0.54,0,0,0,.4.3h1.2a0.27,0.27,0,0,0,.3-0.3l-6.4-15.7c0.1-.1.1-0.1,0-0.1" transform="translate(-2.33 -3.97)"/><path class="cls-1" d="M15.33,4s-13,0-13,13V141s0,13,13,13h472s13,0,13-13V17s0-13-13-13h-472Z" transform="translate(-2.33 -3.97)"/><path class="cls-2" d="M444.53,127.47a0.16,0.16,0,0,0,.2.2h0.8a0.16,0.16,0,0,0,.2-0.2l2.1-3.8a5.58,5.58,0,0,0,.8-2.3c0-2.1-1.1-3.2-2.9-3.2s-3,1.1-3,3.2a2.81,2.81,0,0,0,3,2.9h0.6Zm1.1-4.1a1.72,1.72,0,0,1-1.9-2c0-1.5.7-2.1,1.9-2.1s1.9,0.6,1.9,2.1a1.69,1.69,0,0,1-1.9,2m-10-5.3a0.54,0.54,0,0,0-.4.3l-5.2,9.3a1.55,1.55,0,0,0-.3.6V130a0.27,0.27,0,0,0,.3.3h6.7v3.6a0.22,0.22,0,0,0,.2.2h1.3a0.22,0.22,0,0,0,.2-0.2v-3.6h1.8a0.22,0.22,0,0,0,.2-0.2v-1.3a0.22,0.22,0,0,0-.2-0.2h-1.8v-10.1a0.27,0.27,0,0,0-.3-0.3h-2.5v-0.1Zm1.1,10.3h-5l5-9v9Zm-15.6-6.3c1.5-.6,2.2-0.8,3.2-1.2v12.8a0.22,0.22,0,0,0,.2.2h1.3a0.22,0.22,0,0,0,.2-0.2v-15.5c0-.1,0-0.2-0.1-0.2a0.31,0.31,0,0,0-.2.1,33.78,33.78,0,0,1-4.6,2.4c-0.2.1-.3,0.1-0.3,0.3v1.1a0.53,0.53,0,0,0,.3.2m-8.6,12c4.5,0,5.5-3.6,5.5-8.1s-1.1-8.1-5.5-8.1-5.5,3.6-5.5,8.1,1,8.1,5.5,8.1m0-1.7c-3.5,0-3.8-2.9-3.8-6.4s0.3-6.4,3.8-6.4,3.8,2.9,3.8,6.4-0.3,6.4-3.8,6.4m-16.7-12a8.89,8.89,0,0,1,3.1-.8c2.8,0,2.9,2,2.9,2.6-0.1,4.4-7.1,6.9-7.1,11v0.5a0.22,0.22,0,0,0,.2.2h8.5a0.22,0.22,0,0,0,.2-0.2v-1.3a0.22,0.22,0,0,0-.2-0.2h-6.5c2.9-4,6.7-5.7,6.7-10.1,0-2.8-1-4.3-4.6-4.3a8.25,8.25,0,0,0-3.9,1,0.25,0.25,0,0,0,0,.4l0.4,1a0.38,0.38,0,0,0,.2.2h0.1m-11.1,7.5a0.22,0.22,0,0,0-.2.2v1.3a0.22,0.22,0,0,0,.2.2h7.1a0.22,0.22,0,0,0,.2-0.2v-1.3a0.22,0.22,0,0,0-.2-0.2h-7.1Zm-9.4,6.2c4.5,0,5.5-3.6,5.5-8.1s-1.1-8.1-5.5-8.1-5.5,3.6-5.5,8.1,1.1,8.1,5.5,8.1m0-1.7c-3.5,0-3.8-2.9-3.8-6.4s0.3-6.4,3.8-6.4,3.8,2.9,3.8,6.4-0.3,6.4-3.8,6.4m-14-10.3c1.5-.6,2.2-0.8,3.2-1.2v12.8a0.22,0.22,0,0,0,.2.2H366a0.22,0.22,0,0,0,.2-0.2v-15.5c0-.1,0-0.2-0.1-0.2a0.31,0.31,0,0,0-.2.1,33.78,33.78,0,0,1-4.6,2.4c-0.2.1-.3,0.1-0.3,0.3v1.1a0.25,0.25,0,0,0,.3.2m-8.1,12c4.5,0,5.5-3.6,5.5-8.1s-1.1-8.1-5.5-8.1-5.5,3.6-5.5,8.1,1,8.1,5.5,8.1m0-1.7c-3.5,0-3.8-2.9-3.8-6.4s0.3-6.4,3.8-6.4,3.8,2.9,3.8,6.4-0.3,6.4-3.8,6.4m-16.2-12a8.89,8.89,0,0,1,3.1-.8c2.8,0,2.9,2,2.9,2.6-0.1,4.4-7.1,6.9-7.1,11v0.5a0.22,0.22,0,0,0,.2.2h8.5a0.22,0.22,0,0,0,.2-0.2v-1.3a0.22,0.22,0,0,0-.2-0.2h-6.5c2.9-4,6.7-5.7,6.7-10.1,0-2.8-1-4.3-4.6-4.3a8.25,8.25,0,0,0-3.9,1,0.25,0.25,0,0,0,0,.4l0.4,1a0.38,0.38,0,0,0,.2.2H337m-12,15.5a0.53,0.53,0,0,0,.3-0.2l1.1-2.3a2.27,2.27,0,0,0,.1-0.4,1.1,1.1,0,0,0-2.2,0,1.79,1.79,0,0,0,.6,1l-0.6,1.8a0.22,0.22,0,0,0,.2.2H325v-0.1Zm-10.5-11.2a9.63,9.63,0,0,1,2-.3c2.2,0,2.6,1,2.6,4a3.5,3.5,0,0,0-3.1-1.5c-2.2,0-3.2,1.3-3.2,3.6,0,3.3,2.5,3.5,3.6,3.5,0.2,0,2.1,0,2.8-1.4l0.1,1a0.42,0.42,0,0,0,.4.3h0.9a0.27,0.27,0,0,0,.3-0.3v-6.1c0-3-.9-5-4.1-5a6.78,6.78,0,0,0-2.9.5,0.2,0.2,0,0,0-.1.2,4.88,4.88,0,0,0,.4,1.1,0.22,0.22,0,0,0,.2.2c0,0.2,0,.2.1,0.2m2.1,7.7c-1.8,0-2.1-.8-2.1-1.8s0.2-1.9,2-1.9a3,3,0,0,1,2.6,1.5V131c-1.2,1.2-1.9,1.4-2.5,1.4m-5.2-9.6a0.22,0.22,0,0,0-.2-0.2h-0.5a2.6,2.6,0,0,0-2.6,1.4l-0.2-1.1a0.22,0.22,0,0,0-.2-0.2h-1.1a0.22,0.22,0,0,0-.2.2v10.8a0.27,0.27,0,0,0,.3.3h1.1a0.54,0.54,0,0,0,.4-0.3v-5.3c0-2,.1-4,2.5-4h0.6a0.22,0.22,0,0,0,.2-0.2v-1.4h-0.1Zm-8.2,6.5a0.27,0.27,0,0,0,.3-0.3v-0.6c0-3.1-.8-5.7-4.6-5.7s-4.5,2.6-4.5,5.7c0,3.9,1.8,5.7,5,5.7a3.89,3.89,0,0,0,2.9-.9c0.1,0,.1-0.1.1-0.2a0.2,0.2,0,0,0-.1-0.2l-0.4-.9a0.37,0.37,0,0,0-.3-0.1h-0.2a4.87,4.87,0,0,1-2.2.6c-1.4,0-3.2-.4-3.2-3.2h7.2v0.1Zm-7-1.7c0-2.4.9-3.2,2.6-3.2s2.9,0.8,2.9,3.2h-5.5Zm-4.7-9.3a0.22,0.22,0,0,0-.2-0.2H290a0.22,0.22,0,0,0-.2.2v15.4a0.22,0.22,0,0,0,.2.2h1.3a0.22,0.22,0,0,0,.2-0.2v-15.4Zm-9.4,6.1c2.2,0,3,1.8,3,4s-0.8,4-3,4-3-1.8-3-4,0.8-4,3-4m0,9.7c3.1,0,4.8-2.6,4.8-5.7s-1.7-5.7-4.8-5.7-4.8,2.6-4.8,5.7,1.7,5.7,4.8,5.7m-16.3-.4a0.22,0.22,0,0,0,.2.2h1.3a0.22,0.22,0,0,0,.2-0.2v-5.2c0-2.1.5-4.1,2.8-4.1,2.5,0,2.5,1.5,2.5,3.6v5.7a0.22,0.22,0,0,0,.2.2h1.3a0.22,0.22,0,0,0,.2-0.2v-5.4c0-3.2-.3-5.7-4-5.7a3.24,3.24,0,0,0-3.1,1.5v-5.9a0.22,0.22,0,0,0-.2-0.2h-1.3a0.22,0.22,0,0,0-.2.2v15.5h0.1Zm-2.8-.4c0.1,0,.1-0.1.1-0.2a0.2,0.2,0,0,0-.1-0.2l-0.4-.9a0.37,0.37,0,0,0-.3-0.1h-0.2a5.38,5.38,0,0,1-2.2.4c-2.2,0-3.1-1.8-3.1-4s0.8-4,3.1-4a3.68,3.68,0,0,1,2.2.6h0.2a0.35,0.35,0,0,1,.2-0.1l0.5-1v-0.2a0.2,0.2,0,0,0-.1-0.2,4.06,4.06,0,0,0-3-1c-3.1,0-4.8,2.6-4.8,5.7s1.7,5.7,4.8,5.7a3.62,3.62,0,0,0,3.1-.5m-18.2,1.1c0,2.2-.2,3.4-3,3.4a5.3,5.3,0,0,1-2.5-.6c-0.1,0-.1-0.1-0.2-0.1a0.1,0.1,0,0,0-.1.1l-0.4,1v0.1c0,0.1,0,.2.1,0.2a5.82,5.82,0,0,0,3.7.9c2.3,0,4.3-1,4.3-4.9V123a0.27,0.27,0,0,0-.3-0.3h-0.9a0.42,0.42,0,0,0-.4.3l-0.1,1a4.13,4.13,0,0,0-3.2-1.4c-3.1,0-4.4,2.4-4.4,5.7s0.8,5.8,4.3,5.8a3.67,3.67,0,0,0,3.2-1.3v1.6h-0.1Zm-3-2c-2.2,0-2.8-1.1-2.8-4.1,0-2.5.7-3.9,2.8-3.9s2.9,1.4,2.9,3.9-0.7,4.1-2.9,4.1m-9.1,1.3a0.22,0.22,0,0,0,.2.2h1.3a0.22,0.22,0,0,0,.2-0.2v-5.4c0-3.2-.3-5.7-4-5.7a3.18,3.18,0,0,0-3.2,1.8l-0.1-1.4a0.42,0.42,0,0,0-.4-0.3h-0.9a0.27,0.27,0,0,0-.3.3v10.7a0.22,0.22,0,0,0,.2.2H227a0.22,0.22,0,0,0,.2-0.2v-5.2c0-2.1.5-4.1,2.8-4.1,2.5,0,2.5,1.5,2.5,3.6v5.7h0.2ZM220,120.27a1.22,1.22,0,0,0,1.2,1.2,1.2,1.2,0,1,0,0-2.4,1.22,1.22,0,0,0-1.2,1.2m2.1,2.7a0.22,0.22,0,0,0-.2-0.2h-1.3a0.22,0.22,0,0,0-.2.2v10.7a0.22,0.22,0,0,0,.2.2h1.3a0.22,0.22,0,0,0,.2-0.2V123Zm-4.8,9.4h-0.5c-1.7,0-1.7-.8-1.7-4v-4.1h2.1a0.22,0.22,0,0,0,.2-0.2v-1.3a0.22,0.22,0,0,0-.2-0.2h-2.1v-4.3a0.22,0.22,0,0,0-.2-0.2h-1.3a0.22,0.22,0,0,0-.2.2v4.3h-1.9a0.22,0.22,0,0,0-.2.2v1.3a0.22,0.22,0,0,0,.2.2h1.9v5c0,3.6.7,4.8,2.9,4.8a4.89,4.89,0,0,0,1.3-.1c0.1,0,.1-0.1.1-0.2v-0.1l-0.2-1.1a0.22,0.22,0,0,0-.2-0.2m-7.7-9.6a0.22,0.22,0,0,0-.2-0.2h-0.5a2.6,2.6,0,0,0-2.6,1.4l-0.2-1.1a0.22,0.22,0,0,0-.2-0.2h-1.1a0.22,0.22,0,0,0-.2.2v10.8a0.27,0.27,0,0,0,.3.3H206a0.54,0.54,0,0,0,.4-0.3v-5.3c0-2,.1-4,2.5-4h0.6a0.22,0.22,0,0,0,.2-0.2v-1.4h-0.1Zm-12.7,1.6c2.2,0,3,1.8,3,4s-0.8,4-3,4-3-1.8-3-4,0.8-4,3-4m0,9.7c3.1,0,4.8-2.6,4.8-5.7s-1.7-5.7-4.8-5.7-4.8,2.6-4.8,5.7,1.7,5.7,4.8,5.7m-11.6-1.7c-2.1,0-2.9-1.5-2.9-4.1s0.8-3.9,2.9-3.9,2.8,1.5,2.8,3.9c0,3-.6,4.1-2.8,4.1m-4.7,6.1a0.27,0.27,0,0,0,.3.3H182a0.54,0.54,0,0,0,.4-0.3v-5.7a3.34,3.34,0,0,0,3.2,1.3c3.6,0,4.3-2.6,4.3-5.8s-1.3-5.7-4.4-5.7a4,4,0,0,0-3.2,1.4l-0.1-1a0.42,0.42,0,0,0-.4-0.3h-0.9a0.27,0.27,0,0,0-.3.3v15.5h0Zm-3.1-9.2a0.27,0.27,0,0,0,.3-0.3v-0.6c0-3.1-.8-5.7-4.6-5.7s-4.5,2.6-4.5,5.7c0,3.9,1.8,5.7,5,5.7a3.89,3.89,0,0,0,2.9-.9c0.1,0,.1-0.1.1-0.2a0.2,0.2,0,0,0-.1-0.2l-0.4-.9a0.37,0.37,0,0,0-.3-0.1h-0.2a4.87,4.87,0,0,1-2.2.6c-1.4,0-3.2-.4-3.2-3.2h7.2v0.1Zm-7-1.7c0-2.4.9-3.2,2.6-3.2s2.9,0.8,2.9,3.2h-5.5Zm-3.3-4.8a0.22,0.22,0,0,0-.2-0.2h-0.5a2.6,2.6,0,0,0-2.6,1.4l-0.2-1.1a0.22,0.22,0,0,0-.2-0.2h-1.1a0.22,0.22,0,0,0-.2.2v10.8a0.27,0.27,0,0,0,.3.3h1.1a0.54,0.54,0,0,0,.4-0.3v-5.3c0-2,.1-4,2.5-4h0.6a0.22,0.22,0,0,0,.2-0.2v-1.4h-0.1Zm-21,10.5a5.75,5.75,0,0,0,3.1.8c2.1,0,3.9-.8,3.9-3.2,0-3.2-5.4-3.4-5.4-5.2,0-.8.1-1.3,1.9-1.3a6.15,6.15,0,0,1,1.9.2,0.34,0.34,0,0,0,.3-0.2l0.3-1.1a0.34,0.34,0,0,0-.2-0.3,10,10,0,0,0-2.4-.4c-2.6,0-3.6,1-3.6,2.9,0,4,5.4,3.1,5.4,5.7,0,1.1-1.4,1.2-2.2,1.2a4.4,4.4,0,0,1-2.5-.6,0.25,0.25,0,0,0-.3.2l-0.4.9v0.2a0.38,0.38,0,0,0,.2.2m-2.6-4a0.27,0.27,0,0,0,.3-0.3v-0.6c0-3.1-.8-5.7-4.6-5.7s-4.5,2.6-4.5,5.7c0,3.9,1.8,5.7,5,5.7a3.89,3.89,0,0,0,2.9-.9c0.1,0,.1-0.1.1-0.2a0.2,0.2,0,0,0-.1-0.2l-0.4-.9a0.37,0.37,0,0,0-.3-0.1h-0.2a4.87,4.87,0,0,1-2.2.6c-1.4,0-3.2-.4-3.2-3.2h7.2v0.1Zm-7-1.7c0-2.4.9-3.2,2.6-3.2s2.9,0.8,2.9,3.2h-5.5Zm-6.8-7.3a1.22,1.22,0,0,0,1.2,1.2,1.2,1.2,0,1,0,0-2.4,1.22,1.22,0,0,0-1.2,1.2m2.1,2.7a0.22,0.22,0,0,0-.2-0.2h-1.3a0.22,0.22,0,0,0-.2.2v10.7a0.22,0.22,0,0,0,.2.2h1.3a0.22,0.22,0,0,0,.2-0.2V123Zm-4-.2a0.22,0.22,0,0,0-.2-0.2h-0.5a2.6,2.6,0,0,0-2.6,1.4l-0.2-1.1a0.22,0.22,0,0,0-.2-0.2h-1.1a0.22,0.22,0,0,0-.2.2v10.8a0.27,0.27,0,0,0,.3.3h1.1a0.54,0.54,0,0,0,.4-0.3v-5.3c0-2,.1-4,2.5-4h0.6a0.22,0.22,0,0,0,.2-0.2v-1.4h-0.1Zm-8.1,9.6h-0.5c-1.7,0-1.7-.8-1.7-4v-4.1h2.1a0.22,0.22,0,0,0,.2-0.2v-1.3a0.22,0.22,0,0,0-.2-0.2h-2.1v-4.3a0.22,0.22,0,0,0-.2-0.2h-1.3a0.22,0.22,0,0,0-.2.2v4.3H114a0.22,0.22,0,0,0-.2.2v1.3a0.22,0.22,0,0,0,.2.2h1.9v5c0,3.6.7,4.8,2.9,4.8a4.89,4.89,0,0,0,1.3-.1c0.1,0,.1-0.1.1-0.2v-0.1l-0.2-1.1a0.22,0.22,0,0,0-.2-0.2m-9.9,1.3a0.22,0.22,0,0,0,.2.2h1.3a0.22,0.22,0,0,0,.2-0.2v-5.4c0-3.2-.3-5.7-4-5.7a3.18,3.18,0,0,0-3.2,1.8l-0.1-1.4a0.42,0.42,0,0,0-.4-0.3H103a0.27,0.27,0,0,0-.3.3v10.7a0.22,0.22,0,0,0,.2.2h1.3a0.22,0.22,0,0,0,.2-0.2v-5.2c0-2.1.5-4.1,2.8-4.1,2.5,0,2.5,1.5,2.5,3.6v5.7h0.2ZM92.23,123a0.22,0.22,0,0,0-.2-0.2h-1.3a0.22,0.22,0,0,0-.2.2v5.4c0,3.2.3,5.7,4,5.7a3.09,3.09,0,0,0,3.2-1.7l0.1,1.3a0.42,0.42,0,0,0,.4.3h0.9a0.27,0.27,0,0,0,.3-0.3V123a0.22,0.22,0,0,0-.2-0.2h-1.3a0.22,0.22,0,0,0-.2.2v5.3c0,2.1-.5,4.1-2.8,4.1-2.5,0-2.5-1.5-2.5-3.6V123h-0.2Zm-9.2,1.4c2.2,0,3,1.8,3,4s-0.8,4-3,4-3-1.8-3-4,0.7-4,3-4m0,9.7c3.1,0,4.8-2.6,4.8-5.7s-1.7-5.7-4.8-5.7-4.8,2.6-4.8,5.7,1.6,5.7,4.8,5.7m-6.9-2.3v-0.1a0.31,0.31,0,0,0-.1-0.2l-0.5-.7a0.37,0.37,0,0,0-.3-0.1,0.2,0.2,0,0,0-.2.1,6.39,6.39,0,0,1-4.5,1.7c-3.5,0-5.1-2.9-5.1-6.4s1.6-6.4,5.1-6.4a5.7,5.7,0,0,1,3.6,1.1,0.2,0.2,0,0,0,.2.1c0.1,0,.2-0.1.3-0.1l0.7-.7a0.31,0.31,0,0,0,.1-0.2l-0.1-.1a7.49,7.49,0,0,0-4.8-1.8c-4.5,0-6.9,3.6-6.9,8.1s2.4,8.1,6.9,8.1c2.5-.1,4.2-0.7,5.6-2.4" transform="translate(-2.33 -3.97)"/><path class="cls-2" d="M401.53,80.47a0.16,0.16,0,0,0,.2.2h0.8a0.16,0.16,0,0,0,.2-0.2l2.1-3.8a5.58,5.58,0,0,0,.8-2.3c0-2.1-1.1-3.2-2.9-3.2s-3,1.1-3,3.2a2.81,2.81,0,0,0,3,2.9h0.6Zm1.1-4.1a1.72,1.72,0,0,1-1.9-2c0-1.5.7-2.1,1.9-2.1s1.9,0.6,1.9,2.1a1.72,1.72,0,0,1-1.9,2m-12,3.1a4.42,4.42,0,0,1,2.2-.5c1.9,0,2.8.8,2.8,3.3s-0.9,3.1-2.9,3.1c-1.2,0-2.2,0-2.9-1.1a0.42,0.42,0,0,0-.4-0.3h-1.1a0.27,0.27,0,0,0-.3.3c0.7,1.9,2.3,2.8,4.8,2.8,3.2,0,4.6-1.7,4.6-4.8s-1.6-5.1-4.6-5.1a4.29,4.29,0,0,0-3,.9v-5.3H396a0.22,0.22,0,0,0,.2-0.2v-1.3a0.22,0.22,0,0,0-.2-0.2h-7.7a0.22,0.22,0,0,0-.2.2v8.1a0.43,0.43,0,0,0,.3.3,17.36,17.36,0,0,0,1.8.1,4,4,0,0,0,.4-0.3m-12-4.4c1.5-.6,2.2-0.8,3.2-1.2v12.8a0.22,0.22,0,0,0,.2.2h1.3a0.22,0.22,0,0,0,.2-0.2V71.17c0-.1,0-0.2-0.1-0.2a0.31,0.31,0,0,0-.2.1,33.78,33.78,0,0,1-4.6,2.4c-0.2.1-.3,0.1-0.3,0.3v1.1a0.53,0.53,0,0,0,.3.2m-8.6,12c4.5,0,5.5-3.6,5.5-8.1s-1.1-8.1-5.5-8.1-5.5,3.6-5.5,8.1,1,8.1,5.5,8.1m0-1.7c-3.5,0-3.8-2.9-3.8-6.4s0.3-6.4,3.8-6.4,3.8,2.9,3.8,6.4-0.3,6.4-3.8,6.4m-16.7-12a8.89,8.89,0,0,1,3.1-.8c2.8,0,2.9,2,2.9,2.6-0.1,4.4-7.1,6.9-7.1,11v0.5a0.22,0.22,0,0,0,.2.2h8.5a0.22,0.22,0,0,0,.2-0.2v-1.3a0.22,0.22,0,0,0-.2-0.2h-6.5c2.9-4,6.7-5.7,6.7-10.1,0-2.8-1-4.3-4.6-4.3a8.25,8.25,0,0,0-3.9,1,0.25,0.25,0,0,0,0,.4l0.4,1a0.38,0.38,0,0,0,.2.2h0.1m-13.2,15.5a0.53,0.53,0,0,0,.3-0.2l1.1-2.3a2.27,2.27,0,0,0,.1-0.4,1.1,1.1,0,0,0-2.2,0,1.79,1.79,0,0,0,.6,1l-0.6,1.8a0.22,0.22,0,0,0,.2.2h0.5v-0.1Zm-11-11.2a9.63,9.63,0,0,1,2-.3c2.2,0,2.6,1,2.6,4a3.5,3.5,0,0,0-3.1-1.5c-2.2,0-3.2,1.3-3.2,3.6,0,3.3,2.5,3.5,3.6,3.5,0.2,0,2.1,0,2.8-1.4l0.1,1a0.42,0.42,0,0,0,.4.3h0.9a0.27,0.27,0,0,0,.3-0.3v-6.1c0-3-.9-5-4.1-5a6.78,6.78,0,0,0-2.9.5,0.2,0.2,0,0,0-.1.2,4.88,4.88,0,0,0,.4,1.1,0.22,0.22,0,0,0,.2.2c-0.1.2-.1,0.2,0.1,0.2m2.1,7.7c-1.8,0-2.1-.8-2.1-1.8s0.2-1.9,2-1.9a3,3,0,0,1,2.6,1.5V84c-1.2,1.2-1.9,1.4-2.5,1.4m-5.8-9.6a0.22,0.22,0,0,0-.2-0.2h-0.5a2.6,2.6,0,0,0-2.6,1.4l-0.2-1.1a0.22,0.22,0,0,0-.2-0.2h-1.1a0.22,0.22,0,0,0-.2.2v10.8a0.27,0.27,0,0,0,.3.3h1.1a0.54,0.54,0,0,0,.4-0.3v-5.3c0-2,.1-4,2.5-4h0.6a0.22,0.22,0,0,0,.2-0.2v-1.4h-0.1Zm-8.7,6.5A0.27,0.27,0,0,0,317,82v-0.6c0-3.1-.8-5.7-4.6-5.7s-4.5,2.6-4.5,5.7c0,3.9,1.8,5.7,5,5.7a3.89,3.89,0,0,0,2.9-.9c0.1,0,.1-0.1.1-0.2a0.2,0.2,0,0,0-.1-0.2l-0.4-.9a0.37,0.37,0,0,0-.3-0.1h-0.2a4.87,4.87,0,0,1-2.2.6c-1.4,0-3.2-.4-3.2-3.2h7.2v0.1Zm-7-1.7c0-2.4.9-3.2,2.6-3.2s2.9,0.8,2.9,3.2h-5.5Zm-5.3-9.3a0.22,0.22,0,0,0-.2-0.2h-1.3a0.22,0.22,0,0,0-.2.2v15.4a0.22,0.22,0,0,0,.2.2h1.3a0.22,0.22,0,0,0,.2-0.2V71.27Zm-10,6.1c2.2,0,3,1.8,3,4s-0.8,4-3,4-3-1.8-3-4,0.8-4,3-4m0,9.7c3.1,0,4.8-2.6,4.8-5.7s-1.7-5.7-4.8-5.7-4.8,2.6-4.8,5.7,1.7,5.7,4.8,5.7m-16.9-.4a0.22,0.22,0,0,0,.2.2H279a0.22,0.22,0,0,0,.2-0.2v-5.2c0-2.1.5-4.1,2.8-4.1,2.5,0,2.5,1.5,2.5,3.6v5.7a0.22,0.22,0,0,0,.2.2H286a0.22,0.22,0,0,0,.2-0.2v-5.4c0-3.2-.3-5.7-4-5.7a3.24,3.24,0,0,0-3.1,1.5v-5.9a0.22,0.22,0,0,0-.2-0.2h-1.3a0.22,0.22,0,0,0-.2.2v15.5h0.1Zm-3.3-.4c0.1,0,.1-0.1.1-0.2a0.2,0.2,0,0,0-.1-0.2l-0.4-.9a0.37,0.37,0,0,0-.3-0.1h-0.2a5.38,5.38,0,0,1-2.2.4c-2.2,0-3.1-1.8-3.1-4s0.8-4,3.1-4a3.68,3.68,0,0,1,2.2.6h0.2c0.1,0,.1-0.1.2-0.1l0.5-1v-0.2a0.2,0.2,0,0,0-.1-0.2,4.06,4.06,0,0,0-3-1c-3.1,0-4.8,2.6-4.8,5.7s1.7,5.7,4.8,5.7a3.62,3.62,0,0,0,3.1-.5m-19.4,1.1c0,2.2-.2,3.4-3,3.4a5.3,5.3,0,0,1-2.5-.6c-0.1,0-.1-0.1-0.2-0.1a0.1,0.1,0,0,0-.1.1l-0.4,1v0.1c0,0.1,0,.2.1,0.2a5.82,5.82,0,0,0,3.7.9c2.3,0,4.3-1,4.3-4.9V76a0.27,0.27,0,0,0-.3-0.3h-0.9a0.42,0.42,0,0,0-.4.3L255,77a4.13,4.13,0,0,0-3.2-1.4c-3.1,0-4.4,2.4-4.4,5.7s0.8,5.8,4.3,5.8a3.67,3.67,0,0,0,3.2-1.3v1.6h-0.1Zm-2.9-2c-2.2,0-2.8-1.1-2.8-4.1,0-2.5.7-3.9,2.8-3.9s2.9,1.4,2.9,3.9-0.8,4.1-2.9,4.1m-9.6,1.3a0.22,0.22,0,0,0,.2.2h1.3a0.22,0.22,0,0,0,.2-0.2v-5.4c0-3.2-.3-5.7-4-5.7a3.18,3.18,0,0,0-3.2,1.8l-0.1-1.4a0.42,0.42,0,0,0-.4-0.3h-0.9a0.27,0.27,0,0,0-.3.3v10.7a0.22,0.22,0,0,0,.2.2h1.3a0.22,0.22,0,0,0,.2-0.2v-5.2c0-2.1.5-4.1,2.8-4.1,2.5,0,2.5,1.5,2.5,3.6v5.7h0.2ZM229,73.27a1.22,1.22,0,0,0,1.2,1.2,1.2,1.2,0,1,0,0-2.4,1.16,1.16,0,0,0-1.2,1.2m2.1,2.7a0.22,0.22,0,0,0-.2-0.2h-1.3a0.22,0.22,0,0,0-.2.2v10.7a0.22,0.22,0,0,0,.2.2h1.3a0.22,0.22,0,0,0,.2-0.2V76Zm-5.4,9.4h-0.5c-1.7,0-1.7-.8-1.7-4v-4.1h2.1a0.22,0.22,0,0,0,.2-0.2v-1.3a0.22,0.22,0,0,0-.2-0.2h-2.1v-4.3a0.22,0.22,0,0,0-.2-0.2H222a0.22,0.22,0,0,0-.2.2v4.3h-1.9a0.22,0.22,0,0,0-.2.2v1.3a0.22,0.22,0,0,0,.2.2h1.9v5c0,3.6.7,4.8,2.9,4.8A4.89,4.89,0,0,0,226,87c0.1,0,.1-0.1.1-0.2v-0.1l-0.2-1.1a0.22,0.22,0,0,0-.2-0.2m-8.2-9.6a0.22,0.22,0,0,0-.2-0.2h-0.5a2.6,2.6,0,0,0-2.6,1.4l-0.2-1.1a0.22,0.22,0,0,0-.2-0.2h-1.1a0.22,0.22,0,0,0-.2.2v10.8a0.27,0.27,0,0,0,.3.3h1.1a0.54,0.54,0,0,0,.4-0.3v-5.3c0-2,.1-4,2.5-4h0.6a0.22,0.22,0,0,0,.2-0.2v-1.4h-0.1Zm-13.3,1.6c2.2,0,3,1.8,3,4s-0.8,4-3,4-3-1.8-3-4,0.8-4,3-4m0,9.7c3.1,0,4.8-2.6,4.8-5.7s-1.7-5.7-4.8-5.7-4.8,2.6-4.8,5.7,1.7,5.7,4.8,5.7M192,85.37c-2.1,0-2.9-1.5-2.9-4.1s0.8-3.9,2.9-3.9,2.8,1.5,2.8,3.9c0.1,3-.6,4.1-2.8,4.1m-4.6,6.1a0.27,0.27,0,0,0,.3.3h1.1a0.54,0.54,0,0,0,.4-0.3v-5.7a3.34,3.34,0,0,0,3.2,1.3c3.6,0,4.3-2.6,4.3-5.8s-1.3-5.7-4.4-5.7a4,4,0,0,0-3.2,1.4L189,76a0.42,0.42,0,0,0-.4-0.3h-0.9a0.27,0.27,0,0,0-.3.3v15.5h0Zm-3.7-9.2A0.27,0.27,0,0,0,184,82v-0.6c0-3.1-.8-5.7-4.6-5.7s-4.5,2.6-4.5,5.7c0,3.9,1.8,5.7,5,5.7a3.89,3.89,0,0,0,2.9-.9c0.1,0,.1-0.1.1-0.2a0.2,0.2,0,0,0-.1-0.2l-0.4-.9a0.37,0.37,0,0,0-.3-0.1h-0.2a4.87,4.87,0,0,1-2.2.6c-1.4,0-3.2-.4-3.2-3.2h7.2v0.1Zm-7-1.7c0-2.4.9-3.2,2.6-3.2s2.9,0.8,2.9,3.2h-5.5Zm-3.9-4.8a0.22,0.22,0,0,0-.2-0.2h-0.5a2.6,2.6,0,0,0-2.6,1.4l-0.2-1.1a0.22,0.22,0,0,0-.2-0.2H168a0.22,0.22,0,0,0-.2.2v10.8a0.27,0.27,0,0,0,.3.3h1.1a0.54,0.54,0,0,0,.4-0.3v-5.3c0-2,.1-4,2.5-4h0.6a0.22,0.22,0,0,0,.2-0.2v-1.4h-0.1Zm-22.1,10.5a5.75,5.75,0,0,0,3.1.8c2.1,0,3.9-.8,3.9-3.2,0-3.2-5.4-3.4-5.4-5.2,0-.8.1-1.3,1.9-1.3a6.15,6.15,0,0,1,1.9.2,0.34,0.34,0,0,0,.3-0.2l0.3-1.1a0.34,0.34,0,0,0-.2-0.3,10,10,0,0,0-2.4-.4c-2.6,0-3.6,1-3.6,2.9,0,4,5.4,3.1,5.4,5.7,0,1.1-1.4,1.2-2.2,1.2a4.4,4.4,0,0,1-2.5-.6,0.25,0.25,0,0,0-.3.2l-0.4.9v0.2a0.38,0.38,0,0,0,.2.2m-3.2-4a0.27,0.27,0,0,0,.3-0.3v-0.6c0-3.1-.8-5.7-4.6-5.7s-4.5,2.6-4.5,5.7c0,3.9,1.8,5.7,5,5.7a3.89,3.89,0,0,0,2.9-.9c0.1,0,.1-0.1.1-0.2a0.2,0.2,0,0,0-.1-0.2l-0.4-.9a0.37,0.37,0,0,0-.3-0.1h-0.2a4.87,4.87,0,0,1-2.2.6c-1.4,0-3.2-.4-3.2-3.2h7.2v0.1Zm-7-1.7c0-2.4.9-3.2,2.6-3.2s2.9,0.8,2.9,3.2h-5.5Zm-7.3-7.3a1.22,1.22,0,0,0,1.2,1.2,1.2,1.2,0,1,0,0-2.4,1.22,1.22,0,0,0-1.2,1.2m2.1,2.7a0.22,0.22,0,0,0-.2-0.2h-1.3a0.22,0.22,0,0,0-.2.2v10.7a0.22,0.22,0,0,0,.2.2h1.3a0.22,0.22,0,0,0,.2-0.2V76Zm-4.6-.2a0.22,0.22,0,0,0-.2-0.2H130a2.6,2.6,0,0,0-2.6,1.4l-0.2-1.1a0.22,0.22,0,0,0-.2-0.2h-1.1a0.22,0.22,0,0,0-.2.2v10.8a0.27,0.27,0,0,0,.3.3h1.1a0.54,0.54,0,0,0,.4-0.3v-5.3c0-2,.1-4,2.5-4h0.6a0.22,0.22,0,0,0,.2-0.2v-1.4h-0.1Zm-8.6,9.6h-0.5c-1.7,0-1.7-.8-1.7-4v-4.1H122a0.22,0.22,0,0,0,.2-0.2v-1.3a0.22,0.22,0,0,0-.2-0.2h-2.1v-4.3a0.22,0.22,0,0,0-.2-0.2h-1.3a0.22,0.22,0,0,0-.2.2v4.3h-1.9a0.22,0.22,0,0,0-.2.2v1.3a0.22,0.22,0,0,0,.2.2h1.9v5c0,3.6.7,4.8,2.9,4.8a4.89,4.89,0,0,0,1.3-.1c0.1,0,.1-0.1.1-0.2v-0.1l-0.2-1.1a0.22,0.22,0,0,0-.2-0.2m-10.5,1.3a0.22,0.22,0,0,0,.2.2h1.3a0.22,0.22,0,0,0,.2-0.2v-5.4c0-3.2-.3-5.7-4-5.7a3.18,3.18,0,0,0-3.2,1.8L106,76a0.42,0.42,0,0,0-.4-0.3h-0.9a0.27,0.27,0,0,0-.3.3v10.7a0.22,0.22,0,0,0,.2.2h1.3a0.22,0.22,0,0,0,.2-0.2v-5.2c0-2.1.5-4.1,2.8-4.1,2.5,0,2.5,1.5,2.5,3.6v5.7h0.2ZM93.33,76a0.22,0.22,0,0,0-.2-0.2h-1.3a0.22,0.22,0,0,0-.2.2v5.4c0,3.2.3,5.7,4,5.7a3.09,3.09,0,0,0,3.2-1.7l0.1,1.3a0.42,0.42,0,0,0,.4.3h0.9a0.27,0.27,0,0,0,.3-0.3V76a0.22,0.22,0,0,0-.2-0.2H99a0.22,0.22,0,0,0-.2.2v5.3c0,2.1-.5,4.1-2.8,4.1-2.5,0-2.5-1.5-2.5-3.6V76h-0.2Zm-9.8,1.4c2.2,0,3,1.8,3,4s-0.8,4-3,4-3-1.8-3-4,0.8-4,3-4m0,9.7c3.1,0,4.8-2.6,4.8-5.7s-1.7-5.7-4.8-5.7-4.8,2.6-4.8,5.7,1.7,5.7,4.8,5.7m-7.4-2.3v-0.1a0.31,0.31,0,0,0-.1-0.2l-0.5-.7a0.37,0.37,0,0,0-.3-0.1,0.2,0.2,0,0,0-.2.1,6.39,6.39,0,0,1-4.5,1.7c-3.5,0-5.1-2.9-5.1-6.4s1.6-6.4,5.1-6.4a5.7,5.7,0,0,1,3.6,1.1,0.2,0.2,0,0,0,.2.1c0.1,0,.2-0.1.3-0.1l0.7-.7a0.31,0.31,0,0,0,.1-0.2l-0.1-.1a7.49,7.49,0,0,0-4.8-1.8c-4.5,0-6.9,3.6-6.9,8.1s2.4,8.1,6.9,8.1c2.5-.1,4.2-0.7,5.6-2.4" transform="translate(-2.33 -3.97)"/><path class="cls-2" d="M463,33.47a0.16,0.16,0,0,0,.2.2H464a0.16,0.16,0,0,0,.2-0.2l2.1-3.8a5.58,5.58,0,0,0,.8-2.3c0-2.1-1.1-3.2-2.9-3.2s-3,1.1-3,3.2a2.81,2.81,0,0,0,3,2.9h0.6Zm1.2-4.1a1.72,1.72,0,0,1-1.9-2c0-1.5.7-2.1,1.9-2.1s1.9,0.6,1.9,2.1a1.77,1.77,0,0,1-1.9,2m-12,3.1a4.42,4.42,0,0,1,2.2-.5c1.9,0,2.8.8,2.8,3.3s-0.9,3.1-2.9,3.1c-1.2,0-2.2,0-2.9-1.1A0.42,0.42,0,0,0,451,37h-1.3a0.27,0.27,0,0,0-.3.3c0.7,1.9,2.3,2.8,4.8,2.8,3.2,0,4.6-1.7,4.6-4.8s-1.6-5.1-4.6-5.1a4.29,4.29,0,0,0-3,.9v-5.3h6.2a0.22,0.22,0,0,0,.2-0.2v-1.3a0.22,0.22,0,0,0-.2-0.2h-7.8a0.22,0.22,0,0,0-.2.2v8.1a0.43,0.43,0,0,0,.3.3,17.36,17.36,0,0,0,1.8.1,2.12,2.12,0,0,0,.7-0.3m-12.1-4.4c1.5-.6,2.2-0.8,3.2-1.2v12.8a0.22,0.22,0,0,0,.2.2h1.3a0.22,0.22,0,0,0,.2-0.2V24.17c0-.1,0-0.2-0.1-0.2a0.31,0.31,0,0,0-.2.1,33.78,33.78,0,0,1-4.6,2.4c-0.2.1-.3,0.1-0.3,0.3v1.1a0.53,0.53,0,0,0,.3.2m-8.6,12c4.5,0,5.5-3.6,5.5-8.1s-1.1-8.1-5.5-8.1S426,27.47,426,32s1,8.1,5.5,8.1m0-1.7c-3.5,0-3.8-2.9-3.8-6.4s0.3-6.4,3.8-6.4,3.8,2.9,3.8,6.4-0.3,6.4-3.8,6.4m-16.7-12a8.89,8.89,0,0,1,3.1-.8c2.8,0,2.9,2,2.9,2.6-0.1,4.4-7.1,6.9-7.1,11v0.5a0.22,0.22,0,0,0,.2.2h8.5a0.22,0.22,0,0,0,.2-0.2v-1.3a0.22,0.22,0,0,0-.2-0.2h-6.5c2.9-4,6.7-5.7,6.7-10.1,0-2.8-1-4.3-4.6-4.3a8.25,8.25,0,0,0-3.9,1,0.25,0.25,0,0,0,0,.4l0.4,1a0.38,0.38,0,0,0,.2.2h0.1m-11.7,7.5a0.22,0.22,0,0,0-.2.2v1.3a0.22,0.22,0,0,0,.2.2h7.1a0.22,0.22,0,0,0,.2-0.2v-1.3a0.22,0.22,0,0,0-.2-0.2h-7.1Zm-9.8,6.2c4.5,0,5.5-3.6,5.5-8.1s-1.1-8.1-5.5-8.1-5.5,3.6-5.5,8.1,1,8.1,5.5,8.1m0-1.7c-3.5,0-3.8-2.9-3.8-6.4s0.3-6.4,3.8-6.4,3.8,2.9,3.8,6.4-0.3,6.4-3.8,6.4m-14.7-10.3c1.5-.6,2.2-0.8,3.2-1.2v12.8a0.22,0.22,0,0,0,.2.2h1.3a0.22,0.22,0,0,0,.2-0.2V24.17c0-.1,0-0.2-0.1-0.2a0.31,0.31,0,0,0-.2.1,33.78,33.78,0,0,1-4.6,2.4c-0.2.1-.3,0.1-0.3,0.3v1.1a0.53,0.53,0,0,0,.3.2m-8.6,12c4.5,0,5.5-3.6,5.5-8.1s-1.1-8.1-5.5-8.1-5.5,3.6-5.5,8.1,1,8.1,5.5,8.1m0-1.7c-3.5,0-3.8-2.9-3.8-6.4s0.3-6.4,3.8-6.4,3.8,2.9,3.8,6.4-0.3,6.4-3.8,6.4m-16.7-12a8.89,8.89,0,0,1,3.1-.8c2.8,0,2.9,2,2.9,2.6-0.1,4.4-7.1,6.9-7.1,11v0.5a0.22,0.22,0,0,0,.2.2h8.5a0.22,0.22,0,0,0,.2-0.2v-1.3a0.22,0.22,0,0,0-.2-0.2h-6.5c2.9-4,6.7-5.7,6.7-10.1,0-2.8-1-4.3-4.6-4.3a8.25,8.25,0,0,0-3.9,1,0.25,0.25,0,0,0,0,.4l0.4,1a0.38,0.38,0,0,0,.2.2h0.1m-13.2,15.5a0.53,0.53,0,0,0,.3-0.2l1.1-2.3a2.27,2.27,0,0,0,.1-0.4,1.1,1.1,0,0,0-2.2,0,1.79,1.79,0,0,0,.6,1l-0.6,1.8a0.22,0.22,0,0,0,.2.2h0.5v-0.1Zm-11-11.2a9.63,9.63,0,0,1,2-.3c2.2,0,2.6,1,2.6,4a3.5,3.5,0,0,0-3.1-1.5c-2.2,0-3.2,1.3-3.2,3.6,0,3.3,2.5,3.5,3.6,3.5,0.2,0,2.1,0,2.8-1.4l0.1,1a0.42,0.42,0,0,0,.4.3h0.9a0.27,0.27,0,0,0,.3-0.3v-6.1c0-3-.9-5-4.1-5a6.78,6.78,0,0,0-2.9.5,0.2,0.2,0,0,0-.1.2,4.88,4.88,0,0,0,.4,1.1,0.22,0.22,0,0,0,.2.2c-0.1.2-.1,0.2,0.1,0.2m2.1,7.7c-1.8,0-2.1-.8-2.1-1.8s0.2-1.9,2-1.9a3,3,0,0,1,2.6,1.5V37c-1.2,1.2-1.9,1.4-2.5,1.4m-5.8-9.6a0.22,0.22,0,0,0-.2-0.2h-0.5a2.6,2.6,0,0,0-2.6,1.4l-0.2-1.1a0.22,0.22,0,0,0-.2-0.2h-1.1a0.22,0.22,0,0,0-.2.2v10.8a0.27,0.27,0,0,0,.3.3h1.1a0.54,0.54,0,0,0,.4-0.3v-5.3c0-2,.1-4,2.5-4h0.6a0.22,0.22,0,0,0,.2-0.2v-1.4h-0.1Zm-8.7,6.5A0.27,0.27,0,0,0,317,35v-0.6c0-3.1-.8-5.7-4.6-5.7s-4.5,2.6-4.5,5.7c0,3.9,1.8,5.7,5,5.7a3.89,3.89,0,0,0,2.9-.9c0.1,0,.1-0.1.1-0.2a0.2,0.2,0,0,0-.1-0.2l-0.4-.9a0.37,0.37,0,0,0-.3-0.1h-0.2a4.87,4.87,0,0,1-2.2.6c-1.4,0-3.2-.4-3.2-3.2h7.2v0.1Zm-7-1.7c0-2.4.9-3.2,2.6-3.2s2.9,0.8,2.9,3.2h-5.5Zm-5.3-9.3a0.22,0.22,0,0,0-.2-0.2h-1.3a0.22,0.22,0,0,0-.2.2v15.4a0.22,0.22,0,0,0,.2.2h1.3a0.22,0.22,0,0,0,.2-0.2V24.27Zm-10,6.1c2.2,0,3,1.8,3,4s-0.8,4-3,4-3-1.8-3-4,0.8-4,3-4m0,9.7c3.1,0,4.8-2.6,4.8-5.7s-1.7-5.7-4.8-5.7-4.8,2.6-4.8,5.7,1.7,5.7,4.8,5.7m-16.9-.4a0.22,0.22,0,0,0,.2.2H279a0.22,0.22,0,0,0,.2-0.2v-5.2c0-2.1.5-4.1,2.8-4.1,2.5,0,2.5,1.5,2.5,3.6v5.7a0.22,0.22,0,0,0,.2.2H286a0.22,0.22,0,0,0,.2-0.2v-5.4c0-3.2-.3-5.7-4-5.7a3.24,3.24,0,0,0-3.1,1.5v-5.9a0.22,0.22,0,0,0-.2-0.2h-1.3a0.22,0.22,0,0,0-.2.2v15.5h0.1Zm-3.3-.4c0.1,0,.1-0.1.1-0.2a0.2,0.2,0,0,0-.1-0.2l-0.4-.9a0.37,0.37,0,0,0-.3-0.1h-0.2a5.38,5.38,0,0,1-2.2.4c-2.2,0-3.1-1.8-3.1-4s0.8-4,3.1-4a3.68,3.68,0,0,1,2.2.6h0.2c0.1,0,.1-0.1.2-0.1l0.5-1v-0.2a0.2,0.2,0,0,0-.1-0.2,4.06,4.06,0,0,0-3-1c-3.1,0-4.8,2.6-4.8,5.7s1.7,5.7,4.8,5.7a3.62,3.62,0,0,0,3.1-.5m-19.4,1.1c0,2.2-.2,3.4-3,3.4a5.3,5.3,0,0,1-2.5-.6c-0.1,0-.1-0.1-0.2-0.1a0.1,0.1,0,0,0-.1.1l-0.4,1v0.1c0,0.1,0,.2.1,0.2a5.82,5.82,0,0,0,3.7.9c2.3,0,4.3-1,4.3-4.9V29a0.27,0.27,0,0,0-.3-0.3h-0.9a0.42,0.42,0,0,0-.4.3L255,30a4.13,4.13,0,0,0-3.2-1.4c-3.1,0-4.4,2.4-4.4,5.7s0.8,5.8,4.3,5.8a3.67,3.67,0,0,0,3.2-1.3v1.6h-0.1Zm-2.9-2c-2.2,0-2.8-1.1-2.8-4.1,0-2.5.7-3.9,2.8-3.9s2.9,1.4,2.9,3.9-0.8,4.1-2.9,4.1m-9.6,1.3a0.22,0.22,0,0,0,.2.2h1.3a0.22,0.22,0,0,0,.2-0.2v-5.4c0-3.2-.3-5.7-4-5.7a3.18,3.18,0,0,0-3.2,1.8l-0.1-1.4a0.42,0.42,0,0,0-.4-0.3h-0.9a0.27,0.27,0,0,0-.3.3v10.7a0.22,0.22,0,0,0,.2.2h1.3a0.22,0.22,0,0,0,.2-0.2v-5.2c0-2.1.5-4.1,2.8-4.1,2.5,0,2.5,1.5,2.5,3.6v5.7h0.2ZM229,26.27a1.22,1.22,0,0,0,1.2,1.2,1.2,1.2,0,1,0,0-2.4,1.16,1.16,0,0,0-1.2,1.2m2.1,2.7a0.22,0.22,0,0,0-.2-0.2h-1.3a0.22,0.22,0,0,0-.2.2v10.7a0.22,0.22,0,0,0,.2.2h1.3a0.22,0.22,0,0,0,.2-0.2V29Zm-5.4,9.4h-0.5c-1.7,0-1.7-.8-1.7-4v-4.1h2.1a0.22,0.22,0,0,0,.2-0.2v-1.3a0.22,0.22,0,0,0-.2-0.2h-2.1v-4.3a0.22,0.22,0,0,0-.2-0.2H222a0.22,0.22,0,0,0-.2.2v4.3h-1.9a0.22,0.22,0,0,0-.2.2v1.3a0.22,0.22,0,0,0,.2.2h1.9v5c0,3.6.7,4.8,2.9,4.8A4.89,4.89,0,0,0,226,40c0.1,0,.1-0.1.1-0.2v-0.1l-0.2-1.1a0.22,0.22,0,0,0-.2-0.2m-8.2-9.6a0.22,0.22,0,0,0-.2-0.2h-0.5a2.6,2.6,0,0,0-2.6,1.4l-0.2-1.1a0.22,0.22,0,0,0-.2-0.2h-1.1a0.22,0.22,0,0,0-.2.2v10.8a0.27,0.27,0,0,0,.3.3h1.1a0.54,0.54,0,0,0,.4-0.3v-5.3c0-2,.1-4,2.5-4h0.6a0.22,0.22,0,0,0,.2-0.2v-1.4h-0.1Zm-13.3,1.6c2.2,0,3,1.8,3,4s-0.8,4-3,4-3-1.8-3-4,0.8-4,3-4m0,9.7c3.1,0,4.8-2.6,4.8-5.7s-1.7-5.7-4.8-5.7-4.8,2.6-4.8,5.7,1.7,5.7,4.8,5.7M192,38.37c-2.1,0-2.9-1.5-2.9-4.1s0.8-3.9,2.9-3.9,2.8,1.5,2.8,3.9c0.1,3-.6,4.1-2.8,4.1m-4.6,6.1a0.27,0.27,0,0,0,.3.3h1.1a0.54,0.54,0,0,0,.4-0.3v-5.7a3.34,3.34,0,0,0,3.2,1.3c3.6,0,4.3-2.6,4.3-5.8s-1.3-5.7-4.4-5.7a4,4,0,0,0-3.2,1.4L189,29a0.42,0.42,0,0,0-.4-0.3h-0.9a0.27,0.27,0,0,0-.3.3v15.5h0Zm-3.7-9.2A0.27,0.27,0,0,0,184,35v-0.6c0-3.1-.8-5.7-4.6-5.7s-4.5,2.6-4.5,5.7c0,3.9,1.8,5.7,5,5.7a3.89,3.89,0,0,0,2.9-.9c0.1,0,.1-0.1.1-0.2a0.2,0.2,0,0,0-.1-0.2l-0.4-.9a0.37,0.37,0,0,0-.3-0.1h-0.2a4.87,4.87,0,0,1-2.2.6c-1.4,0-3.2-.4-3.2-3.2h7.2v0.1Zm-7-1.7c0-2.4.9-3.2,2.6-3.2s2.9,0.8,2.9,3.2h-5.5Zm-3.9-4.8a0.22,0.22,0,0,0-.2-0.2h-0.5a2.6,2.6,0,0,0-2.6,1.4l-0.2-1.1a0.22,0.22,0,0,0-.2-0.2H168a0.22,0.22,0,0,0-.2.2v10.8a0.27,0.27,0,0,0,.3.3h1.1a0.54,0.54,0,0,0,.4-0.3v-5.3c0-2,.1-4,2.5-4h0.6a0.22,0.22,0,0,0,.2-0.2v-1.4h-0.1Zm-22.1,10.5a5.75,5.75,0,0,0,3.1.8c2.1,0,3.9-.8,3.9-3.2,0-3.2-5.4-3.4-5.4-5.2,0-.8.1-1.3,1.9-1.3a6.15,6.15,0,0,1,1.9.2,0.34,0.34,0,0,0,.3-0.2l0.3-1.1a0.34,0.34,0,0,0-.2-0.3,10,10,0,0,0-2.4-.4c-2.6,0-3.6,1-3.6,2.9,0,4,5.4,3.1,5.4,5.7,0,1.1-1.4,1.2-2.2,1.2a4.4,4.4,0,0,1-2.5-.6,0.25,0.25,0,0,0-.3.2l-0.4.9v0.2a0.38,0.38,0,0,0,.2.2m-3.2-4a0.27,0.27,0,0,0,.3-0.3v-0.6c0-3.1-.8-5.7-4.6-5.7s-4.5,2.6-4.5,5.7c0,3.9,1.8,5.7,5,5.7a3.89,3.89,0,0,0,2.9-.9c0.1,0,.1-0.1.1-0.2a0.2,0.2,0,0,0-.1-0.2l-0.4-.9a0.37,0.37,0,0,0-.3-0.1h-0.2a4.87,4.87,0,0,1-2.2.6c-1.4,0-3.2-.4-3.2-3.2h7.2v0.1Zm-7-1.7c0-2.4.9-3.2,2.6-3.2s2.9,0.8,2.9,3.2h-5.5Zm-7.3-7.3a1.22,1.22,0,0,0,1.2,1.2,1.2,1.2,0,1,0,0-2.4,1.22,1.22,0,0,0-1.2,1.2m2.1,2.7a0.22,0.22,0,0,0-.2-0.2h-1.3a0.22,0.22,0,0,0-.2.2v10.7a0.22,0.22,0,0,0,.2.2h1.3a0.22,0.22,0,0,0,.2-0.2V29Zm-4.6-.2a0.22,0.22,0,0,0-.2-0.2H130a2.6,2.6,0,0,0-2.6,1.4l-0.2-1.1a0.22,0.22,0,0,0-.2-0.2h-1.1a0.22,0.22,0,0,0-.2.2v10.8a0.27,0.27,0,0,0,.3.3h1.1a0.54,0.54,0,0,0,.4-0.3v-5.3c0-2,.1-4,2.5-4h0.6a0.22,0.22,0,0,0,.2-0.2v-1.4h-0.1Zm-8.6,9.6h-0.5c-1.7,0-1.7-.8-1.7-4v-4.1H122a0.22,0.22,0,0,0,.2-0.2v-1.3a0.22,0.22,0,0,0-.2-0.2h-2.1v-4.3a0.22,0.22,0,0,0-.2-0.2h-1.3a0.22,0.22,0,0,0-.2.2v4.3h-1.9a0.22,0.22,0,0,0-.2.2v1.3a0.22,0.22,0,0,0,.2.2h1.9v5c0,3.6.7,4.8,2.9,4.8a4.89,4.89,0,0,0,1.3-.1c0.1,0,.1-0.1.1-0.2v-0.1l-0.2-1.1a0.22,0.22,0,0,0-.2-0.2m-10.5,1.3a0.22,0.22,0,0,0,.2.2h1.3a0.22,0.22,0,0,0,.2-0.2v-5.4c0-3.2-.3-5.7-4-5.7a3.18,3.18,0,0,0-3.2,1.8L106,29a0.42,0.42,0,0,0-.4-0.3h-0.9a0.27,0.27,0,0,0-.3.3v10.7a0.22,0.22,0,0,0,.2.2h1.3a0.22,0.22,0,0,0,.2-0.2v-5.2c0-2.1.5-4.1,2.8-4.1,2.5,0,2.5,1.5,2.5,3.6v5.7h0.2ZM93.33,29a0.22,0.22,0,0,0-.2-0.2h-1.3a0.22,0.22,0,0,0-.2.2v5.4c0,3.2.3,5.7,4,5.7a3.09,3.09,0,0,0,3.2-1.7l0.1,1.3a0.42,0.42,0,0,0,.4.3h0.9a0.27,0.27,0,0,0,.3-0.3V29a0.22,0.22,0,0,0-.2-0.2H99a0.22,0.22,0,0,0-.2.2v5.3c0,2.1-.5,4.1-2.8,4.1-2.5,0-2.5-1.5-2.5-3.6V29h-0.2Zm-9.8,1.4c2.2,0,3,1.8,3,4s-0.8,4-3,4-3-1.8-3-4,0.8-4,3-4m0,9.7c3.1,0,4.8-2.6,4.8-5.7s-1.7-5.7-4.8-5.7-4.8,2.6-4.8,5.7,1.7,5.7,4.8,5.7m-7.4-2.3v-0.1a0.31,0.31,0,0,0-.1-0.2l-0.5-.7a0.37,0.37,0,0,0-.3-0.1,0.2,0.2,0,0,0-.2.1,6.39,6.39,0,0,1-4.5,1.7c-3.5,0-5.1-2.9-5.1-6.4s1.6-6.4,5.1-6.4a5.7,5.7,0,0,1,3.6,1.1,0.2,0.2,0,0,0,.2.1c0.1,0,.2-0.1.3-0.1l0.7-.7a0.31,0.31,0,0,0,.1-0.2l-0.1-.1a7.49,7.49,0,0,0-4.8-1.8c-4.5,0-6.9,3.6-6.9,8.1s2.4,8.1,6.9,8.1c2.5-.1,4.2-0.7,5.6-2.4" transform="translate(-2.33 -3.97)"/><rect class="cls-3" y="100" width="40" height="50"/><rect class="cls-4" y="50" width="40" height="50"/><rect class="cls-5" width="40" height="50"/></svg>