<svg id="Layer_1" data-name="Layer 1" xmlns="http://www.w3.org/2000/svg" viewBox="0 0 625 267.3"><defs><style>.cls-1{opacity:0.8;}.cls-2{fill:#6f6f6e;}.cls-3{fill:none;stroke:#fff;}.cls-4{fill:#fff;}.cls-5{isolation:isolate;}.cls-6{fill:#ba5409;}.cls-7{fill:#ffc700;}.cls-8{fill:#e18b05;}</style></defs><title>key2</title><g class="cls-1"><path class="cls-2" d="M7.17,5.17V238h611.5c0.5,0,12.5-.2,12.5-12.5V17.67c0-.5-0.2-12.5-12.5-12.5H7.17Z" transform="translate(-6.67 -4.67)"/></g><path class="cls-3" d="M7.17,5.17V238h611.5c0.5,0,12.5-.2,12.5-12.5V17.67c0-.5-0.2-12.5-12.5-12.5H7.17Z" transform="translate(-6.67 -4.67)"/><path class="cls-4" d="M232.67,199.27a16,16,0,0,1,1.9-.7v7.5c0,0.1,0,.1.1,0.1h0.8c0.1,0,.1,0,0.1-0.1v-9c0-.1,0-0.1-0.1-0.1h-0.1a13.84,13.84,0,0,1-2.7,1.4,0.16,0.16,0,0,0-.2.2v0.6a0.35,0.35,0,0,0,.2.1m-5.1,0a16,16,0,0,1,1.9-.7v7.5c0,0.1,0,.1.1,0.1h0.8c0.1,0,.1,0,0.1-0.1v-9c0-.1,0-0.1-0.1-0.1h-0.1a13.84,13.84,0,0,1-2.7,1.4,0.16,0.16,0,0,0-.2.2v0.6c0.1,0,.1.1,0.2,0.1m-1.8,5.1a0.22,0.22,0,0,0-.2-0.2h-0.5a2.6,2.6,0,0,0-2.6,1.4l-0.2-1.1a0.22,0.22,0,0,0-.2-0.2H221a0.22,0.22,0,0,0-.2.2v10.7a0.27,0.27,0,0,0,.3.3h1.1a0.54,0.54,0,0,0,.4-0.3v-5.3c0-2,.1-4,2.5-4h0.6a0.22,0.22,0,0,0,.2-0.2v-1.3h-0.1Zm-8.7,6.4a0.27,0.27,0,0,0,.3-0.3v-0.6c0-3.1-.8-5.7-4.6-5.7s-4.5,2.6-4.5,5.7c0,3.9,1.8,5.7,5,5.7a3.89,3.89,0,0,0,2.9-.9c0.1,0,.1-0.1.1-0.2a0.2,0.2,0,0,0-.1-0.2l-0.4-.9a0.37,0.37,0,0,0-.3-0.1h-0.2a4.87,4.87,0,0,1-2.2.6c-1.4,0-3.2-.4-3.2-3.2h7.2v0.1Zm-7-1.6c0-2.4.9-3.2,2.6-3.2s2.9,0.8,2.9,3.2h-5.5Zm-8.4,6.4a0.31,0.31,0,0,0,.2-0.1l4.6-11a0.27,0.27,0,0,0-.3-0.3h-1.3a0.54,0.54,0,0,0-.4.3l-2.8,6.8-2.8-6.8a0.54,0.54,0,0,0-.4-0.3h-1.3a0.27,0.27,0,0,0-.3.3l4.6,11a0.2,0.2,0,0,0,.2.1m-6.9-4.8a0.27,0.27,0,0,0,.3-0.3v-0.6c0-3.1-.8-5.7-4.6-5.7s-4.5,2.6-4.5,5.7c0,3.9,1.8,5.7,5,5.7a3.89,3.89,0,0,0,2.9-.9c0.1,0,.1-0.1.1-0.2a0.2,0.2,0,0,0-.1-0.2l-0.4-.9a0.37,0.37,0,0,0-.3-0.1H193a4.87,4.87,0,0,1-2.2.6c-1.4,0-3.2-.4-3.2-3.2h7.2v0.1Zm-7-1.6c0-2.4.9-3.2,2.6-3.2s2.9,0.8,2.9,3.2h-5.5Zm-10-5a0.22,0.22,0,0,0-.2.2v1.3a0.22,0.22,0,0,0,.2.2h1.9v9.4a0.22,0.22,0,0,0,.2.2h1.3a0.22,0.22,0,0,0,.2-0.2v-9.4h2.1a0.22,0.22,0,0,0,.2-0.2v-1.3a0.22,0.22,0,0,0-.2-0.2h-2.1v-0.3c0-3.1,0-4.1,1.3-4.1a7.76,7.76,0,0,1,.9.1c0.1,0,.2,0,0.2-0.1,0.3-1,.4-1.1.4-1.2l-0.2-.2a4.92,4.92,0,0,0-1.7-.4c-2.4,0-2.7,2.5-2.7,5.2v1h-1.8Zm-14.4,9.8c-2.2,0-2.8-1.1-2.8-4.1,0-2.5.7-3.9,2.8-3.9s2.9,1.4,2.9,3.9-0.8,4.1-2.9,4.1m3.1,1.3a0.42,0.42,0,0,0,.4.3h0.9a0.27,0.27,0,0,0,.3-0.3v-15.4a0.22,0.22,0,0,0-.2-0.2h-1.3a0.22,0.22,0,0,0-.2.2v5.6a4.22,4.22,0,0,0-3.1-1.3c-3.1,0-4.4,2.4-4.4,5.7s0.8,5.8,4.3,5.8a3.47,3.47,0,0,0,3.3-1.7v1.3Zm-13.2-13.5a1.22,1.22,0,0,0,1.2,1.2,1.2,1.2,0,1,0,0-2.4,1.22,1.22,0,0,0-1.2,1.2m2.1,2.7a0.22,0.22,0,0,0-.2-0.2h-1.3a0.22,0.22,0,0,0-.2.2v10.8a0.22,0.22,0,0,0,.2.2h1.3a0.22,0.22,0,0,0,.2-0.2v-10.8Zm-9.9,1.4c2.2,0,3,1.8,3,4s-0.8,4-3,4-3-1.8-3-4,0.7-4,3-4m0,9.7c3.1,0,4.8-2.6,4.8-5.7s-1.7-5.7-4.8-5.7-4.8,2.6-4.8,5.7,1.6,5.7,4.8,5.7m-16.9-.3a0.22,0.22,0,0,0,.2.2h1.3a0.22,0.22,0,0,0,.2-0.2v-5.2c0-2.1.5-4.1,2.8-4.1,2.5,0,2.5,1.5,2.5,3.6v5.7a0.22,0.22,0,0,0,.2.2h1.3a0.22,0.22,0,0,0,.2-0.2v-5.4c0-3.2-.3-5.7-4-5.7a3.24,3.24,0,0,0-3.1,1.5v-5.9a0.22,0.22,0,0,0-.2-0.2h-1.3a0.22,0.22,0,0,0-.2.2v15.5h0.1Zm-8.1-1.3c-2.1,0-2.9-1.5-2.9-4.1s0.8-3.9,2.9-3.9,2.8,1.5,2.8,3.9c0,3-.7,4.1-2.8,4.1m-4.7,6a0.27,0.27,0,0,0,.3.3h1.1a0.54,0.54,0,0,0,.4-0.3v-5.7a3.34,3.34,0,0,0,3.2,1.3c3.6,0,4.3-2.6,4.3-5.8s-1.3-5.7-4.4-5.7a4,4,0,0,0-3.2,1.4l-0.1-1a0.42,0.42,0,0,0-.4-0.3h-0.9a0.27,0.27,0,0,0-.3.3V220Zm-11.1,0a0.27,0.27,0,0,0,.3.3h1.2a0.54,0.54,0,0,0,.4-0.3l6.3-15.4a0.27,0.27,0,0,0-.3-0.3h-1.2a0.54,0.54,0,0,0-.4.3l-2.6,6.4-2.5-6.4a0.54,0.54,0,0,0-.4-0.3h-1.2a0.27,0.27,0,0,0-.3.3l3.4,8.7Zm-3.6-6h-0.5c-1.7,0-1.7-.8-1.7-4v-4.1H101a0.22,0.22,0,0,0,.2-0.2v-1.3a0.22,0.22,0,0,0-.2-0.2h-2.1v-4.3a0.22,0.22,0,0,0-.2-0.2h-1.3a0.22,0.22,0,0,0-.2.2v4.3h-1.9a0.22,0.22,0,0,0-.2.2v1.3a0.22,0.22,0,0,0,.2.2h1.9v5c0,3.6.7,4.8,2.9,4.8a4.89,4.89,0,0,0,1.3-.1c0.1,0,.1-0.1.1-0.2v-0.1l-0.2-1.1a0.16,0.16,0,0,0-.2-0.2m-20.5-9.8a0.22,0.22,0,0,0-.2.2v1.3a0.22,0.22,0,0,0,.2.2h1.9v9.4a0.22,0.22,0,0,0,.2.2H84a0.22,0.22,0,0,0,.2-0.2v-9.4h2.1a0.22,0.22,0,0,0,.2-0.2v-1.3a0.22,0.22,0,0,0-.2-0.2h-2.1v-0.3c0-3.1,0-4.1,1.3-4.1a7.76,7.76,0,0,1,.9.1c0.1,0,.2,0,0.2-0.1,0.3-1,.4-1.1.4-1.2l-0.2-.2a4.92,4.92,0,0,0-1.7-.4c-2.4,0-2.7,2.5-2.7,5.2v1h-1.8Zm-7,1.7c2.2,0,3,1.8,3,4s-0.8,4-3,4-3-1.8-3-4,0.8-4,3-4m0,9.7c3.1,0,4.8-2.6,4.8-5.7s-1.7-5.7-4.8-5.7-4.8,2.6-4.8,5.7,1.7,5.7,4.8,5.7" transform="translate(-6.67 -4.67)"/><path class="cls-4" d="M476.57,181.87l4.8-5.3a0.27,0.27,0,0,0-.3-0.3h-1.6a0.68,0.68,0,0,0-.5.3l-4.2,4.7v-9.4a0.22,0.22,0,0,0-.2-0.2h-1.3a0.22,0.22,0,0,0-.2.2v15.5a0.22,0.22,0,0,0,.2.2h1.3a0.22,0.22,0,0,0,.2-0.2v-4.8l4.3,4.8a0.68,0.68,0,0,0,.5.3h1.2a0.6,0.6,0,0,0,.6-0.3Zm-13.8,4.9a5.75,5.75,0,0,0,3.1.8c2.1,0,3.9-.8,3.9-3.2,0-3.2-5.4-3.4-5.4-5.2,0-.8.1-1.3,1.9-1.3a6.15,6.15,0,0,1,1.9.2,0.34,0.34,0,0,0,.3-0.2l0.3-1.1a0.34,0.34,0,0,0-.2-0.3,10,10,0,0,0-2.4-.4c-2.6,0-3.6,1-3.6,2.9,0,4,5.4,3.1,5.4,5.7,0,1.1-1.4,1.2-2.2,1.2a4.4,4.4,0,0,1-2.5-.6,0.25,0.25,0,0,0-.3.2l-0.4.9v0.2a0.38,0.38,0,0,0,.2.2m-5.7-13a1.22,1.22,0,0,0,1.2,1.2,1.2,1.2,0,1,0,0-2.4,1.22,1.22,0,0,0-1.2,1.2m2.1,2.7a0.22,0.22,0,0,0-.2-0.2h-1.3a0.22,0.22,0,0,0-.2.2v10.8a0.22,0.22,0,0,0,.2.2H459a0.22,0.22,0,0,0,.2-0.2v-10.8Zm-4.6-.1a0.22,0.22,0,0,0-.2-0.2h-0.5a2.6,2.6,0,0,0-2.6,1.4l-0.2-1.1a0.22,0.22,0,0,0-.2-0.2h-1.1a0.22,0.22,0,0,0-.2.2v10.7a0.27,0.27,0,0,0,.3.3H451a0.54,0.54,0,0,0,.4-0.3v-5.3c0-2,.1-4,2.5-4h0.6a0.22,0.22,0,0,0,.2-0.2v-1.3h-0.1Zm-24.5,10.9a0.22,0.22,0,0,0,.2.2h1.3a0.22,0.22,0,0,0,.2-0.2v-5.2c0-2.1.5-4.1,2.8-4.1,2.5,0,2.5,1.5,2.5,3.6v5.7a0.22,0.22,0,0,0,.2.2h1.3a0.22,0.22,0,0,0,.2-0.2v-5.4c0-3.2-.3-5.7-4-5.7a3.24,3.24,0,0,0-3.1,1.5v-5.9a0.22,0.22,0,0,0-.2-0.2h-1.3a0.22,0.22,0,0,0-.2.2v15.5h0.1Zm-5.9.6c0,2.2-.2,3.4-3,3.4a5.3,5.3,0,0,1-2.5-.6c-0.1,0-.1-0.1-0.2-0.1a0.1,0.1,0,0,0-.1.1l-0.4,1v0.1c0,0.1,0,.2.1,0.2a5.82,5.82,0,0,0,3.7.9c2.3,0,4.3-1,4.3-4.9v-11.5a0.27,0.27,0,0,0-.3-0.3h-0.9a0.42,0.42,0,0,0-.4.3l-0.1,1a4.13,4.13,0,0,0-3.2-1.4c-3.1,0-4.4,2.4-4.4,5.7s0.8,5.8,4.3,5.8a3.67,3.67,0,0,0,3.2-1.3v1.6h-0.1Zm-2.9-1.9c-2.2,0-2.8-1.1-2.8-4.1,0-2.5.7-3.9,2.8-3.9s2.9,1.4,2.9,3.9-0.8,4.1-2.9,4.1m-10.1-12.2a1.22,1.22,0,0,0,1.2,1.2,1.2,1.2,0,1,0,0-2.4,1.29,1.29,0,0,0-1.2,1.2m2.1,2.7a0.22,0.22,0,0,0-.2-0.2h-1.3a0.22,0.22,0,0,0-.2.2v10.8a0.22,0.22,0,0,0,.2.2h1.3a0.22,0.22,0,0,0,.2-0.2v-10.8Zm-14.6,10.8a0.22,0.22,0,0,0,.2.2h1.3a0.22,0.22,0,0,0,.2-0.2v-5.2c0-2.1.5-4.1,2.8-4.1,2.5,0,2.5,1.5,2.5,3.6v5.7a0.22,0.22,0,0,0,.2.2h1.3a0.22,0.22,0,0,0,.2-0.2v-5.4c0-3.2-.3-5.7-4-5.7a3.24,3.24,0,0,0-3.1,1.5v-5.9a0.22,0.22,0,0,0-.2-0.2h-1.3a0.22,0.22,0,0,0-.2.2v15.5h0.1Zm-14.7-9.4c2.2,0,3,1.8,3,4s-0.8,4-3,4-3-1.8-3-4,0.8-4,3-4m0,9.7c3.1,0,4.8-2.6,4.8-5.7s-1.7-5.7-4.8-5.7-4.8,2.6-4.8,5.7,1.7,5.7,4.8,5.7m-7.3-1.6h-0.5c-1.7,0-1.7-.8-1.7-4v-4.1h2.1a0.22,0.22,0,0,0,.2-0.2v-1.3a0.22,0.22,0,0,0-.2-0.2h-2.1v-4.3a0.22,0.22,0,0,0-.2-0.2H373a0.22,0.22,0,0,0-.2.2v4.3h-1.9a0.22,0.22,0,0,0-.2.2v1.3a0.22,0.22,0,0,0,.2.2h1.9v5c0,3.6.7,4.8,2.9,4.8a4.89,4.89,0,0,0,1.3-.1c0.1,0,.1-0.1.1-0.2v-0.1l-0.2-1.1a0.16,0.16,0,0,0-.2-0.2m-14.9-3.2a0.27,0.27,0,0,0,.3-0.3v-0.6c0-3.1-.8-5.7-4.6-5.7s-4.5,2.6-4.5,5.7c0,3.9,1.8,5.7,5,5.7a3.89,3.89,0,0,0,2.9-.9c0.1,0,.1-0.1.1-0.2a0.2,0.2,0,0,0-.1-0.2l-0.4-.9a0.37,0.37,0,0,0-.3-0.1H360a4.87,4.87,0,0,1-2.2.6c-1.4,0-3.2-.4-3.2-3.2h7.2v0.1Zm-7-1.6c0-2.4.9-3.2,2.6-3.2s2.9,0.8,2.9,3.2h-5.5Zm-4.5,4.8h-0.5c-1.7,0-1.7-.8-1.7-4v-4.1h2.1a0.22,0.22,0,0,0,.2-0.2v-1.3a0.22,0.22,0,0,0-.2-0.2h-2.1v-4.3a0.22,0.22,0,0,0-.2-0.2h-1.3a0.22,0.22,0,0,0-.2.2v4.3h-1.9a0.22,0.22,0,0,0-.2.2v1.3a0.22,0.22,0,0,0,.2.2h1.9v5c0,3.6.7,4.8,2.9,4.8a4.89,4.89,0,0,0,1.3-.1c0.1,0,.1-0.1.1-0.2v-0.1l-0.2-1.1a0.16,0.16,0,0,0-.2-0.2m-15.1-7.8a9.63,9.63,0,0,1,2-.3c2.2,0,2.6,1,2.6,4a3.5,3.5,0,0,0-3.1-1.5c-2.2,0-3.2,1.3-3.2,3.6,0,3.3,2.5,3.5,3.6,3.5,0.2,0,2.1,0,2.8-1.4l0.1,1a0.42,0.42,0,0,0,.4.3h0.9a0.27,0.27,0,0,0,.3-0.3V181c0-3-.9-5-4.1-5a6.78,6.78,0,0,0-2.9.5,0.2,0.2,0,0,0-.1.2,4.88,4.88,0,0,0,.4,1.1,0.22,0.22,0,0,0,.2.2c0,0.3,0,.2.1,0.2m2.1,7.8c-1.8,0-2.1-.8-2.1-1.8s0.2-1.9,2-1.9a3,3,0,0,1,2.6,1.5v0.8c-1.1,1.1-1.8,1.4-2.5,1.4m-5.7-9.6a0.22,0.22,0,0,0-.2-0.2h-0.5a2.6,2.6,0,0,0-2.6,1.4l-0.2-1.1a0.22,0.22,0,0,0-.2-0.2h-1.2a0.22,0.22,0,0,0-.2.2v10.7a0.27,0.27,0,0,0,.3.3h1.1a0.54,0.54,0,0,0,.4-0.3v-5.3c0-2,.1-4,2.5-4h0.6a0.22,0.22,0,0,0,.2-0.2v-1.3Zm-8.8,6.4a0.27,0.27,0,0,0,.3-0.3v-0.6c0-3.1-.8-5.7-4.6-5.7s-4.5,2.6-4.5,5.7c0,3.9,1.8,5.7,5,5.7a3.89,3.89,0,0,0,2.9-.9c0.1,0,.1-0.1.1-0.2a0.2,0.2,0,0,0-.1-0.2l-0.4-.9a0.37,0.37,0,0,0-.3-0.1H321a4.87,4.87,0,0,1-2.2.6c-1.4,0-3.2-.4-3.2-3.2h7.2v0.1Zm-7-1.6c0-2.4.9-3.2,2.6-3.2s2.9,0.8,2.9,3.2h-5.5Zm-10,4.8c-2.2,0-2.8-1.1-2.8-4.1,0-2.5.7-3.9,2.8-3.9s2.9,1.4,2.9,3.9-0.7,4.1-2.9,4.1m3.2,1.3a0.42,0.42,0,0,0,.4.3h0.9a0.27,0.27,0,0,0,.3-0.3v-15.4a0.22,0.22,0,0,0-.2-0.2h-1.3a0.22,0.22,0,0,0-.2.2v5.6a4.22,4.22,0,0,0-3.1-1.3c-3.1,0-4.4,2.4-4.4,5.7s0.8,5.8,4.3,5.8A3.47,3.47,0,0,0,309,186v1.3Zm-15.3-9.4c2.2,0,3,1.8,3,4s-0.8,4-3,4-3-1.8-3-4,0.8-4,3-4m0,9.7c3.1,0,4.8-2.6,4.8-5.7s-1.7-5.7-4.8-5.7-4.8,2.6-4.8,5.7,1.6,5.7,4.8,5.7m-19.3-11a0.42,0.42,0,0,0-.4-0.3h-0.9a0.27,0.27,0,0,0-.3.3v10.7a0.22,0.22,0,0,0,.2.2h1.3a0.22,0.22,0,0,0,.2-0.2V182c0-2.1.2-4,2.1-4,1.7,0,1.7,1.8,1.7,3.9v5.5a0.22,0.22,0,0,0,.2.2h1.3a0.22,0.22,0,0,0,.2-0.2v-6.9c0.2-1.5.6-2.5,2-2.5,1.7,0,1.7,1.1,1.7,3.4v6a0.22,0.22,0,0,0,.2.2h1.3a0.22,0.22,0,0,0,.2-0.2v-6.5c0-2.5-.7-4.6-3.2-4.6a3.07,3.07,0,0,0-2.9,1.6c-1-1.5-1.7-1.6-2.4-1.6a2.63,2.63,0,0,0-2.5,1.6v-1.3Zm-14.2,11.3c0,2.2-.2,3.4-3,3.4a5.3,5.3,0,0,1-2.5-.6c-0.1,0-.1-0.1-0.2-0.1a0.1,0.1,0,0,0-.1.1l-0.4,1v0.1c0,0.1,0,.2.1,0.2a5.82,5.82,0,0,0,3.7.9c2.3,0,4.3-1,4.3-4.9v-11.5a0.27,0.27,0,0,0-.3-0.3h-0.9a0.42,0.42,0,0,0-.4.3l-0.1,1a4.13,4.13,0,0,0-3.2-1.4c-3.1,0-4.4,2.4-4.4,5.7s0.8,5.8,4.3,5.8a3.67,3.67,0,0,0,3.2-1.3v1.6h-0.1Zm-2.9-1.9c-2.2,0-2.8-1.1-2.8-4.1,0-2.5.7-3.9,2.8-3.9s2.9,1.4,2.9,3.9-0.8,4.1-2.9,4.1m-9.6,1.3a0.22,0.22,0,0,0,.2.2h1.3a0.22,0.22,0,0,0,.2-0.2v-5.4c0-3.2-.3-5.7-4-5.7a3.18,3.18,0,0,0-3.2,1.8l-0.1-1.4a0.42,0.42,0,0,0-.4-0.3h-0.9a0.27,0.27,0,0,0-.3.3v10.7a0.22,0.22,0,0,0,.2.2H242a0.22,0.22,0,0,0,.2-0.2v-5.2c0-2.1.5-4.1,2.8-4.1,2.5,0,2.5,1.5,2.5,3.6v5.7h0.2Zm-13.3-13.5a1.22,1.22,0,0,0,1.2,1.2,1.2,1.2,0,1,0,0-2.4,1.22,1.22,0,0,0-1.2,1.2m2.1,2.7a0.22,0.22,0,0,0-.2-0.2H235a0.22,0.22,0,0,0-.2.2v10.8a0.22,0.22,0,0,0,.2.2h1.3a0.22,0.22,0,0,0,.2-0.2v-10.8Zm-5.4,9.5h-0.5c-1.7,0-1.7-.8-1.7-4v-4.1H231a0.22,0.22,0,0,0,.2-0.2v-1.3a0.22,0.22,0,0,0-.2-0.2h-2.1v-4.3a0.22,0.22,0,0,0-.2-0.2h-1.3a0.22,0.22,0,0,0-.2.2v4.3h-1.9a0.22,0.22,0,0,0-.2.2v1.3a0.22,0.22,0,0,0,.2.2h1.9v5c0,3.6.7,4.8,2.9,4.8a4.89,4.89,0,0,0,1.3-.1c0.1,0,.1-0.1.1-0.2v-0.1l-0.2-1.1a0.16,0.16,0,0,0-.2-0.2m-8.2-9.6a0.22,0.22,0,0,0-.2-0.2h-0.5a2.6,2.6,0,0,0-2.6,1.4l-0.2-1.1a0.22,0.22,0,0,0-.2-0.2h-1.1a0.22,0.22,0,0,0-.2.2v10.7a0.27,0.27,0,0,0,.3.3h1.1a0.54,0.54,0,0,0,.4-0.3v-5.3c0-2,.1-4,2.5-4h0.6a0.22,0.22,0,0,0,.2-0.2v-1.3h-0.1Zm-13.3,1.5c2.2,0,3,1.8,3,4s-0.8,4-3,4-3-1.8-3-4,0.8-4,3-4m0,9.7c3.1,0,4.8-2.6,4.8-5.7s-1.7-5.7-4.8-5.7-4.8,2.6-4.8,5.7,1.7,5.7,4.8,5.7m-12.2-1.6c-2.1,0-2.9-1.5-2.9-4.1s0.8-3.9,2.9-3.9,2.8,1.5,2.8,3.9c0.1,3-.6,4.1-2.8,4.1m-4.6,6a0.27,0.27,0,0,0,.3.3h1.1a0.54,0.54,0,0,0,.4-0.3v-5.7a3.34,3.34,0,0,0,3.2,1.3c3.6,0,4.3-2.6,4.3-5.8s-1.3-5.7-4.4-5.7a4,4,0,0,0-3.2,1.4l-0.1-1a0.42,0.42,0,0,0-.4-0.3h-0.9a0.27,0.27,0,0,0-.3.3V192h0Zm-3.7-9.2a0.27,0.27,0,0,0,.3-0.3v-0.6c0-3.1-.8-5.7-4.6-5.7s-4.5,2.6-4.5,5.7c0,3.9,1.8,5.7,5,5.7a3.89,3.89,0,0,0,2.9-.9c0.1,0,.1-0.1.1-0.2a0.2,0.2,0,0,0-.1-0.2l-0.4-.9a0.37,0.37,0,0,0-.3-0.1h-0.2a4.87,4.87,0,0,1-2.2.6c-1.4,0-3.2-.4-3.2-3.2h7.2v0.1Zm-7-1.6c0-2.4.9-3.2,2.6-3.2s2.9,0.8,2.9,3.2h-5.5Zm-3.9-4.8a0.22,0.22,0,0,0-.2-0.2h-0.5a2.6,2.6,0,0,0-2.6,1.4l-0.2-1.1a0.22,0.22,0,0,0-.2-0.2h-1.1a0.22,0.22,0,0,0-.2.2v10.7a0.27,0.27,0,0,0,.3.3h1.1a0.54,0.54,0,0,0,.4-0.3v-5.3c0-2,.1-4,2.5-4h0.6a0.22,0.22,0,0,0,.2-0.2v-1.3h-0.1Zm-22.1,10.4a5.75,5.75,0,0,0,3.1.8c2.1,0,3.9-.8,3.9-3.2,0-3.2-5.4-3.4-5.4-5.2,0-.8.1-1.3,1.9-1.3a6.15,6.15,0,0,1,1.9.2,0.34,0.34,0,0,0,.3-0.2l0.3-1.1a0.34,0.34,0,0,0-.2-0.3,10,10,0,0,0-2.4-.4c-2.6,0-3.6,1-3.6,2.9,0,4,5.4,3.1,5.4,5.7,0,1.1-1.4,1.2-2.2,1.2a4.4,4.4,0,0,1-2.5-.6,0.25,0.25,0,0,0-.3.2l-0.4.9v0.2a0.38,0.38,0,0,0,.2.2m-3.2-4a0.27,0.27,0,0,0,.3-0.3v-0.6c0-3.1-.8-5.7-4.6-5.7s-4.5,2.6-4.5,5.7c0,3.9,1.8,5.7,5,5.7a3.89,3.89,0,0,0,2.9-.9c0.1,0,.1-0.1.1-0.2a0.2,0.2,0,0,0-.1-0.2l-0.4-.9a0.37,0.37,0,0,0-.3-0.1h-0.2a4.87,4.87,0,0,1-2.2.6c-1.4,0-3.2-.4-3.2-3.2h7.2v0.1Zm-7-1.6c0-2.4.9-3.2,2.6-3.2s2.9,0.8,2.9,3.2h-5.5Zm-7.3-7.4a1.22,1.22,0,0,0,1.2,1.2,1.2,1.2,0,1,0,0-2.4,1.29,1.29,0,0,0-1.2,1.2m2.1,2.7a0.22,0.22,0,0,0-.2-0.2h-1.3a0.22,0.22,0,0,0-.2.2v10.8a0.22,0.22,0,0,0,.2.2h1.3a0.22,0.22,0,0,0,.2-0.2v-10.8Zm-4.6-.1a0.22,0.22,0,0,0-.2-0.2h-0.5a2.6,2.6,0,0,0-2.6,1.4l-0.2-1.1a0.22,0.22,0,0,0-.2-0.2h-1.1a0.22,0.22,0,0,0-.2.2v10.7a0.27,0.27,0,0,0,.3.3h1.1a0.54,0.54,0,0,0,.4-0.3v-5.3c0-2,.1-4,2.5-4H136a0.22,0.22,0,0,0,.2-0.2v-1.3h-0.1Zm-8.6,9.6H127c-1.7,0-1.7-.8-1.7-4v-4.1h2.1a0.22,0.22,0,0,0,.2-0.2v-1.3a0.22,0.22,0,0,0-.2-0.2h-2.1v-4.3a0.22,0.22,0,0,0-.2-0.2h-1.3a0.22,0.22,0,0,0-.2.2v4.3h-1.9a0.22,0.22,0,0,0-.2.2v1.3a0.22,0.22,0,0,0,.2.2h1.9v5c0,3.6.7,4.8,2.9,4.8a4.89,4.89,0,0,0,1.3-.1c0.1,0,.1-0.1.1-0.2v-0.1l-0.2-1.1a0.16,0.16,0,0,0-.2-0.2m-10.5,1.3a0.22,0.22,0,0,0,.2.2h1.3a0.22,0.22,0,0,0,.2-0.2v-5.4c0-3.2-.3-5.7-4-5.7a3.18,3.18,0,0,0-3.2,1.8l-0.1-1.4a0.42,0.42,0,0,0-.4-0.3h-0.9a0.27,0.27,0,0,0-.3.3v10.7a0.22,0.22,0,0,0,.2.2h1.3a0.22,0.22,0,0,0,.2-0.2v-5.2c0-2.1.5-4.1,2.8-4.1,2.5,0,2.5,1.5,2.5,3.6v5.7H117Zm-18.3-10.8a0.22,0.22,0,0,0-.2-0.2h-1.3a0.22,0.22,0,0,0-.2.2v5.4c0,3.2.3,5.7,4,5.7a3.09,3.09,0,0,0,3.2-1.7l0.1,1.3a0.42,0.42,0,0,0,.4.3h0.9a0.27,0.27,0,0,0,.3-0.3v-10.7a0.22,0.22,0,0,0-.2-0.2h-1.3a0.22,0.22,0,0,0-.2.2v5.3c0,2.1-.5,4.1-2.8,4.1-2.5,0-2.5-1.5-2.5-3.6v-5.8h-0.2Zm-9.8,1.4c2.2,0,3,1.8,3,4s-0.8,4-3,4-3-1.8-3-4,0.8-4,3-4m0,9.7c3.1,0,4.8-2.6,4.8-5.7s-1.7-5.7-4.8-5.7-4.8,2.6-4.8,5.7,1.7,5.7,4.8,5.7m-7.4-2.2v-0.1a0.31,0.31,0,0,0-.1-0.2l-0.5-.7a0.37,0.37,0,0,0-.3-0.1,0.2,0.2,0,0,0-.2.1,6.39,6.39,0,0,1-4.5,1.7c-3.5,0-5.1-2.9-5.1-6.4s1.6-6.4,5.1-6.4a5.7,5.7,0,0,1,3.6,1.1,0.2,0.2,0,0,0,.2.1c0.1,0,.2-0.1.3-0.1l0.7-.7a0.31,0.31,0,0,0,.1-0.2l-0.1-.1a7.49,7.49,0,0,0-4.8-1.8c-4.5,0-6.9,3.6-6.9,8.1s2.4,8.1,6.9,8.1c2.5-.2,4.2-0.8,5.6-2.4" transform="translate(-6.67 -4.67)"/><path class="cls-4" d="M467.17,127.27a16,16,0,0,1,1.9-.7v7.5c0,0.1,0,.1.1,0.1H470c0.1,0,.1,0,0.1-0.1v-9c0-.1,0-0.1-0.1-0.1h-0.1a13.83,13.83,0,0,1-2.7,1.4,0.16,0.16,0,0,0-.2.2v0.6a0.35,0.35,0,0,1,.2.1m-5,0a16,16,0,0,1,1.9-.7v7.5c0,0.1,0,.1.1,0.1H465c0.1,0,.1,0,0.1-0.1v-9c0-.1,0-0.1-0.1-0.1h-0.1a13.83,13.83,0,0,1-2.7,1.4,0.16,0.16,0,0,0-.2.2v0.6c0.1,0,.1.1,0.2,0.1m-2.3,8a0.2,0.2,0,0,0,.2-0.1l0.7-1.4,0.1-.2a0.58,0.58,0,0,0-.6-0.6,0.65,0.65,0,0,0-.6.6,1.06,1.06,0,0,0,.4.6l-0.3,1c0,0.1,0,.1.1,0.1h0Zm-5.7-1.1c2.6,0,3.2-2.1,3.2-4.7s-0.6-4.7-3.2-4.7-3.2,2.1-3.2,4.7,0.6,4.7,3.2,4.7m0-.9c-2,0-2.2-1.7-2.2-3.7s0.2-3.7,2.2-3.7,2.2,1.7,2.2,3.7-0.2,3.7-2.2,3.7m-8.6-6a16,16,0,0,1,1.9-.7v7.5c0,0.1,0,.1.1,0.1h0.8c0.1,0,.1,0,0.1-0.1v-9c0-.1,0-0.1-0.1-0.1h-0.1a13.83,13.83,0,0,1-2.7,1.4,0.16,0.16,0,0,0-.2.2v0.6c0.1,0,.1.1,0.2,0.1m-1.8,5.1a0.22,0.22,0,0,0-.2-0.2h-0.5a2.6,2.6,0,0,0-2.6,1.4l-0.2-1.1a0.22,0.22,0,0,0-.2-0.2H439a0.22,0.22,0,0,0-.2.2v10.7a0.27,0.27,0,0,0,.3.3h1.1a0.54,0.54,0,0,0,.4-0.3v-5.3c0-2,.1-4,2.5-4h0.6a0.22,0.22,0,0,0,.2-0.2v-1.3h-0.1Zm-8.7,6.4a0.27,0.27,0,0,0,.3-0.3v-0.6c0-3.1-.8-5.7-4.6-5.7s-4.5,2.6-4.5,5.7c0,3.9,1.8,5.7,5,5.7a3.89,3.89,0,0,0,2.9-.9c0.1,0,.1-0.1.1-0.2a0.2,0.2,0,0,0-.1-0.2l-0.4-.9a0.37,0.37,0,0,0-.3-0.1h-0.2a4.87,4.87,0,0,1-2.2.6c-1.4,0-3.2-.4-3.2-3.2h7.2v0.1Zm-7-1.6c0-2.4.9-3.2,2.6-3.2s2.9,0.8,2.9,3.2h-5.5Zm-8.5,6.4a0.31,0.31,0,0,0,.2-0.1l4.6-11a0.27,0.27,0,0,0-.3-0.3h-1.3a0.54,0.54,0,0,0-.4.3l-2.8,6.8-2.8-6.8a0.54,0.54,0,0,0-.4-0.3h-1.3a0.27,0.27,0,0,0-.3.3l4.6,11,0.2,0.1m-6.8-4.8a0.27,0.27,0,0,0,.3-0.3v-0.6c0-3.1-.8-5.7-4.6-5.7s-4.5,2.6-4.5,5.7c0,3.9,1.8,5.7,5,5.7a3.89,3.89,0,0,0,2.9-.9c0.1,0,.1-0.1.1-0.2a0.2,0.2,0,0,0-.1-0.2l-0.4-.9a0.37,0.37,0,0,0-.3-0.1H411a4.87,4.87,0,0,1-2.2.6c-1.4,0-3.2-.4-3.2-3.2h7.2v0.1Zm-7-1.6c0-2.4.9-3.2,2.6-3.2s2.9,0.8,2.9,3.2h-5.5Zm-10.1-5a0.22,0.22,0,0,0-.2.2v1.3a0.22,0.22,0,0,0,.2.2h1.9v9.4a0.22,0.22,0,0,0,.2.2h1.3a0.22,0.22,0,0,0,.2-0.2v-9.4h2.1a0.22,0.22,0,0,0,.2-0.2v-1.3a0.22,0.22,0,0,0-.2-0.2h-2.1v-0.3c0-3.1,0-4.1,1.3-4.1a7.76,7.76,0,0,1,.9.1c0.1,0,.2,0,0.2-0.1,0.3-1,.4-1.1.4-1.2l-0.2-.2a4.92,4.92,0,0,0-1.7-.4c-2.4,0-2.7,2.5-2.7,5.2v1h-1.8Zm-14.3,9.8c-2.2,0-2.8-1.1-2.8-4.1,0-2.5.7-3.9,2.8-3.9s2.9,1.4,2.9,3.9-0.8,4.1-2.9,4.1m3.1,1.3a0.42,0.42,0,0,0,.4.3h0.9a0.27,0.27,0,0,0,.3-0.3v-15.4a0.22,0.22,0,0,0-.2-0.2h-1.3a0.22,0.22,0,0,0-.2.2v5.6a4.22,4.22,0,0,0-3.1-1.3c-3.1,0-4.4,2.4-4.4,5.7s0.8,5.8,4.3,5.8a3.47,3.47,0,0,0,3.3-1.7v1.3Zm-13.2-13.5a1.22,1.22,0,0,0,1.2,1.2,1.2,1.2,0,1,0,0-2.4,1.22,1.22,0,0,0-1.2,1.2m2.1,2.7a0.22,0.22,0,0,0-.2-0.2h-1.3a0.22,0.22,0,0,0-.2.2v10.8a0.22,0.22,0,0,0,.2.2h1.3a0.22,0.22,0,0,0,.2-0.2v-10.8Zm-10,1.4c2.2,0,3,1.8,3,4s-0.8,4-3,4-3-1.8-3-4,0.8-4,3-4m0,9.7c3.1,0,4.8-2.6,4.8-5.7s-1.7-5.7-4.8-5.7-4.8,2.6-4.8,5.7,1.7,5.7,4.8,5.7m-16.9-.3a0.22,0.22,0,0,0,.2.2H348a0.22,0.22,0,0,0,.2-0.2v-5.2c0-2.1.5-4.1,2.8-4.1,2.5,0,2.5,1.5,2.5,3.6v5.7a0.22,0.22,0,0,0,.2.2H355a0.22,0.22,0,0,0,.2-0.2v-5.4c0-3.2-.3-5.7-4-5.7a3.24,3.24,0,0,0-3.1,1.5v-5.9a0.22,0.22,0,0,0-.2-0.2h-1.3a0.22,0.22,0,0,0-.2.2v15.5h0.1Zm-8-1.3c-2.1,0-2.9-1.5-2.9-4.1s0.8-3.9,2.9-3.9,2.8,1.5,2.8,3.9c0,3-.7,4.1-2.8,4.1m-4.7,6a0.27,0.27,0,0,0,.3.3h1.1a0.54,0.54,0,0,0,.4-0.3v-5.7a3.34,3.34,0,0,0,3.2,1.3c3.6,0,4.3-2.6,4.3-5.8s-1.3-5.7-4.4-5.7a4,4,0,0,0-3.2,1.4l-0.1-1a0.42,0.42,0,0,0-.4-0.3h-0.9a0.27,0.27,0,0,0-.3.3V148Zm-11.1,0a0.27,0.27,0,0,0,.3.3h1.2a0.54,0.54,0,0,0,.4-0.3l6.3-15.4a0.27,0.27,0,0,0-.3-0.3h-1.2a0.54,0.54,0,0,0-.4.3l-2.6,6.4-2.5-6.4a0.54,0.54,0,0,0-.4-0.3h-1.2a0.27,0.27,0,0,0-.3.3l3.4,8.7Zm-3.6-6h-0.5c-1.7,0-1.7-.8-1.7-4v-4.1H319a0.22,0.22,0,0,0,.2-0.2v-1.3a0.22,0.22,0,0,0-.2-0.2h-2.1v-4.3a0.22,0.22,0,0,0-.2-0.2h-1.3a0.22,0.22,0,0,0-.2.2v4.3h-1.9a0.22,0.22,0,0,0-.2.2v1.3a0.22,0.22,0,0,0,.2.2h1.9v5c0,3.6.7,4.8,2.9,4.8a4.89,4.89,0,0,0,1.3-.1c0.1,0,.1-0.1.1-0.2v-0.1l-0.2-1.1c-0.1-.2-0.1-0.2-0.2-0.2m-20.5-9.8a0.22,0.22,0,0,0-.2.2v1.3a0.22,0.22,0,0,0,.2.2h1.9v9.4a0.22,0.22,0,0,0,.2.2H302a0.22,0.22,0,0,0,.2-0.2v-9.4h2.1a0.22,0.22,0,0,0,.2-0.2v-1.3a0.22,0.22,0,0,0-.2-0.2h-2.1v-0.3c0-3.1,0-4.1,1.3-4.1a7.76,7.76,0,0,1,.9.1c0.1,0,.2,0,0.2-0.1,0.3-1,.4-1.1.4-1.2l-0.2-.2a4.92,4.92,0,0,0-1.7-.4c-2.4,0-2.7,2.5-2.7,5.2v1h-1.8Zm-7,1.7c2.2,0,3,1.8,3,4s-0.8,4-3,4-3-1.8-3-4,0.8-4,3-4m0,9.7c3.1,0,4.8-2.6,4.8-5.7s-1.7-5.7-4.8-5.7-4.8,2.6-4.8,5.7,1.7,5.7,4.8,5.7m-18.1-5.7,4.8-5.3a0.27,0.27,0,0,0-.3-0.3h-1.6a0.68,0.68,0,0,0-.5.3l-4.2,4.7v-9.4a0.22,0.22,0,0,0-.2-0.2h-1.3a0.22,0.22,0,0,0-.2.2v15.5a0.22,0.22,0,0,0,.2.2h1.3a0.22,0.22,0,0,0,.2-0.2v-4.8l4.3,4.8a0.68,0.68,0,0,0,.5.3h1.2a0.6,0.6,0,0,0,.6-0.3Zm-13.8,4.9a5.75,5.75,0,0,0,3.1.8c2.1,0,3.9-.8,3.9-3.2,0-3.2-5.4-3.4-5.4-5.2,0-.8.1-1.3,1.9-1.3a6.15,6.15,0,0,1,1.9.2,0.34,0.34,0,0,0,.3-0.2l0.3-1.1a0.34,0.34,0,0,0-.2-0.3,10,10,0,0,0-2.4-.4c-2.6,0-3.6,1-3.6,2.9,0,4,5.4,3.1,5.4,5.7,0,1.1-1.4,1.2-2.2,1.2a4.4,4.4,0,0,1-2.5-.6,0.25,0.25,0,0,0-.3.2l-0.4.9v0.2a0.38,0.38,0,0,0,.2.2m-5.7-13a1.22,1.22,0,0,0,1.2,1.2,1.2,1.2,0,1,0,0-2.4,1.29,1.29,0,0,0-1.2,1.2m2.1,2.7a0.22,0.22,0,0,0-.2-0.2h-1.3a0.22,0.22,0,0,0-.2.2v10.8a0.22,0.22,0,0,0,.2.2h1.3a0.22,0.22,0,0,0,.2-0.2v-10.8Zm-4.6-.1a0.22,0.22,0,0,0-.2-0.2h-0.5a2.6,2.6,0,0,0-2.6,1.4l-0.2-1.1a0.22,0.22,0,0,0-.2-0.2h-1.1a0.22,0.22,0,0,0-.2.2v10.7a0.27,0.27,0,0,0,.3.3h1.1a0.54,0.54,0,0,0,.4-0.3v-5.3c0-2,.1-4,2.5-4h0.6a0.22,0.22,0,0,0,.2-0.2v-1.3h-0.1ZM227,143.27a0.22,0.22,0,0,0,.2.2h1.3a0.22,0.22,0,0,0,.2-0.2v-5.2c0-2.1.5-4.1,2.8-4.1,2.5,0,2.5,1.5,2.5,3.6v5.7a0.22,0.22,0,0,0,.2.2h1.3a0.22,0.22,0,0,0,.2-0.2v-5.4c0-3.2-.3-5.7-4-5.7a3.24,3.24,0,0,0-3.1,1.5v-5.9a0.22,0.22,0,0,0-.2-0.2h-1.3a0.22,0.22,0,0,0-.2.2v15.5H227Zm-5.9.6c0,2.2-.2,3.4-3,3.4a5.3,5.3,0,0,1-2.5-.6c-0.1,0-.1-0.1-0.2-0.1a0.1,0.1,0,0,0-.1.1l-0.4,1v0.1c0,0.1,0,.2.1,0.2a5.82,5.82,0,0,0,3.7.9c2.3,0,4.3-1,4.3-4.9v-11.5a0.27,0.27,0,0,0-.3-0.3h-1a0.42,0.42,0,0,0-.4.3l-0.1,1a4.13,4.13,0,0,0-3.2-1.4c-3.1,0-4.4,2.4-4.4,5.7s0.8,5.8,4.3,5.8a3.67,3.67,0,0,0,3.2-1.3v1.6h0Zm-2.9-1.9c-2.2,0-2.8-1.1-2.8-4.1,0-2.5.7-3.9,2.8-3.9s2.9,1.4,2.9,3.9-0.8,4.1-2.9,4.1m-10.1-12.2a1.22,1.22,0,0,0,1.2,1.2,1.2,1.2,0,1,0,0-2.4,1.29,1.29,0,0,0-1.2,1.2m2.1,2.7a0.22,0.22,0,0,0-.2-0.2h-1.3a0.22,0.22,0,0,0-.2.2v10.8a0.22,0.22,0,0,0,.2.2H210a0.22,0.22,0,0,0,.2-0.2v-10.8Zm-14.5,10.8a0.22,0.22,0,0,0,.2.2h1.3a0.22,0.22,0,0,0,.2-0.2v-5.2c0-2.1.5-4.1,2.8-4.1,2.5,0,2.5,1.5,2.5,3.6v5.7a0.22,0.22,0,0,0,.2.2h1.3a0.22,0.22,0,0,0,.2-0.2v-5.4c0-3.2-.3-5.7-4-5.7a3.24,3.24,0,0,0-3.1,1.5v-5.9a0.22,0.22,0,0,0-.2-0.2h-1.3a0.22,0.22,0,0,0-.2.2v15.5h0.1Zm-14.7-9.4c2.2,0,3,1.8,3,4s-0.8,4-3,4-3-1.8-3-4,0.7-4,3-4m0,9.7c3.1,0,4.8-2.6,4.8-5.7s-1.7-5.7-4.8-5.7-4.8,2.6-4.8,5.7,1.6,5.7,4.8,5.7m-7.4-1.6h-0.5c-1.7,0-1.7-.8-1.7-4v-4.1h2.1a0.22,0.22,0,0,0,.2-0.2v-1.3a0.22,0.22,0,0,0-.2-0.2h-2.1v-4.3a0.22,0.22,0,0,0-.2-0.2h-1.3a0.22,0.22,0,0,0-.2.2v4.3h-1.9a0.22,0.22,0,0,0-.2.2v1.3a0.22,0.22,0,0,0,.2.2h1.9v5c0,3.6.7,4.8,2.9,4.8a4.89,4.89,0,0,0,1.3-.1c0.1,0,.1-0.1.1-0.2v-0.1l-0.2-1.1c0-.2,0-0.2-0.2-0.2m-14.9-3.2a0.27,0.27,0,0,0,.3-0.3v-0.6c0-3.1-.8-5.7-4.6-5.7s-4.5,2.6-4.5,5.7c0,3.9,1.8,5.7,5,5.7a3.89,3.89,0,0,0,2.9-.9c0.1,0,.1-0.1.1-0.2a0.2,0.2,0,0,0-.1-0.2l-0.4-.9a0.37,0.37,0,0,0-.3-0.1h-0.2a4.87,4.87,0,0,1-2.2.6c-1.4,0-3.2-.4-3.2-3.2h7.2v0.1Zm-7-1.6c0-2.4.9-3.2,2.6-3.2s2.9,0.8,2.9,3.2h-5.5Zm-4.5,4.8h-0.5c-1.7,0-1.7-.8-1.7-4v-4.1h2.1a0.22,0.22,0,0,0,.2-0.2v-1.3a0.22,0.22,0,0,0-.2-0.2H145v-4.3a0.22,0.22,0,0,0-.2-0.2h-1.3a0.22,0.22,0,0,0-.2.2v4.3h-1.9a0.22,0.22,0,0,0-.2.2v1.3a0.22,0.22,0,0,0,.2.2h1.9v5c0,3.6.7,4.8,2.9,4.8a4.89,4.89,0,0,0,1.3-.1c0.1,0,.1-0.1.1-0.2v-0.1l-0.2-1.1a0.16,0.16,0,0,0-.2-0.2m-15.1-7.8a9.63,9.63,0,0,1,2-.3c2.2,0,2.6,1,2.6,4a3.5,3.5,0,0,0-3.1-1.5c-2.2,0-3.2,1.3-3.2,3.6,0,3.3,2.5,3.5,3.6,3.5,0.2,0,2.1,0,2.8-1.4l0.1,1a0.42,0.42,0,0,0,.4.3h0.9a0.27,0.27,0,0,0,.3-0.3V137c0-3-.9-5-4.1-5a6.78,6.78,0,0,0-2.9.5,0.2,0.2,0,0,0-.1.2,4.88,4.88,0,0,0,.4,1.1,0.22,0.22,0,0,0,.2.2c0,0.3,0,.2.1,0.2m2.1,7.8c-1.8,0-2.1-.8-2.1-1.8s0.2-1.9,2-1.9a3,3,0,0,1,2.6,1.5v0.8c-1.1,1.1-1.8,1.4-2.5,1.4m-5.7-9.6a0.22,0.22,0,0,0-.2-0.2h-0.6a2.6,2.6,0,0,0-2.6,1.4l-0.2-1.1a0.22,0.22,0,0,0-.2-0.2h-1a0.22,0.22,0,0,0-.2.2v10.7a0.27,0.27,0,0,0,.3.3h1.1a0.54,0.54,0,0,0,.4-0.3v-5.3c0-2,.1-4,2.5-4h0.6a0.22,0.22,0,0,0,.2-0.2v-1.3h-0.1Zm-8.7,6.4a0.27,0.27,0,0,0,.3-0.3v-0.6c0-3.1-.8-5.7-4.6-5.7s-4.5,2.6-4.5,5.7c0,3.9,1.8,5.7,5,5.7a3.89,3.89,0,0,0,2.9-.9c0.1,0,.1-0.1.1-0.2a0.2,0.2,0,0,0-.1-0.2l-0.4-.9a0.37,0.37,0,0,0-.3-0.1H118a4.87,4.87,0,0,1-2.2.6c-1.4,0-3.2-.4-3.2-3.2h7.2v0.1Zm-7-1.6c0-2.4.9-3.2,2.6-3.2s2.9,0.8,2.9,3.2h-5.5Zm-10,4.8c-2.2,0-2.8-1.1-2.8-4.1,0-2.5.7-3.9,2.8-3.9s2.9,1.4,2.9,3.9-0.8,4.1-2.9,4.1m3.1,1.3a0.42,0.42,0,0,0,.4.3h0.9a0.27,0.27,0,0,0,.3-0.3v-15.4a0.22,0.22,0,0,0-.2-0.2H106a0.22,0.22,0,0,0-.2.2v5.6a4.22,4.22,0,0,0-3.1-1.3c-3.1,0-4.4,2.4-4.4,5.7s0.8,5.8,4.3,5.8a3.47,3.47,0,0,0,3.3-1.7v1.3Zm-15.3-9.4c2.2,0,3,1.8,3,4s-0.8,4-3,4-3-1.8-3-4,0.8-4,3-4m0,9.7c3.1,0,4.8-2.6,4.8-5.7s-1.7-5.7-4.8-5.7-4.8,2.6-4.8,5.7,1.7,5.7,4.8,5.7m-19.3-11a0.42,0.42,0,0,0-.4-0.3H70a0.27,0.27,0,0,0-.3.3v10.7a0.22,0.22,0,0,0,.2.2h1.3a0.22,0.22,0,0,0,.2-0.2V138c0-2.1.2-4,2.1-4,1.7,0,1.7,1.8,1.7,3.9v5.5a0.22,0.22,0,0,0,.2.2h1.3a0.22,0.22,0,0,0,.2-0.2v-6.9c0.2-1.5.6-2.5,2-2.5,1.7,0,1.7,1.1,1.7,3.4v6a0.22,0.22,0,0,0,.2.2h1.3a0.22,0.22,0,0,0,.2-0.2v-6.5c0-2.5-.7-4.6-3.2-4.6a3.07,3.07,0,0,0-2.9,1.6c-1-1.5-1.7-1.6-2.4-1.6a2.63,2.63,0,0,0-2.5,1.6v-1.3Z" transform="translate(-6.67 -4.67)"/><path class="cls-4" d="M416,114c-2.2,0-2.8-1.1-2.8-4.1,0-2.5.7-3.9,2.8-3.9s2.9,1.4,2.9,3.9-0.8,4.1-2.9,4.1m3.2,1.3a0.42,0.42,0,0,0,.4.3h0.9a0.27,0.27,0,0,0,.3-0.3V99.87a0.22,0.22,0,0,0-.2-0.2h-1.3a0.22,0.22,0,0,0-.2.2v5.6a4.22,4.22,0,0,0-3.1-1.3c-3.1,0-4.4,2.4-4.4,5.7s0.8,5.8,4.3,5.8a3.47,3.47,0,0,0,3.3-1.7v1.3Zm-12.9,0a0.22,0.22,0,0,0,.2.2h1.3a0.22,0.22,0,0,0,.2-0.2v-5.4c0-3.2-.3-5.7-4-5.7a3.18,3.18,0,0,0-3.2,1.8l-0.1-1.4a0.42,0.42,0,0,0-.4-0.3h-0.9a0.27,0.27,0,0,0-.3.3v10.7a0.22,0.22,0,0,0,.2.2h1.3a0.22,0.22,0,0,0,.2-0.2v-5.2c0-2.1.5-4.1,2.8-4.1,2.5,0,2.5,1.5,2.5,3.6v5.7h0.2Zm-17.4-9.1a9.63,9.63,0,0,1,2-.3c2.2,0,2.6,1,2.6,4a3.5,3.5,0,0,0-3.1-1.5c-2.2,0-3.2,1.3-3.2,3.6,0,3.3,2.5,3.5,3.6,3.5,0.2,0,2.1,0,2.8-1.4l0.1,1a0.42,0.42,0,0,0,.4.3H395a0.27,0.27,0,0,0,.3-0.3V109c0-3-.9-5-4.1-5a6.78,6.78,0,0,0-2.9.5,0.2,0.2,0,0,0-.1.2,4.88,4.88,0,0,0,.4,1.1,0.22,0.22,0,0,0,.2.2c0,0.3,0,.2.1,0.2M391,114c-1.8,0-2.1-.8-2.1-1.8s0.2-1.9,2-1.9a3,3,0,0,1,2.6,1.5v0.8c-1.2,1.1-1.9,1.4-2.5,1.4m-19-10.2,2.5,6.3h-5.1Zm0-4.3a0.31,0.31,0,0,0-.2.1l-6.4,15.7a0.27,0.27,0,0,0,.3.3h1.2a0.54,0.54,0,0,0,.4-0.3l1.4-3.4h6.5l1.3,3.4a0.54,0.54,0,0,0,.4.3h1.2a0.27,0.27,0,0,0,.3-0.3L372,99.57v-0.1m-22.3,15.3a5.75,5.75,0,0,0,3.1.8c2.1,0,3.9-.8,3.9-3.2,0-3.2-5.4-3.4-5.4-5.2,0-.8.1-1.3,1.9-1.3a6.15,6.15,0,0,1,1.9.2,0.34,0.34,0,0,0,.3-0.2l0.3-1.1a0.34,0.34,0,0,0-.2-0.3,10,10,0,0,0-2.4-.4c-2.6,0-3.6,1-3.6,2.9,0,4,5.4,3.1,5.4,5.7,0,1.1-1.4,1.2-2.2,1.2a4.4,4.4,0,0,1-2.5-.6,0.25,0.25,0,0,0-.3.2l-0.4.9v0.2l0.2,0.2m-5.7-13a1.22,1.22,0,0,0,1.2,1.2,1.2,1.2,0,1,0,0-2.4,1.29,1.29,0,0,0-1.2,1.2m2.1,2.7a0.22,0.22,0,0,0-.2-0.2h-1.3a0.22,0.22,0,0,0-.2.2v10.8a0.22,0.22,0,0,0,.2.2h1.3a0.22,0.22,0,0,0,.2-0.2v-10.8Zm-5.4,9.5h-0.5c-1.7,0-1.7-.8-1.7-4v-4.1h2.1a0.22,0.22,0,0,0,.2-0.2v-1.3a0.22,0.22,0,0,0-.2-0.2h-2.1v-4.3a0.22,0.22,0,0,0-.2-0.2H337a0.22,0.22,0,0,0-.2.2v4.3h-1.9a0.22,0.22,0,0,0-.2.2v1.3a0.22,0.22,0,0,0,.2.2h1.9v5c0,3.6.7,4.8,2.9,4.8a4.89,4.89,0,0,0,1.3-.1c0.1,0,.1-0.1.1-0.2v-0.1l-0.2-1.1c0-.2,0-0.2-0.2-0.2m-11.1-12.2a1.22,1.22,0,0,0,1.2,1.2,1.2,1.2,0,1,0,0-2.4,1.29,1.29,0,0,0-1.2,1.2m2.1,2.7a0.22,0.22,0,0,0-.2-0.2h-1.3a0.22,0.22,0,0,0-.2.2v10.8a0.22,0.22,0,0,0,.2.2h1.3a0.22,0.22,0,0,0,.2-0.2v-10.8Zm-5.4,9.5h-0.5c-1.7,0-1.7-.8-1.7-4v-4.1h2.1a0.22,0.22,0,0,0,.2-0.2v-1.3a0.22,0.22,0,0,0-.2-0.2h-2.1v-4.3a0.22,0.22,0,0,0-.2-0.2h-1.3a0.22,0.22,0,0,0-.2.2v4.3h-1.9a0.22,0.22,0,0,0-.2.2v1.3a0.22,0.22,0,0,0,.2.2h1.9v5c0,3.6.7,4.8,2.9,4.8a4.89,4.89,0,0,0,1.3-.1c0.1,0,.1-0.1.1-0.2v-0.1l-0.2-1.1c0-.2,0-0.2-0.2-0.2m-15-7.8a9.63,9.63,0,0,1,2-.3c2.2,0,2.6,1,2.6,4a3.5,3.5,0,0,0-3.1-1.5c-2.2,0-3.2,1.3-3.2,3.6,0,3.3,2.5,3.5,3.6,3.5,0.2,0,2.1,0,2.8-1.4l0.1,1a0.42,0.42,0,0,0,.4.3h0.9a0.27,0.27,0,0,0,.3-0.3V109c0-3-.9-5-4.1-5a6.78,6.78,0,0,0-2.9.5,0.2,0.2,0,0,0-.1.2,4.88,4.88,0,0,0,.4,1.1,0.22,0.22,0,0,0,.2.2c-0.1.3,0,.2,0.1,0.2m2.1,7.8c-1.8,0-2.1-.8-2.1-1.8s0.2-1.9,2-1.9a3,3,0,0,1,2.6,1.5v0.8c-1.2,1.1-1.9,1.4-2.5,1.4m-11.2,0c-2.1,0-2.9-1.5-2.9-4.1s0.8-3.9,2.9-3.9,2.8,1.5,2.8,3.9c0,3-.6,4.1-2.8,4.1m-4.7,6a0.27,0.27,0,0,0,.3.3h1.1a0.54,0.54,0,0,0,.4-0.3v-5.7a3.34,3.34,0,0,0,3.2,1.3c3.6,0,4.3-2.6,4.3-5.8s-1.3-5.7-4.4-5.7a4,4,0,0,0-3.2,1.4l-0.1-1a0.42,0.42,0,0,0-.4-0.3h-0.9a0.27,0.27,0,0,0-.3.3V120Zm-3.7-9.2a0.27,0.27,0,0,0,.3-0.3v-0.6c0-3.1-.8-5.7-4.6-5.7s-4.5,2.6-4.5,5.7c0,3.9,1.8,5.7,5,5.7a3.89,3.89,0,0,0,2.9-.9c0.1,0,.1-0.1.1-0.2a0.2,0.2,0,0,0-.1-0.2l-0.4-.9a0.37,0.37,0,0,0-.3-0.1H292a4.87,4.87,0,0,1-2.2.6c-1.4,0-3.2-.4-3.2-3.2h7.2v0.1Zm-7-1.6c0-2.4.9-3.2,2.6-3.2s2.9,0.8,2.9,3.2h-5.5Zm-13.9,6.1a0.22,0.22,0,0,0,.2.2h1.3a0.22,0.22,0,0,0,.2-0.2v-5.2c0-2.1.5-4.1,2.8-4.1,2.5,0,2.5,1.5,2.5,3.6v5.7a0.22,0.22,0,0,0,.2.2h1.3a0.22,0.22,0,0,0,.2-0.2v-5.4c0-3.2-.3-5.7-4-5.7a3.24,3.24,0,0,0-3.1,1.5v-5.9a0.22,0.22,0,0,0-.2-0.2H273a0.22,0.22,0,0,0-.2.2v15.5h0.1Zm-12.7.6c0,2.2-.2,3.4-3,3.4a5.3,5.3,0,0,1-2.5-.6c-0.1,0-.1-0.1-0.2-0.1a0.1,0.1,0,0,0-.1.1l-0.4,1v0.1c0,0.1,0,.2.1,0.2a5.82,5.82,0,0,0,3.7.9c2.3,0,4.3-1,4.3-4.9v-11.5a0.27,0.27,0,0,0-.3-0.3h-0.9a0.42,0.42,0,0,0-.4.3l-0.1,1a4.13,4.13,0,0,0-3.2-1.4c-3.1,0-4.4,2.4-4.4,5.7s0.8,5.8,4.3,5.8a3.67,3.67,0,0,0,3.2-1.3v1.6h-0.1Zm-2.9-1.9c-2.2,0-2.8-1.1-2.8-4.1,0-2.5.7-3.9,2.8-3.9s2.9,1.4,2.9,3.9-0.8,4.1-2.9,4.1m-9.6,1.3a0.22,0.22,0,0,0,.2.2h1.3a0.22,0.22,0,0,0,.2-0.2v-5.4c0-3.2-.3-5.7-4-5.7a3.18,3.18,0,0,0-3.2,1.8l-0.1-1.4a0.42,0.42,0,0,0-.4-0.3h-0.9a0.27,0.27,0,0,0-.3.3v10.7a0.22,0.22,0,0,0,.2.2H242a0.22,0.22,0,0,0,.2-0.2v-5.2c0-2.1.5-4.1,2.8-4.1,2.5,0,2.5,1.5,2.5,3.6v5.7h0.2Zm-13.3-13.5a1.22,1.22,0,0,0,1.2,1.2,1.2,1.2,0,1,0,0-2.4,1.22,1.22,0,0,0-1.2,1.2m2.1,2.7a0.22,0.22,0,0,0-.2-0.2H235a0.22,0.22,0,0,0-.2.2v10.8a0.22,0.22,0,0,0,.2.2h1.3a0.22,0.22,0,0,0,.2-0.2v-10.8Zm-5.4,9.5h-0.5c-1.7,0-1.7-.8-1.7-4v-4.1H231a0.22,0.22,0,0,0,.2-0.2v-1.3a0.22,0.22,0,0,0-.2-0.2h-2.1v-4.3a0.22,0.22,0,0,0-.2-0.2h-1.3a0.22,0.22,0,0,0-.2.2v4.3h-1.9a0.22,0.22,0,0,0-.2.2v1.3a0.22,0.22,0,0,0,.2.2h1.9v5c0,3.6.7,4.8,2.9,4.8a4.89,4.89,0,0,0,1.3-.1c0.1,0,.1-0.1.1-0.2v-0.1l-0.2-1.1a0.16,0.16,0,0,0-.2-0.2m-8.2-9.6a0.22,0.22,0,0,0-.2-0.2h-0.5a2.6,2.6,0,0,0-2.6,1.4l-0.2-1.1a0.22,0.22,0,0,0-.2-0.2h-1.1a0.22,0.22,0,0,0-.2.2v10.7a0.27,0.27,0,0,0,.3.3h1.1a0.54,0.54,0,0,0,.4-0.3v-5.3c0-2,.1-4,2.5-4h0.6a0.22,0.22,0,0,0,.2-0.2v-1.3h-0.1Zm-13.3,1.5c2.2,0,3,1.8,3,4s-0.8,4-3,4-3-1.8-3-4,0.8-4,3-4m0,9.7c3.1,0,4.8-2.6,4.8-5.7s-1.7-5.7-4.8-5.7-4.8,2.6-4.8,5.7,1.7,5.7,4.8,5.7m-12.2-1.6c-2.1,0-2.9-1.5-2.9-4.1s0.8-3.9,2.9-3.9,2.8,1.5,2.8,3.9c0.1,3-.6,4.1-2.8,4.1m-4.6,6a0.27,0.27,0,0,0,.3.3h1.1a0.54,0.54,0,0,0,.4-0.3v-5.7a3.34,3.34,0,0,0,3.2,1.3c3.6,0,4.3-2.6,4.3-5.8s-1.3-5.7-4.4-5.7a4,4,0,0,0-3.2,1.4l-0.1-1a0.42,0.42,0,0,0-.4-0.3h-0.9a0.27,0.27,0,0,0-.3.3V120h0Zm-3.7-9.2a0.27,0.27,0,0,0,.3-0.3v-0.6c0-3.1-.8-5.7-4.6-5.7s-4.5,2.6-4.5,5.7c0,3.9,1.8,5.7,5,5.7a3.89,3.89,0,0,0,2.9-.9c0.1,0,.1-0.1.1-0.2a0.2,0.2,0,0,0-.1-0.2l-0.4-.9a0.37,0.37,0,0,0-.3-0.1h-0.2a4.87,4.87,0,0,1-2.2.6c-1.4,0-3.2-.4-3.2-3.2h7.2v0.1Zm-7-1.6c0-2.4.9-3.2,2.6-3.2s2.9,0.8,2.9,3.2h-5.5Zm-3.9-4.8a0.22,0.22,0,0,0-.2-0.2h-0.5a2.6,2.6,0,0,0-2.6,1.4l-0.2-1.1a0.22,0.22,0,0,0-.2-0.2h-1.1a0.22,0.22,0,0,0-.2.2v10.7a0.27,0.27,0,0,0,.3.3h1.1a0.54,0.54,0,0,0,.4-0.3v-5.3c0-2,.1-4,2.5-4h0.6a0.22,0.22,0,0,0,.2-0.2v-1.3h-0.1Zm-22.1,10.4a5.75,5.75,0,0,0,3.1.8c2.1,0,3.9-.8,3.9-3.2,0-3.2-5.4-3.4-5.4-5.2,0-.8.1-1.3,1.9-1.3a6.15,6.15,0,0,1,1.9.2,0.34,0.34,0,0,0,.3-0.2l0.3-1.1a0.34,0.34,0,0,0-.2-0.3,10,10,0,0,0-2.4-.4c-2.6,0-3.6,1-3.6,2.9,0,4,5.4,3.1,5.4,5.7,0,1.1-1.4,1.2-2.2,1.2a4.4,4.4,0,0,1-2.5-.6,0.25,0.25,0,0,0-.3.2l-0.4.9v0.2a0.38,0.38,0,0,0,.2.2m-3.2-4a0.27,0.27,0,0,0,.3-0.3v-0.6c0-3.1-.8-5.7-4.6-5.7s-4.5,2.6-4.5,5.7c0,3.9,1.8,5.7,5,5.7a3.89,3.89,0,0,0,2.9-.9c0.1,0,.1-0.1.1-0.2a0.2,0.2,0,0,0-.1-0.2l-0.4-.9a0.37,0.37,0,0,0-.3-0.1h-0.2a4.87,4.87,0,0,1-2.2.6c-1.4,0-3.2-.4-3.2-3.2h7.2v0.1Zm-7-1.6c0-2.4.9-3.2,2.6-3.2s2.9,0.8,2.9,3.2h-5.5Zm-7.3-7.4a1.22,1.22,0,0,0,1.2,1.2,1.2,1.2,0,1,0,0-2.4,1.29,1.29,0,0,0-1.2,1.2m2.1,2.7a0.22,0.22,0,0,0-.2-0.2h-1.3a0.22,0.22,0,0,0-.2.2v10.8a0.22,0.22,0,0,0,.2.2h1.3a0.22,0.22,0,0,0,.2-0.2v-10.8Zm-4.6-.1a0.22,0.22,0,0,0-.2-0.2h-0.5a2.6,2.6,0,0,0-2.6,1.4l-0.2-1.1a0.22,0.22,0,0,0-.2-0.2h-1.1a0.22,0.22,0,0,0-.2.2v10.7a0.27,0.27,0,0,0,.3.3h1.1a0.54,0.54,0,0,0,.4-0.3v-5.3c0-2,.1-4,2.5-4H136a0.22,0.22,0,0,0,.2-0.2v-1.3h-0.1Zm-8.6,9.6H127c-1.7,0-1.7-.8-1.7-4v-4.1h2.1a0.22,0.22,0,0,0,.2-0.2v-1.3a0.22,0.22,0,0,0-.2-0.2h-2.1v-4.3a0.22,0.22,0,0,0-.2-0.2h-1.3a0.22,0.22,0,0,0-.2.2v4.3h-1.9a0.22,0.22,0,0,0-.2.2v1.3a0.22,0.22,0,0,0,.2.2h1.9v5c0,3.6.7,4.8,2.9,4.8a4.89,4.89,0,0,0,1.3-.1c0.1,0,.1-0.1.1-0.2v-0.1l-0.2-1.1a0.16,0.16,0,0,0-.2-0.2m-10.5,1.3a0.22,0.22,0,0,0,.2.2h1.3a0.22,0.22,0,0,0,.2-0.2v-5.4c0-3.2-.3-5.7-4-5.7a3.18,3.18,0,0,0-3.2,1.8l-0.1-1.4a0.42,0.42,0,0,0-.4-0.3h-0.9a0.27,0.27,0,0,0-.3.3v10.7a0.22,0.22,0,0,0,.2.2h1.3a0.22,0.22,0,0,0,.2-0.2v-5.2c0-2.1.5-4.1,2.8-4.1,2.5,0,2.5,1.5,2.5,3.6v5.7H117Zm-18.3-10.8a0.22,0.22,0,0,0-.2-0.2h-1.3a0.22,0.22,0,0,0-.2.2v5.4c0,3.2.3,5.7,4,5.7a3.09,3.09,0,0,0,3.2-1.7l0.1,1.3a0.42,0.42,0,0,0,.4.3h0.9a0.27,0.27,0,0,0,.3-0.3v-10.7a0.22,0.22,0,0,0-.2-0.2h-1.3a0.22,0.22,0,0,0-.2.2v5.3c0,2.1-.5,4.1-2.8,4.1-2.5,0-2.5-1.5-2.5-3.6v-5.8h-0.2Zm-9.8,1.4c2.2,0,3,1.8,3,4s-0.8,4-3,4-3-1.8-3-4,0.8-4,3-4m0,9.7c3.1,0,4.8-2.6,4.8-5.7s-1.7-5.7-4.8-5.7-4.8,2.6-4.8,5.7,1.7,5.7,4.8,5.7m-7.4-2.2v-0.1a0.31,0.31,0,0,0-.1-0.2l-0.5-.7a0.37,0.37,0,0,0-.3-0.1,0.2,0.2,0,0,0-.2.1,6.39,6.39,0,0,1-4.5,1.7c-3.5,0-5.1-2.9-5.1-6.4s1.6-6.4,5.1-6.4a5.7,5.7,0,0,1,3.6,1.1,0.2,0.2,0,0,0,.2.1c0.1,0,.2-0.1.3-0.1l0.7-.7a0.31,0.31,0,0,0,.1-0.2l-0.1-.1a7.49,7.49,0,0,0-4.8-1.8c-4.5,0-6.9,3.6-6.9,8.1s2.4,8.1,6.9,8.1c2.5-.2,4.2-0.8,5.6-2.4" transform="translate(-6.67 -4.67)"/><path class="cls-4" d="M508.07,55.27a16,16,0,0,1,1.9-.7v7.5c0,0.1,0,.1.1,0.1h0.8c0.1,0,.1,0,0.1-0.1v-9c0-.1,0-0.1-0.1-0.1h-0.1a13.83,13.83,0,0,1-2.7,1.4,0.16,0.16,0,0,0-.2.2v0.6c0.1,0,.1.1,0.2,0.1m-5,0a16,16,0,0,1,1.9-.7v7.5c0,0.1,0,.1.1,0.1h0.8c0.1,0,.1,0,0.1-0.1v-9c0-.1,0-0.1-0.1-0.1h-0.1a13.83,13.83,0,0,1-2.7,1.4,0.16,0.16,0,0,0-.2.2v0.6a0.35,0.35,0,0,0,.2.1m-5.8,3.3c-0.1,0-.1,0-0.1.1v0.8c0,0.1,0,.1.1,0.1h4.1c0.1,0,.1,0,0.1-0.1v-0.8c0-.1,0-0.1-0.1-0.1h-4.1Zm-6.1,3.4a0.16,0.16,0,0,0,.2.2h0.8a0.16,0.16,0,0,0,.2-0.2l2.1-3.8a5.58,5.58,0,0,0,.8-2.3c0-2.1-1.1-3.2-2.9-3.2s-3,1.1-3,3.2a2.81,2.81,0,0,0,3,2.9H493Zm1.1-4.1a1.72,1.72,0,0,1-1.9-2,1.8,1.8,0,0,1,1.9-2.1c1.2,0,1.9.6,1.9,2.1s-0.7,2-1.9,2m-4.9,2.5a0.22,0.22,0,0,0-.2-0.2h-0.5a2.6,2.6,0,0,0-2.6,1.4l-0.2-1.1a0.22,0.22,0,0,0-.2-0.2h-1.1a0.22,0.22,0,0,0-.2.2v10.7a0.27,0.27,0,0,0,.3.3h1.1a0.54,0.54,0,0,0,.4-0.3v-5.3c0-2,.1-4,2.5-4h0.6a0.22,0.22,0,0,0,.2-0.2v-1.3h-0.1Zm-8.8,6.4a0.27,0.27,0,0,0,.3-0.3v-0.6c0-3.1-.8-5.7-4.6-5.7s-4.5,2.6-4.5,5.7c0,3.9,1.8,5.7,5,5.7a3.89,3.89,0,0,0,2.9-.9c0.1,0,.1-0.1.1-0.2a0.2,0.2,0,0,0-.1-0.2l-0.4-.9a0.37,0.37,0,0,0-.3-0.1h-0.2a4.87,4.87,0,0,1-2.2.6c-1.4,0-3.2-.4-3.2-3.2h7.2v0.1Zm-7-1.6c0-2.4.9-3.2,2.6-3.2s2.9,0.8,2.9,3.2h-5.5Zm-8.4,6.4a0.31,0.31,0,0,0,.2-0.1l4.6-11a0.27,0.27,0,0,0-.3-0.3h-1.3a0.54,0.54,0,0,0-.4.3l-2.8,6.8-2.8-6.8a0.54,0.54,0,0,0-.4-0.3h-1.3a0.27,0.27,0,0,0-.3.3l4.6,11a0.31,0.31,0,0,0,.2.1m-6.8-4.8a0.27,0.27,0,0,0,.3-0.3v-0.6c0-3.1-.8-5.7-4.6-5.7s-4.5,2.6-4.5,5.7c0,3.9,1.8,5.7,5,5.7a3.89,3.89,0,0,0,2.9-.9c0.1,0,.1-0.1.1-0.2a0.2,0.2,0,0,0-.1-0.2l-0.4-.9a0.37,0.37,0,0,0-.3-0.1h-0.2a4.87,4.87,0,0,1-2.2.6c-1.4,0-3.2-.4-3.2-3.2h7.2v0.1Zm-7-1.6c0-2.4.9-3.2,2.6-3.2s2.9,0.8,2.9,3.2h-5.5Zm-10.1-5a0.22,0.22,0,0,0-.2.2v1.3a0.22,0.22,0,0,0,.2.2h1.9v9.4a0.22,0.22,0,0,0,.2.2h1.3a0.22,0.22,0,0,0,.2-0.2v-9.4H445a0.22,0.22,0,0,0,.2-0.2v-1.3a0.22,0.22,0,0,0-.2-0.2h-2.1v-0.3c0-3.1,0-4.1,1.3-4.1a7.76,7.76,0,0,1,.9.1c0.1,0,.2,0,0.2-0.1,0.3-1,.4-1.1.4-1.2l-0.2-.2a4.92,4.92,0,0,0-1.7-.4c-2.4,0-2.7,2.5-2.7,5.2v1h-1.8ZM424.87,70c-2.2,0-2.8-1.1-2.8-4.1,0-2.5.7-3.9,2.8-3.9s2.9,1.4,2.9,3.9-0.7,4.1-2.9,4.1m3.2,1.3a0.42,0.42,0,0,0,.4.3h0.9a0.27,0.27,0,0,0,.3-0.3V55.87a0.22,0.22,0,0,0-.2-0.2h-1.3a0.22,0.22,0,0,0-.2.2v5.6a4.22,4.22,0,0,0-3.1-1.3c-3.1,0-4.4,2.4-4.4,5.7s0.8,5.8,4.3,5.8a3.47,3.47,0,0,0,3.3-1.7v1.3Zm-13.2-13.5a1.22,1.22,0,0,0,1.2,1.2,1.2,1.2,0,1,0,0-2.4,1.22,1.22,0,0,0-1.2,1.2m2.1,2.7a0.22,0.22,0,0,0-.2-0.2h-1.3a0.22,0.22,0,0,0-.2.2v10.8a0.22,0.22,0,0,0,.2.2h1.3a0.22,0.22,0,0,0,.2-0.2V60.47Zm-10,1.4c2.2,0,3,1.8,3,4s-0.8,4-3,4-3-1.8-3-4,0.8-4,3-4m0,9.7c3.1,0,4.8-2.6,4.8-5.7s-1.7-5.7-4.8-5.7-4.8,2.6-4.8,5.7,1.7,5.7,4.8,5.7m-16.9-.3a0.22,0.22,0,0,0,.2.2h1.3a0.22,0.22,0,0,0,.2-0.2v-5.2c0-2.1.5-4.1,2.8-4.1,2.5,0,2.5,1.5,2.5,3.6v5.7a0.22,0.22,0,0,0,.2.2h1.3a0.22,0.22,0,0,0,.2-0.2v-5.4c0-3.2-.3-5.7-4-5.7a3.24,3.24,0,0,0-3.1,1.5v-5.9a0.22,0.22,0,0,0-.2-0.2h-1.3a0.22,0.22,0,0,0-.2.2v15.5h0.1ZM382,70c-2.1,0-2.9-1.5-2.9-4.1s0.8-3.9,2.9-3.9,2.8,1.5,2.8,3.9c0.1,3-.6,4.1-2.8,4.1m-4.6,6a0.27,0.27,0,0,0,.3.3h1.1a0.54,0.54,0,0,0,.4-0.3v-5.7a3.34,3.34,0,0,0,3.2,1.3c3.6,0,4.3-2.6,4.3-5.8s-1.3-5.7-4.4-5.7a4,4,0,0,0-3.2,1.4l-0.1-1a0.42,0.42,0,0,0-.4-0.3h-0.9a0.27,0.27,0,0,0-.3.3V76Zm-11.1,0a0.27,0.27,0,0,0,.3.3h1.2a0.54,0.54,0,0,0,.4-0.3l6.3-15.4a0.27,0.27,0,0,0-.3-0.3H373a0.54,0.54,0,0,0-.4.3L370,67l-2.5-6.4a0.54,0.54,0,0,0-.4-0.3h-1.2a0.27,0.27,0,0,0-.3.3l3.4,8.7Zm-3.7-6h-0.5c-1.7,0-1.7-.8-1.7-4v-4.1h2.1a0.22,0.22,0,0,0,.2-0.2v-1.3a0.22,0.22,0,0,0-.2-0.2h-2.1v-4.3a0.22,0.22,0,0,0-.2-0.2h-1.3a0.22,0.22,0,0,0-.2.2v4.3h-1.9a0.22,0.22,0,0,0-.2.2v1.3a0.22,0.22,0,0,0,.2.2h1.9v5c0,3.6.7,4.8,2.9,4.8a4.89,4.89,0,0,0,1.3-.1c0.1,0,.1-0.1.1-0.2v-0.1l-0.2-1.1c0-.2,0-0.2-0.2-0.2m-20.4-9.8a0.22,0.22,0,0,0-.2.2v1.3a0.22,0.22,0,0,0,.2.2h1.9v9.4a0.22,0.22,0,0,0,.2.2h1.3a0.22,0.22,0,0,0,.2-0.2v-9.4h2.1a0.22,0.22,0,0,0,.2-0.2v-1.3a0.22,0.22,0,0,0-.2-0.2h-2.1v-0.3c0-3.1,0-4.1,1.3-4.1a7.76,7.76,0,0,1,.9.1c0.1,0,.2,0,0.2-0.1,0.3-1,.4-1.1.4-1.2l-0.2-.2a4.92,4.92,0,0,0-1.7-.4c-2.4,0-2.7,2.5-2.7,5.2v1h-1.8Zm-7,1.7c2.2,0,3,1.8,3,4s-0.8,4-3,4-3-1.8-3-4,0.8-4,3-4m0,9.7c3.1,0,4.8-2.6,4.8-5.7s-1.7-5.7-4.8-5.7-4.8,2.6-4.8,5.7,1.6,5.7,4.8,5.7m-18.1-5.7,4.8-5.3a0.27,0.27,0,0,0-.3-0.3H320a0.68,0.68,0,0,0-.5.3l-4.2,4.7v-9.4a0.22,0.22,0,0,0-.2-0.2h-1.3a0.22,0.22,0,0,0-.2.2v15.5a0.22,0.22,0,0,0,.2.2h1.3a0.22,0.22,0,0,0,.2-0.2v-4.8l4.3,4.8a0.68,0.68,0,0,0,.5.3h1.2a0.6,0.6,0,0,0,.6-0.3Zm-13.8,4.9a5.75,5.75,0,0,0,3.1.8c2.1,0,3.9-.8,3.9-3.2,0-3.2-5.4-3.4-5.4-5.2,0-.8.1-1.3,1.9-1.3a6.15,6.15,0,0,1,1.9.2,0.34,0.34,0,0,0,.3-0.2l0.3-1.1a0.34,0.34,0,0,0-.2-0.3,10,10,0,0,0-2.4-.4c-2.6,0-3.6,1-3.6,2.9,0,4,5.4,3.1,5.4,5.7,0,1.1-1.4,1.2-2.2,1.2a4.4,4.4,0,0,1-2.5-.6,0.25,0.25,0,0,0-.3.2l-0.4.9v0.2a0.38,0.38,0,0,0,.2.2m-5.7-13a1.22,1.22,0,0,0,1.2,1.2,1.2,1.2,0,1,0,0-2.4,1.22,1.22,0,0,0-1.2,1.2m2.1,2.7a0.22,0.22,0,0,0-.2-0.2h-1.3a0.22,0.22,0,0,0-.2.2v10.8a0.22,0.22,0,0,0,.2.2h1.3a0.22,0.22,0,0,0,.2-0.2V60.47Zm-4.6-.1a0.22,0.22,0,0,0-.2-0.2h-0.5a2.6,2.6,0,0,0-2.6,1.4l-0.2-1.1a0.22,0.22,0,0,0-.2-0.2h-1.1a0.22,0.22,0,0,0-.2.2v10.7a0.27,0.27,0,0,0,.3.3h1.1a0.54,0.54,0,0,0,.4-0.3v-5.3c0-2,.1-4,2.5-4H295a0.22,0.22,0,0,0,.2-0.2v-1.3h-0.1Zm-24.5,10.9a0.22,0.22,0,0,0,.2.2h1.3a0.22,0.22,0,0,0,.2-0.2v-5.2c0-2.1.5-4.1,2.8-4.1,2.5,0,2.5,1.5,2.5,3.6v5.7a0.22,0.22,0,0,0,.2.2h1.3a0.22,0.22,0,0,0,.2-0.2v-5.4c0-3.2-.3-5.7-4-5.7a3.24,3.24,0,0,0-3.1,1.5v-5.9a0.22,0.22,0,0,0-.2-0.2h-1.3a0.22,0.22,0,0,0-.2.2v15.5h0.1Zm-5.9.6c0,2.2-.2,3.4-3,3.4a5.3,5.3,0,0,1-2.5-.6c-0.1,0-.1-0.1-0.2-0.1a0.1,0.1,0,0,0-.1.1l-0.4,1v0.1c0,0.1,0,.2.1,0.2a5.82,5.82,0,0,0,3.7.9c2.3,0,4.3-1,4.3-4.9V60.47a0.27,0.27,0,0,0-.3-0.3h-0.9a0.42,0.42,0,0,0-.4.3l-0.1,1a4.13,4.13,0,0,0-3.2-1.4c-3.1,0-4.4,2.4-4.4,5.7s0.8,5.8,4.3,5.8a3.67,3.67,0,0,0,3.2-1.3v1.6h-0.1Zm-2.9-1.9c-2.2,0-2.8-1.1-2.8-4.1,0-2.5.7-3.9,2.8-3.9s2.9,1.4,2.9,3.9-0.8,4.1-2.9,4.1m-10.1-12.2a1.22,1.22,0,0,0,1.2,1.2,1.2,1.2,0,1,0,0-2.4,1.29,1.29,0,0,0-1.2,1.2m2.1,2.7a0.22,0.22,0,0,0-.2-0.2h-1.3a0.22,0.22,0,0,0-.2.2v10.8a0.22,0.22,0,0,0,.2.2h1.3a0.22,0.22,0,0,0,.2-0.2V60.47Zm-14.6,10.8a0.22,0.22,0,0,0,.2.2h1.3a0.22,0.22,0,0,0,.2-0.2v-5.2c0-2.1.5-4.1,2.8-4.1,2.5,0,2.5,1.5,2.5,3.6v5.7a0.22,0.22,0,0,0,.2.2h1.3a0.22,0.22,0,0,0,.2-0.2v-5.4c0-3.2-.3-5.7-4-5.7a3.24,3.24,0,0,0-3.1,1.5v-5.9a0.22,0.22,0,0,0-.2-0.2h-1.3a0.22,0.22,0,0,0-.2.2v15.5h0.1Zm-14.7-9.4c2.2,0,3,1.8,3,4s-0.8,4-3,4-3-1.8-3-4,0.8-4,3-4m0,9.7c3.1,0,4.8-2.6,4.8-5.7s-1.7-5.7-4.8-5.7-4.8,2.6-4.8,5.7,1.7,5.7,4.8,5.7m-7.3-1.6h-0.5c-1.7,0-1.7-.8-1.7-4v-4.1h2.1a0.22,0.22,0,0,0,.2-0.2v-1.3a0.22,0.22,0,0,0-.2-0.2H215v-4.3a0.22,0.22,0,0,0-.2-0.2h-1.3a0.22,0.22,0,0,0-.2.2v4.3h-1.9a0.22,0.22,0,0,0-.2.2v1.3a0.22,0.22,0,0,0,.2.2h1.9v5c0,3.6.7,4.8,2.9,4.8a4.89,4.89,0,0,0,1.3-.1c0.1,0,.1-0.1.1-0.2v-0.1l-0.2-1.1a0.16,0.16,0,0,0-.2-0.2m-14.9-3.2a0.27,0.27,0,0,0,.3-0.3v-0.6c0-3.1-.8-5.7-4.6-5.7s-4.5,2.6-4.5,5.7c0,3.9,1.8,5.7,5,5.7a3.89,3.89,0,0,0,2.9-.9c0.1,0,.1-0.1.1-0.2a0.2,0.2,0,0,0-.1-0.2l-0.4-.9a0.37,0.37,0,0,0-.3-0.1h-0.2a4.87,4.87,0,0,1-2.2.6c-1.4,0-3.2-.4-3.2-3.2h7.2v0.1Zm-7-1.6c0-2.4.9-3.2,2.6-3.2s2.9,0.8,2.9,3.2h-5.5Zm-4.5,4.8h-0.5c-1.7,0-1.7-.8-1.7-4v-4.1h2.1a0.22,0.22,0,0,0,.2-0.2v-1.3a0.22,0.22,0,0,0-.2-0.2h-2.1v-4.3a0.22,0.22,0,0,0-.2-0.2h-1.3a0.22,0.22,0,0,0-.2.2v4.3H185a0.22,0.22,0,0,0-.2.2v1.3a0.22,0.22,0,0,0,.2.2h1.9v5c0,3.6.7,4.8,2.9,4.8a4.89,4.89,0,0,0,1.3-.1c0.1,0,.1-0.1.1-0.2v-0.1l-0.2-1.1a0.16,0.16,0,0,0-.2-0.2m-15.1-7.8a9.63,9.63,0,0,1,2-.3c2.2,0,2.6,1,2.6,4a3.5,3.5,0,0,0-3.1-1.5c-2.2,0-3.2,1.3-3.2,3.6,0,3.3,2.5,3.5,3.6,3.5,0.2,0,2.1,0,2.8-1.4l0.1,1a0.42,0.42,0,0,0,.4.3h0.9a0.27,0.27,0,0,0,.3-0.3V65c0-3-.9-5-4.1-5a6.78,6.78,0,0,0-2.9.5,0.2,0.2,0,0,0-.1.2,4.88,4.88,0,0,0,.4,1.1,0.22,0.22,0,0,0,.2.2c0,0.3,0,.2.1,0.2m2.1,7.8c-1.8,0-2.1-.8-2.1-1.8s0.2-1.9,2-1.9a3,3,0,0,1,2.6,1.5v0.8c-1.1,1.1-1.8,1.4-2.5,1.4m-5.7-9.6a0.22,0.22,0,0,0-.2-0.2h-0.5a2.6,2.6,0,0,0-2.6,1.4l-0.2-1.1a0.22,0.22,0,0,0-.2-0.2h-1.1a0.22,0.22,0,0,0-.2.2v10.7a0.27,0.27,0,0,0,.3.3h1.1a0.54,0.54,0,0,0,.4-0.3v-5.3c0-2,.1-4,2.5-4H172a0.22,0.22,0,0,0,.2-0.2v-1.3h-0.1Zm-8.8,6.4a0.27,0.27,0,0,0,.3-0.3v-0.6c0-3.1-.8-5.7-4.6-5.7s-4.5,2.6-4.5,5.7c0,3.9,1.8,5.7,5,5.7a3.89,3.89,0,0,0,2.9-.9c0.1,0,.1-0.1.1-0.2a0.2,0.2,0,0,0-.1-0.2l-0.4-.9a0.37,0.37,0,0,0-.3-0.1h-0.2a4.87,4.87,0,0,1-2.2.6c-1.4,0-3.2-.4-3.2-3.2h7.2v0.1Zm-7-1.6c0-2.4.9-3.2,2.6-3.2s2.9,0.8,2.9,3.2h-5.5Zm-10,4.8c-2.2,0-2.8-1.1-2.8-4.1,0-2.5.7-3.9,2.8-3.9s2.9,1.4,2.9,3.9-0.7,4.1-2.9,4.1m3.2,1.3a0.42,0.42,0,0,0,.4.3h0.9a0.27,0.27,0,0,0,.3-0.3V55.87a0.22,0.22,0,0,0-.2-0.2h-1.3a0.22,0.22,0,0,0-.2.2v5.6a4.22,4.22,0,0,0-3.1-1.3c-3.1,0-4.4,2.4-4.4,5.7s0.8,5.8,4.3,5.8a3.47,3.47,0,0,0,3.3-1.7v1.3Zm-15.3-9.4c2.2,0,3,1.8,3,4s-0.8,4-3,4-3-1.8-3-4,0.8-4,3-4m0,9.7c3.1,0,4.8-2.6,4.8-5.7s-1.7-5.7-4.8-5.7-4.8,2.6-4.8,5.7,1.6,5.7,4.8,5.7m-19.3-11a0.42,0.42,0,0,0-.4-0.3h-0.9a0.27,0.27,0,0,0-.3.3v10.7a0.22,0.22,0,0,0,.2.2h1.3a0.22,0.22,0,0,0,.2-0.2V66c0-2.1.2-4,2.1-4,1.7,0,1.7,1.8,1.7,3.9v5.5a0.22,0.22,0,0,0,.2.2h1.3a0.22,0.22,0,0,0,.2-0.2v-6.9c0.2-1.5.6-2.5,2-2.5,1.7,0,1.7,1.1,1.7,3.4v6a0.22,0.22,0,0,0,.2.2h1.3a0.22,0.22,0,0,0,.2-0.2v-6.5c0-2.5-.7-4.6-3.2-4.6a3.07,3.07,0,0,0-2.9,1.6c-1-1.5-1.7-1.6-2.4-1.6a2.63,2.63,0,0,0-2.5,1.6v-1.3ZM97.77,70c-2.2,0-2.8-1.1-2.8-4.1,0-2.5.7-3.9,2.8-3.9s2.9,1.4,2.9,3.9-0.8,4.1-2.9,4.1m3.2,1.3a0.42,0.42,0,0,0,.4.3h0.9a0.27,0.27,0,0,0,.3-0.3V55.87a0.22,0.22,0,0,0-.2-0.2h-1.3a0.22,0.22,0,0,0-.2.2v5.6a4.22,4.22,0,0,0-3.1-1.3c-3.1,0-4.4,2.4-4.4,5.7s0.8,5.8,4.3,5.8A3.47,3.47,0,0,0,101,70v1.3Zm-12.8,0a0.22,0.22,0,0,0,.2.2h1.3a0.22,0.22,0,0,0,.2-0.2v-5.4c0-3.2-.3-5.7-4-5.7a3.18,3.18,0,0,0-3.2,1.8l-0.1-1.4a0.42,0.42,0,0,0-.4-0.3h-0.9a0.27,0.27,0,0,0-.3.3v10.7a0.22,0.22,0,0,0,.2.2h1.3a0.22,0.22,0,0,0,.2-0.2v-5.2c0-2.1.5-4.1,2.8-4.1,2.5,0,2.5,1.5,2.5,3.6v5.7h0.2Zm-17.5-9.1a9.63,9.63,0,0,1,2-.3c2.2,0,2.6,1,2.6,4a3.5,3.5,0,0,0-3.1-1.5c-2.2,0-3.2,1.3-3.2,3.6,0,3.3,2.5,3.5,3.6,3.5,0.2,0,2.1,0,2.8-1.4l0.1,1a0.42,0.42,0,0,0,.4.3h0.9a0.27,0.27,0,0,0,.3-0.3V65c0-3-.9-5-4.1-5a6.78,6.78,0,0,0-2.9.5,0.2,0.2,0,0,0-.1.2,4.88,4.88,0,0,0,.4,1.1,0.22,0.22,0,0,0,.2.2c0,0.3,0,.2.1,0.2m2.1,7.8c-1.8,0-2.1-.8-2.1-1.8s0.2-1.9,2-1.9a3,3,0,0,1,2.6,1.5v0.8c-1.1,1.1-1.8,1.4-2.5,1.4" transform="translate(-6.67 -4.67)"/><path class="cls-4" d="M589.37,31.77l2.5,6.3h-5.1Zm0-4.3a0.31,0.31,0,0,0-.2.1l-6.4,15.7a0.27,0.27,0,0,0,.3.3h1.2a0.54,0.54,0,0,0,.4-0.3l1.4-3.4h6.5l1.3,3.4a0.54,0.54,0,0,0,.4.3h1.2a0.27,0.27,0,0,0,.3-0.3l-6.4-15.7v-0.1m-21.1,15.3a5.75,5.75,0,0,0,3.1.8c2.1,0,3.9-.8,3.9-3.2,0-3.2-5.4-3.4-5.4-5.2,0-.8.1-1.3,1.9-1.3a6.15,6.15,0,0,1,1.9.2,0.34,0.34,0,0,0,.3-0.2l0.3-1.1a0.34,0.34,0,0,0-.2-0.3,10,10,0,0,0-2.4-.4c-2.6,0-3.6,1-3.6,2.9,0,4,5.4,3.1,5.4,5.7,0,1.1-1.4,1.2-2.2,1.2a4.4,4.4,0,0,1-2.5-.6,0.25,0.25,0,0,0-.3.2l-0.4.9v0.2a0.38,0.38,0,0,0,.2.2m-5.2-13a1.22,1.22,0,0,0,1.2,1.2,1.2,1.2,0,1,0,0-2.4,1.29,1.29,0,0,0-1.2,1.2m2.1,2.7a0.22,0.22,0,0,0-.2-0.2h-1.3a0.22,0.22,0,0,0-.2.2v10.8a0.22,0.22,0,0,0,.2.2H565a0.22,0.22,0,0,0,.2-0.2V32.47Zm-4.8,9.5h-0.5c-1.7,0-1.7-.8-1.7-4v-4.1h2.1a0.22,0.22,0,0,0,.2-0.2v-1.3a0.22,0.22,0,0,0-.2-0.2h-2.1v-4.3a0.22,0.22,0,0,0-.2-0.2h-1.3a0.22,0.22,0,0,0-.2.2v4.3h-1.9a0.22,0.22,0,0,0-.2.2v1.3a0.22,0.22,0,0,0,.2.2h1.9v5c0,3.6.7,4.8,2.9,4.8a4.89,4.89,0,0,0,1.3-.1c0.1,0,.1-0.1.1-0.2v-0.1l-0.2-1.1a0.16,0.16,0,0,0-.2-0.2m-10.6-12.2A1.22,1.22,0,0,0,551,31a1.2,1.2,0,1,0,0-2.4,1.29,1.29,0,0,0-1.2,1.2m2.1,2.7a0.22,0.22,0,0,0-.2-0.2h-1.3a0.22,0.22,0,0,0-.2.2v10.8a0.22,0.22,0,0,0,.2.2h1.3a0.22,0.22,0,0,0,.2-0.2V32.47Zm-4.8,9.5h-0.5c-1.7,0-1.7-.8-1.7-4v-4.1H547a0.22,0.22,0,0,0,.2-0.2v-1.3a0.22,0.22,0,0,0-.2-0.2h-2.1v-4.3a0.22,0.22,0,0,0-.2-0.2h-1.3a0.22,0.22,0,0,0-.2.2v4.3h-1.9a0.22,0.22,0,0,0-.2.2v1.3a0.22,0.22,0,0,0,.2.2h1.9v5c0,3.6.7,4.8,2.9,4.8a4.89,4.89,0,0,0,1.3-.1c0.1,0,.1-0.1.1-0.2v-0.1l-0.2-1.1a0.16,0.16,0,0,0-.2-0.2m-14.5-7.8a9.63,9.63,0,0,1,2-.3c2.2,0,2.6,1,2.6,4a3.5,3.5,0,0,0-3.1-1.5c-2.2,0-3.2,1.3-3.2,3.6,0,3.3,2.5,3.5,3.6,3.5,0.2,0,2.1,0,2.8-1.4l0.1,1a0.42,0.42,0,0,0,.4.3h0.9a0.27,0.27,0,0,0,.3-0.3V37c0-3-.9-5-4.1-5a6.78,6.78,0,0,0-2.9.5,0.2,0.2,0,0,0-.1.2,4.87,4.87,0,0,0,.4,1.1,0.22,0.22,0,0,0,.2.2c0,0.3,0,.2.1,0.2m2.1,7.8c-1.8,0-2.1-.8-2.1-1.8s0.2-1.9,2-1.9a3,3,0,0,1,2.6,1.5v0.8c-1.1,1.1-1.8,1.4-2.5,1.4m-10.6,0c-2.1,0-2.9-1.5-2.9-4.1s0.8-3.9,2.9-3.9,2.8,1.5,2.8,3.9c0,3-.7,4.1-2.8,4.1m-4.7,6a0.27,0.27,0,0,0,.3.3h1.1a0.54,0.54,0,0,0,.4-0.3v-5.7a3.34,3.34,0,0,0,3.2,1.3c3.6,0,4.3-2.6,4.3-5.8s-1.3-5.7-4.4-5.7a4,4,0,0,0-3.2,1.4l-0.1-1a0.42,0.42,0,0,0-.4-0.3h-0.9a0.27,0.27,0,0,0-.3.3V48Zm-3.1-9.2a0.27,0.27,0,0,0,.3-0.3v-0.6c0-3.1-.8-5.7-4.6-5.7s-4.5,2.6-4.5,5.7c0,3.9,1.8,5.7,5,5.7a3.89,3.89,0,0,0,2.9-.9c0.1,0,.1-0.1.1-0.2a0.2,0.2,0,0,0-.1-0.2l-0.4-.9a0.37,0.37,0,0,0-.3-0.1h-0.2a4.87,4.87,0,0,1-2.2.6c-1.4,0-3.2-.4-3.2-3.2h7.2v0.1Zm-7-1.6c0-2.4.9-3.2,2.6-3.2s2.9,0.8,2.9,3.2h-5.5Zm-13.4,6.1a0.22,0.22,0,0,0,.2.2h1.3a0.22,0.22,0,0,0,.2-0.2v-5.2c0-2.1.5-4.1,2.8-4.1,2.5,0,2.5,1.5,2.5,3.6v5.7a0.22,0.22,0,0,0,.2.2h1.3a0.22,0.22,0,0,0,.2-0.2v-5.4c0-3.2-.3-5.7-4-5.7a3.24,3.24,0,0,0-3.1,1.5v-5.9a0.22,0.22,0,0,0-.2-0.2H496a0.22,0.22,0,0,0-.2.2v15.5h0.1Zm-11.3,2.2a0.53,0.53,0,0,0,.3-0.2L486,43a2.27,2.27,0,0,0,.1-0.4,1.1,1.1,0,0,0-2.2,0,1.79,1.79,0,0,0,.6,1l-0.6,1.8a0.22,0.22,0,0,0,.2.2h0.5v-0.1Zm-8.5-21.8a30.14,30.14,0,0,1,3,12.5,25.83,25.83,0,0,1-3,11.8,0.27,0.27,0,0,0,.3.3h1.2a0.32,0.32,0,0,0,.3-0.3,26.15,26.15,0,0,0,3-11.8,31.38,31.38,0,0,0-3-12.5,0.43,0.43,0,0,0-.3-0.3h-1.1a0.45,0.45,0,0,0-.4.3M467.57,36a4.42,4.42,0,0,1,2.2-.5c1.9,0,2.8.8,2.8,3.3s-0.9,3.1-2.9,3.1c-1.2,0-2.2,0-2.9-1.1a0.42,0.42,0,0,0-.4-0.3h-1.3a0.27,0.27,0,0,0-.3.3c0.7,1.9,2.3,2.8,4.8,2.8,3.2,0,4.6-1.7,4.6-4.8s-1.6-5.1-4.6-5.1a4.29,4.29,0,0,0-3,.9v-5.3h6.2a0.22,0.22,0,0,0,.2-0.2v-1.3a0.22,0.22,0,0,0-.2-0.2H465a0.22,0.22,0,0,0-.2.2v8.1a0.43,0.43,0,0,0,.3.3,17.36,17.36,0,0,0,1.8.1,1.14,1.14,0,0,0,.7-0.3m-11.4-4.3c1.5-.6,2.2-0.8,3.2-1.2v12.8a0.22,0.22,0,0,0,.2.2h1.3a0.22,0.22,0,0,0,.2-0.2V27.77c0-.1,0-0.2-0.1-0.2a0.31,0.31,0,0,0-.2.1,33.78,33.78,0,0,1-4.6,2.4c-0.2.1-.3,0.1-0.3,0.3v1.1a0.77,0.77,0,0,0,.3.2m-8.1,11.9c4.5,0,5.5-3.6,5.5-8.1s-1.1-8.1-5.5-8.1-5.5,3.6-5.5,8.1,1,8.1,5.5,8.1m0-1.6c-3.5,0-3.8-2.9-3.8-6.4s0.3-6.4,3.8-6.4,3.8,2.9,3.8,6.4-0.3,6.4-3.8,6.4M432,30a8.89,8.89,0,0,1,3.1-.8c2.8,0,2.9,2,2.9,2.6-0.1,4.4-7.1,6.9-7.1,11v0.5a0.22,0.22,0,0,0,.2.2h8.5a0.22,0.22,0,0,0,.2-0.2V42a0.22,0.22,0,0,0-.2-0.2h-6.5c2.9-4,6.7-5.7,6.7-10.1,0-2.8-1-4.3-4.6-4.3a8.25,8.25,0,0,0-3.9,1,0.25,0.25,0,0,0,0,.4l0.4,1a0.38,0.38,0,0,0,.2.2H432m-11.1,7.4a0.22,0.22,0,0,0-.2.2v1.3a0.22,0.22,0,0,0,.2.2H428a0.22,0.22,0,0,0,.2-0.2v-1.3a0.22,0.22,0,0,0-.2-0.2h-7.1Zm-9.4,6.2c4.5,0,5.5-3.6,5.5-8.1s-1.1-8.1-5.5-8.1S406,31,406,35.47s1.1,8.1,5.5,8.1m0-1.6c-3.5,0-3.8-2.9-3.8-6.4s0.3-6.4,3.8-6.4,3.8,2.9,3.8,6.4S415,42,411.47,42m-14-10.3c1.5-.6,2.2-0.8,3.2-1.2v12.8a0.22,0.22,0,0,0,.2.2h1.3a0.22,0.22,0,0,0,.2-0.2V27.77c0-.1,0-0.2-0.1-0.2a0.31,0.31,0,0,0-.2.1,33.78,33.78,0,0,1-4.6,2.4c-0.2.1-.3,0.1-0.3,0.3v1.1a0.37,0.37,0,0,0,.3.2m-8.1,11.9c4.5,0,5.5-3.6,5.5-8.1s-1.1-8.1-5.5-8.1-5.5,3.6-5.5,8.1,1,8.1,5.5,8.1m0-1.6c-3.5,0-3.8-2.9-3.8-6.4s0.3-6.4,3.8-6.4,3.8,2.9,3.8,6.4-0.3,6.4-3.8,6.4m-16.2-12a8.89,8.89,0,0,1,3.1-.8c2.8,0,2.9,2,2.9,2.6-0.1,4.4-7.1,6.9-7.1,11v0.5a0.22,0.22,0,0,0,.2.2h8.5a0.22,0.22,0,0,0,.2-0.2V42a0.22,0.22,0,0,0-.2-0.2h-6.5c2.9-4,6.7-5.7,6.7-10.1,0-2.8-1-4.3-4.6-4.3a8.25,8.25,0,0,0-3.9,1,0.25,0.25,0,0,0,0,.4l0.4,1a0.38,0.38,0,0,0,.2.2h0.1m-3.3-6.3a0.45,0.45,0,0,0-.3-0.3h-1.1a0.43,0.43,0,0,0-.3.3,31,31,0,0,0-3,12.5,24.92,24.92,0,0,0,3,11.8,0.43,0.43,0,0,0,.3.3h1.2A0.27,0.27,0,0,0,370,48a25.83,25.83,0,0,1-3-11.8,28.52,28.52,0,0,1,2.9-12.5m-17.7,16.4,1.4,3.1a0.42,0.42,0,0,0,.4.3h2.7a0.27,0.27,0,0,0,.3-0.3l-6.8-15.5a0.5,0.5,0,0,0-.8,0l-6.8,15.5a0.27,0.27,0,0,0,.3.3h2.7a0.35,0.35,0,0,0,.4-0.3l1.4-3.1h4.8Zm-3.6-2.9,1.3-3.3,1.4,3.3h-2.7Zm-11.2,6a0.42,0.42,0,0,0,.4.3h2.7a0.27,0.27,0,0,0,.3-0.3l-2.5-5.9a5.52,5.52,0,0,0,2.4-4.7,4.85,4.85,0,0,0-4.8-5h-5.7a0.27,0.27,0,0,0-.3.3v15.2a0.27,0.27,0,0,0,.3.3h2.5a0.27,0.27,0,0,0,.3-0.3v-5.4h2.1Zm-4.2-8.4v-4.3h2.6a1.92,1.92,0,0,1,1.8,2.2,1.83,1.83,0,0,1-1.8,2.1h-2.6Zm-15.7,8.4a0.27,0.27,0,0,0,.3.3h8.7a0.27,0.27,0,0,0,.3-0.3V41a0.27,0.27,0,0,0-.3-0.3h-5.8v-3.4H325a0.27,0.27,0,0,0,.3-0.3v-2.3a0.27,0.27,0,0,0-.3-0.3h-4.3v-3.9h5.9a0.27,0.27,0,0,0,.3-0.3V28a0.27,0.27,0,0,0-.3-0.3h-8.7a0.27,0.27,0,0,0-.3.3v15.2h-0.1Zm-2.4-2.2a0.27,0.27,0,0,0-.3-0.3h-5.9V28a0.27,0.27,0,0,0-.3-0.3h-2.5a0.27,0.27,0,0,0-.3.3v15.2a0.27,0.27,0,0,0,.3.3h8.7a0.27,0.27,0,0,0,.3-0.3V41h0Zm-18.9,2.6c4.5,0,6.7-3.7,6.7-8.2s-2.2-8-6.7-8-6.7,3.6-6.7,8,2.2,8.2,6.7,8.2m0-13.3c3,0,3.6,2.3,3.6,5.2s-0.6,5.3-3.6,5.3-3.6-2.4-3.6-5.3,0.7-5.2,3.6-5.2m-9.9-2.7h-2.5a0.27,0.27,0,0,0-.3.3v6.4h-4.6v-6.4a0.27,0.27,0,0,0-.3-0.3h-2.5a0.27,0.27,0,0,0-.3.3v15.2a0.27,0.27,0,0,0,.3.3h2.5a0.27,0.27,0,0,0,.3-0.3v-6h4.6v6a0.27,0.27,0,0,0,.3.3h2.5a0.27,0.27,0,0,0,.3-0.3V27.87a0.27,0.27,0,0,0-.3-0.3m-13.1,13.5a0.5,0.5,0,0,0,0-.6l-1.4-1.3a0.2,0.2,0,0,0-.2-0.1c-0.1,0-.2.1-0.3,0.1-1.3,1.3-1.7,1.5-3.5,1.5-2.9,0-4-2.3-4-5.2s1.1-5.3,4-5.3a3.14,3.14,0,0,1,2.8,1.1,0.37,0.37,0,0,0,.3.1,0.2,0.2,0,0,0,.2-0.1l1.5-1.5a0.5,0.5,0,0,0,0-.6,6.15,6.15,0,0,0-4.8-2.1c-4.5,0-7.2,3.6-7.2,8.1s2.7,8.1,7.2,8.1a5.17,5.17,0,0,0,5.4-2.2m-23,2.8c0,2.2-.2,3.4-3,3.4a5.3,5.3,0,0,1-2.5-.6c-0.1,0-.1-0.1-0.2-0.1a0.1,0.1,0,0,0-.1.1l-0.4,1v0.1c0,0.1,0,.2.1,0.2a5.82,5.82,0,0,0,3.7.9c2.3,0,4.3-1,4.3-4.9V32.47a0.27,0.27,0,0,0-.3-0.3h-0.9a0.42,0.42,0,0,0-.4.3l-0.1,1a4.13,4.13,0,0,0-3.2-1.4c-3.1,0-4.4,2.4-4.4,5.7s0.8,5.8,4.3,5.8a3.67,3.67,0,0,0,3.2-1.3v1.6h-0.1Zm-3-1.9c-2.2,0-2.8-1.1-2.8-4.1,0-2.5.7-3.9,2.8-3.9s2.9,1.4,2.9,3.9-0.7,4.1-2.9,4.1m-9.1,1.3a0.22,0.22,0,0,0,.2.2h1.3a0.22,0.22,0,0,0,.2-0.2v-5.4c0-3.2-.3-5.7-4-5.7a3.18,3.18,0,0,0-3.2,1.8l-0.1-1.4a0.42,0.42,0,0,0-.4-0.3h-0.9a0.27,0.27,0,0,0-.3.3v10.7a0.22,0.22,0,0,0,.2.2h1.3a0.22,0.22,0,0,0,.2-0.2v-5.2c0-2.1.5-4.1,2.8-4.1,2.5,0,2.5,1.5,2.5,3.6v5.7h0.2Zm-12.7-13.5a1.22,1.22,0,0,0,1.2,1.2,1.2,1.2,0,1,0,0-2.4,1.29,1.29,0,0,0-1.2,1.2m2.1,2.7a0.22,0.22,0,0,0-.2-0.2H226a0.22,0.22,0,0,0-.2.2v10.8a0.22,0.22,0,0,0,.2.2h1.3a0.22,0.22,0,0,0,.2-0.2V32.47Zm-4.8,9.5h-0.5c-1.7,0-1.7-.8-1.7-4v-4.1h2.1a0.22,0.22,0,0,0,.2-0.2v-1.3a0.22,0.22,0,0,0-.2-0.2h-2.1v-4.3a0.22,0.22,0,0,0-.2-0.2H219a0.22,0.22,0,0,0-.2.2v4.3h-1.9a0.22,0.22,0,0,0-.2.2v1.3a0.22,0.22,0,0,0,.2.2h1.9v5c0,3.6.7,4.8,2.9,4.8a4.89,4.89,0,0,0,1.3-.1c0.1,0,.1-0.1.1-0.2v-0.1l-0.2-1.1a0.16,0.16,0,0,0-.2-0.2m-7.7-9.6a0.22,0.22,0,0,0-.2-0.2h-0.5a2.6,2.6,0,0,0-2.6,1.4l-0.2-1.1a0.22,0.22,0,0,0-.2-0.2h-1.1a0.22,0.22,0,0,0-.2.2v10.7a0.27,0.27,0,0,0,.3.3h1.1a0.54,0.54,0,0,0,.4-0.3v-5.3c0-2,.1-4,2.5-4h0.6a0.22,0.22,0,0,0,.2-0.2v-1.3H215Zm-12.7,1.5c2.2,0,3,1.8,3,4s-0.8,4-3,4-3-1.8-3-4,0.8-4,3-4m0,9.7c3.1,0,4.8-2.6,4.8-5.7s-1.7-5.7-4.8-5.7-4.8,2.6-4.8,5.7,1.7,5.7,4.8,5.7M190.67,42c-2.1,0-2.9-1.5-2.9-4.1s0.8-3.9,2.9-3.9,2.8,1.5,2.8,3.9c0,3-.6,4.1-2.8,4.1M186,48a0.27,0.27,0,0,0,.3.3h1.1a0.54,0.54,0,0,0,.4-0.3v-5.7a3.34,3.34,0,0,0,3.2,1.3c3.6,0,4.3-2.6,4.3-5.8s-1.3-5.7-4.4-5.7a4,4,0,0,0-3.2,1.4l-0.1-1a0.42,0.42,0,0,0-.4-0.3h-0.9a0.27,0.27,0,0,0-.3.3V48h0Zm-3.1-9.2a0.27,0.27,0,0,0,.3-0.3v-0.6c0-3.1-.8-5.7-4.6-5.7s-4.5,2.6-4.5,5.7c0,3.9,1.8,5.7,5,5.7a3.89,3.89,0,0,0,2.9-.9c0.1,0,.1-0.1.1-0.2a0.2,0.2,0,0,0-.1-0.2l-0.4-.9a0.37,0.37,0,0,0-.3-0.1h-0.2a4.87,4.87,0,0,1-2.2.6c-1.4,0-3.2-.4-3.2-3.2h7.2v0.1Zm-7-1.6c0-2.4.9-3.2,2.6-3.2s2.9,0.8,2.9,3.2h-5.5Zm-3.3-4.8a0.22,0.22,0,0,0-.2-0.2h-0.5a2.6,2.6,0,0,0-2.6,1.4l-0.2-1.1a0.22,0.22,0,0,0-.2-0.2h-1.1a0.22,0.22,0,0,0-.2.2v10.7a0.27,0.27,0,0,0,.3.3H169a0.54,0.54,0,0,0,.4-0.3v-5.3c0-2,.1-4,2.5-4h0.6a0.22,0.22,0,0,0,.2-0.2v-1.3h-0.1Zm-21,10.4a5.75,5.75,0,0,0,3.1.8c2.1,0,3.9-.8,3.9-3.2,0-3.2-5.4-3.4-5.4-5.2,0-.8.1-1.3,1.9-1.3a6.15,6.15,0,0,1,1.9.2,0.34,0.34,0,0,0,.3-0.2l0.3-1.1a0.34,0.34,0,0,0-.2-0.3,10,10,0,0,0-2.4-.4c-2.6,0-3.6,1-3.6,2.9,0,4,5.4,3.1,5.4,5.7,0,1.1-1.4,1.2-2.2,1.2a4.4,4.4,0,0,1-2.5-.6,0.25,0.25,0,0,0-.3.2l-0.4.9v0.2a0.38,0.38,0,0,0,.2.2m-2.6-4a0.27,0.27,0,0,0,.3-0.3v-0.6c0-3.1-.8-5.7-4.6-5.7s-4.5,2.6-4.5,5.7c0,3.9,1.8,5.7,5,5.7a3.89,3.89,0,0,0,2.9-.9c0.1,0,.1-0.1.1-0.2a0.2,0.2,0,0,0-.1-0.2l-0.4-.9a0.37,0.37,0,0,0-.3-0.1h-0.2a4.87,4.87,0,0,1-2.2.6c-1.4,0-3.2-.4-3.2-3.2H149v0.1Zm-7-1.6c0-2.4.9-3.2,2.6-3.2s2.9,0.8,2.9,3.2H142Zm-6.8-7.4a1.22,1.22,0,0,0,1.2,1.2,1.2,1.2,0,1,0,0-2.4,1.29,1.29,0,0,0-1.2,1.2m2.1,2.7a0.22,0.22,0,0,0-.2-0.2h-1.3a0.22,0.22,0,0,0-.2.2v10.8a0.22,0.22,0,0,0,.2.2h1.3a0.22,0.22,0,0,0,.2-0.2V32.47Zm-4-.1a0.22,0.22,0,0,0-.2-0.2h-0.5a2.6,2.6,0,0,0-2.6,1.4l-0.2-1.1a0.22,0.22,0,0,0-.2-0.2h-1.1a0.22,0.22,0,0,0-.2.2v10.7a0.27,0.27,0,0,0,.3.3h1.1a0.54,0.54,0,0,0,.4-0.3v-5.3c0-2,.1-4,2.5-4h0.6a0.22,0.22,0,0,0,.2-0.2v-1.3h-0.1Zm-8.1,9.6h-0.5c-1.7,0-1.7-.8-1.7-4v-4.1h2.1a0.22,0.22,0,0,0,.2-0.2v-1.3a0.22,0.22,0,0,0-.2-0.2H123v-4.3a0.22,0.22,0,0,0-.2-0.2h-1.3a0.22,0.22,0,0,0-.2.2v4.3h-1.9a0.22,0.22,0,0,0-.2.2v1.3a0.22,0.22,0,0,0,.2.2h1.9v5c0,3.6.7,4.8,2.9,4.8a4.89,4.89,0,0,0,1.3-.1c0.1,0,.1-0.1.1-0.2v-0.1l-0.2-1.1a0.16,0.16,0,0,0-.2-0.2m-9.9,1.3a0.22,0.22,0,0,0,.2.2h1.3a0.22,0.22,0,0,0,.2-0.2v-5.4c0-3.2-.3-5.7-4-5.7a3.18,3.18,0,0,0-3.2,1.8l-0.1-1.4a0.42,0.42,0,0,0-.4-0.3h-0.9a0.27,0.27,0,0,0-.3.3v10.7a0.22,0.22,0,0,0,.2.2h1.3a0.22,0.22,0,0,0,.2-0.2v-5.2c0-2.1.5-4.1,2.8-4.1,2.5,0,2.5,1.5,2.5,3.6v5.7h0.2Zm-17.7-10.8a0.22,0.22,0,0,0-.2-0.2h-1.3a0.22,0.22,0,0,0-.2.2v5.4c0,3.2.3,5.7,4,5.7a3.09,3.09,0,0,0,3.2-1.7l0.1,1.3a0.42,0.42,0,0,0,.4.3h0.9a0.27,0.27,0,0,0,.3-0.3V32.47a0.22,0.22,0,0,0-.2-0.2h-1.3a0.22,0.22,0,0,0-.2.2v5.3c0,2.1-.5,4.1-2.8,4.1-2.5,0-2.5-1.5-2.5-3.6v-5.8h-0.2Zm-9.2,1.4c2.2,0,3,1.8,3,4s-0.8,4-3,4-3-1.8-3-4,0.7-4,3-4m0,9.7c3.1,0,4.8-2.6,4.8-5.7s-1.7-5.7-4.8-5.7-4.8,2.6-4.8,5.7,1.6,5.7,4.8,5.7m-6.9-2.2v-0.1a0.31,0.31,0,0,0-.1-0.2l-0.5-.7a0.37,0.37,0,0,0-.3-0.1,0.2,0.2,0,0,0-.2.1,6.39,6.39,0,0,1-4.5,1.7c-3.5,0-5.1-2.9-5.1-6.4s1.6-6.4,5.1-6.4a5.7,5.7,0,0,1,3.6,1.1,0.2,0.2,0,0,0,.2.1c0.1,0,.2-0.1.3-0.1l0.7-.7a0.31,0.31,0,0,0,.1-0.2l-0.1-.1a7.49,7.49,0,0,0-4.8-1.8c-4.5,0-6.9,3.6-6.9,8.1s2.4,8.1,6.9,8.1c2.5-.2,4.2-0.8,5.6-2.4" transform="translate(-6.67 -4.67)"/><g class="cls-5"><rect class="cls-6" y="77.9" width="40" height="77.9"/></g><rect class="cls-7" y="155.8" width="40" height="77.9"/><g class="cls-5"><rect class="cls-8" width="40" height="77.9"/></g><path class="cls-4" d="M335.47,271.17a0.27,0.27,0,0,0,.3.3H337a0.54,0.54,0,0,0,.4-0.3l6.3-15.4a0.27,0.27,0,0,0-.3-0.3h-1.2a0.54,0.54,0,0,0-.4.3l-2.6,6.4-2.5-6.5a0.54,0.54,0,0,0-.4-0.3h-1.2a0.27,0.27,0,0,0-.3.3l3.4,8.7Zm-3.8-20.2a0.22,0.22,0,0,0-.2-0.2h-1.3a0.22,0.22,0,0,0-.2.2v15.5a0.22,0.22,0,0,0,.2.2h1.3a0.22,0.22,0,0,0,.2-0.2V251Zm-10.6,14.1c-2.2,0-2.8-1.1-2.8-4.1,0-2.5.7-3.9,2.8-3.9s2.9,1.4,2.9,3.9-0.8,4.1-2.9,4.1m3.2,1.3a0.42,0.42,0,0,0,.4.3h0.9a0.27,0.27,0,0,0,.3-0.3V251a0.22,0.22,0,0,0-.2-0.2h-1.3a0.22,0.22,0,0,0-.2.2v5.6a4.22,4.22,0,0,0-3.1-1.3c-3.1,0-4.4,2.4-4.4,5.7s0.8,5.8,4.3,5.8a3.47,3.47,0,0,0,3.3-1.7v1.3ZM311,253a1.22,1.22,0,0,0,1.2,1.2,1.2,1.2,0,1,0,0-2.4A1.22,1.22,0,0,0,311,253m2.1,2.7a0.22,0.22,0,0,0-.2-0.2h-1.3a0.22,0.22,0,0,0-.2.2v10.8a0.22,0.22,0,0,0,.2.2h1.3a0.22,0.22,0,0,0,.2-0.2v-10.8Zm-9.8,9.4c-2.1,0-2.9-1.5-2.9-4.1s0.8-3.9,2.9-3.9,2.8,1.5,2.8,3.9c0.1,3-.6,4.1-2.8,4.1m-4.6,6.1a0.27,0.27,0,0,0,.3.3h1.1a0.54,0.54,0,0,0,.4-0.3v-5.7a3.34,3.34,0,0,0,3.2,1.3c3.6,0,4.3-2.6,4.3-5.8s-1.3-5.7-4.4-5.7a4,4,0,0,0-3.2,1.4l-0.1-1a0.42,0.42,0,0,0-.4-0.3H299a0.27,0.27,0,0,0-.3.3v15.5Zm-10.4-13.8a9.63,9.63,0,0,1,2-.3c2.2,0,2.6,1,2.6,4a3.5,3.5,0,0,0-3.1-1.5c-2.2,0-3.2,1.3-3.2,3.6,0,3.3,2.5,3.5,3.6,3.5,0.2,0,2.1,0,2.8-1.4l0.1,1a0.42,0.42,0,0,0,.4.3h0.9a0.27,0.27,0,0,0,.3-0.3v-6.1c0-3-.9-5-4.1-5a6.78,6.78,0,0,0-2.9.5,0.2,0.2,0,0,0-.1.2,4.88,4.88,0,0,0,.4,1.1,0.22,0.22,0,0,0,.2.2c0,0.2,0,.2.1,0.2m2.1,7.7c-1.8,0-2.1-.8-2.1-1.8s0.2-1.9,2-1.9a3,3,0,0,1,2.6,1.5v0.8c-1.2,1.2-1.9,1.4-2.5,1.4m-5.8-9.6a0.22,0.22,0,0,0-.2-0.2h-0.5a2.6,2.6,0,0,0-2.6,1.4l-0.2-1.1a0.22,0.22,0,0,0-.2-0.2h-1.1a0.22,0.22,0,0,0-.2.2v10.7a0.27,0.27,0,0,0,.3.3H281a0.54,0.54,0,0,0,.4-0.3V261c0-2,.1-4,2.5-4h0.6a0.22,0.22,0,0,0,.2-0.2v-1.3h-0.1Zm-15.2,6.5a0.27,0.27,0,0,0,.3-0.3v-0.6c0-3.1-.8-5.7-4.6-5.7s-4.5,2.6-4.5,5.7c0,3.9,1.8,5.7,5,5.7a3.89,3.89,0,0,0,2.9-.9c0.1,0,.1-0.1.1-0.2a0.2,0.2,0,0,0-.1-0.2l-0.4-.9a0.37,0.37,0,0,0-.3-0.1h-0.2a4.87,4.87,0,0,1-2.2.6c-1.4,0-3.2-.4-3.2-3.2h7.2V262Zm-7-1.7c0-2.4.9-3.2,2.6-3.2s2.9,0.8,2.9,3.2h-5.5Zm-7.1,6.7c0,2.2-.2,3.4-3,3.4a5.3,5.3,0,0,1-2.5-.6c-0.1,0-.1-0.1-0.2-0.1a0.1,0.1,0,0,0-.1.1l-0.4,1v0.1c0,0.1,0,.2.1,0.2a5.82,5.82,0,0,0,3.7.9c2.3,0,4.3-1,4.3-4.9v-11.4a0.27,0.27,0,0,0-.3-0.3H256a0.42,0.42,0,0,0-.4.3l-0.1,1a4.13,4.13,0,0,0-3.2-1.4c-3.1,0-4.4,2.4-4.4,5.7s0.8,5.8,4.3,5.8a3.67,3.67,0,0,0,3.2-1.3V267h-0.1Zm-2.9-1.9c-2.2,0-2.8-1.1-2.8-4.1,0-2.5.7-3.9,2.8-3.9s2.9,1.4,2.9,3.9-0.8,4.1-2.9,4.1m-9.7,1.3a0.22,0.22,0,0,0,.2.2h1.3a0.22,0.22,0,0,0,.2-0.2V261c0-3.2-.3-5.7-4-5.7a3.18,3.18,0,0,0-3.2,1.8l-0.1-1.4a0.42,0.42,0,0,0-.4-0.3h-0.9a0.27,0.27,0,0,0-.3.3v10.7a0.22,0.22,0,0,0,.2.2H237a0.22,0.22,0,0,0,.2-0.2v-5.2c0-2.1.5-4.1,2.8-4.1,2.5,0,2.5,1.5,2.5,3.6v5.7h0.2Zm-17.4-9a9.63,9.63,0,0,1,2-.3c2.2,0,2.6,1,2.6,4a3.5,3.5,0,0,0-3.1-1.5c-2.2,0-3.2,1.3-3.2,3.6,0,3.3,2.5,3.5,3.6,3.5,0.2,0,2.1,0,2.8-1.4l0.1,1a0.42,0.42,0,0,0,.4.3h0.9a0.27,0.27,0,0,0,.3-0.3v-6.1c0-3-.9-5-4.1-5a6.78,6.78,0,0,0-2.9.5,0.2,0.2,0,0,0-.1.2,4.88,4.88,0,0,0,.4,1.1,0.22,0.22,0,0,0,.2.2c0,0.2,0,.2.1,0.2m2.1,7.7c-1.8,0-2.1-.8-2.1-1.8s0.2-1.9,2-1.9a3,3,0,0,1,2.6,1.5v0.8c-1.2,1.2-1.9,1.4-2.5,1.4m-15.9,1.3a0.22,0.22,0,0,0,.2.2H213a0.22,0.22,0,0,0,.2-0.2v-5.2c0-2.1.5-4.1,2.8-4.1,2.5,0,2.5,1.5,2.5,3.6v5.7a0.22,0.22,0,0,0,.2.2H220a0.22,0.22,0,0,0,.2-0.2V261c0-3.2-.3-5.7-4-5.7a3.24,3.24,0,0,0-3.1,1.5v-5.9a0.22,0.22,0,0,0-.2-0.2h-1.2a0.22,0.22,0,0,0-.2.2v15.5Zm-3.4-.4c0.1,0,.1-0.1.1-0.2a0.2,0.2,0,0,0-.1-0.2l-0.4-.9a0.37,0.37,0,0,0-.3-0.1h-0.2a5.38,5.38,0,0,1-2.2.4c-2.2,0-3.1-1.8-3.1-4s0.8-4,3.1-4a3.68,3.68,0,0,1,2.2.6h0.2a0.35,0.35,0,0,1,.2-0.1l0.5-1v-0.2a0.2,0.2,0,0,0-.1-0.2,4.06,4.06,0,0,0-3-1c-3.1,0-4.8,2.6-4.8,5.7s1.7,5.7,4.8,5.7a3.55,3.55,0,0,0,3.1-.5m-23.7-8.6a9.63,9.63,0,0,1,2-.3c2.2,0,2.6,1,2.6,4a3.5,3.5,0,0,0-3.1-1.5c-2.2,0-3.2,1.3-3.2,3.6,0,3.3,2.5,3.5,3.6,3.5,0.2,0,2.1,0,2.8-1.4l0.1,1a0.42,0.42,0,0,0,.4.3h0.9a0.27,0.27,0,0,0,.3-0.3v-6.1c0-3-.9-5-4.1-5a6.78,6.78,0,0,0-2.9.5,0.2,0.2,0,0,0-.1.2,4.88,4.88,0,0,0,.4,1.1,0.22,0.22,0,0,0,.2.2c-0.1.2,0,.2,0.1,0.2m2.1,7.7c-1.8,0-2.1-.8-2.1-1.8s0.2-1.9,2-1.9a3,3,0,0,1,2.6,1.5v0.8c-1.2,1.2-1.9,1.4-2.5,1.4m-5.8-9.6a0.22,0.22,0,0,0-.2-0.2H180a2.6,2.6,0,0,0-2.6,1.4l-0.2-1.1a0.22,0.22,0,0,0-.2-0.2h-1.1a0.22,0.22,0,0,0-.2.2v10.7a0.27,0.27,0,0,0,.3.3h1.1a0.54,0.54,0,0,0,.4-0.3V261c0-2,.1-4,2.5-4h0.6a0.22,0.22,0,0,0,.2-0.2v-1.3h-0.1ZM172,262a0.27,0.27,0,0,0,.3-0.3v-0.6c0-3.1-.8-5.7-4.6-5.7s-4.5,2.6-4.5,5.7c0,3.9,1.8,5.7,5,5.7a3.89,3.89,0,0,0,2.9-.9c0.1,0,.1-0.1.1-0.2a0.2,0.2,0,0,0-.1-0.2l-0.4-.9a0.37,0.37,0,0,0-.3-0.1h-0.2a4.87,4.87,0,0,1-2.2.6c-1.4,0-3.2-.4-3.2-3.2H172V262Zm-7-1.7c0-2.4.9-3.2,2.6-3.2s2.9,0.8,2.9,3.2H165Zm-5.3-9.3a0.22,0.22,0,0,0-.2-0.2h-1.3a0.22,0.22,0,0,0-.2.2v15.5a0.22,0.22,0,0,0,.2.2h1.3a0.22,0.22,0,0,0,.2-0.2V251Zm-10,6.1c2.2,0,3,1.8,3,4s-0.8,4-3,4-3-1.8-3-4,0.8-4,3-4m0,9.7c3.1,0,4.8-2.6,4.8-5.7s-1.7-5.7-4.8-5.7-4.8,2.6-4.8,5.7,1.7,5.7,4.8,5.7m-16.9-.4a0.22,0.22,0,0,0,.2.2h1.3a0.22,0.22,0,0,0,.2-0.2v-5.2c0-2.1.5-4.1,2.8-4.1,2.5,0,2.5,1.5,2.5,3.6v5.7a0.22,0.22,0,0,0,.2.2h1.3a0.22,0.22,0,0,0,.2-0.2V261c0-3.2-.3-5.7-4-5.7a3.24,3.24,0,0,0-3.1,1.5v-5.9a0.22,0.22,0,0,0-.2-0.2h-1.3a0.22,0.22,0,0,0-.2.2v15.5h0.1Zm-3.3-.4c0.1,0,.1-0.1.1-0.2a0.2,0.2,0,0,0-.1-0.2l-0.4-.9a0.37,0.37,0,0,0-.3-0.1h-0.2a5.38,5.38,0,0,1-2.2.4c-2.2,0-3.1-1.8-3.1-4s0.8-4,3.1-4a3.68,3.68,0,0,1,2.2.6h0.2a0.35,0.35,0,0,1,.2-0.1l0.5-1v-0.2a0.2,0.2,0,0,0-.1-0.2,4.06,4.06,0,0,0-3-1c-3.1,0-4.8,2.6-4.8,5.7s1.7,5.7,4.8,5.7a3.62,3.62,0,0,0,3.1-.5m-26.2.4a0.22,0.22,0,0,0,.2.2h1.3a0.22,0.22,0,0,0,.2-0.2v-5.2c0-2.1.5-4.1,2.8-4.1,2.5,0,2.5,1.5,2.5,3.6v5.7a0.22,0.22,0,0,0,.2.2h1.3a0.22,0.22,0,0,0,.2-0.2V261c0-3.2-.3-5.7-4-5.7a3.24,3.24,0,0,0-3.1,1.5v-5.9a0.22,0.22,0,0,0-.2-0.2h-1.3a0.22,0.22,0,0,0-.2.2v15.5h0.1Zm-3.6-1.3h-0.5c-1.7,0-1.7-.8-1.7-4V257h2.1a0.22,0.22,0,0,0,.2-0.2v-1.3a0.22,0.22,0,0,0-.2-0.2h-2.1V251a0.22,0.22,0,0,0-.2-0.2H96a0.22,0.22,0,0,0-.2.2v4.3h-1.9a0.22,0.22,0,0,0-.2.2v1.3a0.22,0.22,0,0,0,.2.2h1.9v5c0,3.6.7,4.8,2.9,4.8a4.89,4.89,0,0,0,1.3-.1c0.1,0,.1-0.1.1-0.2v-0.1l-0.2-1.1a0.22,0.22,0,0,0-.2-0.2M88.57,253a1.22,1.22,0,0,0,1.2,1.2,1.2,1.2,0,1,0,0-2.4,1.22,1.22,0,0,0-1.2,1.2m2.1,2.7a0.22,0.22,0,0,0-.2-0.2h-1.3a0.22,0.22,0,0,0-.2.2v10.8a0.22,0.22,0,0,0,.2.2h1.3a0.22,0.22,0,0,0,.2-0.2v-10.8Zm-12,4.3c0.1,0,.2.1,0.3,0.1l2.7,6.6c0.1,0,.1.1,0.2,0.1a0.2,0.2,0,0,0,.2-0.1l3.8-11a0.27,0.27,0,0,0-.3-0.3h-1.2a0.54,0.54,0,0,0-.4.3l-2.2,6.8-2.9-7c-0.1,0-.1-0.1-0.2-0.1a0.2,0.2,0,0,0-.2.1l-2.9,7-2.2-6.8a0.54,0.54,0,0,0-.4-0.3h-1.2a0.27,0.27,0,0,0-.3.3l3.8,11c0.1,0,.1.1,0.2,0.1s0.1-.1.2-0.1l2.7-6.5a0.53,0.53,0,0,1,.3-0.2m-23,6a5.75,5.75,0,0,0,3.1.8c2.1,0,3.9-.8,3.9-3.2,0-3.2-5.4-3.4-5.4-5.2,0-.8.1-1.3,1.9-1.3a6.15,6.15,0,0,1,1.9.2,0.34,0.34,0,0,0,.3-0.2l0.3-1.1a0.34,0.34,0,0,0-.2-0.3,10,10,0,0,0-2.4-.4c-2.6,0-3.6,1-3.6,2.9,0,4,5.4,3.1,5.4,5.7,0,1.1-1.4,1.2-2.2,1.2a4.4,4.4,0,0,1-2.5-.6,0.25,0.25,0,0,0-.3.2l-0.4.9v0.2a0.38,0.38,0,0,0,.2.2m-9.8-8.6a9.63,9.63,0,0,1,2-.3c2.2,0,2.6,1,2.6,4a3.5,3.5,0,0,0-3.1-1.5c-2.2,0-3.2,1.3-3.2,3.6,0,3.3,2.5,3.5,3.6,3.5,0.2,0,2.1,0,2.8-1.4l0.1,1a0.42,0.42,0,0,0,.4.3H52a0.27,0.27,0,0,0,.3-0.3v-6.1c0-3-.9-5-4.1-5a6.78,6.78,0,0,0-2.9.5,0.2,0.2,0,0,0-.1.2,4.88,4.88,0,0,0,.4,1.1,0.22,0.22,0,0,0,.2.2c-0.1.2,0,.2,0.1,0.2m2.1,7.7c-1.8,0-2.1-.8-2.1-1.8s0.2-1.9,2-1.9a3,3,0,0,1,2.6,1.5v0.8c-1.2,1.2-1.9,1.4-2.5,1.4m-6.9-3.1a0.27,0.27,0,0,0,.3-0.3v-0.6c0-3.1-.8-5.7-4.6-5.7s-4.5,2.6-4.5,5.7c0,3.9,1.8,5.7,5,5.7a3.89,3.89,0,0,0,2.9-.9c0.1,0,.1-0.1.1-0.2a0.2,0.2,0,0,0-.1-0.2l-0.4-.9a0.37,0.37,0,0,0-.3-0.1h-0.2a4.87,4.87,0,0,1-2.2.6c-1.4,0-3.2-.4-3.2-3.2h7.2V262Zm-7-1.7c0-2.4.9-3.2,2.6-3.2s2.9,0.8,2.9,3.2h-5.5Zm-3.8-4.8a0.22,0.22,0,0,0-.2-0.2h-0.5a2.6,2.6,0,0,0-2.6,1.4l-0.2-1.1a0.22,0.22,0,0,0-.2-0.2h-1.1a0.22,0.22,0,0,0-.2.2v10.7a0.27,0.27,0,0,0,.3.3h1.1a0.54,0.54,0,0,0,.4-0.3V261c0-2,.1-4,2.5-4h0.6a0.22,0.22,0,0,0,.2-0.2v-1.3h-0.1Zm-14.7-.5,2.5,6.3h-5Zm0-4.4a0.31,0.31,0,0,0-.2.1L9,266.37a0.27,0.27,0,0,0,.3.3h1.2a0.54,0.54,0,0,0,.4-0.3l1.4-3.4h6.5l1.3,3.4a0.54,0.54,0,0,0,.4.3h1.2a0.27,0.27,0,0,0,.3-0.3l-6.2-15.7a0.2,0.2,0,0,0-.2-0.1" transform="translate(-6.67 -4.67)"/></svg>