<svg id="Layer_1" data-name="Layer 1" xmlns="http://www.w3.org/2000/svg" xmlns:xlink="http://www.w3.org/1999/xlink" viewBox="0 0 1824.28 1124.15"><defs><style>.cls-1{fill:none;}.cls-2{clip-path:url(#clip-path);}.cls-3{clip-path:url(#clip-path-2);}.cls-4{opacity:0.68;}.cls-5{clip-path:url(#clip-path-3);}.cls-6{fill:#fff;}.cls-7{fill:#4c4c4c;}.cls-8{fill:#bb5409;}.cls-9{fill:#e28c05;}.cls-10{fill:#ffa82f;}.cls-11{clip-path:url(#clip-path-5);}.cls-12{clip-path:url(#clip-path-6);}.cls-13{clip-path:url(#clip-path-7);}</style><clipPath id="clip-path" transform="translate(-16.86 -16.81)"><rect class="cls-1" x="16.86" y="16.81" width="1823.97" height="499.11"/></clipPath><clipPath id="clip-path-2" transform="translate(-16.86 -16.81)"><rect class="cls-1" x="16.86" y="16.81" width="1823.97" height="499.11"/></clipPath><clipPath id="clip-path-3" transform="translate(-16.86 -16.81)"><rect class="cls-1" x="7.86" y="9.81" width="1377" height="496.22"/></clipPath><clipPath id="clip-path-5" transform="translate(-16.86 -16.81)"><rect class="cls-1" x="18.67" y="641.85" width="1823.97" height="499.11"/></clipPath><clipPath id="clip-path-6" transform="translate(-16.86 -16.81)"><rect class="cls-1" x="18.67" y="641.85" width="1823.97" height="499.11"/></clipPath><clipPath id="clip-path-7" transform="translate(-16.86 -16.81)"><rect class="cls-1" x="9.67" y="634.85" width="1377" height="496.22"/></clipPath></defs><title>vaccination</title><g class="cls-2"><g class="cls-3"><g class="cls-4"><g class="cls-5"><path class="cls-6" d="M48.68,16.81s-31.82,0-31.82,31.82V473.2S16.86,505,48.68,505H1273.52s31.82,0,41.51-30.31l56.38-176.51s9.68-30.31.49-60.78L1314.53,47.28s-9.19-30.47-41-30.47H48.68Z" transform="translate(-16.86 -16.81)"/></g></g><path class="cls-7" d="M1411.86,484.1s0,31.82,31.82,31.82H1809s31.82,0,31.82-31.82V48.63s0-31.82-31.82-31.82H1443.68s-31.82,0-31.82,31.82V484.1Z" transform="translate(-16.86 -16.81)"/><path class="cls-6" d="M1744.45,434.2a3.84,3.84,0,0,0,2.4.87c2.59,0,3.29-1.57,3.29-3.36a2.57,2.57,0,0,0-2.1-2.54l1.94-3.93a0.09,0.09,0,0,0,0-.07,0.12,0.12,0,0,0-.14-0.12h-5.33a0.15,0.15,0,0,0-.18.17v1.15a0.15,0.15,0,0,0,.18.17h2.92l-1.61,3.53a0.06,0.06,0,0,0,.07.07,0.84,0.84,0,0,1,.35,0c1,0,2.2.37,2.2,1.61s-0.26,1.89-1.59,1.89a3.47,3.47,0,0,1-1.63-.54,0.37,0.37,0,0,0-.12-0.05,0.28,0.28,0,0,0-.19.09l-0.51.8a0.48,0.48,0,0,0-.05.14,0.21,0.21,0,0,0,.09.14m-27.58,18.64A1.08,1.08,0,0,0,1718,454h5.29a1.11,1.11,0,0,0,1.13-1.13V437.4l8.42,6.8v8.64A1.08,1.08,0,0,0,1734,454h5.29a1.11,1.11,0,0,0,1.13-1.13V424.93a1.59,1.59,0,0,0-1.62-1.62h-4.32a1.53,1.53,0,0,0-1.62,1.62v9.5L1718.28,423c-0.92,0-1.4.38-1.4,1.08v28.78Zm-19.25-29.92c-8.64,0-13.61,7-13.61,15.66s5,15.66,13.61,15.66c8.48,0,13.5-7,13.5-15.66s-5-15.66-13.5-15.66m-0.05,24.73c-4.59,0-6-4.21-6-8.91s1.4-8.69,6-8.69,6,4,6,8.69-1.4,8.91-6,8.91m-35-24.35a1.11,1.11,0,0,0-1.13,1.13v5a1.08,1.08,0,0,0,1.13,1.13h4.86v22.25a1.08,1.08,0,0,0,1.13,1.13h5.29a1.11,1.11,0,0,0,1.13-1.13V430.6h4.86a1.08,1.08,0,0,0,1.13-1.13v-5a1.11,1.11,0,0,0-1.13-1.13h-17.28ZM1657.38,450a1.44,1.44,0,0,0,.32-0.86,1.15,1.15,0,0,0-.38-0.81l-2.59-2.86a1.43,1.43,0,0,0-.76-0.27,1.35,1.35,0,0,0-1,.43c-2.05,1.62-2.54,2-5.51,2-4.37,0-6.53-4.21-6.53-8.91s1.84-8.69,6.48-8.69a7.53,7.53,0,0,1,5.56,1.89,2.06,2.06,0,0,0,1,.32,1.07,1.07,0,0,0,.76-0.32l2.65-3.08a1.1,1.1,0,0,0,.32-0.81,1.79,1.79,0,0,0-.27-0.86c-3-2.86-5.67-4.27-10-4.27-8.8,0-14.09,7-14.09,15.66s5.18,15.66,13.82,15.66c4.81,0,7.29-.76,10.15-4.21m-39.9-14.8V430.6h10.42a1.08,1.08,0,0,0,1.13-1.13v-5a1.11,1.11,0,0,0-1.13-1.13H1611a1.11,1.11,0,0,0-1.13,1.13v28.4A1.11,1.11,0,0,0,1611,454h16.85a1.08,1.08,0,0,0,1.13-1.13V448a1.11,1.11,0,0,0-1.13-1.13h-10.42v-4.48h7.61a1.08,1.08,0,0,0,1.13-1.13v-4.86a1.11,1.11,0,0,0-1.13-1.13h-7.61ZM1587,423.31a1.11,1.11,0,0,0-1.13,1.13v5a1.08,1.08,0,0,0,1.13,1.13h4.86v22.25A1.08,1.08,0,0,0,1593,454h5.29a1.11,1.11,0,0,0,1.13-1.13V430.6h4.86a1.08,1.08,0,0,0,1.13-1.13v-5a1.11,1.11,0,0,0-1.13-1.13H1587Zm-17.71-.38c-8.64,0-13.61,7-13.61,15.66s5,15.66,13.61,15.66c8.48,0,13.5-7,13.5-15.66s-5-15.66-13.5-15.66m-0.05,24.73c-4.59,0-6-4.21-6-8.91s1.4-8.69,6-8.69,6,4,6,8.69-1.4,8.91-6,8.91m-25.41,5.13a1.65,1.65,0,0,0,1.73,1.19h4.81a1.25,1.25,0,0,0,1.3-1.4l-3.94-10.31c2.32-2.75,3.62-4.91,3.62-8.86,0-5.89-4.16-10.1-9.5-10.1H1531a1.08,1.08,0,0,0-1.13,1.13v28.4A1.08,1.08,0,0,0,1531,454h5.29a1.11,1.11,0,0,0,1.13-1.13v-8.59h3.24Zm-6.37-15.71v-6.16h3.94c1.24,0,2.21.81,2.21,3,0,1.89-1,3.19-2.21,3.19h-3.94Zm-32.62,15.77A1.08,1.08,0,0,0,1506,454h5.29a1.11,1.11,0,0,0,1.13-1.13v-8.48h3.51c5.29,0,9.56-4.1,9.56-10.48s-4.27-10.58-9.56-10.58H1506a1.08,1.08,0,0,0-1.13,1.13v28.4Zm7.56-15.77v-6.16h3.13c1.3,0,2.38.92,2.38,3s-1.08,3.13-2.38,3.13h-3.13Z" transform="translate(-16.86 -16.81)"/><path class="cls-6" d="M1774.71,370.71a1.25,1.25,0,0,0-1.3-1.4h-4.91a1.65,1.65,0,0,0-1.73,1.19l-5.13,9.94-5.13-9.94a1.65,1.65,0,0,0-1.73-1.19h-4.91a1.25,1.25,0,0,0-1.3,1.4l9.29,17.82v10.31A1.08,1.08,0,0,0,1759,400h5.29a1.11,1.11,0,0,0,1.13-1.13V388.53Zm-36,28.08a1.65,1.65,0,0,0,1.73,1.19h4.81a1.25,1.25,0,0,0,1.3-1.4l-3.94-10.31c2.32-2.75,3.62-4.91,3.62-8.86,0-5.89-4.16-10.1-9.5-10.1h-10.8a1.08,1.08,0,0,0-1.13,1.13v28.4a1.08,1.08,0,0,0,1.13,1.13h5.29a1.11,1.11,0,0,0,1.13-1.13v-8.59h3.24Zm-6.37-15.71v-6.16h3.94c1.24,0,2.21.81,2.21,3,0,1.89-1,3.19-2.21,3.19h-3.94Zm-26.81-14.15c-8.64,0-13.61,7-13.61,15.66s5,15.66,13.61,15.66c8.48,0,13.5-7,13.5-15.66s-5-15.66-13.5-15.66m-0.05,24.73c-4.59,0-6-4.21-6-8.91s1.4-8.69,6-8.69,6,4,6,8.69-1.4,8.91-6,8.91m-35-24.35a1.11,1.11,0,0,0-1.13,1.13v5a1.08,1.08,0,0,0,1.13,1.13h4.86v22.25a1.08,1.08,0,0,0,1.13,1.13h5.29a1.11,1.11,0,0,0,1.13-1.13V376.6h4.86a1.08,1.08,0,0,0,1.13-1.13v-5a1.11,1.11,0,0,0-1.13-1.13h-17.28ZM1665.28,396a1.44,1.44,0,0,0,.32-0.86,1.15,1.15,0,0,0-.38-0.81l-2.59-2.86a1.43,1.43,0,0,0-.76-0.27,1.35,1.35,0,0,0-1,.43c-2.05,1.62-2.54,2-5.51,2-4.37,0-6.53-4.21-6.53-8.91s1.84-8.69,6.48-8.69a7.53,7.53,0,0,1,5.56,1.89,2.06,2.06,0,0,0,1,.32,1.07,1.07,0,0,0,.76-0.32l2.65-3.08a1.1,1.1,0,0,0,.32-0.81,1.79,1.79,0,0,0-.27-0.86c-3-2.86-5.67-4.27-10-4.27-8.8,0-14.09,7-14.09,15.66s5.18,15.66,13.82,15.66c4.81,0,7.29-.76,10.15-4.21m-39.55-12,2,5.56h-4Zm5.78,15a1.58,1.58,0,0,0,1.3.92h5.78a1.17,1.17,0,0,0,1.13-1.24L1627.29,370a1.92,1.92,0,0,0-3.13,0l-12.53,28.78a1.17,1.17,0,0,0,1.13,1.24h5.78a1.58,1.58,0,0,0,1.3-.92l1.4-3.4h8.91Zm-30.63-10.69h7.61a1.08,1.08,0,0,0,1.13-1.13v-4.86a1.11,1.11,0,0,0-1.13-1.13h-7.61V376.6h10.42a1.08,1.08,0,0,0,1.13-1.13v-5a1.11,1.11,0,0,0-1.13-1.13h-16.85a1.11,1.11,0,0,0-1.13,1.13v28.4a1.08,1.08,0,0,0,1.13,1.13h5.29a1.11,1.11,0,0,0,1.13-1.13V388.37Zm-32.22,9a15.4,15.4,0,0,0,9.83,2.92c4.54,0,9.29-3.08,9.29-8.69,0-9.56-12-9.67-12-13.39,0-.38,0-2.11,2.48-2.11a16.66,16.66,0,0,1,4.59.86,3.39,3.39,0,0,0,.59.16,1.42,1.42,0,0,0,1.13-.76l1.73-4a1.84,1.84,0,0,0,.05-0.59,1.58,1.58,0,0,0-.65-1,16.83,16.83,0,0,0-7.61-1.84c-7.18,0-9.88,3.51-9.88,9.23,0,10.31,12,9.77,12,13.45,0,1.3-.7,2.05-2.48,2.05a12.21,12.21,0,0,1-6.1-1.78,1.67,1.67,0,0,0-.59-0.11,1.11,1.11,0,0,0-1,.59l-1.84,3.4a1.16,1.16,0,0,0-.11.54,1.64,1.64,0,0,0,.59,1m-6.72-26.78a1.1,1.1,0,0,0-.32-0.81,1.24,1.24,0,0,0-.92-0.43h-5.08a1.23,1.23,0,0,0-.86.32,1.18,1.18,0,0,0-.38.92v28.13a1.41,1.41,0,0,0,.38.92,1,1,0,0,0,.86.38h5.08a1.3,1.3,0,0,0,.92-0.49,1.1,1.1,0,0,0,.32-0.81V370.55Zm-30.49-1.24a1.11,1.11,0,0,0-1.13,1.13v5a1.08,1.08,0,0,0,1.13,1.13h4.86v22.25a1.08,1.08,0,0,0,1.13,1.13h5.29a1.11,1.11,0,0,0,1.13-1.13V376.6h4.86a1.08,1.08,0,0,0,1.13-1.13v-5a1.11,1.11,0,0,0-1.13-1.13h-17.28ZM1516.25,384l2,5.56h-4Zm5.78,15a1.58,1.58,0,0,0,1.3.92h5.78a1.17,1.17,0,0,0,1.13-1.24L1517.81,370a1.92,1.92,0,0,0-3.13,0l-12.53,28.78a1.17,1.17,0,0,0,1.13,1.24h5.78a1.58,1.58,0,0,0,1.3-.92l1.4-3.4h8.91Zm-41.56-1.73a15.4,15.4,0,0,0,9.83,2.92c4.54,0,9.29-3.08,9.29-8.69,0-9.56-12-9.67-12-13.39,0-.38,0-2.11,2.48-2.11a16.66,16.66,0,0,1,4.59.86,3.39,3.39,0,0,0,.59.16,1.42,1.42,0,0,0,1.13-.76l1.73-4a1.85,1.85,0,0,0,.05-0.59,1.59,1.59,0,0,0-.65-1,16.83,16.83,0,0,0-7.61-1.84c-7.18,0-9.88,3.51-9.88,9.23,0,10.31,12,9.77,12,13.45,0,1.3-.7,2.05-2.48,2.05a12.21,12.21,0,0,1-6.1-1.78,1.67,1.67,0,0,0-.59-0.11,1.11,1.11,0,0,0-1,.59l-1.84,3.4a1.16,1.16,0,0,0-.11.54,1.64,1.64,0,0,0,.59,1" transform="translate(-16.86 -16.81)"/><path class="cls-6" d="M1756.44,327.24V322.6h10.42a1.08,1.08,0,0,0,1.13-1.13v-5a1.11,1.11,0,0,0-1.13-1.13H1750a1.11,1.11,0,0,0-1.13,1.13v28.4A1.11,1.11,0,0,0,1750,346h16.85a1.08,1.08,0,0,0,1.13-1.13V340a1.11,1.11,0,0,0-1.13-1.13h-10.42v-4.48h7.61a1.08,1.08,0,0,0,1.13-1.13v-4.86a1.11,1.11,0,0,0-1.13-1.13h-7.61Zm-32.22,16.09a15.4,15.4,0,0,0,9.83,2.92c4.54,0,9.29-3.08,9.29-8.69,0-9.56-12-9.67-12-13.39,0-.38,0-2.11,2.48-2.11a16.66,16.66,0,0,1,4.59.86,3.39,3.39,0,0,0,.59.16,1.42,1.42,0,0,0,1.13-.76l1.73-4a1.85,1.85,0,0,0,.05-0.59,1.58,1.58,0,0,0-.65-1,16.83,16.83,0,0,0-7.61-1.84c-7.18,0-9.88,3.51-9.88,9.23,0,10.31,12,9.77,12,13.45,0,1.3-.7,2.05-2.48,2.05a12.21,12.21,0,0,1-6.1-1.78,1.67,1.67,0,0,0-.59-0.11,1.11,1.11,0,0,0-1,.59l-1.84,3.4a1.16,1.16,0,0,0-.11.54,1.64,1.64,0,0,0,.59,1m-18.49-28.4c-8.64,0-13.61,7-13.61,15.66s5,15.66,13.61,15.66c8.48,0,13.5-7,13.5-15.66s-5-15.66-13.5-15.66m-0.05,24.73c-4.59,0-6-4.21-6-8.91s1.41-8.69,6-8.69,6,4,6,8.69-1.4,8.91-6,8.91m-33.24-.81V322.6h1c4.59,0,7.24,3.73,7.24,8.32s-2.65,7.94-7.24,7.94h-1Zm1.73,7.13c8.64,0,14-6.59,14-15.23s-5.4-15.44-14-15.44H1666a1.11,1.11,0,0,0-1.13,1.13v28.4A1.11,1.11,0,0,0,1666,346h8.15Zm-42.28-7.13V322.6h1c4.59,0,7.24,3.73,7.24,8.32s-2.65,7.94-7.24,7.94h-1Zm1.73,7.13c8.64,0,14-6.59,14-15.23s-5.4-15.44-14-15.44h-8.15a1.11,1.11,0,0,0-1.13,1.13v28.4a1.11,1.11,0,0,0,1.13,1.13h8.15Zm-40-1.13a1.08,1.08,0,0,0,1.13,1.13H1600a1.11,1.11,0,0,0,1.13-1.13V329.4l8.42,6.8v8.64a1.08,1.08,0,0,0,1.13,1.13H1616a1.11,1.11,0,0,0,1.13-1.13V316.93a1.59,1.59,0,0,0-1.62-1.62h-4.32a1.53,1.53,0,0,0-1.62,1.62v9.5L1595,315c-0.92,0-1.4.38-1.4,1.08v28.78Zm-19.25-29.92c-8.64,0-13.61,7-13.61,15.66s5,15.66,13.61,15.66c8.48,0,13.5-7,13.5-15.66s-5-15.66-13.5-15.66m-0.05,24.73c-4.59,0-6-4.21-6-8.91s1.4-8.69,6-8.69,6,4,6,8.69-1.4,8.91-6,8.91M1557.41,342a1.44,1.44,0,0,0,.32-0.86,1.15,1.15,0,0,0-.38-0.81l-2.59-2.86a1.43,1.43,0,0,0-.76-0.27,1.35,1.35,0,0,0-1,.43c-2.05,1.62-2.54,2-5.51,2-4.37,0-6.53-4.21-6.53-8.91s1.84-8.69,6.48-8.69a7.53,7.53,0,0,1,5.56,1.89,2.06,2.06,0,0,0,1,.32,1.07,1.07,0,0,0,.76-0.32l2.65-3.08a1.1,1.1,0,0,0,.32-0.81,1.79,1.79,0,0,0-.27-0.86c-3-2.86-5.67-4.27-10-4.27-8.8,0-14.09,7-14.09,15.66s5.18,15.66,13.82,15.66c4.81,0,7.29-.76,10.15-4.21m-39.9-14.8V322.6h10.42a1.08,1.08,0,0,0,1.13-1.13v-5a1.11,1.11,0,0,0-1.13-1.13h-16.85a1.11,1.11,0,0,0-1.13,1.13v28.4a1.11,1.11,0,0,0,1.13,1.13h16.85a1.08,1.08,0,0,0,1.13-1.13V340a1.11,1.11,0,0,0-1.13-1.13h-10.42v-4.48h7.61a1.08,1.08,0,0,0,1.13-1.13v-4.86a1.11,1.11,0,0,0-1.13-1.13h-7.61Zm-32.22,16.09a15.4,15.4,0,0,0,9.83,2.92c4.54,0,9.29-3.08,9.29-8.69,0-9.56-12-9.67-12-13.39,0-.38,0-2.11,2.48-2.11a16.66,16.66,0,0,1,4.59.86,3.39,3.39,0,0,0,.59.16,1.42,1.42,0,0,0,1.13-.76l1.73-4a1.85,1.85,0,0,0,.05-0.59,1.59,1.59,0,0,0-.65-1,16.83,16.83,0,0,0-7.61-1.84c-7.18,0-9.88,3.51-9.88,9.23,0,10.31,12,9.77,12,13.45,0,1.3-.7,2.05-2.48,2.05a12.21,12.21,0,0,1-6.1-1.78,1.67,1.67,0,0,0-.59-0.11,1.11,1.11,0,0,0-1,.59l-1.84,3.4a1.16,1.16,0,0,0-.11.54,1.64,1.64,0,0,0,.59,1" transform="translate(-16.86 -16.81)"/><path class="cls-6" d="M1681,290.79a1.65,1.65,0,0,0,1.73,1.19h4.81a1.25,1.25,0,0,0,1.3-1.4l-3.94-10.31c2.32-2.75,3.62-4.91,3.62-8.86,0-5.89-4.16-10.1-9.5-10.1h-10.8a1.08,1.08,0,0,0-1.13,1.13v28.4a1.08,1.08,0,0,0,1.13,1.13h5.29a1.11,1.11,0,0,0,1.13-1.13v-8.59h3.24Zm-6.37-15.71v-6.16h3.94c1.24,0,2.21.81,2.21,3,0,1.89-1,3.19-2.21,3.19h-3.94ZM1649,273.24V268.6h10.42a1.08,1.08,0,0,0,1.13-1.13v-5a1.11,1.11,0,0,0-1.13-1.13h-16.85a1.11,1.11,0,0,0-1.13,1.13v28.4a1.11,1.11,0,0,0,1.13,1.13h16.85a1.08,1.08,0,0,0,1.13-1.13V286a1.11,1.11,0,0,0-1.13-1.13H1649v-4.48h7.61a1.08,1.08,0,0,0,1.13-1.13v-4.86a1.11,1.11,0,0,0-1.13-1.13H1649Zm-30.49-11.93a1.11,1.11,0,0,0-1.13,1.13v5a1.08,1.08,0,0,0,1.13,1.13h4.86v22.25a1.08,1.08,0,0,0,1.13,1.13h5.29a1.11,1.11,0,0,0,1.13-1.13V268.6h4.86a1.08,1.08,0,0,0,1.13-1.13v-5a1.11,1.11,0,0,0-1.13-1.13h-17.28Zm-15.82,19.06h7.61a1.08,1.08,0,0,0,1.13-1.13v-4.86a1.11,1.11,0,0,0-1.13-1.13h-7.61V268.6h10.42a1.08,1.08,0,0,0,1.13-1.13v-5a1.11,1.11,0,0,0-1.13-1.13H1596.3a1.11,1.11,0,0,0-1.13,1.13v28.4a1.08,1.08,0,0,0,1.13,1.13h5.29a1.11,1.11,0,0,0,1.13-1.13V280.37ZM1576.89,276l2,5.56h-4Zm5.78,15a1.58,1.58,0,0,0,1.3.92h5.78a1.17,1.17,0,0,0,1.13-1.24L1578.46,262a1.92,1.92,0,0,0-3.13,0l-12.53,28.78a1.17,1.17,0,0,0,1.13,1.24h5.78a1.58,1.58,0,0,0,1.3-.92l1.4-3.4h8.91Z" transform="translate(-16.86 -16.81)"/><path class="cls-6" d="M1696,235.33a15.4,15.4,0,0,0,9.83,2.92c4.54,0,9.29-3.08,9.29-8.69,0-9.56-12-9.67-12-13.39,0-.38,0-2.11,2.48-2.11a16.66,16.66,0,0,1,4.59.86,3.39,3.39,0,0,0,.59.16,1.42,1.42,0,0,0,1.13-.76l1.73-4a1.85,1.85,0,0,0,.05-0.59,1.59,1.59,0,0,0-.65-1,16.83,16.83,0,0,0-7.61-1.84c-7.18,0-9.88,3.51-9.88,9.23,0,10.31,12,9.77,12,13.45,0,1.3-.7,2.05-2.48,2.05a12.21,12.21,0,0,1-6.1-1.78,1.67,1.67,0,0,0-.59-0.11,1.11,1.11,0,0,0-1,.59l-1.84,3.4a1.16,1.16,0,0,0-.11.54,1.64,1.64,0,0,0,.59,1m-12.86,1.73a3.1,3.1,0,0,0,2.59.92h4.75a1.25,1.25,0,0,0,1.3-1.4l-10-16.58,7.51-11.29a1.25,1.25,0,0,0-1.3-1.4h-5a3.1,3.1,0,0,0-2.59.92l-6.1,9.29v-9.07a1.11,1.11,0,0,0-1.13-1.13h-5.29a1.08,1.08,0,0,0-1.13,1.13v28.4a1.08,1.08,0,0,0,1.13,1.13h5.29a1.11,1.11,0,0,0,1.13-1.13v-5.67l2.86-4.16Zm-34.43-17.82V214.6h10.42a1.08,1.08,0,0,0,1.13-1.13v-5a1.11,1.11,0,0,0-1.13-1.13H1642.3a1.11,1.11,0,0,0-1.13,1.13v28.4a1.11,1.11,0,0,0,1.13,1.13h16.85a1.08,1.08,0,0,0,1.13-1.13V232a1.11,1.11,0,0,0-1.13-1.13h-10.42v-4.48h7.61a1.08,1.08,0,0,0,1.13-1.13v-4.86a1.11,1.11,0,0,0-1.13-1.13h-7.61Zm-25.57,0V214.6h10.42a1.08,1.08,0,0,0,1.13-1.13v-5a1.11,1.11,0,0,0-1.13-1.13h-16.85a1.11,1.11,0,0,0-1.13,1.13v28.4a1.11,1.11,0,0,0,1.13,1.13h16.85a1.08,1.08,0,0,0,1.13-1.13V232a1.11,1.11,0,0,0-1.13-1.13h-10.42v-4.48h7.61a1.08,1.08,0,0,0,1.13-1.13v-4.86a1.11,1.11,0,0,0-1.13-1.13h-7.61Zm-30.4,4.43c0.16,0,.22.05,0.49,0.49l5.72,13.34a1.51,1.51,0,0,0,1.19.59,1.59,1.59,0,0,0,1.19-.59l9.94-28.78a1.25,1.25,0,0,0-1.3-1.4h-5a1.65,1.65,0,0,0-1.73,1.19l-4.37,13-4.75-12.15a1.72,1.72,0,0,0-2.92,0l-4.75,12.15-4.37-13a1.65,1.65,0,0,0-1.73-1.19h-5a1.25,1.25,0,0,0-1.3,1.4l9.94,28.78a1.79,1.79,0,0,0,1.19.59,1.51,1.51,0,0,0,1.19-.59l5.72-13.34c0.27-.43.32-0.49,0.59-0.49m-53.62-14.09a1.63,1.63,0,0,0-.59,1,1.67,1.67,0,0,0,.11.59l1.78,3.89a1.4,1.4,0,0,0,1.08.81,1.09,1.09,0,0,0,.59-0.16c1.94-.81,3.29-1.62,5-1.62,3,0,3,2,3,2.38,0,4.81-11.5,10.48-11.5,17.66v2.75a1.08,1.08,0,0,0,1.13,1.13h17.06a1.08,1.08,0,0,0,1.13-1.13V232a1.11,1.11,0,0,0-1.13-1.13h-8.59c5-4.32,9.67-11,9.67-14.74,0-5.67-3.19-9.23-10.91-9.23a14.1,14.1,0,0,0-7.88,2.65" transform="translate(-16.86 -16.81)"/><path class="cls-7" d="M321.62,254.5H217.28a5.54,5.54,0,0,1-5.44-4.84L195.84,99a5.33,5.33,0,0,1,4.8-6,5.39,5.39,0,0,1,5.92,4.85l15.68,145.84h94.57L331.22,98a5.39,5.39,0,1,1,10.72,1.13L327.06,249.66a5.54,5.54,0,0,1-5.44,4.84" transform="translate(-16.86 -16.81)"/><path class="cls-7" d="M306.57,129a31.25,31.25,0,0,1-12.64-2.75,30.07,30.07,0,0,1-25.28,0,30.07,30.07,0,0,1-25.28,0,30.31,30.31,0,0,1-26.88-1,4.06,4.06,0,0,1-1.6-5.49,4,4,0,0,1,5.44-1.61,22.9,22.9,0,0,0,21.44,0,4,4,0,0,1,3.84,0,22.9,22.9,0,0,0,21.44,0,4,4,0,0,1,3.84,0,22.9,22.9,0,0,0,21.44,0,4,4,0,0,1,3.84,0,22.9,22.9,0,0,0,21.44,0,3.94,3.94,0,0,1,5.44,1.61,4,4,0,0,1-1.6,5.49A33.25,33.25,0,0,1,306.57,129" transform="translate(-16.86 -16.81)"/><path class="cls-7" d="M269,158.15a12.8,12.8,0,1,1-12.8-12.92A12.86,12.86,0,0,1,269,158.15" transform="translate(-16.86 -16.81)"/><path class="cls-7" d="M292.67,191.11A9.72,9.72,0,1,1,283,181.3a9.76,9.76,0,0,1,9.72,9.81" transform="translate(-16.86 -16.81)"/><path class="cls-7" d="M263.52,214.2a4.86,4.86,0,1,1-4.86-4.9,4.88,4.88,0,0,1,4.86,4.9" transform="translate(-16.86 -16.81)"/><path class="cls-7" d="M326.51,365.29a2.82,2.82,0,0,0-.13-1l-1.54-9a2,2,0,0,0-2.18-1.67c-1.54,0-1.15.13-2,.13-3.59,0-4.1-3.33-4.1-8.33V333.63h6.54a2.56,2.56,0,0,0,2.69-2.69V319.53a2.63,2.63,0,0,0-2.69-2.69h-6.54v-18.2a2.63,2.63,0,0,0-2.69-2.69H301.26a2.56,2.56,0,0,0-2.69,2.69v18.2h-4.49a2.63,2.63,0,0,0-2.69,2.69v11.41a2.56,2.56,0,0,0,2.69,2.69h4.49v13.46c0,17.56,6.67,22.3,18.33,22.3,4,0,9.61-.77,9.61-4.1m-66.85-13.46a3.74,3.74,0,0,0-1.15-.26,2.65,2.65,0,0,0-2.18,1.67c-1.54,5-2.05,7.56-2.44,8.46,0,0.39-.13.39-0.13,0.77a2.67,2.67,0,0,0,1.28,2.18,28.34,28.34,0,0,0,16.54,4.74c10.25,0,18.84-4.61,18.84-16.41,0-10.25-18.07-15.89-18.07-19,0-1.67,1.54-1.92,3.2-1.92,4.1,0,5.38.51,6.41,0.9a1.91,1.91,0,0,0,.9.13c1.15,0,1.41-.64,1.79-1.54l2.05-8.59v-0.51A2.61,2.61,0,0,0,285.3,320c-2.56-1.54-7.69-3.21-13.72-3.21-10.38,0-17.18,5-17.18,16.28,0,13.33,18.07,15.38,18.07,19.87,0,1.41-1.54,1.67-2.18,1.67a23.35,23.35,0,0,1-10.64-2.82m-46.6-44.22c-1.92.39-2.56,0.77-2.56,2.69v10.64c0,1.15.64,2.44,2.82,2.44,3.46,0,7.18-.26,13.46-3.72v46.4a2.56,2.56,0,0,0,2.69,2.69H242a2.63,2.63,0,0,0,2.69-2.69V298.13a2.62,2.62,0,0,0-2.69-2.18,5.21,5.21,0,0,0-2.43.51c-9.23,4.36-14.87,8.46-26.53,11.15" transform="translate(-16.86 -16.81)"/><path class="cls-7" d="M319.82,403.52v-6.28h14.1a1.46,1.46,0,0,0,1.53-1.53V388.9a1.5,1.5,0,0,0-1.53-1.53h-22.8a1.5,1.5,0,0,0-1.54,1.53v38.43a1.5,1.5,0,0,0,1.54,1.53h22.8a1.46,1.46,0,0,0,1.53-1.53v-6.58a1.5,1.5,0,0,0-1.53-1.53h-14.1v-6.07h10.3a1.46,1.46,0,0,0,1.54-1.53v-6.58a1.5,1.5,0,0,0-1.54-1.53h-10.3Zm-41.11,21.77c4.46,3.21,8.55,3.94,13.3,3.94,6.14,0,12.57-4.16,12.57-11.76,0-12.93-16.22-13.08-16.22-18.12,0-.51,0-2.85,3.36-2.85a22.53,22.53,0,0,1,6.21,1.17,4.58,4.58,0,0,0,.8.22,1.92,1.92,0,0,0,1.53-1l2.34-5.41a2.5,2.5,0,0,0,.07-0.8,2.15,2.15,0,0,0-.88-1.32,22.78,22.78,0,0,0-10.3-2.48c-9.72,0-13.37,4.75-13.37,12.49,0,14,16.22,13.22,16.22,18.19,0,1.75-1,2.78-3.36,2.78a16.52,16.52,0,0,1-8.26-2.41,2.26,2.26,0,0,0-.8-0.15,1.51,1.51,0,0,0-1.39.8l-2.48,4.6a1.57,1.57,0,0,0-.15.73,2.22,2.22,0,0,0,.8,1.39m-22.51-38.43c-11.69,0-18.41,9.5-18.41,21.19s6.72,21.19,18.41,21.19c11.47,0,18.27-9.5,18.27-21.19s-6.79-21.19-18.27-21.19m-0.07,33.46c-6.21,0-8.11-5.7-8.11-12.06s1.9-11.76,8.11-11.76,8.11,5.41,8.11,11.76-1.9,12.06-8.11,12.06m-42.49-1.1v-22H215c6.21,0,9.79,5,9.79,11.25s-3.58,10.74-9.79,10.74h-1.32Zm2.34,9.64c11.69,0,19-8.91,19-20.6s-7.31-20.9-19-20.9h-11a1.5,1.5,0,0,0-1.53,1.53v38.43a1.5,1.5,0,0,0,1.53,1.53h11Z" transform="translate(-16.86 -16.81)"/><path class="cls-7" d="M1170.16,254.5H1065.83a5.54,5.54,0,0,1-5.44-4.84L1044.39,99a5.33,5.33,0,0,1,4.8-6,5.39,5.39,0,0,1,5.92,4.85l15.68,145.84h94.57L1179.76,98a5.39,5.39,0,1,1,10.72,1.13L1175.6,249.66a5.54,5.54,0,0,1-5.44,4.84" transform="translate(-16.86 -16.81)"/><path class="cls-7" d="M1155.12,129a31.26,31.26,0,0,1-12.64-2.75,30.07,30.07,0,0,1-25.28,0,30.07,30.07,0,0,1-25.28,0,30.31,30.31,0,0,1-26.88-1,4.06,4.06,0,0,1-1.6-5.49,4,4,0,0,1,5.44-1.61,22.9,22.9,0,0,0,21.44,0,4,4,0,0,1,3.84,0,22.9,22.9,0,0,0,21.44,0,4,4,0,0,1,3.84,0,22.9,22.9,0,0,0,21.44,0,4,4,0,0,1,3.84,0,22.9,22.9,0,0,0,21.44,0,3.94,3.94,0,0,1,5.44,1.61,4,4,0,0,1-1.6,5.49,33.25,33.25,0,0,1-14.88,3.71" transform="translate(-16.86 -16.81)"/><path class="cls-7" d="M1117.52,158.15a12.8,12.8,0,1,1-12.8-12.92,12.86,12.86,0,0,1,12.8,12.92" transform="translate(-16.86 -16.81)"/><path class="cls-7" d="M1141.22,191.11a9.72,9.72,0,1,1-9.72-9.81,9.76,9.76,0,0,1,9.72,9.81" transform="translate(-16.86 -16.81)"/><path class="cls-7" d="M1112.07,214.2a4.86,4.86,0,1,1-4.86-4.9,4.88,4.88,0,0,1,4.86,4.9" transform="translate(-16.86 -16.81)"/><path class="cls-7" d="M1168.37,403.52v-6.28h14.1a1.46,1.46,0,0,0,1.53-1.53V388.9a1.5,1.5,0,0,0-1.53-1.53h-22.8a1.5,1.5,0,0,0-1.53,1.53v38.43a1.5,1.5,0,0,0,1.53,1.53h22.8a1.46,1.46,0,0,0,1.53-1.53v-6.58a1.5,1.5,0,0,0-1.53-1.53h-14.1v-6.07h10.3a1.46,1.46,0,0,0,1.53-1.53v-6.58a1.5,1.5,0,0,0-1.53-1.53h-10.3Zm-41.11,21.77c4.46,3.21,8.55,3.94,13.3,3.94,6.14,0,12.57-4.16,12.57-11.76,0-12.93-16.22-13.08-16.22-18.12,0-.51,0-2.85,3.36-2.85a22.53,22.53,0,0,1,6.21,1.17,4.58,4.58,0,0,0,.8.22,1.92,1.92,0,0,0,1.53-1l2.34-5.41a2.5,2.5,0,0,0,.07-0.8,2.15,2.15,0,0,0-.88-1.32,22.78,22.78,0,0,0-10.3-2.48c-9.72,0-13.37,4.75-13.37,12.49,0,14,16.22,13.22,16.22,18.19,0,1.75-1,2.78-3.36,2.78a16.52,16.52,0,0,1-8.26-2.41,2.26,2.26,0,0,0-.8-0.15,1.51,1.51,0,0,0-1.39.8l-2.48,4.6a1.57,1.57,0,0,0-.15.73,2.22,2.22,0,0,0,.8,1.39m-22.51-38.43c-11.69,0-18.41,9.5-18.41,21.19s6.72,21.19,18.41,21.19c11.47,0,18.27-9.5,18.27-21.19s-6.8-21.19-18.27-21.19m-0.07,33.46c-6.21,0-8.11-5.7-8.11-12.06s1.9-11.76,8.11-11.76,8.11,5.41,8.11,11.76-1.9,12.06-8.11,12.06m-42.49-1.1v-22h1.31c6.21,0,9.79,5,9.79,11.25s-3.58,10.74-9.79,10.74h-1.31Zm2.34,9.64c11.69,0,19-8.91,19-20.6s-7.31-20.9-19-20.9h-11a1.5,1.5,0,0,0-1.53,1.53v38.43a1.5,1.5,0,0,0,1.53,1.53h11Z" transform="translate(-16.86 -16.81)"/><path class="cls-7" d="M1177.87,366.19c0.9,2.05,1.54,2.56,3.72,2.56h7.69a2.63,2.63,0,0,0,2.69-2.69V298.64a2.56,2.56,0,0,0-2.69-2.69h-12.56a2.63,2.63,0,0,0-2.69,2.69V320.3a13.3,13.3,0,0,0-9-3.46c-11.67,0-19.1,11.66-19.1,26s6.79,26.53,20.51,26.53c4.49,0,8.84-1.67,10.77-5.9Zm-9.23-12.43c-4.49,0-4.74-4.49-4.74-10.77,0-5.64.38-9.23,4.87-9.23,4.74,0,5.26,3.59,5.26,9.23,0,6.54-.64,10.77-5.38,10.77m-68.27-36.28a2.63,2.63,0,0,0-2.69,2.69v45.89a2.63,2.63,0,0,0,2.69,2.69h12.56a2.56,2.56,0,0,0,2.69-2.69V341.84c0-4.49.51-8.08,2.95-8.08,3.08,0,3.08,3.59,3.08,8.08v24.23a2.63,2.63,0,0,0,2.69,2.69h12.56a2.56,2.56,0,0,0,2.69-2.69V340c0-12.18-2.56-23.2-17.3-23.2a12.83,12.83,0,0,0-11,5.9l-0.64-2.69c-0.9-2.05-1.54-2.56-3.72-2.56h-6.54ZM1043,301.33a3.88,3.88,0,0,0-1.41,2.31,4,4,0,0,0,.26,1.41l4.23,9.23a3.31,3.31,0,0,0,2.56,1.92,2.58,2.58,0,0,0,1.41-.38c4.61-1.92,7.82-3.85,11.92-3.85,7.18,0,7.18,4.74,7.18,5.64,0,11.41-27.3,24.87-27.3,41.92v6.54a2.56,2.56,0,0,0,2.69,2.69h40.51a2.56,2.56,0,0,0,2.69-2.69V354.65a2.63,2.63,0,0,0-2.69-2.69h-20.38c11.92-10.25,22.94-26.15,22.94-35,0-13.46-7.56-21.92-25.89-21.92-8.59,0-14.74,3.72-18.71,6.28" transform="translate(-16.86 -16.81)"/></g><polygon class="cls-8" points="572.24 0.34 465 0.34 572.24 244.11 465 487.88 572.24 487.88 679.48 244.11 572.24 0.34"/><polygon class="cls-9" points="679.14 0.34 571.91 0.34 679.14 244.11 571.91 487.88 679.14 487.88 786.39 244.11 679.14 0.34"/><polygon class="cls-10" points="784.03 0.34 676.79 0.34 784.03 244.11 676.79 487.88 784.03 487.88 891.27 244.11 784.03 0.34"/><g class="cls-3"><path class="cls-7" d="M788,302.41a2.1,2.1,0,0,0-.65-0.14,1.49,1.49,0,0,0-1.22.94c-0.86,2.81-1.15,4.25-1.37,4.75,0,0.22-.07.22-0.07,0.43a1.5,1.5,0,0,0,.72,1.22,15.92,15.92,0,0,0,9.29,2.66c5.76,0,10.58-2.59,10.58-9.22,0-5.76-10.15-8.93-10.15-10.66,0-.94.86-1.08,1.8-1.08a8.65,8.65,0,0,1,3.6.5,1.07,1.07,0,0,0,.5.07,1,1,0,0,0,1-.86l1.15-4.82v-0.29a1.47,1.47,0,0,0-.79-1.37,16.09,16.09,0,0,0-7.7-1.8c-5.83,0-9.65,2.81-9.65,9.14,0,7.49,10.15,8.64,10.15,11.16A1.09,1.09,0,0,1,794,304a13.11,13.11,0,0,1-6-1.58m-7.15-17.57a1.5,1.5,0,0,0-1.51-1.73H771.9a2.32,2.32,0,0,0-2.3,1.37l-3.46,6.84V272.53a1.48,1.48,0,0,0-1.51-1.51h-7.06a1.44,1.44,0,0,0-1.51,1.51v37.87a1.44,1.44,0,0,0,1.51,1.51h7.06a1.48,1.48,0,0,0,1.51-1.51v-7.49l3.67,7.7a2.35,2.35,0,0,0,2.3,1.3h7.13a1.5,1.5,0,0,0,1.51-1.73l-6.41-12.89Zm-43,6.84c1.15,0,1.94.72,2,3.24h-4c0.22-2.59.58-3.24,1.94-3.24m12,4.9c0-9.29-4.1-13.82-12.1-13.82-9.86,0-11.88,6.48-11.88,14.47,0,11,5.69,15,13.82,15,3.74,0,6.26-.94,8.21-3.6a2.23,2.23,0,0,0,.36-1.22,1.91,1.91,0,0,0-.36-1L746,303.21a1.13,1.13,0,0,0-.94-0.5,0.54,0.54,0,0,0-.36.07c-2.52,1.15-2.66,1.22-5,1.22-1.94,0-3-.36-3.53-3.53h12.17A1.48,1.48,0,0,0,749.9,299v-2.38Zm-40.56-4.9c1.15,0,1.94.72,2,3.24h-4c0.22-2.59.58-3.24,1.94-3.24m12,4.9c0-9.29-4.1-13.82-12.1-13.82-9.86,0-11.88,6.48-11.88,14.47,0,11,5.69,15,13.82,15,3.74,0,6.26-.94,8.21-3.6a2.23,2.23,0,0,0,.36-1.22,1.91,1.91,0,0,0-.36-1l-1.94-3.24a1.13,1.13,0,0,0-.94-0.5,0.54,0.54,0,0,0-.36.07c-2.52,1.15-2.66,1.22-5,1.22-1.94,0-3-.36-3.53-3.53h12.17a1.48,1.48,0,0,0,1.51-1.51v-2.38ZM681,310.91a2.63,2.63,0,0,0,4.25.14L694.7,285a1.67,1.67,0,0,0-1.73-1.87h-6.55a2.26,2.26,0,0,0-2.3,1.58l-3,8.28-3.53-9.07a2.34,2.34,0,0,0-4,0L670.08,293l-3-8.28a2.26,2.26,0,0,0-2.3-1.58h-6.55a1.67,1.67,0,0,0-1.73,1.87l9.5,26.06a3.2,3.2,0,0,0,2.09,1,3.23,3.23,0,0,0,2.16-1.15l5.33-11.74Z" transform="translate(-16.86 -16.81)"/><path class="cls-7" d="M766.52,224.75A1.5,1.5,0,0,0,765,223h-7.06a2.49,2.49,0,0,0-2.3,1.44l-8.5,18.36a15.3,15.3,0,0,0-1.58,6.41c0,10,5.9,15,14.18,15s14.4-5,14.4-15c0-7.85-5.33-13-12.24-14Zm-6.7,19.66c2.81,0,4.25,2,4.25,5.18,0,3.82-1.08,5.9-4.25,5.9s-4.18-2.09-4.18-5.9c0-3.17,1.37-5.18,4.18-5.18m-22.7,2.38a1.44,1.44,0,0,0-1.51-1.51H716.89a1.48,1.48,0,0,0-1.51,1.51v5.54a1.48,1.48,0,0,0,1.51,1.51h18.72a1.44,1.44,0,0,0,1.51-1.51v-5.54Zm-48.75-17.21c-1.08.22-1.44,0.43-1.44,1.51v6a1.35,1.35,0,0,0,1.58,1.37,13.87,13.87,0,0,0,7.56-2.09v26.06a1.44,1.44,0,0,0,1.51,1.51h7.06a1.48,1.48,0,0,0,1.51-1.51V224.25a1.47,1.47,0,0,0-1.51-1.22,2.92,2.92,0,0,0-1.37.29c-5.18,2.45-8.35,4.75-14.9,6.26" transform="translate(-16.86 -16.81)"/><path class="cls-6" d="M1598.33,162.11l14.75-3.55a4.91,4.91,0,0,0,2.24-1.22L1645,129.1l7.26,0.38a33.42,33.42,0,0,0,4,0,30.59,30.59,0,0,0,3.92-.51c4.32-.62,14.68-4.48,14.76-8-0.08-3.53-10.45-7.39-14.76-8a30.59,30.59,0,0,0-3.92-.51,33.42,33.42,0,0,0-4,0l-7.26.38-29.65-28.24a4.91,4.91,0,0,0-2.24-1.22l-14.75-3.55a0.79,0.79,0,0,0-.83,1.22l23.55,33.06-27.12,1.44L1588,103.72a4.28,4.28,0,0,0-1.93-1.91l-7.31-3.59a0.61,0.61,0,0,0-.86.7l3.32,13.48a41.17,41.17,0,0,1,1.17,8.55,41.17,41.17,0,0,1-1.17,8.55L1577.88,143a0.61,0.61,0,0,0,.86.7l7.31-3.59a4.28,4.28,0,0,0,1.93-1.91l5.95-11.77,27.12,1.44-23.55,33.06a0.79,0.79,0,0,0,.83,1.22" transform="translate(-16.86 -16.81)"/></g></g><g class="cls-11"><g class="cls-12"><g class="cls-4"><g class="cls-13"><path class="cls-6" d="M50.49,641.85s-31.82,0-31.82,31.82v424.57s0,31.82,31.82,31.82H1275.33s31.82,0,41.51-30.31l56.38-176.51s9.68-30.31.49-60.78l-57.36-190.15s-9.19-30.47-41-30.47H50.49Z" transform="translate(-16.86 -16.81)"/></g></g><path class="cls-7" d="M1412.17,1109.14s0,31.82,31.82,31.82h365.32s31.82,0,31.82-31.82V673.67s0-31.82-31.82-31.82H1444s-31.82,0-31.82,31.82v435.47Z" transform="translate(-16.86 -16.81)"/><path class="cls-6" d="M1744.77,1058.24a3.84,3.84,0,0,0,2.4.87c2.59,0,3.29-1.57,3.29-3.36a2.57,2.57,0,0,0-2.1-2.54l1.94-3.93a0.09,0.09,0,0,0,0-.07,0.12,0.12,0,0,0-.14-0.12h-5.33a0.15,0.15,0,0,0-.18.17v1.15a0.15,0.15,0,0,0,.18.17h2.92l-1.61,3.53a0.06,0.06,0,0,0,.07.07,0.84,0.84,0,0,1,.35,0c1,0,2.2.37,2.2,1.61s-0.26,1.89-1.59,1.89a3.47,3.47,0,0,1-1.63-.54,0.37,0.37,0,0,0-.12-0.05,0.28,0.28,0,0,0-.19.09l-0.51.8a0.48,0.48,0,0,0-.05.14,0.21,0.21,0,0,0,.09.14m-27.58,19.64a1.08,1.08,0,0,0,1.13,1.13h5.29a1.11,1.11,0,0,0,1.13-1.13v-15.44l8.42,6.8v8.64a1.08,1.08,0,0,0,1.13,1.13h5.29a1.11,1.11,0,0,0,1.13-1.13V1050a1.59,1.59,0,0,0-1.62-1.62h-4.32a1.53,1.53,0,0,0-1.62,1.62v9.5L1718.59,1048c-0.92,0-1.4.38-1.4,1.08v28.78ZM1697.94,1048c-8.64,0-13.61,7-13.61,15.66s5,15.66,13.61,15.66c8.48,0,13.5-7,13.5-15.66s-5-15.66-13.5-15.66m-0.05,24.73c-4.59,0-6-4.21-6-8.91s1.4-8.69,6-8.69,6,4,6,8.69-1.4,8.91-6,8.91m-35-24.35a1.11,1.11,0,0,0-1.13,1.13v5a1.08,1.08,0,0,0,1.13,1.13h4.86v22.25a1.08,1.08,0,0,0,1.13,1.13h5.29a1.11,1.11,0,0,0,1.13-1.13v-22.25h4.86a1.08,1.08,0,0,0,1.13-1.13v-5a1.11,1.11,0,0,0-1.13-1.13h-17.28Zm-5.18,26.73a1.44,1.44,0,0,0,.32-0.86,1.15,1.15,0,0,0-.38-0.81l-2.59-2.86a1.43,1.43,0,0,0-.76-0.27,1.35,1.35,0,0,0-1,.43c-2.05,1.62-2.54,2-5.51,2-4.37,0-6.53-4.21-6.53-8.91s1.84-8.69,6.48-8.69a7.53,7.53,0,0,1,5.56,1.89,2.06,2.06,0,0,0,1,.32,1.07,1.07,0,0,0,.76-0.32l2.65-3.08a1.1,1.1,0,0,0,.32-0.81,1.79,1.79,0,0,0-.27-0.86c-3-2.86-5.67-4.27-10-4.27-8.8,0-14.09,7-14.09,15.66s5.18,15.66,13.82,15.66c4.81,0,7.29-.76,10.15-4.21m-39.9-14.8v-4.64h10.42a1.08,1.08,0,0,0,1.13-1.13v-5a1.11,1.11,0,0,0-1.13-1.13h-16.85a1.11,1.11,0,0,0-1.13,1.13v28.4a1.11,1.11,0,0,0,1.13,1.13h16.85a1.08,1.08,0,0,0,1.13-1.13V1073a1.11,1.11,0,0,0-1.13-1.13h-10.42v-4.48h7.61a1.08,1.08,0,0,0,1.13-1.13v-4.86a1.11,1.11,0,0,0-1.13-1.13h-7.61Zm-30.49-11.93a1.11,1.11,0,0,0-1.13,1.13v5a1.08,1.08,0,0,0,1.13,1.13h4.86v22.25a1.08,1.08,0,0,0,1.13,1.13h5.29a1.11,1.11,0,0,0,1.13-1.13v-22.25h4.86a1.08,1.08,0,0,0,1.13-1.13v-5a1.11,1.11,0,0,0-1.13-1.13H1587.3Zm-17.71-.38c-8.64,0-13.61,7-13.61,15.66s5,15.66,13.61,15.66c8.48,0,13.5-7,13.5-15.66s-5-15.66-13.5-15.66m-0.05,24.73c-4.59,0-6-4.21-6-8.91s1.4-8.69,6-8.69,6,4,6,8.69-1.4,8.91-6,8.91m-25.41,5.13a1.65,1.65,0,0,0,1.73,1.19h4.81a1.25,1.25,0,0,0,1.3-1.4L1548,1067.3c2.32-2.75,3.62-4.91,3.62-8.86,0-5.89-4.16-10.1-9.5-10.1h-10.8a1.08,1.08,0,0,0-1.13,1.13v28.4a1.08,1.08,0,0,0,1.13,1.13h5.29a1.11,1.11,0,0,0,1.13-1.13v-8.59H1541Zm-6.37-15.71V1056h3.94c1.24,0,2.21.81,2.21,3,0,1.89-1,3.19-2.21,3.19h-3.94Zm-32.62,15.77a1.08,1.08,0,0,0,1.13,1.13h5.29a1.11,1.11,0,0,0,1.13-1.13v-8.48h3.51c5.29,0,9.56-4.1,9.56-10.48s-4.27-10.58-9.56-10.58h-9.94a1.08,1.08,0,0,0-1.13,1.13v28.4Zm7.56-15.77V1056h3.13c1.3,0,2.38.92,2.38,3s-1.08,3.13-2.38,3.13h-3.13Z" transform="translate(-16.86 -16.81)"/><path class="cls-6" d="M1775,995.75a1.25,1.25,0,0,0-1.3-1.4h-4.91a1.65,1.65,0,0,0-1.73,1.19l-5.13,9.94-5.13-9.94a1.65,1.65,0,0,0-1.73-1.19h-4.91a1.25,1.25,0,0,0-1.3,1.4l9.29,17.82v10.31a1.08,1.08,0,0,0,1.13,1.13h5.29a1.11,1.11,0,0,0,1.13-1.13v-10.31Zm-36,28.08a1.65,1.65,0,0,0,1.73,1.19h4.81a1.25,1.25,0,0,0,1.3-1.4l-3.94-10.31c2.32-2.75,3.62-4.91,3.62-8.86,0-5.89-4.16-10.1-9.5-10.1h-10.8a1.08,1.08,0,0,0-1.13,1.13v28.4a1.08,1.08,0,0,0,1.13,1.13h5.29a1.11,1.11,0,0,0,1.13-1.13v-8.59h3.24Zm-6.37-15.71V1002h3.94c1.24,0,2.21.81,2.21,3,0,1.89-1,3.19-2.21,3.19h-3.94ZM1705.84,994c-8.64,0-13.61,7-13.61,15.66s5,15.66,13.61,15.66c8.48,0,13.5-7,13.5-15.66s-5-15.66-13.5-15.66m-0.05,24.73c-4.59,0-6-4.21-6-8.91s1.4-8.69,6-8.69,6,4,6,8.69-1.4,8.91-6,8.91m-35-24.35a1.11,1.11,0,0,0-1.13,1.13v5a1.08,1.08,0,0,0,1.13,1.13h4.86v22.25a1.08,1.08,0,0,0,1.13,1.13h5.29a1.11,1.11,0,0,0,1.13-1.13v-22.25H1688a1.08,1.08,0,0,0,1.13-1.13v-5a1.11,1.11,0,0,0-1.13-1.13h-17.28Zm-5.18,26.73a1.44,1.44,0,0,0,.32-0.86,1.15,1.15,0,0,0-.38-0.81l-2.59-2.86a1.43,1.43,0,0,0-.76-0.27,1.35,1.35,0,0,0-1,.43c-2.05,1.62-2.54,2-5.51,2-4.37,0-6.53-4.21-6.53-8.91s1.84-8.69,6.48-8.69a7.53,7.53,0,0,1,5.56,1.89,2.06,2.06,0,0,0,1,.32,1.07,1.07,0,0,0,.76-0.32l2.65-3.08a1.1,1.1,0,0,0,.32-0.81,1.79,1.79,0,0,0-.27-0.86c-3-2.86-5.67-4.27-10-4.27-8.8,0-14.09,7-14.09,15.66s5.18,15.66,13.82,15.66c4.81,0,7.29-.76,10.15-4.21m-39.55-12,2,5.56h-4Zm5.78,15a1.58,1.58,0,0,0,1.3.92h5.78a1.17,1.17,0,0,0,1.13-1.24L1627.61,995a1.92,1.92,0,0,0-3.13,0l-12.53,28.78a1.17,1.17,0,0,0,1.13,1.24h5.78a1.58,1.58,0,0,0,1.3-.92l1.4-3.4h8.91Zm-30.63-10.69h7.61a1.08,1.08,0,0,0,1.13-1.13v-4.86a1.11,1.11,0,0,0-1.13-1.13h-7.61v-4.64h10.42a1.08,1.08,0,0,0,1.13-1.13v-5a1.11,1.11,0,0,0-1.13-1.13h-16.85a1.11,1.11,0,0,0-1.13,1.13v28.4a1.08,1.08,0,0,0,1.13,1.13h5.29a1.11,1.11,0,0,0,1.13-1.13v-10.48Zm-32.22,9a15.4,15.4,0,0,0,9.83,2.92c4.54,0,9.29-3.08,9.29-8.69,0-9.56-12-9.67-12-13.39,0-.38,0-2.11,2.48-2.11a16.66,16.66,0,0,1,4.59.86,3.39,3.39,0,0,0,.59.16,1.42,1.42,0,0,0,1.13-.76l1.73-4a1.84,1.84,0,0,0,.05-0.59,1.58,1.58,0,0,0-.65-1,16.83,16.83,0,0,0-7.61-1.84c-7.18,0-9.88,3.51-9.88,9.23,0,10.31,12,9.77,12,13.45,0,1.3-.7,2.05-2.48,2.05a12.21,12.21,0,0,1-6.1-1.78,1.67,1.67,0,0,0-.59-0.11,1.11,1.11,0,0,0-1,.59l-1.84,3.4a1.16,1.16,0,0,0-.11.54,1.64,1.64,0,0,0,.59,1m-6.72-26.78a1.1,1.1,0,0,0-.32-0.81,1.24,1.24,0,0,0-.92-0.43h-5.08a1.23,1.23,0,0,0-.86.32,1.18,1.18,0,0,0-.38.92v28.13a1.41,1.41,0,0,0,.38.92,1,1,0,0,0,.86.38H1561a1.3,1.3,0,0,0,.92-0.49,1.1,1.1,0,0,0,.32-0.81V995.59Zm-30.49-1.24a1.11,1.11,0,0,0-1.13,1.13v5a1.08,1.08,0,0,0,1.13,1.13h4.86v22.25a1.08,1.08,0,0,0,1.13,1.13H1543a1.11,1.11,0,0,0,1.13-1.13v-22.25H1549a1.08,1.08,0,0,0,1.13-1.13v-5a1.11,1.11,0,0,0-1.13-1.13h-17.28Zm-15.2,14.74,2,5.56h-4Zm5.78,15a1.58,1.58,0,0,0,1.3.92h5.78a1.17,1.17,0,0,0,1.13-1.24L1518.12,995a1.92,1.92,0,0,0-3.13,0l-12.53,28.78a1.17,1.17,0,0,0,1.13,1.24h5.78a1.58,1.58,0,0,0,1.3-.92l1.4-3.4H1521Zm-41.56-1.73a15.4,15.4,0,0,0,9.83,2.92c4.54,0,9.29-3.08,9.29-8.69,0-9.56-12-9.67-12-13.39,0-.38,0-2.11,2.48-2.11a16.66,16.66,0,0,1,4.59.86,3.39,3.39,0,0,0,.59.16,1.42,1.42,0,0,0,1.13-.76l1.73-4a1.85,1.85,0,0,0,.05-0.59,1.59,1.59,0,0,0-.65-1,16.83,16.83,0,0,0-7.61-1.84c-7.18,0-9.88,3.51-9.88,9.23,0,10.31,12,9.77,12,13.45,0,1.3-.7,2.05-2.48,2.05a12.21,12.21,0,0,1-6.1-1.78,1.67,1.67,0,0,0-.59-0.11,1.11,1.11,0,0,0-1,.59l-1.84,3.4a1.16,1.16,0,0,0-.11.54,1.64,1.64,0,0,0,.59,1" transform="translate(-16.86 -16.81)"/><path class="cls-6" d="M1733.87,952.28v-4.64h10.42a1.08,1.08,0,0,0,1.13-1.13v-5a1.11,1.11,0,0,0-1.13-1.13h-16.85a1.11,1.11,0,0,0-1.13,1.13v28.4a1.11,1.11,0,0,0,1.13,1.13h16.85a1.08,1.08,0,0,0,1.13-1.13V965a1.11,1.11,0,0,0-1.13-1.13h-10.42v-4.48h7.61a1.08,1.08,0,0,0,1.13-1.13v-4.86a1.11,1.11,0,0,0-1.13-1.13h-7.61Zm-32.22,16.09a15.4,15.4,0,0,0,9.83,2.92c4.54,0,9.29-3.08,9.29-8.69,0-9.56-12-9.67-12-13.39,0-.38,0-2.11,2.48-2.11a16.66,16.66,0,0,1,4.59.86,3.38,3.38,0,0,0,.59.16,1.42,1.42,0,0,0,1.13-.76l1.73-4a1.84,1.84,0,0,0,.05-0.59,1.58,1.58,0,0,0-.65-1,16.83,16.83,0,0,0-7.61-1.84c-7.18,0-9.88,3.51-9.88,9.23,0,10.31,12,9.77,12,13.45,0,1.3-.7,2.05-2.48,2.05a12.21,12.21,0,0,1-6.1-1.78,1.67,1.67,0,0,0-.59-0.11,1.11,1.11,0,0,0-1,.59l-1.84,3.4a1.16,1.16,0,0,0-.11.54,1.64,1.64,0,0,0,.59,1M1683.16,940c-8.64,0-13.61,7-13.61,15.66s5,15.66,13.61,15.66c8.48,0,13.5-7,13.5-15.66s-5-15.66-13.5-15.66m-0.05,24.73c-4.59,0-6-4.21-6-8.91s1.4-8.69,6-8.69,6,4,6,8.69-1.4,8.91-6,8.91m-33.24-.81V947.64h1c4.59,0,7.24,3.73,7.24,8.32s-2.65,7.94-7.24,7.94h-1Zm1.73,7.13c8.64,0,14-6.59,14-15.23s-5.4-15.44-14-15.44h-8.15a1.11,1.11,0,0,0-1.13,1.13v28.4a1.11,1.11,0,0,0,1.13,1.13h8.15Zm-42.28-7.13V947.64h1c4.59,0,7.24,3.73,7.24,8.32s-2.65,7.94-7.24,7.94h-1ZM1611,971c8.64,0,14-6.59,14-15.23s-5.4-15.44-14-15.44h-8.15a1.11,1.11,0,0,0-1.13,1.13v28.4a1.11,1.11,0,0,0,1.13,1.13H1611Zm-22.84-1.19a1.65,1.65,0,0,0,1.73,1.19h4.81a1.25,1.25,0,0,0,1.3-1.4l-3.94-10.31c2.32-2.75,3.62-4.91,3.62-8.86,0-5.89-4.16-10.1-9.5-10.1h-10.8a1.08,1.08,0,0,0-1.13,1.13v28.4a1.08,1.08,0,0,0,1.13,1.13h5.29a1.11,1.11,0,0,0,1.13-1.13V961.3h3.24Zm-6.37-15.71V948h3.94c1.24,0,2.21.81,2.21,3,0,1.89-1,3.19-2.21,3.19h-3.94Zm-14.71-12.53a1.1,1.1,0,0,0-.32-0.81,1.24,1.24,0,0,0-.92-0.43h-5.08a1.23,1.23,0,0,0-.86.32,1.18,1.18,0,0,0-.38.92v28.13a1.41,1.41,0,0,0,.38.92,1,1,0,0,0,.86.38h5.08a1.3,1.3,0,0,0,.92-0.49,1.1,1.1,0,0,0,.32-0.81V941.59Zm-14.77-.11a1.11,1.11,0,0,0-1.13-1.13h-5.29a1.08,1.08,0,0,0-1.13,1.13v11.07h-6.64V941.48a1.11,1.11,0,0,0-1.13-1.13h-5.29a1.08,1.08,0,0,0-1.13,1.13v28.4a1.08,1.08,0,0,0,1.13,1.13H1537a1.11,1.11,0,0,0,1.13-1.13V959.68h6.64v10.21a1.08,1.08,0,0,0,1.13,1.13h5.29a1.11,1.11,0,0,0,1.13-1.13v-28.4Zm-44.69-1.13a1.11,1.11,0,0,0-1.13,1.13v5a1.08,1.08,0,0,0,1.13,1.13h4.86v22.25a1.08,1.08,0,0,0,1.13,1.13H1519a1.11,1.11,0,0,0,1.13-1.13V947.64h4.86a1.08,1.08,0,0,0,1.13-1.13v-5a1.11,1.11,0,0,0-1.13-1.13h-17.28Z" transform="translate(-16.86 -16.81)"/><path class="cls-6" d="M1681.29,915.83A1.65,1.65,0,0,0,1683,917h4.81a1.25,1.25,0,0,0,1.3-1.4l-3.94-10.31c2.32-2.75,3.62-4.91,3.62-8.86,0-5.89-4.16-10.1-9.5-10.1h-10.8a1.08,1.08,0,0,0-1.13,1.13v28.4a1.08,1.08,0,0,0,1.13,1.13h5.29a1.11,1.11,0,0,0,1.13-1.13V907.3h3.24Zm-6.37-15.71V894h3.94c1.24,0,2.21.81,2.21,3,0,1.89-1,3.19-2.21,3.19h-3.94Zm-25.57-1.84v-4.64h10.42a1.08,1.08,0,0,0,1.13-1.13v-5a1.11,1.11,0,0,0-1.13-1.13h-16.85a1.11,1.11,0,0,0-1.13,1.13v28.4a1.11,1.11,0,0,0,1.13,1.13h16.85a1.08,1.08,0,0,0,1.13-1.13V911a1.11,1.11,0,0,0-1.13-1.13h-10.42v-4.48H1657a1.08,1.08,0,0,0,1.13-1.13v-4.86a1.11,1.11,0,0,0-1.13-1.13h-7.61Zm-30.49-11.93a1.11,1.11,0,0,0-1.13,1.13v5a1.08,1.08,0,0,0,1.13,1.13h4.86v22.25a1.08,1.08,0,0,0,1.13,1.13h5.29a1.11,1.11,0,0,0,1.13-1.13V893.64h4.86a1.08,1.08,0,0,0,1.13-1.13v-5a1.11,1.11,0,0,0-1.13-1.13h-17.28ZM1603,905.41h7.61a1.08,1.08,0,0,0,1.13-1.13v-4.86a1.11,1.11,0,0,0-1.13-1.13H1603v-4.64h10.42a1.08,1.08,0,0,0,1.13-1.13v-5a1.11,1.11,0,0,0-1.13-1.13h-16.85a1.11,1.11,0,0,0-1.13,1.13v28.4a1.08,1.08,0,0,0,1.13,1.13h5.29a1.11,1.11,0,0,0,1.13-1.13V905.41Zm-25.84-4.32,2,5.56h-4Zm5.78,15a1.58,1.58,0,0,0,1.3.92h5.78a1.17,1.17,0,0,0,1.13-1.24L1578.77,887a1.92,1.92,0,0,0-3.13,0l-12.53,28.78a1.17,1.17,0,0,0,1.13,1.24H1570a1.58,1.58,0,0,0,1.3-.92l1.4-3.4h8.91Z" transform="translate(-16.86 -16.81)"/><path class="cls-6" d="M1696.32,860.37a15.4,15.4,0,0,0,9.83,2.92c4.54,0,9.29-3.08,9.29-8.69,0-9.56-12-9.67-12-13.39,0-.38,0-2.11,2.48-2.11a16.66,16.66,0,0,1,4.59.86,3.39,3.39,0,0,0,.59.16,1.42,1.42,0,0,0,1.13-.76l1.73-4a1.85,1.85,0,0,0,.05-0.59,1.59,1.59,0,0,0-.65-1,16.83,16.83,0,0,0-7.61-1.84c-7.18,0-9.88,3.51-9.88,9.23,0,10.31,12,9.77,12,13.45,0,1.3-.7,2.05-2.48,2.05a12.21,12.21,0,0,1-6.1-1.78,1.67,1.67,0,0,0-.59-0.11,1.11,1.11,0,0,0-1,.59l-1.84,3.4a1.16,1.16,0,0,0-.11.54,1.64,1.64,0,0,0,.59,1m-12.86,1.73a3.1,3.1,0,0,0,2.59.92h4.75a1.25,1.25,0,0,0,1.3-1.4l-10-16.58,7.51-11.29a1.25,1.25,0,0,0-1.3-1.4h-5a3.1,3.1,0,0,0-2.59.92l-6.1,9.29v-9.07a1.11,1.11,0,0,0-1.13-1.13h-5.29a1.08,1.08,0,0,0-1.13,1.13v28.4a1.08,1.08,0,0,0,1.13,1.13h5.29a1.11,1.11,0,0,0,1.13-1.13v-5.67l2.86-4.16ZM1649,844.28v-4.64h10.42a1.08,1.08,0,0,0,1.13-1.13v-5a1.11,1.11,0,0,0-1.13-1.13h-16.85a1.11,1.11,0,0,0-1.13,1.13v28.4a1.11,1.11,0,0,0,1.13,1.13h16.85a1.08,1.08,0,0,0,1.13-1.13V857a1.11,1.11,0,0,0-1.13-1.13H1649v-4.48h7.61a1.08,1.08,0,0,0,1.13-1.13v-4.86a1.11,1.11,0,0,0-1.13-1.13H1649Zm-25.57,0v-4.64h10.42a1.08,1.08,0,0,0,1.13-1.13v-5a1.11,1.11,0,0,0-1.13-1.13H1617a1.11,1.11,0,0,0-1.13,1.13v28.4A1.11,1.11,0,0,0,1617,863h16.85a1.08,1.08,0,0,0,1.13-1.13V857a1.11,1.11,0,0,0-1.13-1.13h-10.42v-4.48h7.61a1.08,1.08,0,0,0,1.13-1.13v-4.86a1.11,1.11,0,0,0-1.13-1.13h-7.61Zm-30.4,4.43c0.16,0,.22.05,0.49,0.49l5.72,13.34a1.51,1.51,0,0,0,1.19.59,1.59,1.59,0,0,0,1.19-.59l9.94-28.78a1.25,1.25,0,0,0-1.3-1.4h-5a1.65,1.65,0,0,0-1.73,1.19l-4.37,13-4.75-12.15a1.72,1.72,0,0,0-2.92,0l-4.75,12.15-4.37-13a1.65,1.65,0,0,0-1.73-1.19h-5a1.25,1.25,0,0,0-1.3,1.4l9.94,28.78a1.79,1.79,0,0,0,1.19.59,1.51,1.51,0,0,0,1.19-.59l5.72-13.34c0.27-.43.32-0.49,0.59-0.49m-53.62-14.09a1.63,1.63,0,0,0-.59,1,1.67,1.67,0,0,0,.11.59l1.78,3.89a1.4,1.4,0,0,0,1.08.81,1.09,1.09,0,0,0,.59-0.16c1.94-.81,3.29-1.62,5-1.62,3,0,3,2,3,2.38,0,4.81-11.5,10.48-11.5,17.66v2.75a1.08,1.08,0,0,0,1.13,1.13h17.06a1.08,1.08,0,0,0,1.13-1.13v-4.81a1.11,1.11,0,0,0-1.13-1.13h-8.59c5-4.32,9.67-11,9.67-14.74,0-5.67-3.19-9.23-10.91-9.23a14.1,14.1,0,0,0-7.88,2.65" transform="translate(-16.86 -16.81)"/><path class="cls-6" d="M1598.64,787.15l14.75-3.55a4.91,4.91,0,0,0,2.24-1.22l29.65-28.24,7.26,0.38a33.42,33.42,0,0,0,4,0,30.59,30.59,0,0,0,3.92-.51c4.32-.62,14.68-4.48,14.76-8-0.08-3.53-10.45-7.39-14.76-8a30.59,30.59,0,0,0-3.92-.51,33.42,33.42,0,0,0-4,0l-7.26.38-29.65-28.24a4.91,4.91,0,0,0-2.24-1.22l-14.75-3.55a0.79,0.79,0,0,0-.83,1.22l23.55,33.06-27.12,1.44-5.95-11.77a4.28,4.28,0,0,0-1.93-1.91l-7.31-3.59a0.61,0.61,0,0,0-.86.7l3.32,13.48a31.84,31.84,0,0,1,0,17.1L1578.19,768a0.61,0.61,0,0,0,.86.7l7.31-3.59a4.28,4.28,0,0,0,1.93-1.91l5.95-11.77,27.12,1.44-23.55,33.06a0.79,0.79,0,0,0,.83,1.22" transform="translate(-16.86 -16.81)"/><path class="cls-7" d="M223.94,880.3H130a5,5,0,0,1-4.9-4.39l-14.4-136.46a4.85,4.85,0,1,1,9.65-1L134.51,870.5h85.12l13-131.93a4.85,4.85,0,1,1,9.65,1L228.84,875.91a5,5,0,0,1-4.9,4.39" transform="translate(-16.86 -16.81)"/><path class="cls-7" d="M210.4,766.66A28,28,0,0,1,199,764.17a26.91,26.91,0,0,1-22.75,0,26.91,26.91,0,0,1-22.76,0,27.13,27.13,0,0,1-24.2-.88,3.69,3.69,0,0,1-1.44-5,3.57,3.57,0,0,1,4.9-1.46,20.5,20.5,0,0,0,19.3,0,3.62,3.62,0,0,1,3.46,0,20.5,20.5,0,0,0,19.3,0,3.62,3.62,0,0,1,3.46,0,20.5,20.5,0,0,0,19.3,0,3.62,3.62,0,0,1,3.46,0,20.5,20.5,0,0,0,19.3,0,3.54,3.54,0,0,1,4.9,1.46,3.65,3.65,0,0,1-1.44,5,29.79,29.79,0,0,1-13.39,3.36" transform="translate(-16.86 -16.81)"/><path class="cls-7" d="M178,793a11.52,11.52,0,1,1-11.52-11.7A11.61,11.61,0,0,1,178,793" transform="translate(-16.86 -16.81)"/><path class="cls-7" d="M199.31,822.89a8.75,8.75,0,1,1-8.75-8.88,8.82,8.82,0,0,1,8.75,8.88" transform="translate(-16.86 -16.81)"/><path class="cls-7" d="M173.07,843.8a4.37,4.37,0,1,1-4.37-4.44,4.41,4.41,0,0,1,4.37,4.44" transform="translate(-16.86 -16.81)"/><path class="cls-7" d="M222.46,1015.09v-5.65h12.69a1.31,1.31,0,0,0,1.38-1.38v-6.12a1.35,1.35,0,0,0-1.38-1.38H214.63a1.35,1.35,0,0,0-1.38,1.38v34.59a1.35,1.35,0,0,0,1.38,1.38h20.52a1.31,1.31,0,0,0,1.38-1.38v-5.92a1.35,1.35,0,0,0-1.38-1.38H222.46v-5.46h9.27a1.31,1.31,0,0,0,1.38-1.38v-5.92a1.35,1.35,0,0,0-1.38-1.38h-9.27Zm-37.07,19.6c4,2.89,7.69,3.55,12,3.55,5.52,0,11.31-3.75,11.31-10.59,0-11.64-14.6-11.77-14.6-16.31,0-.46,0-2.57,3-2.57a20.32,20.32,0,0,1,5.59,1.05,4.09,4.09,0,0,0,.72.2,1.73,1.73,0,0,0,1.38-.92l2.1-4.87a2.24,2.24,0,0,0,.07-0.72,1.93,1.93,0,0,0-.79-1.18,20.51,20.51,0,0,0-9.27-2.24c-8.75,0-12,4.27-12,11.24,0,12.56,14.6,11.9,14.6,16.37,0,1.58-.85,2.5-3,2.5A14.87,14.87,0,0,1,189,1028a2,2,0,0,0-.72-0.13,1.36,1.36,0,0,0-1.25.72l-2.24,4.14a1.42,1.42,0,0,0-.13.66,2,2,0,0,0,.72,1.25M165,1000.09c-10.52,0-16.57,8.55-16.57,19.07s6.05,19.07,16.57,19.07c10.32,0,16.44-8.55,16.44-19.07s-6.12-19.07-16.44-19.07M165,1030.21c-5.59,0-7.3-5.13-7.3-10.85s1.71-10.59,7.3-10.59,7.3,4.87,7.3,10.59-1.71,10.85-7.3,10.85m-38.32-1v-19.79h1.18c5.59,0,8.81,4.54,8.81,10.13s-3.22,9.67-8.81,9.67h-1.18Zm2.1,8.68c10.52,0,17.1-8,17.1-18.54s-6.58-18.81-17.1-18.81h-9.93a1.35,1.35,0,0,0-1.38,1.38v34.59a1.35,1.35,0,0,0,1.38,1.38h9.93Z" transform="translate(-16.86 -16.81)"/><path class="cls-7" d="M228.35,980.12a2.53,2.53,0,0,0-.12-0.92l-1.38-8.08a1.79,1.79,0,0,0-2-1.5c-1.39,0-1,.12-1.85.12-3.23,0-3.69-3-3.69-7.5V951.62h5.88a2.3,2.3,0,0,0,2.42-2.42V938.93a2.37,2.37,0,0,0-2.42-2.42h-5.88V920.13a2.37,2.37,0,0,0-2.42-2.42H205.62a2.3,2.3,0,0,0-2.42,2.42v16.38h-4a2.37,2.37,0,0,0-2.42,2.42V949.2a2.3,2.3,0,0,0,2.42,2.42h4v12.11c0,15.8,6,20.07,16.5,20.07,3.58,0,8.65-.69,8.65-3.69M168.19,968a3.35,3.35,0,0,0-1-.23,2.39,2.39,0,0,0-2,1.5c-1.38,4.5-1.85,6.81-2.19,7.61,0,0.35-.12.35-0.12,0.69a2.41,2.41,0,0,0,1.15,2,25.51,25.51,0,0,0,14.88,4.27c9.23,0,17-4.15,17-14.77,0-9.23-16.27-14.3-16.27-17.07,0-1.5,1.38-1.73,2.88-1.73,3.69,0,4.85.46,5.77,0.81a1.7,1.7,0,0,0,.81.12c1,0,1.27-.58,1.62-1.38l1.85-7.73v-0.46a2.35,2.35,0,0,0-1.27-2.19,25.78,25.78,0,0,0-12.34-2.88c-9.35,0-15.46,4.5-15.46,14.65,0,12,16.27,13.84,16.27,17.88,0,1.27-1.38,1.5-2,1.5a21,21,0,0,1-9.57-2.54m-41.94-39.8c-1.73.35-2.31,0.69-2.31,2.42v9.57c0,1,.58,2.19,2.54,2.19,3.11,0,6.46-.23,12.11-3.35v41.76a2.3,2.3,0,0,0,2.42,2.42h11.31a2.37,2.37,0,0,0,2.42-2.42V919.67a2.36,2.36,0,0,0-2.42-2,4.68,4.68,0,0,0-2.19.46c-8.31,3.92-13.38,7.61-23.88,10" transform="translate(-16.86 -16.81)"/><path class="cls-7" d="M741.37,880.3h-93.9a5,5,0,0,1-4.9-4.39l-14.4-136.46a4.85,4.85,0,1,1,9.65-1L651.94,870.5h85.12l13-131.93a4.85,4.85,0,1,1,9.65,1L746.27,875.91a5,5,0,0,1-4.9,4.39" transform="translate(-16.86 -16.81)"/><path class="cls-7" d="M732.09,766.66a28,28,0,0,1-11.38-2.49,26.91,26.91,0,0,1-22.76,0,26.91,26.91,0,0,1-22.75,0,27.13,27.13,0,0,1-24.2-.88,3.69,3.69,0,0,1-1.44-5,3.57,3.57,0,0,1,4.9-1.46,20.5,20.5,0,0,0,19.3,0,3.62,3.62,0,0,1,3.46,0,20.5,20.5,0,0,0,19.3,0,3.62,3.62,0,0,1,3.46,0,20.5,20.5,0,0,0,19.3,0,3.62,3.62,0,0,1,3.46,0,20.5,20.5,0,0,0,19.3,0,3.54,3.54,0,0,1,4.9,1.46,3.65,3.65,0,0,1-1.44,5,29.79,29.79,0,0,1-13.39,3.36" transform="translate(-16.86 -16.81)"/><path class="cls-7" d="M698.24,793a11.52,11.52,0,1,1-11.52-11.7A11.61,11.61,0,0,1,698.24,793" transform="translate(-16.86 -16.81)"/><path class="cls-7" d="M719.58,822.89a8.75,8.75,0,1,1-8.75-8.88,8.82,8.82,0,0,1,8.75,8.88" transform="translate(-16.86 -16.81)"/><path class="cls-7" d="M693.34,843.8a4.37,4.37,0,1,1-4.37-4.44,4.41,4.41,0,0,1,4.37,4.44" transform="translate(-16.86 -16.81)"/><path class="cls-7" d="M739.89,1015.09v-5.65h12.69a1.31,1.31,0,0,0,1.38-1.38v-6.12a1.35,1.35,0,0,0-1.38-1.38H732.06a1.35,1.35,0,0,0-1.38,1.38v34.59a1.35,1.35,0,0,0,1.38,1.38h20.52a1.31,1.31,0,0,0,1.38-1.38v-5.92a1.35,1.35,0,0,0-1.38-1.38H739.89v-5.46h9.27a1.31,1.31,0,0,0,1.38-1.38v-5.92a1.35,1.35,0,0,0-1.38-1.38h-9.27Zm-37.07,19.6c4,2.89,7.69,3.55,12,3.55,5.52,0,11.31-3.75,11.31-10.59,0-11.64-14.6-11.77-14.6-16.31,0-.46,0-2.57,3-2.57a20.32,20.32,0,0,1,5.59,1.05,4.09,4.09,0,0,0,.72.2,1.73,1.73,0,0,0,1.38-.92l2.1-4.87a2.24,2.24,0,0,0,.07-0.72,1.93,1.93,0,0,0-.79-1.18,20.51,20.51,0,0,0-9.27-2.24c-8.75,0-12,4.27-12,11.24,0,12.56,14.6,11.9,14.6,16.37,0,1.58-.85,2.5-3,2.5a14.87,14.87,0,0,1-7.43-2.17,2,2,0,0,0-.72-0.13,1.36,1.36,0,0,0-1.25.72l-2.24,4.14a1.42,1.42,0,0,0-.13.66,2,2,0,0,0,.72,1.25m-20.35-34.59c-10.52,0-16.57,8.55-16.57,19.07s6,19.07,16.57,19.07c10.32,0,16.44-8.55,16.44-19.07s-6.12-19.07-16.44-19.07m-0.07,30.12c-5.59,0-7.3-5.13-7.3-10.85s1.71-10.59,7.3-10.59,7.3,4.87,7.3,10.59-1.71,10.85-7.3,10.85m-38.32-1v-19.79h1.18c5.59,0,8.81,4.54,8.81,10.13s-3.22,9.67-8.81,9.67h-1.18Zm2.1,8.68c10.52,0,17.1-8,17.1-18.54s-6.58-18.81-17.1-18.81h-9.93a1.35,1.35,0,0,0-1.38,1.38v34.59a1.35,1.35,0,0,0,1.38,1.38h9.93Z" transform="translate(-16.86 -16.81)"/><path class="cls-7" d="M748.31,980.93c0.81,1.85,1.38,2.31,3.35,2.31h6.92a2.37,2.37,0,0,0,2.42-2.42V920.13a2.3,2.3,0,0,0-2.42-2.42H747.28a2.37,2.37,0,0,0-2.42,2.42v19.5a12,12,0,0,0-8.08-3.12c-10.5,0-17.19,10.5-17.19,23.42s6.11,23.88,18.46,23.88c4,0,8-1.5,9.69-5.31ZM740,969.73c-4,0-4.27-4-4.27-9.69,0-5.08.35-8.31,4.38-8.31,4.27,0,4.73,3.23,4.73,8.31,0,5.88-.58,9.69-4.85,9.69m-61.44-32.65a2.37,2.37,0,0,0-2.42,2.42v41.3a2.37,2.37,0,0,0,2.42,2.42h11.31a2.3,2.3,0,0,0,2.42-2.42V959c0-4,.46-7.27,2.65-7.27,2.77,0,2.77,3.23,2.77,7.27v21.8a2.37,2.37,0,0,0,2.42,2.42h11.31a2.3,2.3,0,0,0,2.42-2.42V957.39c0-11-2.31-20.88-15.57-20.88a11.55,11.55,0,0,0-9.92,5.31l-0.58-2.42c-0.81-1.85-1.38-2.31-3.35-2.31h-5.88ZM627,922.55a3.49,3.49,0,0,0-1.27,2.08,3.55,3.55,0,0,0,.23,1.27l3.81,8.31a3,3,0,0,0,2.31,1.73,2.32,2.32,0,0,0,1.27-.35c4.15-1.73,7-3.46,10.73-3.46,6.46,0,6.46,4.27,6.46,5.08,0,10.27-24.57,22.38-24.57,37.73v5.88a2.3,2.3,0,0,0,2.42,2.42h36.46a2.3,2.3,0,0,0,2.42-2.42V970.54a2.37,2.37,0,0,0-2.42-2.42H646.45c10.73-9.23,20.65-23.53,20.65-31.49,0-12.11-6.81-19.73-23.3-19.73-7.73,0-13.27,3.35-16.84,5.65" transform="translate(-16.86 -16.81)"/><path class="cls-7" d="M1251.34,880.3h-93.9a5,5,0,0,1-4.9-4.39l-14.4-136.46a4.85,4.85,0,1,1,9.65-1l14.11,132.07H1247l13-131.93a4.85,4.85,0,1,1,9.65,1l-13.39,136.31a5,5,0,0,1-4.9,4.39" transform="translate(-16.86 -16.81)"/><path class="cls-7" d="M1237.8,767.37a28,28,0,0,1-11.38-2.49,26.91,26.91,0,0,1-22.75,0,26.91,26.91,0,0,1-22.76,0,27.13,27.13,0,0,1-24.2-.88,3.69,3.69,0,0,1-1.44-5,3.57,3.57,0,0,1,4.9-1.46,20.5,20.5,0,0,0,19.3,0,3.62,3.62,0,0,1,3.46,0,20.5,20.5,0,0,0,19.3,0,3.62,3.62,0,0,1,3.46,0,20.5,20.5,0,0,0,19.3,0,3.62,3.62,0,0,1,3.46,0,20.5,20.5,0,0,0,19.3,0,3.54,3.54,0,0,1,4.9,1.46,3.65,3.65,0,0,1-1.44,5,29.78,29.78,0,0,1-13.39,3.36" transform="translate(-16.86 -16.81)"/><path class="cls-7" d="M1204,793.76a11.52,11.52,0,1,1-11.52-11.7,11.61,11.61,0,0,1,11.52,11.7" transform="translate(-16.86 -16.81)"/><path class="cls-7" d="M1225.29,823.61a8.75,8.75,0,1,1-8.75-8.88,8.82,8.82,0,0,1,8.75,8.88" transform="translate(-16.86 -16.81)"/><path class="cls-7" d="M1199.05,844.52a4.37,4.37,0,1,1-4.37-4.44,4.41,4.41,0,0,1,4.37,4.44" transform="translate(-16.86 -16.81)"/><path class="cls-7" d="M1249.86,1015.09v-5.65h12.69a1.31,1.31,0,0,0,1.38-1.38v-6.12a1.35,1.35,0,0,0-1.38-1.38H1242a1.35,1.35,0,0,0-1.38,1.38v34.59a1.35,1.35,0,0,0,1.38,1.38h20.52a1.31,1.31,0,0,0,1.38-1.38v-5.92a1.35,1.35,0,0,0-1.38-1.38h-12.69v-5.46h9.27a1.31,1.31,0,0,0,1.38-1.38v-5.92a1.35,1.35,0,0,0-1.38-1.38h-9.27Zm-37.07,19.6c4,2.89,7.69,3.55,12,3.55,5.52,0,11.31-3.75,11.31-10.59,0-11.64-14.6-11.77-14.6-16.31,0-.46,0-2.57,3-2.57a20.32,20.32,0,0,1,5.59,1.05,4.1,4.1,0,0,0,.72.2,1.73,1.73,0,0,0,1.38-.92l2.1-4.87a2.24,2.24,0,0,0,.07-0.72,1.93,1.93,0,0,0-.79-1.18,20.51,20.51,0,0,0-9.27-2.24c-8.75,0-12,4.27-12,11.24,0,12.56,14.6,11.9,14.6,16.37,0,1.58-.85,2.5-3,2.5a14.87,14.87,0,0,1-7.43-2.17,2,2,0,0,0-.72-0.13,1.36,1.36,0,0,0-1.25.72l-2.24,4.14a1.42,1.42,0,0,0-.13.66,2,2,0,0,0,.72,1.25m-20.35-34.59c-10.52,0-16.57,8.55-16.57,19.07s6,19.07,16.57,19.07c10.32,0,16.44-8.55,16.44-19.07s-6.12-19.07-16.44-19.07m-0.07,30.12c-5.59,0-7.3-5.13-7.3-10.85s1.71-10.59,7.3-10.59,7.3,4.87,7.3,10.59-1.71,10.85-7.3,10.85m-38.32-1v-19.79h1.18c5.59,0,8.81,4.54,8.81,10.13s-3.22,9.67-8.81,9.67H1154Zm2.1,8.68c10.52,0,17.1-8,17.1-18.54s-6.58-18.81-17.1-18.81h-9.93a1.35,1.35,0,0,0-1.38,1.38v34.59a1.35,1.35,0,0,0,1.38,1.38h9.93Z" transform="translate(-16.86 -16.81)"/><path class="cls-7" d="M1249.76,980.92c0.81,1.85,1.39,2.31,3.35,2.31H1260a2.37,2.37,0,0,0,2.42-2.42V920.13a2.3,2.3,0,0,0-2.42-2.42h-11.31a2.37,2.37,0,0,0-2.42,2.42v19.5a12,12,0,0,0-8.08-3.12c-10.5,0-17.19,10.5-17.19,23.42s6.11,23.88,18.46,23.88c4,0,8-1.5,9.69-5.31Zm-8.31-11.19c-4,0-4.27-4-4.27-9.69,0-5.08.35-8.31,4.38-8.31,4.27,0,4.73,3.23,4.73,8.31,0,5.88-.58,9.69-4.85,9.69m-24.69-18.11a2.3,2.3,0,0,0,2.42-2.42V938.93a2.37,2.37,0,0,0-2.42-2.42h-1.5c-3.23.35-7.5,1.27-10.38,5v-2a2.37,2.37,0,0,0-2.42-2.42h-8.08a2.3,2.3,0,0,0-2.42,2.42v41.3a2.3,2.3,0,0,0,2.42,2.42h11.31a2.37,2.37,0,0,0,2.42-2.42v-22c0-3.69,1.61-7.15,7.5-7.15h1.15ZM1143,977.81c4.5,4.27,11.88,6,18.23,6,17.07,0,22.38-8.88,22.38-22.26,0-8-3.23-15.34-11.19-18.11l11-22.5a3.38,3.38,0,0,0,.23-1,2.22,2.22,0,0,0-2.31-2.19H1145a2.37,2.37,0,0,0-2.42,2.42v10.73a2.3,2.3,0,0,0,2.42,2.42h14.31l-9.23,19.5a2.11,2.11,0,0,0,2,2,33,33,0,0,1,5.65-.35c4.5,0,9.81,1.73,9.81,7.27,0,4.15-1.61,8.07-6.81,8.07a21.56,21.56,0,0,1-10.84-2.65,5.9,5.9,0,0,0-1-.23,2.2,2.2,0,0,0-1.5.58l-4.5,7.5a2.07,2.07,0,0,0-.35,1.27,2.75,2.75,0,0,0,.58,1.61" transform="translate(-16.86 -16.81)"/></g><polygon class="cls-8" points="411.24 869.15 348.64 625.04 286.04 625.04 348.64 869.15 348.64 869.15 286.04 1113.26 348.64 1113.26 411.24 869.15 411.24 869.15"/><polygon class="cls-9" points="473.64 869.15 411.04 625.04 348.45 625.04 411.04 869.15 411.04 869.15 348.45 1113.26 411.04 1113.26 473.64 869.15 473.64 869.15"/><polygon class="cls-10" points="536.04 869.15 473.45 625.04 410.85 625.04 473.45 869.15 473.45 869.15 410.85 1113.26 473.45 1113.26 536.04 869.15 536.04 869.15"/><g class="cls-12"><path class="cls-7" d="M507.84,932.9a2.1,2.1,0,0,0-.65-0.14,1.49,1.49,0,0,0-1.22.94c-0.86,2.81-1.15,4.25-1.37,4.75,0,0.22-.07.22-0.07,0.43a1.5,1.5,0,0,0,.72,1.22,15.92,15.92,0,0,0,9.29,2.66c5.76,0,10.58-2.59,10.58-9.22,0-5.76-10.15-8.93-10.15-10.66,0-.94.86-1.08,1.8-1.08a8.65,8.65,0,0,1,3.6.5,1.07,1.07,0,0,0,.5.07,1,1,0,0,0,1-.86L523,916.7v-0.29a1.47,1.47,0,0,0-.79-1.37,16.09,16.09,0,0,0-7.7-1.8c-5.83,0-9.65,2.81-9.65,9.14,0,7.49,10.15,8.64,10.15,11.16a1.09,1.09,0,0,1-1.22.94,13.11,13.11,0,0,1-6-1.58m-7.15-17.57a1.5,1.5,0,0,0-1.51-1.73h-7.42a2.32,2.32,0,0,0-2.3,1.37L486,921.81V903a1.48,1.48,0,0,0-1.51-1.51h-7.06a1.44,1.44,0,0,0-1.51,1.51v37.87a1.44,1.44,0,0,0,1.51,1.51h7.06a1.48,1.48,0,0,0,1.51-1.51v-7.49l3.67,7.7a2.35,2.35,0,0,0,2.3,1.3h7.13a1.5,1.5,0,0,0,1.51-1.73l-6.41-12.89Zm-43,6.84c1.15,0,1.94.72,2,3.24h-4c0.22-2.59.58-3.24,1.94-3.24m12,4.9c0-9.29-4.1-13.82-12.1-13.82-9.86,0-11.88,6.48-11.88,14.47,0,11,5.69,15,13.82,15,3.74,0,6.26-.94,8.21-3.6a2.23,2.23,0,0,0,.36-1.22,1.91,1.91,0,0,0-.36-1l-1.94-3.24a1.13,1.13,0,0,0-.94-0.5,0.54,0.54,0,0,0-.36.07c-2.52,1.15-2.66,1.22-5,1.22-1.94,0-3-.36-3.53-3.53h12.17a1.48,1.48,0,0,0,1.51-1.51v-2.38Zm-40.56-4.9c1.15,0,1.94.72,2,3.24h-4c0.22-2.59.58-3.24,1.94-3.24m12,4.9c0-9.29-4.1-13.82-12.1-13.82-9.86,0-11.88,6.48-11.88,14.47,0,11,5.69,15,13.82,15,3.74,0,6.26-.94,8.21-3.6a2.23,2.23,0,0,0,.36-1.22,1.91,1.91,0,0,0-.36-1l-1.94-3.24a1.13,1.13,0,0,0-.94-0.5,0.54,0.54,0,0,0-.36.07c-2.52,1.15-2.66,1.22-5,1.22-1.94,0-3-.36-3.53-3.53h12.17a1.48,1.48,0,0,0,1.51-1.51v-2.38ZM400.81,941.4a3.23,3.23,0,0,0,2.16,1.15,3.2,3.2,0,0,0,2.09-1l9.5-26.06a1.67,1.67,0,0,0-1.73-1.87h-6.55a2.26,2.26,0,0,0-2.3,1.58l-3,8.28-3.53-9.07a2.34,2.34,0,0,0-4,0l-3.53,9.07-3-8.28a2.26,2.26,0,0,0-2.3-1.58h-6.55a1.67,1.67,0,0,0-1.73,1.87l9.5,26.06a3.2,3.2,0,0,0,2.09,1,3.23,3.23,0,0,0,2.16-1.15l5.33-11.74Z" transform="translate(-16.86 -16.81)"/><path class="cls-7" d="M486.38,855.24a1.5,1.5,0,0,0-1.51-1.73h-7.06a2.49,2.49,0,0,0-2.3,1.44L467,873.31a15.28,15.28,0,0,0-1.59,6.41c0,10,5.9,15,14.18,15s14.4-5,14.4-15c0-7.85-5.33-13-12.24-14Zm-6.7,19.66c2.81,0,4.25,2,4.25,5.18,0,3.82-1.08,5.9-4.25,5.9s-4.18-2.09-4.18-5.9c0-3.17,1.37-5.18,4.18-5.18M457,877.27a1.44,1.44,0,0,0-1.51-1.51H436.75a1.48,1.48,0,0,0-1.51,1.51v5.54a1.48,1.48,0,0,0,1.51,1.51h18.72a1.44,1.44,0,0,0,1.51-1.51v-5.54Zm-48.75-17.21c-1.08.22-1.44,0.43-1.44,1.51v6a1.35,1.35,0,0,0,1.58,1.37,13.87,13.87,0,0,0,7.56-2.09v26.06a1.44,1.44,0,0,0,1.51,1.51h7.06a1.48,1.48,0,0,0,1.51-1.51V854.73a1.47,1.47,0,0,0-1.51-1.22,2.92,2.92,0,0,0-1.37.29c-5.18,2.45-8.35,4.75-14.9,6.26" transform="translate(-16.86 -16.81)"/></g><polygon class="cls-8" points="868.96 625.04 806.36 625.04 868.96 869.15 868.96 869.15 806.36 1113.26 868.96 1113.26 931.55 869.15 868.96 625.04"/><polygon class="cls-9" points="993.96 869.15 931.36 625.04 868.76 625.04 931.36 869.15 868.76 1113.26 931.36 1113.26 993.96 869.15 993.96 869.15"/><polygon class="cls-10" points="1056.36 869.15 993.77 625.04 931.17 625.04 993.77 869.15 993.77 869.15 931.17 1113.26 993.77 1113.26 1056.36 869.15 1056.36 869.15"/><g class="cls-12"><path class="cls-7" d="M1028.16,932.9a2.1,2.1,0,0,0-.65-0.14,1.49,1.49,0,0,0-1.22.94c-0.86,2.81-1.15,4.25-1.37,4.75,0,0.22-.07.22-0.07,0.43a1.5,1.5,0,0,0,.72,1.22,15.92,15.92,0,0,0,9.29,2.66c5.76,0,10.58-2.59,10.58-9.22,0-5.76-10.15-8.93-10.15-10.66,0-.94.86-1.08,1.8-1.08a8.65,8.65,0,0,1,3.6.5,1.07,1.07,0,0,0,.5.07,1,1,0,0,0,1-.86l1.15-4.82v-0.29a1.47,1.47,0,0,0-.79-1.37,16.09,16.09,0,0,0-7.7-1.8c-5.83,0-9.65,2.81-9.65,9.14,0,7.49,10.15,8.64,10.15,11.16a1.09,1.09,0,0,1-1.22.94,13.11,13.11,0,0,1-6-1.58M1021,915.33a1.5,1.5,0,0,0-1.51-1.73h-7.42a2.32,2.32,0,0,0-2.3,1.37l-3.46,6.84V903a1.48,1.48,0,0,0-1.51-1.51h-7.06a1.44,1.44,0,0,0-1.51,1.51v37.87a1.44,1.44,0,0,0,1.51,1.51h7.06a1.48,1.48,0,0,0,1.51-1.51v-7.49l3.67,7.7a2.35,2.35,0,0,0,2.3,1.3h7.13a1.5,1.5,0,0,0,1.51-1.73l-6.41-12.89Zm-43,6.84c1.15,0,1.94.72,2,3.24h-4c0.22-2.59.58-3.24,1.94-3.24m12,4.9c0-9.29-4.1-13.82-12.1-13.82-9.86,0-11.88,6.48-11.88,14.47,0,11,5.69,15,13.82,15,3.74,0,6.26-.94,8.21-3.6a2.23,2.23,0,0,0,.36-1.22,1.91,1.91,0,0,0-.36-1l-1.94-3.24a1.13,1.13,0,0,0-.94-0.5,0.54,0.54,0,0,0-.36.07c-2.52,1.15-2.66,1.22-5,1.22-1.94,0-3-.36-3.53-3.53h12.17a1.48,1.48,0,0,0,1.51-1.51v-2.38Zm-40.56-4.9c1.15,0,1.94.72,2,3.24h-4c0.22-2.59.58-3.24,1.94-3.24m12,4.9c0-9.29-4.1-13.82-12.1-13.82-9.86,0-11.88,6.48-11.88,14.47,0,11,5.69,15,13.82,15,3.74,0,6.26-.94,8.21-3.6a2.23,2.23,0,0,0,.36-1.22,1.91,1.91,0,0,0-.36-1l-1.94-3.24a1.13,1.13,0,0,0-.94-0.5,0.54,0.54,0,0,0-.36.07c-2.52,1.15-2.66,1.22-5,1.22-1.94,0-3-.36-3.53-3.53H960a1.48,1.48,0,0,0,1.51-1.51v-2.38ZM921.13,941.4a2.63,2.63,0,0,0,4.25.14l9.5-26.06a1.67,1.67,0,0,0-1.73-1.87H926.6a2.26,2.26,0,0,0-2.3,1.58l-3,8.28-3.53-9.07a2.34,2.34,0,0,0-4,0l-3.53,9.07-3-8.28a2.26,2.26,0,0,0-2.3-1.58h-6.55a1.67,1.67,0,0,0-1.73,1.87l9.5,26.06a3.2,3.2,0,0,0,2.09,1,3.23,3.23,0,0,0,2.16-1.15l5.33-11.74Z" transform="translate(-16.86 -16.81)"/><path class="cls-7" d="M1006.7,855.24a1.5,1.5,0,0,0-1.51-1.73h-7.05a2.49,2.49,0,0,0-2.3,1.44l-8.5,18.36a15.3,15.3,0,0,0-1.58,6.41c0,10,5.9,15,14.18,15s14.4-5,14.4-15c0-7.85-5.33-13-12.24-14Zm-6.7,19.66c2.81,0,4.25,2,4.25,5.18,0,3.82-1.08,5.9-4.25,5.9s-4.18-2.09-4.18-5.9c0-3.17,1.37-5.18,4.18-5.18m-22.7,2.38a1.44,1.44,0,0,0-1.51-1.51H957.07a1.48,1.48,0,0,0-1.51,1.51v5.54a1.48,1.48,0,0,0,1.51,1.51h18.72a1.44,1.44,0,0,0,1.51-1.51v-5.54Zm-48.75-17.21c-1.08.22-1.44,0.43-1.44,1.51v6a1.35,1.35,0,0,0,1.58,1.37,13.87,13.87,0,0,0,7.56-2.09v26.06a1.44,1.44,0,0,0,1.51,1.51h7.06a1.48,1.48,0,0,0,1.51-1.51V854.73a1.47,1.47,0,0,0-1.51-1.22,2.92,2.92,0,0,0-1.37.29c-5.18,2.45-8.35,4.75-14.9,6.26" transform="translate(-16.86 -16.81)"/></g></g></svg>