<svg id="Layer_1" data-name="Layer 1" xmlns="http://www.w3.org/2000/svg" viewBox="0 0 572.99 231.65"><defs><style>.cls-1,.cls-2,.cls-6,.cls-8{fill:none;stroke-miterlimit:10;}.cls-1{stroke:#eb8b2e;}.cls-1,.cls-6{stroke-width:10px;}.cls-2,.cls-6,.cls-8{stroke:#b4b3b3;}.cls-2{stroke-width:9px;}.cls-3{fill:#b4b3b3;}.cls-4{fill:#464f55;}.cls-5{fill:#fff;}.cls-6,.cls-8{stroke-linecap:round;}.cls-7{fill:#fdc500;}.cls-8{stroke-width:11.05px;}</style></defs><title>2.1.4_graph</title><path class="cls-1" d="M286.62,247.53V202.42s-1.57-16.07,16.82-16.07H629.21s17-1.5,17,16.28V305.69" transform="translate(-142.92 -181.32)"/><path class="cls-2" d="M331.44,269.41h12.48s8.33-.19,8.33-8.59S355.79,248,365,248h29.29" transform="translate(-142.92 -181.32)"/><path class="cls-2" d="M331.44,284.32h12.48s8.33,0.19,8.33,8.59,3.54,12.77,12.77,12.77h29.29" transform="translate(-142.92 -181.32)"/><rect class="cls-3" x="244.29" y="52.81" width="80.52" height="26.95"/><rect class="cls-3" x="352.31" y="46" width="87.56" height="39.3"/><path class="cls-4" d="M398.68,242h4.57a2.75,2.75,0,0,1,3,2.87c0,1.77-1.16,2.7-3,2.83l3.3,4.62h-1.25L402,247.71h-2.35v4.58h-1V242Zm1,4.84h3.06c2.09,0,2.55-1.06,2.55-2,0-1.2-.64-2-2.39-2h-3.22v3.94Z" transform="translate(-142.92 -181.32)"/><path class="cls-4" d="M407.87,248.78V249c0,1.55.68,2.68,2.23,2.68a2.24,2.24,0,0,0,2.26-1.48l0.81,0.22a3.2,3.2,0,0,1-3.15,2.07c-1.74,0-3.15-1.28-3.15-3.65s1.41-3.65,3.15-3.65c2.06,0,3.07,1.57,3.15,3.62h-5.31Zm4.32-.72a2.16,2.16,0,0,0-4.32,0h4.32Z" transform="translate(-142.92 -181.32)"/><path class="cls-4" d="M414.45,245.33h0.87v1.12h0a2,2,0,0,1,1.93-1.29,1.81,1.81,0,0,1,2,1.52h0a2.15,2.15,0,0,1,2.17-1.52c2,0,2,1.7,2,2.54v4.59h-0.87V247.8c0-.78,0-1.83-1.33-1.83s-1.88,1.1-1.88,2.45v3.87h-0.87v-4.38c0-.9-0.09-1.94-1.33-1.94-1.07,0-1.88,1-1.88,2.49v3.83h-0.87v-7Z" transform="translate(-142.92 -181.32)"/><path class="cls-4" d="M425.21,242.46h0.87v1.36h-0.87v-1.36Zm0,2.87h0.87v7h-0.87v-7Z" transform="translate(-142.92 -181.32)"/><path class="cls-4" d="M428,250.36a1.85,1.85,0,0,0,2,1.38,1.47,1.47,0,0,0,1.7-1.42c0-2.07-4.12-.48-4.12-3.25,0-1,.83-1.91,2.38-1.91,1.36,0,2.29.41,2.62,1.58l-0.83.2a1.49,1.49,0,0,0-1.67-1.06c-1.3,0-1.64.52-1.64,1.22,0,1.8,4.12.45,4.12,3.25,0,1.15-1,2.12-2.7,2.12a2.66,2.66,0,0,1-2.73-1.84Z" transform="translate(-142.92 -181.32)"/><path class="cls-4" d="M434.26,250.36a1.85,1.85,0,0,0,2,1.38,1.47,1.47,0,0,0,1.7-1.42c0-2.07-4.12-.48-4.12-3.25,0-1,.83-1.91,2.38-1.91,1.36,0,2.29.41,2.62,1.58l-0.83.2a1.49,1.49,0,0,0-1.67-1.06c-1.3,0-1.64.52-1.64,1.22,0,1.8,4.12.45,4.12,3.25,0,1.15-1,2.12-2.7,2.12a2.66,2.66,0,0,1-2.73-1.84Z" transform="translate(-142.92 -181.32)"/><path class="cls-4" d="M440.22,242.46h0.87v1.36h-0.87v-1.36Zm0,2.87h0.87v7h-0.87v-7Z" transform="translate(-142.92 -181.32)"/><path class="cls-4" d="M445.44,245.16c1.74,0,3.15,1.28,3.15,3.65s-1.41,3.65-3.15,3.65-3.15-1.28-3.15-3.65S443.7,245.16,445.44,245.16Zm-2.28,3.65c0,1.8,1,2.84,2.28,2.84s2.28-1,2.28-2.84-1-2.84-2.28-2.84S443.16,247,443.16,248.81Z" transform="translate(-142.92 -181.32)"/><path class="cls-4" d="M449.79,245.33h0.87v1h0a2.43,2.43,0,0,1,4.52,1.23v4.71h-0.87v-4.45c0-1.41-.59-1.87-1.7-1.87a2,2,0,0,0-2,2.26v4.06h-0.87v-7Z" transform="translate(-142.92 -181.32)"/><rect class="cls-3" x="244.29" y="109.86" width="78.86" height="26.95"/><rect class="cls-3" x="244.29" y="159.39" width="314.54" height="72.26"/><circle class="cls-3" cx="29.49" cy="94.81" r="29.49"/><circle class="cls-3" cx="503.33" cy="66" r="29.49"/><path class="cls-4" d="M170.93,262.63a2.74,2.74,0,0,0-3-2.26c-2.3,0-3.45,1.81-3.45,4.52,0,3.29,1.52,4.52,3.61,4.52a2.81,2.81,0,0,0,2.9-2.19l0.94,0.51a3.88,3.88,0,0,1-4,2.58c-2.45,0-4.41-1.54-4.41-5.42s2.09-5.42,4.33-5.42a3.9,3.9,0,0,1,4.1,2.67Z" transform="translate(-142.92 -181.32)"/><path class="cls-4" d="M173.21,259.73h4.06c3.16,0,4.07,2.9,4.07,5.16s-1,5.16-4.35,5.16h-3.78V259.73Zm1,9.42h2.74c2.57,0,3.42-2.19,3.42-4.26,0-1.91-.8-4.26-3.22-4.26h-2.94v8.52Z" transform="translate(-142.92 -181.32)"/><path class="cls-4" d="M151.37,282.1h0a2.13,2.13,0,0,1-2,1.12c-1.3,0-2.93-1-2.93-3.57s1.32-3.74,2.91-3.74a2.23,2.23,0,0,1,2,1.09h0v-4.28h0.87V283h-0.87V282.1Zm-2,.3c1.62,0,2.06-1.48,2.06-2.84s-0.35-2.84-2-2.84c-1.3,0-2.16,1.09-2.16,2.84S148.11,282.41,149.35,282.41Z" transform="translate(-142.92 -181.32)"/><path class="cls-4" d="M153.88,273.22h0.87v1.36h-0.87v-1.36Zm0,2.87h0.87v7h-0.87v-7Z" transform="translate(-142.92 -181.32)"/><path class="cls-4" d="M162.45,283.13c-1.07,0-1.73,0-1.81-1.22h0a2.56,2.56,0,0,1-2.44,1.3,1.94,1.94,0,0,1-2.22-1.84c0-1.48,1.29-1.91,2.49-2.22l2.13-.55v-0.7c0-.9-0.64-1.28-1.74-1.28a1.52,1.52,0,0,0-1.73,1.68l-1-.17a2.5,2.5,0,0,1,2.74-2.23c2.58,0,2.58,1.49,2.58,2.17v3.41c0,0.9.41,0.91,1,.91v0.72Zm-4.2-.72a2.26,2.26,0,0,0,2.33-2.25v-0.8l-2.51.7a1.36,1.36,0,0,0-1.25,1.3A1.22,1.22,0,0,0,158.24,282.41Z" transform="translate(-142.92 -181.32)"/><path class="cls-4" d="M163.65,284a1.92,1.92,0,0,0,2.16,1.87c1.22,0,2.19-.3,2.19-2.41V282a2.51,2.51,0,0,1-2.29,1.26c-1.23,0-3-1-3-3.57s1.32-3.74,2.91-3.74a2.37,2.37,0,0,1,2.32,1.32h0v-1.15h0.87v7.26c0,1.43-.23,3.29-3.06,3.29-1.78,0-2.86-.65-3-2.49Zm2.12-7.23c-1.3,0-2.16,1.09-2.16,2.84s0.86,2.84,2.16,2.84c1.68,0,2.2-1.17,2.2-2.71S167.59,276.73,165.77,276.73Z" transform="translate(-142.92 -181.32)"/><path class="cls-4" d="M170.51,276.09h0.87v1h0a2.43,2.43,0,0,1,4.52,1.23V283h-0.87V278.6c0-1.41-.59-1.87-1.7-1.87a2,2,0,0,0-2,2.26V283h-0.87v-7Z" transform="translate(-142.92 -181.32)"/><path class="cls-4" d="M180.28,275.92c1.74,0,3.15,1.28,3.15,3.65s-1.41,3.65-3.15,3.65-3.15-1.28-3.15-3.65S178.54,275.92,180.28,275.92ZM178,279.57c0,1.8,1,2.84,2.28,2.84s2.28-1,2.28-2.84-1-2.84-2.28-2.84S178,277.79,178,279.57Z" transform="translate(-142.92 -181.32)"/><path class="cls-4" d="M184.92,281.12a1.85,1.85,0,0,0,2,1.38,1.47,1.47,0,0,0,1.7-1.42c0-2.07-4.12-.48-4.12-3.25,0-1,.83-1.91,2.38-1.91,1.36,0,2.29.41,2.62,1.58l-0.83.2a1.49,1.49,0,0,0-1.67-1.06c-1.3,0-1.64.52-1.64,1.22,0,1.8,4.12.45,4.12,3.25,0,1.15-1,2.12-2.7,2.12a2.66,2.66,0,0,1-2.73-1.84Z" transform="translate(-142.92 -181.32)"/><path class="cls-4" d="M190.88,273.22h0.87v1.36h-0.87v-1.36Zm0,2.87h0.87v7h-0.87v-7Z" transform="translate(-142.92 -181.32)"/><path class="cls-4" d="M193.68,281.12a1.85,1.85,0,0,0,2,1.38,1.47,1.47,0,0,0,1.7-1.42c0-2.07-4.12-.48-4.12-3.25,0-1,.83-1.91,2.38-1.91,1.36,0,2.29.41,2.62,1.58l-0.83.2a1.49,1.49,0,0,0-1.67-1.06c-1.3,0-1.64.52-1.64,1.22,0,1.8,4.12.45,4.12,3.25,0,1.15-1,2.12-2.7,2.12a2.66,2.66,0,0,1-2.73-1.84Z" transform="translate(-142.92 -181.32)"/><path class="cls-5" d="M500.11,197.54h4.06c3.16,0,4.07,2.9,4.07,5.16s-1,5.16-4.35,5.16h-3.78V197.54Zm1,9.42h2.74c2.57,0,3.42-2.19,3.42-4.26,0-1.91-.8-4.26-3.22-4.26H501.1V207Z" transform="translate(-142.92 -181.32)"/><path class="cls-5" d="M510.16,204.36v0.19c0,1.55.68,2.68,2.23,2.68a2.24,2.24,0,0,0,2.26-1.48l0.81,0.22a3.2,3.2,0,0,1-3.15,2.07c-1.74,0-3.15-1.28-3.15-3.65s1.41-3.65,3.15-3.65c2.06,0,3.07,1.57,3.15,3.62h-5.31Zm4.32-.72a2.16,2.16,0,0,0-4.32,0h4.32Z" transform="translate(-142.92 -181.32)"/><path class="cls-5" d="M516.67,197.54h0.87v10.32h-0.87V197.54Z" transform="translate(-142.92 -181.32)"/><path class="cls-5" d="M525.24,208c-1.07,0-1.73,0-1.81-1.22h0A2.56,2.56,0,0,1,521,208a1.94,1.94,0,0,1-2.22-1.84c0-1.48,1.29-1.91,2.49-2.22l2.13-.55v-0.7c0-.9-0.64-1.28-1.74-1.28a1.52,1.52,0,0,0-1.73,1.68l-1-.17a2.5,2.5,0,0,1,2.74-2.23c2.58,0,2.58,1.49,2.58,2.17v3.41c0,0.9.41,0.91,1,.91V208Zm-4.2-.72a2.26,2.26,0,0,0,2.33-2.25v-0.8l-2.51.7a1.36,1.36,0,0,0-1.25,1.3A1.22,1.22,0,0,0,521,207.23Z" transform="translate(-142.92 -181.32)"/><path class="cls-5" d="M525.2,200.91H526l2,5.86h0l2.29-5.86h0.83l-3.44,8.83c-0.3.8-.62,1.72-1.7,1.72a2.28,2.28,0,0,1-.93-0.26v-0.9a2,2,0,0,0,.9.35,1.16,1.16,0,0,0,.87-0.94l0.71-1.83Z" transform="translate(-142.92 -181.32)"/><path class="cls-5" d="M532.5,204.36v0.19c0,1.55.68,2.68,2.23,2.68a2.24,2.24,0,0,0,2.26-1.48l0.81,0.22a3.2,3.2,0,0,1-3.15,2.07c-1.74,0-3.15-1.28-3.15-3.65s1.41-3.65,3.15-3.65c2.06,0,3.07,1.57,3.15,3.62H532.5Zm4.32-.72a2.16,2.16,0,0,0-4.32,0h4.32Z" transform="translate(-142.92 -181.32)"/><path class="cls-5" d="M543.57,206.92h0a2.13,2.13,0,0,1-2,1.12c-1.3,0-2.93-1-2.93-3.57s1.32-3.74,2.91-3.74a2.23,2.23,0,0,1,2,1.09h0v-4.28h0.87v10.32h-0.87v-0.94Zm-2,.3c1.62,0,2.06-1.48,2.06-2.84s-0.35-2.84-2-2.84c-1.3,0-2.16,1.09-2.16,2.84S540.3,207.23,541.55,207.23Z" transform="translate(-142.92 -181.32)"/><path class="cls-5" d="M553.2,210.59c-2.42-1.35-3.52-4.15-3.52-6.9s1-5.55,3.52-6.9v0.75a8.71,8.71,0,0,0,0,12.29v0.75Z" transform="translate(-142.92 -181.32)"/><path class="cls-5" d="M561.13,204.59L553.79,208v-0.8l6.45-3-6.45-3v-0.8l7.33,3.39v0.78Z" transform="translate(-142.92 -181.32)"/><path class="cls-5" d="M568.12,200a1.83,1.83,0,0,0-2.07-1.81c-2.3,0-2.74,2-2.94,4.12h0a3.3,3.3,0,0,1,2.62-1.39c1.55,0,3.44.84,3.44,3.67a3.27,3.27,0,0,1-3.51,3.46c-2.7,0-3.57-2.29-3.57-5,0-5,2.32-5.68,3.94-5.68a2.88,2.88,0,0,1,3,2.3Zm-5,4.28a2.73,2.73,0,0,0,2.61,3,2.44,2.44,0,0,0,2.49-2.67c0-1.36-.58-2.84-2.39-2.84A2.58,2.58,0,0,0,563.1,204.27Z" transform="translate(-142.92 -181.32)"/><path class="cls-5" d="M574.32,200.91h0.87V202h0a2,2,0,0,1,1.93-1.29,1.81,1.81,0,0,1,2,1.52h0a2.15,2.15,0,0,1,2.17-1.52c2,0,2,1.7,2,2.54v4.59H582.5v-4.49c0-.78,0-1.83-1.33-1.83s-1.88,1.1-1.88,2.45v3.87h-0.87v-4.38c0-.9-0.09-1.94-1.33-1.94-1.07,0-1.88,1-1.88,2.49v3.83h-0.87v-7Z" transform="translate(-142.92 -181.32)"/><path class="cls-5" d="M587.79,200.73c1.74,0,3.15,1.28,3.15,3.65s-1.41,3.65-3.15,3.65-3.15-1.28-3.15-3.65S586.05,200.73,587.79,200.73Zm-2.28,3.65c0,1.8,1,2.84,2.28,2.84s2.28-1,2.28-2.84-1-2.84-2.28-2.84S585.52,202.6,585.52,204.38Z" transform="translate(-142.92 -181.32)"/><path class="cls-5" d="M592.14,200.91H593v1h0a2.43,2.43,0,0,1,4.52,1.23v4.71h-0.87v-4.45c0-1.41-.59-1.87-1.7-1.87a2,2,0,0,0-2,2.26v4.06h-0.87v-7Z" transform="translate(-142.92 -181.32)"/><path class="cls-5" d="M598.41,200.91h1.42v-3h0.87v3h1.51v0.72H600.7v4.6c0,0.52,0,1,.51,1a1.63,1.63,0,0,0,1-.35v0.87A2.83,2.83,0,0,1,601,208a1.1,1.1,0,0,1-1.19-1.23v-5.17h-1.42v-0.72Z" transform="translate(-142.92 -181.32)"/><path class="cls-5" d="M603,197.54h0.87v4.39h0a2.43,2.43,0,0,1,4.52,1.22v4.71H607.6v-4.45c0-1.41-.59-1.87-1.7-1.87a2,2,0,0,0-2,2.26v4.06H603V197.54Z" transform="translate(-142.92 -181.32)"/><path class="cls-5" d="M610.4,205.94a1.85,1.85,0,0,0,2,1.38,1.47,1.47,0,0,0,1.7-1.42c0-2.07-4.12-.48-4.12-3.25,0-1,.83-1.91,2.38-1.91,1.36,0,2.29.41,2.62,1.58l-0.83.2a1.49,1.49,0,0,0-1.67-1.06c-1.3,0-1.64.52-1.64,1.22,0,1.8,4.12.45,4.12,3.25,0,1.15-1,2.12-2.7,2.12a2.66,2.66,0,0,1-2.73-1.84Z" transform="translate(-142.92 -181.32)"/><path class="cls-5" d="M615.55,209.83a8.71,8.71,0,0,0,0-12.29v-0.75c2.42,1.35,3.52,4.15,3.52,6.9s-1,5.55-3.52,6.9v-0.75Z" transform="translate(-142.92 -181.32)"/><path class="cls-5" d="M675.85,263.39h5.75v0.81h-4.91v3.28h4.43v0.81h-4.43v3.56h5.17v0.81h-6v-9.26Z" transform="translate(-142.92 -181.32)"/><path class="cls-5" d="M688.06,272.72c-0.91,0-1.47,0-1.54-1.09h0a2.16,2.16,0,0,1-2.07,1.17,1.68,1.68,0,0,1-1.89-1.65c0-1.33,1.1-1.72,2.12-2l1.81-.49V268c0-.81-0.54-1.14-1.48-1.14a1.32,1.32,0,0,0-1.47,1.51l-0.84-.16a2.16,2.16,0,0,1,2.33-2c2.2,0,2.2,1.34,2.2,2v3.06c0,0.81.35,0.82,0.85,0.82v0.65Zm-3.58-.65a2,2,0,0,0,2-2v-0.71l-2.13.62a1.19,1.19,0,0,0-1.06,1.17A1,1,0,0,0,684.48,272.07Z" transform="translate(-142.92 -181.32)"/><path class="cls-5" d="M688.7,266.4h0.74v0.87h0a1.77,1.77,0,0,1,1.6-1l0.53,0v0.68a2.2,2.2,0,0,0-.49-0.05c-1.15,0-1.67.88-1.67,2.16v3.59H688.7V266.4Z" transform="translate(-142.92 -181.32)"/><path class="cls-5" d="M692,263.39h0.74v9.26H692v-9.26Z" transform="translate(-142.92 -181.32)"/><path class="cls-5" d="M693.39,266.4h0.69l1.72,5.25h0l2-5.25h0.7l-2.92,7.92c-0.26.72-.53,1.55-1.44,1.55a1.86,1.86,0,0,1-.79-0.23v-0.81a1.65,1.65,0,0,0,.76.31,1,1,0,0,0,.74-0.84l0.6-1.64Z" transform="translate(-142.92 -181.32)"/><path class="cls-5" d="M660.67,289.09c-2.06-1.21-3-3.72-3-6.19s0.89-5,3-6.19v0.68a8.11,8.11,0,0,0,0,11v0.68Z" transform="translate(-142.92 -181.32)"/><path class="cls-5" d="M667.33,286.75l-6.25-3V283l6.25-3v0.72l-5.49,2.68,5.49,2.68v0.71Z" transform="translate(-142.92 -181.32)"/><path class="cls-5" d="M673.2,279.58a1.58,1.58,0,0,0-1.77-1.62c-2,0-2.33,1.83-2.51,3.69h0a2.77,2.77,0,0,1,2.23-1.25c1.32,0,2.92.75,2.92,3.29a2.86,2.86,0,0,1-3,3.11c-2.3,0-3-2.05-3-4.47,0-4.47,2-5.1,3.36-5.1A2.48,2.48,0,0,1,674,279.3Zm-4.27,3.83a2.4,2.4,0,0,0,2.22,2.65,2.13,2.13,0,0,0,2.12-2.39c0-1.22-.49-2.55-2-2.55A2.25,2.25,0,0,0,668.93,283.42Z" transform="translate(-142.92 -181.32)"/><path class="cls-5" d="M678.32,280.4h0.74v1h0a1.71,1.71,0,0,1,1.64-1.16,1.56,1.56,0,0,1,1.7,1.37h0a1.84,1.84,0,0,1,1.85-1.37c1.72,0,1.72,1.52,1.72,2.28v4.12h-0.74v-4c0-.7,0-1.64-1.14-1.64s-1.6,1-1.6,2.2v3.47H681.8v-3.93c0-.81-0.07-1.74-1.14-1.74s-1.6.86-1.6,2.24v3.43h-0.74V280.4Z" transform="translate(-142.92 -181.32)"/><path class="cls-5" d="M689.7,280.25c1.48,0,2.68,1.14,2.68,3.28s-1.2,3.28-2.68,3.28-2.68-1.14-2.68-3.28S688.22,280.25,689.7,280.25Zm-1.94,3.28c0,1.61.84,2.55,1.94,2.55s1.94-.94,1.94-2.55S690.8,281,689.7,281,687.76,281.92,687.76,283.52Z" transform="translate(-142.92 -181.32)"/><path class="cls-5" d="M693.32,280.4h0.74v0.91h0a1.85,1.85,0,0,1,1.77-1.07,1.92,1.92,0,0,1,2.09,2.17v4.23H697.2v-4c0-1.26-.51-1.68-1.44-1.68a1.75,1.75,0,0,0-1.69,2v3.64h-0.74V280.4Z" transform="translate(-142.92 -181.32)"/><path class="cls-5" d="M698.57,280.4h1.21v-2.67h0.74v2.67h1.28v0.65h-1.28v4.12c0,0.47,0,.9.43,0.9a1.35,1.35,0,0,0,.81-0.31v0.78a2.32,2.32,0,0,1-1,.26,1,1,0,0,1-1-1.11v-4.64h-1.21V280.4Z" transform="translate(-142.92 -181.32)"/><path class="cls-5" d="M702.43,277.39h0.74v3.94h0a1.85,1.85,0,0,1,1.77-1.08,1.92,1.92,0,0,1,2.09,2.17v4.23h-0.74v-4c0-1.26-.51-1.68-1.44-1.68a1.75,1.75,0,0,0-1.69,2v3.64h-0.74v-9.26Z" transform="translate(-142.92 -181.32)"/><path class="cls-5" d="M708.61,284.91a1.58,1.58,0,0,0,1.72,1.24,1.27,1.27,0,0,0,1.44-1.27c0-1.86-3.51-.43-3.51-2.91a1.8,1.8,0,0,1,2-1.72,2,2,0,0,1,2.23,1.42l-0.7.18a1.27,1.27,0,0,0-1.42-.95c-1.11,0-1.39.47-1.39,1.09,0,1.61,3.51.4,3.51,2.91a2,2,0,0,1-2.3,1.9,2.26,2.26,0,0,1-2.32-1.65Z" transform="translate(-142.92 -181.32)"/><path class="cls-5" d="M712.91,288.41a8.11,8.11,0,0,0,0-11v-0.68c2.06,1.21,3,3.72,3,6.19s-0.89,5-3,6.19v-0.68Z" transform="translate(-142.92 -181.32)"/><path class="cls-4" d="M482.34,358.12l4,10.32h-1.06l-1.16-3.1h-4.54l-1.23,3.1h-1l4.2-10.32h0.8Zm1.46,6.41-1.91-5.09-2,5.09h3.88Z" transform="translate(-142.92 -181.32)"/><path class="cls-4" d="M487.79,362.21h-1.52v-0.72h1.52v-2.2c0-1,.71-1.42,1.71-1.42a2,2,0,0,1,.77.14v0.83a1.57,1.57,0,0,0-.8-0.16c-0.59,0-.81.33-0.81,1v1.78h1.52v0.72h-1.52v6.23h-0.87v-6.23Z" transform="translate(-142.92 -181.32)"/><path class="cls-4" d="M490.3,361.48h1.42v-3h0.87v3h1.51v0.72h-1.51v4.6c0,0.52,0,1,.51,1a1.63,1.63,0,0,0,1-.35v0.87a2.83,2.83,0,0,1-1.14.29,1.1,1.1,0,0,1-1.19-1.23v-5.17H490.3v-0.72Z" transform="translate(-142.92 -181.32)"/><path class="cls-4" d="M495.49,364.93v0.19c0,1.55.68,2.68,2.23,2.68a2.24,2.24,0,0,0,2.26-1.48l0.81,0.22a3.2,3.2,0,0,1-3.15,2.07c-1.74,0-3.15-1.28-3.15-3.65s1.41-3.65,3.15-3.65c2.06,0,3.07,1.57,3.15,3.62h-5.31Zm4.32-.72a2.16,2.16,0,0,0-4.32,0h4.32Z" transform="translate(-142.92 -181.32)"/><path class="cls-4" d="M502.14,361.48H503v1h0a2.09,2.09,0,0,1,1.88-1.15c0.23,0,.41,0,0.62,0v0.75A2.75,2.75,0,0,0,505,362c-1.35,0-2,1-2,2.41v4h-0.87v-7Z" transform="translate(-142.92 -181.32)"/><path class="cls-4" d="M515.53,360.57a1.83,1.83,0,0,0-2.07-1.81c-2.3,0-2.74,2-2.94,4.12h0a3.3,3.3,0,0,1,2.62-1.39c1.55,0,3.44.84,3.44,3.67a3.27,3.27,0,0,1-3.51,3.46c-2.7,0-3.57-2.29-3.57-5,0-5,2.32-5.68,3.94-5.68a2.88,2.88,0,0,1,3,2.3Zm-5,4.28a2.73,2.73,0,0,0,2.61,3,2.44,2.44,0,0,0,2.49-2.67c0-1.36-.58-2.84-2.39-2.84A2.58,2.58,0,0,0,510.52,364.84Z" transform="translate(-142.92 -181.32)"/><path class="cls-4" d="M516.91,364.22h7.25V365h-7.25v-0.81Z" transform="translate(-142.92 -181.32)"/><path class="cls-4" d="M526.07,359.7a1.61,1.61,0,0,0,1.94-1.58h0.84v10.32H528v-8.38a3.65,3.65,0,0,1-1.91.45V359.7Z" transform="translate(-142.92 -181.32)"/><path class="cls-4" d="M532.82,362.71a4.13,4.13,0,0,1-.36-1.73c0-1.84,1.33-3,3.38-3,2.32,0,3.58,1.3,3.58,3.33,0,2.73-3.55,5.15-5.52,6.32v0h5v0.81h-6.45v-0.81c1.49-1.15,5.94-3.46,5.94-6.41a2.4,2.4,0,0,0-2.54-2.46,2.32,2.32,0,0,0-2.57,2.33,2.72,2.72,0,0,0,.65,1.74Z" transform="translate(-142.92 -181.32)"/><path class="cls-4" d="M544.55,361.48h0.87v1.12h0a2,2,0,0,1,1.93-1.29,1.81,1.81,0,0,1,2,1.52h0a2.15,2.15,0,0,1,2.17-1.52c2,0,2,1.7,2,2.54v4.59h-0.87v-4.49c0-.78,0-1.83-1.33-1.83s-1.88,1.1-1.88,2.45v3.87h-0.87v-4.38c0-.9-0.09-1.94-1.33-1.94-1.07,0-1.88,1-1.88,2.49v3.83h-0.87v-7Z" transform="translate(-142.92 -181.32)"/><path class="cls-4" d="M558,361.31c1.74,0,3.15,1.28,3.15,3.65s-1.41,3.65-3.15,3.65-3.15-1.28-3.15-3.65S556.28,361.31,558,361.31ZM555.74,365c0,1.8,1,2.84,2.28,2.84s2.28-1,2.28-2.84-1-2.84-2.28-2.84S555.74,363.18,555.74,365Z" transform="translate(-142.92 -181.32)"/><path class="cls-4" d="M562.37,361.48h0.87v1h0a2.43,2.43,0,0,1,4.52,1.23v4.71h-0.87V364c0-1.41-.59-1.87-1.7-1.87a2,2,0,0,0-2,2.26v4.06h-0.87v-7Z" transform="translate(-142.92 -181.32)"/><path class="cls-4" d="M568.63,361.48h1.42v-3h0.87v3h1.51v0.72h-1.51v4.6c0,0.52,0,1,.51,1a1.63,1.63,0,0,0,1-.35v0.87a2.83,2.83,0,0,1-1.14.29,1.1,1.1,0,0,1-1.19-1.23v-5.17h-1.42v-0.72Z" transform="translate(-142.92 -181.32)"/><path class="cls-4" d="M573.27,358.12h0.87v4.39h0a2.43,2.43,0,0,1,4.52,1.22v4.71h-0.87V364c0-1.41-.59-1.87-1.7-1.87a2,2,0,0,0-2,2.26v4.06h-0.87V358.12Z" transform="translate(-142.92 -181.32)"/><path class="cls-4" d="M580.62,366.51a1.85,1.85,0,0,0,2,1.38,1.47,1.47,0,0,0,1.7-1.42c0-2.07-4.12-.48-4.12-3.25,0-1,.83-1.91,2.38-1.91,1.36,0,2.29.41,2.62,1.58l-0.83.2a1.49,1.49,0,0,0-1.67-1.06c-1.3,0-1.64.52-1.64,1.22,0,1.8,4.12.45,4.12,3.25,0,1.15-1,2.12-2.7,2.12a2.66,2.66,0,0,1-2.73-1.84Z" transform="translate(-142.92 -181.32)"/><path class="cls-4" d="M589.5,361.48h0.9l1.83,5.46h0l1.74-5.46h0.71l1.74,5.46h0l1.83-5.46h0.9l-2.38,7h-0.72l-1.74-5.61h0l-1.72,5.61h-0.72Z" transform="translate(-142.92 -181.32)"/><path class="cls-4" d="M599.91,358.61h0.87V360h-0.87v-1.36Zm0,2.87h0.87v7h-0.87v-7Z" transform="translate(-142.92 -181.32)"/><path class="cls-4" d="M601.62,361.48H603v-3h0.87v3h1.51v0.72h-1.51v4.6c0,0.52,0,1,.51,1a1.63,1.63,0,0,0,1-.35v0.87a2.83,2.83,0,0,1-1.14.29,1.1,1.1,0,0,1-1.19-1.23v-5.17h-1.42v-0.72Z" transform="translate(-142.92 -181.32)"/><path class="cls-4" d="M606.26,358.12h0.87v4.39h0a2.43,2.43,0,0,1,4.52,1.22v4.71h-0.87V364c0-1.41-.59-1.87-1.7-1.87a2,2,0,0,0-2,2.26v4.06h-0.87V358.12Z" transform="translate(-142.92 -181.32)"/><path class="cls-4" d="M434.29,381.51a1.85,1.85,0,0,0,2,1.38,1.47,1.47,0,0,0,1.7-1.42c0-2.07-4.12-.48-4.12-3.25,0-1,.83-1.91,2.38-1.91,1.36,0,2.29.41,2.62,1.58l-0.83.2a1.49,1.49,0,0,0-1.67-1.06c-1.3,0-1.64.52-1.64,1.22,0,1.8,4.12.45,4.12,3.25,0,1.15-1,2.12-2.7,2.12a2.66,2.66,0,0,1-2.73-1.84Z" transform="translate(-142.92 -181.32)"/><path class="cls-4" d="M439.45,376.48h1.42v-3h0.87v3h1.51v0.72h-1.51v4.6c0,0.52,0,1,.51,1a1.63,1.63,0,0,0,1-.35v0.87a2.83,2.83,0,0,1-1.14.29,1.1,1.1,0,0,1-1.19-1.23v-5.17h-1.42v-0.72Z" transform="translate(-142.92 -181.32)"/><path class="cls-4" d="M450.15,383.53c-1.07,0-1.73,0-1.81-1.22h0a2.56,2.56,0,0,1-2.44,1.3,1.94,1.94,0,0,1-2.22-1.84c0-1.48,1.29-1.91,2.49-2.22l2.13-.55v-0.7c0-.9-0.64-1.28-1.74-1.28a1.52,1.52,0,0,0-1.73,1.68l-1-.17a2.5,2.5,0,0,1,2.74-2.23c2.58,0,2.58,1.49,2.58,2.17v3.41c0,0.9.41,0.91,1,.91v0.72Zm-4.2-.72a2.26,2.26,0,0,0,2.33-2.25v-0.8l-2.51.7a1.36,1.36,0,0,0-1.25,1.3A1.22,1.22,0,0,0,445.95,382.8Z" transform="translate(-142.92 -181.32)"/><path class="cls-4" d="M450.88,373.12h0.87v4.44h0a2.11,2.11,0,0,1,2-1.25c1.59,0,2.91,1.3,2.91,3.74s-1.72,3.57-3,3.57a2,2,0,0,1-2-1.25h0v1.07h-0.87V373.12Zm2.83,4c-1.65,0-2,1.48-2,2.84s0.44,2.84,2.06,2.84c1.25,0,2.1-1.09,2.1-2.84S455,377.12,453.71,377.12Z" transform="translate(-142.92 -181.32)"/><path class="cls-4" d="M457.94,373.12h0.87v10.32h-0.87V373.12Z" transform="translate(-142.92 -181.32)"/><path class="cls-4" d="M461,379.93v0.19c0,1.55.68,2.68,2.23,2.68a2.24,2.24,0,0,0,2.26-1.48l0.81,0.22a3.2,3.2,0,0,1-3.15,2.07c-1.74,0-3.15-1.28-3.15-3.65s1.41-3.65,3.15-3.65c2.06,0,3.07,1.57,3.15,3.62H461Zm4.32-.72a2.16,2.16,0,0,0-4.32,0h4.32Z" transform="translate(-142.92 -181.32)"/><path class="cls-4" d="M471.48,376.48h0.87v1h0a2.09,2.09,0,0,1,1.88-1.15c0.23,0,.41,0,0.62,0v0.75a2.75,2.75,0,0,0-.58-0.06c-1.35,0-2,1-2,2.41v4h-0.87v-7Z" transform="translate(-142.92 -181.32)"/><path class="cls-4" d="M476,379.93v0.19c0,1.55.68,2.68,2.23,2.68a2.24,2.24,0,0,0,2.26-1.48l0.81,0.22a3.2,3.2,0,0,1-3.15,2.07c-1.74,0-3.15-1.28-3.15-3.65s1.41-3.65,3.15-3.65c2.06,0,3.07,1.57,3.15,3.62H476Zm4.32-.72a2.16,2.16,0,0,0-4.32,0h4.32Z" transform="translate(-142.92 -181.32)"/><path class="cls-4" d="M482.59,376.48h0.87v1.12h0a2,2,0,0,1,1.93-1.29,1.81,1.81,0,0,1,2,1.52h0a2.15,2.15,0,0,1,2.17-1.52c2,0,2,1.7,2,2.54v4.59h-0.87v-4.49c0-.78,0-1.83-1.33-1.83s-1.88,1.1-1.88,2.45v3.87h-0.87v-4.38c0-.9-0.09-1.94-1.33-1.94-1.07,0-1.88,1-1.88,2.49v3.83h-0.87v-7Z" transform="translate(-142.92 -181.32)"/><path class="cls-4" d="M493.35,373.61h0.87V375h-0.87v-1.36Zm0,2.87h0.87v7h-0.87v-7Z" transform="translate(-142.92 -181.32)"/><path class="cls-4" d="M496.15,381.51a1.85,1.85,0,0,0,2,1.38,1.47,1.47,0,0,0,1.7-1.42c0-2.07-4.12-.48-4.12-3.25,0-1,.83-1.91,2.38-1.91,1.36,0,2.29.41,2.62,1.58l-0.83.2a1.49,1.49,0,0,0-1.67-1.06c-1.3,0-1.64.52-1.64,1.22,0,1.8,4.12.45,4.12,3.25,0,1.15-1,2.12-2.7,2.12a2.66,2.66,0,0,1-2.73-1.84Z" transform="translate(-142.92 -181.32)"/><path class="cls-4" d="M502.4,381.51a1.85,1.85,0,0,0,2,1.38,1.47,1.47,0,0,0,1.7-1.42c0-2.07-4.12-.48-4.12-3.25,0-1,.83-1.91,2.38-1.91,1.36,0,2.29.41,2.62,1.58l-0.83.2A1.49,1.49,0,0,0,504.5,377c-1.3,0-1.64.52-1.64,1.22,0,1.8,4.12.45,4.12,3.25,0,1.15-1,2.12-2.7,2.12a2.66,2.66,0,0,1-2.73-1.84Z" transform="translate(-142.92 -181.32)"/><path class="cls-4" d="M508.36,373.61h0.87V375h-0.87v-1.36Zm0,2.87h0.87v7h-0.87v-7Z" transform="translate(-142.92 -181.32)"/><path class="cls-4" d="M513.58,376.31c1.74,0,3.15,1.28,3.15,3.65s-1.41,3.65-3.15,3.65-3.15-1.28-3.15-3.65S511.84,376.31,513.58,376.31ZM511.3,380c0,1.8,1,2.84,2.28,2.84s2.28-1,2.28-2.84-1-2.84-2.28-2.84S511.3,378.18,511.3,380Z" transform="translate(-142.92 -181.32)"/><path class="cls-4" d="M517.93,376.48h0.87v1h0a2.43,2.43,0,0,1,4.52,1.23v4.71h-0.87V379c0-1.41-.59-1.87-1.7-1.87a2,2,0,0,0-2,2.26v4.06h-0.87v-7Z" transform="translate(-142.92 -181.32)"/><path class="cls-4" d="M525.54,381.76h1.1v1.57a4.22,4.22,0,0,1-.75,2.41l-0.49-.36a2.83,2.83,0,0,0,.62-1.93h-0.48v-1.68Z" transform="translate(-142.92 -181.32)"/><path class="cls-4" d="M529.58,374.42l0-1.3h0.78l-0.07,1.3,1.25-.43,0.17,0.7-1.26.36,0.78,1-0.62.39-0.65-1.1-0.67,1.1-0.62-.39,0.8-1-1.23-.33,0.17-.7Z" transform="translate(-142.92 -181.32)"/><path class="cls-4" d="M536.81,381.51a1.85,1.85,0,0,0,2,1.38,1.47,1.47,0,0,0,1.7-1.42c0-2.07-4.12-.48-4.12-3.25,0-1,.83-1.91,2.38-1.91,1.36,0,2.29.41,2.62,1.58l-0.83.2a1.49,1.49,0,0,0-1.67-1.06c-1.3,0-1.64.52-1.64,1.22,0,1.8,4.12.45,4.12,3.25,0,1.15-1,2.12-2.7,2.12a2.66,2.66,0,0,1-2.73-1.84Z" transform="translate(-142.92 -181.32)"/><path class="cls-4" d="M542,376.48h1.42v-3h0.87v3h1.51v0.72h-1.51v4.6c0,0.52,0,1,.51,1a1.63,1.63,0,0,0,1-.35v0.87a2.83,2.83,0,0,1-1.14.29,1.1,1.1,0,0,1-1.19-1.23v-5.17H542v-0.72Z" transform="translate(-142.92 -181.32)"/><path class="cls-4" d="M547.16,379.93v0.19c0,1.55.68,2.68,2.23,2.68a2.24,2.24,0,0,0,2.26-1.48l0.81,0.22a3.2,3.2,0,0,1-3.15,2.07c-1.74,0-3.15-1.28-3.15-3.65s1.41-3.65,3.15-3.65c2.06,0,3.07,1.57,3.15,3.62h-5.31Zm4.32-.72a2.16,2.16,0,0,0-4.32,0h4.32Z" transform="translate(-142.92 -181.32)"/><path class="cls-4" d="M553.67,376.48h0.87v1h0a2.2,2.2,0,0,1,2-1.22c1.52,0,2.91,1.2,2.91,3.54,0,2.88-1.48,3.77-2.86,3.77a2.08,2.08,0,0,1-2.1-1.16h0V387h-0.87V376.48Zm2.9,0.64c-1.72,0-2.07,1.51-2.07,2.84s0.35,2.84,2.06,2.84c1.25,0,2.1-1.09,2.1-2.84S557.8,377.12,556.57,377.12Z" transform="translate(-142.92 -181.32)"/><path class="cls-4" d="M560.73,376.48h0.87v1h0a2.19,2.19,0,0,1,2-1.22c1.52,0,2.91,1.2,2.91,3.54,0,2.88-1.48,3.77-2.86,3.77a2.08,2.08,0,0,1-2.1-1.16h0V387h-0.87V376.48Zm2.9,0.64c-1.73,0-2.07,1.51-2.07,2.84s0.35,2.84,2.06,2.84c1.25,0,2.1-1.09,2.1-2.84S564.86,377.12,563.63,377.12Z" transform="translate(-142.92 -181.32)"/><path class="cls-4" d="M567.79,373.61h0.87V375h-0.87v-1.36Zm0,2.87h0.87v7h-0.87v-7Z" transform="translate(-142.92 -181.32)"/><path class="cls-4" d="M570.3,376.48h0.87v1h0a2.43,2.43,0,0,1,4.52,1.23v4.71h-0.87V379c0-1.41-.59-1.87-1.7-1.87a2,2,0,0,0-2,2.26v4.06H570.3v-7Z" transform="translate(-142.92 -181.32)"/><path class="cls-4" d="M577.84,384.35a1.92,1.92,0,0,0,2.16,1.87c1.22,0,2.19-.3,2.19-2.41v-1.46a2.51,2.51,0,0,1-2.29,1.26c-1.23,0-3-1-3-3.57s1.32-3.74,2.91-3.74a2.37,2.37,0,0,1,2.32,1.32h0v-1.15h0.87v7.26c0,1.43-.23,3.29-3.06,3.29-1.78,0-2.86-.65-3-2.49Zm2.12-7.23c-1.3,0-2.16,1.09-2.16,2.84s0.86,2.84,2.16,2.84c1.68,0,2.2-1.17,2.2-2.71S581.78,377.12,580,377.12Z" transform="translate(-142.92 -181.32)"/><path class="cls-4" d="M593.09,382.5h0a2.13,2.13,0,0,1-2,1.12c-1.3,0-2.93-1-2.93-3.57s1.32-3.74,2.91-3.74a2.23,2.23,0,0,1,2,1.09h0v-4.28H594v10.32h-0.87V382.5Zm-2,.3c1.62,0,2.06-1.48,2.06-2.84s-0.35-2.84-2-2.84c-1.3,0-2.16,1.09-2.16,2.84S589.83,382.8,591.08,382.8Z" transform="translate(-142.92 -181.32)"/><path class="cls-4" d="M598.31,376.31c1.74,0,3.15,1.28,3.15,3.65s-1.41,3.65-3.15,3.65-3.15-1.28-3.15-3.65S596.57,376.31,598.31,376.31ZM596,380c0,1.8,1,2.84,2.28,2.84s2.28-1,2.28-2.84-1-2.84-2.28-2.84S596,378.18,596,380Z" transform="translate(-142.92 -181.32)"/><path class="cls-4" d="M601.74,376.48h0.9l1.83,5.46h0l1.74-5.46h0.71l1.74,5.46h0l1.83-5.46h0.9l-2.38,7h-0.72l-1.74-5.61h0l-1.72,5.61h-0.72Z" transform="translate(-142.92 -181.32)"/><path class="cls-4" d="M612.15,376.48H613v1h0a2.43,2.43,0,0,1,4.52,1.23v4.71H616.7V379c0-1.41-.59-1.87-1.7-1.87a2,2,0,0,0-2,2.26v4.06h-0.87v-7Z" transform="translate(-142.92 -181.32)"/><path class="cls-4" d="M622.25,376.48h1.42v-3h0.87v3h1.51v0.72h-1.51v4.6c0,0.52,0,1,.51,1a1.63,1.63,0,0,0,1-.35v0.87a2.83,2.83,0,0,1-1.14.29,1.1,1.1,0,0,1-1.19-1.23v-5.17h-1.42v-0.72Z" transform="translate(-142.92 -181.32)"/><path class="cls-4" d="M629.6,376.31c1.74,0,3.15,1.28,3.15,3.65s-1.41,3.65-3.15,3.65-3.15-1.28-3.15-3.65S627.87,376.31,629.6,376.31ZM627.33,380c0,1.8,1,2.84,2.28,2.84s2.28-1,2.28-2.84-1-2.84-2.28-2.84S627.33,378.18,627.33,380Z" transform="translate(-142.92 -181.32)"/><path class="cls-4" d="M638,373.12h1v10.32h-1V373.12Z" transform="translate(-142.92 -181.32)"/><path class="cls-4" d="M640.86,373.12h6.73V374h-5.74v3.45H647v0.9h-5.13v5.07h-1V373.12Z" transform="translate(-142.92 -181.32)"/><path class="cls-4" d="M648.3,373.12h1.28l2.8,4.07,2.83-4.07h1.23L653,377.87l3.89,5.57h-1.23l-3.33-5-3.42,5h-1.15l3.9-5.62Z" transform="translate(-142.92 -181.32)"/><path class="cls-4" d="M407,391.48h0.87v1.12h0a2,2,0,0,1,1.93-1.29,1.81,1.81,0,0,1,2,1.52h0a2.15,2.15,0,0,1,2.17-1.52c2,0,2,1.7,2,2.54v4.59h-0.87v-4.49c0-.78,0-1.83-1.33-1.83s-1.88,1.1-1.88,2.45v3.87H411v-4.38c0-.9-0.09-1.94-1.33-1.94-1.07,0-1.88,1-1.88,2.49v3.83H407v-7Z" transform="translate(-142.92 -181.32)"/><path class="cls-4" d="M420.43,391.31c1.74,0,3.15,1.28,3.15,3.65s-1.41,3.65-3.15,3.65-3.15-1.28-3.15-3.65S418.69,391.31,420.43,391.31ZM418.15,395c0,1.8,1,2.84,2.28,2.84s2.28-1,2.28-2.84-1-2.84-2.28-2.84S418.15,393.18,418.15,395Z" transform="translate(-142.92 -181.32)"/><path class="cls-4" d="M424.78,391.48h0.87v1h0a2.43,2.43,0,0,1,4.52,1.23v4.71h-0.87V394c0-1.41-.59-1.87-1.7-1.87a2,2,0,0,0-2,2.26v4.06h-0.87v-7Z" transform="translate(-142.92 -181.32)"/><path class="cls-4" d="M434.55,391.31c1.74,0,3.15,1.28,3.15,3.65s-1.41,3.65-3.15,3.65-3.15-1.28-3.15-3.65S432.81,391.31,434.55,391.31ZM432.27,395c0,1.8,1,2.84,2.28,2.84s2.28-1,2.28-2.84-1-2.84-2.28-2.84S432.27,393.18,432.27,395Z" transform="translate(-142.92 -181.32)"/><path class="cls-4" d="M438.1,391.48h1.42v-3h0.87v3h1.51v0.72h-1.51v4.6c0,0.52,0,1,.51,1a1.63,1.63,0,0,0,1-.35v0.87a2.83,2.83,0,0,1-1.14.29,1.1,1.1,0,0,1-1.19-1.23v-5.17H438.1v-0.72Z" transform="translate(-142.92 -181.32)"/><path class="cls-4" d="M442.74,388.12h0.87v4.39h0a2.43,2.43,0,0,1,4.52,1.22v4.71h-0.87V394c0-1.41-.59-1.87-1.7-1.87a2,2,0,0,0-2,2.26v4.06h-0.87V388.12Z" transform="translate(-142.92 -181.32)"/><path class="cls-4" d="M450.36,394.93v0.19c0,1.55.68,2.68,2.23,2.68a2.24,2.24,0,0,0,2.26-1.48l0.81,0.22a3.2,3.2,0,0,1-3.15,2.07c-1.74,0-3.15-1.28-3.15-3.65s1.41-3.65,3.15-3.65c2.06,0,3.07,1.57,3.15,3.62h-5.31Zm4.32-.72a2.16,2.16,0,0,0-4.32,0h4.32Z" transform="translate(-142.92 -181.32)"/><path class="cls-4" d="M457,391.48h0.87v1h0a2.09,2.09,0,0,1,1.88-1.15c0.23,0,.41,0,0.62,0v0.75a2.75,2.75,0,0,0-.58-0.06c-1.35,0-2,1-2,2.41v4H457v-7Z" transform="translate(-142.92 -181.32)"/><path class="cls-4" d="M467,398.53c-1.07,0-1.73,0-1.81-1.22h0a2.56,2.56,0,0,1-2.44,1.3,1.94,1.94,0,0,1-2.22-1.84c0-1.48,1.29-1.91,2.49-2.22l2.13-.55v-0.7c0-.9-0.64-1.28-1.74-1.28a1.52,1.52,0,0,0-1.73,1.68l-1-.17a2.5,2.5,0,0,1,2.74-2.23c2.58,0,2.58,1.49,2.58,2.17v3.41c0,0.9.41,0.91,1,.91v0.72Zm-4.2-.72a2.26,2.26,0,0,0,2.33-2.25v-0.8l-2.51.7a1.36,1.36,0,0,0-1.25,1.3A1.22,1.22,0,0,0,462.83,397.8Z" transform="translate(-142.92 -181.32)"/><path class="cls-4" d="M467.76,391.48h0.87v1h0a2.2,2.2,0,0,1,2-1.22c1.52,0,2.91,1.2,2.91,3.54,0,2.88-1.48,3.77-2.86,3.77a2.08,2.08,0,0,1-2.1-1.16h0V402h-0.87V391.48Zm2.9,0.64c-1.72,0-2.07,1.51-2.07,2.84s0.35,2.84,2.06,2.84c1.25,0,2.1-1.09,2.1-2.84S471.89,392.12,470.66,392.12Z" transform="translate(-142.92 -181.32)"/><path class="cls-4" d="M474,391.48h0.81l2,5.86h0l2.29-5.86H480l-3.44,8.83c-0.3.8-.62,1.72-1.7,1.72a2.28,2.28,0,0,1-.93-0.26v-0.9a2,2,0,0,0,.9.35,1.16,1.16,0,0,0,.87-0.94l0.71-1.83Z" transform="translate(-142.92 -181.32)"/><path class="cls-4" d="M484.72,391.48h0.87v1.12h0a2,2,0,0,1,1.93-1.29,1.81,1.81,0,0,1,2,1.52h0a2.15,2.15,0,0,1,2.17-1.52c2,0,2,1.7,2,2.54v4.59H492.9v-4.49c0-.78,0-1.83-1.33-1.83s-1.88,1.1-1.88,2.45v3.87h-0.87v-4.38c0-.9-0.09-1.94-1.33-1.94-1.07,0-1.88,1-1.88,2.49v3.83h-0.87v-7Z" transform="translate(-142.92 -181.32)"/><path class="cls-4" d="M501.54,398.53c-1.07,0-1.73,0-1.81-1.22h0a2.56,2.56,0,0,1-2.44,1.3,1.94,1.94,0,0,1-2.22-1.84c0-1.48,1.29-1.91,2.49-2.22l2.13-.55v-0.7c0-.9-0.64-1.28-1.74-1.28a1.52,1.52,0,0,0-1.73,1.68l-1-.17a2.5,2.5,0,0,1,2.74-2.23c2.58,0,2.58,1.49,2.58,2.17v3.41c0,0.9.41,0.91,1,.91v0.72Zm-4.2-.72a2.26,2.26,0,0,0,2.33-2.25v-0.8l-2.51.7a1.36,1.36,0,0,0-1.25,1.3A1.22,1.22,0,0,0,497.33,397.8Z" transform="translate(-142.92 -181.32)"/><path class="cls-4" d="M501.5,391.48h0.81l2,5.86h0l2.29-5.86h0.83L504,400.31c-0.3.8-.62,1.72-1.7,1.72a2.28,2.28,0,0,1-.93-0.26v-0.9a2,2,0,0,0,.9.35,1.16,1.16,0,0,0,.87-0.94l0.71-1.83Z" transform="translate(-142.92 -181.32)"/><path class="cls-4" d="M512.1,388.12H513v4.44h0a2.11,2.11,0,0,1,2-1.25c1.59,0,2.91,1.3,2.91,3.74s-1.72,3.57-3,3.57a2,2,0,0,1-2-1.25h0v1.07H512.1V388.12Zm2.83,4c-1.65,0-2,1.48-2,2.84s0.44,2.84,2.06,2.84c1.25,0,2.1-1.09,2.1-2.84S516.23,392.12,514.92,392.12Z" transform="translate(-142.92 -181.32)"/><path class="cls-4" d="M519.71,394.93v0.19c0,1.55.68,2.68,2.23,2.68a2.24,2.24,0,0,0,2.26-1.48l0.81,0.22a3.2,3.2,0,0,1-3.15,2.07c-1.74,0-3.15-1.28-3.15-3.65s1.41-3.65,3.15-3.65c2.06,0,3.07,1.57,3.15,3.62h-5.31Zm4.32-.72a2.16,2.16,0,0,0-4.32,0H524Z" transform="translate(-142.92 -181.32)"/><path class="cls-4" d="M536.12,398.53c-1.07,0-1.73,0-1.81-1.22h0a2.56,2.56,0,0,1-2.44,1.3,1.94,1.94,0,0,1-2.22-1.84c0-1.48,1.29-1.91,2.49-2.22l2.13-.55v-0.7c0-.9-0.64-1.28-1.74-1.28a1.52,1.52,0,0,0-1.73,1.68l-1-.17a2.5,2.5,0,0,1,2.74-2.23c2.58,0,2.58,1.49,2.58,2.17v3.41c0,0.9.41,0.91,1,.91v0.72Zm-4.2-.72a2.26,2.26,0,0,0,2.33-2.25v-0.8l-2.51.7a1.36,1.36,0,0,0-1.25,1.3A1.22,1.22,0,0,0,531.92,397.8Z" transform="translate(-142.92 -181.32)"/><path class="cls-4" d="M536.85,391.48h0.87v1h0a2.43,2.43,0,0,1,4.52,1.23v4.71H541.4V394c0-1.41-.59-1.87-1.7-1.87a2,2,0,0,0-2,2.26v4.06h-0.87v-7Z" transform="translate(-142.92 -181.32)"/><path class="cls-4" d="M550.46,391.31c1.74,0,3.15,1.28,3.15,3.65s-1.41,3.65-3.15,3.65-3.15-1.28-3.15-3.65S548.72,391.31,550.46,391.31ZM548.19,395c0,1.8,1,2.84,2.28,2.84s2.28-1,2.28-2.84-1-2.84-2.28-2.84S548.19,393.18,548.19,395Z" transform="translate(-142.92 -181.32)"/><path class="cls-4" d="M554.81,391.48h0.87v1h0a2.19,2.19,0,0,1,2-1.22c1.52,0,2.91,1.2,2.91,3.54,0,2.88-1.48,3.77-2.86,3.77a2.08,2.08,0,0,1-2.1-1.16h0V402h-0.87V391.48Zm2.9,0.64c-1.73,0-2.07,1.51-2.07,2.84s0.35,2.84,2.06,2.84c1.25,0,2.1-1.09,2.1-2.84S558.95,392.12,557.71,392.12Z" transform="translate(-142.92 -181.32)"/><path class="cls-4" d="M561.08,391.48h1.42v-3h0.87v3h1.51v0.72h-1.51v4.6c0,0.52,0,1,.51,1a1.63,1.63,0,0,0,1-.35v0.87a2.83,2.83,0,0,1-1.14.29,1.1,1.1,0,0,1-1.19-1.23v-5.17h-1.42v-0.72Z" transform="translate(-142.92 -181.32)"/><path class="cls-4" d="M565.72,388.61h0.87V390h-0.87v-1.36Zm0,2.87h0.87v7h-0.87v-7Z" transform="translate(-142.92 -181.32)"/><path class="cls-4" d="M570.94,391.31c1.74,0,3.15,1.28,3.15,3.65s-1.41,3.65-3.15,3.65-3.15-1.28-3.15-3.65S569.2,391.31,570.94,391.31ZM568.66,395c0,1.8,1,2.84,2.28,2.84s2.28-1,2.28-2.84-1-2.84-2.28-2.84S568.66,393.18,568.66,395Z" transform="translate(-142.92 -181.32)"/><path class="cls-4" d="M575.29,391.48h0.87v1h0a2.43,2.43,0,0,1,4.52,1.23v4.71h-0.87V394c0-1.41-.59-1.87-1.7-1.87a2,2,0,0,0-2,2.26v4.06h-0.87v-7Z" transform="translate(-142.92 -181.32)"/><path class="cls-4" d="M587,392.21h-1.52v-0.72H587v-2.2c0-1,.71-1.42,1.71-1.42a2,2,0,0,1,.77.14v0.83a1.57,1.57,0,0,0-.8-0.16c-0.59,0-.81.33-0.81,1v1.78h1.52v0.72h-1.52v6.23H587v-6.23Z" transform="translate(-142.92 -181.32)"/><path class="cls-4" d="M593,391.31c1.74,0,3.15,1.28,3.15,3.65s-1.41,3.65-3.15,3.65-3.15-1.28-3.15-3.65S591.27,391.31,593,391.31ZM590.73,395c0,1.8,1,2.84,2.28,2.84s2.28-1,2.28-2.84-1-2.84-2.28-2.84S590.73,393.18,590.73,395Z" transform="translate(-142.92 -181.32)"/><path class="cls-4" d="M597.49,391.48h0.87v1h0a2.09,2.09,0,0,1,1.88-1.15c0.23,0,.41,0,0.62,0v0.75a2.75,2.75,0,0,0-.58-0.06c-1.35,0-2,1-2,2.41v4h-0.87v-7Z" transform="translate(-142.92 -181.32)"/><path class="cls-4" d="M605.59,396.51a1.85,1.85,0,0,0,2,1.38,1.47,1.47,0,0,0,1.7-1.42c0-2.07-4.12-.48-4.12-3.25,0-1,.83-1.91,2.38-1.91,1.36,0,2.29.41,2.62,1.58l-0.83.2A1.49,1.49,0,0,0,607.7,392c-1.3,0-1.64.52-1.64,1.22,0,1.8,4.12.45,4.12,3.25,0,1.15-1,2.12-2.7,2.12a2.66,2.66,0,0,1-2.73-1.84Z" transform="translate(-142.92 -181.32)"/><path class="cls-4" d="M614.26,391.31c1.74,0,3.15,1.28,3.15,3.65s-1.41,3.65-3.15,3.65-3.15-1.28-3.15-3.65S612.52,391.31,614.26,391.31ZM612,395c0,1.8,1,2.84,2.28,2.84s2.28-1,2.28-2.84-1-2.84-2.28-2.84S612,393.18,612,395Z" transform="translate(-142.92 -181.32)"/><path class="cls-4" d="M618.69,391.48h0.87v1.12h0a2,2,0,0,1,1.93-1.29,1.81,1.81,0,0,1,2,1.52h0a2.15,2.15,0,0,1,2.17-1.52c2,0,2,1.7,2,2.54v4.59h-0.87v-4.49c0-.78,0-1.83-1.33-1.83s-1.88,1.1-1.88,2.45v3.87h-0.87v-4.38c0-.9-0.09-1.94-1.33-1.94-1.07,0-1.88,1-1.88,2.49v3.83h-0.87v-7Z" transform="translate(-142.92 -181.32)"/><path class="cls-4" d="M630,394.93v0.19c0,1.55.68,2.68,2.23,2.68a2.24,2.24,0,0,0,2.26-1.48l0.81,0.22a3.2,3.2,0,0,1-3.15,2.07c-1.74,0-3.15-1.28-3.15-3.65s1.41-3.65,3.15-3.65c2.06,0,3.07,1.57,3.15,3.62H630Zm4.32-.72a2.16,2.16,0,0,0-4.32,0h4.32Z" transform="translate(-142.92 -181.32)"/><path class="cls-4" d="M640.35,391.48h0.87v1h0a2.2,2.2,0,0,1,2-1.22c1.52,0,2.91,1.2,2.91,3.54,0,2.88-1.48,3.77-2.86,3.77a2.08,2.08,0,0,1-2.1-1.16h0V402h-0.87V391.48Zm2.9,0.64c-1.72,0-2.07,1.51-2.07,2.84s0.35,2.84,2.06,2.84c1.25,0,2.1-1.09,2.1-2.84S644.48,392.12,643.25,392.12Z" transform="translate(-142.92 -181.32)"/><path class="cls-4" d="M653.47,398.53c-1.07,0-1.73,0-1.81-1.22h0a2.56,2.56,0,0,1-2.44,1.3,1.94,1.94,0,0,1-2.22-1.84c0-1.48,1.29-1.91,2.49-2.22l2.13-.55v-0.7c0-.9-0.64-1.28-1.74-1.28a1.52,1.52,0,0,0-1.73,1.68l-1-.17a2.5,2.5,0,0,1,2.74-2.23c2.58,0,2.58,1.49,2.58,2.17v3.41c0,0.9.41,0.91,1,.91v0.72Zm-4.2-.72a2.26,2.26,0,0,0,2.33-2.25v-0.8l-2.51.7a1.36,1.36,0,0,0-1.25,1.3A1.22,1.22,0,0,0,649.27,397.8Z" transform="translate(-142.92 -181.32)"/><path class="cls-4" d="M653.4,391.48h1.42v-3h0.87v3h1.51v0.72h-1.51v4.6c0,0.52,0,1,.51,1a1.63,1.63,0,0,0,1-.35v0.87a2.83,2.83,0,0,1-1.14.29,1.1,1.1,0,0,1-1.19-1.23v-5.17H653.4v-0.72Z" transform="translate(-142.92 -181.32)"/><path class="cls-4" d="M658,388.61h0.87V390H658v-1.36Zm0,2.87h0.87v7H658v-7Z" transform="translate(-142.92 -181.32)"/><path class="cls-4" d="M661.1,394.93v0.19c0,1.55.68,2.68,2.23,2.68a2.24,2.24,0,0,0,2.26-1.48l0.81,0.22a3.2,3.2,0,0,1-3.15,2.07c-1.74,0-3.15-1.28-3.15-3.65s1.41-3.65,3.15-3.65c2.06,0,3.07,1.57,3.15,3.62H661.1Zm4.32-.72a2.16,2.16,0,0,0-4.32,0h4.32Z" transform="translate(-142.92 -181.32)"/><path class="cls-4" d="M667.61,391.48h0.87v1h0a2.43,2.43,0,0,1,4.52,1.23v4.71h-0.87V394c0-1.41-.59-1.87-1.7-1.87a2,2,0,0,0-2,2.26v4.06h-0.87v-7Z" transform="translate(-142.92 -181.32)"/><path class="cls-4" d="M673.88,391.48h1.42v-3h0.87v3h1.51v0.72h-1.51v4.6c0,0.52,0,1,.51,1a1.63,1.63,0,0,0,1-.35v0.87a2.83,2.83,0,0,1-1.14.29,1.1,1.1,0,0,1-1.19-1.23v-5.17h-1.42v-0.72Z" transform="translate(-142.92 -181.32)"/><path class="cls-4" d="M678.8,396.51a1.85,1.85,0,0,0,2,1.38,1.47,1.47,0,0,0,1.7-1.42c0-2.07-4.12-.48-4.12-3.25,0-1,.83-1.91,2.38-1.91,1.36,0,2.29.41,2.62,1.58l-0.83.2a1.49,1.49,0,0,0-1.67-1.06c-1.3,0-1.64.52-1.64,1.22,0,1.8,4.12.45,4.12,3.25,0,1.15-1,2.12-2.7,2.12a2.66,2.66,0,0,1-2.73-1.84Z" transform="translate(-142.92 -181.32)"/><path class="cls-4" d="M500.79,235.14h7.45V236H505v9.42h-1V236h-3.23v-0.9Z" transform="translate(-142.92 -181.32)"/><path class="cls-4" d="M515.18,245.55c-1.07,0-1.73,0-1.81-1.22h0a2.56,2.56,0,0,1-2.44,1.3,1.94,1.94,0,0,1-2.22-1.84c0-1.48,1.29-1.91,2.49-2.22l2.13-.55v-0.7c0-.9-0.64-1.28-1.74-1.28a1.52,1.52,0,0,0-1.73,1.68l-1-.17a2.5,2.5,0,0,1,2.74-2.23c2.58,0,2.58,1.49,2.58,2.17v3.41c0,0.9.41,0.91,1,.91v0.72Zm-4.2-.72a2.26,2.26,0,0,0,2.33-2.25v-0.8l-2.51.7a1.36,1.36,0,0,0-1.25,1.3A1.22,1.22,0,0,0,511,244.83Z" transform="translate(-142.92 -181.32)"/><path class="cls-4" d="M515.91,238.51h0.87v1h0a2.19,2.19,0,0,1,2-1.22c1.52,0,2.91,1.2,2.91,3.54,0,2.88-1.48,3.77-2.86,3.77a2.08,2.08,0,0,1-2.1-1.16h0v4.58h-0.87V238.51Zm2.9,0.64c-1.73,0-2.07,1.51-2.07,2.84s0.35,2.84,2.06,2.84c1.25,0,2.1-1.09,2.1-2.84S520,239.14,518.81,239.14Z" transform="translate(-142.92 -181.32)"/><path class="cls-4" d="M523.52,242v0.19c0,1.55.68,2.68,2.23,2.68a2.24,2.24,0,0,0,2.26-1.48l0.81,0.22a3.2,3.2,0,0,1-3.15,2.07c-1.74,0-3.15-1.28-3.15-3.65s1.41-3.65,3.15-3.65c2.06,0,3.07,1.57,3.15,3.62h-5.31Zm4.32-.72a2.16,2.16,0,0,0-4.32,0h4.32Z" transform="translate(-142.92 -181.32)"/><path class="cls-4" d="M530.16,238.51H531v1h0a2.09,2.09,0,0,1,1.88-1.15c0.23,0,.41,0,0.62,0v0.75a2.75,2.75,0,0,0-.58-0.06c-1.35,0-2,1-2,2.41v4h-0.87v-7Z" transform="translate(-142.92 -181.32)"/><path class="cls-4" d="M537.18,238.51h1.42v-3h0.87v3H541v0.72h-1.51v4.6c0,0.52,0,1,.51,1a1.63,1.63,0,0,0,1-.35v0.87a2.83,2.83,0,0,1-1.14.29,1.1,1.1,0,0,1-1.19-1.23v-5.17h-1.42v-0.72Z" transform="translate(-142.92 -181.32)"/><path class="cls-4" d="M544.53,238.33c1.74,0,3.15,1.28,3.15,3.65s-1.41,3.65-3.15,3.65-3.15-1.28-3.15-3.65S542.79,238.33,544.53,238.33ZM542.25,242c0,1.8,1,2.84,2.28,2.84s2.28-1,2.28-2.84-1-2.84-2.28-2.84S542.25,240.2,542.25,242Z" transform="translate(-142.92 -181.32)"/><path class="cls-4" d="M556.74,235.14l4,10.32h-1.06l-1.16-3.1H554l-1.23,3.1h-1l4.2-10.32h0.8Zm1.46,6.41-1.91-5.09-2,5.09h3.88Z" transform="translate(-142.92 -181.32)"/><path class="cls-4" d="M561.16,235.14h7.29v0.64l-6.25,8.79h6.19v0.9h-7.57v-0.64l6.25-8.78h-5.91v-0.9Z" transform="translate(-142.92 -181.32)"/><path class="cls-4" d="M573.55,235.14l4,10.32h-1.06l-1.16-3.1h-4.54l-1.23,3.1h-1l4.2-10.32h0.8Zm1.46,6.41-1.91-5.09-2,5.09H575Z" transform="translate(-142.92 -181.32)"/><path class="cls-4" d="M503,251.51h0.87v1.12h0a2,2,0,0,1,1.93-1.29,1.81,1.81,0,0,1,2,1.52h0a2.15,2.15,0,0,1,2.17-1.52c2,0,2,1.7,2,2.54v4.59h-0.87V254c0-.78,0-1.83-1.33-1.83s-1.88,1.1-1.88,2.45v3.87h-0.87v-4.38c0-.9-0.09-1.94-1.33-1.94-1.07,0-1.88,1-1.88,2.49v3.83H503v-7Z" transform="translate(-142.92 -181.32)"/><path class="cls-4" d="M516.45,251.33c1.74,0,3.15,1.28,3.15,3.65s-1.41,3.65-3.15,3.65-3.15-1.28-3.15-3.65S514.71,251.33,516.45,251.33ZM514.17,255c0,1.8,1,2.84,2.28,2.84s2.28-1,2.28-2.84-1-2.84-2.28-2.84S514.17,253.2,514.17,255Z" transform="translate(-142.92 -181.32)"/><path class="cls-4" d="M520.8,251.51h0.87v1h0a2.43,2.43,0,0,1,4.52,1.23v4.71h-0.87V254c0-1.41-.59-1.87-1.7-1.87a2,2,0,0,0-2,2.26v4.06H520.8v-7Z" transform="translate(-142.92 -181.32)"/><path class="cls-4" d="M530.57,251.33c1.74,0,3.15,1.28,3.15,3.65s-1.41,3.65-3.15,3.65-3.15-1.28-3.15-3.65S528.83,251.33,530.57,251.33ZM528.3,255c0,1.8,1,2.84,2.28,2.84s2.28-1,2.28-2.84-1-2.84-2.28-2.84S528.3,253.2,528.3,255Z" transform="translate(-142.92 -181.32)"/><path class="cls-4" d="M534.13,251.51h1.42v-3h0.87v3h1.51v0.72h-1.51v4.6c0,0.52,0,1,.51,1a1.63,1.63,0,0,0,1-.35v0.87a2.83,2.83,0,0,1-1.14.29,1.1,1.1,0,0,1-1.19-1.23v-5.17h-1.42v-0.72Z" transform="translate(-142.92 -181.32)"/><path class="cls-4" d="M538.77,248.14h0.87v4.39h0a2.43,2.43,0,0,1,4.52,1.22v4.71h-0.87V254c0-1.41-.59-1.87-1.7-1.87a2,2,0,0,0-2,2.26v4.06h-0.87V248.14Z" transform="translate(-142.92 -181.32)"/><path class="cls-4" d="M546.38,255v0.19c0,1.55.68,2.68,2.23,2.68a2.24,2.24,0,0,0,2.26-1.48l0.81,0.22a3.2,3.2,0,0,1-3.15,2.07c-1.74,0-3.15-1.28-3.15-3.65s1.41-3.65,3.15-3.65c2.06,0,3.07,1.57,3.15,3.62h-5.31Zm4.32-.72a2.16,2.16,0,0,0-4.32,0h4.32Z" transform="translate(-142.92 -181.32)"/><path class="cls-4" d="M553,251.51h0.87v1h0a2.09,2.09,0,0,1,1.88-1.15c0.23,0,.41,0,0.62,0v0.75a2.75,2.75,0,0,0-.58-0.06c-1.35,0-2,1-2,2.41v4H553v-7Z" transform="translate(-142.92 -181.32)"/><path class="cls-4" d="M563.05,258.55c-1.07,0-1.73,0-1.81-1.22h0a2.56,2.56,0,0,1-2.44,1.3,1.94,1.94,0,0,1-2.22-1.84c0-1.48,1.29-1.91,2.49-2.22l2.13-.55v-0.7c0-.9-0.64-1.28-1.74-1.28a1.52,1.52,0,0,0-1.73,1.68l-1-.17a2.5,2.5,0,0,1,2.74-2.23c2.58,0,2.58,1.49,2.58,2.17v3.41c0,0.9.41,0.91,1,.91v0.72Zm-4.2-.72a2.26,2.26,0,0,0,2.33-2.25v-0.8l-2.51.7a1.36,1.36,0,0,0-1.25,1.3A1.22,1.22,0,0,0,558.85,257.83Z" transform="translate(-142.92 -181.32)"/><path class="cls-4" d="M563.78,251.51h0.87v1h0a2.2,2.2,0,0,1,2-1.22c1.52,0,2.91,1.2,2.91,3.54,0,2.88-1.48,3.77-2.86,3.77a2.08,2.08,0,0,1-2.1-1.16h0v4.58h-0.87V251.51Zm2.9,0.64c-1.72,0-2.07,1.51-2.07,2.84s0.35,2.84,2.06,2.84c1.25,0,2.1-1.09,2.1-2.84S567.91,252.14,566.68,252.14Z" transform="translate(-142.92 -181.32)"/><path class="cls-4" d="M570.07,251.51h0.81l2,5.86h0l2.29-5.86H576l-3.44,8.83c-0.3.8-.62,1.72-1.7,1.72a2.28,2.28,0,0,1-.93-0.26v-0.9a2,2,0,0,0,.9.35,1.16,1.16,0,0,0,.87-0.94l0.71-1.83Z" transform="translate(-142.92 -181.32)"/><line class="cls-6" x1="58.97" y1="95.42" x2="92.24" y2="95.42"/><circle class="cls-7" cx="142.89" cy="95.42" r="50.64"/><path class="cls-4" d="M258,250.64c0.08,1.5,1,2.13,2.5,2.13s2.44-.72,2.44-1.81c0-2.72-5.31-1-5.31-4.5,0-1.62,1.59-2.26,2.84-2.26a3,3,0,0,1,3.17,2l-0.79.42a2.28,2.28,0,0,0-2.39-1.64c-0.91,0-2,.51-2,1.49,0,2.64,5.31.94,5.31,4.36,0,1.75-1.22,2.72-3.29,2.72-1.79,0-3-.66-3.35-2.46Z" transform="translate(-142.92 -181.32)"/><path class="cls-4" d="M264.22,247.32h1.22v-2.56h0.75v2.56h1.3v0.63h-1.3v4c0,0.45,0,.86.44,0.86a1.41,1.41,0,0,0,.83-0.3v0.75a2.45,2.45,0,0,1-1,.25,1,1,0,0,1-1-1.06v-4.46h-1.22v-0.62Z" transform="translate(-142.92 -181.32)"/><path class="cls-4" d="M268.69,250.29v0.16c0,1.34.59,2.31,1.92,2.31a1.94,1.94,0,0,0,2-1.27l0.7,0.19a2.76,2.76,0,0,1-2.71,1.79c-1.5,0-2.71-1.1-2.71-3.15s1.21-3.15,2.71-3.15c1.77,0,2.65,1.35,2.71,3.12h-4.57Zm3.72-.62a1.86,1.86,0,0,0-3.72,0h3.72Z" transform="translate(-142.92 -181.32)"/><path class="cls-4" d="M274.42,247.32h0.75v0.84h0a1.8,1.8,0,0,1,1.62-1l0.54,0v0.65a2.37,2.37,0,0,0-.5,0c-1.16,0-1.69.85-1.69,2.07v3.45h-0.75v-6Z" transform="translate(-142.92 -181.32)"/><path class="cls-4" d="M280.18,247.17c1.5,0,2.71,1.1,2.71,3.15s-1.21,3.15-2.71,3.15-2.71-1.1-2.71-3.15S278.68,247.17,280.18,247.17Zm-2,3.15c0,1.55.85,2.45,2,2.45s2-.9,2-2.45-0.85-2.45-2-2.45S278.22,248.78,278.22,250.32Z" transform="translate(-142.92 -181.32)"/><path class="cls-4" d="M283.93,244.84h0.75V246h-0.75v-1.17Zm0,2.47h0.75v6h-0.75v-6Z" transform="translate(-142.92 -181.32)"/><path class="cls-4" d="M290,252.5h0a1.84,1.84,0,0,1-1.75,1c-1.12,0-2.52-.85-2.52-3.07s1.14-3.22,2.51-3.22a1.92,1.92,0,0,1,1.76.94h0v-3.69h0.75v8.9H290V252.5Zm-1.74.26c1.4,0,1.77-1.27,1.77-2.45s-0.3-2.45-1.72-2.45c-1.12,0-1.86.94-1.86,2.45S287.21,252.77,288.28,252.77Z" transform="translate(-142.92 -181.32)"/><path class="cls-4" d="M295.49,247.32h0.75v0.9h0a1.89,1.89,0,0,1,1.76-1c1.31,0,2.51,1,2.51,3,0,2.49-1.27,3.25-2.46,3.25a1.79,1.79,0,0,1-1.81-1h0v3.95h-0.75v-9.1Zm2.5,0.55c-1.49,0-1.79,1.3-1.79,2.45s0.3,2.45,1.77,2.45c1.07,0,1.81-.94,1.81-2.45S299.06,247.87,298,247.87Z" transform="translate(-142.92 -181.32)"/><path class="cls-4" d="M301.58,244.42h0.75v8.9h-0.75v-8.9Z" transform="translate(-142.92 -181.32)"/><path class="cls-4" d="M307.67,252.44h0a2.1,2.1,0,0,1-3.9-1.06v-4.06h0.75v3.84c0,1.21.51,1.61,1.46,1.61a1.71,1.71,0,0,0,1.71-1.95v-3.5h0.75v6h-0.75v-0.87Z" transform="translate(-142.92 -181.32)"/><path class="cls-4" d="M310.08,251.65a1.59,1.59,0,0,0,1.74,1.19,1.27,1.27,0,0,0,1.46-1.22c0-1.79-3.55-.41-3.55-2.8a1.79,1.79,0,0,1,2-1.65c1.17,0,2,.35,2.26,1.36l-0.71.17a1.28,1.28,0,0,0-1.44-.91c-1.12,0-1.41.45-1.41,1,0,1.55,3.55.39,3.55,2.8,0,1-.83,1.83-2.32,1.83a2.29,2.29,0,0,1-2.35-1.59Z" transform="translate(-142.92 -181.32)"/><path class="cls-4" d="M261.73,259.42l3.45,8.9h-0.91l-1-2.67h-3.91l-1.06,2.67h-0.87l3.62-8.9h0.69Zm1.26,5.52-1.65-4.39-1.7,4.39H263Z" transform="translate(-142.92 -181.32)"/><path class="cls-4" d="M265.54,259.42h6.29V260l-5.39,7.57h5.34v0.77h-6.52v-0.55l5.39-7.57h-5.1v-0.77Z" transform="translate(-142.92 -181.32)"/><path class="cls-4" d="M276.22,259.42l3.45,8.9h-0.91l-1-2.67h-3.91l-1.06,2.67h-0.87l3.62-8.9h0.69Zm1.26,5.52-1.65-4.39-1.7,4.39h3.35Z" transform="translate(-142.92 -181.32)"/><path class="cls-4" d="M284.41,259.19h0.66l-4.8,9.35h-0.66Z" transform="translate(-142.92 -181.32)"/><path class="cls-4" d="M290.67,261.53a1.58,1.58,0,0,0-1.79-1.56c-2,0-2.36,1.76-2.54,3.55h0a2.89,2.89,0,0,1,5.22,2,2.82,2.82,0,0,1-3,3c-2.32,0-3.07-2-3.07-4.3,0-4.3,2-4.9,3.4-4.9a2.48,2.48,0,0,1,2.62,2Zm-4.32,3.69a2.35,2.35,0,0,0,2.25,2.55,2.1,2.1,0,0,0,2.15-2.3c0-1.17-.5-2.45-2.06-2.45A2.22,2.22,0,0,0,286.34,265.22Z" transform="translate(-142.92 -181.32)"/><path class="cls-4" d="M292.42,265.42v-0.77h3.5v0.77h-3.5Z" transform="translate(-142.92 -181.32)"/><path class="cls-4" d="M297.25,259.42h1l2.89,7.45h0l2.89-7.45h1v8.9h-0.85V261h0l-2.77,7.27h-0.57L298.12,261h0v7.27h-0.85v-8.9Z" transform="translate(-142.92 -181.32)"/><path class="cls-4" d="M306.88,259.42h4.39a2.2,2.2,0,0,1,2.31,2.42c0,1.74-1.1,2.44-2.7,2.44h-3.15v4h-0.85v-8.9Zm0.85,4.09h2.82c1.45,0,2.17-.54,2.17-1.66,0-.52-0.09-1.65-1.83-1.65h-3.17v3.31Z" transform="translate(-142.92 -181.32)"/><path class="cls-4" d="M247.12,274.42H248v8.12h4.91v0.77h-5.76v-8.9Z" transform="translate(-142.92 -181.32)"/><path class="cls-4" d="M257.62,282.44h0a2.1,2.1,0,0,1-3.9-1.06v-4.06h0.75v3.84c0,1.21.51,1.61,1.46,1.61a1.71,1.71,0,0,0,1.71-1.95v-3.5h0.75v6h-0.75v-0.87Z" transform="translate(-142.92 -181.32)"/><path class="cls-4" d="M259.84,277.32h0.75v1h0a1.72,1.72,0,0,1,1.66-1.11,1.56,1.56,0,0,1,1.72,1.31h0a1.86,1.86,0,0,1,1.88-1.31c1.74,0,1.74,1.46,1.74,2.19v4h-0.75v-3.87c0-.67,0-1.57-1.15-1.57s-1.62.95-1.62,2.11v3.34h-0.75v-3.77c0-.77-0.08-1.67-1.15-1.67s-1.62.82-1.62,2.15v3.3h-0.75v-6Z" transform="translate(-142.92 -181.32)"/><path class="cls-4" d="M269.12,274.84h0.75V276h-0.75v-1.17Zm0,2.47h0.75v6h-0.75v-6Z" transform="translate(-142.92 -181.32)"/><path class="cls-4" d="M271.28,277.32H272v0.88h0a2.1,2.1,0,0,1,3.9,1.06v4.06h-0.75v-3.84c0-1.21-.51-1.61-1.46-1.61a1.71,1.71,0,0,0-1.71,1.95v3.5h-0.75v-6Z" transform="translate(-142.92 -181.32)"/><path class="cls-4" d="M282.59,283.39c-0.92,0-1.49,0-1.56-1h0a2.21,2.21,0,0,1-2.1,1.13,1.68,1.68,0,0,1-1.91-1.59c0-1.27,1.11-1.65,2.15-1.91l1.84-.47v-0.6c0-.77-0.55-1.1-1.5-1.1a1.31,1.31,0,0,0-1.49,1.45l-0.85-.15a2.15,2.15,0,0,1,2.36-1.92c2.22,0,2.22,1.29,2.22,1.87V282c0,0.77.35,0.79,0.86,0.79v0.63Zm-3.62-.62a2,2,0,0,0,2-1.94v-0.69l-2.16.6a1.17,1.17,0,0,0-1.08,1.13A1,1,0,0,0,279,282.77Z" transform="translate(-142.92 -181.32)"/><path class="cls-4" d="M283.22,274.42H284v8.9h-0.75v-8.9Z" transform="translate(-142.92 -181.32)"/><path class="cls-4" d="M292.62,282.5h0a1.84,1.84,0,0,1-1.75,1c-1.12,0-2.52-.85-2.52-3.07s1.14-3.22,2.51-3.22a1.92,1.92,0,0,1,1.76.94h0v-3.69h0.75v8.9h-0.75V282.5Zm-1.74.26c1.4,0,1.77-1.27,1.77-2.45s-0.3-2.45-1.72-2.45c-1.12,0-1.86.94-1.86,2.45S289.81,282.77,290.88,282.77Z" transform="translate(-142.92 -181.32)"/><path class="cls-4" d="M294.78,274.84h0.75V276h-0.75v-1.17Zm0,2.47h0.75v6h-0.75v-6Z" transform="translate(-142.92 -181.32)"/><path class="cls-4" d="M297.2,281.65a1.59,1.59,0,0,0,1.74,1.19,1.27,1.27,0,0,0,1.46-1.22c0-1.79-3.55-.41-3.55-2.8a1.79,1.79,0,0,1,2-1.65c1.17,0,2,.35,2.26,1.36l-0.71.17a1.28,1.28,0,0,0-1.44-.91c-1.12,0-1.41.45-1.41,1,0,1.55,3.55.39,3.55,2.8,0,1-.83,1.83-2.32,1.83a2.29,2.29,0,0,1-2.35-1.59Z" transform="translate(-142.92 -181.32)"/><path class="cls-4" d="M302.81,280.29v0.16c0,1.34.59,2.31,1.92,2.31a1.94,1.94,0,0,0,2-1.27l0.7,0.19a2.76,2.76,0,0,1-2.71,1.79c-1.5,0-2.71-1.1-2.71-3.15s1.21-3.15,2.71-3.15c1.77,0,2.65,1.35,2.71,3.12h-4.57Zm3.72-.62a1.86,1.86,0,0,0-3.72,0h3.72Z" transform="translate(-142.92 -181.32)"/><path class="cls-4" d="M313.64,283.39c-0.92,0-1.49,0-1.56-1h0a2.21,2.21,0,0,1-2.1,1.13,1.68,1.68,0,0,1-1.91-1.59c0-1.27,1.11-1.65,2.15-1.91l1.84-.47v-0.6c0-.77-0.55-1.1-1.5-1.1a1.31,1.31,0,0,0-1.49,1.45l-0.85-.15a2.15,2.15,0,0,1,2.36-1.92c2.22,0,2.22,1.29,2.22,1.87V282c0,0.77.35,0.79,0.86,0.79v0.63Zm-3.62-.62a2,2,0,0,0,2-1.94v-0.69l-2.16.6a1.17,1.17,0,0,0-1.08,1.13A1,1,0,0,0,310,282.77Z" transform="translate(-142.92 -181.32)"/><path class="cls-4" d="M314.52,281.65a1.59,1.59,0,0,0,1.74,1.19,1.27,1.27,0,0,0,1.46-1.22c0-1.79-3.55-.41-3.55-2.8a1.79,1.79,0,0,1,2-1.65c1.17,0,2,.35,2.26,1.36l-0.71.17a1.28,1.28,0,0,0-1.44-.91c-1.12,0-1.41.45-1.41,1,0,1.55,3.55.39,3.55,2.8,0,1-.83,1.83-2.32,1.83a2.29,2.29,0,0,1-2.35-1.59Z" transform="translate(-142.92 -181.32)"/><path class="cls-4" d="M320.13,280.29v0.16c0,1.34.59,2.31,1.92,2.31a1.94,1.94,0,0,0,2-1.27l0.7,0.19a2.76,2.76,0,0,1-2.71,1.79c-1.5,0-2.71-1.1-2.71-3.15s1.21-3.15,2.71-3.15c1.77,0,2.65,1.35,2.71,3.12h-4.57Zm3.72-.62a1.86,1.86,0,0,0-3.72,0h3.72Z" transform="translate(-142.92 -181.32)"/><path class="cls-4" d="M265.53,292.32h0.78l1.57,4.71h0l1.5-4.71H270l1.5,4.71h0l1.58-4.71h0.77l-2,6h-0.62l-1.5-4.84h0l-1.49,4.84h-0.62Z" transform="translate(-142.92 -181.32)"/><path class="cls-4" d="M274.51,289.84h0.75V291h-0.75v-1.17Zm0,2.47h0.75v6h-0.75v-6Z" transform="translate(-142.92 -181.32)"/><path class="cls-4" d="M276,292.32h1.22v-2.56H278v2.56h1.3v0.63H278v4c0,0.45,0,.86.44,0.86a1.41,1.41,0,0,0,.83-0.3v0.75a2.45,2.45,0,0,1-1,.25,1,1,0,0,1-1-1.06v-4.46H276v-0.62Z" transform="translate(-142.92 -181.32)"/><path class="cls-4" d="M280,289.42h0.75v3.79h0a2.09,2.09,0,0,1,3.9,1v4.06h-0.75v-3.84c0-1.21-.51-1.61-1.46-1.61a1.71,1.71,0,0,0-1.71,1.95v3.5H280v-8.9Z" transform="translate(-142.92 -181.32)"/><path class="cls-4" d="M289.49,292.32h0.75v0.84h0a1.8,1.8,0,0,1,1.62-1l0.54,0v0.65a2.37,2.37,0,0,0-.5,0c-1.16,0-1.69.85-1.69,2.07v3.45h-0.75v-6Z" transform="translate(-142.92 -181.32)"/><path class="cls-4" d="M292.92,289.84h0.75V291h-0.75v-1.17Zm0,2.47h0.75v6h-0.75v-6Z" transform="translate(-142.92 -181.32)"/><path class="cls-4" d="M295.33,296.65a1.59,1.59,0,0,0,1.74,1.19,1.27,1.27,0,0,0,1.46-1.22c0-1.79-3.55-.41-3.55-2.8a1.79,1.79,0,0,1,2-1.65c1.17,0,2,.35,2.26,1.36l-0.71.17a1.28,1.28,0,0,0-1.44-.91c-1.12,0-1.41.45-1.41,1,0,1.55,3.55.39,3.55,2.8,0,1-.83,1.83-2.32,1.83a2.29,2.29,0,0,1-2.35-1.59Z" transform="translate(-142.92 -181.32)"/><path class="cls-4" d="M300.47,289.42h0.75v6.06l3.27-3.16h0.95L303,294.68l2.67,3.64h-0.91l-2.3-3.12-1.25,1.21v1.91h-0.75v-8.9Z" transform="translate(-142.92 -181.32)"/><path class="cls-4" d="M270.34,305.94H269v-0.62h1.31v-1.9a1.22,1.22,0,0,1,1.47-1.22,1.71,1.71,0,0,1,.66.13V303a1.34,1.34,0,0,0-.69-0.14c-0.51,0-.7.29-0.7,0.89v1.54h1.31v0.63h-1.31v5.37h-0.75v-5.37Z" transform="translate(-142.92 -181.32)"/><path class="cls-4" d="M278.42,311.39c-0.92,0-1.49,0-1.56-1h0a2.21,2.21,0,0,1-2.1,1.13,1.68,1.68,0,0,1-1.91-1.59c0-1.27,1.11-1.65,2.15-1.91l1.84-.47v-0.6c0-.77-0.55-1.1-1.5-1.1a1.31,1.31,0,0,0-1.49,1.45l-0.85-.15a2.15,2.15,0,0,1,2.36-1.92c2.22,0,2.22,1.29,2.22,1.87V310c0,0.77.35,0.79,0.86,0.79v0.63Zm-3.62-.62a2,2,0,0,0,2-1.94v-0.69l-2.16.6a1.17,1.17,0,0,0-1.08,1.13A1,1,0,0,0,274.79,310.77Z" transform="translate(-142.92 -181.32)"/><path class="cls-4" d="M283.11,306.8a1.68,1.68,0,0,0-1.65-.94,2.16,2.16,0,0,0-2,2.45c0,1.65,1,2.45,2,2.45a1.78,1.78,0,0,0,1.65-1l0.76,0.19a2.48,2.48,0,0,1-2.41,1.49c-1.5,0-2.69-1.26-2.71-3.15a2.88,2.88,0,0,1,2.89-3.15,2.44,2.44,0,0,1,2.31,1.49Z" transform="translate(-142.92 -181.32)"/><path class="cls-4" d="M284,305.32h1.22v-2.56H286v2.56h1.3v0.63H286v4c0,0.45,0,.86.44,0.86a1.41,1.41,0,0,0,.83-0.3v0.75a2.45,2.45,0,0,1-1,.25,1,1,0,0,1-1-1.06v-4.46H284v-0.62Z" transform="translate(-142.92 -181.32)"/><path class="cls-4" d="M290.32,305.17c1.5,0,2.71,1.1,2.71,3.15s-1.21,3.15-2.71,3.15-2.71-1.1-2.71-3.15S288.82,305.17,290.32,305.17Zm-2,3.15c0,1.55.85,2.45,2,2.45s2-.9,2-2.45-0.85-2.45-2-2.45S288.36,306.78,288.36,308.32Z" transform="translate(-142.92 -181.32)"/><path class="cls-4" d="M294.18,305.32h0.75v0.84h0a1.8,1.8,0,0,1,1.62-1l0.54,0v0.65a2.37,2.37,0,0,0-.5,0c-1.16,0-1.69.85-1.69,2.07v3.45h-0.75v-6Z" transform="translate(-142.92 -181.32)"/><path class="cls-4" d="M297.86,309.65a1.59,1.59,0,0,0,1.74,1.19,1.27,1.27,0,0,0,1.46-1.22c0-1.79-3.55-.41-3.55-2.8a1.79,1.79,0,0,1,2-1.65c1.17,0,2,.35,2.26,1.36l-0.71.17a1.28,1.28,0,0,0-1.44-.91c-1.12,0-1.41.45-1.41,1,0,1.55,3.55.39,3.55,2.8,0,1-.83,1.83-2.32,1.83a2.29,2.29,0,0,1-2.35-1.59Z" transform="translate(-142.92 -181.32)"/><polygon class="cls-5" points="74.76 92.13 74.76 98.7 80.02 95.42 74.76 92.13"/><polygon class="cls-5" points="70.78 92.13 70.78 98.7 76.04 95.42 70.78 92.13"/><polygon class="cls-5" points="325.46 8.29 325.46 1.72 320.19 5 325.46 8.29"/><polygon class="cls-5" points="329.43 8.29 329.43 1.72 324.17 5 329.43 8.29"/><polygon class="cls-5" points="500.06 23.77 506.63 23.64 503.24 18.45 500.06 23.77"/><polygon class="cls-5" points="500.14 27.75 506.71 27.62 503.32 22.42 500.14 27.75"/><line class="cls-6" x1="320.46" y1="66.72" x2="353.73" y2="66.72"/><polygon class="cls-5" points="339.65 63.44 339.65 70.01 344.92 66.72 339.65 63.44"/><polygon class="cls-5" points="335.68 63.44 335.68 70.01 340.94 66.72 335.68 63.44"/><line class="cls-8" x1="437.7" y1="66.72" x2="478.33" y2="66.72"/><polygon class="cls-5" points="456.89 63.44 456.89 70.01 462.15 66.72 456.89 63.44"/><polygon class="cls-5" points="452.91 63.44 452.91 70.01 458.17 66.72 452.91 63.44"/><line class="cls-6" x1="323.16" y1="124.37" x2="454.33" y2="124.37"/><polygon class="cls-5" points="342.35 121.08 342.35 127.65 347.61 124.36 342.35 121.08"/><polygon class="cls-5" points="338.37 121.08 338.37 127.65 343.63 124.36 338.37 121.08"/><polygon class="cls-5" points="396.55 121.08 396.55 127.65 401.81 124.36 396.55 121.08"/><polygon class="cls-5" points="392.57 121.08 392.57 127.65 397.83 124.36 392.57 121.08"/><polygon class="cls-5" points="234.69 63 234.69 69.57 239.95 66.28 234.69 63"/><polygon class="cls-5" points="230.71 63 230.71 69.57 235.97 66.28 230.71 63"/><polygon class="cls-5" points="235.33 121.08 235.33 127.65 240.59 124.36 235.33 121.08"/><polygon class="cls-5" points="231.35 121.08 231.35 127.65 236.62 124.36 231.35 121.08"/><path class="cls-4" d="M625,241h4.57a2.75,2.75,0,0,1,3,2.87c0,1.77-1.16,2.7-3,2.83l3.3,4.62h-1.25l-3.28-4.58H626v4.58h-1V241Zm1,4.84H629c2.09,0,2.55-1.06,2.55-2,0-1.2-.64-2-2.39-2H626v3.94Z" transform="translate(-142.92 -181.32)"/><path class="cls-4" d="M634.16,247.82V248c0,1.55.68,2.68,2.23,2.68a2.24,2.24,0,0,0,2.26-1.48l0.81,0.22a3.2,3.2,0,0,1-3.15,2.07c-1.74,0-3.15-1.28-3.15-3.65s1.41-3.65,3.15-3.65c2.06,0,3.07,1.57,3.15,3.62h-5.31Zm4.32-.72a2.16,2.16,0,0,0-4.32,0h4.32Z" transform="translate(-142.92 -181.32)"/><path class="cls-4" d="M640.67,241h0.87v10.32h-0.87V241Z" transform="translate(-142.92 -181.32)"/><path class="cls-4" d="M649.24,251.42c-1.07,0-1.73,0-1.81-1.22h0a2.56,2.56,0,0,1-2.44,1.3,1.94,1.94,0,0,1-2.22-1.84c0-1.48,1.29-1.91,2.49-2.22l2.13-.55v-0.7c0-.9-0.64-1.28-1.74-1.28a1.52,1.52,0,0,0-1.73,1.68l-1-.17a2.5,2.5,0,0,1,2.74-2.23c2.58,0,2.58,1.49,2.58,2.17v3.41c0,0.9.41,0.91,1,.91v0.72Zm-4.2-.72a2.26,2.26,0,0,0,2.33-2.25v-0.8l-2.51.7a1.36,1.36,0,0,0-1.25,1.3A1.22,1.22,0,0,0,645,250.69Z" transform="translate(-142.92 -181.32)"/><path class="cls-4" d="M650,244.37h0.87v1h0a2.2,2.2,0,0,1,2-1.22c1.52,0,2.91,1.2,2.91,3.54,0,2.88-1.48,3.77-2.86,3.77a2.08,2.08,0,0,1-2.1-1.16h0v4.58H650V244.37Zm2.9,0.64c-1.72,0-2.07,1.51-2.07,2.84s0.35,2.84,2.06,2.84c1.25,0,2.1-1.09,2.1-2.84S654.1,245,652.87,245Z" transform="translate(-142.92 -181.32)"/><path class="cls-4" d="M657.32,249.4a1.85,1.85,0,0,0,2,1.38,1.47,1.47,0,0,0,1.7-1.42c0-2.07-4.12-.48-4.12-3.25,0-1,.83-1.91,2.38-1.91,1.36,0,2.29.41,2.62,1.58l-0.83.2a1.49,1.49,0,0,0-1.67-1.06c-1.3,0-1.64.52-1.64,1.22,0,1.8,4.12.45,4.12,3.25,0,1.15-1,2.12-2.7,2.12a2.66,2.66,0,0,1-2.73-1.84Z" transform="translate(-142.92 -181.32)"/><path class="cls-4" d="M663.83,247.82V248c0,1.55.68,2.68,2.23,2.68a2.24,2.24,0,0,0,2.26-1.48l0.81,0.22A3.2,3.2,0,0,1,666,251.5c-1.74,0-3.15-1.28-3.15-3.65s1.41-3.65,3.15-3.65c2.06,0,3.07,1.57,3.15,3.62h-5.31Zm4.32-.72a2.16,2.16,0,0,0-4.32,0h4.32Z" transform="translate(-142.92 -181.32)"/><rect class="cls-3" x="435.11" y="109.86" width="123.72" height="26.95"/><path class="cls-4" d="M592,299.63h1v10.32h-1V299.63Z" transform="translate(-142.92 -181.32)"/><path class="cls-4" d="M594.85,299.63h6.73v0.9h-5.74V304H601v0.9h-5.13v5.07h-1V299.63Z" transform="translate(-142.92 -181.32)"/><path class="cls-4" d="M602.29,299.63h1.28l2.8,4.07,2.83-4.07h1.23L607,304.38l3.89,5.57h-1.23l-3.33-5-3.42,5h-1.15l3.9-5.62Z" transform="translate(-142.92 -181.32)"/><path class="cls-4" d="M618.56,302.61h0.72v3.3h3.31v0.73h-3.31v3.3h-0.72v-3.3h-3.3v-0.73h3.3v-3.3Z" transform="translate(-142.92 -181.32)"/><path class="cls-4" d="M628.84,299.36h0.77L624,310.21h-0.77Z" transform="translate(-142.92 -181.32)"/><path class="cls-4" d="M629.61,305.73h7.25v0.81h-7.25v-0.81Z" transform="translate(-142.92 -181.32)"/><path class="cls-4" d="M641.6,299.63l4,10.32h-1.06l-1.16-3.1h-4.54l-1.23,3.1h-1l4.2-10.32h0.8Zm1.46,6.41-1.91-5.09-2,5.09h3.88Z" transform="translate(-142.92 -181.32)"/><path class="cls-4" d="M646,299.63h7.29v0.64L647.07,309h6.19v0.9h-7.57v-0.64l6.25-8.78H646v-0.9Z" transform="translate(-142.92 -181.32)"/><path class="cls-4" d="M658.41,299.63l4,10.32h-1.06l-1.16-3.1h-4.54l-1.23,3.1h-1l4.2-10.32h0.8Zm1.46,6.41L658,300.94,656,306h3.88Z" transform="translate(-142.92 -181.32)"/><path class="cls-4" d="M667.9,299.36h0.77l-5.57,10.84h-0.77Z" transform="translate(-142.92 -181.32)"/><path class="cls-4" d="M669.75,299.63h1.2l3.35,8.64h0l3.35-8.64h1.2v10.32h-1v-8.44h0l-3.22,8.44H674l-3.22-8.44h0v8.44h-1V299.63Z" transform="translate(-142.92 -181.32)"/><path class="cls-4" d="M680.93,299.63H686a2.55,2.55,0,0,1,2.68,2.81c0,2-1.28,2.83-3.13,2.83h-3.65v4.68h-1V299.63Zm1,4.74h3.28c1.68,0,2.52-.62,2.52-1.93,0-.61-0.1-1.91-2.12-1.91h-3.68v3.84Z" transform="translate(-142.92 -181.32)"/><line class="cls-6" x1="539.79" y1="134.94" x2="539.79" y2="187.71"/><polygon class="cls-5" points="543.08 147.98 536.5 147.98 539.79 153.24 543.08 147.98"/><polygon class="cls-5" points="543.08 144 536.5 144 539.79 149.27 543.08 144"/><path class="cls-4" d="M392,299h1l5.9,8.67h0V299h1v10.32h-1l-5.9-8.67h0v8.67h-1V299Z" transform="translate(-142.92 -181.32)"/><path class="cls-4" d="M404.22,302.21c1.74,0,3.15,1.28,3.15,3.65s-1.41,3.65-3.15,3.65-3.15-1.28-3.15-3.65S402.48,302.21,404.22,302.21Zm-2.28,3.65c0,1.8,1,2.84,2.28,2.84s2.28-1,2.28-2.84-1-2.84-2.28-2.84S401.95,304.08,401.95,305.87Z" transform="translate(-142.92 -181.32)"/><path class="cls-4" d="M412,302.39h0.87v1h0a2.09,2.09,0,0,1,1.88-1.15c0.23,0,.41,0,0.62,0V303a2.75,2.75,0,0,0-.58-0.06c-1.35,0-2,1-2,2.41v4H412v-7Z" transform="translate(-142.92 -181.32)"/><path class="cls-4" d="M416.2,305.84V306c0,1.55.68,2.68,2.23,2.68a2.24,2.24,0,0,0,2.26-1.48l0.81,0.22a3.2,3.2,0,0,1-3.15,2.07c-1.74,0-3.15-1.28-3.15-3.65s1.41-3.65,3.15-3.65c2.06,0,3.07,1.57,3.15,3.62H416.2Zm4.32-.72a2.16,2.16,0,0,0-4.32,0h4.32Z" transform="translate(-142.92 -181.32)"/><path class="cls-4" d="M422.49,302.39h0.87v1.12h0a2,2,0,0,1,1.93-1.29,1.81,1.81,0,0,1,2,1.52h0a2.15,2.15,0,0,1,2.17-1.52c2,0,2,1.7,2,2.54v4.59h-0.87v-4.49c0-.78,0-1.83-1.33-1.83s-1.88,1.1-1.88,2.45v3.87h-0.87V305c0-.9-0.09-1.94-1.33-1.94-1.07,0-1.88,1-1.88,2.49v3.83h-0.87v-7Z" transform="translate(-142.92 -181.32)"/><path class="cls-4" d="M433,299.52h0.87v1.36H433v-1.36Zm0,2.87h0.87v7H433v-7Z" transform="translate(-142.92 -181.32)"/><path class="cls-4" d="M435.47,307.42a1.85,1.85,0,0,0,2,1.38,1.47,1.47,0,0,0,1.7-1.42c0-2.07-4.12-.48-4.12-3.25,0-1,.83-1.91,2.38-1.91,1.36,0,2.29.41,2.62,1.58l-0.83.2a1.49,1.49,0,0,0-1.67-1.06c-1.3,0-1.64.52-1.64,1.22,0,1.8,4.12.45,4.12,3.25,0,1.15-1,2.12-2.7,2.12a2.66,2.66,0,0,1-2.73-1.84Z" transform="translate(-142.92 -181.32)"/><path class="cls-4" d="M441.43,307.42a1.85,1.85,0,0,0,2,1.38,1.47,1.47,0,0,0,1.7-1.42c0-2.07-4.12-.48-4.12-3.25,0-1,.83-1.91,2.38-1.91,1.36,0,2.29.41,2.62,1.58l-0.83.2a1.49,1.49,0,0,0-1.67-1.06c-1.3,0-1.64.52-1.64,1.22,0,1.8,4.12.45,4.12,3.25,0,1.15-1,2.12-2.7,2.12a2.66,2.66,0,0,1-2.73-1.84Z" transform="translate(-142.92 -181.32)"/><path class="cls-4" d="M447.1,299.52H448v1.36H447.1v-1.36Zm0,2.87H448v7H447.1v-7Z" transform="translate(-142.92 -181.32)"/><path class="cls-4" d="M452,302.21c1.74,0,3.15,1.28,3.15,3.65s-1.41,3.65-3.15,3.65-3.15-1.28-3.15-3.65S450.29,302.21,452,302.21Zm-2.28,3.65c0,1.8,1,2.84,2.28,2.84s2.28-1,2.28-2.84-1-2.84-2.28-2.84S449.75,304.08,449.75,305.87Z" transform="translate(-142.92 -181.32)"/><path class="cls-4" d="M456.09,302.39H457v1h0a2.43,2.43,0,0,1,4.52,1.23v4.71h-0.87v-4.45c0-1.41-.59-1.87-1.7-1.87a2,2,0,0,0-2,2.26v4.06h-0.87v-7Z" transform="translate(-142.92 -181.32)"/></svg>