<?xml version="1.0" standalone="no"?>
<!DOCTYPE svg PUBLIC "-//W3C//DTD SVG 1.1//EN" "http://www.w3.org/Graphics/SVG/1.1/DTD/svg11.dtd" >
<svg xmlns="http://www.w3.org/2000/svg" width="100%" height="100%">
<metadata>
Created by FontXChange 20110222 at Mon Nov 28 12:13:09 2016
 By Creative4
 The digitally encoded machine readable outline data for producing the
 Typefaces provided as part of your laser printer is copyrighted (c) 1981
 Linotype-Hell AG. All rights reserved. This data is the property of Linotype-
 Hell AG, and may not be reproduced, used, displayed, modified, disclosed or
 transferred without the express written approval of Linotype-Hell AG. 
</metadata>
<defs>
<font id="Univers-CondensedLightOblique" horiz-adv-x="444" >
  <font-face 
    font-family="Univers"
    font-weight="200"
    font-style="oblique"
    font-stretch="condensed"
    units-per-em="1000"
    panose-1="2 0 3 6 0 0 0 0 0 0"
    ascent="800"
    descent="-200"
    x-height="505"
    cap-height="722"
    bbox="-169.164 -250 1065.47 953"
    underline-thickness="50"
    underline-position="-100"
    stemh="48"
    stemv="60"
    unicode-range="U+0020-FB02"
  />
    <missing-glyph />
    <glyph glyph-name="space" unicode=" " horiz-adv-x="222" 
 />
    <glyph glyph-name="exclam" unicode="!" horiz-adv-x="333" 
d="M129 0l16.1543 76h74l-16.1543 -76h-74zM228.135 170h-52l108.331 552h70z" />
    <glyph glyph-name="quotedbl" unicode="&#x22;" horiz-adv-x="309" 
d="M182.467 515l43.999 207h52l-43.999 -207h-52zM293.467 515l43.999 207h52l-43.999 -207h-52z" />
    <glyph glyph-name="numbersign" unicode="#" 
d="M32 0l119.525 233h-110l27.2031 48h107l63.1445 123h-109l27.2031 48h105l124.076 245h52l-124.076 -245h77l123.076 245h52l-123.076 -245h105l-26.2031 -48h-102l-63.1445 -123h103l-26.2031 -48h-100l-117.525 -233h-55l119.525 233h-77l-119.525 -233h-52z
M226.729 281h77l64.1445 123h-76z" />
    <glyph glyph-name="dollar" unicode="$" 
d="M288.873 404l53.1396 250c-57.4883 -7 -100.652 -36 -115.744 -107c-15.5166 -73 17.4062 -111 62.6045 -143zM308.893 310l-56.7529 -267c68.0635 5 107.652 36 124.02 113c16.792 79 -19.4932 120 -67.2666 154zM240.662 -11l-16.5801 -78h-40l16.5801 78
c-113.513 7 -150.334 69 -121.852 203h64c-19.7676 -93 -11.9697 -141 69.3291 -149l61.6416 290c-67.6475 44 -138.295 88 -113 207c22.7432 107 99.584 158 192.709 168l13.3916 63h40l-13.3916 -63c115.15 -4 149.759 -67 119.401 -191h-64
c17.4297 82 10.8457 131 -66.8789 137l-57.8154 -272c68.8594 -43 145.933 -85 119.575 -209c-25.7197 -121 -96.623 -177 -203.11 -184z" />
    <glyph glyph-name="percent" unicode="%" horiz-adv-x="778" 
d="M278.119 344c-108 0 -111.933 85 -92.5898 176c19.1309 90 56.9609 188 169.961 188c100 0 112.57 -82 93.8652 -170c-19.1299 -90 -56.2363 -194 -171.236 -194zM288.322 392c74 0 95.2168 81 106.482 134c11.4785 54 20.4834 134 -49.5166 134
s-95.0049 -80 -106.483 -134c-11.2656 -53 -24.4824 -134 49.5176 -134zM570.662 -11c-108 0 -111.933 85 -92.5898 176c19.1299 90 56.96 188 169.96 188c100 0 112.57 -82 93.8662 -170c-19.1309 -90 -56.2363 -194 -171.236 -194zM580.864 37
c74 0 95.2178 81 106.483 134c11.4775 54 20.4824 134 -49.5176 134s-95.0049 -80 -106.482 -134c-11.2656 -53 -24.4834 -134 49.5166 -134zM247.71 -39h-46l465.756 761h46z" />
    <glyph glyph-name="ampersand" unicode="&#x26;" horiz-adv-x="611" 
d="M445.932 122l-142.687 232c-77.2031 -48 -122.579 -78 -140.859 -164c-21.6807 -102 24.1162 -150 122.116 -150c57 0 123.377 30 161.43 82zM332.612 431c63.502 40 123.43 82 139.158 156c12.3291 58 -3.80664 95 -67.8066 95c-58 0 -103.802 -32 -116.556 -92
c-15.3037 -72 12.2568 -107 45.2041 -159zM515 0l-38.6963 72c-74.0908 -71 -142.279 -86 -230.279 -86c-95 0 -180.798 48 -147.852 203c23.8066 112 78.8213 145 176.212 208c-36.2461 60 -71.3818 97 -53.7393 180c23.5938 111 88.7969 159 199.797 159
c90 0 139.348 -36 114.479 -153c-20.4053 -96 -94.5459 -139 -173.449 -195l126.214 -206c28.4775 54 61.709 168 73.4004 223h60c-11.6914 -55 -43.8984 -183 -101.091 -278l77.0049 -127h-82z" />
    <glyph glyph-name="quoteright" unicode="&#x2019;" horiz-adv-x="222" 
d="M168.993 541l78.4727 181h73l-98.4727 -181h-53z" />
    <glyph glyph-name="parenleft" unicode="(" horiz-adv-x="222" 
d="M274.93 743h45c-66.1826 -142 -128.004 -287 -159.25 -434c-31.6709 -149 -37.3418 -298 -26.7373 -441h-49c-14.667 138 -22.4844 280 8.5498 426c32.7334 154 100.617 304 181.438 449z" />
    <glyph glyph-name="parenright" unicode=")" horiz-adv-x="222" 
d="M217.93 743h45c19.1797 -145 23.2959 -295 -9.4375 -449c-31.0342 -146 -99.2168 -288 -172.55 -426h-49c71.3955 143 129.066 292 160.737 441c31.2461 147 31.0674 292 25.25 434z" />
    <glyph glyph-name="asterisk" unicode="*" 
d="M351.66 610l86.7822 126l39.0479 -28l-100.807 -112l138.339 11l-11.2656 -53l-133.024 14l54.7686 -114l-54.1641 -29l-32.0059 127l-85.9941 -127l-41.8359 29l103.231 114l-138.976 -14l11.2656 53l133.661 -11l-53.1934 112l50.9521 28z" />
    <glyph glyph-name="plus" unicode="+" 
d="M244.25 227h-176l11.0537 52h176l48.0371 226h52l-48.0371 -226h176l-11.0537 -52h-176l-48.25 -227h-52z" />
    <glyph glyph-name="comma" unicode="," horiz-adv-x="222" 
d="M31.6816 -105l78.4727 181h73l-98.4727 -181h-53z" />
    <glyph glyph-name="hyphen" unicode="-" horiz-adv-x="278" 
d="M290.589 238h-202l12.1152 57h202z" />
    <glyph glyph-name="period" unicode="." horiz-adv-x="222" 
d="M74 0l16.1543 76h74l-16.1543 -76h-74z" />
    <glyph glyph-name="slash" unicode="/" horiz-adv-x="333" 
d="M26.6191 -110h-53l460.847 832h54z" />
    <glyph glyph-name="zero" unicode="0" 
d="M211.09 485l-58.0273 -273c-33.3721 -157 33.0771 -169 78.0771 -169s116.551 12 149.923 169l58.0273 273c33.3721 157 -33.0771 169 -78.0771 169s-116.551 -12 -149.923 -169zM372.49 708c178 0 145.479 -153 117.634 -284l-32.0957 -151
c-27.8447 -131 -60.3662 -284 -238.366 -284s-145.479 153 -117.634 284l32.0957 151c27.8447 131 60.3662 284 238.366 284z" />
    <glyph glyph-name="one" unicode="1" 
d="M199.317 519l14.666 69c52.8018 32 105.029 66 149.169 109h56l-148.152 -697h-60l131.147 617c-45.6514 -36 -92.666 -69 -142.83 -98z" />
    <glyph glyph-name="two" unicode="2" 
d="M405.479 54l-11.4785 -54h-355l11.9033 56c206.014 240 375.022 400 394.79 493c19.7686 93 -36.6807 105 -91.6807 105c-76 0 -125.691 -55 -140.995 -127h-60c29.5449 139 131.473 181 212.473 181s172.474 -26 147.18 -145c-21.6816 -102 -84.7969 -159 -392.191 -509
h285z" />
    <glyph glyph-name="three" unicode="3" 
d="M241.994 334l11.4775 54c101.088 -9 160.077 38 182.184 142c16.1543 76 -4.64258 124 -83.6426 124c-80 0 -119.691 -55 -131.995 -127h-64c14.8936 103 90.4727 181 199.473 181c117 0 172.223 -46 145.865 -170c-17.2168 -81 -53.9463 -155 -146.41 -176l-0.424805 -2
c94.874 -10 97.2949 -88 79.8652 -170c-27.207 -128 -102.724 -201 -216.724 -201c-121 0 -177.885 57 -147.314 182h64c-18.1543 -76 6.79199 -128 85.792 -128c93 0 131.541 59 147.271 133c25.5068 120 3.70898 168 -125.416 158z" />
    <glyph glyph-name="four" unicode="4" 
d="M130.463 228h196l86.9355 409h-2zM486.152 697l-99.6895 -469h82l-11.4775 -54h-82l-36.9854 -174h-60l36.9854 174h-250l12.3281 58l313.839 465h95z" />
    <glyph glyph-name="five" unicode="5" 
d="M337.801 446c171 0 135.392 -144 117.537 -228c-24.6572 -116 -77.6758 -229 -227.676 -229c-119 0 -168.097 56 -139.165 178h64c-18.792 -79 2.64258 -124 85.6426 -124c105 0 135.556 92 153.198 175c18.4922 87 29.9844 174 -81.0156 174
c-45 0 -104.313 -25 -124.517 -73h-58l80.3467 378h321l-11.4785 -54h-261l-52.9268 -249c47.8652 37 79.0537 52 134.054 52z" />
    <glyph glyph-name="six" unicode="6" 
d="M383.612 224c22.957 108 8.22168 161 -73.7783 161c-73 0 -133.202 -48 -158.496 -167c-1.27539 -6 -51.1982 -175 80.8018 -175c108 0 133.831 98 151.473 181zM508.206 542h-64c10.666 69 -8.19336 112 -78.1934 112c-120 0 -148.57 -125 -171.101 -231l-12.9668 -61
l2.21289 1c36.8408 51 92.1543 76 153.154 76c167 0 118.59 -176 114.126 -197c-28.9072 -136 -69.7764 -253 -222.776 -253c-170 0 -164.957 99 -135.412 238l48.4639 228c35.9219 169 85.7764 253 239.776 253c108 0 147.885 -57 126.716 -166z" />
    <glyph glyph-name="seven" unicode="7" 
d="M168.674 643l11.4785 54h353l-13.6035 -64l-349.549 -633h-70l360.674 643h-292z" />
    <glyph glyph-name="eight" unicode="8" 
d="M304.472 388c84 0 123.116 57 140.121 137c17.4297 82 6.69531 135 -82.3047 135s-122.266 -53 -139.695 -135c-17.0049 -80 -2.12109 -137 81.8789 -137zM372.009 367l-0.425781 -2c90.5361 -21 90.6572 -91 72.5898 -176c-19.3418 -91 -66.5107 -200 -224.511 -200
s-158.831 109 -139.489 200c18.0674 85 47.9463 155 147.41 176l-1.57422 2c-81.1748 18 -82.2949 88 -65.5029 167c13.6035 64 41.9844 174 211.984 174s151.619 -110 138.016 -174c-16.792 -79 -47.6719 -149 -138.497 -167zM229.864 37c90 0 131.392 63 148.608 144
c15.9424 75 25.7969 159 -84.2031 159s-135.854 -84 -151.797 -159c-17.2168 -81 -2.6084 -144 87.3916 -144z" />
    <glyph glyph-name="nine" unicode="9" 
d="M285.932 329c116 0 143.594 111 153.371 157c18.4922 87 34.71 168 -80.29 168c-99 0 -130.005 -80 -147.01 -160c-16.3662 -77 -23.0713 -165 73.9287 -165zM268.453 275c-124 0 -151.908 71 -120.45 219c25.9326 122 80.4873 214 220.487 214
c176 0 160.319 -102 124.609 -270l-18.2793 -86c-53.9893 -254 -81.1582 -363 -254.158 -363c-117 0 -158.798 48 -136.716 166h64c-15.666 -69 3.19336 -112 76.1934 -112c127 0 136.367 77 187.279 293h-2c-39.1396 -43 -90.9658 -61 -140.966 -61z" />
    <glyph glyph-name="colon" unicode=":" horiz-adv-x="222" 
d="M74 0l16.1543 76h74l-16.1543 -76h-74zM165.187 429l16.1543 76h74l-16.1543 -76h-74z" />
    <glyph glyph-name="semicolon" unicode=";" horiz-adv-x="222" 
d="M17.6816 -105l78.4727 181h73l-98.4727 -181h-53zM165.187 429l16.1543 76h74l-16.1543 -76h-74z" />
    <glyph glyph-name="less" unicode="&#x3c;" 
d="M68.1006 231l9.35254 44l456.738 234l-11.9033 -56l-396.448 -195l-1.0625 -5l312.275 -201l-11.9033 -56z" />
    <glyph glyph-name="equal" unicode="=" 
d="M502.221 368l-11.0527 -52h-404l11.0527 52h404zM464.386 190l-11.0527 -52h-404l11.0527 52h404z" />
    <glyph glyph-name="greater" unicode="&#x3e;" 
d="M484.453 275l-9.35254 -44l-456.951 -235l11.9033 56l397.725 201l1.0625 5l-313.552 195l11.9033 56z" />
    <glyph glyph-name="question" unicode="?" horiz-adv-x="389" 
d="M245.135 170h-60l18.4922 87c35.0723 165 132.42 129 171.53 313c13.8164 65 20.8066 112 -54.1934 112c-68 0 -88.3281 -58 -98.0186 -113h-64c16.4053 96 67.4971 167 172.497 167c116 0 131.521 -54 107.503 -167c-40.1738 -189 -149.599 -191 -173.83 -305zM143 0
l16.1543 76h74l-16.1543 -76h-74z" />
    <glyph glyph-name="at" unicode="@" horiz-adv-x="800" 
d="M374.236 194c62 0 101.715 41 131.067 85c42.8154 65 101.622 177 108.637 210c7.43945 35 -14.4834 73 -63.4834 73c-105 0 -210.946 -155 -231.14 -250c-16.1543 -76 3.91895 -118 54.9189 -118zM653.993 541l25.415 49h55l-171.742 -314
c-9.61328 -17 -22.9277 -42 -26.541 -59c-3.40137 -16 17.1113 -23 48.1113 -23c119 0 205.883 150 218.85 211c56.3271 265 -162.847 283 -256.847 283c-177 0 -347.608 -144 -386.506 -327c-38.6855 -182 70.4932 -327 247.493 -327c127 0 249.054 52 334.184 142h53
c-91.7197 -121 -241.386 -190 -397.386 -190c-201 0 -329.291 168 -285.291 375c43.7861 206 243.709 375 444.709 375c194 0 347.57 -82 297.831 -316c-35.2842 -166 -185.24 -274 -291.24 -274c-46 0 -75.2998 8 -78.3721 50c-48.8643 -37 -90.6279 -50 -134.628 -50
c-84 0 -111.121 70 -93.2656 154c29.5449 139 156.893 310 304.893 310c49 0 81.1104 -23 92.333 -69z" />
    <glyph glyph-name="A" unicode="A" horiz-adv-x="556" 
d="M394.466 722h76l71.5342 -722h-67l-17.6143 190h-283l-97.3857 -190h-64zM204.864 244h247l-36.2773 408h-2z" />
    <glyph glyph-name="B" unicode="B" horiz-adv-x="500" 
d="M217.235 401h123c92 0 134.392 63 151.82 145c25.5068 120 -40.0674 122 -91.0674 122h-127zM272 0h-204l153.466 722h201c113 0 161.223 -46 134.228 -173c-18.4922 -87 -45.2451 -147 -141.56 -172l-0.424805 -2c90.749 -20 102.357 -83 83.0146 -174
c-27.6318 -130 -104.724 -201 -225.724 -201zM205.757 347l-62.2783 -293h102c106 0 164.651 36 187.183 142c13.6035 64 13.0957 151 -96.9043 151h-130z" />
    <glyph glyph-name="C" unicode="C" horiz-adv-x="500" 
d="M272.024 -14c-216 0 -179.74 180 -138.291 375c41.4482 195 81.709 375 297.709 375c175 0 147.392 -144 133.575 -209h-64c17.0049 80 10.9463 155 -81.0537 155c-152 0 -181.42 -129 -222.23 -321c-40.8115 -192 -66.2314 -321 85.7686 -321
c83 0 129.729 74 150.497 167h68c-11.0527 -52 -58.9746 -221 -229.975 -221z" />
    <glyph glyph-name="D" unicode="D" horiz-adv-x="556" 
d="M280.988 668l-130.51 -614h78c193 0 223.053 52 285.757 347c43.999 207 28.7529 267 -149.247 267h-84zM75 0l153.466 722h191c202 0 201.919 -118 149.63 -364c-51.0137 -240 -111.096 -358 -329.096 -358h-165z" />
    <glyph glyph-name="E" unicode="E" 
d="M228.466 722h327l-11.4775 -54h-263l-57.3906 -270h251l-11.4785 -54h-251l-61.6406 -290h270l-11.4785 -54h-334z" />
    <glyph glyph-name="F" unicode="F" horiz-adv-x="389" 
d="M68 0l153.466 722h305l-11.4775 -54h-241l-57.3906 -270h224l-11.4785 -54h-224l-73.1191 -344h-64z" />
    <glyph glyph-name="G" unicode="G" horiz-adv-x="556" 
d="M425.966 61l55.6904 262h-146l11.4775 54h210l-76.7324 -361c-68.252 -20 -137.377 -30 -205.377 -30c-235 0 -168.05 235 -138.291 375c29.7578 140 62.709 375 297.709 375c138 0 196.459 -59 163.701 -199h-64c20.1924 95 -10.1797 145 -111.18 145
c-156 0 -183.546 -139 -222.23 -321c-38.6855 -182 -70.2314 -321 85.7686 -321c55 0 102.701 8 139.464 21z" />
    <glyph glyph-name="H" unicode="H" horiz-adv-x="556" 
d="M136 0h-64l153.466 722h64l-68.8682 -324h284l68.8682 324h64l-153.466 -722h-64l73.1191 344h-284z" />
    <glyph glyph-name="I" unicode="I" horiz-adv-x="222" 
d="M232.466 722h64l-153.466 -722h-64z" />
    <glyph glyph-name="J" unicode="J" 
d="M65.3613 204h64c-17.0039 -80 -26.8594 -164 74.1406 -164c59 0 117.377 30 137.57 125l118.394 557h64l-120.307 -566c-36.1348 -170 -190.135 -170 -212.135 -170c-158 0 -147.769 114 -125.663 218z" />
    <glyph glyph-name="K" unicode="K" horiz-adv-x="500" 
d="M142 0h-64l153.466 722h64l-70.3564 -331h2l326.356 331h77l-341.632 -337l196.166 -385h-80l-182.354 370h-2z" />
    <glyph glyph-name="L" unicode="L" horiz-adv-x="389" 
d="M370 0h-303l153.466 722h64l-141.987 -668h239z" />
    <glyph glyph-name="M" unicode="M" horiz-adv-x="778" 
d="M135 0h-64l153.466 722h109l74.4131 -652h2l348.587 652h102l-153.466 -722h-64l140.287 660h-2l-352.287 -660h-74l-77.7119 660h-2z" />
    <glyph glyph-name="N" unicode="N" horiz-adv-x="611" 
d="M141 0h-64l153.466 722h98l158.239 -634l2.4248 2l134.336 632h64l-153.466 -722h-97l-157.751 641l-2.4248 -2z" />
    <glyph glyph-name="O" unicode="O" horiz-adv-x="556" 
d="M200.733 361c-40.8115 -192 -66.2314 -321 85.7686 -321s181.42 129 222.231 321c40.8105 192 66.2305 321 -85.7695 321s-181.42 -129 -222.23 -321zM136.733 361c41.4482 195 81.709 375 297.709 375s179.739 -180 138.291 -375
c-41.4492 -195 -81.709 -375 -297.709 -375s-179.74 180 -138.291 375z" />
    <glyph glyph-name="P" unicode="P" 
d="M64 0l153.466 722h198c60 0 157.3 -8 121.803 -175c-30.8203 -145 -91.8496 -211 -215.85 -211h-122l-71.4189 -336h-64zM269.988 668l-59.0908 -278h119c67 0 116.802 32 140.82 145c26.1445 123 -24.7295 133 -82.7295 133h-118z" />
    <glyph glyph-name="Q" unicode="Q" horiz-adv-x="556" 
d="M288.628 50c136 0 181.207 128 220.105 311c38.6846 182 70.2305 321 -85.7695 321s-183.546 -139 -222.23 -321c-44.2119 -208 -52.1055 -311 87.8945 -311zM136.733 361c29.7578 140 62.709 375 297.709 375s168.049 -235 138.291 -375
c-40.1738 -189 -70.4775 -261 -146.83 -305l1.5752 -2h126l-11.4785 -54h-138c-15 0 -29.2129 -1 -43.4248 -2c-15.2129 -1 -31.4258 -2 -52.4258 -2c-248 0 -220.092 136 -171.416 365z" />
    <glyph glyph-name="R" unicode="R" horiz-adv-x="500" 
d="M327.395 350h-121l-74.3945 -350h-64l153.466 722h199c139 0 164.223 -46 137.228 -173c-19.1299 -90 -46.8828 -150 -148.56 -172l-0.424805 -2c96.5361 -21 99.9854 -33 45.1455 -291c-5.95117 -28 -6.90332 -56 -10.8545 -84h-61c-1.53613 21 20.9707 141 28.2598 180
c5.58984 31 56.1348 170 -82.8652 170zM273.988 668l-56.1152 -264h104c96 0 146.313 25 172.033 146c21.043 99 -13.918 118 -88.918 118h-131z" />
    <glyph glyph-name="S" unicode="S" horiz-adv-x="500" 
d="M557.568 539h-65c16.917 89 6.39551 143 -91.6045 143c-78 0 -132.739 -27 -150.807 -112c-22.7432 -107 30.6191 -110 100.078 -169c75.3965 -64 162.357 -83 132.6 -223c-27.4199 -129 -106.811 -192 -232.811 -192c-141 0 -187.846 76 -151.875 217h66
c-17.0049 -80 -28.6475 -163 100.353 -163c84 0 134.565 45 152.208 128c20.8301 98 -38.2178 126 -128.614 190c-121.721 86 -118.58 129 -104.276 201c25.5693 125 115.623 177 233.623 177c150 0 162.231 -93 140.126 -197z" />
    <glyph glyph-name="T" unicode="T" 
d="M190 0l141.988 668h-176l11.4775 54h416l-11.4775 -54h-176l-141.988 -668h-64z" />
    <glyph glyph-name="U" unicode="U" horiz-adv-x="556" 
d="M284.466 722l-96.501 -454c-19.9795 -94 -48.4629 -228 98.5371 -228s175.483 134 195.463 228l96.501 454h64l-106.491 -501c-39.5352 -186 -147.95 -235 -260.95 -235s-200.585 49 -161.05 235l106.491 501h64z" />
    <glyph glyph-name="V" unicode="V" horiz-adv-x="500" 
d="M266.154 76l315.312 646h62l-353.466 -722h-80l-47.5342 722h68l33.6885 -646h2z" />
    <glyph glyph-name="W" unicode="W" horiz-adv-x="833" 
d="M243.854 84l282.611 638h86l10.4521 -633h2l288.548 633h63l-332.466 -722h-84l-8.53809 642h-2l-285.462 -642h-80l-20.5342 722h68l10.3887 -638h2z" />
    <glyph glyph-name="X" unicode="X" horiz-adv-x="500" 
d="M177.466 722h70l89.0205 -301l221.979 301h68l-260.182 -349l123.716 -373h-75l-100.856 330l-237.144 -330h-68l273.284 373z" />
    <glyph glyph-name="Y" unicode="Y" horiz-adv-x="500" 
d="M217 0l63.7676 300l-114.302 422h72l88.6924 -359l249.308 359h64l-295.698 -422l-63.7676 -300h-64z" />
    <glyph glyph-name="Z" unicode="Z" 
d="M197.466 722h373l-15.0908 -71l-453.896 -597h330l-11.4785 -54h-396l15.0918 71l456.896 597h-310z" />
    <glyph glyph-name="bracketleft" unicode="[" horiz-adv-x="222" 
d="M21.9424 -132l185.987 875h139l-10.2021 -48h-79l-165.582 -779h79l-10.2031 -48h-139z" />
    <glyph glyph-name="backslash" unicode="\" horiz-adv-x="222" 
d="M204 0l-85.5342 722h53l85.5342 -722h-53z" />
    <glyph glyph-name="bracketright" unicode="]" horiz-adv-x="222" 
d="M329.93 743l-185.987 -875h-139l10.2031 48h79l165.582 779h-79l10.2021 48h139z" />
    <glyph glyph-name="asciicircum" unicode="^" 
d="M351.49 708h42l47.8516 -410h-47l-38.0059 334h-2l-177.994 -334h-47z" />
    <glyph glyph-name="underscore" unicode="_" horiz-adv-x="500" 
d="M473.431 -125h-500l10.6279 50h500z" />
    <glyph glyph-name="quoteleft" unicode="&#x2018;" horiz-adv-x="222" 
d="M320.466 722l-78.4727 -181h-73l98.4727 181h53z" />
    <glyph glyph-name="a" unicode="a" 
d="M353.284 166l19.5557 92c-86.6377 -3 -214.513 7 -240.657 -116c-12.1152 -57 6.89453 -104 68.8945 -104c69 0 138.179 62 152.207 128zM322 0l13.1787 62h-2c-42.2031 -48 -96.3047 -72 -158.305 -72c-90 0 -126.033 61 -107.328 149
c37.6221 177 211.796 159 315.496 167l8.92773 42c15.7295 74 3.29395 119 -76.7061 119c-55 0 -104.738 -27 -117.492 -87h-64c25.6182 97 108.695 135 196.695 135c51 0 155.938 -5 128.518 -134l-53.9893 -254c-7.65234 -36 -14.4541 -68 -20.9951 -127h-62z" />
    <glyph glyph-name="b" unicode="b" 
d="M176.265 260c-17.0049 -80 -47.1875 -222 61.8125 -222c111 0 134.193 95 159.274 213c25.082 118 42.9121 216 -68.0879 216c-97 0 -136.845 -131 -152.999 -207zM119 0h-62c6.61328 17 13.0146 33 16.6279 50l142.838 672h60l-58.2402 -274l1.5752 -2
c41.2021 48 85.666 69 142.666 69c164 0 114.44 -172 95.3105 -262c-23.5938 -111 -64.9033 -263 -211.903 -263c-59 0 -96.8984 24 -111.908 71h-2z" />
    <glyph glyph-name="c" unicode="c" horiz-adv-x="389" 
d="M422.521 360h-60c16.3916 63 2.74316 107 -66.2568 107c-37 0 -72.4629 -21 -93.3281 -58c-12.8887 -23 -33.5547 -92 -47.7959 -159c-19.3428 -91 -45.0625 -212 47.9375 -212c79 0 99.6279 50 115.594 111h60c-23.9072 -136 -124.797 -159 -171.797 -159
c-171 0 -142.305 135 -115.734 260c10.6279 50 29.4199 129 50.4971 167c41.3037 72 103.83 98 172.83 98c87 0 135.585 -49 108.054 -155z" />
    <glyph glyph-name="d" unicode="d" 
d="M220.077 38c57 0 120.777 46 146.922 169l19.1309 90c6.37598 30 36.1338 170 -76.8662 170c-108 0 -128.83 -98 -153.912 -216c-39.9609 -188 -0.274414 -213 64.7256 -213zM329 0l10.6035 64l-2.21289 -1c-41.2021 -48 -84.5166 -73 -143.517 -73
c-146 0 -123.179 145 -98.0967 263c20.6172 97 55.6895 262 210.689 262c46 0 86.5361 -21 109.247 -60l1.78711 -1l56.9648 268h60l-132.21 -622c-10.6279 -50 -14.6426 -83 -15.2559 -100h-58z" />
    <glyph glyph-name="e" unicode="e" 
d="M447.014 240h-288l-8.29004 -39c-14.8789 -70 -15.6465 -163 79.3535 -163c75 0 122.203 48 135.656 116h63c-32.9316 -122 -107.859 -164 -208.859 -164c-87 0 -166.561 35 -134.039 188l26.3574 124c31.0332 146 106.274 213 219.274 213
c174 0 147.431 -125 115.547 -275zM169.217 288h228c23.8057 112 20.0469 179 -75.9531 179s-128.241 -67 -152.047 -179z" />
    <glyph glyph-name="f" unicode="f" horiz-adv-x="278" 
d="M100 0l97.1387 457h-81l10.2021 48h81l18.0674 85c10.2031 48 35.9082 136 157.908 136c9 0 18.5752 -2 33.1494 -4l-10.6279 -50h-45c-58 0 -69.0527 -52 -75.2168 -81l-18.2803 -86h102l-10.2021 -48h-102l-97.1387 -457h-60z" />
    <glyph glyph-name="g" unicode="g" 
d="M307.264 467c-104 0 -133.207 -128 -149.148 -203c-22.3184 -105 -44.6367 -210 64.3633 -210c50 0 89.0137 33 103.115 57c23.29 39 32.1787 62 63.6367 210c22.5312 106 -25.9668 146 -81.9668 146zM418.95 442l13.6035 64h59c-12.2021 -48 -18.5166 -73 -24.043 -99
l-90.3369 -425c-23.5938 -111 -71.6221 -177 -215.622 -177c-126 0 -132.083 89 -117.242 140h60c-16.3281 -58 19.4443 -92 75.4443 -92c117 0 123.392 63 155.487 214h-2c-35.1396 -43 -86.9658 -61 -134.966 -61c-145 0 -128.431 125 -104.624 237
c24.8691 117 26.082 118 51.5596 172c9.46387 21 61.2559 100 163.256 100c51 0 96.4736 -26 108.908 -71z" />
    <glyph glyph-name="h" unicode="h" 
d="M121 0h-60l153.466 722h60l-59.3027 -279h2c37.9268 42 83.3037 72 137.304 72c125 0 118.232 -93 104.203 -159l-75.6699 -356h-60l75.0322 353c12.541 59 1.23145 114 -68.7686 114c-54 0 -116.864 -37 -140.883 -150z" />
    <glyph glyph-name="i" unicode="i" horiz-adv-x="222" 
d="M141 0h-60l107.341 505h60zM285.312 646h-74l16.1543 76h74z" />
    <glyph glyph-name="j" unicode="j" horiz-adv-x="222" 
d="M192.341 505h60l-127.108 -598c-7.86523 -37 -33.6807 -102 -119.681 -102c-22 0 -38.5752 2 -43.1504 4l10.6279 50c72.9375 -5 85.1885 15 99.2168 81zM289.312 646h-74l16.1543 76h74z" />
    <glyph glyph-name="k" unicode="k" horiz-adv-x="389" 
d="M63 0l153.466 722h60l-93.5244 -440h2l221.399 223h70l-226.825 -225l131.484 -280h-76l-121.547 275h-2l-58.4531 -275h-60z" />
    <glyph glyph-name="l" unicode="l" horiz-adv-x="222" 
d="M141 0h-60l153.466 722h60z" />
    <glyph glyph-name="m" unicode="m" horiz-adv-x="667" 
d="M189.081 325l-69.0811 -325h-60l107.554 506h54l-13.3906 -63h2c32.7148 41 79.3037 72 135.304 72c52 0 91.8359 -29 98.208 -79c35.6279 50 84.792 79 140.792 79c84 0 115.672 -58 101.455 -139l-79.9219 -376h-60l76.7334 361c9.62793 50 3.53027 106 -55.4697 106
c-76 0 -121.154 -76 -135.183 -142l-69.0811 -325h-60l76.7334 361c9.62793 50 3.53027 106 -55.4697 106c-76 0 -121.154 -76 -135.183 -142z" />
    <glyph glyph-name="n" unicode="n" 
d="M188.381 317l-67.3809 -317h-60l107.341 505h60l-13.1777 -62h2c37.9268 42 83.3037 72 137.304 72c125 0 118.232 -93 104.203 -159l-75.6699 -356h-60l75.0322 353c12.541 59 1.23145 114 -68.7686 114c-54 0 -116.864 -37 -140.883 -150z" />
    <glyph glyph-name="o" unicode="o" 
d="M219.874 -10c-118 0 -157.633 77 -129.788 208l23.1689 109c27.8447 131 100.212 208 218.212 208s157.633 -77 129.788 -208l-23.1689 -109c-27.8447 -131 -100.212 -208 -218.212 -208zM321.264 467c-99 0 -131.642 -83 -159.486 -214
c-28.0576 -132 -30.7002 -215 68.2998 -215s131.643 83 159.7 215c27.8447 131 30.4863 214 -68.5137 214z" />
    <glyph glyph-name="p" unicode="p" 
d="M186.342 298l-19.1299 -90c-24.4443 -115 15.8652 -170 70.8652 -170c99 0 131.643 83 159.7 215c27.8447 131 30.4863 214 -68.5137 214c-39 0 -116.352 -44 -142.922 -169zM228.341 505l-12.9658 -61l2.21289 1c42.415 49 96.8789 70 136.879 70
c158 0 129.667 -138 115.639 -204l-24.0195 -113c-27.8447 -131 -89.2119 -208 -218.212 -208c-37 0 -70.1738 18 -90.9707 66l-1.78711 1l-52.7148 -248h-60l147.939 696h58z" />
    <glyph glyph-name="q" unicode="q" 
d="M217.077 38c111 0 134.193 95 159.274 213c25.082 118 42.9121 216 -68.0879 216c-97 0 -136.845 -131 -152.999 -207c-17.0049 -80 -47.1875 -222 61.8125 -222zM432.341 505h62c-6.61328 -17 -13.0137 -33 -16.627 -50l-137.312 -646h-60l52.7148 248l-1.5752 2
c-41.2031 -48 -85.667 -69 -142.667 -69c-164 0 -114.439 172 -95.3096 262c23.5938 111 64.9023 263 211.902 263c59 0 96.8984 -24 111.059 -75h2z" />
    <glyph glyph-name="r" unicode="r" horiz-adv-x="278" 
d="M232.341 505l-14.4531 -68h2c35.2021 48 94.5791 78 155.579 78l-12.9658 -61c-83.5127 7 -150.353 -44 -168.42 -129l-69.0811 -325h-60l107.341 505h60z" />
    <glyph glyph-name="s" unicode="s" horiz-adv-x="389" 
d="M372.271 133c-20.1934 -95 -85.3965 -143 -179.396 -143c-109 0 -140.734 53 -116.99 160h61c-14.667 -69 -8.44434 -115 68.5557 -115c58 0 93.0146 33 104.918 89c28.0576 132 -206.17 98 -170.673 265c19.7676 93 90.7822 126 178.782 126
c100 0 117.334 -69 100.967 -146h-59c10.6035 64 0.830078 98 -67.1699 98c-43 0 -82.9512 -28 -92.5166 -73c-26.7822 -126 207.445 -92 171.523 -261z" />
    <glyph glyph-name="t" unicode="t" horiz-adv-x="278" 
d="M194.139 457h-81l10.2021 48h81l22.1064 104l65.5264 26l-27.6328 -130h102l-10.2021 -48h-102l-68.8682 -324c-14.2422 -67 -10.6426 -83 37.3574 -83c20 0 34.2129 1 47.6377 3l-11.0527 -52c-18.4258 -2 -38.6377 -3 -57.6377 -3c-81 0 -97.3486 36 -84.1699 98z" />
    <glyph glyph-name="u" unicode="u" 
d="M426.341 505h60l-107.341 -505h-52l11.9033 56h-2c-44.1396 -43 -85.0293 -66 -141.029 -66c-104 0 -116.846 76 -99.416 158l75.8828 357h60l-73.7568 -347c-2.97559 -14 -28.5068 -120 58.4932 -120c81 0 126.154 76 133.594 111z" />
    <glyph glyph-name="v" unicode="v" horiz-adv-x="389" 
d="M182.341 505l29.8135 -429h2l214.187 429h58l-257.341 -505h-69l-42.6592 505h65z" />
    <glyph glyph-name="w" unicode="w" horiz-adv-x="667" 
d="M149 0l-31.6592 505h64l19.0498 -442h2l200.95 442h74l18.0498 -442h2l206.951 442h60l-246.342 -505h-75l-19.1758 432h-2l-197.824 -432h-75z" />
    <glyph glyph-name="x" unicode="x" horiz-adv-x="389" 
d="M11 0l205.178 269l-74.8369 236h72l51.6143 -190l140.386 190h66l-181.525 -233l88.1846 -272h-73l-64.4502 219l-162.55 -219h-67z" />
    <glyph glyph-name="y" unicode="y" horiz-adv-x="389" 
d="M70.4014 -191l99.3857 190l-52.4463 506h65l35.002 -414h2l206.998 414h60l-356.939 -696h-59z" />
    <glyph glyph-name="z" unicode="z" horiz-adv-x="333" 
d="M28 0l10.415 49l296.724 408h-198l10.2021 48h259l-10.627 -50l-291.511 -407h210l-10.2031 -48h-276z" />
    <glyph glyph-name="braceleft" unicode="{" horiz-adv-x="351" 
d="M235.462 435l41.2363 194c21.4688 101 92.2314 114 171.231 114l-10.2021 -48c-69 0 -89.8018 -32 -100.43 -82l-34.2217 -161c-14.4541 -68 -32.4443 -115 -116.546 -139l-0.424805 -2c71.2363 -13 75.3096 -55 60.4297 -125l-39.96 -188
c-10.6279 -50 -3.42969 -82 65.5703 -82l-10.2031 -48c-79 0 -144.236 13 -122.769 114l43.999 207c8.29004 39 3.04395 99 -60.9561 99l10.2021 48c64 0 94.7539 60 103.043 99z" />
    <glyph glyph-name="bar" unicode="|" horiz-adv-x="222" 
d="M31.8604 -250l212.558 1000h52l-212.558 -1000h-52z" />
    <glyph glyph-name="braceright" unicode="}" horiz-adv-x="351" 
d="M341.698 629l-41.2363 -194c-8.28906 -39 -3.04297 -99 60.957 -99l-10.2021 -48c-64 0 -94.7539 -60 -103.044 -99l-43.999 -207c-21.4678 -101 -92.2314 -114 -171.231 -114l10.2031 48c69 0 89.8018 32 100.43 82l39.96 188c14.8799 70 36.8066 112 113.57 125
l0.424805 2c-73.8984 24 -71.9082 71 -57.4541 139l34.2217 161c10.6279 50 3.42969 82 -65.5703 82l10.2021 48c79 0 144.237 -13 122.769 -114z" />
    <glyph glyph-name="asciitilde" unicode="~" 
d="M93.3232 185l-26.5605 35c34.7148 41 77.2793 86 133.279 86c29 0 60.2373 -13 88.4736 -26c29.2373 -13 56.4736 -26 76.4736 -26c36 0 71.4395 35 94.2412 67l24.498 -40c-32.29 -39 -77.2168 -81 -130.217 -81c-30 0 -76.3242 22 -101.198 32
c-19.2998 8 -39.749 20 -63.749 20c-42 0 -71.0771 -38 -95.2412 -67z" />
    <glyph glyph-name="exclamdown" unicode="&#xa1;" horiz-adv-x="333" 
d="M222.312 439l16.1543 76h74l-16.1543 -76h-74zM214.332 345h52l-104.931 -536h-70z" />
    <glyph glyph-name="cent" unicode="&#xa2;" 
d="M168.241 67l181.298 406c-12.1494 4 -21.5117 7 -34.5117 7c-107 0 -133.435 -162 -151.289 -246c-10.6279 -50 -32.9072 -136 4.50293 -167zM170.512 -7l-66.6709 -149h-40l73.7969 159c-60.585 49 -67.6572 91 -33.6484 251c20.8311 98 59.5166 280 230.517 280
c14 0 23 0 41.1494 -4l52.082 118h37l-56.208 -128c63.4111 -31 75.5947 -96 56.5029 -167h-60c9.14062 43 9.85547 84 -23.0439 108l-182.573 -412c14.1504 -4 27.7246 -6 42.7246 -6c67 0 113.116 57 132.884 150h60c-28.2695 -133 -105.361 -204 -205.361 -204
c-20 0 -39.5752 2 -59.1504 4z" />
    <glyph glyph-name="sterling" unicode="&#xa3;" 
d="M398 0h-379l11.4785 54h74l61.8535 291h-81l11.4785 54h81l27.207 128c29.9707 141 117.473 181 194.473 181c125 0 151.885 -57 121.952 -179h-64c19.8789 70 14.5703 125 -66.4297 125c-72 0 -110.054 -52 -124.933 -122l-28.2695 -133h150l-11.4785 -54h-150
l-61.8535 -291h245z" />
    <glyph glyph-name="fraction" unicode="&#x2044;" horiz-adv-x="167" 
d="M-169.164 -29l596.63 751h55l-595.63 -751h-56z" />
    <glyph glyph-name="yen" unicode="&#xa5;" 
d="M235.85 211l13.8164 65h-147l11.4775 54h128l-96.9912 367h76l78.0059 -334l226.994 334h69l-254.009 -367h129l-11.4775 -54h-149l-13.8164 -65h149l-11.4785 -54h-149l-33.3711 -157h-60l33.3711 157h-147l11.4785 54h147z" />
    <glyph glyph-name="florin" unicode="&#x192;" 
d="M528.152 697l-19.415 -49c-13.9375 5 -25.7246 6 -36.7246 6c-58 0 -76.6279 -50 -91.7686 -93l-35.4678 -101h94l-18.2031 -48h-92l-149.887 -437c-24.3047 -72 -58.71 -168 -172.71 -168c-11 0 -17.7871 1 -27.5752 2l19.0527 52c61.7256 -6 89.7393 27 118.595 111
l149.524 440h-83l17.2031 48h82c33.9805 94 59.7139 248 199.714 248c14 0 27.9375 -5 46.6621 -11z" />
    <glyph glyph-name="section" unicode="&#xa7;" 
d="M78.0625 5l12.1162 57c34.0244 -14 82.0479 -28 122.048 -28c54 0 115.314 25 128.28 86c21.8936 103 -223.855 123 -199.199 239c15.5166 73 87.9805 94 139.507 120c-45.4102 31 -86.1211 70 -71.8789 137c19.3418 91 107.507 120 184.507 120
c37 0 72.2988 -8 104.898 -24l-11.9033 -56c-33.5996 16 -69.1982 32 -108.198 32c-41 0 -94.0391 -19 -104.454 -68c-23.3809 -110 210.619 -110 182.562 -242c-11.9033 -56 -83.1934 -95 -130.145 -123c53.2607 -27 93.1836 -65 78.0918 -136
c-17.2168 -81 -92.2695 -133 -192.27 -133c-70 0 -114.024 14 -133.962 19zM287.091 278c34.1016 24 95.4785 54 104.405 96c9.35254 44 -42.1836 65 -71.7822 81c-28.1885 -15 -103.99 -47 -112.28 -86c-9.99023 -47 47.6963 -72 79.6572 -91z" />
    <glyph glyph-name="currency" unicode="&#xa4;" 
d="M110.743 107l-48.2891 -39l-36.7979 48l47.0771 38c-20.0723 42 -25.5703 82 -14.7295 133c11.2656 53 31.7676 93 71.9082 136l-30.7109 39l56.9902 47l31.9229 -38c46.377 30 97.3525 44 143.353 44s91.0244 -14 124.647 -44l48.0771 38l37.0098 -47l-47.2891 -39
c21.8594 -43 25.3574 -83 14.0918 -136c-10.8408 -51 -33.3428 -91 -71.2705 -133l30.9229 -38l-57.2021 -48l-31.7109 39c-44.9512 -28 -90.5645 -45 -143.564 -45s-91.3867 17 -124.436 45zM246.656 116c98.7881 -1 181.769 93 197.348 171
c21.1055 104 -20.4404 172 -124.016 174c-104.425 -2 -174.879 -70 -197.984 -174c-17.5791 -78 25.4404 -172 124.652 -171z" />
    <glyph glyph-name="quotesingle" unicode="'" horiz-adv-x="198" 
d="M182.467 515l43.999 207h52l-43.999 -207h-52z" />
    <glyph glyph-name="quotedblleft" unicode="&#x201c;" horiz-adv-x="389" 
d="M330.466 722l-78.4727 -181h-73l98.4727 181h53zM478.466 722l-78.4727 -181h-73l98.4727 181h53z" />
    <glyph glyph-name="guillemotleft" unicode="&#xab;" horiz-adv-x="389" 
d="M303.13 90l-45.7637 194l131.236 194h52l-119.236 -194l34.7637 -194h-53zM156.13 90l-45.7637 194l131.236 194h52l-119.236 -194l34.7637 -194h-53z" />
    <glyph glyph-name="guilsinglleft" unicode="&#x2039;" horiz-adv-x="222" 
d="M146.13 90l-45.7637 194l131.236 194h52l-119.236 -194l34.7637 -194h-53z" />
    <glyph glyph-name="guilsinglright" unicode="&#x203a;" horiz-adv-x="222" 
d="M114.13 90h-53l117.236 194l-36.7637 194h52l48.7637 -194z" />
    <glyph glyph-name="fi" unicode="&#xfb01;" 
d="M369 0h-60l107.341 505h60zM513.312 646h-74l16.1543 76h74zM100 0l97.1387 457h-81l10.2021 48h81l18.0674 85c10.2031 48 35.9082 136 157.908 136c9 0 18.5752 -2 33.1494 -4l-10.6279 -50h-45c-58 0 -69.0527 -52 -75.2168 -81l-18.2803 -86h102l-10.2021 -48h-102
l-97.1387 -457h-60z" />
    <glyph glyph-name="fl" unicode="&#xfb02;" 
d="M100 0l97.1387 457h-81l10.2021 48h81l18.0674 85c10.2031 48 35.9082 136 157.908 136c9 0 18.5752 -2 33.1494 -4l-10.6279 -50h-45c-58 0 -69.0527 -52 -75.2168 -81l-18.2803 -86h102l-10.2021 -48h-102l-97.1387 -457h-60zM368 0h-60l153.466 722h60z" />
    <glyph glyph-name="endash" unicode="&#x2013;" horiz-adv-x="500" 
d="M555.265 260h-500l10.2031 48h500z" />
    <glyph glyph-name="dagger" unicode="&#x2020;" 
d="M358.491 501l-106.491 -501h-60l106.491 501h-141l10.2021 48h141l36.7725 173h60l-36.7725 -173h141l-10.2021 -48h-141z" />
    <glyph glyph-name="daggerdbl" unicode="&#x2021;" 
d="M405.466 722l-34.6465 -163h141l-10.2031 -48h-141l-63.7666 -300h141l-10.2031 -48h-141l-34.6465 -163h-60l34.6465 163h-141l10.2031 48h141l63.7666 300h-141l10.2031 48h141l34.6465 163h60z" />
    <glyph glyph-name="periodcentered" unicode="&#xb7;" horiz-adv-x="222" 
d="M119.7 215l16.1543 76h74l-16.1543 -76h-74z" />
    <glyph glyph-name="paragraph" unicode="&#xb6;" horiz-adv-x="564" 
d="M212.595 -96l96.2881 453c-96.2129 -1 -144.357 83 -123.739 180c27.8447 131 104.897 183 215.322 185h175l-173.871 -818h-52l162.394 764h-85l-162.394 -764h-52z" />
    <glyph glyph-name="bullet" unicode="&#x2022;" horiz-adv-x="606" 
d="M559.521 360c-20.6182 -97 -121.261 -180 -219.261 -180c-97 0 -161.357 83 -140.739 180c21.043 99 120.261 180 217.261 180c98 0 163.782 -81 142.739 -180z" />
    <glyph glyph-name="quotesinglbase" unicode="&#x201a;" horiz-adv-x="222" 
d="M31.6816 -105l78.4727 181h73l-98.4727 -181h-53z" />
    <glyph glyph-name="quotedblbase" unicode="&#x201e;" horiz-adv-x="389" 
d="M41.6816 -105l78.4727 181h73l-98.4727 -181h-53zM189.682 -105l78.4727 181h73l-98.4727 -181h-53z" />
    <glyph glyph-name="quotedblright" unicode="&#x201d;" horiz-adv-x="389" 
d="M178.993 541l78.4727 181h73l-98.4727 -181h-53zM326.993 541l78.4727 181h73l-98.4727 -181h-53z" />
    <glyph glyph-name="guillemotright" unicode="&#xbb;" horiz-adv-x="389" 
d="M124.13 90h-53l117.236 194l-36.7637 194h52l48.7637 -194zM271.13 90h-53l117.236 194l-36.7637 194h52l48.7637 -194z" />
    <glyph glyph-name="ellipsis" unicode="&#x2026;" horiz-adv-x="1000" 
d="M130 0l16.1543 76h74l-16.1543 -76h-74zM463 0l16.1543 76h74l-16.1543 -76h-74zM796 0l16.1543 76h74l-16.1543 -76h-74z" />
    <glyph glyph-name="perthousand" unicode="&#x2030;" horiz-adv-x="889" 
d="M756.662 -11c-102 0 -102.358 83 -83.8652 170c18.2793 86 48.3467 171 156.347 171s101.933 -85 83.6533 -171c-18.4932 -87 -54.1348 -170 -156.135 -170zM766.864 37c66 0 84.1543 76 93.5068 120c9.77832 46 23.5703 125 -41.4297 125s-84.792 -79 -94.5703 -125
c-9.35254 -44 -23.5068 -120 42.4932 -120zM449.662 -11c-102 0 -102.358 83 -83.8652 170c18.2793 86 48.3467 171 156.347 171s101.933 -85 83.6533 -171c-18.4932 -87 -54.1348 -170 -156.135 -170zM459.864 37c66 0 84.1543 76 93.5068 120
c9.77832 46 23.5703 125 -41.4297 125s-84.792 -79 -94.5703 -125c-9.35254 -44 -23.5068 -120 42.4932 -120zM207.796 366c-102 0 -102.357 83 -83.8652 170c18.2803 86 48.3467 171 156.347 171s101.934 -85 83.6533 -171c-18.4922 -87 -54.1348 -170 -156.135 -170z
M217.999 414c66 0 84.1543 76 93.5068 120c9.77734 46 23.5693 125 -41.4307 125s-84.792 -79 -94.5693 -125c-9.35254 -44 -23.5068 -120 42.4932 -120zM148.285 -41h-43l468.181 763h41z" />
    <glyph glyph-name="questiondown" unicode="&#xbf;" horiz-adv-x="389" 
d="M253.332 345h60l-18.4922 -87c-35.0723 -165 -132.42 -129 -171.53 -313c-13.8164 -65 -20.8066 -112 54.1934 -112c68 0 88.3281 58 98.0186 113h64c-16.4053 -96 -67.4961 -167 -172.496 -167c-116 0 -131.522 54 -107.504 167c40.1738 189 149.599 191 173.83 305z
M266.312 439l16.1543 76h74l-16.1543 -76h-74z" />
    <glyph glyph-name="grave" unicode="`" horiz-adv-x="278" 
d="M322.032 560h-50l-113.88 137h80z" />
    <glyph glyph-name="acute" unicode="&#xb4;" horiz-adv-x="278" 
d="M194.032 560l142.12 137h80l-172.12 -137h-50z" />
    <glyph glyph-name="circumflex" unicode="&#x2c6;" horiz-adv-x="278" 
d="M279.288 660l-103.682 -102h-64l142.546 139h67l83.4541 -139h-64z" />
    <glyph glyph-name="tilde" unicode="&#x2dc;" horiz-adv-x="278" 
d="M147.472 595h-38c8.10156 24 21.415 49 40.666 69c19.0391 19 43.0146 33 69.0146 33c24 0 46.5986 -16 68.2607 -27c22.4492 -12 42.2607 -27 62.2607 -27c28 0 47.1641 29 55.4785 54h38c-5.67676 -22 -19.2031 -48 -37.4541 -68
c-17.251 -20 -40.2266 -34 -66.2266 -34c-25 0 -47.5996 16 -70.2607 27c-22.4502 12 -42.2617 27 -64.2617 27c-26 0 -49.5889 -31 -57.4775 -54z" />
    <glyph glyph-name="macron" unicode="&#xaf;" horiz-adv-x="278" 
d="M146.737 648h260l-10.2031 -48h-260z" />
    <glyph glyph-name="breve" unicode="&#x2d8;" horiz-adv-x="278" 
d="M143.152 697h39c-1.69043 -55 33.7832 -81 87.7832 -81c57 0 97.5264 26 124.217 81h37c-26.6426 -83 -95.4199 -129 -176.42 -129c-79 0 -121.372 50 -111.58 129z" />
    <glyph glyph-name="dotaccent" unicode="&#x2d9;" horiz-adv-x="278" 
d="M228.37 571l21.4678 101h64l-21.4678 -101h-64z" />
    <glyph glyph-name="dieresis" unicode="&#xa8;" horiz-adv-x="278" 
d="M149.37 571l21.4678 101h64l-21.4678 -101h-64zM307.37 571l21.4678 101h64l-21.4678 -101h-64z" />
    <glyph glyph-name="ring" unicode="&#x2da;" horiz-adv-x="278" 
d="M295.442 736c51 0 83.0723 -42 72.2314 -93c-10.8398 -51 -60.9805 -94 -111.98 -94s-83.8594 43 -73.0195 94c10.8408 51 61.7686 93 112.769 93zM288.002 701c-32 0 -63.5264 -26 -70.3281 -58c-6.37598 -30 14.459 -59 45.459 -59c30 0 63.165 29 69.541 59
c6.58984 31 -13.6719 58 -44.6719 58z" />
    <glyph glyph-name="cedilla" unicode="&#xb8;" horiz-adv-x="278" 
d="M-9.96094 -188l21.377 30c19.5117 -7 39.0244 -14 61.0244 -14c28 0 66.5508 12 73.7773 46c5.73926 27 -16.71 39 -40.71 39c-15 0 -29.8506 -4 -40.126 -10l-16.8115 15l77.4297 82h38l-52.6904 -55l1.57422 -2c6.42578 2 20.0635 5 31.0635 5
c39 0 72.4736 -26 62.4834 -73c-13.8164 -65 -72.4297 -82 -131.43 -82c-31 0 -59.2998 8 -84.9619 19z" />
    <glyph glyph-name="hungarumlaut" unicode="&#x2dd;" horiz-adv-x="278" 
d="M119.032 560l142.12 137h80l-172.12 -137h-50zM249.032 560l142.12 137h80l-172.12 -137h-50z" />
    <glyph glyph-name="ogonek" unicode="&#x2db;" horiz-adv-x="278" 
d="M143 0l50.4248 2l-0.424805 -2c-79.2266 -34 -106.643 -83 -112.381 -110c-7.22754 -34 22.2217 -46 50.2217 -46c22 0 45.126 10 67.6133 17l-7.01367 -33c-14.7002 -8 -47.0391 -19 -78.0391 -19c-61 0 -112.087 9 -96.5703 82c9.99023 47 57.4932 87 126.169 109z" />
    <glyph glyph-name="caron" unicode="&#x2c7;" horiz-adv-x="278" 
d="M266.472 595l103.681 102h64l-142.546 -139h-67l-83.4541 139h64z" />
    <glyph glyph-name="emdash" unicode="&#x2014;" horiz-adv-x="1000" 
d="M55.2646 260l10.2031 48h1000l-10.2031 -48h-1000z" />
    <glyph glyph-name="AE" unicode="&#xc6;" horiz-adv-x="778" 
d="M79 0h-66l484.466 722h387l-11.4775 -54h-286l-31.3906 -270h248l-11.4785 -54h-243l-36.6406 -290h241l-11.4785 -54h-301l24.3857 190h-259zM523.264 674l-280.399 -430h229l53.3994 430h-2z" />
    <glyph glyph-name="ordfeminine" unicode="&#xaa;" horiz-adv-x="266" 
d="M312.018 527l11.6904 55c-55.2119 -1 -137.938 5 -153.666 -69c-7.86523 -37 5.6084 -63 45.6084 -63c45 0 88.0771 38 96.3672 77zM334.975 428h-39l8.28906 39h-2c-27.5889 -31 -62.9893 -47 -102.989 -47c-59 0 -83.5605 35 -71.6582 91
c22.5312 106 136.618 97 202.469 101l5.10156 24c9.56445 45 1.87891 70 -50.1211 70c-36 0 -66.9756 -14 -74.6279 -50h-42c15.3281 58 69.0049 80 126.005 80c33 0 101.574 -2 84.9951 -80l-32.3086 -152c-4.67676 -22 -8.71484 -41 -12.1543 -76z" />
    <glyph glyph-name="Lslash" unicode="&#x141;" horiz-adv-x="389" 
d="M67 0l79.4961 374l-86.3525 -44l-12.5605 35l108.903 56l63.9795 301h64l-56.1143 -264l111.115 57l12.5605 -35l-133.666 -69l-75.8828 -357h239l-11.4785 -54h-303z" />
    <glyph glyph-name="Oslash" unicode="&#xd8;" horiz-adv-x="556" 
d="M169.309 152l362.264 467c-12.4971 40 -45.6084 63 -108.608 63c-156 0 -183.546 -139 -222.23 -321c-17.2178 -81 -33.7344 -154 -31.4248 -209zM539.157 570l-361.264 -467c12.4971 -40 44.6084 -63 108.608 -63c156 0 183.546 139 222.231 321
c17.2168 81 32.7334 154 30.4238 209zM132.565 45l-58.1543 -76l-33.1748 18l74.1934 95c-26.9951 80 3.66113 196 21.3037 279c29.7578 140 62.709 375 297.709 375c73 0 116.11 -23 142.459 -59l63.4297 82l28.5361 -21l-74.6182 -97
c26.9951 -80 -3.87402 -197 -21.5156 -280c-29.7588 -140 -62.709 -375 -297.709 -375c-73 0 -117.111 23 -142.459 59z" />
    <glyph glyph-name="OE" unicode="&#x152;" horiz-adv-x="778" 
d="M418.266 53l129.872 611c-21.5752 2 -63.2998 8 -105.3 8c-164 0 -194.255 -100 -239.742 -314c-42.9365 -202 -58.4678 -308 137.532 -308c26 0 51.4248 2 77.6377 3zM612.988 668l-57.3906 -270h249l-11.4785 -54h-249l-61.6406 -290h267l-11.4785 -54h-331
c-15 0 -29.2129 -1 -43.4248 -2c-15.2129 -1 -31.4258 -2 -52.4258 -2c-248 0 -220.092 136 -171.416 365c32.5205 153 60.583 365 308.583 365c16 0 41.7871 -1 64.5752 -2c22.7871 -1 42.5742 -2 47.5742 -2h324l-11.4775 -54h-260z" />
    <glyph glyph-name="ordmasculine" unicode="&#xba;" horiz-adv-x="266" 
d="M221.274 420c-125 0 -91.3193 102 -79.416 158c11.6904 55 21.584 158 146.584 158c126 0 92.1064 -103 80.416 -158c-11.9033 -56 -21.585 -158 -147.584 -158zM227.65 450c73 0 86.1162 57 101.208 128c14.8789 70 26.207 128 -46.793 128
c-72 0 -85.3281 -58 -100.207 -128c-15.0918 -71 -26.208 -128 45.792 -128z" />
    <glyph glyph-name="ae" unicode="&#xe6;" horiz-adv-x="722" 
d="M130.908 136c-14.4541 -68 22.1689 -98 88.1689 -98c107 0 144.482 134 156.062 212c-98.0635 -5 -218.087 9 -244.231 -114zM441.342 298h228c21.6807 102 17.9219 169 -78.0781 169c-71 0 -128.241 -67 -149.922 -169zM719.14 250h-288l-10.416 -49
c-14.8789 -70 -15.6465 -163 79.3535 -163c75 0 122.203 48 135.656 116h63c-32.9316 -122 -107.859 -164 -208.859 -164c-65 0 -118.198 32 -122.869 90c-41.1787 -62 -94.1309 -90 -163.131 -90c-90 0 -158.435 45 -137.816 142c36.5596 172 191.284 166 319.284 166
c16.792 79 34.9219 169 -70.0781 169c-55 0 -104.738 -27 -117.492 -87h-64c25.6182 97 108.695 135 196.695 135c56 0 113.111 -23 122.633 -77c35.9902 47 96.3672 77 148.367 77c176 0 145.367 -130 117.673 -265z" />
    <glyph glyph-name="dotlessi" unicode="&#x131;" horiz-adv-x="222" 
d="M141 0h-60l107.341 505h60z" />
    <glyph glyph-name="lslash" unicode="&#x142;" horiz-adv-x="222" 
d="M81 0l83.7471 394l-89.7773 -46l-11.8359 29l110.116 57l61.2158 288h60l-53.7764 -253l89.7773 46l11.8359 -29l-110.116 -57l-91.1865 -429h-60z" />
    <glyph glyph-name="oslash" unicode="&#xf8;" 
d="M407.622 384l-256.043 -306c11.4736 -26 35.498 -40 78.498 -40c83 0 108.69 55 116.241 67c15.3145 25 36.6562 116 43.459 148c10.2021 48 19.1924 95 17.8447 131zM143.294 119l257.255 307c-7.62305 30 -35.2852 41 -79.2852 41c-99 0 -127.815 -65 -159.486 -214
c-11.2656 -53 -19.8311 -98 -18.4834 -134zM108.526 26l-58.8789 -70l-25.749 20l65.792 79c-20.4346 45 -2.15527 131 0.395508 143l25.5068 120c13.6045 64 42.874 197 215.874 197c56 0 91.8115 -15 111.923 -38l57.8789 70l25.9619 -19l-64.3672 -77
c18.1592 -51 11.3574 -83 0.729492 -133l-25.5068 -120c-27.8447 -131 -89.2119 -208 -218.212 -208c-56 0 -91.0234 14 -111.348 36z" />
    <glyph glyph-name="oe" unicode="&#x153;" horiz-adv-x="722" 
d="M219.874 -10c-129 0 -157.633 77 -129.788 208l25.5068 120c13.6045 64 42.874 197 215.874 197c73 0 110.261 -27 124.295 -88c37.9658 61 90.7051 88 153.705 88c174 0 147.431 -125 115.547 -275h-288l-8.29004 -39c-14.8789 -70 -15.6465 -163 79.3535 -163
c75 0 122.203 48 135.656 116h63c-32.9316 -122 -107.859 -164 -208.859 -164c-48 0 -102.299 8 -121.42 78c-48.1787 -62 -83.5801 -78 -156.58 -78zM230.077 38c83 0 108.69 55 116.241 67c15.3145 25 36.6562 116 43.459 148c31.6709 149 30.4863 214 -68.5137 214
s-127.815 -65 -159.486 -214c-6.80273 -32 -24.1445 -123 -19.459 -148c2.44922 -12 4.75879 -67 87.7588 -67zM447.217 288h228c23.8057 112 20.0469 179 -75.9531 179s-128.241 -67 -152.047 -179z" />
    <glyph glyph-name="germandbls" unicode="&#xdf;" horiz-adv-x="500" 
d="M485.482 134c-20.6182 -97 -90.6084 -144 -183.608 -144c-88 0 -121.584 49 -101.305 135h60c-11.1152 -57 3.50781 -87 63.5078 -87c54 0 88.8643 37 99.4922 87c21.8936 103 -138.903 151 -118.711 246c21.4688 101 140.734 154 158.802 239
c11.0527 52 -36.4209 78 -80.4209 78c-53 0 -115.102 -24 -139.758 -140l-116.481 -548h-60l120.732 568c13.6035 64 62.71 168 212.71 168c75 0 140.222 -46 122.367 -130c-19.7676 -93 -141.371 -157 -154.976 -221c-16.1543 -76 143.155 -131 117.648 -251z" />
    <glyph glyph-name="divide" unicode="&#xf7;" 
d="M79.3037 279h404l-11.0537 -52h-404zM276.187 429l16.1543 76h74l-16.1543 -76h-74zM185.213 1l16.1543 76h74l-16.1543 -76h-74z" />
    <glyph glyph-name="threequarters" unicode="&#xbe;" horiz-adv-x="666" 
d="M646.849 418l-58.2402 -274h53l-8.50293 -40h-53l-22.1055 -104h-45l22.1055 104h-162l10.416 49l195.327 265h68zM422.608 144h121l50.5889 238h-2zM136.836 -29h-56l596.63 751h55zM202.878 484l8.50195 40c65.9375 -5 93.1885 15 106.367 77
c8.07715 38 -6.75879 67 -48.7588 67c-44 0 -67.3145 -25 -74.667 -69h-50c9.17871 62 57.1689 109 128.169 109c76 0 112.049 -28 96.3193 -102c-10.415 -49 -32.7676 -93 -92.6807 -102l-0.425781 -2c61.0879 -9 64.0977 -56 53.6816 -105
c-16.3662 -77 -64.5068 -120 -138.507 -120c-79 0 -116.772 34 -97.8311 109h50c-10.7773 -46 6.33398 -69 50.334 -69c52 0 76.4395 35 84.3037 72c15.3037 72 0.46875 101 -74.8066 95z" />
    <glyph glyph-name="onequarter" unicode="&#xbc;" horiz-adv-x="666" 
d="M646.849 418l-58.2402 -274h53l-8.50293 -40h-53l-22.1055 -104h-45l22.1055 104h-162l10.416 49l195.327 265h68zM422.608 144h121l50.5889 238h-2zM109.836 -29h-56l596.63 751h55zM174.834 592l9.35254 44c34.0381 19 67.2891 39 95.8154 65h42l-88.8486 -418h-45
l78.2217 368c-28.6768 -22 -58.7148 -41 -91.541 -59z" />
    <glyph glyph-name="onesuperior" unicode="&#xb9;" horiz-adv-x="266" 
d="M174.834 592l9.35254 44c34.0381 19 67.2891 39 95.8154 65h42l-88.8486 -418h-45l78.2217 368c-28.6768 -22 -58.7148 -41 -91.541 -59z" />
    <glyph glyph-name="multiply" unicode="&#xd7;" 
d="M267.912 216l-200.071 -165l-29.1357 37l200.072 165l-129.929 165l44.8652 37l129.928 -165l200.072 165l29.1348 -37l-200.071 -165l129.928 -165l-44.8643 -37z" />
    <glyph glyph-name="registered" unicode="&#xae;" horiz-adv-x="800" 
d="M397.024 -14c-201 0 -329.291 168 -285.291 375c43.7861 206 243.709 375 444.709 375c202 0 329.077 -169 285.291 -375c-44 -207 -242.709 -375 -444.709 -375zM407.227 34c178 0 347.821 145 386.507 327c38.8975 183 -69.4941 327 -247.494 327
c-177 0 -347.608 -144 -386.506 -327c-38.6855 -182 70.4932 -327 247.493 -327zM472.907 343h-79l-42.0869 -198h-52l93.7383 441h140c100 0 123.348 -36 107.193 -112c-11.4785 -54 -39.1299 -90 -104.894 -103l-0.424805 -2c61.4492 -12 67.9609 -19 35.0146 -174
c-3.61328 -17 -4.01367 -33 -4.62793 -50h-51c-1.44922 12 11.8555 84 15.957 108c2.8252 18 32.1299 90 -57.8701 90zM435.355 538l-31.2461 -147h68c62 0 94.1885 15 108.855 84c10.8398 51 -11.6094 63 -60.6094 63h-85z" />
    <glyph glyph-name="Thorn" unicode="&#xde;" 
d="M64 0l153.466 722h64l-34.8594 -164h134c60 0 157.3 -8 121.803 -175c-30.8203 -145 -91.8496 -211 -215.85 -211h-122l-36.5596 -172h-64zM235.129 504l-59.0908 -278h119c67 0 116.802 32 140.82 145c26.1445 123 -24.7295 133 -82.7295 133h-118z" />
    <glyph glyph-name="brokenbar" unicode="&#xa6;" horiz-adv-x="222" 
d="M47.8027 -175l74.3945 350h52l-74.3945 -350h-52zM228.476 675h52l-74.3945 -350h-52z" />
    <glyph glyph-name="Eth" unicode="&#xd0;" horiz-adv-x="556" 
d="M75 0l78.6465 370h-61l11.4775 54h61l63.3418 298h191c202 0 201.919 -118 149.63 -364c-51.0137 -240 -111.096 -358 -329.096 -358h-165zM280.988 668l-51.8643 -244h152l-11.4775 -54h-152l-67.168 -316h78c193 0 223.053 52 285.757 347
c43.999 207 28.7529 267 -149.247 267h-84z" />
    <glyph glyph-name="onehalf" unicode="&#xbd;" horiz-adv-x="666" 
d="M623 0h-231l8.71484 41c126.12 137 229.525 233 241.429 289c9.99023 47 -18.3096 55 -53.3096 55c-46 0 -71.3135 -25 -80.666 -69h-47c17.8545 84 83.1689 109 136.169 109c52 0 111.599 -16 96.5068 -87c-12.9658 -61 -45.1924 -95 -239.342 -298h177zM100.836 -29
h-56l596.63 751h55zM174.834 592l9.35254 44c34.0381 19 67.2891 39 95.8154 65h42l-88.8486 -418h-45l78.2217 368c-28.6768 -22 -58.7148 -41 -91.541 -59z" />
    <glyph glyph-name="minus" unicode="&#x2212;" 
d="M483.304 279l-11.0537 -52h-404l11.0537 52h404z" />
    <glyph glyph-name="ccedilla" unicode="&#xe7;" horiz-adv-x="389" 
d="M422.521 360h-60c16.3916 63 2.74316 107 -66.2568 107c-37 0 -72.4629 -21 -93.3281 -58c-12.8887 -23 -33.5547 -92 -47.7959 -159c-19.3428 -91 -45.0625 -212 47.9375 -212c79 0 99.6279 50 115.594 111h60c-23.2695 -133 -119.584 -158 -167.797 -159l-43.5645 -45
l1.57422 -2c6.42578 2 20.0635 5 31.0635 5c39 0 72.4736 -26 62.4834 -73c-13.8164 -65 -72.4297 -82 -131.43 -82c-31 0 -59.2998 8 -84.9619 19l21.377 30c19.5117 -7 39.0244 -14 61.0244 -14c28 0 66.5508 12 73.7773 46c5.73926 27 -16.71 39 -40.71 39
c-15 0 -29.8506 -4 -40.126 -10l-16.8115 15l69.7295 74c-134.6 16 -108.029 141 -83.1602 258c10.6279 50 29.4199 129 50.4971 167c41.3037 72 103.83 98 172.83 98c87 0 135.585 -49 108.054 -155z" />
    <glyph glyph-name="eth" unicode="&#xf0;" 
d="M243.36 618l101.628 50c-40.4736 26 -34.3242 22 -83.0732 42l50.8652 37c42.0244 -14 63.0479 -28 90.3721 -50l99.6279 50l24.623 -30l-93.9902 -47c48.8213 -62 76.5176 -134 26.1416 -371l-21.4688 -101c-27.8447 -131 -100.212 -208 -218.212 -208
s-157.633 77 -129.788 208l23.1689 109c27.8447 131 100.212 208 218.212 208c63 0 84.3867 -17 92.6475 -44l2.4248 2c11.667 69 -26.9658 146 -52.5029 167l-105.053 -52zM321.264 467c-99 0 -131.642 -83 -159.486 -214c-28.0576 -132 -30.7002 -215 68.2998 -215
s131.643 83 159.7 215c27.8447 131 30.4863 214 -68.5137 214z" />
    <glyph glyph-name="plusminus" unicode="&#xb1;" 
d="M255.304 279h-176l11.0527 52h176l36.9844 174h52l-36.9844 -174h176l-11.0527 -52h-176l-36.9854 -174h-52zM435.053 52l-11.0527 -52h-404l11.0527 52h404z" />
    <glyph glyph-name="Ccedilla" unicode="&#xc7;" horiz-adv-x="500" 
d="M565.018 527h-64c17.0049 80 10.9463 155 -81.0537 155c-152 0 -181.42 -129 -222.23 -321c-40.8115 -192 -66.2314 -321 85.7686 -321c83 0 129.729 74 150.497 167h68c-11.0527 -52 -58.9746 -221 -229.975 -221c-4 0 -7 0 -9.78809 1l-39.9268 -42l1.57422 -2
c6.42578 2 20.0635 5 31.0635 5c39 0 72.4736 -26 62.4834 -73c-13.8164 -65 -72.4297 -82 -131.43 -82c-31 0 -59.2998 8 -84.9619 19l21.377 30c19.5117 -7 39.0244 -14 61.0244 -14c28 0 66.5508 12 73.7773 46c5.73926 27 -16.71 39 -40.71 39
c-15 0 -29.8506 -4 -40.126 -10l-16.8115 15l68.0918 71c-165.898 24 -132.401 191 -93.9287 372c41.4482 195 81.709 375 297.709 375c175 0 147.392 -144 133.575 -209z" />
    <glyph glyph-name="thorn" unicode="&#xfe;" 
d="M186.342 298l-19.1299 -90c-24.4443 -115 15.8652 -170 70.8652 -170c111 0 134.193 95 159.274 213c25.082 118 42.9121 216 -68.0879 216c-39 0 -116.352 -44 -142.922 -169zM22.4014 -191l194.064 913h60l-59.0908 -278l2.21289 1c40.415 49 94.8789 70 142.879 70
c164 0 114.44 -172 95.3105 -262c-23.5938 -111 -64.9033 -263 -211.903 -263c-55 0 -90.5361 21 -108.971 66l-1.78711 1l-52.7148 -248h-60z" />
    <glyph glyph-name="copyright" unicode="&#xa9;" horiz-adv-x="800" 
d="M397.024 -14c-201 0 -329.291 168 -285.291 375c43.7861 206 243.709 375 444.709 375c202 0 329.077 -169 285.291 -375c-44 -207 -242.709 -375 -444.709 -375zM407.227 34c178 0 347.821 145 386.507 327c38.8975 183 -69.4941 327 -247.494 327
c-177 0 -347.608 -144 -386.506 -327c-38.6855 -182 70.4932 -327 247.493 -327zM514.057 546c-79.001 0 -102.454 -68 -125.623 -177s-28.623 -177 50.377 -177c54 0 80.1641 29 93.0674 85h60c-6.80176 -32 -40.2695 -133 -151.27 -133c-163 0 -130.029 141 -112.175 225
s44.8252 225 207.825 225c122 0 94.5322 -101 89.4307 -125h-60c12.2021 48 5.36719 77 -51.6328 77z" />
    <glyph glyph-name="logicalnot" unicode="&#xac;" 
d="M98.2207 368h404l-58.4531 -275h-52l47.4004 223h-352z" />
    <glyph glyph-name="twosuperior" unicode="&#xb2;" horiz-adv-x="266" 
d="M309.656 323l-8.50293 -40h-231l8.71484 41c126.12 137 229.526 233 241.43 289c9.99023 47 -18.3096 55 -53.3096 55c-46 0 -71.3145 -25 -80.667 -69h-47c17.8555 84 83.1689 109 136.169 109c52 0 111.6 -16 96.5078 -87c-12.9658 -61 -45.1934 -95 -239.342 -298h177
z" />
    <glyph glyph-name="threesuperior" unicode="&#xb3;" horiz-adv-x="266" 
d="M202.878 484l8.50195 40c65.9375 -5 93.1885 15 106.367 77c8.07715 38 -6.75879 67 -48.7588 67c-44 0 -67.3145 -25 -74.667 -69h-50c9.17871 62 57.1689 109 128.169 109c76 0 112.049 -28 96.3193 -102c-10.415 -49 -32.7676 -93 -92.6807 -102l-0.425781 -2
c61.0879 -9 64.0977 -56 53.6816 -105c-16.3662 -77 -64.5068 -120 -138.507 -120c-79 0 -116.772 34 -97.8311 109h50c-10.7773 -46 6.33398 -69 50.334 -69c52 0 76.4395 35 84.3037 72c15.3037 72 0.46875 101 -74.8066 95z" />
    <glyph glyph-name="trademark" unicode="&#x2122;" horiz-adv-x="722" 
d="M175.429 289l83.5352 393h-109l8.50195 40h270l-8.50195 -40h-109l-83.5352 -393h-52zM524.466 722l61.7549 -354h2l209.245 354h68l-92.0371 -433h-52l69.2939 326h-2l-196.294 -326h-48l-61.7061 326h-2l-69.2939 -326h-52l92.0371 433h73z" />
    <glyph glyph-name="degree" unicode="&#xb0;" horiz-adv-x="400" 
d="M468.606 558c-17.6416 -83 -99.8828 -150 -181.883 -150c-83 0 -135.759 67 -118.117 150c16.4297 82 98.8838 150 181.884 150c82 0 135.546 -68 118.116 -150zM428.606 558c12.7539 60 -26.6182 110 -87.6182 110c-60 0 -120.628 -50 -132.382 -110
c-12.9658 -61 25.6191 -110 86.6191 -110c60 0 120.415 49 133.381 110z" />
    <glyph glyph-name="mu" unicode="&#x3bc;" 
d="M426.341 505h60l-107.341 -505h-52l11.9033 56h-2c-44.1396 -43 -85.0293 -66 -141.029 -66c-40 0 -62.4492 12 -69.1738 18l-42.2988 -199h-60l147.939 696h60l-73.7568 -347c-2.97559 -14 -28.5068 -120 58.4932 -120c81 0 126.154 76 133.594 111z" />
    <glyph glyph-name="Aacute" unicode="&#xc1;" horiz-adv-x="556" 
d="M394.466 722h76l71.5342 -722h-67l-17.6143 190h-283l-97.3857 -190h-64zM204.864 244h247l-36.2773 408h-2zM379.157 777l142.12 137h80l-172.12 -137h-50z" />
    <glyph glyph-name="Acircumflex" unicode="&#xc2;" horiz-adv-x="556" 
d="M394.466 722h76l71.5342 -722h-67l-17.6143 190h-283l-97.3857 -190h-64zM204.864 244h247l-36.2773 408h-2zM464.413 877l-103.682 -102h-64l142.546 139h67l83.4541 -139h-64z" />
    <glyph glyph-name="Adieresis" unicode="&#xc4;" horiz-adv-x="556" 
d="M394.466 722h76l71.5342 -722h-67l-17.6143 190h-283l-97.3857 -190h-64zM204.864 244h247l-36.2773 408h-2zM334.495 788l21.4678 101h64l-21.4678 -101h-64zM492.495 788l21.4678 101h64l-21.4678 -101h-64z" />
    <glyph glyph-name="Agrave" unicode="&#xc0;" horiz-adv-x="556" 
d="M394.466 722h76l71.5342 -722h-67l-17.6143 190h-283l-97.3857 -190h-64zM204.864 244h247l-36.2773 408h-2zM507.157 777h-50l-113.88 137h80z" />
    <glyph glyph-name="Aring" unicode="&#xc5;" horiz-adv-x="556" 
d="M394.466 722h76l71.5342 -722h-67l-17.6143 190h-283l-97.3857 -190h-64zM204.864 244h247l-36.2773 408h-2zM480.567 953c51 0 83.0723 -42 72.2314 -93c-10.8398 -51 -60.9805 -94 -111.98 -94s-83.8594 43 -73.0195 94c10.8408 51 61.7686 93 112.769 93zM473.127 918
c-32 0 -63.5264 -26 -70.3281 -58c-6.37598 -30 14.459 -59 45.459 -59c30 0 63.165 29 69.541 59c6.58984 31 -13.6719 58 -44.6719 58z" />
    <glyph glyph-name="Atilde" unicode="&#xc3;" horiz-adv-x="556" 
d="M394.466 722h76l71.5342 -722h-67l-17.6143 190h-283l-97.3857 -190h-64zM204.864 244h247l-36.2773 408h-2zM332.597 812h-38c8.10156 24 21.415 49 40.666 69c19.0391 19 43.0146 33 69.0146 33c24 0 46.5986 -16 68.2607 -27c22.4492 -12 42.2607 -27 62.2607 -27
c28 0 47.1641 29 55.4785 54h38c-5.67676 -22 -19.2031 -48 -37.4541 -68c-17.251 -20 -40.2266 -34 -66.2266 -34c-25 0 -47.5996 16 -70.2607 27c-22.4502 12 -42.2617 27 -64.2617 27c-26 0 -49.5889 -31 -57.4775 -54z" />
    <glyph glyph-name="Eacute" unicode="&#xc9;" 
d="M228.466 722h327l-11.4775 -54h-263l-57.3906 -270h251l-11.4785 -54h-251l-61.6406 -290h270l-11.4785 -54h-334zM323.157 777l142.12 137h80l-172.12 -137h-50z" />
    <glyph glyph-name="Ecircumflex" unicode="&#xca;" 
d="M228.466 722h327l-11.4775 -54h-263l-57.3906 -270h251l-11.4785 -54h-251l-61.6406 -290h270l-11.4785 -54h-334zM408.413 877l-103.682 -102h-64l142.546 139h67l83.4541 -139h-64z" />
    <glyph glyph-name="Edieresis" unicode="&#xcb;" 
d="M228.466 722h327l-11.4775 -54h-263l-57.3906 -270h251l-11.4785 -54h-251l-61.6406 -290h270l-11.4785 -54h-334zM278.495 788l21.4678 101h64l-21.4678 -101h-64zM436.495 788l21.4678 101h64l-21.4678 -101h-64z" />
    <glyph glyph-name="Egrave" unicode="&#xc8;" 
d="M228.466 722h327l-11.4775 -54h-263l-57.3906 -270h251l-11.4785 -54h-251l-61.6406 -290h270l-11.4785 -54h-334zM451.157 777h-50l-113.88 137h80z" />
    <glyph glyph-name="Iacute" unicode="&#xcd;" horiz-adv-x="222" 
d="M232.466 722h64l-153.466 -722h-64zM212.157 777l142.12 137h80l-172.12 -137h-50z" />
    <glyph glyph-name="Icircumflex" unicode="&#xce;" horiz-adv-x="222" 
d="M232.466 722h64l-153.466 -722h-64zM297.413 877l-103.682 -102h-64l142.546 139h67l83.4541 -139h-64z" />
    <glyph glyph-name="Idieresis" unicode="&#xcf;" horiz-adv-x="222" 
d="M232.466 722h64l-153.466 -722h-64zM167.495 788l21.4678 101h64l-21.4678 -101h-64zM325.495 788l21.4678 101h64l-21.4678 -101h-64z" />
    <glyph glyph-name="Igrave" unicode="&#xcc;" horiz-adv-x="222" 
d="M232.466 722h64l-153.466 -722h-64zM340.157 777h-50l-113.88 137h80z" />
    <glyph glyph-name="Ntilde" unicode="&#xd1;" horiz-adv-x="611" 
d="M141 0h-64l153.466 722h98l158.239 -634l2.4248 2l134.336 632h64l-153.466 -722h-97l-157.751 641l-2.4248 -2zM360.597 812h-38c8.10156 24 21.415 49 40.666 69c19.0391 19 43.0146 33 69.0146 33c24 0 46.5986 -16 68.2607 -27c22.4492 -12 42.2607 -27 62.2607 -27
c28 0 47.1641 29 55.4785 54h38c-5.67676 -22 -19.2031 -48 -37.4541 -68c-17.251 -20 -40.2266 -34 -66.2266 -34c-25 0 -47.5996 16 -70.2607 27c-22.4502 12 -42.2617 27 -64.2617 27c-26 0 -49.5889 -31 -57.4775 -54z" />
    <glyph glyph-name="Oacute" unicode="&#xd3;" horiz-adv-x="556" 
d="M200.733 361c-40.8115 -192 -66.2314 -321 85.7686 -321s181.42 129 222.231 321c40.8105 192 66.2305 321 -85.7695 321s-181.42 -129 -222.23 -321zM136.733 361c41.4482 195 81.709 375 297.709 375s179.739 -180 138.291 -375
c-41.4492 -195 -81.709 -375 -297.709 -375s-179.74 180 -138.291 375zM379.157 777l142.12 137h80l-172.12 -137h-50z" />
    <glyph glyph-name="Ocircumflex" unicode="&#xd4;" horiz-adv-x="556" 
d="M200.733 361c-40.8115 -192 -66.2314 -321 85.7686 -321s181.42 129 222.231 321c40.8105 192 66.2305 321 -85.7695 321s-181.42 -129 -222.23 -321zM136.733 361c41.4482 195 81.709 375 297.709 375s179.739 -180 138.291 -375
c-41.4492 -195 -81.709 -375 -297.709 -375s-179.74 180 -138.291 375zM464.413 877l-103.682 -102h-64l142.546 139h67l83.4541 -139h-64z" />
    <glyph glyph-name="Odieresis" unicode="&#xd6;" horiz-adv-x="556" 
d="M200.733 361c-40.8115 -192 -66.2314 -321 85.7686 -321s181.42 129 222.231 321c40.8105 192 66.2305 321 -85.7695 321s-181.42 -129 -222.23 -321zM136.733 361c41.4482 195 81.709 375 297.709 375s179.739 -180 138.291 -375
c-41.4492 -195 -81.709 -375 -297.709 -375s-179.74 180 -138.291 375zM334.495 788l21.4678 101h64l-21.4678 -101h-64zM492.495 788l21.4678 101h64l-21.4678 -101h-64z" />
    <glyph glyph-name="Ograve" unicode="&#xd2;" horiz-adv-x="556" 
d="M200.733 361c-40.8115 -192 -66.2314 -321 85.7686 -321s181.42 129 222.231 321c40.8105 192 66.2305 321 -85.7695 321s-181.42 -129 -222.23 -321zM136.733 361c41.4482 195 81.709 375 297.709 375s179.739 -180 138.291 -375
c-41.4492 -195 -81.709 -375 -297.709 -375s-179.74 180 -138.291 375zM507.157 777h-50l-113.88 137h80z" />
    <glyph glyph-name="Otilde" unicode="&#xd5;" horiz-adv-x="556" 
d="M200.733 361c-40.8115 -192 -66.2314 -321 85.7686 -321s181.42 129 222.231 321c40.8105 192 66.2305 321 -85.7695 321s-181.42 -129 -222.23 -321zM136.733 361c41.4482 195 81.709 375 297.709 375s179.739 -180 138.291 -375
c-41.4492 -195 -81.709 -375 -297.709 -375s-179.74 180 -138.291 375zM332.597 812h-38c8.10156 24 21.415 49 40.666 69c19.0391 19 43.0146 33 69.0146 33c24 0 46.5986 -16 68.2607 -27c22.4492 -12 42.2607 -27 62.2607 -27c28 0 47.1641 29 55.4785 54h38
c-5.67676 -22 -19.2031 -48 -37.4541 -68c-17.251 -20 -40.2266 -34 -66.2266 -34c-25 0 -47.5996 16 -70.2607 27c-22.4502 12 -42.2617 27 -64.2617 27c-26 0 -49.5889 -31 -57.4775 -54z" />
    <glyph glyph-name="Scaron" unicode="&#x160;" horiz-adv-x="500" 
d="M557.568 539h-65c16.917 89 6.39551 143 -91.6045 143c-78 0 -132.739 -27 -150.807 -112c-22.7432 -107 30.6191 -110 100.078 -169c75.3965 -64 162.357 -83 132.6 -223c-27.4199 -129 -106.811 -192 -232.811 -192c-141 0 -187.846 76 -151.875 217h66
c-17.0049 -80 -28.6475 -163 100.353 -163c84 0 134.565 45 152.208 128c20.8301 98 -38.2178 126 -128.614 190c-121.721 86 -118.58 129 -104.276 201c25.5693 125 115.623 177 233.623 177c150 0 162.231 -93 140.126 -197zM423.597 812l103.681 102h64l-142.546 -139
h-67l-83.4541 139h64z" />
    <glyph glyph-name="Uacute" unicode="&#xda;" horiz-adv-x="556" 
d="M284.466 722l-96.501 -454c-19.9795 -94 -48.4629 -228 98.5371 -228s175.483 134 195.463 228l96.501 454h64l-106.491 -501c-39.5352 -186 -147.95 -235 -260.95 -235s-200.585 49 -161.05 235l106.491 501h64zM379.157 777l142.12 137h80l-172.12 -137h-50z" />
    <glyph glyph-name="Ucircumflex" unicode="&#xdb;" horiz-adv-x="556" 
d="M284.466 722l-96.501 -454c-19.9795 -94 -48.4629 -228 98.5371 -228s175.483 134 195.463 228l96.501 454h64l-106.491 -501c-39.5352 -186 -147.95 -235 -260.95 -235s-200.585 49 -161.05 235l106.491 501h64zM464.413 877l-103.682 -102h-64l142.546 139h67
l83.4541 -139h-64z" />
    <glyph glyph-name="Udieresis" unicode="&#xdc;" horiz-adv-x="556" 
d="M284.466 722l-96.501 -454c-19.9795 -94 -48.4629 -228 98.5371 -228s175.483 134 195.463 228l96.501 454h64l-106.491 -501c-39.5352 -186 -147.95 -235 -260.95 -235s-200.585 49 -161.05 235l106.491 501h64zM334.495 788l21.4678 101h64l-21.4678 -101h-64z
M492.495 788l21.4678 101h64l-21.4678 -101h-64z" />
    <glyph glyph-name="Ugrave" unicode="&#xd9;" horiz-adv-x="556" 
d="M284.466 722l-96.501 -454c-19.9795 -94 -48.4629 -228 98.5371 -228s175.483 134 195.463 228l96.501 454h64l-106.491 -501c-39.5352 -186 -147.95 -235 -260.95 -235s-200.585 49 -161.05 235l106.491 501h64zM507.157 777h-50l-113.88 137h80z" />
    <glyph glyph-name="Yacute" unicode="&#xdd;" horiz-adv-x="500" 
d="M217 0l63.7676 300l-114.302 422h72l88.6924 -359l249.308 359h64l-295.698 -422l-63.7676 -300h-64zM351.157 777l142.12 137h80l-172.12 -137h-50z" />
    <glyph glyph-name="Ydieresis" unicode="&#x178;" horiz-adv-x="500" 
d="M217 0l63.7676 300l-114.302 422h72l88.6924 -359l249.308 359h64l-295.698 -422l-63.7676 -300h-64zM306.495 788l21.4678 101h64l-21.4678 -101h-64zM464.495 788l21.4678 101h64l-21.4678 -101h-64z" />
    <glyph glyph-name="Zcaron" unicode="&#x17d;" 
d="M197.466 722h373l-15.0908 -71l-453.896 -597h330l-11.4785 -54h-396l15.0918 71l456.896 597h-310zM395.597 812l103.681 102h64l-142.546 -139h-67l-83.4541 139h64z" />
    <glyph glyph-name="aacute" unicode="&#xe1;" 
d="M353.284 166l19.5557 92c-86.6377 -3 -214.513 7 -240.657 -116c-12.1152 -57 6.89453 -104 68.8945 -104c69 0 138.179 62 152.207 128zM322 0l13.1787 62h-2c-42.2031 -48 -96.3047 -72 -158.305 -72c-90 0 -126.033 61 -107.328 149
c37.6221 177 211.796 159 315.496 167l8.92773 42c15.7295 74 3.29395 119 -76.7061 119c-55 0 -104.738 -27 -117.492 -87h-64c25.6182 97 108.695 135 196.695 135c51 0 155.938 -5 128.518 -134l-53.9893 -254c-7.65234 -36 -14.4541 -68 -20.9951 -127h-62zM277.032 560
l142.12 137h80l-172.12 -137h-50z" />
    <glyph glyph-name="acircumflex" unicode="&#xe2;" 
d="M353.284 166l19.5557 92c-86.6377 -3 -214.513 7 -240.657 -116c-12.1152 -57 6.89453 -104 68.8945 -104c69 0 138.179 62 152.207 128zM322 0l13.1787 62h-2c-42.2031 -48 -96.3047 -72 -158.305 -72c-90 0 -126.033 61 -107.328 149
c37.6221 177 211.796 159 315.496 167l8.92773 42c15.7295 74 3.29395 119 -76.7061 119c-55 0 -104.738 -27 -117.492 -87h-64c25.6182 97 108.695 135 196.695 135c51 0 155.938 -5 128.518 -134l-53.9893 -254c-7.65234 -36 -14.4541 -68 -20.9951 -127h-62zM362.288 660
l-103.682 -102h-64l142.546 139h67l83.4541 -139h-64z" />
    <glyph glyph-name="adieresis" unicode="&#xe4;" 
d="M353.284 166l19.5557 92c-86.6377 -3 -214.513 7 -240.657 -116c-12.1152 -57 6.89453 -104 68.8945 -104c69 0 138.179 62 152.207 128zM322 0l13.1787 62h-2c-42.2031 -48 -96.3047 -72 -158.305 -72c-90 0 -126.033 61 -107.328 149
c37.6221 177 211.796 159 315.496 167l8.92773 42c15.7295 74 3.29395 119 -76.7061 119c-55 0 -104.738 -27 -117.492 -87h-64c25.6182 97 108.695 135 196.695 135c51 0 155.938 -5 128.518 -134l-53.9893 -254c-7.65234 -36 -14.4541 -68 -20.9951 -127h-62zM232.37 571
l21.4678 101h64l-21.4678 -101h-64zM390.37 571l21.4678 101h64l-21.4678 -101h-64z" />
    <glyph glyph-name="agrave" unicode="&#xe0;" 
d="M353.284 166l19.5557 92c-86.6377 -3 -214.513 7 -240.657 -116c-12.1152 -57 6.89453 -104 68.8945 -104c69 0 138.179 62 152.207 128zM322 0l13.1787 62h-2c-42.2031 -48 -96.3047 -72 -158.305 -72c-90 0 -126.033 61 -107.328 149
c37.6221 177 211.796 159 315.496 167l8.92773 42c15.7295 74 3.29395 119 -76.7061 119c-55 0 -104.738 -27 -117.492 -87h-64c25.6182 97 108.695 135 196.695 135c51 0 155.938 -5 128.518 -134l-53.9893 -254c-7.65234 -36 -14.4541 -68 -20.9951 -127h-62zM405.032 560
h-50l-113.88 137h80z" />
    <glyph glyph-name="aring" unicode="&#xe5;" 
d="M353.284 166l19.5557 92c-86.6377 -3 -214.513 7 -240.657 -116c-12.1152 -57 6.89453 -104 68.8945 -104c69 0 138.179 62 152.207 128zM322 0l13.1787 62h-2c-42.2031 -48 -96.3047 -72 -158.305 -72c-90 0 -126.033 61 -107.328 149
c37.6221 177 211.796 159 315.496 167l8.92773 42c15.7295 74 3.29395 119 -76.7061 119c-55 0 -104.738 -27 -117.492 -87h-64c25.6182 97 108.695 135 196.695 135c51 0 155.938 -5 128.518 -134l-53.9893 -254c-7.65234 -36 -14.4541 -68 -20.9951 -127h-62zM378.442 736
c51 0 83.0723 -42 72.2314 -93c-10.8398 -51 -60.9805 -94 -111.98 -94s-83.8594 43 -73.0195 94c10.8408 51 61.7686 93 112.769 93zM371.002 701c-32 0 -63.5264 -26 -70.3281 -58c-6.37598 -30 14.459 -59 45.459 -59c30 0 63.165 29 69.541 59
c6.58984 31 -13.6719 58 -44.6719 58z" />
    <glyph glyph-name="atilde" unicode="&#xe3;" 
d="M353.284 166l19.5557 92c-86.6377 -3 -214.513 7 -240.657 -116c-12.1152 -57 6.89453 -104 68.8945 -104c69 0 138.179 62 152.207 128zM322 0l13.1787 62h-2c-42.2031 -48 -96.3047 -72 -158.305 -72c-90 0 -126.033 61 -107.328 149
c37.6221 177 211.796 159 315.496 167l8.92773 42c15.7295 74 3.29395 119 -76.7061 119c-55 0 -104.738 -27 -117.492 -87h-64c25.6182 97 108.695 135 196.695 135c51 0 155.938 -5 128.518 -134l-53.9893 -254c-7.65234 -36 -14.4541 -68 -20.9951 -127h-62zM230.472 595
h-38c8.10156 24 21.415 49 40.666 69c19.0391 19 43.0146 33 69.0146 33c24 0 46.5986 -16 68.2607 -27c22.4492 -12 42.2607 -27 62.2607 -27c28 0 47.1641 29 55.4785 54h38c-5.67676 -22 -19.2031 -48 -37.4541 -68c-17.251 -20 -40.2266 -34 -66.2266 -34
c-25 0 -47.5996 16 -70.2607 27c-22.4502 12 -42.2617 27 -64.2617 27c-26 0 -49.5889 -31 -57.4775 -54z" />
    <glyph glyph-name="eacute" unicode="&#xe9;" 
d="M447.014 240h-288l-8.29004 -39c-14.8789 -70 -15.6465 -163 79.3535 -163c75 0 122.203 48 135.656 116h63c-32.9316 -122 -107.859 -164 -208.859 -164c-87 0 -166.561 35 -134.039 188l26.3574 124c31.0332 146 106.274 213 219.274 213
c174 0 147.431 -125 115.547 -275zM169.217 288h228c23.8057 112 20.0469 179 -75.9531 179s-128.241 -67 -152.047 -179zM277.032 560l142.12 137h80l-172.12 -137h-50z" />
    <glyph glyph-name="ecircumflex" unicode="&#xea;" 
d="M447.014 240h-288l-8.29004 -39c-14.8789 -70 -15.6465 -163 79.3535 -163c75 0 122.203 48 135.656 116h63c-32.9316 -122 -107.859 -164 -208.859 -164c-87 0 -166.561 35 -134.039 188l26.3574 124c31.0332 146 106.274 213 219.274 213
c174 0 147.431 -125 115.547 -275zM169.217 288h228c23.8057 112 20.0469 179 -75.9531 179s-128.241 -67 -152.047 -179zM362.288 660l-103.682 -102h-64l142.546 139h67l83.4541 -139h-64z" />
    <glyph glyph-name="edieresis" unicode="&#xeb;" 
d="M447.014 240h-288l-8.29004 -39c-14.8789 -70 -15.6465 -163 79.3535 -163c75 0 122.203 48 135.656 116h63c-32.9316 -122 -107.859 -164 -208.859 -164c-87 0 -166.561 35 -134.039 188l26.3574 124c31.0332 146 106.274 213 219.274 213
c174 0 147.431 -125 115.547 -275zM169.217 288h228c23.8057 112 20.0469 179 -75.9531 179s-128.241 -67 -152.047 -179zM232.37 571l21.4678 101h64l-21.4678 -101h-64zM390.37 571l21.4678 101h64l-21.4678 -101h-64z" />
    <glyph glyph-name="egrave" unicode="&#xe8;" 
d="M447.014 240h-288l-8.29004 -39c-14.8789 -70 -15.6465 -163 79.3535 -163c75 0 122.203 48 135.656 116h63c-32.9316 -122 -107.859 -164 -208.859 -164c-87 0 -166.561 35 -134.039 188l26.3574 124c31.0332 146 106.274 213 219.274 213
c174 0 147.431 -125 115.547 -275zM169.217 288h228c23.8057 112 20.0469 179 -75.9531 179s-128.241 -67 -152.047 -179zM405.032 560h-50l-113.88 137h80z" />
    <glyph glyph-name="iacute" unicode="&#xed;" horiz-adv-x="222" 
d="M141 0h-60l107.341 505h60zM166.032 560l142.12 137h80l-172.12 -137h-50z" />
    <glyph glyph-name="icircumflex" unicode="&#xee;" horiz-adv-x="222" 
d="M141 0h-60l107.341 505h60zM251.288 660l-103.682 -102h-64l142.546 139h67l83.4541 -139h-64z" />
    <glyph glyph-name="idieresis" unicode="&#xef;" horiz-adv-x="222" 
d="M141 0h-60l107.341 505h60zM121.37 571l21.4678 101h64l-21.4678 -101h-64zM279.37 571l21.4678 101h64l-21.4678 -101h-64z" />
    <glyph glyph-name="igrave" unicode="&#xec;" horiz-adv-x="222" 
d="M141 0h-60l107.341 505h60zM294.032 560h-50l-113.88 137h80z" />
    <glyph glyph-name="ntilde" unicode="&#xf1;" 
d="M188.381 317l-67.3809 -317h-60l107.341 505h60l-13.1777 -62h2c37.9268 42 83.3037 72 137.304 72c125 0 118.232 -93 104.203 -159l-75.6699 -356h-60l75.0322 353c12.541 59 1.23145 114 -68.7686 114c-54 0 -116.864 -37 -140.883 -150zM230.472 595h-38
c8.10156 24 21.415 49 40.666 69c19.0391 19 43.0146 33 69.0146 33c24 0 46.5986 -16 68.2607 -27c22.4492 -12 42.2607 -27 62.2607 -27c28 0 47.1641 29 55.4785 54h38c-5.67676 -22 -19.2031 -48 -37.4541 -68c-17.251 -20 -40.2266 -34 -66.2266 -34
c-25 0 -47.5996 16 -70.2607 27c-22.4502 12 -42.2617 27 -64.2617 27c-26 0 -49.5889 -31 -57.4775 -54z" />
    <glyph glyph-name="oacute" unicode="&#xf3;" 
d="M219.874 -10c-118 0 -157.633 77 -129.788 208l23.1689 109c27.8447 131 100.212 208 218.212 208s157.633 -77 129.788 -208l-23.1689 -109c-27.8447 -131 -100.212 -208 -218.212 -208zM321.264 467c-99 0 -131.642 -83 -159.486 -214
c-28.0576 -132 -30.7002 -215 68.2998 -215s131.643 83 159.7 215c27.8447 131 30.4863 214 -68.5137 214zM277.032 560l142.12 137h80l-172.12 -137h-50z" />
    <glyph glyph-name="ocircumflex" unicode="&#xf4;" 
d="M219.874 -10c-118 0 -157.633 77 -129.788 208l23.1689 109c27.8447 131 100.212 208 218.212 208s157.633 -77 129.788 -208l-23.1689 -109c-27.8447 -131 -100.212 -208 -218.212 -208zM321.264 467c-99 0 -131.642 -83 -159.486 -214
c-28.0576 -132 -30.7002 -215 68.2998 -215s131.643 83 159.7 215c27.8447 131 30.4863 214 -68.5137 214zM362.288 660l-103.682 -102h-64l142.546 139h67l83.4541 -139h-64z" />
    <glyph glyph-name="odieresis" unicode="&#xf6;" 
d="M219.874 -10c-118 0 -157.633 77 -129.788 208l23.1689 109c27.8447 131 100.212 208 218.212 208s157.633 -77 129.788 -208l-23.1689 -109c-27.8447 -131 -100.212 -208 -218.212 -208zM321.264 467c-99 0 -131.642 -83 -159.486 -214
c-28.0576 -132 -30.7002 -215 68.2998 -215s131.643 83 159.7 215c27.8447 131 30.4863 214 -68.5137 214zM232.37 571l21.4678 101h64l-21.4678 -101h-64zM390.37 571l21.4678 101h64l-21.4678 -101h-64z" />
    <glyph glyph-name="ograve" unicode="&#xf2;" 
d="M219.874 -10c-118 0 -157.633 77 -129.788 208l23.1689 109c27.8447 131 100.212 208 218.212 208s157.633 -77 129.788 -208l-23.1689 -109c-27.8447 -131 -100.212 -208 -218.212 -208zM321.264 467c-99 0 -131.642 -83 -159.486 -214
c-28.0576 -132 -30.7002 -215 68.2998 -215s131.643 83 159.7 215c27.8447 131 30.4863 214 -68.5137 214zM405.032 560h-50l-113.88 137h80z" />
    <glyph glyph-name="otilde" unicode="&#xf5;" 
d="M219.874 -10c-118 0 -157.633 77 -129.788 208l23.1689 109c27.8447 131 100.212 208 218.212 208s157.633 -77 129.788 -208l-23.1689 -109c-27.8447 -131 -100.212 -208 -218.212 -208zM321.264 467c-99 0 -131.642 -83 -159.486 -214
c-28.0576 -132 -30.7002 -215 68.2998 -215s131.643 83 159.7 215c27.8447 131 30.4863 214 -68.5137 214zM230.472 595h-38c8.10156 24 21.415 49 40.666 69c19.0391 19 43.0146 33 69.0146 33c24 0 46.5986 -16 68.2607 -27c22.4492 -12 42.2607 -27 62.2607 -27
c28 0 47.1641 29 55.4785 54h38c-5.67676 -22 -19.2031 -48 -37.4541 -68c-17.251 -20 -40.2266 -34 -66.2266 -34c-25 0 -47.5996 16 -70.2607 27c-22.4502 12 -42.2617 27 -64.2617 27c-26 0 -49.5889 -31 -57.4775 -54z" />
    <glyph glyph-name="scaron" unicode="&#x161;" horiz-adv-x="389" 
d="M372.271 133c-20.1934 -95 -85.3965 -143 -179.396 -143c-109 0 -140.734 53 -116.99 160h61c-14.667 -69 -8.44434 -115 68.5557 -115c58 0 93.0146 33 104.918 89c28.0576 132 -206.17 98 -170.673 265c19.7676 93 90.7822 126 178.782 126
c100 0 117.334 -69 100.967 -146h-59c10.6035 64 0.830078 98 -67.1699 98c-43 0 -82.9512 -28 -92.5166 -73c-26.7822 -126 207.445 -92 171.523 -261zM322.472 595l103.681 102h64l-142.546 -139h-67l-83.4541 139h64z" />
    <glyph glyph-name="uacute" unicode="&#xfa;" 
d="M426.341 505h60l-107.341 -505h-52l11.9033 56h-2c-44.1396 -43 -85.0293 -66 -141.029 -66c-104 0 -116.846 76 -99.416 158l75.8828 357h60l-73.7568 -347c-2.97559 -14 -28.5068 -120 58.4932 -120c81 0 126.154 76 133.594 111zM277.032 560l142.12 137h80
l-172.12 -137h-50z" />
    <glyph glyph-name="ucircumflex" unicode="&#xfb;" 
d="M426.341 505h60l-107.341 -505h-52l11.9033 56h-2c-44.1396 -43 -85.0293 -66 -141.029 -66c-104 0 -116.846 76 -99.416 158l75.8828 357h60l-73.7568 -347c-2.97559 -14 -28.5068 -120 58.4932 -120c81 0 126.154 76 133.594 111zM362.288 660l-103.682 -102h-64
l142.546 139h67l83.4541 -139h-64z" />
    <glyph glyph-name="udieresis" unicode="&#xfc;" 
d="M426.341 505h60l-107.341 -505h-52l11.9033 56h-2c-44.1396 -43 -85.0293 -66 -141.029 -66c-104 0 -116.846 76 -99.416 158l75.8828 357h60l-73.7568 -347c-2.97559 -14 -28.5068 -120 58.4932 -120c81 0 126.154 76 133.594 111zM232.37 571l21.4678 101h64
l-21.4678 -101h-64zM390.37 571l21.4678 101h64l-21.4678 -101h-64z" />
    <glyph glyph-name="ugrave" unicode="&#xf9;" 
d="M426.341 505h60l-107.341 -505h-52l11.9033 56h-2c-44.1396 -43 -85.0293 -66 -141.029 -66c-104 0 -116.846 76 -99.416 158l75.8828 357h60l-73.7568 -347c-2.97559 -14 -28.5068 -120 58.4932 -120c81 0 126.154 76 133.594 111zM405.032 560h-50l-113.88 137h80z" />
    <glyph glyph-name="yacute" unicode="&#xfd;" horiz-adv-x="389" 
d="M70.4014 -191l99.3857 190l-52.4463 506h65l35.002 -414h2l206.998 414h60l-356.939 -696h-59zM250.032 560l142.12 137h80l-172.12 -137h-50z" />
    <glyph glyph-name="ydieresis" unicode="&#xff;" horiz-adv-x="389" 
d="M70.4014 -191l99.3857 190l-52.4463 506h65l35.002 -414h2l206.998 414h60l-356.939 -696h-59zM205.37 571l21.4678 101h64l-21.4678 -101h-64zM363.37 571l21.4678 101h64l-21.4678 -101h-64z" />
    <glyph glyph-name="zcaron" unicode="&#x17e;" horiz-adv-x="333" 
d="M28 0l10.415 49l296.724 408h-198l10.2021 48h259l-10.627 -50l-291.511 -407h210l-10.2031 -48h-276zM294.472 595l103.681 102h64l-142.546 -139h-67l-83.4541 139h64z" />
  </font>
</defs>
</svg>
