<?xml version="1.0" standalone="no"?>
<!DOCTYPE svg PUBLIC "-//W3C//DTD SVG 1.1//EN" "http://www.w3.org/Graphics/SVG/1.1/DTD/svg11.dtd" >
<svg xmlns="http://www.w3.org/2000/svg" width="100%" height="100%">
<metadata>
Created by FontXChange 20110222 at Mon Nov 28 12:13:34 2016
 By Creative4
 The digitally encoded machine readable outline data for producing the
 Typefaces provided as part of your laser printer is copyrighted (c) 1981
 Linotype-Hell AG. All rights reserved. This data is the property of Linotype-
 Hell AG, and may not be reproduced, used, displayed, modified, disclosed or
 transferred without the express written approval of Linotype-Hell AG. 
</metadata>
<defs>
<font id="Univers-BoldOblique" horiz-adv-x="556" >
  <font-face 
    font-family="Univers"
    font-weight="700"
    font-style="oblique"
    font-stretch="normal"
    units-per-em="1000"
    panose-1="2 0 8 3 0 0 0 0 0 0"
    ascent="800"
    descent="-200"
    x-height="502"
    cap-height="722"
    bbox="-151 -250 1143.47 958"
    underline-thickness="50"
    underline-position="-100"
    stemh="100"
    stemv="150"
    unicode-range="U+0020-FB02"
  />
    <missing-glyph />
    <glyph glyph-name="space" unicode=" " horiz-adv-x="278" 
 />
    <glyph glyph-name="exclam" unicode="!" horiz-adv-x="389" 
d="M415.679 723l-124.805 -526h-103l93.8047 526h134zM262 0h-127l28.2705 133h127z" />
    <glyph glyph-name="quotedbl" unicode="&#x22;" horiz-adv-x="474" 
d="M202.466 722h140l-55.2646 -260h-140zM438.466 722h140l-55.2646 -260h-140z" />
    <glyph glyph-name="numbersign" unicode="#" 
d="M348.09 692h100l-78.0234 -193h97l78.0234 193h99l-78.0234 -193h76l-21.2559 -100h-93l-51.2705 -133h90l-21.2559 -100h-113l-66.2842 -166h-100l66.2842 166h-97l-66.2842 -166h-100l66.2842 166h-88l21.2559 100h109l51.2705 133h-93l21.2559 100h113zM328.811 399
l-51.2705 -133h98l53.2705 133h-100z" />
    <glyph glyph-name="dollar" unicode="$" 
d="M362.178 269l-35.9219 -169c36.8496 4 76.3135 25 88.4297 82c11.6904 55 -13.4834 73 -52.5078 87zM461.654 737l-9.56445 -45c118.661 -11 198.546 -68 168.701 -199h-145c9.69043 55 1.40527 96 -44.957 99l-39.3232 -185c107.474 -26 211.759 -67 182.851 -203
c-26.7822 -126 -158.786 -206 -269.361 -204l-9.56543 -45h-55l9.56543 45c-142.425 -2 -212.846 76 -180.3 215h145c-14.9033 -56 1.19336 -112 56.5557 -115l38.4727 181c-123.136 37 -205.396 64 -173.938 212c23.8057 112 155.235 194 261.299 199l9.56445 45h55z
M339.699 422l36.1348 170c-42 0 -73.7783 -46 -83.3428 -91c-10.415 -49 13.9707 -66 47.208 -79z" />
    <glyph glyph-name="percent" unicode="%" horiz-adv-x="889" 
d="M840.456 769l-545.794 -780h-75l545.794 780h75zM760.434 369c123 0 147.995 -80 124.189 -192c-23.8066 -112 -82.8115 -192 -205.812 -192s-147.995 80 -124.188 192c23.8057 112 82.8105 192 205.811 192zM663.623 177c-9.14062 -43 -15.5947 -111 33.8936 -104
c48 0 70.4541 68 78.1064 104c7.65137 36 14.1055 104 -33.8945 104c-46.5117 7 -68.9658 -61 -78.1055 -104zM377.277 707c123 0 147.996 -80 124.189 -192s-82.8105 -192 -205.811 -192s-147.996 80 -124.189 192s82.8105 192 205.811 192zM280.467 515
c-9.13965 -43 -15.5938 -111 33.8945 -104c48 0 70.4531 68 78.1055 104s14.1064 104 -33.8936 104c-46.5127 7 -68.9668 -61 -78.1064 -104z" />
    <glyph glyph-name="ampersand" unicode="&#x26;" horiz-adv-x="778" 
d="M415.965 475c36.6758 22 86.3906 63 95.3184 105s-23.8848 57 -64.8848 57s-76.7383 -27 -84.1777 -62c-6.80273 -32 33.9951 -80 53.7441 -100zM594 0l-42.1836 65c-67.0527 -52 -170.005 -80 -245.005 -80c-129 0 -271.884 57 -239.575 209
c22.5312 106 107.835 178 205.101 231c-40.1357 37 -67.0195 94 -53.8408 156c24.8691 117 156.158 156 252.158 156s210.711 -39 185.842 -156c-17.8555 -84 -102.672 -149 -180.111 -184l114.755 -147c33.7148 41 50.2793 86 63.4189 129
c6.88965 23 14.9902 47 19.8799 70h155c-3.52637 -26 -14.0537 -52 -24.3672 -77c-31.0049 -80 -81.1592 -156 -139.188 -222l115.116 -150h-187zM477.82 145l-147.401 191c-47.2266 -34 -84.1543 -76 -95.8447 -131c-14.666 -69 36.0439 -108 100.044 -108
c41 0 108.676 22 143.202 48z" />
    <glyph glyph-name="quoteright" unicode="&#x2019;" horiz-adv-x="278" 
d="M136.39 477l126.076 245h148l-171.076 -245h-103z" />
    <glyph glyph-name="parenleft" unicode="(" horiz-adv-x="333" 
d="M324.466 722h102c-75.7578 -140 -134.516 -280 -165.974 -428c-24.6572 -116 -18.8789 -277 -8.89746 -390h-101c-22.793 128 -37.5225 261 -8.19043 399c32.7344 154 100.092 278 182.062 419z" />
    <glyph glyph-name="parenright" unicode=")" horiz-adv-x="333" 
d="M141.595 -96h-102c75.7578 140 134.516 280 165.975 428c24.6562 116 18.8779 277 8.89648 390h101c22.793 -128 37.5225 -261 8.19043 -399c-32.7344 -154 -100.091 -278 -182.062 -419z" />
    <glyph glyph-name="asterisk" unicode="*" 
d="M325.09 485l-155.251 -20l22.5312 106l147.323 -22l-68.7051 119l103.84 51l26.668 -138l88.9697 141l81.3096 -55l-123.082 -118l156.826 18l-24.5312 -106l-144.11 23l67.8555 -123l-103.841 -51l-28.0293 141l-88.1836 -142l-78.5215 54z" />
    <glyph glyph-name="plus" unicode="+" horiz-adv-x="584" 
d="M334.878 484h120l-38.6855 -182h182l-25.5068 -120h-182l-38.6855 -182h-120l38.6855 182h-182l25.5068 120h182z" />
    <glyph glyph-name="comma" unicode="," horiz-adv-x="278" 
d="M4.19336 -112l126.077 245h148l-171.077 -245h-103z" />
    <glyph glyph-name="hyphen" unicode="-" horiz-adv-x="333" 
d="M335.212 208h-248l23.8066 112h248z" />
    <glyph glyph-name="period" unicode="." horiz-adv-x="278" 
d="M203 0h-127l28.2705 133h127z" />
    <glyph glyph-name="slash" unicode="/" horiz-adv-x="444" 
d="M555.466 722l-416.871 -818h-117l417.871 818h116z" />
    <glyph glyph-name="zero" unicode="0" 
d="M440.332 345c3.61328 17 63.6904 262 -33.3096 262s-141.077 -245 -144.69 -262s-63.2646 -260 33.7354 -260s140.651 243 144.265 260zM595.332 345c-35.709 -168 -127.521 -360 -323.521 -360c-190 0 -200.188 192 -164.479 360c35.71 168 127.945 362 317.945 362
c196 0 205.765 -194 170.055 -362z" />
    <glyph glyph-name="one" unicode="1" 
d="M191.288 453l29.333 138c67.5264 26 133.966 61 195.469 101h140l-147.09 -692h-150l115.206 542c-58.6523 -36 -120.029 -66 -182.918 -89z" />
    <glyph glyph-name="two" unicode="2" 
d="M25 0l29.9707 141c77.666 69 392.603 271 414.709 375c10.6279 50 -15.6572 91 -65.6572 91c-56 0 -98.9033 -56 -109.744 -107h-153c25.3955 143 151.999 207 280.999 207c121 0 225.885 -57 196.765 -194c-36.3477 -171 -301.192 -302 -422.786 -413h2h338
l-21.2559 -100h-490z" />
    <glyph glyph-name="three" unicode="3" 
d="M62.3857 190h152c-12.2031 -48 13.6816 -105 63.6816 -105c56 0 102.841 51 114.956 108c20.6182 97 -69.7686 114 -146.406 111l21.2559 100c72.8506 4 170.551 12 190.956 108c11.2656 53 -8.80664 95 -62.8066 95c-45 0 -95.416 -49 -103.193 -95h-153
c35.1201 137 150.448 195 276.448 195c97 0 221.885 -57 196.803 -175c-20.6182 -97 -90.1582 -156 -169.56 -172l-0.424805 -2c78.8984 -24 118.208 -79 95.252 -187c-23.1689 -109 -167.536 -186 -283.536 -186c-138 0 -223.521 54 -192.426 205z" />
    <glyph glyph-name="four" unicode="4" 
d="M353.689 262l52.0771 245h-2l-218.077 -245h168zM298 0l31.8838 150h-281l28.0576 132l366.148 410h147l-91.4004 -430h96l-23.8057 -112h-96l-31.8838 -150h-145z" />
    <glyph glyph-name="five" unicode="5" 
d="M67.5596 172h148c-6.20215 -48 21.5078 -87 69.5078 -87c76 0 118.705 88 131.671 149c12.1162 57 -4.43066 125 -69.4307 125c-46 0 -84.6514 -36 -105.792 -79l-144.149 4l102.724 408h423l-21.2559 -100h-291l-47.6855 -182c41.2266 34 90.415 49 138.415 49
c124 0 197.059 -75 162.624 -237c-27.207 -128 -161.376 -237 -304.376 -237c-121 0 -214.521 54 -192.252 187z" />
    <glyph glyph-name="six" unicode="6" 
d="M425.763 220c12.9658 61 4.41992 129 -66.5801 129c-65 0 -109.729 -74 -121.42 -129c-12.1162 -57 -4.69531 -135 65.3047 -135c69 0 110.154 76 122.695 135zM628.593 525h-148c5.16406 29 0.62793 50 -9.60938 63c-11.2363 13 -28.9609 19 -52.9609 19
c-90 0 -129.459 -148 -142.425 -209c43.0771 38 89.8408 51 140.841 51c129 0 194.082 -89 167.513 -214c-15.3047 -72 -50.8457 -131 -91.71 -168c-44.7148 -41 -133.43 -82 -218.43 -82c-163 0 -219.531 101 -176.808 302c41.6611 196 117.273 420 360.273 420
c113 0 198.034 -61 171.315 -182z" />
    <glyph glyph-name="seven" unicode="7" 
d="M184.09 692h446l-27.6328 -130l-332.457 -562h-147l343.283 580h-306z" />
    <glyph glyph-name="eight" unicode="8" 
d="M219.236 194c-13.1787 -62 13.8311 -109 79.8311 -109c55 0 106.777 46 120.169 109c13.3906 63 -14.832 109 -76.832 109c-54 0 -108.927 -42 -123.168 -109zM287.254 514c-11.9023 -56 24.6582 -91 88.6582 -91c50 0 99.4395 35 111.342 91
c11.9033 56 -22.2314 93 -86.2314 93c-50 0 -101.865 -37 -113.769 -93zM249.583 365l0.425781 2c-78.3242 22 -119.334 69 -100.416 158c24.2314 114 167.685 182 279.685 182c111 0 228.16 -51 200.315 -182c-17.0049 -80 -93.0342 -146 -170.372 -157l0.212891 1
l-0.424805 -2c82.748 -20 128.72 -86 109.59 -176c-27.208 -128 -170.787 -206 -292.787 -206c-125 0 -237.184 65 -207.213 206c19.3428 91 99.5205 153 180.984 174z" />
    <glyph glyph-name="nine" unicode="9" 
d="M68.1348 170h152c-3.35254 -44 10.9326 -85 55.9326 -85c109 0 139.183 142 150.975 221c-47.2266 -34 -86.1396 -43 -144.14 -43c-114 0 -186.169 98 -162.788 208c30.1836 142 158.163 236 297.163 236c192 0 221.518 -134 184.533 -308
c-39.5361 -186 -102.999 -414 -344.999 -414c-128 0 -215.285 41 -188.677 185zM277.24 481c-13.6035 -64 -0.0820312 -118 71.918 -118c65 0 101.479 54 115.082 118s1.78223 126 -63.2178 126c-72 0 -110.179 -62 -123.782 -126z" />
    <glyph glyph-name="colon" unicode=":" horiz-adv-x="278" 
d="M203 0h-127l28.2705 133h127zM281.646 370h-127l28.2695 133h127z" />
    <glyph glyph-name="semicolon" unicode=";" horiz-adv-x="278" 
d="M4.19336 -112l126.077 245h148l-171.077 -245h-103zM301.284 373h-127l28.2695 133h127z" />
    <glyph glyph-name="less" unicode="&#x3c;" horiz-adv-x="584" 
d="M78.6855 182l25.5068 120l527.686 182l-27.6328 -130l-337.594 -111l-0.424805 -2l290.406 -111l-27.6328 -130z" />
    <glyph glyph-name="equal" unicode="=" horiz-adv-x="584" 
d="M137.573 412h484l-25.5068 -120h-484zM86.5596 172h484l-25.5068 -120h-484z" />
    <glyph glyph-name="greater" unicode="&#x3e;" horiz-adv-x="584" 
d="M593.192 302l-25.5068 -120l-527.686 -182l27.6328 130l337.594 111l0.424805 2l-290.406 111l27.6328 130z" />
    <glyph glyph-name="question" unicode="?" horiz-adv-x="500" 
d="M289.435 162h-112l21.6807 102c6.96582 61 73.6182 97 108.632 130c30.165 29 94.7686 93 103.271 133c16.3672 77 -23.8311 109 -95.8311 109c-45 0 -92.3389 -11 -138.102 -24l22.1055 104c58.1885 15 116.252 20 173.252 20c107 0 226.734 -53 199.952 -179
c-21.2559 -100 -101.584 -158 -183.338 -218c-47.4395 -35 -66.415 -49 -80.2793 -86zM260 0h-127l28.2705 133h127z" />
    <glyph glyph-name="at" unicode="@" horiz-adv-x="975" 
d="M750.491 501h90l-148.192 -302c-12.2266 -34 -10.4785 -54 25.0342 -61c104.749 -20 190.82 145 208.463 228c39.748 187 -113.696 279 -282.397 271c-227.7 -8 -412.598 -191 -447.685 -389c-32.96 -188 85.1465 -291 269.445 -299c78.3623 -3 153.977 14 223.715 41
l10.083 -89c-82.0771 -38 -177.053 -52 -258.053 -52c-239 0 -412.054 155 -359.127 404c51.627 257 335.79 493 635.877 484c217.513 -7 358.566 -162 303.253 -394c-33.1201 -137 -173.617 -304 -324.279 -293c-55.1494 4 -82.9619 19 -100.759 67
c-79.6904 -55 -119.092 -71 -164.092 -71c-100 0 -152.608 63 -127.565 162c32.4199 129 162.704 295 308.617 304c48 0 102.749 -20 109.121 -70h2zM655.768 300c34.2793 86 -4.03027 141 -63.3057 135c-69 0 -151.356 -124 -170.173 -189
c-21.3037 -72 -6.83105 -98 35.0439 -108c84.749 -20 172.618 97 198.435 162z" />
    <glyph glyph-name="A" unicode="A" horiz-adv-x="722" 
d="M161 0h-148l414.466 722h184l97.5342 -722h-156l-19.4785 153h-286zM313.028 273h207l-33.5322 308h-2z" />
    <glyph glyph-name="B" unicode="B" horiz-adv-x="667" 
d="M248.507 120h121c73 0 125.764 13 143.405 96c17.6426 83 -29.5947 96 -102.595 96h-121zM314.824 432h121c65 0 106.739 27 119.067 85c12.3291 58 -17.9326 85 -82.9326 85h-121zM341 0h-273l153.466 722h271c130.701 8 251.223 -46 221.252 -187
c-16.792 -79 -83.4824 -134 -160.584 -158l-0.424805 -2c86.9609 -19 141.57 -82 119.039 -188c-30.3955 -143 -221.448 -195 -330.748 -187z" />
    <glyph glyph-name="C" unicode="C" horiz-adv-x="667" 
d="M743.728 488h-165c17.1543 76 -15.8799 137 -108.88 137c-110 0 -172.646 -163 -194.114 -264c-21.4688 -101 -28.1152 -264 81.8848 -264c93 0 151.966 61 167.12 137h165c-45.4727 -181 -189.927 -249 -355.927 -249c-209 0 -267.928 165 -223.078 376
s173.921 376 382.921 376c166 0 281.546 -68 250.073 -249z" />
    <glyph glyph-name="D" unicode="D" horiz-adv-x="722" 
d="M347.959 602l-102.452 -482h80c183.575 -2 237.782 126 262.227 241c24.4434 115 24.6514 243 -159.774 241h-80zM65 0l153.466 722h246c225.426 2 341.619 -110 288.268 -361c-53.3525 -251 -217.158 -363 -441.733 -361h-246z" />
    <glyph glyph-name="E" unicode="E" horiz-adv-x="611" 
d="M58 0l153.466 722h484l-25.5068 -120h-329l-35.9219 -169h308l-25.5068 -120h-308l-41.0234 -193h340l-25.5068 -120h-495z" />
    <glyph glyph-name="F" unicode="F" 
d="M224 0h-155l153.466 722h466l-25.5068 -120h-311l-36.9844 -174h290l-25.5068 -120h-290z" />
    <glyph glyph-name="G" unicode="G" horiz-adv-x="778" 
d="M606.328 265h-141.001l25.5068 120h296l-76.7324 -361c-56.6133 -17 -111.739 -27 -168.802 -32c-35.6377 -3 -72.4883 -7 -167.488 -7c-143 0 -320.082 89 -259.078 376s275.921 376 418.921 376c209 0 324.609 -63 289.049 -235h-165
c19.5557 92 -33.8555 123 -118.855 123c-137 0 -224.468 -101 -259.114 -264c-34.6475 -163 9.88477 -264 146.885 -264c62 0 104.7 8 147.4 16z" />
    <glyph glyph-name="H" unicode="H" horiz-adv-x="722" 
d="M224 0h-155l153.466 722h155l-60.5781 -285h273l60.5781 285h157l-153.466 -722h-155l67.3809 317h-275z" />
    <glyph glyph-name="I" unicode="I" horiz-adv-x="278" 
d="M370.466 722l-153.466 -722h-155l153.466 722h155z" />
    <glyph glyph-name="J" unicode="J" 
d="M491.466 722h155l-102.452 -482c-38.835 -178 -164.202 -255 -296.202 -255c-181 0 -208.319 102 -189.711 246h155c-10.0527 -52 -17.4824 -134 58.5176 -134c83 0 102.98 94 118.033 146z" />
    <glyph glyph-name="K" unicode="K" horiz-adv-x="667" 
d="M375.466 722l-66.3174 -312h2l306.317 312h181l-333.655 -323l203.189 -399h-193l-172.779 368h-2l-78.2207 -368h-155l153.466 722h155z" />
    <glyph glyph-name="L" unicode="L" 
d="M537 0h-468l153.466 722h155l-127.959 -602h313z" />
    <glyph glyph-name="M" unicode="M" horiz-adv-x="944" 
d="M860.785 620l-333.785 -620h-129l-59.2148 620l-2.4248 -2l-131.36 -618h-145l153.466 722h254l39.4082 -525h2l275.592 525h245l-153.466 -722h-145l131.36 618z" />
    <glyph glyph-name="N" unicode="N" horiz-adv-x="778" 
d="M718 0h-220l-157.466 600l-2.4248 -2l-127.109 -598h-145l153.466 722h230l154.268 -568l2.42578 2l120.307 566h145z" />
    <glyph glyph-name="O" unicode="O" horiz-adv-x="778" 
d="M385.812 -15c-239 0 -312.354 163 -267.078 376c45.2744 213 187.921 376 426.921 376s312.354 -163 267.079 -376c-45.2754 -213 -187.922 -376 -426.922 -376zM521.848 625c-153 0 -211.758 -140 -238.114 -264c-26.3574 -124 -27.1152 -264 125.885 -264
s211.758 140 238.115 264c26.3564 124 27.1143 264 -125.886 264z" />
    <glyph glyph-name="P" unicode="P" horiz-adv-x="611" 
d="M220 0h-155l153.466 722h223c159.788 -1 286.711 -39 247.812 -222c-27.8447 -131 -135.125 -217 -297.188 -222h-113zM347.959 602l-43.3613 -204c86.8506 4 192.474 -26 219.681 102s-91.1689 98 -176.319 102z" />
    <glyph glyph-name="Q" unicode="Q" horiz-adv-x="778" 
d="M409.618 97c153 0 211.758 140 238.115 264c26.3564 124 27.1143 264 -125.886 264s-211.758 -140 -238.114 -264c-26.3574 -124 -27.1152 -264 125.885 -264zM793.807 112l-23.8066 -112h-304c-12.8506 -4 -26.7002 -8 -40.126 -10c-13.6377 -3 -27.0625 -5 -40.0625 -5
c-239 0 -312.354 163 -267.078 376c45.2744 213 187.921 376 426.921 376s312.354 -163 267.079 -376c-15.792 -79 -97 -207 -162.202 -255l1.57422 -2c16.0635 5 53.4883 7 90.7012 8h51z" />
    <glyph glyph-name="R" unicode="R" horiz-adv-x="667" 
d="M342.959 602l-40.5977 -191h130c68.2119 1 115.439 35 129.043 99s-20.6572 91 -88.4453 92h-130zM276.854 291l-61.8545 -291h-155l153.466 722h307c123.788 -1 242.285 -41 211.04 -188c-19.9805 -94 -94.1592 -156 -187.198 -175l-0.424805 -2
c116.236 -13 100.72 -86 92.4648 -186c-2.77832 -46 -14.8457 -131 5.65234 -171h-171c0.603516 64 7.41992 129 14.2363 194c4.50195 40 6.19238 95 -44.3818 97h-164z" />
    <glyph glyph-name="S" unicode="S" horiz-adv-x="667" 
d="M712.68 516h-149c9.5166 73 -21.832 109 -96.832 109c-57 0 -121.376 -30 -134.768 -93c-16.5791 -78 51.5078 -87 110.319 -102c104.049 -28 259.459 -59 228.639 -204c-38.0479 -179 -207.227 -241 -362.227 -241c-165 0 -268.396 64 -224.711 246h158
c-23.0049 -80 11.5176 -134 92.5176 -134c62 0 148.038 19 164.405 96c18.0674 85 -83.6572 91 -142.256 107c-95.6865 25 -223.909 71 -196.701 199c35.0713 165 202.588 238 350.588 238c140 0 232.846 -76 202.025 -221z" />
    <glyph glyph-name="T" unicode="T" horiz-adv-x="611" 
d="M140.959 602l25.5068 120h585l-25.5068 -120h-215l-127.959 -602h-155l127.959 602h-215z" />
    <glyph glyph-name="U" unicode="U" horiz-adv-x="778" 
d="M700.466 722h155l-96.0752 -452c-40.8115 -192 -198.579 -285 -373.579 -285s-293.232 93 -252.421 285l96.0752 452h155l-83.3223 -392c-25.9316 -122 -43.5254 -233 108.475 -233s181.594 111 207.525 233z" />
    <glyph glyph-name="V" unicode="V" horiz-adv-x="722" 
d="M277 0l-112.534 722h169l67.0557 -569h2l309.944 569h153l-419.466 -722h-169z" />
    <glyph glyph-name="W" unicode="W" horiz-adv-x="1000" 
d="M321.048 179l255.418 543h175l10.582 -543h2l231.418 543h148l-337.466 -722h-172l-13.0938 550h-2l-256.906 -550h-176l-22.5342 722h160l-4.41797 -543h2z" />
    <glyph glyph-name="X" unicode="X" horiz-adv-x="722" 
d="M412.815 272l-230.815 -272h-166l333.496 374l-163.03 348h191l93.9238 -245l208.076 245h166l-311.757 -347l172.291 -375h-190z" />
    <glyph glyph-name="Y" unicode="Y" horiz-adv-x="667" 
d="M256 0l50.1631 236l-139.697 486h181l78.6436 -331l222.356 331h159l-346.303 -486l-50.1631 -236h-155z" />
    <glyph glyph-name="Z" unicode="Z" horiz-adv-x="611" 
d="M29 0l25.5068 120l460.452 482h-335l25.5068 120h523l-25.5068 -120l-459.452 -482h365l-25.5068 -120h-554z" />
    <glyph glyph-name="bracketleft" unicode="[" horiz-adv-x="333" 
d="M211.466 722h214l-19.1299 -90h-94l-135.611 -638h94l-19.1299 -90h-214z" />
    <glyph glyph-name="backslash" unicode="\" horiz-adv-x="278" 
d="M123.466 722h112l72.5342 -722h-112z" />
    <glyph glyph-name="bracketright" unicode="]" horiz-adv-x="333" 
d="M254.595 -96h-214l19.1299 90h94l135.611 638h-94l19.1299 90h214z" />
    <glyph glyph-name="asciicircum" unicode="^" horiz-adv-x="584" 
d="M118.753 267l257.337 425h124l79.6631 -425h-113l-54.4453 299l-180.555 -299h-113z" />
    <glyph glyph-name="underscore" unicode="_" horiz-adv-x="500" 
d="M473.431 -125h-500l10.6279 50h500z" />
    <glyph glyph-name="quoteleft" unicode="&#x2018;" horiz-adv-x="278" 
d="M396.466 722l-126.076 -245h-148l171.076 245h103z" />
    <glyph glyph-name="a" unicode="a" 
d="M394.163 236c-51.7871 1 -158.574 2 -175.792 -79c-8.92676 -42 15.6963 -72 57.6963 -72c83 0 105.556 92 118.096 151zM284.521 360h-144c14.3916 63 49.6807 102 94.5693 125c46.1016 24 100.802 32 154.802 32c101 0 206.136 -37 174.04 -188l-58.2412 -274
c-4.31348 -25 -3.50195 -40 -4.69043 -55h-135c1.88867 23 4.77734 46 9.24121 67h-2c-46.3281 -58 -103.43 -82 -171.43 -82c-94 0 -152.521 54 -131.691 152c7.43945 35 41.5068 120 140.797 159c65.5264 26 142.164 29 201.739 27l9.99023 47
c4.46289 21 -2.82227 62 -55.8223 62c-52 0 -79.415 -49 -82.3037 -72z" />
    <glyph glyph-name="b" unicode="b" horiz-adv-x="611" 
d="M253.352 251c-14.666 -69 -8.28418 -166 72.7158 -166c96 0 126.918 89 143.284 166c16.3672 77 23.2852 166 -72.7148 166c-81 0 -128.618 -97 -143.285 -166zM71.2559 100l132.21 622h150l-59.0908 -278h2c36.9277 42 97.5166 73 149.517 73
c156 0 207.155 -131 178.46 -266c-27.4199 -129 -125.54 -266 -272.54 -266c-65 0 -115.261 27 -135.72 86h-2c-5.10156 -24 -11.9902 -47 -19.0918 -71h-150c9.01465 33 19.2412 67 26.2559 100z" />
    <glyph glyph-name="c" unicode="c" horiz-adv-x="500" 
d="M548.294 326h-148c7.71484 41 1.34277 91 -56.6572 91c-64 0 -90.5068 -120 -100.797 -159c-5.77734 -46 -31.7725 -173 32.2275 -173c58 0 87.1162 57 96.8301 98h146.001c-32.208 -128 -126.087 -198 -264.087 -198c-149 0 -195.729 133 -167.46 266
c28.2705 133 131.54 266 280.54 266c128 0 207.483 -73 181.402 -191z" />
    <glyph glyph-name="d" unicode="d" horiz-adv-x="611" 
d="M248.352 251c-16.3662 -77 -23.2842 -166 72.7158 -166c81 0 128.618 97 143.284 166c14.667 69 8.28516 166 -72.7148 166c-96 0 -126.918 -89 -143.285 -166zM505.375 444l59.0908 278h150l-132.21 -622c-7.01465 -33 -11.2412 -67 -16.2559 -100h-150
c3.10156 24 5.99023 47 11.0918 71h-2c-45.541 -59 -107.28 -86 -172.28 -86c-147 0 -186.88 137 -159.46 266c28.6953 135 135.54 266 291.54 266c52 0 99.4111 -31 118.483 -73h2z" />
    <glyph glyph-name="e" unicode="e" 
d="M570.85 211h-329c-13.8164 -65 -17.7822 -126 59.2178 -126c52 0 82.0381 19 105.816 65h135c-39.3574 -124 -145.072 -165 -262.072 -165c-172 0 -220.382 97 -184.672 265c32.0957 151 144.752 267 297.752 267c94 0 165.198 -32 188.493 -120
c8.04883 -28 8.67188 -58 5.87012 -90c-2.58887 -31 -9.39062 -63 -16.4053 -96zM263.105 311h174c11.6904 55 7.53125 106 -65.4688 106c-69 0 -94.8408 -51 -108.531 -106z" />
    <glyph glyph-name="f" unicode="f" horiz-adv-x="333" 
d="M484.167 730l-19.7686 -93c-103.449 12 -115.651 -36 -132.695 -135h91l-21.2549 -100h-91l-85.4482 -402h-150l85.4482 402h-75l21.2549 100h75c26.3965 143 58.9512 235 221.951 235c27 0 54.3623 -3 80.5127 -7z" />
    <glyph glyph-name="g" unicode="g" horiz-adv-x="611" 
d="M260.053 259c-13.8164 -65 -16.6719 -149 65.3281 -149s114.855 84 128.672 149c15.7285 74 18.584 158 -63.416 158s-114.855 -84 -130.584 -158zM655.703 502l-97.1377 -457c-24.8691 -117 -78.0771 -245 -297.651 -243c-111 0 -224.262 27 -198.566 162h142
c-7.56445 -45 28.8213 -62 69.8213 -62c114 0 132.106 104 141.623 177h-2c-41.415 -49 -98.666 -69 -155.666 -69c-136 0 -178.793 128 -152.861 250c27.207 128 127.627 257 267.627 257c67 0 105.324 -22 118.483 -73h2l12.3281 58h150z" />
    <glyph glyph-name="h" unicode="h" horiz-adv-x="611" 
d="M216 0h-150l153.466 722h149l-59.3027 -279l1.57422 -2c40.7783 46 94.1543 76 170.154 76c50 0 139.136 -37 141.619 -110c1.41113 -31 -3.3916 -63 -7.00488 -80l-69.5059 -327h-150l64.1924 302c10.4775 54 8.44434 115 -65.5557 115
c-47 0 -96.9277 -42 -114.444 -115z" />
    <glyph glyph-name="i" unicode="i" horiz-adv-x="278" 
d="M170.703 502h150l-106.703 -502h-150zM212.466 722h160l-27.4199 -129h-160z" />
    <glyph glyph-name="j" unicode="j" horiz-adv-x="278" 
d="M321.703 502l-110.742 -521c-26.5068 -120 -75.6221 -177 -202.622 -177c-17 0 -34 0 -50.1494 4l20.1924 95c37.5752 -2 68.6768 22 79.3916 63l113.93 536h150zM213.466 722h160l-27.4199 -129h-160z" />
    <glyph glyph-name="k" unicode="k" 
d="M370.466 722l-89.9111 -423l1.5752 -2l192.849 211h167l-219.762 -220l122.783 -288h-175l-92.5469 275l-2.4248 -2l-58.0283 -273h-150l153.466 722h150z" />
    <glyph glyph-name="l" unicode="l" horiz-adv-x="278" 
d="M217.466 722h150l-153.466 -722h-150z" />
    <glyph glyph-name="m" unicode="m" horiz-adv-x="944" 
d="M322.703 502l-12.54 -59h2c40.3525 44 93.7285 74 169.729 74c56 0 130.498 -40 139.808 -95c60.8164 65 114.192 95 190.192 95c56 0 130.498 -40 139.808 -95c7.92285 -38 -2.00488 -80 -10.5068 -120l-64.1924 -302h-150l64.1924 302
c10.4775 54 8.44434 115 -65.5557 115c-47 0 -96.9277 -42 -114.444 -115l-64.1924 -302h-150l64.1924 302c10.4775 54 8.44434 115 -65.5557 115c-47 0 -96.9277 -42 -114.444 -115l-64.1924 -302h-150l106.703 502h149z" />
    <glyph glyph-name="n" unicode="n" horiz-adv-x="611" 
d="M321.703 502l-12.3281 -58l1.3623 -3c40.7783 46 94.1543 76 170.154 76c50 0 139.136 -37 141.619 -110c1.41113 -31 -3.3916 -63 -7.00488 -80l-69.5059 -327h-150l64.1924 302c10.4775 54 8.44434 115 -65.5557 115c-47 0 -96.9277 -42 -114.444 -115l-64.1924 -302
h-150l106.703 502h149z" />
    <glyph glyph-name="o" unicode="o" horiz-adv-x="611" 
d="M621.352 251c-33.584 -158 -154.54 -266 -318.54 -266s-239.044 108 -205.46 266s154.54 266 318.54 266s239.044 -108 205.46 -266zM252.352 251c-17.0039 -80 -20.2842 -166 71.7158 -166s125.28 86 142.284 166c17.0049 80 20.2852 166 -71.7148 166
s-125.28 -86 -142.285 -166z" />
    <glyph glyph-name="p" unicode="p" horiz-adv-x="611" 
d="M303.703 502l-9.32812 -58h2c36.9277 42 97.5166 73 149.517 73c156 0 207.155 -131 178.46 -266c-27.4199 -129 -125.54 -266 -272.54 -266c-65 0 -115.261 27 -134.72 86h-2l-55.9023 -263h-150l126.259 594c7.01367 33 11.2412 67 16.2549 100h152zM253.352 251
c-14.666 -69 -8.28418 -166 72.7158 -166c96 0 126.918 89 143.284 166c16.3672 77 23.2852 166 -72.7148 166c-81 0 -128.618 -97 -143.285 -166z" />
    <glyph glyph-name="q" unicode="q" horiz-adv-x="611" 
d="M464.352 251c14.667 69 8.28516 166 -72.7148 166c-96 0 -126.918 -89 -143.285 -166c-16.3662 -77 -23.2842 -166 72.7158 -166c81 0 128.618 97 143.284 166zM646.235 401l-126.259 -594h-150l56.1152 264h-2c-44.541 -59 -106.28 -86 -171.28 -86
c-147 0 -186.88 137 -159.46 266c28.6953 135 135.54 266 291.54 266c52 0 99.4111 -31 118.483 -73l1.78809 -1l15.54 59h152c-9.22656 -34 -19.4531 -68 -26.4678 -101z" />
    <glyph glyph-name="r" unicode="r" horiz-adv-x="389" 
d="M159.703 502h137l-16.3418 -91h2c48.792 79 117.043 99 191.617 97l-28.2695 -133h-65c-25.4248 -2 -61.4014 -16 -80.8643 -37c-21.9521 -28 -30.9033 -56 -38.918 -89l-52.9268 -249h-149l84.4482 402c4.46387 21 10.3906 63 16.2549 100z" />
    <glyph glyph-name="s" unicode="s" horiz-adv-x="500" 
d="M531.221 368h-135c5.22754 34 -23.584 49 -57.584 49c-41 0 -62.5508 -12 -69.5654 -45c-16.792 -79 279.772 -34 239.812 -222c-23.3818 -110 -169.072 -165 -262.072 -165c-117 0 -209.223 46 -186.778 161h139c-5.29004 -39 25.0342 -61 69.0342 -61
c41 0 75.6133 17 83.9033 56c8.50195 40 -59.8848 57 -88.3965 64c-91.1113 23 -175.647 44 -150.778 161c22.3184 105 159.096 151 247.096 151c106 0 187.923 -38 171.329 -149z" />
    <glyph glyph-name="t" unicode="t" horiz-adv-x="389" 
d="M107.703 502h101l21.0439 99l161.478 54l-32.5215 -153h113l-21.2549 -100h-113l-49.5264 -233c-14.0283 -66 -7.85449 -84 44.1455 -84c16 0 32.4248 2 48.6377 3l-18.7051 -88c-18.7002 -8 -100.188 -15 -121.188 -15c-117 0 -129.034 61 -105.865 170l52.502 247h-101
z" />
    <glyph glyph-name="u" unicode="u" horiz-adv-x="611" 
d="M398 0l7.17871 62c-41.7773 -46 -95.3672 -77 -171.367 -77c-50 0 -138.923 38 -141.406 111c-1.41016 31 3.3916 63 7.00488 80l69.293 326h150l-63.9795 -301c-10.4775 -54 -8.65625 -116 65.3438 -116c47 0 97.1396 43 114.656 116l63.9795 301h150l-87.5732 -412
c-5.37598 -30 -9.75293 -60 -13.1299 -90h-150z" />
    <glyph glyph-name="v" unicode="v" 
d="M198 0l-78.2969 502h159l39.7314 -340h2l187.269 340h143l-288.703 -502h-164z" />
    <glyph glyph-name="w" unicode="w" horiz-adv-x="889" 
d="M635.703 502l24.6543 -378h2l178.346 378h147l-279.703 -502h-161l-23.5039 374h-2l-184.496 -374h-163l-58.2969 502h157l11.6543 -378h2l186.346 378h163z" />
    <glyph glyph-name="x" unicode="x" 
d="M430.053 259l113.947 -259h-175l-62.6768 185l-142.323 -185h-155l226.603 271l-112.899 231h175l60.5664 -162l133.434 162h154z" />
    <glyph glyph-name="y" unicode="y" 
d="M318.946 155l185.757 347h147l-399.302 -693h-149l104.386 190l-87.084 503h160l36.2432 -347h2z" />
    <glyph glyph-name="z" unicode="z" horiz-adv-x="500" 
d="M466 0h-431l21.2559 100l340.192 302h-269l21.2549 100h414l-21.2549 -100l-340.192 -302h286z" />
    <glyph glyph-name="braceleft" unicode="{" horiz-adv-x="333" 
d="M112.878 277l17.0049 80c18 0 71.5752 -2 81.1396 43l42.9365 202c17.6426 83 93.5068 120 124.507 120h75l-19.1299 -90h-19c-43 0 -44.6758 -22 -52.5654 -45l-39.3223 -185c-15.2412 -67 -71.4297 -82 -98.8555 -84l-0.424805 -2c26.3623 -3 78.0869 -9 61.4443 -92
l-39.3223 -185c-4.88867 -23 -6.56543 -45 33.4346 -45h19l-19.1299 -90h-75c-31 0 -91.1357 37 -73.4932 120l42.9365 202c11.4775 54 -43.1602 51 -61.1602 51z" />
    <glyph glyph-name="bar" unicode="|" horiz-adv-x="278" 
d="M358.418 750l-212.558 -1000h-120l212.558 1000h120z" />
    <glyph glyph-name="braceright" unicode="}" horiz-adv-x="333" 
d="M353.183 349l-17.0049 -80c-18 0 -71.5752 2 -81.1396 -43l-42.9365 -202c-17.6426 -83 -93.5068 -120 -124.507 -120h-75l19.1299 90h19c43 0 44.6768 22 52.5654 45l39.3223 185c15.2422 67 71.4297 82 98.8555 84l0.424805 2c-26.3623 3 -78.0869 9 -61.4443 92
l39.3223 185c4.88965 23 6.56543 45 -33.4346 45h-19l19.1299 90h75c31 0 91.1357 -37 73.4932 -120l-42.9365 -202c-11.4775 -54 43.1602 -51 61.1602 -51z" />
    <glyph glyph-name="asciitilde" unicode="~" horiz-adv-x="584" 
d="M186.811 192h-83c22.5557 92 90.0723 165 157.71 168c49.6377 3 101.734 -53 155.57 -82c64.9229 -38 87.6133 17 90.7773 46h83c-22.7676 -93 -90.2842 -166 -157.922 -169c-49.6377 -3 -101.734 53 -155.57 82c-64.9229 38 -87.4014 -16 -90.5654 -45z" />
    <glyph glyph-name="exclamdown" unicode="&#xa1;" horiz-adv-x="389" 
d="M86.1895 -192l124.805 526h103l-93.8047 -526h-134zM342.96 395h-127l28.2705 133h127z" />
    <glyph glyph-name="cent" unicode="&#xa2;" 
d="M250.024 -14l-61.2705 -133h-68l66.8213 145c-91.5605 35 -118.393 144 -95.2236 253c28.2705 133 131.54 266 280.54 266c19 0 36.5752 -2 52.9375 -5l57.5693 125h70l-67.8203 -145c57.4102 -31 86.082 -89 68.7158 -166h-148c7.71484 41 1.34277 91 -56.6572 91
c-64 0 -90.5068 -120 -100.797 -159c-5.77734 -46 -31.7725 -173 32.2275 -173c58 0 87.1162 57 96.8301 98h146.001c-32.208 -128 -126.087 -198 -264.087 -198c-4 0 -7 0 -9.78711 1z" />
    <glyph glyph-name="sterling" unicode="&#xa3;" 
d="M521 0h-491l21.2559 100h77l43.7861 206h-88l21.2559 100h89l24.8691 117c28.1445 123 156.11 184 265.11 184c46 0 111.387 -17 139.585 -49c38.0732 -42 31.3584 -83 26.8174 -142h-150c8.13965 43 0.342773 91 -48.6572 91c-92 0 -91.6953 -135 -108.725 -201h169
l-21.2559 -100h-169l-43.7861 -206h264z" />
    <glyph glyph-name="fraction" unicode="&#x2044;" horiz-adv-x="167" 
d="M-67 0h-84l537.277 707h83z" />
    <glyph glyph-name="yen" unicode="&#xa5;" 
d="M346 0h-155l28.9082 136h-173l21.2549 100h173l6.16406 29l-9.13477 37h-155l20.2559 100h125l-66.3584 290h160l38.0195 -301h2l168.98 301h157l-188.642 -290h104l-21.2559 -100h-155l-24.8652 -37l-6.16406 -29h172l-21.2549 -100h-172z" />
    <glyph glyph-name="florin" unicode="&#x192;" 
d="M447.863 451h72l-36.2559 -100h-76l-182.95 -442c-29.1543 -76 -120.169 -109 -188.531 -106c-22.7871 1 -41.9365 5 -54.9365 5l44.8057 112c27.3623 -3 61.7881 -1 75.4395 35l163.173 396h-65l40.2559 100h65c31.0918 71 92.502 247 194.777 253
c16.2119 1 31.6367 3 47.6367 3c26 0 51.3633 -3 76.5127 -7l-44.3184 -105c-95.4492 12 -95.8164 -65 -131.608 -144z" />
    <glyph glyph-name="section" unicode="&#xa7;" 
d="M362.525 440c-26 0 -67.5654 -45 -75.2178 -81c-7.01367 -33 25.2471 -60 51.7588 -67c32.4883 7 74.1406 43 81.3672 77c9.99023 47 -26.9082 71 -57.9082 71zM594.49 708l-23.5938 -111c-45.5361 21 -88.498 40 -138.498 40c-27 0 -57.125 -10 -64.3525 -44
c-19.5547 -92 225.436 -45 191.214 -206c-12.7539 -60 -56.5312 -106 -116.633 -130c45.2607 -27 79.3965 -64 66.6436 -124c-20.6182 -97 -134.459 -148 -248.459 -148c-55 0 -107.599 16 -157.836 29l23.8066 112c45.8984 -24 84.2852 -41 138.285 -41
c38 0 80.4883 7 89.415 49c8.29004 39 -37.585 49 -64.6719 58c-75.2607 27 -161.097 56 -139.628 157c12.7529 60 65.1055 104 123.994 127c-47.8984 24 -72.1836 65 -60.2803 121c19.3428 91 144.758 140 220.758 140c57 0 110.513 -7 159.836 -29z" />
    <glyph glyph-name="currency" unicode="&#xa4;" 
d="M499.714 248l60.6338 -77l-77.8164 -65l-60.8457 76c-25.4014 -16 -66.377 -30 -108.802 -32c-44.4258 -2 -80.5996 16 -100.773 34l-96.792 -79l-49.7588 67l94.1543 76c-9.32324 22 -23.6719 58 -11.3428 116c12.2021 48 34.5166 73 52.7676 93l-61.8457 76l83.666 69
l61.4209 -78c27.8262 18 71.6523 36 115.227 34c41.5752 -2 76.5996 -16 95.1982 -32l95.5801 78l53.5459 -68l-96.792 -79c9.74902 -20 21.4346 -45 13.2324 -93c-12.3291 -58 -41.9805 -94 -60.6572 -116zM458.245 354c9.65234 36 -5.89355 104 -83.8936 104
s-122.454 -68 -128.106 -104c-9.65234 -36 5.89453 -104 83.8945 -104s122.453 68 128.105 104z" />
    <glyph glyph-name="quotesingle" unicode="'" horiz-adv-x="238" 
d="M202.466 722h140l-55.2646 -260h-140z" />
    <glyph glyph-name="quotedblleft" unicode="&#x201c;" 
d="M634.466 722l-126.076 -245h-148l171.076 245h103zM437.466 722l-126.076 -245h-148l171.076 245h103z" />
    <glyph glyph-name="guillemotleft" unicode="&#xab;" 
d="M155.154 76l-69.9766 193l152.023 193h132l-144.023 -193l61.9766 -193h-132zM398.154 76l-69.9766 193l152.023 193h132l-144.023 -193l61.9766 -193h-132z" />
    <glyph glyph-name="guilsinglleft" unicode="&#x2039;" horiz-adv-x="278" 
d="M145.154 76l-69.9766 193l152.023 193h132l-144.023 -193l61.9766 -193h-132z" />
    <glyph glyph-name="guilsinglright" unicode="&#x203a;" horiz-adv-x="278" 
d="M247.201 462l69.9766 -193l-152.023 -193h-132l144.023 193l-61.9766 193h132z" />
    <glyph glyph-name="fi" unicode="&#xfb01;" horiz-adv-x="611" 
d="M504.703 502h150l-105.641 -497h-150zM546.466 722h160l-27.4199 -129h-160zM225 0h-150l85.4482 402h-75l21.2549 100h75c26.3965 143 58.9512 235 221.951 235c27 0 54.3623 -3 80.5127 -7l-19.7686 -93c-103.449 12 -115.651 -36 -132.695 -135h91l-21.2549 -100h-91z
" />
    <glyph glyph-name="fl" unicode="&#xfb02;" horiz-adv-x="611" 
d="M550.466 722h150l-153.466 -722h-150zM225 0h-150l85.4482 402h-75l21.2549 100h75c26.3965 143 58.9512 235 221.951 235c27 0 54.3623 -3 80.5127 -7l-19.7686 -93c-103.449 12 -115.651 -36 -132.695 -135h91l-21.2549 -100h-91z" />
    <glyph glyph-name="endash" unicode="&#x2013;" horiz-adv-x="500" 
d="M545.274 213h-500l23.8066 112h500z" />
    <glyph glyph-name="dagger" unicode="&#x2020;" 
d="M220 0l98.8389 465h-162l21.2559 100h162l33.3711 157h120l-33.3711 -157h158l-21.2559 -100h-158l-98.8389 -465h-120z" />
    <glyph glyph-name="daggerdbl" unicode="&#x2021;" 
d="M492.466 722l-31.2451 -147h160l-21.2559 -100h-160l-47.1875 -222h160l-21.2559 -100h-160l-32.5215 -153h-120l32.5215 153h-159l21.2559 100h159l47.1875 222h-162l21.2559 100h162l31.2451 147h120z" />
    <glyph glyph-name="periodcentered" unicode="&#xb7;" horiz-adv-x="278" 
d="M240.41 176h-127l28.2695 133h127z" />
    <glyph glyph-name="paragraph" unicode="&#xb6;" 
d="M682.466 722l-14.666 -69h-56l-181.736 -855h-90l181.523 854h-65l-181.523 -854h-90l97.7764 460c-141.787 1 -185.88 137 -157.687 232c12.1924 95 114.101 231 254.312 232h303z" />
    <glyph glyph-name="bullet" unicode="&#x2022;" horiz-adv-x="350" 
d="M363.768 300c-14.667 -69 -82.5703 -125 -151.57 -125s-113.31 55 -98.4297 125c13.666 69 81.5693 125 151.569 125c69 0 113.097 -56 98.4307 -125z" />
    <glyph glyph-name="quotesinglbase" unicode="&#x201a;" horiz-adv-x="278" 
d="M4.19336 -112l126.077 245h148l-171.077 -245h-103z" />
    <glyph glyph-name="quotedblbase" unicode="&#x201e;" 
d="M242.193 -112l126.077 245h148l-171.077 -245h-103zM45.1934 -112l126.077 245h148l-171.077 -245h-103z" />
    <glyph glyph-name="quotedblright" unicode="&#x201d;" 
d="M373.39 477l126.076 245h148l-171.076 -245h-103zM176.39 477l126.076 245h148l-171.076 -245h-103z" />
    <glyph glyph-name="guillemotright" unicode="&#xbb;" 
d="M272.201 462l69.9766 -193l-152.023 -193h-132l144.023 193l-61.9766 193h132zM515.201 462l69.9766 -193l-152.023 -193h-132l144.023 193l-61.9766 193h132z" />
    <glyph glyph-name="ellipsis" unicode="&#x2026;" horiz-adv-x="1000" 
d="M231 0h-127l28.2705 133h127zM564 0h-127l28.2705 133h127zM897 0h-127l28.2705 133h127z" />
    <glyph glyph-name="perthousand" unicode="&#x2030;" horiz-adv-x="1000" 
d="M521.754 60c47 0 61.8545 84 64.4053 96s23.4053 96 -23.5947 96s-61.8545 -84 -64.4053 -96s-23.4053 -96 23.5947 -96zM740.159 156c20.1924 95 69.3467 171 176.347 171s123.846 -76 103.653 -171c-20.1934 -95 -69.3477 -171 -176.348 -171s-123.846 76 -103.652 171
zM859.754 60c47 0 61.8545 84 64.4053 96s23.4053 96 -23.5947 96s-61.8545 -84 -64.4053 -96s-23.4053 -96 23.5947 -96zM121.931 536c20.1924 95 69.3467 171 176.347 171s123.846 -76 103.653 -171c-20.1934 -95 -69.3477 -171 -176.348 -171s-123.846 76 -103.652 171z
M67.8115 -15l584.718 742h83l-582.718 -742h-85zM241.525 440c47 0 61.8545 84 64.4053 96s23.4053 96 -23.5947 96s-61.8545 -84 -64.4053 -96s-23.4053 -96 23.5947 -96zM402.159 156c20.1924 95 69.3467 171 176.347 171s123.846 -76 103.653 -171
c-20.1934 -95 -69.3477 -171 -176.348 -171s-123.846 76 -103.652 171z" />
    <glyph glyph-name="questiondown" unicode="&#xbf;" horiz-adv-x="500" 
d="M326.197 382h112l-21.6816 -102c-6.96582 -61 -73.6182 -97 -108.632 -130c-30.1641 -29 -94.7676 -93 -103.271 -133c-16.3672 -77 23.8311 -109 95.8311 -109c45 0 92.3389 11 138.102 24l-22.1055 -104c-58.1885 -15 -116.251 -20 -173.251 -20
c-107 0 -226.735 53 -199.953 179c21.2559 100 101.584 158 183.338 218c47.4395 35 66.415 49 80.2803 86zM451.486 421h-127l28.2705 133h127z" />
    <glyph glyph-name="grave" unicode="`" horiz-adv-x="278" 
d="M135.466 722h134l52.3926 -144h-80z" />
    <glyph glyph-name="acute" unicode="&#xb4;" horiz-adv-x="278" 
d="M315.466 722h134l-167.607 -144h-80z" />
    <glyph glyph-name="circumflex" unicode="&#x2c6;" horiz-adv-x="278" 
d="M328.858 578l-49.9326 85l-88.0674 -85h-89l139.607 144h103l73.3926 -144h-89z" />
    <glyph glyph-name="tilde" unicode="&#x2dc;" horiz-adv-x="278" 
d="M148.046 593h-51c22.9668 61 73.9326 122 142.933 122c27 0 49.0869 -9 69.9609 -19c22.0869 -9 41.9619 -19 65.9619 -19c27 0 41.8887 23 53.5645 45h51c-18.6035 -64 -68.5068 -120 -138.507 -120c-24 0 -46.0869 9 -68.1738 18c-21.0869 9 -41.1738 18 -62.1738 18
c-29 0 -48.4639 -21 -63.5654 -45z" />
    <glyph glyph-name="macron" unicode="&#xaf;" horiz-adv-x="278" 
d="M463.466 722l-14.8789 -70h-341l14.8789 70h341z" />
    <glyph glyph-name="breve" unicode="&#x2d8;" horiz-adv-x="278" 
d="M140.466 722h69c-5.20215 -48 23.8457 -76 63.8457 -76c44 0 80.7393 27 102.154 76h69c-27.3428 -91 -94.8203 -145 -187.82 -145c-86 0 -137.097 56 -116.18 145z" />
    <glyph glyph-name="dotaccent" unicode="&#x2d9;" horiz-adv-x="278" 
d="M318.172 603h-102l25.2939 119h102z" />
    <glyph glyph-name="dieresis" unicode="&#xa8;" horiz-adv-x="278" 
d="M404.172 603h-102l25.2939 119h102zM232.172 603h-102l25.2939 119h102z" />
    <glyph glyph-name="ring" unicode="&#x2da;" horiz-adv-x="278" 
d="M181.688 676c11.6904 55 67.6807 102 123.681 102c55 0 90.0098 -47 78.3193 -102s-65.6807 -102 -121.681 -102s-92.2227 46 -80.3193 102zM230.688 676c-6.16406 -29 12.7344 -53 41.7344 -53s56.1016 24 62.2656 53s-10.7344 53 -39.7344 53
s-58.1016 -24 -64.2656 -53z" />
    <glyph glyph-name="cedilla" unicode="&#xb8;" horiz-adv-x="278" 
d="M41.5078 -87l85.7676 93h48l-64.0293 -66l1.5752 -2c7.6377 3 19.0625 5 29.0625 5c47 0 84.5371 -21 73.2715 -74c-13.3916 -63 -88.918 -89 -141.918 -89c-35 0 -66.2998 8 -95.3232 22c4.4873 7 27.8643 37 29.9268 42c20.5127 -7 40.3867 -17 63.1738 -18
c24 0 60.126 10 66.29 39c5.10156 24 -17.3477 36 -38.3477 36c-45 0 -31.3145 -25 -57.4492 12z" />
    <glyph glyph-name="hungarumlaut" unicode="&#x2dd;" 
d="M314.466 722h134l-167.607 -144h-80zM497.466 722h134l-167.607 -144h-80z" />
    <glyph glyph-name="ogonek" unicode="&#x2db;" horiz-adv-x="278" 
d="M220.556 -115l-11.4775 -54c-31.3379 -11 -74.6768 -22 -111.677 -22c-52 0 -110.686 25 -96.2324 93c10.2031 48 96.2803 86 151.831 98h59l-0.424805 -2c-75.1016 -24 -120.116 -57 -126.493 -87c-6.58887 -31 16.2227 -46 46.2227 -46c24 0 49.4883 7 89.251 20z" />
    <glyph glyph-name="caron" unicode="&#x2c7;" horiz-adv-x="278" 
d="M275.336 632l89.1299 90h93l-136.607 -144h-117l-72.3926 144h93z" />
    <glyph glyph-name="emdash" unicode="&#x2014;" horiz-adv-x="1000" 
d="M1045.27 213h-1000l23.8066 112h1000z" />
    <glyph glyph-name="AE" unicode="&#xc6;" horiz-adv-x="1000" 
d="M-7 0l552.466 722h547l-25.5068 -120h-335l-10.9844 -174h291l-25.5068 -120h-275l-11.9609 -188h274l-25.5068 -120h-416l10.7334 154h-272l-111.733 -154h-166zM357.24 274h196l24.8926 310h-2z" />
    <glyph glyph-name="ordfeminine" unicode="&#xaa;" horiz-adv-x="334" 
d="M233.742 521c-5.31348 -25 7.86035 -43 35.8604 -43c51 0 64.6904 55 71.7051 88c-31 0 -98.4258 -2 -107.565 -45zM453.636 624l-34.8594 -164c-2.18848 -15 -2.10156 -24 -2.01465 -33h-102c0.975586 14 2.95215 28 7.43945 35h-5
c-14.377 -30 -51.3525 -44 -95.3525 -44c-61 0 -102.772 34 -90.2324 93c22.5312 106 151.869 117 222.444 115l4.88867 23c2.76367 13 -2.04785 28 -38.0479 28c-26 0 -47.251 -20 -49.2275 -34h-93c9.07715 38 30.9668 61 59.9424 75s65.0381 19 100.038 19
c66 0 139.324 -22 114.981 -113z" />
    <glyph glyph-name="Lslash" unicode="&#x141;" 
d="M562.507 120l-25.5068 -120h-468l72.0566 339l-117.652 -36l17.6426 83l117.652 36l63.7666 300h155l-52.9268 -249l145.353 44l-17.8545 -84l-145.353 -44l-57.1777 -269h313z" />
    <glyph glyph-name="Oslash" unicode="&#xd8;" horiz-adv-x="778" 
d="M271.376 237l371.294 326c-19.9229 38 -56.8223 62 -120.822 62c-153 0 -211.758 -140 -238.114 -264c-8.92773 -42 -15.0674 -85 -12.3574 -124zM660.066 499l-375.145 -330c17.8604 -43 55.6963 -72 124.696 -72c153 0 211.758 140 238.115 264
c9.99023 47 16.1924 95 12.333 138zM2 0l131.656 116c-32.3955 64 -35.3291 149 -14.9229 245c45.2744 213 187.921 376 426.921 376c98 0 167.261 -27 211.483 -73l114.469 101l38.0098 -47l-116.681 -102c35.9707 -66 41.0527 -155 19.7979 -255
c-45.2754 -213 -187.922 -376 -426.922 -376c-102 0 -174.623 30 -218.783 81l-126.806 -112z" />
    <glyph glyph-name="OE" unicode="&#x152;" horiz-adv-x="1000" 
d="M963 0h-401c-80.6377 -3 -160.213 -1 -237.938 5c-194.749 20 -256.141 164 -215.329 356c40.8105 192 163.419 336 366.67 356c80.2754 6 160.7 8 240.062 5h389l-25.5068 -120h-295l-36.9844 -174h286l-25.5068 -120h-287l-39.9609 -188h308zM525.507 120l102.452 482
c-203.874 10 -305.763 -13 -354.226 -241c-56.9658 -268 82.1982 -239 251.773 -241z" />
    <glyph glyph-name="ordmasculine" unicode="&#xba;" horiz-adv-x="367" 
d="M491.858 578c-20.1934 -95 -97.0098 -160 -204.01 -160s-156.184 65 -135.99 160c19.9795 94 96.7959 159 203.796 159s156.184 -65 136.204 -159zM251.858 578c-10.2031 -48 -11.2559 -100 48.7441 -100s81.0527 52 91.2559 100c10.2021 48 11.043 99 -48.957 99
s-80.8408 -51 -91.043 -99z" />
    <glyph glyph-name="ae" unicode="&#xe6;" horiz-adv-x="889" 
d="M592.105 311h174c11.6904 55 7.53125 106 -65.4688 106c-69 0 -94.8408 -51 -108.531 -106zM418.23 321l10.416 49c4.46289 21 -2.82227 62 -58.8223 62c-39 0 -76.415 -49 -79.3037 -72h-144c28.5693 125 141.371 157 249.371 157c56.6377 3 121.749 -20 149.846 -76
c53.1162 57 129.792 79 176.154 76c94 0 165.198 -32 188.493 -120c8.04883 -28 8.67188 -58 5.87012 -90c-2.58887 -31 -9.39062 -63 -16.4053 -96h-329c-13.8164 -65 -17.7822 -126 59.2178 -126c52 0 82.0381 19 105.816 65h135
c-39.3574 -124 -145.072 -165 -262.072 -165c-54.7871 1 -130.686 25 -154.232 93c-66.9414 -75 -161.043 -99 -246.768 -93c-94 0 -156.884 57 -136.054 155c35.71 168 233.323 185 346.473 181zM230.371 157c-8.92676 -42 9.69629 -72 51.6963 -72
c83 0 105.556 92 118.096 151c-51.7871 1 -152.574 2 -169.792 -79z" />
    <glyph glyph-name="dotlessi" unicode="&#x131;" horiz-adv-x="278" 
d="M214 0h-150l106.703 502h150z" />
    <glyph glyph-name="lslash" unicode="&#x142;" horiz-adv-x="278" 
d="M217.466 722h150l-49.5254 -233l93.9512 28l-17.8545 -84l-93.9512 -28l-86.0859 -405h-150l75.6699 356l-94.1641 -29l17.8555 84l94.1641 29z" />
    <glyph glyph-name="oslash" unicode="&#xf8;" horiz-adv-x="611" 
d="M464.771 380c-11.3232 22 -32.1348 37 -70.1348 37c-92 0 -125.28 -86 -142.285 -166c-4.03809 -19 -7.28906 -39 -8.11523 -57zM140.14 43l-92.5791 -78l-33.5605 35l97.4297 82c-22.6475 44 -28.3193 102 -14.0781 169c33.584 158 154.54 266 318.54 266
c67 0 118.175 -18 153.585 -49l92.792 79l32.5605 -35l-95.0049 -80c29.0098 -47 36.832 -109 21.5273 -181c-33.584 -158 -154.54 -266 -318.54 -266c-72 0 -126.536 21 -162.672 58zM248.695 135c8.62305 -30 30.3721 -50 75.3721 -50c92 0 125.28 86 142.284 166
c5.52637 26 9.05273 52 9.1543 76z" />
    <glyph glyph-name="oe" unicode="&#x153;" horiz-adv-x="944" 
d="M252.352 251c-17.0039 -80 -20.2842 -166 71.7158 -166s125.28 86 142.284 166c17.0049 80 20.2852 166 -71.7148 166s-125.28 -86 -142.285 -166zM644.105 311h174c11.6904 55 7.53125 106 -65.4688 106c-69 0 -94.8408 -51 -108.531 -106zM787.884 150h135
c-39.3574 -124 -144.072 -165 -261.072 -165c-52.2129 -1 -132.048 28 -152.87 90c-59.3281 -58 -129.555 -92 -206.13 -90c-164 0 -239.044 108 -205.46 266s154.54 266 318.54 266c72 0 135.262 -27 168.232 -93c42.3916 63 125.768 93 190.768 93
c93 0 164.198 -32 187.493 -120c8.04883 -28 8.67188 -58 5.87012 -90c-2.58887 -31 -9.39062 -63 -16.4053 -96h-329c-13.8164 -65 -17.7822 -126 59.2178 -126c52 0 82.0381 19 105.816 65z" />
    <glyph glyph-name="germandbls" unicode="&#xdf;" horiz-adv-x="667" 
d="M54 0l114.568 539c17.4297 82 52.7822 126 132.497 167c52.7393 27 108.589 31 161.589 31c94 0 230.561 -35 206.754 -147c-22.7432 -107 -153.019 -113 -165.56 -172c-5.95117 -28 21.6475 -44 39.0967 -56c67.585 -49 155.508 -87 132.339 -196
c-27.6318 -130 -136.473 -181 -258.473 -181c-111 0 -146.159 51 -134.203 159h131c-2.97559 -14 -2.16406 -29 3.49707 -40c6.66211 -11 16.9619 -19 32.9619 -19c39 0 60.0146 33 67.4541 68c13.6035 64 -30.5078 87 -77.4932 120c-52.1357 37 -95.334 69 -82.793 128
c8.29004 39 34.3672 77 92.4443 115c40.7383 27 59.6279 50 64.0908 71c6.58984 31 -27.3721 50 -66.3721 50c-76 0 -119.266 -53 -133.294 -119l-110.104 -518h-150z" />
    <glyph glyph-name="divide" unicode="&#xf7;" horiz-adv-x="584" 
d="M596.066 292l-25.5068 -120h-484l25.5068 120h484zM229.874 -10l25.5068 120h120l-25.5068 -120h-120zM307.245 354l25.5068 120h120l-25.5068 -120h-120z" />
    <glyph glyph-name="threequarters" unicode="&#xbe;" horiz-adv-x="834" 
d="M819.343 91h-67l-19.3428 -91h-93l19.3428 91h-166l12.7529 60l222.115 264h93l-55.0518 -259h67zM673.159 156l28.2695 133h-2l-111.27 -133h85zM168.598 398h98c-2.97559 -14 -0.164062 -29 7.49805 -40c8.66113 -11 21.1738 -18 37.1738 -18
c36 0 59.5264 26 66.7529 60c11.2656 53 -41.6084 63 -92.0342 61l13.8164 65c47.6377 3 105.701 8 117.816 65c6.80176 32 -2.15918 51 -37.1592 51c-30 0 -61.8887 -23 -65.8408 -51h-99c10.7148 41 34.8789 70 65.918 89c32.0381 19 70.7383 27 111.738 27
c63 0 144.986 -33 129.895 -104c-12.3281 -58 -56.7676 -93 -107.894 -103l-0.424805 -2c51.0244 -14 77.0098 -47 63.4062 -111c-14.0293 -66 -106.807 -112 -181.807 -112c-90 0 -146.198 32 -127.855 123zM327 0h-84l537.277 707h83z" />
    <glyph glyph-name="onequarter" unicode="&#xbc;" horiz-adv-x="834" 
d="M819.343 91h-67l-19.3428 -91h-93l19.3428 91h-166l12.7529 60l222.115 264h93l-55.0518 -259h67zM673.159 156l28.2695 133h-2l-111.27 -133h85zM279.119 551l18.7051 88c43.1885 15 85.6514 36 125.753 60h96l-88.2109 -415h-103l68.0186 320
c-37.4639 -21 -77.29 -39 -117.266 -53zM337 0h-84l537.277 707h83z" />
    <glyph glyph-name="onesuperior" unicode="&#xb9;" horiz-adv-x="333" 
d="M171.119 551l18.7051 88c43.1885 15 85.6514 36 125.753 60h96l-88.2109 -415h-103l68.0186 320c-37.4639 -21 -77.29 -39 -117.266 -53z" />
    <glyph glyph-name="multiply" unicode="&#xd7;" horiz-adv-x="584" 
d="M132.685 389l103.067 85l123.629 -157l190.371 157l66.9326 -85l-190.371 -157l123.628 -157l-103.067 -85l-123.628 157l-190.372 -157l-66.9326 85l190.372 157z" />
    <glyph glyph-name="registered" unicode="&#xae;" horiz-adv-x="800" 
d="M396.812 -15c-208 0 -340.078 169 -296.078 376c43.999 207 247.921 376 455.921 376c206 0 340.078 -169 296.079 -376c-44 -207 -249.922 -376 -455.922 -376zM535.398 637c-147 0 -300.443 -115 -334.665 -276c-34.0098 -160 70.334 -276 217.334 -276
c145 0 300.656 116 334.666 276c34.2217 161 -72.335 276 -217.335 276zM402.994 334l-35.4971 -167h-90l87.1484 410h196c35 0 79.7871 -1 105.961 -19c32.1113 -23 33.5469 -68 24.6191 -110c-15.9414 -75 -61.3184 -105 -135.231 -114l63.5029 -167h-103l-54.5029 167
h-59zM418.936 409h108c44.7881 -1 63.126 10 71.8408 51c8.92676 42 -33.0732 42 -72.0732 42h-88z" />
    <glyph glyph-name="Thorn" unicode="&#xde;" horiz-adv-x="611" 
d="M323.303 486l-43.3613 -204h90c69 0 114.376 30 129.681 102c17.0049 80 -21.3193 102 -97.3193 102h-79zM65 0l153.466 722h155l-24.6562 -116h68c160 0 286.71 -39 247.812 -222c-27.8447 -131 -136.188 -222 -309.188 -222h-101l-34.4346 -162h-155z" />
    <glyph glyph-name="brokenbar" unicode="&#xa6;" horiz-adv-x="278" 
d="M342.476 675l-74.3945 -350h-120l74.3945 350h120zM41.8027 -175l74.3945 350h120l-74.3945 -350h-120z" />
    <glyph glyph-name="Eth" unicode="&#xd0;" horiz-adv-x="722" 
d="M347.959 602l-35.4971 -167h148l-17.0039 -80h-148l-49.9512 -235h80c184 0 237.782 126 262.227 241c24.4434 115 24.2256 241 -159.774 241h-80zM65 0l75.458 355h-63l17.0039 80h63l61.0039 287h246c225 0 341.619 -110 288.268 -361
c-53.3525 -251 -216.733 -361 -441.733 -361h-246z" />
    <glyph glyph-name="onehalf" unicode="&#xbd;" horiz-adv-x="834" 
d="M209.119 551l18.7051 88c43.1885 15 85.6514 36 125.753 60h96l-88.2109 -415h-103l68.0186 320c-37.4639 -21 -77.29 -39 -117.266 -53zM257 0h-84l537.277 707h83zM578.816 65h220l-13.8164 -65h-324l18.0674 85c49.7148 41 252.435 162 265.825 225
c6.37695 30 -7.79688 48 -39.7969 48c-37 0 -62.7393 -27 -69.3281 -58h-99c8.13965 43 31.7285 74 63.9795 94c33.252 20 74.165 29 116.165 29c78 0 147.985 -33 130.556 -115c-21.8936 -103 -193.473 -181 -269.651 -243h1z" />
    <glyph glyph-name="minus" unicode="&#x2212;" horiz-adv-x="584" 
d="M88.6855 182l25.5068 120h484l-25.5068 -120h-484z" />
    <glyph glyph-name="ccedilla" unicode="&#xe7;" horiz-adv-x="500" 
d="M548.294 326h-148c7.71484 41 1.34277 91 -56.6572 91c-64 0 -90.5068 -120 -100.797 -159c-5.77734 -46 -31.7725 -173 32.2275 -173c58 0 87.1162 57 96.8301 98h146.001c-31.1445 -123 -119.024 -193 -250.874 -197l-44.7783 -46l1.5752 -2
c7.6377 3 19.0625 5 29.0625 5c47 0 84.5371 -21 73.2715 -74c-13.3916 -63 -88.918 -89 -141.918 -89c-35 0 -66.2998 8 -95.3232 22c4.4873 7 27.8643 37 29.9268 42c20.5127 -7 40.3867 -17 63.1738 -18c24 0 60.126 10 66.29 39c5.10156 24 -17.3477 36 -38.3477 36
c-45 0 -31.3145 -25 -57.4492 12l68.9414 75c-123.387 17 -161.242 140 -135.098 263c28.2705 133 131.54 266 280.54 266c128 0 207.483 -73 181.402 -191z" />
    <glyph glyph-name="eth" unicode="&#xf0;" horiz-adv-x="611" 
d="M237.182 556l98.541 59c-20.8115 15 -57.1982 32 -88.6475 44l98.7051 88c41.749 -20 93.7969 -48 112.034 -61l89.4775 54l33.3486 -36l-84.6279 -50c57.584 -49 178.054 -155 129.803 -382c-32.5215 -153 -138.004 -287 -322.004 -287c-137 0 -250.459 59 -210.711 246
c29.1201 137 137.289 246 284.289 246c46 0 85.0244 -14 115.71 -39l2.42578 2c-20.8223 62 -63.2568 107 -117.18 145l-104.391 -63zM252.352 251c-17.0039 -80 -20.2842 -166 71.7158 -166s125.28 86 142.284 166c16.1543 76 4.9707 141 -81.0293 141
c-74 0 -116.816 -65 -132.971 -141z" />
    <glyph glyph-name="plusminus" unicode="&#xb1;" horiz-adv-x="584" 
d="M334.878 484h120l-20.6182 -97h172l-25.5068 -120h-172l-20.6182 -97h-120l20.6182 97h-172l25.5068 120h172zM50 0l25.5068 120h484l-25.5068 -120h-484z" />
    <glyph glyph-name="Ccedilla" unicode="&#xc7;" horiz-adv-x="667" 
d="M743.728 488h-165c17.1543 76 -15.8799 137 -108.88 137c-110 0 -172.646 -163 -194.114 -264c-21.4688 -101 -28.1152 -264 81.8848 -264c93 0 151.966 61 167.12 137h165c-43.9844 -174 -178.864 -244 -338.714 -248l-44.7783 -46l1.5752 -2
c7.6377 3 19.0625 5 29.0625 5c47 0 84.5371 -21 73.2715 -74c-13.3916 -63 -88.918 -89 -141.918 -89c-35 0 -66.2998 8 -95.3232 22c4.4873 7 27.8643 37 29.9268 42c20.5127 -7 40.3867 -17 63.1738 -18c24 0 60.126 10 66.29 39c5.10156 24 -17.3477 36 -38.3477 36
c-45 0 -31.3145 -25 -57.4492 12l67.7285 74c-185.023 14 -236.228 173 -193.503 374c44.8496 211 173.921 376 382.921 376c166 0 281.546 -68 250.073 -249z" />
    <glyph glyph-name="thorn" unicode="&#xfe;" horiz-adv-x="611" 
d="M253.352 251c-14.666 -69 -8.28418 -166 72.7158 -166c96 0 126.918 89 143.284 166c16.3672 77 23.2852 166 -72.7148 166c-81 0 -128.618 -97 -143.285 -166zM9.18945 -192l194.276 914h150l-59.0908 -278h2c36.9277 42 97.5166 73 149.517 73
c156 0 207.155 -131 178.46 -266c-27.4199 -129 -125.54 -266 -272.54 -266c-65 0 -115.261 27 -134.72 86h-2l-55.9023 -263h-150z" />
    <glyph glyph-name="copyright" unicode="&#xa9;" horiz-adv-x="800" 
d="M396.812 -15c-208 0 -340.29 168 -296.078 376s247.921 376 455.921 376c207 0 340.291 -168 296.079 -376s-248.922 -376 -455.922 -376zM535.398 637c-147 0 -300.443 -115 -334.665 -276c-34.0098 -160 70.334 -276 217.334 -276c145 0 300.656 116 334.666 276
c34.2217 161 -72.335 276 -217.335 276zM562.492 294h91c-29.5557 -92 -119.034 -146 -206.034 -146c-126 0 -187.807 95 -162.087 216c26.5693 125 124.125 217 252.125 217c90 0 150.946 -52 146.816 -142h-91c0.501953 40 -25.7588 67 -72.7588 67
c-72 0 -123.816 -65 -139.758 -140c-15.0918 -71 12.6045 -143 82.6045 -143c45 0 86.1016 24 99.0918 71z" />
    <glyph glyph-name="logicalnot" unicode="&#xac;" horiz-adv-x="584" 
d="M439.72 121l36.3467 171h-364l25.5068 120h484l-61.8535 -291h-120z" />
    <glyph glyph-name="twosuperior" unicode="&#xb2;" horiz-adv-x="333" 
d="M181.183 349h220l-13.8164 -65h-324l18.0674 85c49.7148 41 252.435 162 265.825 225c6.37695 30 -7.79688 48 -39.7969 48c-37 0 -62.7393 -27 -69.3291 -58h-99c15.2803 86 96.1445 123 180.145 123c78 0 147.986 -33 130.557 -115
c-21.8936 -103 -193.473 -181 -269.651 -243h1z" />
    <glyph glyph-name="threesuperior" unicode="&#xb3;" horiz-adv-x="333" 
d="M92.5977 398h98c-2.97559 -14 -0.164062 -29 7.49805 -40c8.66113 -11 21.1738 -18 37.1738 -18c36 0 59.5264 26 66.7529 60c11.2656 53 -41.6084 63 -92.0342 61l13.8164 65c47.6377 3 105.701 8 117.816 65c6.80176 32 -2.15918 51 -37.1592 51
c-30 0 -61.8887 -23 -65.8408 -51h-99c10.7148 41 34.8789 70 65.918 89c32.0381 19 70.7383 27 111.738 27c63 0 144.986 -33 129.895 -104c-12.3281 -58 -56.7676 -93 -107.894 -103l-0.424805 -2c51.0244 -14 77.0098 -47 63.4062 -111
c-14.0293 -66 -106.807 -112 -181.807 -112c-90 0 -146.198 32 -127.855 123z" />
    <glyph glyph-name="trademark" unicode="&#x2122;" horiz-adv-x="1000" 
d="M1084.47 722l-85.873 -404h-90l68.8691 324h-2l-183.869 -324h-56l-46.1309 324h-2l-68.8691 -324h-90l85.873 404h142l42.1992 -239l139.801 239h146zM567.466 722l-17.0039 -80h-121l-68.8691 -324h-100l68.8691 324h-122l17.0039 80h343z" />
    <glyph glyph-name="degree" unicode="&#xb0;" horiz-adv-x="400" 
d="M472.221 575c-17.6426 -83 -99.8838 -150 -181.884 -150c-83 0 -135.759 67 -118.116 150c16.4297 82 98.8828 150 181.883 150c82 0 135.547 -68 118.117 -150zM242.221 575c-9.56543 -45 18.9951 -80 62.9951 -80c43 0 87.4395 35 97.0049 80
c9.35254 44 -19.9961 80 -63.9961 80c-43 0 -87.6514 -36 -96.0039 -80z" />
    <glyph glyph-name="mu" unicode="&#x3bc;" horiz-adv-x="611" 
d="M393 0l7.17871 62c-41.7773 -46 -95.3672 -77 -193.179 -62l-40.8105 -192h-150l147.514 694h150l-63.9795 -301c-10.4775 -54 -8.65625 -116 65.3438 -116c47 0 97.1396 43 114.656 116l63.9795 301h150l-87.5732 -412c-5.37598 -30 -9.75293 -60 -13.1299 -90h-150z
" />
    <glyph glyph-name="Aacute" unicode="&#xc1;" horiz-adv-x="722" 
d="M161 0h-148l414.466 722h184l97.5342 -722h-156l-19.4785 153h-286zM313.028 273h207l-33.5322 308h-2zM577.852 912h134l-167.607 -144h-80z" />
    <glyph glyph-name="Acircumflex" unicode="&#xc2;" horiz-adv-x="722" 
d="M161 0h-148l414.466 722h184l97.5342 -722h-156l-19.4785 153h-286zM313.028 273h207l-33.5322 308h-2zM591.244 768l-49.9326 85l-88.0674 -85h-89l139.607 144h103l73.3926 -144h-89z" />
    <glyph glyph-name="Adieresis" unicode="&#xc4;" horiz-adv-x="722" 
d="M161 0h-148l414.466 722h184l97.5342 -722h-156l-19.4785 153h-286zM313.028 273h207l-33.5322 308h-2zM664.432 783h-102l25.2949 119h102zM492.432 783h-102l25.2949 119h102z" />
    <glyph glyph-name="Agrave" unicode="&#xc0;" horiz-adv-x="722" 
d="M161 0h-148l414.466 722h184l97.5342 -722h-156l-19.4785 153h-286zM313.028 273h207l-33.5322 308h-2zM397.852 912h134l52.3926 -144h-80z" />
    <glyph glyph-name="Aring" unicode="&#xc5;" horiz-adv-x="722" 
d="M161 0h-148l414.466 722h184l97.5342 -722h-156l-19.4785 153h-286zM313.028 273h207l-33.5322 308h-2zM441.949 856c11.6895 55 67.6797 102 123.68 102c55 0 90.0098 -47 78.3203 -102c-11.6914 -55 -65.6816 -102 -121.682 -102s-92.2227 46 -80.3184 102z
M490.949 856c-6.16406 -29 12.7344 -53 41.7344 -53s56.1016 24 62.2656 53s-10.7344 53 -39.7344 53s-58.1016 -24 -64.2656 -53z" />
    <glyph glyph-name="Atilde" unicode="&#xc3;" horiz-adv-x="722" 
d="M161 0h-148l414.466 722h184l97.5342 -722h-156l-19.4785 153h-286zM313.028 273h207l-33.5322 308h-2zM410.432 783h-51c22.9668 61 73.9326 122 142.933 122c27 0 49.0869 -9 69.9609 -19c22.0869 -9 41.9619 -19 65.9619 -19c27 0 41.8887 23 53.5645 45h51
c-18.6035 -64 -68.5068 -120 -138.507 -120c-24 0 -46.0869 9 -68.1738 18c-21.0869 9 -41.1738 18 -62.1738 18c-29 0 -48.4639 -21 -63.5654 -45z" />
    <glyph glyph-name="Eacute" unicode="&#xc9;" horiz-adv-x="611" 
d="M58 0l153.466 722h484l-25.5068 -120h-329l-35.9219 -169h308l-25.5068 -120h-308l-41.0234 -193h340l-25.5068 -120h-495zM522.852 912h134l-167.607 -144h-80z" />
    <glyph glyph-name="Ecircumflex" unicode="&#xca;" horiz-adv-x="611" 
d="M58 0l153.466 722h484l-25.5068 -120h-329l-35.9219 -169h308l-25.5068 -120h-308l-41.0234 -193h340l-25.5068 -120h-495zM536.244 768l-49.9326 85l-88.0674 -85h-89l139.607 144h103l73.3926 -144h-89z" />
    <glyph glyph-name="Edieresis" unicode="&#xcb;" horiz-adv-x="611" 
d="M58 0l153.466 722h484l-25.5068 -120h-329l-35.9219 -169h308l-25.5068 -120h-308l-41.0234 -193h340l-25.5068 -120h-495zM609.432 783h-102l25.2949 119h102zM437.432 783h-102l25.2949 119h102z" />
    <glyph glyph-name="Egrave" unicode="&#xc8;" horiz-adv-x="611" 
d="M58 0l153.466 722h484l-25.5068 -120h-329l-35.9219 -169h308l-25.5068 -120h-308l-41.0234 -193h340l-25.5068 -120h-495zM342.852 912h134l52.3926 -144h-80z" />
    <glyph glyph-name="Iacute" unicode="&#xcd;" horiz-adv-x="278" 
d="M370.466 722l-153.466 -722h-155l153.466 722h155zM355.852 912h134l-167.607 -144h-80z" />
    <glyph glyph-name="Icircumflex" unicode="&#xce;" horiz-adv-x="278" 
d="M370.466 722l-153.466 -722h-155l153.466 722h155zM369.244 768l-49.9326 85l-88.0674 -85h-89l139.607 144h103l73.3926 -144h-89z" />
    <glyph glyph-name="Idieresis" unicode="&#xcf;" horiz-adv-x="278" 
d="M370.466 722l-153.466 -722h-155l153.466 722h155zM442.432 783h-102l25.2949 119h102zM270.432 783h-102l25.2949 119h102z" />
    <glyph glyph-name="Igrave" unicode="&#xcc;" horiz-adv-x="278" 
d="M370.466 722l-153.466 -722h-155l153.466 722h155zM175.852 912h134l52.3926 -144h-80z" />
    <glyph glyph-name="Ntilde" unicode="&#xd1;" horiz-adv-x="778" 
d="M718 0h-220l-157.466 600l-2.4248 -2l-127.109 -598h-145l153.466 722h230l154.268 -568l2.42578 2l120.307 566h145zM438.432 783h-51c22.9668 61 73.9326 122 142.933 122c27 0 49.0869 -9 69.9609 -19c22.0869 -9 41.9619 -19 65.9619 -19c27 0 41.8887 23 53.5645 45
h51c-18.6035 -64 -68.5068 -120 -138.507 -120c-24 0 -46.0869 9 -68.1738 18c-21.0869 9 -41.1738 18 -62.1738 18c-29 0 -48.4639 -21 -63.5654 -45z" />
    <glyph glyph-name="Oacute" unicode="&#xd3;" horiz-adv-x="778" 
d="M385.812 -15c-239 0 -312.354 163 -267.078 376c45.2744 213 187.921 376 426.921 376s312.354 -163 267.079 -376c-45.2754 -213 -187.922 -376 -426.922 -376zM521.848 625c-153 0 -211.758 -140 -238.114 -264c-26.3574 -124 -27.1152 -264 125.885 -264
s211.758 140 238.115 264c26.3564 124 27.1143 264 -125.886 264zM605.852 912h134l-167.607 -144h-80z" />
    <glyph glyph-name="Ocircumflex" unicode="&#xd4;" horiz-adv-x="778" 
d="M385.812 -15c-239 0 -312.354 163 -267.078 376c45.2744 213 187.921 376 426.921 376s312.354 -163 267.079 -376c-45.2754 -213 -187.922 -376 -426.922 -376zM521.848 625c-153 0 -211.758 -140 -238.114 -264c-26.3574 -124 -27.1152 -264 125.885 -264
s211.758 140 238.115 264c26.3564 124 27.1143 264 -125.886 264zM619.244 768l-49.9326 85l-88.0674 -85h-89l139.607 144h103l73.3926 -144h-89z" />
    <glyph glyph-name="Odieresis" unicode="&#xd6;" horiz-adv-x="778" 
d="M385.812 -15c-239 0 -312.354 163 -267.078 376c45.2744 213 187.921 376 426.921 376s312.354 -163 267.079 -376c-45.2754 -213 -187.922 -376 -426.922 -376zM521.848 625c-153 0 -211.758 -140 -238.114 -264c-26.3574 -124 -27.1152 -264 125.885 -264
s211.758 140 238.115 264c26.3564 124 27.1143 264 -125.886 264zM692.432 783h-102l25.2949 119h102zM520.432 783h-102l25.2949 119h102z" />
    <glyph glyph-name="Ograve" unicode="&#xd2;" horiz-adv-x="778" 
d="M385.812 -15c-239 0 -312.354 163 -267.078 376c45.2744 213 187.921 376 426.921 376s312.354 -163 267.079 -376c-45.2754 -213 -187.922 -376 -426.922 -376zM521.848 625c-153 0 -211.758 -140 -238.114 -264c-26.3574 -124 -27.1152 -264 125.885 -264
s211.758 140 238.115 264c26.3564 124 27.1143 264 -125.886 264zM425.852 912h134l52.3926 -144h-80z" />
    <glyph glyph-name="Otilde" unicode="&#xd5;" horiz-adv-x="778" 
d="M385.812 -15c-239 0 -312.354 163 -267.078 376c45.2744 213 187.921 376 426.921 376s312.354 -163 267.079 -376c-45.2754 -213 -187.922 -376 -426.922 -376zM521.848 625c-153 0 -211.758 -140 -238.114 -264c-26.3574 -124 -27.1152 -264 125.885 -264
s211.758 140 238.115 264c26.3564 124 27.1143 264 -125.886 264zM438.432 783h-51c22.9668 61 73.9326 122 142.933 122c27 0 49.0869 -9 69.9609 -19c22.0869 -9 41.9619 -19 65.9619 -19c27 0 41.8887 23 53.5645 45h51c-18.6035 -64 -68.5068 -120 -138.507 -120
c-24 0 -46.0869 9 -68.1738 18c-21.0869 9 -41.1738 18 -62.1738 18c-29 0 -48.4639 -21 -63.5654 -45z" />
    <glyph glyph-name="Scaron" unicode="&#x160;" horiz-adv-x="667" 
d="M712.68 516h-149c9.5166 73 -21.832 109 -96.832 109c-57 0 -121.376 -30 -134.768 -93c-16.5791 -78 51.5078 -87 110.319 -102c104.049 -28 259.459 -59 228.639 -204c-38.0479 -179 -207.227 -241 -362.227 -241c-165 0 -268.396 64 -224.711 246h158
c-23.0049 -80 11.5176 -134 92.5176 -134c62 0 148.038 19 164.405 96c18.0674 85 -83.6572 91 -142.256 107c-95.6865 25 -223.909 71 -196.701 199c35.0713 165 202.588 238 350.588 238c140 0 232.846 -76 202.025 -221zM510.722 822l89.1299 90h93l-136.607 -144h-117
l-72.3926 144h93z" />
    <glyph glyph-name="Uacute" unicode="&#xda;" horiz-adv-x="778" 
d="M700.466 722h155l-96.0752 -452c-40.8115 -192 -198.579 -285 -373.579 -285s-293.232 93 -252.421 285l96.0752 452h155l-83.3223 -392c-25.9316 -122 -43.5254 -233 108.475 -233s181.594 111 207.525 233zM605.852 912h134l-167.607 -144h-80z" />
    <glyph glyph-name="Ucircumflex" unicode="&#xdb;" horiz-adv-x="778" 
d="M700.466 722h155l-96.0752 -452c-40.8115 -192 -198.579 -285 -373.579 -285s-293.232 93 -252.421 285l96.0752 452h155l-83.3223 -392c-25.9316 -122 -43.5254 -233 108.475 -233s181.594 111 207.525 233zM619.244 768l-49.9326 85l-88.0674 -85h-89l139.607 144h103
l73.3926 -144h-89z" />
    <glyph glyph-name="Udieresis" unicode="&#xdc;" horiz-adv-x="778" 
d="M700.466 722h155l-96.0752 -452c-40.8115 -192 -198.579 -285 -373.579 -285s-293.232 93 -252.421 285l96.0752 452h155l-83.3223 -392c-25.9316 -122 -43.5254 -233 108.475 -233s181.594 111 207.525 233zM692.432 783h-102l25.2949 119h102zM520.432 783h-102
l25.2949 119h102z" />
    <glyph glyph-name="Ugrave" unicode="&#xd9;" horiz-adv-x="778" 
d="M700.466 722h155l-96.0752 -452c-40.8115 -192 -198.579 -285 -373.579 -285s-293.232 93 -252.421 285l96.0752 452h155l-83.3223 -392c-25.9316 -122 -43.5254 -233 108.475 -233s181.594 111 207.525 233zM425.852 912h134l52.3926 -144h-80z" />
    <glyph glyph-name="Yacute" unicode="&#xdd;" horiz-adv-x="667" 
d="M256 0l50.1631 236l-139.697 486h181l78.6436 -331l222.356 331h159l-346.303 -486l-50.1631 -236h-155zM550.852 912h134l-167.607 -144h-80z" />
    <glyph glyph-name="Ydieresis" unicode="&#x178;" horiz-adv-x="667" 
d="M256 0l50.1631 236l-139.697 486h181l78.6436 -331l222.356 331h159l-346.303 -486l-50.1631 -236h-155zM637.432 783h-102l25.2949 119h102zM465.432 783h-102l25.2949 119h102z" />
    <glyph glyph-name="Zcaron" unicode="&#x17d;" horiz-adv-x="611" 
d="M29 0l25.5068 120l460.452 482h-335l25.5068 120h523l-25.5068 -120l-459.452 -482h365l-25.5068 -120h-554zM482.722 822l89.1299 90h93l-136.607 -144h-117l-72.3926 144h93z" />
    <glyph glyph-name="aacute" unicode="&#xe1;" 
d="M394.163 236c-51.7871 1 -158.574 2 -175.792 -79c-8.92676 -42 15.6963 -72 57.6963 -72c83 0 105.556 92 118.096 151zM284.521 360h-144c14.3916 63 49.6807 102 94.5693 125c46.1016 24 100.802 32 154.802 32c101 0 206.136 -37 174.04 -188l-58.2412 -274
c-4.31348 -25 -3.50195 -40 -4.69043 -55h-135c1.88867 23 4.77734 46 9.24121 67h-2c-46.3281 -58 -103.43 -82 -171.43 -82c-94 0 -152.521 54 -131.691 152c7.43945 35 41.5068 120 140.797 159c65.5264 26 142.164 29 201.739 27l9.99023 47
c4.46289 21 -2.82227 62 -55.8223 62c-52 0 -79.415 -49 -82.3037 -72zM454.466 722h134l-167.607 -144h-80z" />
    <glyph glyph-name="acircumflex" unicode="&#xe2;" 
d="M394.163 236c-51.7871 1 -158.574 2 -175.792 -79c-8.92676 -42 15.6963 -72 57.6963 -72c83 0 105.556 92 118.096 151zM284.521 360h-144c14.3916 63 49.6807 102 94.5693 125c46.1016 24 100.802 32 154.802 32c101 0 206.136 -37 174.04 -188l-58.2412 -274
c-4.31348 -25 -3.50195 -40 -4.69043 -55h-135c1.88867 23 4.77734 46 9.24121 67h-2c-46.3281 -58 -103.43 -82 -171.43 -82c-94 0 -152.521 54 -131.691 152c7.43945 35 41.5068 120 140.797 159c65.5264 26 142.164 29 201.739 27l9.99023 47
c4.46289 21 -2.82227 62 -55.8223 62c-52 0 -79.415 -49 -82.3037 -72zM467.858 578l-49.9326 85l-88.0674 -85h-89l139.607 144h103l73.3926 -144h-89z" />
    <glyph glyph-name="adieresis" unicode="&#xe4;" 
d="M394.163 236c-51.7871 1 -158.574 2 -175.792 -79c-8.92676 -42 15.6963 -72 57.6963 -72c83 0 105.556 92 118.096 151zM284.521 360h-144c14.3916 63 49.6807 102 94.5693 125c46.1016 24 100.802 32 154.802 32c101 0 206.136 -37 174.04 -188l-58.2412 -274
c-4.31348 -25 -3.50195 -40 -4.69043 -55h-135c1.88867 23 4.77734 46 9.24121 67h-2c-46.3281 -58 -103.43 -82 -171.43 -82c-94 0 -152.521 54 -131.691 152c7.43945 35 41.5068 120 140.797 159c65.5264 26 142.164 29 201.739 27l9.99023 47
c4.46289 21 -2.82227 62 -55.8223 62c-52 0 -79.415 -49 -82.3037 -72zM543.172 603h-102l25.2939 119h102zM371.172 603h-102l25.2939 119h102z" />
    <glyph glyph-name="agrave" unicode="&#xe0;" 
d="M394.163 236c-51.7871 1 -158.574 2 -175.792 -79c-8.92676 -42 15.6963 -72 57.6963 -72c83 0 105.556 92 118.096 151zM284.521 360h-144c14.3916 63 49.6807 102 94.5693 125c46.1016 24 100.802 32 154.802 32c101 0 206.136 -37 174.04 -188l-58.2412 -274
c-4.31348 -25 -3.50195 -40 -4.69043 -55h-135c1.88867 23 4.77734 46 9.24121 67h-2c-46.3281 -58 -103.43 -82 -171.43 -82c-94 0 -152.521 54 -131.691 152c7.43945 35 41.5068 120 140.797 159c65.5264 26 142.164 29 201.739 27l9.99023 47
c4.46289 21 -2.82227 62 -55.8223 62c-52 0 -79.415 -49 -82.3037 -72zM274.466 722h134l52.3926 -144h-80z" />
    <glyph glyph-name="aring" unicode="&#xe5;" 
d="M394.163 236c-51.7871 1 -158.574 2 -175.792 -79c-8.92676 -42 15.6963 -72 57.6963 -72c83 0 105.556 92 118.096 151zM284.521 360h-144c14.3916 63 49.6807 102 94.5693 125c46.1016 24 100.802 32 154.802 32c101 0 206.136 -37 174.04 -188l-58.2412 -274
c-4.31348 -25 -3.50195 -40 -4.69043 -55h-135c1.88867 23 4.77734 46 9.24121 67h-2c-46.3281 -58 -103.43 -82 -171.43 -82c-94 0 -152.521 54 -131.691 152c7.43945 35 41.5068 120 140.797 159c65.5264 26 142.164 29 201.739 27l9.99023 47
c4.46289 21 -2.82227 62 -55.8223 62c-52 0 -79.415 -49 -82.3037 -72zM320.688 676c11.6904 55 67.6807 102 123.681 102c55 0 90.0098 -47 78.3193 -102s-65.6807 -102 -121.681 -102s-92.2227 46 -80.3193 102zM369.688 676c-6.16406 -29 12.7344 -53 41.7344 -53
s56.1016 24 62.2656 53s-10.7344 53 -39.7344 53s-58.1016 -24 -64.2656 -53z" />
    <glyph glyph-name="atilde" unicode="&#xe3;" 
d="M394.163 236c-51.7871 1 -158.574 2 -175.792 -79c-8.92676 -42 15.6963 -72 57.6963 -72c83 0 105.556 92 118.096 151zM284.521 360h-144c14.3916 63 49.6807 102 94.5693 125c46.1016 24 100.802 32 154.802 32c101 0 206.136 -37 174.04 -188l-58.2412 -274
c-4.31348 -25 -3.50195 -40 -4.69043 -55h-135c1.88867 23 4.77734 46 9.24121 67h-2c-46.3281 -58 -103.43 -82 -171.43 -82c-94 0 -152.521 54 -131.691 152c7.43945 35 41.5068 120 140.797 159c65.5264 26 142.164 29 201.739 27l9.99023 47
c4.46289 21 -2.82227 62 -55.8223 62c-52 0 -79.415 -49 -82.3037 -72zM287.046 593h-51c22.9668 61 73.9326 122 142.933 122c27 0 49.0869 -9 69.9609 -19c22.0869 -9 41.9619 -19 65.9619 -19c27 0 41.8887 23 53.5645 45h51c-18.6035 -64 -68.5068 -120 -138.507 -120
c-24 0 -46.0869 9 -68.1738 18c-21.0869 9 -41.1738 18 -62.1738 18c-29 0 -48.4639 -21 -63.5654 -45z" />
    <glyph glyph-name="eacute" unicode="&#xe9;" 
d="M570.85 211h-329c-13.8164 -65 -17.7822 -126 59.2178 -126c52 0 82.0381 19 105.816 65h135c-39.3574 -124 -145.072 -165 -262.072 -165c-172 0 -220.382 97 -184.672 265c32.0957 151 144.752 267 297.752 267c94 0 165.198 -32 188.493 -120
c8.04883 -28 8.67188 -58 5.87012 -90c-2.58887 -31 -9.39062 -63 -16.4053 -96zM263.105 311h174c11.6904 55 7.53125 106 -65.4688 106c-69 0 -94.8408 -51 -108.531 -106zM454.466 722h134l-167.607 -144h-80z" />
    <glyph glyph-name="ecircumflex" unicode="&#xea;" 
d="M570.85 211h-329c-13.8164 -65 -17.7822 -126 59.2178 -126c52 0 82.0381 19 105.816 65h135c-39.3574 -124 -145.072 -165 -262.072 -165c-172 0 -220.382 97 -184.672 265c32.0957 151 144.752 267 297.752 267c94 0 165.198 -32 188.493 -120
c8.04883 -28 8.67188 -58 5.87012 -90c-2.58887 -31 -9.39062 -63 -16.4053 -96zM263.105 311h174c11.6904 55 7.53125 106 -65.4688 106c-69 0 -94.8408 -51 -108.531 -106zM467.858 578l-49.9326 85l-88.0674 -85h-89l139.607 144h103l73.3926 -144h-89z" />
    <glyph glyph-name="edieresis" unicode="&#xeb;" 
d="M570.85 211h-329c-13.8164 -65 -17.7822 -126 59.2178 -126c52 0 82.0381 19 105.816 65h135c-39.3574 -124 -145.072 -165 -262.072 -165c-172 0 -220.382 97 -184.672 265c32.0957 151 144.752 267 297.752 267c94 0 165.198 -32 188.493 -120
c8.04883 -28 8.67188 -58 5.87012 -90c-2.58887 -31 -9.39062 -63 -16.4053 -96zM263.105 311h174c11.6904 55 7.53125 106 -65.4688 106c-69 0 -94.8408 -51 -108.531 -106zM543.172 603h-102l25.2939 119h102zM371.172 603h-102l25.2939 119h102z" />
    <glyph glyph-name="egrave" unicode="&#xe8;" 
d="M570.85 211h-329c-13.8164 -65 -17.7822 -126 59.2178 -126c52 0 82.0381 19 105.816 65h135c-39.3574 -124 -145.072 -165 -262.072 -165c-172 0 -220.382 97 -184.672 265c32.0957 151 144.752 267 297.752 267c94 0 165.198 -32 188.493 -120
c8.04883 -28 8.67188 -58 5.87012 -90c-2.58887 -31 -9.39062 -63 -16.4053 -96zM263.105 311h174c11.6904 55 7.53125 106 -65.4688 106c-69 0 -94.8408 -51 -108.531 -106zM274.466 722h134l52.3926 -144h-80z" />
    <glyph glyph-name="iacute" unicode="&#xed;" horiz-adv-x="278" 
d="M214 0h-150l106.703 502h150zM315.466 722h134l-167.607 -144h-80z" />
    <glyph glyph-name="icircumflex" unicode="&#xee;" horiz-adv-x="278" 
d="M214 0h-150l106.703 502h150zM328.858 578l-49.9326 85l-88.0674 -85h-89l139.607 144h103l73.3926 -144h-89z" />
    <glyph glyph-name="idieresis" unicode="&#xef;" horiz-adv-x="278" 
d="M214 0h-150l106.703 502h150zM404.172 603h-102l25.2939 119h102zM232.172 603h-102l25.2939 119h102z" />
    <glyph glyph-name="igrave" unicode="&#xec;" horiz-adv-x="278" 
d="M214 0h-150l106.703 502h150zM135.466 722h134l52.3926 -144h-80z" />
    <glyph glyph-name="ntilde" unicode="&#xf1;" horiz-adv-x="611" 
d="M321.703 502l-12.3281 -58l1.3623 -3c40.7783 46 94.1543 76 170.154 76c50 0 139.136 -37 141.619 -110c1.41113 -31 -3.3916 -63 -7.00488 -80l-69.5059 -327h-150l64.1924 302c10.4775 54 8.44434 115 -65.5557 115c-47 0 -96.9277 -42 -114.444 -115l-64.1924 -302
h-150l106.703 502h149zM315.046 593h-51c22.9668 61 73.9326 122 142.933 122c27 0 49.0869 -9 69.9609 -19c22.0869 -9 41.9619 -19 65.9619 -19c27 0 41.8887 23 53.5645 45h51c-18.6035 -64 -68.5068 -120 -138.507 -120c-24 0 -46.0869 9 -68.1738 18
c-21.0869 9 -41.1738 18 -62.1738 18c-29 0 -48.4639 -21 -63.5654 -45z" />
    <glyph glyph-name="oacute" unicode="&#xf3;" horiz-adv-x="611" 
d="M621.352 251c-33.584 -158 -154.54 -266 -318.54 -266s-239.044 108 -205.46 266s154.54 266 318.54 266s239.044 -108 205.46 -266zM252.352 251c-17.0039 -80 -20.2842 -166 71.7158 -166s125.28 86 142.284 166c17.0049 80 20.2852 166 -71.7148 166
s-125.28 -86 -142.285 -166zM482.466 722h134l-167.607 -144h-80z" />
    <glyph glyph-name="ocircumflex" unicode="&#xf4;" horiz-adv-x="611" 
d="M621.352 251c-33.584 -158 -154.54 -266 -318.54 -266s-239.044 108 -205.46 266s154.54 266 318.54 266s239.044 -108 205.46 -266zM252.352 251c-17.0039 -80 -20.2842 -166 71.7158 -166s125.28 86 142.284 166c17.0049 80 20.2852 166 -71.7148 166
s-125.28 -86 -142.285 -166zM495.858 578l-49.9326 85l-88.0674 -85h-89l139.607 144h103l73.3926 -144h-89z" />
    <glyph glyph-name="odieresis" unicode="&#xf6;" horiz-adv-x="611" 
d="M621.352 251c-33.584 -158 -154.54 -266 -318.54 -266s-239.044 108 -205.46 266s154.54 266 318.54 266s239.044 -108 205.46 -266zM252.352 251c-17.0039 -80 -20.2842 -166 71.7158 -166s125.28 86 142.284 166c17.0049 80 20.2852 166 -71.7148 166
s-125.28 -86 -142.285 -166zM571.172 603h-102l25.2939 119h102zM399.172 603h-102l25.2939 119h102z" />
    <glyph glyph-name="ograve" unicode="&#xf2;" horiz-adv-x="611" 
d="M621.352 251c-33.584 -158 -154.54 -266 -318.54 -266s-239.044 108 -205.46 266s154.54 266 318.54 266s239.044 -108 205.46 -266zM252.352 251c-17.0039 -80 -20.2842 -166 71.7158 -166s125.28 86 142.284 166c17.0049 80 20.2852 166 -71.7148 166
s-125.28 -86 -142.285 -166zM302.466 722h134l52.3926 -144h-80z" />
    <glyph glyph-name="otilde" unicode="&#xf5;" horiz-adv-x="611" 
d="M621.352 251c-33.584 -158 -154.54 -266 -318.54 -266s-239.044 108 -205.46 266s154.54 266 318.54 266s239.044 -108 205.46 -266zM252.352 251c-17.0039 -80 -20.2842 -166 71.7158 -166s125.28 86 142.284 166c17.0049 80 20.2852 166 -71.7148 166
s-125.28 -86 -142.285 -166zM315.046 593h-51c22.9668 61 73.9326 122 142.933 122c27 0 49.0869 -9 69.9609 -19c22.0869 -9 41.9619 -19 65.9619 -19c27 0 41.8887 23 53.5645 45h51c-18.6035 -64 -68.5068 -120 -138.507 -120c-24 0 -46.0869 9 -68.1738 18
c-21.0869 9 -41.1738 18 -62.1738 18c-29 0 -48.4639 -21 -63.5654 -45z" />
    <glyph glyph-name="scaron" unicode="&#x161;" horiz-adv-x="500" 
d="M531.221 368h-135c5.22754 34 -23.584 49 -57.584 49c-41 0 -62.5508 -12 -69.5654 -45c-16.792 -79 279.772 -34 239.812 -222c-23.3818 -110 -169.072 -165 -262.072 -165c-117 0 -209.223 46 -186.778 161h139c-5.29004 -39 25.0342 -61 69.0342 -61
c41 0 75.6133 17 83.9033 56c8.50195 40 -59.8848 57 -88.3965 64c-91.1113 23 -175.647 44 -150.778 161c22.3184 105 159.096 151 247.096 151c106 0 187.923 -38 171.329 -149zM386.336 632l89.1299 90h93l-136.607 -144h-117l-72.3926 144h93z" />
    <glyph glyph-name="uacute" unicode="&#xfa;" horiz-adv-x="611" 
d="M398 0l7.17871 62c-41.7773 -46 -95.3672 -77 -171.367 -77c-50 0 -138.923 38 -141.406 111c-1.41016 31 3.3916 63 7.00488 80l69.293 326h150l-63.9795 -301c-10.4775 -54 -8.65625 -116 65.3438 -116c47 0 97.1396 43 114.656 116l63.9795 301h150l-87.5732 -412
c-5.37598 -30 -9.75293 -60 -13.1299 -90h-150zM482.466 722h134l-167.607 -144h-80z" />
    <glyph glyph-name="ucircumflex" unicode="&#xfb;" horiz-adv-x="611" 
d="M398 0l7.17871 62c-41.7773 -46 -95.3672 -77 -171.367 -77c-50 0 -138.923 38 -141.406 111c-1.41016 31 3.3916 63 7.00488 80l69.293 326h150l-63.9795 -301c-10.4775 -54 -8.65625 -116 65.3438 -116c47 0 97.1396 43 114.656 116l63.9795 301h150l-87.5732 -412
c-5.37598 -30 -9.75293 -60 -13.1299 -90h-150zM495.858 578l-49.9326 85l-88.0674 -85h-89l139.607 144h103l73.3926 -144h-89z" />
    <glyph glyph-name="udieresis" unicode="&#xfc;" horiz-adv-x="611" 
d="M398 0l7.17871 62c-41.7773 -46 -95.3672 -77 -171.367 -77c-50 0 -138.923 38 -141.406 111c-1.41016 31 3.3916 63 7.00488 80l69.293 326h150l-63.9795 -301c-10.4775 -54 -8.65625 -116 65.3438 -116c47 0 97.1396 43 114.656 116l63.9795 301h150l-87.5732 -412
c-5.37598 -30 -9.75293 -60 -13.1299 -90h-150zM571.172 603h-102l25.2939 119h102zM399.172 603h-102l25.2939 119h102z" />
    <glyph glyph-name="ugrave" unicode="&#xf9;" horiz-adv-x="611" 
d="M398 0l7.17871 62c-41.7773 -46 -95.3672 -77 -171.367 -77c-50 0 -138.923 38 -141.406 111c-1.41016 31 3.3916 63 7.00488 80l69.293 326h150l-63.9795 -301c-10.4775 -54 -8.65625 -116 65.3438 -116c47 0 97.1396 43 114.656 116l63.9795 301h150l-87.5732 -412
c-5.37598 -30 -9.75293 -60 -13.1299 -90h-150zM302.466 722h134l52.3926 -144h-80z" />
    <glyph glyph-name="yacute" unicode="&#xfd;" 
d="M318.946 155l185.757 347h147l-399.302 -693h-149l104.386 190l-87.084 503h160l36.2432 -347h2zM454.466 722h134l-167.607 -144h-80z" />
    <glyph glyph-name="ydieresis" unicode="&#xff;" 
d="M318.946 155l185.757 347h147l-399.302 -693h-149l104.386 190l-87.084 503h160l36.2432 -347h2zM543.172 603h-102l25.2939 119h102zM371.172 603h-102l25.2939 119h102z" />
    <glyph glyph-name="zcaron" unicode="&#x17e;" horiz-adv-x="500" 
d="M466 0h-431l21.2559 100l340.192 302h-269l21.2549 100h414l-21.2549 -100l-340.192 -302h286zM386.336 632l89.1299 90h93l-136.607 -144h-117l-72.3926 144h93z" />
  </font>
</defs>
</svg>
