<?xml version="1.0" encoding="utf-8"?>
<!-- Generator: Adobe Illustrator 18.0.0, SVG Export Plug-In . SVG Version: 6.00 Build 0)  -->
<!DOCTYPE svg PUBLIC "-//W3C//DTD SVG 1.1//EN" "http://www.w3.org/Graphics/SVG/1.1/DTD/svg11.dtd">
<svg version="1.1" id="Layer_1" xmlns="http://www.w3.org/2000/svg" xmlns:xlink="http://www.w3.org/1999/xlink" x="0px" y="0px"
	 viewBox="0 0 200 200" enable-background="new 0 0 200 200" xml:space="preserve">
<path d="M168.6,63.8H31.4c-4.1,0-7.4-3.3-7.4-7.4v0c0-4.1,3.3-7.4,7.4-7.4h137.3c4.1,0,7.4,3.3,7.4,7.4v0
	C176,60.5,172.7,63.8,168.6,63.8z"/>
<path d="M168.6,133.7H31.4c-4.1,0-7.4-3.3-7.4-7.4v0c0-4.1,3.3-7.4,7.4-7.4h137.3c4.1,0,7.4,3.3,7.4,7.4v0
	C176,130.4,172.7,133.7,168.6,133.7z"/>
<path d="M168.6,98.7H31.4c-4.1,0-7.4-3.3-7.4-7.4v0c0-4.1,3.3-7.4,7.4-7.4h137.3c4.1,0,7.4,3.3,7.4,7.4v0
	C176,95.4,172.7,98.7,168.6,98.7z"/>
</svg>
