<svg id="Layer_1" data-name="Layer 1" xmlns="http://www.w3.org/2000/svg" viewBox="0 0 276 143.56"><defs><style>.cls-1,.cls-2{fill:#004d74;}.cls-2{stroke:#fff;stroke-miterlimit:10;stroke-width:2px;}</style></defs><title>capsule</title><path class="cls-1" d="M197.45,45.82a0.67,0.67,0,0,1-.21.52,1.47,1.47,0,0,1-.46.27A16.67,16.67,0,0,0,195.64,48q-1,1.36-1.89,2.52a10.18,10.18,0,0,0-1,1.54,2.38,2.38,0,0,1-.34,1,0.72,0.72,0,0,1-.72.24,0.74,0.74,0,0,1-.62-0.87,2.34,2.34,0,0,1,.48-1.27l3.36-4.59-3.64.16q-1.75.07-3,.07c-1,0-1.84,0-2.57.08S106.18,47,105.46,47a0.74,0.74,0,0,1-.59-0.23,0.85,0.85,0,0,1-.2-0.58,0.74,0.74,0,0,1,.14-0.43,0.6,0.6,0,0,1,.41-0.24c0.41-.06,79.36-0.15,80.84-0.25s2.62-.15,3.41-0.15q0.83,0,2.6-.08t2.84-.08l-0.64-1.06q-0.41-.62-0.81-1.16a7.28,7.28,0,0,0-.79-0.91l-0.75-.73a0.49,0.49,0,0,1-.1-0.33,0.8,0.8,0,0,1,.23-0.56,0.76,0.76,0,0,1,.58-0.25,0.77,0.77,0,0,1,.58.27s0.26,0.24.7,0.62a5,5,0,0,1,.52.52c0.3,0.37.69,0.93,1.18,1.66l1.31,2,0.31,0.27A0.73,0.73,0,0,1,197.45,45.82Z" transform="translate(-14.5 -15.64)"/><path class="cls-1" d="M197.45,147.52a0.67,0.67,0,0,1-.21.52,1.47,1.47,0,0,1-.46.27,16.67,16.67,0,0,0-1.14,1.42q-1,1.36-1.89,2.52a10.18,10.18,0,0,0-1,1.54,2.38,2.38,0,0,1-.34,1,0.72,0.72,0,0,1-.72.24,0.74,0.74,0,0,1-.62-0.87,2.34,2.34,0,0,1,.48-1.27l3.36-4.59-3.64.16q-1.75.07-3,.07c-1,0-1.84,0-2.57.08s-79.44.1-80.16,0.15a0.74,0.74,0,0,1-.59-0.23,0.85,0.85,0,0,1-.2-0.58,0.74,0.74,0,0,1,.14-0.43,0.6,0.6,0,0,1,.41-0.24c0.41-.06,79.36-0.15,80.84-0.25s2.62-.15,3.41-0.15q0.83,0,2.6-.08t2.84-.08l-0.64-1.06q-0.41-.62-0.81-1.16a7.28,7.28,0,0,0-.79-0.91l-0.75-.73a0.49,0.49,0,0,1-.1-0.33,0.8,0.8,0,0,1,.23-0.56,0.76,0.76,0,0,1,.58-0.25,0.77,0.77,0,0,1,.58.27s0.26,0.24.7,0.62a5,5,0,0,1,.52.52c0.3,0.37.69,0.93,1.18,1.66l1.31,2,0.31,0.27A0.73,0.73,0,0,1,197.45,147.52Z" transform="translate(-14.5 -15.64)"/><path class="cls-1" d="M15.49,37.35a6.22,6.22,0,1,0,12.43,0V21.86a6.22,6.22,0,0,0-12.43,0V37.35Z" transform="translate(-14.5 -15.64)"/><line class="cls-2" y1="13.96" x2="15.2" y2="13.96"/><path class="cls-1" d="M32.94,37.35a6.22,6.22,0,1,0,12.43,0V21.86a6.22,6.22,0,0,0-12.43,0V37.35Z" transform="translate(-14.5 -15.64)"/><line class="cls-2" x1="17.45" y1="13.96" x2="32.65" y2="13.96"/><path class="cls-1" d="M50.37,37.35a6.22,6.22,0,1,0,12.43,0V21.86a6.22,6.22,0,0,0-12.43,0V37.35Z" transform="translate(-14.5 -15.64)"/><line class="cls-2" x1="34.89" y1="13.96" x2="50.08" y2="13.96"/><path class="cls-1" d="M67.83,37.35a6.22,6.22,0,1,0,12.43,0V21.86a6.22,6.22,0,0,0-12.43,0V37.35Z" transform="translate(-14.5 -15.64)"/><line class="cls-2" x1="52.34" y1="13.96" x2="67.54" y2="13.96"/><path class="cls-1" d="M223.95,54a6.22,6.22,0,1,0,12.43,0V38.54a6.22,6.22,0,0,0-12.43,0V54Z" transform="translate(-14.5 -15.64)"/><line class="cls-2" x1="208.46" y1="30.65" x2="223.66" y2="30.65"/><path class="cls-1" d="M241.4,54a6.22,6.22,0,0,0,12.43,0V38.54a6.22,6.22,0,0,0-12.43,0V54Z" transform="translate(-14.5 -15.64)"/><line class="cls-2" x1="225.92" y1="30.65" x2="241.11" y2="30.65"/><path class="cls-1" d="M258.84,54a6.22,6.22,0,1,0,12.43,0V38.54a6.22,6.22,0,0,0-12.43,0V54Z" transform="translate(-14.5 -15.64)"/><line class="cls-2" x1="243.35" y1="30.65" x2="258.55" y2="30.65"/><path class="cls-1" d="M276.29,54a6.22,6.22,0,0,0,12.43,0V38.54a6.22,6.22,0,0,0-12.43,0V54Z" transform="translate(-14.5 -15.64)"/><line class="cls-2" x1="260.8" y1="30.65" x2="276" y2="30.65"/><path class="cls-1" d="M15.89,148a6.22,6.22,0,1,0,12.43,0V132.54a6.22,6.22,0,0,0-12.43,0V148Z" transform="translate(-14.5 -15.64)"/><line class="cls-2" x1="0.4" y1="124.65" x2="15.6" y2="124.65"/><path class="cls-1" d="M33.34,148a6.22,6.22,0,1,0,12.43,0V132.54a6.22,6.22,0,0,0-12.43,0V148Z" transform="translate(-14.5 -15.64)"/><line class="cls-2" x1="17.86" y1="124.65" x2="33.05" y2="124.65"/><path class="cls-1" d="M50.77,148a6.22,6.22,0,1,0,12.43,0V132.54a6.22,6.22,0,0,0-12.43,0V148Z" transform="translate(-14.5 -15.64)"/><line class="cls-2" x1="35.29" y1="124.65" x2="50.49" y2="124.65"/><path class="cls-1" d="M68.23,148a6.22,6.22,0,1,0,12.43,0V132.54a6.22,6.22,0,0,0-12.43,0V148Z" transform="translate(-14.5 -15.64)"/><line class="cls-2" x1="52.74" y1="124.65" x2="67.94" y2="124.65"/><path class="cls-1" d="M238.5,153a6.22,6.22,0,1,0,12.43,0V137.5a6.22,6.22,0,0,0-12.43,0V153Z" transform="translate(-14.5 -15.64)"/><line class="cls-2" x1="223.01" y1="129.6" x2="238.21" y2="129.6"/><path class="cls-1" d="M256,153a6.22,6.22,0,1,0,12.43,0V137.5a6.22,6.22,0,0,0-12.43,0V153Z" transform="translate(-14.5 -15.64)"/><line class="cls-2" x1="240.46" y1="129.6" x2="255.66" y2="129.6"/><path class="cls-1" d="M15.49,69.88a6.22,6.22,0,1,0,12.43,0V54.4a6.22,6.22,0,0,0-12.43,0V69.88Z" transform="translate(-14.5 -15.64)"/><line class="cls-2" y1="46.5" x2="15.2" y2="46.5"/><path class="cls-1" d="M32.94,69.88a6.22,6.22,0,1,0,12.43,0V54.4a6.22,6.22,0,0,0-12.43,0V69.88Z" transform="translate(-14.5 -15.64)"/><line class="cls-2" x1="17.45" y1="46.5" x2="32.65" y2="46.5"/><path class="cls-1" d="M50.37,69.88a6.22,6.22,0,1,0,12.43,0V54.4a6.22,6.22,0,0,0-12.43,0V69.88Z" transform="translate(-14.5 -15.64)"/><line class="cls-2" x1="34.89" y1="46.5" x2="50.08" y2="46.5"/><path class="cls-1" d="M67.83,69.88a6.22,6.22,0,1,0,12.43,0V54.4a6.22,6.22,0,0,0-12.43,0V69.88Z" transform="translate(-14.5 -15.64)"/><line class="cls-2" x1="52.34" y1="46.5" x2="67.54" y2="46.5"/></svg>