<svg id="Stage_6" data-name="Stage 6" xmlns="http://www.w3.org/2000/svg" viewBox="0 0 65.66 645.61"><defs><style>.cls-1,.cls-10,.cls-11,.cls-12,.cls-13,.cls-3,.cls-4,.cls-8{fill:none;stroke-miterlimit:10;}.cls-1,.cls-8{stroke:#004d74;stroke-width:0.3px;}.cls-1{stroke-dasharray:5.22 2.61;}.cls-2,.cls-6{fill:#004d74;}.cls-10,.cls-3{stroke:#f4f8f8;}.cls-3{stroke-width:1.75px;}.cls-11,.cls-4{stroke:#010101;}.cls-4{stroke-width:1.05px;}.cls-5{fill:#fff;}.cls-6{fill-rule:evenodd;}.cls-7{fill:#b2d234;}.cls-8{stroke-dasharray:5.2 2.6;}.cls-9{fill:#024f75;}.cls-10{stroke-width:1.77px;}.cls-11{stroke-width:1.06px;}.cls-12,.cls-13{stroke:#024f75;}.cls-12{stroke-width:1.19px;}.cls-13{stroke-width:0.77px;}</style></defs><title>dosing</title><line class="cls-1" x1="32.9" y1="321.13" x2="32.9" y2="45.77"/><path class="cls-2" d="M63.52,182.78C63.52,171.35,53.87,162,42,162s-21.5,9.32-21.5,20.75S30.2,203.52,42,203.52s21.48-9.32,21.48-20.75" transform="translate(-9.12 -3.5)"/><path class="cls-2" d="M42,164.81c-10.25,0-18.61,8.07-18.61,18s8.36,18,18.61,18,18.59-8.06,18.59-18-8.35-18-18.59-18" transform="translate(-9.12 -3.5)"/><path class="cls-3" d="M42,164.81c-10.25,0-18.61,8.07-18.61,18s8.36,18,18.61,18,18.59-8.06,18.59-18S52.28,164.81,42,164.81Z" transform="translate(-9.12 -3.5)"/><path class="cls-4" d="M56,182.78a14,14,0,1,1-14-13.54A13.81,13.81,0,0,1,56,182.78Z" transform="translate(-9.12 -3.5)"/><path class="cls-5" d="M58.4,182.78A16.37,16.37,0,1,1,42,166.39,16.37,16.37,0,0,1,58.4,182.78" transform="translate(-9.12 -3.5)"/><path class="cls-6" d="M16.05,179.5a2.24,2.24,0,0,1-1.55,1.19c-0.78.13-.78,0.53-0.72,1.17,0.55,5.47,1.09,10.93,1.38,16.44,0,0.78,0,1.55.06,2.33a1.91,1.91,0,0,1-1,2,2.32,2.32,0,0,1-2.41-.11,1.82,1.82,0,0,1-.75-1.69,47.1,47.1,0,0,1,.21-5.43c0.36-4.55.88-9.1,1.47-13.64,0.07-.51,0-0.71-0.54-0.78a3.16,3.16,0,0,1-2.88-3.64,97,97,0,0,1,1-9.8c0-.11,0-0.23.06-0.34s0-.48.37-0.46,0.2,0.3.2,0.46c0,1.63,0,3.25-.05,4.88,0,1.19,0,2.38,0,3.57,0,0.39-.07.88,0.46,0.87s0.5-.49.5-0.88c0-2.75.06-5.5,0.11-8.25,0-.24-0.27-0.69.31-0.73s0.33,0.48.33,0.73c0,2.7-.05,5.4-0.08,8.11a3.5,3.5,0,0,0,0,.61,0.38,0.38,0,0,0,.41.35,0.45,0.45,0,0,0,.46-0.35,2.37,2.37,0,0,0,.06-0.61c0-2.75.06-5.5,0.12-8.25,0-.22-0.26-0.63.29-0.67s0.34,0.42.34,0.67c0,2.73-.06,5.45-0.09,8.18a2.67,2.67,0,0,0,0,.61,0.4,0.4,0,0,0,.5.32,0.44,0.44,0,0,0,.4-0.41c0-.27,0-0.55,0-0.82,0-2.68.06-5.36,0.1-8,0-.21-0.14-0.53.28-0.58s0.35,0.25.38,0.48a65.23,65.23,0,0,1,.76,10.71,3.47,3.47,0,0,1-.49,1.85" transform="translate(-9.12 -3.5)"/><path class="cls-6" d="M72.85,197.49a10.52,10.52,0,0,1-.22,2.83,1.66,1.66,0,0,1-3.24-.08,12.37,12.37,0,0,1-.11-4.09c0.35-4.61.7-9.22,0.84-13.84a4.52,4.52,0,0,0-1.2-3.34c-2-2.25-1.93-4.82-1-7.45a3.28,3.28,0,0,1,6.13-.08c1,2.59,1.13,5.17-.84,7.38a5.58,5.58,0,0,0-1.31,4.29c0.22,4.86.58,9.7,0.92,14.39" transform="translate(-9.12 -3.5)"/><path class="cls-2" d="M44,177.4a3.78,3.78,0,0,1-4.82,2.24A4,4,0,1,1,44,177.4" transform="translate(-9.12 -3.5)"/><path class="cls-2" d="M44.08,182a6.37,6.37,0,1,1-2.29-8.67A6.33,6.33,0,0,1,44.08,182" transform="translate(-9.12 -3.5)"/><path class="cls-2" d="M40.12,183.41a3.78,3.78,0,0,1-4.82,2.24,4,4,0,1,1,4.82-2.24" transform="translate(-9.12 -3.5)"/><path class="cls-2" d="M35.92,181.55a3.78,3.78,0,0,1-4.82,2.24,4,4,0,1,1,4.82-2.24" transform="translate(-9.12 -3.5)"/><path class="cls-6" d="M47.71,179.49c-0.06-.27.08-0.56,0-0.85l-0.08-.4s-0.09-.26-0.13-0.34c-0.09-.24-0.19-0.49-0.3-0.72a1,1,0,0,1,1.19-1.34A6.9,6.9,0,0,1,52,178.49a0.58,0.58,0,0,0,.12.18,2.82,2.82,0,0,1,1,2,4.93,4.93,0,0,0,.41,1.24,3,3,0,0,1,.14,1.73,2.37,2.37,0,0,1-.06.44,1.25,1.25,0,0,0,.06.85,1.09,1.09,0,0,1,0,.68,9,9,0,0,1-.32,1.86,2,2,0,0,0-.09.58,1.47,1.47,0,0,1-.07.49A3.45,3.45,0,0,1,51.12,191a0.77,0.77,0,0,1-.55.07h0a12,12,0,0,1-2.2.91,1,1,0,0,1-.39.1,9.57,9.57,0,0,1-2.27.51,5.66,5.66,0,0,1-1.69.07,7.51,7.51,0,0,1-1-.14c-0.31,0-.67-0.25-1-0.29a0.94,0.94,0,0,1-.53-0.19,10.2,10.2,0,0,0-1.49-.92,7,7,0,0,1-2.37-2.61,0.91,0.91,0,0,1,.09-1.06,0.92,0.92,0,0,1,1-.31c0.25,0.07.51,0.13,0.76,0.17a1.53,1.53,0,0,0,.52,0h0.22c0.29,0,.5,0,0.79,0a1,1,0,0,0,.63-0.26,2.13,2.13,0,0,1,.38-0.18l0.6-.18a3.69,3.69,0,0,0,1.79-1.26c0.78-1,1.63-2,2.46-2.93a0.93,0.93,0,0,0,.18-0.36,8.19,8.19,0,0,0,.44-1.81,1,1,0,0,1,.09-0.35,2.15,2.15,0,0,0,.06-0.48" transform="translate(-9.12 -3.5)"/><path class="cls-7" d="M42,12.56a9.67,9.67,0,1,0,9.67,9.67A9.69,9.69,0,0,0,42,12.56" transform="translate(-9.12 -3.5)"/><path class="cls-7" d="M42,10.76a1.17,1.17,0,0,1-1.17-1.17V4.67a1.17,1.17,0,0,1,2.35,0V9.59A1.17,1.17,0,0,1,42,10.76" transform="translate(-9.12 -3.5)"/><path class="cls-7" d="M28.69,36.75a1.17,1.17,0,0,1-.83-2l3.47-3.47A1.17,1.17,0,0,1,33,32.93l-3.47,3.47a1.17,1.17,0,0,1-.83.34" transform="translate(-9.12 -3.5)"/><path class="cls-7" d="M51.88,13.53a1.17,1.17,0,0,1-.83-2l3.47-3.47a1.17,1.17,0,0,1,1.66,1.66l-3.47,3.47a1.17,1.17,0,0,1-.83.34" transform="translate(-9.12 -3.5)"/><path class="cls-7" d="M32.17,13.53a1.17,1.17,0,0,1-.83-0.34L27.87,9.72a1.17,1.17,0,0,1,1.66-1.66L33,11.53a1.17,1.17,0,0,1-.83,2" transform="translate(-9.12 -3.5)"/><path class="cls-7" d="M55.35,36.75a1.17,1.17,0,0,1-.83-0.34L51,32.93a1.17,1.17,0,0,1,1.66-1.66l3.47,3.47a1.17,1.17,0,0,1-.83,2" transform="translate(-9.12 -3.5)"/><path class="cls-7" d="M54.65,22.57a1.17,1.17,0,1,1,0-2.35h4.91a1.17,1.17,0,1,1,0,2.35H54.65Z" transform="translate(-9.12 -3.5)"/><path class="cls-7" d="M24.48,22.57a1.17,1.17,0,1,1,0-2.35h4.91a1.17,1.17,0,1,1,0,2.35H24.48Z" transform="translate(-9.12 -3.5)"/><path class="cls-7" d="M42,41a1.17,1.17,0,0,1-1.17-1.17V34.88a1.17,1.17,0,0,1,2.35,0V39.8A1.17,1.17,0,0,1,42,41" transform="translate(-9.12 -3.5)"/><line class="cls-8" x1="32.76" y1="645.61" x2="32.76" y2="372.5"/><path class="cls-2" d="M47.73,353.52a8,8,0,0,1-7.88-8,7.91,7.91,0,0,1,2.4-5.7l1.28-1.25-1.74-.4A11,11,0,1,0,48.53,355l1-1.49Z" transform="translate(-9.12 -3.5)"/><path class="cls-2" d="M48,342.75L47.57,342a0.11,0.11,0,0,1,0-.1l0.36-.81a0.11,0.11,0,0,0-.12-0.15l-0.87.21a0.11,0.11,0,0,1-.1,0l-0.66-.6a0.11,0.11,0,0,0-.18.07l-0.07.89a0.11,0.11,0,0,1-.05.08l-0.77.44a0.11,0.11,0,0,0,0,.19l0.82,0.34a0.11,0.11,0,0,1,.06.08l0.18,0.87a0.11,0.11,0,0,0,.19,0l0.58-.68a0.11,0.11,0,0,1,.09,0l0.89,0.09a0.11,0.11,0,0,0,.1-0.16" transform="translate(-9.12 -3.5)"/><path class="cls-2" d="M55.58,338.37L55,337.46a0.13,0.13,0,0,1,0-.12l0.44-1a0.13,0.13,0,0,0-.15-0.18l-1,.25a0.13,0.13,0,0,1-.12,0l-0.79-.72a0.13,0.13,0,0,0-.21.08l-0.08,1.07a0.13,0.13,0,0,1-.06.1l-0.93.53a0.13,0.13,0,0,0,0,.23l1,0.41a0.13,0.13,0,0,1,.08.09l0.22,1a0.13,0.13,0,0,0,.22.06l0.7-.81a0.13,0.13,0,0,1,.11,0l1.06,0.11a0.13,0.13,0,0,0,.12-0.19" transform="translate(-9.12 -3.5)"/><path class="cls-2" d="M56.54,347.36L55.68,346a0.2,0.2,0,0,1,0-.18l0.67-1.5a0.2,0.2,0,0,0-.23-0.27l-1.6.38a0.2,0.2,0,0,1-.18,0l-1.22-1.1a0.2,0.2,0,0,0-.33.13L52.66,345a0.2,0.2,0,0,1-.1.16l-1.42.82a0.2,0.2,0,0,0,0,.35L52.67,347a0.2,0.2,0,0,1,.12.14l0.34,1.61a0.2,0.2,0,0,0,.34.09l1.07-1.25a0.2,0.2,0,0,1,.17-0.07l1.63,0.17a0.2,0.2,0,0,0,.19-0.3" transform="translate(-9.12 -3.5)"/><path class="cls-2" d="M66.08,508.14c0-12.26-10.36-22.27-23.05-22.27S20,495.88,20,508.14,30.32,530.41,43,530.41s23.05-10,23.05-22.27" transform="translate(-9.12 -3.5)"/><path class="cls-9" d="M43,488.86c-11,0-20,8.67-20,19.29s9,19.27,20,19.27,20-8.66,20-19.27-9-19.29-20-19.29" transform="translate(-9.12 -3.5)"/><path class="cls-10" d="M43,488.86c-11,0-20,8.67-20,19.29s9,19.27,20,19.27,20-8.66,20-19.27S54,488.86,43,488.86Z" transform="translate(-9.12 -3.5)"/><path class="cls-11" d="M58.06,508.14a14.82,14.82,0,0,1-15,14.52c-8.28,0-15-6.52-15-14.52a14.83,14.83,0,0,1,15-14.53A14.82,14.82,0,0,1,58.06,508.14Z" transform="translate(-9.12 -3.5)"/><path class="cls-5" d="M60.59,508.14A17.57,17.57,0,1,1,43,490.56a17.57,17.57,0,0,1,17.57,17.58" transform="translate(-9.12 -3.5)"/><path class="cls-6" d="M16.25,504.56a2.38,2.38,0,0,1-1.68,1.21c-0.83.11-.84,0.54-0.8,1.22,0.4,5.81.79,11.62,0.92,17.46,0,0.82,0,1.65,0,2.47a2,2,0,0,1-1.17,2,2.46,2.46,0,0,1-2.55-.2,1.93,1.93,0,0,1-.74-1.82,50,50,0,0,1,.4-5.74c0.53-4.81,1.24-9.61,2-14.41,0.09-.54.08-0.75-0.55-0.84a3.35,3.35,0,0,1-2.93-4,101.91,101.91,0,0,1,1.39-10.35c0-.12.06-0.24,0.07-0.36s0.06-.5.41-0.48,0.2,0.32.19,0.49c-0.06,1.72-.14,3.44-0.22,5.17-0.05,1.26-.1,2.52-0.16,3.79,0,0.42-.1.93,0.46,0.94s0.54-.5.56-0.92c0.12-2.91.24-5.82,0.39-8.74,0-.25-0.27-0.74.35-0.76s0.33,0.52.32,0.78c-0.1,2.86-.23,5.73-0.35,8.59a3.54,3.54,0,0,0,0,.65,0.4,0.4,0,0,0,.42.38,0.48,0.48,0,0,0,.5-0.35,2.45,2.45,0,0,0,.08-0.64c0.13-2.91.25-5.82,0.39-8.74,0-.23-0.25-0.67.34-0.7s0.35,0.46.34,0.72c-0.1,2.89-.24,5.78-0.36,8.66a2.79,2.79,0,0,0,0,.65,0.43,0.43,0,0,0,.52.36,0.46,0.46,0,0,0,.43-0.43c0-.29,0-0.58.05-0.87,0.13-2.84.24-5.68,0.38-8.52,0-.22-0.13-0.56.31-0.6s0.36,0.28.39,0.52a69.46,69.46,0,0,1,.45,11.38,3.67,3.67,0,0,1-.58,1.94" transform="translate(-9.12 -3.5)"/><path class="cls-6" d="M71.21,491.85c0.3-.38.47-1,1-0.9a1,1,0,0,1,.62,1.17,72,72,0,0,1,.28,10c0,2,0,4-.14,6a49.22,49.22,0,0,0,.64,11.73,79.18,79.18,0,0,1,1,8.79,1.87,1.87,0,0,1-1.15,2.14,2.61,2.61,0,0,1-2.8-.57,1.75,1.75,0,0,1-.4-1,38,38,0,0,1-.09-6.26c0.15-3.34.36-6.68,0.57-10a1,1,0,0,0-.44-1.08,1.39,1.39,0,0,1-.61-1.2c-0.27-3.21-.57-6.43-0.53-9.65A21.52,21.52,0,0,1,71,492.24l0.18-.39" transform="translate(-9.12 -3.5)"/><path class="cls-2" d="M45.87,506a6.75,6.75,0,1,1-4.24-8.51A6.72,6.72,0,0,1,45.87,506" transform="translate(-9.12 -3.5)"/><path class="cls-9" d="M42.06,508.37a4,4,0,0,1-4.53,3.36,4.28,4.28,0,0,1,1.79-8.29,4,4,0,0,1,2.74,4.93" transform="translate(-9.12 -3.5)"/><path class="cls-2" d="M41.17,512.51c-0.49,2.29-3,3.69-5.65,3.12s-4.36-2.88-3.87-5.18,3-3.69,5.65-3.12,4.36,2.88,3.87,5.17" transform="translate(-9.12 -3.5)"/><path class="cls-2" d="M37.3,507.34a4,4,0,0,1-4.53,3.36,4.28,4.28,0,0,1,1.79-8.29,4,4,0,0,1,2.74,4.93" transform="translate(-9.12 -3.5)"/><path class="cls-2" d="M51.8,504l1.49,0.6s2.11,8.14.69,11.67c-0.69,1.72-2.59,4.61-6.82,2.9-4.07-1.64-3.42-4.9-3-6.66,1.18-4.52,7.61-8.5,7.61-8.5" transform="translate(-9.12 -3.5)"/><path class="cls-12" d="M51.8,504l1.49,0.6s2.11,8.14.69,11.67c-0.69,1.72-2.59,4.61-6.82,2.9-4.07-1.64-3.42-4.9-3-6.66C45.38,507.94,51.8,504,51.8,504Z" transform="translate(-9.12 -3.5)"/><path class="cls-2" d="M51.16,508.25L50,507.82S48,502.93,48.76,501c0.38-1,1.55-2.54,4.71-1.29s2.8,3.07,2.59,4.07c-0.54,2.57-4.89,4.52-4.89,4.52" transform="translate(-9.12 -3.5)"/><path class="cls-13" d="M51.16,508.25L50,507.82S48,502.93,48.76,501c0.38-1,1.55-2.54,4.71-1.29s2.8,3.07,2.59,4.07C55.51,506.31,51.16,508.25,51.16,508.25Z" transform="translate(-9.12 -3.5)"/></svg>