<?xml version="1.0" encoding="utf-8"?>
<!-- Generator: Adobe Illustrator 21.0.0, SVG Export Plug-In . SVG Version: 6.00 Build 0)  -->
<svg version="1.1" id="Layer_1" xmlns="http://www.w3.org/2000/svg" xmlns:xlink="http://www.w3.org/1999/xlink" x="0px" y="0px"
	 viewBox="0 0 1837 829" style="enable-background:new 0 0 1837 829;" xml:space="preserve">
<style type="text/css">
	.st0{fill:#2E2E2E;}
	.st1{fill:none;stroke:#2E2E2E;stroke-width:1.0003;stroke-miterlimit:10;}
	.st2{fill:#FF4D00;}
	.st3{fill:#008DAA;}
</style>
<g>
	<path class="st0" d="M19.4,481.8c6.5,0.4,10.2,3.4,10.2,8.5c0,5.8-4.5,9.1-14.8,9.1S0,496.1,0,490.3c0-5.8,4.1-8.2,8.8-8.2v2.6
		c-3.9,0-6.6,2-6.6,5.6c0,4.1,3.4,6.6,12.6,6.6s12.6-2.5,12.6-6.6c0-3.6-3.1-5.6-8-5.9V481.8z"/>
	<path class="st0" d="M7.3,472c0-4.7,3.7-7.3,11.1-7.3c7.4,0,11.1,2.6,11.1,7.3s-3.7,7.3-11.1,7.3C11,479.4,7.3,476.7,7.3,472z
		 M27.5,472c0-2.7-2.3-4.8-9.1-4.8c-6.8,0-9.1,2.1-9.1,4.8c0,2.7,2.3,4.8,9.1,4.8C25.2,476.8,27.5,474.7,27.5,472z"/>
	<path class="st0" d="M7.8,464v-2.6l18.5-4.7v-0.1l-18.5-4.3v-2.6l21.2,5.6v2.7L7.8,464z"/>
	<path class="st0" d="M22,434.9c4.5,0.4,7.5,2.8,7.5,6.8c0,4.5-3.1,7.1-11.1,7.1c-7.4,0-11.1-2.6-11.1-7.3c0-4.7,3.2-6.8,10.3-6.8
		h0.9v11.6h1c6.1,0,8-2.2,8-4.5c0-2.5-1.8-4.1-5.5-4.5V434.9z M16.5,437.3c-5.3,0.1-7.2,1.6-7.2,4.5c0,3,1.9,4.4,7.2,4.5V437.3z"/>
	<path class="st0" d="M7.8,431.7v-2.4h3.3v-0.1c-2.4-0.9-3.8-2.9-3.8-5.4c0-0.3,0-0.6,0.1-0.8h2.4c-0.1,0.4-0.1,0.8-0.1,1.2
		c0,2.6,1.9,5.1,6,5.1H29v2.4H7.8z"/>
	<path class="st0" d="M14.1,421.5c-4.4,0-6.8-2.1-6.8-6.6c0-4.4,2.3-6,5.6-6h12.6c1.2,0,1.8-0.4,1.8-1.2V407H29
		c0.2,0.4,0.2,0.8,0.2,1.1c0,1.9-0.4,3.1-2.6,3.1h-0.7v0.1c2.8,1,3.6,3.1,3.6,5.5c0,3.7-2.3,5.4-6,5.4c-2.8,0-5-1.3-5.9-4.3
		l-1.3-4.5c-0.5-1.7-0.9-2-3.4-2c-2.7,0-3.7,1.5-3.7,3.7c0,2.8,1.7,4.1,4.8,4.1V421.5z M17,411.3L17,411.3c0.7,0.3,1.2,1.7,1.4,2.6
		l0.5,2c0.6,2.4,1.9,3.6,4.4,3.6c2.5,0,4.2-1.3,4.2-3.4c0-2.9-2.2-4.9-6-4.9H17z"/>
	<path class="st0" d="M7.8,393.9v-2.2h19.7c5.9,0,8.9,2.2,8.9,7c0,4.1-2.2,6.3-5.2,6.3v-2.4c2,0,3.2-1.9,3.2-4c0-2.9-2-4.5-5.8-4.5
		h-3.4v0.1c2.6,0.8,3.8,2.8,3.8,5c0,3.3-2.2,6.6-10.6,6.6c-7.3,0-11.1-2.1-11.1-6.8c0-2.3,1.4-4.2,3.8-5v-0.1H7.8z M27,398.6
		c0-2.8-2.1-4.5-8.9-4.5c-6.8,0-8.8,1.7-8.8,4.5c0,2.8,2.1,4.5,8.8,4.5C25,403.2,27,401.5,27,398.6z"/>
	<path class="st0" d="M22,374.6c4.5,0.4,7.5,2.8,7.5,6.8c0,4.5-3.1,7.1-11.1,7.1c-7.4,0-11.1-2.6-11.1-7.3c0-4.7,3.2-6.8,10.3-6.8
		h0.9V386h1c6.1,0,8-2.2,8-4.5c0-2.5-1.8-4.1-5.5-4.5V374.6z M16.5,377c-5.3,0.1-7.2,1.6-7.2,4.5c0,3,1.9,4.4,7.2,4.5V377z"/>
	<path class="st0" d="M0.5,361.1v-8.5c0-4.8,2.7-7.4,7.2-7.4c3.4,0,6.5,1.4,7.2,5.2H15c0.3-3.6,2.4-4.8,6.8-4.9l3.1-0.1
		c1.6,0,3.1-0.2,4.2-1.2v3c-1,0.6-2.5,0.7-4,0.8l-2.4,0.1c-5,0.2-6.6,1.1-6.6,5.7v4.8h13v2.6H0.5z M13.8,358.6v-4.4
		c0-4-1.8-6.4-5.6-6.4c-3.5,0-5.6,1.5-5.6,6.1v4.7H13.8z"/>
	<path class="st0" d="M14.1,341.7c-4.4,0-6.8-2.1-6.8-6.6c0-4.4,2.3-6,5.6-6h12.6c1.2,0,1.8-0.4,1.8-1.2v-0.7H29
		c0.2,0.4,0.2,0.8,0.2,1.1c0,1.9-0.4,3.1-2.6,3.1h-0.7v0.1c2.8,1,3.6,3.1,3.6,5.5c0,3.7-2.3,5.4-6,5.4c-2.8,0-5-1.3-5.9-4.3
		l-1.3-4.5c-0.5-1.7-0.9-2-3.4-2c-2.7,0-3.7,1.5-3.7,3.7c0,2.8,1.7,4.1,4.8,4.1V341.7z M17,331.5L17,331.5c0.7,0.3,1.2,1.7,1.4,2.6
		l0.5,2c0.6,2.4,1.9,3.6,4.4,3.6c2.5,0,4.2-1.3,4.2-3.4c0-2.9-2.2-4.9-6-4.9H17z"/>
	<path class="st0" d="M9.8,324.1v2.9h-2v-2.9H1.9v-2.4h5.9v-3.8h2v3.8H25c1.7,0,2.2-0.7,2.2-2.3c0-0.5-0.1-1-0.2-1.5h2
		c0.2,0.3,0.2,0.9,0.2,1.7c0,3.2-0.9,4.5-3.7,4.5H9.8z"/>
	<path class="st0" d="M22,303c4.5,0.4,7.5,2.8,7.5,6.8c0,4.5-3.1,7.1-11.1,7.1c-7.4,0-11.1-2.6-11.1-7.3c0-4.7,3.2-6.8,10.3-6.8h0.9
		v11.6h1c6.1,0,8-2.2,8-4.5c0-2.5-1.8-4.1-5.5-4.5V303z M16.5,305.3c-5.3,0.1-7.2,1.6-7.2,4.5c0,3,1.9,4.4,7.2,4.5V305.3z"/>
	<path class="st0" d="M18.5,296.2c-1.2,3-2.9,4.1-5,4.1c-4.4,0-6.1-2.7-6.1-6.3c0-4,2-5.8,5.9-5.8h0.6v2.4h-0.6
		c-2.8,0-3.9,1.3-3.9,3.5c0,2.8,1.5,3.9,3.6,3.9c1.5,0,2.6-0.5,3.6-2.9l1.3-3.5c1.1-2.9,3.1-4,5.4-4c3.6,0,6.3,2.1,6.3,6.6
		c0,4.4-1.8,6.5-6.6,6.5h-0.7v-2.4h0.6c3.1,0,4.7-1.4,4.7-4.1c0-2.6-1.4-4.2-3.8-4.2c-1.9,0-3.1,0.8-3.9,2.9L18.5,296.2z"/>
	<path class="st0" d="M0.5,267.5c5.4,3.1,11.7,4.6,18,4.6c6.3,0,12.5-1.5,18-4.6v1.7c-6.4,3.9-12.4,5.3-18,5.3
		c-5.6,0-11.6-1.4-18-5.3V267.5z"/>
	<path class="st0" d="M0.7,247.8v-2l28.8,12.3v2L0.7,247.8z M0.7,260.2c0-3.2,1.6-5,7.4-5c5.8,0,7.4,1.8,7.4,5c0,3.2-1.6,5-7.4,5
		C2.3,265.2,0.7,263.4,0.7,260.2z M13.7,260.2c0-1.7-1.3-2.9-5.6-2.9c-4.2,0-5.6,1.2-5.6,2.9c0,1.7,1.4,2.9,5.6,2.9
		C12.4,263.1,13.7,261.9,13.7,260.2z M14.8,245.6c0-3.2,1.6-5,7.4-5s7.4,1.8,7.4,5c0,3.2-1.6,5-7.4,5S14.8,248.8,14.8,245.6z
		 M27.8,245.6c0-1.7-1.3-2.9-5.6-2.9c-4.2,0-5.6,1.2-5.6,2.9c0,1.7,1.4,2.9,5.6,2.9C26.4,248.5,27.8,247.3,27.8,245.6z"/>
	<path class="st0" d="M36.4,238.4c-5.4-3.1-11.7-4.6-18-4.6c-6.3,0-12.5,1.5-18,4.6v-1.7c6.4-3.9,12.4-5.3,18-5.3
		c5.6,0,11.6,1.4,18,5.3V238.4z"/>
</g>
<line class="st1" x1="143.1" y1="10" x2="160.1" y2="10"/>
<line class="st1" x1="160.1" y1="10" x2="241.1" y2="10"/>
<line class="st1" x1="241.1" y1="10" x2="454.2" y2="10"/>
<line class="st1" x1="454.2" y1="10" x2="494.2" y2="10"/>
<line class="st1" x1="494.2" y1="10" x2="784.2" y2="10"/>
<line class="st1" x1="784.2" y1="10" x2="828.3" y2="10"/>
<line class="st1" x1="828.3" y1="10" x2="1114.3" y2="10"/>
<line class="st1" x1="1114.3" y1="10" x2="1158.3" y2="10"/>
<line class="st1" x1="1158.3" y1="10" x2="1191.4" y2="10"/>
<line class="st1" x1="1191.4" y1="10" x2="1448.4" y2="10"/>
<line class="st1" x1="1448.4" y1="10" x2="1486.4" y2="10"/>
<line class="st1" x1="1486.4" y1="10" x2="1778.5" y2="10"/>
<line class="st1" x1="1778.5" y1="10" x2="1801" y2="10"/>
<line class="st1" x1="143.1" y1="81.4" x2="160.1" y2="81.4"/>
<line class="st1" x1="160.1" y1="81.4" x2="241.1" y2="81.4"/>
<line class="st1" x1="241.1" y1="81.4" x2="454.2" y2="81.4"/>
<line class="st1" x1="454.2" y1="81.4" x2="494.2" y2="81.4"/>
<line class="st1" x1="494.2" y1="81.4" x2="784.2" y2="81.4"/>
<line class="st1" x1="784.2" y1="81.4" x2="828.3" y2="81.4"/>
<line class="st1" x1="828.3" y1="81.4" x2="1114.3" y2="81.4"/>
<line class="st1" x1="1114.3" y1="81.4" x2="1158.3" y2="81.4"/>
<line class="st1" x1="1158.3" y1="81.4" x2="1191.4" y2="81.4"/>
<line class="st1" x1="1191.4" y1="81.4" x2="1448.4" y2="81.4"/>
<line class="st1" x1="1448.4" y1="81.4" x2="1486.4" y2="81.4"/>
<line class="st1" x1="1486.4" y1="81.4" x2="1778.5" y2="81.4"/>
<line class="st1" x1="1778.5" y1="81.4" x2="1801" y2="81.4"/>
<line class="st1" x1="143.1" y1="152.8" x2="160.1" y2="152.8"/>
<line class="st1" x1="160.1" y1="152.8" x2="241.1" y2="152.8"/>
<line class="st1" x1="241.1" y1="152.8" x2="454.2" y2="152.8"/>
<line class="st1" x1="454.2" y1="152.8" x2="494.2" y2="152.8"/>
<line class="st1" x1="494.2" y1="152.8" x2="784.2" y2="152.8"/>
<line class="st1" x1="784.2" y1="152.8" x2="828.3" y2="152.8"/>
<line class="st1" x1="828.3" y1="152.8" x2="1114.3" y2="152.8"/>
<line class="st1" x1="1114.3" y1="152.8" x2="1158.3" y2="152.8"/>
<line class="st1" x1="1158.3" y1="152.8" x2="1191.4" y2="152.8"/>
<line class="st1" x1="1191.4" y1="152.8" x2="1448.4" y2="152.8"/>
<line class="st1" x1="1448.4" y1="152.8" x2="1486.4" y2="152.8"/>
<line class="st1" x1="1486.4" y1="152.8" x2="1778.5" y2="152.8"/>
<line class="st1" x1="1778.5" y1="152.8" x2="1801" y2="152.8"/>
<line class="st1" x1="143.1" y1="224.3" x2="160.1" y2="224.3"/>
<line class="st1" x1="160.1" y1="224.3" x2="241.1" y2="224.3"/>
<line class="st1" x1="241.1" y1="224.3" x2="454.2" y2="224.3"/>
<line class="st1" x1="454.2" y1="224.3" x2="494.2" y2="224.3"/>
<line class="st1" x1="494.2" y1="224.3" x2="784.2" y2="224.3"/>
<line class="st1" x1="784.2" y1="224.3" x2="828.3" y2="224.3"/>
<line class="st1" x1="828.3" y1="224.3" x2="1114.3" y2="224.3"/>
<line class="st1" x1="1114.3" y1="224.3" x2="1158.3" y2="224.3"/>
<line class="st1" x1="1158.3" y1="224.3" x2="1191.4" y2="224.3"/>
<line class="st1" x1="1191.4" y1="224.3" x2="1448.4" y2="224.3"/>
<line class="st1" x1="1448.4" y1="224.3" x2="1486.4" y2="224.3"/>
<line class="st1" x1="1486.4" y1="224.3" x2="1778.5" y2="224.3"/>
<line class="st1" x1="1778.5" y1="224.3" x2="1801" y2="224.3"/>
<line class="st1" x1="143.1" y1="295.7" x2="160.1" y2="295.7"/>
<line class="st1" x1="160.1" y1="295.7" x2="241.1" y2="295.7"/>
<line class="st1" x1="241.1" y1="295.7" x2="454.2" y2="295.7"/>
<line class="st1" x1="454.2" y1="295.7" x2="494.2" y2="295.7"/>
<line class="st1" x1="494.2" y1="295.7" x2="784.2" y2="295.7"/>
<line class="st1" x1="784.2" y1="295.7" x2="828.3" y2="295.7"/>
<line class="st1" x1="828.3" y1="295.7" x2="1114.3" y2="295.7"/>
<line class="st1" x1="1114.3" y1="295.7" x2="1158.3" y2="295.7"/>
<line class="st1" x1="1158.3" y1="295.7" x2="1191.4" y2="295.7"/>
<line class="st1" x1="1191.4" y1="295.7" x2="1448.4" y2="295.7"/>
<line class="st1" x1="1448.4" y1="295.7" x2="1486.4" y2="295.7"/>
<line class="st1" x1="1486.4" y1="295.7" x2="1778.5" y2="295.7"/>
<line class="st1" x1="1778.5" y1="295.7" x2="1801" y2="295.7"/>
<line class="st1" x1="143.1" y1="367.1" x2="160.1" y2="367.1"/>
<line class="st1" x1="160.1" y1="367.1" x2="241.1" y2="367.1"/>
<line class="st1" x1="241.1" y1="367.1" x2="454.2" y2="367.1"/>
<line class="st1" x1="454.2" y1="367.1" x2="494.2" y2="367.1"/>
<line class="st1" x1="494.2" y1="367.1" x2="784.2" y2="367.1"/>
<line class="st1" x1="784.2" y1="367.1" x2="828.3" y2="367.1"/>
<line class="st1" x1="828.3" y1="367.1" x2="1114.3" y2="367.1"/>
<line class="st1" x1="1114.3" y1="367.1" x2="1158.3" y2="367.1"/>
<line class="st1" x1="1158.3" y1="367.1" x2="1191.4" y2="367.1"/>
<line class="st1" x1="1191.4" y1="367.1" x2="1448.4" y2="367.1"/>
<line class="st1" x1="1448.4" y1="367.1" x2="1486.4" y2="367.1"/>
<line class="st1" x1="1486.4" y1="367.1" x2="1778.5" y2="367.1"/>
<line class="st1" x1="1778.5" y1="367.1" x2="1801" y2="367.1"/>
<line class="st1" x1="143.1" y1="438.5" x2="160.1" y2="438.5"/>
<line class="st1" x1="160.1" y1="438.5" x2="241.1" y2="438.5"/>
<line class="st1" x1="241.1" y1="438.5" x2="454.2" y2="438.5"/>
<line class="st1" x1="454.2" y1="438.5" x2="494.2" y2="438.5"/>
<line class="st1" x1="494.2" y1="438.5" x2="784.2" y2="438.5"/>
<line class="st1" x1="784.2" y1="438.5" x2="828.3" y2="438.5"/>
<line class="st1" x1="828.3" y1="438.5" x2="1114.3" y2="438.5"/>
<line class="st1" x1="1114.3" y1="438.5" x2="1158.3" y2="438.5"/>
<line class="st1" x1="1158.3" y1="438.5" x2="1191.4" y2="438.5"/>
<line class="st1" x1="1191.4" y1="438.5" x2="1448.4" y2="438.5"/>
<line class="st1" x1="1448.4" y1="438.5" x2="1486.4" y2="438.5"/>
<line class="st1" x1="1486.4" y1="438.5" x2="1778.5" y2="438.5"/>
<line class="st1" x1="1778.5" y1="438.5" x2="1801" y2="438.5"/>
<line class="st1" x1="143.1" y1="510" x2="160.1" y2="510"/>
<line class="st1" x1="160.1" y1="510" x2="241.1" y2="510"/>
<line class="st1" x1="241.1" y1="510" x2="454.2" y2="510"/>
<line class="st1" x1="454.2" y1="510" x2="494.2" y2="510"/>
<line class="st1" x1="494.2" y1="510" x2="784.2" y2="510"/>
<line class="st1" x1="784.2" y1="510" x2="828.3" y2="510"/>
<line class="st1" x1="828.3" y1="510" x2="1114.3" y2="510"/>
<line class="st1" x1="1114.3" y1="510" x2="1158.3" y2="510"/>
<line class="st1" x1="1158.3" y1="510" x2="1191.4" y2="510"/>
<line class="st1" x1="1191.4" y1="510" x2="1448.4" y2="510"/>
<line class="st1" x1="1448.4" y1="510" x2="1486.4" y2="510"/>
<line class="st1" x1="1486.4" y1="510" x2="1778.5" y2="510"/>
<line class="st1" x1="1778.5" y1="510" x2="1801" y2="510"/>
<line class="st1" x1="143.1" y1="581.4" x2="160.1" y2="581.4"/>
<line class="st1" x1="160.1" y1="581.4" x2="241.1" y2="581.4"/>
<line class="st1" x1="241.1" y1="581.4" x2="454.2" y2="581.4"/>
<line class="st1" x1="454.2" y1="581.4" x2="494.2" y2="581.4"/>
<line class="st1" x1="494.2" y1="581.4" x2="784.2" y2="581.4"/>
<line class="st1" x1="784.2" y1="581.4" x2="828.3" y2="581.4"/>
<line class="st1" x1="828.3" y1="581.4" x2="1114.3" y2="581.4"/>
<line class="st1" x1="1114.3" y1="581.4" x2="1158.3" y2="581.4"/>
<line class="st1" x1="1158.3" y1="581.4" x2="1191.4" y2="581.4"/>
<line class="st1" x1="1191.4" y1="581.4" x2="1448.4" y2="581.4"/>
<line class="st1" x1="1448.4" y1="581.4" x2="1486.4" y2="581.4"/>
<line class="st1" x1="1486.4" y1="581.4" x2="1778.5" y2="581.4"/>
<line class="st1" x1="1778.5" y1="581.4" x2="1801" y2="581.4"/>
<line class="st1" x1="143.1" y1="652.8" x2="160.1" y2="652.8"/>
<line class="st1" x1="160.1" y1="652.8" x2="241.1" y2="652.8"/>
<line class="st1" x1="241.1" y1="652.8" x2="454.2" y2="652.8"/>
<line class="st1" x1="454.2" y1="652.8" x2="494.2" y2="652.8"/>
<line class="st1" x1="494.2" y1="652.8" x2="784.2" y2="652.8"/>
<line class="st1" x1="784.2" y1="652.8" x2="828.3" y2="652.8"/>
<line class="st1" x1="828.3" y1="652.8" x2="1114.3" y2="652.8"/>
<line class="st1" x1="1114.3" y1="652.8" x2="1158.3" y2="652.8"/>
<line class="st1" x1="1158.3" y1="652.8" x2="1191.4" y2="652.8"/>
<line class="st1" x1="1191.4" y1="652.8" x2="1448.4" y2="652.8"/>
<line class="st1" x1="1448.4" y1="652.8" x2="1486.4" y2="652.8"/>
<line class="st1" x1="1486.4" y1="652.8" x2="1778.5" y2="652.8"/>
<line class="st1" x1="1778.5" y1="652.8" x2="1801" y2="652.8"/>
<line class="st1" x1="143.1" y1="724.2" x2="160.1" y2="724.2"/>
<line class="st1" x1="160.1" y1="724.2" x2="241.1" y2="724.2"/>
<line class="st1" x1="241.1" y1="724.2" x2="454.2" y2="724.2"/>
<line class="st1" x1="454.2" y1="724.2" x2="494.2" y2="724.2"/>
<line class="st1" x1="494.2" y1="724.2" x2="784.2" y2="724.2"/>
<line class="st1" x1="784.2" y1="724.2" x2="828.3" y2="724.2"/>
<line class="st1" x1="828.3" y1="724.2" x2="1114.3" y2="724.2"/>
<line class="st1" x1="1114.3" y1="724.2" x2="1158.3" y2="724.2"/>
<line class="st1" x1="1158.3" y1="724.2" x2="1191.4" y2="724.2"/>
<line class="st1" x1="1191.4" y1="724.2" x2="1448.4" y2="724.2"/>
<line class="st1" x1="1448.4" y1="724.2" x2="1486.4" y2="724.2"/>
<line class="st1" x1="1486.4" y1="724.2" x2="1778.5" y2="724.2"/>
<line class="st1" x1="1778.5" y1="724.2" x2="1801" y2="724.2"/>
<g>
	<path class="st0" d="M81.1,6.6h-6.5V4.9c4.8,0,6.9-1.9,7-4.9h1.8v28.3h-2.4V6.6z"/>
	<path class="st0" d="M98.1,0c6.4,0,8,6,8,14.4c0,8.4-1.5,14.4-8,14.4c-6.4,0-8-6-8-14.4C90.1,6,91.7,0,98.1,0z M98.1,26.8
		c3.9,0,5.4-3.3,5.4-12.4C103.5,5.3,102,2,98.1,2c-3.9,0-5.4,3.3-5.4,12.4C92.7,23.5,94.2,26.8,98.1,26.8z"/>
	<path class="st0" d="M117.5,0c6.4,0,8,6,8,14.4c0,8.4-1.5,14.4-8,14.4c-6.4,0-8-6-8-14.4C109.5,6,111,0,117.5,0z M117.5,26.8
		c3.9,0,5.4-3.3,5.4-12.4c0-9.1-1.5-12.4-5.4-12.4c-3.9,0-5.4,3.3-5.4,12.4C112.1,23.5,113.6,26.8,117.5,26.8z"/>
</g>
<g>
	<path class="st0" d="M95.5,156.2L95.5,156.2c-2.8-0.8-4.3-3.6-4.3-6.3c0-4.6,3-7,7.1-7c4.2,0,7.1,2.4,7.1,7c0,2.7-1.4,5.5-4.3,6.2
		v0.1c3.5,0.4,5.1,3.7,5.1,7c0,5.4-3.2,8.5-8,8.5c-4.7,0-8-3.1-8-8.5C90.4,159.9,92,156.5,95.5,156.2z M98.3,169.7
		c3.6,0,5.4-2.9,5.4-6.3c0-3.4-1.8-6.3-5.4-6.3c-3.6,0-5.4,2.9-5.4,6.3C92.9,166.8,94.7,169.7,98.3,169.7z M98.3,155.1
		c3.1,0,4.6-2.1,4.6-5.1c0-3-1.5-5.1-4.6-5.1c-3,0-4.6,2.1-4.6,5.1C93.8,153,95.3,155.1,98.3,155.1z"/>
	<path class="st0" d="M117.5,142.8c6.4,0,8,6,8,14.4c0,8.4-1.5,14.4-8,14.4c-6.4,0-8-6-8-14.4C109.5,148.9,111,142.8,117.5,142.8z
		 M117.5,169.7c3.9,0,5.4-3.3,5.4-12.4c0-9.1-1.5-12.4-5.4-12.4c-3.9,0-5.4,3.3-5.4,12.4C112.1,166.3,113.6,169.7,117.5,169.7z"/>
</g>
<g>
	<path class="st0" d="M103.1,292.3c-0.1-2.8-1.7-4.6-4.5-4.6c-3.9,0-5.8,3.5-6,12.9l0.1,0.1c0.9-2.9,3.1-4.6,6.1-4.6
		c4.9,0,7.4,3.6,7.4,8.8c0,5.4-2.4,9.7-7.9,9.7c-6.4,0-8.3-4.7-8.3-13.6c0-9.3,1.8-15.2,8.6-15.2c4.5,0,6.8,2.8,6.9,6.6H103.1z
		 M98.5,312.5c3.9,0,5.3-3.6,5.3-7.2c0-3.6-1.4-7.2-5.3-7.2c-3.9,0-5.3,3.6-5.3,7.2C93.2,308.9,94.6,312.5,98.5,312.5z"/>
	<path class="st0" d="M117.4,285.7c6.4,0,8,6,8,14.4c0,8.4-1.5,14.4-8,14.4c-6.4,0-8-6-8-14.4C109.5,291.7,111,285.7,117.4,285.7z
		 M117.4,312.5c3.9,0,5.4-3.3,5.4-12.4c0-9.1-1.5-12.4-5.4-12.4c-3.9,0-5.4,3.3-5.4,12.4C112,309.2,113.5,312.5,117.4,312.5z"/>
</g>
<g>
	<path class="st0" d="M100.7,449.6H89.8v-2.4l10.9-18.6h2.4v18.9h3.3v2.2h-3.3v7.3h-2.4V449.6z M100.7,447.4v-14.8h-0.1l-8.7,14.8
		H100.7z"/>
	<path class="st0" d="M117.4,428.5c6.4,0,8,6,8,14.4c0,8.4-1.5,14.4-8,14.4c-6.4,0-8-6-8-14.4C109.4,434.6,110.9,428.5,117.4,428.5z
		 M117.4,455.4c3.9,0,5.4-3.3,5.4-12.4c0-9.1-1.5-12.4-5.4-12.4c-3.9,0-5.4,3.3-5.4,12.4C112,452,113.5,455.4,117.4,455.4z"/>
</g>
<g>
	<path class="st0" d="M90.8,580.3c0.1-5.5,2.7-8.9,8-8.9c3.8,0,7.3,2.3,7.3,7.7c0,3.4-1,5.7-4.7,8.7l-3.1,2.5c-3,2.4-4.5,4.3-5,7.2
		h13v2.2H90.7c0-4.7,2.1-7.7,5.9-10.9l3-2.6c2.8-2.4,3.9-4.3,3.9-7c0-3.8-2.1-5.8-5-5.8c-3.2,0-5,2.2-5.2,6.9H90.8z"/>
	<path class="st0" d="M117.5,571.4c6.4,0,8,6,8,14.4c0,8.4-1.5,14.4-8,14.4c-6.4,0-8-6-8-14.4C109.5,577.4,111,571.4,117.5,571.4z
		 M117.5,598.2c3.9,0,5.4-3.3,5.4-12.4c0-9.1-1.5-12.4-5.4-12.4c-3.9,0-5.4,3.3-5.4,12.4C112.1,594.9,113.6,598.2,117.5,598.2z"/>
</g>
<g>
	<path class="st0" d="M117.4,714.2c6.4,0,8,6,8,14.4c0,8.4-1.5,14.4-8,14.4c-6.4,0-8-6-8-14.4C109.5,720.3,111,714.2,117.4,714.2z
		 M117.4,741.1c3.9,0,5.4-3.3,5.4-12.4c0-9.1-1.5-12.4-5.4-12.4c-3.9,0-5.4,3.3-5.4,12.4C112,737.7,113.5,741.1,117.4,741.1z"/>
</g>
<g>
	<path class="st0" d="M272,744.4c-0.1-2.8-1.7-4.6-4.5-4.6c-3.9,0-5.8,3.5-6,12.9l0.1,0.1c0.9-2.9,3.1-4.6,6.1-4.6
		c4.9,0,7.4,3.6,7.4,8.8c0,5.4-2.4,9.7-7.9,9.7c-6.4,0-8.3-4.7-8.3-13.6c0-9.3,1.8-15.2,8.6-15.2c4.5,0,6.8,2.8,6.9,6.6H272z
		 M267.3,764.5c3.9,0,5.3-3.6,5.3-7.2c0-3.6-1.4-7.2-5.3-7.2c-3.9,0-5.3,3.6-5.3,7.2C262,760.9,263.4,764.5,267.3,764.5z"/>
	<path class="st0" d="M292.9,738.2v2.2h-10.5l-1.2,9.9l0.1,0.1c1.1-2.1,3.4-2.9,5.5-2.9c4.4,0,7.5,3.1,7.5,9.4
		c0,5.7-2.8,9.7-8.4,9.7c-4.4,0-7.5-2.8-7.5-7.7h2.6c0,3.2,1.8,5.7,5.2,5.7c3.4,0,5.6-2.8,5.6-8.1c0-3.9-1.7-7-5.5-7
		c-2.1,0-4.1,1-4.9,3.3h-2.4l1.6-14.5H292.9z"/>
	<path class="st0" d="M317.1,753.6v2.2h-20v-2.2H317.1z"/>
	<path class="st0" d="M333.1,744.4c-0.1-2.8-1.7-4.6-4.5-4.6c-3.9,0-5.8,3.5-6,12.9l0.1,0.1c0.9-2.9,3.1-4.6,6.1-4.6
		c4.9,0,7.4,3.6,7.4,8.8c0,5.4-2.4,9.7-7.9,9.7c-6.4,0-8.3-4.7-8.3-13.6c0-9.3,1.8-15.2,8.6-15.2c4.5,0,6.8,2.8,6.9,6.6H333.1z
		 M328.4,764.5c3.9,0,5.3-3.6,5.3-7.2c0-3.6-1.4-7.2-5.3-7.2c-3.9,0-5.3,3.6-5.3,7.2C323.1,760.9,324.5,764.5,328.4,764.5z"/>
	<path class="st0" d="M342.2,759.9c0.1,2.8,1.7,4.6,4.5,4.6c3.9,0,5.8-3.5,6-12.9l-0.1-0.1c-0.9,2.9-3.1,4.6-6.1,4.6
		c-4.9,0-7.4-3.6-7.4-8.8c0-5.4,2.4-9.7,7.9-9.7c6.4,0,8.3,4.7,8.3,13.6c0,9.3-1.8,15.2-8.6,15.2c-4.5,0-6.8-2.8-6.9-6.6H342.2z
		 M346.9,754.2c3.9,0,5.3-3.6,5.3-7.2c0-3.6-1.4-7.2-5.3-7.2c-3.9,0-5.3,3.6-5.3,7.2C341.6,750.6,343,754.2,346.9,754.2z"/>
</g>
<g>
	<path class="st0" d="M595,738.2H611v2.2c-6.1,7.5-9.6,18-10.2,25.7h-2.7c0.4-7.8,4.9-18.9,10.5-25.7H595V738.2z"/>
	<path class="st0" d="M621.2,737.7c6.4,0,8,6,8,14.4c0,8.4-1.5,14.4-8,14.4c-6.4,0-8-6-8-14.4C613.2,743.8,614.8,737.7,621.2,737.7z
		 M621.2,764.5c3.9,0,5.4-3.3,5.4-12.4c0-9.1-1.5-12.4-5.4-12.4c-3.9,0-5.4,3.3-5.4,12.4C615.8,761.2,617.3,764.5,621.2,764.5z"/>
	<path class="st0" d="M652.2,753.6v2.2h-20v-2.2H652.2z"/>
	<path class="st0" d="M652.3,738.2h15.9v2.2c-6.1,7.5-9.6,18-10.2,25.7h-2.7c0.4-7.8,4.9-18.9,10.5-25.7h-13.5V738.2z"/>
	<path class="st0" d="M678.1,758.8h-10.9v-2.4l10.9-18.6h2.4v18.9h3.3v2.2h-3.3v7.3h-2.4V758.8z M678.1,756.6v-14.8H678l-8.7,14.8
		H678.1z"/>
</g>
<g>
	<path class="st0" d="M925.6,738.2h15.9v2.2c-6.1,7.5-9.6,18-10.2,25.7h-2.7c0.4-7.8,4.9-18.9,10.5-25.7h-13.5V738.2z"/>
	<path class="st0" d="M958.4,738.2v2.2h-10.5l-1.2,9.9l0.1,0.1c1.1-2.1,3.4-2.9,5.5-2.9c4.4,0,7.5,3.1,7.5,9.4
		c0,5.7-2.8,9.7-8.4,9.7c-4.4,0-7.5-2.8-7.5-7.7h2.6c0,3.2,1.8,5.7,5.2,5.7s5.6-2.8,5.6-8.1c0-3.9-1.7-7-5.5-7c-2.1,0-4.1,1-4.9,3.3
		h-2.4l1.6-14.5H958.4z"/>
	<path class="st0" d="M982.6,753.6v2.2h-20v-2.2H982.6z"/>
	<path class="st0" d="M982.7,738.2h15.9v2.2c-6.1,7.5-9.6,18-10.2,25.7h-2.7c0.4-7.8,4.9-18.9,10.5-25.7h-13.5V738.2z"/>
	<path class="st0" d="M1004.2,759.9c0.1,2.8,1.7,4.6,4.5,4.6c3.9,0,5.8-3.5,6-12.9l-0.1-0.1c-0.9,2.9-3.1,4.6-6.1,4.6
		c-4.9,0-7.4-3.6-7.4-8.8c0-5.4,2.4-9.7,7.9-9.7c6.4,0,8.3,4.7,8.3,13.6c0,9.3-1.8,15.2-8.6,15.2c-4.5,0-6.8-2.8-6.9-6.6H1004.2z
		 M1008.9,754.2c3.9,0,5.3-3.6,5.3-7.2c0-3.6-1.4-7.2-5.3-7.2c-3.9,0-5.3,3.6-5.3,7.2C1003.6,750.6,1005,754.2,1008.9,754.2z"/>
</g>
<g>
	<path class="st0" d="M1278.5,751.1L1278.5,751.1c-2.8-0.8-4.3-3.6-4.3-6.3c0-4.6,3-7,7.1-7c4.2,0,7.1,2.4,7.1,7
		c0,2.7-1.4,5.5-4.3,6.2v0.1c3.5,0.4,5.1,3.7,5.1,7c0,5.4-3.2,8.5-8,8.5c-4.7,0-8-3.1-8-8.5C1273.4,754.7,1275.1,751.4,1278.5,751.1
		z M1281.4,764.5c3.6,0,5.4-2.9,5.4-6.3c0-3.4-1.8-6.3-5.4-6.3c-3.6,0-5.4,2.9-5.4,6.3C1276,761.7,1277.8,764.5,1281.4,764.5z
		 M1281.4,749.9c3.1,0,4.6-2.1,4.6-5.1c0-3-1.5-5.1-4.6-5.1c-3,0-4.6,2.1-4.6,5.1C1276.8,747.9,1278.3,749.9,1281.4,749.9z"/>
	<path class="st0" d="M1300.5,737.7c6.4,0,8,6,8,14.4c0,8.4-1.5,14.4-8,14.4c-6.4,0-8-6-8-14.4
		C1292.5,743.8,1294.1,737.7,1300.5,737.7z M1300.5,764.5c3.9,0,5.4-3.3,5.4-12.4c0-9.1-1.5-12.4-5.4-12.4c-3.9,0-5.4,3.3-5.4,12.4
		C1295.1,761.2,1296.6,764.5,1300.5,764.5z"/>
	<path class="st0" d="M1322,756.9h-9.1v-2h9.1v-9.1h2v9.1h9.1v2h-9.1v9.1h-2V756.9z"/>
</g>
<g>
	<path class="st0" d="M1525.5,744.4c-0.1-2.8-1.7-4.6-4.5-4.6c-3.9,0-5.8,3.5-6,12.9l0.1,0.1c0.9-2.9,3.1-4.6,6.1-4.6
		c4.9,0,7.4,3.6,7.4,8.8c0,5.4-2.4,9.7-7.9,9.7c-6.4,0-8.3-4.7-8.3-13.6c0-9.3,1.8-15.2,8.6-15.2c4.5,0,6.8,2.8,6.9,6.6H1525.5z
		 M1520.8,764.5c3.9,0,5.3-3.6,5.3-7.2c0-3.6-1.4-7.2-5.3-7.2c-3.9,0-5.3,3.6-5.3,7.2C1515.5,760.9,1516.9,764.5,1520.8,764.5z"/>
	<path class="st0" d="M1546,738.2v2.2h-10.5l-1.2,9.9l0.1,0.1c1.1-2.1,3.4-2.9,5.5-2.9c4.4,0,7.5,3.1,7.5,9.4c0,5.7-2.8,9.7-8.4,9.7
		c-4.4,0-7.5-2.8-7.5-7.7h2.6c0,3.2,1.8,5.7,5.2,5.7s5.6-2.8,5.6-8.1c0-3.9-1.7-7-5.5-7c-2.1,0-4.1,1-4.9,3.3h-2.4l1.6-14.5H1546z"
		/>
	<path class="st0" d="M1558.1,744.8h2.6l4.8,18.4h0.1l4.3-18.4h2.6l-6.2,23c-1.1,4.2-2.4,5.3-5.6,5.3c-0.6,0-1.1,0-1.6-0.1v-2
		c0.5,0,1,0.1,1.6,0.1c1.5,0,2.5-0.6,3.2-2.8l0.6-2L1558.1,744.8z"/>
	<path class="st0" d="M1586.7,759c-0.4,4.5-2.8,7.5-6.8,7.5c-4.5,0-7.1-3.1-7.1-11.1c0-7.4,2.6-11.1,7.3-11.1
		c4.7,0,6.8,3.2,6.8,10.3v0.9h-11.6v1c0,6.1,2.2,8,4.5,8c2.5,0,4.1-1.8,4.5-5.5H1586.7z M1584.4,753.5c-0.1-5.3-1.6-7.2-4.5-7.2
		c-3,0-4.4,1.9-4.5,7.2H1584.4z"/>
	<path class="st0" d="M1589.3,751.1c0-4.4,2.1-6.8,6.6-6.8c4.4,0,6,2.3,6,5.6v12.6c0,1.2,0.4,1.8,1.2,1.8h0.7v1.8
		c-0.4,0.2-0.8,0.2-1.1,0.2c-1.9,0-3.1-0.4-3.1-2.6v-0.7h-0.1c-1,2.8-3.1,3.6-5.5,3.6c-3.7,0-5.4-2.3-5.4-6c0-2.8,1.3-5,4.3-5.9
		l4.5-1.3c1.7-0.5,2-0.9,2-3.4c0-2.7-1.5-3.7-3.7-3.7c-2.8,0-4.1,1.7-4.1,4.8H1589.3z M1599.5,754.1L1599.5,754.1
		c-0.3,0.7-1.7,1.2-2.6,1.4l-2,0.5c-2.4,0.6-3.6,1.9-3.6,4.4c0,2.5,1.3,4.2,3.4,4.2c2.9,0,4.9-2.2,4.9-6V754.1z"/>
	<path class="st0" d="M1605.8,744.8h2.4v3.3h0.1c0.9-2.4,2.9-3.8,5.4-3.8c0.3,0,0.6,0,0.8,0.1v2.4c-0.4-0.1-0.8-0.1-1.2-0.1
		c-2.6,0-5.1,1.9-5.1,6v13.3h-2.4V744.8z"/>
	<path class="st0" d="M1619.6,755.5c-3-1.2-4.1-2.9-4.1-5c0-4.4,2.7-6.1,6.3-6.1c4,0,5.8,2,5.8,5.9v0.6h-2.4v-0.6
		c0-2.8-1.3-3.9-3.5-3.9c-2.8,0-3.9,1.5-3.9,3.6c0,1.5,0.5,2.6,2.9,3.6l3.5,1.3c2.9,1.1,4,3.1,4,5.4c0,3.6-2.1,6.3-6.6,6.3
		c-4.4,0-6.5-1.8-6.5-6.6v-0.7h2.4v0.6c0,3.1,1.4,4.7,4.1,4.7c2.6,0,4.2-1.4,4.2-3.8c0-1.9-0.8-3.1-2.9-3.9L1619.6,755.5z"/>
	<path class="st0" d="M1640.3,751.1c0-4.4,2.1-6.8,6.6-6.8c4.4,0,6,2.3,6,5.6v12.6c0,1.2,0.4,1.8,1.2,1.8h0.7v1.8
		c-0.4,0.2-0.8,0.2-1.1,0.2c-1.9,0-3.1-0.4-3.1-2.6v-0.7h-0.1c-1,2.8-3.1,3.6-5.5,3.6c-3.7,0-5.4-2.3-5.4-6c0-2.8,1.3-5,4.3-5.9
		l4.5-1.3c1.7-0.5,2-0.9,2-3.4c0-2.7-1.5-3.7-3.7-3.7c-2.8,0-4.1,1.7-4.1,4.8H1640.3z M1650.4,754.1L1650.4,754.1
		c-0.3,0.7-1.7,1.2-2.6,1.4l-2,0.5c-2.4,0.6-3.6,1.9-3.6,4.4c0,2.5,1.3,4.2,3.4,4.2c2.9,0,4.9-2.2,4.9-6V754.1z"/>
	<path class="st0" d="M1656.8,744.8h2.2v3h0.1c1.2-2.4,3.3-3.4,5.4-3.4c3.2,0,5.4,1.7,5.4,5.7v16h-2.4v-15.4c0-2.9-1.2-4.4-3.6-4.4
		c-2.8,0-4.7,2.2-4.7,5.4v14.3h-2.4V744.8z"/>
	<path class="st0" d="M1684.7,762.5L1684.7,762.5c-0.7,2.4-2.8,4-5.3,4c-4.7,0-6.8-3.8-6.8-11.1c0-7.3,2.1-11.1,6.8-11.1
		c2.6,0,4.4,1.4,5,3.7h0.1v-10.5h2.4v28.6h-2.2V762.5z M1679.8,764.5c2.4,0,4.6-1.2,4.6-9.1c0-7.8-2.2-9.1-4.6-9.1
		c-2.4,0-4.6,1.2-4.6,9.1C1675.2,763.3,1677.4,764.5,1679.8,764.5z"/>
	<path class="st0" d="M1706.4,744.3c4.7,0,7.3,3.7,7.3,11.1c0,7.4-2.6,11.1-7.3,11.1s-7.3-3.7-7.3-11.1
		C1699,748.1,1701.7,744.3,1706.4,744.3z M1706.4,764.5c2.7,0,4.8-2.3,4.8-9.1c0-6.8-2.1-9.1-4.8-9.1s-4.8,2.3-4.8,9.1
		C1701.6,762.2,1703.7,764.5,1706.4,764.5z"/>
	<path class="st0" d="M1714,744.8h2.6l4.7,18.5h0.1l4.3-18.5h2.6l-5.6,21.2h-2.7L1714,744.8z"/>
	<path class="st0" d="M1742.7,759c-0.4,4.5-2.8,7.5-6.8,7.5c-4.5,0-7.1-3.1-7.1-11.1c0-7.4,2.6-11.1,7.3-11.1
		c4.7,0,6.8,3.2,6.8,10.3v0.9h-11.6v1c0,6.1,2.2,8,4.5,8c2.5,0,4.1-1.8,4.5-5.5H1742.7z M1740.3,753.5c-0.1-5.3-1.6-7.2-4.5-7.2
		c-3,0-4.4,1.9-4.5,7.2H1740.3z"/>
	<path class="st0" d="M1745.5,744.8h2.4v3.3h0.1c0.9-2.4,2.9-3.8,5.4-3.8c0.3,0,0.6,0,0.8,0.1v2.4c-0.4-0.1-0.8-0.1-1.2-0.1
		c-2.6,0-5.1,1.9-5.1,6v13.3h-2.4V744.8z"/>
</g>
<g>
	<path class="st0" d="M961.1,790.1h3.2l8.4,28.6H970l-2.3-8.3h-10l-2.3,8.3h-2.7L961.1,790.1z M967.1,808.2l-4.4-16.1h-0.1
		l-4.4,16.1H967.1z"/>
	<path class="st0" d="M986.5,797.4h2.2v19.7c0,5.9-2.2,8.9-7,8.9c-4.1,0-6.3-2.2-6.3-5.2h2.4c0,2,1.9,3.2,4,3.2c2.9,0,4.5-2,4.5-5.8
		v-3.4h-0.1c-0.8,2.6-2.8,3.8-5,3.8c-3.3,0-6.6-2.2-6.6-10.6c0-7.3,2.1-11.1,6.8-11.1c2.3,0,4.2,1.4,5,3.8h0.1V797.4z M981.8,816.6
		c2.8,0,4.5-2.1,4.5-8.9c0-6.8-1.7-8.8-4.5-8.8c-2.8,0-4.5,2.1-4.5,8.8C977.3,814.6,978.9,816.6,981.8,816.6z"/>
	<path class="st0" d="M1006.8,811.6c-0.4,4.5-2.8,7.5-6.8,7.5c-4.5,0-7.1-3.1-7.1-11.1c0-7.4,2.6-11.1,7.3-11.1
		c4.7,0,6.8,3.2,6.8,10.3v0.9h-11.6v1c0,6.1,2.2,8,4.5,8c2.5,0,4.1-1.8,4.5-5.5H1006.8z M1004.4,806.1c-0.1-5.3-1.6-7.2-4.5-7.2
		s-4.4,1.9-4.5,7.2H1004.4z"/>
</g>
<rect x="306.7" y="503" class="st2" width="145.5" height="220.5"/>
<rect x="161.2" y="283.2" class="st3" width="145.5" height="440.2"/>
<rect x="639.7" y="350.4" class="st2" width="145.8" height="373.2"/>
<rect x="493.9" y="213.4" class="st3" width="145.8" height="510.2"/>
<rect x="970.9" y="310.1" class="st2" width="144.8" height="413.4"/>
<rect x="826.1" y="156.2" class="st3" width="144.8" height="567.3"/>
<rect x="1303.5" y="296.8" class="st2" width="145.2" height="426.7"/>
<rect x="1158.2" y="157" class="st3" width="145.2" height="566.5"/>
<rect x="1633.3" y="383.9" class="st2" width="145.2" height="339.6"/>
<rect x="1488.1" y="210.5" class="st3" width="145.2" height="513"/>
</svg>
