<?xml version="1.0" encoding="utf-8"?>
<!-- Generator: Adobe Illustrator 21.0.0, SVG Export Plug-In . SVG Version: 6.00 Build 0)  -->
<svg version="1.1" id="Layer_1" xmlns="http://www.w3.org/2000/svg" xmlns:xlink="http://www.w3.org/1999/xlink" x="0px" y="0px"
	 viewBox="0 0 298 1654" style="enable-background:new 0 0 298 1654;" xml:space="preserve">
<style type="text/css">
	.st0{fill:#FF956C;}
	.st1{fill:#FFFFFF;}
	.st2{fill:#FF7238;}
	.st3{fill:#FF4D00;}
</style>
<rect x="1.4" y="0.4" class="st0" width="296" height="513.6"/>
<g>
	<path class="st1" d="M99.5,33.7h27.7V42c-5.9,9.2-10.3,22.6-11.1,33.3h-11.5c1.1-10.9,5-22.9,12-32.5H99.5V33.7z"/>
	<path class="st1" d="M125.4,59l13.4-25.3H151v25.7h3.7v8H151v7.9h-10.4v-7.9h-15.1V59z M140.9,59.3V45.2h-0.1l-7,14.2H140.9z"/>
</g>
<g>
	<path class="st1" d="M166,32.8c7.1,0,9.4,3.2,9.4,11.5s-2.3,11.5-9.4,11.5s-9.4-3.2-9.4-11.5S159,32.8,166,32.8z M166,51.1
		c1.7,0,2.1-1.2,2.1-6.7s-0.4-6.7-2.1-6.7s-2.1,1.2-2.1,6.7S164.3,51.1,166,51.1z M185.1,32.8h6.6l-19,43.3h-6.6L185.1,32.8z
		 M191.8,53.1c7.1,0,9.4,3.2,9.4,11.5s-2.3,11.5-9.4,11.5c-7.1,0-9.4-3.2-9.4-11.5S184.8,53.1,191.8,53.1z M191.8,71.3
		c1.7,0,2.1-1.2,2.1-6.7s-0.4-6.7-2.1-6.7c-1.7,0-2.1,1.2-2.1,6.7S190.1,71.3,191.8,71.3z"/>
</g>
<g>
	<path class="st1" d="M115.5,114.7c0.1,1.9,1.2,3.2,3.1,3.2c2.7,0,4.1-2.5,4.2-9l-0.1-0.1c-0.6,2-2.2,3.2-4.3,3.2
		c-3.4,0-5.2-2.5-5.2-6.2c0-3.8,1.7-6.8,5.5-6.8c4.5,0,5.8,3.3,5.8,9.5c0,6.5-1.3,10.6-6,10.6c-3.1,0-4.8-1.9-4.8-4.6H115.5z
		 M118.8,110.8c2.7,0,3.7-2.5,3.7-5.1c0-2.5-1-5.1-3.7-5.1c-2.7,0-3.7,2.5-3.7,5.1C115.1,108.3,116,110.8,118.8,110.8z"/>
	<path class="st1" d="M137,99.6v1.5h-7.3l-0.9,6.9l0.1,0.1c0.8-1.5,2.4-2,3.8-2c3.1,0,5.2,2.2,5.2,6.6c0,4-2,6.8-5.9,6.8
		c-3.1,0-5.3-1.9-5.3-5.4h1.8c0,2.2,1.3,4,3.7,4s3.9-2,3.9-5.7c0-2.7-1.2-4.9-3.9-4.9c-1.5,0-2.9,0.7-3.4,2.3h-1.7l1.1-10.2H137z"/>
	<path class="st1" d="M144.1,99.2c2.2,0,3.5,1.1,3.5,5.2s-1.3,5.2-3.5,5.2c-2.2,0-3.5-1.1-3.5-5.2S141.9,99.2,144.1,99.2z
		 M144.1,108.3c1.2,0,2-0.9,2-3.9c0-3-0.8-3.9-2-3.9c-1.2,0-2,1-2,3.9C142.1,107.4,142.9,108.3,144.1,108.3z M152.8,99.2h1.4
		l-8.6,20.2h-1.4L152.8,99.2z M154.3,109.1c2.2,0,3.5,1.1,3.5,5.2c0,4.1-1.3,5.2-3.5,5.2s-3.5-1.1-3.5-5.2
		C150.8,110.2,152,109.1,154.3,109.1z M154.3,118.2c1.2,0,2-0.9,2-3.9c0-3-0.8-3.9-2-3.9c-1.2,0-2,1-2,3.9
		C152.3,117.2,153.1,118.2,154.3,118.2z"/>
	<path class="st1" d="M179.7,112.3c-0.3,4.6-2.4,7.1-5.9,7.1c-4.1,0-6.4-3.2-6.4-10.3s2.3-10.3,6.4-10.3c4.1,0,5.7,2.9,5.7,6.2h-1.8
		c0-2.7-1.4-4.6-3.9-4.6c-2.9,0-4.6,2.4-4.6,8.8s1.7,8.8,4.6,8.8c2.5,0,3.9-2.2,4.1-5.6H179.7z"/>
	<path class="st1" d="M182.3,99.1h1.8v20h-1.8V99.1z"/>
</g>
<g>
	<path class="st1" d="M95.8,133.1c-2.2,3.8-3.2,8.2-3.2,12.6c0,4.4,1.1,8.8,3.2,12.6h-1.2c-2.7-4.5-3.7-8.7-3.7-12.6s1-8.1,3.7-12.6
		H95.8z"/>
	<path class="st1" d="M108.1,133.6v1.5h-7.3l-0.9,6.9l0.1,0.1c0.8-1.5,2.4-2,3.8-2c3.1,0,5.2,2.2,5.2,6.6c0,4-2,6.8-5.9,6.8
		c-3.1,0-5.3-1.9-5.3-5.4h1.8c0,2.2,1.3,4,3.7,4s3.9-2,3.9-5.7c0-2.7-1.2-4.9-3.9-4.9c-1.5,0-2.9,0.7-3.4,2.3h-1.7l1.1-10.2H108.1z"
		/>
	<path class="st1" d="M121.6,133.6v1.5h-7.3l-0.9,6.9l0.1,0.1c0.8-1.5,2.4-2,3.8-2c3.1,0,5.2,2.2,5.2,6.6c0,4-2,6.8-5.9,6.8
		c-3.1,0-5.3-1.9-5.3-5.4h1.8c0,2.2,1.3,4,3.7,4s3.9-2,3.9-5.7c0-2.7-1.2-4.9-3.9-4.9c-1.5,0-2.9,0.7-3.4,2.3h-1.7l1.1-10.2H121.6z"
		/>
	<path class="st1" d="M128.7,133.2c2.2,0,3.5,1.1,3.5,5.2s-1.3,5.2-3.5,5.2c-2.2,0-3.5-1.1-3.5-5.2S126.5,133.2,128.7,133.2z
		 M128.7,142.3c1.2,0,2-0.9,2-3.9c0-3-0.8-3.9-2-3.9c-1.2,0-2,1-2,3.9C126.7,141.4,127.5,142.3,128.7,142.3z M137.4,133.2h1.4
		l-8.6,20.2h-1.4L137.4,133.2z M138.9,143.1c2.2,0,3.5,1.1,3.5,5.2c0,4.1-1.3,5.2-3.5,5.2c-2.2,0-3.5-1.1-3.5-5.2
		C135.4,144.2,136.6,143.1,138.9,143.1z M138.9,152.2c1.2,0,2-0.9,2-3.9c0-3-0.8-3.9-2-3.9c-1.2,0-2,1-2,3.9
		C136.9,151.2,137.7,152.2,138.9,152.2z"/>
	<path class="st1" d="M152.7,144.3v1.5h-6.1v-1.5H152.7z"/>
	<path class="st1" d="M159,142.6L159,142.6c-2-0.6-3-2.5-3-4.4c0-3.2,2.1-4.9,5-4.9c2.9,0,5,1.7,5,4.9c0,1.9-1,3.9-3,4.4v0.1
		c2.4,0.3,3.6,2.6,3.6,4.9c0,3.8-2.2,5.9-5.6,5.9c-3.3,0-5.6-2.2-5.6-5.9C155.4,145.1,156.5,142.8,159,142.6z M160.9,152
		c2.5,0,3.8-2,3.8-4.4c0-2.4-1.3-4.4-3.8-4.4c-2.5,0-3.8,2-3.8,4.4C157.2,150,158.4,152,160.9,152z M160.9,141.8
		c2.2,0,3.2-1.5,3.2-3.6c0-2.1-1-3.6-3.2-3.6c-2.1,0-3.2,1.5-3.2,3.6C157.8,140.3,158.8,141.8,160.9,141.8z"/>
	<path class="st1" d="M177.9,137.9c-0.1-1.9-1.2-3.2-3.1-3.2c-2.7,0-4.1,2.5-4.2,9l0.1,0.1c0.6-2,2.2-3.2,4.3-3.2
		c3.4,0,5.2,2.5,5.2,6.2c0,3.8-1.7,6.8-5.5,6.8c-4.5,0-5.8-3.3-5.8-9.5c0-6.5,1.3-10.6,6-10.6c3.1,0,4.8,1.9,4.8,4.6H177.9z
		 M174.6,152c2.7,0,3.7-2.5,3.7-5.1s-1-5.1-3.7-5.1c-2.7,0-3.7,2.5-3.7,5.1S171.9,152,174.6,152z"/>
	<path class="st1" d="M186.7,133.2c2.2,0,3.5,1.1,3.5,5.2s-1.3,5.2-3.5,5.2c-2.2,0-3.5-1.1-3.5-5.2S184.4,133.2,186.7,133.2z
		 M186.7,142.3c1.2,0,2-0.9,2-3.9c0-3-0.8-3.9-2-3.9c-1.2,0-2,1-2,3.9C184.7,141.4,185.5,142.3,186.7,142.3z M195.4,133.2h1.4
		l-8.6,20.2h-1.4L195.4,133.2z M196.9,143.1c2.2,0,3.5,1.1,3.5,5.2c0,4.1-1.3,5.2-3.5,5.2s-3.5-1.1-3.5-5.2
		C193.3,144.2,194.6,143.1,196.9,143.1z M196.9,152.2c1.2,0,2-0.9,2-3.9c0-3-0.8-3.9-2-3.9c-1.2,0-2,1-2,3.9
		C194.9,151.2,195.7,152.2,196.9,152.2z"/>
	<path class="st1" d="M202,158.2c2.2-3.8,3.2-8.2,3.2-12.6c0-4.4-1.1-8.8-3.2-12.6h1.2c2.7,4.5,3.7,8.7,3.7,12.6s-1,8.1-3.7,12.6
		H202z"/>
</g>
<rect x="0.6" y="577.9" class="st2" width="296" height="569.1"/>
<g>
	<path class="st1" d="M94.6,638.7c0-5.2,2.4-9.2,7.1-9.8v-0.1c-5-1.2-6.3-4.9-6.3-8.6c0-6.8,3.8-11.4,13.7-11.4
		c9.8,0,13.7,4.6,13.7,11.4c0,3.7-1.3,7.4-6.3,8.6v0.1c5.1,0.9,7.1,5,7.1,9.8c0,10.5-5.3,13.4-14.5,13.4
		C100,652.1,94.6,649.2,94.6,638.7z M109.1,645.2c2,0,3.3-1.3,3.3-6.3c0-5-1.3-6.2-3.3-6.2s-3.3,1.3-3.3,6.2
		C105.8,643.9,107,645.2,109.1,645.2z M109.1,626c1.6,0,2.9-1,2.9-5.2c0-4.1-1.3-5.1-2.9-5.1c-1.6,0-2.9,1-2.9,5.1
		C106.2,625.1,107.5,626,109.1,626z"/>
	<path class="st1" d="M125.2,623.2c0.1-4.4,0.6-7.9,2.6-10.4c2-2.5,5.5-4,11.3-4c11.2,0,13.7,5.2,13.7,11.6c0,5.8-2.1,9.4-5.3,12.6
		l-6.6,6.4c-1,1-2.3,2.2-2.8,3.5h14.6v8.4h-28c0-5.9,1.5-11.3,6.4-16.3l7.4-7.6c2.2-2.2,3-3.8,3-7c0-3.6-1.1-4.7-2.9-4.7
		c-1.6,0-3.1,0.8-3.1,5.6v1.8H125.2z"/>
</g>
<g>
	<path class="st1" d="M165.9,608.8c7.1,0,9.4,3.2,9.4,11.5c0,8.3-2.3,11.5-9.4,11.5s-9.4-3.2-9.4-11.5
		C156.5,612,158.8,608.8,165.9,608.8z M165.9,627.1c1.7,0,2.1-1.2,2.1-6.7c0-5.5-0.4-6.7-2.1-6.7s-2.1,1.2-2.1,6.7
		C163.8,625.9,164.2,627.1,165.9,627.1z M185,608.8h6.6l-19,43.3H166L185,608.8z M191.7,629.1c7.1,0,9.4,3.2,9.4,11.5
		c0,8.3-2.3,11.5-9.4,11.5c-7.1,0-9.4-3.2-9.4-11.5C182.3,632.3,184.6,629.1,191.7,629.1z M191.7,647.3c1.7,0,2.1-1.2,2.1-6.7
		c0-5.5-0.4-6.7-2.1-6.7c-1.7,0-2.1,1.2-2.1,6.7C189.6,646.1,190,647.3,191.7,647.3z"/>
</g>
<g>
	<path class="st1" d="M113.6,689.5c0.1,1.9,1.2,3.2,3.1,3.2c2.7,0,4.1-2.5,4.2-9l-0.1-0.1c-0.6,2-2.2,3.2-4.3,3.2
		c-3.4,0-5.2-2.5-5.2-6.2c0-3.8,1.7-6.8,5.5-6.8c4.5,0,5.8,3.3,5.8,9.5c0,6.5-1.3,10.6-6,10.6c-3.1,0-4.8-1.9-4.8-4.6H113.6z
		 M116.8,685.5c2.7,0,3.7-2.5,3.7-5.1c0-2.5-1-5.1-3.7-5.1c-2.7,0-3.7,2.5-3.7,5.1C113.1,683,114.1,685.5,116.8,685.5z"/>
	<path class="st1" d="M135.1,674.3v1.5h-7.3l-0.9,6.9l0.1,0.1c0.8-1.5,2.4-2,3.8-2c3.1,0,5.2,2.2,5.2,6.6c0,4-2,6.8-5.9,6.8
		c-3.1,0-5.3-1.9-5.3-5.4h1.8c0,2.2,1.3,4,3.7,4c2.4,0,3.9-2,3.9-5.7c0-2.7-1.2-4.9-3.9-4.9c-1.5,0-2.9,0.7-3.4,2.3h-1.7l1.1-10.2
		H135.1z"/>
	<path class="st1" d="M142.1,673.9c2.2,0,3.5,1.1,3.5,5.2s-1.3,5.2-3.5,5.2c-2.2,0-3.5-1.1-3.5-5.2S139.9,673.9,142.1,673.9z
		 M142.1,683c1.2,0,2-0.9,2-3.9c0-3-0.8-3.9-2-3.9c-1.2,0-2,1-2,3.9C140.1,682.1,140.9,683,142.1,683z M150.8,673.9h1.4l-8.6,20.2
		h-1.4L150.8,673.9z M152.3,683.8c2.2,0,3.5,1.1,3.5,5.2c0,4.1-1.3,5.2-3.5,5.2s-3.5-1.1-3.5-5.2
		C148.8,684.9,150.1,683.8,152.3,683.8z M152.3,692.9c1.2,0,2-0.9,2-3.9c0-3-0.8-3.9-2-3.9c-1.2,0-2,1-2,3.9
		C150.3,692,151.1,692.9,152.3,692.9z"/>
	<path class="st1" d="M177.8,687c-0.3,4.6-2.4,7.1-5.9,7.1c-4.1,0-6.4-3.2-6.4-10.3s2.3-10.3,6.4-10.3c4.1,0,5.7,2.9,5.7,6.2h-1.8
		c0-2.7-1.4-4.6-3.9-4.6c-2.9,0-4.6,2.4-4.6,8.8s1.7,8.8,4.6,8.8c2.5,0,3.9-2.2,4.1-5.6H177.8z"/>
	<path class="st1" d="M180.3,673.8h1.8v20h-1.8V673.8z"/>
</g>
<g>
	<path class="st1" d="M93.5,707.8c-2.2,3.8-3.2,8.2-3.2,12.6c0,4.4,1.1,8.8,3.2,12.6h-1.2c-2.7-4.5-3.7-8.7-3.7-12.6s1-8.1,3.7-12.6
		H93.5z"/>
	<path class="st1" d="M104.7,712.6c-0.1-1.9-1.2-3.2-3.1-3.2c-2.7,0-4.1,2.5-4.2,9l0.1,0.1c0.6-2,2.2-3.2,4.3-3.2
		c3.4,0,5.2,2.5,5.2,6.2c0,3.8-1.7,6.8-5.5,6.8c-4.5,0-5.8-3.3-5.8-9.5c0-6.5,1.3-10.6,6-10.6c3.1,0,4.8,1.9,4.8,4.6H104.7z
		 M101.4,726.7c2.7,0,3.7-2.5,3.7-5.1s-1-5.1-3.7-5.1c-2.7,0-3.7,2.5-3.7,5.1S98.7,726.7,101.4,726.7z"/>
	<path class="st1" d="M111.2,723.5c0.1,1.9,1.2,3.2,3.1,3.2c2.7,0,4.1-2.5,4.2-9l-0.1-0.1c-0.6,2-2.2,3.2-4.3,3.2
		c-3.4,0-5.2-2.5-5.2-6.2c0-3.8,1.7-6.8,5.5-6.8c4.5,0,5.8,3.3,5.8,9.5c0,6.5-1.3,10.6-6,10.6c-3.1,0-4.8-1.9-4.8-4.6H111.2z
		 M114.4,719.5c2.7,0,3.7-2.5,3.7-5.1c0-2.5-1-5.1-3.7-5.1c-2.7,0-3.7,2.5-3.7,5.1C110.7,717,111.7,719.5,114.4,719.5z"/>
	<path class="st1" d="M127.1,707.9c2.2,0,3.5,1.1,3.5,5.2s-1.3,5.2-3.5,5.2c-2.2,0-3.5-1.1-3.5-5.2S124.8,707.9,127.1,707.9z
		 M127.1,717c1.2,0,2-0.9,2-3.9c0-3-0.8-3.9-2-3.9c-1.2,0-2,1-2,3.9C125.1,716.1,125.9,717,127.1,717z M135.8,707.9h1.4l-8.6,20.2
		h-1.4L135.8,707.9z M137.3,717.8c2.2,0,3.5,1.1,3.5,5.2c0,4.1-1.3,5.2-3.5,5.2s-3.5-1.1-3.5-5.2C133.7,718.9,135,717.8,137.3,717.8
		z M137.3,726.9c1.2,0,2-0.9,2-3.9c0-3-0.8-3.9-2-3.9c-1.2,0-2,1-2,3.9C135.3,725.9,136.1,726.9,137.3,726.9z"/>
	<path class="st1" d="M151.1,719.1v1.5H145v-1.5H151.1z"/>
	<path class="st1" d="M155.7,723.5c0.1,1.9,1.2,3.2,3.1,3.2c2.7,0,4.1-2.5,4.2-9l-0.1-0.1c-0.6,2-2.2,3.2-4.3,3.2
		c-3.4,0-5.2-2.5-5.2-6.2c0-3.8,1.7-6.8,5.5-6.8c4.5,0,5.8,3.3,5.8,9.5c0,6.5-1.3,10.6-6,10.6c-3.1,0-4.8-1.9-4.8-4.6H155.7z
		 M159,719.5c2.7,0,3.7-2.5,3.7-5.1c0-2.5-1-5.1-3.7-5.1c-2.7,0-3.7,2.5-3.7,5.1C155.3,717,156.2,719.5,159,719.5z"/>
	<path class="st1" d="M172.8,707.9c4.5,0,5.6,4.2,5.6,10.1c0,5.9-1.1,10.1-5.6,10.1s-5.6-4.2-5.6-10.1
		C167.3,712.2,168.3,707.9,172.8,707.9z M172.8,726.7c2.7,0,3.8-2.3,3.8-8.7c0-6.4-1.1-8.7-3.8-8.7s-3.8,2.3-3.8,8.7
		C169.1,724.4,170.1,726.7,172.8,726.7z"/>
	<path class="st1" d="M185.3,707.9c2.2,0,3.5,1.1,3.5,5.2s-1.3,5.2-3.5,5.2c-2.2,0-3.5-1.1-3.5-5.2S183.1,707.9,185.3,707.9z
		 M185.3,717c1.2,0,2-0.9,2-3.9c0-3-0.8-3.9-2-3.9c-1.2,0-2,1-2,3.9C183.3,716.1,184.1,717,185.3,717z M194,707.9h1.4l-8.6,20.2
		h-1.4L194,707.9z M195.5,717.8c2.2,0,3.5,1.1,3.5,5.2c0,4.1-1.3,5.2-3.5,5.2s-3.5-1.1-3.5-5.2C192,718.9,193.2,717.8,195.5,717.8z
		 M195.5,726.9c1.2,0,2-0.9,2-3.9c0-3-0.8-3.9-2-3.9c-1.2,0-2,1-2,3.9C193.5,725.9,194.3,726.9,195.5,726.9z"/>
	<path class="st1" d="M200.6,732.9c2.2-3.8,3.2-8.2,3.2-12.6c0-4.4-1.1-8.8-3.2-12.6h1.2c2.7,4.5,3.7,8.7,3.7,12.6s-1,8.1-3.7,12.6
		H200.6z"/>
</g>
<rect x="0.9" y="1210.7" class="st3" width="296" height="443.3"/>
<g>
	<path class="st1" d="M114,1252.4c-0.1-1.4-0.3-2.5-0.8-3.1c-0.5-0.6-1.2-0.8-2.2-0.8c-1.6,0-3.1,1.3-3.1,4v6.8h0.1
		c1-2,3.9-3.4,7.1-3.4c6.1,0,10.1,2.9,10.1,12.9c0,11.5-5.1,16-14.2,16c-9.7,0-14.7-4.2-14.7-18.1v-4.7c0-13.1,2-20.5,14.6-20.5
		c11,0,13.4,5.3,13.4,10.9H114z M111,1277.9c2.1,0,3.1-1.5,3.1-7c0-5.5-0.8-7-3.1-7c-2.1,0-3.1,1.5-3.1,7
		C107.9,1276.4,108.7,1277.9,111,1277.9z"/>
	<path class="st1" d="M127.1,1267.7l13.4-25.3h12.1v25.7h3.7v8h-3.7v7.9h-10.4v-7.9h-15.1V1267.7z M142.6,1268v-14.2h-0.1l-7,14.2
		H142.6z"/>
</g>
<g>
	<path class="st1" d="M167.8,1241.5c7.1,0,9.4,3.2,9.4,11.5s-2.3,11.5-9.4,11.5s-9.4-3.2-9.4-11.5S160.7,1241.5,167.8,1241.5z
		 M167.8,1259.8c1.7,0,2.1-1.2,2.1-6.7c0-5.5-0.4-6.7-2.1-6.7s-2.1,1.2-2.1,6.7C165.7,1258.6,166.1,1259.8,167.8,1259.8z
		 M186.9,1241.5h6.6l-19,43.3h-6.6L186.9,1241.5z M193.6,1261.8c7.1,0,9.4,3.2,9.4,11.5s-2.3,11.5-9.4,11.5c-7.1,0-9.4-3.2-9.4-11.5
		S186.5,1261.8,193.6,1261.8z M193.6,1280c1.7,0,2.1-1.2,2.1-6.7s-0.4-6.7-2.1-6.7c-1.7,0-2.1,1.2-2.1,6.7S191.9,1280,193.6,1280z"
		/>
</g>
<g>
	<path class="st1" d="M115.4,1321.5c0.1,1.9,1.2,3.2,3.1,3.2c2.7,0,4.1-2.5,4.2-9l-0.1-0.1c-0.6,2-2.2,3.2-4.3,3.2
		c-3.4,0-5.2-2.5-5.2-6.2c0-3.8,1.7-6.8,5.5-6.8c4.5,0,5.8,3.3,5.8,9.5c0,6.5-1.3,10.6-6,10.6c-3.1,0-4.8-1.9-4.8-4.6H115.4z
		 M118.7,1317.5c2.7,0,3.7-2.5,3.7-5.1c0-2.5-1-5.1-3.7-5.1c-2.7,0-3.7,2.5-3.7,5.1C115,1315,115.9,1317.5,118.7,1317.5z"/>
	<path class="st1" d="M136.9,1306.3v1.5h-7.3l-0.9,6.9l0.1,0.1c0.8-1.5,2.4-2,3.8-2c3.1,0,5.2,2.2,5.2,6.6c0,4-2,6.8-5.9,6.8
		c-3.1,0-5.3-1.9-5.3-5.4h1.8c0,2.2,1.3,4,3.7,4c2.4,0,3.9-2,3.9-5.7c0-2.7-1.2-4.9-3.9-4.9c-1.5,0-2.9,0.7-3.4,2.3h-1.7l1.1-10.2
		H136.9z"/>
	<path class="st1" d="M143.9,1305.9c2.2,0,3.5,1.1,3.5,5.2s-1.3,5.2-3.5,5.2c-2.2,0-3.5-1.1-3.5-5.2S141.7,1305.9,143.9,1305.9z
		 M143.9,1315c1.2,0,2-0.9,2-3.9c0-3-0.8-3.9-2-3.9c-1.2,0-2,1-2,3.9C141.9,1314.1,142.8,1315,143.9,1315z M152.6,1305.9h1.4
		l-8.6,20.2H144L152.6,1305.9z M154.1,1315.8c2.2,0,3.5,1.1,3.5,5.2c0,4.1-1.3,5.2-3.5,5.2s-3.5-1.1-3.5-5.2
		C150.6,1316.9,151.9,1315.8,154.1,1315.8z M154.1,1324.9c1.2,0,2-0.9,2-3.9c0-3-0.8-3.9-2-3.9c-1.2,0-2,1-2,3.9
		C152.1,1324,153,1324.9,154.1,1324.9z"/>
	<path class="st1" d="M179.6,1319c-0.3,4.6-2.4,7.1-5.9,7.1c-4.1,0-6.4-3.2-6.4-10.3s2.3-10.3,6.4-10.3c4.1,0,5.7,2.9,5.7,6.2h-1.8
		c0-2.7-1.4-4.6-3.9-4.6c-2.9,0-4.6,2.4-4.6,8.8s1.7,8.8,4.6,8.8c2.5,0,3.9-2.2,4.1-5.6H179.6z"/>
	<path class="st1" d="M182.2,1305.8h1.8v20h-1.8V1305.8z"/>
</g>
<g>
	<path class="st1" d="M95.7,1339.8c-2.2,3.8-3.2,8.2-3.2,12.6c0,4.4,1.1,8.8,3.2,12.6h-1.2c-2.7-4.5-3.7-8.7-3.7-12.6
		s1-8.1,3.7-12.6H95.7z"/>
	<path class="st1" d="M101.7,1348.8h0.9c2.4,0,3.8-1.3,3.8-3.7c0-2.3-1.1-3.7-3.3-3.7c-2,0-3.5,1.3-3.5,4.1h-1.8
		c0-3.3,1.8-5.5,5.3-5.5c3.1,0,5.1,1.8,5.1,4.9c0,2.2-1,3.9-3.2,4.5v0.1c2.4,0.3,3.8,2.3,3.8,4.7c0,3.6-2,6-5.7,6
		c-3.4,0-5.4-1.9-5.5-5.6h1.8c0,2.3,1.2,4.2,3.8,4.2c2,0,3.9-1.2,3.9-4.6c0-2.6-1.5-4-3.9-4h-1.3V1348.8z"/>
	<path class="st1" d="M121.4,1340.3v1.5H114l-0.9,6.9l0.1,0.1c0.8-1.5,2.4-2,3.8-2c3.1,0,5.2,2.2,5.2,6.6c0,4-2,6.8-5.9,6.8
		c-3.1,0-5.3-1.9-5.3-5.4h1.8c0,2.2,1.3,4,3.7,4c2.4,0,3.9-2,3.9-5.7c0-2.7-1.2-4.9-3.9-4.9c-1.5,0-2.9,0.7-3.4,2.3h-1.7l1.1-10.2
		H121.4z"/>
	<path class="st1" d="M128.5,1339.9c2.2,0,3.5,1.1,3.5,5.2s-1.3,5.2-3.5,5.2c-2.2,0-3.5-1.1-3.5-5.2S126.2,1339.9,128.5,1339.9z
		 M128.5,1349c1.2,0,2-0.9,2-3.9c0-3-0.8-3.9-2-3.9c-1.2,0-2,1-2,3.9C126.4,1348.1,127.3,1349,128.5,1349z M137.1,1339.9h1.4
		l-8.6,20.2h-1.4L137.1,1339.9z M138.6,1349.8c2.2,0,3.5,1.1,3.5,5.2c0,4.1-1.3,5.2-3.5,5.2s-3.5-1.1-3.5-5.2
		C135.1,1350.9,136.4,1349.8,138.6,1349.8z M138.6,1358.9c1.2,0,2-0.9,2-3.9c0-3-0.8-3.9-2-3.9c-1.2,0-2,1-2,3.9
		C136.6,1357.9,137.5,1358.9,138.6,1358.9z"/>
	<path class="st1" d="M152.5,1351.1v1.5h-6.1v-1.5H152.5z"/>
	<path class="st1" d="M158.7,1349.3L158.7,1349.3c-2-0.6-3-2.5-3-4.4c0-3.2,2.1-4.9,5-4.9c2.9,0,5,1.7,5,4.9c0,1.9-1,3.9-3,4.4v0.1
		c2.4,0.3,3.6,2.6,3.6,4.9c0,3.8-2.2,5.9-5.6,5.9c-3.3,0-5.6-2.2-5.6-5.9C155.1,1351.8,156.3,1349.5,158.7,1349.3z M160.7,1358.7
		c2.5,0,3.8-2,3.8-4.4c0-2.4-1.3-4.4-3.8-4.4c-2.5,0-3.8,2-3.8,4.4C156.9,1356.7,158.2,1358.7,160.7,1358.7z M160.7,1348.5
		c2.2,0,3.2-1.5,3.2-3.6c0-2.1-1-3.6-3.2-3.6c-2.1,0-3.2,1.5-3.2,3.6C157.5,1347,158.6,1348.5,160.7,1348.5z"/>
	<path class="st1" d="M174.2,1339.9c4.5,0,5.6,4.2,5.6,10.1c0,5.9-1.1,10.1-5.6,10.1s-5.6-4.2-5.6-10.1
		C168.6,1344.2,169.7,1339.9,174.2,1339.9z M174.2,1358.7c2.7,0,3.8-2.3,3.8-8.7c0-6.4-1.1-8.7-3.8-8.7s-3.8,2.3-3.8,8.7
		C170.4,1356.4,171.5,1358.7,174.2,1358.7z"/>
	<path class="st1" d="M186.6,1339.9c2.2,0,3.5,1.1,3.5,5.2s-1.3,5.2-3.5,5.2c-2.2,0-3.5-1.1-3.5-5.2S184.4,1339.9,186.6,1339.9z
		 M186.6,1349c1.2,0,2-0.9,2-3.9c0-3-0.8-3.9-2-3.9c-1.2,0-2,1-2,3.9C184.6,1348.1,185.5,1349,186.6,1349z M195.3,1339.9h1.4
		l-8.6,20.2h-1.4L195.3,1339.9z M196.8,1349.8c2.2,0,3.5,1.1,3.5,5.2c0,4.1-1.3,5.2-3.5,5.2s-3.5-1.1-3.5-5.2
		C193.3,1350.9,194.6,1349.8,196.8,1349.8z M196.8,1358.9c1.2,0,2-0.9,2-3.9c0-3-0.8-3.9-2-3.9c-1.2,0-2,1-2,3.9
		C194.8,1357.9,195.7,1358.9,196.8,1358.9z"/>
	<path class="st1" d="M202,1364.9c2.2-3.8,3.2-8.2,3.2-12.6c0-4.4-1.1-8.8-3.2-12.6h1.2c2.7,4.5,3.7,8.7,3.7,12.6s-1,8.1-3.7,12.6
		H202z"/>
</g>
</svg>
