<?xml version="1.0" encoding="utf-8"?>
<!-- Generator: Adobe Illustrator 21.0.0, SVG Export Plug-In . SVG Version: 6.00 Build 0)  -->
<svg version="1.1" id="Layer_1" xmlns="http://www.w3.org/2000/svg" xmlns:xlink="http://www.w3.org/1999/xlink" x="0px" y="0px"
	 viewBox="0 0 1796 769" style="enable-background:new 0 0 1796 769;" xml:space="preserve">
<style type="text/css">
	.st0{fill:#231F20;}
	.st1{fill:none;stroke:#FFFFFF;stroke-width:0.9727;stroke-miterlimit:10;}
	.st2{fill:none;stroke:#231F20;stroke-width:0.9727;stroke-miterlimit:10;}
</style>
<g>
	<path class="st0" d="M0.5,538.4v-2.7l25.8-6.4v-0.1l-25.8-6.4v-2.7l28.6,7.5v3.2L0.5,538.4z"/>
	<path class="st0" d="M0.5,513.1v-3.2l28.6-8.4v2.7l-8.3,2.3v10l8.3,2.3v2.7L0.5,513.1z M18.6,507.1l-16.1,4.4v0.1l16.1,4.4V507.1z"
		/>
	<path class="st0" d="M19.4,482.6c6.5,0.4,10.2,3.4,10.2,8.5c0,5.8-4.5,9.1-14.8,9.1S0,496.9,0,491c0-5.8,4.1-8.2,8.8-8.2v2.6
		c-3.9,0-6.6,2-6.6,5.6c0,4.1,3.4,6.6,12.6,6.6s12.6-2.5,12.6-6.6c0-3.6-3.1-5.6-8-5.9V482.6z"/>
	<path class="st0" d="M19.4,461.8c6.5,0.4,10.2,3.4,10.2,8.5c0,5.8-4.5,9.1-14.8,9.1S0,476.1,0,470.3c0-5.8,4.1-8.2,8.8-8.2v2.6
		c-3.9,0-6.6,2-6.6,5.6c0,4.1,3.4,6.6,12.6,6.6s12.6-2.5,12.6-6.6c0-3.6-3.1-5.6-8-5.9V461.8z"/>
	<path class="st0" d="M0.5,458.2v-2.6H29v2.6H0.5z"/>
	<path class="st0" d="M0.5,451v-3.4l24.9-10.9v-0.1H0.5V434H29v3.4L4.2,448.4v0.1H29v2.6H0.5z"/>
	<path class="st0" d="M0.5,429.3v-14.2h2.2v11.6H13v-10.8h2.2v10.8h11.7v-12H29v14.5H0.5z"/>
	<path class="st0" d="M0.5,401.9v-14.2h2.2v11.6H13v-10.8h2.2v10.8h11.7v-12H29v14.5H0.5z"/>
	<path class="st0" d="M0.5,384.1V370h2.2v11.6H13v-10.8h2.2v10.8H29v2.6H0.5z"/>
	<path class="st0" d="M0.5,366.9v-14.2h2.2v11.6H13v-10.8h2.2v10.8H29v2.6H0.5z"/>
	<path class="st0" d="M0.5,349.6v-2.6H29v2.6H0.5z"/>
	<path class="st0" d="M19.4,325.2c6.5,0.4,10.2,3.4,10.2,8.5c0,5.8-4.5,9.1-14.8,9.1S0,339.5,0,333.7c0-5.8,4.1-8.2,8.8-8.2v2.6
		c-3.9,0-6.6,2-6.6,5.6c0,4.1,3.4,6.6,12.6,6.6s12.6-2.5,12.6-6.6c0-3.6-3.1-5.6-8-5.9V325.2z"/>
	<path class="st0" d="M0.5,315.6v-3.2l28.6-8.4v2.7l-8.3,2.3v10l8.3,2.3v2.7L0.5,315.6z M18.6,309.5l-16.1,4.4v0.1l16.1,4.4V309.5z"
		/>
	<path class="st0" d="M19.4,285c6.5,0.4,10.2,3.4,10.2,8.5c0,5.8-4.5,9.1-14.8,9.1S0,299.3,0,293.5c0-5.8,4.1-8.2,8.8-8.2v2.6
		c-3.9,0-6.6,2-6.6,5.6c0,4.1,3.4,6.6,12.6,6.6s12.6-2.5,12.6-6.6c0-3.6-3.1-5.6-8-5.9V285z"/>
	<path class="st0" d="M17.6,276.3l-17.1,7.7v-2.7l14.2-6.3l-14.2-6.3V266l17.1,7.7H29v2.6H17.6z"/>
	<path class="st0" d="M0.5,247.3c5.4,3.1,11.7,4.6,18,4.6c6.3,0,12.5-1.5,18-4.6v1.7c-6.4,3.9-12.4,5.3-18,5.3
		c-5.6,0-11.6-1.4-18-5.3V247.3z"/>
	<path class="st0" d="M0.7,227.6v-2l28.8,12.3v2L0.7,227.6z M0.7,240.1c0-3.2,1.6-5,7.4-5c5.8,0,7.4,1.8,7.4,5c0,3.2-1.6,5-7.4,5
		C2.3,245.1,0.7,243.3,0.7,240.1z M13.7,240.1c0-1.7-1.3-2.9-5.6-2.9c-4.2,0-5.6,1.2-5.6,2.9c0,1.7,1.4,2.9,5.6,2.9
		C12.4,242.9,13.7,241.7,13.7,240.1z M14.8,225.5c0-3.2,1.6-5,7.4-5s7.4,1.8,7.4,5c0,3.2-1.6,5-7.4,5S14.8,228.7,14.8,225.5z
		 M27.8,225.5c0-1.7-1.3-2.9-5.6-2.9c-4.2,0-5.6,1.2-5.6,2.9c0,1.7,1.4,2.9,5.6,2.9C26.4,228.4,27.8,227.2,27.8,225.5z"/>
	<path class="st0" d="M36.4,218.3c-5.4-3.1-11.7-4.6-18-4.6c-6.3,0-12.5,1.5-18,4.6v-1.7c6.4-3.9,12.4-5.3,18-5.3
		c5.6,0,11.6,1.4,18,5.3V218.3z"/>
</g>
<line class="st1" x1="131.4" y1="15.1" x2="139.4" y2="15.1"/>
<line class="st1" x1="131.4" y1="84.6" x2="139.4" y2="84.6"/>
<line class="st1" x1="131.4" y1="154.1" x2="139.4" y2="154.1"/>
<line class="st1" x1="131.4" y1="223.6" x2="139.4" y2="223.6"/>
<line class="st1" x1="131.4" y1="293.1" x2="139.4" y2="293.1"/>
<line class="st1" x1="131.4" y1="362.6" x2="139.4" y2="362.6"/>
<line class="st1" x1="131.4" y1="432.1" x2="139.4" y2="432.1"/>
<line class="st1" x1="131.4" y1="501.6" x2="139.4" y2="501.6"/>
<line class="st1" x1="131.4" y1="571.1" x2="139.4" y2="571.1"/>
<line class="st1" x1="131.4" y1="640.6" x2="139.4" y2="640.6"/>
<line class="st1" x1="131.4" y1="710.1" x2="139.4" y2="710.1"/>
<line class="st2" x1="139.4" y1="15.1" x2="415.5" y2="15.1"/>
<line class="st2" x1="415.5" y1="15.1" x2="691.6" y2="15.1"/>
<line class="st2" x1="691.6" y1="15.1" x2="967.7" y2="15.1"/>
<line class="st2" x1="967.7" y1="15.1" x2="1243.8" y2="15.1"/>
<line class="st2" x1="1243.8" y1="15.1" x2="1519.9" y2="15.1"/>
<line class="st2" x1="1519.9" y1="15.1" x2="1796" y2="15.1"/>
<line class="st2" x1="139.4" y1="84.6" x2="415.5" y2="84.6"/>
<line class="st2" x1="415.5" y1="84.6" x2="691.6" y2="84.6"/>
<line class="st2" x1="691.6" y1="84.6" x2="967.7" y2="84.6"/>
<line class="st2" x1="967.7" y1="84.6" x2="1243.8" y2="84.6"/>
<line class="st2" x1="1243.8" y1="84.6" x2="1519.9" y2="84.6"/>
<line class="st2" x1="1519.9" y1="84.6" x2="1796" y2="84.6"/>
<line class="st2" x1="139.4" y1="154.1" x2="415.5" y2="154.1"/>
<line class="st2" x1="415.5" y1="154.1" x2="691.6" y2="154.1"/>
<line class="st2" x1="691.6" y1="154.1" x2="967.7" y2="154.1"/>
<line class="st2" x1="967.7" y1="154.1" x2="1243.8" y2="154.1"/>
<line class="st2" x1="1243.8" y1="154.1" x2="1519.9" y2="154.1"/>
<line class="st2" x1="1519.9" y1="154.1" x2="1796" y2="154.1"/>
<line class="st2" x1="139.4" y1="223.6" x2="415.5" y2="223.6"/>
<line class="st2" x1="415.5" y1="223.6" x2="691.6" y2="223.6"/>
<line class="st2" x1="691.6" y1="223.6" x2="967.7" y2="223.6"/>
<line class="st2" x1="967.7" y1="223.6" x2="1243.8" y2="223.6"/>
<line class="st2" x1="1243.8" y1="223.6" x2="1519.9" y2="223.6"/>
<line class="st2" x1="1519.9" y1="223.6" x2="1796" y2="223.6"/>
<line class="st2" x1="139.4" y1="293.1" x2="415.5" y2="293.1"/>
<line class="st2" x1="415.5" y1="293.1" x2="691.6" y2="293.1"/>
<line class="st2" x1="691.6" y1="293.1" x2="967.7" y2="293.1"/>
<line class="st2" x1="967.7" y1="293.1" x2="1243.8" y2="293.1"/>
<line class="st2" x1="1243.8" y1="293.1" x2="1519.9" y2="293.1"/>
<line class="st2" x1="1519.9" y1="293.1" x2="1796" y2="293.1"/>
<line class="st2" x1="139.4" y1="362.6" x2="415.5" y2="362.6"/>
<line class="st2" x1="415.5" y1="362.6" x2="691.6" y2="362.6"/>
<line class="st2" x1="691.6" y1="362.6" x2="967.7" y2="362.6"/>
<line class="st2" x1="967.7" y1="362.6" x2="1243.8" y2="362.6"/>
<line class="st2" x1="1243.8" y1="362.6" x2="1519.9" y2="362.6"/>
<line class="st2" x1="1519.9" y1="362.6" x2="1796" y2="362.6"/>
<line class="st2" x1="139.4" y1="432.1" x2="415.5" y2="432.1"/>
<line class="st2" x1="415.5" y1="432.1" x2="691.6" y2="432.1"/>
<line class="st2" x1="691.6" y1="432.1" x2="967.7" y2="432.1"/>
<line class="st2" x1="967.7" y1="432.1" x2="1243.8" y2="432.1"/>
<line class="st2" x1="1243.8" y1="432.1" x2="1519.9" y2="432.1"/>
<line class="st2" x1="1519.9" y1="432.1" x2="1796" y2="432.1"/>
<line class="st2" x1="139.4" y1="501.6" x2="415.5" y2="501.6"/>
<line class="st2" x1="415.5" y1="501.6" x2="691.6" y2="501.6"/>
<line class="st2" x1="691.6" y1="501.6" x2="967.7" y2="501.6"/>
<line class="st2" x1="967.7" y1="501.6" x2="1243.8" y2="501.6"/>
<line class="st2" x1="1243.8" y1="501.6" x2="1519.9" y2="501.6"/>
<line class="st2" x1="1519.9" y1="501.6" x2="1796" y2="501.6"/>
<line class="st2" x1="139.4" y1="571.1" x2="415.5" y2="571.1"/>
<line class="st2" x1="415.5" y1="571.1" x2="691.6" y2="571.1"/>
<line class="st2" x1="691.6" y1="571.1" x2="967.7" y2="571.1"/>
<line class="st2" x1="967.7" y1="571.1" x2="1243.8" y2="571.1"/>
<line class="st2" x1="1243.8" y1="571.1" x2="1519.9" y2="571.1"/>
<line class="st2" x1="1519.9" y1="571.1" x2="1796" y2="571.1"/>
<line class="st2" x1="139.4" y1="640.6" x2="415.5" y2="640.6"/>
<line class="st2" x1="415.5" y1="640.6" x2="691.6" y2="640.6"/>
<line class="st2" x1="691.6" y1="640.6" x2="967.7" y2="640.6"/>
<line class="st2" x1="967.7" y1="640.6" x2="1243.8" y2="640.6"/>
<line class="st2" x1="1243.8" y1="640.6" x2="1519.9" y2="640.6"/>
<line class="st2" x1="1519.9" y1="640.6" x2="1796" y2="640.6"/>
<line class="st2" x1="139.4" y1="710.1" x2="415.5" y2="710.1"/>
<line class="st2" x1="415.5" y1="710.1" x2="691.6" y2="710.1"/>
<line class="st2" x1="691.6" y1="710.1" x2="967.7" y2="710.1"/>
<line class="st2" x1="967.7" y1="710.1" x2="1243.8" y2="710.1"/>
<line class="st2" x1="1243.8" y1="710.1" x2="1519.9" y2="710.1"/>
<line class="st2" x1="1519.9" y1="710.1" x2="1796" y2="710.1"/>
<g>
	<path class="st0" d="M73.5,7.3h-7.1V5.4c5.2,0,7.6-2.1,7.7-5.4h2v31.2h-2.6V7.3z"/>
	<path class="st0" d="M92.2,0c7.1,0,8.8,6.7,8.8,15.9c0,9.2-1.7,15.9-8.8,15.9s-8.8-6.7-8.8-15.9C83.4,6.7,85.1,0,92.2,0z
		 M92.2,29.5c4.3,0,5.9-3.7,5.9-13.7c0-10-1.7-13.7-5.9-13.7s-5.9,3.7-5.9,13.7C86.2,25.9,87.9,29.5,92.2,29.5z"/>
	<path class="st0" d="M113.4,0c7.1,0,8.8,6.7,8.8,15.9c0,9.2-1.7,15.9-8.8,15.9c-7.1,0-8.8-6.7-8.8-15.9C104.6,6.7,106.3,0,113.4,0z
		 M113.4,29.5c4.3,0,5.9-3.7,5.9-13.7c0-10-1.7-13.7-5.9-13.7c-4.3,0-5.9,3.7-5.9,13.7C107.4,25.9,109.1,29.5,113.4,29.5z"/>
</g>
<g>
	<path class="st0" d="M89.3,153.6L89.3,153.6c-3.1-0.9-4.7-4-4.7-7c0-5.1,3.3-7.7,7.8-7.7c4.6,0,7.8,2.6,7.8,7.7
		c0,3-1.6,6.1-4.7,6.9v0.1c3.8,0.4,5.6,4.1,5.6,7.7c0,5.9-3.5,9.3-8.8,9.3c-5.2,0-8.8-3.4-8.8-9.3C83.7,157.7,85.5,154,89.3,153.6z
		 M92.4,168.5c4,0,5.9-3.2,5.9-6.9c0-3.8-2-7-5.9-7s-5.9,3.2-5.9,7C86.5,165.3,88.5,168.5,92.4,168.5z M92.4,152.4
		c3.4,0,5-2.3,5-5.6c0-3.3-1.6-5.6-5-5.6c-3.3,0-5,2.3-5,5.6C87.4,150.1,89.1,152.4,92.4,152.4z"/>
	<path class="st0" d="M113.4,139c7.1,0,8.8,6.7,8.8,15.9c0,9.2-1.7,15.9-8.8,15.9s-8.8-6.7-8.8-15.9
		C104.7,145.6,106.3,139,113.4,139z M113.4,168.5c4.3,0,5.9-3.7,5.9-13.7c0-10-1.7-13.7-5.9-13.7c-4.3,0-5.9,3.7-5.9,13.7
		C107.5,164.8,109.1,168.5,113.4,168.5z"/>
</g>
<g>
	<path class="st0" d="M97.7,285.3c-0.1-3-1.8-5.1-4.9-5.1c-4.3,0-6.4,3.9-6.6,14.2l0.1,0.1c1-3.2,3.4-5.1,6.7-5.1
		c5.4,0,8.2,4,8.2,9.7c0,5.9-2.7,10.7-8.7,10.7c-7,0-9.1-5.2-9.1-15c0-10.2,2-16.7,9.5-16.7c4.9,0,7.5,3,7.6,7.3H97.7z M92.6,307.5
		c4.3,0,5.8-4,5.8-8c0-4-1.5-8-5.8-8c-4.3,0-5.8,4-5.8,8C86.7,303.5,88.3,307.5,92.6,307.5z"/>
	<path class="st0" d="M113.4,277.9c7.1,0,8.8,6.7,8.8,15.9c0,9.2-1.7,15.9-8.8,15.9s-8.8-6.7-8.8-15.9
		C104.7,284.6,106.3,277.9,113.4,277.9z M113.4,307.5c4.3,0,5.9-3.7,5.9-13.7c0-10-1.7-13.7-5.9-13.7c-4.3,0-5.9,3.7-5.9,13.7
		C107.5,303.8,109.1,307.5,113.4,307.5z"/>
</g>
<g>
	<path class="st0" d="M95,440.1H83v-2.6l12-20.5h2.6v20.8h3.7v2.4h-3.7v8H95V440.1z M95,437.7v-16.3h-0.1l-9.6,16.3H95z"/>
	<path class="st0" d="M113.3,416.9c7.1,0,8.8,6.7,8.8,15.9s-1.7,15.9-8.8,15.9s-8.8-6.7-8.8-15.9S106.2,416.9,113.3,416.9z
		 M113.3,446.4c4.3,0,5.9-3.7,5.9-13.7s-1.7-13.7-5.9-13.7c-4.3,0-5.9,3.7-5.9,13.7S109.1,446.4,113.3,446.4z"/>
</g>
<g>
	<path class="st0" d="M84.1,565.7c0.1-6,2.9-9.8,8.8-9.8c4.2,0,8.1,2.5,8.1,8.5c0,3.8-1.1,6.3-5.2,9.6l-3.4,2.8
		c-3.3,2.7-5,4.7-5.5,8h14.3v2.4H84c0-5.2,2.3-8.5,6.5-12l3.3-2.8c3.1-2.6,4.3-4.8,4.3-7.8c0-4.1-2.3-6.4-5.5-6.4
		c-3.6,0-5.5,2.4-5.7,7.6H84.1z"/>
	<path class="st0" d="M113.4,555.9c7.1,0,8.8,6.7,8.8,15.9s-1.7,15.9-8.8,15.9c-7.1,0-8.8-6.7-8.8-15.9S106.3,555.9,113.4,555.9z
		 M113.4,585.4c4.3,0,5.9-3.7,5.9-13.7s-1.7-13.7-5.9-13.7c-4.3,0-5.9,3.7-5.9,13.7S109.1,585.4,113.4,585.4z"/>
</g>
<g>
	<path class="st0" d="M113.3,694.9c7.1,0,8.8,6.7,8.8,15.9s-1.7,15.9-8.8,15.9s-8.8-6.7-8.8-15.9S106.2,694.9,113.3,694.9z
		 M113.3,724.4c4.3,0,5.9-3.7,5.9-13.7s-1.7-13.7-5.9-13.7c-4.3,0-5.9,3.7-5.9,13.7S109.1,724.4,113.3,724.4z"/>
</g>
<g>
	<path class="st0" d="M387.8,729.7h2.8v31.5h-2.8V729.7z"/>
	<path class="st0" d="M395.7,729.7h8.5c6.1,0,8.6,3.6,8.6,8.9c0,4.8-2.4,8.9-9.6,8.9h-4.7v13.7h-2.8V729.7z M398.5,745.2h4.8
		c3.7,0,6.7-1.7,6.7-6.5c0-4.7-2.4-6.5-6.7-6.5h-4.8V745.2z"/>
	<path class="st0" d="M416.6,729.7h7.6c9.2,0,11.4,5.5,11.4,15.7c0,10.3-2.2,15.7-11.4,15.7h-7.6V729.7z M419.4,758.8h4.6
		c6.2,0,8.8-3.1,8.8-13.3c0-10.3-2.6-13.4-8.8-13.4h-4.6V758.8z"/>
</g>
<g>
	<path class="st0" d="M443.9,733c0-1.1-0.7-1.9-1.8-1.9c-1.6,0-2.4,1.4-2.4,5.3l0,0c0.4-1.2,1.3-1.9,2.5-1.9c2,0,3,1.5,3,3.6
		c0,2.2-1,4-3.2,4c-2.6,0-3.4-1.9-3.4-5.6c0-3.8,0.8-6.2,3.5-6.2c1.8,0,2.8,1.1,2.8,2.7H443.9z M442,741.3c1.6,0,2.2-1.5,2.2-3
		c0-1.5-0.6-3-2.2-3c-1.6,0-2.2,1.5-2.2,3C439.8,739.8,440.4,741.3,442,741.3z"/>
</g>
<g>
	<path class="st0" d="M835.8,737.9h2.8l5.2,20.4h0.1l4.8-20.4h2.8l-6.2,23.4h-3L835.8,737.9z"/>
	<path class="st0" d="M853,744.8c0-4.8,2.3-7.5,7.2-7.5c4.8,0,6.6,2.5,6.6,6.2v13.8c0,1.3,0.4,1.9,1.4,1.9h0.7v1.9
		c-0.5,0.2-0.9,0.3-1.2,0.3c-2.1,0-3.4-0.5-3.4-2.9v-0.8h-0.1c-1.1,3.1-3.4,4-6,4c-4.1,0-5.9-2.6-5.9-6.6c0-3.1,1.4-5.5,4.7-6.5
		l5-1.4c1.8-0.5,2.2-1,2.2-3.7c0-3-1.7-4.1-4.1-4.1c-3.1,0-4.5,1.9-4.5,5.3H853z M864.2,748L864.2,748c-0.4,0.8-1.8,1.3-2.9,1.5
		l-2.2,0.6c-2.6,0.7-4,2.1-4,4.8c0,2.7,1.4,4.6,3.7,4.6c3.2,0,5.4-2.4,5.4-6.6V748z"/>
	<path class="st0" d="M885.4,753.5c-0.4,5-3.1,8.3-7.4,8.3c-4.9,0-7.8-3.4-7.8-12.2c0-8.1,2.9-12.2,8.1-12.2c4.4,0,7,2.7,7.2,7.5
		h-2.6c-0.3-3.7-1.8-5.3-4.6-5.3c-2.9,0-5.2,1.8-5.2,10c0,8.8,2.5,10,5,10c2.7,0,4.4-2,4.8-6.1H885.4z"/>
	<path class="st0" d="M902.8,753.5c-0.4,5-3.1,8.3-7.4,8.3c-4.9,0-7.8-3.4-7.8-12.2c0-8.1,2.9-12.2,8.1-12.2c4.4,0,7,2.7,7.2,7.5
		h-2.6c-0.3-3.7-1.8-5.3-4.6-5.3c-2.9,0-5.2,1.8-5.2,10c0,8.8,2.5,10,5,10c2.7,0,4.4-2,4.8-6.1H902.8z"/>
	<path class="st0" d="M906,729.8h2.6v4.5H906V729.8z M906,737.9h2.6v23.4H906V737.9z"/>
	<path class="st0" d="M912.8,737.9h2.4v3.3h0.1c1.3-2.6,3.6-3.8,6-3.8c3.6,0,6,1.9,6,6.3v17.7h-2.6v-16.9c0-3.2-1.3-4.8-4-4.8
		c-3.1,0-5.2,2.4-5.2,6v15.7h-2.6V737.9z"/>
	<path class="st0" d="M946,753.5c-0.4,5-3.1,8.3-7.5,8.3c-4.9,0-7.8-3.4-7.8-12.2c0-8.1,2.9-12.2,8.1-12.2c5.2,0,7.5,3.6,7.5,11.4v1
		h-12.8v1.1c0,6.7,2.4,8.8,5,8.8c2.8,0,4.5-2,4.9-6.1H946z M943.4,747.5c-0.1-5.8-1.7-7.9-5-7.9c-3.3,0-4.9,2.1-5,7.9H943.4z"/>
	<path class="st0" d="M959.5,747.5v2.4h-9.6v-2.4H959.5z"/>
	<path class="st0" d="M964.1,740.1h-3.2v-2.2h3.2v-6.5h2.6v6.5h4.1v2.2h-4.1v16.8c0,1.8,0.8,2.5,2.5,2.5c0.5,0,1.1-0.1,1.6-0.3v2.2
		c-0.3,0.2-1,0.3-1.8,0.3c-3.6,0-4.9-1-4.9-4.1V740.1z"/>
	<path class="st0" d="M972.1,737.9h2.8l5.2,20.3h0.1l4.7-20.3h2.8l-6.8,25.3c-1.2,4.6-2.6,5.9-6.2,5.9c-0.7,0-1.2,0-1.8-0.1v-2.2
		c0.6,0,1.1,0.1,1.7,0.1c1.6,0,2.7-0.7,3.5-3.1l0.7-2.2L972.1,737.9z"/>
	<path class="st0" d="M990,737.9h2.4v3.3h0.1c0.8-2.2,2.8-3.9,5.8-3.9c5.2,0,7.4,4.1,7.4,12.2c0,8.1-2.3,12.2-7.5,12.2
		c-2.9,0-4.9-1.6-5.5-4.1h-0.1V769H990V737.9z M997.9,739.5c-1.5,0-2.8,0.8-3.7,2.1c-1.1,1.6-1.5,3.9-1.5,8c0,8.6,2.4,10,5.1,10
		c2.6,0,5.1-1.4,5.1-10C1002.9,741.1,1000.4,739.5,997.9,739.5z"/>
	<path class="st0" d="M1023.7,753.5c-0.4,5-3.1,8.3-7.5,8.3c-4.9,0-7.8-3.4-7.8-12.2c0-8.1,2.9-12.2,8.1-12.2
		c5.2,0,7.5,3.6,7.5,11.4v1h-12.8v1.1c0,6.7,2.4,8.8,5,8.8c2.8,0,4.5-2,4.9-6.1H1023.7z M1021.1,747.5c-0.1-5.8-1.7-7.9-5-7.9
		c-3.3,0-4.9,2.1-5,7.9H1021.1z"/>
	<path class="st0" d="M1037.2,747.5v2.4h-9.6v-2.4H1037.2z"/>
	<path class="st0" d="M1042.1,729.8h2.8v31.5h-2.8V729.8z"/>
	<path class="st0" d="M1050.1,729.8h8.5c6.1,0,8.6,3.6,8.6,8.9c0,4.8-2.4,8.9-9.6,8.9h-4.7v13.7h-2.8V729.8z M1052.9,745.2h4.8
		c3.7,0,6.7-1.7,6.7-6.5c0-4.7-2.4-6.5-6.7-6.5h-4.8V745.2z"/>
	<path class="st0" d="M1070.9,729.8h7.6c9.2,0,11.4,5.5,11.4,15.7c0,10.3-2.2,15.7-11.4,15.7h-7.6V729.8z M1073.7,758.9h4.6
		c6.2,0,8.8-3.1,8.8-13.3c0-10.3-2.6-13.4-8.8-13.4h-4.6V758.9z"/>
</g>
<g>
	<path class="st0" d="M1098,733c0-1.1-0.7-1.9-1.8-1.9c-1.6,0-2.4,1.4-2.4,5.3l0,0c0.4-1.2,1.3-1.9,2.5-1.9c2,0,3,1.5,3,3.6
		c0,2.2-1,4-3.2,4c-2.6,0-3.4-1.9-3.4-5.6c0-3.8,0.8-6.2,3.5-6.2c1.8,0,2.8,1.1,2.8,2.7H1098z M1096.1,741.3c1.6,0,2.2-1.5,2.2-3
		c0-1.5-0.6-3-2.2-3c-1.6,0-2.2,1.5-2.2,3C1093.9,739.8,1094.5,741.3,1096.1,741.3z"/>
</g>
<g>
	<path class="st0" d="M1495.9,730.1h9c4.4,0,10,1.7,10,8.2c0,5.6-4.5,8.2-9.4,8.2h-6.7v14.8h-2.9V730.1z M1498.8,743.8h6.6
		c3.3,0,6.6-1.4,6.6-5.5c0-4-3.4-5.6-6.8-5.6h-6.4V743.8z"/>
	<path class="st0" d="M1519.7,730.1h9c4.4,0,10,1.7,10,8.2c0,5.6-4.5,8.2-9.4,8.2h-6.7v14.8h-2.9V730.1z M1522.7,743.8h6.6
		c3.3,0,6.6-1.4,6.6-5.5c0-4-3.4-5.6-6.8-5.6h-6.4V743.8z"/>
</g>
<g>
	<path class="st0" d="M1543.1,735.8L1543.1,735.8c-1.1-0.3-1.7-1.5-1.7-2.6c0-1.9,1.2-2.9,2.9-2.9c1.7,0,2.9,1,2.9,2.9
		c0,1.1-0.6,2.3-1.7,2.5v0c1.4,0.1,2.1,1.5,2.1,2.9c0,2.2-1.3,3.5-3.3,3.5c-1.9,0-3.3-1.3-3.3-3.5
		C1541,737.3,1541.7,735.9,1543.1,735.8z M1544.2,741.3c1.5,0,2.2-1.2,2.2-2.6c0-1.4-0.7-2.6-2.2-2.6c-1.5,0-2.2,1.2-2.2,2.6
		C1542,740.1,1542.8,741.3,1544.2,741.3z M1544.2,735.3c1.3,0,1.9-0.8,1.9-2.1c0-1.2-0.6-2.1-1.9-2.1c-1.2,0-1.9,0.8-1.9,2.1
		C1542.4,734.5,1543,735.3,1544.2,735.3z"/>
</g>
</svg>
