<?xml version="1.0" encoding="utf-8"?>
<!-- Generator: Adobe Illustrator 21.0.0, SVG Export Plug-In . SVG Version: 6.00 Build 0)  -->
<svg version="1.1" id="Layer_1" xmlns="http://www.w3.org/2000/svg" xmlns:xlink="http://www.w3.org/1999/xlink" x="0px" y="0px"
	 viewBox="0 0 336 74" style="enable-background:new 0 0 336 74;" xml:space="preserve">
<style type="text/css">
	.st0{fill:#FFFFFF;}
</style>
<g>
	<path class="st0" d="M3.5,70.9C1.1,67,0,63.4,0,58.7s1.1-8.3,3.5-12.2l1.4,0.9c-2.1,3.7-3,7.3-3,11.3c0,4,1,7.5,3,11.3L3.5,70.9z"
		/>
	<path class="st0" d="M10.5,57.8h2.3c2.2,0,3.5-1.2,3.5-3.8c0-2.6-1.3-3.8-3.5-3.8h-2.3V57.8z M8.2,48.2h4.9c3.3,0,5.5,2.2,5.5,5.7
		c0,3.5-2.2,5.7-5.5,5.7h-2.6v9.4H8.2V48.2z"/>
	<path class="st0" d="M20.7,54.1h1.9v1.6c1-1,2.4-1.9,3.4-1.9c2.1,0,3.3,1.2,3.3,3.9v11.4h-2.1V58c0-1.7-0.5-2.5-1.6-2.5
		c-1,0-1.9,0.7-2.8,1.8v11.7h-2.1V54.1z"/>
	<path class="st0" d="M38.6,60.2c-0.1-3.2-0.6-4.7-2.5-4.7c-1.5,0-2.5,1.1-2.5,4.7H38.6z M33.7,61.9v0.8c0,3.7,0.8,4.9,2.8,4.9
		c1.6,0,2.2-1.5,2.5-2.8l1.9,0.2c-0.3,2.2-2,4.3-4.7,4.3c-3.1,0-4.5-2.4-4.5-7.8c0-5.4,1.4-7.8,4.5-7.8c3.1,0,4.5,2.8,4.5,7.2v1
		H33.7z"/>
	<path class="st0" d="M51.5,69.1h-1.9v-1.6c-1,1-2.4,1.9-3.4,1.9c-2.1,0-3.3-1.2-3.3-3.9V54.1H45v11.1c0,1.7,0.5,2.5,1.6,2.5
		c1,0,1.9-0.7,2.8-1.8V54.1h2.1V69.1z"/>
	<path class="st0" d="M54.7,69.1v-15h1.9v1.6c0.8-1,2-1.9,3.5-1.9c1.2,0,2.3,0.8,2.7,1.9c0.8-0.9,2-1.9,3.5-1.9c1.9,0,3,1.3,3,3.5
		v11.8H67V57.5c0-1.6-0.5-2-1.5-2c-1.3,0-2,0.9-2.6,1.6v12h-2.1V57.5c0-1.6-0.5-2-1.6-2c-1.3,0-2,0.9-2.5,1.6v12H54.7z"/>
	<path class="st0" d="M76.1,67.6c1.7,0,2.5-1.1,2.5-6.1c0-5-0.7-6.1-2.5-6.1c-1.7,0-2.5,1.1-2.5,6.1C73.6,66.6,74.3,67.6,76.1,67.6
		 M76.1,53.8c3.1,0,4.5,2.4,4.5,7.8c0,5.4-1.4,7.8-4.5,7.8c-3.1,0-4.5-2.4-4.5-7.8C71.5,56.2,72.9,53.8,76.1,53.8"/>
	<path class="st0" d="M89.1,58.5c-0.2-2.2-1.1-3-2.3-3c-1.7,0-2.5,1.1-2.5,6.1c0,5,0.7,6.1,2.5,6.1c1.3,0,2.1-0.7,2.4-3.3h2
		c-0.3,2.9-1.7,5-4.4,5c-3.1,0-4.5-2.4-4.5-7.8c0-5.4,1.4-7.8,4.5-7.8c2.7,0,3.9,1.8,4.3,4.7H89.1z"/>
	<path class="st0" d="M97.4,67.6c1.7,0,2.5-1.1,2.5-6.1c0-5-0.7-6.1-2.5-6.1c-1.7,0-2.5,1.1-2.5,6.1C94.9,66.6,95.7,67.6,97.4,67.6
		 M97.4,53.8c3.1,0,4.5,2.4,4.5,7.8c0,5.4-1.4,7.8-4.5,7.8c-3.1,0-4.5-2.4-4.5-7.8C92.9,56.2,94.3,53.8,97.4,53.8"/>
	<path class="st0" d="M110.5,58.5c-0.2-2.2-1.1-3-2.3-3c-1.7,0-2.5,1.1-2.5,6.1c0,5,0.7,6.1,2.5,6.1c1.3,0,2.1-0.7,2.4-3.3h2
		c-0.3,2.9-1.7,5-4.4,5c-3.1,0-4.5-2.4-4.5-7.8c0-5.4,1.4-7.8,4.5-7.8c2.7,0,3.9,1.8,4.3,4.7H110.5z"/>
	<path class="st0" d="M121.1,58.5c-0.2-2.2-1.1-3-2.3-3c-1.7,0-2.5,1.1-2.5,6.1c0,5,0.7,6.1,2.5,6.1c1.3,0,2.1-0.7,2.4-3.3h2
		c-0.3,2.9-1.7,5-4.4,5c-3.1,0-4.5-2.4-4.5-7.8c0-5.4,1.4-7.8,4.5-7.8c2.7,0,3.9,1.8,4.3,4.7H121.1z"/>
	<path class="st0" d="M132,61c-1.9,0.6-4.9,2-4.9,4.3c0,1.4,0.6,2.3,2.1,2.3c1.1,0,2.1-0.8,2.8-1.6V61z M125.4,58.2
		c0.4-2.4,1.8-4.4,4.4-4.4c2.7,0,4.3,1.6,4.3,4.3v8.4c0,1.3,0.1,2.3,0.4,2.7h-2.1l-0.3-1.3c-0.8,0.8-2.2,1.6-3.2,1.6
		c-2.3,0-3.9-1.5-3.9-3.9c0-3.7,4-5.6,7-6.2v-1.1c0-1.6-0.8-2.7-2.1-2.7c-1.6,0-2.3,1.6-2.6,2.9L125.4,58.2z"/>
	<rect x="137.2" y="48.2" class="st0" width="2.1" height="20.8"/>
	<polygon class="st0" points="150.5,48.2 154.1,64.8 154.2,64.8 157.8,48.2 160,48.2 155.2,69.1 153.1,69.1 148.3,48.2 	"/>
	<path class="st0" d="M168.1,61c-1.9,0.6-4.9,2-4.9,4.3c0,1.4,0.6,2.3,2.1,2.3c1.1,0,2.1-0.8,2.8-1.6V61z M161.5,58.2
		c0.4-2.4,1.8-4.4,4.4-4.4c2.7,0,4.2,1.6,4.2,4.3v8.4c0,1.3,0.1,2.3,0.4,2.7h-2.1l-0.3-1.3c-0.8,0.8-2.2,1.6-3.2,1.6
		c-2.3,0-3.9-1.5-3.9-3.9c0-3.7,4-5.6,7-6.2v-1.1c0-1.6-0.8-2.7-2.1-2.7c-1.6,0-2.3,1.6-2.6,2.9L161.5,58.2z"/>
	<path class="st0" d="M179.8,58.5c-0.2-2.2-1.1-3-2.3-3c-1.7,0-2.5,1.1-2.5,6.1c0,5,0.7,6.1,2.5,6.1c1.3,0,2.1-0.7,2.4-3.3h2
		c-0.3,2.9-1.7,5-4.4,5c-3.1,0-4.5-2.4-4.5-7.8c0-5.4,1.4-7.8,4.5-7.8c2.7,0,3.9,1.8,4.3,4.7H179.8z"/>
	<path class="st0" d="M190.8,58.5c-0.2-2.2-1.1-3-2.3-3c-1.7,0-2.5,1.1-2.5,6.1c0,5,0.7,6.1,2.5,6.1c1.3,0,2.1-0.7,2.4-3.3h2
		c-0.3,2.9-1.7,5-4.4,5c-3.1,0-4.5-2.4-4.5-7.8c0-5.4,1.4-7.8,4.5-7.8c2.7,0,3.9,1.8,4.3,4.7H190.8z"/>
	<path class="st0" d="M195.8,54.1h2.1v15h-2.1V54.1z M195.8,48.2h2.1v2.4h-2.1V48.2z"/>
	<path class="st0" d="M201.6,54.1h1.9v1.6c1-1,2.4-1.9,3.4-1.9c2.1,0,3.3,1.2,3.3,3.9v11.4h-2.1V58c0-1.7-0.5-2.5-1.6-2.5
		c-1,0-1.9,0.7-2.8,1.8v11.7h-2.1V54.1z"/>
	<path class="st0" d="M220.2,60.2c-0.1-3.2-0.6-4.7-2.5-4.7c-1.5,0-2.5,1.1-2.5,4.7H220.2z M215.3,61.9v0.8c0,3.7,0.8,4.9,2.8,4.9
		c1.6,0,2.2-1.5,2.5-2.8l1.9,0.2c-0.3,2.2-2,4.3-4.7,4.3c-3.1,0-4.5-2.4-4.5-7.8c0-5.4,1.4-7.8,4.5-7.8c3.1,0,4.5,2.8,4.5,7.2v1
		H215.3z"/>
	<path class="st0" d="M233.5,57.8h2.3c2.2,0,3.5-1.2,3.5-3.8c0-2.6-1.3-3.8-3.5-3.8h-2.3V57.8z M231.3,48.2h4.9
		c3.3,0,5.5,2.2,5.5,5.7c0,3.5-2.2,5.7-5.5,5.7h-2.6v9.4h-2.2V48.2z"/>
	<path class="st0" d="M246.9,67.6c1.7,0,2.5-1.1,2.5-6.1c0-5-0.7-6.1-2.5-6.1c-1.7,0-2.5,1.1-2.5,6.1
		C244.4,66.6,245.2,67.6,246.9,67.6 M246.9,53.8c3.1,0,4.5,2.4,4.5,7.8c0,5.4-1.4,7.8-4.5,7.8c-3.1,0-4.5-2.4-4.5-7.8
		C242.4,56.2,243.8,53.8,246.9,53.8"/>
	<rect x="254.2" y="48.2" class="st0" width="2.1" height="20.8"/>
	<path class="st0" d="M260.8,54.1l2.8,11.5h0.1l2.3-11.5h2.1l-3.4,14.7c-0.8,3.3-2.2,5.2-4.7,5.2h-1.1v-1.7h0.6
		c1.6,0,2.7-1.2,3.1-3.3l-3.9-14.9H260.8z"/>
	<polygon class="st0" points="271.4,54.1 274.4,67 274.4,67 277.3,54.1 279.4,54.1 275.7,69.1 273,69.1 269.4,54.1 	"/>
	<path class="st0" d="M287.8,61c-1.9,0.6-4.9,2-4.9,4.3c0,1.4,0.6,2.3,2.1,2.3c1.1,0,2.1-0.8,2.8-1.6V61z M281.2,58.2
		c0.4-2.4,1.8-4.4,4.4-4.4c2.7,0,4.3,1.6,4.3,4.3v8.4c0,1.3,0.1,2.3,0.4,2.7h-2.1l-0.3-1.3c-0.8,0.8-2.2,1.6-3.2,1.6
		c-2.3,0-3.9-1.5-3.9-3.9c0-3.7,4-5.6,7-6.2v-1.1c0-1.6-0.8-2.7-2.1-2.7c-1.6,0-2.3,1.6-2.6,2.9L281.2,58.2z"/>
	<rect x="293.7" y="48.2" class="st0" width="2.1" height="20.8"/>
	<path class="st0" d="M305.8,60.2c-0.1-3.2-0.6-4.7-2.5-4.7c-1.5,0-2.5,1.1-2.5,4.7H305.8z M300.9,61.9v0.8c0,3.7,0.8,4.9,2.8,4.9
		c1.6,0,2.2-1.5,2.5-2.8l1.9,0.2c-0.3,2.2-2,4.3-4.7,4.3c-3.1,0-4.5-2.4-4.5-7.8c0-5.4,1.4-7.8,4.5-7.8c3.1,0,4.5,2.8,4.5,7.2v1
		H300.9z"/>
	<path class="st0" d="M310.9,54.1h1.9v1.6c1-1,2.4-1.9,3.4-1.9c2.1,0,3.3,1.2,3.3,3.9v11.4h-2.1V58c0-1.7-0.5-2.5-1.6-2.5
		c-1,0-1.9,0.7-2.8,1.8v11.7h-2.1V54.1z"/>
	<path class="st0" d="M321.9,54.1h2v-5h2.1v5h2.7v1.7H326v10.5c0,0.9,0.5,1.5,1.5,1.5c0.4,0,0.9-0.2,1.3-0.3v1.6
		c-0.6,0.2-1.1,0.3-1.9,0.3c-1.9,0-2.9-0.9-2.9-3.2V55.8h-2V54.1z"/>
	<path class="st0" d="M332.5,46.6c2.4,3.9,3.5,7.5,3.5,12.2c0,4.7-1.1,8.3-3.5,12.1l-1.4-0.9c2.1-3.7,3-7.3,3-11.3c0-4-1-7.5-3-11.3
		L332.5,46.6z"/>
	<path class="st0" d="M215.1,18.6l3.7-8.6l3.7,8.6H215.1z M220.5,3.8h-3.6l-11,25.2h4.9l2.6-6.4h10.8l1.1,2.8
		c1.5,3.6,6.4,3.6,6.4,3.6L220.5,3.8z"/>
	<path class="st0" d="M45.3,13.4h-6.2V4.1h6.3c2,0,5.4,0.9,5.4,4.7C50.8,11.4,48.7,13.4,45.3,13.4 M45.6,0H34.8v29h4.3V17.6h6.1
		c6,0,10-3.7,10-8.9C55.2,3.6,51.4,0,45.6,0"/>
	<path class="st0" d="M258.8,4.8c0.2,0,0.4-0.1,0.4-0.3c0-0.3-0.3-0.3-0.4-0.3h-0.7v0.7H258.8z M258.1,5.2v0.9h-0.4V3.8h1.1
		c0.8,0,0.9,0.4,0.9,0.7c0,0.6-0.4,0.6-0.6,0.7l0.7,0.9h-0.5l-0.7-0.9H258.1z"/>
	<path class="st0" d="M258.7,6.8c-1,0-1.8-0.8-1.8-1.9c0-1,0.8-1.9,1.8-1.9c1,0,1.9,0.8,1.9,1.9C260.5,6,259.7,6.8,258.7,6.8
		 M258.7,2.7c-1.2,0-2.2,1-2.2,2.3c0,1.2,1,2.3,2.2,2.3c1.2,0,2.2-1,2.2-2.3C260.9,3.7,259.9,2.7,258.7,2.7"/>
	<path class="st0" d="M75.9,8.1v14.2L62.5,3.8h-3.7V29H63V11.3L76.8,29h3.4V3.7C80.2,3.7,75.9,4.6,75.9,8.1"/>
	<polygon class="st0" points="85.2,3.8 85.2,29 103.8,29 103.8,24.9 89.4,24.9 89.4,18.4 101,18.4 101,14.3 89.4,14.3 89.4,7.9 
		103.7,7.9 103.7,3.8 	"/>
	<path class="st0" d="M124.8,19.9c0,3.2-2.5,5.4-6.2,5.4c-4.1,0-6.3-2.5-6.3-7.1V3.8H108v14.5c0,6.8,4,11.1,10.5,11.1
		c6.6,0,10.5-4.2,10.5-11.3V3.7c0,0-4.3,0.9-4.3,4.4L124.8,19.9z"/>
	<polygon class="st0" points="145.8,22.6 153,11.8 153,29 157.3,29 157.3,3.8 153.4,3.8 145.3,16 137.3,3.8 133.4,3.8 133.4,29 
		137.7,29 137.7,11.8 144.9,22.6 	"/>
	<path class="st0" d="M164.9,16.4c0-5.1,3.6-8.9,8.3-8.9c4.8,0,8.4,3.9,8.4,9c0,5.1-3.6,8.9-8.3,8.9
		C168.5,25.4,164.9,21.5,164.9,16.4 M160.7,16.5c0,7.4,5.4,12.9,12.6,12.9c7.1,0,12.7-5.7,12.7-13c0-7.4-5.4-12.9-12.6-12.9
		C166.2,3.5,160.7,9.2,160.7,16.5"/>
	<path class="st0" d="M204.7,7.4l-6.3,15.4l-7.8-19h-4.8L196.6,29h3.5l10.8-25.2C210.9,3.8,206.2,3.8,204.7,7.4"/>
	<polygon class="st0" points="268.8,45.4 246.5,16 255.8,3.8 250.6,3.8 244,12.8 237.4,3.8 232.2,3.8 241.5,16 231.6,29 236.8,29 
		244,19.1 263.9,45.4 	"/>
	<path class="st0" d="M262.6,8.5L262.6,8.5l-0.4,0.6l3.1,2.3l0.4-0.6c2-2.8,3.6-3.8,5.8-3.8c2,0,4.1,1.3,4.1,3.9
		c0,2.1-1.2,3.9-4.7,7.1l-8.9,7.9V29h18.1v-3.9h-11.5c0.2-0.2,5-4.5,5-4.5c3.9-3.5,6.3-5.9,6.3-10c0-4.4-3.4-7.6-8.1-7.6
		C266.9,3.1,264.5,5.7,262.6,8.5"/>
	<path class="st0" d="M284.1,3.8v3.9h10.8c-0.2,0.2-6.8,7.7-6.8,7.7l0.8,2.5h2c1.4,0,6,0.3,6,4c0,2.4-1.9,4-4.5,4
		c-2.6,0-4.6-1.1-6.4-3.3l-0.5-0.6l-3,2.7l0.4,0.5c1.6,2.1,4.5,4.6,9.5,4.6c5,0,8.7-3.5,8.7-8.1c0-3.7-2.4-6.4-6.6-7.3
		c0,0-0.4-0.1-0.5-0.1c0.1-0.2,6.7-7.6,6.7-7.6l0-3H284.1z"/>
</g>
</svg>
