<svg xmlns="http://www.w3.org/2000/svg" viewBox="0 0 1277.82 586.66"><defs><style>.cls-1{isolation:isolate;}.cls-2{opacity:0.5;mix-blend-mode:multiply;}.cls-3{fill:#fff;}</style></defs><title>Asset 2</title><g class="cls-1"><g id="Layer_2" data-name="Layer 2"><g id="Layer_1-2" data-name="Layer 1"><g id="_Group_" data-name="&lt;Group&gt;"><g class="cls-2"><path d="M7,49.85l9.13-.54L19,81.08l5.31-32.24,8.25-.49L36.1,80.07l4.65-32.2,8.91-.52-9.13,52.79-9.35.55L27.76,70l-5.06,31.18-9.35.55Z"/><path d="M52.66,47.17l8.91-.52L61,68.26l7.74-.46.57-21.62,8.91-.52L76.84,97.84l-8.91.52.58-21.92-7.74.46-.58,21.92-8.91.52Z"/><path d="M81.88,72.84,82,70.15c.46-17.22,6.16-25.82,14.27-26.29s13.37,7.48,12.91,24.7l-.07,2.68c-.46,17.22-6.16,25.82-14.26,26.29S81.43,90.06,81.88,72.84ZM100,71.77l.07-2.68c.36-13.42-1.37-17-4.07-16.88s-4.63,4-5,17.41l-.07,2.68c-.36,13.42,1.37,17,4.07,16.88S99.65,85.19,100,71.77Z"/><path d="M125.79,42.87l19.58-1.15-.23,8.65L134.47,51l-.34,13,9.42-.55-.23,8.65-9.42.55-.35,13.27,10.88-.64-.23,8.65L124.4,95Z"/><path d="M147.46,91.91l.25-9.47c3.09,1.68,5.55,2.58,8,2.43s4.78-1.55,4.87-4.75V80c.06-2.39-.62-4.13-4.73-8.8-5.88-6.65-8.27-9.86-8.1-16.19v-.15c.22-8.35,5.7-14,12.78-14.37a15.09,15.09,0,0,1,7.85,1.18l-.25,9.47c-2.73-1.48-4.39-2.12-6.73-2a4.82,4.82,0,0,0-4.72,4.74V54c-.07,2.46.64,3.31,4.75,8.06,6.79,7.86,8.24,11,8.08,16.94v.15c-.22,8.2-6,14-13,14.38A19.1,19.1,0,0,1,147.46,91.91Z"/><path d="M177.14,48.48l-6.28.37.23-8.65,21.48-1.26-.23,8.65L186,48l-1.16,43.53L176,92Z"/><path d="M196.43,38.71l8.91-.52L204,90.37l-8.91.52Z"/><path d="M210.75,37.87l8.84-.52,5.78,18.71,6.79-19.45,8.84-.52-1.39,52.18-8.55.5.84-31.53-7,20.14h-.15l-6-19.37-.84,31.53-8.55.5Z"/><path d="M253.42,35.21l9.5-.56,8.33,51.76-8.91.52-1.41-10.26-8.11.48-1.88,10.46-8.62.51Zm6.41,33.34-2.25-17.06-3.23,17.38Z"/><path d="M277.66,42.57l-6.28.37.23-8.65L293.08,33l-.23,8.65-6.28.37-1.16,43.53-8.91.52Z"/><path d="M296.81,32.81l19.58-1.15-.23,8.65-10.67.63-.34,13,9.42-.55L314.34,62l-9.42.55-.35,13.27,10.89-.64-.23,8.65L295.42,85Z"/><path d="M318.48,81.85l.25-9.47c3.09,1.68,5.55,2.58,8,2.43s4.78-1.55,4.87-4.75v-.15c.06-2.39-.62-4.13-4.73-8.8-5.88-6.65-8.27-9.86-8.1-16.2v-.15c.22-8.35,5.7-14,12.78-14.37a15.09,15.09,0,0,1,7.85,1.18L339.11,41c-2.73-1.48-4.39-2.12-6.73-2a4.82,4.82,0,0,0-4.72,4.74v.15c-.07,2.46.64,3.31,4.75,8.06,6.79,7.86,8.24,11,8.08,16.94v.15c-.22,8.2-6,14-13,14.38A19.09,19.09,0,0,1,318.48,81.85Z"/><path d="M360.79,37.68l-6.28.37.23-8.65,21.48-1.26L376,36.79l-6.28.37-1.16,43.53-8.91.52Z"/><path d="M379.94,27.92l8.91-.52L388.28,49l7.74-.46.57-21.62,8.91-.52L404.13,78.6l-8.91.52.58-21.92-7.74.46-.58,21.92-8.91.52Z"/><path d="M417.94,25.54l9.5-.56,8.33,51.76-8.91.52L425.44,67l-8.11.48-1.88,10.46-8.62.51Zm6.41,33.34L422.1,41.81,418.86,59.2Z"/><path d="M442.17,32.89l-6.28.37.23-8.65,21.48-1.26L457.37,32l-6.28.37L449.93,75.9l-8.91.52Z"/><path d="M470.53,22.59l9.13-.54,2.88,31.76,5.3-32.24,8.25-.49,3.54,31.72,4.65-32.2,8.91-.52-9.13,52.79-9.35.55-3.42-30.69-5.06,31.18-9.35.55Z"/><path d="M513.85,47.43l.07-2.68c.46-17.22,6.16-25.82,14.27-26.29s13.37,7.47,12.91,24.69L541,45.83c-.46,17.22-6.16,25.82-14.26,26.29S513.4,64.65,513.85,47.43ZM532,46.37l.07-2.68c.36-13.42-1.37-17-4.07-16.88s-4.63,4-5,17.41l-.07,2.68c-.36,13.42,1.37,17,4.07,16.88S531.62,59.79,532,46.37Z"/><path d="M546.14,18.15l9.21-.54c9.13-.54,15.65,4,15.34,15.7l0,.67c-.18,6.78-2.92,11.26-6.35,14.07l6.3,20.77-9.5.56-5.29-17.85h-.15l-1.54.09-.48,18.19-8.91.52Zm8.67,25.24c3.87-.23,6.78-2.71,6.94-8.82l0-.6c.17-6.56-2.85-8.09-6.72-7.87h-.22l-.46,17.29Z"/><path d="M575.22,16.44l8.91-.52L583,59.44l9.42-.55-.23,8.65-18.34,1.08Z"/><path d="M597.13,15.15l8.33-.49C616.86,14,623.14,22,622.69,38.8l0,1.79c-.45,16.77-7.17,25.58-18.57,26.25l-8.33.49Zm8.12,43.29c4.24-.25,8-4.27,8.34-17.31l0-1.79c.35-13-3.21-16.63-7.44-16.38l-.37,0-.94,35.48Z"/><path d="M625.33,13.49l9.13-.54,2.88,31.76,5.3-32.24L650.9,12l3.53,31.72,4.65-32.2L668,11l-9.13,52.79-9.35.55L646.1,33.63,641,64.81l-9.35.55Z"/><path d="M671.14,10.79l8.91-.52-1.38,52.18-8.91.52Z"/><path d="M685.46,10l8.33-.49c11.4-.67,17.67,7.37,17.23,24.14l0,1.79C710.52,52.17,703.8,61,692.4,61.64l-8.33.49Zm8.12,43.29c4.24-.25,8-4.27,8.34-17.31l0-1.79c.35-13-3.21-16.63-7.44-16.38l-.37,0-.94,35.48Z"/><path d="M716.07,8.15,735.65,7l-.23,8.65-10.67.63-.34,13,9.42-.55-.23,8.65-9.42.55-.35,13.27,10.89-.64-.23,8.65-19.8,1.16Z"/></g><path class="cls-3" d="M0,42.85l9.13-.54L12,74.08l5.31-32.24,8.25-.49L29.1,73.07l4.65-32.2,8.91-.52L33.53,93.13l-9.35.55L20.76,63,15.71,94.18l-9.35.55Z"/><path class="cls-3" d="M45.66,40.17l8.91-.52L54,61.26l7.74-.46.57-21.62,8.91-.52L69.84,90.84l-8.91.52.58-21.92-7.74.46-.58,21.92-8.91.52Z"/><path class="cls-3" d="M74.88,65.84,75,63.15c.46-17.22,6.16-25.82,14.27-26.29s13.37,7.48,12.91,24.7l-.07,2.68C101.6,81.46,95.9,90.06,87.8,90.53S74.43,83.06,74.88,65.84ZM93,64.77l.07-2.68c.36-13.42-1.37-17-4.07-16.88s-4.63,4-5,17.41l-.07,2.68c-.36,13.42,1.37,17,4.07,16.88S92.65,78.19,93,64.77Z"/><path class="cls-3" d="M118.79,35.87l19.58-1.15-.23,8.65L127.47,44l-.34,13,9.42-.55-.23,8.65-9.42.55-.35,13.27,10.88-.64-.23,8.65L117.4,88Z"/><path class="cls-3" d="M140.46,84.91l.25-9.47c3.09,1.68,5.55,2.58,8,2.43s4.78-1.55,4.87-4.75V73c.06-2.39-.62-4.13-4.73-8.8-5.88-6.65-8.27-9.86-8.1-16.19v-.15c.22-8.35,5.7-14,12.78-14.37a15.09,15.09,0,0,1,7.85,1.18l-.25,9.47c-2.73-1.48-4.39-2.12-6.73-2a4.82,4.82,0,0,0-4.72,4.74V47c-.07,2.46.64,3.31,4.75,8.06,6.79,7.86,8.24,11,8.08,16.94v.15c-.22,8.2-6,14-13,14.38A19.1,19.1,0,0,1,140.46,84.91Z"/><path class="cls-3" d="M170.14,41.48l-6.28.37.23-8.65,21.48-1.26-.23,8.65L179,41l-1.16,43.53L169,85Z"/><path class="cls-3" d="M189.43,31.71l8.91-.52L197,83.37l-8.91.52Z"/><path class="cls-3" d="M203.75,30.87l8.84-.52,5.78,18.71,6.79-19.45,8.84-.52-1.39,52.18-8.55.5.84-31.53-7,20.14h-.15l-6-19.37-.84,31.53-8.55.5Z"/><path class="cls-3" d="M246.42,28.21l9.5-.56,8.33,51.76-8.91.52-1.41-10.26-8.11.48-1.88,10.46-8.62.51Zm6.41,33.34-2.25-17.06-3.23,17.38Z"/><path class="cls-3" d="M270.66,35.57l-6.28.37.23-8.65L286.08,26l-.23,8.65-6.28.37-1.16,43.53-8.91.52Z"/><path class="cls-3" d="M289.81,25.81l19.58-1.15-.23,8.65-10.67.63-.34,13,9.42-.55L307.34,55l-9.42.55-.35,13.27,10.89-.64-.23,8.65L288.42,78Z"/><path class="cls-3" d="M311.48,74.85l.25-9.47c3.09,1.68,5.55,2.58,8,2.43s4.78-1.55,4.87-4.75v-.15c.06-2.39-.62-4.13-4.73-8.8-5.88-6.65-8.27-9.86-8.1-16.2v-.15c.22-8.35,5.7-14,12.78-14.37a15.09,15.09,0,0,1,7.85,1.18L332.11,34c-2.73-1.48-4.39-2.12-6.73-2a4.82,4.82,0,0,0-4.72,4.74v.15c-.07,2.46.64,3.31,4.75,8.06,6.79,7.86,8.24,11,8.08,16.94v.15c-.22,8.2-6,14-13,14.38A19.09,19.09,0,0,1,311.48,74.85Z"/><path class="cls-3" d="M353.79,30.68l-6.28.37.23-8.65,21.48-1.26L369,29.79l-6.28.37-1.16,43.53-8.91.52Z"/><path class="cls-3" d="M372.94,20.92l8.91-.52L381.28,42l7.74-.46.57-21.62,8.91-.52L397.13,71.6l-8.91.52.58-21.92-7.74.46-.58,21.92-8.91.52Z"/><path class="cls-3" d="M410.94,18.54l9.5-.56,8.33,51.76-8.91.52L418.44,60l-8.11.48-1.88,10.46-8.62.51Zm6.41,33.34L415.1,34.81,411.86,52.2Z"/><path class="cls-3" d="M435.17,25.89l-6.28.37.23-8.65,21.48-1.26L450.37,25l-6.28.37L442.93,68.9l-8.91.52Z"/><path class="cls-3" d="M463.53,15.59l9.13-.54,2.88,31.76,5.3-32.24,8.25-.49,3.54,31.72,4.65-32.2,8.91-.52-9.13,52.79-9.35.55-3.42-30.69-5.06,31.18-9.35.55Z"/><path class="cls-3" d="M506.85,40.43l.07-2.68c.46-17.22,6.16-25.82,14.27-26.29s13.37,7.47,12.91,24.69L534,38.83c-.46,17.22-6.16,25.82-14.26,26.29S506.4,57.65,506.85,40.43ZM525,39.37l.07-2.68c.36-13.42-1.37-17-4.07-16.88s-4.63,4-5,17.41l-.07,2.68c-.36,13.42,1.37,17,4.07,16.88S524.62,52.79,525,39.37Z"/><path class="cls-3" d="M539.14,11.15l9.21-.54c9.13-.54,15.65,4,15.34,15.7l0,.67c-.18,6.78-2.92,11.26-6.35,14.07l6.3,20.77-9.5.56-5.29-17.85h-.15l-1.54.09-.48,18.19-8.91.52Zm8.67,25.24c3.87-.23,6.78-2.71,6.94-8.82l0-.6c.17-6.56-2.85-8.09-6.72-7.87h-.22l-.46,17.29Z"/><path class="cls-3" d="M568.22,9.44l8.91-.52L576,52.44l9.42-.55-.23,8.65-18.34,1.08Z"/><path class="cls-3" d="M590.13,8.15l8.33-.49C609.86,7,616.14,15,615.69,31.8l0,1.79c-.45,16.77-7.17,25.58-18.57,26.25l-8.33.49Zm8.12,43.29c4.24-.25,8-4.27,8.34-17.31l0-1.79c.35-13-3.21-16.63-7.44-16.38l-.37,0-.94,35.48Z"/><path class="cls-3" d="M618.33,6.49,627.46,6l2.88,31.76,5.3-32.24L643.9,5l3.53,31.72,4.65-32.2L661,4l-9.13,52.79-9.35.55L639.1,26.63,634,57.81l-9.35.55Z"/><path class="cls-3" d="M664.14,3.79l8.91-.52-1.38,52.18-8.91.52Z"/><path class="cls-3" d="M678.46,3l8.33-.49c11.4-.67,17.67,7.37,17.23,24.14l0,1.79C703.52,45.17,696.8,54,685.4,54.64l-8.33.49Zm8.12,43.29c4.24-.25,8-4.27,8.34-17.31l0-1.79c.35-13-3.21-16.63-7.44-16.38l-.37,0-.94,35.48Z"/><path class="cls-3" d="M709.07,1.15,728.65,0l-.23,8.65-10.67.63-.34,13,9.42-.55-.23,8.65-9.42.55-.35,13.27,10.89-.64-.23,8.65-19.8,1.16Z"/></g><g id="_Group_2" data-name="&lt;Group&gt;"><g class="cls-2"><path d="M94.7,149.69l-3,28.7-17.27,1.23,1-9.57-8.63.62-6,57.4,8.63-.62-2,19.13L32.93,249l2-19.13,8.63-.62,6-57.4-8.63.62-1,9.57-17.27,1.23,3-28.7ZM86,158.85,32.5,162.67l-1.2,11.48L33,174l1-9.57,24.18-1.72-7.77,74.62L41.8,238l-.2,1.91,19-1.35.2-1.91-8.63.62,7.77-74.62,24.18-1.72-1,9.57,1.73-.12Z"/><path d="M168.56,163.42l-6,57.4,8.63-.62-2,19.13-34.54,2.46,2-19.13,8.63-.62,2-19.13-25,1.78-2,19.13,8.63-.62-2,19.13-34.54,2.46,2-19.13,8.63-.62,6-57.4-8.63.62,2-19.13,34.54-2.46-2,19.13-8.63.62-2,19.13,25-1.78,2-19.13-8.63.62,2-19.13,34.54-2.46-2,19.13Zm1.76-8.67.2-1.91-19,1.35-.2,1.91,8.63-.62-3.79,36.35-40.58,2.89,3.79-36.35,8.63-.62.2-1.91-19,1.35-.2,1.91,8.63-.62-7.77,74.62-8.63.62-.2,1.91,19-1.35.2-1.91-8.63.62,3.79-36.35L156,193.75l-3.79,36.35-8.63.62-.2,1.91,19-1.35.2-1.91-8.63.62,7.77-74.62Z"/><path d="M227,168.75l1-9.57-17.27,1.23-2,19.13L226,178.31l-2,19.13-17.27,1.23-2,19.13L222,216.58l1-9.57,17.27-1.23-3,28.7-60.44,4.31,2-19.13,8.63-.62,6-57.4-8.63.62,2-19.13,60.44-4.31-3,28.7ZM236.68,150l-1,9.57,1.73-.12,1.2-11.48-44.9,3.2-.2,1.91,8.63-.62-7.77,74.62-8.63.62-.2,1.91,44.9-3.2,1.2-11.48-1.73.12-1,9.57L196.1,227l3.79-36.35,17.27-1.23.2-1.91-17.27,1.23,3.79-36.35Z"/><path d="M323.92,209.32l-2,19.13-34.54,2.46,2-19.13,7-.5-6.3-14.74-15.54,1.11L273,212.95l8.63-.62-2,19.13-34.54,2.46,2-19.13,8.63-.62,6-57.4-8.63.62,2-19.13,41-2.92a22.13,22.13,0,0,1,18.29,7.78,24.74,24.74,0,0,1,4.86,9.22,30,30,0,0,1,.93,11.67,35.75,35.75,0,0,1-4.23,13.59,42.65,42.65,0,0,1-8.62,11.06l9.18,21.18Zm-8.67,9.16-4.32.31-13.88-32.51a10.58,10.58,0,0,0,1.69-.93,36.77,36.77,0,0,0,3.42-2.28l.95-.88a27.15,27.15,0,0,0,9.18-17.61,21.56,21.56,0,0,0-.66-8.36,18.41,18.41,0,0,0-3.47-6.67,15.9,15.9,0,0,0-5.67-4.34,15,15,0,0,0-7.4-1.24l-33.18,2.37-.2,1.91,8.63-.62-7.77,74.62-8.63.62-.2,1.91,19-1.35.2-1.91-8.63.62,3.39-32.53L289.78,188q1.36-.1,2.91-.34a9.74,9.74,0,0,0,2.59-.73l13.69,32-12.7.91-.2,1.91,19-1.35Zm-4.68-53.79a24.06,24.06,0,0,1-2.23,7.89,25.8,25.8,0,0,1-4.55,6.7,23.21,23.21,0,0,1-6.25,4.72,18.35,18.35,0,0,1-7.19,2.07l-22.45,1.6,4.18-40.18,22.45-1.6A14.76,14.76,0,0,1,301.4,147a14.17,14.17,0,0,1,5.35,3.89A16.3,16.3,0,0,1,310,157,20.05,20.05,0,0,1,310.57,164.69Zm-19.33,12.77a11.51,11.51,0,0,0,7.69-3.87,14,14,0,0,0,3.87-8.35,10.07,10.07,0,0,0-2.17-7.92,8,8,0,0,0-7-2.83l-14.68,1-2.39,23Z"/><path d="M379.72,157.87l1-9.57-17.27,1.23-2,19.13,17.27-1.23-2,19.13-17.27,1.23-2,19.13,17.27-1.23,1-9.57L393,194.9l-3,28.7-60.44,4.31,2-19.13,8.63-.62,6-57.4-8.63.62,2-19.13L400,127.94l-3,28.7Zm9.66-18.73-1,9.57,1.73-.12,1.2-11.48-44.9,3.2-.2,1.91,8.63-.62-7.77,74.62-8.63.62-.2,1.91,44.9-3.2,1.2-11.48-1.73.12-1,9.57-32.81,2.34,3.79-36.35,17.27-1.23.2-1.91-17.27,1.23,3.79-36.35Z"/><path d="M518.31,195.46l8.39-.6-2,19.13-34.54,2.46,2-19.13,8.14-.58-1.59-9.38-26.64,1.9L468.48,199l8.14-.58-2,19.13L440.09,220l2-19.13,8.39-.6,28.69-78,26.4-1.88Zm-34.37-65-28.69,78L449,209l-.2,1.91,19-1.35.2-1.91-10.85.77,10.07-27.3,38.24-2.72,4.49,26.27-10.85.77-.2,1.91,19-1.35L518,204l-6.41.46-12.75-75.05Zm1.16,1.82,12.33-.88,7.67,45-37.25,2.65Zm10.42,36.29-4.78-28.14-.74.05-10.76,29.25Z"/><path d="M611.18,188.85l-2,19.13-34.54,2.46,2-19.13,7-.5-6.3-14.74-15.54,1.11-1.59,15.3,8.63-.62-2,19.13-34.54,2.46,2-19.13,8.63-.62,6-57.4-8.63.62,2-19.13,41-2.92a22.13,22.13,0,0,1,18.29,7.79,24.75,24.75,0,0,1,4.86,9.22,30.06,30.06,0,0,1,.93,11.67,35.73,35.73,0,0,1-4.23,13.59,42.63,42.63,0,0,1-8.62,11.06l9.18,21.18ZM602.52,198l-4.32.31L584.32,165.8a10.58,10.58,0,0,0,1.69-.93,36.57,36.57,0,0,0,3.42-2.28l.95-.88a27.15,27.15,0,0,0,9.18-17.61,21.56,21.56,0,0,0-.66-8.36,18.43,18.43,0,0,0-3.47-6.67,15.89,15.89,0,0,0-5.67-4.34,15,15,0,0,0-7.4-1.24l-33.18,2.36-.2,1.91,8.63-.62-7.77,74.62-8.63.62-.2,1.91,19-1.35.2-1.91-8.63.62L555,169.11,577,167.54q1.35-.1,2.91-.34a9.75,9.75,0,0,0,2.59-.73l13.69,32-12.7.91-.2,1.91,19-1.35Zm-4.68-53.79a24,24,0,0,1-2.23,7.89,25.82,25.82,0,0,1-4.55,6.7,23.25,23.25,0,0,1-6.25,4.72,18.37,18.37,0,0,1-7.19,2.07l-22.45,1.6L559.35,127l22.45-1.6a14.75,14.75,0,0,1,6.87,1.07,14.16,14.16,0,0,1,5.35,3.89,16.29,16.29,0,0,1,3.21,6.15A20,20,0,0,1,597.83,144.22ZM578.51,157a11.52,11.52,0,0,0,7.69-3.87,14,14,0,0,0,3.87-8.35,10.06,10.06,0,0,0-2.17-7.92,7.94,7.94,0,0,0-7-2.83l-14.68,1-2.39,23Z"/><path d="M667,137.39l1-9.57-17.27,1.23-2,19.13L666,147l-2,19.13-17.27,1.23-2,19.13L662,185.22l1-9.57,17.27-1.23-3,28.7-60.44,4.31,2-19.13,8.63-.62,6-57.4-8.63.62,2-19.13,60.44-4.31-3,28.7Zm9.66-18.73-1,9.57,1.73-.12,1.2-11.48-44.9,3.2-.2,1.91,8.63-.62-7.77,74.62-8.63.62-.2,1.91,44.9-3.2,1.2-11.48-1.73.12-1,9.57-32.81,2.34,3.79-36.35L657.12,158l.2-1.91-17.27,1.23L643.84,121Z"/><path d="M818.48,98.11l-2,19.13-8.63.62-5,47.83a34,34,0,0,1-3.2,11.35,37.27,37.27,0,0,1-6.5,9.48,33.41,33.41,0,0,1-8.9,6.74,26.12,26.12,0,0,1-10.29,3l-12.09.86a20.85,20.85,0,0,1-9.88-1.53,20.45,20.45,0,0,1-7.56-5.56,23.44,23.44,0,0,1-4.6-8.69,28.34,28.34,0,0,1-.87-11.06l5-47.83-8.63.62,2-19.13,34.54-2.46-2,19.13-8.63.62-5,47.83a8.36,8.36,0,0,0,1.82,6.58,6.61,6.61,0,0,0,5.81,2.37L776,177.1a9.6,9.6,0,0,0,6.4-3.24,11.63,11.63,0,0,0,3.23-6.95l5-47.83-8.63.62,2-19.13Zm-8.67,9.16-19,1.35-.2,1.91,8.63-.62-5.88,56.44a21.62,21.62,0,0,1-2,7.13,23.42,23.42,0,0,1-4.12,6.06,21.19,21.19,0,0,1-5.65,4.27,16.52,16.52,0,0,1-6.5,1.89l-12.09.86a13.23,13.23,0,0,1-6.2-1,12.86,12.86,0,0,1-4.84-3.52,14.82,14.82,0,0,1-2.91-5.56,18,18,0,0,1-.56-6.95l5.88-56.44,8.63-.62.2-1.91-19,1.35-.2,1.91,8.63-.62-5.88,56.44a20,20,0,0,0,.61,7.69,16.24,16.24,0,0,0,3.22,6.15,14.12,14.12,0,0,0,5.35,3.89,14.74,14.74,0,0,0,6.87,1.07l12.09-.86a18.36,18.36,0,0,0,7.19-2.07,23.21,23.21,0,0,0,6.25-4.72,25.77,25.77,0,0,0,4.55-6.7,24.1,24.1,0,0,0,2.23-7.89L801,109.8l8.63-.62Z"/><path d="M866.83,94.67a22.49,22.49,0,0,1,10.48,1.63,21.61,21.61,0,0,1,8.14,5.93,24.81,24.81,0,0,1,4.9,9.35,30.55,30.55,0,0,1,.92,11.74,36.47,36.47,0,0,1-3.4,12.11,39.64,39.64,0,0,1-6.93,10.13,35.51,35.51,0,0,1-9.5,7.19,28,28,0,0,1-11,3.16l-14.68,1-1.59,15.3,8.63-.62-2,19.13-34.54,2.46,2-19.13,8.63-.62,6-57.4-8.63.62,2-19.13Zm-5.48,52.61a20.2,20.2,0,0,0,7.89-2.26,25.38,25.38,0,0,0,6.84-5.17,28.12,28.12,0,0,0,5-7.34,26.48,26.48,0,0,0,2.43-8.65,22.11,22.11,0,0,0-.65-8.43,17.78,17.78,0,0,0-3.52-6.73,15.48,15.48,0,0,0-5.86-4.26,16.25,16.25,0,0,0-7.53-1.16l-32.81,2.34-.2,1.91,8.63-.62-7.77,74.62-8.63.62-.2,1.91,19-1.35.2-1.91-8.63.62,3.39-32.53Zm4.38-42.09a14.75,14.75,0,0,1,6.87,1.07,14.16,14.16,0,0,1,5.35,3.89,16.29,16.29,0,0,1,3.22,6.15,20,20,0,0,1,.61,7.69,24,24,0,0,1-2.23,7.89,25.83,25.83,0,0,1-4.55,6.7,23.25,23.25,0,0,1-6.25,4.72,18.36,18.36,0,0,1-7.19,2.07L839.1,147l4.19-40.18Zm-3.29,31.57a11.51,11.51,0,0,0,7.69-3.87,14,14,0,0,0,3.87-8.35,10.06,10.06,0,0,0-2.17-7.92,7.94,7.94,0,0,0-7-2.83l-14.68,1-2.39,23Z"/><path d="M1012.74,84.27l-3,28.7-17.27,1.23,1-9.57-8.63.62-6,57.4,8.63-.62-2,19.13L951,183.62l2-19.13,8.63-.62,6-57.4-8.63.62-1,9.57-17.27,1.23,3-28.7Zm-8.67,9.16-53.53,3.82-1.2,11.48,1.73-.12,1-9.57,24.18-1.72-7.77,74.62-8.63.62-.2,1.91,19-1.35.2-1.91-8.63.62L978,97.19l24.18-1.72-1,9.57,1.73-.12Z"/><path d="M1063.56,80.65a21,21,0,0,1,9.82,1.54,20.32,20.32,0,0,1,7.62,5.56,23.35,23.35,0,0,1,4.6,8.76,28.48,28.48,0,0,1,.88,11l-4,38.26a34,34,0,0,1-3.2,11.35,37.28,37.28,0,0,1-6.5,9.48,33.45,33.45,0,0,1-8.91,6.74,26.14,26.14,0,0,1-10.29,3l-17.27,1.23a20.85,20.85,0,0,1-9.88-1.53,20.46,20.46,0,0,1-7.56-5.56,23.46,23.46,0,0,1-4.6-8.69,28.34,28.34,0,0,1-.87-11.06l4-38.26a34.23,34.23,0,0,1,3.19-11.28,37.06,37.06,0,0,1,6.5-9.55,33.68,33.68,0,0,1,8.84-6.73,26,26,0,0,1,10.35-3Zm-18.17,9.84a18.4,18.4,0,0,0-7.19,2.07,23.25,23.25,0,0,0-6.25,4.72,25.72,25.72,0,0,0-4.55,6.7,24,24,0,0,0-2.23,7.89l-4,38.26a20,20,0,0,0,.61,7.69A16.21,16.21,0,0,0,1025,164a14.1,14.1,0,0,0,5.35,3.89,14.73,14.73,0,0,0,6.87,1.07l17.27-1.23a18.36,18.36,0,0,0,7.19-2.07,23.27,23.27,0,0,0,6.25-4.72,25.81,25.81,0,0,0,4.55-6.7,24.08,24.08,0,0,0,2.23-7.89l4-38.26a20,20,0,0,0-.61-7.69,16.3,16.3,0,0,0-3.22-6.15,14.17,14.17,0,0,0-5.35-3.89,14.76,14.76,0,0,0-6.87-1.07Zm-8,76.53a13.23,13.23,0,0,1-6.2-1,12.87,12.87,0,0,1-4.84-3.52,14.77,14.77,0,0,1-2.91-5.56,18,18,0,0,1-.56-6.95l4-38.26a21.64,21.64,0,0,1,2-7.13,23.44,23.44,0,0,1,4.12-6.06,21.17,21.17,0,0,1,5.65-4.27,16.52,16.52,0,0,1,6.5-1.89l17.27-1.23a13.24,13.24,0,0,1,6.2,1,12.87,12.87,0,0,1,4.84,3.52,14.82,14.82,0,0,1,2.91,5.56,18,18,0,0,1,.56,6.95l-4,38.26a21.6,21.6,0,0,1-2,7.13,23.46,23.46,0,0,1-4.12,6.06,21.22,21.22,0,0,1-5.65,4.27,16.53,16.53,0,0,1-6.5,1.89Zm18.17-9.84a9.6,9.6,0,0,0,6.4-3.24,11.63,11.63,0,0,0,3.23-6.95l4-38.26a8.38,8.38,0,0,0-1.82-6.58,6.62,6.62,0,0,0-5.81-2.37L1044.29,101a9.6,9.6,0,0,0-6.4,3.24,11.62,11.62,0,0,0-3.23,6.95l-4,38.26a8.36,8.36,0,0,0,1.82,6.58,6.61,6.61,0,0,0,5.81,2.37Z"/></g><path class="cls-3" d="M87.7,142.69l-3,28.7-17.27,1.23,1-9.57-8.63.62-6,57.4,8.63-.62-2,19.13L25.93,242l2-19.13,8.63-.62,6-57.4-8.63.62-1,9.57-17.27,1.23,3-28.7ZM79,151.85,25.5,155.67l-1.2,11.48L26,167l1-9.57,24.18-1.72-7.77,74.62L34.8,231l-.2,1.91,19-1.35.2-1.91-8.63.62,7.77-74.62,24.18-1.72-1,9.57,1.73-.12Z"/><path class="cls-3" d="M161.56,156.42l-6,57.4,8.63-.62-2,19.13-34.54,2.46,2-19.13,8.63-.62,2-19.13-25,1.78-2,19.13,8.63-.62-2,19.13-34.54,2.46,2-19.13,8.63-.62,6-57.4-8.63.62,2-19.13,34.54-2.46-2,19.13-8.63.62-2,19.13,25-1.78,2-19.13-8.63.62,2-19.13,34.54-2.46-2,19.13Zm1.76-8.67.2-1.91-19,1.35-.2,1.91,8.63-.62-3.79,36.35-40.58,2.89,3.79-36.35,8.63-.62.2-1.91-19,1.35-.2,1.91,8.63-.62-7.77,74.62-8.63.62-.2,1.91,19-1.35.2-1.91-8.63.62,3.79-36.35L149,186.75l-3.79,36.35-8.63.62-.2,1.91,19-1.35.2-1.91-8.63.62,7.77-74.62Z"/><path class="cls-3" d="M220,161.75l1-9.57-17.27,1.23-2,19.13L219,171.31l-2,19.13-17.27,1.23-2,19.13L215,209.58l1-9.57,17.27-1.23-3,28.7-60.44,4.31,2-19.13,8.63-.62,6-57.4-8.63.62,2-19.13,60.44-4.31-3,28.7ZM229.68,143l-1,9.57,1.73-.12,1.2-11.48-44.9,3.2-.2,1.91,8.63-.62-7.77,74.62-8.63.62-.2,1.91,44.9-3.2,1.2-11.48-1.73.12-1,9.57L189.1,220l3.79-36.35,17.27-1.23.2-1.91-17.27,1.23,3.79-36.35Z"/><path class="cls-3" d="M316.92,202.32l-2,19.13-34.54,2.46,2-19.13,7-.5-6.3-14.74-15.54,1.11L266,205.95l8.63-.62-2,19.13-34.54,2.46,2-19.13,8.63-.62,6-57.4-8.63.62,2-19.13,41-2.92a22.13,22.13,0,0,1,18.29,7.78,24.74,24.74,0,0,1,4.86,9.22,30,30,0,0,1,.93,11.67,35.75,35.75,0,0,1-4.23,13.59,42.65,42.65,0,0,1-8.62,11.06l9.18,21.18Zm-8.67,9.16-4.32.31-13.88-32.51a10.58,10.58,0,0,0,1.69-.93,36.77,36.77,0,0,0,3.42-2.28l.95-.88a27.15,27.15,0,0,0,9.18-17.61,21.56,21.56,0,0,0-.66-8.36,18.41,18.41,0,0,0-3.47-6.67,15.9,15.9,0,0,0-5.67-4.34,15,15,0,0,0-7.4-1.24l-33.18,2.37-.2,1.91,8.63-.62-7.77,74.62-8.63.62-.2,1.91,19-1.35.2-1.91-8.63.62,3.39-32.53L282.78,181q1.36-.1,2.91-.34a9.74,9.74,0,0,0,2.59-.73l13.69,32-12.7.91-.2,1.91,19-1.35Zm-4.68-53.79a24.06,24.06,0,0,1-2.23,7.89,25.8,25.8,0,0,1-4.55,6.7,23.21,23.21,0,0,1-6.25,4.72,18.35,18.35,0,0,1-7.19,2.07l-22.45,1.6,4.18-40.18,22.45-1.6A14.76,14.76,0,0,1,294.4,140a14.17,14.17,0,0,1,5.35,3.89A16.3,16.3,0,0,1,303,150,20.05,20.05,0,0,1,303.57,157.69Zm-19.33,12.77a11.51,11.51,0,0,0,7.69-3.87,14,14,0,0,0,3.87-8.35,10.07,10.07,0,0,0-2.17-7.92,8,8,0,0,0-7-2.83l-14.68,1-2.39,23Z"/><path class="cls-3" d="M372.72,150.87l1-9.57-17.27,1.23-2,19.13,17.27-1.23-2,19.13-17.27,1.23-2,19.13,17.27-1.23,1-9.57L386,187.9l-3,28.7-60.44,4.31,2-19.13,8.63-.62,6-57.4-8.63.62,2-19.13L393,120.94l-3,28.7Zm9.66-18.73-1,9.57,1.73-.12,1.2-11.48-44.9,3.2-.2,1.91,8.63-.62-7.77,74.62-8.63.62-.2,1.91,44.9-3.2,1.2-11.48-1.73.12-1,9.57-32.81,2.34,3.79-36.35,17.27-1.23.2-1.91-17.27,1.23,3.79-36.35Z"/><path class="cls-3" d="M511.31,188.46l8.39-.6-2,19.13-34.54,2.46,2-19.13,8.14-.58-1.59-9.38-26.64,1.9L461.48,192l8.14-.58-2,19.13L433.09,213l2-19.13,8.39-.6,28.69-78,26.4-1.88Zm-34.37-65-28.69,78L442,202l-.2,1.91,19-1.35.2-1.91-10.85.77,10.07-27.3,38.24-2.72,4.49,26.27-10.85.77-.2,1.91,19-1.35L511,197l-6.41.46-12.75-75.05Zm1.16,1.82,12.33-.88,7.67,45-37.25,2.65Zm10.42,36.29-4.78-28.14-.74.05-10.76,29.25Z"/><path class="cls-3" d="M604.18,181.85l-2,19.13-34.54,2.46,2-19.13,7-.5-6.3-14.74-15.54,1.11-1.59,15.3,8.63-.62-2,19.13-34.54,2.46,2-19.13,8.63-.62,6-57.4-8.63.62,2-19.13,41-2.92a22.13,22.13,0,0,1,18.29,7.79,24.75,24.75,0,0,1,4.86,9.22,30.06,30.06,0,0,1,.93,11.67,35.73,35.73,0,0,1-4.23,13.59,42.63,42.63,0,0,1-8.62,11.06l9.18,21.18ZM595.52,191l-4.32.31L577.32,158.8a10.58,10.58,0,0,0,1.69-.93,36.57,36.57,0,0,0,3.42-2.28l.95-.88a27.15,27.15,0,0,0,9.18-17.61,21.56,21.56,0,0,0-.66-8.36,18.43,18.43,0,0,0-3.47-6.67,15.89,15.89,0,0,0-5.67-4.34,15,15,0,0,0-7.4-1.24l-33.18,2.36-.2,1.91,8.63-.62-7.77,74.62-8.63.62-.2,1.91,19-1.35.2-1.91-8.63.62L548,162.11,570,160.54q1.35-.1,2.91-.34a9.75,9.75,0,0,0,2.59-.73l13.69,32-12.7.91-.2,1.91,19-1.35Zm-4.68-53.79a24,24,0,0,1-2.23,7.89,25.82,25.82,0,0,1-4.55,6.7,23.25,23.25,0,0,1-6.25,4.72,18.37,18.37,0,0,1-7.19,2.07l-22.45,1.6L552.35,120l22.45-1.6a14.75,14.75,0,0,1,6.87,1.07,14.16,14.16,0,0,1,5.35,3.89,16.29,16.29,0,0,1,3.21,6.15A20,20,0,0,1,590.83,137.22ZM571.51,150a11.52,11.52,0,0,0,7.69-3.87,14,14,0,0,0,3.87-8.35,10.06,10.06,0,0,0-2.17-7.92,7.94,7.94,0,0,0-7-2.83l-14.68,1-2.39,23Z"/><path class="cls-3" d="M660,130.39l1-9.57-17.27,1.23-2,19.13L659,140l-2,19.13-17.27,1.23-2,19.13L655,178.22l1-9.57,17.27-1.23-3,28.7-60.44,4.31,2-19.13,8.63-.62,6-57.4-8.63.62,2-19.13,60.44-4.31-3,28.7Zm9.66-18.73-1,9.57,1.73-.12,1.2-11.48-44.9,3.2-.2,1.91,8.63-.62-7.77,74.62-8.63.62-.2,1.91,44.9-3.2,1.2-11.48-1.73.12-1,9.57-32.81,2.34,3.79-36.35L650.12,151l.2-1.91-17.27,1.23L636.84,114Z"/><path class="cls-3" d="M811.48,91.11l-2,19.13-8.63.62-5,47.83a34,34,0,0,1-3.2,11.35,37.27,37.27,0,0,1-6.5,9.48,33.41,33.41,0,0,1-8.9,6.74,26.12,26.12,0,0,1-10.29,3l-12.09.86a20.85,20.85,0,0,1-9.88-1.53,20.45,20.45,0,0,1-7.56-5.56,23.44,23.44,0,0,1-4.6-8.69,28.34,28.34,0,0,1-.87-11.06l5-47.83-8.63.62,2-19.13,34.54-2.46-2,19.13-8.63.62-5,47.83a8.36,8.36,0,0,0,1.82,6.58,6.61,6.61,0,0,0,5.81,2.37L769,170.1a9.6,9.6,0,0,0,6.4-3.24,11.63,11.63,0,0,0,3.23-6.95l5-47.83-8.63.62,2-19.13Zm-8.67,9.16-19,1.35-.2,1.91,8.63-.62-5.88,56.44a21.62,21.62,0,0,1-2,7.13,23.42,23.42,0,0,1-4.12,6.06,21.19,21.19,0,0,1-5.65,4.27,16.52,16.52,0,0,1-6.5,1.89l-12.09.86a13.23,13.23,0,0,1-6.2-1,12.86,12.86,0,0,1-4.84-3.52,14.82,14.82,0,0,1-2.91-5.56,18,18,0,0,1-.56-6.95l5.88-56.44,8.63-.62.2-1.91-19,1.35-.2,1.91,8.63-.62-5.88,56.44a20,20,0,0,0,.61,7.69,16.24,16.24,0,0,0,3.22,6.15,14.12,14.12,0,0,0,5.35,3.89,14.74,14.74,0,0,0,6.87,1.07l12.09-.86a18.36,18.36,0,0,0,7.19-2.07,23.21,23.21,0,0,0,6.25-4.72,25.77,25.77,0,0,0,4.55-6.7,24.1,24.1,0,0,0,2.23-7.89L794,102.8l8.63-.62Z"/><path class="cls-3" d="M859.83,87.67a22.49,22.49,0,0,1,10.48,1.63,21.61,21.61,0,0,1,8.14,5.93,24.81,24.81,0,0,1,4.9,9.35,30.55,30.55,0,0,1,.92,11.74,36.47,36.47,0,0,1-3.4,12.11,39.64,39.64,0,0,1-6.93,10.13,35.51,35.51,0,0,1-9.5,7.19,28,28,0,0,1-11,3.16l-14.68,1-1.59,15.3,8.63-.62-2,19.13-34.54,2.46,2-19.13,8.63-.62,6-57.4-8.63.62,2-19.13Zm-5.48,52.61a20.2,20.2,0,0,0,7.89-2.26,25.38,25.38,0,0,0,6.84-5.17,28.12,28.12,0,0,0,5-7.34,26.48,26.48,0,0,0,2.43-8.65,22.11,22.11,0,0,0-.65-8.43,17.78,17.78,0,0,0-3.52-6.73,15.48,15.48,0,0,0-5.86-4.26,16.25,16.25,0,0,0-7.53-1.16l-32.81,2.34-.2,1.91,8.63-.62-7.77,74.62-8.63.62-.2,1.91,19-1.35.2-1.91-8.63.62,3.39-32.53Zm4.38-42.09a14.75,14.75,0,0,1,6.87,1.07,14.16,14.16,0,0,1,5.35,3.89,16.29,16.29,0,0,1,3.22,6.15,20,20,0,0,1,.61,7.69,24,24,0,0,1-2.23,7.89,25.83,25.83,0,0,1-4.55,6.7,23.25,23.25,0,0,1-6.25,4.72,18.36,18.36,0,0,1-7.19,2.07L832.1,140l4.19-40.18Zm-3.29,31.57a11.51,11.51,0,0,0,7.69-3.87,14,14,0,0,0,3.87-8.35,10.06,10.06,0,0,0-2.17-7.92,7.94,7.94,0,0,0-7-2.83l-14.68,1-2.39,23Z"/><path class="cls-3" d="M1005.74,77.27l-3,28.7-17.27,1.23,1-9.57-8.63.62-6,57.4,8.63-.62-2,19.13L944,176.62l2-19.13,8.63-.62,6-57.4-8.63.62-1,9.57-17.27,1.23,3-28.7Zm-8.67,9.16-53.53,3.82-1.2,11.48,1.73-.12,1-9.57,24.18-1.72-7.77,74.62-8.63.62-.2,1.91,19-1.35.2-1.91-8.63.62L971,90.19l24.18-1.72-1,9.57,1.73-.12Z"/><path class="cls-3" d="M1056.56,73.65a21,21,0,0,1,9.82,1.54,20.32,20.32,0,0,1,7.62,5.56,23.35,23.35,0,0,1,4.6,8.76,28.48,28.48,0,0,1,.88,11l-4,38.26a34,34,0,0,1-3.2,11.35,37.28,37.28,0,0,1-6.5,9.48,33.45,33.45,0,0,1-8.91,6.74,26.14,26.14,0,0,1-10.29,3l-17.27,1.23a20.85,20.85,0,0,1-9.88-1.53,20.46,20.46,0,0,1-7.56-5.56,23.46,23.46,0,0,1-4.6-8.69,28.34,28.34,0,0,1-.87-11.06l4-38.26a34.23,34.23,0,0,1,3.19-11.28,37.06,37.06,0,0,1,6.5-9.55,33.68,33.68,0,0,1,8.84-6.73,26,26,0,0,1,10.35-3Zm-18.17,9.84a18.4,18.4,0,0,0-7.19,2.07,23.25,23.25,0,0,0-6.25,4.72,25.72,25.72,0,0,0-4.55,6.7,24,24,0,0,0-2.23,7.89l-4,38.26a20,20,0,0,0,.61,7.69A16.21,16.21,0,0,0,1018,157a14.1,14.1,0,0,0,5.35,3.89,14.73,14.73,0,0,0,6.87,1.07l17.27-1.23a18.36,18.36,0,0,0,7.19-2.07,23.27,23.27,0,0,0,6.25-4.72,25.81,25.81,0,0,0,4.55-6.7,24.08,24.08,0,0,0,2.23-7.89l4-38.26a20,20,0,0,0-.61-7.69,16.3,16.3,0,0,0-3.22-6.15,14.17,14.17,0,0,0-5.35-3.89,14.76,14.76,0,0,0-6.87-1.07Zm-8,76.53a13.23,13.23,0,0,1-6.2-1,12.87,12.87,0,0,1-4.84-3.52,14.77,14.77,0,0,1-2.91-5.56,18,18,0,0,1-.56-6.95l4-38.26a21.64,21.64,0,0,1,2-7.13,23.44,23.44,0,0,1,4.12-6.06,21.17,21.17,0,0,1,5.65-4.27,16.52,16.52,0,0,1,6.5-1.89l17.27-1.23a13.24,13.24,0,0,1,6.2,1,12.87,12.87,0,0,1,4.84,3.52,14.82,14.82,0,0,1,2.91,5.56,18,18,0,0,1,.56,6.95l-4,38.26a21.6,21.6,0,0,1-2,7.13,23.46,23.46,0,0,1-4.12,6.06,21.22,21.22,0,0,1-5.65,4.27,16.53,16.53,0,0,1-6.5,1.89Zm18.17-9.84a9.6,9.6,0,0,0,6.4-3.24,11.63,11.63,0,0,0,3.23-6.95l4-38.26a8.38,8.38,0,0,0-1.82-6.58,6.62,6.62,0,0,0-5.81-2.37L1037.29,94a9.6,9.6,0,0,0-6.4,3.24,11.62,11.62,0,0,0-3.23,6.95l-4,38.26a8.36,8.36,0,0,0,1.82,6.58,6.61,6.61,0,0,0,5.81,2.37Z"/></g><g id="_Group_3" data-name="&lt;Group&gt;"><g class="cls-2"><path d="M104.05,326.68c3-11.25,13.09-27.86,12.24-42.52a24.71,24.71,0,0,0-1.05-6c5.82-.34,11.33,2.57,11.7,8.89.74,12.75-8.21,21.73-12.88,31.57l15.66-.91L135.64,279l14.74-2.87-6.3,40.76,6.43-.37-1.58,7.55-6,.35-4.22,27.95-14.46.84,4.32-28Z"/><path d="M162.78,335.36a8.07,8.07,0,0,1,8.5,7.57,8,8,0,0,1-7.57,8.4,7.9,7.9,0,0,1-8.39-7.47A8,8,0,0,1,162.78,335.36Z"/><path d="M190,335.4c.39,6.73,4.09,7.92,9.41,7.62,7.23-.42,11.75-9.24,11.24-18.18-.44-7.63-4.62-15.35-14-17.92,11.46-3.79,16.32-13.84,15.92-20.87-.26-4.52-2.57-7.81-6.79-7.57-6.73.39-9,3.64-8.67,8.66.13,2.31,1.35,6,4.21,6.61a12,12,0,0,1-7.53,3.86c-4,.23-7.31-2.8-7.65-8.62-.39-6.83,5.67-15.14,20.83-16,11.45-.66,18.07,5.8,18.53,13.73.38,6.63-3.61,14.21-12.58,19.37,8.89,2.2,13,8.41,13.39,15.54.7,12.15-9.43,26.74-24.39,27.61-8,.46-22.29-.42-23.12-14.88-.55-9.44,3.23-15.5,11-15.95,4.52-.26,7.42,1.08,8.43,4.65C190,324.21,189.69,330.38,190,335.4Z"/><path d="M316,326a15.8,15.8,0,0,0-.29,3.75c.13,2.31,1.14,4.06,4.35,3.88,4-.23,7.89-6.4,10-10.85l4.72-.27c-4.3,5.69-12.59,19.26-20.42,19.72S301.64,339.51,301.2,332a24.52,24.52,0,0,1,.31-5.16l2.77-18.29a12.13,12.13,0,0,0,.15-2.63c-.21-3.62-2.25-5.81-5-5.66a10.24,10.24,0,0,0-5.72,2.14,14.18,14.18,0,0,1,.71,3.49,15.1,15.1,0,0,1-.08,2.12L289,343.67l-14.56.84L279.68,310a12.25,12.25,0,0,0,.15-2.63c-.21-3.62-2.25-5.81-5-5.66a9.88,9.88,0,0,0-6,2.46l-6.29,41.06-14.46.84,7.73-50.82,14.46-.84-.79,5.38c3.85-3.14,8.33-5.82,12.64-6.07,3.71-.22,7.89,2.26,10.32,6.05,4.21-3.77,9.36-7.19,14.28-7.48,5.52-.32,11.88,5.15,12.28,12a18.08,18.08,0,0,1-.07,2.32Z"/><path d="M345.12,290l-5.25,34.55a18.92,18.92,0,0,0-.22,3.14c.13,2.21,1.22,3.76,5.24,3.52s8.91-6.16,12.74-9.6l3.41-.2c-4.35,4.89-14.92,18.9-22.75,19.35s-12.75-2.69-13.19-10.22a25.28,25.28,0,0,1,.3-5.16l5.25-34.55Zm-5.85-21a8.07,8.07,0,0,1,8.5,7.57,8,8,0,0,1-7.57,8.4,7.9,7.9,0,0,1-8.39-7.47A8,8,0,0,1,339.26,269Z"/><path d="M376.08,268.1,367.68,323a18.07,18.07,0,0,0-.32,3.24c.13,2.21,1.32,3.65,5.23,3.42s8.91-6.16,12.74-9.6l3.41-.2c-4.35,4.89-14.92,18.9-22.75,19.35s-12.65-2.69-13.09-10.22a25.29,25.29,0,0,1,.31-5.16L361.34,271Z"/><path d="M404.8,266.44l-8.4,54.89a18.07,18.07,0,0,0-.32,3.24c.13,2.21,1.32,3.65,5.23,3.42s8.91-6.16,12.74-9.6l3.41-.2c-4.35,4.89-14.92,18.9-22.75,19.35s-12.65-2.69-13.09-10.22a25.3,25.3,0,0,1,.31-5.16l8.12-52.85Z"/><path d="M429.05,285.18l-5.25,34.55a18.92,18.92,0,0,0-.22,3.14c.13,2.21,1.22,3.76,5.24,3.52s8.91-6.16,12.74-9.6l3.41-.2c-4.35,4.89-14.92,18.9-22.75,19.35s-12.75-2.69-13.19-10.22a25.29,25.29,0,0,1,.3-5.16L414.59,286Zm-5.85-21a8.07,8.07,0,0,1,8.5,7.57,8,8,0,0,1-7.57,8.4,7.9,7.9,0,0,1-8.39-7.47A8,8,0,0,1,423.2,264.16Z"/><path d="M473.83,296.39a3.89,3.89,0,0,0,3,.74c4.72-.27,6.63-3.81,10.26-5.53l.52,2.09a28,28,0,0,1-13.64,9.66c-.74,20.29-11.11,30.86-21.15,31.45-10.74.62-15.62-3.63-16.32-15.58-1.43-24.7,10.5-36.07,24.36-36.87C470.36,281.78,473.2,289.07,473.83,296.39Zm-7.27,8.38c-2.91.17-4.34-1.86-4.48-4.27-.17-2.91,1.36-6.12,4-7.28-.49-3.3-1.71-5.14-4.52-5-9.44.55-12.27,21.26-11.8,29.29.35,6,3.25,7.47,7.17,7.24C463.06,324.41,465.92,314.58,466.56,304.77Z"/><path d="M515.9,330.52c-6.53.38-10.44-2.82-10.87-10.35a24.51,24.51,0,0,1,.3-5.16l2.77-18.29a12.13,12.13,0,0,0,.15-2.63c-.21-3.62-2.25-5.81-5-5.66a10.66,10.66,0,0,0-6.2,2.47L490.9,332l-14.46.84L484.17,282l14.46-.84-.89,5.49c3.94-3.25,8.42-5.93,12.84-6.18,5.52-.32,11.88,5.15,12.28,12a18.08,18.08,0,0,1-.07,2.32c-.31,3.34-3.6,21.26-3.48,23.47.1,1.71,1,3.06,3.89,2.9a8.07,8.07,0,0,0,2.59-.45C523.5,329.48,519.31,330.32,515.9,330.52Z"/><path d="M577.76,283.72c-.14-2.41-1.7-3.33-3.91-3.2-8.44.49-12.91,17.17-12.28,28,.34,5.92,1.83,10.67,8,10.32,7.13-.41,12.61-5,16.92-10.45l3.41-.2c-4.51,5.7-9.2,18.56-27,19.59-8.33.48-14-3.82-14.71-15.67-.85-14.66,4.35-34.4,23.83-35.53,5.42-.31,11.13.77,11.45,6.29a10.22,10.22,0,0,1-.31,3.34,4.81,4.81,0,0,0-2.54-.46,11.08,11.08,0,0,0-3.18.79A11.15,11.15,0,0,0,577.76,283.72Z"/><path d="M626.31,308a14,14,0,0,0-.32,3.24c.13,2.21,1.32,3.65,5.23,3.42s8.91-6.16,12.74-9.6l3.41-.2c-4.35,4.89-14.92,18.9-22.75,19.35S612,321.53,611.55,314a24.52,24.52,0,0,1,.31-5.16l2.77-18.29a12.13,12.13,0,0,0,.15-2.63c-.21-3.62-2.25-5.81-5-5.66a10.16,10.16,0,0,0-6.1,2.47l-6.28,41.06-14.46.84,10.6-69.12,14.74-2.87-3.95,25.72c3.95-3.15,8.43-5.83,12.74-6.08,5.42-.31,11.88,5.15,12.27,11.88a10,10,0,0,1-.06,2.42Z"/><path d="M672.22,284.89a3.9,3.9,0,0,0,3,.74c4.72-.27,6.63-3.81,10.26-5.53l.52,2.09a28,28,0,0,1-13.64,9.66c-.74,20.29-11.11,30.86-21.15,31.45-10.74.62-15.62-3.63-16.32-15.58-1.43-24.7,10.5-36.07,24.36-36.87C668.76,270.29,671.6,277.58,672.22,284.89ZM665,293.27c-2.91.17-4.34-1.86-4.48-4.27-.17-2.91,1.36-6.12,4-7.28-.49-3.3-1.71-5.14-4.52-5-9.44.55-12.27,21.26-11.8,29.29.35,6,3.25,7.47,7.17,7.24C661.46,312.92,664.31,303.08,665,293.27Z"/><path d="M701,249.28l-8.4,54.89a18.26,18.26,0,0,0-.32,3.24c.13,2.21,1.32,3.65,5.23,3.42s8.91-6.16,12.74-9.6l3.41-.2c-4.35,4.89-14.92,18.9-22.75,19.35s-12.65-2.69-13.08-10.22a25.29,25.29,0,0,1,.3-5.16l8.12-52.85Z"/><path d="M725.73,311.11c4.92-.29,13-6.6,16.1-14.23l4.52-.26c-5.12,10.67-14.17,21.37-27.13,22.12-9.64.56-15.28-6.47-15.79-15.1-.74-12.75,3.39-35.45,21.66-36.51,8.23-.48,13,2.67,13.46,9.7.71,12.25-12,20-21.51,21.8A36.07,36.07,0,0,0,717,303C717.37,309.58,721.81,311.34,725.73,311.11Zm3-38.86c-5.62.33-9.58,11.94-11.15,21.5,9.23-.64,15.3-8.95,15-16.08C732.43,275.56,731.72,272.08,728.71,272.25Z"/><path d="M760.89,266l-.81,5.08c3.45-3,7.34-5.46,11.56-5.71,4.52-.26,7.38,2.19,7.6,6,.2,3.51-2.16,8-7.08,8.27-5.62.33-3.2-6.46-6.21-6.29s-4.55,1.37-6.74,3.61l-6.05,39.84-14.46.84,7.73-50.82Z"/><path d="M818.29,296.88a14,14,0,0,0-.3,3.44c.12,2.11,1,3.67,3.83,3.5a8.07,8.07,0,0,0,2.59-.45c-2.31,8.8-6.49,9.64-9.9,9.84-5.82.34-9.11-2.49-10.38-7.05-2.77,4.29-7.05,8.67-13.18,9-9.64.56-12.84-6.11-13.19-12-1-17.27,4-38.31,24.11-39.48a10.92,10.92,0,0,1,6.87,2.12l.45-2.64,14.36-.83ZM808,270.78a7.5,7.5,0,0,0-5-1.52c-7.53.44-12.63,16.75-11.84,30.4.35,6,3.73,6.94,6.24,6.79,2.31-.13,4.39-2.57,6.23-5.5a12.59,12.59,0,0,1,.31-3.24Z"/><path d="M877.46,266.36c-.14-2.41-1.7-3.33-3.91-3.2-8.43.49-12.91,17.17-12.28,28,.34,5.92,1.83,10.67,8,10.32,7.13-.41,12.61-5,16.92-10.45l3.41-.2c-4.51,5.7-9.2,18.57-27,19.59-8.33.48-14-3.82-14.71-15.67-.85-14.66,4.35-34.4,23.83-35.53,5.42-.31,11.13.77,11.45,6.29a10.28,10.28,0,0,1-.31,3.34,4.8,4.8,0,0,0-2.54-.46,11,11,0,0,0-3.18.79A11.14,11.14,0,0,0,877.46,266.36Z"/><path d="M929.56,256.18l-5.15,34.55a20.15,20.15,0,0,0-.29,3.75c.12,2.11,1,3.17,3.3,3,1.1-.06,2.53-1.56,4-4-.48-8.33,2.87-13.16,6.86-13.69,3.24-6.74,5-15.81,6.29-23.54L959,252.46l.08,1.41c1,16.57,8,21.2,8.76,32.94l0,2.11A78.33,78.33,0,0,0,974,282l2.81,3.26c-2.68,2.37-6.5,6.12-10.31,9.76-2.29,5.67-7.79,9.82-17.13,10.36s-14.78-1.26-16.93-7c-3.35,4.83-6.77,8.35-9.68,8.52-7,.41-11-2.38-12.5-7.13-2.77,4.39-7,8.87-13.27,9.23-9.64.56-12.85-6.11-13.19-12-1-17.27,4-38.31,24.11-39.48a10.92,10.92,0,0,1,6.87,2.12l.45-2.64ZM914,264.64a7.5,7.5,0,0,0-5-1.52c-7.53.44-12.63,16.75-11.84,30.4.35,6,3.73,6.94,6.24,6.79,2.31-.13,4.38-2.57,6.23-5.5a12.59,12.59,0,0,1,.32-3.24Zm26.09,27.7a9,9,0,0,1-3.56-.6,8.86,8.86,0,0,0-.11,1.62c.25,4.32,5.11,6.55,9,6.33,3.41-.2,8.09-4.7,7.64-12.43-.36-6.23-5.19-11.29-6.11-23.82-1.32,5-2.36,11.52-4.27,16.67,2.46.66,3.46,2.42,3.64,5.43A6.46,6.46,0,0,1,940.12,292.34Z"/><path d="M991.49,295.71c3.81-.22,7.07-3.13,9.8-8.12.1-7,3.18-11.17,7-11.69,3-6.72,4.53-15.68,5.8-23.41l14.38-3.86.08,1.41c1,16.57,8.57,21,9.25,32.71.54,9.34-4.91,17.81-18.46,18.6-9.74.56-15.29-1.43-17.28-7.86-3.81,5.46-8.82,9.38-17.06,9.85-9.64.56-15.29-6.47-15.79-15.1-.74-12.75,3.39-35.45,21.66-36.51,8.23-.48,13,2.67,13.46,9.7.71,12.25-12,20-21.5,21.8a36.52,36.52,0,0,0-.05,4.33C983.14,294.18,987.58,295.94,991.49,295.71Zm3-38.86c-5.62.33-9.58,11.94-11.14,21.5,9.23-.64,15.3-8.95,15-16.08C998.19,260.17,997.49,256.68,994.48,256.85Zm15.62,31.43a8,8,0,0,1-3.67-.69c.34,5.92,3.71,8.35,9,8,3.41-.2,8.09-4.7,7.64-12.43-.36-6.23-5.19-11.29-6.12-23.82-1.32,5-2.36,11.52-4.27,16.67,2.46.66,3.46,2.42,3.64,5.43A6.52,6.52,0,0,1,1010.1,288.29Z"/><path d="M1105.07,246l-5.25,34.55a18.92,18.92,0,0,0-.22,3.14c.13,2.21,1.22,3.76,5.24,3.52s8.91-6.16,12.74-9.6l3.41-.2c-4.35,4.89-14.92,18.9-22.75,19.35-6.53.38-11.08-1.78-12.69-6.92-2.77,4.29-7.05,8.67-13.18,9-9.64.56-12.84-6.11-13.19-12-1-17.27,4-38.31,24.11-39.48a10.92,10.92,0,0,1,6.87,2.12l.45-2.64Zm-32.49,37.34c.35,6,3.73,6.94,6.24,6.79,2.31-.13,4.39-2.47,6.13-5.39a23.66,23.66,0,0,1,.41-3.35l4.08-26.93a7.51,7.51,0,0,0-5-1.52C1076.88,253.39,1071.78,269.7,1072.57,283.36Z"/><path d="M1151.92,277.55a12.67,12.67,0,0,0-.32,3.24c.13,2.21,1.32,3.65,5.24,3.42s5.34-3.43,9.17-6.88l3.41-.2c-4.35,4.89-11.35,16.17-19.18,16.63s-12.65-2.69-13.08-10.22a24.51,24.51,0,0,1,.3-5.16l2.77-18.29a12.25,12.25,0,0,0,.15-2.63c-.21-3.62-2.25-5.81-5-5.66a10.66,10.66,0,0,0-6.2,2.47L1123,295.34l-14.46.84,7.73-50.82,14.46-.84-.89,5.49c3.94-3.25,8.42-5.93,12.84-6.18,5.42-.31,11.88,5.15,12.27,11.88a9.76,9.76,0,0,1-.06,2.42Z"/><path d="M1200.62,274.73a14,14,0,0,0-.3,3.44c.12,2.11,1,3.67,3.83,3.5a8.06,8.06,0,0,0,2.59-.45c-2.31,8.8-6.49,9.64-9.9,9.84-5.82.34-9.11-2.5-10.38-7-2.77,4.29-7.06,8.57-13.08,8.92-9.64.56-12.85-6.11-13.19-12-1-17.27,4-38.31,24.11-39.48a11.58,11.58,0,0,1,6.87,2.12l3.22-20.94,14.64-2.86Zm-27,2.78c.35,6,3.73,6.94,6.24,6.79,2.31-.13,4.29-2.46,6-5.29a22.24,22.24,0,0,1,.4-3.45l4.18-27a7.91,7.91,0,0,0-5-1.42C1177.89,247.54,1172.79,263.85,1173.58,277.51Z"/></g><path class="cls-3" d="M97.05,319.68c3-11.25,13.09-27.86,12.24-42.52a24.71,24.71,0,0,0-1.05-6c5.82-.34,11.33,2.57,11.7,8.89.74,12.75-8.21,21.73-12.88,31.57l15.66-.91L128.64,272l14.74-2.87-6.3,40.76,6.43-.37-1.58,7.55-6,.35-4.22,27.95-14.46.84,4.32-28Z"/><path class="cls-3" d="M155.78,328.36a8.07,8.07,0,0,1,8.5,7.57,8,8,0,0,1-7.57,8.4,7.9,7.9,0,0,1-8.39-7.47A8,8,0,0,1,155.78,328.36Z"/><path class="cls-3" d="M183,328.4c.39,6.73,4.09,7.92,9.41,7.62,7.23-.42,11.75-9.24,11.24-18.18-.44-7.63-4.62-15.35-14-17.92,11.46-3.79,16.32-13.84,15.92-20.87-.26-4.52-2.57-7.81-6.79-7.57-6.73.39-9,3.64-8.67,8.66.13,2.31,1.35,6,4.21,6.61a12,12,0,0,1-7.53,3.86c-4,.23-7.31-2.8-7.65-8.62-.39-6.83,5.67-15.14,20.83-16,11.45-.66,18.07,5.8,18.53,13.73.38,6.63-3.61,14.21-12.58,19.37,8.89,2.2,13,8.41,13.39,15.54.7,12.15-9.43,26.74-24.39,27.61-8,.46-22.29-.42-23.12-14.88-.55-9.44,3.23-15.5,11-15.95,4.52-.26,7.42,1.08,8.43,4.65C183,317.21,182.69,323.38,183,328.4Z"/><path class="cls-3" d="M309,319a15.8,15.8,0,0,0-.29,3.75c.13,2.31,1.14,4.06,4.35,3.88,4-.23,7.89-6.4,10-10.85l4.72-.27c-4.3,5.69-12.59,19.26-20.42,19.72S294.64,332.51,294.2,325a24.52,24.52,0,0,1,.31-5.16l2.77-18.29a12.13,12.13,0,0,0,.15-2.63c-.21-3.62-2.25-5.81-5-5.66a10.24,10.24,0,0,0-5.72,2.14,14.18,14.18,0,0,1,.71,3.49,15.1,15.1,0,0,1-.08,2.12L282,336.67l-14.56.84L272.68,303a12.25,12.25,0,0,0,.15-2.63c-.21-3.62-2.25-5.81-5-5.66a9.88,9.88,0,0,0-6,2.46l-6.29,41.06-14.46.84,7.73-50.82,14.46-.84-.79,5.38c3.85-3.14,8.33-5.82,12.64-6.07,3.71-.22,7.89,2.26,10.32,6.05,4.21-3.77,9.36-7.19,14.28-7.48,5.52-.32,11.88,5.15,12.28,12a18.08,18.08,0,0,1-.07,2.32Z"/><path class="cls-3" d="M338.12,283l-5.25,34.55a18.92,18.92,0,0,0-.22,3.14c.13,2.21,1.22,3.76,5.24,3.52s8.91-6.16,12.74-9.6l3.41-.2c-4.35,4.89-14.92,18.9-22.75,19.35s-12.75-2.69-13.19-10.22a25.28,25.28,0,0,1,.3-5.16l5.25-34.55Zm-5.85-21a8.07,8.07,0,0,1,8.5,7.57,8,8,0,0,1-7.57,8.4,7.9,7.9,0,0,1-8.39-7.47A8,8,0,0,1,332.26,262Z"/><path class="cls-3" d="M369.08,261.1,360.68,316a18.07,18.07,0,0,0-.32,3.24c.13,2.21,1.32,3.65,5.23,3.42s8.91-6.16,12.74-9.6l3.41-.2c-4.35,4.89-14.92,18.9-22.75,19.35s-12.65-2.69-13.09-10.22a25.29,25.29,0,0,1,.31-5.16L354.34,264Z"/><path class="cls-3" d="M397.8,259.44l-8.4,54.89a18.07,18.07,0,0,0-.32,3.24c.13,2.21,1.32,3.65,5.23,3.42s8.91-6.16,12.74-9.6l3.41-.2c-4.35,4.89-14.92,18.9-22.75,19.35s-12.65-2.69-13.09-10.22a25.3,25.3,0,0,1,.31-5.16l8.12-52.85Z"/><path class="cls-3" d="M422.05,278.18l-5.25,34.55a18.92,18.92,0,0,0-.22,3.14c.13,2.21,1.22,3.76,5.24,3.52s8.91-6.16,12.74-9.6l3.41-.2c-4.35,4.89-14.92,18.9-22.75,19.35s-12.75-2.69-13.19-10.22a25.29,25.29,0,0,1,.3-5.16L407.59,279Zm-5.85-21a8.07,8.07,0,0,1,8.5,7.57,8,8,0,0,1-7.57,8.4,7.9,7.9,0,0,1-8.39-7.47A8,8,0,0,1,416.2,257.16Z"/><path class="cls-3" d="M466.83,289.39a3.89,3.89,0,0,0,3,.74c4.72-.27,6.63-3.81,10.26-5.53l.52,2.09a28,28,0,0,1-13.64,9.66c-.74,20.29-11.11,30.86-21.15,31.45-10.74.62-15.62-3.63-16.32-15.58-1.43-24.7,10.5-36.07,24.36-36.87C463.36,274.78,466.2,282.07,466.83,289.39Zm-7.27,8.38c-2.91.17-4.34-1.86-4.48-4.27-.17-2.91,1.36-6.12,4-7.28-.49-3.3-1.71-5.14-4.52-5-9.44.55-12.27,21.26-11.8,29.29.35,6,3.25,7.47,7.17,7.24C456.06,317.41,458.92,307.58,459.56,297.77Z"/><path class="cls-3" d="M508.9,323.52c-6.53.38-10.44-2.82-10.87-10.35a24.51,24.51,0,0,1,.3-5.16l2.77-18.29a12.13,12.13,0,0,0,.15-2.63c-.21-3.62-2.25-5.81-5-5.66a10.66,10.66,0,0,0-6.2,2.47L483.9,325l-14.46.84L477.17,275l14.46-.84-.89,5.49c3.94-3.25,8.42-5.93,12.84-6.18,5.52-.32,11.88,5.15,12.28,12a18.08,18.08,0,0,1-.07,2.32c-.31,3.34-3.6,21.26-3.48,23.47.1,1.71,1,3.06,3.89,2.9a8.07,8.07,0,0,0,2.59-.45C516.5,322.48,512.31,323.32,508.9,323.52Z"/><path class="cls-3" d="M570.76,276.72c-.14-2.41-1.7-3.33-3.91-3.2-8.44.49-12.91,17.17-12.28,28,.34,5.92,1.83,10.67,8,10.32,7.13-.41,12.61-5,16.92-10.45l3.41-.2c-4.51,5.7-9.2,18.56-27,19.59-8.33.48-14-3.82-14.71-15.67-.85-14.66,4.35-34.4,23.83-35.53,5.42-.31,11.13.77,11.45,6.29a10.22,10.22,0,0,1-.31,3.34,4.81,4.81,0,0,0-2.54-.46,11.08,11.08,0,0,0-3.18.79A11.15,11.15,0,0,0,570.76,276.72Z"/><path class="cls-3" d="M619.31,301a14,14,0,0,0-.32,3.24c.13,2.21,1.32,3.65,5.23,3.42s8.91-6.16,12.74-9.6l3.41-.2c-4.35,4.89-14.92,18.9-22.75,19.35S605,314.53,604.55,307a24.52,24.52,0,0,1,.31-5.16l2.77-18.29a12.13,12.13,0,0,0,.15-2.63c-.21-3.62-2.25-5.81-5-5.66a10.16,10.16,0,0,0-6.1,2.47l-6.28,41.06-14.46.84,10.6-69.12,14.74-2.87-3.95,25.72c3.95-3.15,8.43-5.83,12.74-6.08,5.42-.31,11.88,5.15,12.27,11.88a10,10,0,0,1-.06,2.42Z"/><path class="cls-3" d="M665.22,277.89a3.9,3.9,0,0,0,3,.74c4.72-.27,6.63-3.81,10.26-5.53l.52,2.09a28,28,0,0,1-13.64,9.66c-.74,20.29-11.11,30.86-21.15,31.45-10.74.62-15.62-3.63-16.32-15.58-1.43-24.7,10.5-36.07,24.36-36.87C661.76,263.29,664.6,270.58,665.22,277.89ZM658,286.27c-2.91.17-4.34-1.86-4.48-4.27-.17-2.91,1.36-6.12,4-7.28-.49-3.3-1.71-5.14-4.52-5-9.44.55-12.27,21.26-11.8,29.29.35,6,3.25,7.47,7.17,7.24C654.46,305.92,657.31,296.08,658,286.27Z"/><path class="cls-3" d="M694,242.28l-8.4,54.89a18.26,18.26,0,0,0-.32,3.24c.13,2.21,1.32,3.65,5.23,3.42s8.91-6.16,12.74-9.6l3.41-.2c-4.35,4.89-14.92,18.9-22.75,19.35s-12.65-2.69-13.08-10.22a25.29,25.29,0,0,1,.3-5.16l8.12-52.85Z"/><path class="cls-3" d="M718.73,304.11c4.92-.29,13-6.6,16.1-14.23l4.52-.26c-5.12,10.67-14.17,21.37-27.13,22.12-9.64.56-15.28-6.47-15.79-15.1-.74-12.75,3.39-35.45,21.66-36.51,8.23-.48,13,2.67,13.46,9.7.71,12.25-12,20-21.51,21.8A36.07,36.07,0,0,0,710,296C710.37,302.58,714.81,304.34,718.73,304.11Zm3-38.86c-5.62.33-9.58,11.94-11.15,21.5,9.23-.64,15.3-8.95,15-16.08C725.43,268.56,724.72,265.08,721.71,265.25Z"/><path class="cls-3" d="M753.89,259l-.81,5.08c3.45-3,7.34-5.46,11.56-5.71,4.52-.26,7.38,2.19,7.6,6,.2,3.51-2.16,8-7.08,8.27-5.62.33-3.2-6.46-6.21-6.29s-4.55,1.37-6.74,3.61l-6.05,39.84-14.46.84,7.73-50.82Z"/><path class="cls-3" d="M811.29,289.88a14,14,0,0,0-.3,3.44c.12,2.11,1,3.67,3.83,3.5a8.07,8.07,0,0,0,2.59-.45c-2.31,8.8-6.49,9.64-9.9,9.84-5.82.34-9.11-2.49-10.38-7.05-2.77,4.29-7.05,8.67-13.18,9-9.64.56-12.84-6.11-13.19-12-1-17.27,4-38.31,24.11-39.48a10.92,10.92,0,0,1,6.87,2.12l.45-2.64,14.36-.83ZM801,263.78a7.5,7.5,0,0,0-5-1.52c-7.53.44-12.63,16.75-11.84,30.4.35,6,3.73,6.94,6.24,6.79,2.31-.13,4.39-2.57,6.23-5.5a12.59,12.59,0,0,1,.31-3.24Z"/><path class="cls-3" d="M870.46,259.36c-.14-2.41-1.7-3.33-3.91-3.2-8.43.49-12.91,17.17-12.28,28,.34,5.92,1.83,10.67,8,10.32,7.13-.41,12.61-5,16.92-10.45l3.41-.2c-4.51,5.7-9.2,18.57-27,19.59-8.33.48-14-3.82-14.71-15.67-.85-14.66,4.35-34.4,23.83-35.53,5.42-.31,11.13.77,11.45,6.29a10.28,10.28,0,0,1-.31,3.34,4.8,4.8,0,0,0-2.54-.46,11,11,0,0,0-3.18.79A11.14,11.14,0,0,0,870.46,259.36Z"/><path class="cls-3" d="M922.56,249.18l-5.15,34.55a20.15,20.15,0,0,0-.29,3.75c.12,2.11,1,3.17,3.3,3,1.1-.06,2.53-1.56,4-4-.48-8.33,2.87-13.16,6.86-13.69,3.24-6.74,5-15.81,6.29-23.54L952,245.46l.08,1.41c1,16.57,8,21.2,8.76,32.94l0,2.11A78.33,78.33,0,0,0,967,275l2.81,3.26c-2.68,2.37-6.5,6.12-10.31,9.76-2.29,5.67-7.79,9.82-17.13,10.36s-14.78-1.26-16.93-7c-3.35,4.83-6.77,8.35-9.68,8.52-7,.41-11-2.38-12.5-7.13-2.77,4.39-7,8.87-13.27,9.23-9.64.56-12.85-6.11-13.19-12-1-17.27,4-38.31,24.11-39.48a10.92,10.92,0,0,1,6.87,2.12l.45-2.64ZM907,257.64a7.5,7.5,0,0,0-5-1.52c-7.53.44-12.63,16.75-11.84,30.4.35,6,3.73,6.94,6.24,6.79,2.31-.13,4.38-2.57,6.23-5.5a12.59,12.59,0,0,1,.32-3.24Zm26.09,27.7a9,9,0,0,1-3.56-.6,8.86,8.86,0,0,0-.11,1.62c.25,4.32,5.11,6.55,9,6.33,3.41-.2,8.09-4.7,7.64-12.43-.36-6.23-5.19-11.29-6.11-23.82-1.32,5-2.36,11.52-4.27,16.67,2.46.66,3.46,2.42,3.64,5.43A6.46,6.46,0,0,1,933.12,285.34Z"/><path class="cls-3" d="M984.49,288.71c3.81-.22,7.07-3.13,9.8-8.12.1-7,3.18-11.17,7-11.69,3-6.72,4.53-15.68,5.8-23.41l14.38-3.86.08,1.41c1,16.57,8.57,21,9.25,32.71.54,9.34-4.91,17.81-18.46,18.6-9.74.56-15.29-1.43-17.28-7.86-3.81,5.46-8.82,9.38-17.06,9.85-9.64.56-15.29-6.47-15.79-15.1-.74-12.75,3.39-35.45,21.66-36.51,8.23-.48,13,2.67,13.46,9.7.71,12.25-12,20-21.5,21.8a36.52,36.52,0,0,0-.05,4.33C976.14,287.18,980.58,288.94,984.49,288.71Zm3-38.86c-5.62.33-9.58,11.94-11.14,21.5,9.23-.64,15.3-8.95,15-16.08C991.19,253.17,990.49,249.68,987.48,249.85Zm15.62,31.43a8,8,0,0,1-3.67-.69c.34,5.92,3.71,8.35,9,8,3.41-.2,8.09-4.7,7.64-12.43-.36-6.23-5.19-11.29-6.12-23.82-1.32,5-2.36,11.52-4.27,16.67,2.46.66,3.46,2.42,3.64,5.43A6.52,6.52,0,0,1,1003.1,281.29Z"/><path class="cls-3" d="M1098.07,239l-5.25,34.55a18.92,18.92,0,0,0-.22,3.14c.13,2.21,1.22,3.76,5.24,3.52s8.91-6.16,12.74-9.6l3.41-.2c-4.35,4.89-14.92,18.9-22.75,19.35-6.53.38-11.08-1.78-12.69-6.92-2.77,4.29-7.05,8.67-13.18,9-9.64.56-12.84-6.11-13.19-12-1-17.27,4-38.31,24.11-39.48a10.92,10.92,0,0,1,6.87,2.12l.45-2.64Zm-32.49,37.34c.35,6,3.73,6.94,6.24,6.79,2.31-.13,4.39-2.47,6.13-5.39a23.66,23.66,0,0,1,.41-3.35l4.08-26.93a7.51,7.51,0,0,0-5-1.52C1069.88,246.39,1064.78,262.7,1065.57,276.36Z"/><path class="cls-3" d="M1144.92,270.55a12.67,12.67,0,0,0-.32,3.24c.13,2.21,1.32,3.65,5.24,3.42s5.34-3.43,9.17-6.88l3.41-.2c-4.35,4.89-11.35,16.17-19.18,16.63s-12.65-2.69-13.08-10.22a24.51,24.51,0,0,1,.3-5.16l2.77-18.29a12.25,12.25,0,0,0,.15-2.63c-.21-3.62-2.25-5.81-5-5.66a10.66,10.66,0,0,0-6.2,2.47L1116,288.34l-14.46.84,7.73-50.82,14.46-.84-.89,5.49c3.94-3.25,8.42-5.93,12.84-6.18,5.42-.31,11.88,5.15,12.27,11.88a9.76,9.76,0,0,1-.06,2.42Z"/><path class="cls-3" d="M1193.62,267.73a14,14,0,0,0-.3,3.44c.12,2.11,1,3.67,3.83,3.5a8.06,8.06,0,0,0,2.59-.45c-2.31,8.8-6.49,9.64-9.9,9.84-5.82.34-9.11-2.5-10.38-7-2.77,4.29-7.06,8.57-13.08,8.92-9.64.56-12.85-6.11-13.19-12-1-17.27,4-38.31,24.11-39.48a11.58,11.58,0,0,1,6.87,2.12l3.22-20.94,14.64-2.86Zm-27,2.78c.35,6,3.73,6.94,6.24,6.79,2.31-.13,4.29-2.46,6-5.29a22.24,22.24,0,0,1,.4-3.45l4.18-27a7.91,7.91,0,0,0-5-1.42C1170.89,240.54,1165.79,256.85,1166.58,270.51Z"/></g><g id="_Group_4" data-name="&lt;Group&gt;"><g class="cls-2"><path d="M360.8,513.43l-8.3,54.88a19.32,19.32,0,0,0-.32,3.24c.13,2.21,1.32,3.65,5.24,3.42s8.91-6.16,12.74-9.6l3.41-.2c-4.35,4.89-14.92,18.9-22.75,19.35-6.53.38-11-1.78-12.59-6.93-2.77,4.29-7.05,8.67-13.18,9-9.64.56-12.84-6.11-13.19-12-1-17.27,4-38.31,24.11-39.48a10.92,10.92,0,0,1,6.87,2.12l3.22-20.94ZM325.25,571.1c.35,6,3.73,6.94,6.24,6.79,2.31-.13,4.39-2.47,6.13-5.39a23.51,23.51,0,0,1,.41-3.35l4.08-26.93a7.51,7.51,0,0,0-5-1.52C329.56,541.13,324.46,557.44,325.25,571.1Z"/><path d="M410.35,530.71l-5.25,34.55a19,19,0,0,0-.22,3.14c.13,2.21,1.23,3.76,5.24,3.52s8.91-6.16,12.74-9.6l3.41-.2c-4.35,4.89-14.92,18.9-22.75,19.35-6.83.4-11.6-1.95-12.84-7.72-4.46,4.69-9.65,9-14,9.27-7.73.45-12.75-2.69-13.19-10.22a25.23,25.23,0,0,1,.31-5.16l5.25-34.55,14.46-.84-5.25,34.55a19,19,0,0,0-.22,3.14c.13,2.21,1.23,3.76,5.24,3.52,2.11-.12,4.53-1.87,6.92-4a23.51,23.51,0,0,1,.41-3.35l5.25-34.55Z"/><path d="M414.25,564.83c-.74-12.75,3.39-35.46,21.66-36.51,8.23-.48,13,2.67,13.46,9.7.71,12.25-12,20-21.5,21.8a36.29,36.29,0,0,0-.05,4.33c.38,6.63,3.81,8.44,7.73,8.22,4.72-.27,8.58-3.22,12.48-7.17.63,10.84-7.94,14.16-18,14.74C420.39,580.5,414.75,573.47,414.25,564.83Zm25.28-31.38c-5.62.33-9.58,11.94-11.14,21.5,9.23-.64,15.3-8.95,15-16.08C443.24,536.76,442.54,533.27,439.53,533.45Z"/><path d="M497,509.77s-1.11,6.91-2.49,16.06l6-.35-.57,4.06-6,.35C488.83,562,489,563,489,563.52c.13,2.31,1.23,3.76,5.24,3.52s8.91-6.16,12.74-9.6l3.41-.2c-4.35,4.89-14.92,18.9-22.75,19.35s-12.65-2.69-13.08-10.22c-.31-5.32,3.68-26.91,4.89-35.64l-3.31.19.57-4.06,3.31-.19,2.21-14Z"/><path d="M544.09,529.91l1.12,1.95c-.8,3.57-2.23,8.39-6.11,11,.1,20.85-11.14,32.08-20.57,32.62-10.74.62-16-3.7-16.72-15.65-1.42-24.5,10.6-36.07,24.36-36.87,4.82-.28,9.55,1.36,9.7,4,.17,2.91-2.17,4.26-4.24,5.08-.92-2.06-2.41-3.29-4.72-3.15-9.84.57-12.27,21.26-11.8,29.29.35,6,3.46,7.46,7.47,7.22,5.92-.34,8.81-11.39,9.28-20.68-2-.29-2.93-1.85-3-4-.2-3.51,3.07-7.83,6.28-8,1.91-.11,3.45.4,3.57,2.51a2.81,2.81,0,0,1,0,.91C541.13,534.41,541.92,532.55,544.09,529.91Z"/><path d="M595.71,527.12c-.14-2.41-1.7-3.33-3.91-3.2-8.43.49-12.91,17.17-12.28,28,.34,5.92,1.83,10.67,8,10.32,7.13-.41,12.61-5,16.92-10.45l3.41-.2c-4.51,5.7-9.2,18.57-27,19.59-8.33.48-14-3.82-14.71-15.67-.85-14.66,4.35-34.4,23.83-35.53,5.42-.31,11.13.77,11.45,6.29a10.26,10.26,0,0,1-.31,3.34,4.81,4.81,0,0,0-2.54-.46,11.06,11.06,0,0,0-3.18.79A11.07,11.07,0,0,0,595.71,527.12Z"/><path d="M644.26,551.41a14,14,0,0,0-.32,3.24c.13,2.21,1.32,3.65,5.24,3.42s8.91-6.16,12.74-9.6l3.41-.2c-4.35,4.89-14.92,18.9-22.75,19.35s-12.65-2.69-13.08-10.22a24.39,24.39,0,0,1,.31-5.16L632.57,534a12.26,12.26,0,0,0,.15-2.63c-.21-3.62-2.25-5.81-5-5.66a10.16,10.16,0,0,0-6.1,2.47l-6.28,41.06-14.46.84,10.6-69.12L626.26,498l-4,25.72c3.95-3.15,8.43-5.83,12.74-6.08,5.42-.31,11.88,5.15,12.27,11.88a9.82,9.82,0,0,1-.06,2.42Z"/><path d="M690.17,528.3a3.9,3.9,0,0,0,3,.74c4.72-.27,6.63-3.81,10.26-5.53l.52,2.09a28,28,0,0,1-13.64,9.65c-.74,20.29-11.11,30.87-21.15,31.45-10.74.62-15.62-3.63-16.32-15.58-1.43-24.7,10.5-36.07,24.36-36.87C686.7,513.69,689.54,521,690.17,528.3Zm-7.27,8.38c-2.91.17-4.34-1.86-4.48-4.27-.17-2.91,1.36-6.12,4-7.28-.49-3.29-1.71-5.14-4.52-5-9.44.55-12.27,21.26-11.8,29.3.35,6,3.25,7.47,7.17,7.24C679.4,556.32,682.26,546.49,682.9,536.68Z"/><path d="M718.93,492.68l-8.4,54.89a18.26,18.26,0,0,0-.32,3.24c.13,2.21,1.32,3.65,5.24,3.42s8.91-6.16,12.74-9.6l3.41-.2c-4.35,4.89-14.92,18.9-22.75,19.35s-12.65-2.69-13.08-10.22a25.23,25.23,0,0,1,.31-5.16l8.12-52.85Z"/><path d="M743.67,554.51c4.92-.29,13-6.6,16.1-14.23l4.52-.26c-5.12,10.67-14.18,21.37-27.13,22.12-9.64.56-15.28-6.47-15.78-15.1-.74-12.75,3.38-35.45,21.66-36.51,8.23-.48,13,2.67,13.46,9.7.71,12.25-12,20-21.5,21.8a36.31,36.31,0,0,0-.05,4.33C735.32,553,739.75,554.74,743.67,554.51Zm3-38.86c-5.62.33-9.58,11.94-11.14,21.5,9.23-.64,15.3-8.95,15-16.08C750.38,519,749.67,515.48,746.66,515.65Z"/><path d="M778.83,509.36l-.81,5.08c3.45-3,7.34-5.46,11.56-5.71,4.52-.26,7.38,2.19,7.6,6,.2,3.51-2.16,8-7.08,8.27-5.62.33-3.2-6.46-6.21-6.29s-4.55,1.37-6.74,3.61l-6.05,39.84-14.46.84,7.73-50.82Z"/><path d="M836.23,540.28a14.05,14.05,0,0,0-.3,3.44c.12,2.11,1,3.67,3.83,3.5a8.07,8.07,0,0,0,2.59-.45c-2.31,8.8-6.49,9.64-9.91,9.84-5.82.34-9.11-2.5-10.38-7.05-2.77,4.29-7.05,8.67-13.18,9-9.64.56-12.84-6.11-13.19-12-1-17.27,4-38.31,24.11-39.48a10.92,10.92,0,0,1,6.87,2.12l.45-2.64,14.36-.83ZM826,514.18a7.51,7.51,0,0,0-5-1.52c-7.53.44-12.63,16.75-11.84,30.4.35,6,3.73,6.94,6.24,6.79,2.31-.13,4.38-2.57,6.23-5.5a12.55,12.55,0,0,1,.32-3.24Z"/><path d="M887.65,546.17c4.92-.29,13-6.6,16.1-14.23l4.52-.26c-5.12,10.67-14.18,21.37-27.13,22.12-9.64.56-15.29-6.47-15.79-15.1-.74-12.75,3.39-35.46,21.66-36.51,8.23-.48,13,2.67,13.46,9.7.71,12.25-12,20-21.5,21.8a36.27,36.27,0,0,0,0,4.33C879.3,544.64,883.73,546.4,887.65,546.17Zm3-38.86c-5.62.33-9.58,11.94-11.15,21.5,9.23-.64,15.3-8.95,15-16.08C894.35,510.62,893.65,507.14,890.63,507.31Z"/><path d="M940.58,507c.91,15.66-5.43,43.63-25.71,44.81-7.73.45-12.65-2.69-13.08-10.22a24.52,24.52,0,0,1,.21-5.15l5.25-34.55,14.46-.84-5.25,34.55a18.06,18.06,0,0,0-.29,3.74c.11,1.91,1.09,3.16,4,3,9.84-.57,15.29-22.95,14.66-33.89a7.78,7.78,0,0,1-2.08.52c-2.91.17-4.38-2.57-4.54-5.38-.12-2.11,2.12-5.06,5.44-5.25C938,498.12,940.28,501.82,940.58,507Z"/><path d="M965.26,541.67c4.92-.29,13-6.6,16.1-14.23l4.52-.26c-5.12,10.67-14.17,21.37-27.13,22.12-9.64.56-15.29-6.47-15.79-15.1-.74-12.75,3.39-35.45,21.66-36.51,8.23-.48,13,2.67,13.46,9.7.71,12.25-12,20-21.51,21.8a36.5,36.5,0,0,0-.05,4.33C956.91,540.14,961.34,541.9,965.26,541.67Zm3-38.86c-5.62.33-9.58,11.94-11.14,21.5,9.23-.64,15.3-8.95,15-16.08C972,506.13,971.26,502.64,968.24,502.82Z"/><path d="M1000.42,496.52l-.81,5.08c3.45-3,7.34-5.46,11.56-5.71,4.52-.26,7.38,2.19,7.6,6,.2,3.51-2.16,8-7.08,8.27-5.62.33-3.2-6.46-6.21-6.29s-4.55,1.37-6.74,3.61l-6.05,39.84-14.46.84L986,497.36Z"/><path d="M1039.07,494.28l-5.35,34.56a12.54,12.54,0,0,0-.32,3.24c.13,2.21,1.32,3.65,5.24,3.42,2.31-.13,4.91-2.1,7.4-4.46l5.68-37.5,14.56-.84-8.87,58.94c-2.18,14.53-10.66,17.74-17.28,18.13-6.12.36-12.1-3.63-12.48-10.16-.54-9.34,7.12-12.7,16.5-16.07l1.11-7c-4.28,4.38-9.19,8.29-13.21,8.52-7.83.45-12.65-2.69-13.08-10.22a24.46,24.46,0,0,1,.31-5.16l5-34.54ZM1037.3,561c2-.12,4.61-2.18,5.47-8.17l.86-6c-6.2,2.47-10.85,5.67-10.54,11.09C1033.17,559.3,1035.09,561.1,1037.3,561Z"/><path d="M1137.27,488.59l-6.79,44.52c6.05-3.37,11.52-8.12,14.5-15.75l.06,8c-.94,6.4-7.59,9.81-15.29,12.47l-1.45,9.75c-2.18,14.53-10.46,17.73-17.08,18.12-6.12.35-12.1-3.63-12.48-10.16-.54-9.24,7-12.7,16.4-16.06l1-6.91c-4.28,4.38-9,8.18-13,8.41-7.73.45-12.75-2.69-13.18-10.22a25.16,25.16,0,0,1,.31-5.16L1095.5,491l14.46-.84-5.25,34.55a18.93,18.93,0,0,0-.22,3.14c.13,2.21,1.23,3.76,5.24,3.52,2.21-.13,4.82-2,7.3-4.35l5.78-37.61Zm-28.89,68.26c2-.12,4.51-2.17,5.37-8.17l.87-5.89c-6.2,2.47-10.76,5.56-10.45,11C1104.25,555.18,1106.17,557,1108.38,556.85Z"/><path d="M1162.75,530.23c4.92-.29,13-6.6,16.1-14.23l4.52-.26c-5.12,10.67-14.18,21.37-27.13,22.12-9.64.56-15.28-6.47-15.78-15.1-.74-12.75,3.39-35.46,21.66-36.51,8.23-.48,13,2.67,13.46,9.7.71,12.25-12,20-21.5,21.8a36.07,36.07,0,0,0,0,4.33C1154.4,528.7,1158.83,530.46,1162.75,530.23Zm3-38.86c-5.62.33-9.58,11.94-11.15,21.5,9.23-.64,15.3-8.95,15-16.08C1169.45,494.69,1168.75,491.2,1165.74,491.37Z"/><path d="M1223.21,483.61,1218,518.17a18.93,18.93,0,0,0-.22,3.14c.13,2.21,1.23,3.76,5.24,3.52s8.91-6.16,12.74-9.6l3.42-.2c-4.35,4.89-14.92,18.9-22.75,19.35-6.53.38-11.08-1.78-12.69-6.92-2.77,4.29-7.05,8.67-13.18,9-9.64.56-12.85-6.11-13.19-12-1-17.27,4-38.31,24.11-39.48a10.92,10.92,0,0,1,6.87,2.12l.45-2.64ZM1190.72,521c.35,6,3.73,6.94,6.24,6.79,2.31-.13,4.39-2.47,6.13-5.39a23.37,23.37,0,0,1,.41-3.35l4.08-26.93a7.51,7.51,0,0,0-5-1.52C1195,491,1189.93,507.3,1190.72,521Z"/><path d="M1249,482.12l-.81,5.08c3.45-3,7.34-5.46,11.56-5.71,4.52-.26,7.38,2.19,7.6,6,.2,3.51-2.16,8-7.08,8.27-5.62.33-3.2-6.46-6.21-6.29s-4.55,1.37-6.74,3.61l-6.05,39.84-14.46.84,7.73-50.82Z"/><path d="M1273.34,477.41l-8.17.47-.3-1.31,11-11.45,1.71-.1-2.24,10.79,2.45-.14-.32,1.5-2.45.14-.77,3.79-1.73.1Zm.32-1.5,1.69-8.14-8.16,8.51Z"/></g><path class="cls-3" d="M353.8,506.43l-8.3,54.88a19.32,19.32,0,0,0-.32,3.24c.13,2.21,1.32,3.65,5.24,3.42s8.91-6.16,12.74-9.6l3.41-.2c-4.35,4.89-14.92,18.9-22.75,19.35-6.53.38-11-1.78-12.59-6.93-2.77,4.29-7.05,8.67-13.18,9-9.64.56-12.84-6.11-13.19-12-1-17.27,4-38.31,24.11-39.48a10.92,10.92,0,0,1,6.87,2.12l3.22-20.94ZM318.25,564.1c.35,6,3.73,6.94,6.24,6.79,2.31-.13,4.39-2.47,6.13-5.39a23.51,23.51,0,0,1,.41-3.35l4.08-26.93a7.51,7.51,0,0,0-5-1.52C322.56,534.13,317.46,550.44,318.25,564.1Z"/><path class="cls-3" d="M403.35,523.71l-5.25,34.55a19,19,0,0,0-.22,3.14c.13,2.21,1.23,3.76,5.24,3.52s8.91-6.16,12.74-9.6l3.41-.2c-4.35,4.89-14.92,18.9-22.75,19.35-6.83.4-11.6-1.95-12.84-7.72-4.46,4.69-9.65,9-14,9.27-7.73.45-12.75-2.69-13.19-10.22a25.23,25.23,0,0,1,.31-5.16l5.25-34.55,14.46-.84-5.25,34.55a19,19,0,0,0-.22,3.14c.13,2.21,1.23,3.76,5.24,3.52,2.11-.12,4.53-1.87,6.92-4a23.51,23.51,0,0,1,.41-3.35l5.25-34.55Z"/><path class="cls-3" d="M407.25,557.83c-.74-12.75,3.39-35.46,21.66-36.51,8.23-.48,13,2.67,13.46,9.7.71,12.25-12,20-21.5,21.8a36.29,36.29,0,0,0-.05,4.33c.38,6.63,3.81,8.44,7.73,8.22,4.72-.27,8.58-3.22,12.48-7.17.63,10.84-7.94,14.16-18,14.74C413.39,573.5,407.75,566.47,407.25,557.83Zm25.28-31.38c-5.62.33-9.58,11.94-11.14,21.5,9.23-.64,15.3-8.95,15-16.08C436.24,529.76,435.54,526.27,432.53,526.45Z"/><path class="cls-3" d="M490,502.77s-1.11,6.91-2.49,16.06l6-.35-.57,4.06-6,.35C481.83,555,482,556,482,556.52c.13,2.31,1.23,3.76,5.24,3.52s8.91-6.16,12.74-9.6l3.41-.2c-4.35,4.89-14.92,18.9-22.75,19.35s-12.65-2.69-13.08-10.22c-.31-5.32,3.68-26.91,4.89-35.64l-3.31.19.57-4.06,3.31-.19,2.21-14Z"/><path class="cls-3" d="M537.09,522.91l1.12,1.95c-.8,3.57-2.23,8.39-6.11,11,.1,20.85-11.14,32.08-20.57,32.62-10.74.62-16-3.7-16.72-15.65-1.42-24.5,10.6-36.07,24.36-36.87,4.82-.28,9.55,1.36,9.7,4,.17,2.91-2.17,4.26-4.24,5.08-.92-2.06-2.41-3.29-4.72-3.15-9.84.57-12.27,21.26-11.8,29.29.35,6,3.46,7.46,7.47,7.22,5.92-.34,8.81-11.39,9.28-20.68-2-.29-2.93-1.85-3-4-.2-3.51,3.07-7.83,6.28-8,1.91-.11,3.45.4,3.57,2.51a2.81,2.81,0,0,1,0,.91C534.13,527.41,534.92,525.55,537.09,522.91Z"/><path class="cls-3" d="M588.71,520.12c-.14-2.41-1.7-3.33-3.91-3.2-8.43.49-12.91,17.17-12.28,28,.34,5.92,1.83,10.67,8,10.32,7.13-.41,12.61-5,16.92-10.45l3.41-.2c-4.51,5.7-9.2,18.57-27,19.59-8.33.48-14-3.82-14.71-15.67-.85-14.66,4.35-34.4,23.83-35.53,5.42-.31,11.13.77,11.45,6.29a10.26,10.26,0,0,1-.31,3.34,4.81,4.81,0,0,0-2.54-.46,11.06,11.06,0,0,0-3.18.79A11.07,11.07,0,0,0,588.71,520.12Z"/><path class="cls-3" d="M637.26,544.41a14,14,0,0,0-.32,3.24c.13,2.21,1.32,3.65,5.24,3.42s8.91-6.16,12.74-9.6l3.41-.2c-4.35,4.89-14.92,18.9-22.75,19.35s-12.65-2.69-13.08-10.22a24.39,24.39,0,0,1,.31-5.16L625.57,527a12.26,12.26,0,0,0,.15-2.63c-.21-3.62-2.25-5.81-5-5.66a10.16,10.16,0,0,0-6.1,2.47l-6.28,41.06-14.46.84,10.6-69.12L619.26,491l-4,25.72c3.95-3.15,8.43-5.83,12.74-6.08,5.42-.31,11.88,5.15,12.27,11.88a9.82,9.82,0,0,1-.06,2.42Z"/><path class="cls-3" d="M683.17,521.3a3.9,3.9,0,0,0,3,.74c4.72-.27,6.63-3.81,10.26-5.53l.52,2.09a28,28,0,0,1-13.64,9.65c-.74,20.29-11.11,30.87-21.15,31.45-10.74.62-15.62-3.63-16.32-15.58-1.43-24.7,10.5-36.07,24.36-36.87C679.7,506.69,682.54,514,683.17,521.3Zm-7.27,8.38c-2.91.17-4.34-1.86-4.48-4.27-.17-2.91,1.36-6.12,4-7.28-.49-3.29-1.71-5.14-4.52-5-9.44.55-12.27,21.26-11.8,29.3.35,6,3.25,7.47,7.17,7.24C672.4,549.32,675.26,539.49,675.9,529.68Z"/><path class="cls-3" d="M711.93,485.68l-8.4,54.89a18.26,18.26,0,0,0-.32,3.24c.13,2.21,1.32,3.65,5.24,3.42s8.91-6.16,12.74-9.6l3.41-.2c-4.35,4.89-14.92,18.9-22.75,19.35s-12.65-2.69-13.08-10.22a25.23,25.23,0,0,1,.31-5.16l8.12-52.85Z"/><path class="cls-3" d="M736.67,547.51c4.92-.29,13-6.6,16.1-14.23l4.52-.26c-5.12,10.67-14.18,21.37-27.13,22.12-9.64.56-15.28-6.47-15.78-15.1-.74-12.75,3.38-35.45,21.66-36.51,8.23-.48,13,2.67,13.46,9.7.71,12.25-12,20-21.5,21.8a36.31,36.31,0,0,0-.05,4.33C728.32,546,732.75,547.74,736.67,547.51Zm3-38.86c-5.62.33-9.58,11.94-11.14,21.5,9.23-.64,15.3-8.95,15-16.08C743.38,512,742.67,508.48,739.66,508.65Z"/><path class="cls-3" d="M771.83,502.36l-.81,5.08c3.45-3,7.34-5.46,11.56-5.71,4.52-.26,7.38,2.19,7.6,6,.2,3.51-2.16,8-7.08,8.27-5.62.33-3.2-6.46-6.21-6.29s-4.55,1.37-6.74,3.61l-6.05,39.84-14.46.84,7.73-50.82Z"/><path class="cls-3" d="M829.23,533.28a14.05,14.05,0,0,0-.3,3.44c.12,2.11,1,3.67,3.83,3.5a8.07,8.07,0,0,0,2.59-.45c-2.31,8.8-6.49,9.64-9.91,9.84-5.82.34-9.11-2.5-10.38-7.05-2.77,4.29-7.05,8.67-13.18,9-9.64.56-12.84-6.11-13.19-12-1-17.27,4-38.31,24.11-39.48a10.92,10.92,0,0,1,6.87,2.12l.45-2.64,14.36-.83ZM819,507.18a7.51,7.51,0,0,0-5-1.52c-7.53.44-12.63,16.75-11.84,30.4.35,6,3.73,6.94,6.24,6.79,2.31-.13,4.38-2.57,6.23-5.5a12.55,12.55,0,0,1,.32-3.24Z"/><path class="cls-3" d="M880.65,539.17c4.92-.29,13-6.6,16.1-14.23l4.52-.26c-5.12,10.67-14.18,21.37-27.13,22.12-9.64.56-15.29-6.47-15.79-15.1-.74-12.75,3.39-35.46,21.66-36.51,8.23-.48,13,2.67,13.46,9.7.71,12.25-12,20-21.5,21.8a36.27,36.27,0,0,0,0,4.33C872.3,537.64,876.73,539.4,880.65,539.17Zm3-38.86c-5.62.33-9.58,11.94-11.15,21.5,9.23-.64,15.3-8.95,15-16.08C887.35,503.62,886.65,500.14,883.63,500.31Z"/><path class="cls-3" d="M933.58,500c.91,15.66-5.43,43.63-25.71,44.81-7.73.45-12.65-2.69-13.08-10.22a24.52,24.52,0,0,1,.21-5.15l5.25-34.55,14.46-.84-5.25,34.55a18.06,18.06,0,0,0-.29,3.74c.11,1.91,1.09,3.16,4,3,9.84-.57,15.29-22.95,14.66-33.89a7.78,7.78,0,0,1-2.08.52c-2.91.17-4.38-2.57-4.54-5.38-.12-2.11,2.12-5.06,5.44-5.25C931,491.12,933.28,494.82,933.58,500Z"/><path class="cls-3" d="M958.26,534.67c4.92-.29,13-6.6,16.1-14.23l4.52-.26c-5.12,10.67-14.17,21.37-27.13,22.12-9.64.56-15.29-6.47-15.79-15.1-.74-12.75,3.39-35.45,21.66-36.51,8.23-.48,13,2.67,13.46,9.7.71,12.25-12,20-21.51,21.8a36.5,36.5,0,0,0-.05,4.33C949.91,533.14,954.34,534.9,958.26,534.67Zm3-38.86c-5.62.33-9.58,11.94-11.14,21.5,9.23-.64,15.3-8.95,15-16.08C965,499.13,964.26,495.64,961.24,495.82Z"/><path class="cls-3" d="M993.42,489.52l-.81,5.08c3.45-3,7.34-5.46,11.56-5.71,4.52-.26,7.38,2.19,7.6,6,.2,3.51-2.16,8-7.08,8.27-5.62.33-3.2-6.46-6.21-6.29s-4.55,1.37-6.74,3.61l-6.05,39.84-14.46.84L979,490.36Z"/><path class="cls-3" d="M1032.07,487.28l-5.35,34.56a12.54,12.54,0,0,0-.32,3.24c.13,2.21,1.32,3.65,5.24,3.42,2.31-.13,4.91-2.1,7.4-4.46l5.68-37.5,14.56-.84-8.87,58.94c-2.18,14.53-10.66,17.74-17.28,18.13-6.12.36-12.1-3.63-12.48-10.16-.54-9.34,7.12-12.7,16.5-16.07l1.11-7c-4.28,4.38-9.19,8.29-13.21,8.52-7.83.45-12.65-2.69-13.08-10.22a24.46,24.46,0,0,1,.31-5.16l5-34.54ZM1030.3,554c2-.12,4.61-2.18,5.47-8.17l.86-6c-6.2,2.47-10.85,5.67-10.54,11.09C1026.17,552.3,1028.09,554.1,1030.3,554Z"/><path class="cls-3" d="M1130.27,481.59l-6.79,44.52c6.05-3.37,11.52-8.12,14.5-15.75l.06,8c-.94,6.4-7.59,9.81-15.29,12.47l-1.45,9.75c-2.18,14.53-10.46,17.73-17.08,18.12-6.12.35-12.1-3.63-12.48-10.16-.54-9.24,7-12.7,16.4-16.06l1-6.91c-4.28,4.38-9,8.18-13,8.41-7.73.45-12.75-2.69-13.18-10.22a25.16,25.16,0,0,1,.31-5.16L1088.5,484l14.46-.84-5.25,34.55a18.93,18.93,0,0,0-.22,3.14c.13,2.21,1.23,3.76,5.24,3.52,2.21-.13,4.82-2,7.3-4.35l5.78-37.61Zm-28.89,68.26c2-.12,4.51-2.17,5.37-8.17l.87-5.89c-6.2,2.47-10.76,5.56-10.45,11C1097.25,548.18,1099.17,550,1101.38,549.85Z"/><path class="cls-3" d="M1155.75,523.23c4.92-.29,13-6.6,16.1-14.23l4.52-.26c-5.12,10.67-14.18,21.37-27.13,22.12-9.64.56-15.28-6.47-15.78-15.1-.74-12.75,3.39-35.46,21.66-36.51,8.23-.48,13,2.67,13.46,9.7.71,12.25-12,20-21.5,21.8a36.07,36.07,0,0,0,0,4.33C1147.4,521.7,1151.83,523.46,1155.75,523.23Zm3-38.86c-5.62.33-9.58,11.94-11.15,21.5,9.23-.64,15.3-8.95,15-16.08C1162.45,487.69,1161.75,484.2,1158.74,484.37Z"/><path class="cls-3" d="M1216.21,476.61,1211,511.17a18.93,18.93,0,0,0-.22,3.14c.13,2.21,1.23,3.76,5.24,3.52s8.91-6.16,12.74-9.6l3.42-.2c-4.35,4.89-14.92,18.9-22.75,19.35-6.53.38-11.08-1.78-12.69-6.92-2.77,4.29-7.05,8.67-13.18,9-9.64.56-12.85-6.11-13.19-12-1-17.27,4-38.31,24.11-39.48a10.92,10.92,0,0,1,6.87,2.12l.45-2.64ZM1183.72,514c.35,6,3.73,6.94,6.24,6.79,2.31-.13,4.39-2.47,6.13-5.39a23.37,23.37,0,0,1,.41-3.35l4.08-26.93a7.51,7.51,0,0,0-5-1.52C1188,484,1182.93,500.3,1183.72,514Z"/><path class="cls-3" d="M1242,475.12l-.81,5.08c3.45-3,7.34-5.46,11.56-5.71,4.52-.26,7.38,2.19,7.6,6,.2,3.51-2.16,8-7.08,8.27-5.62.33-3.2-6.46-6.21-6.29s-4.55,1.37-6.74,3.61l-6.05,39.84-14.46.84,7.73-50.82Z"/><path class="cls-3" d="M1266.34,470.41l-8.17.47-.3-1.31,11-11.45,1.71-.1-2.24,10.79,2.45-.14-.32,1.5-2.45.14-.77,3.79-1.73.1Zm.32-1.5,1.69-8.14-8.16,8.51Z"/></g><g id="_Group_5" data-name="&lt;Group&gt;"><g class="cls-2"><path d="M144.5,478.63l-2,19.13L108,500.23l2-19.13,8.63-.62,6-57.4-8.63.62,2-19.13,25.9-1.85-8,76.53Zm-8.67,9.16-8.63.62,8-76.53-10.36.74-.2,1.91,8.63-.62-7.77,74.62-8.63.62-.2,1.91,19-1.35Z"/><path d="M205.07,464.82l-1,9.57,8.63-.62-2,19.13-34.54,2.46,2-19.13,8.63-.62,1-9.57-34.54,2.46,2-19.27L182.69,400l19.49-1.39L174.62,448l15.17-1.08,2-19.13,17.27-1.23-2,19.13,8.63-.62-2,19.13Zm-9.67,18.73,2.79-26.79,8.63-.62.2-1.91-8.63.62,2-19.13-1.73.12-2,19.13-32.81,2.34.64-6.15,24-43.08-2,.14-23.67,42.65-.88,8.47,34.54-2.46-2.79,26.79-8.63.62-.2,1.91,19-1.35.2-1.91Z"/><path d="M264.64,460.58l17.27-1.23-3,28.7-60.44,4.31,2-19.27,40.29-40q2.86-2.78,4.39-4.52a25.76,25.76,0,0,0,2.26-2.87,7.16,7.16,0,0,0,.93-1.9,9.63,9.63,0,0,0,.27-1.44,8.38,8.38,0,0,0-1.82-6.58,6.62,6.62,0,0,0-5.81-2.37l-8.63.62a9.6,9.6,0,0,0-6.4,3.24,11.63,11.63,0,0,0-3.23,6.94l-17.27,1.23a34.21,34.21,0,0,1,3.2-11.28,37,37,0,0,1,6.5-9.55,33.7,33.7,0,0,1,8.84-6.73,26,26,0,0,1,10.35-3l8.63-.62a21,21,0,0,1,9.82,1.54,20.31,20.31,0,0,1,7.62,5.56,23.33,23.33,0,0,1,4.6,8.76,28.47,28.47,0,0,1,.88,11,29.14,29.14,0,0,1-1.51,6.82,30.94,30.94,0,0,1-3,6,48.07,48.07,0,0,1-4.41,5.88q-2.58,3-5.86,6.32l-25.53,25.29,18-1.28Zm5.88,17.62-41.44,3,.44-4.24,37-36.68q3.13-3.07,5.29-5.53a35.87,35.87,0,0,0,3.48-4.59,18.52,18.52,0,0,0,2-4.14,21.85,21.85,0,0,0,.88-4.34,20.07,20.07,0,0,0-.61-7.69,16.31,16.31,0,0,0-3.22-6.15,14.18,14.18,0,0,0-5.35-3.89,14.75,14.75,0,0,0-6.87-1.07l-8.63.62a19.07,19.07,0,0,0-10.2,3.85,25.18,25.18,0,0,0-7.41,8.8l2-.14a22.21,22.21,0,0,1,6.65-7.39,17.22,17.22,0,0,1,8.78-3.2l8.63-.62a13.24,13.24,0,0,1,6.2,1,12.87,12.87,0,0,1,4.84,3.52,14.83,14.83,0,0,1,2.91,5.56,18,18,0,0,1,.56,6.95,18.51,18.51,0,0,1-.84,3.93,16.93,16.93,0,0,1-1.87,3.79,38.14,38.14,0,0,1-3.26,4.23q-2,2.31-5,5.24l-37.55,37.27-.73,7L272,480l1.2-11.48-1.73.12Z"/><path d="M315.57,466.44l-11.62,29.31-18.25,1.3,11.62-29.31Zm-11.75,9.38L302,476l-4.65,11.73,1.85-.13Z"/><path d="M365,387a21,21,0,0,1,9.82,1.54,20.3,20.3,0,0,1,7.62,5.56,23.33,23.33,0,0,1,4.6,8.76,28.47,28.47,0,0,1,.88,11l-4,38.26a34,34,0,0,1-3.2,11.35,37.23,37.23,0,0,1-6.5,9.48,33.48,33.48,0,0,1-8.91,6.74,26.14,26.14,0,0,1-10.29,3l-8.63.62a20.86,20.86,0,0,1-9.88-1.53,20.45,20.45,0,0,1-7.56-5.56,23.45,23.45,0,0,1-4.6-8.69,28.32,28.32,0,0,1-.87-11.06l4-38.26a34.21,34.21,0,0,1,3.2-11.28,37,37,0,0,1,6.5-9.55,33.72,33.72,0,0,1,8.84-6.73,26,26,0,0,1,10.35-3Zm15.14,27.41a20.11,20.11,0,0,0-.61-7.69,16.31,16.31,0,0,0-3.22-6.15,14.18,14.18,0,0,0-5.35-3.89,14.75,14.75,0,0,0-6.87-1.07l-8.63.62a18.38,18.38,0,0,0-7.19,2.07A23.28,23.28,0,0,0,342,403a25.72,25.72,0,0,0-4.55,6.7,24,24,0,0,0-2.23,7.89l-4,38.26a20,20,0,0,0,.61,7.69,16.22,16.22,0,0,0,3.22,6.15,14.1,14.1,0,0,0,5.35,3.89,14.72,14.72,0,0,0,6.87,1.07l8.63-.62a18.35,18.35,0,0,0,7.2-2.07,23.27,23.27,0,0,0,6.25-4.72,25.85,25.85,0,0,0,4.55-6.7,24.13,24.13,0,0,0,2.23-7.89Zm-16.24-16.88a13.24,13.24,0,0,1,6.2,1,12.87,12.87,0,0,1,4.84,3.52,14.84,14.84,0,0,1,2.91,5.56,18,18,0,0,1,.56,6.95l-4,38.26a21.66,21.66,0,0,1-2,7.13,23.46,23.46,0,0,1-4.12,6.06,21.17,21.17,0,0,1-5.65,4.27,16.54,16.54,0,0,1-6.5,1.89l-8.63.62a13.25,13.25,0,0,1-6.2-1,12.86,12.86,0,0,1-4.84-3.52,14.77,14.77,0,0,1-2.91-5.56,18,18,0,0,1-.56-6.95l4-38.26a21.59,21.59,0,0,1,2-7.13,23.47,23.47,0,0,1,4.12-6.06,21.15,21.15,0,0,1,5.65-4.27,16.52,16.52,0,0,1,6.5-1.89ZM370.63,415a8.37,8.37,0,0,0-1.83-6.58,6.62,6.62,0,0,0-5.81-2.37l-8.63.62a9.6,9.6,0,0,0-6.4,3.24,11.62,11.62,0,0,0-3.23,6.94l-4,38.26a8.36,8.36,0,0,0,1.82,6.58,6.61,6.61,0,0,0,5.81,2.37l8.63-.62a9.6,9.6,0,0,0,6.4-3.24,11.63,11.63,0,0,0,3.23-6.95Z"/><path d="M432.33,382.16a21,21,0,0,1,9.82,1.54,20.31,20.31,0,0,1,7.62,5.56,23.33,23.33,0,0,1,4.6,8.76,28.47,28.47,0,0,1,.88,11l-4,38.26a34,34,0,0,1-3.2,11.35,37.21,37.21,0,0,1-6.5,9.48,33.46,33.46,0,0,1-8.91,6.74,26.14,26.14,0,0,1-10.29,3l-8.63.62a20.86,20.86,0,0,1-9.88-1.53,20.45,20.45,0,0,1-7.56-5.56,23.46,23.46,0,0,1-4.6-8.69,28.32,28.32,0,0,1-.87-11.06l4-38.26A34.21,34.21,0,0,1,398,402a37,37,0,0,1,6.5-9.55,33.72,33.72,0,0,1,8.84-6.73,26,26,0,0,1,10.35-3Zm15.14,27.41a20.09,20.09,0,0,0-.61-7.69,16.32,16.32,0,0,0-3.22-6.15,14.18,14.18,0,0,0-5.35-3.89,14.75,14.75,0,0,0-6.87-1.07l-8.63.62a18.37,18.37,0,0,0-7.19,2.07,23.28,23.28,0,0,0-6.25,4.72,25.72,25.72,0,0,0-4.55,6.7,24,24,0,0,0-2.23,7.89l-4,38.26a20,20,0,0,0,.61,7.69,16.22,16.22,0,0,0,3.22,6.15,14.1,14.1,0,0,0,5.35,3.89,14.72,14.72,0,0,0,6.87,1.07l8.63-.62a18.35,18.35,0,0,0,7.2-2.07,23.27,23.27,0,0,0,6.25-4.72,25.84,25.84,0,0,0,4.55-6.7,24.1,24.1,0,0,0,2.23-7.89Zm-16.24-16.88a13.23,13.23,0,0,1,6.2,1,12.87,12.87,0,0,1,4.84,3.52,14.83,14.83,0,0,1,2.91,5.56,18,18,0,0,1,.56,6.95l-4,38.26a21.65,21.65,0,0,1-2,7.13,23.45,23.45,0,0,1-4.12,6.06,21.17,21.17,0,0,1-5.65,4.27,16.54,16.54,0,0,1-6.5,1.89l-8.63.62a13.25,13.25,0,0,1-6.2-1,12.87,12.87,0,0,1-4.84-3.52,14.77,14.77,0,0,1-2.91-5.56,18,18,0,0,1-.56-6.95l4-38.26a21.59,21.59,0,0,1,2-7.13,23.44,23.44,0,0,1,4.12-6.06,21.16,21.16,0,0,1,5.65-4.27,16.53,16.53,0,0,1,6.5-1.89ZM438,410.25a8.37,8.37,0,0,0-1.82-6.58,6.62,6.62,0,0,0-5.81-2.37l-8.63.62a9.6,9.6,0,0,0-6.4,3.24,11.62,11.62,0,0,0-3.23,6.94l-4,38.26a8.36,8.36,0,0,0,1.82,6.58,6.61,6.61,0,0,0,5.81,2.37l8.63-.62a9.6,9.6,0,0,0,6.4-3.24,11.63,11.63,0,0,0,3.23-6.95Z"/><path d="M499.67,377.36a21,21,0,0,1,9.82,1.54,20.32,20.32,0,0,1,7.62,5.56,23.33,23.33,0,0,1,4.6,8.76,28.47,28.47,0,0,1,.88,11l-4,38.26a34,34,0,0,1-3.2,11.35,37.21,37.21,0,0,1-6.5,9.48,33.43,33.43,0,0,1-8.91,6.74,26.14,26.14,0,0,1-10.29,3l-8.63.62a20.86,20.86,0,0,1-9.88-1.53,20.45,20.45,0,0,1-7.56-5.56,23.48,23.48,0,0,1-4.6-8.69,28.34,28.34,0,0,1-.87-11.06l4-38.26a34.21,34.21,0,0,1,3.2-11.28,37,37,0,0,1,6.5-9.55,33.72,33.72,0,0,1,8.84-6.73A26,26,0,0,1,491,378Zm15.14,27.41a20.09,20.09,0,0,0-.61-7.69,16.31,16.31,0,0,0-3.22-6.15,14.19,14.19,0,0,0-5.35-3.89,14.77,14.77,0,0,0-6.87-1.07l-8.63.62a18.39,18.39,0,0,0-7.19,2.07,23.3,23.3,0,0,0-6.25,4.72,25.75,25.75,0,0,0-4.55,6.7,24,24,0,0,0-2.23,7.89l-4,38.26a20,20,0,0,0,.61,7.69,16.21,16.21,0,0,0,3.22,6.15,14.1,14.1,0,0,0,5.35,3.89A14.72,14.72,0,0,0,482,465l8.63-.62a18.35,18.35,0,0,0,7.2-2.07,23.27,23.27,0,0,0,6.25-4.72,25.81,25.81,0,0,0,4.55-6.7,24.1,24.1,0,0,0,2.23-7.89Zm-16.24-16.88a13.24,13.24,0,0,1,6.2,1,12.87,12.87,0,0,1,4.84,3.52,14.84,14.84,0,0,1,2.91,5.56,18,18,0,0,1,.56,6.95l-4,38.26a21.65,21.65,0,0,1-2,7.13,23.49,23.49,0,0,1-4.12,6.06,21.17,21.17,0,0,1-5.65,4.27,16.52,16.52,0,0,1-6.5,1.89l-8.63.62a13.24,13.24,0,0,1-6.2-1,12.87,12.87,0,0,1-4.84-3.52,14.79,14.79,0,0,1-2.91-5.56,18,18,0,0,1-.56-6.95l4-38.26a21.6,21.6,0,0,1,2-7.13,23.46,23.46,0,0,1,4.12-6.06,21.17,21.17,0,0,1,5.65-4.27,16.52,16.52,0,0,1,6.5-1.89Zm6.74,17.56a8.38,8.38,0,0,0-1.82-6.58,6.62,6.62,0,0,0-5.81-2.37l-8.63.62a9.6,9.6,0,0,0-6.4,3.24,11.63,11.63,0,0,0-3.23,6.95l-4,38.26a8.36,8.36,0,0,0,1.82,6.58,6.61,6.61,0,0,0,5.81,2.37l8.63-.62a9.6,9.6,0,0,0,6.4-3.24,11.63,11.63,0,0,0,3.23-6.95Z"/><path d="M609.33,369.55a27.88,27.88,0,0,1,13.13,2A27.2,27.2,0,0,1,632.58,379a31.22,31.22,0,0,1,6.13,11.64,37.92,37.92,0,0,1,1.16,14.7l-2,19.13a45.51,45.51,0,0,1-4.27,15.09A49.51,49.51,0,0,1,625,452.26a44.72,44.72,0,0,1-11.83,9,34.73,34.73,0,0,1-13.76,4l-34.54,2.46,2-19.13,8.63-.62,6-57.4-8.63.62,2-19.13Zm22.78,36.36a29.48,29.48,0,0,0-.89-11.4,24.16,24.16,0,0,0-4.75-9,21.06,21.06,0,0,0-7.85-5.75,21.67,21.67,0,0,0-10.18-1.58l-26.77,1.91-.2,1.91,8.63-.62L582.33,456l-8.63.62-.2,1.91,26.77-1.91a27,27,0,0,0,10.67-3.07,34.59,34.59,0,0,0,9.17-7,38.34,38.34,0,0,0,6.72-9.84,35.36,35.36,0,0,0,3.3-11.7Zm-23.88-25.83a20.17,20.17,0,0,1,9.51,1.49,19.78,19.78,0,0,1,7.34,5.38,22.71,22.71,0,0,1,4.45,8.43,27.45,27.45,0,0,1,.85,10.66l-2,19.13a32.93,32.93,0,0,1-3.1,10.94,36,36,0,0,1-6.28,9.2,32.51,32.51,0,0,1-8.58,6.51,25.11,25.11,0,0,1-10,2.88l-16.41,1.17,7.77-74.62Zm14.38,26.51a19,19,0,0,0-.58-7.35,15.63,15.63,0,0,0-3.07-5.82,13.62,13.62,0,0,0-5.06-3.71,14,14,0,0,0-6.57-1l-8.63.62-6,57.4,8.63-.62a17.35,17.35,0,0,0,6.88-2,22.37,22.37,0,0,0,5.92-4.49,24.8,24.8,0,0,0,4.33-6.34,22.74,22.74,0,0,0,2.13-7.54Z"/><path d="M691,392.22l1-9.57-17.27,1.23-2,19.13L690,401.79l-2,19.13-17.27,1.23-2,19.13L686,440l1-9.57,17.27-1.23-3,28.7-60.44,4.31,2-19.13,8.63-.62,6-57.4-8.63.62,2-19.13,60.44-4.31-3,28.7Zm9.66-18.73-1,9.57,1.73-.12,1.2-11.48-44.9,3.2-.2,1.91,8.63-.62-7.77,74.62-8.63.62-.2,1.91,44.9-3.2,1.2-11.48-1.73.12-1,9.57L660,450.44l3.79-36.35,17.27-1.23.2-1.91L664,412.18l3.79-36.35Z"/><path d="M787.23,432.83l8.39-.6-2,19.13-34.54,2.46,2-19.13,8.14-.58-1.59-9.38L741,426.63l-3.59,9.75,8.14-.58-2,19.13L709,457.4l2-19.13,8.39-.6,28.69-78,26.4-1.88Zm-34.37-65-28.69,78-6.29.45-.2,1.91,19-1.35.2-1.91-10.85.77,10.07-27.3,38.24-2.72L778.81,442l-10.85.77-.2,1.91,19-1.35.2-1.91-6.41.46L767.79,366.8Zm1.16,1.82,12.33-.88,7.68,45-37.25,2.65ZM764.44,406l-4.78-28.14-.74.05-10.76,29.25Z"/><path d="M865.63,351.29l-3,28.7-17.27,1.23,1-9.57-8.63.62-6,57.4,8.63-.62-2,19.13-34.54,2.46,2-19.13,8.63-.62,6-57.4-8.63.62-1,9.57-17.27,1.23,3-28.7ZM857,360.45l-53.53,3.81-1.2,11.48,1.73-.12,1-9.57,24.18-1.72-7.77,74.62-8.63.62-.2,1.91,19-1.35.2-1.91-8.63.62,7.77-74.62L855,362.49l-1,9.57,1.73-.12Z"/><path d="M939.5,365l-6,57.4,8.63-.62-2,19.13-34.54,2.46,2-19.13,8.63-.62,2-19.13-25,1.78-2,19.13,8.63-.62-2,19.13-34.54,2.46,2-19.13,8.63-.62,6-57.4-8.63.62,2-19.13,34.54-2.46-2,19.13-8.63.62-2,19.13,25-1.78,2-19.13-8.63.62,2-19.13,34.54-2.46-2,19.13Zm1.76-8.67.2-1.91-19,1.35-.2,1.91,8.63-.62-3.79,36.35-40.58,2.89L890.31,360l8.63-.62.2-1.91-19,1.35-.2,1.91,8.63-.62-7.77,74.62-8.63.62-.2,1.91,19-1.35.2-1.91-8.63.62,3.79-36.35,40.58-2.89-3.79,36.35-8.63.62-.2,1.91,19-1.35.2-1.91-8.63.62L932.62,357Z"/><path d="M987.43,380.86q10.55,1,16.48,4.59a26,26,0,0,1,8.77,8.06,20.55,20.55,0,0,1,3.29,9,37.88,37.88,0,0,1,.15,7.38,29.64,29.64,0,0,1-3.27,10.81,32.9,32.9,0,0,1-6.8,8.89,35.25,35.25,0,0,1-9.46,6.24,33,33,0,0,1-11.38,2.85,38.8,38.8,0,0,1-11.14-.63,32,32,0,0,1-8.55-3.12l-.44,4.24-17.27,1.23,3-28.7,17.27-1.23a33.62,33.62,0,0,0,3.89,4.4,18.89,18.89,0,0,0,4.1,3,15.26,15.26,0,0,0,4.86,1.55,28.43,28.43,0,0,0,6.29.16,15.13,15.13,0,0,0,8-2.74,8,8,0,0,0,3.65-5.69,7.25,7.25,0,0,0-1.07-5,10.49,10.49,0,0,0-3.7-3.26,20.46,20.46,0,0,0-5.31-1.93,57.39,57.39,0,0,0-5.89-1q-10.18-1-16.08-4.28a25.8,25.8,0,0,1-8.84-7.37,19.46,19.46,0,0,1-3.57-8.63,33.34,33.34,0,0,1-.26-8.05,31,31,0,0,1,3.3-11.09,34.68,34.68,0,0,1,6.9-9.24,35.45,35.45,0,0,1,9.49-6.51,31.37,31.37,0,0,1,11.2-2.9,39.45,39.45,0,0,1,10.84.52,28,28,0,0,1,8.13,3l.41-4,17.27-1.23-3,28.7-17.39,1.24a46.48,46.48,0,0,0-3.59-4.29,15.32,15.32,0,0,0-8.52-4.62A24.09,24.09,0,0,0,983,361a12.86,12.86,0,0,0-8.18,3.3,9.89,9.89,0,0,0-3.45,6.08Q970.49,378.95,987.43,380.86Zm14.18,42.53a28.49,28.49,0,0,0,4.14-5.11,17.33,17.33,0,0,0,2.59-7.85,23.08,23.08,0,0,0-.24-5.88,14,14,0,0,0-2.89-6.37,20.9,20.9,0,0,0-7.08-5.53q-4.7-2.44-12.83-3.22-23.38-2.4-21.7-18.53a18.61,18.61,0,0,1,1.88-6.31,21.4,21.4,0,0,1,4.21-5.79,23.27,23.27,0,0,1,6.27-4.38,21.5,21.5,0,0,1,7.93-2.06q7.89-.56,12.79,1.8a26.29,26.29,0,0,1,8.81,7.1l6.29-.45,1.2-11.48-1.73.12-1,9.57-3.82.27a21.65,21.65,0,0,0-6.45-5.64,26.09,26.09,0,0,0-7.6-2.85,30.43,30.43,0,0,0-8.29-.36,23,23,0,0,0-8.11,2.07,27.58,27.58,0,0,0-6.83,4.49,22.69,22.69,0,0,0-4.94,6.32,20.86,20.86,0,0,0-2.33,7.69,16,16,0,0,0,1.36,9.26,16.73,16.73,0,0,0,5.31,6,23.69,23.69,0,0,0,7.72,3.45,53.64,53.64,0,0,0,8.6,1.49,37.11,37.11,0,0,1,12.12,3,18.37,18.37,0,0,1,6.69,5.08,13.21,13.21,0,0,1,2.69,5.91,20.66,20.66,0,0,1,.24,5.34,17.23,17.23,0,0,1-2.1,6.66,19.57,19.57,0,0,1-4.42,5.4,23.33,23.33,0,0,1-6.21,3.77,24,24,0,0,1-7.59,1.76q-8.26.59-13.28-1.77a28.26,28.26,0,0,1-9.18-7.08l-6.17.44-1.2,11.48,1.73-.12,1-9.57,3.95-.28a27.12,27.12,0,0,0,4.49,4.5,18.92,18.92,0,0,0,5.09,2.83,26,26,0,0,0,6,1.4,39.71,39.71,0,0,0,7.34.09,25.79,25.79,0,0,0,8.41-2A24.27,24.27,0,0,0,1001.61,423.39Z"/></g><path class="cls-3" d="M137.5,471.63l-2,19.13L101,493.23l2-19.13,8.63-.62,6-57.4-8.63.62,2-19.13,25.9-1.85-8,76.53Zm-8.67,9.16-8.63.62,8-76.53-10.36.74-.2,1.91,8.63-.62-7.77,74.62-8.63.62-.2,1.91,19-1.35Z"/><path class="cls-3" d="M198.07,457.82l-1,9.57,8.63-.62-2,19.13-34.54,2.46,2-19.13,8.63-.62,1-9.57-34.54,2.46,2-19.27L175.69,393l19.49-1.39L167.62,441l15.17-1.08,2-19.13,17.27-1.23-2,19.13,8.63-.62-2,19.13Zm-9.67,18.73,2.79-26.79,8.63-.62.2-1.91-8.63.62,2-19.13-1.73.12-2,19.13-32.81,2.34.64-6.15,24-43.08-2,.14-23.67,42.65-.88,8.47,34.54-2.46-2.79,26.79-8.63.62-.2,1.91,19-1.35.2-1.91Z"/><path class="cls-3" d="M257.64,453.58l17.27-1.23-3,28.7-60.44,4.31,2-19.27,40.29-40q2.86-2.78,4.39-4.52a25.76,25.76,0,0,0,2.26-2.87,7.16,7.16,0,0,0,.93-1.9,9.63,9.63,0,0,0,.27-1.44,8.38,8.38,0,0,0-1.82-6.58,6.62,6.62,0,0,0-5.81-2.37l-8.63.62a9.6,9.6,0,0,0-6.4,3.24,11.63,11.63,0,0,0-3.23,6.94l-17.27,1.23a34.21,34.21,0,0,1,3.2-11.28,37,37,0,0,1,6.5-9.55,33.7,33.7,0,0,1,8.84-6.73,26,26,0,0,1,10.35-3l8.63-.62a21,21,0,0,1,9.82,1.54,20.31,20.31,0,0,1,7.62,5.56,23.33,23.33,0,0,1,4.6,8.76,28.47,28.47,0,0,1,.88,11,29.14,29.14,0,0,1-1.51,6.82,30.94,30.94,0,0,1-3,6,48.07,48.07,0,0,1-4.41,5.88q-2.58,3-5.86,6.32l-25.53,25.29,18-1.28Zm5.88,17.62-41.44,3,.44-4.24,37-36.68q3.13-3.07,5.29-5.53a35.87,35.87,0,0,0,3.48-4.59,18.52,18.52,0,0,0,2-4.14,21.85,21.85,0,0,0,.88-4.34,20.07,20.07,0,0,0-.61-7.69,16.31,16.31,0,0,0-3.22-6.15,14.18,14.18,0,0,0-5.35-3.89,14.75,14.75,0,0,0-6.87-1.07l-8.63.62a19.07,19.07,0,0,0-10.2,3.85,25.18,25.18,0,0,0-7.41,8.8l2-.14a22.21,22.21,0,0,1,6.65-7.39,17.22,17.22,0,0,1,8.78-3.2l8.63-.62a13.24,13.24,0,0,1,6.2,1,12.87,12.87,0,0,1,4.84,3.52,14.83,14.83,0,0,1,2.91,5.56,18,18,0,0,1,.56,6.95,18.51,18.51,0,0,1-.84,3.93,16.93,16.93,0,0,1-1.87,3.79,38.14,38.14,0,0,1-3.26,4.23q-2,2.31-5,5.24l-37.55,37.27-.73,7L265,473l1.2-11.48-1.73.12Z"/><path class="cls-3" d="M308.57,459.44l-11.62,29.31-18.25,1.3,11.62-29.31Zm-11.75,9.38L295,469l-4.65,11.73,1.85-.13Z"/><path class="cls-3" d="M358,380a21,21,0,0,1,9.82,1.54,20.3,20.3,0,0,1,7.62,5.56,23.33,23.33,0,0,1,4.6,8.76,28.47,28.47,0,0,1,.88,11l-4,38.26a34,34,0,0,1-3.2,11.35,37.23,37.23,0,0,1-6.5,9.48,33.48,33.48,0,0,1-8.91,6.74,26.14,26.14,0,0,1-10.29,3l-8.63.62a20.86,20.86,0,0,1-9.88-1.53,20.45,20.45,0,0,1-7.56-5.56,23.45,23.45,0,0,1-4.6-8.69,28.32,28.32,0,0,1-.87-11.06l4-38.26a34.21,34.21,0,0,1,3.2-11.28,37,37,0,0,1,6.5-9.55,33.72,33.72,0,0,1,8.84-6.73,26,26,0,0,1,10.35-3Zm15.14,27.41a20.11,20.11,0,0,0-.61-7.69,16.31,16.31,0,0,0-3.22-6.15,14.18,14.18,0,0,0-5.35-3.89,14.75,14.75,0,0,0-6.87-1.07l-8.63.62a18.38,18.38,0,0,0-7.19,2.07A23.28,23.28,0,0,0,335,396a25.72,25.72,0,0,0-4.55,6.7,24,24,0,0,0-2.23,7.89l-4,38.26a20,20,0,0,0,.61,7.69,16.22,16.22,0,0,0,3.22,6.15,14.1,14.1,0,0,0,5.35,3.89,14.72,14.72,0,0,0,6.87,1.07l8.63-.62a18.35,18.35,0,0,0,7.2-2.07,23.27,23.27,0,0,0,6.25-4.72,25.85,25.85,0,0,0,4.55-6.7,24.13,24.13,0,0,0,2.23-7.89Zm-16.24-16.88a13.24,13.24,0,0,1,6.2,1,12.87,12.87,0,0,1,4.84,3.52,14.84,14.84,0,0,1,2.91,5.56,18,18,0,0,1,.56,6.95l-4,38.26a21.66,21.66,0,0,1-2,7.13,23.46,23.46,0,0,1-4.12,6.06,21.17,21.17,0,0,1-5.65,4.27,16.54,16.54,0,0,1-6.5,1.89l-8.63.62a13.25,13.25,0,0,1-6.2-1,12.86,12.86,0,0,1-4.84-3.52,14.77,14.77,0,0,1-2.91-5.56,18,18,0,0,1-.56-6.95l4-38.26a21.59,21.59,0,0,1,2-7.13,23.47,23.47,0,0,1,4.12-6.06,21.15,21.15,0,0,1,5.65-4.27,16.52,16.52,0,0,1,6.5-1.89ZM363.63,408a8.37,8.37,0,0,0-1.83-6.58,6.62,6.62,0,0,0-5.81-2.37l-8.63.62a9.6,9.6,0,0,0-6.4,3.24,11.62,11.62,0,0,0-3.23,6.94l-4,38.26a8.36,8.36,0,0,0,1.82,6.58,6.61,6.61,0,0,0,5.81,2.37l8.63-.62a9.6,9.6,0,0,0,6.4-3.24,11.63,11.63,0,0,0,3.23-6.95Z"/><path class="cls-3" d="M425.33,375.16a21,21,0,0,1,9.82,1.54,20.31,20.31,0,0,1,7.62,5.56,23.33,23.33,0,0,1,4.6,8.76,28.47,28.47,0,0,1,.88,11l-4,38.26a34,34,0,0,1-3.2,11.35,37.21,37.21,0,0,1-6.5,9.48,33.46,33.46,0,0,1-8.91,6.74,26.14,26.14,0,0,1-10.29,3l-8.63.62a20.86,20.86,0,0,1-9.88-1.53,20.45,20.45,0,0,1-7.56-5.56,23.46,23.46,0,0,1-4.6-8.69,28.32,28.32,0,0,1-.87-11.06l4-38.26A34.21,34.21,0,0,1,391,395a37,37,0,0,1,6.5-9.55,33.72,33.72,0,0,1,8.84-6.73,26,26,0,0,1,10.35-3Zm15.14,27.41a20.09,20.09,0,0,0-.61-7.69,16.32,16.32,0,0,0-3.22-6.15,14.18,14.18,0,0,0-5.35-3.89,14.75,14.75,0,0,0-6.87-1.07l-8.63.62a18.37,18.37,0,0,0-7.19,2.07,23.28,23.28,0,0,0-6.25,4.72,25.72,25.72,0,0,0-4.55,6.7,24,24,0,0,0-2.23,7.89l-4,38.26a20,20,0,0,0,.61,7.69,16.22,16.22,0,0,0,3.22,6.15,14.1,14.1,0,0,0,5.35,3.89,14.72,14.72,0,0,0,6.87,1.07l8.63-.62a18.35,18.35,0,0,0,7.2-2.07,23.27,23.27,0,0,0,6.25-4.72,25.84,25.84,0,0,0,4.55-6.7,24.1,24.1,0,0,0,2.23-7.89Zm-16.24-16.88a13.23,13.23,0,0,1,6.2,1,12.87,12.87,0,0,1,4.84,3.52,14.83,14.83,0,0,1,2.91,5.56,18,18,0,0,1,.56,6.95l-4,38.26a21.65,21.65,0,0,1-2,7.13,23.45,23.45,0,0,1-4.12,6.06,21.17,21.17,0,0,1-5.65,4.27,16.54,16.54,0,0,1-6.5,1.89l-8.63.62a13.25,13.25,0,0,1-6.2-1,12.87,12.87,0,0,1-4.84-3.52,14.77,14.77,0,0,1-2.91-5.56,18,18,0,0,1-.56-6.95l4-38.26a21.59,21.59,0,0,1,2-7.13,23.44,23.44,0,0,1,4.12-6.06,21.16,21.16,0,0,1,5.65-4.27,16.53,16.53,0,0,1,6.5-1.89ZM431,403.25a8.37,8.37,0,0,0-1.82-6.58,6.62,6.62,0,0,0-5.81-2.37l-8.63.62a9.6,9.6,0,0,0-6.4,3.24,11.62,11.62,0,0,0-3.23,6.94l-4,38.26a8.36,8.36,0,0,0,1.82,6.58,6.61,6.61,0,0,0,5.81,2.37l8.63-.62a9.6,9.6,0,0,0,6.4-3.24,11.63,11.63,0,0,0,3.23-6.95Z"/><path class="cls-3" d="M492.67,370.36a21,21,0,0,1,9.82,1.54,20.32,20.32,0,0,1,7.62,5.56,23.33,23.33,0,0,1,4.6,8.76,28.47,28.47,0,0,1,.88,11l-4,38.26a34,34,0,0,1-3.2,11.35,37.21,37.21,0,0,1-6.5,9.48,33.43,33.43,0,0,1-8.91,6.74,26.14,26.14,0,0,1-10.29,3l-8.63.62a20.86,20.86,0,0,1-9.88-1.53,20.45,20.45,0,0,1-7.56-5.56,23.48,23.48,0,0,1-4.6-8.69,28.34,28.34,0,0,1-.87-11.06l4-38.26a34.21,34.21,0,0,1,3.2-11.28,37,37,0,0,1,6.5-9.55,33.72,33.72,0,0,1,8.84-6.73A26,26,0,0,1,484,371Zm15.14,27.41a20.09,20.09,0,0,0-.61-7.69,16.31,16.31,0,0,0-3.22-6.15,14.19,14.19,0,0,0-5.35-3.89,14.77,14.77,0,0,0-6.87-1.07l-8.63.62a18.39,18.39,0,0,0-7.19,2.07,23.3,23.3,0,0,0-6.25,4.72,25.75,25.75,0,0,0-4.55,6.7,24,24,0,0,0-2.23,7.89l-4,38.26a20,20,0,0,0,.61,7.69,16.21,16.21,0,0,0,3.22,6.15,14.1,14.1,0,0,0,5.35,3.89A14.72,14.72,0,0,0,475,458l8.63-.62a18.35,18.35,0,0,0,7.2-2.07,23.27,23.27,0,0,0,6.25-4.72,25.81,25.81,0,0,0,4.55-6.7,24.1,24.1,0,0,0,2.23-7.89Zm-16.24-16.88a13.24,13.24,0,0,1,6.2,1,12.87,12.87,0,0,1,4.84,3.52,14.84,14.84,0,0,1,2.91,5.56,18,18,0,0,1,.56,6.95l-4,38.26a21.65,21.65,0,0,1-2,7.13,23.49,23.49,0,0,1-4.12,6.06,21.17,21.17,0,0,1-5.65,4.27,16.52,16.52,0,0,1-6.5,1.89l-8.63.62a13.24,13.24,0,0,1-6.2-1,12.87,12.87,0,0,1-4.84-3.52,14.79,14.79,0,0,1-2.91-5.56,18,18,0,0,1-.56-6.95l4-38.26a21.6,21.6,0,0,1,2-7.13,23.46,23.46,0,0,1,4.12-6.06,21.17,21.17,0,0,1,5.65-4.27,16.52,16.52,0,0,1,6.5-1.89Zm6.74,17.56a8.38,8.38,0,0,0-1.82-6.58,6.62,6.62,0,0,0-5.81-2.37l-8.63.62a9.6,9.6,0,0,0-6.4,3.24,11.63,11.63,0,0,0-3.23,6.95l-4,38.26a8.36,8.36,0,0,0,1.82,6.58,6.61,6.61,0,0,0,5.81,2.37l8.63-.62a9.6,9.6,0,0,0,6.4-3.24,11.63,11.63,0,0,0,3.23-6.95Z"/><path class="cls-3" d="M602.33,362.55a27.88,27.88,0,0,1,13.13,2A27.2,27.2,0,0,1,625.58,372a31.22,31.22,0,0,1,6.13,11.64,37.92,37.92,0,0,1,1.16,14.7l-2,19.13a45.51,45.51,0,0,1-4.27,15.09A49.51,49.51,0,0,1,618,445.26a44.72,44.72,0,0,1-11.83,9,34.73,34.73,0,0,1-13.76,4l-34.54,2.46,2-19.13,8.63-.62,6-57.4-8.63.62,2-19.13Zm22.78,36.36a29.48,29.48,0,0,0-.89-11.4,24.16,24.16,0,0,0-4.75-9,21.06,21.06,0,0,0-7.85-5.75,21.67,21.67,0,0,0-10.18-1.58l-26.77,1.91-.2,1.91,8.63-.62L575.33,449l-8.63.62-.2,1.91,26.77-1.91a27,27,0,0,0,10.67-3.07,34.59,34.59,0,0,0,9.17-7,38.34,38.34,0,0,0,6.72-9.84,35.36,35.36,0,0,0,3.3-11.7Zm-23.88-25.83a20.17,20.17,0,0,1,9.51,1.49,19.78,19.78,0,0,1,7.34,5.38,22.71,22.71,0,0,1,4.45,8.43,27.45,27.45,0,0,1,.85,10.66l-2,19.13a32.93,32.93,0,0,1-3.1,10.94,36,36,0,0,1-6.28,9.2,32.51,32.51,0,0,1-8.58,6.51,25.11,25.11,0,0,1-10,2.88l-16.41,1.17,7.77-74.62Zm14.38,26.51a19,19,0,0,0-.58-7.35,15.63,15.63,0,0,0-3.07-5.82,13.62,13.62,0,0,0-5.06-3.71,14,14,0,0,0-6.57-1l-8.63.62-6,57.4,8.63-.62a17.35,17.35,0,0,0,6.88-2,22.37,22.37,0,0,0,5.92-4.49,24.8,24.8,0,0,0,4.33-6.34,22.74,22.74,0,0,0,2.13-7.54Z"/><path class="cls-3" d="M684,385.22l1-9.57-17.27,1.23-2,19.13L683,394.79l-2,19.13-17.27,1.23-2,19.13L679,433l1-9.57,17.27-1.23-3,28.7-60.44,4.31,2-19.13,8.63-.62,6-57.4-8.63.62,2-19.13,60.44-4.31-3,28.7Zm9.66-18.73-1,9.57,1.73-.12,1.2-11.48-44.9,3.2-.2,1.91,8.63-.62-7.77,74.62-8.63.62-.2,1.91,44.9-3.2,1.2-11.48-1.73.12-1,9.57L653,443.44l3.79-36.35,17.27-1.23.2-1.91L657,405.18l3.79-36.35Z"/><path class="cls-3" d="M780.23,425.83l8.39-.6-2,19.13-34.54,2.46,2-19.13,8.14-.58-1.59-9.38L734,419.63l-3.59,9.75,8.14-.58-2,19.13L702,450.4l2-19.13,8.39-.6,28.69-78,26.4-1.88Zm-34.37-65-28.69,78-6.29.45-.2,1.91,19-1.35.2-1.91-10.85.77,10.07-27.3,38.24-2.72L771.81,435l-10.85.77-.2,1.91,19-1.35.2-1.91-6.41.46L760.79,359.8Zm1.16,1.82,12.33-.88,7.68,45-37.25,2.65ZM757.44,399l-4.78-28.14-.74.05-10.76,29.25Z"/><path class="cls-3" d="M858.63,344.29l-3,28.7-17.27,1.23,1-9.57-8.63.62-6,57.4,8.63-.62-2,19.13-34.54,2.46,2-19.13,8.63-.62,6-57.4-8.63.62-1,9.57-17.27,1.23,3-28.7ZM850,353.45l-53.53,3.81-1.2,11.48,1.73-.12,1-9.57,24.18-1.72-7.77,74.62-8.63.62-.2,1.91,19-1.35.2-1.91-8.63.62,7.77-74.62L848,355.49l-1,9.57,1.73-.12Z"/><path class="cls-3" d="M932.5,358l-6,57.4,8.63-.62-2,19.13-34.54,2.46,2-19.13,8.63-.62,2-19.13-25,1.78-2,19.13,8.63-.62-2,19.13-34.54,2.46,2-19.13,8.63-.62,6-57.4-8.63.62,2-19.13,34.54-2.46-2,19.13-8.63.62-2,19.13,25-1.78,2-19.13-8.63.62,2-19.13,34.54-2.46-2,19.13Zm1.76-8.67.2-1.91-19,1.35-.2,1.91,8.63-.62-3.79,36.35-40.58,2.89L883.31,353l8.63-.62.2-1.91-19,1.35-.2,1.91,8.63-.62-7.77,74.62-8.63.62-.2,1.91,19-1.35.2-1.91-8.63.62,3.79-36.35,40.58-2.89-3.79,36.35-8.63.62-.2,1.91,19-1.35.2-1.91-8.63.62L925.62,350Z"/><path class="cls-3" d="M980.43,373.86q10.55,1,16.48,4.59a26,26,0,0,1,8.77,8.06,20.55,20.55,0,0,1,3.29,9,37.88,37.88,0,0,1,.15,7.38,29.64,29.64,0,0,1-3.27,10.81,32.9,32.9,0,0,1-6.8,8.89,35.25,35.25,0,0,1-9.46,6.24,33,33,0,0,1-11.38,2.85,38.8,38.8,0,0,1-11.14-.63,32,32,0,0,1-8.55-3.12l-.44,4.24-17.27,1.23,3-28.7,17.27-1.23a33.62,33.62,0,0,0,3.89,4.4,18.89,18.89,0,0,0,4.1,3,15.26,15.26,0,0,0,4.86,1.55,28.43,28.43,0,0,0,6.29.16,15.13,15.13,0,0,0,8-2.74,8,8,0,0,0,3.65-5.69,7.25,7.25,0,0,0-1.07-5,10.49,10.49,0,0,0-3.7-3.26,20.46,20.46,0,0,0-5.31-1.93,57.39,57.39,0,0,0-5.89-1q-10.18-1-16.08-4.28a25.8,25.8,0,0,1-8.84-7.37,19.46,19.46,0,0,1-3.57-8.63,33.34,33.34,0,0,1-.26-8.05,31,31,0,0,1,3.3-11.09,34.68,34.68,0,0,1,6.9-9.24,35.45,35.45,0,0,1,9.49-6.51,31.37,31.37,0,0,1,11.2-2.9,39.45,39.45,0,0,1,10.84.52,28,28,0,0,1,8.13,3l.41-4,17.27-1.23-3,28.7-17.39,1.24a46.48,46.48,0,0,0-3.59-4.29,15.32,15.32,0,0,0-8.52-4.62A24.09,24.09,0,0,0,976,354a12.86,12.86,0,0,0-8.18,3.3,9.89,9.89,0,0,0-3.45,6.08Q963.49,371.95,980.43,373.86Zm14.18,42.53a28.49,28.49,0,0,0,4.14-5.11,17.33,17.33,0,0,0,2.59-7.85,23.08,23.08,0,0,0-.24-5.88,14,14,0,0,0-2.89-6.37,20.9,20.9,0,0,0-7.08-5.53q-4.7-2.44-12.83-3.22-23.38-2.4-21.7-18.53a18.61,18.61,0,0,1,1.88-6.31,21.4,21.4,0,0,1,4.21-5.79,23.27,23.27,0,0,1,6.27-4.38,21.5,21.5,0,0,1,7.93-2.06q7.89-.56,12.79,1.8a26.29,26.29,0,0,1,8.81,7.1l6.29-.45,1.2-11.48-1.73.12-1,9.57-3.82.27a21.65,21.65,0,0,0-6.45-5.64,26.09,26.09,0,0,0-7.6-2.85,30.43,30.43,0,0,0-8.29-.36,23,23,0,0,0-8.11,2.07,27.58,27.58,0,0,0-6.83,4.49,22.69,22.69,0,0,0-4.94,6.32,20.86,20.86,0,0,0-2.33,7.69,16,16,0,0,0,1.36,9.26,16.73,16.73,0,0,0,5.31,6,23.69,23.69,0,0,0,7.72,3.45,53.64,53.64,0,0,0,8.6,1.49,37.11,37.11,0,0,1,12.12,3,18.37,18.37,0,0,1,6.69,5.08,13.21,13.21,0,0,1,2.69,5.91,20.66,20.66,0,0,1,.24,5.34,17.23,17.23,0,0,1-2.1,6.66,19.57,19.57,0,0,1-4.42,5.4,23.33,23.33,0,0,1-6.21,3.77,24,24,0,0,1-7.59,1.76q-8.26.59-13.28-1.77a28.26,28.26,0,0,1-9.18-7.08l-6.17.44-1.2,11.48,1.73-.12,1-9.57,3.95-.28a27.12,27.12,0,0,0,4.49,4.5,18.92,18.92,0,0,0,5.09,2.83,26,26,0,0,0,6,1.4,39.71,39.71,0,0,0,7.34.09,25.79,25.79,0,0,0,8.41-2A24.27,24.27,0,0,0,994.61,416.39Z"/></g></g></g></g></svg>