<svg id="Layer_1" data-name="Layer 1" xmlns="http://www.w3.org/2000/svg" viewBox="0 0 165.79 401.67"><defs><style>.cls-1{opacity:0.5;}.cls-2{fill:#fff;}</style></defs><title>title</title><g class="cls-1"><path d="M64.34,89.83l-2.9.9L61,112.53l-9.1,1.7,0.3-20.9q-5.4,1.65-10.8,3c-1.5,9.2-1.7,18.5-.7,23.8,0.6,3.2,1.4,2.8,1.6,3.4-4.4.6-8.6,1.3-9.9-5.4-0.8-4.2,0-11.9,2.3-20.2l-3.2.6c-8,1.6-12-.9-12.5-3.6-1-5.1,6.8-7.2,9.8-7.8a30.32,30.32,0,0,1,9.5-.3c4.5-11.3,10.9-21.4,18.3-22.8a15.13,15.13,0,0,1,5.2,0l-0.5,24.3,2.8-.9,0.2,2.4h0Zm-32.7-1.1c-4.9,1-7.7,2.7-7.3,4.7,0.3,1.8,3.3,3,8.8,2l2.5-.5,2.1-6.3a20.8,20.8,0,0,0-6.1.1h0ZM42,93.63c3-.7,6-1.4,9-2.2-2.7-.8-5.4-1.5-8.2-2.1Zm9.6-3.1,0.7,0.3,0.4-21.4c-4.1,2.8-7.3,10.2-9.4,18.5,2.6,0.7,5.3,1.6,8.3,2.6h0Z" transform="translate(-11.96 -11.73)"/><path d="M83.94,68.73a8.81,8.81,0,0,0-.2-1.7,2.26,2.26,0,0,0-2.6-1.8l-0.2.1c-1.4.3-3.4,1.6-3.4,6.1l-0.1,5.2,4.6-.9v2.6l-4.7.9-0.6,35.6c-0.2,9.4-5.1,12.2-9.2,13-3.9.8-8-1.3-8.8-5.4-1.1-5.8,3.4-8.6,9-11.6l0.6-37.7c0.1-9.4,5.2-12.2,9.4-13,3.9-.8,8,1.3,8.8,5.4a11.53,11.53,0,0,1,.3,2.6Zm-19,53.7c1.3-.3,2.6-1.7,2.7-5.6l0.1-3.8c-3.7,2.1-6.4,4.4-5.7,7.9a2.82,2.82,0,0,0,2.9,1.5h0Z" transform="translate(-11.96 -11.73)"/><path d="M94.54,73.23l-0.1,3.3c1.9-2.2,4.2-4.1,6.8-4.6,2.8-.6,4.9.8,5.3,3.2a4.93,4.93,0,0,1-3.8,5.9c-3.5.7-2.6-3.8-4.5-3.5s-2.8,1.3-4,2.9l-0.3,25.7-9.1,1.8,0.6-33Z" transform="translate(-11.96 -11.73)"/><path d="M113.94,55.53a5.25,5.25,0,0,1,5.9,4.3,5.13,5.13,0,0,1-3.9,5.8h0a5.1,5.1,0,0,1-6-3.9h0v-0.1a5,5,0,0,1,4-6.1h0Zm5.5,12.8L119,90.73a13.4,13.4,0,0,0,.1,2c0.3,1.4,1.1,2.3,3.6,1.8s5.1-4.7,7.3-7.2l2.1-.4c-2.4,3.5-7.9,13.3-12.8,14.2s-8.3-.6-9.2-5.4a12.22,12.22,0,0,1-.2-3.3l0.4-22.4Z" transform="translate(-11.96 -11.73)"/><path d="M141.34,68.83a1.93,1.93,0,0,0-2.1-1.8c-0.2,0-.4.1-0.6,0.1-5.3,1-6.7,12-5.4,18.8,0.7,3.7,2.1,6.6,5.9,5.9,4.5-.9,7.6-4.2,9.9-8.1l2.1-.4c-2.4,4-4.2,12.6-15.5,14.8-5.2,1-9.2-1.2-10.7-8.7-1.8-9.2-.2-22.2,12.1-24.6,3.4-.7,7.1-0.5,7.8,3a7.94,7.94,0,0,1,.1,2.2,3.22,3.22,0,0,0-1.7-.1,7,7,0,0,0-2,.8A4.15,4.15,0,0,0,141.34,68.83Z" transform="translate(-11.96 -11.73)"/><path d="M173.24,80.33a8.13,8.13,0,0,0,.1,2.2,2.12,2.12,0,0,0,2.2,2,1.27,1.27,0,0,0,.6-0.1,7.5,7.5,0,0,0,1.6-.5c-0.7,5.8-3.3,6.7-5.4,7.1-3.7.7-6-.8-7.2-3.6-1.4,3-3.7,6.1-7.6,6.9-6.1,1.2-8.7-2.8-9.4-6.5-2.1-10.9-.7-24.7,11.9-27.2a6.71,6.71,0,0,1,4.6.8l0.1-1.7,9.1-1.8Zm-8.8-15.7a4.27,4.27,0,0,0-3.3-.5c-4.8.9-6.6,11.7-4.9,20.3,0.7,3.8,3,4.1,4.5,3.8s2.6-2,3.5-4a14.77,14.77,0,0,1-.1-2.1Z" transform="translate(-11.96 -11.73)"/></g><path class="cls-2" d="M57.34,82.83l-2.9.9L54,105.53l-9.1,1.7,0.3-20.9q-5.4,1.65-10.8,3c-1.5,9.2-1.7,18.5-.7,23.8,0.6,3.2,1.4,2.8,1.6,3.4-4.4.6-8.6,1.3-9.9-5.4-0.8-4.2,0-11.9,2.3-20.2l-3.2.6c-8,1.6-12-.9-12.5-3.6-1-5.1,6.8-7.2,9.8-7.8a30.32,30.32,0,0,1,9.5-.3c4.5-11.3,10.9-21.4,18.3-22.8a15.13,15.13,0,0,1,5.2,0l-0.5,24.3,2.8-.9,0.2,2.4h0Zm-32.7-1.1c-4.9,1-7.7,2.7-7.3,4.7,0.3,1.8,3.3,3,8.8,2l2.5-.5,2.1-6.3a20.8,20.8,0,0,0-6.1.1h0ZM35,86.63c3-.7,6-1.4,9-2.2-2.7-.8-5.4-1.5-8.2-2.1Zm9.6-3.1,0.7,0.3,0.4-21.4c-4.1,2.8-7.3,10.2-9.4,18.5,2.6,0.7,5.3,1.6,8.3,2.6h0Z" transform="translate(-11.96 -11.73)"/><path class="cls-2" d="M76.94,61.73a8.81,8.81,0,0,0-.2-1.7,2.26,2.26,0,0,0-2.6-1.8l-0.2.1c-1.4.3-3.4,1.6-3.4,6.1l-0.1,5.2,4.6-.9v2.6l-4.7.9-0.6,35.6c-0.2,9.4-5.1,12.2-9.2,13-3.9.8-8-1.3-8.8-5.4-1.1-5.8,3.4-8.6,9-11.6l0.6-37.7c0.1-9.4,5.2-12.2,9.4-13,3.9-.8,8,1.3,8.8,5.4a11.53,11.53,0,0,1,.3,2.6Zm-19,53.7c1.3-.3,2.5-1.7,2.7-5.6l0.1-3.8c-3.7,2.1-6.4,4.4-5.7,7.9a2.82,2.82,0,0,0,2.9,1.5h0Z" transform="translate(-11.96 -11.73)"/><path class="cls-2" d="M87.54,66.23l-0.1,3.3c1.9-2.2,4.2-4.1,6.8-4.6,2.8-.6,4.9.8,5.3,3.2a4.93,4.93,0,0,1-3.8,5.9c-3.5.7-2.6-3.8-4.5-3.5s-2.8,1.3-4,2.9l-0.3,25.7-9.1,1.8,0.6-33Z" transform="translate(-11.96 -11.73)"/><path class="cls-2" d="M106.94,48.53a5.25,5.25,0,0,1,5.9,4.3,5.13,5.13,0,0,1-3.9,5.8h0a5.1,5.1,0,0,1-6-3.9h0v-0.1a5,5,0,0,1,4-6.1h0Zm5.5,12.8L112,83.73a13.4,13.4,0,0,0,.1,2c0.3,1.4,1.1,2.3,3.6,1.8s5.1-4.7,7.3-7.2l2.2-.4c-2.3,3.5-7.9,13.3-12.8,14.2s-8.3-.6-9.2-5.4a12.22,12.22,0,0,1-.2-3.3l0.4-22.4Z" transform="translate(-11.96 -11.73)"/><path class="cls-2" d="M134.34,61.83a1.93,1.93,0,0,0-2.1-1.8c-0.2,0-.4.1-0.6,0.1-5.3,1-6.7,12-5.4,18.8,0.7,3.7,2.1,6.6,5.9,5.9,4.5-.9,7.6-4.2,9.9-8.1l2.1-.4c-2.4,4-4.2,12.6-15.5,14.8-5.2,1-9.2-1.2-10.7-8.7-1.8-9.2-.2-22.2,12.1-24.6,3.4-.7,7.1-0.5,7.8,3a7.94,7.94,0,0,1,.1,2.2,3.22,3.22,0,0,0-1.7-.1,7,7,0,0,0-2,.8A4.15,4.15,0,0,0,134.34,61.83Z" transform="translate(-11.96 -11.73)"/><path class="cls-2" d="M166.24,73.33a8.13,8.13,0,0,0,.1,2.2,2.12,2.12,0,0,0,2.2,2,1.27,1.27,0,0,0,.6-0.1,7.5,7.5,0,0,0,1.6-.5c-0.7,5.8-3.3,6.7-5.4,7.1-3.7.7-6-.8-7.2-3.6-1.4,3-3.7,6.1-7.6,6.9-6.1,1.2-8.7-2.8-9.4-6.5-2.1-10.9-.7-24.7,11.9-27.2a6.71,6.71,0,0,1,4.6.8l0.1-1.7,9.1-1.8Zm-8.8-15.7a4.27,4.27,0,0,0-3.3-.5c-4.8.9-6.6,11.7-4.9,20.3,0.7,3.8,3,4.1,4.5,3.8s2.6-2,3.5-4a14.77,14.77,0,0,1-.1-2.1Z" transform="translate(-11.96 -11.73)"/><g class="cls-1"><path d="M53.14,41.23a6.75,6.75,0,0,0-.2,1.4,1.51,1.51,0,0,0,1.1,1.6h0.4c1.5,0,3.1-2.2,4-3.9h1.8c-1.8,2.1-5.2,7-8.2,7s-4.7-1.3-4.7-4.2a11.08,11.08,0,0,1,.2-1.9l1.5-6.9a3.4,3.4,0,0,0,.1-1c0-1.4-.7-2.2-1.8-2.2a3.41,3.41,0,0,0-2.2.7,5.85,5.85,0,0,1,.2,1.3,2.2,2.2,0,0,1-.1.8l-2.8,13.4h-5.5l2.7-13a3.4,3.4,0,0,0,.1-1c0-1.4-.7-2.2-1.8-2.2a3.78,3.78,0,0,0-2.3.8l-3.3,15.4h-5.5l4-19.1h5.5l-0.4,2a9.67,9.67,0,0,1,4.9-2,4.81,4.81,0,0,1,3.8,2.5c1.7-1.3,3.7-2.5,5.6-2.5a4.87,4.87,0,0,1,4.4,4.8,2.77,2.77,0,0,1-.1.9Z" transform="translate(-11.96 -11.73)"/><path d="M75.14,28.33l-2.7,13c-0.1.4-.1,0.8-0.2,1.2,0,0.8.4,1.4,1.9,1.4s3.5-2.1,5-3.3h1.3c-1.8,1.8-6.1,6.8-9,6.8-2.6,0-4.3-1-4.7-3.2-1.8,1.7-3.8,3.2-5.5,3.2-2.9,0-4.8-1.3-4.8-4.2a11.08,11.08,0,0,1,.2-1.9l2.7-13h5.5l-2.7,13c-0.1.4-.1,0.8-0.2,1.2,0,0.8.4,1.4,1.9,1.4a4.72,4.72,0,0,0,2.7-1.4,6.88,6.88,0,0,1,.2-1.3l2.7-13,5.7,0.1h0Z" transform="translate(-11.96 -11.73)"/><path d="M88.14,30.93a1.11,1.11,0,0,0-1.1-1.3h-0.3c-3.2,0-5.3,6.2-5.3,10.3,0,2.2.5,4.1,2.8,4.1,2.7,0,4.9-1.6,6.6-3.6h1.3c-1.8,2.1-3.9,6.8-10.6,6.8-3.2,0-5.2-1.8-5.2-6.2,0-5.6,2.4-12.9,9.8-12.9,2.1,0,4.2.5,4.2,2.6a5.85,5.85,0,0,1-.2,1.3,1.23,1.23,0,0,0-1-.2,5,5,0,0,0-1.2.2A3.6,3.6,0,0,0,88.14,30.93Z" transform="translate(-11.96 -11.73)"/><path d="M103.94,47.33c-2.7,0-3.9-1.8-3.9-4.2a12.25,12.25,0,0,1,.2-1.9l1.4-6.9c0-.3.1-0.6,0.1-0.9,0-1.2-.5-2.4-1.7-2.4a4.07,4.07,0,0,0-2.4.8l-3.3,15.4h-5.4l5.5-25.9,5.6-.8-2.1,9.7a9.31,9.31,0,0,1,5-2.1c2.1,0,4.4,2.3,4.4,4.8a2,2,0,0,1-.1.8l-1.6,7.3a4.15,4.15,0,0,0-.3,1.6c0,0.7.3,1.1,1.4,1.1a3.4,3.4,0,0,0,1-.1C106.84,47.13,105.24,47.33,103.94,47.33Z" transform="translate(-11.96 -11.73)"/><path d="M131.74,33.43a1.13,1.13,0,0,0,1.1.3c1.8,0,2.6-1.3,4-1.9l0.1,0.8a10.49,10.49,0,0,1-5.4,3.3c-0.7,7.7-4.9,11.4-8.7,11.4-4.1,0-5.8-1.7-5.8-6.2,0-9.4,4.8-13.4,10-13.4C130.74,27.93,131.74,30.73,131.74,33.43Zm-2.9,3a1.5,1.5,0,0,1-1.6-1.5v-0.2a2.71,2.71,0,0,1,1.7-2.6c-0.1-1.3-.5-2-1.6-2-3.6,0-5.1,7.8-5.1,10.8,0,2.3,1.1,2.9,2.6,2.9,2.2,0,3.5-3.6,4-7.4h0Z" transform="translate(-11.96 -11.73)"/><path d="M146.34,24.43c0-.3.1-0.7,0.1-1a1.32,1.32,0,0,0-1.3-1.3h-0.2c-0.8,0-2.1.6-2.7,3.1l-0.6,3h2.8l-0.3,1.5h-2.8l-4.4,20.6c-1.2,5.4-4.3,6.5-6.8,6.5a4.26,4.26,0,0,1-4.5-4h0v-0.1c0-3.5,2.9-4.6,6.6-5.7l4.6-21.8c1.1-5.4,4.4-6.5,6.9-6.5a4.26,4.26,0,0,1,4.5,4h0v0.1a9.15,9.15,0,0,1-.1,1.6h-1.8Zm-17.1,29c0.8,0,1.7-.7,2.2-3l0.5-2.2c-2.4.8-4.2,1.9-4.2,3.9A1.5,1.5,0,0,0,129.24,53.43Z" transform="translate(-11.96 -11.73)"/></g><path class="cls-2" d="M46.14,34.23a6.75,6.75,0,0,0-.2,1.4,1.51,1.51,0,0,0,1.1,1.6h0.4c1.5,0,3.1-2.2,4-3.9h1.8c-1.8,2.1-5.2,7-8.2,7s-4.7-1.3-4.7-4.2a11.08,11.08,0,0,1,.2-1.9l1.5-6.9a3.4,3.4,0,0,0,.1-1c0-1.4-.7-2.2-1.8-2.2a3.41,3.41,0,0,0-2.2.7,5.85,5.85,0,0,1,.2,1.3,2.2,2.2,0,0,1-.1.8l-2.8,13.4h-5.5l2.7-13a3.4,3.4,0,0,0,.1-1c0-1.4-.7-2.2-1.8-2.2a3.78,3.78,0,0,0-2.3.8l-3.3,15.4h-5.5l4-19.1h5.5l-0.4,2a9.67,9.67,0,0,1,4.9-2,4.81,4.81,0,0,1,3.8,2.5c1.7-1.3,3.7-2.5,5.6-2.5a4.87,4.87,0,0,1,4.4,4.8,2.77,2.77,0,0,1-.1.9Z" transform="translate(-11.96 -11.73)"/><path class="cls-2" d="M68.14,21.33l-2.7,13c-0.1.4-.1,0.8-0.2,1.2,0,0.8.4,1.4,1.9,1.4s3.5-2.1,5-3.3h1.3c-1.8,1.8-6.1,6.8-9,6.8-2.6,0-4.3-1-4.7-3.2-1.8,1.7-3.8,3.2-5.5,3.2-2.9,0-4.8-1.3-4.8-4.2a11.08,11.08,0,0,1,.2-1.9l2.7-13h5.5l-2.7,13c-0.1.4-.1,0.8-0.2,1.2,0,0.8.4,1.4,1.9,1.4a4.72,4.72,0,0,0,2.7-1.4,6.88,6.88,0,0,1,.2-1.3l2.7-13,5.7,0.1h0Z" transform="translate(-11.96 -11.73)"/><path class="cls-2" d="M81.14,23.93a1.11,1.11,0,0,0-1.1-1.3h-0.3c-3.2,0-5.3,6.2-5.3,10.3,0,2.2.5,4.1,2.8,4.1,2.7,0,4.9-1.6,6.6-3.6h1.3c-1.8,2.1-3.9,6.8-10.6,6.8-3.2,0-5.2-1.8-5.2-6.2,0-5.6,2.4-12.9,9.8-12.9,2.1,0,4.2.5,4.2,2.6a5.85,5.85,0,0,1-.2,1.3,1.23,1.23,0,0,0-1-.2,5,5,0,0,0-1.2.2A3.6,3.6,0,0,0,81.14,23.93Z" transform="translate(-11.96 -11.73)"/><path class="cls-2" d="M96.94,40.33c-2.7,0-3.9-1.8-3.9-4.2a12.25,12.25,0,0,1,.2-1.9l1.4-6.9c0-.3.1-0.6,0.1-0.9,0-1.2-.5-2.4-1.7-2.4a4.07,4.07,0,0,0-2.4.8l-3.3,15.4h-5.4l5.5-25.9,5.6-.8-2.1,9.7a9.31,9.31,0,0,1,5-2.1c2.1,0,4.4,2.3,4.4,4.8a2,2,0,0,1-.1.8L98.64,34a4.15,4.15,0,0,0-.3,1.6c0,0.7.3,1.1,1.4,1.1a3.4,3.4,0,0,0,1-.1C99.84,40.13,98.24,40.33,96.94,40.33Z" transform="translate(-11.96 -11.73)"/><path class="cls-2" d="M124.74,26.43a1.13,1.13,0,0,0,1.1.3c1.8,0,2.6-1.3,4-1.9l0.2,0.8a10.49,10.49,0,0,1-5.4,3.3c-0.7,7.7-4.9,11.4-8.7,11.4-4.1,0-5.8-1.7-5.8-6.2,0-9.4,4.8-13.4,10-13.4C123.74,20.93,124.74,23.73,124.74,26.43Zm-2.9,3a1.5,1.5,0,0,1-1.6-1.5v-0.2a2.71,2.71,0,0,1,1.7-2.6c-0.1-1.3-.5-2-1.6-2-3.6,0-5.1,7.8-5.1,10.8,0,2.3,1.1,2.9,2.6,2.9,2.2,0,3.5-3.6,4-7.4h0Z" transform="translate(-11.96 -11.73)"/><path class="cls-2" d="M139.34,17.43c0-.3.1-0.7,0.1-1a1.32,1.32,0,0,0-1.3-1.3h-0.2c-0.8,0-2.1.6-2.7,3.1l-0.6,3h2.8l-0.3,1.5h-2.8l-4.4,20.6c-1.2,5.4-4.3,6.5-6.8,6.5a4.26,4.26,0,0,1-4.5-4h0v-0.1c0-3.5,2.9-4.6,6.6-5.7l4.6-21.8c1.1-5.4,4.4-6.5,6.9-6.5a4.26,4.26,0,0,1,4.5,4h0v0.1a9.15,9.15,0,0,1-.1,1.6h-1.8Zm-17.1,29c0.8,0,1.7-.7,2.2-3l0.5-2.2c-2.4.8-4.2,1.9-4.2,3.9A1.5,1.5,0,0,0,122.24,46.43Z" transform="translate(-11.96 -11.73)"/><g class="cls-1"><path d="M69.74,177.43a2.14,2.14,0,0,1-1.7-.8,3.9,3.9,0,0,0,1.7-3.3,2.46,2.46,0,0,0-2.3-2.6h-0.5a3.16,3.16,0,0,0-3.5,2.8V174c0,6,8.6,6.3,8.6,14.8,0,5.4-4,8.8-10.1,8.8-3,0-8.4-.7-8.4-6.1a5.34,5.34,0,0,1,5.1-5.5h0.5c1.7,0,2.8.6,3.1,1.9-3.1.3-4.5,1.6-4.5,4.2a3.58,3.58,0,0,0,3.5,3.7h0.3c3,0,4.2-2.6,4.2-5.4,0-7.2-8.2-8.7-8.2-14.4,0-4,4.5-7.1,9.1-7.1,2,0,6.4.3,6.4,4.6C72.94,175.83,71.74,177.43,69.74,177.43Z" transform="translate(-11.96 -11.73)"/><path d="M88.24,183.83a1.13,1.13,0,0,0,1.1.3c1.8,0,2.6-1.3,4-1.9l0.2,0.8a10.49,10.49,0,0,1-5.4,3.3c-0.7,7.7-4.9,11.4-8.7,11.4-4.1,0-5.8-1.7-5.8-6.2,0-9.4,4.8-13.4,10-13.4C87.24,178.23,88.14,181,88.24,183.83Zm-2.9,3a1.5,1.5,0,0,1-1.6-1.5v-0.2a3,3,0,0,1,1.7-2.7c-0.1-1.3-.5-2-1.6-2-3.6,0-5.1,7.8-5.1,10.8,0,2.3,1.1,2.9,2.6,2.9,2.2,0,3.5-3.6,4-7.3h0Z" transform="translate(-11.96 -11.73)"/><path d="M107.94,178.53l-2.7,13c-0.1.4-.1,0.8-0.2,1.2,0,0.8.4,1.4,1.9,1.4s3.5-2.1,5-3.3h1.3c-1.8,1.8-6.1,6.8-9,6.8-2.6,0-4.3-1-4.7-3.2-1.8,1.7-3.8,3.2-5.5,3.2-2.9,0-4.8-1.3-4.8-4.2a11.08,11.08,0,0,1,.2-1.9l2.7-13h5.5l-2.7,13c-0.1.4-.1,0.8-0.2,1.2,0,0.8.4,1.4,1.9,1.4a4.72,4.72,0,0,0,2.7-1.4,6.88,6.88,0,0,1,.2-1.3l2.7-13,5.7,0.1h0Z" transform="translate(-11.96 -11.73)"/><path d="M119.24,172.53s-0.6,2.6-1.3,6h2.3l-0.3,1.5h-2.3c-2.6,12-2.6,12.4-2.6,12.6,0,0.9.4,1.4,1.9,1.4s3.5-2.1,5-3.3h1.3c-1.8,1.8-6.1,6.8-9,6.8s-4.7-1.3-4.7-4.2c0-2,2-10.1,2.6-13.4h-1.2l0.3-1.5h1.3l1.1-5.3Z" transform="translate(-11.96 -11.73)"/><path d="M134,197.63c-2.7,0-3.9-1.8-3.9-4.2a12.25,12.25,0,0,1,.2-1.9l1.4-6.9c0-.3.1-0.6,0.1-0.9,0-1.2-.5-2.4-1.7-2.4a4.07,4.07,0,0,0-2.4.8l-3.3,15.4h-5.5l5.5-25.9,5.6-.8-2.1,9.7a9.31,9.31,0,0,1,5-2.1c2.1,0,4.4,2.3,4.4,4.8a2,2,0,0,1-.1.8l-1.6,7.3a4.15,4.15,0,0,0-.3,1.6c0,0.7.3,1.1,1.4,1.1a3.4,3.4,0,0,0,1-.1C136.94,197.43,135.34,197.63,134,197.63Z" transform="translate(-11.96 -11.73)"/></g><path class="cls-2" d="M62.74,170.43a2.14,2.14,0,0,1-1.7-.8,3.9,3.9,0,0,0,1.7-3.3,2.46,2.46,0,0,0-2.3-2.6h-0.5a3.16,3.16,0,0,0-3.5,2.8V167c0,6,8.6,6.3,8.6,14.8,0,5.4-4,8.8-10.1,8.8-3,0-8.4-.7-8.4-6.1a5.34,5.34,0,0,1,5.1-5.5h0.5c1.7,0,2.8.6,3.1,1.9-3.1.3-4.5,1.6-4.5,4.2a3.58,3.58,0,0,0,3.5,3.7h0.3c3,0,4.2-2.6,4.2-5.4,0-7.2-8.2-8.7-8.2-14.4,0-4,4.5-7.1,9.1-7.1,2,0,6.4.3,6.4,4.6C65.94,168.83,64.74,170.43,62.74,170.43Z" transform="translate(-11.96 -11.73)"/><path class="cls-2" d="M81.24,176.83a1.13,1.13,0,0,0,1.1.3c1.8,0,2.6-1.3,4-1.9l0.2,0.8a10.49,10.49,0,0,1-5.4,3.3c-0.7,7.7-4.9,11.4-8.7,11.4-4.1,0-5.8-1.7-5.8-6.2,0-9.4,4.8-13.4,10-13.4C80.24,171.23,81.14,174,81.24,176.83Zm-2.9,3a1.5,1.5,0,0,1-1.6-1.5v-0.2a3,3,0,0,1,1.7-2.7c-0.1-1.3-.5-2-1.6-2-3.6,0-5.1,7.8-5.1,10.8,0,2.3,1.1,2.9,2.6,2.9,2.2,0,3.5-3.6,4-7.3h0Z" transform="translate(-11.96 -11.73)"/><path class="cls-2" d="M100.94,171.53l-2.7,13c-0.1.4-.1,0.8-0.2,1.2,0,0.8.4,1.4,1.9,1.4s3.5-2.1,5-3.3h1.3c-1.8,1.8-6.1,6.8-9,6.8-2.6,0-4.3-1-4.7-3.2-1.8,1.7-3.8,3.2-5.5,3.2-2.9,0-4.8-1.3-4.8-4.2a11.08,11.08,0,0,1,.2-1.9l2.7-13h5.5l-2.7,13c-0.1.4-.1,0.8-0.2,1.2,0,0.8.4,1.4,1.9,1.4a4.72,4.72,0,0,0,2.7-1.4,6.88,6.88,0,0,1,.2-1.3l2.7-13,5.7,0.1h0Z" transform="translate(-11.96 -11.73)"/><path class="cls-2" d="M112.24,165.53s-0.6,2.6-1.3,6h2.3l-0.3,1.5h-2.3c-2.6,12-2.6,12.4-2.6,12.6,0,0.9.4,1.4,1.9,1.4s3.5-2.1,5-3.3h1.3c-1.8,1.8-6.1,6.8-9,6.8s-4.7-1.3-4.7-4.2c0-2,2-10.1,2.6-13.4h-1.2l0.3-1.5h1.3l1.1-5.3Z" transform="translate(-11.96 -11.73)"/><path class="cls-2" d="M127,190.63c-2.7,0-3.9-1.8-3.9-4.2a12.25,12.25,0,0,1,.2-1.9l1.4-6.9c0-.3.1-0.6,0.1-0.9,0-1.2-.5-2.4-1.7-2.4a4.07,4.07,0,0,0-2.4.8l-3.3,15.4h-5.5l5.5-25.9,5.6-.8-2.1,9.7a9.31,9.31,0,0,1,5-2.1c2.1,0,4.4,2.3,4.4,4.8a2,2,0,0,1-.1.8l-1.6,7.3a4.15,4.15,0,0,0-.3,1.6c0,0.7.3,1.1,1.5,1.1a3.4,3.4,0,0,0,1-.1C129.94,190.43,128.34,190.63,127,190.63Z" transform="translate(-11.96 -11.73)"/><g class="cls-1"><path d="M81.94,238l-2.9.9-0.4,21.8-9.1,1.8,0.3-20.9q-5.4,1.65-10.8,3c-1.5,9.2-1.7,18.5-.7,23.8,0.6,3.2,1.4,2.8,1.6,3.4-4.4.6-8.6,1.3-9.9-5.4-0.8-4.2,0-11.9,2.3-20.1l-3.2.6c-8,1.6-12-.9-12.5-3.6-1-5.1,6.8-7.2,9.9-7.8a30.32,30.32,0,0,1,9.5-.3c4.4-11.3,10.9-21.4,18.3-22.9a15.13,15.13,0,0,1,5.2,0l-0.4,24.4,2.8-.9V238h0Zm-32.7-1.2c-4.9,1-7.7,2.7-7.3,4.7,0.3,1.8,3.3,3,8.8,2l2.5-.5,2.1-6.3A24.92,24.92,0,0,0,49.24,236.83Zm10.4,4.9c3-.7,6-1.4,9-2.2q-4.05-1.2-8.1-2.1Zm9.6-3.1,0.7,0.3,0.4-21.4c-4.1,2.8-7.3,10.2-9.4,18.5,2.6,0.8,5.3,1.6,8.3,2.6h0Z" transform="translate(-11.96 -11.73)"/><path d="M99.24,222.53l0.2,0.9c2,10.4,6.9,12.8,8.4,20.2a5.85,5.85,0,0,1,.2,1.3,52.49,52.49,0,0,0,3.3-4.9l2.1,1.8c-1.5,1.7-3.6,4.4-5.7,7.1-1,3.8-4.1,6.9-10,8.1-7.3,1.4-11.2,0-12.4-6.2-1-5.1.7-8.4,3.2-9.1,1.5-4.6,1.8-10.5,2-15.5Zm-8.6,27a6.47,6.47,0,0,1-2.4-.1c0.7,3.7,3.1,5,6.4,4.3,2.2-.4,4.7-3.7,3.8-8.6-0.8-3.9-4.3-6.7-5.9-14.6-0.4,3.3-.5,7.5-1.3,11,1.6,0.2,2.4,1.2,2.8,3.1a4.23,4.23,0,0,1-3.4,4.9h0Z" transform="translate(-11.96 -11.73)"/><path d="M114.54,206.93a5.25,5.25,0,0,1,5.9,4.3,5.13,5.13,0,0,1-3.9,5.8h0a5.1,5.1,0,0,1-6-3.9h0V213a5.14,5.14,0,0,1,4-6.1h0Zm5.5,12.9-0.4,22.4a13.4,13.4,0,0,0,.1,2c0.3,1.4,1.1,2.3,3.6,1.8s5.1-4.7,7.3-7.2l2.1-.4c-2.4,3.5-7.9,13.3-12.8,14.2s-8.3-.6-9.2-5.4a12.22,12.22,0,0,1-.2-3.3l0.4-22.4Z" transform="translate(-11.96 -11.73)"/><path d="M152.64,235.83a8.13,8.13,0,0,0,.1,2.2,2.12,2.12,0,0,0,2.2,2,1.27,1.27,0,0,0,.6-0.1,7.5,7.5,0,0,0,1.6-.5c-0.7,5.8-3.3,6.7-5.4,7.1-3.7.7-6-.8-7.2-3.6-1.4,3-3.7,6.1-7.6,6.9-6.1,1.2-8.7-2.8-9.4-6.5-2.1-10.9-.7-24.7,11.9-27.2a6.71,6.71,0,0,1,4.6.8l0.1-1.7,9.1-1.8Zm-8.7-15.7a4.27,4.27,0,0,0-3.3-.5c-4.8.9-6.6,11.7-4.9,20.3,0.7,3.8,3,4.1,4.5,3.8s2.6-2,3.5-4a14.77,14.77,0,0,1-.1-2.1Z" transform="translate(-11.96 -11.73)"/></g><path class="cls-2" d="M74.94,231l-2.9.9-0.4,21.8-9.1,1.8,0.3-20.9q-5.4,1.65-10.8,3c-1.5,9.2-1.7,18.5-.7,23.8,0.6,3.2,1.4,2.8,1.6,3.4-4.4.6-8.6,1.3-9.9-5.4-0.8-4.2,0-11.9,2.3-20.1l-3.2.6c-8,1.6-12-.9-12.5-3.6-1-5.1,6.8-7.2,9.9-7.8a30.32,30.32,0,0,1,9.5-.3c4.4-11.3,10.9-21.4,18.3-22.9a15.13,15.13,0,0,1,5.2,0l-0.4,24.4,2.8-.9V231h0Zm-32.7-1.2c-4.9,1-7.7,2.7-7.3,4.7,0.3,1.8,3.3,3,8.8,2l2.5-.5,2.1-6.3A24.92,24.92,0,0,0,42.24,229.83Zm10.4,4.9c3-.7,6-1.4,9-2.2q-4.05-1.2-8.1-2.1Zm9.6-3.1,0.7,0.3,0.4-21.4c-4.1,2.8-7.3,10.2-9.4,18.5,2.6,0.8,5.3,1.6,8.3,2.6h0Z" transform="translate(-11.96 -11.73)"/><path class="cls-2" d="M92.24,215.53l0.2,0.9c2,10.4,6.9,12.8,8.4,20.2a5.85,5.85,0,0,1,.2,1.3,52.49,52.49,0,0,0,3.3-4.9l2.1,1.8c-1.5,1.7-3.6,4.4-5.7,7.1-1,3.8-4.1,6.9-10,8.1-7.3,1.4-11.2,0-12.4-6.2-1-5.1.7-8.4,3.2-9.1,1.5-4.6,1.8-10.5,2-15.5Zm-8.6,27a6.47,6.47,0,0,1-2.4-.1c0.7,3.7,3.1,5,6.4,4.3,2.2-.4,4.7-3.7,3.8-8.6-0.8-3.9-4.3-6.7-5.9-14.6-0.4,3.3-.5,7.5-1.3,11,1.6,0.2,2.4,1.2,2.8,3.1a4.23,4.23,0,0,1-3.4,4.9h0Z" transform="translate(-11.96 -11.73)"/><path class="cls-2" d="M107.54,199.93a5.25,5.25,0,0,1,5.9,4.3,5.13,5.13,0,0,1-3.9,5.8h0a5.1,5.1,0,0,1-6-3.9h0V206a5.14,5.14,0,0,1,4-6.1h0Zm5.5,12.9-0.4,22.4a13.4,13.4,0,0,0,.1,2c0.3,1.4,1.1,2.3,3.6,1.8s5.1-4.7,7.3-7.2l2.2-.4c-2.3,3.5-7.9,13.3-12.8,14.2s-8.3-.6-9.2-5.4a12.22,12.22,0,0,1-.2-3.3l0.4-22.4Z" transform="translate(-11.96 -11.73)"/><path class="cls-2" d="M145.64,228.83a8.13,8.13,0,0,0,.1,2.2,2.12,2.12,0,0,0,2.2,2,1.27,1.27,0,0,0,.6-0.1,7.5,7.5,0,0,0,1.6-.5c-0.7,5.8-3.3,6.7-5.4,7.1-3.7.7-6-.8-7.2-3.6-1.4,3-3.7,6.1-7.6,6.9-6.1,1.2-8.7-2.8-9.4-6.5-2.1-10.9-.7-24.7,11.9-27.2a6.71,6.71,0,0,1,4.6.8l0.1-1.7,9.1-1.8Zm-8.7-15.7a4.27,4.27,0,0,0-3.3-.5c-4.8.9-6.6,11.7-4.9,20.3,0.7,3.8,3,4.1,4.5,3.8s2.6-2,3.5-4a14.77,14.77,0,0,1-.1-2.1Z" transform="translate(-11.96 -11.73)"/><g id="_Group_4" data-name=" Group 4"><g class="cls-1"><path d="M42,322.33a2.14,2.14,0,0,1-1.7-.8,3.9,3.9,0,0,0,1.7-3.3,2.46,2.46,0,0,0-2.3-2.6h-0.5a3.16,3.16,0,0,0-3.5,2.8v0.5c0,6,8.6,6.3,8.6,14.8,0,5.4-4,8.8-10.1,8.8-3,0-8.4-.7-8.4-6.1a5.34,5.34,0,0,1,5.1-5.5h0.5c1.7,0,2.8.6,3.1,1.9-3.1.3-4.5,1.6-4.5,4.2a3.58,3.58,0,0,0,3.5,3.7h0.3c3,0,4.2-2.6,4.2-5.4,0-7.2-8.2-8.7-8.2-14.4,0-4,4.5-7.1,9.1-7.1,2,0,6.4.3,6.4,4.6C45.14,320.63,44,322.33,42,322.33Z" transform="translate(-11.96 -11.73)"/><path d="M60.54,328.63a1.13,1.13,0,0,0,1.1.3c1.8,0,2.6-1.3,4-1.9l0.2,0.8a10.49,10.49,0,0,1-5.4,3.3c-0.7,7.7-4.9,11.4-8.7,11.4-4.1,0-5.8-1.7-5.8-6.2,0-9.4,4.8-13.4,10-13.4C59.54,323,60.44,325.83,60.54,328.63Zm-3,3a1.5,1.5,0,0,1-1.6-1.5v-0.2a3,3,0,0,1,1.7-2.7c-0.1-1.3-.5-2-1.6-2-3.6,0-5.1,7.8-5.1,10.8,0,2.3,1.1,2.9,2.5,2.9,2.4,0,3.7-3.6,4.1-7.3h0Z" transform="translate(-11.96 -11.73)"/><path d="M80.24,323.43l-2.7,13c-0.1.4-.1,0.8-0.2,1.2,0,0.8.4,1.4,1.9,1.4s3.5-2.1,5-3.3h1.3c-1.8,1.8-6.1,6.8-9,6.8-2.6,0-4.3-1-4.7-3.2-1.8,1.7-3.8,3.2-5.5,3.2-2.9,0-4.8-1.3-4.8-4.2a11.08,11.08,0,0,1,.2-1.9l2.7-13h5.5l-2.7,13c-0.1.4-.1,0.8-0.2,1.2,0,0.8.4,1.4,1.9,1.4a4.72,4.72,0,0,0,2.7-1.4,6.88,6.88,0,0,1,.2-1.3l2.7-13,5.7,0.1h0Z" transform="translate(-11.96 -11.73)"/><path d="M91.64,317.33s-0.6,2.6-1.3,6h2.3l-0.3,1.5h-2.4c-2.6,12-2.6,12.4-2.6,12.6,0,0.9.4,1.4,1.9,1.4s3.5-2.1,5-3.3h1.3c-1.8,1.8-6.1,6.8-9,6.8s-4.7-1.3-4.7-4.1c0-2,2-10.1,2.6-13.4h-1.3l0.3-1.5h1.3l1.1-5.3Z" transform="translate(-11.96 -11.73)"/><path d="M108.44,336.33a5,5,0,0,0-.2,1.2c0,0.8.4,1.4,1.9,1.4s3.5-2.1,5-3.3h1.4c-1.8,1.8-6.1,6.8-9,6.8s-4.7-1.3-4.7-4.2a11.08,11.08,0,0,1,.2-1.9l1.4-6.9a3.4,3.4,0,0,0,.1-1c0-1.4-.7-2.2-1.8-2.2a4.07,4.07,0,0,0-2.4.8L97,342.43h-5.6l5.5-25.9,5.6-.8-2.1,9.6a10,10,0,0,1,5-2,5,5,0,0,1,4.4,4.8,2.77,2.77,0,0,1-.1.9Z" transform="translate(-11.96 -11.73)"/><path d="M120.34,339.73c1.9,0,5.1-2.2,6.4-5h1.7c-2.2,3.9-5.8,7.8-10.8,7.8-3.7,0-5.6-2.8-5.6-6.1,0-4.8,2.1-13.3,9-13.3,3.1,0,4.9,1.3,4.9,4,0,4.7-5,7.3-8.6,7.8a8.6,8.6,0,0,0-.1,1.6,2.91,2.91,0,0,0,2.6,3.2h0.5Zm2-14.7c-2.1,0-3.9,4.3-4.7,7.9a6.19,6.19,0,0,0,6-5.8c0-.7-0.2-2.1-1.3-2.1h0Z" transform="translate(-11.96 -11.73)"/><path d="M143.84,323.43l-2.7,13a6.75,6.75,0,0,0-.2,1.4,1,1,0,0,0,.7,1.2h0.5a2.47,2.47,0,0,0,1.6-1.4c0-3.2,1.4-4.9,2.9-5a33.68,33.68,0,0,0,2.9-8.8l5.5-1.1v0.5c0,6.3,2.6,8.2,2.6,12.7v0.8a29.49,29.49,0,0,0,2.5-2.5l1,1.3c-1.1.8-2.6,2.2-4.1,3.5-1,2.1-3.2,3.5-6.7,3.5s-5.6-.8-6.2-3c-1.4,1.8-2.7,3-3.9,3-2.7,0-4.1-1.1-4.6-3a6.61,6.61,0,0,1-5.2,3.2c-3.7,0-4.7-2.6-4.7-4.8,0-6.6,2.4-14.4,10-14.4a4.45,4.45,0,0,1,2.6,1l0.2-1H144Zm-6.1,2.8a3.16,3.16,0,0,0-1.9-.7c-2.9,0-5.1,6.1-5.1,11.2,0,2.3,1.3,2.7,2.2,2.7s1.7-.9,2.5-1.9a5,5,0,0,1,.2-1.2Zm9.3,11.1a2.77,2.77,0,0,1-1.3-.3c0,0.2-.1.4-0.1,0.6,0,1.6,1.8,2.6,3.3,2.6,1.3,0,3.2-1.6,3.2-4.5,0-2.4-1.7-4.4-1.8-9.1a64,64,0,0,1-2,6.2,2,2,0,0,1,1.3,2.1,2.77,2.77,0,0,1-2.6,2.4h0Z" transform="translate(-11.96 -11.73)"/><path d="M164.44,336.33a5.85,5.85,0,0,0-.2,1.3,1.22,1.22,0,0,0,1,1.4h0.4a3.4,3.4,0,0,0,1-.1c-1.1,3.3-2.7,3.5-4,3.5-2.7,0-3.8-1.8-3.8-4.1a13.55,13.55,0,0,1,.2-2l2.4-11.4h-1.3l0.3-1.5h1.3l1.1-5.3,5.6-.8s-0.6,2.6-1.3,6h2.3l-0.3,1.5h-2.3Z" transform="translate(-11.96 -11.73)"/><path d="M86.34,379.33l-2.9.9L83,402l-9.1,1.8,0.3-20.9c-3.6,1.1-7.2,2.1-10.8,2.9-1.5,9.2-1.7,18.5-.7,23.8,0.6,3.2,1.4,2.8,1.6,3.4-4.4.6-8.6,1.3-9.9-5.4-0.8-4.2,0-11.9,2.3-20.2l-3.2.6c-8,1.6-12-.9-12.5-3.6-1-5.1,6.8-7.2,9.9-7.8a30.32,30.32,0,0,1,9.5-.3c4.4-11.3,10.9-21.4,18.3-22.9a15.13,15.13,0,0,1,5.2,0l-0.4,24.4,2.8-.9v2.4h0Zm-32.8-1.2c-4.9,1-7.7,2.7-7.3,4.7,0.3,1.8,3.3,3,8.8,2l2.5-.5,2.1-6.3a20.85,20.85,0,0,0-6.1.1h0ZM64,383c3-.7,6-1.4,9-2.2-2.7-.8-5.4-1.5-8.2-2.1Zm9.5-3.1,0.7,0.3,0.4-21.4c-4.1,2.8-7.3,10.2-9.4,18.5,2.6,0.7,5.4,1.6,8.3,2.6h0Z" transform="translate(-11.96 -11.73)"/><path d="M103.54,363.93l0.2,0.9c2,10.4,6.9,12.8,8.4,20.2a5.85,5.85,0,0,1,.2,1.3,52.49,52.49,0,0,0,3.3-4.9l2.1,1.8c-1.5,1.7-3.6,4.4-5.7,7.1-1,3.8-4.1,6.9-10,8.1-7.3,1.4-11.2,0-12.4-6.2-1-5.1.7-8.4,3.2-9.1,1.5-4.6,1.8-10.5,2-15.5Zm-8.6,27a6.47,6.47,0,0,1-2.4-.1c0.7,3.7,3.1,5,6.4,4.3,2.2-.4,4.7-3.7,3.8-8.6-0.8-3.9-4.3-6.7-5.9-14.6-0.4,3.3-.5,7.5-1.3,11,1.6,0.2,2.4,1.2,2.8,3.1a4.26,4.26,0,0,1-3.4,4.9h0Z" transform="translate(-11.96 -11.73)"/><path d="M118.94,348.33a5.25,5.25,0,0,1,5.9,4.3,5.13,5.13,0,0,1-3.9,5.8h0a5.1,5.1,0,0,1-6-3.9h0v-0.1a5,5,0,0,1,4-6.1h0Zm5.5,12.8-0.4,22.4a13.4,13.4,0,0,0,.1,2c0.3,1.4,1.1,2.3,3.6,1.8s5.1-4.7,7.3-7.2l2.1-.4c-2.4,3.5-7.9,13.3-12.8,14.2s-8.3-.6-9.2-5.4a12.22,12.22,0,0,1-.2-3.3l0.4-22.4Z" transform="translate(-11.96 -11.73)"/><path d="M157,377.13a8.13,8.13,0,0,0,.1,2.2,2.12,2.12,0,0,0,2.2,2,1.27,1.27,0,0,0,.6-0.1,7.5,7.5,0,0,0,1.6-.5c-0.7,5.8-3.3,6.7-5.4,7.1-3.7.7-6-.8-7.2-3.6-1.4,3-3.7,6.1-7.6,6.9-6.1,1.2-8.7-2.8-9.4-6.5-2.1-10.9-.7-24.7,11.9-27.2a6.71,6.71,0,0,1,4.6.8l0.1-1.7,9.1-1.8Zm-8.8-15.7a4.27,4.27,0,0,0-3.3-.5c-4.8.9-6.6,11.7-4.9,20.3,0.7,3.8,3,4.1,4.5,3.8s2.6-2,3.5-4a14.77,14.77,0,0,1-.1-2.1Z" transform="translate(-11.96 -11.73)"/></g><path class="cls-2" d="M35,315.33a2.14,2.14,0,0,1-1.7-.8,3.9,3.9,0,0,0,1.7-3.3,2.46,2.46,0,0,0-2.3-2.6h-0.5a3.16,3.16,0,0,0-3.5,2.8v0.5c0,6,8.6,6.3,8.6,14.8,0,5.4-4,8.8-10.1,8.8-3,0-8.4-.7-8.4-6.1a5.34,5.34,0,0,1,5.1-5.5h0.5c1.7,0,2.8.6,3.1,1.9-3.1.3-4.5,1.6-4.5,4.2a3.58,3.58,0,0,0,3.5,3.7h0.3c3,0,4.2-2.6,4.2-5.4,0-7.2-8.2-8.7-8.2-14.4,0-4,4.5-7.1,9.1-7.1,2,0,6.4.3,6.4,4.6C38.14,313.63,37,315.33,35,315.33Z" transform="translate(-11.96 -11.73)"/><path class="cls-2" d="M53.54,321.63a1.13,1.13,0,0,0,1.1.3c1.8,0,2.6-1.3,4-1.9l0.2,0.8a10.49,10.49,0,0,1-5.4,3.3c-0.7,7.7-4.9,11.4-8.7,11.4-4.1,0-5.8-1.7-5.8-6.2,0-9.4,4.8-13.4,10-13.4C52.54,316,53.44,318.83,53.54,321.63Zm-3,3a1.5,1.5,0,0,1-1.6-1.5v-0.2a3,3,0,0,1,1.7-2.7c-0.1-1.3-.5-2-1.6-2-3.6,0-5.1,7.8-5.1,10.8,0,2.3,1.1,2.9,2.5,2.9,2.4,0,3.7-3.6,4.1-7.3h0Z" transform="translate(-11.96 -11.73)"/><path class="cls-2" d="M73.24,316.43l-2.7,13c-0.1.4-.1,0.8-0.2,1.2,0,0.8.4,1.4,1.9,1.4s3.5-2.1,5-3.3h1.3c-1.8,1.8-6.1,6.8-9,6.8-2.6,0-4.3-1-4.7-3.2-1.8,1.7-3.8,3.2-5.5,3.2-2.9,0-4.8-1.3-4.8-4.2a11.08,11.08,0,0,1,.2-1.9l2.7-13h5.5l-2.7,13c-0.1.4-.1,0.8-0.2,1.2,0,0.8.4,1.4,1.9,1.4a4.72,4.72,0,0,0,2.7-1.4,6.88,6.88,0,0,1,.2-1.3l2.7-13,5.7,0.1h0Z" transform="translate(-11.96 -11.73)"/><path class="cls-2" d="M84.64,310.33s-0.6,2.6-1.3,6h2.3l-0.3,1.5h-2.4c-2.6,12-2.6,12.4-2.6,12.6,0,0.9.4,1.4,1.9,1.4s3.5-2.1,5-3.3h1.3c-1.8,1.8-6.1,6.8-9,6.8s-4.7-1.3-4.7-4.1c0-2,2-10.1,2.6-13.4h-1.3l0.3-1.5h1.3l1.1-5.3Z" transform="translate(-11.96 -11.73)"/><path class="cls-2" d="M101.44,329.33a5,5,0,0,0-.2,1.2c0,0.8.4,1.4,1.9,1.4s3.5-2.1,5-3.3h1.4c-1.8,1.8-6.1,6.8-9,6.8s-4.7-1.3-4.7-4.2a11.08,11.08,0,0,1,.2-1.9l1.4-6.9a3.4,3.4,0,0,0,.1-1c0-1.4-.7-2.2-1.8-2.2a4.07,4.07,0,0,0-2.4.8L90,335.43h-5.6l5.5-25.9,5.6-.8-2.1,9.6a10,10,0,0,1,5-2,5,5,0,0,1,4.4,4.8,2.77,2.77,0,0,1-.1.9Z" transform="translate(-11.96 -11.73)"/><path class="cls-2" d="M113.34,332.73c1.9,0,5.1-2.2,6.4-5h1.7c-2.2,3.9-5.8,7.8-10.8,7.8-3.7,0-5.6-2.8-5.6-6.1,0-4.8,2.1-13.3,9-13.3,3.1,0,4.9,1.3,4.9,4,0,4.7-5,7.3-8.6,7.8a8.6,8.6,0,0,0-.1,1.6,2.91,2.91,0,0,0,2.6,3.2h0.5Zm2-14.7c-2.1,0-3.9,4.3-4.7,7.9a6.19,6.19,0,0,0,6-5.8c0-.7-0.2-2.1-1.3-2.1h0Z" transform="translate(-11.96 -11.73)"/><path class="cls-2" d="M136.84,316.43l-2.7,13a6.75,6.75,0,0,0-.2,1.4,1,1,0,0,0,.7,1.2h0.5a2.47,2.47,0,0,0,1.6-1.4c0-3.2,1.4-4.9,2.9-5a33.68,33.68,0,0,0,2.9-8.8l5.5-1.1v0.5c0,6.3,2.6,8.2,2.6,12.7v0.8a29.49,29.49,0,0,0,2.5-2.5l1,1.3c-1.1.8-2.6,2.2-4.1,3.5-1,2.1-3.2,3.5-6.7,3.5s-5.6-.8-6.2-3c-1.4,1.8-2.7,3-3.9,3-2.7,0-4.1-1.1-4.6-3a6.61,6.61,0,0,1-5.2,3.2c-3.7,0-4.7-2.6-4.7-4.8,0-6.6,2.4-14.4,10-14.4a4.45,4.45,0,0,1,2.6,1l0.2-1H137Zm-6.1,2.8a3.16,3.16,0,0,0-1.9-.7c-2.9,0-5.1,6.1-5.1,11.2,0,2.3,1.3,2.7,2.2,2.7s1.7-.9,2.5-1.9a5,5,0,0,1,.2-1.2Zm9.3,11.1a2.77,2.77,0,0,1-1.3-.3c0,0.2-.1.4-0.1,0.6,0,1.6,1.8,2.6,3.3,2.6,1.3,0,3.2-1.6,3.2-4.5,0-2.4-1.7-4.4-1.8-9.1a64,64,0,0,1-2,6.2,2,2,0,0,1,1.3,2.1,2.77,2.77,0,0,1-2.6,2.4h0Z" transform="translate(-11.96 -11.73)"/><path class="cls-2" d="M157.44,329.33a5.85,5.85,0,0,0-.2,1.3,1.22,1.22,0,0,0,1,1.4h0.4a3.4,3.4,0,0,0,1-.1c-1.1,3.3-2.7,3.5-4,3.5-2.7,0-3.8-1.8-3.8-4.1a13.55,13.55,0,0,1,.2-2l2.4-11.4h-1.3l0.3-1.5h1.3l1.1-5.3,5.6-.8s-0.6,2.6-1.3,6h2.3l-0.3,1.5h-2.3Z" transform="translate(-11.96 -11.73)"/><path class="cls-2" d="M79.34,372.33l-2.9.9L76,395l-9.1,1.8,0.3-20.9c-3.6,1.1-7.2,2.1-10.8,2.9-1.5,9.2-1.7,18.5-.7,23.8,0.6,3.2,1.4,2.8,1.6,3.4-4.4.6-8.6,1.3-9.9-5.4-0.8-4.2,0-11.9,2.3-20.2l-3.2.6c-8,1.6-12-.9-12.5-3.6-1-5.1,6.8-7.2,9.9-7.8a30.32,30.32,0,0,1,9.5-.3c4.4-11.3,10.9-21.4,18.3-22.9a15.13,15.13,0,0,1,5.2,0l-0.4,24.4,2.8-.9v2.4h0Zm-32.8-1.2c-4.9,1-7.7,2.7-7.3,4.7,0.3,1.8,3.3,3,8.8,2l2.5-.5,2.1-6.3a20.85,20.85,0,0,0-6.1.1h0ZM57,376c3-.7,6-1.4,9-2.2-2.7-.8-5.4-1.5-8.2-2.1Zm9.5-3.1,0.7,0.3,0.4-21.4c-4.1,2.8-7.3,10.2-9.4,18.5,2.6,0.7,5.4,1.6,8.3,2.6h0Z" transform="translate(-11.96 -11.73)"/><path class="cls-2" d="M96.54,356.93l0.2,0.9c2,10.4,6.9,12.8,8.4,20.2a5.85,5.85,0,0,1,.2,1.3,52.49,52.49,0,0,0,3.3-4.9l2.1,1.8c-1.5,1.7-3.6,4.4-5.7,7.1-1,3.8-4.1,6.9-10,8.1-7.3,1.4-11.2,0-12.4-6.2-1-5.1.7-8.4,3.2-9.1,1.5-4.6,1.8-10.5,2-15.5Zm-8.6,27a6.47,6.47,0,0,1-2.4-.1c0.7,3.7,3.1,5,6.4,4.3,2.2-.4,4.7-3.7,3.8-8.6-0.8-3.9-4.3-6.7-5.9-14.6-0.4,3.3-.5,7.5-1.3,11,1.6,0.2,2.4,1.2,2.8,3.1a4.26,4.26,0,0,1-3.4,4.9h0Z" transform="translate(-11.96 -11.73)"/><path class="cls-2" d="M111.94,341.33a5.25,5.25,0,0,1,5.9,4.3,5.13,5.13,0,0,1-3.9,5.8h0a5.1,5.1,0,0,1-6-3.9h0v-0.1a5,5,0,0,1,4-6.1h0Zm5.5,12.8-0.4,22.4a13.4,13.4,0,0,0,.1,2c0.3,1.4,1.1,2.3,3.6,1.8s5.1-4.7,7.3-7.2l2.2-.4c-2.4,3.5-7.9,13.3-12.8,14.2s-8.3-.6-9.2-5.4a12.22,12.22,0,0,1-.2-3.3l0.4-22.4Z" transform="translate(-11.96 -11.73)"/><path class="cls-2" d="M150,370.13a8.13,8.13,0,0,0,.1,2.2,2.12,2.12,0,0,0,2.2,2,1.27,1.27,0,0,0,.6-0.1,7.5,7.5,0,0,0,1.6-.5c-0.7,5.8-3.3,6.7-5.4,7.1-3.7.7-6-.8-7.2-3.6-1.4,3-3.7,6.1-7.6,6.9-6.1,1.2-8.7-2.8-9.4-6.5-2.1-10.9-.7-24.7,11.9-27.2a6.71,6.71,0,0,1,4.6.8l0.1-1.7,9.1-1.8Zm-8.8-15.7a4.27,4.27,0,0,0-3.3-.5c-4.8.9-6.6,11.7-4.9,20.3,0.7,3.8,3,4.1,4.5,3.8s2.6-2,3.5-4a14.77,14.77,0,0,1-.1-2.1Z" transform="translate(-11.96 -11.73)"/></g></svg>