<?xml version="1.0" encoding="utf-8"?>
<!-- Generator: Adobe Illustrator 18.1.0, SVG Export Plug-In . SVG Version: 6.00 Build 0)  -->
<!DOCTYPE svg PUBLIC "-//W3C//DTD SVG 1.1//EN" "http://www.w3.org/Graphics/SVG/1.1/DTD/svg11.dtd">
<svg version="1.1" id="Layer_1" xmlns="http://www.w3.org/2000/svg" xmlns:xlink="http://www.w3.org/1999/xlink" x="0px" y="0px"
	 viewBox="0 0 700 700" enable-background="new 0 0 700 700" xml:space="preserve">
<path d="M292.7,581.9c0,0,0,0-1.4,2.4c-4.5,7.5-4.5,7.5-4.5,7.5c-5.9,6.4-17,8.1-24.8,3.7L137.1,525l-10.4-5.9l-31.3-17.7
	c8-10.7,18.4-18.7,29.9-24.1c8-3.7,16.4-6.4,25.1-8.3c20.6-6.4,43.3-7.5,66.8-7.3c30.5,0.4,63.1,3.2,93.8,3.5
	c-14.7-24.4-32.9-49.3-48.8-74l0,0c-13.3-20.9-25.2-41.9-31.3-64c-6.2-22-5.7-46.3,7.3-68.3c0.1-0.1,0.1-0.2,0.1-0.2
	c0.1-0.2,0.2-0.3,0.2-0.3c8.6-14.5,21-25.3,35-32.3c9-4.5,18.5-7.6,28.3-9.7c15.5-4.8,32.1-6.6,49.1-7.1
	c-9.3-15.8-17.2-31.8-21.7-48.4c-6.2-22-5.7-46.3,7.3-68.3c0.1-0.1,0.1-0.2,0.2-0.3c0.1-0.1,0.1-0.2,0.1-0.2
	c8.6-14.6,21-25.3,35-32.3c1-0.5,2.1-0.9,3.1-1.4l49.6,28l0,0L540.6,152c7.8,4.4,10.3,11.6,5.6,16.1c-4.7,4.4-18.7,13.5-33.3,5.3
	l-125.4-70.7c-1.7,2-3.3,4.1-4.8,6.5c-4.7,8.1-6.2,15.3-5.9,24.4c0,0,0,0,0,0.1l89.4,50.4c7.8,4.4,6.8,8.1-2.2,8.2l-34.4-0.2
	c-9-0.5-19.4-2.5-27.2-6.9l-9.6-5.4c2.1,3.9,4.4,7.9,6.9,11.9c3.9,6.5,8.2,13.1,12.7,19.8c29.3,1.8,58.5,3.8,84.5,1.7
	c9.3-0.7,18.1-1.9,26.4-3.7c5.2-1.6,10.1-3.4,14.6-5.6c14.7-7.1,26.3-16.9,35.9-32.9l41.9,23.7c-20.1,29.8-50,45.9-81.2,52.9
	c-4.3,1.3-8.7,2.4-13.1,3.4c-51.2,11-107.8,2.7-155.3,1.2c-20.5-0.7-39.1-0.2-53.9,2.7c-13.2,4.4-21.5,10.3-27.9,20.8
	c-4.7,8.1-6.2,15.3-5.9,24.4c0.6,15.4,9.3,35.7,22.9,57.9c18.9,31.3,46.4,66,66.2,103.6c2-0.4,4-0.8,5.9-1.2
	c5.9-1.8,11.5-3.9,16.6-6.4c0.4-0.2,0.9-0.5,1.3-0.7c-3.7-3.6-7.1-7.4-9.3-10.7l-21.1-32.4c-5-7.3-2.8-9.7,5-5.3l50.9,28.7
	c3.4-3.9,6.6-8.2,9.5-13.1c2.9-5,5.1-9.8,6.8-14.7l-98.1-55.3c-7.8-4.4-16.5-14.9-19.3-23.2c0,0-1.5-4.4-1.8-13
	c-0.2-4.2-0.2-4.2-0.2-4.2c0.6-4.4,7.4-4.3,15.2,0.1l108,60.9c-0.8-7.4-2.4-15.1-4.6-23.2c-2.4-8.5-5.2-15.2-8.7-21.2l-57.2-32.2
	c-7.8-4.4-5.1-14.2-0.9-15.9c8.2-3.3,20-1.7,38-0.2c24.8,2.2,32.7,2.9,50.4,3.7c1.6,0.1,3.1,0.8,4.1,2c3.4,3.9,7.7,10.8,12,19.4
	c9.9,20.4,17.5,41.9,19.1,64.7c1.7,22.7-3,46.4-16.4,69c0,0-0.1,0.1-0.2,0.3c0,0.1-0.1,0.2-0.2,0.3c-20.4,34.6-53.2,52.8-87.5,60.7
	c-0.3,0.1-0.6,0.1-0.7,0.1c-3.4,1-6.9,2-10.5,2.8c-24.5,5.7-50.4,7-75.9,6.7c3.9,12.7,4.4,21.1,4.4,21.1c0.5,8.8-5.4,12.4-13.2,8
	l-56.3-31.8c-5.3-0.2-10.6-0.5-15.7-0.6c-18.3-0.6-33.2-0.5-45.2,3.2l114.2,64.4C294,576.5,294,579.3,292.7,581.9z M389.7,522.8
	c-0.2-1.5-1.1-2.9-2.4-3.8c-1.3-0.9-2.9-1.2-4.4-0.9c-12.7,2.5-25.9,3.9-39.3,4.6c-1.7,0.1-3.2,0.9-4.2,2.1c-1,1.3-1.5,2.9-1.2,4.5
	c3.6,19.8,1.5,37.8-9.8,57.3c-8,13.4-14.3,24.5-26,31.5l41.5,23.4c12.7-9.4,21.6-22.7,30.5-37.7c0.1-0.2,0.2-0.3,0.2-0.3
	c0.1-0.2,0.2-0.3,0.2-0.3c13.4-22.6,18.1-46.4,16.4-69.1C390.8,530.3,390.3,526.5,389.7,522.8z"/>
</svg>
