<svg id="Layer_1" data-name="Layer 1" xmlns="http://www.w3.org/2000/svg" xmlns:xlink="http://www.w3.org/1999/xlink" viewBox="0 0 1442.79 628.75"><defs><style>.cls-1{fill:none;}.cls-2{clip-path:url(#clip-path);}.cls-3{fill:#fff;}.cls-4{fill:#0e4fa2;}</style><clipPath id="clip-path" transform="translate(-79.06 -104.2)"><rect class="cls-1" x="2.14" y="11.04" width="1608.56" height="849.85"/></clipPath></defs><title>dosage</title><g class="cls-2"><path class="cls-3" d="M1420.41,265.69l-9.69-26.61h12.44L1428,255.4l4.79-16.31H1445l-9.69,26.61,9.89,28h-12.64l-4.79-17.33L1423,293.73h-12.44Z" transform="translate(-79.06 -104.2)"/><path class="cls-3" d="M1448.14,283.23l12-27.53c3.67-8.26,4.89-12.44,4.89-15.6a5.91,5.91,0,0,0-6.32-6.22,17.52,17.52,0,0,0-9.18,3v-12a25.47,25.47,0,0,1,11.93-3c9.07,0,15.7,5.51,15.7,15.91v0.51c0,5.4-1.43,9.79-5.61,19.37l-10.2,23.65h15.5v12.44h-28.75v-10.5Z" transform="translate(-79.06 -104.2)"/><path class="cls-3" d="M1368.62,306.54l-2.15.69v-3.67l3.22-1h2.6v21h-3.67v-17Z" transform="translate(-79.06 -104.2)"/><path class="cls-3" d="M1374.77,312.57h11.28v3.52h-11.28v-3.52Z" transform="translate(-79.06 -104.2)"/><path class="cls-3" d="M1387.94,314.12V313.5c0-8.63,2.48-11,5.88-11a6.35,6.35,0,0,1,2.51.48v3.43a4.52,4.52,0,0,0-2.12-.63c-1.67,0-2.75,1.19-2.81,5.19a3.23,3.23,0,0,1,2.36-.9c1.91,0,3.91,1.46,3.91,6.09v0.57c0,4.3-2,7.1-4.83,7.1C1389.58,323.88,1387.94,321.08,1387.94,314.12Zm6.33,2.81v-0.6c0-2.39-.69-3.19-1.55-3.19a1.77,1.77,0,0,0-1.28.54v2.51c0,3.22.57,4.45,1.43,4.45S1394.27,319.5,1394.27,316.93Z" transform="translate(-79.06 -104.2)"/><path class="cls-3" d="M1403,302.69h3.73l1.52,12.8,1.82-12.8h3.37l1.79,12.8,1.55-12.8h3.64l-3.16,21h-3.82l-1.73-12.39L1410,323.64h-3.82Z" transform="translate(-79.06 -104.2)"/><path class="cls-3" d="M1421.7,302.69h8v3.46h-4.36v5.19h3.85v3.46h-3.85v5.31h4.45v3.46h-8.09V302.69Z" transform="translate(-79.06 -104.2)"/><path class="cls-3" d="M1431.55,302.69h8v3.46h-4.36v5.19H1439v3.46h-3.85v5.31h4.45v3.46h-8.09V302.69Z" transform="translate(-79.06 -104.2)"/><path class="cls-3" d="M1441.4,302.69H1445v8.75l3-8.75h4.12l-3.52,8.83,3.58,12.06h-4.06l-2.27-7.91L1445,318v5.61h-3.64V302.69Z" transform="translate(-79.06 -104.2)"/><path class="cls-3" d="M1453,322.87v-3.79a6.73,6.73,0,0,0,3.28,1.16,1.72,1.72,0,0,0,1.94-1.79v-0.06c0-1-.3-1.67-2-3.64-2.48-2.81-3.49-4.15-3.49-6.69V308c0-3.34,2.18-5.46,5.07-5.46a6.57,6.57,0,0,1,3.22.66V307a5.17,5.17,0,0,0-2.78-1,1.76,1.76,0,0,0-1.88,1.79v0.06c0,1,.3,1.34,2,3.34,2.87,3.31,3.49,4.6,3.49,7v0.06a5.15,5.15,0,0,1-5.16,5.46A8.36,8.36,0,0,1,1453,322.87Z" transform="translate(-79.06 -104.2)"/><path class="cls-3" d="M1470.81,302.63h3.88l4,21H1475l-0.69-4.15H1471l-0.66,4.15h-3.52Zm3,13.52-1.1-6.89-1.13,6.89h2.24Z" transform="translate(-79.06 -104.2)"/><path class="cls-3" d="M1479.76,302.69H1483c4,0,6.75,2.15,6.75,7v0.06c0,4.72-2.63,7-6.33,7.22h0v6.57h-3.64V302.69Zm3.67,11c1.52-.09,2.69-1.19,2.69-3.73v-0.06c0-2.66-1-3.79-2.6-3.79h-0.12v7.58h0Z" transform="translate(-79.06 -104.2)"/><path class="cls-3" d="M1493.17,302.63H1497l4,21h-3.64l-0.69-4.15h-3.31l-0.66,4.15h-3.52Zm3,13.52-1.1-6.89-1.13,6.89h2.24Z" transform="translate(-79.06 -104.2)"/><path class="cls-3" d="M1502.12,302.69h3.76c3.73,0,6.45,2,6.45,6.66v0.27a6.51,6.51,0,0,1-2.45,5.49l2.8,8.48h-3.88l-2.36-7.28h-0.69v7.28h-3.64V302.69Zm3.82,10.33c1.58,0,2.75-.93,2.75-3.37v-0.24c0-2.63-1.25-3.31-2.83-3.31h-0.09V313h0.18Z" transform="translate(-79.06 -104.2)"/><path class="cls-3" d="M1515.65,306.16h-2.57v-3.46h8.78v3.46h-2.57v17.43h-3.64V306.16Z" transform="translate(-79.06 -104.2)"/><path class="cls-3" d="M1420,674.77l-9.69-26.61h12.44l4.79,16.31,4.79-16.31h12.24l-9.69,26.61,9.89,28h-12.64l-4.79-17.33-4.79,17.33h-12.44Z" transform="translate(-79.06 -104.2)"/><path class="cls-3" d="M1447,701.58V689.76a20.75,20.75,0,0,0,9,1.94c5,0,8.87-3.77,8.87-10.09v-0.82c0-7.44-4.89-10.5-12.44-11v-8.16l11.62-18h-16.11V631.43h28.75v11.11l-12,18.45c7.24,2.45,12.44,7.54,12.44,18.86V681c0,14-8.26,22.53-19.47,22.53A26.6,26.6,0,0,1,1447,701.58Z" transform="translate(-79.06 -104.2)"/><path class="cls-3" d="M1368.62,715.62l-2.15.69v-3.67l3.22-1h2.6v21h-3.67v-17Z" transform="translate(-79.06 -104.2)"/><path class="cls-3" d="M1374.77,721.64h11.28v3.52h-11.28v-3.52Z" transform="translate(-79.06 -104.2)"/><path class="cls-3" d="M1387.94,723.2v-0.63c0-8.62,2.48-11,5.88-11a6.35,6.35,0,0,1,2.51.48v3.43a4.52,4.52,0,0,0-2.12-.63c-1.67,0-2.75,1.19-2.81,5.19a3.23,3.23,0,0,1,2.36-.9c1.91,0,3.91,1.46,3.91,6.09v0.57c0,4.3-2,7.1-4.83,7.1C1389.58,733,1387.94,730.15,1387.94,723.2Zm6.33,2.81v-0.6c0-2.39-.69-3.19-1.55-3.19a1.77,1.77,0,0,0-1.28.54v2.51c0,3.22.57,4.45,1.43,4.45S1394.27,728.57,1394.27,726Z" transform="translate(-79.06 -104.2)"/><path class="cls-3" d="M1403,711.77h3.73l1.52,12.8,1.82-12.8h3.37l1.79,12.8,1.55-12.8h3.64l-3.16,21h-3.82l-1.73-12.39L1410,732.72h-3.82Z" transform="translate(-79.06 -104.2)"/><path class="cls-3" d="M1421.7,711.77h8v3.46h-4.36v5.19h3.85v3.46h-3.85v5.31h4.45v3.46h-8.09V711.77Z" transform="translate(-79.06 -104.2)"/><path class="cls-3" d="M1431.55,711.77h8v3.46h-4.36v5.19H1439v3.46h-3.85v5.31h4.45v3.46h-8.09V711.77Z" transform="translate(-79.06 -104.2)"/><path class="cls-3" d="M1441.4,711.77H1445v8.75l3-8.75h4.12l-3.52,8.83,3.58,12.06h-4.06l-2.27-7.91L1445,727v5.61h-3.64V711.77Z" transform="translate(-79.06 -104.2)"/><path class="cls-3" d="M1453,731.94v-3.79a6.73,6.73,0,0,0,3.28,1.16,1.72,1.72,0,0,0,1.94-1.79v-0.06c0-1-.3-1.67-2-3.64-2.48-2.81-3.49-4.15-3.49-6.69v-0.06c0-3.34,2.18-5.46,5.07-5.46a6.58,6.58,0,0,1,3.22.66v3.79a5.17,5.17,0,0,0-2.78-1,1.76,1.76,0,0,0-1.88,1.79V717c0,1,.3,1.34,2,3.34,2.87,3.31,3.49,4.6,3.49,7v0.06a5.15,5.15,0,0,1-5.16,5.46A8.37,8.37,0,0,1,1453,731.94Z" transform="translate(-79.06 -104.2)"/><path class="cls-3" d="M1470.81,711.71h3.88l4,21H1475l-0.69-4.15H1471l-0.66,4.15h-3.52Zm3,13.52-1.1-6.89-1.13,6.89h2.24Z" transform="translate(-79.06 -104.2)"/><path class="cls-3" d="M1479.76,711.77H1483c4,0,6.75,2.15,6.75,7v0.06c0,4.72-2.63,7-6.33,7.22h0v6.57h-3.64V711.77Zm3.67,11c1.52-.09,2.69-1.19,2.69-3.73v-0.06c0-2.66-1-3.79-2.6-3.79h-0.12v7.58h0Z" transform="translate(-79.06 -104.2)"/><path class="cls-3" d="M1493.17,711.71H1497l4,21h-3.64l-0.69-4.15h-3.31l-0.66,4.15h-3.52Zm3,13.52-1.1-6.89-1.13,6.89h2.24Z" transform="translate(-79.06 -104.2)"/><path class="cls-3" d="M1502.12,711.77h3.76c3.73,0,6.45,2,6.45,6.66v0.27a6.52,6.52,0,0,1-2.45,5.49l2.8,8.48h-3.88l-2.36-7.28h-0.69v7.28h-3.64V711.77Zm3.82,10.33c1.58,0,2.75-.93,2.75-3.37v-0.24c0-2.63-1.25-3.31-2.83-3.31h-0.09v6.92h0.18Z" transform="translate(-79.06 -104.2)"/><path class="cls-3" d="M1515.65,715.23h-2.57v-3.46h8.78v3.46h-2.57v17.43h-3.64V715.23Z" transform="translate(-79.06 -104.2)"/><path class="cls-4" d="M466.54,246.35h4.07l4.16,22H471L470.23,264h-3.47l-0.69,4.35h-3.69Zm3.13,14.18-1.16-7.23-1.19,7.23h2.35Z" transform="translate(-79.06 -104.2)"/><path class="cls-4" d="M475.93,246.41h3.57c4.88,0,7.67,3.54,7.67,10.58v0.75c0,7-2.79,10.58-7.67,10.58h-3.57V246.41Zm4,18.4c1.81,0,3.38-1.6,3.38-7.07V257c0-5.48-1.57-7.07-3.38-7.07h-0.16v14.9h0.16Z" transform="translate(-79.06 -104.2)"/><path class="cls-4" d="M489,246.41h3.57c4.88,0,7.67,3.54,7.67,10.58v0.75c0,7-2.79,10.58-7.67,10.58H489V246.41Zm4,18.4c1.81,0,3.38-1.6,3.38-7.07V257c0-5.48-1.57-7.07-3.38-7.07h-0.16v14.9H493Z" transform="translate(-79.06 -104.2)"/><path class="cls-4" d="M507.14,246.41h3.32c3.69,0,7.13,1.5,7.13,5.57v0.16a5.13,5.13,0,0,1-3.16,4.94c1.85,0.81,3.44,2.1,3.44,4.88v0.28c0,3.88-3,6.07-7.26,6.07h-3.47V246.41Zm3.88,9.2a2.6,2.6,0,0,0,2.82-2.88v-0.06a2.49,2.49,0,0,0-2.82-2.72H511v5.66H511Zm0,9.17a2.74,2.74,0,0,0,3-2.85v-0.16a2.74,2.74,0,0,0-3-2.85H511v5.85h0.09Z" transform="translate(-79.06 -104.2)"/><path class="cls-4" d="M519.41,261.93V246.41h3.79v15.9c0,2,.69,2.75,1.66,2.75s1.66-.78,1.66-2.75v-15.9h3.79v15.52c0,4.6-2.32,6.67-5.45,6.67S519.41,266.54,519.41,261.93Z" transform="translate(-79.06 -104.2)"/><path class="cls-4" d="M532.5,246.41h8V250h-4.16v5.51h3.63v3.63h-3.63v9.14H532.5V246.41Z" transform="translate(-79.06 -104.2)"/><path class="cls-4" d="M542.2,246.41h8V250H546v5.51h3.63v3.63H546v9.14H542.2V246.41Z" transform="translate(-79.06 -104.2)"/><path class="cls-4" d="M551.9,246.41h8.39V250h-4.57v5.45h4v3.63h-4v5.57h4.66v3.63H551.9V246.41Z" transform="translate(-79.06 -104.2)"/><path class="cls-4" d="M562.23,246.41h3.94c3.91,0,6.76,2.07,6.76,7v0.28a6.83,6.83,0,0,1-2.57,5.76l2.94,8.89h-4.07l-2.47-7.64H566v7.64h-3.82V246.41Zm4,10.83c1.66,0,2.88-1,2.88-3.54v-0.25c0-2.75-1.31-3.47-3-3.47H566v7.26h0.19Z" transform="translate(-79.06 -104.2)"/><path class="cls-4" d="M480.41,289v-0.75c0-7.07,3-10.73,7.32-10.73a6.67,6.67,0,0,1,2.91.63v4a5.29,5.29,0,0,0-2.79-.94c-2.19,0-3.57,2.19-3.57,6.92v1.06c0,5.73,1.69,7,3.25,7a1.53,1.53,0,0,0,.34,0v-5.6H486V287.2h5.35v11.64a9.38,9.38,0,0,1-4,.94C483.57,299.78,480.41,296.68,480.41,289Z" transform="translate(-79.06 -104.2)"/><path class="cls-4" d="M493.46,277.71h3.94c3.91,0,6.76,2.07,6.76,7V285a6.83,6.83,0,0,1-2.57,5.76l2.94,8.89h-4.07L498,292h-0.72v7.64h-3.82V277.71Zm4,10.83c1.66,0,2.88-1,2.88-3.54v-0.25c0-2.75-1.31-3.47-3-3.47h-0.09v7.26h0.19Z" transform="translate(-79.06 -104.2)"/><path class="cls-4" d="M509,277.65h4.07l4.16,22H513.4l-0.72-4.35h-3.47l-0.69,4.35h-3.69Zm3.13,14.18L511,284.6l-1.19,7.23h2.35Z" transform="translate(-79.06 -104.2)"/><path class="cls-4" d="M518.38,277.71h3.57l3.85,11.08V277.71h3.72v21.91h-3.38l-4-11.61v11.61h-3.72V277.71Z" transform="translate(-79.06 -104.2)"/><path class="cls-4" d="M531.71,293.24V277.71h3.79v15.9c0,2,.69,2.75,1.66,2.75s1.66-.78,1.66-2.75v-15.9h3.79v15.52c0,4.6-2.32,6.67-5.45,6.67S531.71,297.84,531.71,293.24Z" transform="translate(-79.06 -104.2)"/><path class="cls-4" d="M544.8,277.71h3.82V296h4v3.63H544.8V277.71Z" transform="translate(-79.06 -104.2)"/><path class="cls-4" d="M554.19,277.71h8.39v3.63H558v5.45h4v3.63h-4V296h4.66v3.63h-8.48V277.71Z" transform="translate(-79.06 -104.2)"/><path class="cls-4" d="M564,298.87v-4a7.06,7.06,0,0,0,3.44,1.22,1.8,1.8,0,0,0,2-1.88v-0.06c0-1-.31-1.75-2.13-3.82-2.6-2.94-3.66-4.35-3.66-7v-0.06c0-3.5,2.28-5.73,5.32-5.73a6.89,6.89,0,0,1,3.38.69v4a5.42,5.42,0,0,0-2.91-1,1.85,1.85,0,0,0-2,1.88v0.06c0,1,.31,1.41,2.13,3.5,3,3.47,3.66,4.82,3.66,7.32v0.06a5.4,5.4,0,0,1-5.41,5.73A8.77,8.77,0,0,1,564,298.87Z" transform="translate(-79.06 -104.2)"/><path class="cls-4" d="M328.9,656.29H333l4.16,22h-3.82l-0.72-4.35h-3.47l-0.69,4.35h-3.69ZM332,670.46l-1.16-7.23-1.19,7.23H332Z" transform="translate(-79.06 -104.2)"/><path class="cls-4" d="M337.67,656.35h3.57c4.88,0,7.67,3.54,7.67,10.58v0.75c0,7-2.79,10.58-7.67,10.58h-3.57V656.35Zm4,18.4c1.81,0,3.38-1.6,3.38-7.07v-0.75c0-5.48-1.57-7.07-3.38-7.07h-0.16v14.9h0.16Z" transform="translate(-79.06 -104.2)"/><path class="cls-4" d="M350.19,656.35h3.57c4.88,0,7.67,3.54,7.67,10.58v0.75c0,7-2.79,10.58-7.67,10.58h-3.57V656.35Zm4,18.4c1.81,0,3.38-1.6,3.38-7.07v-0.75c0-5.48-1.57-7.07-3.38-7.07H354v14.9h0.16Z" transform="translate(-79.06 -104.2)"/><path class="cls-4" d="M367.06,656.35h3.32c3.69,0,7.13,1.5,7.13,5.57v0.16a5.12,5.12,0,0,1-3.16,4.94c1.85,0.81,3.44,2.1,3.44,4.88v0.28c0,3.88-3,6.07-7.26,6.07h-3.47V656.35Zm3.88,9.2a2.6,2.6,0,0,0,2.82-2.88v-0.06a2.49,2.49,0,0,0-2.82-2.72h-0.06v5.66h0.06Zm0,9.17a2.74,2.74,0,0,0,3-2.85v-0.16a2.74,2.74,0,0,0-3-2.85h-0.09v5.85H371Z" transform="translate(-79.06 -104.2)"/><path class="cls-4" d="M378.74,671.87V656.35h3.79v15.9c0,2,.69,2.75,1.66,2.75s1.66-.78,1.66-2.75v-15.9h3.79v15.52c0,4.6-2.32,6.67-5.45,6.67S378.74,676.47,378.74,671.87Z" transform="translate(-79.06 -104.2)"/><path class="cls-4" d="M391.23,656.35h8V660H395v5.51h3.63v3.63H395v9.14h-3.82V656.35Z" transform="translate(-79.06 -104.2)"/><path class="cls-4" d="M400.34,656.35h8V660h-4.16v5.51h3.63v3.63h-3.63v9.14h-3.82V656.35Z" transform="translate(-79.06 -104.2)"/><path class="cls-4" d="M409.44,656.35h8.39V660h-4.57v5.45h4v3.63h-4v5.57h4.66v3.63h-8.48V656.35Z" transform="translate(-79.06 -104.2)"/><path class="cls-4" d="M419.18,656.35h3.94c3.91,0,6.76,2.07,6.76,7v0.28a6.83,6.83,0,0,1-2.57,5.76l2.94,8.89h-4.07l-2.47-7.64H423v7.64h-3.82V656.35Zm4,10.83c1.66,0,2.88-1,2.88-3.54v-0.25c0-2.75-1.31-3.47-3-3.47H423v7.26h0.19Z" transform="translate(-79.06 -104.2)"/><path class="cls-4" d="M345.63,698v-0.72c0-6.75,2.87-10.24,7-10.24a6.37,6.37,0,0,1,2.78.6v3.79a5.05,5.05,0,0,0-2.66-.9c-2.09,0-3.4,2.09-3.4,6.6v1c0,5.46,1.61,6.72,3.1,6.72a1.44,1.44,0,0,0,.33,0v-5.34H351v-3.25h5.1v11.1a9,9,0,0,1-3.79.9C348.64,708.27,345.63,705.32,345.63,698Z" transform="translate(-79.06 -104.2)"/><path class="cls-4" d="M357.48,687.23h3.76c3.73,0,6.45,2,6.45,6.66v0.27a6.51,6.51,0,0,1-2.45,5.49l2.8,8.48h-3.88l-2.36-7.28h-0.69v7.28h-3.64V687.23Zm3.82,10.33c1.58,0,2.75-.92,2.75-3.37v-0.24c0-2.63-1.25-3.31-2.83-3.31h-0.09v6.92h0.18Z" transform="translate(-79.06 -104.2)"/><path class="cls-4" d="M371.69,687.17h3.88l4,21H375.9L375.21,704H371.9l-0.66,4.15h-3.52Zm3,13.52-1.1-6.89-1.13,6.89h2.24Z" transform="translate(-79.06 -104.2)"/><path class="cls-4" d="M380,687.23h3.4l3.67,10.57V687.23h3.55v20.89h-3.22l-3.85-11.07v11.07H380V687.23Z" transform="translate(-79.06 -104.2)"/><path class="cls-4" d="M392.2,702v-14.8h3.61v15.16c0,1.88.66,2.63,1.58,2.63s1.58-.75,1.58-2.63V687.23h3.61V702c0,4.39-2.21,6.36-5.19,6.36S392.2,706.42,392.2,702Z" transform="translate(-79.06 -104.2)"/><path class="cls-4" d="M404.11,687.23h3.64v17.43h3.85v3.46h-7.49V687.23Z" transform="translate(-79.06 -104.2)"/><path class="cls-4" d="M412.5,687.23h8v3.46h-4.36v5.19H420v3.46h-3.85v5.31h4.45v3.46H412.5V687.23Z" transform="translate(-79.06 -104.2)"/><path class="cls-4" d="M421.33,707.41v-3.79a6.73,6.73,0,0,0,3.28,1.16,1.72,1.72,0,0,0,1.94-1.79v-0.06c0-1-.3-1.67-2-3.64-2.48-2.81-3.49-4.15-3.49-6.69v-0.06c0-3.34,2.18-5.46,5.07-5.46a6.58,6.58,0,0,1,3.22.66v3.79a5.17,5.17,0,0,0-2.78-1,1.76,1.76,0,0,0-1.88,1.79v0.06c0,1,.3,1.34,2,3.34,2.87,3.31,3.49,4.6,3.49,7v0.06a5.15,5.15,0,0,1-5.16,5.46A8.35,8.35,0,0,1,421.33,707.41Z" transform="translate(-79.06 -104.2)"/><path class="cls-4" d="M134.6,250.45l-2.25.72v-3.85l3.38-1.06h2.72v22.06H134.6V250.45Z" transform="translate(-79.06 -104.2)"/><path class="cls-4" d="M140.74,267.94v-3.72a5.73,5.73,0,0,0,2.5.66c1.78,0,2.79-1.47,2.79-3.79v-0.22c0-2.32-.84-3.13-2.1-3.13a3.6,3.6,0,0,0-1.5.31l-1.85-1.22,0.59-10.42H149V250h-5l-0.28,4.38a6.21,6.21,0,0,1,1.47-.16c2.32,0,4.6,1.69,4.6,6.57v0.28c0,4.73-2.5,7.42-6.13,7.42A7.73,7.73,0,0,1,140.74,267.94Z" transform="translate(-79.06 -104.2)"/><path class="cls-4" d="M151,258v-1.19c0-7.57,1.88-10.67,5.41-10.67s5.41,3.1,5.41,10.67V258c0,7.57-1.94,10.67-5.41,10.67S151,265.53,151,258Zm7,0V256.8c0-6.2-.75-7.2-1.63-7.2s-1.66,1-1.66,7.2v1.13c0,6.2.75,7.2,1.66,7.2S158,264.13,158,257.93Z" transform="translate(-79.06 -104.2)"/><path class="cls-4" d="M163.62,251.54h3.69v2c0.75-1.41,1.6-2.28,3-2.28a3.11,3.11,0,0,1,2.82,1.94,3.81,3.81,0,0,1,3-1.94c1.78,0,3.47,1.5,3.47,4.44v12.64h-3.69V256.49c0-1.22-.44-1.94-1.19-1.94s-1.25.72-1.25,1.94v11.83h-3.69V256.49c0-1.22-.44-1.94-1.19-1.94s-1.25.72-1.25,1.94v11.83h-3.69V251.54Z" transform="translate(-79.06 -104.2)"/><path class="cls-4" d="M181.75,246.41h3.82v18.28h4v3.63h-7.85V246.41Z" transform="translate(-79.06 -104.2)"/><path class="cls-4" d="M127.44,277.71h3.91l1.6,13.43,1.91-13.43h3.54l1.88,13.43,1.63-13.43h3.82l-3.32,22h-4l-1.82-13-1.82,13h-4Z" transform="translate(-79.06 -104.2)"/><path class="cls-4" d="M149.78,277.65h4.07l4.16,22H154.2l-0.72-4.35H150l-0.69,4.35h-3.69Zm3.13,14.18-1.16-7.23-1.19,7.23h2.35Z" transform="translate(-79.06 -104.2)"/><path class="cls-4" d="M160.3,281.34h-2.69v-3.63h9.2v3.63h-2.69v18.28H160.3V281.34Z" transform="translate(-79.06 -104.2)"/><path class="cls-4" d="M168.41,277.71h8.39v3.63h-4.57v5.45h4v3.63h-4V296h4.66v3.63h-8.48V277.71Z" transform="translate(-79.06 -104.2)"/><path class="cls-4" d="M178.74,277.71h3.94c3.91,0,6.76,2.07,6.76,7V285a6.83,6.83,0,0,1-2.57,5.76l2.94,8.89h-4.07L183.28,292h-0.72v7.64h-3.82V277.71Zm4,10.83c1.66,0,2.88-1,2.88-3.54v-0.25c0-2.75-1.31-3.47-3-3.47h-0.09v7.26h0.19Z" transform="translate(-79.06 -104.2)"/><path class="cls-4" d="M83.45,660.39l-2.25.72v-3.85l3.38-1.06H87.3v22.06H83.45V660.39Z" transform="translate(-79.06 -104.2)"/><path class="cls-4" d="M89,677.88v-3.72a5.73,5.73,0,0,0,2.5.66c1.78,0,2.79-1.47,2.79-3.79v-0.22c0-2.32-.85-3.13-2.1-3.13a3.6,3.6,0,0,0-1.5.31l-1.85-1.22,0.59-10.42h7.79V660h-5L92,664.36a6.22,6.22,0,0,1,1.47-.16c2.32,0,4.6,1.69,4.6,6.57v0.28c0,4.73-2.5,7.42-6.13,7.42A7.72,7.72,0,0,1,89,677.88Z" transform="translate(-79.06 -104.2)"/><path class="cls-4" d="M98.64,667.9v-1.19c0-7.57,1.88-10.67,5.41-10.67s5.41,3.1,5.41,10.67v1.19c0,7.57-1.94,10.67-5.41,10.67S98.64,675.47,98.64,667.9Zm7,0v-1.13c0-6.2-.75-7.2-1.63-7.2s-1.66,1-1.66,7.2v1.13c0,6.2.75,7.2,1.66,7.2S105.68,674.06,105.68,667.87Z" transform="translate(-79.06 -104.2)"/><path class="cls-4" d="M110.63,661.48h3.69v2c0.75-1.41,1.6-2.29,3-2.29a3.11,3.11,0,0,1,2.82,1.94,3.81,3.81,0,0,1,3-1.94c1.78,0,3.47,1.5,3.47,4.44v12.64h-3.69V666.43c0-1.22-.44-1.94-1.19-1.94s-1.25.72-1.25,1.94v11.83h-3.69V666.43c0-1.22-.44-1.94-1.19-1.94s-1.25.72-1.25,1.94v11.83h-3.69V661.48Z" transform="translate(-79.06 -104.2)"/><path class="cls-4" d="M128.15,656.35H132v18.28h4v3.63h-7.85V656.35Z" transform="translate(-79.06 -104.2)"/><path class="cls-4" d="M79.06,687.23h3.73L84.31,700l1.82-12.8h3.37L91.3,700l1.55-12.8h3.64l-3.16,21H89.51L87.78,695.8,86,708.18H82.22Z" transform="translate(-79.06 -104.2)"/><path class="cls-4" d="M99.78,687.17h3.88l4,21H104L103.3,704H100l-0.66,4.15H95.81Zm3,13.52-1.1-6.89-1.13,6.89h2.24Z" transform="translate(-79.06 -104.2)"/><path class="cls-4" d="M109.18,690.69h-2.57v-3.46h8.78v3.46h-2.57v17.43h-3.64V690.69Z" transform="translate(-79.06 -104.2)"/><path class="cls-4" d="M116.35,687.23h8v3.46H120v5.19h3.85v3.46H120v5.31h4.45v3.46h-8.09V687.23Z" transform="translate(-79.06 -104.2)"/><path class="cls-4" d="M125.63,687.23h3.76c3.73,0,6.45,2,6.45,6.66v0.27a6.51,6.51,0,0,1-2.45,5.49l2.81,8.48h-3.88L130,700.84h-0.69v7.28h-3.64V687.23Zm3.82,10.33c1.58,0,2.75-.92,2.75-3.37v-0.24c0-2.63-1.25-3.31-2.83-3.31h-0.09v6.92h0.18Z" transform="translate(-79.06 -104.2)"/><path class="cls-4" d="M783.7,267.57v-4a7.06,7.06,0,0,0,3.44,1.22,1.8,1.8,0,0,0,2-1.88v-0.06c0-1-.31-1.75-2.13-3.82-2.6-2.94-3.66-4.35-3.66-7V252c0-3.5,2.28-5.73,5.32-5.73a6.89,6.89,0,0,1,3.38.69v4a5.42,5.42,0,0,0-2.91-1,1.85,1.85,0,0,0-2,1.88v0.06c0,1,.31,1.41,2.13,3.5,3,3.47,3.66,4.82,3.66,7.32v0.06a5.4,5.4,0,0,1-5.41,5.73A8.77,8.77,0,0,1,783.7,267.57Z" transform="translate(-79.06 -104.2)"/><path class="cls-4" d="M795.91,250h-2.69v-3.63h9.2V250h-2.69v18.28h-3.82V250Z" transform="translate(-79.06 -104.2)"/><path class="cls-4" d="M804.08,246.41h3.82v21.91h-3.82V246.41Z" transform="translate(-79.06 -104.2)"/><path class="cls-4" d="M810.21,246.41h3.94c3.91,0,6.76,2.07,6.76,7v0.28a6.83,6.83,0,0,1-2.57,5.76l2.94,8.89h-4.07l-2.47-7.64H814v7.64h-3.82V246.41Zm4,10.83c1.66,0,2.88-1,2.88-3.54v-0.25c0-2.75-1.31-3.47-3-3.47H814v7.26h0.19Z" transform="translate(-79.06 -104.2)"/><path class="cls-4" d="M830.71,246.35h4.07l4.16,22h-3.82L834.41,264h-3.47l-0.69,4.35h-3.69Zm3.13,14.18-1.16-7.23-1.19,7.23h2.35Z" transform="translate(-79.06 -104.2)"/><path class="cls-4" d="M840.11,246.41h3.57l3.85,11.08V246.41h3.72v21.91h-3.38l-4-11.61v11.61h-3.72V246.41Z" transform="translate(-79.06 -104.2)"/><path class="cls-4" d="M853.5,246.41h3.57c4.88,0,7.67,3.54,7.67,10.58v0.75c0,7-2.79,10.58-7.67,10.58H853.5V246.41Zm4,18.4c1.81,0,3.38-1.6,3.38-7.07V257c0-5.48-1.57-7.07-3.38-7.07h-0.16v14.9h0.16Z" transform="translate(-79.06 -104.2)"/><path class="cls-4" d="M874.66,246.35h4.07l4.16,22h-3.82L878.36,264h-3.47l-0.69,4.35H870.5Zm3.13,14.18-1.16-7.23-1.19,7.23h2.35Z" transform="translate(-79.06 -104.2)"/><path class="cls-4" d="M884.05,246.41h3.57c4.88,0,7.67,3.54,7.67,10.58v0.75c0,7-2.79,10.58-7.67,10.58h-3.57V246.41Zm4,18.4c1.81,0,3.38-1.6,3.38-7.07V257c0-5.48-1.57-7.07-3.38-7.07h-0.16v14.9H888Z" transform="translate(-79.06 -104.2)"/><path class="cls-4" d="M897.17,246.41h3.57c4.88,0,7.67,3.54,7.67,10.58v0.75c0,7-2.79,10.58-7.67,10.58h-3.57V246.41Zm4,18.4c1.81,0,3.38-1.6,3.38-7.07V257c0-5.48-1.57-7.07-3.38-7.07H901v14.9h0.16Z" transform="translate(-79.06 -104.2)"/><path class="cls-4" d="M915.26,246.41h3.57c4.88,0,7.67,3.54,7.67,10.58v0.75c0,7-2.79,10.58-7.67,10.58h-3.57V246.41Zm4,18.4c1.81,0,3.38-1.6,3.38-7.07V257c0-5.48-1.57-7.07-3.38-7.07h-0.16v14.9h0.16Z" transform="translate(-79.06 -104.2)"/><path class="cls-4" d="M928.31,261.93V246.41h3.79v15.9c0,2,.69,2.75,1.66,2.75s1.66-.78,1.66-2.75v-15.9h3.79v15.52c0,4.6-2.32,6.67-5.45,6.67S928.31,266.54,928.31,261.93Z" transform="translate(-79.06 -104.2)"/><path class="cls-4" d="M941.4,246.41h3.82v9.17l3.1-9.17h4.32l-3.69,9.26,3.76,12.64h-4.26L946.06,260l-0.85,2.41v5.88H941.4V246.41Z" transform="translate(-79.06 -104.2)"/><path class="cls-4" d="M952.7,257.93V256.8c0-7.23,2.35-10.7,5.82-10.7s5.82,3.47,5.82,10.7v1.13c0,7.23-2.35,10.7-5.82,10.7S952.7,265.16,952.7,257.93Zm7.76,0V256.8c0-5.63-.78-7.2-1.94-7.2s-1.94,1.56-1.94,7.2v1.13c0,5.63.78,7.2,1.94,7.2S960.46,263.56,960.46,257.93Z" transform="translate(-79.06 -104.2)"/><path class="cls-4" d="M966.22,246.41h3.94c3.91,0,6.76,2.07,6.76,7v0.28a6.83,6.83,0,0,1-2.57,5.76l2.94,8.89h-4.07l-2.47-7.64H970v7.64h-3.82V246.41Zm4,10.83c1.66,0,2.88-1,2.88-3.54v-0.25c0-2.75-1.31-3.47-3-3.47H970v7.26h0.19Z" transform="translate(-79.06 -104.2)"/><path class="cls-4" d="M981.75,246.35h4.07l4.16,22h-3.82L985.44,264H982l-0.69,4.35h-3.69Zm3.13,14.18-1.16-7.23-1.19,7.23h2.35Z" transform="translate(-79.06 -104.2)"/><path class="cls-4" d="M991.14,246.41H995v18.28h4v3.63h-7.85V246.41Z" transform="translate(-79.06 -104.2)"/><path class="cls-4" d="M969.13,656.29h4.07l4.16,22h-3.82l-0.72-4.35h-3.47l-0.69,4.35H965Zm3.13,14.18-1.16-7.23-1.19,7.23h2.35Z" transform="translate(-79.06 -104.2)"/><path class="cls-4" d="M977.93,656.35h3.57c4.88,0,7.67,3.54,7.67,10.58v0.75c0,7-2.79,10.58-7.67,10.58h-3.57V656.35Zm4,18.4c1.81,0,3.38-1.6,3.38-7.07v-0.75c0-5.48-1.57-7.07-3.38-7.07h-0.16v14.9h0.16Z" transform="translate(-79.06 -104.2)"/><path class="cls-4" d="M990.45,656.35H994c4.88,0,7.67,3.54,7.67,10.58v0.75c0,7-2.79,10.58-7.67,10.58h-3.57V656.35Zm4,18.4c1.81,0,3.38-1.6,3.38-7.07v-0.75c0-5.48-1.57-7.07-3.38-7.07h-0.16v14.9h0.16Z" transform="translate(-79.06 -104.2)"/><path class="cls-4" d="M927.89,687.23h3.4c4.66,0,7.31,3.37,7.31,10.09V698c0,6.71-2.66,10.09-7.31,10.09h-3.4V687.23Zm3.79,17.55c1.73,0,3.22-1.52,3.22-6.75v-0.72c0-5.22-1.49-6.75-3.22-6.75h-0.15v14.21h0.15Z" transform="translate(-79.06 -104.2)"/><path class="cls-4" d="M939.77,702v-14.8h3.61v15.16c0,1.88.66,2.63,1.58,2.63s1.58-.75,1.58-2.63V687.23h3.61V702c0,4.39-2.21,6.36-5.19,6.36S939.77,706.42,939.77,702Z" transform="translate(-79.06 -104.2)"/><path class="cls-4" d="M951.68,687.23h3.64V696l3-8.75h4.12l-3.52,8.83,3.58,12.06H958.4l-2.27-7.91-0.81,2.3v5.61h-3.64V687.23Z" transform="translate(-79.06 -104.2)"/><path class="cls-4" d="M961.89,698.22v-1.07c0-6.89,2.24-10.21,5.55-10.21s5.55,3.31,5.55,10.21v1.07c0,6.89-2.24,10.21-5.55,10.21S961.89,705.11,961.89,698.22Zm7.4,0v-1.07c0-5.37-.75-6.86-1.85-6.86s-1.85,1.49-1.85,6.86v1.07c0,5.37.75,6.86,1.85,6.86S969.29,703.59,969.29,698.22Z" transform="translate(-79.06 -104.2)"/><path class="cls-4" d="M974.22,687.23H978c3.73,0,6.45,2,6.45,6.66v0.27a6.51,6.51,0,0,1-2.45,5.49l2.81,8.48H980.9l-2.36-7.28h-0.69v7.28h-3.64V687.23ZM978,697.56c1.58,0,2.75-.92,2.75-3.37v-0.24c0-2.63-1.25-3.31-2.83-3.31h-0.09v6.92H978Z" transform="translate(-79.06 -104.2)"/><path class="cls-4" d="M988.43,687.17h3.88l4,21h-3.64L992,704h-3.31L988,708.12h-3.52Zm3,13.52-1.1-6.89-1.13,6.89h2.24Z" transform="translate(-79.06 -104.2)"/><path class="cls-4" d="M996.79,687.23h3.64v17.43h3.85v3.46h-7.49V687.23Z" transform="translate(-79.06 -104.2)"/><path class="cls-4" d="M1142.5,267.57v-4a7.06,7.06,0,0,0,3.44,1.22,1.8,1.8,0,0,0,2-1.88v-0.06c0-1-.31-1.75-2.13-3.82-2.6-2.94-3.66-4.35-3.66-7V252c0-3.5,2.28-5.73,5.32-5.73a6.89,6.89,0,0,1,3.38.69v4a5.42,5.42,0,0,0-2.91-1,1.85,1.85,0,0,0-2,1.88v0.06c0,1,.31,1.41,2.13,3.5,3,3.47,3.66,4.82,3.66,7.32v0.06a5.4,5.4,0,0,1-5.41,5.73A8.77,8.77,0,0,1,1142.5,267.57Z" transform="translate(-79.06 -104.2)"/><path class="cls-4" d="M1154.74,250H1152v-3.63h9.2V250h-2.69v18.28h-3.82V250Z" transform="translate(-79.06 -104.2)"/><path class="cls-4" d="M1162.91,246.41h3.82v21.91h-3.82V246.41Z" transform="translate(-79.06 -104.2)"/><path class="cls-4" d="M1169,246.41H1173c3.91,0,6.76,2.07,6.76,7v0.28a6.83,6.83,0,0,1-2.57,5.76l2.94,8.89h-4.07l-2.47-7.64h-0.72v7.64H1169V246.41Zm4,10.83c1.66,0,2.88-1,2.88-3.54v-0.25c0-2.75-1.31-3.47-3-3.47h-0.09v7.26h0.19Z" transform="translate(-79.06 -104.2)"/><path class="cls-4" d="M1189.55,246.35h4.07l4.16,22H1194l-0.72-4.35h-3.47l-0.69,4.35h-3.69Zm3.13,14.18-1.16-7.23-1.19,7.23h2.35Z" transform="translate(-79.06 -104.2)"/><path class="cls-4" d="M1198.94,246.41h3.57l3.85,11.08V246.41h3.72v21.91h-3.38l-4-11.61v11.61h-3.72V246.41Z" transform="translate(-79.06 -104.2)"/><path class="cls-4" d="M1212.34,246.41h3.57c4.88,0,7.67,3.54,7.67,10.58v0.75c0,7-2.79,10.58-7.67,10.58h-3.57V246.41Zm4,18.4c1.81,0,3.38-1.6,3.38-7.07V257c0-5.48-1.57-7.07-3.38-7.07h-0.16v14.9h0.16Z" transform="translate(-79.06 -104.2)"/><path class="cls-4" d="M1142.92,277.28h3.4c4.66,0,7.31,3.37,7.31,10.09v0.72c0,6.72-2.66,10.09-7.31,10.09h-3.4V277.28Zm3.79,17.55c1.73,0,3.22-1.52,3.22-6.75v-0.72c0-5.22-1.49-6.75-3.22-6.75h-0.15v14.21h0.15Z" transform="translate(-79.06 -104.2)"/><path class="cls-4" d="M1155.43,277.28h3.76c3.73,0,6.45,2,6.45,6.66v0.27a6.51,6.51,0,0,1-2.45,5.49l2.8,8.48h-3.88l-2.36-7.28h-0.69v7.28h-3.64V277.28Zm3.82,10.33c1.58,0,2.75-.93,2.75-3.37V284c0-2.63-1.25-3.31-2.83-3.31h-0.09v6.92h0.18Z" transform="translate(-79.06 -104.2)"/><path class="cls-4" d="M1167.37,277.28H1171v20.89h-3.64V277.28Z" transform="translate(-79.06 -104.2)"/><path class="cls-4" d="M1173.22,277.28h3.4l3.67,10.57V277.28h3.55v20.89h-3.22l-3.85-11.07v11.07h-3.55V277.28Z" transform="translate(-79.06 -104.2)"/><path class="cls-4" d="M1186,277.28h3.64V286l3-8.74h4.12l-3.52,8.83,3.58,12.06h-4.06l-2.27-7.91-0.81,2.3v5.61H1186V277.28Z" transform="translate(-79.06 -104.2)"/><path class="cls-4" d="M1155.92,677.52v-4a7.06,7.06,0,0,0,3.44,1.22,1.8,1.8,0,0,0,2-1.88v-0.06c0-1-.31-1.75-2.13-3.82-2.6-2.94-3.66-4.35-3.66-7v-0.06c0-3.5,2.28-5.73,5.32-5.73a6.89,6.89,0,0,1,3.38.69v4a5.41,5.41,0,0,0-2.91-1,1.85,1.85,0,0,0-2,1.88v0.06c0,1,.31,1.41,2.13,3.51,3,3.47,3.66,4.82,3.66,7.32v0.06a5.4,5.4,0,0,1-5.41,5.73A8.77,8.77,0,0,1,1155.92,677.52Z" transform="translate(-79.06 -104.2)"/><path class="cls-4" d="M1167.53,660h-2.69v-3.63h9.2V660h-2.69v18.28h-3.82V660Z" transform="translate(-79.06 -104.2)"/><path class="cls-4" d="M1175.11,656.36h3.82v21.91h-3.82V656.36Z" transform="translate(-79.06 -104.2)"/><path class="cls-4" d="M1180.61,656.36h3.94c3.91,0,6.76,2.07,6.76,7v0.28a6.83,6.83,0,0,1-2.57,5.76l2.94,8.89h-4.07l-2.47-7.64h-0.72v7.64h-3.82V656.36Zm4,10.83c1.66,0,2.88-1,2.88-3.54v-0.25c0-2.75-1.31-3.47-3-3.47h-0.09v7.26h0.19Z" transform="translate(-79.06 -104.2)"/><path class="cls-4" d="M1199.9,656.3H1204l4.16,22h-3.82l-0.72-4.35h-3.47l-0.69,4.35h-3.69Zm3.13,14.18-1.16-7.23-1.19,7.23H1203Z" transform="translate(-79.06 -104.2)"/><path class="cls-4" d="M1208.69,656.36h3.57l3.85,11.08V656.36h3.72v21.91h-3.38l-4-11.61v11.61h-3.72V656.36Z" transform="translate(-79.06 -104.2)"/><path class="cls-4" d="M1221.46,656.36H1225c4.88,0,7.67,3.54,7.67,10.58v0.75c0,7-2.79,10.58-7.67,10.58h-3.57V656.36Zm4,18.4c1.81,0,3.38-1.6,3.38-7.07v-0.75c0-5.48-1.57-7.07-3.38-7.07h-0.16v14.9h0.16Z" transform="translate(-79.06 -104.2)"/><path class="cls-4" d="M1156.33,687.23h3.4c4.66,0,7.31,3.37,7.31,10.09V698c0,6.71-2.66,10.09-7.31,10.09h-3.4V687.23Zm3.79,17.55c1.73,0,3.22-1.52,3.22-6.75v-0.72c0-5.22-1.49-6.75-3.22-6.75H1160v14.21h0.15Z" transform="translate(-79.06 -104.2)"/><path class="cls-4" d="M1168.27,687.23H1172c3.73,0,6.45,2,6.45,6.66v0.27a6.51,6.51,0,0,1-2.45,5.49l2.8,8.48H1175l-2.36-7.28h-0.69v7.28h-3.64V687.23Zm3.82,10.33c1.58,0,2.75-.92,2.75-3.37v-0.24c0-2.63-1.25-3.31-2.83-3.31h-0.09v6.92h0.18Z" transform="translate(-79.06 -104.2)"/><path class="cls-4" d="M1179.62,687.23h3.64v20.89h-3.64V687.23Z" transform="translate(-79.06 -104.2)"/><path class="cls-4" d="M1184.9,687.23h3.4L1192,697.8V687.23h3.55v20.89h-3.22l-3.85-11.07v11.07h-3.55V687.23Z" transform="translate(-79.06 -104.2)"/><path class="cls-4" d="M1197.08,687.23h3.64V696l3-8.75h4.12l-3.52,8.83,3.58,12.06h-4.06l-2.27-7.91-0.81,2.3v5.61h-3.64V687.23Z" transform="translate(-79.06 -104.2)"/><path class="cls-4" d="M664.85,677.52v-4a6,6,0,0,0,3.1,1.22,1.7,1.7,0,0,0,1.83-1.88v-0.06c0-1-.28-1.75-1.92-3.82-2.34-2.94-3.3-4.35-3.3-7v-0.06c0-3.5,2.06-5.73,4.79-5.73a5.68,5.68,0,0,1,3,.69v4a4.56,4.56,0,0,0-2.62-1,1.75,1.75,0,0,0-1.77,1.88v0.06c0,1,.28,1.41,1.92,3.51,2.7,3.47,3.29,4.82,3.29,7.32v0.06c0,3.44-2.17,5.73-4.87,5.73A7.26,7.26,0,0,1,664.85,677.52Z" transform="translate(-79.06 -104.2)"/><path class="cls-4" d="M675.28,660h-2.42v-3.63h8.28V660h-2.42v18.28h-3.44V660Z" transform="translate(-79.06 -104.2)"/><path class="cls-4" d="M682.09,656.36h3.44v21.91h-3.44V656.36Z" transform="translate(-79.06 -104.2)"/><path class="cls-4" d="M687.05,656.36h3.55c3.52,0,6.08,2.07,6.08,7v0.28a7.15,7.15,0,0,1-2.31,5.76l2.65,8.89h-3.66l-2.22-7.64h-0.65v7.64h-3.44V656.36Zm3.61,10.83c1.49,0,2.59-1,2.59-3.54v-0.25c0-2.75-1.18-3.47-2.68-3.47h-0.08v7.26h0.17Z" transform="translate(-79.06 -104.2)"/><path class="cls-4" d="M704.38,656.3H708l3.75,22h-3.44l-0.65-4.35h-3.13L704,678.27h-3.32Zm2.82,14.18-1-7.23-1.07,7.23h2.11Z" transform="translate(-79.06 -104.2)"/><path class="cls-4" d="M712.27,656.36h3.21l3.46,11.08V656.36h3.35v21.91h-3l-3.63-11.61v11.61h-3.35V656.36Z" transform="translate(-79.06 -104.2)"/><path class="cls-4" d="M723.79,656.36H727c4.39,0,6.9,3.54,6.9,10.58v0.75c0,7-2.51,10.58-6.9,10.58h-3.21V656.36Zm3.58,18.4c1.63,0,3-1.6,3-7.07v-0.75c0-5.48-1.41-7.07-3-7.07h-0.14v14.9h0.14Z" transform="translate(-79.06 -104.2)"/><path class="cls-4" d="M629.45,687.23h3.06c4.19,0,6.58,3.37,6.58,10.09V698c0,6.71-2.39,10.09-6.58,10.09h-3.06V687.23Zm3.41,17.55c1.56,0,2.9-1.52,2.9-6.75v-0.72c0-5.22-1.34-6.75-2.9-6.75h-0.13v14.21h0.13Z" transform="translate(-79.06 -104.2)"/><path class="cls-4" d="M640.25,687.23h3.28v20.89h-3.28V687.23Z" transform="translate(-79.06 -104.2)"/><path class="cls-4" d="M644.57,707.41v-3.79a5.68,5.68,0,0,0,3,1.16,1.62,1.62,0,0,0,1.75-1.79v-0.06c0-1-.27-1.67-1.83-3.64-2.23-2.81-3.14-4.15-3.14-6.69v-0.06c0-3.34,2-5.46,4.57-5.46a5.43,5.43,0,0,1,2.9.66v3.79a4.35,4.35,0,0,0-2.5-1,1.67,1.67,0,0,0-1.69,1.79v0.06c0,1,.27,1.34,1.83,3.34,2.58,3.31,3.14,4.6,3.14,7v0.06c0,3.28-2.07,5.46-4.65,5.46A6.91,6.91,0,0,1,644.57,707.41Z" transform="translate(-79.06 -104.2)"/><path class="cls-4" d="M652.74,698v-0.72c0-7.34,2.45-10.24,5.51-10.24a4.15,4.15,0,0,1,2.15.48v3.76a3.23,3.23,0,0,0-1.83-.69c-1.45,0-2.5,1.43-2.5,6.66v0.78c0,5.52,1,6.66,2.55,6.66a3.45,3.45,0,0,0,1.83-.66v3.58a4.18,4.18,0,0,1-2.42.63C655,708.27,652.74,705.32,652.74,698Z" transform="translate(-79.06 -104.2)"/><path class="cls-4" d="M664.19,687.17h3.49l3.57,21H668L667.36,704h-3l-0.59,4.15h-3.17Zm2.69,13.52-1-6.89-1,6.89h2Z" transform="translate(-79.06 -104.2)"/><path class="cls-4" d="M671.74,687.23h3.39c3.36,0,5.8,2,5.8,6.66v0.27a6.82,6.82,0,0,1-2.2,5.49l2.53,8.48h-3.49l-2.12-7.28H675v7.28h-3.28V687.23Zm3.44,10.33c1.42,0,2.47-.92,2.47-3.37v-0.24c0-2.63-1.13-3.31-2.55-3.31H675v6.92h0.16Z" transform="translate(-79.06 -104.2)"/><path class="cls-4" d="M681.92,687.23H685c4.19,0,6.58,3.37,6.58,10.09V698c0,6.71-2.39,10.09-6.58,10.09h-3.06V687.23Zm3.41,17.55c1.56,0,2.9-1.52,2.9-6.75v-0.72c0-5.22-1.34-6.75-2.9-6.75H685.2v14.21h0.13Z" transform="translate(-79.06 -104.2)"/><path class="cls-4" d="M700,690.9h-4.17v-3.67h7.31v2.57l-3.25,18.33h-3.2Z" transform="translate(-79.06 -104.2)"/><path class="cls-4" d="M704.08,707.77v-3.55a4.54,4.54,0,0,0,2.15.63c1.53,0,2.39-1.4,2.39-3.61V701c0-2.21-.73-3-1.8-3a2.83,2.83,0,0,0-1.29.3l-1.59-1.16,0.51-9.94h6.69v3.46h-4.27l-0.24,4.18a4.82,4.82,0,0,1,1.26-.15c2,0,4,1.61,4,6.27v0.27c0,4.51-2.15,7.07-5.27,7.07A6.07,6.07,0,0,1,704.08,707.77Z" transform="translate(-79.06 -104.2)"/><path class="cls-4" d="M712.63,692.13h3.17V694c0.64-1.34,1.37-2.18,2.55-2.18a2.7,2.7,0,0,1,2.42,1.85,3.27,3.27,0,0,1,2.58-1.85c1.53,0,3,1.43,3,4.24v12.06h-3.17V696.84c0-1.16-.38-1.85-1-1.85s-1.08.69-1.08,1.85v11.28h-3.17V696.84c0-1.16-.38-1.85-1-1.85s-1.07.69-1.07,1.85v11.28h-3.17v-16Z" transform="translate(-79.06 -104.2)"/><path class="cls-4" d="M727.67,687.23h3.28v17.43h3.47v3.46h-6.74V687.23Z" transform="translate(-79.06 -104.2)"/><path class="cls-4" d="M238.31,242.56l-3.79,1.21v-6.47l5.68-1.79h4.58V272.6h-6.47v-30Z" transform="translate(-79.06 -104.2)"/><path class="cls-4" d="M247,272v-6.26a9.63,9.63,0,0,0,4.21,1.1c3,0,4.68-2.47,4.68-6.37v-0.37c0-3.89-1.42-5.26-3.52-5.26a6,6,0,0,0-2.53.53l-3.1-2.05,1-17.52h13.1v6.1h-8.37L252,249.24a10.46,10.46,0,0,1,2.47-.26c3.89,0,7.73,2.84,7.73,11v0.47c0,7.94-4.21,12.47-10.31,12.47A13,13,0,0,1,247,272Z" transform="translate(-79.06 -104.2)"/><path class="cls-4" d="M262.94,255.18v-2c0-12.73,3.16-17.94,9.1-17.94s9.1,5.21,9.1,17.94v2c0,12.73-3.26,17.94-9.1,17.94S262.94,267.91,262.94,255.18Zm11.84-.05v-1.89c0-10.42-1.26-12.1-2.74-12.1s-2.79,1.68-2.79,12.1v1.89c0,10.42,1.26,12.1,2.79,12.1S274.77,265.55,274.77,255.13Z" transform="translate(-79.06 -104.2)"/><path class="cls-4" d="M237.41,288.92h6.21v3.31c1.26-2.37,2.68-3.84,5-3.84s3.74,1.42,4.74,3.26c1.1-1.53,2.63-3.26,5.05-3.26,3,0,5.84,2.53,5.84,7.47v21.26H258V297.23c0-2.05-.74-3.26-2-3.26s-2.1,1.21-2.1,3.26v19.89h-6.21V297.23c0-2.05-.74-3.26-2-3.26s-2.1,1.21-2.1,3.26v19.89h-6.21v-28.2Z" transform="translate(-79.06 -104.2)"/><path class="cls-4" d="M266.61,280.29H273V311h6.79v6.1H266.61V280.29Z" transform="translate(-79.06 -104.2)"/><path class="cls-4" d="M183.2,647.16l-3.79,1.21V641.9l5.68-1.79h4.58V677.2H183.2v-30Z" transform="translate(-79.06 -104.2)"/><path class="cls-4" d="M191.89,676.57v-6.26a9.64,9.64,0,0,0,4.21,1.1c3,0,4.68-2.47,4.68-6.37v-0.37c0-3.89-1.42-5.26-3.52-5.26a6.06,6.06,0,0,0-2.53.53l-3.1-2.05,1-17.52h13.1v6.1h-8.37l-0.47,7.37a10.47,10.47,0,0,1,2.47-.26c3.89,0,7.73,2.84,7.73,11v0.47c0,7.95-4.21,12.47-10.31,12.47A13,13,0,0,1,191.89,676.57Z" transform="translate(-79.06 -104.2)"/><path class="cls-4" d="M207.83,659.78v-2c0-12.73,3.16-17.94,9.1-17.94s9.1,5.21,9.1,17.94v2c0,12.73-3.26,17.94-9.1,17.94S207.83,672.51,207.83,659.78Zm11.84-.05v-1.89c0-10.42-1.26-12.1-2.74-12.1s-2.79,1.68-2.79,12.1v1.89c0,10.42,1.26,12.1,2.79,12.1S219.67,670.15,219.67,659.73Z" transform="translate(-79.06 -104.2)"/><path class="cls-4" d="M182.3,693.52h6.21v3.31c1.26-2.37,2.68-3.84,5-3.84s3.74,1.42,4.74,3.26c1.1-1.53,2.63-3.26,5.05-3.26,3,0,5.84,2.53,5.84,7.47v21.25h-6.21V701.84c0-2.05-.74-3.26-2-3.26s-2.1,1.21-2.1,3.26v19.89h-6.21V701.84c0-2.05-.74-3.26-2-3.26s-2.1,1.21-2.1,3.26v19.89H182.3v-28.2Z" transform="translate(-79.06 -104.2)"/><path class="cls-4" d="M211.51,684.89h6.42v30.73h6.79v6.1H211.51V684.89Z" transform="translate(-79.06 -104.2)"/><path class="cls-4" d="M630.78,238.1L627,239.31v-6.47l5.68-1.79h4.58v37.09h-6.47v-30Z" transform="translate(-79.06 -104.2)"/><path class="cls-4" d="M639.46,267.51v-6.26a9.63,9.63,0,0,0,4.21,1.1c3,0,4.68-2.47,4.68-6.37v-0.37c0-3.89-1.42-5.26-3.52-5.26a6,6,0,0,0-2.53.53l-3.1-2.05,1-17.52h13.1v6.1h-8.37l-0.47,7.37a10.46,10.46,0,0,1,2.47-.26c3.89,0,7.73,2.84,7.73,11V256c0,7.94-4.21,12.47-10.31,12.47A13,13,0,0,1,639.46,267.51Z" transform="translate(-79.06 -104.2)"/><path class="cls-4" d="M655.41,250.73v-2c0-12.73,3.16-17.94,9.1-17.94s9.1,5.21,9.1,17.94v2c0,12.73-3.26,17.94-9.1,17.94S655.41,263.46,655.41,250.73Zm11.84-.05v-1.89c0-10.42-1.26-12.1-2.74-12.1s-2.79,1.68-2.79,12.1v1.89c0,10.42,1.26,12.1,2.79,12.1S667.24,261.09,667.24,250.68Z" transform="translate(-79.06 -104.2)"/><path class="cls-4" d="M629.85,284.45h6.21v3.31c1.26-2.37,2.68-3.84,5-3.84s3.74,1.42,4.74,3.26c1.1-1.53,2.63-3.26,5.05-3.26,3,0,5.84,2.53,5.84,7.47v21.26h-6.21V292.76c0-2.05-.74-3.26-2-3.26s-2.1,1.21-2.1,3.26v19.89h-6.21V292.76c0-2.05-.74-3.26-2-3.26s-2.1,1.21-2.1,3.26v19.89h-6.21v-28.2Z" transform="translate(-79.06 -104.2)"/><path class="cls-4" d="M659.06,275.82h6.42v30.73h6.79v6.1H659.06V275.82Z" transform="translate(-79.06 -104.2)"/><path class="cls-4" d="M1053.34,238.09l-3.79,1.21v-6.47l5.68-1.79h4.58v37.09h-6.47v-30Z" transform="translate(-79.06 -104.2)"/><path class="cls-4" d="M1062,267.5v-6.26a9.63,9.63,0,0,0,4.21,1.1c3,0,4.68-2.47,4.68-6.37v-0.37c0-3.89-1.42-5.26-3.52-5.26a6,6,0,0,0-2.53.53l-3.1-2.05,1-17.52h13.1v6.1h-8.37l-0.47,7.37a10.44,10.44,0,0,1,2.47-.26c3.89,0,7.73,2.84,7.73,11V256c0,7.94-4.21,12.47-10.31,12.47A13,13,0,0,1,1062,267.5Z" transform="translate(-79.06 -104.2)"/><path class="cls-4" d="M1078,250.72v-2c0-12.73,3.16-17.94,9.1-17.94s9.1,5.21,9.1,17.94v2c0,12.73-3.26,17.94-9.1,17.94S1078,263.45,1078,250.72Zm11.84-.05v-1.89c0-10.42-1.26-12.1-2.74-12.1s-2.79,1.68-2.79,12.1v1.89c0,10.42,1.26,12.1,2.79,12.1S1089.8,261.08,1089.8,250.67Z" transform="translate(-79.06 -104.2)"/><path class="cls-4" d="M1052.44,284.45h6.21v3.31c1.26-2.37,2.68-3.84,5-3.84s3.74,1.42,4.74,3.26c1.1-1.53,2.63-3.26,5.05-3.26,3,0,5.84,2.53,5.84,7.47v21.26h-6.21V292.76c0-2.05-.74-3.26-2-3.26s-2.1,1.21-2.1,3.26v19.89h-6.21V292.76c0-2.05-.74-3.26-2-3.26s-2.1,1.21-2.1,3.26v19.89h-6.21v-28.2Z" transform="translate(-79.06 -104.2)"/><path class="cls-4" d="M1081.64,275.82h6.42v30.73h6.79v6.1h-13.21V275.82Z" transform="translate(-79.06 -104.2)"/><path class="cls-4" d="M1075,649.1h-8.16v-6.47h14.31v4.52l-6.37,32.3h-6.26Z" transform="translate(-79.06 -104.2)"/><path class="cls-4" d="M1082.06,678.83v-6.26a9.64,9.64,0,0,0,4.21,1.1c3,0,4.68-2.47,4.68-6.37v-0.37c0-3.89-1.42-5.26-3.52-5.26a6.06,6.06,0,0,0-2.53.53l-3.1-2.05,1-17.52h13.1v6.1h-8.37l-0.47,7.37a10.47,10.47,0,0,1,2.47-.26c3.89,0,7.73,2.84,7.73,11v0.47c0,7.95-4.21,12.47-10.31,12.47A13,13,0,0,1,1082.06,678.83Z" transform="translate(-79.06 -104.2)"/><path class="cls-4" d="M1061.38,695.76h6.21v3.31c1.26-2.37,2.68-3.84,5-3.84s3.74,1.42,4.74,3.26c1.1-1.53,2.63-3.26,5.05-3.26,3,0,5.84,2.53,5.84,7.47V724H1082V704.07c0-2.05-.74-3.26-2-3.26s-2.1,1.21-2.1,3.26V724h-6.21V704.07c0-2.05-.74-3.26-2-3.26s-2.1,1.21-2.1,3.26V724h-6.21v-28.2Z" transform="translate(-79.06 -104.2)"/><path class="cls-4" d="M1090.58,687.13H1097v30.72h6.79V724h-13.21V687.13Z" transform="translate(-79.06 -104.2)"/><path class="cls-4" d="M830.27,646.31l-6.68-4.68,3.71-5.3L839,644.54l-2.6,3.71-23.74,22.81-5.13-3.59Z" transform="translate(-79.06 -104.2)"/><path class="cls-4" d="M819,674.71l3.59-5.13a9.63,9.63,0,0,0,2.81,3.32c2.46,1.72,5.25.66,7.49-2.53l0.21-.3c2.23-3.19,1.85-5.12.13-6.33a6,6,0,0,0-2.37-1l-1.37-3.46,10.87-13.78L851.09,653l-3.5,5-6.85-4.8L836.13,659a10.45,10.45,0,0,1,2.18,1.2c3.19,2.23,4.71,6.76,0,13.49L838,674c-4.56,6.51-10.6,7.8-15.6,4.3A13,13,0,0,1,819,674.71Z" transform="translate(-79.06 -104.2)"/><path class="cls-4" d="M792.34,676.74l5.08,3.56-1.9,2.71c2.39-1.21,4.4-1.61,6.3-.28s2.25,3.31,2,5.39c1.78-.62,4-1.16,6,0.22,2.46,1.72,3.34,5.42.5,9.47l-12.19,17.41-5.09-3.56,11.41-16.29c1.18-1.68,1.27-3.09.23-3.82s-2.42-.22-3.59,1.47l-11.41,16.29-5.09-3.56L796,689.46c1.18-1.68,1.27-3.09.23-3.82s-2.42-.22-3.6,1.46L781.24,703.4l-5.08-3.56Z" transform="translate(-79.06 -104.2)"/><path class="cls-4" d="M821.2,686.42l5.26,3.68-17.62,25.17,5.56,3.89-3.5,5-10.82-7.57Z" transform="translate(-79.06 -104.2)"/><path class="cls-4" d="M1130.52,156.79l-2.41-5.61a8.84,8.84,0,0,0,4.22-.73c2.13-.92,3-3.42,1.73-6.41l-0.17-.39c-1.52-3.53-4.23-4.08-7.55-2.94l-1.66-3.87,1.29-10.69-6.88,3-2.47-5.75,12.27-5.27,2.26,5.27-1.38,11c3.59-.17,6.85,1.29,9.15,6.66l0.23,0.53c2.85,6.62,1.06,12.2-3.72,14.25A11.29,11.29,0,0,1,1130.52,156.79Z" transform="translate(-79.06 -104.2)"/><path class="cls-4" d="M1135,124.88l5.14-2.21,1.31,3c0.11-2.62.7-4.48,2.62-5.31s3.65,0,5.21,1.31c0.31-1.79.89-3.93,2.89-4.79,2.48-1.07,5.83.25,7.78,4.79l8.39,19.53-5.13,2.21-7.85-18.27c-0.81-1.89-1.89-2.74-2.94-2.29s-1.26,1.86-.45,3.74l7.85,18.27-5.13,2.21-7.85-18.27c-0.81-1.89-1.89-2.74-2.94-2.29s-1.26,1.86-.45,3.75l7.85,18.27-5.13,2.21Z" transform="translate(-79.06 -104.2)"/><path class="cls-4" d="M1155.91,106.48l5.31-2.28,12.13,28.23L1179,130l2.41,5.61-10.92,4.69Z" transform="translate(-79.06 -104.2)"/><path class="cls-4" d="M1139.1,567.63l-2.41-5.61a8.84,8.84,0,0,0,4.22-.73c2.13-.92,3-3.41,1.73-6.41l-0.17-.39c-1.52-3.53-4.23-4.08-7.55-2.94l-1.66-3.87,1.28-10.69-6.87,3-2.47-5.75,12.27-5.27,2.26,5.27-1.37,11c3.59-.17,6.84,1.3,9.15,6.66l0.23,0.53c2.84,6.62,1.06,12.2-3.72,14.25A11.29,11.29,0,0,1,1139.1,567.63Z" transform="translate(-79.06 -104.2)"/><path class="cls-4" d="M1143.53,535.72l5.13-2.21,1.31,3c0.11-2.62.7-4.48,2.62-5.31s3.65,0,5.2,1.32c0.31-1.79.89-3.93,2.89-4.79,2.48-1.07,5.83.25,7.78,4.79l8.39,19.53-5.13,2.21L1163.87,536c-0.81-1.88-1.9-2.73-2.94-2.29s-1.26,1.86-.45,3.74l7.85,18.27-5.13,2.21-7.85-18.27c-0.81-1.88-1.9-2.73-2.94-2.29s-1.26,1.86-.45,3.74l7.85,18.27-5.13,2.21Z" transform="translate(-79.06 -104.2)"/><path class="cls-4" d="M1164.49,517.32l5.31-2.28,12.13,28.23,5.61-2.41,2.41,5.61L1179,551.16Z" transform="translate(-79.06 -104.2)"/><path class="cls-4" d="M477.25,647.16l-3.79,1.21V641.9l5.68-1.79h4.58V677.2h-6.47v-30Z" transform="translate(-79.06 -104.2)"/><path class="cls-4" d="M485.93,676.57v-6.26a9.64,9.64,0,0,0,4.21,1.1c3,0,4.68-2.47,4.68-6.37v-0.37c0-3.89-1.42-5.26-3.52-5.26a6.06,6.06,0,0,0-2.53.53l-3.1-2.05,1-17.52h13.1v6.1H491.4l-0.47,7.37a10.47,10.47,0,0,1,2.47-.26c3.89,0,7.73,2.84,7.73,11v0.47c0,7.95-4.21,12.47-10.31,12.47A13,13,0,0,1,485.93,676.57Z" transform="translate(-79.06 -104.2)"/><path class="cls-4" d="M501.87,659.78v-2c0-12.73,3.16-17.94,9.1-17.94s9.1,5.21,9.1,17.94v2c0,12.73-3.26,17.94-9.1,17.94S501.87,672.51,501.87,659.78Zm11.84-.05v-1.89c0-10.42-1.26-12.1-2.74-12.1s-2.79,1.68-2.79,12.1v1.89c0,10.42,1.26,12.1,2.79,12.1S513.71,670.15,513.71,659.73Z" transform="translate(-79.06 -104.2)"/><path class="cls-4" d="M476.35,693.52h6.21v3.31c1.26-2.37,2.68-3.84,5-3.84s3.74,1.42,4.74,3.26c1.1-1.53,2.63-3.26,5.05-3.26,3,0,5.84,2.53,5.84,7.47v21.25H497V701.84c0-2.05-.74-3.26-2-3.26s-2.1,1.21-2.1,3.26v19.89h-6.21V701.84c0-2.05-.74-3.26-2-3.26s-2.1,1.21-2.1,3.26v19.89h-6.21v-28.2Z" transform="translate(-79.06 -104.2)"/><path class="cls-4" d="M505.55,684.89H512v30.73h6.79v6.1H505.55V684.89Z" transform="translate(-79.06 -104.2)"/></g></svg>