<?xml version="1.0" encoding="utf-8"?>
<!-- Generator: Adobe Illustrator 19.2.1, SVG Export Plug-In . SVG Version: 6.00 Build 0)  -->
<svg version="1.1" id="Layer_1" xmlns="http://www.w3.org/2000/svg" xmlns:xlink="http://www.w3.org/1999/xlink" x="0px" y="0px"
	 viewBox="0 0 1528.8 220.1" style="enable-background:new 0 0 1528.8 220.1;" xml:space="preserve">
<style type="text/css">
	.st0{clip-path:url(#SVGID_2_);}
	.st1{opacity:0.89;clip-path:url(#SVGID_4_);}
	.st2{clip-path:url(#SVGID_6_);fill:#A9B7B0;}
	.st3{clip-path:url(#SVGID_8_);fill:#A9B7B0;}
</style>
<title>header2</title>
<metadata><?xpacket begin="﻿" id="W5M0MpCehiHzreSzNTczkc9d"?>
<x:xmpmeta xmlns:x="adobe:ns:meta/" x:xmptk="Adobe XMP Core 5.6-c111 79.158366, 2015/09/25-01:12:00        ">
   <rdf:RDF xmlns:rdf="http://www.w3.org/1999/02/22-rdf-syntax-ns#">
      <rdf:Description rdf:about=""
            xmlns:dc="http://purl.org/dc/elements/1.1/">
         <dc:title>
            <rdf:Alt>
               <rdf:li xml:lang="x-default">header2</rdf:li>
            </rdf:Alt>
         </dc:title>
      </rdf:Description>
   </rdf:RDF>
</x:xmpmeta>
                                                                                                    
                                                                                                    
                                                                                                    
                                                                                                    
                                                                                                    
                                                                                                    
                                                                                                    
                                                                                                    
                                                                                                    
                                                                                                    
                                                                                                    
                                                                                                    
                                                                                                    
                                                                                                    
                                                                                                    
                                                                                                    
                                                                                                    
                                                                                                    
                                                                                                    
                                                                                                    
                           
<?xpacket end="w"?></metadata>
<g>
	<defs>
		<rect id="SVGID_1_" x="229.2" y="27.5" width="1139.1" height="161.2"/>
	</defs>
	<clipPath id="SVGID_2_">
		<use xlink:href="#SVGID_1_"  style="overflow:visible;"/>
	</clipPath>
	<g class="st0">
		<defs>
			<rect id="SVGID_3_" x="229.2" y="27.5" width="1139.1" height="161.2"/>
		</defs>
		<clipPath id="SVGID_4_">
			<use xlink:href="#SVGID_3_"  style="overflow:visible;"/>
		</clipPath>
		<g class="st1">
			<g>
				<defs>
					<rect id="SVGID_5_" x="300.8" y="99.4" width="997.3" height="107.2"/>
				</defs>
				<clipPath id="SVGID_6_">
					<use xlink:href="#SVGID_5_"  style="overflow:visible;"/>
				</clipPath>
				<path class="st2" d="M1279,122.6c0.6,0.2,1.6,0.4,2.5,0.4c3.9-0.1,6.3-3.1,7.3-8.8c0.8-4.5,0-7.3-3.3-7.2
					c-2.5,0.1-4.8,1.9-5.4,5.3c-0.4,2.5,0.6,4.8,3.2,4.8c1.4,0,2.7-0.8,3.4-2l0,0c-0.6,3.7-2.5,6.3-5.1,6.4c-0.8,0-1.7-0.2-2.3-0.6
					L1279,122.6z M1282.1,112c0.3-1.7,1.4-3.5,3.1-3.5c1.7-0.1,2.2,1.6,1.9,3.4c-0.3,1.7-1.4,3.4-3.1,3.5
					C1282.3,115.4,1281.8,113.7,1282.1,112 M1272.2,125.8l1.7-0.1l2.4-5.3l-2.1,0.1L1272.2,125.8z M1262.9,119.3
					c-0.4,2.4,1,4.2,3.8,4.1c2.8-0.1,4.9-2,5.3-4.4c0.3-2-0.6-3.2-2.2-3.9c2-1,3-2.6,3.3-4c0.3-1.9-0.8-3.8-3.5-3.7
					c-2.7,0.1-4.5,2-4.9,4c-0.2,1.3,0.2,2.9,1.9,3.8C1264.7,116,1263.3,117.3,1262.9,119.3 M1265,119c0.2-1.2,0.8-2,3-3.2
					c1.8,0.8,2.4,1.7,2.1,3.1c-0.3,1.6-1.5,2.8-2.9,2.8C1265.4,121.9,1264.7,120.6,1265,119 M1266.6,111.5c0.2-1.3,1.4-2.4,2.7-2.4
					c1.3,0,2.1,1,1.9,2.1c-0.2,1.2-1.2,2.3-2.6,3.2C1266.8,113.6,1266.4,112.5,1266.6,111.5 M1237.6,133l6.6-14.2l0.4,0l1.7,13.9
					L1237.6,133z M1253.2,109.2l-14.2,0.5l-17.7,37.9l-4.5,0.2l-1.6,9.4l18.6-0.6l1.6-9.4l-4.4,0.2l2.2-4.7l14.4-0.5l0.6,4.6
					l-4.4,0.2l-1.6,9.4l18.6-0.6l1.6-9.4l-4.5,0.2L1253.2,109.2z M1231.2,137.4l20.1-0.7l-2.8-22.3l-6.6,0.2L1231.2,137.4z
					 M1249.3,113.5l4.6,37.1l3.5-0.1l-0.2,0.9l-10.2,0.4l0.2-0.9l5.8-0.2l-1.6-13l-20.6,0.7l-6.2,13.3l5.8-0.2l-0.2,0.9l-10.2,0.4
					l0.2-0.9l3.4-0.1l17.7-37.9L1249.3,113.5z M1189.7,131.9l2-11.2l7.9-0.3c1.6-0.1,2.8,0.4,3.7,1.5c0.9,1.1,1.2,2.4,0.9,3.9
					c-0.3,1.6-1,2.9-2.3,4c-1.3,1.1-2.7,1.7-4.2,1.8L1189.7,131.9z M1208.3,121.9c-0.3-1.2-0.8-2.2-1.5-3.1c-0.7-0.9-1.6-1.5-2.8-2
					c-1.1-0.5-2.3-0.7-3.7-0.6l-12.1,0.4l-3.4,19.7l12.1-0.4c1.3,0,2.6-0.3,3.9-0.9c1.3-0.6,2.4-1.3,3.5-2.2c1-0.9,1.9-2,2.6-3.2
					c0.7-1.2,1.2-2.5,1.4-3.8C1208.6,124.3,1208.6,123.1,1208.3,121.9 M1209.2,153.1l-10.2,0.4l0.2-0.9l6.8-0.2l-6.4-15.9
					c-0.4,0.1-0.8,0.3-1.4,0.3c-0.6,0.1-1.1,0.1-1.6,0.1l-11.9,0.4l-2.8,15.9l4.7-0.2l-0.2,0.9l-10.2,0.4l0.2-0.9l4.7-0.2l6.4-36.6
					l-4.7,0.2l0.2-0.9l17.9-0.6c1.5-0.1,2.8,0.2,3.9,0.7c1.2,0.5,2.1,1.3,2.9,2.2c0.8,0.9,1.3,2.1,1.7,3.3c0.3,1.3,0.4,2.6,0.1,4.1
					c-0.3,1.7-0.9,3.2-1.8,4.7c-0.9,1.5-2.1,2.7-3.6,3.8l-0.5,0.4c-0.6,0.4-1.2,0.7-1.9,1.1c-0.3,0.2-0.7,0.3-0.9,0.4l6.5,16.2
					l2.3-0.1L1209.2,153.1z M1210.2,148l-4.3-10.6c1.9-1.5,3.6-3.3,5-5.3c1.4-2,2.3-4.2,2.7-6.6c0.4-2.1,0.3-4-0.1-5.8
					c-0.5-1.8-1.2-3.3-2.3-4.6c-1.1-1.3-2.5-2.3-4.1-3.1c-1.6-0.7-3.5-1.1-5.5-1.1l-22.1,0.8l-1.6,9.4l4.7-0.2l-4.9,28.1l-4.7,0.2
					l-1.6,9.4l18.6-0.6l1.6-9.4l-4.7,0.2l1.3-7.5l8.4-0.3l2.9,7.3l-3.8,0.1l-1.6,9.4l18.6-0.6l1.6-9.4L1210.2,148z M1153.2,117.8
					l-3.1,17.8l9.3-0.3l-0.2,0.9l-9.3,0.3l-3.1,17.8l17.7-0.6l0.8-4.7l0.9,0l-1,5.6l-24.2,0.8l0.2-0.9l4.7-0.2l6.4-36.6l-4.7,0.2
					l0.2-0.9l24.2-0.8l-1,5.6l-0.9,0l0.8-4.7L1153.2,117.8z M1174.4,125.9l2.5-14.1l-32.6,1.1l-1.6,9.4l4.7-0.2l-4.9,28.1l-4.7,0.2
					l-1.6,9.4l32.6-1.1l2.5-14.1l-9.3,0.3l-0.8,4.7l-9.3,0.3l1.6-9.4l9.3-0.3l1.6-9.4l-9.3,0.3l1.6-9.4l9.3-0.3l-0.8,4.7
					L1174.4,125.9z M1130.2,155.9l-24.2,0.8l0.2-0.9l4.7-0.2l6.4-36.6l-4.7,0.2l0.2-0.9l10.2-0.4l-0.2,0.9l-4.7,0.2l-6.4,36.6
					l17.7-0.6l0.8-4.7l0.9,0L1130.2,155.9z M1126.8,146.2l-0.8,4.7l-9.3,0.3l4.9-28.1l4.7-0.2l1.6-9.4l-18.6,0.6l-1.6,9.4l4.7-0.2
					l-4.9,28.1l-4.7,0.2l-1.6,9.4l32.6-1.1l2.5-14.1L1126.8,146.2z M1077.2,152.6c-1.3,0-2.3-0.4-3-1.3c-0.7-0.9-1-2-0.8-3.3
					l3.3-18.7c0.2-1.3,0.9-2.4,1.9-3.4c1.1-0.9,2.2-1.4,3.5-1.5l9.3-0.3c1.3,0,2.3,0.4,3.1,1.3c0.7,0.9,1,2,0.8,3.3l-3.3,18.7
					c-0.2,1.3-0.9,2.4-1.9,3.4c-1.1,0.9-2.2,1.4-3.5,1.5L1077.2,152.6z M1083.7,115.1c-2,0.1-3.8,0.5-5.6,1.3
					c-1.8,0.8-3.5,1.9-4.9,3.2c-1.5,1.3-2.7,2.8-3.8,4.6c-1,1.7-1.7,3.6-2.1,5.5l-3.3,18.7c-0.3,2-0.3,3.8,0.1,5.5
					c0.4,1.7,1.2,3.1,2.2,4.3c1,1.2,2.3,2.2,3.9,2.9c1.6,0.7,3.3,1,5.3,0.9l9.3-0.3c1.9-0.1,3.8-0.5,5.6-1.3c1.8-0.8,3.5-1.9,5-3.2
					c1.5-1.3,2.7-2.8,3.8-4.6c1-1.7,1.7-3.6,2.1-5.5l3.3-18.7c0.3-1.9,0.3-3.7-0.1-5.4c-0.4-1.7-1.2-3.2-2.2-4.4
					c-1-1.2-2.3-2.2-3.9-2.9c-1.6-0.7-3.3-1-5.2-0.9L1083.7,115.1z M1085.7,156.5c1.2,0,2.4-0.3,3.5-0.8c1.2-0.5,2.2-1.2,3.2-2
					c0.9-0.8,1.7-1.8,2.4-2.9c0.7-1.1,1.1-2.3,1.3-3.5l3.3-18.7c0.2-1.2,0.2-2.3-0.1-3.4c-0.3-1.1-0.7-2-1.4-2.8
					c-0.7-0.8-1.5-1.4-2.5-1.8c-1-0.4-2.1-0.6-3.3-0.6l-9.3,0.3c-1.2,0-2.4,0.3-3.5,0.8c-1.2,0.5-2.2,1.2-3.2,2
					c-0.9,0.8-1.7,1.8-2.4,2.9c-0.7,1.1-1.1,2.3-1.3,3.5l-3.3,18.7c-0.2,1.2-0.2,2.3,0.1,3.4c0.3,1.1,0.7,2,1.4,2.8
					c0.7,0.8,1.5,1.4,2.5,1.8c1,0.4,2.1,0.6,3.3,0.6L1085.7,156.5z M1092.3,119c1.3,0,2.5,0.2,3.7,0.6c1.1,0.5,2,1.1,2.8,2
					c0.7,0.9,1.2,1.9,1.5,3.1s0.3,2.5,0.1,3.8l-3.3,18.7c-0.2,1.3-0.7,2.6-1.4,3.8c-0.7,1.2-1.6,2.3-2.6,3.2c-1,0.9-2.2,1.7-3.5,2.2
					c-1.3,0.6-2.6,0.9-3.9,0.9l-9.3,0.3c-1.3,0-2.5-0.2-3.7-0.6c-1.1-0.5-2-1.1-2.8-2c-0.7-0.9-1.2-1.9-1.5-3.1
					c-0.3-1.2-0.3-2.5-0.1-3.8l3.3-18.7c0.2-1.3,0.7-2.6,1.4-3.8c0.7-1.2,1.6-2.3,2.6-3.2c1-0.9,2.2-1.7,3.5-2.2
					c1.3-0.6,2.6-0.9,3.9-0.9L1092.3,119z M1057.7,121.1l-6.4,36.6l4.7-0.2l-0.2,0.9l-10.2,0.4l0.2-0.9l4.7-0.2l3.1-17.8l-21.9,0.8
					l-3.1,17.8l4.7-0.2l-0.2,0.9l-10.2,0.4l0.2-0.9l4.7-0.2l6.4-36.6l-4.7,0.2l0.2-0.9l10.2-0.4l-0.2,0.9l-4.7,0.2l-3.1,17.8
					l21.9-0.8l3.1-17.8l-4.7,0.2l0.2-0.9l10.2-0.4l-0.2,0.9L1057.7,121.1z M1065.8,125.1l1.6-9.4l-18.6,0.6l-1.6,9.4l4.7-0.2
					l-1.6,9.4l-13.5,0.5l1.6-9.4l4.7-0.2l1.6-9.4l-18.6,0.6l-1.6,9.4l4.7-0.2l-4.9,28.1l-4.7,0.2l-1.6,9.4l18.6-0.6l1.6-9.4
					l-4.7,0.2l1.6-9.4l13.5-0.5l-1.6,9.4l-4.7,0.2l-1.6,9.4l18.6-0.6l1.6-9.4l-4.7,0.2l4.9-28.1L1065.8,125.1z M1000.7,118
					c-2,0.1-3.8,0.5-5.6,1.3c-1.8,0.8-3.5,1.9-4.9,3.2c-1.5,1.3-2.7,2.8-3.8,4.6c-1,1.7-1.7,3.6-2.1,5.5l-3.3,18.7
					c-0.3,2-0.3,3.8,0.1,5.5c0.4,1.7,1.2,3.1,2.2,4.3c1,1.2,2.3,2.2,3.9,2.9c1.6,0.7,3.3,1,5.3,0.9l9.3-0.3c1.9-0.1,3.8-0.5,5.6-1.3
					c1.8-0.8,3.5-1.9,5-3.2c1.5-1.3,2.7-2.8,3.8-4.6c1-1.7,1.7-3.6,2.1-5.5l0.4-2.3l-9.3,0.3l-0.4,2.3c-0.2,1.3-0.9,2.4-1.9,3.4
					c-1.1,0.9-2.2,1.4-3.5,1.5l-9.3,0.3c-1.3,0-2.3-0.4-3-1.3c-0.7-0.9-1-2-0.8-3.3l3.3-18.7c0.2-1.3,0.9-2.4,1.9-3.4
					c1.1-0.9,2.2-1.4,3.5-1.5l9.3-0.3c1.3,0,2.3,0.4,3,1.3c0.7,0.9,1,2,0.8,3.3l-0.4,2.3l9.3-0.3l0.4-2.3c0.3-1.9,0.3-3.7-0.1-5.4
					c-0.4-1.7-1.2-3.2-2.2-4.4c-1-1.2-2.3-2.2-3.9-2.9c-1.6-0.7-3.3-1-5.2-0.9L1000.7,118z M1009.3,121.9c1.2,0,2.3,0.1,3.3,0.5
					c1,0.4,1.8,0.9,2.6,1.6c0.7,0.7,1.3,1.5,1.7,2.5c0.4,1,0.6,2,0.6,3.1l-0.9,0c-0.1-2-0.8-3.6-2.2-4.9c-1.4-1.3-3.1-1.9-5.2-1.8
					l-9.3,0.3c-1.2,0-2.4,0.3-3.5,0.8c-1.2,0.5-2.2,1.2-3.2,2c-0.9,0.8-1.7,1.8-2.4,2.9c-0.7,1.1-1.1,2.3-1.3,3.5l-3.3,18.7
					c-0.2,1.2-0.2,2.3,0.1,3.4c0.3,1.1,0.7,2,1.4,2.8c0.7,0.8,1.5,1.4,2.5,1.8c1,0.4,2.1,0.6,3.3,0.6l9.3-0.3
					c2.1-0.1,4.1-0.8,5.9-2.2c1.8-1.4,3.1-3.1,3.9-5.1l0.9,0c-0.4,1.2-1,2.2-1.8,3.2c-0.7,1-1.6,1.8-2.6,2.6c-1,0.7-2,1.3-3.2,1.8
					c-1.1,0.4-2.3,0.7-3.5,0.7l-9.3,0.3c-1.3,0-2.5-0.2-3.7-0.6c-1.1-0.5-2-1.1-2.8-2c-0.7-0.9-1.2-1.9-1.5-3.1
					c-0.3-1.2-0.3-2.5-0.1-3.8l3.3-18.7c0.2-1.3,0.7-2.6,1.4-3.8c0.7-1.2,1.6-2.3,2.6-3.2c1-0.9,2.2-1.7,3.5-2.2
					c1.3-0.6,2.6-0.9,3.9-0.9L1009.3,121.9z M930.7,175.6c0-3.6,3.2-5.6,7.4-7.2l-0.8,4c-0.8,4-2.6,5.3-3.9,5.3
					C931.9,177.7,930.7,176.5,930.7,175.6 M927.3,133.9l-4.7,22.8c-0.3,1.3-0.4,2.3-0.4,3.4c0,5,3.1,7.1,8.2,7c2.7-0.1,6-2.6,9-5.4
					l-1,4.6c-6.3,2.1-11.5,4.2-11.5,10.4c0,4.3,3.8,7.1,7.8,6.9c4.4-0.2,10.1-2.1,12.1-11.7l8.1-38.9l-9.6,0.3l-5.2,24.7
					c-1.7,1.5-3.5,2.8-5.1,2.8c-2.6,0.1-3.3-0.9-3.3-2.3c0-0.7,0.1-1.4,0.3-2.1l4.9-22.8L927.3,133.9z M912.6,143.2
					c0,4.8-3.3,20.1-8.8,20.3c-2,0.1-2.9-0.4-2.9-2.4c0-0.9,0.2-2.1,0.5-3.7l3.8-18c0.6-0.5,2.9-1,3.6-1.1
					C910.5,138.3,912.6,139.2,912.6,143.2 M899.3,122.9l-7.4,34.9c-0.3,1.2-0.4,2.3-0.4,3.3c0,5.7,4.4,7.4,11,7.2
					c11.9-0.4,17.6-15.3,17.6-25.8c0-3.9-2.1-8.4-8.4-8.2c-2.2,0.1-4.2,0.9-5.7,2.1l3.2-15.2L899.3,122.9z M862.6,139.9
					c0.9,0,2.2,0.2,3.3,1l-3.8,17.8c-0.2,0.8-0.3,1.5-0.4,2.3c-1.3,1.8-2.7,3.4-4.2,3.4c-1.7,0.1-3.9-0.6-3.9-4.6
					C853.6,150.8,857.6,140.1,862.6,139.9 M879.2,122.3l-9.8,1.7l-2.9,13.8c-1.2-0.9-2.9-1.6-4.5-1.5c-13.3,0.5-17.4,14.3-17.4,25.8
					c0,3.9,1.9,8.4,8.2,8.2c4-0.1,7-2.9,9-5.7c0.7,3,2.7,4.9,6.6,4.8c2.3-0.1,5.1-0.6,6.9-6.4c-0.5,0.2-1.3,0.2-1.7,0.3
					c-1.9,0.1-2.4-1-2.4-2.4c0-0.7,0.1-1.5,0.3-2.3L879.2,122.3z M837.5,143.7c-0.1,4.7-4.4,10.1-10.5,10.4
					c1.4-6.3,4.5-13.9,8.2-14.1C837.2,140,837.5,142.3,837.5,143.7 M826.3,160.2c0-0.8,0.1-1.8,0.2-2.9c6.3-1,15-6,15-14.1
					c0-4.7-3.1-6.8-8.5-6.6c-12.1,0.4-15.7,15.4-15.7,23.8c0,5.7,3.5,10.5,9.8,10.2c8.6-0.3,15-7.2,18.7-14.2l-3,0.1
					c-2.3,5-7.9,9.1-11.2,9.2C829.1,165.8,826.3,164.6,826.3,160.2 M800.7,158.3c0-2-0.6-3.2-2.2-3.6c1.5-3.4,2.4-7.7,3.5-11
					c0.1,8.3,3.1,11.7,3.1,15.9c0,5.1-3.3,8-5.5,8.1c-3.5,0.1-5.6-1.5-5.6-5.5c0.8,0.4,1.6,0.5,2.4,0.5
					C798.7,162.7,800.7,160.9,800.7,158.3 M800.7,139c-1.1,5.1-2.7,11.1-5.1,15.5c-2.7,0.3-5.1,3.4-5.1,8.8c0,6.5,3.7,8.6,11.4,8.3
					c6.2-0.2,10-2.9,11.7-6.6c2.7-2.4,5.3-4.8,7.2-6.3l-1.7-2.2c-0.8,1-2.5,2.7-4.3,4.5c0.1-0.5,0.1-0.9,0.1-1.4
					c0-7.8-4.5-11-4.5-21.9v-0.9L800.7,139z M777.6,139.1l-4.8,22.8c-0.2,0.8-0.3,1.5-0.4,2.2c-1.7,1.4-3.3,2.5-4.7,2.6
					c-2.7,0.1-3.3-0.9-3.3-2.4c0-0.6,0.1-1.3,0.3-2.1l4.8-22.8l-9.6,0.3l-4.8,22.8c-0.3,1.3-0.4,2.4-0.4,3.4c0,5,3.2,7.1,8.3,7
					c2.9-0.1,6.4-2.9,9.6-5.9c0.6,3.8,3.7,5.5,8.2,5.3c5.2-0.2,12.7-9.3,15.8-12.5l-2.3,0.1c-2.7,2.2-6.1,6.1-8.8,6.2
					s-3.3-0.9-3.3-2.4c0-0.6,0.1-1.3,0.3-2.1l4.8-22.8L777.6,139.1z M736.5,144.3c0.9,0,2.2,0.2,3.3,1.1l-3.7,17.8
					c-0.2,0.8-0.3,1.5-0.4,2.2c-1.3,1.9-2.7,3.4-4.3,3.5c-1.7,0.1-3.9-0.6-3.9-4.6C727.6,155.2,731.6,144.5,736.5,144.3
					 M740.9,140.4l-0.4,1.7c-1.2-1-2.9-1.6-4.5-1.5c-13.3,0.5-17.4,14.3-17.4,25.8c0,3.9,1.9,8.4,8.2,8.2c4.1-0.1,7-3,9-5.8
					c0.9,3.4,3.8,4.9,8.1,4.8c5.2-0.2,12.7-9.3,15.8-12.5l-2.3,0.1c-2.7,2.2-6.1,6.1-8.8,6.2s-3.3-0.9-3.3-2.4
					c0-0.6,0.1-1.3,0.3-2.1l4.8-22.8L740.9,140.4z M714.1,147.9c0.9-0.3,1.5-0.5,2.1-0.5c0.8,0,1.3,0.2,1.7,0.3
					c0.3-0.9,0.3-1.5,0.3-2.2c0-3.7-3.7-4.5-7.3-4.3c-12.9,0.5-17.1,13.4-17.1,23.2c0,7.9,3.6,10.8,9.1,10.6
					c11.8-0.4,15.4-8.9,18.5-12.6l-2.3,0.1c-3.1,3.6-6.8,6.5-11.6,6.7c-4.1,0.1-4.9-3-4.9-7c0-7.2,3.6-18.2,9.2-18.4
					c1.5-0.1,2.5,0.6,2.5,2.2C714.5,146.6,714.3,147.2,714.1,147.9 M646.1,153.7l6.6-14.2l0.4,0l1.7,13.9L646.1,153.7z M661.7,129.9
					l-14.2,0.5l-17.7,37.9l-4.5,0.2l-1.6,9.4l18.6-0.6l1.6-9.4l-4.4,0.2l2.2-4.7l14.4-0.5l0.6,4.6l-4.4,0.2l-1.6,9.4l18.6-0.6
					l1.6-9.4l-4.5,0.2L661.7,129.9z M639.7,158.1l20.1-0.7l-2.8-22.3l-6.6,0.2L639.7,158.1z M657.8,134.2l4.6,37.1l3.5-0.1l-0.2,0.9
					l-10.2,0.4l0.2-0.9l5.8-0.2l-1.6-13l-20.6,0.7l-6.2,13.3l5.8-0.2l-0.2,0.9l-10.2,0.4l0.2-0.9l3.4-0.1l17.7-37.9L657.8,134.2z
					 M605.6,136.9l-3.1,17.8l9.3-0.3l-0.2,0.9l-9.3,0.3l-3.1,17.8l17.7-0.6l0.8-4.7l0.9,0l-1,5.6l-24.2,0.8l0.2-0.9l4.7-0.2
					l6.4-36.6l-4.7,0.2l0.2-0.9l24.2-0.8l-1,5.6l-0.9,0l0.8-4.7L605.6,136.9z M626.8,145l2.5-14.1l-32.6,1.1l-1.6,9.4l4.7-0.2
					l-4.9,28.1l-4.7,0.2l-1.6,9.4l32.6-1.1l2.5-14.1l-9.3,0.3l-0.8,4.7l-9.3,0.3l1.6-9.4l9.3-0.3l1.6-9.4l-9.3,0.3l1.6-9.4l9.3-0.3
					l-0.8,4.7L626.8,145z M564.6,170.5c-1.3,0-2.3-0.4-3-1.3c-0.7-0.9-1-2-0.8-3.3l3.3-18.7c0.2-1.3,0.9-2.4,1.9-3.4
					c1.1-0.9,2.2-1.4,3.5-1.5l9.3-0.3c1.3,0,2.3,0.4,3,1.3c0.7,0.9,1,2,0.8,3.3l-3.3,18.7c-0.2,1.3-0.9,2.4-1.9,3.4
					c-1.1,0.9-2.2,1.4-3.5,1.5L564.6,170.5z M571.1,133c-1.9,0.1-3.8,0.5-5.6,1.3c-1.8,0.8-3.5,1.9-4.9,3.2
					c-1.5,1.3-2.7,2.8-3.8,4.6c-1,1.7-1.7,3.6-2.1,5.5l-3.3,18.7c-0.3,2-0.3,3.8,0.1,5.5c0.4,1.7,1.2,3.1,2.2,4.3
					c1,1.2,2.3,2.2,3.9,2.9c1.6,0.7,3.3,1,5.3,0.9l9.3-0.3c1.9-0.1,3.8-0.5,5.6-1.3c1.8-0.8,3.5-1.9,5-3.2c1.5-1.3,2.7-2.8,3.8-4.6
					c1-1.7,1.7-3.6,2.1-5.5l3.3-18.7c0.3-1.9,0.3-3.7-0.1-5.4c-0.4-1.7-1.2-3.2-2.2-4.4c-1-1.2-2.3-2.2-3.9-2.9
					c-1.6-0.7-3.3-1-5.2-0.9L571.1,133z M573.1,174.4c1.2,0,2.4-0.3,3.5-0.8c1.2-0.5,2.2-1.2,3.2-2c0.9-0.8,1.7-1.8,2.4-2.9
					c0.7-1.1,1.1-2.3,1.3-3.5l3.3-18.7c0.2-1.2,0.2-2.3-0.1-3.4c-0.3-1.1-0.7-2-1.4-2.8c-0.7-0.8-1.5-1.4-2.5-1.8
					c-1-0.4-2.1-0.6-3.3-0.6l-9.3,0.3c-1.2,0-2.4,0.3-3.5,0.8c-1.2,0.5-2.2,1.2-3.2,2c-0.9,0.8-1.7,1.8-2.4,2.9
					c-0.7,1.1-1.1,2.3-1.3,3.5l-3.3,18.7c-0.2,1.2-0.2,2.3,0.1,3.4c0.3,1.1,0.7,2,1.4,2.8c0.7,0.8,1.5,1.4,2.5,1.8
					c1,0.4,2.1,0.6,3.3,0.6L573.1,174.4z M579.7,136.9c1.3,0,2.5,0.2,3.7,0.6c1.1,0.5,2,1.1,2.8,2c0.7,0.9,1.2,1.9,1.5,3.1
					c0.3,1.2,0.3,2.5,0.1,3.8l-3.3,18.7c-0.2,1.3-0.7,2.6-1.4,3.8c-0.7,1.2-1.6,2.3-2.6,3.2c-1,0.9-2.2,1.7-3.5,2.2
					c-1.3,0.6-2.6,0.9-3.9,0.9l-9.3,0.3c-1.3,0-2.5-0.2-3.7-0.6c-1.1-0.5-2-1.1-2.8-2c-0.7-0.9-1.2-1.9-1.5-3.1
					c-0.3-1.2-0.3-2.5-0.1-3.8l3.3-18.7c0.2-1.3,0.7-2.6,1.4-3.8c0.7-1.2,1.6-2.3,2.6-3.2c1-0.9,2.2-1.7,3.5-2.2
					c1.3-0.6,2.6-0.9,3.9-0.9L579.7,136.9z M545.1,139l-6.4,36.6l4.7-0.2l-0.2,0.9l-10.2,0.4l0.2-0.9l4.7-0.2l3.1-17.8l-21.9,0.8
					l-3.1,17.8l4.7-0.2l-0.2,0.9l-10.2,0.4l0.2-0.9l4.7-0.2l6.4-36.6l-4.7,0.2l0.2-0.9l10.2-0.4l-0.2,0.9l-4.7,0.2l-3.1,17.8
					l21.9-0.8l3.1-17.8l-4.7,0.2l0.2-0.9l10.2-0.4l-0.2,0.9L545.1,139z M553.2,143l1.6-9.4l-18.6,0.6l-1.6,9.4l4.7-0.2l-1.6,9.4
					l-13.5,0.5l1.6-9.4l4.7-0.2l1.6-9.4l-18.6,0.6l-1.6,9.4l4.7-0.2l-4.9,28.1l-4.7,0.2l-1.6,9.4l18.6-0.6l1.6-9.4l-4.7,0.2l1.6-9.4
					l13.5-0.5l-1.6,9.4l-4.7,0.2l-1.6,9.4l18.6-0.6l1.6-9.4l-4.7,0.2l4.9-28.1L553.2,143z M480,156.7l2-11.2l7.9-0.3
					c1.6-0.1,2.8,0.4,3.7,1.5c0.9,1.1,1.2,2.4,0.9,3.9c-0.3,1.6-1,2.9-2.3,4c-1.3,1.1-2.7,1.7-4.2,1.8L480,156.7z M498.5,146.7
					c-0.3-1.2-0.8-2.2-1.5-3.1c-0.7-0.9-1.6-1.5-2.8-2c-1.1-0.5-2.3-0.7-3.7-0.6l-12.1,0.4l-3.4,19.7l12.1-0.4
					c1.3,0,2.6-0.3,3.9-0.9c1.3-0.6,2.4-1.3,3.5-2.2c1-0.9,1.9-2,2.6-3.2c0.7-1.2,1.2-2.5,1.4-3.8
					C498.9,149.1,498.8,147.8,498.5,146.7 M499.4,177.9l-10.2,0.4l0.2-0.9l6.8-0.2l-6.4-15.9c-0.4,0.1-0.8,0.3-1.4,0.3
					c-0.6,0.1-1.1,0.1-1.6,0.1l-11.9,0.4l-2.8,15.9l4.7-0.2l-0.2,0.9l-10.2,0.4l0.2-0.9l4.7-0.2l6.4-36.6l-4.7,0.2l0.2-0.9l17.9-0.6
					c1.5-0.1,2.8,0.2,3.9,0.7c1.2,0.5,2.1,1.3,2.9,2.2c0.8,0.9,1.3,2.1,1.7,3.3c0.3,1.3,0.4,2.6,0.1,4.1c-0.3,1.7-0.9,3.2-1.8,4.7
					c-0.9,1.5-2.1,2.7-3.6,3.8l-0.5,0.4c-0.6,0.4-1.2,0.7-1.9,1.1c-0.3,0.2-0.7,0.3-0.9,0.4l6.5,16.2l2.3-0.1L499.4,177.9z
					 M500.4,172.7l-4.3-10.6c1.9-1.5,3.6-3.3,5-5.3c1.4-2,2.3-4.2,2.7-6.6c0.4-2.1,0.3-4-0.1-5.8c-0.5-1.8-1.2-3.3-2.3-4.6
					c-1.1-1.3-2.5-2.3-4.1-3.1c-1.6-0.7-3.5-1.1-5.5-1.1l-22.1,0.8l-1.6,9.4l4.7-0.2l-4.9,28.1L463,174l-1.6,9.4l18.6-0.6l1.6-9.4
					l-4.7,0.2l1.3-7.5l8.4-0.3l2.9,7.3l-3.8,0.1l-1.6,9.4l18.6-0.6l1.6-9.4L500.4,172.7z M436.1,158.2l2-11.2l7.9-0.3
					c1.6-0.1,2.8,0.4,3.7,1.5c0.9,1.1,1.2,2.4,0.9,3.9c-0.3,1.6-1,2.9-2.3,4c-1.3,1.1-2.7,1.7-4.2,1.8L436.1,158.2z M454.6,148.2
					c-0.3-1.2-0.8-2.2-1.5-3.1c-0.7-0.9-1.6-1.5-2.8-2c-1.1-0.5-2.3-0.7-3.7-0.6l-12.1,0.4l-3.4,19.7l12.1-0.4
					c1.3,0,2.6-0.3,3.9-0.9c1.3-0.6,2.4-1.3,3.5-2.2c1-0.9,1.9-2,2.6-3.2c0.7-1.2,1.2-2.5,1.4-3.8
					C455,150.6,454.9,149.4,454.6,148.2 M455.5,179.4l-10.2,0.4l0.2-0.9l6.8-0.2l-6.4-15.9c-0.4,0.1-0.8,0.3-1.4,0.3
					c-0.6,0.1-1.1,0.1-1.6,0.1l-11.9,0.4l-2.8,15.9l4.7-0.2l-0.2,0.9l-10.2,0.4l0.2-0.9l4.7-0.2l6.4-36.6l-4.7,0.2l0.2-0.9l17.9-0.6
					c1.5-0.1,2.8,0.2,3.9,0.7c1.2,0.5,2.1,1.3,2.9,2.2c0.8,0.9,1.3,2.1,1.7,3.3c0.3,1.3,0.4,2.6,0.1,4.1c-0.3,1.7-0.9,3.2-1.8,4.7
					c-0.9,1.5-2.1,2.7-3.6,3.8l-0.5,0.4c-0.6,0.4-1.2,0.7-1.9,1.1c-0.3,0.2-0.7,0.3-0.9,0.4l6.5,16.2l2.3-0.1L455.5,179.4z
					 M456.5,174.3l-4.3-10.6c1.9-1.5,3.6-3.3,5-5.3c1.4-2,2.3-4.2,2.7-6.6c0.4-2.1,0.3-4-0.1-5.8c-0.5-1.8-1.2-3.3-2.3-4.6
					c-1.1-1.3-2.5-2.3-4.1-3.1c-1.6-0.7-3.5-1.1-5.5-1.1l-22.1,0.8l-1.6,9.4l4.7-0.2l-4.9,28.1l-4.7,0.2l-1.6,9.4l18.6-0.6l1.6-9.4
					l-4.7,0.2l1.3-7.5l8.4-0.3l2.9,7.3l-3.8,0.1l-1.6,9.4l18.6-0.6l1.6-9.4L456.5,174.3z M391.9,162.6l6.6-14.2l0.4,0l1.7,13.9
					L391.9,162.6z M407.5,138.7l-14.2,0.5l-17.7,37.9l-4.5,0.2l-1.6,9.4L388,186l1.6-9.4l-4.4,0.2l2.2-4.7l14.4-0.5l0.6,4.6
					l-4.4,0.2l-1.6,9.4L415,185l1.6-9.4l-4.5,0.2L407.5,138.7z M385.6,167l20.1-0.7l-2.8-22.3l-6.6,0.2L385.6,167z M403.7,143.1
					l4.6,37.1l3.5-0.1l-0.2,0.9l-10.2,0.4l0.2-0.9l5.8-0.2l-1.6-13l-20.6,0.7l-6.2,13.3l5.8-0.2l-0.2,0.9l-10.2,0.4l0.2-0.9l3.4-0.1
					l17.7-37.9L403.7,143.1z M363.6,181.7l-0.2,0.9l-10.2,0.4l0.2-0.9l4.7-0.2l6.4-36.6l-4.7,0.2l0.2-0.9l10.2-0.4l-0.2,0.9
					l-4.7,0.2l-6.4,36.6L363.6,181.7z M373.5,149.2l1.6-9.4l-18.6,0.6l-1.6,9.4l4.7-0.2l-4.9,28.1L350,178l-1.6,9.4l18.6-0.6
					l1.6-9.4l-4.7,0.2l4.9-28.1L373.5,149.2z M346.1,168.8c-0.4,2-1.1,3.9-2.1,5.7c-1.1,1.8-2.4,3.4-3.9,4.7
					c-1.5,1.4-3.2,2.5-5.1,3.3c-1.9,0.8-3.8,1.3-5.8,1.3l-14.4,0.5l0.2-0.9l4.7-0.2l6.4-36.6l-4.7,0.2l0.2-0.9l14.4-0.5
					c2-0.1,3.8,0.2,5.4,0.9c1.6,0.7,3,1.7,4,3c1.1,1.3,1.8,2.8,2.3,4.5c0.4,1.7,0.5,3.6,0.1,5.6L346.1,168.8z M318,141.9l-1.6,9.4
					l4.7-0.2l-4.9,28.1l-4.7,0.2l-1.6,9.4l18.6-0.6c2.6-0.1,5.1-0.7,7.5-1.7c2.4-1.1,4.6-2.5,6.6-4.2c2-1.8,3.7-3.8,5-6.1
					s2.3-4.8,2.7-7.3l1.6-9.4c0.5-2.6,0.4-5-0.2-7.2c-0.6-2.2-1.6-4.2-2.9-5.8c-1.4-1.6-3.1-2.9-5.2-3.8c-2.1-0.9-4.4-1.3-7-1.2
					L318,141.9z M341,169c-0.2,1.3-0.7,2.5-1.4,3.7c-0.7,1.2-1.5,2.2-2.5,3c-1,0.9-2.1,1.6-3.3,2.1c-1.2,0.5-2.5,0.8-3.8,0.9
					l-4.7,0.2l4.9-28.1l4.7-0.2c1.3,0,2.4,0.2,3.5,0.6c1,0.5,1.9,1.1,2.6,1.9c0.7,0.8,1.2,1.8,1.5,2.9c0.3,1.1,0.3,2.3,0.1,3.6
					L341,169z M326.9,146.7l-6.4,36.6l8.8-0.3c1.9-0.1,3.7-0.5,5.4-1.3c1.8-0.8,3.4-1.8,4.8-3.1c1.4-1.3,2.6-2.7,3.6-4.4
					c1-1.7,1.7-3.5,2-5.3l1.6-9.4c0.3-1.9,0.3-3.6-0.1-5.3c-0.4-1.6-1.1-3-2.1-4.2c-1-1.2-2.3-2.1-3.8-2.8c-1.5-0.7-3.2-1-5.1-0.9
					L326.9,146.7z"/>
			</g>
		</g>
		<g class="st1">
			<g>
				<defs>
					<rect id="SVGID_7_" x="220.2" y="17" width="1157.1" height="112.4"/>
				</defs>
				<clipPath id="SVGID_8_">
					<use xlink:href="#SVGID_7_"  style="overflow:visible;"/>
				</clipPath>
				<path class="st3" d="M1363.8,41.3l4-0.1l0.5-2.7l-4,0.1c1.3-6,2.3-10.6,2.3-10.6l-9.8,1.7l-2,9.3l-2.2,0.1l-0.5,2.7l2.2-0.1
					l-4.3,20.1c-0.3,1.2-0.4,2.4-0.4,3.5c0,4.1,2,7.1,6.6,7c2.3-0.1,5.2-0.6,7-6.4c-0.5,0.2-1.3,0.2-1.7,0.3
					c-1.8,0.1-2.3-0.9-2.3-2.3c0-0.7,0.1-1.5,0.3-2.3L1363.8,41.3z M1330.4,59.8c0-2-0.6-3.2-2.2-3.6c1.5-3.4,2.4-7.7,3.5-11
					c0.1,8.3,3.1,11.7,3.1,15.9c0,5.1-3.3,8-5.5,8.1c-3.5,0.1-5.6-1.5-5.6-5.5c0.8,0.4,1.6,0.5,2.4,0.5
					C1328.4,64.1,1330.4,62.3,1330.4,59.8 M1330.4,40.4c-1.1,5.1-2.7,11.1-5.1,15.5c-2.7,0.3-5.1,3.4-5.1,8.8
					c0,6.5,3.7,8.6,11.4,8.3c6.2-0.2,10-2.9,11.7-6.6c2.7-2.4,5.3-4.8,7.2-6.3l-1.7-2.2c-0.8,1-2.5,2.7-4.3,4.5
					c0.1-0.5,0.1-0.9,0.1-1.4c0-7.8-4.5-11-4.5-21.9v-0.9L1330.4,40.4z M1316.5,50.2c0.1-0.5,0.1-1.1,0.1-1.6c0-4.5-4.1-8.2-7.6-8.1
					c-2.9,0.1-6,1.8-8.7,3.9l0.8-3.6l-9.6,0.3l-7,33.5l9.6-0.3l5.6-27.1c1.4-1,2.6-1.5,4.2-1.5c1.8-0.1,3.1,1.4,3.1,3.8
					c0,0.5-0.1,1.1-0.2,1.7l-2.5,12.1c-0.3,1.3-0.4,2.3-0.4,3.4c0,5,3.1,7.1,8.2,7s10.2-7.5,13.3-10.7l-2.3,0.1
					c-2.7,2.2-3.7,4.3-6.3,4.4c-2.6,0.1-3.3-0.9-3.3-2.3c0-0.7,0.1-1.4,0.3-2.1L1316.5,50.2z M1272.9,33c0,2.9,2.3,5.2,5.3,5.1
					c2.9-0.1,5.3-2.5,5.3-5.4c0-2.9-2.4-5.2-5.3-5.1C1275.2,27.6,1272.9,30.1,1272.9,33 M1271.6,41.8l-4.8,22.8
					c-0.3,1.3-0.4,2.4-0.4,3.4c0,5,3.2,7.1,8.3,7c5.2-0.2,12.7-9.3,15.8-12.5l-2.3,0.1c-2.7,2.2-6.1,6.1-8.8,6.2
					c-2.7,0.1-3.3-0.9-3.3-2.4c0-0.6,0.1-1.3,0.3-2.1l4.8-22.8L1271.6,41.8z M1248.3,46.4c0.9,0,2.2,0.2,3.3,1.1l-3.7,17.8
					c-0.2,0.8-0.3,1.5-0.4,2.2c-1.3,1.9-2.7,3.4-4.3,3.5c-1.7,0.1-3.9-0.6-3.9-4.6C1239.3,57.3,1243.3,46.6,1248.3,46.4
					 M1252.6,42.5l-0.4,1.7c-1.2-1-2.9-1.6-4.5-1.5c-13.3,0.5-17.4,14.3-17.4,25.8c0,3.9,1.9,8.4,8.2,8.2c4.1-0.1,7-3,9-5.8
					c0.9,3.4,3.8,4.9,8.1,4.8c5.2-0.2,12.7-9.3,15.8-12.5l-2.3,0.1c-2.7,2.2-6.1,6.1-8.8,6.2c-2.7,0.1-3.3-0.9-3.3-2.4
					c0-0.6,0.1-1.3,0.3-2.1l4.8-22.8L1252.6,42.5z M1203.6,86.7c0-2.6,2.7-4.4,6.5-5.9l-0.4,2c-0.8,4-2.5,6-3.9,6.1
					C1204.4,88.9,1203.6,87.6,1203.6,86.7 M1212.7,47.7c1.1,0,2.7,0.8,3.8,2.7l-3.9,18.6c-1.3,1.4-2.7,2.4-4,2.5
					c-2.9,0.1-4.9-0.8-4.9-4C1203.7,61.7,1206.3,47.9,1212.7,47.7 M1218,43.7l-0.7,3.2c-0.9-1.8-2.9-3-5.2-2.9
					c-12.9,0.5-16.4,15.8-16.4,25c0,3.9,1.9,9.3,8.2,9c3.1-0.1,5.6-1.6,7.6-3.5l-0.7,3c-6,2.4-10.8,4.8-10.8,10.2
					c0,4.3,3.4,6.3,7.4,6.2c4.4-0.2,10-2.1,12-11.7l1.1-5.4c5.2-2.1,9.9-4.7,10.8-9.1l0.3-5.3c-2.2,5.1-6,8.2-10.2,10.5l6.2-29.7
					L1218,43.7z M1177.8,48.9c0.9,0,2.2,0.2,3.3,1.1l-3.7,17.8c-0.2,0.8-0.3,1.5-0.4,2.2c-1.3,1.9-2.7,3.4-4.3,3.5
					c-1.7,0.1-3.9-0.6-3.9-4.6C1168.8,59.8,1172.8,49.1,1177.8,48.9 M1182.1,44.9l-0.4,1.7c-1.2-1-2.9-1.6-4.5-1.5
					c-13.3,0.5-17.4,14.3-17.4,25.8c0,3.9,1.9,8.4,8.2,8.2c4.1-0.1,7-3,9-5.8c0.9,3.4,3.8,4.9,8.1,4.8c5.2-0.2,12.7-9.3,15.8-12.5
					l-2.3,0.1c-2.7,2.2-6.1,6.1-8.8,6.2c-2.7,0.1-3.3-0.9-3.3-2.4c0-0.6,0.1-1.3,0.3-2.1l4.8-22.8L1182.1,44.9z M1129.6,66.8
					c0-2-0.6-3.2-2.2-3.6c1.5-3.4,2.4-7.7,3.5-11c0.1,8.3,3.1,11.7,3.1,15.9c0,5.1-3.3,8-5.5,8.1c-3.5,0.1-5.6-1.5-5.6-5.5
					c0.8,0.4,1.6,0.5,2.4,0.5C1127.6,71.1,1129.5,69.3,1129.6,66.8 M1129.2,47.6c-1.1,5.1-2.5,11-4.7,15.4c-2.7,0.3-5.1,3.4-5.1,8.7
					c0,6.5,3.7,8.6,11.4,8.3c9-0.3,12.9-5.8,12.9-12c0-7.8-4.9-10.8-4.9-21.8v-0.9L1129.2,47.6z M1100.9,47.8l-7,33.5l9.6-0.3
					l5.5-26.3c1.5-1.5,2.6-2.2,4.6-2.3c2-0.1,0.1,4.4,3.9,4.3c3.3-0.1,5-3,5-5.4c0-2.5-1.8-4.2-4.8-4.1c-2.8,0.1-5.4,1.7-7.8,3.6
					l0.7-3.4L1100.9,47.8z M1090,54.8c-0.1,4.7-4.4,10.1-10.5,10.4c1.4-6.3,4.5-13.9,8.2-14.1C1089.6,51.1,1090,53.4,1090,54.8
					 M1078.7,71.3c0-0.8,0.1-1.8,0.2-2.9c6.3-1,15-6,15-14.1c0-4.7-3.1-6.8-8.5-6.6c-12.1,0.4-15.7,15.4-15.7,23.8
					c0,5.7,3.5,10.5,9.8,10.2c8.6-0.3,15-7.2,18.7-14.2l-3,0.1c-2.3,5-7.9,9.1-11.2,9.2C1081.6,76.9,1078.7,75.7,1078.7,71.3
					 M1057.9,37.3l-7.4,34.9c-0.3,1.3-0.4,2.4-0.4,3.4c0,5,3.1,7.1,8.2,7c5.2-0.2,12.7-9.3,15.8-12.5l-2.3,0.1
					c-2.7,2.2-6.1,6.1-8.8,6.2c-2.6,0.1-3.3-0.9-3.3-2.3c0-0.5,0.1-1.1,0.3-2.1l7.6-36.2L1057.9,37.3z M1038.2,38l-7.4,34.9
					c-0.3,1.3-0.4,2.4-0.4,3.4c0,5,3.1,7.1,8.2,7c5.2-0.2,12.7-9.3,15.8-12.5l-2.3,0.1c-2.7,2.2-6.1,6.1-8.8,6.2
					c-2.6,0.1-3.3-0.9-3.3-2.3c0-0.5,0.1-1.1,0.3-2.1l7.6-36.2L1038.2,38z M1025.1,57.1c-0.1,4.7-4.4,10.1-10.5,10.4
					c1.4-6.3,4.5-13.9,8.2-14.1C1024.7,53.4,1025.1,55.7,1025.1,57.1 M1013.8,73.6c0-0.8,0.1-1.8,0.2-2.9c6.3-1,15-6,15-14.1
					c0-4.7-3.1-6.8-8.5-6.6c-12.1,0.4-15.7,15.4-15.7,23.8c0,5.7,3.5,10.5,9.8,10.2c8.6-0.3,15-7.2,18.7-14.2l-3,0.1
					c-2.3,5-7.9,9.1-11.2,9.2C1016.7,79.2,1013.8,78,1013.8,73.6 M1000.9,49.9c-2.2,0.1-3.8,2-3.8,3.4c0,1.9,0.9,3.7,2.8,3.6
					c0.4,0,1-0.2,1.4-0.3c0,7.3-4.5,22-11,22.2c-1.9,0.1-2.5-0.8-2.5-2c0-0.7,0.1-1.5,0.3-2.5l4.8-22.8l-9.6,0.3l-4.8,22.8
					c-0.3,1.3-0.3,2.4-0.3,3.4c0,5,3.1,7.1,8.2,7c13.4-0.5,18.7-18.9,18.7-29.3C1005.1,52.3,1003.7,49.8,1000.9,49.9 M960.1,56.5
					c0.9,0,2.2,0.2,3.3,1.1l-3.7,17.8c-0.2,0.8-0.3,1.5-0.4,2.2c-1.3,1.9-2.7,3.4-4.3,3.5c-1.7,0.1-3.9-0.6-3.9-4.6
					C951.1,67.4,955.1,56.7,960.1,56.5 M964.4,52.5l-0.4,1.7c-1.2-1-2.9-1.6-4.5-1.5c-13.3,0.5-17.4,14.3-17.4,25.8
					c0,3.9,1.9,8.4,8.2,8.2c4.1-0.1,7-3,9-5.8c0.9,3.4,3.8,4.9,8.1,4.8c5.2-0.2,12.7-9.3,15.8-12.5l-2.3,0.1
					c-2.7,2.2-6.1,6.1-8.8,6.2s-3.3-0.9-3.3-2.4c0-0.6,0.1-1.3,0.3-2.1l4.8-22.8L964.4,52.5z M925,53.9l-7,33.5l9.6-0.3l5.5-26.3
					c1.5-1.5,2.6-2.2,4.6-2.3s0.1,4.4,3.9,4.3c3.3-0.1,5-3,5-5.4c0-2.5-1.8-4.2-4.8-4.1c-2.8,0.1-5.4,1.7-7.8,3.6l0.7-3.4L925,53.9z
					 M906.6,45.4l-2,9.3l-2.2,0.1l-0.5,2.7l2.2-0.1c-1.1,5.8-4.6,20-4.6,23.5c0,5,3.1,7.1,8.2,7c5.2-0.2,12.7-9.3,15.8-12.5
					l-2.3,0.1c-2.7,2.2-6.1,6.1-8.8,6.2c-2.7,0.1-3.3-0.9-3.3-2.4c0-0.3-0.1-1,4.5-22.2l4-0.1l0.5-2.7l-4,0.1
					c1.3-6,2.3-10.6,2.3-10.6L906.6,45.4z M876.1,55.6c0-0.1-7.7,6.3-12.6,10.4l4.9-23.4l-9.8,1.7l-9.6,45.6l9.6-0.3l3.9-18.2
					c1.3-1,2.5-1.5,4.1-1.5c2.1-0.1,3,1.9,3,4c0,0.5-0.1,1.1-0.1,1.5l-0.7,3.2c-0.3,1.1-0.4,2.3-0.4,3.3c0,4.2,2.1,7.2,6.8,7.1
					c2.3-0.1,5.1-0.6,6.9-6.4c-0.5,0.2-1.3,0.2-1.7,0.3c-2,0.1-2.5-0.7-2.5-1.8c0-0.9,0.3-1.9,0.5-2.8l0.9-3.9
					c0.1-0.5,0.2-1.1,0.2-1.5c0-4.4-4.1-8.2-7.7-8.1c-0.5,0-1,0.1-1.5,0.2l13.2-9.4L876.1,55.6z M812.9,49c0,2.9,2.3,5.2,5.3,5.1
					c2.9-0.1,5.3-2.5,5.3-5.4s-2.4-5.2-5.3-5.1C815.2,43.6,812.9,46.1,812.9,49 M831.5,77.2c0-2-0.6-3.2-2.2-3.6
					c1.5-3.4,2.4-7.7,3.5-11c0.1,8.3,3.1,11.7,3.1,15.9c0,5.1-3.3,8-5.5,8.1c-3.5,0.1-5.6-1.5-5.6-5.4c0.8,0.4,1.6,0.5,2.4,0.4
					C829.5,81.5,831.5,79.7,831.5,77.2 M811.7,57.9L807,80.7c-0.3,1.3-0.4,2.3-0.4,3.4c0,5,3.1,7.1,8.2,7c2.3-0.1,4.7-2.5,6.9-5.5
					c1.2,3.9,4.9,5.1,11,4.9c6.2-0.2,10-2.9,11.7-6.6c2.7-2.4,5.3-4.8,7.2-6.3l-1.7-2.2c-0.8,1-2.5,2.7-4.3,4.5l0.1-1.4
					c-0.1-7.8-4.5-11-4.5-21.9v-0.9l-9.6,2.3c-1.1,5.1-2.7,11.1-5.1,15.5c-2.7,0.3-5.1,3.4-5.1,9c-1.1,1.8-2.3,3.2-3.6,3.3
					c-1.3,0-1.7-0.7-1.7-1.9c0-0.9,0.3-2.2,0.5-3.3l4.8-22.8L811.7,57.9z M786.8,58.7l-7,33.5l9.6-0.3l5.5-26.3
					c1.5-1.5,2.6-2.2,4.6-2.3c2-0.1,0.1,4.4,3.9,4.3c3.3-0.1,5-3,5-5.4c0-2.5-1.8-4.2-4.8-4.1c-2.8,0.1-5.4,1.7-7.8,3.6l0.7-3.4
					L786.8,58.7z M777.3,72.3L764,72.8l-1.2,5.3l13.4-0.5L777.3,72.3z M755.7,62.5l4-0.1l0.5-2.7l-4,0.1c1.3-6,2.3-10.6,2.3-10.6
					l-9.8,1.7l-2,9.3l-2.2,0.1l-0.5,2.7l2.2-0.1l-4.3,20.1c-0.3,1.2-0.4,2.4-0.4,3.5c0,4.1,2,7.1,6.6,7c2.3-0.1,5.2-0.6,7-6.4
					c-0.5,0.2-1.3,0.2-1.7,0.3c-1.8,0.1-2.3-0.9-2.3-2.3c0-0.7,0.1-1.5,0.3-2.3L755.7,62.5z M721,64.8c0.9,0,2.2,0.2,3.3,1.1
					l-3.7,17.8c-0.2,0.8-0.3,1.5-0.4,2.2c-1.3,1.9-2.7,3.4-4.3,3.5c-1.7,0.1-3.9-0.6-3.9-4.6C712,75.7,716,65,721,64.8 M725.3,60.9
					l-0.4,1.7c-1.2-1-2.9-1.6-4.5-1.5C707.1,61.6,703,75.4,703,86.9c0,3.9,1.9,8.4,8.2,8.2c4.1-0.1,7-3,9-5.8
					c0.9,3.4,3.8,4.9,8.1,4.8c5.2-0.2,12.7-9.3,15.8-12.5l-2.3,0.1c-2.7,2.2-6.1,6.1-8.8,6.2c-2.7,0.1-3.3-0.9-3.3-2.4
					c0-0.6,0.1-1.3,0.3-2.1l4.8-22.8L725.3,60.9z M680.9,58.9l-0.9,0l0.8-4.7l-13,0.5l-6.4,36.6l4.7-0.2l-0.2,0.9l-10.2,0.4l0.2-0.9
					l4.7-0.2l6.4-36.6l-13,0.5l-0.8,4.7l-0.9,0l1-5.6l28.8-1L680.9,58.9z M649.6,50.2l-2.5,14.1l9.3-0.3l0.8-4.7l4.7-0.2L657,87.2
					l-4.7,0.2l-1.6,9.4l18.6-0.6l1.6-9.4l-4.7,0.2l4.9-28.1l4.7-0.2l-0.8,4.7l9.3-0.3l2.5-14.1L649.6,50.2z M624.1,51.1
					c-1.9,0.1-3.8,0.5-5.6,1.3c-1.8,0.8-3.5,1.9-4.9,3.2c-1.5,1.3-2.7,2.8-3.8,4.6c-1,1.7-1.7,3.6-2.1,5.5l-3.3,18.7
					c-0.3,2-0.3,3.8,0.1,5.5c0.4,1.7,1.2,3.1,2.2,4.3c1,1.2,2.3,2.2,3.9,2.9c1.6,0.7,3.3,1,5.3,0.9l9.3-0.3c1.9-0.1,3.8-0.5,5.6-1.3
					c1.8-0.8,3.5-1.9,5-3.2c1.5-1.3,2.7-2.8,3.8-4.6c1-1.7,1.7-3.6,2.1-5.5l0.4-2.3l-9.3,0.3l-0.4,2.3c-0.2,1.3-0.9,2.4-1.9,3.4
					c-1.1,0.9-2.2,1.4-3.5,1.5l-9.3,0.3c-1.3,0-2.3-0.4-3.1-1.3c-0.7-0.9-1-2-0.8-3.3l3.3-18.7c0.2-1.3,0.9-2.4,1.9-3.4
					c1.1-0.9,2.2-1.4,3.5-1.5l9.3-0.3c1.3,0,2.3,0.4,3,1.3c0.7,0.9,1,2,0.8,3.3l-0.4,2.3l9.3-0.3l0.4-2.3c0.3-1.9,0.3-3.7-0.1-5.4
					c-0.4-1.7-1.2-3.2-2.2-4.4c-1-1.2-2.3-2.2-3.9-2.9c-1.6-0.7-3.3-1-5.2-0.9L624.1,51.1z M632.6,55c1.2,0,2.3,0.1,3.3,0.5
					c1,0.4,1.8,0.9,2.6,1.6c0.7,0.7,1.3,1.5,1.7,2.5c0.4,1,0.6,2,0.6,3.1l-0.9,0c-0.1-2-0.8-3.6-2.2-4.9c-1.4-1.3-3.1-1.9-5.2-1.8
					l-9.3,0.3c-1.2,0-2.4,0.3-3.5,0.8c-1.2,0.5-2.2,1.2-3.2,2c-0.9,0.8-1.7,1.8-2.4,2.9c-0.7,1.1-1.1,2.3-1.3,3.5l-3.3,18.7
					c-0.2,1.2-0.2,2.3,0.1,3.4c0.3,1.1,0.7,2,1.4,2.8c0.7,0.8,1.5,1.4,2.5,1.8c1,0.4,2.1,0.6,3.3,0.6l9.3-0.3
					c2.1-0.1,4.1-0.8,5.9-2.2c1.8-1.4,3.1-3.1,3.9-5.1l0.9,0c-0.4,1.2-1,2.2-1.8,3.2c-0.7,1-1.6,1.8-2.6,2.6c-1,0.7-2,1.3-3.2,1.8
					c-1.1,0.4-2.3,0.7-3.5,0.7l-9.3,0.3c-1.3,0-2.5-0.2-3.7-0.6c-1.1-0.5-2-1.1-2.8-2c-0.7-0.9-1.2-1.9-1.5-3.1
					c-0.3-1.2-0.3-2.4-0.1-3.8l3.3-18.7c0.2-1.3,0.7-2.6,1.4-3.8c0.7-1.2,1.6-2.3,2.6-3.2c1-0.9,2.2-1.7,3.5-2.2
					c1.3-0.6,2.6-0.9,3.9-0.9L632.6,55z M583.9,57.6l-3.1,17.8l9.3-0.3l-0.2,0.9l-9.3,0.3l-3.1,17.8l17.7-0.6l0.8-4.7l0.9,0l-1,5.6
					l-24.2,0.8l0.2-0.9l4.7-0.2l6.4-36.6l-4.7,0.2l0.2-0.9l24.2-0.8l-1,5.6l-0.9,0l0.8-4.7L583.9,57.6z M605.1,65.7l2.5-14.1
					L575,52.8l-1.6,9.4L578,62l-4.9,28.1l-4.7,0.2l-1.6,9.4l32.6-1.1l2.5-14.1l-9.3,0.3l-0.8,4.7l-9.3,0.3l1.6-9.4l9.3-0.3l1.6-9.4
					l-9.3,0.3l1.6-9.4l9.3-0.3l-0.8,4.7L605.1,65.7z M566.6,62.9l-0.9,0l0.8-4.7l-13,0.5l-6.4,36.6l4.7-0.2l-0.2,0.9l-10.2,0.4
					l0.2-0.9l4.7-0.2l6.4-36.6l-13,0.5l-0.8,4.7l-0.9,0l1-5.6l28.8-1L566.6,62.9z M535.3,54.2l-2.5,14.1l9.3-0.3l0.8-4.7l4.7-0.2
					l-4.9,28.1l-4.7,0.2l-1.6,9.4l18.6-0.6l1.6-9.4l-4.7,0.2l4.9-28.1l4.7-0.2l-0.8,4.7l9.3-0.3l2.5-14.1L535.3,54.2z M503,92.6
					c-1.3,0-2.3-0.4-3.1-1.3c-0.7-0.9-1-2-0.8-3.3l3.3-18.7c0.2-1.3,0.9-2.4,1.9-3.4c1.1-0.9,2.2-1.4,3.5-1.5l9.3-0.3
					c1.3,0,2.3,0.4,3,1.3c0.7,0.9,1,2,0.8,3.3l-3.3,18.7c-0.2,1.3-0.9,2.4-1.9,3.4c-1.1,0.9-2.2,1.4-3.5,1.5L503,92.6z M509.6,55.1
					c-1.9,0.1-3.8,0.5-5.6,1.3c-1.8,0.8-3.5,1.9-4.9,3.2c-1.5,1.3-2.7,2.8-3.8,4.6c-1,1.7-1.7,3.6-2.1,5.5l-3.3,18.7
					c-0.3,2-0.3,3.8,0.1,5.5c0.4,1.7,1.2,3.1,2.2,4.3c1,1.2,2.3,2.2,3.9,2.9c1.6,0.7,3.3,1,5.3,0.9l9.3-0.3c1.9-0.1,3.8-0.5,5.6-1.3
					c1.8-0.8,3.5-1.9,5-3.2c1.5-1.3,2.7-2.8,3.8-4.6c1-1.7,1.7-3.6,2.1-5.5l3.3-18.7c0.3-1.9,0.3-3.7-0.1-5.4
					c-0.4-1.7-1.2-3.2-2.2-4.4c-1-1.2-2.3-2.2-3.9-2.9c-1.6-0.7-3.3-1-5.2-0.9L509.6,55.1z M511.6,96.5c1.2,0,2.4-0.3,3.5-0.8
					c1.2-0.5,2.2-1.2,3.2-2c0.9-0.8,1.7-1.8,2.4-2.9c0.7-1.1,1.1-2.3,1.3-3.5l3.3-18.7c0.2-1.2,0.2-2.3-0.1-3.4
					c-0.3-1.1-0.7-2-1.4-2.8s-1.5-1.4-2.5-1.8c-1-0.4-2.1-0.6-3.3-0.6l-9.3,0.3c-1.2,0-2.4,0.3-3.5,0.8c-1.2,0.5-2.2,1.2-3.2,2
					c-0.9,0.8-1.7,1.8-2.4,2.9c-0.7,1.1-1.1,2.3-1.3,3.5L495,88.2c-0.2,1.2-0.2,2.3,0.1,3.4c0.3,1.1,0.7,2,1.4,2.8
					c0.7,0.8,1.5,1.4,2.5,1.8c1,0.4,2.1,0.6,3.3,0.6L511.6,96.5z M518.2,59c1.3,0,2.5,0.2,3.7,0.6c1.1,0.5,2,1.1,2.8,2
					c0.7,0.9,1.2,1.9,1.5,3.1c0.3,1.2,0.3,2.4,0.1,3.8l-3.3,18.7c-0.2,1.3-0.7,2.6-1.4,3.8c-0.7,1.2-1.6,2.3-2.6,3.2
					c-1,0.9-2.2,1.7-3.5,2.2c-1.3,0.6-2.6,0.9-3.9,0.9l-9.3,0.3c-1.3,0-2.5-0.2-3.7-0.6c-1.1-0.5-2-1.1-2.8-2
					c-0.7-0.9-1.2-1.9-1.5-3.1c-0.3-1.2-0.3-2.4-0.1-3.8l3.3-18.7c0.2-1.3,0.7-2.6,1.4-3.8c0.7-1.2,1.6-2.3,2.6-3.2
					c1-0.9,2.2-1.7,3.5-2.2c1.3-0.6,2.6-0.9,3.9-0.9L518.2,59z M462.4,77.3l2-11.2l7.9-0.3c1.6-0.1,2.8,0.4,3.7,1.5
					c0.9,1.1,1.2,2.4,0.9,3.9c-0.3,1.6-1,2.9-2.3,4c-1.3,1.1-2.7,1.7-4.2,1.8L462.4,77.3z M481,67.2c-0.3-1.2-0.8-2.2-1.5-3.1
					c-0.7-0.9-1.6-1.5-2.8-2c-1.1-0.5-2.3-0.7-3.7-0.6l-12.1,0.4l-3.4,19.7l12.1-0.4c1.3,0,2.6-0.3,3.9-0.9c1.3-0.6,2.4-1.3,3.5-2.2
					c1-0.9,1.9-2,2.6-3.2c0.7-1.2,1.2-2.5,1.4-3.8C481.3,69.7,481.3,68.4,481,67.2 M481.8,98.5l-10.2,0.4l0.2-0.9l6.8-0.2l-6.4-15.9
					c-0.4,0.1-0.8,0.3-1.4,0.3c-0.6,0.1-1.1,0.1-1.6,0.1l-11.9,0.4l-2.8,15.9l4.7-0.2l-0.2,0.9l-10.2,0.4l0.2-0.9l4.7-0.2L460,62
					l-4.7,0.2l0.2-0.9l17.9-0.6c1.5-0.1,2.8,0.2,3.9,0.7c1.2,0.5,2.1,1.3,2.9,2.2c0.8,0.9,1.3,2.1,1.7,3.3c0.3,1.3,0.4,2.6,0.1,4.1
					c-0.3,1.7-0.9,3.2-1.8,4.7c-0.9,1.5-2.1,2.7-3.6,3.8l-0.5,0.4c-0.6,0.4-1.2,0.7-1.9,1.1c-0.3,0.2-0.7,0.3-0.9,0.4l6.5,16.2
					l2.3-0.1L481.8,98.5z M482.8,93.3l-4.3-10.6c1.9-1.5,3.6-3.3,5-5.3c1.4-2,2.3-4.2,2.7-6.6c0.4-2.1,0.3-4-0.1-5.8
					c-0.5-1.8-1.2-3.3-2.3-4.6c-1.1-1.3-2.5-2.3-4.1-3.1c-1.6-0.7-3.5-1.1-5.5-1.1L452,57.1l-1.6,9.4l4.7-0.2l-4.9,28.1l-4.7,0.2
					l-1.6,9.4l18.6-0.6l1.6-9.4l-4.7,0.2l1.3-7.5l8.4-0.3l2.9,7.3l-3.8,0.1l-1.6,9.4l18.6-0.6l1.6-9.4L482.8,93.3z M418.6,83.9
					l-2.8,15.9l4.7-0.2l-0.2,0.9l-10.2,0.4l0.2-0.9l4.7-0.2l6.4-36.6l-4.7,0.2l0.2-0.9l17.7-0.6c1.5-0.1,2.8,0.2,4,0.7
					c1.2,0.5,2.2,1.2,3,2.2c0.8,0.9,1.4,2.1,1.7,3.4c0.3,1.3,0.4,2.7,0.1,4.2c-0.3,1.5-0.8,2.9-1.6,4.2c-0.8,1.3-1.7,2.5-2.9,3.5
					c-1.1,1-2.4,1.8-3.8,2.4c-1.4,0.6-2.8,0.9-4.3,1L418.6,83.9z M413.3,58.5l-1.6,9.4l4.7-0.2l-4.9,28.1l-4.7,0.2l-1.6,9.4
					l18.6-0.6l1.6-9.4l-4.7,0.2L422,88l7.9-0.3c2-0.1,4-0.5,6-1.4c2-0.8,3.7-2,5.3-3.4c1.6-1.4,2.9-3,4-4.9c1.1-1.8,1.8-3.8,2.2-5.9
					c0.4-2.1,0.3-4-0.1-5.8c-0.5-1.8-1.2-3.4-2.4-4.7c-1.1-1.3-2.5-2.3-4.2-3c-1.7-0.7-3.5-1-5.6-1L413.3,58.5z M423.7,78.6l2-11.2
					l7.9-0.3c1.6-0.1,2.8,0.4,3.7,1.5c0.9,1.1,1.2,2.4,0.9,3.9c-0.3,1.6-1,2.9-2.3,4c-1.3,1.1-2.7,1.7-4.2,1.8L423.7,78.6z
					 M422.2,63.3L418.8,83l12.1-0.4c1.3,0,2.6-0.3,3.9-0.9c1.3-0.6,2.4-1.3,3.5-2.2c1-0.9,1.9-2,2.6-3.2c0.7-1.2,1.2-2.5,1.4-3.8
					c0.2-1.3,0.2-2.6-0.1-3.8c-0.3-1.2-0.8-2.2-1.5-3.1c-0.7-0.9-1.6-1.5-2.8-2c-1.1-0.5-2.3-0.7-3.7-0.6L422.2,63.3z M356.7,86.1
					l-2.8,15.9l4.7-0.2l-0.2,0.9l-10.2,0.4l0.2-0.9l4.7-0.2l6.4-36.6l-4.7,0.2l0.2-0.9l17.7-0.6c1.5-0.1,2.8,0.2,4,0.7
					c1.2,0.5,2.2,1.2,3,2.2c0.8,0.9,1.4,2.1,1.7,3.4c0.3,1.3,0.4,2.7,0.1,4.2c-0.3,1.5-0.8,2.9-1.6,4.2c-0.8,1.3-1.8,2.5-2.9,3.5
					c-1.1,1-2.4,1.8-3.8,2.4c-1.4,0.6-2.8,0.9-4.3,1L356.7,86.1z M351.4,60.6l-1.6,9.4l4.7-0.2L349.5,98l-4.7,0.2l-1.6,9.4l18.6-0.6
					l1.6-9.4l-4.7,0.2l1.3-7.5l7.9-0.3c2-0.1,4-0.5,6-1.4c2-0.8,3.7-2,5.3-3.4c1.6-1.4,2.9-3,4-4.9c1.1-1.8,1.8-3.8,2.2-5.9
					c0.4-2.1,0.3-4-0.1-5.8c-0.5-1.8-1.2-3.4-2.4-4.7c-1.1-1.3-2.5-2.3-4.2-3c-1.7-0.7-3.5-1-5.6-1L351.4,60.6z M361.7,80.8l2-11.2
					l7.9-0.3c1.6-0.1,2.8,0.4,3.7,1.5c0.9,1.1,1.2,2.4,0.9,3.9c-0.3,1.6-1,2.9-2.3,4c-1.3,1.1-2.7,1.7-4.2,1.8L361.7,80.8z
					 M360.3,65.4l-3.4,19.7l12.1-0.4c1.3,0,2.6-0.3,3.9-0.9c1.3-0.6,2.4-1.3,3.5-2.2c1-0.9,1.9-2,2.6-3.2c0.7-1.2,1.2-2.5,1.4-3.8
					c0.2-1.3,0.2-2.6-0.1-3.8c-0.3-1.2-0.8-2.2-1.5-3.1c-0.7-0.9-1.6-1.5-2.8-2c-1.1-0.5-2.3-0.7-3.7-0.6L360.3,65.4z M337.2,103.5
					l-24.2,0.8l0.2-0.9l4.7-0.2l6.4-36.6l-4.7,0.2l0.2-0.9l10.2-0.4l-0.2,0.9l-4.7,0.2l-6.4,36.6l17.7-0.6l0.8-4.7l0.9,0
					L337.2,103.5z M333.8,93.9l-0.8,4.7l-9.3,0.3l4.9-28.1l4.7-0.2l1.6-9.4l-18.6,0.6l-1.6,9.4l4.7-0.2l-4.9,28.1l-4.7,0.2l-1.6,9.4
					l32.6-1.1l2.5-14.1L333.8,93.9z M290.1,67.9L287,85.7l9.3-0.3l-0.2,0.9l-9.3,0.3l-3.1,17.8l17.7-0.6l0.8-4.7l0.9,0l-1,5.6
					l-24.2,0.8l0.2-0.9l4.7-0.2l6.4-36.6l-4.7,0.2l0.2-0.9l24.2-0.8l-1,5.6l-0.9,0l0.8-4.7L290.1,67.9z M311.4,76l2.5-14.1
					l-32.6,1.1l-1.6,9.4l4.7-0.2l-4.9,28.1l-4.7,0.2l-1.6,9.4l32.6-1.1l2.5-14.1l-9.3,0.3l-0.8,4.7l-9.3,0.3l1.6-9.4l9.3-0.3
					l1.6-9.4l-9.3,0.3l1.6-9.4l9.3-0.3l-0.8,4.7L311.4,76z M269.1,68.6l-6.4,36.6l4.7-0.2l-0.2,0.9l-10.2,0.4l0.2-0.9l4.7-0.2
					l3.1-17.8L243,88.2l-3.1,17.8l4.7-0.2l-0.2,0.9l-10.2,0.4l0.2-0.9l4.7-0.2l6.4-36.6l-4.7,0.2l0.2-0.9l10.2-0.4l-0.2,0.9
					l-4.7,0.2l-3.1,17.8l21.9-0.8l3.1-17.8l-4.7,0.2l0.2-0.9l10.2-0.4l-0.2,0.9L269.1,68.6z M277.2,72.5l1.6-9.4l-18.6,0.6l-1.6,9.4
					l4.7-0.2l-1.6,9.4l-13.5,0.5l1.6-9.4l4.7-0.2L256,64l-18.6,0.6l-1.6,9.4l4.7-0.2l-4.9,28.1l-4.7,0.2l-1.6,9.4l18.6-0.6l1.6-9.4
					l-4.7,0.2l1.6-9.4l13.5-0.5l-1.6,9.4l-4.7,0.2l-1.6,9.4l18.6-0.6l1.6-9.4l-4.7,0.2l4.9-28.1L277.2,72.5z"/>
			</g>
		</g>
	</g>
</g>
</svg>
