<?xml version="1.0" encoding="utf-8"?>
<!-- Generator: Adobe Illustrator 19.2.1, SVG Export Plug-In . SVG Version: 6.00 Build 0)  -->
<svg version="1.1" id="Layer_1" xmlns="http://www.w3.org/2000/svg" xmlns:xlink="http://www.w3.org/1999/xlink" x="0px" y="0px"
	 viewBox="0 0 1136.9 142.5" style="enable-background:new 0 0 1136.9 142.5;" xml:space="preserve">
<metadata><?xpacket begin="﻿" id="W5M0MpCehiHzreSzNTczkc9d"?>
<x:xmpmeta xmlns:x="adobe:ns:meta/" x:xmptk="Adobe XMP Core 5.6-c111 79.158366, 2015/09/25-01:12:00        ">
   <rdf:RDF xmlns:rdf="http://www.w3.org/1999/02/22-rdf-syntax-ns#">
      <rdf:Description rdf:about=""/>
   </rdf:RDF>
</x:xmpmeta>
                                                                                                    
                                                                                                    
                                                                                                    
                                                                                                    
                                                                                                    
                                                                                                    
                                                                                                    
                                                                                                    
                                                                                                    
                                                                                                    
                                                                                                    
                                                                                                    
                                                                                                    
                                                                                                    
                                                                                                    
                                                                                                    
                                                                                                    
                                                                                                    
                                                                                                    
                                                                                                    
                           
<?xpacket end="w"?></metadata>
<style type="text/css">
	.st0{clip-path:url(#SVGID_2_);}
	.st1{opacity:0.9;clip-path:url(#SVGID_4_);}
	.st2{clip-path:url(#SVGID_6_);fill:#A9B7B0;}
</style>
<g>
	<defs>
		<rect id="SVGID_1_" x="88" y="26" width="959.1" height="92.2"/>
	</defs>
	<clipPath id="SVGID_2_">
		<use xlink:href="#SVGID_1_"  style="overflow:visible;"/>
	</clipPath>
	<g class="st0">
		<defs>
			<rect id="SVGID_3_" x="88" y="26" width="959.1" height="92.2"/>
		</defs>
		<clipPath id="SVGID_4_">
			<use xlink:href="#SVGID_3_"  style="overflow:visible;"/>
		</clipPath>
		<g class="st1">
			<g>
				<defs>
					<rect id="SVGID_5_" x="79" y="18.1" width="977.1" height="102"/>
				</defs>
				<clipPath id="SVGID_6_">
					<use xlink:href="#SVGID_5_"  style="overflow:visible;"/>
				</clipPath>
				<path class="st2" d="M1025.5,79.9c-1.8,0.7-3.8,1-5.8,1.1c-1.8,0.1-3.5,0-5-0.2s-2.8-0.5-4-1c-1.2-0.5-2.3-1.1-3.3-1.9
					c-1-0.8-2-1.7-2.9-2.9l-2.7,0.1l-1,5.9l-1.2,0l1.2-7.1l4.2-0.1c1.8,2,3.7,3.5,5.9,4.6c2.2,1,5.2,1.5,8.9,1.4
					c1.8-0.1,3.6-0.4,5.2-0.9c1.6-0.6,3.1-1.3,4.3-2.2c1.3-0.9,2.3-2,3.2-3.3c0.9-1.3,1.4-2.6,1.7-4.1c0.2-1,0.2-2.1,0-3.3
					c-0.1-1.3-0.7-2.5-1.6-3.7c-0.9-1.2-2.4-2.3-4.3-3.3c-2-1-4.7-1.7-8.1-2.1c-1.9-0.2-3.8-0.6-5.8-1.1c-1.9-0.5-3.6-1.3-5.1-2.3
					c-1.5-1-2.6-2.3-3.4-3.8c-0.8-1.5-1-3.5-0.6-5.8c0.3-1.7,0.9-3.3,1.9-4.7c0.9-1.5,2.1-2.7,3.6-3.8c1.4-1.1,3-2,4.8-2.6
					c1.8-0.7,3.6-1,5.6-1.1c2.2-0.1,4.1,0.1,5.6,0.4c1.8,0.4,3.4,1,5,1.9c1.6,0.9,3,2.1,4.1,3.6l2.6-0.1l1-5.9l1.2,0l-1.2,7.1
					l-4.3,0.1c-1.6-2-3.5-3.5-5.7-4.6c-2.1-1-5-1.5-8.6-1.4c-2,0.1-3.8,0.4-5.4,1.1c-1.7,0.7-3.1,1.5-4.4,2.6
					c-1.3,1-2.3,2.2-3.1,3.5c-0.8,1.3-1.3,2.6-1.5,3.9c-1.2,6.6,3.5,10.6,14,11.9c3.6,0.4,6.5,1.2,8.5,2.3c2.1,1.1,3.6,2.3,4.6,3.6
					c1,1.3,1.6,2.6,1.7,4c0.1,1.4,0.1,2.6-0.1,3.6c-0.3,1.9-1,3.5-2,4.8c-1,1.3-2,2.3-3,3.1C1029,78.3,1027.3,79.2,1025.5,79.9
					 M1012,43.7c0.2-1.3,1.1-2.5,2.6-3.7c1.5-1.2,3.4-1.8,5.7-1.9c1.6-0.1,3,0,4.2,0.3c1.2,0.2,2.2,0.6,3.1,1.1
					c0.9,0.5,1.7,1.1,2.5,1.9c0.7,0.8,1.5,1.7,2.3,2.7l11.8-0.4l3.1-17.7l-11.7,0.4l-0.4,2.4c-1.6-0.9-3.4-1.6-5.4-2
					c-2-0.5-4.5-0.6-7.3-0.5c-2.7,0.1-5.2,0.6-7.7,1.6c-2.4,1-4.7,2.2-6.7,3.8c-2,1.6-3.7,3.5-5,5.6c-1.3,2.1-2.2,4.4-2.6,6.8
					c-0.3,1.5-0.3,3.1-0.1,5c0.2,1.9,0.9,3.7,2.1,5.4c1.2,1.7,3.1,3.3,5.7,4.7c2.6,1.4,6.1,2.4,10.7,3c1.3,0.2,2.6,0.4,3.9,0.7
					c1.3,0.3,2.5,0.8,3.5,1.3c1,0.6,1.8,1.2,2.4,2.1c0.6,0.8,0.8,1.9,0.5,3.1c-0.2,1.3-1.1,2.5-2.7,3.4c-1.6,0.9-3.4,1.5-5.5,1.5
					c-1.6,0.1-3,0-4.2-0.2c-1.2-0.2-2.3-0.6-3.2-1.1c-0.9-0.5-1.8-1.1-2.7-1.9c-0.8-0.8-1.7-1.7-2.5-2.8l-11.7,0.4l-3.1,17.7
					l11.7-0.4l0.5-2.6c1.6,0.9,3.5,1.6,5.7,2.1c2.2,0.5,4.7,0.7,7.5,0.6c2.7-0.1,5.3-0.6,7.8-1.5c2.5-0.9,4.7-2.1,6.6-3.7
					c2-1.5,3.6-3.3,4.9-5.4c1.3-2.1,2.2-4.3,2.6-6.6c0.2-1.2,0.3-2.7,0.2-4.6c-0.1-1.9-0.7-3.7-1.9-5.6c-1.2-1.9-3-3.6-5.6-5.2
					c-2.6-1.6-6.2-2.6-11-3.2C1014.9,49.5,1011.4,47.2,1012,43.7 M970.6,35.1l-3.9,22.4l11.7-0.4l-0.2,1.2l-11.7,0.4l-3.9,22.4
					l22.3-0.8l1-5.9l1.2,0l-1.2,7.1l-30.5,1.1l0.2-1.2l5.9-0.2l8.1-46l-5.9,0.2l0.2-1.2l30.5-1.1l-1.2,7.1l-1.2,0l1-5.9L970.6,35.1z
					 M997.3,45.3l3.1-17.7l-41,1.4l-2.1,11.8l5.9-0.2L957,76.1l-5.9,0.2l-2.1,11.8l41-1.4l3.1-17.7l-11.7,0.4l-1,5.9l-11.7,0.4
					l2.1-11.8l11.7-0.4l2.1-11.8l-11.7,0.4l2.1-11.8l11.7-0.4l-1,5.9L997.3,45.3z M927.6,30.2c-2.5,0.1-4.8,0.6-7.1,1.6
					c-2.3,1-4.4,2.3-6.2,4c-1.9,1.7-3.5,3.6-4.8,5.8c-1.3,2.2-2.2,4.5-2.6,6.9l-4.1,23.6c-0.4,2.5-0.4,4.8,0.2,6.9
					c0.5,2.1,1.5,3.9,2.8,5.5c1.3,1.5,2.9,2.7,4.9,3.6c2,0.9,4.2,1.2,6.6,1.2l11.7-0.4c2.4-0.1,4.8-0.6,7.1-1.6c2.3-1,4.4-2.3,6.3-4
					c1.9-1.7,3.5-3.6,4.7-5.7c1.3-2.2,2.2-4.5,2.6-7l0.5-3l-11.7,0.4l-0.5,3c-0.3,1.6-1.1,3-2.4,4.2c-1.3,1.2-2.8,1.8-4.4,1.9
					l-11.7,0.4c-1.6,0.1-2.9-0.5-3.8-1.6c-0.9-1.1-1.3-2.5-1-4.1l4.1-23.6c0.3-1.6,1.1-3,2.4-4.2c1.3-1.2,2.8-1.8,4.4-1.9l11.7-0.4
					c1.6-0.1,2.9,0.5,3.8,1.6c0.9,1.1,1.3,2.5,1,4.1l-0.5,3l11.7-0.4l0.5-3c0.4-2.4,0.4-4.7-0.2-6.8c-0.5-2.1-1.5-4-2.8-5.5
					c-1.3-1.5-3-2.7-4.9-3.6c-2-0.9-4.2-1.2-6.6-1.2L927.6,30.2z M938.4,35.1c1.5-0.1,2.9,0.2,4.1,0.6c1.3,0.5,2.3,1.1,3.2,2
					c0.9,0.9,1.6,1.9,2.1,3.1c0.5,1.2,0.8,2.5,0.8,3.9l-1.2,0c-0.1-2.5-1-4.6-2.7-6.2c-1.7-1.6-3.9-2.4-6.6-2.3l-11.7,0.4
					c-1.5,0.1-3,0.4-4.5,1c-1.5,0.6-2.8,1.5-4,2.5c-1.2,1-2.2,2.3-3,3.7c-0.8,1.4-1.4,2.9-1.6,4.4l-4.1,23.6c-0.3,1.5-0.2,3,0.1,4.3
					c0.3,1.4,0.9,2.5,1.8,3.5c0.8,1,1.9,1.7,3.1,2.3c1.3,0.5,2.6,0.8,4.2,0.7l11.7-0.4c2.7-0.1,5.2-1,7.5-2.8c2.3-1.8,4-3.9,5-6.5
					l1.2,0c-0.5,1.5-1.3,2.8-2.2,4.1c-0.9,1.2-2,2.3-3.2,3.3c-1.2,0.9-2.5,1.7-4,2.2c-1.4,0.6-2.9,0.9-4.4,0.9l-11.7,0.4
					c-1.7,0.1-3.2-0.2-4.6-0.8c-1.4-0.6-2.5-1.4-3.5-2.5c-0.9-1.1-1.6-2.4-1.9-3.9c-0.4-1.5-0.4-3.1-0.1-4.8l4.1-23.6
					c0.3-1.7,0.9-3.3,1.8-4.8c0.9-1.5,2-2.9,3.3-4.1c1.3-1.2,2.8-2.1,4.4-2.8c1.6-0.7,3.3-1.1,4.9-1.1L938.4,35.1z M868.3,58.1
					l2.5-14.2l10-0.3c2-0.1,3.5,0.6,4.6,1.9c1.1,1.3,1.5,3,1.2,4.9c-0.3,2-1.3,3.7-2.9,5.1c-1.6,1.4-3.4,2.2-5.3,2.2L868.3,58.1z
					 M891.7,45.4c-0.4-1.5-1-2.8-1.9-3.9c-0.9-1.1-2.1-1.9-3.5-2.5c-1.4-0.6-2.9-0.9-4.6-0.8l-15.2,0.5l-4.3,24.8l15.2-0.5
					c1.7-0.1,3.3-0.4,4.9-1.1c1.6-0.7,3.1-1.6,4.4-2.8c1.3-1.2,2.4-2.5,3.3-4.1c0.9-1.5,1.5-3.2,1.8-4.8
					C892.1,48.5,892,46.9,891.7,45.4 M892.7,84.8l-12.9,0.5l0.2-1.2l8.6-0.3l-8-20.1c-0.5,0.2-1.1,0.3-1.8,0.4
					c-0.7,0.1-1.4,0.1-2,0.2l-15,0.5l-3.5,20.1l5.9-0.2l-0.2,1.2l-12.9,0.5l0.2-1.2l5.9-0.2l8.1-46l-5.9,0.2l0.2-1.2l22.5-0.8
					c1.8-0.1,3.5,0.2,5,0.9c1.5,0.7,2.7,1.6,3.7,2.8c1,1.2,1.7,2.6,2.1,4.2c0.4,1.6,0.5,3.3,0.1,5.2c-0.4,2.1-1.1,4-2.3,5.9
					c-1.2,1.9-2.7,3.5-4.5,4.8l-0.7,0.5c-0.7,0.5-1.5,0.9-2.4,1.3c-0.4,0.2-0.8,0.4-1.2,0.5l8.2,20.4l2.9-0.1L892.7,84.8z M894,78.3
					L888.6,65c2.4-1.9,4.5-4.1,6.2-6.7c1.7-2.6,2.9-5.4,3.4-8.3c0.5-2.6,0.4-5-0.2-7.2c-0.6-2.2-1.6-4.2-2.9-5.8
					c-1.4-1.6-3.1-2.9-5.2-3.8c-2.1-0.9-4.4-1.4-6.9-1.4l-27.8,1l-2.1,11.8l5.9-0.2l-6.2,35.4l-5.9,0.2l-2.1,11.8l23.4-0.8l2.1-11.8
					l-5.9,0.2l1.7-9.4l10.5-0.4l3.7,9.3l-4.8,0.2l-2.1,11.8l23.4-0.8l2.1-11.8L894,78.3z M845.8,39.5l-5.9,0.2l-6.1,34.8
					c-0.3,1.7-0.9,3.3-1.8,4.8c-0.9,1.5-2,2.9-3.3,4.1c-1.3,1.2-2.8,2.1-4.4,2.8c-1.6,0.7-3.3,1.1-4.9,1.1l-8.2,0.3
					c-1.7,0.1-3.2-0.2-4.6-0.8c-1.4-0.6-2.5-1.4-3.5-2.5c-0.9-1.1-1.6-2.4-1.9-3.9c-0.4-1.5-0.4-3.1-0.1-4.8l6.1-34.8l-5.9,0.2
					l0.2-1.2l12.9-0.5l-0.2,1.2l-5.9,0.2l-6.1,34.8c-0.3,1.5-0.2,3,0.1,4.3c0.3,1.4,0.9,2.5,1.8,3.5c0.8,1,1.9,1.7,3.1,2.3
					c1.3,0.5,2.6,0.8,4.2,0.7l8.2-0.3c1.5-0.1,3-0.4,4.5-1c1.5-0.6,2.8-1.5,4-2.5c1.2-1,2.2-2.3,3-3.7c0.8-1.4,1.4-2.9,1.6-4.4
					l6.1-34.8l-5.9,0.2l0.2-1.2l12.9-0.5L845.8,39.5z M828.7,33.6l-2.1,11.8l5.9-0.2l-5.2,29.5c-0.3,1.6-1.1,3-2.4,4.2
					c-1.3,1.2-2.8,1.8-4.4,1.9l-8.2,0.3c-1.6,0.1-2.9-0.5-3.8-1.6c-0.9-1.1-1.3-2.5-1-4.1l5.2-29.5l5.9-0.2l2.1-11.8l-23.4,0.8
					L795,46.5l5.9-0.2l-5.2,29.5c-0.4,2.5-0.4,4.8,0.2,6.9c0.5,2.1,1.5,3.9,2.8,5.5c1.3,1.5,2.9,2.7,4.9,3.6c2,0.9,4.2,1.2,6.6,1.2
					l8.2-0.3c2.4-0.1,4.8-0.6,7.1-1.6c2.3-1,4.4-2.3,6.3-4c1.9-1.7,3.5-3.6,4.7-5.7c1.3-2.2,2.2-4.5,2.6-7l5.2-29.5l5.9-0.2
					l2.1-11.8L828.7,33.6z M756.8,83.1c-1.6,0.1-2.9-0.5-3.8-1.6c-0.9-1.1-1.3-2.5-1-4.1l4.1-23.6c0.3-1.6,1.1-3,2.4-4.2
					c1.3-1.2,2.8-1.8,4.4-1.9l11.7-0.4c1.6-0.1,2.9,0.5,3.8,1.6c0.9,1.1,1.3,2.5,1,4.1l-4.1,23.6c-0.3,1.6-1.1,3-2.4,4.2
					c-1.3,1.2-2.8,1.8-4.4,1.9L756.8,83.1z M765.1,35.9c-2.5,0.1-4.8,0.6-7.1,1.6c-2.3,1-4.4,2.3-6.2,4c-1.9,1.7-3.5,3.6-4.8,5.8
					c-1.3,2.2-2.2,4.5-2.6,6.9l-4.1,23.6c-0.4,2.5-0.4,4.8,0.2,6.9c0.5,2.1,1.5,3.9,2.8,5.5c1.3,1.5,2.9,2.7,4.9,3.6
					c2,0.9,4.2,1.2,6.6,1.2l11.7-0.4c2.4-0.1,4.8-0.6,7.1-1.6c2.3-1,4.4-2.3,6.3-4c1.9-1.7,3.5-3.6,4.7-5.7c1.3-2.2,2.2-4.5,2.6-7
					l4.1-23.6c0.4-2.4,0.4-4.7-0.2-6.8c-0.5-2.1-1.5-4-2.8-5.5c-1.3-1.5-3-2.7-4.9-3.6c-2-0.9-4.2-1.2-6.6-1.2L765.1,35.9z
					 M767.6,88c1.5-0.1,3-0.4,4.5-1c1.5-0.6,2.8-1.5,4-2.5c1.2-1,2.2-2.3,3-3.7c0.8-1.4,1.4-2.9,1.6-4.4l4.1-23.6
					c0.3-1.5,0.2-3-0.1-4.3c-0.3-1.4-0.9-2.5-1.8-3.5c-0.8-1-1.9-1.7-3.1-2.3c-1.3-0.5-2.6-0.8-4.2-0.7l-11.7,0.4
					c-1.5,0.1-3,0.4-4.5,1c-1.5,0.6-2.8,1.5-4,2.5s-2.2,2.3-3,3.7c-0.8,1.4-1.4,2.9-1.6,4.4l-4.1,23.6c-0.3,1.5-0.2,3,0.1,4.3
					c0.3,1.4,0.9,2.5,1.8,3.5c0.8,1,1.9,1.7,3.1,2.3c1.3,0.5,2.6,0.8,4.2,0.7L767.6,88z M775.8,40.8c1.7-0.1,3.2,0.2,4.6,0.8
					c1.4,0.6,2.5,1.4,3.5,2.5c0.9,1.1,1.6,2.4,1.9,3.9c0.4,1.5,0.4,3.1,0.1,4.8l-4.1,23.6c-0.3,1.7-0.9,3.3-1.8,4.8
					c-0.9,1.5-2,2.9-3.3,4.1c-1.3,1.2-2.8,2.1-4.4,2.8c-1.6,0.7-3.3,1.1-4.9,1.1l-11.7,0.4c-1.7,0.1-3.2-0.2-4.6-0.8
					c-1.4-0.6-2.6-1.4-3.5-2.5c-0.9-1.1-1.6-2.4-1.9-3.9c-0.4-1.5-0.4-3.1-0.1-4.8l4.1-23.6c0.3-1.7,0.9-3.3,1.8-4.8
					c0.9-1.5,2-2.9,3.3-4.1c1.3-1.2,2.8-2.1,4.4-2.8c1.6-0.7,3.3-1.1,4.9-1.1L775.8,40.8z M721.8,90.5c-1.8,0.7-3.8,1-5.8,1.1
					c-1.8,0.1-3.5,0-5-0.2c-1.5-0.2-2.8-0.5-4-1c-1.2-0.5-2.3-1.1-3.3-1.9c-1-0.8-2-1.7-2.9-2.9l-2.7,0.1l-1,5.9l-1.2,0l1.2-7.1
					l4.2-0.1c1.8,2,3.7,3.5,5.9,4.6c2.2,1,5.2,1.5,8.9,1.4c1.8-0.1,3.6-0.4,5.2-0.9c1.6-0.6,3.1-1.3,4.3-2.2c1.3-0.9,2.3-2,3.2-3.3
					c0.9-1.3,1.4-2.6,1.7-4.1c0.2-1,0.2-2.1,0-3.3c-0.1-1.3-0.7-2.5-1.6-3.7s-2.4-2.3-4.3-3.3c-2-1-4.7-1.7-8.1-2.1
					c-1.9-0.2-3.8-0.6-5.8-1.1c-1.9-0.5-3.6-1.3-5.1-2.3c-1.5-1-2.6-2.3-3.4-3.8c-0.8-1.5-1-3.5-0.6-5.8c0.3-1.7,0.9-3.3,1.9-4.7
					c0.9-1.5,2.1-2.7,3.6-3.8c1.4-1.1,3-2,4.8-2.6c1.8-0.7,3.6-1,5.6-1.1c2.2-0.1,4.1,0.1,5.6,0.4c1.8,0.4,3.4,1,5,1.9
					c1.6,0.9,3,2.1,4.1,3.6l2.6-0.1l1-5.9l1.2,0l-1.2,7.1l-4.3,0.1c-1.6-2-3.5-3.5-5.7-4.6c-2.1-1-5-1.5-8.6-1.4
					c-2,0.1-3.8,0.4-5.4,1.1c-1.7,0.7-3.1,1.5-4.4,2.6c-1.3,1-2.3,2.2-3.1,3.5c-0.8,1.3-1.3,2.6-1.5,3.9c-1.2,6.6,3.5,10.6,14,11.9
					c3.6,0.4,6.5,1.2,8.5,2.3c2.1,1.1,3.6,2.3,4.6,3.6c1,1.3,1.6,2.6,1.7,4c0.1,1.4,0.1,2.6-0.1,3.6c-0.3,1.9-1,3.5-2,4.8
					c-1,1.3-2,2.3-3,3.1C725.3,88.9,723.7,89.8,721.8,90.5 M708.4,54.3c0.2-1.3,1.1-2.5,2.6-3.7c1.5-1.2,3.4-1.8,5.7-1.9
					c1.6-0.1,3,0,4.2,0.3c1.1,0.2,2.2,0.6,3.1,1.1c0.9,0.5,1.7,1.1,2.5,1.9c0.7,0.8,1.5,1.7,2.3,2.7l11.8-0.4l3.1-17.7L731.8,37
					l-0.4,2.4c-1.6-0.9-3.4-1.6-5.4-2c-2-0.5-4.5-0.6-7.3-0.5c-2.7,0.1-5.2,0.6-7.7,1.6c-2.4,1-4.7,2.2-6.7,3.8
					c-2,1.6-3.7,3.5-5,5.6c-1.3,2.1-2.2,4.4-2.6,6.8c-0.3,1.5-0.3,3.1-0.1,5c0.2,1.9,0.9,3.7,2.1,5.4c1.2,1.7,3.1,3.3,5.7,4.7
					c2.6,1.4,6.1,2.4,10.7,3c1.3,0.2,2.6,0.4,3.9,0.7c1.3,0.3,2.5,0.8,3.5,1.3c1,0.6,1.8,1.2,2.4,2.1c0.6,0.8,0.8,1.9,0.5,3.1
					c-0.2,1.3-1.1,2.5-2.7,3.4c-1.6,0.9-3.4,1.5-5.5,1.5c-1.6,0.1-3,0-4.2-0.2c-1.2-0.2-2.3-0.6-3.2-1.1c-0.9-0.5-1.8-1.1-2.7-1.9
					c-0.8-0.8-1.7-1.7-2.5-2.8l-11.7,0.4l-3.1,17.7l11.7-0.4l0.5-2.6c1.6,0.9,3.5,1.6,5.7,2.1c2.2,0.5,4.7,0.7,7.5,0.6
					c2.7-0.1,5.3-0.6,7.8-1.5c2.5-0.9,4.7-2.1,6.6-3.7c2-1.5,3.6-3.3,4.9-5.4c1.3-2.1,2.2-4.3,2.6-6.6c0.2-1.2,0.3-2.7,0.2-4.6
					c-0.1-1.9-0.7-3.7-1.9-5.6c-1.2-1.9-3-3.6-5.6-5.2c-2.6-1.6-6.2-2.6-11-3.2C711.2,60.1,707.8,57.8,708.4,54.3 M667,45.7
					L663,68.2l11.7-0.4l-0.2,1.2l-11.7,0.4l-3.9,22.4l22.3-0.8l1-5.9l1.2,0l-1.2,7.1l-30.5,1.1l0.2-1.2l5.9-0.2l8.1-46l-5.9,0.2
					l0.2-1.2l30.5-1.1l-1.2,7.1l-1.2,0l1-5.9L667,45.7z M693.7,56l3.1-17.7l-41,1.4l-2.1,11.8l5.9-0.2l-6.2,35.4l-5.9,0.2l-2.1,11.8
					l41-1.4l3.1-17.7L677.8,80l-1,5.9l-11.7,0.4l2.1-11.8l11.7-0.4l2.1-11.8l-11.7,0.4l2.1-11.8l11.7-0.4l-1,5.9L693.7,56z
					 M613.7,67l2.5-14.2l10-0.3c2-0.1,3.5,0.6,4.6,1.9c1.1,1.3,1.5,3,1.2,4.9c-0.3,2-1.3,3.7-2.9,5.1c-1.6,1.4-3.4,2.2-5.3,2.2
					L613.7,67z M637.1,54.3c-0.4-1.5-1-2.8-1.9-3.9c-0.9-1.1-2.1-1.9-3.5-2.5c-1.4-0.6-2.9-0.9-4.6-0.8l-15.2,0.5l-4.3,24.8
					l15.2-0.5c1.7-0.1,3.3-0.4,4.9-1.1c1.6-0.7,3.1-1.6,4.4-2.8c1.3-1.2,2.4-2.5,3.3-4.1c0.9-1.5,1.5-3.2,1.8-4.8
					C637.5,57.4,637.4,55.8,637.1,54.3 M638.1,93.7l-12.9,0.5l0.2-1.2l8.6-0.3l-8-20.1c-0.5,0.2-1.1,0.3-1.8,0.4
					c-0.7,0.1-1.4,0.1-2,0.2l-15,0.5l-3.5,20.1l5.9-0.2l-0.2,1.2l-12.9,0.5l0.2-1.2l5.9-0.2l8.1-46l-5.9,0.2l0.2-1.2l22.5-0.8
					c1.8-0.1,3.5,0.2,5,0.9c1.5,0.7,2.7,1.6,3.7,2.8c1,1.2,1.7,2.6,2.1,4.2c0.4,1.6,0.5,3.3,0.1,5.2c-0.4,2.1-1.1,4-2.3,5.9
					c-1.2,1.9-2.7,3.5-4.5,4.8l-0.7,0.5c-0.7,0.5-1.5,0.9-2.4,1.3c-0.4,0.2-0.8,0.4-1.2,0.5l8.2,20.4l2.9-0.1L638.1,93.7z
					 M639.4,87.2L634,73.9c2.4-1.9,4.5-4.1,6.2-6.7c1.7-2.6,2.9-5.4,3.4-8.3c0.5-2.6,0.4-5-0.2-7.2c-0.6-2.2-1.6-4.2-2.9-5.8
					c-1.4-1.6-3.1-2.9-5.2-3.8c-2.1-0.9-4.4-1.4-6.9-1.4l-27.8,1l-2.1,11.8l5.9-0.2l-6.2,35.4l-5.9,0.2l-2.1,11.8l23.4-0.8l2.1-11.8
					l-5.9,0.2l1.7-9.4l10.5-0.4l3.7,9.3l-4.8,0.2L619,99.6l23.4-0.8l2.1-11.8L639.4,87.2z M539.6,43.7c-2.5,0.1-4.8,0.6-7.1,1.6
					c-2.3,1-4.4,2.3-6.2,4c-1.9,1.7-3.5,3.6-4.8,5.8c-1.3,2.2-2.2,4.5-2.6,6.9l-4.1,23.6c-0.4,2.5-0.4,4.8,0.2,6.9s1.5,3.9,2.8,5.5
					c1.3,1.5,2.9,2.7,4.9,3.6c2,0.9,4.2,1.2,6.6,1.2l11.7-0.4c2.4-0.1,4.8-0.6,7.1-1.6c2.3-1,4.4-2.3,6.3-4s3.5-3.6,4.7-5.7
					c1.3-2.2,2.2-4.5,2.6-7l0.5-3l-11.7,0.4l-0.5,3c-0.3,1.6-1.1,3-2.4,4.2c-1.3,1.2-2.8,1.8-4.4,1.9L531.4,91
					c-1.6,0.1-2.9-0.5-3.8-1.6c-0.9-1.1-1.3-2.5-1-4.1l4.1-23.6c0.3-1.6,1.1-3,2.4-4.2c1.3-1.2,2.8-1.8,4.4-1.9l11.7-0.4
					c1.6-0.1,2.9,0.5,3.8,1.6c0.9,1.1,1.3,2.5,1,4.1l-0.5,3l11.7-0.4l0.5-3c0.4-2.4,0.4-4.7-0.2-6.8c-0.5-2.1-1.5-4-2.8-5.5
					c-1.3-1.5-3-2.7-4.9-3.6c-2-0.9-4.2-1.2-6.6-1.2L539.6,43.7z M550.4,48.6c1.5-0.1,2.9,0.2,4.1,0.6c1.3,0.5,2.3,1.1,3.2,2
					c0.9,0.9,1.6,1.9,2.1,3.1c0.5,1.2,0.8,2.5,0.8,3.9l-1.2,0c-0.1-2.5-1-4.6-2.7-6.2c-1.7-1.6-3.9-2.4-6.6-2.3l-11.7,0.4
					c-1.5,0.1-3,0.4-4.5,1c-1.5,0.6-2.8,1.5-4,2.5c-1.2,1-2.2,2.3-3,3.7c-0.8,1.4-1.4,2.9-1.6,4.4l-4.1,23.6c-0.3,1.5-0.2,3,0.1,4.3
					c0.3,1.4,0.9,2.5,1.8,3.5c0.8,1,1.9,1.7,3.1,2.3c1.3,0.5,2.6,0.8,4.2,0.7l11.7-0.4c2.7-0.1,5.2-1,7.5-2.8c2.3-1.8,4-3.9,5-6.5
					l1.2,0c-0.5,1.5-1.3,2.8-2.2,4.1c-0.9,1.2-2,2.3-3.2,3.3c-1.2,0.9-2.5,1.7-4,2.2c-1.4,0.6-2.9,0.9-4.4,0.9l-11.7,0.4
					c-1.7,0.1-3.2-0.2-4.6-0.8c-1.4-0.6-2.6-1.4-3.5-2.5c-0.9-1.1-1.6-2.4-1.9-3.9c-0.4-1.5-0.4-3.1-0.1-4.8l4.1-23.6
					c0.3-1.7,0.9-3.3,1.8-4.8c0.9-1.5,2-2.9,3.3-4.1c1.3-1.2,2.8-2.1,4.4-2.8c1.6-0.7,3.3-1.1,4.9-1.1L550.4,48.6z M504.8,97.2
					l-0.2,1.2l-12.9,0.5l0.2-1.2l5.9-0.2l8.1-46l-5.9,0.2l0.2-1.2l12.9-0.5l-0.2,1.2l-5.9,0.2l-8.1,46L504.8,97.2z M517.2,56.2
					l2.1-11.8l-23.4,0.8l-2.1,11.8l5.9-0.2l-6.2,35.4l-5.9,0.2l-2.1,11.8l23.4-0.8l2.1-11.8l-5.9,0.2l6.2-35.4L517.2,56.2z
					 M486.4,52l-5.9,0.2l-8.3,47.2l-3.5,0.1l-21.1-46.2l-1.7,0.1l-8.1,46l5.9-0.2l-0.2,1.2l-12.9,0.5l0.2-1.2l5.9-0.2l8.1-46
					l-5.9,0.2l0.2-1.2l9.4-0.3l21.1,46.2l1.7-0.1l8.1-46l-5.9,0.2l0.2-1.2l12.9-0.5L486.4,52z M469.4,46.2L467.3,58l5.9-0.2l-4.4,25
					l-16.4-36l-17.6,0.6l-2.1,11.8l5.9-0.2l-6.2,35.4l-5.9,0.2l-2.1,11.8l23.4-0.8l2.1-11.8l-5.9,0.2l4.4-25l16.4,36l11.7-0.4
					l8.3-47.2l5.9-0.2l2.1-11.8L469.4,46.2z M417.3,100.2l-0.2,1.2l-12.9,0.5l0.2-1.2l5.9-0.2l8.1-46l-5.9,0.2l0.2-1.2l12.9-0.5
					l-0.2,1.2l-5.9,0.2l-8.1,46L417.3,100.2z M429.7,59.3l2.1-11.8l-23.4,0.8l-2.1,11.8l5.9-0.2l-6.2,35.4l-5.9,0.2l-2.1,11.8
					l23.4-0.8l2.1-11.8l-5.9,0.2l6.2-35.4L429.7,59.3z M390.6,102.3l-30.5,1.1l0.2-1.2l5.9-0.2l8.1-46l-5.9,0.2l0.2-1.2l12.9-0.5
					l-0.2,1.2l-5.9,0.2l-8.1,46l22.3-0.8l1-5.9l1.2,0L390.6,102.3z M386.3,90.1l-1,5.9l-11.7,0.4l6.2-35.4l5.9-0.2l2.1-11.8
					l-23.4,0.8l-2.1,11.8l5.9-0.2l-6.2,35.4l-5.9,0.2l-2.1,11.8l41-1.4l3.1-17.7L386.3,90.1z M332.4,51c-2.5,0.1-4.8,0.6-7.1,1.6
					c-2.3,1-4.4,2.3-6.2,4c-1.9,1.7-3.5,3.6-4.8,5.8c-1.3,2.2-2.2,4.5-2.6,6.9l-4.1,23.6c-0.4,2.5-0.4,4.8,0.2,6.9
					c0.5,2.1,1.5,3.9,2.8,5.5c1.3,1.5,2.9,2.7,4.9,3.6c2,0.9,4.2,1.2,6.6,1.2l11.7-0.4c2.4-0.1,4.8-0.6,7.1-1.6c2.3-1,4.4-2.3,6.3-4
					c1.9-1.7,3.5-3.6,4.7-5.7c1.3-2.2,2.2-4.5,2.6-7l0.5-3l-11.7,0.4l-0.5,3c-0.3,1.6-1.1,3-2.4,4.2c-1.3,1.2-2.8,1.8-4.4,1.9
					l-11.7,0.4c-1.6,0.1-2.9-0.5-3.8-1.6c-0.9-1.1-1.3-2.5-1-4.1l4.1-23.6c0.3-1.6,1.1-3,2.4-4.2c1.3-1.2,2.8-1.8,4.4-1.9l11.7-0.4
					c1.6-0.1,2.9,0.5,3.8,1.6c0.9,1.1,1.3,2.5,1,4.1l-0.5,3l11.7-0.4l0.5-3c0.4-2.4,0.4-4.7-0.2-6.8c-0.5-2.1-1.5-4-2.8-5.5
					c-1.3-1.5-3-2.7-4.9-3.6c-2-0.9-4.2-1.2-6.6-1.2L332.4,51z M343.2,55.9c1.5-0.1,2.9,0.2,4.1,0.6c1.3,0.5,2.3,1.1,3.2,2
					c0.9,0.9,1.6,1.9,2.1,3.1c0.5,1.2,0.8,2.5,0.8,3.9l-1.2,0c-0.1-2.5-1-4.6-2.7-6.2c-1.7-1.6-3.9-2.4-6.6-2.3l-11.7,0.4
					c-1.5,0.1-3,0.4-4.5,1c-1.5,0.6-2.8,1.5-4,2.5c-1.2,1-2.2,2.3-3,3.7c-0.8,1.4-1.4,2.9-1.6,4.4l-4.1,23.6c-0.3,1.5-0.2,3,0.1,4.3
					c0.3,1.4,0.9,2.5,1.8,3.5c0.8,1,1.9,1.7,3.1,2.3c1.3,0.5,2.6,0.8,4.2,0.7l11.7-0.4c2.7-0.1,5.2-1,7.5-2.8c2.3-1.8,4-3.9,5-6.5
					l1.2,0c-0.5,1.5-1.3,2.8-2.2,4.1c-0.9,1.2-2,2.3-3.2,3.3c-1.2,0.9-2.5,1.7-4,2.2c-1.4,0.6-2.9,0.9-4.4,0.9l-11.7,0.4
					c-1.7,0.1-3.2-0.2-4.6-0.8c-1.4-0.6-2.6-1.4-3.5-2.5c-0.9-1.1-1.6-2.4-1.9-3.9c-0.4-1.5-0.4-3.1-0.1-4.8l4.1-23.6
					c0.3-1.7,0.9-3.3,1.8-4.8c0.9-1.5,2-2.9,3.3-4.1c1.3-1.2,2.8-2.1,4.4-2.8c1.6-0.7,3.3-1.1,4.9-1.1L343.2,55.9z M252.7,60.2
					l-3.9,22.4l11.7-0.4l-0.2,1.2l-11.7,0.4l-3.9,22.4l22.3-0.8l1-5.9l1.2,0l-1.2,7.1l-30.5,1.1l0.2-1.2l5.9-0.2l8.1-46l-5.9,0.2
					l0.2-1.2l30.5-1.1l-1.2,7.1l-1.2,0l1-5.9L252.7,60.2z M279.5,70.4l3.1-17.7l-41,1.4l-2.1,11.8l5.9-0.2l-6.2,35.4l-5.9,0.2
					l-2.1,11.8l41-1.4l3.1-17.7l-11.7,0.4l-1,5.9l-11.7,0.4l2.1-11.8l11.7-0.4l2.1-11.8L255,77.1l2.1-11.8l11.7-0.4l-1,5.9
					L279.5,70.4z M208.7,61.7l-3.9,22.4l11.7-0.4l-0.2,1.2l-11.7,0.4l-3.9,22.4l22.3-0.8l1-5.9l1.2,0l-1.2,7.1l-30.5,1.1l0.2-1.2
					l5.9-0.2l8.1-46l-5.9,0.2l0.2-1.2l30.5-1.1l-1.2,7.1l-1.2,0l1-5.9L208.7,61.7z M235.4,72l3.1-17.7l-41,1.4l-2.1,11.8l5.9-0.2
					l-6.2,35.4l-5.9,0.2l-2.1,11.8l41-1.4l3.1-17.7L219.6,96l-1,5.9l-11.7,0.4l2.1-11.8l11.7-0.4l2.1-11.8L211,78.7l2.1-11.8
					l11.7-0.4l-1,5.9L235.4,72z M155.4,83l2.5-14.2l10-0.3c2-0.1,3.5,0.6,4.6,1.9c1.1,1.3,1.5,3,1.2,4.9c-0.3,2-1.3,3.7-2.9,5.1
					c-1.6,1.4-3.4,2.2-5.3,2.2L155.4,83z M178.8,70.3c-0.4-1.5-1-2.8-1.9-3.9c-0.9-1.1-2.1-1.9-3.5-2.5c-1.4-0.6-2.9-0.9-4.6-0.8
					l-15.2,0.5l-4.3,24.8l15.2-0.5c1.7-0.1,3.3-0.4,4.9-1.1c1.6-0.7,3.1-1.6,4.4-2.8c1.3-1.2,2.4-2.5,3.3-4.1
					c0.9-1.5,1.5-3.2,1.8-4.8C179.2,73.4,179.2,71.8,178.8,70.3 M179.8,109.7l-12.9,0.5l0.2-1.2l8.6-0.3l-8-20.1
					c-0.5,0.2-1.1,0.3-1.8,0.4c-0.7,0.1-1.4,0.1-2,0.2l-15,0.5l-3.5,20.1l5.9-0.2l-0.2,1.2l-12.9,0.5l0.2-1.2l5.9-0.2l8.1-46
					l-5.9,0.2l0.2-1.2l22.5-0.8c1.8-0.1,3.5,0.2,5,0.9c1.5,0.7,2.7,1.6,3.7,2.8c1,1.2,1.7,2.6,2.1,4.2c0.4,1.6,0.5,3.3,0.1,5.2
					c-0.4,2.1-1.1,4-2.3,5.9c-1.2,1.9-2.7,3.5-4.5,4.8l-0.7,0.5c-0.7,0.5-1.5,0.9-2.4,1.3c-0.4,0.2-0.8,0.4-1.2,0.5l8.2,20.4
					l2.9-0.1L179.8,109.7z M181.1,103.2l-5.4-13.3c2.4-1.9,4.5-4.1,6.2-6.7c1.7-2.6,2.9-5.4,3.4-8.3c0.5-2.6,0.4-5-0.2-7.2
					c-0.6-2.2-1.6-4.2-2.9-5.8c-1.4-1.6-3.1-2.9-5.2-3.8c-2.1-0.9-4.4-1.4-6.9-1.4l-27.8,1l-2.1,11.8l5.9-0.2l-6.2,35.4l-5.9,0.2
					l-2.1,11.8l23.4-0.8l2.1-11.8l-5.9,0.2l1.7-9.4l10.5-0.4l3.7,9.3l-4.8,0.2l-2.1,11.8l23.4-0.8l2.1-11.8L181.1,103.2z
					 M131.9,70.3l-1.2,0l1-5.9l-22.3,0.8l-3.9,22.4l11.7-0.4l-0.2,1.2l-11.7,0.4l-3.9,22.4l5.9-0.2l-0.2,1.2l-12.9,0.5l0.2-1.2
					l5.9-0.2l8.1-46l-5.9,0.2l0.2-1.2l30.5-1.1L131.9,70.3z M98.3,59.1l-2.1,11.8l5.9-0.2l-6.2,35.4l-5.9,0.2L88,118.2l23.4-0.8
					l2.1-11.8l-5.9,0.2l2.1-11.8l11.7-0.4l2.1-11.8l-11.7,0.4l2.1-11.8l11.7-0.4l-1,5.9l11.7-0.4l3.1-17.7L98.3,59.1z"/>
			</g>
		</g>
	</g>
</g>
</svg>
