<svg xmlns="http://www.w3.org/2000/svg" viewBox="0 0 1257.51 517.95"><defs><style>.cls-1{isolation:isolate;}.cls-2{opacity:0.5;mix-blend-mode:multiply;}.cls-3{fill:#fff;}</style></defs><title>text</title><g class="cls-1"><g id="Layer_1" data-name="Layer 1"><g class="cls-2"><path d="M29.62,54.35l8.91-.52L37.15,106l-8.91.52Z" transform="translate(-21.24 -8.14)"/><path d="M43.94,53.51L52.27,53l8.29,25.86,0.7-26.39L70,52l-1.39,52.18-7.89.46L52,77.53l-0.73,27.66-8.69.51Z" transform="translate(-21.24 -8.14)"/><path d="M91.35,59.36l-6.28.37,0.23-8.65,21.48-1.26-0.23,8.65-6.28.37L99.1,102.37l-8.91.52Z" transform="translate(-21.24 -8.14)"/><path d="M110.5,49.6l8.91-.52-0.57,21.62,7.74-.46,0.57-21.62,8.91-.52-1.39,52.18-8.91.52,0.58-21.92-7.74.46L118,101.25l-8.91.52Z" transform="translate(-21.24 -8.14)"/><path d="M141.32,47.78l19.58-1.15-0.23,8.65L150,55.91l-0.34,13,9.42-.55L158.86,77l-9.42.55-0.35,13.27L160,90.15l-0.23,8.65L139.94,100Z" transform="translate(-21.24 -8.14)"/><path d="M183.08,76.89l-8.66-31,9.21-.54,4.3,19.25,5.41-19.82,9-.53L192,76.36l-0.55,20.57-8.91.52Z" transform="translate(-21.24 -8.14)"/><path d="M205,44l19.58-1.15-0.23,8.65-10.67.63-0.34,13,9.42-.55-0.23,8.65-9.42.55-0.35,13.27,10.88-.64-0.23,8.65-19.8,1.16Z" transform="translate(-21.24 -8.14)"/><path d="M236.23,42.05l9.5-.56L254,93.25l-8.91.52-1.41-10.26-8.11.48-1.88,10.46-8.62.51Zm6.41,33.34-2.25-17.06-3.23,17.38Z" transform="translate(-21.24 -8.14)"/><path d="M258.14,40.91l9.2-.54c9.13-.54,15.65,4,15.34,15.7l0,0.67c-0.18,6.78-2.92,11.26-6.35,14.07l6.31,20.77-9.5.56-5.29-17.85h-0.15l-1.53.09-0.48,18.19-8.91.52Zm8.67,25.24c3.87-.23,6.78-2.71,6.94-8.82l0-.6c0.17-6.56-2.85-8.09-6.72-7.87h-0.22l-0.46,17.29Z" transform="translate(-21.24 -8.14)"/><path d="M298.83,38.52l19.58-1.15L318.18,46l-10.67.63-0.34,13,9.42-.55-0.23,8.65-9.42.55-0.35,13.27,10.89-.64-0.23,8.65-19.8,1.16Z" transform="translate(-21.24 -8.14)"/><path d="M322.94,37.1l8.33-.49,8.28,25.86,0.7-26.39,8.69-.51-1.38,52.18-7.89.46L331,61.12l-0.73,27.66-8.69.51Z" transform="translate(-21.24 -8.14)"/><path d="M354.2,35.27l8.33-.49c11.4-.67,17.67,7.37,17.23,24.14l0,1.79c-0.45,16.77-7.17,25.58-18.57,26.25l-8.33.49Zm8.12,43.29c4.24-.25,8-4.26,8.34-17.31l0-1.79c0.35-13-3.21-16.63-7.44-16.38l-0.37,0L362,78.57Z" transform="translate(-21.24 -8.14)"/><path d="M385,33.46l8.91-.52-1.38,52.18-8.91.52Z" transform="translate(-21.24 -8.14)"/><path d="M399.28,32.61l8.33-.49L415.89,58l0.7-26.39,8.69-.51L423.9,83.27l-7.89.46-8.69-27.1-0.73,27.66-8.69.51Z" transform="translate(-21.24 -8.14)"/><path d="M429,57.81L429,56c0.45-16.85,7.69-26,17.77-26.57a14.57,14.57,0,0,1,6.75,1.09L453.28,40a11.36,11.36,0,0,0-6.44-1.85c-5.12.3-8.47,5.71-8.77,17L438,57.65c-0.36,13.64,3.5,16.54,7.15,16.33a3.63,3.63,0,0,0,.81-0.12l0.35-13.34-4.38.26,0.21-8.12,12.49-.73L453.9,79.64a22.92,22.92,0,0,1-9.34,2.78C435.65,82.95,428.47,76,429,57.81Z" transform="translate(-21.24 -8.14)"/><path d="M478.91,27.78l9.5-.56L496.74,79l-8.91.52-1.41-10.26-8.11.48-1.88,10.46-8.62.51Zm6.41,33.34-2.24-17.06-3.23,17.38Z" transform="translate(-21.24 -8.14)"/><path d="M500.82,26.64l8-.47c9.72-.57,16.37,4.4,16,16.62v0.15c-0.31,11.78-6.89,17.75-16,19h-0.07l-0.44,16.4-8.91.52Zm8.26,26.83c3.73-.44,6.65-3.37,6.82-9.7V43.62c0.18-6.63-2.23-9.32-6.1-9.09l-0.29,0L509,53.48h0.07Z" transform="translate(-21.24 -8.14)"/><path d="M529,25l9.21-.54c9.13-.54,15.65,4,15.34,15.7l0,0.67c-0.18,6.78-2.92,11.26-6.36,14.07l6.31,20.77-9.5.56-5.29-17.85h-0.15l-1.53.09-0.48,18.19-8.91.52Zm8.67,25.24c3.87-.23,6.78-2.71,6.94-8.82l0-.6c0.17-6.56-2.85-8.09-6.72-7.87h-0.22l-0.46,17.29Z" transform="translate(-21.24 -8.14)"/><path d="M558.17,23.27l8.91-.52L565.7,74.93l-8.91.52Z" transform="translate(-21.24 -8.14)"/><path d="M572.49,22.43l8.91-.52-1.16,43.53,9.42-.55-0.23,8.65-18.34,1.08Z" transform="translate(-21.24 -8.14)"/><path d="M603.75,65l9.15-20.63c2.79-6.19,3.75-9.3,3.81-11.61a3.88,3.88,0,0,0-4.41-4.28A13.4,13.4,0,0,0,605.67,31l0.23-8.8a19.16,19.16,0,0,1,8.61-2.66c6.5-.38,11.14,3.36,10.94,11v0.37c-0.1,4-1.21,7.22-4.39,14.4L613.28,63l11.1-.65-0.24,9.09-20.6,1.21Z" transform="translate(-21.24 -8.14)"/><path d="M627.79,46.64l0.08-2.83c0.48-18,5.06-25.68,13.31-26.16s12.44,6.64,12,24.68l-0.08,2.83c-0.48,18-5.2,25.69-13.31,26.16S627.31,64.68,627.79,46.64Zm16.44-1,0.07-2.68C644.7,28.15,643,25.87,641,26s-3.94,2.61-4.33,17.37L636.56,46c-0.39,14.76,1.3,17,3.42,16.92S643.84,60.36,644.23,45.6Z" transform="translate(-21.24 -8.14)"/><path d="M660.92,26.83l-5.31,2,0.24-9.17,8-3,6.36-.37-1.4,52.55-9,.53Z" transform="translate(-21.24 -8.14)"/><path d="M674.37,44.94l0-1.57c0.57-21.54,6.79-27.71,15.12-28.2a14.62,14.62,0,0,1,6.11.83l-0.23,8.57a10.21,10.21,0,0,0-5.15-1.26c-4.09.24-6.8,3.38-7.21,13.37a8.54,8.54,0,0,1,5.83-2.58c4.67-.28,9.47,3.09,9.17,14.64l0,1.42c-0.29,10.74-5.44,18-12.31,18.44C677.75,69.08,673.91,62.31,674.37,44.94Zm15.3,6.1,0-1.49c0.16-6-1.47-7.88-3.59-7.75A4.69,4.69,0,0,0,683,43.32l-0.17,6.26c-0.21,8.05,1.09,11,3.21,10.9S689.5,57.45,689.68,51Z" transform="translate(-21.24 -8.14)"/><path d="M700,75.44c5.44-1.51,6.64-5.53,6.36-8.78l-4.53.27,0.28-10.36L712.16,56l-0.23,8.5c-0.21,7.9-4.07,13.19-11.33,14.58Z" transform="translate(-21.24 -8.14)"/></g><path class="cls-3" d="M22.62,47.35l8.91-.52L30.15,99l-8.91.52Z" transform="translate(-21.24 -8.14)"/><path class="cls-3" d="M36.94,46.51L45.27,46l8.29,25.86,0.7-26.39L63,45,61.57,97.16l-7.89.46L45,70.53,44.25,98.18l-8.69.51Z" transform="translate(-21.24 -8.14)"/><path class="cls-3" d="M84.35,52.36l-6.28.37,0.23-8.65,21.48-1.26-0.23,8.65-6.28.37L92.1,95.37l-8.91.52Z" transform="translate(-21.24 -8.14)"/><path class="cls-3" d="M103.5,42.6l8.91-.52-0.57,21.62,7.74-.46,0.57-21.62,8.91-.52-1.39,52.18-8.91.52,0.58-21.92-7.74.46L111,94.25l-8.91.52Z" transform="translate(-21.24 -8.14)"/><path class="cls-3" d="M134.32,40.78l19.58-1.15-0.23,8.65L143,48.91l-0.34,13,9.42-.55L151.86,70l-9.42.55-0.35,13.27L153,83.15l-0.23,8.65L132.94,93Z" transform="translate(-21.24 -8.14)"/><path class="cls-3" d="M176.08,69.89l-8.66-31,9.21-.54,4.3,19.25,5.41-19.82,9-.53L185,69.36l-0.55,20.57-8.91.52Z" transform="translate(-21.24 -8.14)"/><path class="cls-3" d="M198,37l19.58-1.15-0.23,8.65-10.67.63-0.34,13,9.42-.55-0.23,8.65-9.42.55-0.35,13.27,10.88-.64-0.23,8.65-19.8,1.16Z" transform="translate(-21.24 -8.14)"/><path class="cls-3" d="M229.23,35.05l9.5-.56L247,86.25l-8.91.52-1.41-10.26-8.11.48-1.88,10.46-8.62.51Zm6.41,33.34-2.25-17.06-3.23,17.38Z" transform="translate(-21.24 -8.14)"/><path class="cls-3" d="M251.14,33.91l9.2-.54c9.13-.54,15.65,4,15.34,15.7l0,0.67c-0.18,6.78-2.92,11.26-6.35,14.07l6.31,20.77-9.5.56-5.29-17.85h-0.15l-1.53.09-0.48,18.19-8.91.52Zm8.67,25.24c3.87-.23,6.78-2.71,6.94-8.82l0-.6c0.17-6.56-2.85-8.09-6.72-7.87h-0.22l-0.46,17.29Z" transform="translate(-21.24 -8.14)"/><path class="cls-3" d="M291.83,31.52l19.58-1.15L311.18,39l-10.67.63-0.34,13,9.42-.55-0.23,8.65-9.42.55-0.35,13.27,10.89-.64-0.23,8.65-19.8,1.16Z" transform="translate(-21.24 -8.14)"/><path class="cls-3" d="M315.94,30.1l8.33-.49,8.28,25.86,0.7-26.39,8.69-.51-1.38,52.18-7.89.46L324,54.12l-0.73,27.66-8.69.51Z" transform="translate(-21.24 -8.14)"/><path class="cls-3" d="M347.2,28.27l8.33-.49c11.4-.67,17.67,7.37,17.23,24.14l0,1.79c-0.45,16.77-7.17,25.58-18.57,26.25l-8.33.49Zm8.12,43.29c4.24-.25,8-4.26,8.34-17.31l0-1.79c0.35-13-3.21-16.63-7.44-16.38l-0.37,0L355,71.57Z" transform="translate(-21.24 -8.14)"/><path class="cls-3" d="M378,26.46l8.91-.52-1.38,52.18-8.91.52Z" transform="translate(-21.24 -8.14)"/><path class="cls-3" d="M392.28,25.61l8.33-.49L408.89,51l0.7-26.39,8.69-.51L416.9,76.27l-7.89.46-8.69-27.1-0.73,27.66-8.69.51Z" transform="translate(-21.24 -8.14)"/><path class="cls-3" d="M422,50.81L422,49c0.45-16.85,7.69-26,17.77-26.57a14.57,14.57,0,0,1,6.75,1.09L446.28,33a11.36,11.36,0,0,0-6.44-1.85c-5.12.3-8.47,5.71-8.77,17L431,50.65c-0.36,13.64,3.5,16.54,7.15,16.33a3.63,3.63,0,0,0,.81-0.12l0.35-13.34-4.38.26,0.21-8.12,12.49-.73L446.9,72.64a22.92,22.92,0,0,1-9.34,2.78C428.65,75.95,421.47,69,422,50.81Z" transform="translate(-21.24 -8.14)"/><path class="cls-3" d="M471.91,20.78l9.5-.56L489.74,72l-8.91.52-1.41-10.26-8.11.48-1.88,10.46-8.62.51Zm6.41,33.34-2.24-17.06-3.23,17.38Z" transform="translate(-21.24 -8.14)"/><path class="cls-3" d="M493.82,19.64l8-.47c9.72-.57,16.37,4.4,16,16.62v0.15c-0.31,11.78-6.89,17.75-16,19h-0.07l-0.44,16.4-8.91.52Zm8.26,26.83c3.73-.44,6.65-3.37,6.82-9.7V36.62c0.18-6.63-2.23-9.32-6.1-9.09l-0.29,0L502,46.48h0.07Z" transform="translate(-21.24 -8.14)"/><path class="cls-3" d="M522,18l9.21-.54c9.13-.54,15.65,4,15.34,15.7l0,0.67c-0.18,6.78-2.92,11.26-6.36,14.07l6.31,20.77-9.5.56-5.29-17.85h-0.15l-1.53.09-0.48,18.19-8.91.52Zm8.67,25.24c3.87-.23,6.78-2.71,6.94-8.82l0-.6c0.17-6.56-2.85-8.09-6.72-7.87h-0.22l-0.46,17.29Z" transform="translate(-21.24 -8.14)"/><path class="cls-3" d="M551.17,16.27l8.91-.52L558.7,67.93l-8.91.52Z" transform="translate(-21.24 -8.14)"/><path class="cls-3" d="M565.49,15.43l8.91-.52-1.16,43.53,9.42-.55-0.23,8.65-18.34,1.08Z" transform="translate(-21.24 -8.14)"/><path class="cls-3" d="M596.75,58l9.15-20.63c2.79-6.19,3.75-9.3,3.81-11.61a3.88,3.88,0,0,0-4.41-4.28A13.4,13.4,0,0,0,598.67,24l0.23-8.8a19.16,19.16,0,0,1,8.61-2.66c6.5-.38,11.14,3.36,10.94,11v0.37c-0.1,4-1.21,7.22-4.39,14.4L606.28,56l11.1-.65-0.24,9.09-20.6,1.21Z" transform="translate(-21.24 -8.14)"/><path class="cls-3" d="M620.79,39.64l0.08-2.83c0.48-18,5.06-25.68,13.31-26.16s12.44,6.64,12,24.68l-0.08,2.83c-0.48,18-5.2,25.69-13.31,26.16S620.31,57.68,620.79,39.64Zm16.44-1,0.07-2.68C637.7,21.15,636,18.87,634,19s-3.94,2.61-4.33,17.37L629.56,39c-0.39,14.76,1.3,17,3.42,16.92S636.84,53.36,637.23,38.6Z" transform="translate(-21.24 -8.14)"/><path class="cls-3" d="M653.92,19.83l-5.31,2,0.24-9.17,8-3,6.36-.37-1.4,52.55-9,.53Z" transform="translate(-21.24 -8.14)"/><path class="cls-3" d="M667.37,37.94l0-1.57c0.57-21.54,6.79-27.71,15.12-28.2a14.62,14.62,0,0,1,6.11.83l-0.23,8.57a10.21,10.21,0,0,0-5.15-1.26c-4.09.24-6.8,3.38-7.21,13.37a8.54,8.54,0,0,1,5.83-2.58c4.67-.28,9.47,3.09,9.17,14.64l0,1.42c-0.29,10.74-5.44,18-12.31,18.44C670.75,62.08,666.91,55.31,667.37,37.94Zm15.3,6.1,0-1.49c0.16-6-1.47-7.88-3.59-7.75A4.69,4.69,0,0,0,676,36.32l-0.17,6.26c-0.21,8.05,1.09,11,3.21,10.9S682.5,50.45,682.68,44Z" transform="translate(-21.24 -8.14)"/><path class="cls-3" d="M693,68.44c5.44-1.51,6.64-5.53,6.36-8.78l-4.53.27,0.28-10.36L705.16,49l-0.23,8.5c-0.21,7.9-4.07,13.19-11.33,14.58Z" transform="translate(-21.24 -8.14)"/><g class="cls-2"><path d="M113.95,281.38l8.39-.6-2,19.13-34.54,2.46,2-19.13,8.14-.58-1.59-9.38-26.64,1.9-3.59,9.75,8.14-.58-2,19.13-34.54,2.46,2-19.13,8.39-.6,28.69-78,26.39-1.88Zm-34.37-65-28.69,78-6.29.45-0.2,1.91,19-1.35,0.2-1.91-10.85.77L62.81,267,101,264.26l4.49,26.27-10.85.77-0.2,1.91,19-1.35,0.2-1.91-6.41.46L94.51,215.35Zm1.16,1.82,12.33-.88,7.67,45L63.5,265Zm10.42,36.29-4.78-28.14-0.74.05L74.88,255.68Z" transform="translate(-21.24 -8.14)"/><path d="M211.22,198.49l-2,19.13-8.63.62-5,47.83a34,34,0,0,1-3.2,11.35,37.24,37.24,0,0,1-6.5,9.48,33.43,33.43,0,0,1-8.9,6.74,26.13,26.13,0,0,1-10.29,3l-12.09.86a20.85,20.85,0,0,1-9.88-1.53,20.45,20.45,0,0,1-7.56-5.57,23.45,23.45,0,0,1-4.6-8.69,28.35,28.35,0,0,1-.87-11.06l5-47.83-8.63.62,2-19.13,34.54-2.46-2,19.13-8.63.62-5,47.83a8.36,8.36,0,0,0,1.82,6.58,6.61,6.61,0,0,0,5.81,2.37l12.09-.86a9.59,9.59,0,0,0,6.4-3.24,11.63,11.63,0,0,0,3.23-6.95l5-47.83-8.63.62,2-19.13Zm-8.67,9.16-19,1.35-0.2,1.91,8.63-.62-5.88,56.44a21.64,21.64,0,0,1-2,7.13,23.47,23.47,0,0,1-4.12,6.06,21.2,21.2,0,0,1-5.65,4.27,16.52,16.52,0,0,1-6.5,1.89l-12.09.86a13.23,13.23,0,0,1-6.2-1,12.85,12.85,0,0,1-4.84-3.52,14.77,14.77,0,0,1-2.91-5.56,18,18,0,0,1-.56-6.95l5.88-56.44,8.63-.62,0.2-1.91-19,1.35-0.2,1.91,8.63-.62-5.88,56.44a20,20,0,0,0,.61,7.69,16.23,16.23,0,0,0,3.22,6.15,14.1,14.1,0,0,0,5.35,3.89,14.73,14.73,0,0,0,6.87,1.07l12.09-.86a18.36,18.36,0,0,0,7.2-2.07,23.26,23.26,0,0,0,6.25-4.72,25.82,25.82,0,0,0,4.55-6.7,24.1,24.1,0,0,0,2.23-7.89l5.88-56.44,8.63-.62Z" transform="translate(-21.24 -8.14)"/><path d="M248.65,234.08q10.55,1,16.48,4.59a26,26,0,0,1,8.77,8.06,20.53,20.53,0,0,1,3.29,9,37.78,37.78,0,0,1,.15,7.38,29.6,29.6,0,0,1-3.27,10.81,32.9,32.9,0,0,1-6.8,8.89A35.23,35.23,0,0,1,257.8,289a33,33,0,0,1-11.38,2.85,38.77,38.77,0,0,1-11.14-.63,32,32,0,0,1-8.55-3.12l-0.44,4.24L209,293.6l3-28.7,17.27-1.23a33.74,33.74,0,0,0,3.89,4.4,18.9,18.9,0,0,0,4.1,3,15.22,15.22,0,0,0,4.86,1.55,28.45,28.45,0,0,0,6.29.16,15.14,15.14,0,0,0,8-2.74,8,8,0,0,0,3.65-5.69,7.25,7.25,0,0,0-1.07-5,10.51,10.51,0,0,0-3.7-3.26,20.45,20.45,0,0,0-5.31-1.93,57.42,57.42,0,0,0-5.89-1q-10.18-1-16.08-4.28a25.8,25.8,0,0,1-8.84-7.37,19.48,19.48,0,0,1-3.57-8.63,33.39,33.39,0,0,1-.26-8.05,31,31,0,0,1,3.3-11.09,34.63,34.63,0,0,1,6.9-9.24,35.44,35.44,0,0,1,9.49-6.51,31.38,31.38,0,0,1,11.2-2.9,39.45,39.45,0,0,1,10.84.52,28,28,0,0,1,8.13,3l0.41-4,17.27-1.23-3,28.7-17.39,1.24a46.14,46.14,0,0,0-3.59-4.29,15.31,15.31,0,0,0-8.52-4.62,24.08,24.08,0,0,0-6.16-.24,12.85,12.85,0,0,0-8.18,3.3,9.89,9.89,0,0,0-3.45,6.08Q231.71,232.16,248.65,234.08Zm14.18,42.53A28.47,28.47,0,0,0,267,271.5a17.34,17.34,0,0,0,2.59-7.85,23,23,0,0,0-.24-5.88,14,14,0,0,0-2.89-6.37,20.92,20.92,0,0,0-7.08-5.53q-4.7-2.44-12.83-3.22-23.38-2.4-21.7-18.53a18.63,18.63,0,0,1,1.88-6.31,21.35,21.35,0,0,1,4.21-5.79,23.28,23.28,0,0,1,6.27-4.38,21.5,21.5,0,0,1,7.93-2.06q7.89-.56,12.79,1.8a26.3,26.3,0,0,1,8.81,7.1L273,214l1.2-11.48-1.73.12-1,9.57-3.82.27a21.67,21.67,0,0,0-6.45-5.64,26.08,26.08,0,0,0-7.6-2.85,30.43,30.43,0,0,0-8.29-.36,23,23,0,0,0-8.11,2.07,27.58,27.58,0,0,0-6.83,4.49,22.73,22.73,0,0,0-4.94,6.32,20.9,20.9,0,0,0-2.33,7.69,16,16,0,0,0,1.36,9.26,16.72,16.72,0,0,0,5.31,6,23.7,23.7,0,0,0,7.72,3.45,53.64,53.64,0,0,0,8.6,1.49,37.1,37.1,0,0,1,12.11,3,18.38,18.38,0,0,1,6.69,5.08,13.18,13.18,0,0,1,2.69,5.91,20.67,20.67,0,0,1,.24,5.34,17.19,17.19,0,0,1-2.1,6.66,19.55,19.55,0,0,1-4.42,5.4,23.38,23.38,0,0,1-6.21,3.77,24,24,0,0,1-7.59,1.76q-8.27.59-13.28-1.77a28.26,28.26,0,0,1-9.18-7.08l-6.17.44-1.2,11.48,1.73-.12,1-9.57,3.95-.28a27.28,27.28,0,0,0,4.49,4.5,19,19,0,0,0,5.09,2.82,26,26,0,0,0,6,1.4,39.69,39.69,0,0,0,7.34.09,25.81,25.81,0,0,0,8.41-2A24.26,24.26,0,0,0,262.83,276.61Z" transform="translate(-21.24 -8.14)"/><path d="M360.71,187.84l-3,28.7-17.27,1.23,1-9.57-8.63.62-6,57.4,8.63-.62-2,19.13-34.54,2.46,2-19.13,8.63-.62,6-57.4-8.63.62-1,9.57-17.27,1.23,3-28.7ZM352,197l-53.53,3.81-1.2,11.48,1.73-.12,1-9.57,24.18-1.72-7.77,74.62-8.63.62-0.2,1.91,19-1.35,0.2-1.91-8.63.62,7.77-74.62L350.12,199l-1,9.57,1.73-.12Z" transform="translate(-21.24 -8.14)"/><path d="M437.23,258.35l-2,19.13-34.54,2.46,2-19.13,7-.5-6.3-14.74-15.54,1.11L386.29,262l8.63-.62-2,19.13L358.39,283l2-19.13,8.63-.62,6-57.4-8.63.62,2-19.13,41-2.92a22.13,22.13,0,0,1,18.29,7.79,24.77,24.77,0,0,1,4.86,9.22,30.06,30.06,0,0,1,.93,11.67,35.75,35.75,0,0,1-4.23,13.59,42.63,42.63,0,0,1-8.62,11.06l9.18,21.18Zm-8.67,9.16-4.32.31L410.37,235.3a10.62,10.62,0,0,0,1.69-.93,36.57,36.57,0,0,0,3.42-2.28l0.95-.88a27.14,27.14,0,0,0,9.18-17.61,21.56,21.56,0,0,0-.66-8.36,18.43,18.43,0,0,0-3.47-6.67,15.89,15.89,0,0,0-5.67-4.34,15,15,0,0,0-7.4-1.24l-33.18,2.36-0.2,1.91,8.63-.62-7.77,74.62-8.63.62-0.2,1.91,19-1.35,0.2-1.91-8.63.62L381,238.62,403.09,237q1.35-.1,2.91-0.34a9.75,9.75,0,0,0,2.59-.73l13.69,32-12.7.91-0.2,1.91,19-1.35Zm-4.68-53.79a24,24,0,0,1-2.23,7.89,25.8,25.8,0,0,1-4.55,6.7,23.23,23.23,0,0,1-6.25,4.72,18.37,18.37,0,0,1-7.19,2.07l-22.45,1.6,4.19-40.18,22.45-1.6a14.75,14.75,0,0,1,6.87,1.07,14.15,14.15,0,0,1,5.35,3.89,16.28,16.28,0,0,1,3.22,6.15A20,20,0,0,1,423.88,213.72Zm-19.33,12.77a11.52,11.52,0,0,0,7.69-3.87,14,14,0,0,0,3.87-8.35,10.07,10.07,0,0,0-2.17-7.92,7.94,7.94,0,0,0-7-2.83l-14.68,1-2.39,23Z" transform="translate(-21.24 -8.14)"/><path d="M521.11,252.37l8.39-.6-2,19.13L493,273.37l2-19.13,8.14-.58-1.59-9.38-26.64,1.9-3.59,9.75,8.14-.58-2,19.13-34.54,2.46,2-19.13,8.39-.6,28.69-78,26.4-1.88Zm-34.37-65-28.69,78-6.29.45-0.2,1.91,19-1.35,0.2-1.91-10.85.77L470,238l38.24-2.72,4.49,26.27-10.85.77-0.2,1.91,19-1.35,0.2-1.91-6.41.46-12.75-75.05Zm1.16,1.82,12.33-.88,7.67,45L470.65,236Zm10.42,36.29-4.78-28.14-0.74.05L482,226.67Z" transform="translate(-21.24 -8.14)"/><path d="M598.57,237.35l-3,28.7-60.44,4.31,2-19.13,8.63-.62,6-57.4-8.63.62,2-19.13,34.54-2.46-2,19.13L569,192l-6,57.4,17.27-1.23,1-9.57Zm-8.67,9.16-1.73.12-1,9.57-32.81,2.34,7.77-74.62,8.63-.62,0.2-1.91-19,1.35-0.2,1.91,8.63-.62-7.77,74.62-8.63.62-0.2,1.91,44.9-3.2Z" transform="translate(-21.24 -8.14)"/><path d="M637.23,187.12l-6,57.4,8.63-.62-2,19.13-34.54,2.46,2-19.13,8.63-.62,6-57.4-8.63.62,2-19.13,34.54-2.46-2,19.13Zm-14.65,66.56,7.77-74.62,8.63-.62,0.2-1.91-19,1.35-0.2,1.91,8.63-.62-7.77,74.62-8.63.62-0.2,1.91L631,255l0.2-1.91Z" transform="translate(-21.24 -8.14)"/><path d="M723.88,237.92l8.39-.6-2,19.13-34.54,2.46,2-19.13,8.14-.58-1.59-9.38-26.64,1.9L674,241.47l8.14-.58-2,19.13-34.54,2.46,2-19.13,8.39-.6,28.69-78,26.4-1.88Zm-34.37-65-28.69,78-6.29.45-0.2,1.91,19-1.35,0.2-1.91-10.85.77,10.07-27.3L711,220.8l4.49,26.27-10.85.77-0.2,1.91,19-1.35,0.2-1.91-6.41.46-12.75-75.05Zm1.16,1.82,12.33-.88,7.67,45-37.25,2.65Zm10.42,36.29-4.78-28.14-0.74.05-10.76,29.25Z" transform="translate(-21.24 -8.14)"/><path d="M833.36,154.16l-2,19.13-8.63.62-8,76.53-17.27,1.23L770,194.48l-4.21,40.45,8.63-.62-2,19.13-34.54,2.46,2-19.13,8.63-.62,6-57.4-8.63.62,2-19.13,25.9-1.85,27.47,57.18,4.21-40.45-8.63.62,2-19.13Zm-8.67,9.16-19,1.35-0.2,1.91,8.63-.62-7.77,74.62-2.47.18-35.32-73.44-13.81,1-0.2,1.91,8.63-.62-7.77,74.62-8.63.62-0.2,1.91,19-1.35,0.2-1.91-8.63.62,7.77-74.62,2.47-.18,35.32,73.44,5.18-.37,8-76.53,8.63-.62Z" transform="translate(-21.24 -8.14)"/><path d="M870.79,189.74q10.54,1,16.48,4.59a26,26,0,0,1,8.77,8.06,20.51,20.51,0,0,1,3.29,9,37.82,37.82,0,0,1,.15,7.38,29.59,29.59,0,0,1-3.27,10.81,32.9,32.9,0,0,1-6.8,8.89,35.25,35.25,0,0,1-9.46,6.24,33,33,0,0,1-11.38,2.85,38.77,38.77,0,0,1-11.14-.63,32,32,0,0,1-8.55-3.12L848.44,248l-17.27,1.23,3-28.7,17.27-1.23a33.78,33.78,0,0,0,3.89,4.4,18.87,18.87,0,0,0,4.1,3,15.21,15.21,0,0,0,4.86,1.55,28.45,28.45,0,0,0,6.29.16,15.14,15.14,0,0,0,8-2.74,8,8,0,0,0,3.65-5.69,7.25,7.25,0,0,0-1.07-5,10.5,10.5,0,0,0-3.7-3.26,20.43,20.43,0,0,0-5.31-1.93,57.47,57.47,0,0,0-5.89-1q-10.18-1-16.08-4.28a25.81,25.81,0,0,1-8.84-7.37,19.46,19.46,0,0,1-3.57-8.63,33.34,33.34,0,0,1-.26-8.05,31.06,31.06,0,0,1,3.3-11.09,34.68,34.68,0,0,1,6.9-9.24,35.47,35.47,0,0,1,9.49-6.51,31.38,31.38,0,0,1,11.2-2.9,39.45,39.45,0,0,1,10.84.52,28,28,0,0,1,8.13,3l0.41-4L905,149.05l-3,28.7L884.64,179A46.22,46.22,0,0,0,881,174.7a15.32,15.32,0,0,0-8.52-4.62,24.09,24.09,0,0,0-6.16-.24,12.86,12.86,0,0,0-8.18,3.3,9.89,9.89,0,0,0-3.45,6.08Q853.85,187.83,870.79,189.74ZM885,232.27a28.45,28.45,0,0,0,4.14-5.11,17.33,17.33,0,0,0,2.59-7.85,23,23,0,0,0-.24-5.88,14,14,0,0,0-2.89-6.37,20.94,20.94,0,0,0-7.08-5.53q-4.7-2.44-12.83-3.22-23.38-2.4-21.7-18.53a18.65,18.65,0,0,1,1.88-6.31,21.4,21.4,0,0,1,4.21-5.79,23.29,23.29,0,0,1,6.27-4.38,21.5,21.5,0,0,1,7.93-2.06q7.89-.56,12.79,1.8a26.28,26.28,0,0,1,8.81,7.1l6.29-.45,1.2-11.48-1.73.12-1,9.57-3.82.27a21.67,21.67,0,0,0-6.45-5.64,26.07,26.07,0,0,0-7.6-2.85,30.43,30.43,0,0,0-8.29-.36,23,23,0,0,0-8.11,2.07,27.58,27.58,0,0,0-6.83,4.49,22.73,22.73,0,0,0-4.94,6.32,20.89,20.89,0,0,0-2.33,7.69,16,16,0,0,0,1.36,9.26,16.72,16.72,0,0,0,5.31,6,23.71,23.71,0,0,0,7.72,3.45,53.62,53.62,0,0,0,8.6,1.49,37.1,37.1,0,0,1,12.11,3,18.38,18.38,0,0,1,6.69,5.08,13.21,13.21,0,0,1,2.69,5.91,20.74,20.74,0,0,1,.24,5.34,17.19,17.19,0,0,1-2.1,6.66,19.56,19.56,0,0,1-4.42,5.4,23.36,23.36,0,0,1-6.21,3.77,24,24,0,0,1-7.59,1.76q-8.27.59-13.28-1.77a28.25,28.25,0,0,1-9.18-7.08l-6.17.44-1.2,11.48,1.73-.12,1-9.57,3.95-.28a27.28,27.28,0,0,0,4.49,4.5,19,19,0,0,0,5.09,2.82,25.94,25.94,0,0,0,6,1.4,39.69,39.69,0,0,0,7.34.09,25.81,25.81,0,0,0,8.41-2A24.27,24.27,0,0,0,885,232.27Z" transform="translate(-21.24 -8.14)"/><path d="M1031.8,159l-6,57.4,8.63-.62-2,19.13-34.54,2.46,2-19.13,8.63-.62,4.28-41.13-20.43,31.57L978.3,179,974,220.1l8.63-.62-2,19.13-34.54,2.46,2-19.13,8.63-.62,6-57.4-8.63.62,2-19.13,26.15-1.86,13.9,28.71,20.14-31.14,26.15-1.86-2,19.13Zm-14.65,66.56,7.77-74.62,8.63-.62,0.2-1.91-14.06,1-25.24,39L977,152.47l-14.06,1-0.2,1.91,8.63-.62-7.77,74.62L955,230l-0.2,1.91,19-1.35,0.2-1.91-8.63.62,7.77-74.62,2.71-.19,18.25,37.49,26.4-40.68,2.71-.19-7.77,74.62-8.63.62-0.2,1.91,19-1.35,0.2-1.91Z" transform="translate(-21.24 -8.14)"/><path d="M1118.33,209.81l8.39-.6-2,19.13-34.54,2.46,2-19.13,8.14-.58-1.59-9.38-26.64,1.9-3.59,9.75,8.14-.58-2,19.13-34.54,2.46,2-19.13,8.39-.6,28.69-78,26.39-1.88Zm-34.37-65-28.69,78-6.29.45-0.2,1.91,19-1.35,0.2-1.91-10.85.77,10.07-27.3,38.24-2.72,4.49,26.27-10.85.77-0.2,1.91,19-1.35,0.2-1.91-6.41.46-12.75-75.05Zm1.16,1.82,12.33-.88,7.67,45-37.25,2.65ZM1095.54,183l-4.78-28.14-0.74.05-10.76,29.25Z" transform="translate(-21.24 -8.14)"/><path d="M1176.87,129.68a27.89,27.89,0,0,1,13.13,2,27.19,27.19,0,0,1,10.13,7.42,31.24,31.24,0,0,1,6.13,11.63,37.94,37.94,0,0,1,1.16,14.7l-2,19.13a45.5,45.5,0,0,1-4.27,15.09,49.53,49.53,0,0,1-8.67,12.69,44.7,44.7,0,0,1-11.83,9,34.7,34.7,0,0,1-13.76,4l-34.54,2.46,2-19.13,8.63-.62,6-57.4-8.63.62,2-19.13ZM1199.65,166a29.44,29.44,0,0,0-.9-11.4,24.14,24.14,0,0,0-4.75-9,21,21,0,0,0-7.85-5.75,21.68,21.68,0,0,0-10.18-1.58l-26.77,1.91-0.2,1.91,8.63-.62-7.77,74.62-8.63.62-0.2,1.91,26.77-1.91a26.94,26.94,0,0,0,10.67-3.07,34.62,34.62,0,0,0,9.17-7,38.3,38.3,0,0,0,6.72-9.84,35.35,35.35,0,0,0,3.3-11.7Zm-23.88-25.83a20.18,20.18,0,0,1,9.52,1.49,19.78,19.78,0,0,1,7.34,5.38,22.68,22.68,0,0,1,4.45,8.43,27.41,27.41,0,0,1,.85,10.66l-2,19.13a32.93,32.93,0,0,1-3.1,10.94,36,36,0,0,1-6.28,9.2,32.52,32.52,0,0,1-8.58,6.51,25.12,25.12,0,0,1-10,2.88L1151.6,216l7.77-74.62Zm14.38,26.51a19,19,0,0,0-.58-7.35,15.66,15.66,0,0,0-3.07-5.82,13.62,13.62,0,0,0-5.06-3.71,14,14,0,0,0-6.57-1l-8.63.62-6,57.4,8.63-.62a17.35,17.35,0,0,0,6.88-2,22.33,22.33,0,0,0,5.92-4.49,24.82,24.82,0,0,0,4.33-6.34,22.73,22.73,0,0,0,2.13-7.54Z" transform="translate(-21.24 -8.14)"/><path d="M1258.49,152.35l1-9.57L1242.22,144l-2,19.13,17.27-1.23-2,19.13-17.27,1.23-2,19.13,17.27-1.23,1-9.57,17.27-1.23-3,28.7-60.44,4.31,2-19.13,8.63-.62,6-57.4-8.63.62,2-19.13,60.44-4.31-3,28.7Zm9.66-18.73-1,9.57,1.73-.12,1.2-11.48-44.9,3.2-0.2,1.91,8.63-.62-7.77,74.62-8.63.62-0.2,1.91,44.9-3.2,1.2-11.48-1.73.12-1,9.57-32.81,2.34,3.79-36.35,17.27-1.23,0.2-1.91-17.27,1.23,3.79-36.35Z" transform="translate(-21.24 -8.14)"/></g><path class="cls-3" d="M106.95,274.38l8.39-.6-2,19.13-34.54,2.46,2-19.13,8.14-.58-1.59-9.38-26.64,1.9-3.59,9.75,8.14-.58-2,19.13-34.54,2.46,2-19.13,8.39-.6,28.69-78,26.39-1.88Zm-34.37-65-28.69,78-6.29.45-0.2,1.91,19-1.35,0.2-1.91-10.85.77L55.81,260,94,257.26l4.49,26.27-10.85.77-0.2,1.91,19-1.35,0.2-1.91-6.41.46L87.51,208.35Zm1.16,1.82,12.33-.88,7.67,45L56.5,258Zm10.42,36.29-4.78-28.14-0.74.05L67.88,248.68Z" transform="translate(-21.24 -8.14)"/><path class="cls-3" d="M204.22,191.49l-2,19.13-8.63.62-5,47.83a34,34,0,0,1-3.2,11.35,37.24,37.24,0,0,1-6.5,9.48,33.43,33.43,0,0,1-8.9,6.74,26.13,26.13,0,0,1-10.29,3l-12.09.86a20.85,20.85,0,0,1-9.88-1.53,20.45,20.45,0,0,1-7.56-5.57,23.45,23.45,0,0,1-4.6-8.69,28.35,28.35,0,0,1-.87-11.06l5-47.83-8.63.62,2-19.13,34.54-2.46-2,19.13-8.63.62-5,47.83a8.36,8.36,0,0,0,1.82,6.58,6.61,6.61,0,0,0,5.81,2.37l12.09-.86a9.59,9.59,0,0,0,6.4-3.24,11.63,11.63,0,0,0,3.23-6.95l5-47.83-8.63.62,2-19.13Zm-8.67,9.16-19,1.35-0.2,1.91,8.63-.62-5.88,56.44a21.64,21.64,0,0,1-2,7.13,23.47,23.47,0,0,1-4.12,6.06,21.2,21.2,0,0,1-5.65,4.27,16.52,16.52,0,0,1-6.5,1.89l-12.09.86a13.23,13.23,0,0,1-6.2-1,12.85,12.85,0,0,1-4.84-3.52,14.77,14.77,0,0,1-2.91-5.56,18,18,0,0,1-.56-6.95l5.88-56.44,8.63-.62,0.2-1.91-19,1.35-0.2,1.91,8.63-.62-5.88,56.44a20,20,0,0,0,.61,7.69,16.23,16.23,0,0,0,3.22,6.15,14.1,14.1,0,0,0,5.35,3.89,14.73,14.73,0,0,0,6.87,1.07l12.09-.86a18.36,18.36,0,0,0,7.2-2.07,23.26,23.26,0,0,0,6.25-4.72,25.82,25.82,0,0,0,4.55-6.7,24.1,24.1,0,0,0,2.23-7.89l5.88-56.44,8.63-.62Z" transform="translate(-21.24 -8.14)"/><path class="cls-3" d="M241.65,227.08q10.55,1,16.48,4.59a26,26,0,0,1,8.77,8.06,20.53,20.53,0,0,1,3.29,9,37.78,37.78,0,0,1,.15,7.38,29.6,29.6,0,0,1-3.27,10.81,32.9,32.9,0,0,1-6.8,8.89A35.23,35.23,0,0,1,250.8,282a33,33,0,0,1-11.38,2.85,38.77,38.77,0,0,1-11.14-.63,32,32,0,0,1-8.55-3.12l-0.44,4.24L202,286.6l3-28.7,17.27-1.23a33.74,33.74,0,0,0,3.89,4.4,18.9,18.9,0,0,0,4.1,3,15.22,15.22,0,0,0,4.86,1.55,28.45,28.45,0,0,0,6.29.16,15.14,15.14,0,0,0,8-2.74,8,8,0,0,0,3.65-5.69,7.25,7.25,0,0,0-1.07-5,10.51,10.51,0,0,0-3.7-3.26,20.45,20.45,0,0,0-5.31-1.93,57.42,57.42,0,0,0-5.89-1q-10.18-1-16.08-4.28a25.8,25.8,0,0,1-8.84-7.37,19.48,19.48,0,0,1-3.57-8.63,33.39,33.39,0,0,1-.26-8.05,31,31,0,0,1,3.3-11.09,34.63,34.63,0,0,1,6.9-9.24,35.44,35.44,0,0,1,9.49-6.51,31.38,31.38,0,0,1,11.2-2.9,39.45,39.45,0,0,1,10.84.52,28,28,0,0,1,8.13,3l0.41-4,17.27-1.23-3,28.7-17.39,1.24a46.14,46.14,0,0,0-3.59-4.29,15.31,15.31,0,0,0-8.52-4.62,24.08,24.08,0,0,0-6.16-.24,12.85,12.85,0,0,0-8.18,3.3,9.89,9.89,0,0,0-3.45,6.08Q224.71,225.16,241.65,227.08Zm14.18,42.53A28.47,28.47,0,0,0,260,264.5a17.34,17.34,0,0,0,2.59-7.85,23,23,0,0,0-.24-5.88,14,14,0,0,0-2.89-6.37,20.92,20.92,0,0,0-7.08-5.53q-4.7-2.44-12.83-3.22-23.38-2.4-21.7-18.53a18.63,18.63,0,0,1,1.88-6.31,21.35,21.35,0,0,1,4.21-5.79,23.28,23.28,0,0,1,6.27-4.38,21.5,21.5,0,0,1,7.93-2.06q7.89-.56,12.79,1.8a26.3,26.3,0,0,1,8.81,7.1L266,207l1.2-11.48-1.73.12-1,9.57-3.82.27a21.67,21.67,0,0,0-6.45-5.64,26.08,26.08,0,0,0-7.6-2.85,30.43,30.43,0,0,0-8.29-.36,23,23,0,0,0-8.11,2.07,27.58,27.58,0,0,0-6.83,4.49,22.73,22.73,0,0,0-4.94,6.32,20.9,20.9,0,0,0-2.33,7.69,16,16,0,0,0,1.36,9.26,16.72,16.72,0,0,0,5.31,6,23.7,23.7,0,0,0,7.72,3.45,53.64,53.64,0,0,0,8.6,1.49,37.1,37.1,0,0,1,12.11,3,18.38,18.38,0,0,1,6.69,5.08,13.18,13.18,0,0,1,2.69,5.91,20.67,20.67,0,0,1,.24,5.34,17.19,17.19,0,0,1-2.1,6.66,19.55,19.55,0,0,1-4.42,5.4,23.38,23.38,0,0,1-6.21,3.77,24,24,0,0,1-7.59,1.76q-8.27.59-13.28-1.77a28.26,28.26,0,0,1-9.18-7.08l-6.17.44-1.2,11.48,1.73-.12,1-9.57,3.95-.28a27.28,27.28,0,0,0,4.49,4.5,19,19,0,0,0,5.09,2.82,26,26,0,0,0,6,1.4,39.69,39.69,0,0,0,7.34.09,25.81,25.81,0,0,0,8.41-2A24.26,24.26,0,0,0,255.83,269.61Z" transform="translate(-21.24 -8.14)"/><path class="cls-3" d="M353.71,180.84l-3,28.7-17.27,1.23,1-9.57-8.63.62-6,57.4,8.63-.62-2,19.13-34.54,2.46,2-19.13,8.63-.62,6-57.4-8.63.62-1,9.57-17.27,1.23,3-28.7ZM345,190l-53.53,3.81-1.2,11.48,1.73-.12,1-9.57,24.18-1.72-7.77,74.62-8.63.62-0.2,1.91,19-1.35,0.2-1.91-8.63.62,7.77-74.62L343.12,192l-1,9.57,1.73-.12Z" transform="translate(-21.24 -8.14)"/><path class="cls-3" d="M430.23,251.35l-2,19.13-34.54,2.46,2-19.13,7-.5-6.3-14.74-15.54,1.11L379.29,255l8.63-.62-2,19.13L351.39,276l2-19.13,8.63-.62,6-57.4-8.63.62,2-19.13,41-2.92a22.13,22.13,0,0,1,18.29,7.79,24.77,24.77,0,0,1,4.86,9.22,30.06,30.06,0,0,1,.93,11.67,35.75,35.75,0,0,1-4.23,13.59,42.63,42.63,0,0,1-8.62,11.06l9.18,21.18Zm-8.67,9.16-4.32.31L403.37,228.3a10.62,10.62,0,0,0,1.69-.93,36.57,36.57,0,0,0,3.42-2.28l0.95-.88a27.14,27.14,0,0,0,9.18-17.61,21.56,21.56,0,0,0-.66-8.36,18.43,18.43,0,0,0-3.47-6.67,15.89,15.89,0,0,0-5.67-4.34,15,15,0,0,0-7.4-1.24l-33.18,2.36-0.2,1.91,8.63-.62-7.77,74.62-8.63.62-0.2,1.91,19-1.35,0.2-1.91-8.63.62L374,231.62,396.09,230q1.35-.1,2.91-0.34a9.75,9.75,0,0,0,2.59-.73l13.69,32-12.7.91-0.2,1.91,19-1.35Zm-4.68-53.79a24,24,0,0,1-2.23,7.89,25.8,25.8,0,0,1-4.55,6.7,23.23,23.23,0,0,1-6.25,4.72,18.37,18.37,0,0,1-7.19,2.07l-22.45,1.6,4.19-40.18,22.45-1.6a14.75,14.75,0,0,1,6.87,1.07,14.15,14.15,0,0,1,5.35,3.89,16.28,16.28,0,0,1,3.22,6.15A20,20,0,0,1,416.88,206.72Zm-19.33,12.77a11.52,11.52,0,0,0,7.69-3.87,14,14,0,0,0,3.87-8.35,10.07,10.07,0,0,0-2.17-7.92,7.94,7.94,0,0,0-7-2.83l-14.68,1-2.39,23Z" transform="translate(-21.24 -8.14)"/><path class="cls-3" d="M514.11,245.37l8.39-.6-2,19.13L486,266.37l2-19.13,8.14-.58-1.59-9.38-26.64,1.9-3.59,9.75,8.14-.58-2,19.13-34.54,2.46,2-19.13,8.39-.6,28.69-78,26.4-1.88Zm-34.37-65-28.69,78-6.29.45-0.2,1.91,19-1.35,0.2-1.91-10.85.77L463,231l38.24-2.72,4.49,26.27-10.85.77-0.2,1.91,19-1.35,0.2-1.91-6.41.46-12.75-75.05Zm1.16,1.82,12.33-.88,7.67,45L463.65,229Zm10.42,36.29-4.78-28.14-0.74.05L475,219.67Z" transform="translate(-21.24 -8.14)"/><path class="cls-3" d="M591.57,230.35l-3,28.7-60.44,4.31,2-19.13,8.63-.62,6-57.4-8.63.62,2-19.13,34.54-2.46-2,19.13L562,185l-6,57.4,17.27-1.23,1-9.57Zm-8.67,9.16-1.73.12-1,9.57-32.81,2.34,7.77-74.62,8.63-.62,0.2-1.91-19,1.35-0.2,1.91,8.63-.62-7.77,74.62-8.63.62-0.2,1.91,44.9-3.2Z" transform="translate(-21.24 -8.14)"/><path class="cls-3" d="M630.23,180.12l-6,57.4,8.63-.62-2,19.13-34.54,2.46,2-19.13,8.63-.62,6-57.4-8.63.62,2-19.13,34.54-2.46-2,19.13Zm-14.65,66.56,7.77-74.62,8.63-.62,0.2-1.91-19,1.35-0.2,1.91,8.63-.62-7.77,74.62-8.63.62-0.2,1.91L624,248l0.2-1.91Z" transform="translate(-21.24 -8.14)"/><path class="cls-3" d="M716.88,230.92l8.39-.6-2,19.13-34.54,2.46,2-19.13,8.14-.58-1.59-9.38-26.64,1.9L667,234.47l8.14-.58-2,19.13-34.54,2.46,2-19.13,8.39-.6,28.69-78,26.4-1.88Zm-34.37-65-28.69,78-6.29.45-0.2,1.91,19-1.35,0.2-1.91-10.85.77,10.07-27.3L704,213.8l4.49,26.27-10.85.77-0.2,1.91,19-1.35,0.2-1.91-6.41.46-12.75-75.05Zm1.16,1.82,12.33-.88,7.67,45-37.25,2.65Zm10.42,36.29-4.78-28.14-0.74.05-10.76,29.25Z" transform="translate(-21.24 -8.14)"/><path class="cls-3" d="M826.36,147.16l-2,19.13-8.63.62-8,76.53-17.27,1.23L763,187.48l-4.21,40.45,8.63-.62-2,19.13-34.54,2.46,2-19.13,8.63-.62,6-57.4-8.63.62,2-19.13,25.9-1.85,27.47,57.18,4.21-40.45-8.63.62,2-19.13Zm-8.67,9.16-19,1.35-0.2,1.91,8.63-.62-7.77,74.62-2.47.18-35.32-73.44-13.81,1-0.2,1.91,8.63-.62-7.77,74.62-8.63.62-0.2,1.91,19-1.35,0.2-1.91-8.63.62,7.77-74.62,2.47-.18,35.32,73.44,5.18-.37,8-76.53,8.63-.62Z" transform="translate(-21.24 -8.14)"/><path class="cls-3" d="M863.79,182.74q10.54,1,16.48,4.59a26,26,0,0,1,8.77,8.06,20.51,20.51,0,0,1,3.29,9,37.82,37.82,0,0,1,.15,7.38,29.59,29.59,0,0,1-3.27,10.81,32.9,32.9,0,0,1-6.8,8.89,35.25,35.25,0,0,1-9.46,6.24,33,33,0,0,1-11.38,2.85,38.77,38.77,0,0,1-11.14-.63,32,32,0,0,1-8.55-3.12L841.44,241l-17.27,1.23,3-28.7,17.27-1.23a33.78,33.78,0,0,0,3.89,4.4,18.87,18.87,0,0,0,4.1,3,15.21,15.21,0,0,0,4.86,1.55,28.45,28.45,0,0,0,6.29.16,15.14,15.14,0,0,0,8-2.74,8,8,0,0,0,3.65-5.69,7.25,7.25,0,0,0-1.07-5,10.5,10.5,0,0,0-3.7-3.26,20.43,20.43,0,0,0-5.31-1.93,57.47,57.47,0,0,0-5.89-1q-10.18-1-16.08-4.28a25.81,25.81,0,0,1-8.84-7.37,19.46,19.46,0,0,1-3.57-8.63,33.34,33.34,0,0,1-.26-8.05,31.06,31.06,0,0,1,3.3-11.09,34.68,34.68,0,0,1,6.9-9.24,35.47,35.47,0,0,1,9.49-6.51,31.38,31.38,0,0,1,11.2-2.9,39.45,39.45,0,0,1,10.84.52,28,28,0,0,1,8.13,3l0.41-4L898,142.05l-3,28.7L877.64,172A46.22,46.22,0,0,0,874,167.7a15.32,15.32,0,0,0-8.52-4.62,24.09,24.09,0,0,0-6.16-.24,12.86,12.86,0,0,0-8.18,3.3,9.89,9.89,0,0,0-3.45,6.08Q846.85,180.83,863.79,182.74ZM878,225.27a28.45,28.45,0,0,0,4.14-5.11,17.33,17.33,0,0,0,2.59-7.85,23,23,0,0,0-.24-5.88,14,14,0,0,0-2.89-6.37,20.94,20.94,0,0,0-7.08-5.53q-4.7-2.44-12.83-3.22-23.38-2.4-21.7-18.53a18.65,18.65,0,0,1,1.88-6.31,21.4,21.4,0,0,1,4.21-5.79,23.29,23.29,0,0,1,6.27-4.38,21.5,21.5,0,0,1,7.93-2.06q7.89-.56,12.79,1.8a26.28,26.28,0,0,1,8.81,7.1l6.29-.45,1.2-11.48-1.73.12-1,9.57-3.82.27a21.67,21.67,0,0,0-6.45-5.64,26.07,26.07,0,0,0-7.6-2.85,30.43,30.43,0,0,0-8.29-.36,23,23,0,0,0-8.11,2.07,27.58,27.58,0,0,0-6.83,4.49,22.73,22.73,0,0,0-4.94,6.32,20.89,20.89,0,0,0-2.33,7.69,16,16,0,0,0,1.36,9.26,16.72,16.72,0,0,0,5.31,6,23.71,23.71,0,0,0,7.72,3.45,53.62,53.62,0,0,0,8.6,1.49,37.1,37.1,0,0,1,12.11,3,18.38,18.38,0,0,1,6.69,5.08,13.21,13.21,0,0,1,2.69,5.91,20.74,20.74,0,0,1,.24,5.34,17.19,17.19,0,0,1-2.1,6.66,19.56,19.56,0,0,1-4.42,5.4,23.36,23.36,0,0,1-6.21,3.77,24,24,0,0,1-7.59,1.76q-8.27.59-13.28-1.77a28.25,28.25,0,0,1-9.18-7.08l-6.17.44-1.2,11.48,1.73-.12,1-9.57,3.95-.28a27.28,27.28,0,0,0,4.49,4.5,19,19,0,0,0,5.09,2.82,25.94,25.94,0,0,0,6,1.4,39.69,39.69,0,0,0,7.34.09,25.81,25.81,0,0,0,8.41-2A24.27,24.27,0,0,0,878,225.27Z" transform="translate(-21.24 -8.14)"/><path class="cls-3" d="M1024.8,152l-6,57.4,8.63-.62-2,19.13-34.54,2.46,2-19.13,8.63-.62,4.28-41.13-20.43,31.57L971.3,172,967,213.1l8.63-.62-2,19.13-34.54,2.46,2-19.13,8.63-.62,6-57.4-8.63.62,2-19.13,26.15-1.86,13.9,28.71,20.14-31.14,26.15-1.86-2,19.13Zm-14.65,66.56,7.77-74.62,8.63-.62,0.2-1.91-14.06,1-25.24,39L970,145.47l-14.06,1-0.2,1.91,8.63-.62-7.77,74.62L948,223l-0.2,1.91,19-1.35,0.2-1.91-8.63.62,7.77-74.62,2.71-.19,18.25,37.49,26.4-40.68,2.71-.19-7.77,74.62-8.63.62-0.2,1.91,19-1.35,0.2-1.91Z" transform="translate(-21.24 -8.14)"/><path class="cls-3" d="M1111.33,202.81l8.39-.6-2,19.13-34.54,2.46,2-19.13,8.14-.58-1.59-9.38-26.64,1.9-3.59,9.75,8.14-.58-2,19.13-34.54,2.46,2-19.13,8.39-.6,28.69-78,26.39-1.88Zm-34.37-65-28.69,78-6.29.45-0.2,1.91,19-1.35,0.2-1.91-10.85.77,10.07-27.3,38.24-2.72,4.49,26.27-10.85.77-0.2,1.91,19-1.35,0.2-1.91-6.41.46-12.75-75.05Zm1.16,1.82,12.33-.88,7.67,45-37.25,2.65ZM1088.54,176l-4.78-28.14-0.74.05-10.76,29.25Z" transform="translate(-21.24 -8.14)"/><path class="cls-3" d="M1169.87,122.68a27.89,27.89,0,0,1,13.13,2,27.19,27.19,0,0,1,10.13,7.42,31.24,31.24,0,0,1,6.13,11.63,37.94,37.94,0,0,1,1.16,14.7l-2,19.13a45.5,45.5,0,0,1-4.27,15.09,49.53,49.53,0,0,1-8.67,12.69,44.7,44.7,0,0,1-11.83,9,34.7,34.7,0,0,1-13.76,4l-34.54,2.46,2-19.13,8.63-.62,6-57.4-8.63.62,2-19.13ZM1192.65,159a29.44,29.44,0,0,0-.9-11.4,24.14,24.14,0,0,0-4.75-9,21,21,0,0,0-7.85-5.75,21.68,21.68,0,0,0-10.18-1.58l-26.77,1.91-0.2,1.91,8.63-.62-7.77,74.62-8.63.62-0.2,1.91,26.77-1.91a26.94,26.94,0,0,0,10.67-3.07,34.62,34.62,0,0,0,9.17-7,38.3,38.3,0,0,0,6.72-9.84,35.35,35.35,0,0,0,3.3-11.7Zm-23.88-25.83a20.18,20.18,0,0,1,9.52,1.49,19.78,19.78,0,0,1,7.34,5.38,22.68,22.68,0,0,1,4.45,8.43,27.41,27.41,0,0,1,.85,10.66l-2,19.13a32.93,32.93,0,0,1-3.1,10.94,36,36,0,0,1-6.28,9.2,32.52,32.52,0,0,1-8.58,6.51,25.12,25.12,0,0,1-10,2.88L1144.6,209l7.77-74.62Zm14.38,26.51a19,19,0,0,0-.58-7.35,15.66,15.66,0,0,0-3.07-5.82,13.62,13.62,0,0,0-5.06-3.71,14,14,0,0,0-6.57-1l-8.63.62-6,57.4,8.63-.62a17.35,17.35,0,0,0,6.88-2,22.33,22.33,0,0,0,5.92-4.49,24.82,24.82,0,0,0,4.33-6.34,22.73,22.73,0,0,0,2.13-7.54Z" transform="translate(-21.24 -8.14)"/><path class="cls-3" d="M1251.49,145.35l1-9.57L1235.22,137l-2,19.13,17.27-1.23-2,19.13-17.27,1.23-2,19.13,17.27-1.23,1-9.57,17.27-1.23-3,28.7-60.44,4.31,2-19.13,8.63-.62,6-57.4-8.63.62,2-19.13,60.44-4.31-3,28.7Zm9.66-18.73-1,9.57,1.73-.12,1.2-11.48-44.9,3.2-0.2,1.91,8.63-.62-7.77,74.62-8.63.62-0.2,1.91,44.9-3.2,1.2-11.48-1.73.12-1,9.57-32.81,2.34,3.79-36.35,17.27-1.23,0.2-1.91-17.27,1.23,3.79-36.35Z" transform="translate(-21.24 -8.14)"/><g class="cls-2"><path d="M623.19,309.41" transform="translate(-21.24 -8.14)"/></g><path class="cls-3" d="M616.19,302.41" transform="translate(-21.24 -8.14)"/><g class="cls-2"><path d="M160.66,396.88a3.89,3.89,0,0,0,3,.74c4.72-.27,6.63-3.81,10.26-5.53l0.52,2.09a28,28,0,0,1-13.65,9.66c-0.74,20.29-11.11,30.86-21.15,31.45-10.74.62-15.62-3.63-16.32-15.58-1.43-24.7,10.5-36.07,24.36-36.87C157.19,382.28,160,389.57,160.66,396.88Zm-7.27,8.38c-2.91.17-4.34-1.86-4.48-4.27-0.17-2.91,1.36-6.12,4-7.28-0.49-3.3-1.71-5.14-4.52-5C139,389.28,136.13,410,136.6,418c0.35,6,3.25,7.47,7.17,7.24C149.89,424.91,152.75,415.07,153.39,405.26Z" transform="translate(-21.24 -8.14)"/><path d="M203.94,387.63c0.91,15.66-5.43,43.63-25.71,44.81-7.73.45-12.65-2.69-13.08-10.22a24.52,24.52,0,0,1,.21-5.15l5.25-34.55,14.46-.84-5.25,34.55a18.12,18.12,0,0,0-.29,3.75c0.11,1.91,1.09,3.16,4,3,9.84-.57,15.29-22.95,14.66-33.89a7.83,7.83,0,0,1-2.09.52c-2.91.17-4.38-2.57-4.54-5.38-0.12-2.11,2.12-5.06,5.44-5.25C201.31,378.71,203.64,382.41,203.94,387.63Z" transform="translate(-21.24 -8.14)"/><path d="M228.62,422.26c4.92-.29,13-6.6,16.1-14.23l4.52-.26c-5.12,10.67-14.18,21.37-27.13,22.12-9.64.56-15.29-6.47-15.79-15.1-0.74-12.75,3.39-35.45,21.66-36.51,8.23-.48,13,2.67,13.46,9.7,0.71,12.25-12,20-21.5,21.8a36.29,36.29,0,0,0-.05,4.33C220.27,420.73,224.7,422.49,228.62,422.26Zm3-38.86c-5.62.33-9.58,11.94-11.15,21.5,9.23-.64,15.3-8.95,15-16.08C235.32,386.71,234.61,383.23,231.6,383.4Z" transform="translate(-21.24 -8.14)"/><path d="M263.78,377.11L263,382.19c3.45-3,7.34-5.46,11.56-5.71,4.52-.26,7.38,2.19,7.6,6,0.2,3.51-2.16,8-7.08,8.27-5.62.33-3.2-6.46-6.21-6.29s-4.55,1.37-6.74,3.61L256,427.93l-14.46.84,7.73-50.82Z" transform="translate(-21.24 -8.14)"/><path d="M317,410.39c0.39,6.73,4.09,7.92,9.41,7.62,7.23-.42,11.75-9.24,11.24-18.18-0.44-7.63-4.62-15.35-14-17.92,11.47-3.79,16.32-13.84,15.92-20.87-0.26-4.52-2.57-7.81-6.78-7.57-6.73.39-9,3.64-8.67,8.66,0.13,2.31,1.35,6,4.21,6.61a12,12,0,0,1-7.53,3.86c-4,.23-7.32-2.8-7.65-8.62-0.4-6.83,5.67-15.14,20.83-16,11.45-.66,18.07,5.8,18.53,13.74,0.38,6.63-3.61,14.21-12.58,19.37,8.89,2.2,13,8.41,13.39,15.54,0.7,12.15-9.43,26.74-24.39,27.61-8,.47-22.29-0.42-23.12-14.88-0.55-9.44,3.23-15.5,11-15.95,4.52-.26,7.42,1.08,8.43,4.65C317,399.21,316.69,405.37,317,410.39Z" transform="translate(-21.24 -8.14)"/><path d="M367.79,405.84a8.07,8.07,0,0,1,8.5,7.57,8,8,0,0,1-7.57,8.4,7.9,7.9,0,0,1-8.39-7.47A8,8,0,0,1,367.79,405.84Z" transform="translate(-21.24 -8.14)"/><path d="M431.1,342.23c-4.77,8-25,43.76-27.4,50.45a32.91,32.91,0,0,0-2.46,13.14c0.23,4,1.7,6.65,5.48,9.46-1,3.28-4.79,4.21-9,4.45-6,.35-10.48-1.71-11.07-12-0.95-16.37,12.79-34.79,28.53-55.25a62.07,62.07,0,0,0-8.47-.11c-8.74.51-16.24,3.06-20.47,8.34a26.06,26.06,0,0,1-1.14-5.78c-0.38-6.53,3.23-10.26,13.07-10.83Z" transform="translate(-21.24 -8.14)"/><path d="M516,396.75a15.81,15.81,0,0,0-.29,3.75c0.13,2.31,1.14,4.06,4.35,3.88,4-.23,7.89-6.4,9.95-10.85l4.72-.27c-4.3,5.69-12.58,19.26-20.42,19.72s-12.65-2.69-13.08-10.22a24.52,24.52,0,0,1,.31-5.16l2.77-18.29a12.19,12.19,0,0,0,.15-2.63c-0.21-3.62-2.25-5.81-5-5.66a10.25,10.25,0,0,0-5.72,2.14,14.2,14.2,0,0,1,.71,3.49,15.1,15.1,0,0,1-.08,2.12L489,414.43l-14.56.84,5.25-34.56a12.19,12.19,0,0,0,.15-2.63c-0.21-3.62-2.25-5.81-5-5.66a9.88,9.88,0,0,0-6,2.46L462.57,416l-14.46.84L455.84,366l14.46-.84-0.8,5.39c3.85-3.14,8.33-5.82,12.64-6.07,3.71-.22,7.89,2.26,10.32,6.05,4.21-3.77,9.36-7.19,14.27-7.48,5.52-.32,11.88,5.15,12.28,12a18.08,18.08,0,0,1-.07,2.32Z" transform="translate(-21.24 -8.14)"/><path d="M545.1,360.81l-5.25,34.55a19,19,0,0,0-.22,3.14c0.13,2.21,1.22,3.76,5.24,3.52s8.91-6.16,12.74-9.6l3.41-.2c-4.35,4.89-14.92,18.9-22.75,19.35s-12.75-2.69-13.18-10.22a25.3,25.3,0,0,1,.31-5.16l5.25-34.55Zm-5.85-21a8.07,8.07,0,0,1,8.5,7.57,8,8,0,0,1-7.57,8.4,7.9,7.9,0,0,1-8.39-7.47A8,8,0,0,1,539.25,339.79Z" transform="translate(-21.24 -8.14)"/><path d="M576.07,338.87l-8.41,54.89a18.23,18.23,0,0,0-.32,3.24c0.13,2.21,1.32,3.65,5.24,3.42s8.91-6.16,12.74-9.6l3.41-.2c-4.35,4.89-14.92,18.9-22.75,19.35s-12.65-2.69-13.08-10.22a25.3,25.3,0,0,1,.31-5.16l8.12-52.85Z" transform="translate(-21.24 -8.14)"/><path d="M604.78,337.2l-8.41,54.89a18.24,18.24,0,0,0-.32,3.24c0.13,2.21,1.32,3.65,5.24,3.42s8.91-6.16,12.74-9.6l3.41-.2c-4.35,4.89-14.92,18.9-22.75,19.35s-12.65-2.69-13.08-10.22a25.3,25.3,0,0,1,.31-5.16L590,340.07Z" transform="translate(-21.24 -8.14)"/><path d="M629,355.95l-5.25,34.55a19.14,19.14,0,0,0-.22,3.14c0.13,2.21,1.22,3.76,5.24,3.52s8.91-6.16,12.74-9.6l3.41-.2c-4.35,4.89-14.92,18.9-22.75,19.35S609.46,404,609,396.49a25.28,25.28,0,0,1,.31-5.16l5.25-34.55Zm-5.85-21a8.07,8.07,0,0,1,8.5,7.57,8,8,0,0,1-7.57,8.4,7.9,7.9,0,0,1-8.39-7.47A8,8,0,0,1,623.19,334.93Z" transform="translate(-21.24 -8.14)"/><path d="M673.81,367.15a3.89,3.89,0,0,0,3,.74c4.72-.27,6.63-3.81,10.26-5.53l0.52,2.09a28,28,0,0,1-13.65,9.66c-0.74,20.29-11.11,30.86-21.15,31.45-10.74.62-15.62-3.63-16.32-15.58C635,365.27,647,353.9,660.81,353.1,670.35,352.54,673.19,359.83,673.81,367.15Zm-7.27,8.38c-2.91.17-4.34-1.86-4.48-4.27-0.17-2.91,1.36-6.12,4-7.28-0.49-3.3-1.71-5.14-4.52-5-9.44.55-12.27,21.26-11.8,29.29,0.35,6,3.25,7.47,7.17,7.24C663,395.18,665.9,385.34,666.54,375.53Z" transform="translate(-21.24 -8.14)"/><path d="M715.88,401.28c-6.53.38-10.44-2.82-10.87-10.35a24.45,24.45,0,0,1,.31-5.16l2.77-18.29a12.19,12.19,0,0,0,.15-2.63c-0.21-3.62-2.25-5.81-5-5.66a10.67,10.67,0,0,0-6.2,2.47l-6.18,41.06-14.46.84,7.73-50.82,14.46-.84-0.89,5.49c3.94-3.25,8.42-5.93,12.84-6.18,5.52-.32,11.88,5.15,12.28,12a18.08,18.08,0,0,1-.07,2.32c-0.31,3.34-3.6,21.26-3.48,23.47,0.1,1.71,1,3.06,3.89,2.9a8.09,8.09,0,0,0,2.59-.45C723.48,400.24,719.3,401.09,715.88,401.28Z" transform="translate(-21.24 -8.14)"/><path d="M772.1,331.74s-1.11,6.92-2.49,16.06l6-.35-0.57,4.06-6,.35c-5.09,32.13-4.93,33.13-4.9,33.63,0.13,2.31,1.23,3.76,5.24,3.52s8.91-6.16,12.74-9.6l3.41-.2c-4.35,4.89-14.92,18.9-22.75,19.35s-12.65-2.69-13.08-10.22c-0.31-5.32,3.68-26.91,4.89-35.64l-3.31.19,0.57-4.06,3.31-.19,2.21-14Z" transform="translate(-21.24 -8.14)"/><path d="M798.72,346.11l-0.81,5.08c3.45-3,7.34-5.46,11.56-5.71,4.52-.26,7.38,2.19,7.6,6,0.2,3.51-2.16,8-7.08,8.27-5.62.33-3.2-6.46-6.21-6.29s-4.55,1.37-6.74,3.61L791,396.93l-14.46.84L784.26,347Z" transform="translate(-21.24 -8.14)"/><path d="M838.18,343.83l-5.25,34.55a18.92,18.92,0,0,0-.22,3.14c0.13,2.21,1.22,3.76,5.24,3.52s8.91-6.16,12.74-9.6l3.41-.2c-4.35,4.89-14.92,18.9-22.76,19.35s-12.75-2.69-13.18-10.22a25.3,25.3,0,0,1,.31-5.16l5.25-34.55Zm-5.85-21a8.07,8.07,0,0,1,8.5,7.57,8,8,0,0,1-7.57,8.4,7.9,7.9,0,0,1-8.39-7.47A8,8,0,0,1,832.32,322.81Z" transform="translate(-21.24 -8.14)"/><path d="M865.09,342.27l-0.29,1.93a15.26,15.26,0,0,1,6.92-2.21c10.44-.6,15.58,2.82,16.18,13.17a46.48,46.48,0,0,1-.2,7.06c-1.86,21.77-10.07,29.6-20.31,30.19a17.52,17.52,0,0,1-9.61-2.47l-3.8,24.9-15,4.49,11.6-76.23Zm9.83,21.9a53.41,53.41,0,0,0,.72-10.22c-0.35-6-2.83-7.09-6-6.9a10.34,10.34,0,0,0-5.6,2.44l-5.27,34.15a10.13,10.13,0,0,0,6.63,1.43C870.37,384.78,872.53,380.32,874.92,364.16Z" transform="translate(-21.24 -8.14)"/><path d="M918.29,337.37l0.08,1.41c1,16.57,8.57,21,9.25,32.71,0.54,9.34-4.91,17.81-18.47,18.6-11.55.67-17.36-2.32-17.93-12.16-0.46-7.93,2.89-12.76,6.89-13.29,3-6.72,4.53-15.68,5.8-23.41ZM899.94,377a8,8,0,0,1-3.67-.69c0.34,5.92,3.71,8.35,9,8,3.41-.2,8.09-4.7,7.64-12.43-0.36-6.23-5.19-11.29-6.12-23.82-1.32,5-2.35,11.52-4.27,16.67,2.46,0.66,3.46,2.42,3.64,5.43A6.52,6.52,0,0,1,899.94,377Z" transform="translate(-21.24 -8.14)"/><path d="M974.51,320s-1.11,6.91-2.5,16.06l6-.35-0.57,4.06-6,.35c-5.09,32.13-4.93,33.13-4.9,33.63,0.13,2.31,1.22,3.76,5.24,3.52s8.91-6.16,12.74-9.6l3.41-.2c-4.35,4.89-14.92,18.9-22.75,19.35s-12.65-2.69-13.08-10.22c-0.31-5.32,3.68-26.91,4.89-35.64l-3.31.19,0.57-4.06,3.31-.19,2.21-14Z" transform="translate(-21.24 -8.14)"/><path d="M1021.61,340.15l1.12,1.95c-0.8,3.57-2.23,8.39-6.11,11,0.1,20.85-11.14,32.08-20.58,32.62-10.74.62-16-3.7-16.72-15.65-1.42-24.5,10.6-36.07,24.36-36.87,4.82-.28,9.55,1.36,9.7,4,0.17,2.91-2.17,4.26-4.24,5.08-0.93-2.06-2.41-3.29-4.72-3.15-9.84.57-12.27,21.26-11.8,29.29,0.35,6,3.45,7.46,7.47,7.22,5.92-.34,8.81-11.39,9.28-20.68-2-.29-2.93-1.85-3-4-0.2-3.51,3.07-7.83,6.29-8,1.91-.11,3.45.4,3.57,2.51a2.78,2.78,0,0,1,0,.91C1018.65,344.66,1019.45,342.8,1021.61,340.15Z" transform="translate(-21.24 -8.14)"/><path d="M1089.28,329.28L1084,363.83a18.92,18.92,0,0,0-.22,3.14c0.13,2.21,1.22,3.76,5.24,3.52s8.91-6.16,12.74-9.6l3.42-.2c-4.35,4.89-14.92,18.9-22.76,19.35-6.53.38-11.08-1.78-12.69-6.92-2.77,4.29-7.05,8.67-13.18,9-9.64.56-12.85-6.11-13.19-12-1-17.27,4-38.31,24.11-39.48a10.92,10.92,0,0,1,6.87,2.12l0.45-2.64Zm-32.49,37.34c0.35,6,3.73,6.94,6.24,6.79,2.31-.13,4.39-2.47,6.13-5.39a23.37,23.37,0,0,1,.41-3.35l4.08-26.93a7.5,7.5,0,0,0-5-1.52C1061.1,336.66,1056,353,1056.79,366.62Z" transform="translate(-21.24 -8.14)"/><path d="M1115.09,327.79l-0.81,5.08c3.45-3,7.34-5.46,11.56-5.71,4.52-.26,7.38,2.19,7.6,6,0.2,3.51-2.16,8-7.08,8.27-5.62.33-3.2-6.46-6.21-6.29s-4.55,1.37-6.74,3.61l-6.05,39.84-14.46.84,7.73-50.82Z" transform="translate(-21.24 -8.14)"/><path d="M1154.93,368.59c4.92-.28,13-6.6,16.1-14.23l4.52-.26c-5.12,10.67-14.17,21.37-27.13,22.12-9.64.56-15.28-6.47-15.78-15.1-0.74-12.75,3.39-35.45,21.66-36.51,8.23-.48,13,2.67,13.46,9.7,0.71,12.25-12,20-21.5,21.8a36.07,36.07,0,0,0-.05,4.33C1146.58,367.06,1151,368.82,1154.93,368.59Zm3-38.86c-5.62.33-9.58,11.94-11.14,21.5,9.23-.64,15.3-8.95,15-16.08C1161.63,333,1160.92,329.56,1157.91,329.74Z" transform="translate(-21.24 -8.14)"/><path d="M1214.28,322l-5.15,34.55a20.08,20.08,0,0,0-.29,3.75c0.12,2.11,1,3.17,3.3,3,1.1-.06,2.53-1.56,4-4-0.48-8.23,2.87-13.06,6.87-13.59,3-6.72,4.53-15.68,5.8-23.41l14.38-3.86,0.08,1.41c1,16.57,8.57,21,9.25,32.71,0.54,9.34-4.91,17.81-18.47,18.6-9.24.54-14.78-1.26-16.92-7-3.35,4.83-6.77,8.35-9.68,8.52-7,.41-11-2.38-12.5-7.13-2.77,4.39-7,8.87-13.27,9.23-9.64.56-12.84-6.11-13.19-12-1-17.27,4-38.31,24.11-39.48a10.92,10.92,0,0,1,6.87,2.12l0.45-2.64Zm-15.53,8.46a7.51,7.51,0,0,0-5-1.52c-7.53.44-12.63,16.75-11.84,30.4,0.35,6,3.73,6.94,6.24,6.79,2.31-.13,4.39-2.57,6.23-5.5a12.59,12.59,0,0,1,.32-3.24Zm26.08,27.7a9,9,0,0,1-3.56-.6,8.7,8.7,0,0,0-.11,1.62c0.25,4.32,5.11,6.55,9,6.33,3.41-.2,8.09-4.7,7.64-12.43-0.36-6.23-5.19-11.29-6.11-23.82-1.32,5-2.35,11.52-4.27,16.67,2.46,0.66,3.46,2.42,3.64,5.43A6.52,6.52,0,0,1,1224.84,358.2Z" transform="translate(-21.24 -8.14)"/></g><path class="cls-3" d="M153.66,389.88a3.89,3.89,0,0,0,3,.74c4.72-.27,6.63-3.81,10.26-5.53l0.52,2.09a28,28,0,0,1-13.65,9.66c-0.74,20.29-11.11,30.86-21.15,31.45-10.74.62-15.62-3.63-16.32-15.58-1.43-24.7,10.5-36.07,24.36-36.87C150.19,375.28,153,382.57,153.66,389.88Zm-7.27,8.38c-2.91.17-4.34-1.86-4.48-4.27-0.17-2.91,1.36-6.12,4-7.28-0.49-3.3-1.71-5.14-4.52-5C132,382.28,129.13,403,129.6,411c0.35,6,3.25,7.47,7.17,7.24C142.89,417.91,145.75,408.07,146.39,398.26Z" transform="translate(-21.24 -8.14)"/><path class="cls-3" d="M196.94,380.63c0.91,15.66-5.43,43.63-25.71,44.81-7.73.45-12.65-2.69-13.08-10.22a24.52,24.52,0,0,1,.21-5.15l5.25-34.55,14.46-.84-5.25,34.55a18.12,18.12,0,0,0-.29,3.75c0.11,1.91,1.09,3.16,4,3,9.84-.57,15.29-22.95,14.66-33.89a7.83,7.83,0,0,1-2.09.52c-2.91.17-4.38-2.57-4.54-5.38-0.12-2.11,2.12-5.06,5.44-5.25C194.31,371.71,196.64,375.41,196.94,380.63Z" transform="translate(-21.24 -8.14)"/><path class="cls-3" d="M221.62,415.26c4.92-.29,13-6.6,16.1-14.23l4.52-.26c-5.12,10.67-14.18,21.37-27.13,22.12-9.64.56-15.29-6.47-15.79-15.1-0.74-12.75,3.39-35.45,21.66-36.51,8.23-.48,13,2.67,13.46,9.7,0.71,12.25-12,20-21.5,21.8a36.29,36.29,0,0,0-.05,4.33C213.27,413.73,217.7,415.49,221.62,415.26Zm3-38.86c-5.62.33-9.58,11.94-11.15,21.5,9.23-.64,15.3-8.95,15-16.08C228.32,379.71,227.61,376.23,224.6,376.4Z" transform="translate(-21.24 -8.14)"/><path class="cls-3" d="M256.78,370.11L256,375.19c3.45-3,7.34-5.46,11.56-5.71,4.52-.26,7.38,2.19,7.6,6,0.2,3.51-2.16,8-7.08,8.27-5.62.33-3.2-6.46-6.21-6.29s-4.55,1.37-6.74,3.61L249,420.93l-14.46.84,7.73-50.82Z" transform="translate(-21.24 -8.14)"/><path class="cls-3" d="M310,403.39c0.39,6.73,4.09,7.92,9.41,7.62,7.23-.42,11.75-9.24,11.24-18.18-0.44-7.63-4.62-15.35-14-17.92,11.47-3.79,16.32-13.84,15.92-20.87-0.26-4.52-2.57-7.81-6.78-7.57-6.73.39-9,3.64-8.67,8.66,0.13,2.31,1.35,6,4.21,6.61a12,12,0,0,1-7.53,3.86c-4,.23-7.32-2.8-7.65-8.62-0.4-6.83,5.67-15.14,20.83-16,11.45-.66,18.07,5.8,18.53,13.74,0.38,6.63-3.61,14.21-12.58,19.37,8.89,2.2,13,8.41,13.39,15.54,0.7,12.15-9.43,26.74-24.39,27.61-8,.47-22.29-0.42-23.12-14.88-0.55-9.44,3.23-15.5,11-15.95,4.52-.26,7.42,1.08,8.43,4.65C310,392.21,309.69,398.37,310,403.39Z" transform="translate(-21.24 -8.14)"/><path class="cls-3" d="M360.79,398.84a8.07,8.07,0,0,1,8.5,7.57,8,8,0,0,1-7.57,8.4,7.9,7.9,0,0,1-8.39-7.47A8,8,0,0,1,360.79,398.84Z" transform="translate(-21.24 -8.14)"/><path class="cls-3" d="M424.1,335.23c-4.77,8-25,43.76-27.4,50.45a32.91,32.91,0,0,0-2.46,13.14c0.23,4,1.7,6.65,5.48,9.46-1,3.28-4.79,4.21-9,4.45-6,.35-10.48-1.71-11.07-12-0.95-16.37,12.79-34.79,28.53-55.25a62.07,62.07,0,0,0-8.47-.11c-8.74.51-16.24,3.06-20.47,8.34a26.06,26.06,0,0,1-1.14-5.78c-0.38-6.53,3.23-10.26,13.07-10.83Z" transform="translate(-21.24 -8.14)"/><path class="cls-3" d="M509,389.75a15.81,15.81,0,0,0-.29,3.75c0.13,2.31,1.14,4.06,4.35,3.88,4-.23,7.89-6.4,9.95-10.85l4.72-.27c-4.3,5.69-12.58,19.26-20.42,19.72s-12.65-2.69-13.08-10.22a24.52,24.52,0,0,1,.31-5.16l2.77-18.29a12.19,12.19,0,0,0,.15-2.63c-0.21-3.62-2.25-5.81-5-5.66a10.25,10.25,0,0,0-5.72,2.14,14.2,14.2,0,0,1,.71,3.49,15.1,15.1,0,0,1-.08,2.12L482,407.43l-14.56.84,5.25-34.56a12.19,12.19,0,0,0,.15-2.63c-0.21-3.62-2.25-5.81-5-5.66a9.88,9.88,0,0,0-6,2.46L455.57,409l-14.46.84L448.84,359l14.46-.84-0.8,5.39c3.85-3.14,8.33-5.82,12.64-6.07,3.71-.22,7.89,2.26,10.32,6.05,4.21-3.77,9.36-7.19,14.27-7.48,5.52-.32,11.88,5.15,12.28,12a18.08,18.08,0,0,1-.07,2.32Z" transform="translate(-21.24 -8.14)"/><path class="cls-3" d="M538.1,353.81l-5.25,34.55a19,19,0,0,0-.22,3.14c0.13,2.21,1.22,3.76,5.24,3.52s8.91-6.16,12.74-9.6l3.41-.2c-4.35,4.89-14.92,18.9-22.75,19.35s-12.75-2.69-13.18-10.22a25.3,25.3,0,0,1,.31-5.16l5.25-34.55Zm-5.85-21a8.07,8.07,0,0,1,8.5,7.57,8,8,0,0,1-7.57,8.4,7.9,7.9,0,0,1-8.39-7.47A8,8,0,0,1,532.25,332.79Z" transform="translate(-21.24 -8.14)"/><path class="cls-3" d="M569.07,331.87l-8.41,54.89a18.23,18.23,0,0,0-.32,3.24c0.13,2.21,1.32,3.65,5.24,3.42s8.91-6.16,12.74-9.6l3.41-.2c-4.35,4.89-14.92,18.9-22.75,19.35s-12.65-2.69-13.08-10.22a25.3,25.3,0,0,1,.31-5.16l8.12-52.85Z" transform="translate(-21.24 -8.14)"/><path class="cls-3" d="M597.78,330.2l-8.41,54.89a18.24,18.24,0,0,0-.32,3.24c0.13,2.21,1.32,3.65,5.24,3.42s8.91-6.16,12.74-9.6l3.41-.2c-4.35,4.89-14.92,18.9-22.75,19.35s-12.65-2.69-13.08-10.22a25.3,25.3,0,0,1,.31-5.16L583,333.07Z" transform="translate(-21.24 -8.14)"/><path class="cls-3" d="M622,348.95l-5.25,34.55a19.14,19.14,0,0,0-.22,3.14c0.13,2.21,1.22,3.76,5.24,3.52s8.91-6.16,12.74-9.6l3.41-.2c-4.35,4.89-14.92,18.9-22.75,19.35S602.46,397,602,389.49a25.28,25.28,0,0,1,.31-5.16l5.25-34.55Zm-5.85-21a8.07,8.07,0,0,1,8.5,7.57,8,8,0,0,1-7.57,8.4,7.9,7.9,0,0,1-8.39-7.47A8,8,0,0,1,616.19,327.93Z" transform="translate(-21.24 -8.14)"/><path class="cls-3" d="M666.81,360.15a3.89,3.89,0,0,0,3,.74c4.72-.27,6.63-3.81,10.26-5.53l0.52,2.09a28,28,0,0,1-13.65,9.66c-0.74,20.29-11.11,30.86-21.15,31.45-10.74.62-15.62-3.63-16.32-15.58C628,358.27,640,346.9,653.81,346.1,663.35,345.54,666.19,352.83,666.81,360.15Zm-7.27,8.38c-2.91.17-4.34-1.86-4.48-4.27-0.17-2.91,1.36-6.12,4-7.28-0.49-3.3-1.71-5.14-4.52-5-9.44.55-12.27,21.26-11.8,29.29,0.35,6,3.25,7.47,7.17,7.24C656,388.18,658.9,378.34,659.54,368.53Z" transform="translate(-21.24 -8.14)"/><path class="cls-3" d="M708.88,394.28c-6.53.38-10.44-2.82-10.87-10.35a24.45,24.45,0,0,1,.31-5.16l2.77-18.29a12.19,12.19,0,0,0,.15-2.63c-0.21-3.62-2.25-5.81-5-5.66a10.67,10.67,0,0,0-6.2,2.47l-6.18,41.06-14.46.84,7.73-50.82,14.46-.84-0.89,5.49c3.94-3.25,8.42-5.93,12.84-6.18,5.52-.32,11.88,5.15,12.28,12a18.08,18.08,0,0,1-.07,2.32c-0.31,3.34-3.6,21.26-3.48,23.47,0.1,1.71,1,3.06,3.89,2.9a8.09,8.09,0,0,0,2.59-.45C716.48,393.24,712.3,394.09,708.88,394.28Z" transform="translate(-21.24 -8.14)"/><path class="cls-3" d="M765.1,324.74s-1.11,6.92-2.49,16.06l6-.35-0.57,4.06-6,.35c-5.09,32.13-4.93,33.13-4.9,33.63,0.13,2.31,1.23,3.76,5.24,3.52s8.91-6.16,12.74-9.6l3.41-.2c-4.35,4.89-14.92,18.9-22.75,19.35s-12.65-2.69-13.08-10.22c-0.31-5.32,3.68-26.91,4.89-35.64l-3.31.19,0.57-4.06,3.31-.19,2.21-14Z" transform="translate(-21.24 -8.14)"/><path class="cls-3" d="M791.72,339.11l-0.81,5.08c3.45-3,7.34-5.46,11.56-5.71,4.52-.26,7.38,2.19,7.6,6,0.2,3.51-2.16,8-7.08,8.27-5.62.33-3.2-6.46-6.21-6.29s-4.55,1.37-6.74,3.61L784,389.93l-14.46.84L777.26,340Z" transform="translate(-21.24 -8.14)"/><path class="cls-3" d="M831.18,336.83l-5.25,34.55a18.92,18.92,0,0,0-.22,3.14c0.13,2.21,1.22,3.76,5.24,3.52s8.91-6.16,12.74-9.6l3.41-.2c-4.35,4.89-14.92,18.9-22.76,19.35s-12.75-2.69-13.18-10.22a25.3,25.3,0,0,1,.31-5.16l5.25-34.55Zm-5.85-21a8.07,8.07,0,0,1,8.5,7.57,8,8,0,0,1-7.57,8.4,7.9,7.9,0,0,1-8.39-7.47A8,8,0,0,1,825.32,315.81Z" transform="translate(-21.24 -8.14)"/><path class="cls-3" d="M858.09,335.27l-0.29,1.93a15.26,15.26,0,0,1,6.92-2.21c10.44-.6,15.58,2.82,16.18,13.17a46.48,46.48,0,0,1-.2,7.06c-1.86,21.77-10.07,29.6-20.31,30.19a17.52,17.52,0,0,1-9.61-2.47l-3.8,24.9-15,4.49,11.6-76.23Zm9.83,21.9a53.41,53.41,0,0,0,.72-10.22c-0.35-6-2.83-7.09-6-6.9a10.34,10.34,0,0,0-5.6,2.44l-5.27,34.15a10.13,10.13,0,0,0,6.63,1.43C863.37,377.78,865.53,373.32,867.92,357.16Z" transform="translate(-21.24 -8.14)"/><path class="cls-3" d="M911.29,330.37l0.08,1.41c1,16.57,8.57,21,9.25,32.71,0.54,9.34-4.91,17.81-18.47,18.6-11.55.67-17.36-2.32-17.93-12.16-0.46-7.93,2.89-12.76,6.89-13.29,3-6.72,4.53-15.68,5.8-23.41ZM892.94,370a8,8,0,0,1-3.67-.69c0.34,5.92,3.71,8.35,9,8,3.41-.2,8.09-4.7,7.64-12.43-0.36-6.23-5.19-11.29-6.12-23.82-1.32,5-2.35,11.52-4.27,16.67,2.46,0.66,3.46,2.42,3.64,5.43A6.52,6.52,0,0,1,892.94,370Z" transform="translate(-21.24 -8.14)"/><path class="cls-3" d="M967.51,313s-1.11,6.91-2.5,16.06l6-.35-0.57,4.06-6,.35c-5.09,32.13-4.93,33.13-4.9,33.63,0.13,2.31,1.22,3.76,5.24,3.52s8.91-6.16,12.74-9.6l3.41-.2c-4.35,4.89-14.92,18.9-22.75,19.35s-12.65-2.69-13.08-10.22c-0.31-5.32,3.68-26.91,4.89-35.64l-3.31.19,0.57-4.06,3.31-.19,2.21-14Z" transform="translate(-21.24 -8.14)"/><path class="cls-3" d="M1014.61,333.15l1.12,1.95c-0.8,3.57-2.23,8.39-6.11,11,0.1,20.85-11.14,32.08-20.58,32.62-10.74.62-16-3.7-16.72-15.65-1.42-24.5,10.6-36.07,24.36-36.87,4.82-.28,9.55,1.36,9.7,4,0.17,2.91-2.17,4.26-4.24,5.08-0.93-2.06-2.41-3.29-4.72-3.15-9.84.57-12.27,21.26-11.8,29.29,0.35,6,3.45,7.46,7.47,7.22,5.92-.34,8.81-11.39,9.28-20.68-2-.29-2.93-1.85-3-4-0.2-3.51,3.07-7.83,6.29-8,1.91-.11,3.45.4,3.57,2.51a2.78,2.78,0,0,1,0,.91C1011.65,337.66,1012.45,335.8,1014.61,333.15Z" transform="translate(-21.24 -8.14)"/><path class="cls-3" d="M1082.28,322.28L1077,356.83a18.92,18.92,0,0,0-.22,3.14c0.13,2.21,1.22,3.76,5.24,3.52s8.91-6.16,12.74-9.6l3.42-.2c-4.35,4.89-14.92,18.9-22.76,19.35-6.53.38-11.08-1.78-12.69-6.92-2.77,4.29-7.05,8.67-13.18,9-9.64.56-12.85-6.11-13.19-12-1-17.27,4-38.31,24.11-39.48a10.92,10.92,0,0,1,6.87,2.12l0.45-2.64Zm-32.49,37.34c0.35,6,3.73,6.94,6.24,6.79,2.31-.13,4.39-2.47,6.13-5.39a23.37,23.37,0,0,1,.41-3.35l4.08-26.93a7.5,7.5,0,0,0-5-1.52C1054.1,329.66,1049,346,1049.79,359.62Z" transform="translate(-21.24 -8.14)"/><path class="cls-3" d="M1108.09,320.79l-0.81,5.08c3.45-3,7.34-5.46,11.56-5.71,4.52-.26,7.38,2.19,7.6,6,0.2,3.51-2.16,8-7.08,8.27-5.62.33-3.2-6.46-6.21-6.29s-4.55,1.37-6.74,3.61l-6.05,39.84-14.46.84,7.73-50.82Z" transform="translate(-21.24 -8.14)"/><path class="cls-3" d="M1147.93,361.59c4.92-.28,13-6.6,16.1-14.23l4.52-.26c-5.12,10.67-14.17,21.37-27.13,22.12-9.64.56-15.28-6.47-15.78-15.1-0.74-12.75,3.39-35.45,21.66-36.51,8.23-.48,13,2.67,13.46,9.7,0.71,12.25-12,20-21.5,21.8a36.07,36.07,0,0,0-.05,4.33C1139.58,360.06,1144,361.82,1147.93,361.59Zm3-38.86c-5.62.33-9.58,11.94-11.14,21.5,9.23-.64,15.3-8.95,15-16.08C1154.63,326,1153.92,322.56,1150.91,322.74Z" transform="translate(-21.24 -8.14)"/><path class="cls-3" d="M1207.28,315l-5.15,34.55a20.08,20.08,0,0,0-.29,3.75c0.12,2.11,1,3.17,3.3,3,1.1-.06,2.53-1.56,4-4-0.48-8.23,2.87-13.06,6.87-13.59,3-6.72,4.53-15.68,5.8-23.41l14.38-3.86,0.08,1.41c1,16.57,8.57,21,9.25,32.71,0.54,9.34-4.91,17.81-18.47,18.6-9.24.54-14.78-1.26-16.92-7-3.35,4.83-6.77,8.35-9.68,8.52-7,.41-11-2.38-12.5-7.13-2.77,4.39-7,8.87-13.27,9.23-9.64.56-12.84-6.11-13.19-12-1-17.27,4-38.31,24.11-39.48a10.92,10.92,0,0,1,6.87,2.12l0.45-2.64Zm-15.53,8.46a7.51,7.51,0,0,0-5-1.52c-7.53.44-12.63,16.75-11.84,30.4,0.35,6,3.73,6.94,6.24,6.79,2.31-.13,4.39-2.57,6.23-5.5a12.59,12.59,0,0,1,.32-3.24Zm26.08,27.7a9,9,0,0,1-3.56-.6,8.7,8.7,0,0,0-.11,1.62c0.25,4.32,5.11,6.55,9,6.33,3.41-.2,8.09-4.7,7.64-12.43-0.36-6.23-5.19-11.29-6.11-23.82-1.32,5-2.35,11.52-4.27,16.67,2.46,0.66,3.46,2.42,3.64,5.43A6.52,6.52,0,0,1,1217.84,351.2Z" transform="translate(-21.24 -8.14)"/><g class="cls-2"><path d="M339,518.42c4.92-.29,13-6.6,16.1-14.23l4.52-.26c-5.12,10.67-14.17,21.37-27.13,22.12-9.64.56-15.28-6.47-15.78-15.1-0.74-12.75,3.38-35.45,21.66-36.51,8.23-.48,13,2.67,13.46,9.7,0.71,12.25-12,20-21.5,21.8a36.09,36.09,0,0,0-.05,4.33C330.64,516.89,335.08,518.65,339,518.42Zm3-38.86c-5.62.33-9.58,11.94-11.15,21.5,9.23-.64,15.3-8.95,15-16.08C345.7,482.88,345,479.39,342,479.57Z" transform="translate(-21.24 -8.14)"/><path d="M395.31,506.3a12.55,12.55,0,0,0-.32,3.24c0.13,2.21,1.32,3.65,5.24,3.42s5.34-3.43,9.17-6.88l3.41-.2c-4.35,4.89-11.35,16.17-19.18,16.63s-12.65-2.69-13.08-10.22a24.39,24.39,0,0,1,.31-5.16l2.77-18.29a12.26,12.26,0,0,0,.15-2.63c-0.21-3.62-2.25-5.81-5-5.66a10.67,10.67,0,0,0-6.2,2.47l-6.18,41.06-14.46.84,7.73-50.82,14.46-.84-0.89,5.49c3.94-3.25,8.42-5.93,12.84-6.18,5.42-.31,11.88,5.15,12.27,11.88a9.82,9.82,0,0,1-.06,2.42Z" transform="translate(-21.24 -8.14)"/><path d="M452.71,448.57l-8.3,54.88a19.31,19.31,0,0,0-.32,3.24c0.13,2.21,1.32,3.65,5.24,3.42s8.91-6.16,12.74-9.6l3.41-.2c-4.35,4.89-14.92,18.9-22.75,19.35-6.53.38-11-1.78-12.59-6.93-2.77,4.29-7.05,8.67-13.18,9-9.64.56-12.84-6.11-13.19-12-1-17.27,4-38.31,24.11-39.48a10.93,10.93,0,0,1,6.87,2.12L438,451.44Zm-35.54,57.67c0.35,6,3.73,6.94,6.24,6.79,2.31-.13,4.39-2.47,6.13-5.39a23.23,23.23,0,0,1,.41-3.35L434,477.36a7.5,7.5,0,0,0-5-1.52C421.47,476.27,416.37,492.58,417.16,506.24Z" transform="translate(-21.24 -8.14)"/><path d="M474.84,510.55c4.92-.28,13-6.6,16.1-14.23l4.52-.26c-5.12,10.67-14.18,21.37-27.13,22.12-9.64.56-15.28-6.47-15.78-15.1-0.74-12.75,3.39-35.46,21.66-36.51,8.23-.48,13,2.67,13.46,9.7,0.71,12.25-12,20-21.5,21.8a36.07,36.07,0,0,0,0,4.33C466.49,509,470.92,510.78,474.84,510.55Zm3-38.86c-5.62.33-9.58,11.94-11.15,21.5,9.23-.64,15.3-8.95,15-16.08C481.54,475,480.84,471.52,477.82,471.7Z" transform="translate(-21.24 -8.14)"/><path d="M555.75,497a15.81,15.81,0,0,0-.29,3.75c0.13,2.31,1.14,4.06,4.35,3.88,4-.23,7.89-6.4,10-10.85l4.72-.27c-4.3,5.69-12.58,19.26-20.42,19.72S541.42,510.53,541,503a24.45,24.45,0,0,1,.31-5.16l2.77-18.29a12.26,12.26,0,0,0,.15-2.63c-0.21-3.62-2.25-5.81-5-5.66a10.25,10.25,0,0,0-5.72,2.14,14.19,14.19,0,0,1,.71,3.49,15,15,0,0,1-.08,2.12l-5.39,35.67-14.56.84L519.46,481a12.26,12.26,0,0,0,.15-2.63c-0.21-3.62-2.25-5.81-5-5.66a9.88,9.88,0,0,0-6,2.46l-6.28,41.06-14.46.84,7.73-50.82,14.46-.84-0.8,5.38c3.85-3.14,8.33-5.82,12.64-6.07,3.71-.21,7.89,2.26,10.32,6.05,4.21-3.77,9.35-7.19,14.27-7.48,5.52-.32,11.88,5.15,12.28,12a17.9,17.9,0,0,1-.07,2.32Z" transform="translate(-21.24 -8.14)"/><path d="M584.9,461.06l-5.25,34.55a18.93,18.93,0,0,0-.22,3.14c0.13,2.21,1.23,3.76,5.24,3.52s8.91-6.16,12.74-9.6l3.42-.2c-4.35,4.89-14.92,18.9-22.75,19.35s-12.75-2.69-13.18-10.22a25.23,25.23,0,0,1,.31-5.16l5.25-34.55ZM579,440a8.07,8.07,0,0,1,8.5,7.57A8,8,0,0,1,580,456a7.9,7.9,0,0,1-8.39-7.47A8,8,0,0,1,579,440Z" transform="translate(-21.24 -8.14)"/><path d="M591.67,494.52c-0.85-14.66,4.35-34.4,23.83-35.53,5.42-.31,11.13.77,11.45,6.29a10.23,10.23,0,0,1-.31,3.34l-5.72.33a11.11,11.11,0,0,0,.34-2.84c-0.14-2.41-1.7-3.33-3.91-3.2-8.43.49-12.91,17.17-12.28,28,0.29,4.92,1.73,10.68,7.85,10.32,5.42-.31,10-3.1,13.71-6.74,0.51,8.74-6.59,14.89-19.24,15.62C599.05,510.61,592.36,506.37,591.67,494.52Z" transform="translate(-21.24 -8.14)"/><path d="M715.22,460.56c0.91,15.66-5.43,43.63-25.71,44.81-6.83.4-11.4-2-12.73-7.62-4.47,4.59-9.66,8.92-13.87,9.17-7.73.45-12.75-2.69-13.18-10.22a25.15,25.15,0,0,1,.31-5.16L655.28,457l14.46-.84-5.25,34.55a18.94,18.94,0,0,0-.22,3.14c0.13,2.21,1.23,3.76,5.24,3.52,2.11-.12,4.53-1.77,6.82-3.92a14.79,14.79,0,0,1,.3-3.44l5.25-34.55,14.46-.84-5.25,34.55a18.2,18.2,0,0,0-.29,3.75c0.11,1.91,1.09,3.16,4,3,9.84-.57,15.29-22.95,14.66-33.89a7.81,7.81,0,0,1-2.08.52c-2.91.17-4.38-2.57-4.54-5.38-0.12-2.11,2.12-5.06,5.44-5.25C712.59,451.65,714.92,455.34,715.22,460.56Z" transform="translate(-21.24 -8.14)"/><path d="M738,452.19l-5.25,34.55a18.93,18.93,0,0,0-.22,3.14c0.13,2.21,1.23,3.76,5.24,3.52s8.91-6.16,12.74-9.6l3.41-.2c-4.35,4.89-14.92,18.9-22.75,19.35s-12.75-2.69-13.18-10.22a25.16,25.16,0,0,1,.31-5.16L723.55,453Zm-5.85-21a8.07,8.07,0,0,1,8.5,7.57,8,8,0,0,1-7.57,8.4,7.9,7.9,0,0,1-8.39-7.47A8,8,0,0,1,732.16,431.17Z" transform="translate(-21.24 -8.14)"/><path d="M768.72,434.49s-1.11,6.92-2.49,16.06l6-.35-0.57,4.06-6,.35c-5.09,32.13-4.93,33.13-4.9,33.63,0.13,2.31,1.23,3.76,5.24,3.53s8.91-6.16,12.74-9.6l3.41-.2c-4.35,4.89-14.92,18.9-22.75,19.35s-12.65-2.69-13.08-10.22c-0.31-5.32,3.68-26.91,4.89-35.64l-3.31.19,0.57-4.06,3.31-.19,2.21-14Z" transform="translate(-21.24 -8.14)"/><path d="M811.5,498.3c-7.13.41-10.52-4.12-10.88-10.45a22.16,22.16,0,0,1,.31-5.06l2.77-18.29a16.46,16.46,0,0,0,.07-2.32c-0.19-3.21-1.76-6.14-4.88-6a9.94,9.94,0,0,0-6.2,2.57l-6.29,41-14.46.84,10.6-69.12,14.74-2.87-3.94,25.82c3.94-3.25,8.42-5.93,12.84-6.18,5.62-.33,11.9,5.46,12.29,12.08a8.23,8.23,0,0,1-.07,2.22l-3,19.42a19.9,19.9,0,0,0-.56,4.16c0.1,1.71,1,3,4,2.79a8,8,0,0,0,2.59-.45C819.1,497.26,814.92,498.1,811.5,498.3Z" transform="translate(-21.24 -8.14)"/><path d="M874.37,451.44c-0.14-2.41-1.7-3.33-3.91-3.2-8.43.49-12.91,17.17-12.28,28,0.34,5.92,1.83,10.67,8,10.32,7.13-.41,12.61-5,16.92-10.45l3.41-.2c-4.5,5.7-9.2,18.56-27,19.59-8.33.48-14-3.82-14.71-15.67-0.85-14.66,4.35-34.4,23.83-35.53,5.42-.31,11.13.77,11.45,6.29a10.28,10.28,0,0,1-.31,3.34,4.8,4.8,0,0,0-2.55-.46,11.1,11.1,0,0,0-3.18.79A11.12,11.12,0,0,0,874.37,451.44Z" transform="translate(-21.24 -8.14)"/><path d="M922.92,475.73a14.05,14.05,0,0,0-.32,3.24c0.13,2.21,1.32,3.65,5.24,3.42s8.91-6.16,12.74-9.6l3.41-.2c-4.35,4.89-14.92,18.9-22.75,19.35s-12.65-2.69-13.08-10.22a24.46,24.46,0,0,1,.31-5.16l2.77-18.29a12.26,12.26,0,0,0,.15-2.63c-0.21-3.62-2.25-5.81-5-5.66a10.16,10.16,0,0,0-6.1,2.47L894,493.52l-14.46.84,10.6-69.12,14.74-2.87-4,25.72c3.95-3.15,8.43-5.83,12.74-6.08,5.42-.31,11.88,5.15,12.27,11.88a9.77,9.77,0,0,1-.06,2.42Z" transform="translate(-21.24 -8.14)"/><path d="M968.83,452.62a3.9,3.9,0,0,0,3,.74c4.72-.27,6.63-3.81,10.26-5.53l0.52,2.09a28,28,0,0,1-13.65,9.66c-0.74,20.29-11.11,30.87-21.15,31.45-10.74.62-15.62-3.63-16.32-15.58-1.43-24.7,10.5-36.07,24.36-36.87C965.36,438,968.2,445.3,968.83,452.62ZM961.56,461c-2.91.17-4.34-1.86-4.48-4.27-0.17-2.91,1.36-6.12,4-7.28-0.49-3.29-1.71-5.14-4.52-5-9.44.55-12.27,21.26-11.8,29.29,0.35,6,3.25,7.47,7.17,7.24C958.06,480.64,960.92,470.81,961.56,461Z" transform="translate(-21.24 -8.14)"/><path d="M997.59,417l-8.4,54.89a18.19,18.19,0,0,0-.32,3.24c0.13,2.21,1.32,3.65,5.24,3.42s8.91-6.16,12.74-9.6l3.41-.2c-4.35,4.89-14.92,18.9-22.75,19.35s-12.65-2.69-13.08-10.22a25.23,25.23,0,0,1,.31-5.16l8.12-52.85Z" transform="translate(-21.24 -8.14)"/><path d="M1022.33,478.83c4.92-.29,13-6.6,16.1-14.23l4.52-.26c-5.12,10.67-14.17,21.37-27.13,22.12-9.64.56-15.29-6.47-15.79-15.1-0.74-12.75,3.39-35.46,21.66-36.51,8.23-.48,13,2.67,13.46,9.7,0.71,12.25-12,20-21.5,21.8a36.5,36.5,0,0,0-.05,4.33C1014,477.3,1018.41,479.06,1022.33,478.83Zm3-38.86c-5.62.33-9.58,11.94-11.14,21.5,9.23-.64,15.3-8.95,15-16.08C1029,443.29,1028.33,439.8,1025.32,440Z" transform="translate(-21.24 -8.14)"/><path d="M1057.49,433.68l-0.81,5.08c3.45-3,7.34-5.46,11.56-5.71,4.52-.26,7.38,2.19,7.6,6,0.2,3.51-2.16,8-7.08,8.27-5.62.33-3.2-6.46-6.21-6.29s-4.55,1.37-6.74,3.61l-6.05,39.84-14.46.84,7.73-50.82Z" transform="translate(-21.24 -8.14)"/><path d="M1114.89,464.61a14.1,14.1,0,0,0-.3,3.44c0.12,2.11,1,3.67,3.83,3.5a8.07,8.07,0,0,0,2.59-.45c-2.31,8.8-6.49,9.64-9.91,9.84-5.82.34-9.11-2.49-10.38-7.05-2.77,4.29-7.05,8.67-13.18,9-9.64.56-12.85-6.11-13.19-12-1-17.27,4-38.31,24.11-39.48a10.92,10.92,0,0,1,6.87,2.12l0.45-2.64,14.36-.83Zm-10.28-26.1a7.5,7.5,0,0,0-5-1.52c-7.53.44-12.63,16.75-11.84,30.4,0.35,6,3.73,6.94,6.24,6.79,2.31-.13,4.38-2.57,6.23-5.5a12.55,12.55,0,0,1,.32-3.24Z" transform="translate(-21.24 -8.14)"/><path d="M1131.11,423.15H1131l-4.37,2.7-0.83-2.63,5.49-3.36,3-.17,1.5,25.94-3.39.2Z" transform="translate(-21.24 -8.14)"/></g><path class="cls-3" d="M332,511.42c4.92-.29,13-6.6,16.1-14.23l4.52-.26c-5.12,10.67-14.17,21.37-27.13,22.12-9.64.56-15.28-6.47-15.78-15.1-0.74-12.75,3.38-35.45,21.66-36.51,8.23-.48,13,2.67,13.46,9.7,0.71,12.25-12,20-21.5,21.8a36.09,36.09,0,0,0-.05,4.33C323.64,509.89,328.08,511.65,332,511.42Zm3-38.86c-5.62.33-9.58,11.94-11.15,21.5,9.23-.64,15.3-8.95,15-16.08C338.7,475.88,338,472.39,335,472.57Z" transform="translate(-21.24 -8.14)"/><path class="cls-3" d="M388.31,499.3a12.55,12.55,0,0,0-.32,3.24c0.13,2.21,1.32,3.65,5.24,3.42s5.34-3.43,9.17-6.88l3.41-.2c-4.35,4.89-11.35,16.17-19.18,16.63s-12.65-2.69-13.08-10.22a24.39,24.39,0,0,1,.31-5.16l2.77-18.29a12.26,12.26,0,0,0,.15-2.63c-0.21-3.62-2.25-5.81-5-5.66a10.67,10.67,0,0,0-6.2,2.47l-6.18,41.06-14.46.84,7.73-50.82,14.46-.84-0.89,5.49c3.94-3.25,8.42-5.93,12.84-6.18,5.42-.31,11.88,5.15,12.27,11.88a9.82,9.82,0,0,1-.06,2.42Z" transform="translate(-21.24 -8.14)"/><path class="cls-3" d="M445.71,441.57l-8.3,54.88a19.31,19.31,0,0,0-.32,3.24c0.13,2.21,1.32,3.65,5.24,3.42s8.91-6.16,12.74-9.6l3.41-.2c-4.35,4.89-14.92,18.9-22.75,19.35-6.53.38-11-1.78-12.59-6.93-2.77,4.29-7.05,8.67-13.18,9-9.64.56-12.84-6.11-13.19-12-1-17.27,4-38.31,24.11-39.48a10.93,10.93,0,0,1,6.87,2.12L431,444.44Zm-35.54,57.67c0.35,6,3.73,6.94,6.24,6.79,2.31-.13,4.39-2.47,6.13-5.39a23.23,23.23,0,0,1,.41-3.35L427,470.36a7.5,7.5,0,0,0-5-1.52C414.47,469.27,409.37,485.58,410.16,499.24Z" transform="translate(-21.24 -8.14)"/><path class="cls-3" d="M467.84,503.55c4.92-.28,13-6.6,16.1-14.23l4.52-.26c-5.12,10.67-14.18,21.37-27.13,22.12-9.64.56-15.28-6.47-15.78-15.1-0.74-12.75,3.39-35.46,21.66-36.51,8.23-.48,13,2.67,13.46,9.7,0.71,12.25-12,20-21.5,21.8a36.07,36.07,0,0,0,0,4.33C459.49,502,463.92,503.78,467.84,503.55Zm3-38.86c-5.62.33-9.58,11.94-11.15,21.5,9.23-.64,15.3-8.95,15-16.08C474.54,468,473.84,464.52,470.82,464.7Z" transform="translate(-21.24 -8.14)"/><path class="cls-3" d="M548.75,490a15.81,15.81,0,0,0-.29,3.75c0.13,2.31,1.14,4.06,4.35,3.88,4-.23,7.89-6.4,10-10.85l4.72-.27c-4.3,5.69-12.58,19.26-20.42,19.72S534.42,503.53,534,496a24.45,24.45,0,0,1,.31-5.16l2.77-18.29a12.26,12.26,0,0,0,.15-2.63c-0.21-3.62-2.25-5.81-5-5.66a10.25,10.25,0,0,0-5.72,2.14,14.19,14.19,0,0,1,.71,3.49,15,15,0,0,1-.08,2.12l-5.39,35.67-14.56.84L512.46,474a12.26,12.26,0,0,0,.15-2.63c-0.21-3.62-2.25-5.81-5-5.66a9.88,9.88,0,0,0-6,2.46l-6.28,41.06-14.46.84,7.73-50.82,14.46-.84-0.8,5.38c3.85-3.14,8.33-5.82,12.64-6.07,3.71-.21,7.89,2.26,10.32,6.05,4.21-3.77,9.35-7.19,14.27-7.48,5.52-.32,11.88,5.15,12.28,12a17.9,17.9,0,0,1-.07,2.32Z" transform="translate(-21.24 -8.14)"/><path class="cls-3" d="M577.9,454.06l-5.25,34.55a18.93,18.93,0,0,0-.22,3.14c0.13,2.21,1.23,3.76,5.24,3.52s8.91-6.16,12.74-9.6l3.42-.2c-4.35,4.89-14.92,18.9-22.75,19.35s-12.75-2.69-13.18-10.22a25.23,25.23,0,0,1,.31-5.16l5.25-34.55ZM572,433a8.07,8.07,0,0,1,8.5,7.57A8,8,0,0,1,573,449a7.9,7.9,0,0,1-8.39-7.47A8,8,0,0,1,572,433Z" transform="translate(-21.24 -8.14)"/><path class="cls-3" d="M584.67,487.52c-0.85-14.66,4.35-34.4,23.83-35.53,5.42-.31,11.13.77,11.45,6.29a10.23,10.23,0,0,1-.31,3.34l-5.72.33a11.11,11.11,0,0,0,.34-2.84c-0.14-2.41-1.7-3.33-3.91-3.2-8.43.49-12.91,17.17-12.28,28,0.29,4.92,1.73,10.68,7.85,10.32,5.42-.31,10-3.1,13.71-6.74,0.51,8.74-6.59,14.89-19.24,15.62C592.05,503.61,585.36,499.37,584.67,487.52Z" transform="translate(-21.24 -8.14)"/><path class="cls-3" d="M708.22,453.56c0.91,15.66-5.43,43.63-25.71,44.81-6.83.4-11.4-2-12.73-7.62-4.47,4.59-9.66,8.92-13.87,9.17-7.73.45-12.75-2.69-13.18-10.22a25.15,25.15,0,0,1,.31-5.16L648.28,450l14.46-.84-5.25,34.55a18.94,18.94,0,0,0-.22,3.14c0.13,2.21,1.23,3.76,5.24,3.52,2.11-.12,4.53-1.77,6.82-3.92a14.79,14.79,0,0,1,.3-3.44l5.25-34.55,14.46-.84-5.25,34.55a18.2,18.2,0,0,0-.29,3.75c0.11,1.91,1.09,3.16,4,3,9.84-.57,15.29-22.95,14.66-33.89a7.81,7.81,0,0,1-2.08.52c-2.91.17-4.38-2.57-4.54-5.38-0.12-2.11,2.12-5.06,5.44-5.25C705.59,444.65,707.92,448.34,708.22,453.56Z" transform="translate(-21.24 -8.14)"/><path class="cls-3" d="M731,445.19l-5.25,34.55a18.93,18.93,0,0,0-.22,3.14c0.13,2.21,1.23,3.76,5.24,3.52s8.91-6.16,12.74-9.6l3.41-.2c-4.35,4.89-14.92,18.9-22.75,19.35s-12.75-2.69-13.18-10.22a25.16,25.16,0,0,1,.31-5.16L716.55,446Zm-5.85-21a8.07,8.07,0,0,1,8.5,7.57,8,8,0,0,1-7.57,8.4,7.9,7.9,0,0,1-8.39-7.47A8,8,0,0,1,725.16,424.17Z" transform="translate(-21.24 -8.14)"/><path class="cls-3" d="M761.72,427.49s-1.11,6.92-2.49,16.06l6-.35-0.57,4.06-6,.35c-5.09,32.13-4.93,33.13-4.9,33.63,0.13,2.31,1.23,3.76,5.24,3.53s8.91-6.16,12.74-9.6l3.41-.2c-4.35,4.89-14.92,18.9-22.75,19.35s-12.65-2.69-13.08-10.22c-0.31-5.32,3.68-26.91,4.89-35.64l-3.31.19,0.57-4.06,3.31-.19,2.21-14Z" transform="translate(-21.24 -8.14)"/><path class="cls-3" d="M804.5,491.3c-7.13.41-10.52-4.12-10.88-10.45a22.16,22.16,0,0,1,.31-5.06l2.77-18.29a16.46,16.46,0,0,0,.07-2.32c-0.19-3.21-1.76-6.14-4.88-6a9.94,9.94,0,0,0-6.2,2.57l-6.29,41-14.46.84,10.6-69.12,14.74-2.87-3.94,25.82c3.94-3.25,8.42-5.93,12.84-6.18,5.62-.33,11.9,5.46,12.29,12.08a8.23,8.23,0,0,1-.07,2.22l-3,19.42a19.9,19.9,0,0,0-.56,4.16c0.1,1.71,1,3,4,2.79a8,8,0,0,0,2.59-.45C812.1,490.26,807.92,491.1,804.5,491.3Z" transform="translate(-21.24 -8.14)"/><path class="cls-3" d="M867.37,444.44c-0.14-2.41-1.7-3.33-3.91-3.2-8.43.49-12.91,17.17-12.28,28,0.34,5.92,1.83,10.67,8,10.32,7.13-.41,12.61-5,16.92-10.45l3.41-.2c-4.5,5.7-9.2,18.56-27,19.59-8.33.48-14-3.82-14.71-15.67-0.85-14.66,4.35-34.4,23.83-35.53,5.42-.31,11.13.77,11.45,6.29a10.28,10.28,0,0,1-.31,3.34,4.8,4.8,0,0,0-2.55-.46,11.1,11.1,0,0,0-3.18.79A11.12,11.12,0,0,0,867.37,444.44Z" transform="translate(-21.24 -8.14)"/><path class="cls-3" d="M915.92,468.73a14.05,14.05,0,0,0-.32,3.24c0.13,2.21,1.32,3.65,5.24,3.42s8.91-6.16,12.74-9.6l3.41-.2c-4.35,4.89-14.92,18.9-22.75,19.35s-12.65-2.69-13.08-10.22a24.46,24.46,0,0,1,.31-5.16l2.77-18.29a12.26,12.26,0,0,0,.15-2.63c-0.21-3.62-2.25-5.81-5-5.66a10.16,10.16,0,0,0-6.1,2.47L887,486.52l-14.46.84,10.6-69.12,14.74-2.87-4,25.72c3.95-3.15,8.43-5.83,12.74-6.08,5.42-.31,11.88,5.15,12.27,11.88a9.77,9.77,0,0,1-.06,2.42Z" transform="translate(-21.24 -8.14)"/><path class="cls-3" d="M961.83,445.62a3.9,3.9,0,0,0,3,.74c4.72-.27,6.63-3.81,10.26-5.53l0.52,2.09a28,28,0,0,1-13.65,9.66c-0.74,20.29-11.11,30.87-21.15,31.45-10.74.62-15.62-3.63-16.32-15.58-1.43-24.7,10.5-36.07,24.36-36.87C958.36,431,961.2,438.3,961.83,445.62ZM954.56,454c-2.91.17-4.34-1.86-4.48-4.27-0.17-2.91,1.36-6.12,4-7.28-0.49-3.29-1.71-5.14-4.52-5-9.44.55-12.27,21.26-11.8,29.29,0.35,6,3.25,7.47,7.17,7.24C951.06,473.64,953.92,463.81,954.56,454Z" transform="translate(-21.24 -8.14)"/><path class="cls-3" d="M990.59,410l-8.4,54.89a18.19,18.19,0,0,0-.32,3.24c0.13,2.21,1.32,3.65,5.24,3.42s8.91-6.16,12.74-9.6l3.41-.2c-4.35,4.89-14.92,18.9-22.75,19.35s-12.65-2.69-13.08-10.22a25.23,25.23,0,0,1,.31-5.16l8.12-52.85Z" transform="translate(-21.24 -8.14)"/><path class="cls-3" d="M1015.33,471.83c4.92-.29,13-6.6,16.1-14.23l4.52-.26c-5.12,10.67-14.17,21.37-27.13,22.12-9.64.56-15.29-6.47-15.79-15.1-0.74-12.75,3.39-35.46,21.66-36.51,8.23-.48,13,2.67,13.46,9.7,0.71,12.25-12,20-21.5,21.8a36.5,36.5,0,0,0-.05,4.33C1007,470.3,1011.41,472.06,1015.33,471.83Zm3-38.86c-5.62.33-9.58,11.94-11.14,21.5,9.23-.64,15.3-8.95,15-16.08C1022,436.29,1021.33,432.8,1018.32,433Z" transform="translate(-21.24 -8.14)"/><path class="cls-3" d="M1050.49,426.68l-0.81,5.08c3.45-3,7.34-5.46,11.56-5.71,4.52-.26,7.38,2.19,7.6,6,0.2,3.51-2.16,8-7.08,8.27-5.62.33-3.2-6.46-6.21-6.29s-4.55,1.37-6.74,3.61l-6.05,39.84-14.46.84,7.73-50.82Z" transform="translate(-21.24 -8.14)"/><path class="cls-3" d="M1107.89,457.61a14.1,14.1,0,0,0-.3,3.44c0.12,2.11,1,3.67,3.83,3.5a8.07,8.07,0,0,0,2.59-.45c-2.31,8.8-6.49,9.64-9.91,9.84-5.82.34-9.11-2.49-10.38-7.05-2.77,4.29-7.05,8.67-13.18,9-9.64.56-12.85-6.11-13.19-12-1-17.27,4-38.31,24.11-39.48a10.92,10.92,0,0,1,6.87,2.12l0.45-2.64,14.36-.83Zm-10.28-26.1a7.5,7.5,0,0,0-5-1.52c-7.53.44-12.63,16.75-11.84,30.4,0.35,6,3.73,6.94,6.24,6.79,2.31-.13,4.38-2.57,6.23-5.5a12.55,12.55,0,0,1,.32-3.24Z" transform="translate(-21.24 -8.14)"/><path class="cls-3" d="M1124.11,416.15H1124l-4.37,2.7-0.83-2.63,5.49-3.36,3-.17,1.5,25.94-3.39.2Z" transform="translate(-21.24 -8.14)"/></g></g></svg>