<svg id="Layer_1" data-name="Layer 1" xmlns="http://www.w3.org/2000/svg" viewBox="0 0 553.18 270.86"><defs><style>.cls-1{fill:none;stroke:#eb8b2e;stroke-miterlimit:10;stroke-width:10px;}.cls-2{fill:#fff;}.cls-3{fill:#b4b3b3;}.cls-4{fill:#fdc500;}.cls-5{fill:#464f55;}</style></defs><title>reaction</title><path class="cls-1" d="M391.65,210v-7c0-25.56,23.09-23.09,23.09-23.09h45.07s23.09-2.47,23.09,23.09v7" transform="translate(-13 -42.8)"/><line class="cls-1" x1="423.86" y1="137.1" x2="423.86" y2="122.3"/><polygon class="cls-2" points="426.28 131.84 421.11 131.84 423.7 138.94 426.28 131.84"/><polygon class="cls-2" points="426.28 126.46 421.11 126.46 423.7 133.57 426.28 126.46"/><polygon class="cls-2" points="471.5 155.72 466.33 155.72 468.91 162.82 471.5 155.72"/><polygon class="cls-2" points="471.5 150.35 466.33 150.35 468.91 157.45 471.5 150.35"/><polygon class="cls-2" points="381.24 155.72 376.07 155.72 378.65 162.82 381.24 155.72"/><polygon class="cls-2" points="381.24 150.35 376.07 150.35 378.65 157.45 381.24 150.35"/><line class="cls-1" x1="423.86" y1="104.47" x2="423.86" y2="58.86"/><polygon class="cls-2" points="427.01 81.14 421.84 81.14 424.42 88.25 427.01 81.14"/><polygon class="cls-2" points="427.01 75.77 421.84 75.77 424.42 82.87 427.01 75.77"/><path class="cls-1" d="M349.6,54.93h64S436.69,52.47,436.69,78v7" transform="translate(-13 -42.8)"/><polygon class="cls-2" points="375.61 9.55 375.61 14.72 382.72 12.13 375.61 9.55"/><polygon class="cls-2" points="370.24 9.55 370.24 14.72 377.35 12.13 370.24 9.55"/><path class="cls-1" d="M188.79,210v-7c0-25.56-23.09-23.09-23.09-23.09H120.63S97.53,177.44,97.53,203v7" transform="translate(-13 -42.8)"/><line class="cls-1" x1="130.58" y1="137.1" x2="130.58" y2="122.3"/><polygon class="cls-2" points="128.16 131.84 133.33 131.84 130.75 138.94 128.16 131.84"/><polygon class="cls-2" points="128.16 126.46 133.33 126.46 130.75 133.57 128.16 126.46"/><polygon class="cls-2" points="82.95 155.72 88.12 155.72 85.53 162.82 82.95 155.72"/><polygon class="cls-2" points="82.95 150.35 88.12 150.35 85.53 157.45 82.95 150.35"/><polygon class="cls-2" points="173.21 155.72 178.38 155.72 175.79 162.82 173.21 155.72"/><polygon class="cls-2" points="173.21 150.35 178.38 150.35 175.79 157.45 173.21 150.35"/><line class="cls-1" x1="130.58" y1="104.47" x2="130.58" y2="58.86"/><polygon class="cls-2" points="127.89 81.14 133.06 81.14 130.47 88.25 127.89 81.14"/><polygon class="cls-2" points="127.89 75.77 133.06 75.77 130.47 82.87 127.89 75.77"/><path class="cls-1" d="M230.84,54.93h-64S143.75,52.47,143.75,78v7" transform="translate(-13 -42.8)"/><polygon class="cls-2" points="178.84 9.55 178.84 14.72 171.73 12.13 178.84 9.55"/><polygon class="cls-2" points="184.21 9.55 184.21 14.72 177.1 12.13 184.21 9.55"/><rect class="cls-3" x="215.8" width="122.29" height="24.26" rx="5.67" ry="5.67"/><path class="cls-4" d="M290.81,301.26c0,6.85-5,12.4-11.19,12.4H148.1c-6.18,0-11.19-5.55-11.19-12.4V222.74c0-6.85,5-12.4,11.19-12.4H279.61c6.18,0,11.19,5.55,11.19,12.4v78.52Z" transform="translate(-13 -42.8)"/><path class="cls-5" d="M245.93,50h1.19v9h-1.19V50Z" transform="translate(-13 -42.8)"/><path class="cls-5" d="M248.94,52.92h1v0.81h0a2,2,0,0,1,1.76-1A1.91,1.91,0,0,1,253.9,55v4h-1V55.07a1.15,1.15,0,0,0-1.27-1.35A1.51,1.51,0,0,0,250,55.31v3.63h-1v-6Z" transform="translate(-13 -42.8)"/><path class="cls-5" d="M255.77,53.8h-1V52.92h1V51.85c0-1.32.52-1.88,1.68-1.88a3.62,3.62,0,0,1,.66.08v0.78a3.23,3.23,0,0,0-.57-0.05,0.69,0.69,0,0,0-.73.84v1.3h1.12V53.8h-1.12v5.14h-1V53.8Z" transform="translate(-13 -42.8)"/><path class="cls-5" d="M263.94,58.94h-1V58.13h0a2,2,0,0,1-1.76,1A1.91,1.91,0,0,1,259,56.89v-4h1v4a1.15,1.15,0,0,0,1.27,1.25,1.51,1.51,0,0,0,1.61-1.59V52.92h1v6Z" transform="translate(-13 -42.8)"/><path class="cls-5" d="M266.23,56.82a1.47,1.47,0,0,0,1.71,1.46,1.15,1.15,0,0,0,1.35-1c0-1.5-3.93-.38-3.93-2.73,0-1.22,1.2-1.75,2.27-1.75,0.82,0,2.58.42,2.58,2l-1,.14a1.33,1.33,0,0,0-1.5-1.3,1.06,1.06,0,0,0-1.29.9c0,1.36,4,.39,4,2.77,0,1.27-1.3,1.85-2.61,1.85A2.38,2.38,0,0,1,265.12,57Z" transform="translate(-13 -42.8)"/><path class="cls-5" d="M271.56,50h1v1.19h-1V50Zm0,2.95h1v6h-1v-6Z" transform="translate(-13 -42.8)"/><path class="cls-5" d="M276.74,52.77a3.17,3.17,0,1,1-2.95,3.16A2.89,2.89,0,0,1,276.74,52.77Zm0,5.52c1.49,0,1.84-1.36,1.84-2.36s-0.35-2.36-1.84-2.36-1.84,1.36-1.84,2.36S275.25,58.29,276.74,58.29Z" transform="translate(-13 -42.8)"/><path class="cls-5" d="M280.91,52.92h1v0.81h0a2,2,0,0,1,1.76-1A1.91,1.91,0,0,1,285.86,55v4h-1V55.07a1.15,1.15,0,0,0-1.27-1.35,1.51,1.51,0,0,0-1.61,1.59v3.63h-1v-6Z" transform="translate(-13 -42.8)"/><path class="cls-5" d="M291.05,50h4.06c1.41,0,2.89.54,2.89,2.58a2.32,2.32,0,0,1-2.08,2.51l2.47,3.88H297l-2.42-3.81h-2.29v3.81h-1.19V50Zm1.19,4.13h2.68c1.11,0,1.89-.35,1.89-1.55S296,51,294.92,51h-2.68v3.1Z" transform="translate(-13 -42.8)"/><path class="cls-5" d="M300.1,56.16a1.87,1.87,0,0,0,1.81,2.13,1.6,1.6,0,0,0,1.69-1.35l1,0.13a2.67,2.67,0,0,1-2.75,2A2.84,2.84,0,0,1,299,56c0-2,.92-3.21,2.87-3.21s2.81,1.37,2.81,3.15v0.24H300.1Zm3.47-.81a1.79,1.79,0,0,0-1.82-1.78,1.73,1.73,0,0,0-1.65,1.78h3.47Z" transform="translate(-13 -42.8)"/><path class="cls-5" d="M309.43,54.79c0-.86-0.38-1.22-1.41-1.22a1.12,1.12,0,0,0-1.23,1.23l-1-.06a2,2,0,0,1,2.28-2c1,0,2.43.28,2.43,1.87v2.8c0,0.59.23,0.68,0.44,0.68a0.88,0.88,0,0,0,.32-0.06V58.9a2.74,2.74,0,0,1-.64.09,0.94,0.94,0,0,1-1-.83,2.77,2.77,0,0,1-2.14.93,1.8,1.8,0,0,1-1.93-1.66c0-1.66,1.49-2,4-2.1V54.79Zm0,1.21c-1.69.24-2.86,0.43-2.86,1.36a1,1,0,0,0,1.16.92,1.56,1.56,0,0,0,1.7-1.59V56Z" transform="translate(-13 -42.8)"/><path class="cls-5" d="M316.42,54.91a1.56,1.56,0,0,0-1.6-1.34c-1.46,0-1.88,1.27-1.88,2.37s0.49,2.34,1.85,2.34a1.59,1.59,0,0,0,1.73-1.63l1.11,0.09a2.62,2.62,0,0,1-2.8,2.34,2.82,2.82,0,0,1-3-3.1c0-1.87,1-3.23,3-3.23a2.59,2.59,0,0,1,2.71,2Z" transform="translate(-13 -42.8)"/><path class="cls-5" d="M318,52.92h1V51h1v1.88h1.12V53.8h-1.12v3.83c0,0.29,0,.58.42,0.58a1.88,1.88,0,0,0,.64-0.13V59a4.71,4.71,0,0,1-1,.13c-1.07,0-1.07-.5-1.07-1.19V53.8h-1V52.92Z" transform="translate(-13 -42.8)"/><path class="cls-5" d="M322.21,50h1v1.19h-1V50Zm0,2.95h1v6h-1v-6Z" transform="translate(-13 -42.8)"/><path class="cls-5" d="M327.39,52.77a3.17,3.17,0,1,1-2.95,3.16A2.89,2.89,0,0,1,327.39,52.77Zm0,5.52c1.49,0,1.84-1.36,1.84-2.36s-0.35-2.36-1.84-2.36-1.84,1.36-1.84,2.36S325.9,58.29,327.39,58.29Z" transform="translate(-13 -42.8)"/><path class="cls-5" d="M331.56,52.92h1v0.81h0a2,2,0,0,1,1.76-1A1.91,1.91,0,0,1,336.52,55v4h-1V55.07a1.15,1.15,0,0,0-1.27-1.35,1.51,1.51,0,0,0-1.61,1.59v3.63h-1v-6Z" transform="translate(-13 -42.8)"/><path class="cls-2" d="M404.32,88.25l3.48,9h-0.92l-1-2.7h-3.95l-1.07,2.7H400l3.66-9h0.69Zm1.27,5.57-1.66-4.42-1.71,4.42h3.38Z" transform="translate(-13 -42.8)"/><path class="cls-2" d="M409.22,91.8h-1.32V91.17h1.32V89.26A1.23,1.23,0,0,1,410.7,88a1.73,1.73,0,0,1,.67.13v0.72a1.37,1.37,0,0,0-.69-0.14c-0.52,0-.71.29-0.71,0.9v1.55h1.32V91.8H410v5.42h-0.76V91.8Z" transform="translate(-13 -42.8)"/><path class="cls-2" d="M411.56,91.17h1.24V88.59h0.76v2.58h1.31V91.8h-1.31v4c0,0.45,0,.87.44,0.87a1.42,1.42,0,0,0,.83-0.3v0.76a2.46,2.46,0,0,1-1,.25,1,1,0,0,1-1-1.07V91.8h-1.24V91.17Z" transform="translate(-13 -42.8)"/><path class="cls-2" d="M416.23,94.17v0.16c0,1.35.59,2.33,1.94,2.33a2,2,0,0,0,2-1.29l0.71,0.19a2.78,2.78,0,0,1-2.73,1.8c-1.51,0-2.74-1.11-2.74-3.18S416.6,91,418.11,91c1.79,0,2.67,1.36,2.73,3.15h-4.61Zm3.76-.63a1.88,1.88,0,0,0-3.76,0H420Z" transform="translate(-13 -42.8)"/><path class="cls-2" d="M422.17,91.17h0.76V92h0a1.82,1.82,0,0,1,1.64-1l0.54,0V91.7a2.36,2.36,0,0,0-.5-0.05c-1.17,0-1.7.86-1.7,2.09v3.48h-0.76v-6Z" transform="translate(-13 -42.8)"/><path class="cls-2" d="M428.92,94.27l3.92-6h0.83v6h1.42V95h-1.42v2.24h-0.76V95h-4V94.27Zm0.86,0h3.14V89.55h0Z" transform="translate(-13 -42.8)"/><path class="cls-2" d="M441.89,90.45a2,2,0,0,1-1.52,1.93v0a2.45,2.45,0,0,1,1.78,2.26c0,1.8-1.3,2.71-3.14,2.71-1.37,0-3.14-.69-3.14-2.71a2.37,2.37,0,0,1,1.78-2.26v0a2,2,0,0,1-1.53-1.93c0-.71.37-2.36,2.89-2.36S441.89,89.75,441.89,90.45Zm-5.17,4.32a2.32,2.32,0,0,0,4.56,0c0-1.16-.79-2-2.28-2S436.72,93.62,436.72,94.78ZM441,90.44c0-.6-0.34-1.64-2-1.64-1.54,0-2,.87-2,1.64A2.07,2.07,0,0,0,441,90.44Z" transform="translate(-13 -42.8)"/><path class="cls-2" d="M447,88.25h0.86v4h5.37v-4h0.86v9h-0.86V93h-5.37v4.23H447v-9Z" transform="translate(-13 -42.8)"/><path class="cls-2" d="M458.26,91c1.51,0,2.73,1.11,2.73,3.18s-1.22,3.18-2.73,3.18-2.74-1.11-2.74-3.18S456.74,91,458.26,91Zm-2,3.18c0,1.56.86,2.47,2,2.47s2-.91,2-2.47-0.86-2.47-2-2.47S456.28,92.65,456.28,94.2Z" transform="translate(-13 -42.8)"/><path class="cls-2" d="M466.16,96.34h0a2.11,2.11,0,0,1-3.93-1.07v-4.1H463V95c0,1.22.52,1.63,1.48,1.63a1.73,1.73,0,0,0,1.73-2V91.17h0.76v6h-0.76V96.34Z" transform="translate(-13 -42.8)"/><path class="cls-2" d="M468.61,91.17h0.76V92h0A1.82,1.82,0,0,1,471,91l0.54,0V91.7a2.36,2.36,0,0,0-.5-0.05c-1.17,0-1.7.86-1.7,2.09v3.48h-0.76v-6Z" transform="translate(-13 -42.8)"/><path class="cls-2" d="M472.48,95.55a1.61,1.61,0,0,0,1.75,1.2,1.28,1.28,0,0,0,1.47-1.24c0-1.8-3.58-.42-3.58-2.82A1.8,1.8,0,0,1,474.19,91c1.19,0,2,.35,2.28,1.37l-0.72.18a1.29,1.29,0,0,0-1.45-.92c-1.13,0-1.42.45-1.42,1.06,0,1.56,3.58.39,3.58,2.82,0,1-.83,1.84-2.34,1.84a2.31,2.31,0,0,1-2.37-1.6Z" transform="translate(-13 -42.8)"/><path class="cls-2" d="M101.18,88.25h0.89l2.08,7.46h0l2.16-7.46H107l2.22,7.41h0l2-7.41h0.88l-2.56,9h-0.69L106.64,90h0l-2.08,7.23h-0.67Z" transform="translate(-13 -42.8)"/><path class="cls-2" d="M112.9,88.68h0.76v1.18H112.9V88.68Zm0,2.5h0.76v6H112.9v-6Z" transform="translate(-13 -42.8)"/><path class="cls-2" d="M114.55,91.17h1.24V88.59h0.76v2.58h1.31V91.8h-1.31v4c0,0.45,0,.87.44,0.87a1.42,1.42,0,0,0,.83-0.3v0.76a2.46,2.46,0,0,1-1,.25,1,1,0,0,1-1-1.07V91.8h-1.24V91.17Z" transform="translate(-13 -42.8)"/><path class="cls-2" d="M118.75,88.25h0.76v3.82h0a2.11,2.11,0,0,1,3.93,1.06v4.1H122.7V93.35c0-1.22-.52-1.63-1.47-1.63a1.73,1.73,0,0,0-1.73,2v3.53h-0.76v-9Z" transform="translate(-13 -42.8)"/><path class="cls-2" d="M125,88.68h0.76v1.18H125V88.68Zm0,2.5h0.76v6H125v-6Z" transform="translate(-13 -42.8)"/><path class="cls-2" d="M127.39,91.17h0.76v0.88h0a2.11,2.11,0,0,1,3.93,1.07v4.1h-0.76V93.35c0-1.22-.52-1.63-1.47-1.63a1.73,1.73,0,0,0-1.73,2v3.53h-0.76v-6Z" transform="translate(-13 -42.8)"/><path class="cls-2" d="M136.83,94.27l3.92-6h0.83v6H143V95h-1.42v2.24h-0.76V95h-4V94.27Zm0.86,0h3.14V89.55h0Z" transform="translate(-13 -42.8)"/><path class="cls-2" d="M149.79,90.45a2,2,0,0,1-1.52,1.93v0A2.45,2.45,0,0,1,150,94.66c0,1.8-1.3,2.71-3.14,2.71-1.37,0-3.14-.69-3.14-2.71a2.37,2.37,0,0,1,1.78-2.26v0A2,2,0,0,1,144,90.45c0-.71.37-2.36,2.89-2.36S149.79,89.75,149.79,90.45Zm-5.17,4.32a2.32,2.32,0,0,0,4.56,0c0-1.16-.79-2-2.28-2S144.63,93.62,144.63,94.78Zm4.31-4.34c0-.6-0.34-1.64-2-1.64-1.54,0-2,.87-2,1.64A2.07,2.07,0,0,0,148.94,90.44Z" transform="translate(-13 -42.8)"/><path class="cls-2" d="M154.92,88.25h0.86v4h5.37v-4H162v9h-0.86V93h-5.37v4.23h-0.86v-9Z" transform="translate(-13 -42.8)"/><path class="cls-2" d="M166.16,91c1.51,0,2.73,1.11,2.73,3.18s-1.22,3.18-2.73,3.18-2.74-1.11-2.74-3.18S164.65,91,166.16,91Zm-2,3.18c0,1.56.86,2.47,2,2.47s2-.91,2-2.47-0.86-2.47-2-2.47S164.18,92.65,164.18,94.2Z" transform="translate(-13 -42.8)"/><path class="cls-2" d="M174.06,96.34h0a2.11,2.11,0,0,1-3.93-1.07v-4.1h0.76V95c0,1.22.52,1.63,1.47,1.63a1.73,1.73,0,0,0,1.73-2V91.17h0.76v6h-0.76V96.34Z" transform="translate(-13 -42.8)"/><path class="cls-2" d="M176.52,91.17h0.76V92h0a1.82,1.82,0,0,1,1.64-1l0.54,0V91.7a2.36,2.36,0,0,0-.5-0.05c-1.17,0-1.7.86-1.7,2.09v3.48h-0.76v-6Z" transform="translate(-13 -42.8)"/><path class="cls-2" d="M180.38,95.55a1.61,1.61,0,0,0,1.75,1.2,1.28,1.28,0,0,0,1.47-1.24c0-1.8-3.58-.42-3.58-2.82A1.8,1.8,0,0,1,182.1,91c1.19,0,2,.35,2.28,1.37l-0.72.18a1.29,1.29,0,0,0-1.45-.92c-1.13,0-1.42.45-1.42,1.06,0,1.56,3.58.39,3.58,2.82,0,1-.83,1.84-2.34,1.84a2.31,2.31,0,0,1-2.37-1.6Z" transform="translate(-13 -42.8)"/><path class="cls-2" d="M13,215.12h0.89L16,222.58h0l2.16-7.46h0.63L21,222.53h0l2-7.41h0.88l-2.56,9H20.67l-2.18-7.23h0l-2.08,7.23H15.72Z" transform="translate(-13 -42.8)"/><path class="cls-2" d="M24.75,215.55h0.76v1.19H24.75v-1.19Zm0,2.5h0.76v6H24.75v-6Z" transform="translate(-13 -42.8)"/><path class="cls-2" d="M26.4,218h1.24v-2.58H28.4V218h1.31v0.63H28.4v4c0,0.45,0,.87.44,0.87a1.42,1.42,0,0,0,.83-0.3V224a2.46,2.46,0,0,1-1,.25,1,1,0,0,1-1-1.07v-4.5H26.4V218Z" transform="translate(-13 -42.8)"/><path class="cls-2" d="M30.6,215.12h0.76v3.82h0a1.9,1.9,0,0,1,1.8-1,1.91,1.91,0,0,1,2.13,2.1v4.1H34.56v-3.87c0-1.22-.52-1.63-1.47-1.63a1.73,1.73,0,0,0-1.73,2v3.53H30.6v-9Z" transform="translate(-13 -42.8)"/><path class="cls-2" d="M36.9,215.55h0.76v1.19H36.9v-1.19Zm0,2.5h0.76v6H36.9v-6Z" transform="translate(-13 -42.8)"/><path class="cls-2" d="M39.24,218H40v0.88h0A2.11,2.11,0,0,1,44,220v4.1H43.2v-3.87c0-1.22-.52-1.63-1.47-1.63a1.73,1.73,0,0,0-1.73,2v3.53H39.24v-6Z" transform="translate(-13 -42.8)"/><path class="cls-2" d="M49.1,219.11a3.59,3.59,0,0,1-.32-1.5A2.63,2.63,0,0,1,51.72,215c2,0,3.11,1.13,3.11,2.9,0,2.37-3.09,4.47-4.8,5.49v0h4.39v0.71H48.81v-0.71c1.3-1,5.17-3,5.17-5.57a2.09,2.09,0,0,0-2.21-2.14,2,2,0,0,0-2.23,2,2.37,2.37,0,0,0,.57,1.51Z" transform="translate(-13 -42.8)"/><path class="cls-2" d="M55.69,221.14l3.92-6h0.83v6h1.42v0.71H60.44v2.24H59.68v-2.24h-4v-0.71Zm0.86,0h3.14v-4.73h0Z" transform="translate(-13 -42.8)"/><path class="cls-2" d="M66.77,215.12h0.86v4H73v-4h0.86v9H73v-4.24H67.63v4.24H66.77v-9Z" transform="translate(-13 -42.8)"/><path class="cls-2" d="M78,217.89c1.51,0,2.73,1.11,2.73,3.18s-1.22,3.18-2.73,3.18-2.74-1.11-2.74-3.18S76.5,217.89,78,217.89Zm-2,3.18c0,1.56.86,2.47,2,2.47s2-.91,2-2.47-0.86-2.47-2-2.47S76,219.52,76,221.07Z" transform="translate(-13 -42.8)"/><path class="cls-2" d="M85.92,223.21h0A2.12,2.12,0,0,1,82,222.14V218h0.76v3.87c0,1.22.52,1.63,1.48,1.63a1.73,1.73,0,0,0,1.73-2V218h0.76v6H85.92v-0.88Z" transform="translate(-13 -42.8)"/><path class="cls-2" d="M88.37,218h0.76v0.84h0a1.82,1.82,0,0,1,1.64-1l0.54,0v0.66a2.4,2.4,0,0,0-.5-0.05c-1.17,0-1.7.86-1.7,2.09v3.48H88.37v-6Z" transform="translate(-13 -42.8)"/><path class="cls-2" d="M92.24,222.41a1.61,1.61,0,0,0,1.75,1.2,1.28,1.28,0,0,0,1.47-1.23c0-1.8-3.58-.42-3.58-2.82A1.8,1.8,0,0,1,94,217.89c1.19,0,2,.35,2.28,1.37l-0.72.18a1.29,1.29,0,0,0-1.45-.92c-1.13,0-1.42.45-1.42,1.06,0,1.56,3.58.39,3.58,2.82,0,1-.83,1.84-2.34,1.84a2.31,2.31,0,0,1-2.37-1.6Z" transform="translate(-13 -42.8)"/><path class="cls-2" d="M13,225.67V225H96.79v0.63H13Z" transform="translate(-13 -42.8)"/><path class="cls-2" d="M13.14,231.32h6.48v0.78H16.8v8.19H15.95V232.1H13.14v-0.78Z" transform="translate(-13 -42.8)"/><path class="cls-2" d="M19.88,234.24h0.71l1.75,5.09h0l2-5.09h0.72l-3,7.68c-0.26.69-.54,1.5-1.47,1.5a2,2,0,0,1-.81-0.23v-0.78a1.75,1.75,0,0,0,.78.3,1,1,0,0,0,.76-0.82L22,240.3Z" transform="translate(-13 -42.8)"/><path class="cls-2" d="M25.91,234.24h0.76v0.91h0a1.91,1.91,0,0,1,1.78-1.06c1.32,0,2.53,1,2.53,3.08,0,2.51-1.29,3.28-2.48,3.28a1.81,1.81,0,0,1-1.83-1h0v4H25.91v-9.18Zm2.52,0.55c-1.5,0-1.8,1.31-1.8,2.47s0.3,2.47,1.79,2.47c1.08,0,1.83-.95,1.83-2.47S29.5,234.8,28.43,234.8Z" transform="translate(-13 -42.8)"/><path class="cls-2" d="M32.69,237.24v0.16c0,1.35.59,2.33,1.94,2.33a2,2,0,0,0,2-1.29l0.71,0.19a2.78,2.78,0,0,1-2.73,1.8c-1.51,0-2.74-1.11-2.74-3.18s1.22-3.18,2.74-3.18c1.79,0,2.67,1.36,2.73,3.15H32.69Zm3.76-.63a1.88,1.88,0,0,0-3.76,0h3.76Z" transform="translate(-13 -42.8)"/><path class="cls-2" d="M43,232.69a1.4,1.4,0,0,0,1.69-1.37h0.73v9H44.71V233a3.18,3.18,0,0,1-1.66.39v-0.71Z" transform="translate(-13 -42.8)"/><path class="cls-2" d="M52.52,231.32h0.76v3.82h0a2.11,2.11,0,0,1,3.93,1.06v4.1H56.48v-3.87c0-1.22-.52-1.63-1.47-1.63a1.73,1.73,0,0,0-1.73,2v3.53H52.52v-9Z" transform="translate(-13 -42.8)"/><path class="cls-2" d="M58.16,234.24h0.71l1.75,5.09h0l2-5.09h0.72l-3,7.68c-0.26.69-.54,1.5-1.47,1.5a2,2,0,0,1-.81-0.23v-0.78a1.75,1.75,0,0,0,.78.3,1,1,0,0,0,.76-0.82l0.62-1.59Z" transform="translate(-13 -42.8)"/><path class="cls-2" d="M64.19,234.24h0.76v0.91h0a1.91,1.91,0,0,1,1.78-1.06c1.32,0,2.53,1,2.53,3.08,0,2.51-1.29,3.28-2.48,3.28a1.81,1.81,0,0,1-1.83-1h0v4H64.19v-9.18Zm2.52,0.55c-1.5,0-1.8,1.31-1.8,2.47s0.3,2.47,1.79,2.47c1.08,0,1.83-.95,1.83-2.47S67.78,234.8,66.71,234.8Z" transform="translate(-13 -42.8)"/><path class="cls-2" d="M71,237.24v0.16c0,1.35.59,2.33,1.94,2.33a2,2,0,0,0,2-1.29l0.71,0.19a2.78,2.78,0,0,1-2.73,1.8c-1.51,0-2.74-1.11-2.74-3.18s1.22-3.18,2.74-3.18c1.79,0,2.67,1.36,2.73,3.15H71Zm3.76-.63a1.88,1.88,0,0,0-3.76,0h3.76Z" transform="translate(-13 -42.8)"/><path class="cls-2" d="M76.9,234.24h0.76v0.84h0a1.82,1.82,0,0,1,1.64-1l0.54,0v0.65a2.39,2.39,0,0,0-.5,0c-1.17,0-1.7.86-1.7,2.09v3.48H76.9v-6.05Z" transform="translate(-13 -42.8)"/><path class="cls-2" d="M80.77,238.61a1.61,1.61,0,0,0,1.75,1.2A1.28,1.28,0,0,0,84,238.58c0-1.8-3.58-.42-3.58-2.82a1.8,1.8,0,0,1,2.07-1.66c1.19,0,2,.35,2.28,1.37l-0.72.18a1.29,1.29,0,0,0-1.45-.92c-1.13,0-1.42.45-1.42,1.06,0,1.56,3.58.39,3.58,2.82,0,1-.83,1.84-2.34,1.84a2.31,2.31,0,0,1-2.37-1.6Z" transform="translate(-13 -42.8)"/><path class="cls-2" d="M86.59,237.24v0.16c0,1.35.59,2.33,1.94,2.33a2,2,0,0,0,2-1.29l0.71,0.19a2.78,2.78,0,0,1-2.73,1.8c-1.51,0-2.74-1.11-2.74-3.18s1.22-3.18,2.74-3.18c1.79,0,2.67,1.36,2.73,3.15H86.59Zm3.76-.63a1.88,1.88,0,0,0-3.76,0h3.76Z" transform="translate(-13 -42.8)"/><path class="cls-2" d="M92.41,234.24h0.76v0.88h0a2.12,2.12,0,0,1,3.93,1.07v4.1H96.37v-3.87c0-1.22-.52-1.63-1.47-1.63a1.73,1.73,0,0,0-1.73,2v3.53H92.41v-6.05Z" transform="translate(-13 -42.8)"/><path class="cls-2" d="M99,238.61a1.61,1.61,0,0,0,1.75,1.2,1.28,1.28,0,0,0,1.47-1.24c0-1.8-3.58-.42-3.58-2.82a1.8,1.8,0,0,1,2.07-1.66c1.19,0,2,.35,2.28,1.37l-0.72.18a1.29,1.29,0,0,0-1.45-.92c-1.13,0-1.42.45-1.42,1.06,0,1.56,3.58.39,3.58,2.82,0,1-.83,1.84-2.34,1.84a2.31,2.31,0,0,1-2.37-1.6Z" transform="translate(-13 -42.8)"/><path class="cls-2" d="M104.31,231.75h0.76v1.18h-0.76v-1.18Zm0,2.5h0.76v6.05h-0.76v-6.05Z" transform="translate(-13 -42.8)"/><path class="cls-2" d="M106,234.24h1.24v-2.58h0.76v2.58h1.31v0.63h-1.31v4c0,0.45,0,.87.44,0.87a1.42,1.42,0,0,0,.83-0.3v0.76a2.46,2.46,0,0,1-1,.25,1,1,0,0,1-1-1.07v-4.5H106v-0.63Z" transform="translate(-13 -42.8)"/><path class="cls-2" d="M110.15,231.75h0.76v1.18h-0.76v-1.18Zm0,2.5h0.76v6.05h-0.76v-6.05Z" transform="translate(-13 -42.8)"/><path class="cls-2" d="M111.73,234.24h0.74l1.65,4.85h0l1.88-4.85h0.78l-2.41,6.05h-0.59Z" transform="translate(-13 -42.8)"/><path class="cls-2" d="M117.63,231.75h0.76v1.18h-0.76v-1.18Zm0,2.5h0.76v6.05h-0.76v-6.05Z" transform="translate(-13 -42.8)"/><path class="cls-2" d="M119.28,234.24h1.24v-2.58h0.76v2.58h1.31v0.63h-1.31v4c0,0.45,0,.87.44,0.87a1.42,1.42,0,0,0,.83-0.3v0.76a2.46,2.46,0,0,1-1,.25,1,1,0,0,1-1-1.07v-4.5h-1.24v-0.63Z" transform="translate(-13 -42.8)"/><path class="cls-2" d="M122.8,234.24h0.71l1.75,5.09h0l2-5.09H128l-3,7.68c-0.26.69-.54,1.5-1.47,1.5a2,2,0,0,1-.81-0.23v-0.78a1.75,1.75,0,0,0,.78.3,1,1,0,0,0,.76-0.82l0.62-1.59Z" transform="translate(-13 -42.8)"/><path class="cls-5" d="M152.72,222.19h1.2l4.75,7.08h0v-7.08h1.11v9h-1.19l-4.76-7.07h0v7.07h-1.11v-9Z" transform="translate(-13 -42.8)"/><path class="cls-5" d="M164.07,225a3.17,3.17,0,1,1-2.95,3.16A2.89,2.89,0,0,1,164.07,225Zm0,5.52c1.49,0,1.84-1.36,1.84-2.36s-0.35-2.36-1.84-2.36-1.84,1.36-1.84,2.36S162.59,230.51,164.07,230.51Z" transform="translate(-13 -42.8)"/><path class="cls-5" d="M168.24,225.14h1v0.81h0a2,2,0,0,1,1.76-1,1.91,1.91,0,0,1,2.13,2.21v4h-1V227.3a1.15,1.15,0,0,0-1.27-1.35,1.51,1.51,0,0,0-1.61,1.59v3.63h-1v-6Z" transform="translate(-13 -42.8)"/><path class="cls-5" d="M174.76,222.19h1v1.18h-1v-1.18Zm0,3h1v6h-1v-6Z" transform="translate(-13 -42.8)"/><path class="cls-5" d="M177.35,225.14h1v0.76h0A2.19,2.19,0,0,1,180,225a1.81,1.81,0,0,1,1.75,1,2.49,2.49,0,0,1,1.83-1c1,0,2,.43,2,2.19v4h-1v-4a1,1,0,0,0-1.06-1.18,1.36,1.36,0,0,0-1.5,1.26v4h-1v-4a1,1,0,0,0-1.06-1.18,1.36,1.36,0,0,0-1.5,1.26v4h-1v-6Z" transform="translate(-13 -42.8)"/><path class="cls-5" d="M187.15,225.14h1v0.76h0a2.19,2.19,0,0,1,1.69-.91,1.81,1.81,0,0,1,1.75,1,2.49,2.49,0,0,1,1.83-1c1,0,2,.43,2,2.19v4h-1v-4a1,1,0,0,0-1.06-1.18,1.36,1.36,0,0,0-1.5,1.26v4h-1v-4a1,1,0,0,0-1.06-1.18,1.36,1.36,0,0,0-1.5,1.26v4h-1v-6Z" transform="translate(-13 -42.8)"/><path class="cls-5" d="M201.91,231.17h-1v-0.81h0a2,2,0,0,1-1.76,1,1.91,1.91,0,0,1-2.13-2.21v-4h1v4a1.15,1.15,0,0,0,1.27,1.25,1.51,1.51,0,0,0,1.61-1.59v-3.63h1v6Z" transform="translate(-13 -42.8)"/><path class="cls-5" d="M203.5,225.14h1v0.81h0a2,2,0,0,1,1.76-1,1.91,1.91,0,0,1,2.13,2.21v4h-1V227.3a1.15,1.15,0,0,0-1.27-1.35,1.51,1.51,0,0,0-1.61,1.59v3.63h-1v-6Z" transform="translate(-13 -42.8)"/><path class="cls-5" d="M210.78,228.38a1.87,1.87,0,0,0,1.81,2.13,1.6,1.6,0,0,0,1.69-1.35l1,0.13a2.67,2.67,0,0,1-2.75,2,2.84,2.84,0,0,1-2.89-3.11c0-2,.92-3.21,2.87-3.21s2.81,1.37,2.81,3.15v0.24h-4.58Zm3.47-.81a1.79,1.79,0,0,0-1.82-1.78,1.73,1.73,0,0,0-1.65,1.78h3.47Z" transform="translate(-13 -42.8)"/><path class="cls-5" d="M220.22,222.19h1.56l2.75,7.29,2.75-7.29h1.56v9h-1.18v-7.22h0L225,231.17h-1l-2.62-7.22h0v7.22h-1.18v-9Z" transform="translate(-13 -42.8)"/><path class="cls-5" d="M231.31,228.38a1.87,1.87,0,0,0,1.81,2.13,1.6,1.6,0,0,0,1.69-1.35l1,0.13a2.67,2.67,0,0,1-2.75,2,2.84,2.84,0,0,1-2.89-3.11c0-2,.92-3.21,2.87-3.21s2.81,1.37,2.81,3.15v0.24h-4.58Zm3.47-.81A1.79,1.79,0,0,0,233,225.8a1.73,1.73,0,0,0-1.65,1.78h3.47Z" transform="translate(-13 -42.8)"/><path class="cls-5" d="M242.6,231.17h-1v-0.72h0a2.28,2.28,0,0,1-1.85.87c-2.23,0-3-1.55-3-3.16s0.81-3.16,2.87-3.16a2.28,2.28,0,0,1,1.93.91h0v-3.71h1v9Zm-2.87-.73c1.34,0,1.88-1.08,1.88-2.28a2,2,0,0,0-1.88-2.28c-1.34,0-1.88,1.08-1.88,2.28S238.39,230.44,239.72,230.44Z" transform="translate(-13 -42.8)"/><path class="cls-5" d="M244.08,222.19h1v1.18h-1v-1.18Zm0,3h1v6h-1v-6Z" transform="translate(-13 -42.8)"/><path class="cls-5" d="M250.21,227c0-.86-0.38-1.22-1.41-1.22a1.12,1.12,0,0,0-1.23,1.24l-1-.06a2,2,0,0,1,2.28-2c1,0,2.43.28,2.43,1.87v2.8c0,0.59.23,0.68,0.44,0.68a0.88,0.88,0,0,0,.32-0.06v0.86a2.71,2.71,0,0,1-.64.09,0.94,0.94,0,0,1-1-.83,2.77,2.77,0,0,1-2.14.93,1.8,1.8,0,0,1-1.93-1.66c0-1.66,1.49-2,4-2.11V227Zm0,1.21c-1.69.24-2.86,0.43-2.86,1.36a1,1,0,0,0,1.16.92,1.56,1.56,0,0,0,1.7-1.59v-0.69Z" transform="translate(-13 -42.8)"/><path class="cls-5" d="M252.27,225.14h1v-1.88h1v1.88h1.12V226H254.3v3.83c0,0.29,0,.58.42,0.58a1.89,1.89,0,0,0,.64-0.13v0.88a4.68,4.68,0,0,1-1,.13c-1.07,0-1.07-.5-1.07-1.19V226h-1v-0.88Z" transform="translate(-13 -42.8)"/><path class="cls-5" d="M257.22,228.38a1.87,1.87,0,0,0,1.81,2.13,1.6,1.6,0,0,0,1.69-1.35l1,0.13a2.67,2.67,0,0,1-2.75,2,2.84,2.84,0,0,1-2.89-3.11c0-2,.92-3.21,2.87-3.21s2.81,1.37,2.81,3.15v0.24h-4.58Zm3.47-.81a1.79,1.79,0,0,0-1.82-1.78,1.73,1.73,0,0,0-1.65,1.78h3.47Z" transform="translate(-13 -42.8)"/><path class="cls-5" d="M268.51,231.17h-1v-0.72h0a2.28,2.28,0,0,1-1.85.87c-2.23,0-3-1.55-3-3.16s0.81-3.16,2.87-3.16a2.28,2.28,0,0,1,1.93.91h0v-3.71h1v9Zm-2.87-.73c1.34,0,1.88-1.08,1.88-2.28a2,2,0,0,0-1.88-2.28c-1.34,0-1.88,1.08-1.88,2.28S264.3,230.44,265.64,230.44Z" transform="translate(-13 -42.8)"/><path class="cls-5" d="M151.82,232.74v-0.63H269.23v0.63H151.82Z" transform="translate(-13 -42.8)"/><path class="cls-5" d="M152.72,238.39h4.06c1.41,0,2.89.54,2.89,2.58a2.32,2.32,0,0,1-2.08,2.51l2.47,3.88h-1.44l-2.42-3.81H153.9v3.81h-1.19v-9Zm1.19,4.13h2.68c1.11,0,1.89-.35,1.89-1.55s-0.78-1.55-1.89-1.55H153.9v3.1Z" transform="translate(-13 -42.8)"/><path class="cls-5" d="M164.55,243.22c0-.86-0.38-1.22-1.41-1.22a1.12,1.12,0,0,0-1.23,1.24l-1-.06a2,2,0,0,1,2.28-2c1,0,2.43.28,2.43,1.87v2.8c0,0.59.23,0.68,0.44,0.68a0.86,0.86,0,0,0,.32-0.06v0.86a2.71,2.71,0,0,1-.64.09,0.94,0.94,0,0,1-1-.83,2.77,2.77,0,0,1-2.14.93,1.8,1.8,0,0,1-1.93-1.66c0-1.66,1.49-2,4-2.1v-0.53Zm0,1.21c-1.69.24-2.86,0.43-2.86,1.36a1,1,0,0,0,1.16.92,1.56,1.56,0,0,0,1.7-1.59v-0.69Z" transform="translate(-13 -42.8)"/><path class="cls-5" d="M166.62,241.34h1v-1.88h1v1.88h1.12v0.88h-1.12v3.83c0,0.29,0,.58.42,0.58a1.89,1.89,0,0,0,.64-0.12v0.88a4.74,4.74,0,0,1-1,.13c-1.07,0-1.07-.5-1.07-1.19v-4.11h-1v-0.88Z" transform="translate(-13 -42.8)"/><path class="cls-5" d="M171.57,244.58a1.87,1.87,0,0,0,1.81,2.13,1.6,1.6,0,0,0,1.69-1.35l1,0.13a2.67,2.67,0,0,1-2.75,2,2.84,2.84,0,0,1-2.89-3.11c0-2,.92-3.21,2.87-3.21s2.81,1.37,2.81,3.15v0.24h-4.58Zm3.47-.81a1.79,1.79,0,0,0-1.82-1.78,1.73,1.73,0,0,0-1.65,1.78H175Z" transform="translate(-13 -42.8)"/><path class="cls-5" d="M180.87,241.34h1v1h0a2.14,2.14,0,0,1,2.13-1.11v1.13l-0.69,0A1.54,1.54,0,0,0,181.9,244v3.38h-1v-6Z" transform="translate(-13 -42.8)"/><path class="cls-5" d="M185.81,244.58a1.87,1.87,0,0,0,1.81,2.13,1.6,1.6,0,0,0,1.69-1.35l1,0.13a2.67,2.67,0,0,1-2.75,2,2.84,2.84,0,0,1-2.89-3.11c0-2,.92-3.21,2.87-3.21s2.81,1.37,2.81,3.15v0.24h-4.58Zm3.47-.81a1.79,1.79,0,0,0-1.82-1.78,1.73,1.73,0,0,0-1.65,1.78h3.47Z" transform="translate(-13 -42.8)"/><path class="cls-5" d="M191.58,238.39h1v9h-1v-9Z" transform="translate(-13 -42.8)"/><path class="cls-5" d="M197.7,243.22c0-.86-0.38-1.22-1.41-1.22a1.12,1.12,0,0,0-1.23,1.24l-1-.06a2,2,0,0,1,2.28-2c1,0,2.43.28,2.43,1.87v2.8c0,0.59.23,0.68,0.44,0.68a0.86,0.86,0,0,0,.32-0.06v0.86a2.71,2.71,0,0,1-.64.09,0.94,0.94,0,0,1-1-.83,2.77,2.77,0,0,1-2.14.93,1.8,1.8,0,0,1-1.93-1.66c0-1.66,1.49-2,4-2.1v-0.53Zm0,1.21c-1.69.24-2.86,0.43-2.86,1.36a1,1,0,0,0,1.16.92,1.56,1.56,0,0,0,1.7-1.59v-0.69Z" transform="translate(-13 -42.8)"/><path class="cls-5" d="M199.77,241.34h1v-1.88h1v1.88h1.12v0.88H201.8v3.83c0,0.29,0,.58.42,0.58a1.89,1.89,0,0,0,.64-0.12v0.88a4.74,4.74,0,0,1-1,.13c-1.07,0-1.07-.5-1.07-1.19v-4.11h-1v-0.88Z" transform="translate(-13 -42.8)"/><path class="cls-5" d="M204.72,244.58a1.87,1.87,0,0,0,1.81,2.13,1.6,1.6,0,0,0,1.69-1.35l1,0.13a2.67,2.67,0,0,1-2.75,2,2.84,2.84,0,0,1-2.89-3.11c0-2,.92-3.21,2.87-3.21s2.81,1.37,2.81,3.15v0.24h-4.58Zm3.47-.81a1.79,1.79,0,0,0-1.82-1.78,1.73,1.73,0,0,0-1.65,1.78h3.47Z" transform="translate(-13 -42.8)"/><path class="cls-5" d="M216,247.37h-1v-0.72h0a2.28,2.28,0,0,1-1.85.87c-2.23,0-3-1.55-3-3.16s0.81-3.16,2.87-3.16a2.28,2.28,0,0,1,1.93.91h0v-3.71h1v9Zm-2.87-.73c1.34,0,1.88-1.08,1.88-2.28a2,2,0,0,0-1.88-2.28c-1.34,0-1.88,1.08-1.88,2.28S211.8,246.64,213.14,246.64Z" transform="translate(-13 -42.8)"/><path class="cls-5" d="M152.72,254.59h1.19v3.81h4.94v-3.81H160v9h-1.18v-4.13H153.9v4.13h-1.19v-9Z" transform="translate(-13 -42.8)"/><path class="cls-5" d="M162.46,260.78a1.87,1.87,0,0,0,1.81,2.13,1.6,1.6,0,0,0,1.69-1.35l1,0.13a2.67,2.67,0,0,1-2.75,2,2.84,2.84,0,0,1-2.89-3.11c0-2,.92-3.21,2.87-3.21s2.81,1.37,2.81,3.15v0.24h-4.58Zm3.47-.81a1.79,1.79,0,0,0-1.82-1.78,1.73,1.73,0,0,0-1.65,1.78h3.47Z" transform="translate(-13 -42.8)"/><path class="cls-5" d="M171.78,259.42c0-.86-0.38-1.22-1.41-1.22a1.12,1.12,0,0,0-1.23,1.24l-1-.06a2,2,0,0,1,2.28-2c1,0,2.43.28,2.43,1.87v2.8c0,0.59.23,0.68,0.44,0.68a0.9,0.9,0,0,0,.32-0.06v0.86a2.76,2.76,0,0,1-.64.09,0.94,0.94,0,0,1-1-.83,2.77,2.77,0,0,1-2.14.93,1.8,1.8,0,0,1-1.93-1.66c0-1.66,1.49-2,4-2.1v-0.53Zm0,1.21c-1.69.24-2.86,0.43-2.86,1.36a1,1,0,0,0,1.16.92,1.56,1.56,0,0,0,1.7-1.59v-0.69Z" transform="translate(-13 -42.8)"/><path class="cls-5" d="M180,263.57h-1v-0.72h0a2.28,2.28,0,0,1-1.85.87c-2.23,0-3-1.55-3-3.16s0.81-3.16,2.87-3.16a2.29,2.29,0,0,1,1.93.91h0v-3.71h1v9Zm-2.87-.73c1.34,0,1.88-1.08,1.88-2.28a2,2,0,0,0-1.88-2.28c-1.34,0-1.88,1.08-1.88,2.28S175.84,262.84,177.18,262.84Z" transform="translate(-13 -42.8)"/><path class="cls-5" d="M185.09,259.42c0-.86-0.38-1.22-1.41-1.22a1.12,1.12,0,0,0-1.23,1.24l-1-.06a2,2,0,0,1,2.28-2c1,0,2.43.28,2.43,1.87v2.8c0,0.59.23,0.68,0.44,0.68a0.9,0.9,0,0,0,.32-0.06v0.86a2.76,2.76,0,0,1-.64.09,0.94,0.94,0,0,1-1-.83,2.77,2.77,0,0,1-2.14.93,1.8,1.8,0,0,1-1.93-1.66c0-1.66,1.49-2,4-2.1v-0.53Zm0,1.21c-1.69.24-2.86,0.43-2.86,1.36a1,1,0,0,0,1.16.92,1.56,1.56,0,0,0,1.7-1.59v-0.69Z" transform="translate(-13 -42.8)"/><path class="cls-5" d="M192.08,259.53a1.56,1.56,0,0,0-1.6-1.34c-1.46,0-1.88,1.27-1.88,2.37s0.49,2.34,1.85,2.34a1.59,1.59,0,0,0,1.73-1.63l1.11,0.09a2.62,2.62,0,0,1-2.8,2.34,2.82,2.82,0,0,1-3-3.1c0-1.87,1-3.23,3-3.23a2.59,2.59,0,0,1,2.71,2Z" transform="translate(-13 -42.8)"/><path class="cls-5" d="M194.4,254.59h1v3.76h0a2,2,0,0,1,1.76-1,1.91,1.91,0,0,1,2.13,2.21v4h-1V259.7a1.15,1.15,0,0,0-1.27-1.35,1.51,1.51,0,0,0-1.61,1.59v3.63h-1v-9Z" transform="translate(-13 -42.8)"/><path class="cls-5" d="M201.68,260.78a1.87,1.87,0,0,0,1.81,2.13,1.6,1.6,0,0,0,1.69-1.35l1,0.13a2.67,2.67,0,0,1-2.75,2,2.84,2.84,0,0,1-2.89-3.11c0-2,.92-3.21,2.87-3.21s2.81,1.37,2.81,3.15v0.24h-4.58Zm3.47-.81a1.79,1.79,0,0,0-1.82-1.78,1.73,1.73,0,0,0-1.65,1.78h3.47Z" transform="translate(-13 -42.8)"/><path class="cls-5" d="M152.72,270.79h1.2l4.75,7.08h0v-7.08h1.11v9h-1.19l-4.76-7.07h0v7.07h-1.11v-9Z" transform="translate(-13 -42.8)"/><path class="cls-5" d="M165,275.62c0-.86-0.38-1.22-1.41-1.22a1.12,1.12,0,0,0-1.23,1.24l-1-.06a2,2,0,0,1,2.28-2c1,0,2.43.28,2.43,1.87v2.8c0,0.59.23,0.68,0.44,0.68a0.86,0.86,0,0,0,.32-0.06v0.86a2.71,2.71,0,0,1-.64.09,0.94,0.94,0,0,1-1-.83,2.77,2.77,0,0,1-2.14.93,1.8,1.8,0,0,1-1.93-1.66c0-1.66,1.49-2,4-2.1v-0.53Zm0,1.21c-1.69.24-2.86,0.43-2.86,1.36a1,1,0,0,0,1.16.92,1.56,1.56,0,0,0,1.7-1.59v-0.69Z" transform="translate(-13 -42.8)"/><path class="cls-5" d="M172.74,279.77h-1V279h0a2,2,0,0,1-1.76,1,1.91,1.91,0,0,1-2.13-2.21v-4h1v4A1.15,1.15,0,0,0,170.1,279a1.51,1.51,0,0,0,1.61-1.59v-3.63h1v6Z" transform="translate(-13 -42.8)"/><path class="cls-5" d="M175,277.65a1.47,1.47,0,0,0,1.71,1.46,1.15,1.15,0,0,0,1.35-1c0-1.5-3.93-.38-3.93-2.74,0-1.22,1.2-1.75,2.27-1.75,0.82,0,2.58.42,2.58,2l-1,.14a1.33,1.33,0,0,0-1.5-1.3,1.06,1.06,0,0,0-1.29.9c0,1.36,4,.39,4,2.77,0,1.27-1.3,1.85-2.61,1.85a2.38,2.38,0,0,1-2.67-2.13Z" transform="translate(-13 -42.8)"/><path class="cls-5" d="M181.13,277a1.87,1.87,0,0,0,1.81,2.13,1.6,1.6,0,0,0,1.69-1.35l1,0.13a2.67,2.67,0,0,1-2.75,2,2.84,2.84,0,0,1-2.89-3.11c0-2,.92-3.21,2.87-3.21s2.81,1.37,2.81,3.15V277h-4.58Zm3.47-.81a1.79,1.79,0,0,0-1.82-1.78,1.73,1.73,0,0,0-1.65,1.78h3.47Z" transform="translate(-13 -42.8)"/><path class="cls-5" d="M190.46,275.62c0-.86-0.38-1.22-1.41-1.22a1.12,1.12,0,0,0-1.23,1.24l-1-.06a2,2,0,0,1,2.28-2c1,0,2.43.28,2.43,1.87v2.8c0,0.59.23,0.68,0.44,0.68a0.86,0.86,0,0,0,.32-0.06v0.86a2.71,2.71,0,0,1-.64.09,0.94,0.94,0,0,1-1-.83,2.77,2.77,0,0,1-2.14.93,1.8,1.8,0,0,1-1.93-1.66c0-1.66,1.49-2,4-2.1v-0.53Zm0,1.21c-1.69.24-2.86,0.43-2.86,1.36a1,1,0,0,0,1.16.92,1.56,1.56,0,0,0,1.7-1.59v-0.69Z" transform="translate(-13 -42.8)"/><path class="cls-5" d="M152.72,287h1.2l4.75,7.08h0V287h1.11v9h-1.19l-4.76-7.07h0V296h-1.11v-9Z" transform="translate(-13 -42.8)"/><path class="cls-5" d="M164.07,289.79a3.17,3.17,0,1,1-2.95,3.16A2.89,2.89,0,0,1,164.07,289.79Zm0,5.52c1.49,0,1.84-1.36,1.84-2.36s-0.35-2.36-1.84-2.36-1.84,1.36-1.84,2.36S162.59,295.31,164.07,295.31Z" transform="translate(-13 -42.8)"/><path class="cls-5" d="M168.24,289.94h1v0.81h0a2,2,0,0,1,1.76-1A1.91,1.91,0,0,1,173.2,292v4h-1V292.1a1.15,1.15,0,0,0-1.27-1.35,1.51,1.51,0,0,0-1.61,1.59V296h-1v-6Z" transform="translate(-13 -42.8)"/><path class="cls-5" d="M175.49,293.85a1.47,1.47,0,0,0,1.71,1.46,1.15,1.15,0,0,0,1.35-1c0-1.5-3.93-.38-3.93-2.73,0-1.22,1.2-1.75,2.27-1.75,0.82,0,2.58.42,2.58,2l-1,.14a1.33,1.33,0,0,0-1.5-1.3,1.06,1.06,0,0,0-1.29.89c0,1.36,4,.39,4,2.77,0,1.27-1.3,1.85-2.61,1.85a2.38,2.38,0,0,1-2.67-2.13Z" transform="translate(-13 -42.8)"/><path class="cls-5" d="M180.77,289.94h1v0.72h0a2.46,2.46,0,0,1,1.93-.87c2.13,0,2.89,1.55,2.89,3.16s-0.81,3.16-2.87,3.16a2.28,2.28,0,0,1-1.93-.91h0v3.58h-1v-8.85Zm2.87,0.73c-1.34,0-1.88,1.08-1.88,2.28a2,2,0,0,0,1.88,2.28c1.34,0,1.88-1.08,1.88-2.28S185,290.67,183.64,290.67Z" transform="translate(-13 -42.8)"/><path class="cls-5" d="M188.59,293.18a1.87,1.87,0,0,0,1.81,2.13A1.6,1.6,0,0,0,192.1,294l1,0.13a2.67,2.67,0,0,1-2.75,2,2.84,2.84,0,0,1-2.89-3.11c0-2,.92-3.21,2.87-3.21s2.81,1.37,2.81,3.15v0.24h-4.58Zm3.47-.81a1.79,1.79,0,0,0-1.82-1.78,1.73,1.73,0,0,0-1.65,1.78h3.47Z" transform="translate(-13 -42.8)"/><path class="cls-5" d="M198.61,291.93a1.56,1.56,0,0,0-1.6-1.34c-1.46,0-1.88,1.27-1.88,2.37s0.49,2.34,1.85,2.34a1.59,1.59,0,0,0,1.73-1.62l1.11,0.09a2.62,2.62,0,0,1-2.8,2.34,2.82,2.82,0,0,1-3-3.1c0-1.87,1-3.23,3-3.23a2.59,2.59,0,0,1,2.71,2Z" transform="translate(-13 -42.8)"/><path class="cls-5" d="M200.9,287h1v1.19h-1V287Zm0,2.95h1v6h-1v-6Z" transform="translate(-13 -42.8)"/><path class="cls-5" d="M203.79,290.82h-1v-0.88h1v-1.07c0-1.32.52-1.88,1.68-1.88a3.58,3.58,0,0,1,.66.08v0.78a3.23,3.23,0,0,0-.57-0.05,0.69,0.69,0,0,0-.73.84v1.3h1.12v0.88h-1.12V296h-1v-5.14Z" transform="translate(-13 -42.8)"/><path class="cls-5" d="M207,287h1v1.19h-1V287Zm0,2.95h1v6h-1v-6Z" transform="translate(-13 -42.8)"/><path class="cls-5" d="M213.79,291.93a1.56,1.56,0,0,0-1.6-1.34c-1.46,0-1.88,1.27-1.88,2.37s0.49,2.34,1.85,2.34a1.59,1.59,0,0,0,1.73-1.62l1.11,0.09a2.62,2.62,0,0,1-2.8,2.34,2.82,2.82,0,0,1-3-3.1c0-1.87,1-3.23,3-3.23a2.59,2.59,0,0,1,2.71,2Z" transform="translate(-13 -42.8)"/><path class="cls-2" d="M316.21,221.39c0.08,1.51,1,2.14,2.52,2.14s2.46-.73,2.46-1.83c0-2.75-5.36-1-5.36-4.54,0-1.64,1.6-2.28,2.86-2.28a3,3,0,0,1,3.2,2l-0.79.43a2.3,2.3,0,0,0-2.41-1.65c-0.92,0-2,.52-2,1.5,0,2.66,5.36.95,5.36,4.4,0,1.76-1.23,2.75-3.31,2.75-1.8,0-3-.67-3.38-2.48Z" transform="translate(-13 -42.8)"/><path class="cls-2" d="M323.82,221v0.16c0,1.35.59,2.33,1.94,2.33a2,2,0,0,0,2-1.29l0.71,0.19a2.78,2.78,0,0,1-2.73,1.8c-1.51,0-2.74-1.11-2.74-3.18s1.22-3.18,2.74-3.18c1.79,0,2.67,1.36,2.73,3.15h-4.61Zm3.76-.63a1.88,1.88,0,0,0-3.76,0h3.76Z" transform="translate(-13 -42.8)"/><path class="cls-2" d="M329.75,218h0.76v0.84h0a1.82,1.82,0,0,1,1.64-1l0.54,0v0.66a2.4,2.4,0,0,0-.5-0.05c-1.17,0-1.7.86-1.7,2.09v3.48h-0.76v-6Z" transform="translate(-13 -42.8)"/><path class="cls-2" d="M337.33,223.21h0a2.12,2.12,0,0,1-3.93-1.07V218h0.76v3.87c0,1.22.52,1.63,1.47,1.63a1.73,1.73,0,0,0,1.73-2V218h0.76v6h-0.76v-0.88Z" transform="translate(-13 -42.8)"/><path class="cls-2" d="M339.73,218h0.76v1h0a1.74,1.74,0,0,1,1.68-1.12,1.57,1.57,0,0,1,1.74,1.32h0a1.87,1.87,0,0,1,1.89-1.32c1.75,0,1.75,1.47,1.75,2.21v4h-0.76v-3.91c0-.68,0-1.59-1.16-1.59s-1.64,1-1.64,2.13v3.37h-0.76v-3.81c0-.78-0.08-1.69-1.16-1.69-0.93,0-1.64.83-1.64,2.17v3.33h-0.76v-6Z" transform="translate(-13 -42.8)"/><path class="cls-2" d="M353.32,221.39c0.08,1.51,1,2.14,2.52,2.14s2.46-.73,2.46-1.83c0-2.75-5.36-1-5.36-4.54,0-1.64,1.6-2.28,2.86-2.28a3,3,0,0,1,3.2,2l-0.79.43a2.3,2.3,0,0,0-2.41-1.65c-0.92,0-2,.52-2,1.5,0,2.66,5.36.95,5.36,4.4,0,1.76-1.23,2.75-3.31,2.75-1.8,0-3-.67-3.38-2.48Z" transform="translate(-13 -42.8)"/><path class="cls-2" d="M360.45,215.55h0.76v1.19h-0.76v-1.19Zm0,2.5h0.76v6h-0.76v-6Z" transform="translate(-13 -42.8)"/><path class="cls-2" d="M366.89,219.54a1.7,1.7,0,0,0-1.66-.95,2.17,2.17,0,0,0-2.05,2.47c0,1.66,1,2.47,2,2.47a1.8,1.8,0,0,0,1.66-1l0.77,0.19a2.49,2.49,0,0,1-2.43,1.5c-1.51,0-2.71-1.27-2.74-3.18a2.9,2.9,0,0,1,2.91-3.18,2.46,2.46,0,0,1,2.33,1.5Z" transform="translate(-13 -42.8)"/><path class="cls-2" d="M368.62,215.12h0.76v6.11l3.3-3.19h1l-2.46,2.38,2.7,3.67H373l-2.32-3.15-1.26,1.22v1.93h-0.76v-9Z" transform="translate(-13 -42.8)"/><path class="cls-2" d="M374.69,218h0.76v0.88h0A2.11,2.11,0,0,1,379.4,220v4.1h-0.76v-3.87c0-1.22-.52-1.63-1.47-1.63a1.73,1.73,0,0,0-1.73,2v3.53h-0.76v-6Z" transform="translate(-13 -42.8)"/><path class="cls-2" d="M381.46,221v0.16c0,1.35.59,2.33,1.94,2.33a2,2,0,0,0,2-1.29l0.71,0.19a2.78,2.78,0,0,1-2.73,1.8c-1.51,0-2.74-1.11-2.74-3.18s1.22-3.18,2.74-3.18c1.79,0,2.67,1.36,2.73,3.15h-4.61Zm3.76-.63a1.88,1.88,0,0,0-3.76,0h3.76Z" transform="translate(-13 -42.8)"/><path class="cls-2" d="M387.54,222.41a1.61,1.61,0,0,0,1.75,1.2,1.28,1.28,0,0,0,1.47-1.23c0-1.8-3.58-.42-3.58-2.82a1.8,1.8,0,0,1,2.07-1.66c1.19,0,2,.35,2.28,1.37l-0.72.18a1.29,1.29,0,0,0-1.45-.92c-1.13,0-1.42.45-1.42,1.06,0,1.56,3.58.39,3.58,2.82,0,1-.83,1.84-2.34,1.84a2.31,2.31,0,0,1-2.37-1.6Z" transform="translate(-13 -42.8)"/><path class="cls-2" d="M393.13,222.41a1.61,1.61,0,0,0,1.75,1.2,1.28,1.28,0,0,0,1.47-1.23c0-1.8-3.58-.42-3.58-2.82a1.8,1.8,0,0,1,2.07-1.66c1.19,0,2,.35,2.28,1.37l-0.72.18a1.29,1.29,0,0,0-1.45-.92c-1.13,0-1.42.45-1.42,1.06,0,1.56,3.58.39,3.58,2.82,0,1-.83,1.84-2.34,1.84a2.31,2.31,0,0,1-2.37-1.6Z" transform="translate(-13 -42.8)"/><path class="cls-2" d="M398.25,221.17v-0.78h3.53v0.78h-3.53Z" transform="translate(-13 -42.8)"/><path class="cls-2" d="M403.35,215.12h0.86v8.19h5v0.78h-5.81v-9Z" transform="translate(-13 -42.8)"/><path class="cls-2" d="M410.14,215.55h0.76v1.19h-0.76v-1.19Zm0,2.5h0.76v6h-0.76v-6Z" transform="translate(-13 -42.8)"/><path class="cls-2" d="M412.48,215.12h0.76v6.11l3.3-3.19h1L415,220.42l2.7,3.67h-0.92l-2.32-3.15-1.26,1.22v1.93h-0.76v-9Z" transform="translate(-13 -42.8)"/><path class="cls-2" d="M419,221v0.16c0,1.35.59,2.33,1.94,2.33a2,2,0,0,0,2-1.29l0.71,0.19a2.78,2.78,0,0,1-2.73,1.8c-1.51,0-2.74-1.11-2.74-3.18s1.22-3.18,2.74-3.18c1.79,0,2.67,1.36,2.73,3.15H419Zm3.76-.63a1.88,1.88,0,0,0-3.76,0h3.76Z" transform="translate(-13 -42.8)"/><path class="cls-2" d="M314.85,225.67V225h109.2v0.63H314.85Z" transform="translate(-13 -42.8)"/><path class="cls-2" d="M319.13,231.32l3.48,9h-0.92l-1-2.7h-3.95l-1.07,2.7h-0.88l3.66-9h0.69Zm1.27,5.57-1.66-4.42L317,236.89h3.38Z" transform="translate(-13 -42.8)"/><path class="cls-2" d="M323.34,234.24h0.76v0.88h0a2.12,2.12,0,0,1,3.93,1.07v4.1H327.3v-3.87c0-1.22-.52-1.63-1.47-1.63a1.73,1.73,0,0,0-1.73,2v3.53h-0.76v-6.05Z" transform="translate(-13 -42.8)"/><path class="cls-2" d="M328.95,234.24h1.24v-2.58h0.76v2.58h1.31v0.63h-1.31v4c0,0.45,0,.87.44,0.87a1.42,1.42,0,0,0,.83-0.3v0.76a2.46,2.46,0,0,1-1,.25,1,1,0,0,1-1-1.07v-4.5h-1.24v-0.63Z" transform="translate(-13 -42.8)"/><path class="cls-2" d="M333.14,231.75h0.76v1.18h-0.76v-1.18Zm0,2.5h0.76v6.05h-0.76v-6.05Z" transform="translate(-13 -42.8)"/><path class="cls-2" d="M335.49,231.32h0.76v3.86h0a1.83,1.83,0,0,1,1.78-1.08c1.39,0,2.53,1.13,2.53,3.25s-1.5,3.1-2.57,3.1a1.75,1.75,0,0,1-1.74-1.08h0v0.93h-0.76v-9Zm2.46,3.48c-1.44,0-1.74,1.29-1.74,2.47s0.38,2.47,1.79,2.47c1.08,0,1.83-.95,1.83-2.47S339.08,234.8,337.94,234.8Z" transform="translate(-13 -42.8)"/><path class="cls-2" d="M344.14,234.09c1.51,0,2.73,1.11,2.73,3.18s-1.22,3.18-2.73,3.18-2.74-1.11-2.74-3.18S342.63,234.09,344.14,234.09Zm-2,3.18c0,1.56.86,2.47,2,2.47s2-.91,2-2.47-0.86-2.47-2-2.47S342.16,235.72,342.16,237.27Z" transform="translate(-13 -42.8)"/><path class="cls-2" d="M352,239.47h0a1.85,1.85,0,0,1-1.76,1c-1.13,0-2.55-.86-2.55-3.1s1.15-3.25,2.53-3.25A1.94,1.94,0,0,1,352,235h0v-3.72h0.76v9H352v-0.82Zm-1.75.27c1.41,0,1.79-1.29,1.79-2.47s-0.3-2.47-1.74-2.47c-1.13,0-1.88.95-1.88,2.47S349.21,239.74,350.29,239.74Z" transform="translate(-13 -42.8)"/><path class="cls-2" d="M354.39,231.75h0.76v1.18h-0.76v-1.18Zm0,2.5h0.76v6.05h-0.76v-6.05Z" transform="translate(-13 -42.8)"/><path class="cls-2" d="M357.21,237.24v0.16c0,1.35.59,2.33,1.94,2.33a2,2,0,0,0,2-1.29l0.71,0.19a2.78,2.78,0,0,1-2.73,1.8c-1.51,0-2.74-1.11-2.74-3.18s1.22-3.18,2.74-3.18c1.79,0,2.67,1.36,2.73,3.15h-4.61Zm3.76-.63a1.88,1.88,0,0,0-3.76,0H361Z" transform="translate(-13 -42.8)"/><path class="cls-2" d="M363.28,238.61a1.61,1.61,0,0,0,1.75,1.2,1.28,1.28,0,0,0,1.47-1.24c0-1.8-3.58-.42-3.58-2.82a1.8,1.8,0,0,1,2.07-1.66c1.19,0,2,.35,2.28,1.37l-0.72.18a1.29,1.29,0,0,0-1.45-.92c-1.13,0-1.42.45-1.42,1.06,0,1.56,3.58.39,3.58,2.82,0,1-.83,1.84-2.34,1.84a2.31,2.31,0,0,1-2.37-1.6Z" transform="translate(-13 -42.8)"/><path class="cls-2" d="M371.43,234.24h1.24v-2.58h0.76v2.58h1.31v0.63h-1.31v4c0,0.45,0,.87.44,0.87a1.42,1.42,0,0,0,.83-0.3v0.76a2.46,2.46,0,0,1-1,.25,1,1,0,0,1-1-1.07v-4.5h-1.24v-0.63Z" transform="translate(-13 -42.8)"/><path class="cls-2" d="M378,234.09c1.51,0,2.73,1.11,2.73,3.18s-1.22,3.18-2.73,3.18-2.74-1.11-2.74-3.18S376.47,234.09,378,234.09Zm-2,3.18c0,1.56.86,2.47,2,2.47s2-.91,2-2.47-0.86-2.47-2-2.47S376,235.72,376,237.27Z" transform="translate(-13 -42.8)"/><path class="cls-2" d="M385.43,231.75h0.76v1.18h-0.76v-1.18Zm0,2.5h0.76v6.05h-0.76v-6.05Z" transform="translate(-13 -42.8)"/><path class="cls-2" d="M387.78,234.24h0.76v0.88h0a2.12,2.12,0,0,1,3.93,1.07v4.1h-0.76v-3.87c0-1.22-.52-1.63-1.47-1.63a1.73,1.73,0,0,0-1.73,2v3.53h-0.76v-6.05Z" transform="translate(-13 -42.8)"/><path class="cls-2" d="M394.77,234.87h-1.32v-0.63h1.32v-1.92a1.23,1.23,0,0,1,1.49-1.24,1.73,1.73,0,0,1,.67.13v0.72a1.37,1.37,0,0,0-.69-0.14c-0.52,0-.71.29-0.71,0.9v1.55h1.32v0.63h-1.32v5.42h-0.76v-5.42Z" transform="translate(-13 -42.8)"/><path class="cls-2" d="M397.81,231.32h0.76v9h-0.76v-9Z" transform="translate(-13 -42.8)"/><path class="cls-2" d="M400.15,231.75h0.76v1.18h-0.76v-1.18Zm0,2.5h0.76v6.05h-0.76v-6.05Z" transform="translate(-13 -42.8)"/><path class="cls-2" d="M404,237.11l-2-2.87h0.84l1.58,2.28,1.6-2.28h0.84l-2,2.87,2.18,3.18h-0.83l-1.78-2.58-1.82,2.58h-0.84Z" transform="translate(-13 -42.8)"/><path class="cls-2" d="M407.86,231.75h0.76v1.18h-0.76v-1.18Zm0,2.5h0.76v6.05h-0.76v-6.05Z" transform="translate(-13 -42.8)"/><path class="cls-2" d="M410.27,234.24H411v1h0a1.74,1.74,0,0,1,1.68-1.12,1.57,1.57,0,0,1,1.74,1.32h0a1.87,1.87,0,0,1,1.89-1.32c1.75,0,1.75,1.47,1.75,2.21v4h-0.76v-3.91c0-.68,0-1.59-1.16-1.59s-1.64,1-1.64,2.13v3.37h-0.76v-3.81c0-.78-0.08-1.69-1.16-1.69-0.93,0-1.64.83-1.64,2.17v3.33h-0.76v-6.05Z" transform="translate(-13 -42.8)"/><path class="cls-2" d="M425,240.37c-0.93,0-1.5,0-1.58-1.06h0a2.23,2.23,0,0,1-2.12,1.13,1.69,1.69,0,0,1-1.93-1.6c0-1.29,1.12-1.66,2.17-1.93l1.85-.48v-0.61c0-.78-0.55-1.11-1.51-1.11a1.32,1.32,0,0,0-1.5,1.46l-0.86-.15a2.17,2.17,0,0,1,2.38-1.94c2.24,0,2.24,1.3,2.24,1.89v3c0,0.78.35,0.79,0.87,0.79v0.63Zm-3.66-.63a2,2,0,0,0,2-2v-0.69l-2.18.6a1.18,1.18,0,0,0-1.08,1.13A1.06,1.06,0,0,0,421.39,239.74Z" transform="translate(-13 -42.8)"/><path class="cls-2" d="M425.84,231.32h0.76v3.86h0a1.83,1.83,0,0,1,1.78-1.08c1.39,0,2.53,1.13,2.53,3.25s-1.5,3.1-2.57,3.1a1.75,1.75,0,0,1-1.74-1.08h0v0.93h-0.76v-9Zm2.46,3.48c-1.44,0-1.74,1.29-1.74,2.47s0.38,2.47,1.79,2.47c1.08,0,1.83-.95,1.83-2.47S429.43,234.8,428.3,234.8Z" transform="translate(-13 -42.8)"/><path class="cls-2" d="M315,247.52h6.48v0.78h-2.81v8.19H317.8V248.3H315v-0.78Z" transform="translate(-13 -42.8)"/><path class="cls-2" d="M321.73,250.44h0.71l1.75,5.09h0l2-5.09h0.72l-3,7.68c-0.26.69-.54,1.5-1.47,1.5a2,2,0,0,1-.81-0.23v-0.78a1.75,1.75,0,0,0,.78.3,1,1,0,0,0,.76-0.82l0.62-1.59Z" transform="translate(-13 -42.8)"/><path class="cls-2" d="M327.76,250.44h0.76v0.91h0a1.91,1.91,0,0,1,1.78-1.06c1.32,0,2.53,1,2.53,3.08,0,2.51-1.29,3.28-2.48,3.28a1.81,1.81,0,0,1-1.83-1h0v4h-0.76v-9.17Zm2.52,0.55c-1.5,0-1.8,1.31-1.8,2.47s0.3,2.47,1.79,2.47c1.08,0,1.83-.95,1.83-2.47S331.35,251,330.28,251Z" transform="translate(-13 -42.8)"/><path class="cls-2" d="M334.54,253.44v0.16c0,1.35.59,2.33,1.94,2.33a2,2,0,0,0,2-1.29l0.71,0.19a2.78,2.78,0,0,1-2.73,1.8c-1.51,0-2.74-1.11-2.74-3.18s1.22-3.18,2.74-3.18c1.79,0,2.67,1.36,2.73,3.15h-4.61Zm3.76-.63a1.88,1.88,0,0,0-3.76,0h3.76Z" transform="translate(-13 -42.8)"/><path class="cls-2" d="M344.31,253.63a2.15,2.15,0,0,0,2.33,2.31,2,2,0,0,0,2.13-1.88c0-1.8-1.36-1.89-2.48-1.89h-0.42c-0.25,0-.47,0-0.74,0v-0.74h1.13c1.49,0,2.33-.58,2.33-1.56a1.75,1.75,0,0,0-2-1.83,2,2,0,0,0-2.14,2l-0.86-.23a2.85,2.85,0,0,1,3.09-2.45,2.44,2.44,0,0,1,2.74,2.38,1.86,1.86,0,0,1-1.88,2v0a2,2,0,0,1,2.05,2.24c0,1.71-1.36,2.62-3,2.62a2.89,2.89,0,0,1-3.2-2.74Z" transform="translate(-13 -42.8)"/><path class="cls-2" d="M354.37,247.52h0.76v3.82h0a2.11,2.11,0,0,1,3.93,1.06v4.1h-0.76v-3.87c0-1.22-.52-1.62-1.47-1.62a1.73,1.73,0,0,0-1.73,2v3.53h-0.76v-9Z" transform="translate(-13 -42.8)"/><path class="cls-2" d="M360,250.44h0.71l1.75,5.09h0l2-5.09h0.72l-3,7.68c-0.26.69-.54,1.5-1.47,1.5a2,2,0,0,1-.81-0.23v-0.78a1.75,1.75,0,0,0,.78.3,1,1,0,0,0,.76-0.82l0.62-1.59Z" transform="translate(-13 -42.8)"/><path class="cls-2" d="M366,250.44h0.76v0.91h0a1.91,1.91,0,0,1,1.78-1.06c1.32,0,2.53,1,2.53,3.08,0,2.51-1.29,3.28-2.48,3.28a1.81,1.81,0,0,1-1.83-1h0v4H366v-9.17Zm2.52,0.55c-1.5,0-1.8,1.31-1.8,2.47s0.3,2.47,1.79,2.47c1.08,0,1.83-.95,1.83-2.47S369.63,251,368.56,251Z" transform="translate(-13 -42.8)"/><path class="cls-2" d="M372.82,253.44v0.16c0,1.35.59,2.33,1.94,2.33a2,2,0,0,0,2-1.29l0.71,0.19a2.78,2.78,0,0,1-2.73,1.8c-1.51,0-2.74-1.11-2.74-3.18s1.22-3.18,2.74-3.18c1.79,0,2.67,1.36,2.73,3.15h-4.61Zm3.76-.63a1.88,1.88,0,0,0-3.76,0h3.76Z" transform="translate(-13 -42.8)"/><path class="cls-2" d="M378.75,250.44h0.76v0.84h0a1.82,1.82,0,0,1,1.64-1l0.54,0V251a2.33,2.33,0,0,0-.5-0.05c-1.17,0-1.7.86-1.7,2.09v3.48h-0.76v-6Z" transform="translate(-13 -42.8)"/><path class="cls-2" d="M382.62,254.81a1.61,1.61,0,0,0,1.75,1.2,1.28,1.28,0,0,0,1.47-1.24c0-1.8-3.58-.42-3.58-2.82a1.81,1.81,0,0,1,2.07-1.66c1.19,0,2,.35,2.28,1.38l-0.72.18a1.29,1.29,0,0,0-1.45-.92c-1.13,0-1.42.45-1.42,1.06,0,1.56,3.58.39,3.58,2.82,0,1-.83,1.84-2.34,1.84a2.31,2.31,0,0,1-2.37-1.6Z" transform="translate(-13 -42.8)"/><path class="cls-2" d="M388.44,253.44v0.16c0,1.35.59,2.33,1.94,2.33a2,2,0,0,0,2-1.29l0.71,0.19a2.78,2.78,0,0,1-2.73,1.8c-1.51,0-2.74-1.11-2.74-3.18s1.22-3.18,2.74-3.18c1.79,0,2.67,1.36,2.73,3.15h-4.61Zm3.76-.63a1.88,1.88,0,0,0-3.76,0h3.76Z" transform="translate(-13 -42.8)"/><path class="cls-2" d="M394.26,250.44H395v0.88h0A2.11,2.11,0,0,1,399,252.4v4.1h-0.76v-3.87c0-1.22-.52-1.62-1.47-1.62a1.73,1.73,0,0,0-1.73,2v3.53h-0.76v-6Z" transform="translate(-13 -42.8)"/><path class="cls-2" d="M400.82,254.81a1.61,1.61,0,0,0,1.75,1.2,1.28,1.28,0,0,0,1.47-1.24c0-1.8-3.58-.42-3.58-2.82a1.81,1.81,0,0,1,2.07-1.66c1.19,0,2,.35,2.28,1.38l-0.72.18a1.29,1.29,0,0,0-1.45-.92c-1.13,0-1.42.45-1.42,1.06,0,1.56,3.58.39,3.58,2.82,0,1-.83,1.84-2.34,1.84a2.31,2.31,0,0,1-2.37-1.6Z" transform="translate(-13 -42.8)"/><path class="cls-2" d="M406.16,247.95h0.76v1.18h-0.76v-1.18Zm0,2.5h0.76v6h-0.76v-6Z" transform="translate(-13 -42.8)"/><path class="cls-2" d="M407.81,250.44H409v-2.58h0.76v2.58h1.31v0.63H409.8v4c0,0.45,0,.87.44,0.87a1.42,1.42,0,0,0,.83-0.3v0.76a2.46,2.46,0,0,1-1,.25,1,1,0,0,1-1-1.07v-4.5h-1.24v-0.63Z" transform="translate(-13 -42.8)"/><path class="cls-2" d="M412,247.95h0.76v1.18H412v-1.18Zm0,2.5h0.76v6H412v-6Z" transform="translate(-13 -42.8)"/><path class="cls-2" d="M413.58,250.44h0.74l1.65,4.85h0l1.88-4.85h0.78l-2.41,6h-0.59Z" transform="translate(-13 -42.8)"/><path class="cls-2" d="M419.48,247.95h0.76v1.18h-0.76v-1.18Zm0,2.5h0.76v6h-0.76v-6Z" transform="translate(-13 -42.8)"/><path class="cls-2" d="M421.13,250.44h1.24v-2.58h0.76v2.58h1.31v0.63h-1.31v4c0,0.45,0,.87.44,0.87a1.42,1.42,0,0,0,.83-0.3v0.76a2.46,2.46,0,0,1-1,.25,1,1,0,0,1-1-1.07v-4.5h-1.24v-0.63Z" transform="translate(-13 -42.8)"/><path class="cls-2" d="M424.65,250.44h0.71l1.75,5.09h0l2-5.09h0.72l-3,7.68c-0.26.69-.54,1.5-1.47,1.5a2,2,0,0,1-.81-0.23v-0.78a1.75,1.75,0,0,0,.78.3,1,1,0,0,0,.76-0.82l0.62-1.59Z" transform="translate(-13 -42.8)"/><path class="cls-2" d="M432.33,254.3v-0.76c0-1.64,2.24-1.87,2.24-3.78a1.7,1.7,0,0,0-3.39-.09,3.09,3.09,0,0,0,.34,1.35l-0.95-.28a3.7,3.7,0,0,1-.15-1.17,2.25,2.25,0,0,1,2.47-2.28,2.39,2.39,0,0,1,2.53,2.47c0,2.37-2.34,2.52-2.34,4.11v0.43h-0.76Zm-0.1,2.19V255h1v1.46h-1Z" transform="translate(-13 -42.8)"/><path class="cls-2" d="M474.32,214.89c2.66,0,3.88,2.33,3.88,4.71s-1.22,4.71-3.88,4.71-3.88-2.33-3.88-4.71S471.66,214.89,474.32,214.89Zm0,8.65c2.13,0,3-2.07,3-3.93s-0.89-3.93-3-3.93-3,2.07-3,3.93S472.19,223.54,474.32,223.54Z" transform="translate(-13 -42.8)"/><path class="cls-2" d="M478.86,218h1.24v-2.58h0.76V218h1.31v0.63h-1.31v4c0,0.45,0,.87.44,0.87a1.42,1.42,0,0,0,.83-0.3V224a2.46,2.46,0,0,1-1,.25,1,1,0,0,1-1-1.07v-4.5h-1.24V218Z" transform="translate(-13 -42.8)"/><path class="cls-2" d="M483.05,215.12h0.76v3.82h0a2.11,2.11,0,0,1,3.93,1.06v4.1H487v-3.87c0-1.22-.52-1.63-1.47-1.63a1.73,1.73,0,0,0-1.73,2v3.53h-0.76v-9Z" transform="translate(-13 -42.8)"/><path class="cls-2" d="M489.83,221v0.16c0,1.35.59,2.33,1.94,2.33a2,2,0,0,0,2-1.29l0.71,0.19a2.78,2.78,0,0,1-2.73,1.8c-1.51,0-2.74-1.11-2.74-3.18s1.22-3.18,2.74-3.18c1.79,0,2.67,1.36,2.73,3.15h-4.61Zm3.76-.63a1.88,1.88,0,0,0-3.76,0h3.76Z" transform="translate(-13 -42.8)"/><path class="cls-2" d="M495.77,218h0.76v0.84h0a1.82,1.82,0,0,1,1.64-1l0.54,0v0.66a2.4,2.4,0,0,0-.5-0.05c-1.17,0-1.7.86-1.7,2.09v3.48h-0.76v-6Z" transform="translate(-13 -42.8)"/><path class="cls-2" d="M469.89,225.67V225h28.7v0.63h-28.7Z" transform="translate(-13 -42.8)"/><path class="cls-2" d="M470.9,231.32h0.86v8.19h5v0.78H470.9v-9Z" transform="translate(-13 -42.8)"/><path class="cls-2" d="M481.65,239.41h0a2.12,2.12,0,0,1-3.93-1.07v-4.1h0.76v3.87c0,1.22.52,1.63,1.48,1.63a1.73,1.73,0,0,0,1.73-2v-3.53h0.76v6.05h-0.76v-0.88Z" transform="translate(-13 -42.8)"/><path class="cls-2" d="M484,234.24h0.76v0.91h0a1.91,1.91,0,0,1,1.78-1.06c1.32,0,2.53,1,2.53,3.08,0,2.51-1.29,3.28-2.48,3.28a1.81,1.81,0,0,1-1.83-1h0v4H484v-9.18Zm2.52,0.55c-1.5,0-1.8,1.31-1.8,2.47s0.3,2.47,1.79,2.47c1.08,0,1.83-.95,1.83-2.47S487.58,234.8,486.51,234.8Z" transform="translate(-13 -42.8)"/><path class="cls-2" d="M494.24,239.41h0a2.12,2.12,0,0,1-3.93-1.07v-4.1H491v3.87c0,1.22.52,1.63,1.48,1.63a1.73,1.73,0,0,0,1.73-2v-3.53H495v6.05h-0.76v-0.88Z" transform="translate(-13 -42.8)"/><path class="cls-2" d="M496.84,238.61a1.61,1.61,0,0,0,1.75,1.2,1.28,1.28,0,0,0,1.47-1.24c0-1.8-3.58-.42-3.58-2.82a1.8,1.8,0,0,1,2.07-1.66c1.19,0,2,.35,2.28,1.37l-0.72.18a1.29,1.29,0,0,0-1.45-.92c-1.13,0-1.42.45-1.42,1.06,0,1.56,3.58.39,3.58,2.82,0,1-.83,1.84-2.34,1.84a2.31,2.31,0,0,1-2.37-1.6Z" transform="translate(-13 -42.8)"/><path class="cls-2" d="M502,237.37v-0.78h3.53v0.78H502Z" transform="translate(-13 -42.8)"/><path class="cls-2" d="M506.84,231.32h0.76v9h-0.76v-9Z" transform="translate(-13 -42.8)"/><path class="cls-2" d="M509.19,231.75h0.76v1.18h-0.76v-1.18Zm0,2.5h0.76v6.05h-0.76v-6.05Z" transform="translate(-13 -42.8)"/><path class="cls-2" d="M511.53,231.32h0.76v6.11l3.3-3.19h1l-2.46,2.38,2.7,3.67h-0.92l-2.32-3.15-1.26,1.22v1.93h-0.76v-9Z" transform="translate(-13 -42.8)"/><path class="cls-2" d="M518.07,237.24v0.16c0,1.35.59,2.33,1.94,2.33a2,2,0,0,0,2-1.29l0.71,0.19a2.78,2.78,0,0,1-2.73,1.8c-1.51,0-2.74-1.11-2.74-3.18s1.22-3.18,2.74-3.18c1.79,0,2.67,1.36,2.73,3.15h-4.61Zm3.76-.63a1.88,1.88,0,0,0-3.76,0h3.76Z" transform="translate(-13 -42.8)"/><path class="cls-2" d="M527.51,234.24h0.76v0.84h0a1.82,1.82,0,0,1,1.64-1l0.54,0v0.65a2.39,2.39,0,0,0-.5,0c-1.17,0-1.7.86-1.7,2.09v3.48h-0.76v-6.05Z" transform="translate(-13 -42.8)"/><path class="cls-2" d="M531.6,237.24v0.16c0,1.35.59,2.33,1.94,2.33a2,2,0,0,0,2-1.29l0.71,0.19a2.78,2.78,0,0,1-2.73,1.8c-1.51,0-2.74-1.11-2.74-3.18s1.22-3.18,2.74-3.18c1.79,0,2.67,1.36,2.73,3.15H531.6Zm3.76-.63a1.88,1.88,0,0,0-3.76,0h3.76Z" transform="translate(-13 -42.8)"/><path class="cls-2" d="M542.69,240.37c-0.93,0-1.5,0-1.58-1.06h0a2.23,2.23,0,0,1-2.12,1.13,1.69,1.69,0,0,1-1.93-1.6c0-1.29,1.12-1.66,2.17-1.93l1.85-.48v-0.61c0-.78-0.55-1.11-1.51-1.11a1.32,1.32,0,0,0-1.5,1.46L537.2,236a2.17,2.17,0,0,1,2.38-1.94c2.24,0,2.24,1.3,2.24,1.89v3c0,0.78.35,0.79,0.87,0.79v0.63Zm-3.66-.63a2,2,0,0,0,2-2v-0.69l-2.18.6a1.18,1.18,0,0,0-1.08,1.13A1.06,1.06,0,0,0,539,239.74Z" transform="translate(-13 -42.8)"/><path class="cls-2" d="M547.58,235.74a1.7,1.7,0,0,0-1.66-.95,2.17,2.17,0,0,0-2.05,2.47c0,1.66,1,2.47,2,2.47a1.8,1.8,0,0,0,1.66-1l0.77,0.19a2.49,2.49,0,0,1-2.43,1.5c-1.51,0-2.71-1.27-2.74-3.18a2.9,2.9,0,0,1,2.91-3.18,2.46,2.46,0,0,1,2.33,1.5Z" transform="translate(-13 -42.8)"/><path class="cls-2" d="M548.62,234.24h1.24v-2.58h0.76v2.58h1.31v0.63h-1.31v4c0,0.45,0,.87.44,0.87a1.42,1.42,0,0,0,.83-0.3v0.76a2.46,2.46,0,0,1-1,.25,1,1,0,0,1-1-1.07v-4.5h-1.24v-0.63Z" transform="translate(-13 -42.8)"/><path class="cls-2" d="M552.82,231.75h0.76v1.18h-0.76v-1.18Zm0,2.5h0.76v6.05h-0.76v-6.05Z" transform="translate(-13 -42.8)"/><path class="cls-2" d="M557.52,234.09c1.51,0,2.73,1.11,2.73,3.18s-1.22,3.18-2.73,3.18-2.74-1.11-2.74-3.18S556,234.09,557.52,234.09Zm-2,3.18c0,1.56.86,2.47,2,2.47s2-.91,2-2.47-0.86-2.47-2-2.47S555.54,235.72,555.54,237.27Z" transform="translate(-13 -42.8)"/><path class="cls-2" d="M561.46,234.24h0.76v0.88h0a2.12,2.12,0,0,1,3.93,1.07v4.1h-0.76v-3.87c0-1.22-.52-1.63-1.47-1.63a1.73,1.73,0,0,0-1.73,2v3.53h-0.76v-6.05Z" transform="translate(-13 -42.8)"/><path class="cls-2" d="M469.89,247.52h0.92l2.81,7.61,2.86-7.61h0.88l-3.37,9h-0.76Z" transform="translate(-13 -42.8)"/><path class="cls-2" d="M478.15,247.95h0.76v1.18h-0.76v-1.18Zm0,2.5h0.76v6h-0.76v-6Z" transform="translate(-13 -42.8)"/><path class="cls-2" d="M480.61,250.44h0.76v0.84h0a1.82,1.82,0,0,1,1.64-1l0.54,0V251a2.33,2.33,0,0,0-.5-0.05c-1.17,0-1.7.86-1.7,2.09v3.48h-0.76v-6Z" transform="translate(-13 -42.8)"/><path class="cls-2" d="M489.49,256.57c-0.93,0-1.5,0-1.58-1.06h0a2.23,2.23,0,0,1-2.12,1.13,1.69,1.69,0,0,1-1.93-1.6c0-1.29,1.12-1.66,2.17-1.93l1.85-.48V252c0-.78-0.55-1.11-1.51-1.11a1.32,1.32,0,0,0-1.5,1.46l-0.86-.15a2.17,2.17,0,0,1,2.38-1.94c2.24,0,2.24,1.3,2.24,1.89v3c0,0.78.35,0.79,0.87,0.79v0.63Zm-3.66-.63a2,2,0,0,0,2-2v-0.69l-2.18.61A1.18,1.18,0,0,0,484.6,255,1.06,1.06,0,0,0,485.84,255.94Z" transform="translate(-13 -42.8)"/><path class="cls-2" d="M490.29,247.52H491v9h-0.76v-9Z" transform="translate(-13 -42.8)"/><path class="cls-2" d="M496.39,254.81a1.61,1.61,0,0,0,1.75,1.2,1.28,1.28,0,0,0,1.47-1.24c0-1.8-3.58-.42-3.58-2.82a1.8,1.8,0,0,1,2.07-1.66c1.19,0,2,.35,2.28,1.38l-0.72.18a1.29,1.29,0,0,0-1.45-.92c-1.13,0-1.42.45-1.42,1.06,0,1.56,3.58.39,3.58,2.82,0,1-.83,1.84-2.34,1.84a2.31,2.31,0,0,1-2.37-1.6Z" transform="translate(-13 -42.8)"/><path class="cls-2" d="M501.06,250.44h0.71l1.75,5.09h0l2-5.09h0.72l-3,7.68c-0.26.69-.54,1.5-1.47,1.5a2,2,0,0,1-.81-0.23v-0.78a1.75,1.75,0,0,0,.78.3,1,1,0,0,0,.76-0.82l0.62-1.59Z" transform="translate(-13 -42.8)"/><path class="cls-2" d="M507.09,250.44h0.76v0.88h0a2.11,2.11,0,0,1,3.93,1.07v4.1h-0.76v-3.87c0-1.22-.52-1.62-1.47-1.62a1.73,1.73,0,0,0-1.73,2v3.53h-0.76v-6Z" transform="translate(-13 -42.8)"/><path class="cls-2" d="M517.35,255.67h0a1.85,1.85,0,0,1-1.76,1c-1.13,0-2.55-.86-2.55-3.1s1.15-3.25,2.53-3.25a1.94,1.94,0,0,1,1.78.95h0v-3.72h0.76v9h-0.76v-0.82Zm-1.75.26c1.41,0,1.79-1.29,1.79-2.47s-0.3-2.47-1.74-2.47c-1.13,0-1.88.95-1.88,2.47S514.52,255.94,515.6,255.94Z" transform="translate(-13 -42.8)"/><path class="cls-2" d="M519.81,250.44h0.76v0.84h0a1.82,1.82,0,0,1,1.64-1l0.54,0V251a2.33,2.33,0,0,0-.5-0.05c-1.17,0-1.7.86-1.7,2.09v3.48h-0.76v-6Z" transform="translate(-13 -42.8)"/><path class="cls-2" d="M525.78,250.29c1.51,0,2.73,1.11,2.73,3.18s-1.22,3.18-2.73,3.18-2.74-1.11-2.74-3.18S524.27,250.29,525.78,250.29Zm-2,3.18c0,1.56.86,2.47,2,2.47s2-.91,2-2.47-0.86-2.47-2-2.47S523.8,251.92,523.8,253.47Z" transform="translate(-13 -42.8)"/><path class="cls-2" d="M529.79,250.44h0.76v1h0a1.74,1.74,0,0,1,1.68-1.12,1.57,1.57,0,0,1,1.74,1.32h0a1.87,1.87,0,0,1,1.89-1.32c1.75,0,1.75,1.47,1.75,2.21v4H536.9v-3.91c0-.68,0-1.59-1.16-1.59s-1.64,1-1.64,2.13v3.37h-0.76v-3.81c0-.78-0.08-1.69-1.16-1.69-0.93,0-1.64.83-1.64,2.17v3.33h-0.76v-6Z" transform="translate(-13 -42.8)"/><path class="cls-2" d="M539.78,253.44v0.16c0,1.35.59,2.33,1.94,2.33a2,2,0,0,0,2-1.29l0.71,0.19a2.78,2.78,0,0,1-2.73,1.8c-1.51,0-2.74-1.11-2.74-3.18s1.22-3.18,2.74-3.18c1.79,0,2.67,1.36,2.73,3.15h-4.61Zm3.76-.63a1.88,1.88,0,0,0-3.76,0h3.76Z" transform="translate(-13 -42.8)"/><path class="cls-2" d="M470.86,263.72h0.86v9h-0.86v-9Z" transform="translate(-13 -42.8)"/><path class="cls-2" d="M473.5,263.72h3.86c2.37,0,2.67,1.6,2.67,2.11a1.78,1.78,0,0,1-1.64,2v0a2.16,2.16,0,0,1,2,2.34c0,1.3-.86,2.5-2.91,2.5H473.5v-9Zm0.86,3.78h2.75c1.31,0,2.07-.53,2.07-1.51s-0.66-1.49-2-1.49h-2.82v3Zm0,4.41h3.1a1.76,1.76,0,0,0,2-1.71c0-1.13-.83-1.92-2.34-1.92h-2.8v3.63Z" transform="translate(-13 -42.8)"/><path class="cls-2" d="M481.86,263.72h3.53c2.75,0,3.54,2.52,3.54,4.49s-0.86,4.49-3.78,4.49h-3.29v-9Zm0.86,8.19h2.38c2.23,0,3-1.9,3-3.71s-0.69-3.71-2.8-3.71h-2.56v7.41Z" transform="translate(-13 -42.8)"/><path class="cls-2" d="M494.47,267.27h-1.32v-0.63h1.32v-1.92a1.23,1.23,0,0,1,1.49-1.24,1.73,1.73,0,0,1,.67.13v0.72a1.37,1.37,0,0,0-.69-0.14c-0.52,0-.71.29-0.71,0.9v1.55h1.32v0.63h-1.32v5.42h-0.76v-5.42Z" transform="translate(-13 -42.8)"/><path class="cls-2" d="M497.51,263.72h0.76v9h-0.76v-9Z" transform="translate(-13 -42.8)"/><path class="cls-2" d="M505.12,272.77c-0.93,0-1.5,0-1.58-1.06h0a2.23,2.23,0,0,1-2.12,1.13,1.69,1.69,0,0,1-1.93-1.6c0-1.29,1.12-1.66,2.17-1.93l1.85-.48v-0.61c0-.78-0.55-1.11-1.51-1.11a1.32,1.32,0,0,0-1.5,1.46l-0.86-.15a2.17,2.17,0,0,1,2.38-1.94c2.24,0,2.24,1.3,2.24,1.89v3c0,0.78.35,0.79,0.87,0.79v0.63Zm-3.66-.63a2,2,0,0,0,2-2v-0.69l-2.18.6a1.18,1.18,0,0,0-1.08,1.13A1.06,1.06,0,0,0,501.46,272.14Z" transform="translate(-13 -42.8)"/><path class="cls-2" d="M506,266.64h0.76v0.84h0a1.82,1.82,0,0,1,1.64-1l0.54,0v0.65a2.39,2.39,0,0,0-.5,0c-1.17,0-1.7.86-1.7,2.09v3.48H506v-6.05Z" transform="translate(-13 -42.8)"/><path class="cls-2" d="M510.12,269.64v0.16c0,1.35.59,2.33,1.94,2.33a2,2,0,0,0,2-1.29l0.71,0.19a2.78,2.78,0,0,1-2.73,1.8c-1.51,0-2.74-1.11-2.74-3.18s1.22-3.18,2.74-3.18c1.79,0,2.67,1.36,2.73,3.15h-4.61Zm3.76-.63a1.88,1.88,0,0,0-3.76,0h3.76Z" transform="translate(-13 -42.8)"/><path class="cls-2" d="M470.9,279.92h0.84l5.13,7.54h0v-7.54h0.86v9h-0.84l-5.13-7.54h0v7.54H470.9v-9Z" transform="translate(-13 -42.8)"/><path class="cls-2" d="M481.91,282.69c1.51,0,2.73,1.11,2.73,3.18s-1.22,3.18-2.73,3.18-2.74-1.11-2.74-3.18S480.4,282.69,481.91,282.69Zm-2,3.18c0,1.56.86,2.47,2,2.47s2-.91,2-2.47-0.86-2.47-2-2.47S479.93,284.32,479.93,285.87Z" transform="translate(-13 -42.8)"/><path class="cls-2" d="M485.85,282.84h0.76v0.88h0a2.12,2.12,0,0,1,3.93,1.07v4.1h-0.76V285c0-1.22-.52-1.63-1.47-1.63a1.73,1.73,0,0,0-1.73,2v3.53h-0.76v-6Z" transform="translate(-13 -42.8)"/><path class="cls-2" d="M492.4,287.22a1.61,1.61,0,0,0,1.75,1.2,1.28,1.28,0,0,0,1.47-1.24c0-1.8-3.58-.42-3.58-2.82a1.8,1.8,0,0,1,2.07-1.66c1.19,0,2,.35,2.28,1.37l-0.72.18a1.29,1.29,0,0,0-1.45-.92c-1.13,0-1.42.45-1.42,1.06,0,1.56,3.58.39,3.58,2.82,0,1-.83,1.84-2.34,1.84a2.31,2.31,0,0,1-2.37-1.6Z" transform="translate(-13 -42.8)"/><path class="cls-2" d="M497.74,282.84h0.76v0.91h0a1.91,1.91,0,0,1,1.78-1.06c1.32,0,2.53,1,2.53,3.08,0,2.51-1.29,3.28-2.48,3.28a1.8,1.8,0,0,1-1.83-1h0v4h-0.76v-9.18Zm2.52,0.55c-1.5,0-1.8,1.31-1.8,2.47s0.3,2.47,1.79,2.47c1.08,0,1.83-.95,1.83-2.47S501.34,283.4,500.27,283.4Z" transform="translate(-13 -42.8)"/><path class="cls-2" d="M504.52,285.84V286c0,1.35.59,2.33,1.94,2.33a2,2,0,0,0,2-1.29l0.71,0.19a2.78,2.78,0,0,1-2.73,1.8c-1.51,0-2.74-1.11-2.74-3.18s1.22-3.18,2.74-3.18c1.79,0,2.67,1.36,2.73,3.15h-4.61Zm3.76-.63a1.88,1.88,0,0,0-3.76,0h3.76Z" transform="translate(-13 -42.8)"/><path class="cls-2" d="M514.44,284.34a1.7,1.7,0,0,0-1.66-.95,2.17,2.17,0,0,0-2.05,2.47c0,1.66,1,2.47,2,2.47a1.8,1.8,0,0,0,1.66-1l0.77,0.19a2.5,2.5,0,0,1-2.43,1.5c-1.51,0-2.71-1.27-2.74-3.18a2.9,2.9,0,0,1,2.91-3.18,2.46,2.46,0,0,1,2.33,1.5Z" transform="translate(-13 -42.8)"/><path class="cls-2" d="M516.18,280.35h0.76v1.18h-0.76v-1.18Zm0,2.5h0.76v6h-0.76v-6Z" transform="translate(-13 -42.8)"/><path class="cls-2" d="M519.22,283.47h-1.32v-0.63h1.32v-1.92a1.23,1.23,0,0,1,1.49-1.24,1.71,1.71,0,0,1,.67.13v0.72a1.37,1.37,0,0,0-.69-0.14c-0.52,0-.71.29-0.71,0.9v1.55h1.32v0.63H520v5.42h-0.76v-5.42Z" transform="translate(-13 -42.8)"/><path class="cls-2" d="M522.25,280.35H523v1.18h-0.76v-1.18Zm0,2.5H523v6h-0.76v-6Z" transform="translate(-13 -42.8)"/><path class="cls-2" d="M528.69,284.34a1.7,1.7,0,0,0-1.66-.95,2.17,2.17,0,0,0-2.05,2.47c0,1.66,1,2.47,2,2.47a1.8,1.8,0,0,0,1.66-1l0.77,0.19A2.5,2.5,0,0,1,527,289c-1.51,0-2.71-1.27-2.74-3.18a2.9,2.9,0,0,1,2.91-3.18,2.46,2.46,0,0,1,2.33,1.5Z" transform="translate(-13 -42.8)"/><path class="cls-2" d="M90,152l3.48,9H92.58l-1-2.7H87.62L86.55,161H85.67l3.66-9H90Zm1.27,5.57-1.66-4.42-1.71,4.42h3.38Z" transform="translate(-13 -42.8)"/><path class="cls-2" d="M98.32,156.45a1.7,1.7,0,0,0-1.66-.95A2.17,2.17,0,0,0,94.6,158c0,1.66,1,2.47,2,2.47a1.8,1.8,0,0,0,1.66-1L99,159.65a2.5,2.5,0,0,1-2.43,1.5c-1.51,0-2.71-1.27-2.74-3.18a2.9,2.9,0,0,1,2.91-3.18,2.46,2.46,0,0,1,2.33,1.5Z" transform="translate(-13 -42.8)"/><path class="cls-2" d="M104,160.12h0a2.11,2.11,0,0,1-3.93-1.07V155h0.76v3.87c0,1.22.52,1.63,1.48,1.63a1.73,1.73,0,0,0,1.73-2V155h0.76v6H104v-0.88Z" transform="translate(-13 -42.8)"/><path class="cls-2" d="M105.67,155h1.24v-2.58h0.76V155H109v0.63h-1.31v4c0,0.45,0,.87.44,0.87a1.42,1.42,0,0,0,.83-0.3v0.76a2.46,2.46,0,0,1-1,.25,1,1,0,0,1-1-1.07v-4.5h-1.24V155Z" transform="translate(-13 -42.8)"/><path class="cls-2" d="M110.34,158v0.16c0,1.35.59,2.33,1.94,2.33a2,2,0,0,0,2-1.29l0.71,0.19a2.78,2.78,0,0,1-2.73,1.8c-1.51,0-2.74-1.11-2.74-3.18s1.22-3.18,2.74-3.18c1.79,0,2.67,1.36,2.73,3.15h-4.61Zm3.76-.63a1.88,1.88,0,0,0-3.76,0h3.76Z" transform="translate(-13 -42.8)"/><path class="cls-2" d="M119.84,152h0.86v9h-0.86v-9Z" transform="translate(-13 -42.8)"/><path class="cls-2" d="M122.46,155h0.76v0.88h0a2.11,2.11,0,0,1,3.93,1.07V161h-0.76v-3.87c0-1.22-.52-1.63-1.47-1.63a1.73,1.73,0,0,0-1.73,2V161h-0.76v-6Z" transform="translate(-13 -42.8)"/><path class="cls-2" d="M129.46,155.58h-1.32V155h1.32V153a1.23,1.23,0,0,1,1.49-1.24,1.73,1.73,0,0,1,.67.13v0.72a1.37,1.37,0,0,0-.69-0.14c-0.52,0-.71.29-0.71,0.9V155h1.32v0.63h-1.32V161h-0.76v-5.42Z" transform="translate(-13 -42.8)"/><path class="cls-2" d="M136.45,160.12h0a2.11,2.11,0,0,1-3.93-1.07V155h0.76v3.87c0,1.22.52,1.63,1.48,1.63a1.73,1.73,0,0,0,1.73-2V155h0.76v6h-0.76v-0.88Z" transform="translate(-13 -42.8)"/><path class="cls-2" d="M139,159.33a1.61,1.61,0,0,0,1.75,1.2,1.28,1.28,0,0,0,1.47-1.24c0-1.8-3.58-.42-3.58-2.82a1.8,1.8,0,0,1,2.07-1.66c1.19,0,2,.35,2.28,1.37l-0.72.18a1.29,1.29,0,0,0-1.45-.92c-1.13,0-1.42.45-1.42,1.06,0,1.56,3.58.39,3.58,2.82,0,1-.83,1.84-2.34,1.84a2.31,2.31,0,0,1-2.37-1.6Z" transform="translate(-13 -42.8)"/><path class="cls-2" d="M144.39,152.46h0.76v1.18h-0.76v-1.18Zm0,2.5h0.76v6h-0.76v-6Z" transform="translate(-13 -42.8)"/><path class="cls-2" d="M149.09,154.8c1.51,0,2.73,1.11,2.73,3.18s-1.22,3.18-2.73,3.18-2.74-1.11-2.74-3.18S147.57,154.8,149.09,154.8Zm-2,3.18c0,1.56.86,2.47,2,2.47s2-.91,2-2.47-0.86-2.47-2-2.47S147.11,156.43,147.11,158Z" transform="translate(-13 -42.8)"/><path class="cls-2" d="M153,155h0.76v0.88h0a2.11,2.11,0,0,1,3.93,1.07V161H157v-3.87c0-1.22-.52-1.63-1.47-1.63a1.73,1.73,0,0,0-1.73,2V161H153v-6Z" transform="translate(-13 -42.8)"/><path class="cls-2" d="M162.86,152h4a2.39,2.39,0,0,1,2.62,2.5c0,1.54-1,2.34-2.63,2.46l2.87,4H168.6l-2.85-4h-2v4h-0.86v-9Zm0.86,4.21h2.66c1.81,0,2.22-.92,2.22-1.71,0-1-.55-1.71-2.08-1.71h-2.8v3.43Z" transform="translate(-13 -42.8)"/><path class="cls-2" d="M171,158v0.16c0,1.35.59,2.33,1.94,2.33a2,2,0,0,0,2-1.29l0.71,0.19a2.78,2.78,0,0,1-2.73,1.8c-1.51,0-2.74-1.11-2.74-3.18s1.22-3.18,2.74-3.18c1.79,0,2.67,1.36,2.73,3.15H171Zm3.76-.63a1.88,1.88,0,0,0-3.76,0h3.76Z" transform="translate(-13 -42.8)"/><path class="cls-2" d="M182.1,161.08c-0.93,0-1.5,0-1.58-1.06h0a2.23,2.23,0,0,1-2.12,1.13,1.69,1.69,0,0,1-1.93-1.6c0-1.29,1.12-1.66,2.17-1.93l1.85-.48v-0.6c0-.78-0.55-1.11-1.51-1.11a1.32,1.32,0,0,0-1.5,1.46l-0.86-.15A2.17,2.17,0,0,1,179,154.8c2.24,0,2.24,1.3,2.24,1.89v3c0,0.78.35,0.79,0.87,0.79v0.63Zm-3.66-.63a2,2,0,0,0,2-2V157.8l-2.18.6a1.18,1.18,0,0,0-1.08,1.13A1.06,1.06,0,0,0,178.44,160.45Z" transform="translate(-13 -42.8)"/><path class="cls-2" d="M187,156.45a1.7,1.7,0,0,0-1.66-.95,2.17,2.17,0,0,0-2.05,2.47c0,1.66,1,2.47,2,2.47a1.8,1.8,0,0,0,1.66-1l0.77,0.19a2.5,2.5,0,0,1-2.43,1.5c-1.51,0-2.71-1.27-2.74-3.18a2.9,2.9,0,0,1,2.91-3.18,2.46,2.46,0,0,1,2.33,1.5Z" transform="translate(-13 -42.8)"/><path class="cls-2" d="M188,155h1.24v-2.58H190V155h1.31v0.63H190v4c0,0.45,0,.87.44,0.87a1.42,1.42,0,0,0,.83-0.3v0.76a2.46,2.46,0,0,1-1,.25,1,1,0,0,1-1-1.07v-4.5H188V155Z" transform="translate(-13 -42.8)"/><path class="cls-2" d="M192.23,152.46H193v1.18h-0.76v-1.18Zm0,2.5H193v6h-0.76v-6Z" transform="translate(-13 -42.8)"/><path class="cls-2" d="M196.93,154.8c1.51,0,2.73,1.11,2.73,3.18s-1.22,3.18-2.73,3.18-2.74-1.11-2.74-3.18S195.42,154.8,196.93,154.8Zm-2,3.18c0,1.56.86,2.47,2,2.47s2-.91,2-2.47-0.86-2.47-2-2.47S194.95,156.43,194.95,158Z" transform="translate(-13 -42.8)"/><path class="cls-2" d="M200.87,155h0.76v0.88h0a2.11,2.11,0,0,1,3.93,1.07V161h-0.76v-3.87c0-1.22-.52-1.63-1.47-1.63a1.73,1.73,0,0,0-1.73,2V161h-0.76v-6Z" transform="translate(-13 -42.8)"/><path class="cls-2" d="M374.13,152h3.53c2.75,0,3.54,2.52,3.54,4.49s-0.86,4.49-3.78,4.49h-3.29v-9Zm0.86,8.19h2.38c2.23,0,3-1.9,3-3.71s-0.69-3.71-2.8-3.71H375v7.41Z" transform="translate(-13 -42.8)"/><path class="cls-2" d="M383,158v0.16c0,1.35.59,2.33,1.94,2.33a2,2,0,0,0,2-1.29l0.71,0.19a2.78,2.78,0,0,1-2.73,1.8c-1.51,0-2.74-1.11-2.74-3.18s1.22-3.18,2.74-3.18c1.79,0,2.67,1.36,2.73,3.15H383Zm3.76-.63a1.88,1.88,0,0,0-3.76,0h3.76Z" transform="translate(-13 -42.8)"/><path class="cls-2" d="M388.85,152h0.76v9h-0.76v-9Z" transform="translate(-13 -42.8)"/><path class="cls-2" d="M396.46,161.08c-0.93,0-1.5,0-1.58-1.06h0a2.23,2.23,0,0,1-2.12,1.13,1.69,1.69,0,0,1-1.93-1.6c0-1.29,1.12-1.66,2.17-1.93l1.85-.48v-0.6c0-.78-0.55-1.11-1.51-1.11a1.32,1.32,0,0,0-1.5,1.46l-0.86-.15a2.17,2.17,0,0,1,2.38-1.94c2.24,0,2.24,1.3,2.24,1.89v3c0,0.78.35,0.79,0.87,0.79v0.63Zm-3.66-.63a2,2,0,0,0,2-2V157.8l-2.18.6a1.18,1.18,0,0,0-1.08,1.13A1.06,1.06,0,0,0,392.81,160.45Z" transform="translate(-13 -42.8)"/><path class="cls-2" d="M396.59,155h0.71L399,160h0l2-5.09h0.72l-3,7.68c-0.26.69-.54,1.5-1.47,1.5a2,2,0,0,1-.81-0.23v-0.78a1.75,1.75,0,0,0,.78.3,1,1,0,0,0,.76-0.82l0.62-1.59Z" transform="translate(-13 -42.8)"/><path class="cls-2" d="M403.1,158v0.16c0,1.35.59,2.33,1.94,2.33a2,2,0,0,0,2-1.29l0.71,0.19a2.78,2.78,0,0,1-2.73,1.8c-1.51,0-2.74-1.11-2.74-3.18s1.22-3.18,2.74-3.18c1.79,0,2.67,1.36,2.73,3.15H403.1Zm3.76-.63a1.88,1.88,0,0,0-3.76,0h3.76Z" transform="translate(-13 -42.8)"/><path class="cls-2" d="M412.88,160.18h0a1.85,1.85,0,0,1-1.76,1c-1.13,0-2.55-.86-2.55-3.1s1.15-3.25,2.53-3.25a1.94,1.94,0,0,1,1.78.95h0V152h0.76v9h-0.76v-0.82Zm-1.75.26c1.41,0,1.79-1.29,1.79-2.47s-0.3-2.47-1.74-2.47c-1.13,0-1.88.95-1.88,2.47S410,160.45,411.13,160.45Z" transform="translate(-13 -42.8)"/><path class="cls-2" d="M418.9,152h0.86v9H418.9v-9Z" transform="translate(-13 -42.8)"/><path class="cls-2" d="M421.52,155h0.76v0.88h0a2.11,2.11,0,0,1,3.93,1.07V161h-0.76v-3.87c0-1.22-.52-1.63-1.47-1.63a1.73,1.73,0,0,0-1.73,2V161h-0.76v-6Z" transform="translate(-13 -42.8)"/><path class="cls-2" d="M428.51,155.58h-1.32V155h1.32V153A1.23,1.23,0,0,1,430,151.8a1.73,1.73,0,0,1,.67.13v0.72a1.37,1.37,0,0,0-.69-0.14c-0.52,0-.71.29-0.71,0.9V155h1.32v0.63h-1.32V161h-0.76v-5.42Z" transform="translate(-13 -42.8)"/><path class="cls-2" d="M435.51,160.12h0a2.11,2.11,0,0,1-3.93-1.07V155h0.76v3.87c0,1.22.52,1.63,1.48,1.63a1.73,1.73,0,0,0,1.73-2V155h0.76v6h-0.76v-0.88Z" transform="translate(-13 -42.8)"/><path class="cls-2" d="M438.1,159.33a1.61,1.61,0,0,0,1.75,1.2,1.28,1.28,0,0,0,1.47-1.24c0-1.8-3.58-.42-3.58-2.82a1.8,1.8,0,0,1,2.07-1.66c1.19,0,2,.35,2.28,1.37l-0.72.18a1.29,1.29,0,0,0-1.45-.92c-1.13,0-1.42.45-1.42,1.06,0,1.56,3.58.39,3.58,2.82,0,1-.83,1.84-2.34,1.84a2.31,2.31,0,0,1-2.37-1.6Z" transform="translate(-13 -42.8)"/><path class="cls-2" d="M443.44,152.46h0.76v1.18h-0.76v-1.18Zm0,2.5h0.76v6h-0.76v-6Z" transform="translate(-13 -42.8)"/><path class="cls-2" d="M448.14,154.8c1.51,0,2.73,1.11,2.73,3.18s-1.22,3.18-2.73,3.18-2.74-1.11-2.74-3.18S446.63,154.8,448.14,154.8Zm-2,3.18c0,1.56.86,2.47,2,2.47s2-.91,2-2.47-0.86-2.47-2-2.47S446.16,156.43,446.16,158Z" transform="translate(-13 -42.8)"/><path class="cls-2" d="M452.09,155h0.76v0.88h0a2.11,2.11,0,0,1,3.93,1.07V161H456v-3.87c0-1.22-.52-1.63-1.47-1.63a1.73,1.73,0,0,0-1.73,2V161h-0.76v-6Z" transform="translate(-13 -42.8)"/><path class="cls-2" d="M461.91,152h4a2.39,2.39,0,0,1,2.62,2.5c0,1.54-1,2.34-2.63,2.46l2.87,4h-1.08l-2.85-4h-2v4h-0.86v-9Zm0.86,4.21h2.66c1.81,0,2.22-.92,2.22-1.71,0-1-.55-1.71-2.08-1.71h-2.8v3.43Z" transform="translate(-13 -42.8)"/><path class="cls-2" d="M470.07,158v0.16c0,1.35.59,2.33,1.94,2.33a2,2,0,0,0,2-1.29l0.71,0.19a2.78,2.78,0,0,1-2.73,1.8c-1.51,0-2.74-1.11-2.74-3.18s1.22-3.18,2.74-3.18c1.79,0,2.67,1.36,2.73,3.15h-4.61Zm3.76-.63a1.88,1.88,0,0,0-3.76,0h3.76Z" transform="translate(-13 -42.8)"/><path class="cls-2" d="M481.16,161.08c-0.93,0-1.5,0-1.58-1.06h0a2.23,2.23,0,0,1-2.12,1.13,1.69,1.69,0,0,1-1.93-1.6c0-1.29,1.12-1.66,2.17-1.93l1.85-.48v-0.6c0-.78-0.55-1.11-1.51-1.11a1.32,1.32,0,0,0-1.5,1.46l-0.86-.15A2.17,2.17,0,0,1,478,154.8c2.24,0,2.24,1.3,2.24,1.89v3c0,0.78.35,0.79,0.87,0.79v0.63Zm-3.66-.63a2,2,0,0,0,2-2V157.8l-2.18.6a1.18,1.18,0,0,0-1.08,1.13A1.06,1.06,0,0,0,477.5,160.45Z" transform="translate(-13 -42.8)"/><path class="cls-2" d="M486,156.45a1.7,1.7,0,0,0-1.66-.95,2.17,2.17,0,0,0-2.05,2.47c0,1.66,1,2.47,2,2.47a1.8,1.8,0,0,0,1.66-1l0.77,0.19a2.5,2.5,0,0,1-2.43,1.5c-1.51,0-2.71-1.27-2.74-3.18a2.9,2.9,0,0,1,2.91-3.18,2.46,2.46,0,0,1,2.33,1.5Z" transform="translate(-13 -42.8)"/><path class="cls-2" d="M487.09,155h1.24v-2.58h0.76V155h1.31v0.63h-1.31v4c0,0.45,0,.87.44,0.87a1.42,1.42,0,0,0,.83-0.3v0.76a2.46,2.46,0,0,1-1,.25,1,1,0,0,1-1-1.07v-4.5h-1.24V155Z" transform="translate(-13 -42.8)"/><path class="cls-2" d="M491.28,152.46H492v1.18h-0.76v-1.18Zm0,2.5H492v6h-0.76v-6Z" transform="translate(-13 -42.8)"/><path class="cls-2" d="M496,154.8c1.51,0,2.73,1.11,2.73,3.18s-1.22,3.18-2.73,3.18-2.74-1.11-2.74-3.18S494.47,154.8,496,154.8ZM494,158c0,1.56.86,2.47,2,2.47s2-.91,2-2.47-0.86-2.47-2-2.47S494,156.43,494,158Z" transform="translate(-13 -42.8)"/><path class="cls-2" d="M499.93,155h0.76v0.88h0a2.11,2.11,0,0,1,3.93,1.07V161h-0.76v-3.87c0-1.22-.52-1.63-1.47-1.63a1.73,1.73,0,0,0-1.73,2V161h-0.76v-6Z" transform="translate(-13 -42.8)"/></svg>